<svg width="163" height="95" viewBox="0 0 163 95" fill="none" xmlns="http://www.w3.org/2000/svg">
<path d="M124.171 81.8838C124.171 81.8838 137.23 84.5218 154.413 91.7431C157.982 93.2429 161.565 53.2394 154.766 38.4789C148.576 25.0401 133.81 10.714 106.28 6.46825C81.2591 2.60939 58.4234 5.14232 44.3605 21.5882C34.1417 33.5386 26.707 54.7839 26.707 54.7839L124.171 81.8838Z" fill="#82BE28"/>
<path d="M154.649 94.7926C154.189 94.7926 153.726 94.7028 153.278 94.5202C146.136 91.6022 126.878 84.7799 126.685 84.7116C125.123 84.1589 124.305 82.444 124.858 80.8825C125.411 79.32 127.122 78.4997 128.687 79.0553C129.422 79.3161 145.492 85.0085 153.679 88.2194C155.905 82.1325 158.761 58.196 154.638 45.6413C147.94 25.2419 129.553 10.86 105.456 7.17058C88.0327 4.50261 63.6724 5.19499 46.5581 23.6286C43.7612 26.6432 40.9478 30.7243 38.1978 35.7604C37.4038 37.2126 35.5825 37.7477 34.1265 36.9548C32.6724 36.1608 32.1382 34.3376 32.9321 32.8835C35.9204 27.4128 39.0259 22.9255 42.1607 19.5466C52.5942 8.30826 72.2036 -3.98568 106.364 1.23893C132.743 5.27799 152.92 21.1774 160.339 43.7702C164.983 57.9128 162.278 89.0456 157.276 93.7067C156.509 94.4206 155.584 94.7926 154.649 94.7926Z" fill="black"/>
<path d="M14.4013 73.3426C24.5 67.3967 30.7713 66.0896 39.1664 66.5242C49.9922 67.0847 64.6646 72.0908 83.2376 80.9821C116.213 96.7684 131.863 78.911 131.863 78.911C131.863 78.911 99.1256 44.6269 55.4446 44.6172C30.8143 44.6117 13.7687 56.6842 5.19861 64.4405C-3.37143 72.1968 5.9324 78.329 14.4013 73.3426H14.4013Z" fill="#82BE28"/>
<path d="M103.311 90.3815C93.9562 90.3815 83.048 88.4303 71.9103 82.2672C38.588 63.8278 27.3342 68.1969 16.0842 75.8258C11.049 79.2418 4.80876 77.6891 1.91618 74.2936C-0.300617 71.693 -1.34261 67.0133 3.01384 62.3844C6.93572 58.2174 19.7453 49.7145 27.4826 45.6764C27.9367 45.4381 28.4484 45.1598 29.0148 44.8502C39.423 39.1774 67.0685 24.109 108.304 56.4899C109.608 57.5133 109.834 59.3991 108.811 60.7018C107.788 62.0045 105.901 62.2311 104.599 61.2086C66.4699 31.2692 41.3449 44.9645 31.8869 50.1188C31.2853 50.4469 30.7414 50.7428 30.259 50.9948C22.4953 55.0475 10.5226 63.1608 7.38299 66.4967C5.91033 68.0612 5.6076 69.3747 6.4826 70.402C7.68084 71.8053 10.5344 72.3385 12.717 70.86C27.5685 60.7868 41.8644 58.7838 74.8146 77.0172C101.732 91.9098 128.027 79.3219 128.289 79.193C129.774 78.4665 131.572 79.0729 132.305 80.5573C133.037 82.0417 132.431 83.8376 130.947 84.5719C130.208 84.9381 118.929 90.3805 103.311 90.3815H103.311Z" fill="black"/>
</svg>
