<svg width="183" height="187" viewBox="0 0 183 187" fill="none" xmlns="http://www.w3.org/2000/svg">
<path d="M95.7863 11.5672C85.6056 27.7284 64.654 122.825 67.1142 127.186C68.2543 129.196 98.7865 122.555 128.299 147.987C134.429 147.987 177.512 48.5599 179.132 41.5194C184.923 16.3275 110.357 -11.5845 95.7863 11.5672Z" fill="#2D8C3C"/>
<path d="M128.3 150.987C127.58 150.987 126.89 150.727 126.34 150.257C104.158 131.136 81.4664 130.816 71.7757 130.686C67.5354 130.626 65.6053 130.606 64.5052 128.655C63.9452 127.655 62.235 124.635 71.3857 83.6022C77.1561 57.7103 83.5166 34.2686 88.377 20.8776C88.947 19.3175 90.6671 18.5174 92.2172 19.0874C93.7773 19.6575 94.5774 21.3776 94.0074 22.9277C83.8766 50.8298 70.6157 112.774 69.9256 124.655C70.5256 124.675 71.2157 124.685 71.8657 124.695C81.9265 124.835 105.108 125.155 128.31 144.087C131.56 139.796 139.671 124.825 153.812 93.6729C165.873 67.0909 175.563 43.6692 176.213 40.859C177.573 34.9286 172.903 27.7181 163.382 21.0776C154.502 14.8671 142.201 9.74676 130.48 7.37659C118.259 4.89641 107.898 5.65646 102.078 9.43674C100.688 10.3368 98.8277 9.94678 97.9276 8.55667C97.0276 7.16657 97.4176 5.30644 98.8077 4.40637C113.979 -5.46435 147.231 2.46623 166.823 16.1572C178.614 24.3978 184.024 33.6485 182.064 42.2091C181.124 46.2894 169.283 74.2415 158.142 98.6533C134.26 150.997 130.82 150.997 128.3 150.997V150.987Z" fill="black"/>
<path d="M132.669 123.825C132.069 123.825 131.469 123.645 130.949 123.275C104.237 104.453 76.3149 107.334 72.7946 108.414C71.9746 109.034 70.8545 109.204 69.8344 108.774C68.3043 108.134 67.5942 106.373 68.2343 104.843C68.8843 103.293 70.4945 102.833 71.1745 102.633C76.9349 100.973 106.307 98.5729 134.399 118.364C135.749 119.314 136.079 121.195 135.129 122.545C134.549 123.375 133.619 123.815 132.669 123.815V123.825Z" fill="black"/>
<path d="M131.679 106.145C131.489 106.145 131.299 106.125 131.109 106.095C129.479 105.785 128.419 104.215 128.729 102.584C129.409 98.9942 138.32 78.2927 152.481 46.0503C154.871 40.5999 156.941 35.8896 157.161 35.3196C157.681 33.7494 159.371 32.9294 160.942 33.4494C162.512 33.9695 163.352 35.6996 162.832 37.2797C162.672 37.7597 161.772 39.8199 157.981 48.4605C151.201 63.9016 135.33 100.044 134.63 103.715C134.35 105.155 133.1 106.155 131.689 106.155L131.679 106.145Z" fill="black"/>
<path d="M111.989 97.8128C111.889 97.8128 111.779 97.8128 111.679 97.7928C110.029 97.6228 108.829 96.1526 108.999 94.5025C109.259 91.9423 126.87 40.2886 134.42 18.2069C134.961 16.6368 136.661 15.8068 138.231 16.3368C139.801 16.8768 140.631 18.577 140.101 20.1471C130.36 48.6092 115.669 91.9823 114.949 95.2526C114.729 96.7327 113.459 97.8128 111.989 97.8128ZM114.969 95.1226C114.969 95.1226 114.969 95.1926 114.959 95.2226C114.959 95.1826 114.959 95.1426 114.969 95.1226Z" fill="black"/>
<path d="M90.7267 95.5035C90.4466 95.5035 90.1666 95.4634 89.8866 95.3834C88.2965 94.9134 87.3864 93.2533 87.8465 91.6632C87.9265 91.4031 88.3965 89.603 89.1666 86.7128C91.7767 76.8921 97.8972 53.9104 102.668 36.8992C103.118 35.299 104.778 34.369 106.368 34.819C107.958 35.269 108.898 36.9192 108.448 38.5193C103.688 55.5005 97.5772 78.4522 94.967 88.2629C94.1669 91.2631 93.6769 93.1233 93.6069 93.3533C93.2269 94.6634 92.0268 95.5134 90.7267 95.5134V95.5035Z" fill="black"/>
<path d="M109.098 28.3287C108.818 28.3287 108.538 28.2887 108.268 28.2087C106.678 27.7486 105.758 26.0885 106.218 24.4984C108.628 16.1678 108.938 15.0977 110.638 14.2377C112.119 13.4976 113.919 14.0976 114.659 15.5878C115.229 16.7278 114.999 18.0579 114.189 18.948C113.709 20.1281 112.509 24.3084 111.969 26.1585C111.588 27.4686 110.388 28.3287 109.088 28.3287H109.098Z" fill="black"/>
</svg>
