<svg width="183" height="187" viewBox="0 0 183 187" fill="none" xmlns="http://www.w3.org/2000/svg">
<path d="M95.7863 11.5672C85.6056 27.7284 64.654 122.825 67.1142 127.186C68.2543 129.196 98.7865 122.555 128.299 147.987C134.429 147.987 177.512 48.5599 179.132 41.5194C184.923 16.3275 110.357 -11.5845 95.7863 11.5672Z" fill="white"/>
<path d="M128.3 150.987C127.58 150.987 126.89 150.727 126.34 150.257C104.158 131.136 81.4664 130.816 71.7757 130.686C67.5354 130.626 65.6053 130.606 64.5052 128.655C63.9452 127.655 62.235 124.635 71.3857 83.6022C77.1561 57.7103 83.5166 34.2686 88.377 20.8776C88.947 19.3175 90.6671 18.5174 92.2172 19.0874C93.7773 19.6575 94.5774 21.3776 94.0074 22.9277C83.8766 50.8298 70.6157 112.774 69.9256 124.655C70.5256 124.675 71.2157 124.685 71.8657 124.695C81.9265 124.835 105.108 125.155 128.31 144.087C131.56 139.796 139.671 124.825 153.812 93.6729C165.873 67.0909 175.563 43.6692 176.213 40.859C177.573 34.9286 172.903 27.7181 163.382 21.0776C154.502 14.8671 142.201 9.74676 130.48 7.37659C118.259 4.89641 107.898 5.65646 102.078 9.43674C100.688 10.3368 98.8277 9.94678 97.9276 8.55667C97.0276 7.16657 97.4176 5.30644 98.8077 4.40637C113.979 -5.46435 147.231 2.46623 166.823 16.1572C178.614 24.3978 184.024 33.6485 182.064 42.2091C181.124 46.2894 169.283 74.2415 158.142 98.6533C134.26 150.997 130.82 150.997 128.3 150.997V150.987Z" fill="black"/>
<path d="M132.669 123.826C132.069 123.826 131.469 123.646 130.949 123.276C104.237 104.454 76.3149 107.334 72.7946 108.415C71.9746 109.035 70.8545 109.205 69.8344 108.775C68.3043 108.135 67.5942 106.374 68.2343 104.844C68.8843 103.294 70.4945 102.834 71.1745 102.634C76.9349 100.974 106.307 98.5739 134.399 118.365C135.749 119.315 136.079 121.196 135.129 122.546C134.549 123.376 133.619 123.816 132.669 123.816V123.826Z" fill="black"/>
<path d="M131.679 106.144C131.489 106.144 131.299 106.124 131.109 106.094C129.479 105.784 128.419 104.214 128.729 102.583C129.409 98.9932 138.32 78.2917 152.481 46.0494C154.871 40.599 156.941 35.8886 157.161 35.3186C157.681 33.7485 159.371 32.9284 160.942 33.4484C162.512 33.9685 163.352 35.6986 162.832 37.2787C162.672 37.7588 161.772 39.8189 157.981 48.4595C151.201 63.9007 135.33 100.043 134.63 103.714C134.35 105.154 133.1 106.154 131.689 106.154L131.679 106.144Z" fill="black"/>
<path d="M111.989 97.8137C111.889 97.8137 111.779 97.8137 111.679 97.7937C110.029 97.6237 108.829 96.1536 108.999 94.5035C109.259 91.9433 126.87 40.2895 134.42 18.2079C134.961 16.6378 136.661 15.8077 138.231 16.3378C139.801 16.8778 140.631 18.5779 140.101 20.1481C130.36 48.6101 115.669 91.9833 114.949 95.2536C114.729 96.7337 113.459 97.8137 111.989 97.8137ZM114.969 95.1235C114.969 95.1235 114.969 95.1936 114.959 95.2236C114.959 95.1835 114.959 95.1435 114.969 95.1235Z" fill="black"/>
<path d="M90.7267 95.5035C90.4466 95.5035 90.1666 95.4634 89.8866 95.3834C88.2965 94.9134 87.3864 93.2533 87.8465 91.6632C87.9265 91.4031 88.3965 89.603 89.1666 86.7128C91.7767 76.8921 97.8972 53.9104 102.668 36.8992C103.118 35.299 104.778 34.369 106.368 34.819C107.958 35.269 108.898 36.9192 108.448 38.5193C103.688 55.5005 97.5772 78.4522 94.967 88.2629C94.1669 91.2631 93.6769 93.1233 93.6069 93.3533C93.2269 94.6634 92.0268 95.5134 90.7267 95.5134V95.5035Z" fill="black"/>
<path d="M109.098 28.3287C108.818 28.3287 108.538 28.2887 108.268 28.2087C106.678 27.7486 105.758 26.0885 106.218 24.4984C108.628 16.1678 108.938 15.0977 110.638 14.2377C112.119 13.4976 113.919 14.0976 114.659 15.5878C115.229 16.7278 114.999 18.0579 114.189 18.948C113.709 20.1281 112.509 24.3084 111.969 26.1585C111.588 27.4686 110.388 28.3287 109.088 28.3287H109.098Z" fill="black"/>
</svg>
