<svg width="199" height="105" viewBox="0 0 199 105" fill="none" xmlns="http://www.w3.org/2000/svg">
<path d="M165.632 69.6997C157.05 49.9814 159.874 10.9437 129.659 9.96917C115.769 9.52116 106.1 8.59552 104.905 6.05097C66.0685 -8.54777 58.405 35.629 46.0645 45.9873L165.632 69.6997Z" fill="white"/>
<path d="M47.0362 47.9618C46.1791 47.9618 45.3289 47.5973 44.7347 46.8897C43.6685 45.6203 43.8337 43.7263 45.1041 42.6601C48.0389 40.1974 50.9941 35.0648 54.1243 29.6302C63.3526 13.604 75.9897 -8.34832 105.99 3.25086C107.536 3.84797 108.305 5.58652 107.707 7.13354C107.11 8.67957 105.371 9.45162 103.824 8.8506C78.6332 -0.885912 68.3748 16.916 59.3273 32.6265C55.7778 38.7901 52.7122 44.1133 48.9643 47.2591C48.4014 47.7312 47.7173 47.9618 47.0362 47.9618H47.0362Z" fill="black"/>
<path d="M163.942 62.3365C162.783 62.3365 161.679 61.6612 161.187 60.5315C158.529 54.4226 157.393 48.4319 156.297 42.6387C153.818 29.557 151.861 19.2243 132.904 14.0771C126.349 12.2926 122.075 13.9666 116.667 16.0824C110.999 18.2989 104.575 20.8095 94.7679 19.2967C93.1291 19.0435 92.0052 17.5102 92.2583 15.8713C92.5114 14.2334 94.0584 13.1066 95.6827 13.3627C103.894 14.6321 109.036 12.62 114.479 10.4905C120.147 8.27406 126.008 5.98334 134.477 8.28187C157.061 14.4142 159.671 28.1947 162.195 41.5207C163.231 46.9895 164.302 52.6439 166.693 58.1352C167.354 59.6558 166.659 61.4247 165.138 62.0863C164.748 62.2563 164.342 62.3365 163.942 62.3365V62.3365Z" fill="black"/>
<path d="M195.542 94.3483C195.714 78.0294 158.77 61.4185 106.683 51.2155C54.5952 41.0125 13.6059 46.4097 7.52124 54.4971C4.41307 58.6284 2.00293 66.0464 7.93569 68.1951C13.8684 70.3439 27.7946 67.0873 38.4008 66.2431C68.3086 63.8625 120.794 69.6709 156.241 88.5608C170.077 95.9343 180.06 100.149 186.269 100.625C192.479 101.101 195.496 98.6459 195.542 94.3483V94.3483Z" fill="white"/>
<path d="M188.012 105C186.389 105 184.622 104.645 182.747 103.832C178.404 101.949 170.678 98.4503 158.538 92.4753C141.777 84.2253 120.879 77.3961 99.6922 73.2466C74.9214 68.3935 46.01 67.8394 34.6668 69.3063C33.025 69.5223 31.5171 68.3583 31.3041 66.7136C31.092 65.0689 32.253 63.5639 33.8968 63.3508C45.6523 61.8361 75.455 62.3804 100.846 67.3537C122.538 71.6029 143.968 78.6118 161.19 87.0886C173.222 93.0099 180.853 96.4665 185.136 98.3243C187.941 99.54 190.326 99.0856 191.514 97.1047C192.708 95.113 192.379 91.6867 188.834 88.8702C177.07 79.5246 144.047 60.1268 103.257 53.6045C81.8473 50.1812 38.3716 47.6931 12.8513 55.5904C7.59067 57.2175 5.48076 60.5265 6.16679 62.8153C7.01409 65.6464 12.2327 67.2501 20.558 64.8382C22.1559 64.377 23.8153 65.2936 24.2775 66.8866C24.7388 68.4795 23.8211 70.1448 22.2292 70.6061C9.51784 74.2884 2.11406 70.2122 0.414598 64.5372C-1.63473 57.6964 4.2279 51.9725 11.0766 49.8538C25.6975 45.3291 62.5629 41.0154 104.205 47.6765C146.225 54.3952 180.379 74.4849 192.569 84.1696C198.946 89.2357 199.162 96.0267 196.663 100.193C195.039 102.901 191.959 105 188.012 105L188.012 105Z" fill="black"/>
</svg>
