<svg width="160" height="134" viewBox="0 0 160 134" fill="none" xmlns="http://www.w3.org/2000/svg">
<path d="M62.8906 21.25C79.2306 10.55 105.221 6.11997 128.261 28.63C139.851 39.95 151.381 73.1 138.621 94.36C125.861 115.62 123.391 94.78 126.351 85.55C131.601 69.14 112.271 13.5 62.8906 21.25Z" fill="#82BE28"/>
<path d="M128.27 86.41C130.66 49.33 96.49 12.98 62 23.22C62 23.22 69.58 14.41 89.94 13C100.45 13.28 114.1 15.13 126.87 26.62C142.84 41 151.38 73.1 138.62 94.36" stroke="black" stroke-width="6" stroke-linecap="round" stroke-linejoin="round"/>
<path d="M155.107 110.729C158.062 97.6826 152.357 85.2724 142.365 83.0096C132.373 80.7469 121.878 89.4884 118.924 102.534C115.969 115.58 121.674 127.991 131.666 130.253C141.658 132.516 152.153 123.775 155.107 110.729Z" fill="#82BE28"/>
<path d="M142.37 83.02C152.36 85.28 158.06 97.69 155.11 110.74C152.16 123.79 141.66 132.53 131.67 130.27C121.68 128.01 115.98 115.6 118.93 102.55C120.99 93.43 126.74 86.42 133.43 83.79" stroke="black" stroke-width="6" stroke-linecap="round" stroke-linejoin="round"/>
<path d="M132.719 105.67C134.549 97.5997 141.039 92.1897 147.219 93.5897C153.399 94.9897 156.929 102.67 155.099 110.74C153.269 118.81 146.779 124.22 140.599 122.82C134.419 121.42 130.889 113.74 132.719 105.67Z" fill="white"/>
<path d="M147.219 93.5801C153.399 94.9801 156.929 102.66 155.099 110.73C153.269 118.8 146.779 124.21 140.599 122.81C134.419 121.41 130.889 113.73 132.719 105.66" stroke="black" stroke-width="6" stroke-linecap="round" stroke-linejoin="round"/>
</svg>
