<svg width="171" height="155" viewBox="0 0 171 155" fill="none" xmlns="http://www.w3.org/2000/svg">
<path d="M79.1087 154.519C73.5061 154.52 69.5294 153.569 69.1787 153.482C67.5665 153.082 66.5821 151.45 66.9817 149.837C67.3814 148.226 69.0093 147.244 70.6264 147.64C70.7831 147.679 86.973 151.487 99.2136 142.469C107.703 136.216 112.492 125.223 113.449 109.794C113.811 103.967 109.739 91.0141 105.38 84.1284C104.492 82.7238 104.909 80.8657 106.314 79.9763C107.718 79.0899 109.576 79.5052 110.466 80.9098C115.017 88.0992 119.935 102.446 119.456 110.166C118.381 127.486 112.755 139.998 102.732 147.352C94.8137 153.161 85.8015 154.519 79.1087 154.519V154.519Z" fill="black"/>
<path d="M117.162 118.979C122.742 117.621 133.893 101.498 133.643 99.001C133.492 97.4896 111.418 83.2687 111.418 83.2687L117.162 118.979Z" fill="black"/>
<path d="M27.2975 71.8475C66.4814 59.8478 100.91 77.1758 125.058 95.0042C128.654 98.2228 144.192 101.412 154.397 98.2228C166.835 94.3359 170.245 68.9543 164.681 51.9942C157.593 30.3919 132.957 14.0507 102.74 9.42022C78.1109 5.64586 52.7339 9.01969 32.9703 25.6952C19.0864 37.4097 17.0675 51.5659 20.5384 64.5821" fill="#2D8C3C"/>
<path d="M144.476 102.687C141.444 102.687 138.736 102.391 136.844 102.108C132.062 101.394 125.999 99.7728 123.173 97.3515C90.285 73.1015 58.3206 65.4919 28.18 74.7245C26.5883 75.2074 24.9085 74.318 24.4217 72.7293C23.9349 71.1396 24.8282 69.4568 26.4169 68.971C58.5194 59.139 92.3057 67.0836 126.846 92.5834C126.922 92.6392 126.995 92.699 127.066 92.7617C129.657 95.0821 144.194 98.5749 153.414 95.3789C167.247 90.5892 166.658 67.6742 161.822 52.931C155.23 32.8379 131.86 16.9262 102.286 12.3951C83.41 9.49783 56.4037 9.85926 34.911 27.9954C23.5284 37.5992 19.6712 49.6478 23.4461 63.8072C23.8742 65.4126 22.9201 67.061 21.3138 67.4891C19.7104 67.9171 18.059 66.9631 17.6319 65.3567C14.5877 53.9399 14.4417 37.3925 31.0303 23.3957C49.4093 7.88757 74.3665 2.02733 103.197 6.44577C134.992 11.3177 160.247 28.8279 167.541 51.0553C174.081 70.9946 172.042 95.2976 155.382 101.066C151.816 102.301 147.935 102.687 144.476 102.687Z" fill="black"/>
<path d="M88.4786 44.3547C90.6675 35.572 89.6073 27.7457 86.1107 26.8743C82.614 26.0028 78.005 32.4162 75.8162 41.1989C73.6273 49.9816 74.6875 57.8078 78.1841 58.6793C81.6808 59.5507 86.2898 53.1374 88.4786 44.3547Z" fill="black"/>
<path d="M109.344 55.3098C116.919 49.9481 121.414 43.2761 119.383 40.4074C117.353 37.5387 109.566 39.5597 101.991 44.9214C94.4158 50.2831 89.9209 56.9552 91.9513 59.8239C93.9818 62.6926 101.769 60.6716 109.344 55.3098Z" fill="black"/>
<path d="M65.3035 55.9197C68.5059 53.8422 67.3321 46.3469 62.6816 39.1785C58.0312 32.0102 51.6652 27.8833 48.4628 29.9609C45.2604 32.0384 46.4342 39.5337 51.0847 46.702C55.7351 53.8704 62.1011 57.9973 65.3035 55.9197Z" fill="black"/>
</svg>
