<svg width="160" height="148" viewBox="0 0 160 148" fill="none" xmlns="http://www.w3.org/2000/svg">
<path d="M134.737 97.5794C134.505 97.5794 134.27 97.5521 134.035 97.4964C132.424 97.1097 131.43 95.4915 131.816 93.8802C139.365 62.3567 122.886 45.6683 117.657 41.304C116.384 40.2425 116.213 38.3509 117.275 37.0784C118.336 35.8059 120.229 35.6351 121.5 36.6966C127.401 41.6204 146.004 60.3958 137.652 95.2767C137.322 96.6536 136.092 97.5794 134.737 97.5794V97.5794Z" fill="white"/>
<path d="M144.177 113.358C146.491 103.14 142.023 93.4212 134.199 91.6492C126.374 89.8773 118.156 96.7237 115.842 106.941C113.528 117.159 117.995 126.878 125.82 128.65C133.644 130.422 141.863 123.575 144.177 113.358Z" fill="white"/>
<path d="M128.28 131.925C127.24 131.925 126.196 131.812 125.156 131.576C115.732 129.441 110.24 118.093 112.915 106.279C115.59 94.4649 125.431 86.587 134.861 88.7237C139.576 89.7911 143.431 93.1153 145.715 98.0841C147.873 102.779 148.365 108.44 147.102 114.021C144.722 124.532 136.666 131.925 128.28 131.925H128.28ZM131.67 94.3673C126.06 94.3673 120.517 99.8751 118.767 107.604C116.822 116.191 120.283 124.32 126.482 125.725C132.69 127.125 139.305 121.283 141.25 112.696C142.224 108.394 141.873 104.094 140.263 100.589C138.778 97.3575 136.388 95.2208 133.536 94.5753C132.916 94.4356 132.293 94.3673 131.67 94.3673Z" fill="black"/>
<path d="M144.177 113.358C145.609 107.036 142.845 101.023 138.003 99.9263C133.162 98.83 128.077 103.066 126.645 109.388C125.213 115.71 127.977 121.724 132.819 122.82C137.66 123.916 142.745 119.68 144.177 113.358Z" fill="white"/>
<path d="M134.339 125.989C133.606 125.989 132.875 125.909 132.156 125.746C128.932 125.016 126.197 122.672 124.654 119.317C123.215 116.184 122.883 112.422 123.72 108.726C125.514 100.801 132.221 95.5376 138.666 97.0005C145.113 98.4604 148.899 106.096 147.104 114.021V114.022C146.267 117.718 144.347 120.969 141.697 123.176C139.492 125.013 136.9 125.989 134.339 125.989V125.989ZM136.459 102.754C133.541 102.754 130.521 105.858 129.571 110.05C129.032 112.434 129.227 114.898 130.107 116.811C130.551 117.778 131.58 119.463 133.482 119.894C135.377 120.318 137.04 119.247 137.858 118.566C139.475 117.218 140.712 115.079 141.252 112.697C142.298 108.078 140.507 103.569 137.341 102.852C137.05 102.787 136.755 102.754 136.459 102.754Z" fill="black"/>
<path d="M96.4784 145.404C91.9725 145.404 87.8827 144.767 84.6424 143.746C83.0623 143.248 82.1844 141.564 82.6825 139.984C83.1805 138.403 84.87 137.525 86.4452 138.024C96.9041 141.319 117.683 139.972 128.917 122.338C129.808 120.941 131.663 120.531 133.058 121.419C134.456 122.31 134.868 124.164 133.977 125.562C124.417 140.569 108.878 145.404 96.4784 145.404L96.4784 145.404Z" fill="black"/>
<path d="M89.4534 142.045C88.7444 145.834 84.7065 148.319 77.8007 147.026C70.8949 145.734 67.3807 142.06 68.0898 138.271C68.7988 134.482 73.4627 132.013 80.3685 133.305C87.2743 134.597 90.1625 138.256 89.4534 142.045Z" fill="black"/>
</svg>
