<svg width="162" height="125" viewBox="0 0 162 125" fill="none" xmlns="http://www.w3.org/2000/svg">
<path d="M30.2723 82.5282C38.9903 76.5347 53.1036 68.6207 82.4319 73.9764C117.909 80.455 132.541 105.877 138.714 119.815C142.944 128.494 159.683 109.463 156.94 94.7823C156.417 91.9802 161.743 70.8785 155.649 55.2611C148.232 36.2514 152.244 35.0861 143.155 23.5732C127.359 3.56492 94.1048 -0.00257802 80.0594 5.10483C65.8602 10.2682 58.3529 20.0014 51.1174 25.5345C36.847 36.4471 20.5794 60.5828 23.3605 74.5662C23.884 77.1987 26.2228 85.3122 30.2723 82.5282Z" fill="white"/>
<path d="M141.902 125C139.378 125 137.233 123.636 136.012 121.132C135.996 121.099 135.981 121.066 135.966 121.032C125.024 96.3251 106.831 81.4885 81.8929 76.9345C51.7283 71.4242 38.3882 80.5978 31.9765 85.0051C30.2804 86.1708 28.3875 86.4233 26.6434 85.7137C22.474 84.0195 20.8199 77.2016 20.4128 75.1522C18.4945 65.5097 24.5117 53.5936 28.2691 47.3483C33.9408 37.9231 41.7991 28.8757 49.2923 23.1462C51.144 21.7299 53.0868 19.9574 55.1441 18.0802C60.9216 12.8097 68.1114 6.25026 79.0331 2.27954C87.0959 -0.652743 99.5836 -0.763339 111.622 1.98984C126.043 5.2872 138.08 12.291 145.516 21.7094C151.353 29.1037 152.236 32.8131 153.571 38.4301C154.447 42.114 155.538 46.7004 158.451 54.1681C163.311 66.6235 161.386 81.8692 160.351 90.0602C160.133 91.7838 159.886 93.7334 159.911 94.307C162.265 107.178 152.089 122.041 144.421 124.574C143.555 124.86 142.709 125 141.902 125L141.902 125ZM141.442 118.546C141.678 119.028 141.753 119.122 142.535 118.864C147.323 117.283 155.817 105.134 153.985 95.3347C153.778 94.2218 153.947 92.7714 154.385 89.3066C155.353 81.6451 157.154 67.3859 152.849 56.3546C149.784 48.4973 148.592 43.4823 147.721 39.8209C146.448 34.4721 145.81 31.7874 140.796 25.4364C125.873 6.53411 93.6583 3.36008 81.0884 7.93077C71.2854 11.4953 64.863 17.354 59.1971 22.5227C57.0409 24.49 55.0042 26.3486 52.9449 27.9224C35.7339 41.0834 24.3013 63.8801 26.3106 73.9797C26.8411 76.6447 27.951 79.1709 28.7017 79.9597C39.4707 72.584 54.3641 65.7965 82.9734 71.019C109.97 75.9489 129.641 91.9404 141.442 118.546ZM159.897 94.2307L159.899 94.2414L159.897 94.2307Z" fill="black"/>
<path d="M27.2284 56.2622C50.9291 32.6403 119.806 38.9303 145.852 80.9131L27.2284 56.2622Z" fill="white"/>
<path d="M145.855 83.9197C144.849 83.9197 143.866 83.4157 143.298 82.4976C131.199 62.9963 107.678 49.4565 80.3767 46.2786C58.9052 43.775 39.356 48.421 29.3514 58.3924C28.174 59.5639 26.2703 59.561 25.0988 58.3855C23.9263 57.2091 23.9302 55.3054 25.1056 54.1329C36.3807 42.898 57.8247 37.5992 81.0726 40.3054C110.178 43.6937 135.35 58.2818 148.407 79.3285C149.283 80.7388 148.848 82.5925 147.437 83.4675C146.943 83.7739 146.396 83.9197 145.855 83.9197L145.855 83.9197Z" fill="black"/>
<path d="M40.317 57.2183C38.5653 63.3836 39.4743 71.0837 41.219 73.7895L40.317 57.2183Z" fill="white"/>
<path d="M41.2207 76.7967C40.2332 76.7967 39.2662 76.3112 38.6907 75.4196C36.4543 71.95 35.411 63.4781 37.4232 56.3959C37.8764 54.7996 39.5353 53.8718 41.1375 54.3259C42.7348 54.78 43.6617 56.4429 43.2075 58.0402C41.5819 63.7619 42.6311 70.4339 43.7449 72.1604C44.6443 73.5561 44.243 75.4167 42.8474 76.3171C42.3433 76.642 41.7786 76.7967 41.2207 76.7967H41.2207Z" fill="black"/>
<path d="M65.1045 51.7838C62.5774 57.7062 63.9609 68.0531 66.2871 71.6608L65.1045 51.7838Z" fill="white"/>
<path d="M66.2903 74.6677C65.3028 74.6677 64.3358 74.1823 63.7603 73.2907C60.7526 68.627 59.5057 57.2423 62.3382 50.6036C62.991 49.0758 64.7576 48.3691 66.2844 49.018C67.8112 49.6699 68.5208 51.4365 67.87 52.9643C65.8039 57.8061 66.9519 67.1432 68.8144 70.0315C69.7139 71.4271 69.3126 73.2877 67.9169 74.1881C67.4129 74.5131 66.8482 74.6677 66.2903 74.6677L66.2903 74.6677Z" fill="black"/>
<path d="M146.124 90.0925C145.643 96.3168 137.5 107.473 134.572 108.672L146.124 90.0925Z" fill="white"/>
<path d="M134.572 111.68C133.388 111.68 132.265 110.976 131.789 109.812C131.159 108.276 131.894 106.52 133.431 105.889C135.432 104.851 142.731 94.96 143.125 89.8608C143.254 88.2057 144.69 86.9872 146.355 87.0949C148.011 87.2231 149.249 88.6687 149.121 90.3247C148.775 94.7828 145.621 100.134 143.771 102.927C142.657 104.608 138.784 110.195 135.711 111.455C135.338 111.607 134.952 111.68 134.572 111.68L134.572 111.68Z" fill="black"/>
<path d="M126.972 72.692C125.448 78.5293 121.838 83.5923 118.529 86.2515L126.972 72.692Z" fill="white"/>
<path d="M118.531 89.2585C117.651 89.2585 116.779 88.8748 116.185 88.1349C115.145 86.841 115.351 84.9482 116.646 83.9078C119.15 81.8945 122.596 77.5509 124.063 71.933C124.481 70.3259 126.123 69.3599 127.732 69.7837C129.339 70.2026 130.301 71.8449 129.881 73.452C128.046 80.4812 123.786 85.8838 120.412 88.5959C119.857 89.0412 119.191 89.2585 118.531 89.2585L118.531 89.2585Z" fill="black"/>
<path d="M97.372 57.1307C95.7674 62.0234 92.2174 73.7405 90.2921 74.8552L97.372 57.1307Z" fill="white"/>
<path d="M90.2935 77.8624C89.256 77.8624 88.246 77.3241 87.6891 76.361C86.9159 75.027 87.2839 73.3465 88.4897 72.4461C89.8364 70.7235 92.7374 61.7055 93.8404 58.277C94.09 57.5008 94.3161 56.7961 94.5138 56.1942C95.0306 54.6155 96.7306 53.7582 98.3074 54.2739C99.8851 54.7907 100.745 56.4898 100.228 58.0675C100.033 58.6606 99.8097 59.3545 99.5651 60.118C95.5797 72.5058 93.9099 76.2328 91.7968 77.4562C91.3231 77.7313 90.8044 77.8624 90.2935 77.8624L90.2935 77.8624ZM88.7843 72.2533L88.7813 72.2543L88.7843 72.2533Z" fill="black"/>
</svg>
