<svg width="180" height="171" viewBox="0 0 180 171" fill="none" xmlns="http://www.w3.org/2000/svg">
<path d="M164.361 74.5645C162.305 67.0672 156.805 62.061 152.095 60.8619C144.68 58.5981 139.024 43.6911 139.009 43.635C134.726 28.3436 129.344 24.9361 120.669 20.9809C103.489 13.6941 92.5772 18.7468 84.2821 22.9657C80.037 25.1242 71.9165 26.561 67.905 26.6652C67.8476 26.6662 67.7903 26.6703 67.733 26.6763C65.967 26.8597 63.809 26.7906 61.528 26.7164C54.2337 26.4798 44.254 26.1599 35.0456 33.8257C30.7026 37.0249 22.7366 56.428 24.3993 62.4138C26.062 68.3995 25.0644 71.2261 22.0715 75.2166C19.0786 79.2071 13.7736 82.2794 14.7337 87.1098C15.527 91.2936 17.9891 97.1069 22.7366 98.4945C22.8033 98.5145 26.0854 99.1595 27.2259 99.1595C35.2051 99.1595 39.1874 90.4655 40.3342 87.1058C40.7022 86.0281 44.4919 79.7734 45.7635 81.731C46.7768 83.292 48.329 84.2946 50.3755 84.7127C54.534 85.5568 57.333 82.0117 59.8058 78.8817C62.0774 76.0063 64.2229 73.2963 66.9834 73.9059C70.2391 74.6277 70.8166 76.8835 71.4901 80.5048C72.1625 84.1161 72.9986 88.6107 79.0367 89.9873C85.1165 91.3778 88.1939 87.3414 90.6605 84.0991C93.0749 80.9239 94.7105 79.015 97.7254 79.8111C100.311 80.439 101.514 81.5834 102.175 83.0748C102.233 83.2131 102.292 83.3609 102.351 83.5091C102.694 84.4538 102.868 85.5193 103.053 86.6737C103.584 89.9993 104.186 93.769 109.578 95.6298C110.353 95.9075 111.218 96.0248 112.127 96.0248C115.332 96.0238 119.081 94.5681 121.327 93.5414L121.416 93.5003C121.523 93.4612 121.627 93.4051 121.719 93.3299C122.019 93.0919 122.145 92.7253 122.087 92.3756C125.888 91.5171 127.978 91.11 130.526 91.544C132.336 91.8522 133.573 92.4356 134.652 93.1062C134.501 93.2315 134.36 93.3711 134.247 93.5404C133.607 94.4929 133.892 95.7641 134.882 96.3787C134.957 96.4258 139.209 103.993 145.06 103.993C149.675 103.993 155.285 97.3953 160.619 91.7007C160.665 91.6525 160.708 91.6014 160.748 91.5493C164.796 86.2978 166.012 80.5841 164.36 74.5646L164.361 74.5645Z" fill="black"/>
<path d="M138.32 110.081C137.645 110.081 136.966 109.854 136.406 109.389C135.131 108.331 134.955 106.44 136.013 105.165C140.289 100.012 144.752 98.7185 148.691 97.5775C151.912 96.6441 154.695 95.8379 157.344 92.9017C163.041 86.59 162.888 78.981 160.845 73.9647L160.67 73.534C159.36 70.2913 158.122 67.2285 150.753 63.5451C143.067 59.7028 138.689 53.9816 136.113 44.4149C132.554 31.7152 127.003 23.3884 110.377 21.2094C102.136 20.1298 93.928 23.3776 85.9856 26.5178C79.4739 29.0922 73.3215 31.5247 67.1555 31.713C64.803 31.9423 62.1194 31.7539 59.2786 31.5542C52.012 31.0428 43.7766 30.4643 36.9641 36.1317C27.1887 44.2647 26.7864 51.5394 27.8079 58.1893C27.9514 59.1196 28.1409 60.0609 28.343 61.0576C29.2561 65.5796 30.3928 71.2073 26.1546 76.0324C25.7893 76.4476 25.4251 76.9359 25.0032 77.5013C24.0716 78.7503 22.7952 80.4608 20.427 82.8457C19.4358 83.8439 18.8841 85.734 19.0218 87.6611C19.1243 89.1054 19.7034 91.8353 22.4251 93.8901C24.8665 95.7331 27.2259 96.481 29.4348 96.1105C31.4163 95.7786 32.7532 94.6027 33.0159 94.2119C33.9329 92.8475 35.7942 92.4504 37.1692 93.3525C38.5432 94.255 38.9524 96.0692 38.0647 97.4531C36.9075 99.2575 34.1399 101.365 30.5628 102.004C27.8548 102.489 23.6136 102.306 18.8098 98.6787C15.4388 96.1339 13.3352 92.2736 13.0364 88.0875C12.7737 84.3984 13.9446 80.8584 16.1692 78.6181C18.2395 76.5334 19.2786 75.1412 20.1946 73.9129C20.6731 73.2723 21.1243 72.6672 21.6468 72.0723C23.8137 69.6063 23.3675 66.7318 22.4612 62.2459C22.2552 61.225 22.0423 60.1693 21.8782 59.0999C20.7219 51.5779 20.9563 41.645 33.1262 31.5194C41.7923 24.309 52.1419 25.0374 59.6995 25.569C62.3186 25.7531 64.7932 25.9271 66.6516 25.7333C66.7288 25.7253 66.8069 25.7203 66.8841 25.7182C72.0276 25.5845 77.7356 23.3276 83.7796 20.9381C92.0305 17.6762 101.39 13.979 111.157 15.2603C128.129 17.4846 137.035 25.4708 141.898 42.8254C144.374 52.0229 148.301 55.6111 153.437 58.1783C162.834 62.8763 164.719 67.5392 166.234 71.2858L166.402 71.7015C169.131 78.404 169.355 88.5488 161.799 96.9216C158.005 101.126 153.944 102.302 150.361 103.34C146.802 104.371 143.73 105.262 140.63 108.996C140.037 109.711 139.182 110.08 138.32 110.081L138.32 110.081Z" fill="black"/>
<path d="M140.065 103.503C140.061 103.445 140.053 103.389 140.045 103.332C139.711 101.276 139.267 100.891 138.381 99.4064C148.764 88.8022 142.303 70.3978 138.745 63.0813C134.98 55.3399 127.484 43.829 119.856 40.1965C112.227 36.564 93.7016 27.1195 69.3638 37.2905C45.0261 47.4615 36.4499 80.7253 36.071 81.8536C36.0323 81.9679 34.3608 87.2266 33.3843 94.763C32.5759 98.5213 32.3745 102.5 32.7095 106.531C32.8502 113.415 34.0234 120.849 37.2592 127.58C43.3203 140.186 63.309 147.431 67.6208 149.229C67.6208 149.229 68.1833 161.522 66.5487 163.157C67.6384 168.061 78.8084 169.968 78.8084 169.968C88.4883 170.604 92.9751 163.702 92.9751 163.702V149.807C92.9751 149.807 103.969 144.752 110.391 137.78C115.056 133.275 118.339 125.923 119.077 124.18C119.859 124.292 121.116 124.427 122.646 124.427C126.153 124.427 131.07 123.714 134.855 120.374C138.928 116.781 140.681 111.105 140.065 103.503L140.065 103.503Z" fill="white"/>
<path d="M56.9874 104.908C59.7818 104.908 62.0471 102.643 62.0471 99.8487C62.0471 97.0544 59.7818 94.7891 56.9874 94.7891C54.193 94.7891 51.9277 97.0544 51.9277 99.8487C51.9277 102.643 54.193 104.908 56.9874 104.908Z" fill="black"/>
<path d="M92.5519 111.675C95.3462 111.675 97.6115 109.41 97.6115 106.615C97.6115 103.821 95.3462 101.556 92.5519 101.556C89.7575 101.556 87.4922 103.821 87.4922 106.615C87.4922 109.41 89.7575 111.675 92.5519 111.675Z" fill="black"/>
<path d="M67.297 166.183C66.7472 166.183 66.1905 166.032 65.6915 165.715C64.2999 164.831 63.8829 162.991 64.755 161.594C65.4689 160.228 65.7013 154.711 65.2403 152.433C64.8077 152.32 64.2599 152.192 63.7804 152.079C57.7892 150.676 43.7599 147.389 36.3995 131.708C26.9181 111.508 33.0548 82.8268 33.1261 82.5573C37.3673 66.6442 46.1925 33.5385 85.6095 29.6044C103.309 27.8385 120.502 34.2522 132.781 47.2031C143.682 58.6983 148.696 73.3327 146.539 87.3538C146.287 88.9921 144.739 90.1132 143.118 89.8629C141.481 89.611 140.358 88.0792 140.609 86.4416C142.482 74.2677 138.042 61.4705 128.428 51.3315C117.434 39.7369 102.041 33.9937 86.2052 35.5748C50.9698 39.0915 43.1388 68.2882 38.9425 84.0317C38.7032 85.1948 33.5098 111.432 41.8311 129.158C47.9571 142.21 59.5684 144.93 65.1485 146.237C67.8018 146.859 69.2637 147.201 70.1632 148.634C72.1807 151.936 71.669 161.899 69.8321 164.791C69.2608 165.691 68.2892 166.183 67.297 166.183L67.297 166.183Z" fill="black"/>
<path d="M105.737 143.78C104.911 143.78 104.089 143.441 103.496 142.775C102.394 141.538 102.504 139.642 103.741 138.54C112.367 130.858 113.584 122.415 113.595 122.331C113.702 121.533 114.126 120.803 114.77 120.32C115.413 119.838 116.223 119.625 117.021 119.746C117.109 119.759 126.536 121.08 131.781 116.166C134.566 113.557 135.764 109.468 135.345 104.011C134.318 98.0267 129.783 96.5393 126.178 97.092C124.542 97.3436 123.01 96.2196 122.759 94.5819C122.507 92.9442 123.631 91.4128 125.268 91.1614C131.877 90.1458 139.713 93.4704 141.287 103.165C141.3 103.244 141.309 103.323 141.316 103.403C141.92 110.854 140.082 116.63 135.855 120.571C130.558 125.51 122.975 126.031 118.917 125.903C117.825 129.665 114.963 136.58 107.731 143.021C107.16 143.53 106.447 143.78 105.737 143.78Z" fill="black"/>
<path d="M139.956 98.5623C139.956 98.5623 147.948 94.7298 148.856 85.4669C149.764 76.204 147.585 68.2125 140.501 55.6803C133.418 43.1482 118.161 28.2549 109.988 27.5284C101.815 26.8019 89.4646 26.6203 72.5734 31.7058C55.6823 36.7913 44.7848 38.9708 40.0625 47.6888C35.3402 56.4068 26.9885 86.6942 29.8945 90.1451C33.766 91.2811 37.1251 91.7822 37.1251 91.7822L41.8788 77.8386C41.8788 77.8386 44.3367 84.7905 48.5565 84.493C52.7763 84.1955 59.5001 73.8943 64.7654 75.2308C70.0307 76.5672 69.8252 89.2525 76.0124 90.4473C82.1996 91.6422 92.5522 80.3814 98.7275 82.1976C104.903 84.0139 103.631 96.1828 110.533 97.8174C114.696 98.8033 120.708 91.9265 125.871 91.0973C130.831 90.3007 136.687 93.1135 139.956 98.5623L139.956 98.5623Z" fill="black"/>
<path d="M39.1174 133.434C37.9904 133.434 36.9104 132.796 36.3996 131.708C29.6262 117.277 30.8401 98.3647 32.1672 88.3758C32.385 86.7332 33.8987 85.579 35.5354 85.7969C37.1779 86.0151 38.3332 87.5234 38.1145 89.1658C37.1164 96.6828 35.4797 115.627 41.8313 129.158C42.5354 130.658 41.8899 132.445 40.3899 133.149C39.9777 133.342 39.5442 133.434 39.1174 133.434Z" fill="black"/>
<path d="M113.686 101.461C112.111 101.461 110.384 101.205 108.482 100.571C103.12 98.7836 102.112 94.559 101.376 91.4743C100.616 88.2881 100.152 86.8471 97.1112 86.0788C94.9178 85.481 92.9442 86.7895 89.9022 88.9752C86.244 91.6044 81.6961 94.8782 75.3202 93.3667C68.3934 91.7242 67.4178 86.3435 66.7723 82.7829C66.1668 79.4449 65.8241 78.5543 64.0907 78.1543C62.9813 77.8964 62.1141 78.6674 59.9237 81.275C57.4745 84.1898 54.1327 88.1828 48.1991 87.4719C40.7752 86.581 39.078 79.5999 39.2166 76.0331C39.2821 74.378 40.6414 73.0889 42.3319 73.1525C43.9823 73.217 45.2684 74.6023 45.2127 76.2506C45.1942 77.0634 45.286 81.0792 48.9139 81.5147C51.4784 81.8229 53.0252 80.1579 55.3299 77.4152C57.5399 74.7853 60.5623 71.1825 65.4403 72.3079C71.2118 73.6398 72.0926 78.4977 72.6756 81.7123C73.3143 85.2345 73.7225 86.8215 76.7049 87.5286C80.411 88.4073 83.1864 86.413 86.4002 84.1031C89.787 81.6691 93.619 78.9089 98.6346 80.2759C105.273 81.9524 106.44 86.8448 107.213 90.0821C107.902 92.9733 108.266 94.1746 110.38 94.8791C114.609 96.289 117.19 94.8915 120.179 93.2734C121.714 92.442 123.302 91.5823 125.089 91.195C126.717 90.8433 128.306 91.8729 128.656 93.4916C129.008 95.111 127.979 96.7081 126.36 97.0589C125.407 97.2653 124.308 97.8605 123.035 98.5497C120.661 99.835 117.658 101.46 113.686 101.461V101.461Z" fill="black"/>
</svg>
