<svg width="180" height="171" viewBox="0 0 180 171" fill="none" xmlns="http://www.w3.org/2000/svg">
<path d="M164.384 74.5645C162.328 67.0672 156.828 62.0609 152.118 60.8618C144.703 58.598 139.048 43.6911 139.032 43.6349C134.75 28.3435 129.367 24.936 120.693 20.9809C103.513 13.6941 92.6006 18.7468 84.3055 22.9657C80.0605 25.1242 71.9399 26.561 67.9284 26.6652C67.8711 26.6662 67.8137 26.6702 67.7564 26.6762C65.691 26.8206 63.6185 26.834 61.5515 26.7163C54.2572 26.4797 44.2774 26.1599 35.069 33.8256C30.726 37.0249 22.7601 56.428 24.4227 62.4137C26.0854 68.3995 25.0878 71.2261 22.095 75.2165C19.1021 79.207 13.797 82.2794 14.7571 87.1098C15.5505 91.2936 18.0125 97.1068 22.76 98.4944C24.2417 98.8063 25.7409 99.0284 27.2493 99.1595C35.2286 99.1595 39.2109 90.4654 40.3576 87.1058C40.7256 86.028 44.5153 79.7733 45.7869 81.7309C46.3101 82.5176 46.9895 83.1883 47.783 83.7012C48.5764 84.2142 49.4668 84.5584 50.3989 84.7126C54.5574 85.5568 57.3565 82.0116 59.8293 78.8816C62.1009 76.0062 64.2463 73.2963 67.0069 73.9058C70.2626 74.6277 70.8401 76.8835 71.5136 80.5048C72.186 84.1161 73.022 88.6107 79.0602 89.9872C85.14 91.3778 88.2174 87.3414 90.6839 84.0991C93.0984 80.9239 94.734 79.015 97.7489 79.8111C100.334 80.439 101.537 81.5834 102.199 83.0749C102.257 83.2131 102.316 83.3609 102.374 83.5092C102.705 84.5401 102.94 85.5995 103.076 86.6737C103.608 89.9993 104.209 93.769 109.601 95.6297C110.422 95.9062 111.285 96.0398 112.151 96.0247C115.356 96.0237 119.104 94.568 121.351 93.5414L121.44 93.5002C121.549 93.4607 121.652 93.4031 121.743 93.3298C121.884 93.2183 121.993 93.0709 122.057 92.903C122.122 92.7351 122.14 92.5529 122.11 92.3755C125.912 91.5171 128.002 91.11 130.55 91.5439C132.018 91.7772 133.422 92.3089 134.676 93.1062C134.52 93.2305 134.384 93.3768 134.271 93.5403C134.119 93.7663 134.015 94.0207 133.965 94.2881C133.915 94.5555 133.919 94.8303 133.979 95.0958C134.038 95.3613 134.151 95.6119 134.31 95.8325C134.47 96.053 134.672 96.2389 134.905 96.3787C134.981 96.4258 139.233 103.993 145.083 103.993C149.698 103.993 155.308 97.3953 160.643 91.7006C160.688 91.6525 160.731 91.6014 160.772 91.5492C164.82 86.2977 166.035 80.584 164.384 74.5645Z" fill="#2D8C3C"/>
<path d="M28.3687 102.199C24.8876 102.116 21.533 100.878 18.8331 98.6788C17.1708 97.4276 15.7955 95.8352 14.7997 94.0084C13.8039 92.1817 13.2106 90.163 13.0597 88.0879C12.8905 86.3781 13.0819 84.6519 13.6215 83.0207C14.1612 81.3895 15.0371 79.8897 16.1927 78.6182C18.093 76.7814 19.8026 74.7571 21.2955 72.5762L21.4662 72.3321C21.9225 71.6803 22.6191 71.2365 23.4027 71.0983C24.1862 70.9602 24.9926 71.1389 25.6444 71.5953C26.2961 72.0516 26.7399 72.7482 26.8781 73.5318C27.0163 74.3153 26.8375 75.1217 26.3812 75.7735L26.2139 76.0127C24.5251 78.4767 22.5943 80.7657 20.4503 82.8457C19.9064 83.5139 19.5019 84.2843 19.2604 85.1113C19.019 85.9383 18.9456 86.8053 19.0445 87.6612C19.128 88.8837 19.4756 90.0735 20.0632 91.1488C20.6508 92.2241 21.4645 93.1592 22.4483 93.8897C24.8905 95.7344 27.2506 96.4824 29.4583 96.1104C30.8336 95.9047 32.0971 95.2348 33.0391 94.2119C33.4808 93.5532 34.1634 93.0942 34.94 92.9335C35.7167 92.7728 36.5253 92.9233 37.1922 93.3526C37.8537 93.7785 38.3194 94.4491 38.4874 95.2177C38.6553 95.9863 38.5119 96.7901 38.0884 97.4532C36.276 99.8891 33.5847 101.522 30.587 102.004C29.8548 102.134 29.1125 102.2 28.3687 102.199Z" fill="black"/>
<path d="M152.117 63.8625C151.736 63.8623 151.358 63.7891 151.004 63.6466C143.495 60.6427 138.909 54.7121 136.135 44.4152C132.577 31.716 127.027 23.3888 110.4 21.2101C102.167 20.1349 93.9518 23.3781 86.0082 26.5187C79.4972 29.0929 73.3449 31.5255 67.1784 31.714C64.5532 31.8709 61.9196 31.8177 59.3029 31.5548C52.0368 31.0431 43.8009 30.464 36.9877 36.132C27.1125 44.3478 27.0907 51.8791 27.8456 58.2941C27.8917 58.6854 27.8602 59.0819 27.753 59.461C27.6458 59.8401 27.465 60.1944 27.2209 60.5036C26.9767 60.8128 26.6741 61.071 26.3302 61.2632C25.9864 61.4555 25.608 61.5782 25.2167 61.6242C24.8254 61.6702 24.4289 61.6388 24.0498 61.5316C23.6707 61.4244 23.3164 61.2435 23.0072 60.9994C22.698 60.7553 22.4399 60.4527 22.2476 60.1088C22.0553 59.7649 21.9327 59.3866 21.8866 58.9953C20.9272 50.841 21.5148 41.1994 33.1503 31.5187C41.8171 24.3078 52.1664 25.0382 59.7243 25.5695C62.0336 25.8053 64.3578 25.8601 66.6757 25.7336C66.7529 25.7257 66.8302 25.7209 66.9076 25.7189C72.0505 25.5851 77.7587 23.3283 83.8022 20.9386C92.0529 17.6759 101.404 13.9777 111.18 15.2609C128.152 17.4855 137.059 25.4709 141.921 42.8254C144.223 51.3722 147.498 55.7824 153.233 58.0764C153.88 58.3355 154.417 58.812 154.751 59.4239C155.085 60.0359 155.196 60.7452 155.064 61.4299C154.932 62.1146 154.566 62.7319 154.028 63.1758C153.49 63.6198 152.815 63.8626 152.117 63.8625L152.117 63.8625Z" fill="black"/>
<path d="M138.342 110.08C137.773 110.08 137.215 109.917 136.734 109.612C136.254 109.306 135.87 108.87 135.628 108.355C135.386 107.839 135.296 107.265 135.368 106.7C135.44 106.135 135.671 105.602 136.035 105.164C140.311 100.012 144.775 98.7188 148.713 97.5772C151.935 96.6446 154.717 95.838 157.367 92.9024C159.66 90.3757 161.2 87.2584 161.815 83.9024C162.429 80.5464 162.094 77.0855 160.845 73.9102C160.704 73.5425 160.636 73.1506 160.646 72.7567C160.656 72.3629 160.744 71.9749 160.904 71.6148C161.064 71.2548 161.293 70.9298 161.579 70.6584C161.864 70.387 162.2 70.1745 162.568 70.033C162.936 69.8916 163.328 69.824 163.722 69.834C164.115 69.844 164.503 69.9315 164.864 70.0915C165.224 70.2515 165.549 70.4808 165.82 70.7664C166.091 71.052 166.304 71.3882 166.445 71.7559C167.713 75.0528 171.126 86.6104 161.821 96.9219C158.027 101.126 153.966 102.303 150.382 103.341C146.824 104.371 143.751 105.262 140.652 108.996C140.371 109.336 140.018 109.609 139.618 109.797C139.219 109.984 138.783 110.081 138.342 110.08Z" fill="black"/>
<path d="M140.088 103.504C140.083 103.446 140.076 103.389 140.068 103.332C139.86 101.903 139.287 100.551 138.404 99.4069C148.787 88.8026 142.326 70.3983 138.767 63.0818C135.003 55.3404 127.507 43.8295 119.878 40.197C112.25 36.5645 93.7244 27.12 69.3865 37.291C45.0487 47.462 36.4726 80.7258 36.0937 81.854C34.8451 86.0761 33.9465 90.3938 33.407 94.7635C32.6055 98.6319 32.3782 102.597 32.7322 106.532C32.7369 113.792 34.2879 120.967 37.2819 127.581C43.3429 140.187 63.3316 147.431 67.6435 149.229C67.6435 149.229 68.206 161.523 66.5714 163.157C67.6611 168.061 78.8311 169.968 78.8311 169.968C81.531 170.22 84.2505 169.777 86.7304 168.68C89.2103 167.583 91.368 165.869 92.9978 163.702V149.808C92.9978 149.808 103.992 144.752 110.413 137.78C115.079 133.275 118.361 125.923 119.099 124.18C120.282 124.346 121.475 124.429 122.669 124.427C126.175 124.427 131.092 123.715 134.878 120.374C138.951 116.781 140.703 111.106 140.088 103.504Z" fill="white"/>
<path d="M57.0108 104.909C59.8052 104.909 62.0705 102.644 62.0705 99.8492C62.0705 97.0548 59.8052 94.7896 57.0108 94.7896C54.2165 94.7896 51.9512 97.0548 51.9512 99.8492C51.9512 102.644 54.2165 104.909 57.0108 104.909Z" fill="black"/>
<path d="M92.5753 111.675C95.3697 111.675 97.635 109.41 97.635 106.615C97.635 103.821 95.3697 101.556 92.5753 101.556C89.7809 101.556 87.5156 103.821 87.5156 106.615C87.5156 109.41 89.7809 111.675 92.5753 111.675Z" fill="black"/>
<path d="M67.3183 166.183C66.7833 166.182 66.2582 166.039 65.7973 165.767C65.3365 165.495 64.9567 165.105 64.6974 164.637C64.4381 164.169 64.3087 163.64 64.3226 163.105C64.3365 162.57 64.4931 162.049 64.7763 161.595C65.4902 160.229 65.7231 154.711 65.2619 152.433C64.8286 152.319 64.2815 152.192 63.8017 152.079C57.8107 150.676 43.781 147.39 36.4204 131.708C27.07 111.786 33.0774 82.8204 33.1491 82.5519C37.3884 66.6446 46.2111 33.5392 85.6306 29.6046C94.3172 28.7167 103.092 29.8426 111.273 32.8948C119.454 35.9471 126.822 40.8436 132.804 47.2042C143.704 58.6993 148.718 73.3331 146.561 87.3536C146.436 88.1367 146.006 88.8385 145.366 89.3057C144.725 89.7729 143.925 89.9675 143.142 89.8469C142.358 89.7264 141.654 89.3005 141.183 88.6624C140.713 88.0243 140.514 87.2258 140.63 86.4415C142.503 74.2687 138.064 61.4718 128.45 51.3322C123.096 45.638 116.501 41.2543 109.179 38.5217C101.856 35.789 94.0018 34.7808 86.2263 35.5753C50.989 39.0919 43.1596 68.2892 38.9641 84.0333C38.7277 85.1798 33.5236 111.415 41.852 129.159C47.978 142.21 59.5898 144.931 65.1701 146.237C67.8234 146.86 69.2851 147.201 70.1843 148.634C72.2021 151.937 71.6901 161.9 69.8537 164.791C69.5827 165.218 69.2082 165.57 68.7649 165.813C68.3216 166.056 67.824 166.183 67.3183 166.183Z" fill="black"/>
<path d="M105.761 143.78C105.152 143.781 104.559 143.596 104.058 143.251C103.557 142.906 103.173 142.417 102.956 141.848C102.74 141.28 102.701 140.659 102.845 140.068C102.99 139.478 103.31 138.945 103.764 138.54C112.391 130.858 113.608 122.415 113.619 122.331C113.672 121.935 113.802 121.554 114.004 121.209C114.205 120.864 114.473 120.563 114.792 120.322C115.11 120.081 115.474 119.907 115.861 119.808C116.248 119.709 116.65 119.688 117.045 119.746C117.133 119.759 126.559 121.08 131.805 116.166C134.59 113.558 135.788 109.469 135.369 104.011C134.342 98.0264 129.798 96.5362 126.201 97.0919C125.812 97.1523 125.414 97.1353 125.031 97.0418C124.648 96.9484 124.287 96.7804 123.969 96.5473C123.651 96.3143 123.382 96.0208 123.177 95.6837C122.973 95.3466 122.837 94.9725 122.777 94.5828C122.717 94.1931 122.735 93.7954 122.829 93.4124C122.923 93.0295 123.091 92.6689 123.325 92.3512C123.559 92.0335 123.852 91.765 124.19 91.5609C124.527 91.3569 124.902 91.2214 125.291 91.1622C131.902 90.1475 139.735 93.4708 141.311 103.164C141.324 103.243 141.333 103.323 141.34 103.403C141.943 110.854 140.106 116.63 135.879 120.571C130.582 125.511 123 126.041 118.94 125.902C116.891 132.545 113.015 138.476 107.755 143.021C107.206 143.511 106.496 143.781 105.761 143.78Z" fill="black"/>
<path d="M139.98 98.5628C139.98 98.5628 147.971 94.7303 148.879 85.4674C149.788 76.2045 147.608 68.213 140.525 55.6808C133.441 43.1487 118.185 28.2554 110.012 27.5289C101.839 26.8024 89.488 26.6208 72.5969 31.7063C55.7057 36.7918 44.8082 38.9713 40.0859 47.6893C35.3637 56.4073 27.0119 86.6946 29.9179 90.1455C32.2924 90.8387 34.7071 91.3854 37.1485 91.7826L41.9021 77.8391C41.9021 77.8391 44.3601 84.791 48.5799 84.4935C52.7997 84.196 59.5235 73.8948 64.7888 75.2312C70.0541 76.5677 69.8486 89.2529 76.0358 90.4478C82.223 91.6426 92.5756 80.3818 98.7509 82.1981C104.926 84.0143 103.655 96.1832 110.557 97.8179C114.719 98.8038 120.731 91.9269 125.895 91.0977C130.855 90.3012 136.711 93.114 139.98 98.5628Z" fill="#2D8C3C"/>
<path d="M39.1386 133.434C38.5684 133.435 38.0099 133.272 37.5285 132.967C37.0472 132.661 36.663 132.224 36.4208 131.708C29.6476 117.277 30.8617 98.3651 32.1884 88.3769C32.293 87.5882 32.7067 86.8733 33.3384 86.3896C33.9701 85.9059 34.7681 85.6929 35.5568 85.7976C36.3455 85.9022 37.0604 86.3159 37.5441 86.9476C38.0278 87.5793 38.2408 88.3772 38.1362 89.166C37.1379 96.6835 35.5016 115.628 41.8525 129.159C42.0667 129.616 42.1621 130.12 42.13 130.624C42.0979 131.128 41.9392 131.615 41.6686 132.041C41.3981 132.468 41.0244 132.819 40.5822 133.062C40.1399 133.306 39.6434 133.434 39.1386 133.435V133.434Z" fill="black"/>
<path d="M113.71 101.46C111.938 101.448 110.18 101.147 108.505 100.57C103.142 98.7843 102.135 94.5587 101.399 91.4738C100.639 88.2882 100.175 86.8468 97.1335 86.0782C94.9394 85.4845 92.9655 86.7902 89.9255 88.9747C86.2673 91.6046 81.7143 94.8761 75.3437 93.3663C68.4169 91.7247 67.4411 86.3439 66.7954 82.7823C66.1899 79.4454 65.8476 78.5548 64.1144 78.1544C62.9973 77.9054 62.1374 78.6671 59.9462 81.2755C57.4968 84.1915 54.1432 88.1935 48.2226 87.4718C40.798 86.5802 39.1005 79.5997 39.2402 76.0333C39.2691 75.2382 39.6126 74.4871 40.1953 73.9453C40.7779 73.4034 41.552 73.1153 42.3471 73.1441C43.1422 73.173 43.8933 73.5166 44.4352 74.0992C44.977 74.6819 45.2651 75.4559 45.2363 76.2511C45.217 77.0646 45.309 81.0792 48.9377 81.5148C51.5043 81.8185 53.048 80.1573 55.3525 77.4151C57.5627 74.7853 60.5905 71.1808 65.4633 72.3087C71.235 73.6397 72.1162 78.4972 72.6989 81.712C73.3378 85.2345 73.7458 86.8214 76.7277 87.5284C80.4357 88.4073 83.2106 86.4132 86.4235 84.1026C89.8102 81.669 93.6486 78.9093 98.6579 80.2755C105.296 81.9522 106.463 86.8448 107.235 90.0821C107.925 92.9728 108.289 94.1739 110.402 94.879C114.633 96.2882 117.214 94.8907 120.202 93.2735C121.731 92.3508 123.384 91.651 125.112 91.1954C125.497 91.1116 125.895 91.1045 126.282 91.1745C126.67 91.2445 127.041 91.3903 127.372 91.6035C127.704 91.8166 127.99 92.0931 128.214 92.417C128.439 92.7408 128.598 93.1058 128.681 93.491C128.765 93.8762 128.771 94.2741 128.701 94.6619C128.631 95.0497 128.485 95.4199 128.271 95.7512C128.058 96.0825 127.781 96.3686 127.457 96.5929C127.133 96.8173 126.768 96.9755 126.383 97.0587C125.215 97.4113 124.098 97.9125 123.058 98.55C120.684 99.8351 117.682 101.46 113.71 101.46Z" fill="black"/>
</svg>
