<svg width="180" height="171" viewBox="0 0 180 171" fill="none" xmlns="http://www.w3.org/2000/svg">
<path d="M156.992 59.0594C162.223 50.2039 158.429 39.2491 150.554 33.2747C142.58 27.4314 130.998 26.9215 124.004 34.4617C117.3 41.6885 120.996 48.4047 123.176 53.253C125.005 57.3219 120.327 58.418 120.327 58.418C119.068 59.0392 118.658 61.5573 125.44 66.6142C132.222 71.6711 134.838 70.8416 135.081 69.4197C135.081 69.4197 134.797 64.6229 139.218 65.215C144.487 65.9206 151.979 67.5468 156.992 59.0594H156.992Z" fill="black"/>
<path d="M135.075 72.3969C133.498 72.3969 132.181 71.1878 132.086 69.597C132.05 68.9875 131.984 65.8412 134.231 63.7539C135.19 62.8634 136.905 61.8777 139.617 62.2414L140.585 62.3755C145.559 63.0754 150.706 63.8 154.409 57.5335C159.063 49.6535 154.962 40.3848 148.74 35.6647C142.481 31.0774 132.428 29.7929 126.203 36.5018C121.254 41.8374 123.416 46.5632 125.508 51.1335L125.912 52.0227C127.034 54.5201 126.579 56.4427 125.999 57.6159C124.64 60.3655 121.606 61.1996 121.012 61.3388C119.396 61.7165 117.784 60.7156 117.406 59.1024C117.028 57.4892 118.029 55.8751 119.643 55.497C119.993 55.4037 120.518 55.117 120.625 54.9484C120.6 54.9765 120.582 54.7992 120.439 54.4829L120.052 53.63C117.837 48.7912 114.132 40.6925 121.805 32.4214C129.339 24.2981 142.461 23.625 152.327 30.8548C162.111 38.2768 165.21 51.0453 159.575 60.585C153.835 70.2998 145.018 69.0581 139.749 68.3169L138.82 68.1883C138.479 68.1425 138.297 68.1736 138.256 68.1892C138.19 68.2945 138.065 68.8789 138.078 69.2802C138.129 70.9199 136.854 72.3195 135.216 72.3937C135.169 72.3958 135.122 72.3969 135.075 72.3969L135.075 72.3969Z" fill="black"/>
<path d="M140.159 103.51C140.155 103.452 140.147 103.395 140.139 103.338C139.805 101.282 139.361 100.897 138.475 99.4128C148.858 88.8085 142.397 70.4042 138.838 63.0877C135.074 55.3462 127.578 43.8354 119.949 40.2029C112.321 36.5704 93.7954 27.1259 69.4576 37.2969C45.1198 47.4679 36.5437 80.7317 36.1648 81.8599C36.126 81.9742 34.4546 87.233 33.478 94.7694C32.6696 98.5276 32.4683 102.506 32.8033 106.538C32.944 113.421 34.1172 120.855 37.353 127.586C43.414 140.193 63.4027 147.437 67.7146 149.235C67.7146 149.235 68.277 161.529 66.6424 163.163C67.7322 168.067 78.9021 169.974 78.9021 169.974C88.5821 170.611 93.0689 163.708 93.0689 163.708V149.814C93.0689 149.814 104.063 144.758 110.484 137.786C115.15 133.281 118.433 125.929 119.171 124.186C119.953 124.298 121.21 124.433 122.74 124.433C126.246 124.433 131.163 123.721 134.949 120.38C139.022 116.787 140.774 111.112 140.159 103.51V103.51Z" fill="white"/>
<path d="M35.3711 83.3161C35.3711 83.3161 51.7573 67.7211 56.3339 58.7818C60.9104 49.8426 70.5527 50.2896 76.0117 54.7592C81.4706 59.2288 97.3284 60.2939 102.769 59.847C108.21 59.4 112.679 62.9757 114.914 76.3845C117.149 89.7933 121.118 96.0578 124.932 96.8306C127.221 97.2943 134.677 93.7039 139.391 103.321C140.85 106.297 148.098 98.0509 146.808 80.3796C145.05 56.2821 121.25 34.7874 99.7961 32.7054C78.3419 30.6233 41.566 38.5715 35.3711 83.3161Z" fill="black"/>
<path d="M57.0812 104.915C59.8755 104.915 62.1408 102.649 62.1408 99.8551C62.1408 97.0607 59.8755 94.7954 57.0812 94.7954C54.2868 94.7954 52.0215 97.0607 52.0215 99.8551C52.0215 102.649 54.2868 104.915 57.0812 104.915Z" fill="black"/>
<path d="M92.6456 111.681C95.44 111.681 97.7053 109.416 97.7053 106.621C97.7053 103.827 95.44 101.562 92.6456 101.562C89.8512 101.562 87.5859 103.827 87.5859 106.621C87.5859 109.416 89.8512 111.681 92.6456 111.681Z" fill="black"/>
<path d="M67.3893 166.189C66.8395 166.189 66.2829 166.038 65.7839 165.722C64.3923 164.838 63.9753 162.997 64.8474 161.601C65.5612 160.235 65.7937 154.717 65.3327 152.439C64.8991 152.326 64.3513 152.198 63.8718 152.086C57.8806 150.682 43.8513 147.396 36.4909 131.714C27.0095 111.513 33.1472 82.8332 33.2184 82.5638C37.4587 66.6509 46.2819 33.5451 85.7009 29.6109C103.397 27.8444 120.593 34.2588 132.875 47.2101C143.774 58.7053 148.789 73.3395 146.632 87.3603C146.38 88.9986 144.84 90.1197 143.211 89.8694C141.573 89.6174 140.45 88.0857 140.702 86.4481C142.574 74.2745 138.134 61.4775 128.52 51.3385C117.526 39.7436 102.13 34.0005 86.2966 35.5813C51.0593 39.0981 43.2302 68.2947 39.0349 84.0382C38.7966 85.1982 33.6013 111.437 41.9226 129.165C48.0485 142.216 59.6599 144.937 65.2399 146.244C67.8942 146.866 69.3561 147.208 70.2546 148.641C72.2722 151.941 71.7614 161.904 69.9245 164.797C69.3532 165.697 68.3815 166.189 67.3893 166.189Z" fill="black"/>
<path d="M105.831 143.787C105.005 143.787 104.182 143.447 103.59 142.782C102.488 141.544 102.597 139.648 103.835 138.546C112.461 130.864 113.678 122.422 113.689 122.337C113.796 121.54 114.22 120.81 114.864 120.327C115.506 119.844 116.32 119.631 117.115 119.752C117.202 119.765 126.63 121.087 131.875 116.172C134.66 113.563 135.858 109.475 135.439 104.018C134.412 98.0328 129.874 96.5464 126.271 97.0984C124.63 97.3495 123.101 96.2259 122.851 94.5882C122.599 92.9505 123.723 91.4191 125.361 91.1678C131.963 90.1541 139.805 93.4754 141.381 103.171C141.393 103.25 141.403 103.33 141.41 103.41C142.013 110.86 140.176 116.636 135.949 120.577C130.652 125.516 123.07 126.038 119.011 125.909C117.919 129.672 115.056 136.586 107.825 143.027C107.254 143.536 106.541 143.787 105.831 143.787V143.787Z" fill="black"/>
<path d="M39.2102 133.44C38.0833 133.44 37.0032 132.802 36.4925 131.714C29.72 117.283 30.9339 98.3709 32.261 88.3822C32.4788 86.7395 33.9837 85.5852 35.6292 85.8033C37.2718 86.0214 38.427 87.5297 38.2083 89.1722C37.2102 96.6891 35.5735 115.634 41.9241 129.165C42.6282 130.665 41.9827 132.451 40.4827 133.155C40.0706 133.348 39.637 133.44 39.2102 133.44L39.2102 133.44Z" fill="black"/>
</svg>
