<svg width="180" height="171" viewBox="0 0 180 171" fill="none" xmlns="http://www.w3.org/2000/svg">
<path d="M156.967 59.0594C162.197 50.2039 158.404 39.2491 150.528 33.2747C142.555 27.4314 130.973 26.9215 123.978 34.4617C117.274 41.6885 120.971 48.4047 123.151 53.253C124.98 57.3219 120.301 58.418 120.301 58.418C119.043 59.0392 118.633 61.5573 125.414 66.6142C132.196 71.671 134.813 70.8416 135.056 69.4197C135.056 69.4197 134.771 64.6229 139.193 65.2149C144.462 65.9206 151.954 67.5468 156.967 59.0594Z" fill="#2D8C3C"/>
<path d="M135.051 72.3969C134.289 72.401 133.555 72.1131 132.999 71.5924C132.443 71.0718 132.107 70.358 132.061 69.5977C131.993 68.5281 132.149 67.456 132.518 66.4499C132.887 65.4437 133.462 64.5256 134.206 63.7541C134.928 63.1061 135.789 62.6326 136.723 62.3703C137.656 62.108 138.638 62.064 139.592 62.2415L140.559 62.3755C145.537 63.076 150.683 63.7996 154.384 57.5337C159.039 49.6534 154.937 40.3849 148.715 35.6648C142.456 31.0774 132.402 29.7929 126.178 36.5021C121.227 41.838 123.392 46.5642 125.483 51.1348L125.888 52.0224C126.329 52.8859 126.567 53.8392 126.582 54.8089C126.597 55.7787 126.389 56.7389 125.975 57.6157C125.448 58.549 124.732 59.3621 123.873 60.0032C123.014 60.6443 122.031 61.0992 120.986 61.3389C120.212 61.5205 119.396 61.3869 118.72 60.9675C118.044 60.5481 117.562 59.8773 117.381 59.1026C117.199 58.3279 117.333 57.5128 117.752 56.8367C118.172 56.1605 118.842 55.6787 119.617 55.4971C119.985 55.3987 120.323 55.21 120.6 54.9481C120.568 54.9766 120.557 54.7989 120.415 54.483L120.027 53.6321C117.812 48.793 114.105 40.6936 121.779 32.4214C129.313 24.2988 142.436 23.6244 152.302 30.855C162.087 38.2768 165.185 51.0453 159.55 60.5853C153.813 70.2981 144.993 69.0585 139.724 68.317L138.795 68.1884C138.608 68.1519 138.417 68.1523 138.23 68.1893C138.109 68.5398 138.049 68.9088 138.054 69.2797C138.079 70.0702 137.794 70.8391 137.259 71.4214C136.723 72.0036 135.981 72.3528 135.191 72.3938C135.144 72.3959 135.098 72.3969 135.051 72.3969Z" fill="black"/>
<path d="M140.135 103.51C140.13 103.452 140.123 103.395 140.115 103.338C139.907 101.908 139.334 100.556 138.451 99.4127C148.834 88.8085 142.373 70.4042 138.814 63.0877C135.049 55.3462 127.554 43.8354 119.925 40.2029C112.297 36.5704 93.7713 27.1259 69.4335 37.2969C45.0957 47.4679 36.5195 80.7317 36.1406 81.8599C34.892 86.0819 33.9934 90.3997 33.4539 94.7693C32.6524 98.6377 32.425 102.603 32.7791 106.538C32.7837 113.797 34.3347 120.973 37.3288 127.586C43.3898 140.193 63.3785 147.437 67.6904 149.235C67.6904 149.235 68.2528 161.529 66.6182 163.163C67.708 168.067 78.8779 169.974 78.8779 169.974C81.5779 170.226 84.2974 169.783 86.7773 168.686C89.2572 167.589 91.4149 165.875 93.0447 163.708V149.814C93.0447 149.814 104.039 144.758 110.46 137.786C115.126 133.281 118.408 125.929 119.146 124.186C120.329 124.352 121.521 124.435 122.716 124.433C126.222 124.433 131.139 123.721 134.925 120.38C138.998 116.787 140.75 111.111 140.135 103.51Z" fill="white"/>
<path d="M35.3438 83.3162C35.3438 83.3162 51.73 67.7211 56.3065 58.7819C60.8831 49.8426 70.5253 50.2896 75.9843 54.7592C81.4433 59.2288 97.3011 60.2939 102.742 59.847C108.182 59.4001 112.652 62.9757 114.887 76.3846C117.121 89.7934 121.276 93.3605 125.091 94.1332C127.38 94.597 134.649 93.704 139.364 103.321C140.822 106.297 144.632 94.7786 143.343 77.1073C141.585 53.0098 121.223 34.7874 99.7687 32.7054C78.3146 30.6233 41.5386 38.5715 35.3438 83.3162Z" fill="#2D8C3C"/>
<path d="M57.0558 104.915C59.8501 104.915 62.1154 102.649 62.1154 99.8551C62.1154 97.0607 59.8501 94.7954 57.0558 94.7954C54.2614 94.7954 51.9961 97.0607 51.9961 99.8551C51.9961 102.649 54.2614 104.915 57.0558 104.915Z" fill="black"/>
<path d="M92.6202 111.681C95.4146 111.681 97.6799 109.416 97.6799 106.622C97.6799 103.827 95.4146 101.562 92.6202 101.562C89.8258 101.562 87.5605 103.827 87.5605 106.622C87.5605 109.416 89.8258 111.681 92.6202 111.681Z" fill="black"/>
<path d="M67.3643 166.189C66.8292 166.189 66.304 166.045 65.8431 165.773C65.3823 165.501 65.0025 165.111 64.7432 164.643C64.4839 164.175 64.3545 163.646 64.3684 163.111C64.3823 162.576 64.539 162.055 64.8223 161.601C65.5362 160.235 65.7686 154.717 65.3076 152.439C64.875 152.326 64.3272 152.198 63.8476 152.086C57.8564 150.682 43.8271 147.396 36.4668 131.714C27.0928 111.743 33.125 82.8219 33.1973 82.5537C37.4346 66.6509 46.2579 33.5451 85.6768 29.6109C94.3636 28.7223 103.138 29.8478 111.32 32.9001C119.501 35.9524 126.869 40.8493 132.851 47.2105C143.75 58.7057 148.764 73.3398 146.606 87.3604C146.547 87.7497 146.411 88.1235 146.206 88.4603C146.002 88.7971 145.733 89.0903 145.415 89.3232C145.098 89.5562 144.737 89.7243 144.355 89.8179C143.972 89.9116 143.575 89.9289 143.185 89.869C142.796 89.8091 142.422 89.6731 142.086 89.4687C141.749 89.2644 141.456 88.9957 141.223 88.678C140.99 88.3603 140.822 87.9999 140.728 87.6172C140.634 87.2346 140.617 86.8373 140.677 86.4479C142.55 74.2746 138.11 61.4778 128.496 51.3388C123.142 45.6449 116.547 41.2615 109.225 38.5288C101.902 35.796 94.0481 34.7874 86.2725 35.5812C51.0352 39.098 43.2061 68.2962 39.0098 84.0396C38.7745 85.1835 33.5655 111.411 41.8985 129.165C48.0245 142.217 59.6358 144.937 65.2159 146.244C67.8692 146.866 69.3311 147.208 70.2305 148.64C72.2481 151.942 71.7364 161.905 69.8995 164.797C69.6287 165.224 69.2542 165.576 68.8109 165.819C68.3677 166.063 67.87 166.19 67.3643 166.189Z" fill="black"/>
<path d="M105.806 143.787C105.197 143.787 104.603 143.602 104.103 143.257C103.602 142.912 103.218 142.423 103.001 141.855C102.785 141.286 102.746 140.665 102.89 140.075C103.035 139.484 103.355 138.951 103.809 138.546C112.436 130.864 113.652 122.422 113.664 122.338C113.717 121.942 113.847 121.561 114.049 121.216C114.25 120.871 114.518 120.569 114.836 120.329C115.155 120.088 115.518 119.914 115.905 119.815C116.292 119.716 116.695 119.695 117.09 119.753C117.178 119.765 126.603 121.087 131.849 116.172C134.635 113.564 135.833 109.475 135.414 104.018C134.387 98.0319 129.845 96.5468 126.247 97.0985C125.462 97.2167 124.661 97.0187 124.022 96.5479C123.382 96.0771 122.956 95.372 122.835 94.587C122.715 93.8021 122.91 93.0014 123.379 92.3605C123.848 91.7196 124.552 91.2907 125.337 91.168C131.947 90.1535 139.782 93.477 141.355 103.171C141.368 103.25 141.378 103.33 141.385 103.41C141.988 110.86 140.15 116.636 135.924 120.577C130.626 125.516 123.039 126.038 118.985 125.909C116.936 132.551 113.06 138.483 107.8 143.027C107.251 143.517 106.541 143.788 105.806 143.787Z" fill="black"/>
<path d="M39.1838 133.44C38.6136 133.44 38.0552 133.278 37.5738 132.972C37.0925 132.667 36.7082 132.23 36.466 131.714C29.6926 117.283 30.9065 98.3711 32.2336 88.3822C32.2848 87.9911 32.4127 87.614 32.6098 87.2724C32.8069 86.9308 33.0695 86.6314 33.3824 86.3914C33.6954 86.1514 34.0526 85.9754 34.4336 85.8736C34.8146 85.7718 35.212 85.7462 35.603 85.7981C35.9939 85.85 36.3708 85.9785 36.712 86.1763C37.0533 86.374 37.3522 86.6371 37.5916 86.9505C37.8311 87.2639 38.0064 87.6215 38.1075 88.0027C38.2086 88.3839 38.2335 88.7813 38.1809 89.1722C37.1828 96.6892 35.5461 115.634 41.8977 129.165C42.1119 129.622 42.2074 130.126 42.1752 130.629C42.1431 131.133 41.9844 131.621 41.7139 132.047C41.4433 132.473 41.0696 132.824 40.6274 133.068C40.1852 133.311 39.6887 133.439 39.1838 133.44V133.44Z" fill="black"/>
</svg>
