<svg width="180" height="170" viewBox="0 0 180 170" fill="none" xmlns="http://www.w3.org/2000/svg">
<path d="M139.34 103.504C139.336 103.446 139.329 103.39 139.321 103.333C139.115 101.908 138.546 100.561 137.67 99.4192C147.973 88.8466 141.561 70.4973 138.03 63.2026C134.294 55.4843 126.856 44.0078 119.286 40.3861C111.716 36.7645 93.3314 27.3481 69.1795 37.4888C45.0276 47.6295 36.517 80.7939 36.141 81.9188C34.9018 86.1289 34.01 90.4337 33.4748 94.7897C32.6795 98.647 32.4539 102.6 32.8052 106.523C32.8094 113.759 34.3483 120.911 37.3202 127.509C43.3349 140.077 63.1709 147.3 67.4498 149.093C67.4498 149.093 68.008 161.35 66.3859 162.979C67.4673 167.869 78.5519 169.77 78.5519 169.77C81.234 170.019 83.9351 169.575 86.3966 168.481C88.8581 167.387 90.9977 165.68 92.6104 163.523V149.67C92.6104 149.67 103.52 144.629 109.893 137.678C114.523 133.187 117.78 125.856 118.513 124.119C119.686 124.284 120.87 124.366 122.055 124.365C125.535 124.365 130.414 123.655 134.171 120.324C138.213 116.742 139.951 111.083 139.34 103.504Z" fill="white"/>
<path d="M36.0938 83.3873C36.0938 83.3873 52.3548 67.8388 56.8964 58.9263C61.438 50.0138 71.0065 50.4594 76.4238 54.9157C81.8411 59.3719 97.5777 60.4339 102.977 59.9882C108.376 59.5426 112.811 63.1076 115.029 76.4764C117.247 89.8452 125.072 94.0452 128.857 94.8156C131.129 95.278 134.641 93.7442 139.319 103.333C140.767 106.299 144.548 94.8156 143.268 77.197C141.523 53.1714 121.317 35.0035 100.027 32.9276C78.7363 30.8518 42.2413 38.7762 36.0938 83.3873Z" fill="#82BE28"/>
<path d="M56.896 104.905C59.669 104.905 61.917 102.646 61.917 99.86C61.917 97.074 59.669 94.8154 56.896 94.8154C54.123 94.8154 51.875 97.074 51.875 99.86C51.875 102.646 54.123 104.905 56.896 104.905Z" fill="black"/>
<path d="M92.189 111.651C94.962 111.651 97.21 109.392 97.21 106.606C97.21 103.82 94.962 101.562 92.189 101.562C89.4159 101.562 87.168 103.82 87.168 106.606C87.168 109.392 89.4159 111.651 92.189 111.651Z" fill="black"/>
<path d="M67.1253 166.005C66.5908 166.005 66.0661 165.861 65.6055 165.59C65.1449 165.318 64.7652 164.929 64.5056 164.462C64.2461 163.994 64.116 163.466 64.129 162.932C64.142 162.397 64.2975 161.876 64.5794 161.422C65.2874 160.06 65.5189 154.566 65.0628 152.291C64.6351 152.18 64.098 152.054 63.6263 151.943C57.6781 150.543 43.7484 147.264 36.4408 131.623C27.057 111.537 33.1205 82.8951 33.1918 82.6259C37.4027 66.7532 46.1605 33.7407 85.2933 29.8168C93.8977 28.9379 102.589 30.0536 110.692 33.0773C118.796 36.1009 126.093 40.9513 132.019 47.2518C142.917 58.7319 147.935 73.3661 145.786 87.4018C145.665 88.1884 145.237 88.895 144.596 89.366C143.954 89.837 143.152 90.034 142.366 89.9136C141.579 89.7931 140.872 89.3652 140.401 88.7238C139.93 88.0824 139.733 87.2802 139.854 86.4936C141.721 74.3049 137.279 61.5076 127.667 51.3826C122.37 45.7484 115.846 41.4105 108.602 38.7058C101.357 36.0011 93.5862 35.0022 85.8929 35.7868C50.9457 39.291 43.1752 68.3944 39.0111 84.0889C38.7728 85.255 33.6244 111.419 41.8763 129.083C47.9535 142.089 59.4681 144.8 65.0013 146.102C67.555 146.703 69.0961 147.066 69.9925 148.501C71.9955 151.791 71.4877 161.724 69.6644 164.608C69.3937 165.036 69.0188 165.389 68.5748 165.634C68.1308 165.878 67.6321 166.006 67.1253 166.005Z" fill="black"/>
<path d="M56.8969 104.518C59.4698 104.518 61.5555 102.422 61.5555 99.8372C61.5555 97.2523 59.4698 95.1567 56.8969 95.1567C54.324 95.1567 52.2383 97.2523 52.2383 99.8372C52.2383 102.422 54.324 104.518 56.8969 104.518Z" fill="black"/>
<path d="M92.1547 111.287C94.7276 111.287 96.8133 109.191 96.8133 106.606C96.8133 104.021 94.7276 101.926 92.1547 101.926C89.5818 101.926 87.4961 104.021 87.4961 106.606C87.4961 109.191 89.5818 111.287 92.1547 111.287Z" fill="black"/>
<path d="M105.274 143.669C104.666 143.67 104.073 143.485 103.573 143.141C103.072 142.796 102.688 142.308 102.471 141.74C102.254 141.173 102.215 140.553 102.358 139.962C102.501 139.372 102.82 138.839 103.273 138.434C111.831 130.776 113.039 122.36 113.05 122.276C113.103 121.88 113.234 121.498 113.435 121.153C113.636 120.807 113.904 120.506 114.223 120.265C114.542 120.024 114.906 119.849 115.293 119.751C115.681 119.652 116.084 119.631 116.479 119.689C116.565 119.702 125.879 121.013 131.079 116.146C133.855 113.548 135.051 109.465 134.634 104.01C133.616 98.052 129.122 96.5715 125.565 97.1203C124.78 97.2385 123.98 97.0408 123.341 96.5704C122.701 96.1 122.274 95.3954 122.153 94.6108C122.032 93.8262 122.227 93.0256 122.695 92.3845C123.164 91.7434 123.867 91.314 124.651 91.1903C133.6 89.8108 139.444 96.1686 140.577 103.166C140.59 103.245 140.598 103.325 140.605 103.405C141.206 110.853 139.37 116.623 135.15 120.554C129.898 125.446 122.399 125.971 118.374 125.846C116.342 132.458 112.496 138.369 107.273 142.905C106.724 143.398 106.012 143.67 105.274 143.669Z" fill="black"/>
<path d="M39.1607 133.354C38.5896 133.354 38.0303 133.191 37.5485 132.884C37.0667 132.578 36.6825 132.14 36.441 131.622C29.7193 117.233 30.9244 98.3793 32.2418 88.4217C32.3461 87.633 32.7594 86.9181 33.3908 86.4342C34.0223 85.9503 34.8201 85.737 35.6087 85.8413C36.3974 85.9457 37.1123 86.359 37.5962 86.9904C38.0801 87.6218 38.2934 88.4196 38.189 89.2083C37.1988 96.7024 35.5738 115.59 41.8765 129.083C42.0898 129.54 42.1844 130.044 42.1517 130.547C42.119 131.05 41.9599 131.537 41.6892 131.963C41.4186 132.388 41.045 132.739 40.6031 132.982C40.1612 133.225 39.6651 133.353 39.1607 133.354V133.354Z" fill="black"/>
<path d="M60.3906 42.0953C60.3906 42.0953 68.3637 28.6654 69.1885 20.2327C70.0133 11.7999 80.8303 12.5101 82.7549 17.5073C84.6794 22.5045 86.7962 28.6107 89.4847 24.5505C92.1732 20.4903 99.2732 15.6502 103.672 20.0227C108.071 24.3953 106.676 31.1451 108.749 29.4091C110.823 27.6731 116.668 21.5867 122.366 28.7429C126.372 33.7737 121.426 37.7228 120.876 48.0295C120.326 58.3362 119.501 60.5224 119.501 60.5224L60.3906 42.0953Z" fill="#82BE28"/>
<path d="M122.1 62.9905C121.341 62.9914 120.61 62.7035 120.056 62.1852C118.224 60.4779 117.471 55.5277 117.879 47.8696C118.111 44.2475 118.729 40.6604 119.722 37.1694C120.728 33.2817 120.967 31.9079 119.947 30.5173C119.67 30.0569 119.294 29.6636 118.847 29.3657C118.4 29.0678 117.893 28.8727 117.362 28.7944C115.297 28.544 112.554 30.1362 110.674 31.7094C110.203 32.1513 109.622 32.4586 108.991 32.5993C108.361 32.7399 107.704 32.7088 107.09 32.5092C105.085 31.8291 104.649 29.8703 104.263 28.142C103.863 26.3511 103.315 23.8985 101.556 22.1504C100.916 21.5363 100.134 21.089 99.2803 20.8478C98.4264 20.6066 97.5264 20.5789 96.6594 20.7671C95.4126 21.0294 94.2477 21.5895 93.2643 22.3996C92.2809 23.2097 91.5081 24.2458 91.0119 25.4193C89.7483 28.231 88.0207 28.7682 86.7453 28.7217C83.6106 28.6056 82.4192 25.3269 80.7707 20.789C80.5041 20.055 80.2327 19.308 79.9543 18.5855C79.5461 17.5263 77.5422 16.5619 75.4641 16.8545C74.5565 16.9302 73.7117 17.3484 73.1011 18.0241C72.4905 18.6999 72.1598 19.5826 72.176 20.4932C70.7912 36.366 62.7717 43.9775 62.4309 44.2938C61.8492 44.8364 61.0758 45.1257 60.2808 45.0981C59.4858 45.0705 58.7343 44.7283 58.1915 44.1468C57.6488 43.5652 57.3592 42.7919 57.3865 41.9969C57.4138 41.2019 57.7558 40.4503 58.3371 39.9073C58.469 39.7798 65.0334 33.3319 66.1994 19.9715C66.3002 17.7073 67.2032 15.5528 68.7468 13.8933C70.2905 12.2338 72.3742 11.1775 74.6253 10.9135C79.387 10.2409 84.0843 12.6125 85.554 16.4289C85.846 17.1868 86.1301 17.9703 86.4104 18.7402C86.5911 19.2377 86.801 19.8154 87.0178 20.3908C89.0483 17.5155 92.1118 15.5363 95.5676 14.8673C97.3886 14.4954 99.2731 14.5771 101.055 15.1051C102.837 15.6331 104.462 16.5912 105.786 17.8951C107.703 19.8889 109.051 22.3599 109.69 25.0511C112.166 23.4071 115.117 22.6289 118.082 22.8379C119.426 23.0199 120.717 23.4814 121.871 24.1928C123.026 24.9042 124.018 25.8497 124.784 26.9683C127.574 30.7712 126.581 34.6088 125.531 38.6718C124.639 41.776 124.083 44.9666 123.871 48.1891C123.482 55.4787 124.314 57.7785 124.49 58.1746C124.828 58.6196 125.035 59.1502 125.087 59.7066C125.14 60.2629 125.037 60.823 124.788 61.3236C124.54 61.8242 124.156 62.2455 123.681 62.5401C123.207 62.8346 122.659 62.9906 122.1 62.9905V62.9905ZM124.154 57.803L124.156 57.8046L124.154 57.803ZM124.15 57.7995L124.153 57.8019L124.15 57.7995ZM124.146 57.7958L124.15 57.799L124.146 57.7958Z" fill="black"/>
</svg>
