<svg width="180" height="170" viewBox="0 0 180 170" fill="none" xmlns="http://www.w3.org/2000/svg">
<path d="M139.34 103.594C139.336 103.537 139.329 103.48 139.321 103.423C139.115 101.999 138.546 100.651 137.67 99.5096C147.973 88.937 141.561 70.5876 138.03 63.2929C134.294 55.5746 126.856 44.0981 119.286 40.4764C111.716 36.8548 93.3314 27.4385 69.1795 37.5791C45.0276 47.7198 36.517 80.8842 36.141 82.0091C34.9018 86.2192 34.01 90.524 33.4748 94.88C32.6795 98.7373 32.4539 102.69 32.8052 106.613C32.8094 113.849 34.3483 121.002 37.3202 127.599C43.3349 140.168 63.1709 147.391 67.4498 149.183C67.4498 149.183 68.008 161.44 66.3859 163.07C67.4673 167.959 78.5519 169.86 78.5519 169.86C81.234 170.109 83.9351 169.666 86.3966 168.572C88.8581 167.478 90.9977 165.77 92.6104 163.613V149.76C92.6104 149.76 103.52 144.719 109.893 137.768C114.523 133.277 117.78 125.947 118.513 124.209C119.686 124.374 120.87 124.457 122.055 124.455C125.535 124.455 130.414 123.745 134.171 120.415C138.213 116.832 139.951 111.173 139.34 103.594Z" fill="white"/>
<path d="M36.0938 83.4776C36.0938 83.4776 52.3548 67.9291 56.8964 59.0166C61.438 50.1042 71.0065 50.5497 76.4238 55.006C81.8411 59.4623 97.5777 60.5242 102.977 60.0786C108.376 59.6329 112.811 63.198 115.029 76.5668C117.247 89.9356 125.072 94.1355 128.857 94.9059C131.129 95.3683 134.641 93.8345 139.319 103.423C140.767 106.39 144.548 94.9059 143.268 77.2873C141.523 53.2618 121.317 35.0938 100.027 33.018C78.7363 30.9421 42.2413 38.8666 36.0938 83.4776Z" fill="black"/>
<path d="M56.896 104.995C59.669 104.995 61.917 102.736 61.917 99.9503C61.917 97.1643 59.669 94.9058 56.896 94.9058C54.123 94.9058 51.875 97.1643 51.875 99.9503C51.875 102.736 54.123 104.995 56.896 104.995Z" fill="black"/>
<path d="M92.189 111.741C94.962 111.741 97.21 109.482 97.21 106.696C97.21 103.91 94.962 101.652 92.189 101.652C89.4159 101.652 87.168 103.91 87.168 106.696C87.168 109.482 89.4159 111.741 92.189 111.741Z" fill="black"/>
<path d="M67.1253 166.095C66.5908 166.095 66.0661 165.951 65.6055 165.68C65.1449 165.409 64.7652 165.019 64.5056 164.552C64.2461 164.085 64.116 163.556 64.129 163.022C64.142 162.488 64.2975 161.966 64.5794 161.512C65.2874 160.151 65.5189 154.656 65.0628 152.382C64.6351 152.27 64.098 152.144 63.6263 152.033C57.6781 150.633 43.7484 147.354 36.4408 131.713C27.057 111.628 33.1205 82.9854 33.1918 82.7162C37.4027 66.8435 46.1605 33.8311 85.2933 29.9071C93.8977 29.0282 102.589 30.1439 110.692 33.1676C118.796 36.1913 126.093 41.0416 132.019 47.3422C142.917 58.8223 147.935 73.4564 145.786 87.4922C145.665 88.2788 145.237 88.9853 144.596 89.4563C143.954 89.9274 143.152 90.1243 142.366 90.0039C141.579 89.8835 140.872 89.4555 140.401 88.8141C139.93 88.1728 139.733 87.3706 139.854 86.584C141.721 74.3953 137.279 61.5979 127.667 51.473C122.37 45.8387 115.846 41.5009 108.602 38.7961C101.357 36.0914 93.5862 35.0925 85.8929 35.8771C50.9457 39.3813 43.1752 68.4848 39.0111 84.1792C38.7728 85.3453 33.6244 111.51 41.8763 129.174C47.9535 142.18 59.4681 144.89 65.0013 146.193C67.555 146.794 69.0961 147.157 69.9925 148.591C71.9955 151.881 71.4877 161.815 69.6644 164.698C69.3937 165.127 69.0188 165.48 68.5748 165.724C68.1308 165.968 67.6321 166.096 67.1253 166.095Z" fill="black"/>
<path d="M56.8969 104.608C59.4698 104.608 61.5555 102.512 61.5555 99.9275C61.5555 97.3426 59.4698 95.2471 56.8969 95.2471C54.324 95.2471 52.2383 97.3426 52.2383 99.9275C52.2383 102.512 54.324 104.608 56.8969 104.608Z" fill="black"/>
<path d="M92.1547 111.377C94.7276 111.377 96.8133 109.282 96.8133 106.697C96.8133 104.112 94.7276 102.016 92.1547 102.016C89.5818 102.016 87.4961 104.112 87.4961 106.697C87.4961 109.282 89.5818 111.377 92.1547 111.377Z" fill="black"/>
<path d="M105.274 143.76C104.666 143.76 104.073 143.576 103.573 143.231C103.072 142.887 102.688 142.398 102.471 141.831C102.254 141.263 102.215 140.643 102.358 140.053C102.501 139.462 102.82 138.929 103.273 138.524C111.831 130.867 113.039 122.45 113.05 122.366C113.103 121.97 113.234 121.588 113.435 121.243C113.636 120.898 113.904 120.596 114.223 120.355C114.542 120.115 114.906 119.94 115.293 119.841C115.681 119.742 116.084 119.721 116.479 119.78C116.565 119.793 125.879 121.104 131.079 116.237C133.855 113.638 135.051 109.555 134.634 104.1C133.616 98.1424 129.122 96.6619 125.565 97.2106C124.78 97.3288 123.98 97.1311 123.341 96.6607C122.701 96.1904 122.274 95.4857 122.153 94.7011C122.032 93.9165 122.227 93.1159 122.695 92.4748C123.164 91.8337 123.867 91.4043 124.651 91.2807C133.6 89.9011 139.444 96.2589 140.577 103.257C140.59 103.336 140.598 103.415 140.605 103.495C141.206 110.944 139.37 116.714 135.15 120.644C129.898 125.536 122.399 126.061 118.374 125.936C116.342 132.549 112.496 138.459 107.273 142.995C106.724 143.488 106.012 143.761 105.274 143.76Z" fill="black"/>
<path d="M39.1607 133.444C38.5896 133.444 38.0303 133.281 37.5485 132.975C37.0667 132.668 36.6825 132.23 36.441 131.713C29.7193 117.323 30.9244 98.4697 32.2418 88.512C32.3461 87.7233 32.7594 87.0084 33.3908 86.5245C34.0223 86.0406 34.8201 85.8274 35.6087 85.9317C36.3974 86.036 37.1123 86.4493 37.5962 87.0807C38.0801 87.7122 38.2934 88.51 38.189 89.2986C37.1988 96.7928 35.5738 115.68 41.8765 129.173C42.0898 129.631 42.1844 130.134 42.1517 130.637C42.119 131.141 41.9599 131.628 41.6892 132.053C41.4186 132.479 41.045 132.829 40.6031 133.072C40.1612 133.315 39.6651 133.443 39.1607 133.444V133.444Z" fill="black"/>
<path d="M60.3906 42.1857C60.3906 42.1857 68.3637 28.7558 69.1885 20.323C70.0133 11.8903 80.8303 12.6005 82.7549 17.5977C84.6794 22.5948 86.7962 28.701 89.4847 24.6408C92.1732 20.5806 99.2732 15.7406 103.672 20.1131C108.071 24.4856 106.676 31.2354 108.749 29.4994C110.823 27.7634 116.668 21.677 122.366 28.8332C126.372 33.864 121.426 37.8131 120.876 48.1198C120.326 58.4265 119.501 60.6127 119.501 60.6127L60.3906 42.1857Z" fill="black"/>
<path d="M122.1 63.0809C121.341 63.0817 120.61 62.7938 120.056 62.2756C118.224 60.5682 117.471 55.618 117.879 47.9599C118.111 44.3378 118.729 40.7508 119.722 37.2597C120.728 33.372 120.967 31.9982 119.947 30.6076C119.67 30.1473 119.294 29.754 118.847 29.4561C118.4 29.1582 117.893 28.963 117.362 28.8847C115.297 28.6343 112.554 30.2265 110.674 31.7997C110.203 32.2416 109.622 32.5489 108.991 32.6896C108.361 32.8303 107.704 32.7992 107.09 32.5995C105.085 31.9195 104.649 29.9606 104.263 28.2323C103.863 26.4414 103.315 23.9888 101.556 22.2407C100.916 21.6267 100.134 21.1793 99.2803 20.9381C98.4264 20.6969 97.5264 20.6692 96.6594 20.8574C95.4126 21.1197 94.2477 21.6798 93.2643 22.4899C92.2809 23.3 91.5081 24.3361 91.0119 25.5097C89.7483 28.3213 88.0207 28.8585 86.7453 28.812C83.6106 28.6959 82.4192 25.4173 80.7707 20.8793C80.5041 20.1453 80.2327 19.3983 79.9543 18.6758C79.5461 17.6166 77.5422 16.6522 75.4641 16.9448C74.5565 17.0206 73.7117 17.4387 73.1011 18.1145C72.4905 18.7902 72.1598 19.6729 72.176 20.5835C70.7912 36.4563 62.7717 44.0679 62.4309 44.3841C61.8492 44.9267 61.0758 45.216 60.2808 45.1884C59.4858 45.1608 58.7343 44.8186 58.1915 44.2371C57.6488 43.6555 57.3592 42.8822 57.3865 42.0872C57.4138 41.2922 57.7558 40.5406 58.3371 39.9977C58.469 39.8701 65.0334 33.4222 66.1994 20.0619C66.3002 17.7976 67.2032 15.6431 68.7468 13.9836C70.2905 12.3241 72.3742 11.2679 74.6253 11.0038C79.387 10.3312 84.0843 12.7028 85.554 16.5192C85.846 17.2772 86.1301 18.0606 86.4104 18.8305C86.5911 19.3281 86.801 19.9057 87.0178 20.4811C89.0483 17.6058 92.1118 15.6267 95.5676 14.9576C97.3886 14.5858 99.2731 14.6674 101.055 15.1955C102.837 15.7235 104.462 16.6816 105.786 17.9854C107.703 19.9792 109.051 22.4502 109.69 25.1414C112.166 23.4974 115.117 22.7193 118.082 22.9283C119.426 23.1102 120.717 23.5717 121.871 24.2832C123.026 24.9946 124.018 25.9401 124.784 27.0586C127.574 30.8615 126.581 34.6992 125.531 38.7621C124.639 41.8663 124.083 45.0569 123.871 48.2795C123.482 55.569 124.314 57.8688 124.49 58.2649C124.828 58.71 125.035 59.2405 125.087 59.7969C125.14 60.3533 125.037 60.9133 124.788 61.4139C124.54 61.9146 124.156 62.3359 123.681 62.6304C123.207 62.9249 122.659 63.0809 122.1 63.0809V63.0809ZM124.154 57.8934L124.156 57.895L124.154 57.8934ZM124.15 57.8898L124.153 57.8923L124.15 57.8898ZM124.146 57.8862L124.15 57.8893L124.146 57.8862Z" fill="black"/>
</svg>
