<svg width="187" height="171" viewBox="0 0 187 171" fill="none" xmlns="http://www.w3.org/2000/svg">
<path d="M146.995 104.312C146.991 104.254 146.984 104.197 146.975 104.14C146.767 102.707 146.193 101.352 145.308 100.205C155.715 89.5765 149.238 71.1294 145.672 63.7958C141.898 56.0364 134.385 44.4987 126.739 40.8578C119.093 37.2168 100.524 27.7503 76.1297 37.945C51.7353 48.1397 43.1392 81.4809 42.7594 82.6117C41.5079 86.8436 40.6071 91.1714 40.0664 95.5512C39.2631 99.4286 39.0352 103.403 39.3901 107.347C39.3947 114.624 40.9493 121.816 43.9503 128.445C50.0254 141.08 70.0607 148.342 74.3825 150.144C74.3825 150.144 74.9463 162.466 73.3079 164.104C74.4002 169.02 85.5961 170.931 85.5961 170.931C88.3024 171.184 91.0282 170.739 93.5139 169.64C95.9996 168.54 98.1624 166.823 99.796 164.65V150.724C99.796 150.724 110.816 145.656 117.252 138.668C121.929 134.153 125.219 126.783 125.958 125.036C127.144 125.203 128.339 125.285 129.536 125.284C133.051 125.284 137.979 124.57 141.774 121.222C145.856 117.62 147.612 111.931 146.995 104.312Z" fill="white"/>
<path d="M63.7232 105.161C66.5241 105.161 68.7947 102.89 68.7947 100.089C68.7947 97.2885 66.5241 95.0179 63.7232 95.0179C60.9223 95.0179 58.6518 97.2885 58.6518 100.089C58.6518 102.89 60.9223 105.161 63.7232 105.161Z" fill="black"/>
<path d="M99.3704 111.943C102.171 111.943 104.442 109.672 104.442 106.871C104.442 104.07 102.171 101.8 99.3704 101.8C96.5696 101.8 94.299 104.07 94.299 106.871C94.299 109.672 96.5696 111.943 99.3704 111.943Z" fill="black"/>
<path d="M74.0568 166.578C73.5205 166.577 72.9941 166.433 72.5321 166.161C72.0702 165.888 71.6895 165.497 71.4296 165.028C71.1697 164.559 71.04 164.029 71.0539 163.492C71.0679 162.956 71.225 162.434 71.5089 161.979C72.2244 160.609 72.4574 155.079 71.9954 152.795C71.5618 152.683 71.0126 152.554 70.532 152.441C64.5268 151.035 50.4649 147.741 43.0874 132.022C33.5839 111.775 39.7349 83.0278 39.8064 82.7578C44.0574 66.8075 52.9032 33.6248 92.4119 29.6815C101.119 28.7912 109.913 29.9195 118.114 32.9787C126.314 36.0379 133.698 40.9458 139.695 47.3212C150.619 58.8432 155.646 73.5117 153.483 87.5653C153.362 88.3535 152.933 89.0612 152.29 89.5327C151.647 90.0043 150.843 90.2011 150.054 90.0799C149.266 89.9586 148.559 89.5292 148.087 88.8862C147.615 88.2431 147.419 87.4391 147.54 86.6509C149.416 74.4488 144.967 61.6219 135.33 51.4593C129.963 45.7522 123.354 41.3586 116.014 38.6197C108.675 35.8807 100.802 34.8699 93.009 35.6659C57.6937 39.1905 49.8424 68.4545 45.6364 84.2353C45.3975 85.398 40.1911 111.698 48.5318 129.467C54.672 142.549 66.3103 145.276 71.9034 146.586C74.5629 147.209 76.0282 147.552 76.9297 148.987C78.952 152.297 78.4391 162.284 76.5979 165.182C76.3265 165.61 75.9511 165.963 75.5068 166.207C75.0625 166.451 74.5637 166.578 74.0568 166.578Z" fill="black"/>
<path d="M63.7252 104.772C66.324 104.772 68.4307 102.665 68.4307 100.066C68.4307 97.4677 66.324 95.361 63.7252 95.361C61.1265 95.361 59.0198 97.4677 59.0198 100.066C59.0198 102.665 61.1265 104.772 63.7252 104.772Z" fill="black"/>
<path d="M99.3352 111.577C101.934 111.577 104.041 109.47 104.041 106.871C104.041 104.273 101.934 102.166 99.3352 102.166C96.7365 102.166 94.6298 104.273 94.6298 106.871C94.6298 109.47 96.7365 111.577 99.3352 111.577Z" fill="black"/>
<path d="M112.586 144.123C111.977 144.123 111.382 143.938 110.88 143.592C110.378 143.246 109.993 142.756 109.776 142.186C109.559 141.617 109.52 140.994 109.665 140.402C109.809 139.81 110.13 139.276 110.586 138.87C119.338 131.076 120.45 122.724 120.461 122.64C120.51 122.241 120.638 121.856 120.839 121.507C121.039 121.158 121.308 120.853 121.628 120.61C121.948 120.367 122.314 120.191 122.704 120.091C123.094 119.992 123.499 119.972 123.897 120.033C123.986 120.046 133.435 121.369 138.691 116.444C141.483 113.829 142.684 109.731 142.264 104.261C141.235 98.263 136.686 96.7714 133.075 97.3261C132.287 97.447 131.483 97.2499 130.84 96.7781C130.197 96.3062 129.768 95.5982 129.647 94.81C129.526 94.0217 129.723 93.2176 130.195 92.5747C130.667 91.9317 131.375 91.5026 132.163 91.3816C138.786 90.3647 146.641 93.696 148.219 103.413C148.232 103.492 148.241 103.572 148.248 103.652C148.853 111.12 147.011 116.909 142.775 120.859C137.466 125.81 129.865 126.334 125.797 126.204C123.742 132.861 119.857 138.806 114.585 143.361C114.035 143.853 113.324 144.124 112.586 144.123Z" fill="black"/>
<path d="M45.8116 133.752C45.2401 133.753 44.6804 133.59 44.1979 133.284C43.7155 132.977 43.3303 132.54 43.0875 132.022C36.2983 117.558 37.515 98.6019 38.8453 88.5897C38.8973 88.1983 39.0258 87.821 39.2237 87.4792C39.4215 87.1375 39.6847 86.8381 39.9982 86.5981C40.3118 86.3581 40.6695 86.1822 41.051 86.0804C41.4325 85.9787 41.8303 85.9531 42.2217 86.0051C42.6132 86.0571 42.9905 86.1856 43.3322 86.3835C43.6739 86.5813 43.9733 86.8445 44.2133 87.158C44.4534 87.4716 44.6293 87.8293 44.731 88.2108C44.8328 88.5923 44.8584 88.9901 44.8064 89.3815C43.806 96.916 42.1655 115.905 48.5318 129.467C48.7465 129.925 48.8422 130.43 48.81 130.935C48.7778 131.44 48.6188 131.929 48.3476 132.356C48.0764 132.783 47.7019 133.135 47.2586 133.379C46.8153 133.623 46.3177 133.752 45.8116 133.752V133.752Z" fill="black"/>
<path d="M46.6391 24.9207C33.7758 36.1071 21.3439 70.0672 21.3439 70.0672C21.3439 70.0672 0.416054 126.36 5.34397 128.552C10.2719 130.745 20.7075 118.841 20.7075 118.841L16.7388 142.974C19.0448 150.48 29.6054 147.114 32.0241 143.046C29.6225 149.771 31.8269 153.752 39.2357 154.631L49.6953 141.116L48.9707 98.6947C48.0804 88.2072 55.9512 75.5301 62.74 63.1234C62.74 63.1234 73.2319 50.6257 84.1049 65.3288C92.7987 55.6421 105.756 69.33 109.764 73.6079C123.759 94.2097 105.419 157.466 109.7 160.317L118.536 159.876L126.658 147.852C126.658 147.852 128.972 162.926 137.293 162.735C143.326 162.346 145.578 152.954 146.73 150.98C147.882 149.006 150.185 150.157 150.965 154.188C151.728 158.134 155.142 161.172 160.139 161.172L164.487 157.563L158.387 118.552C158.387 118.552 170.14 61.8802 142.692 33.9329C127.622 18.588 103.323 21.1523 103.323 21.1523C103.323 21.1523 72.3058 2.60015 46.6391 24.9207Z" fill="#2D8C3C"/>
<path d="M135.239 166.745C134.613 166.744 133.989 166.685 133.374 166.569C126.812 165.349 126.469 158.204 126.242 153.476C126.222 153.036 126.197 152.536 126.166 152.028C126.144 152.083 126.124 152.137 126.103 152.191C124.125 157.282 120.446 166.761 112.018 164.204C104.749 162 104.184 155.164 104.902 151.857C104.909 151.821 104.917 151.786 104.927 151.75C109.101 136.212 111.728 120.299 112.768 104.244C112.792 103.898 114.695 71.7836 96.6941 66.3248C93.1654 65.2566 87.727 67.4437 85.9279 68.377C85.221 68.7448 84.397 68.8169 83.637 68.5776C82.877 68.3383 82.243 67.8071 81.8743 67.1007C81.5056 66.3944 81.4324 65.5705 81.6706 64.8102C81.9089 64.0498 82.4392 63.4151 83.145 63.0454C84.027 62.5846 91.9399 58.5992 98.4393 60.5697C121.006 67.4132 118.873 103.107 118.771 104.623C117.711 121.028 115.032 137.287 110.773 153.165C110.476 154.262 110.624 155.431 111.184 156.42C111.743 157.409 112.67 158.138 113.763 158.449C115.772 159.057 117.436 157.893 120.497 150.013C121.97 146.222 123.356 142.638 126.759 143.142C131.785 143.496 132.054 149.088 132.249 153.188C132.48 158.011 132.872 160.358 134.472 160.656C134.877 160.767 135.303 160.785 135.716 160.707C136.128 160.629 136.518 160.457 136.855 160.206C138.795 158.741 139.575 154.737 139.696 153.45C139.77 152.657 140.154 151.926 140.766 151.417C141.377 150.908 142.165 150.662 142.958 150.732C143.75 150.803 144.483 151.185 144.994 151.795C145.505 152.405 145.754 153.192 145.686 153.985C145.618 154.76 144.893 161.652 140.499 164.989C138.989 166.142 137.138 166.76 135.239 166.745Z" fill="black"/>
<path d="M39.2849 157.632C37.6634 157.605 36.0662 157.234 34.5993 156.542C27.0397 153.157 28.8515 145.987 30.6046 139.054C32.4595 131.717 34.9996 121.668 30.8562 109.093C30.6076 108.336 30.6699 107.511 31.0292 106.8C31.3885 106.088 32.0155 105.548 32.7725 105.299C33.5294 105.05 34.3545 105.111 35.0663 105.47C35.7781 105.828 36.3185 106.454 36.5687 107.211C41.2593 121.447 38.4706 132.476 36.4346 140.528C34.4338 148.442 34.5219 149.918 37.0571 151.053C39.2204 152.022 40.1767 151.499 40.4889 151.327C43.5762 149.637 44.7664 141.651 45.2744 138.242C45.432 137.189 45.5554 136.358 45.6983 135.724C47.5082 126.168 47.4018 116.348 45.3851 106.834C42.7314 94.529 50.3135 68.0802 64.305 59.9545C69.3773 57.0086 77.3538 55.2288 86.547 63.471C87.1393 64.0038 87.4959 64.7499 87.5386 65.5455C87.5813 66.341 87.3065 67.121 86.7746 67.7141C86.2428 68.3073 85.4972 68.6651 84.7018 68.7091C83.9063 68.753 83.1259 68.4795 82.5319 67.9486C77.2373 63.2018 72.2639 62.287 67.3257 65.155C55.9711 71.7487 49.0234 95.1751 51.2639 105.566C53.4846 115.933 53.5871 126.642 51.5654 137.049C51.4714 137.465 51.3559 138.236 51.2228 139.128C50.4231 144.495 49.084 153.478 43.3774 156.602C42.1223 157.286 40.7142 157.64 39.2849 157.632Z" fill="black"/>
<path d="M33.6385 92.2115C33.4736 92.2114 33.3089 92.1979 33.1462 92.1711C32.7565 92.1071 32.3833 91.9669 32.0479 91.7585C31.7124 91.5502 31.4213 91.2778 31.1912 90.957C30.961 90.6361 30.7963 90.2731 30.7065 89.8886C30.6167 89.504 30.6035 89.1056 30.6678 88.716C34.4558 65.6845 46.518 45.3744 58.7261 41.473C59.4857 41.2303 60.3107 41.2992 61.0195 41.6648C61.7283 42.0303 62.2629 42.6624 62.5056 43.4221C62.7483 44.1817 62.6794 45.0067 62.3138 45.7155C61.9483 46.4243 61.3162 46.9589 60.5565 47.2016C51.9447 49.9539 40.3377 66.9817 36.6015 89.6921C36.486 90.3949 36.1248 91.034 35.5822 91.4953C35.0395 91.9567 34.3508 92.2105 33.6385 92.2115Z" fill="black"/>
<path d="M18.8846 145.444C18.2905 145.444 17.7098 145.268 17.2156 144.938C16.7213 144.609 16.3358 144.14 16.1077 143.591C14.336 139.336 16.0597 133.494 17.7257 127.844C18.1701 126.338 18.7769 124.281 19.1626 122.531C19.097 122.623 19.0334 122.713 18.9727 122.799C16.5266 126.256 13.4814 130.559 8.92007 130.944C6.34768 131.16 3.86834 130.077 1.52105 127.723C-1.75315 124.442 0.770307 119.394 4.26179 112.409C6.54933 107.832 9.39676 102.135 11.05 96.1168C11.6305 94.0025 12.2354 91.6539 12.8873 89.1225C16.6019 74.6918 21.6909 54.9281 32.3739 38.0434C46.9517 15.7053 66.3924 12.0683 80.1342 12.9471C89.3048 13.5811 98.2533 16.0584 106.444 20.2308C107.142 20.6165 107.659 21.2636 107.879 22.0299C108.1 22.7961 108.008 23.6188 107.622 24.3168C107.237 25.0148 106.589 25.5311 105.823 25.752C105.057 25.9728 104.234 25.8803 103.536 25.4946C101.859 24.5723 62.1971 3.34741 37.4335 41.2945C27.2791 57.344 22.3272 76.578 18.7114 90.622C18.0506 93.1873 17.4379 95.5673 16.8486 97.7099C15.0397 104.297 12.0465 110.285 9.64049 115.097C8.11742 118.146 6.05795 122.267 6.01978 123.71C6.63381 124.41 7.48899 124.853 8.41498 124.951C10.1886 124.801 12.5202 121.506 14.0629 119.326C16.0117 116.572 17.6943 114.193 20.2217 113.896C20.8252 113.827 21.4363 113.888 22.0144 114.075C22.5924 114.261 23.1242 114.568 23.5742 114.976C26.9248 117.916 25.3351 123.305 23.4939 129.545C22.2528 133.754 20.7072 138.992 21.6596 141.28C21.8496 141.737 21.924 142.234 21.8761 142.727C21.8282 143.219 21.6596 143.692 21.3852 144.104C21.1107 144.516 20.7389 144.853 20.3027 145.087C19.8665 145.321 19.3794 145.443 18.8846 145.444V145.444Z" fill="black"/>
<path d="M159.028 164.178C155.677 164.179 151.796 161.782 150.716 154.816C150.595 154.028 150.792 153.225 151.263 152.582C151.734 151.939 152.441 151.509 153.228 151.387C154.016 151.265 154.82 151.461 155.463 151.931C156.107 152.401 156.537 153.108 156.66 153.895C157.07 156.546 158.095 158.294 159.157 158.156C159.62 158.046 160.032 157.782 160.325 157.408C160.619 157.034 160.777 156.571 160.773 156.095C159.656 152.854 152.873 132.224 155.465 116.585C156.595 109.764 158.712 92.321 158.482 82.9047C158.262 73.9456 154.209 47.6854 138.306 33.9487C129.955 26.736 119.334 23.8583 106.718 25.397C105.928 25.4906 105.133 25.2672 104.507 24.7758C103.881 24.2843 103.476 23.5649 103.379 22.775C103.283 21.9852 103.504 21.1894 103.993 20.5619C104.482 19.9344 105.2 19.5264 105.99 19.4273C120.358 17.6745 132.548 21.0292 142.237 29.3974C163.394 47.6721 164.485 82.4087 164.494 82.7576C164.733 92.5713 162.559 110.558 161.398 117.568C158.894 132.676 166.501 154.262 166.579 154.479C166.656 154.697 166.709 154.923 166.735 155.153C166.99 157.235 166.425 159.335 165.16 161.008C163.894 162.681 162.028 163.796 159.955 164.117C159.647 164.158 159.338 164.178 159.028 164.178Z" fill="black"/>
<path d="M143.467 125.517L143.429 125.517C142.632 125.508 141.871 125.182 141.314 124.611C140.757 124.041 140.449 123.272 140.459 122.475C140.461 122.36 140.611 110.852 141.962 95.5533C142.75 86.6381 139.938 69.2489 132.606 59.7865C132.118 59.1562 131.9 58.3576 132 57.5665C132.101 56.7754 132.511 56.0566 133.141 55.5682C133.772 55.0797 134.57 54.8617 135.361 54.962C136.152 55.0623 136.871 55.4728 137.36 56.1031C146.011 67.2678 148.794 86.5598 147.953 96.0828C146.623 111.139 146.474 122.434 146.473 122.547C146.463 123.338 146.142 124.093 145.58 124.649C145.017 125.205 144.258 125.517 143.467 125.517Z" fill="black"/>
</svg>
