<svg width="219" height="216" viewBox="0 0 219 216" fill="none" xmlns="http://www.w3.org/2000/svg">
<path d="M59.8395 166.338C45.477 171.892 19.2936 176.472 14.6246 152.204C11.0317 148.444 18.2974 137.764 21.1416 134.726C4.79032 134.069 -0.560542 111.096 9.14925 99.0261C9.10438 94.4861 9.04831 95.0475 9.04831 95.0475C6.24048 83.4282 8.15872 60.043 29.0397 55.3257C26.8493 43.2012 23.3446 36.3801 42.5977 30.9333C47.9856 22.4005 62.2587 15.3937 71.0158 18.5362C73.2127 16.5367 68.9227 17.1219 75.827 16.1108C84.8072 5.66916 99.2908 2.33418 108.72 4.65635C120.48 2.78411 139.521 -0.415565 150.487 15.6011C165.858 12.4263 186.505 25.6527 189.276 48.0598C194.776 47.8268 210.424 55.6492 201.229 75.2959C217.003 81.9742 223.695 98.8461 205.891 122.98C208.81 127.807 212.297 138.375 210.949 140.508C213.645 153.25 200.57 163.504 189.006 165.75C185.808 180.738 177.646 191.707 155.674 184.584C144.954 195.419 127.67 196.089 117.397 185.425C107.123 174.761 59.8395 166.338 59.8395 166.338Z" fill="#2D8C3C"/>
<path d="M149.856 149.347C149.852 149.289 149.845 149.232 149.836 149.175C149.628 147.743 149.054 146.389 148.17 145.243C158.571 134.62 152.098 116.182 148.534 108.853C144.762 101.097 137.253 89.5658 129.611 85.9267C121.969 82.2877 103.41 72.8262 79.0282 83.0155C54.6466 93.2048 46.0552 126.528 45.6756 127.659C44.4247 131.888 43.5245 136.214 42.984 140.591C42.1811 144.467 41.9534 148.439 42.3081 152.381C42.3127 159.653 43.8665 166.842 46.8659 173.467C52.9378 186.096 72.9624 193.354 77.282 195.155C77.282 195.155 77.8455 207.47 76.208 209.108C77.2997 214.021 88.4897 215.931 88.4897 215.931C91.1944 216.184 93.9188 215.739 96.4032 214.641C98.8876 213.542 101.049 211.825 102.682 209.654V195.734C102.682 195.734 113.696 190.67 120.129 183.685C124.803 179.172 128.091 171.807 128.83 170.061C130.015 170.227 131.21 170.31 132.406 170.308C135.919 170.308 140.845 169.595 144.637 166.248C148.718 162.649 150.473 156.963 149.856 149.347Z" fill="white"/>
<path d="M149.856 149.347C149.852 149.289 149.845 149.232 149.836 149.175C144.199 139.646 134.533 141.133 133.645 139.646C134.897 138.368 132.848 131.292 133.645 129.821C139.475 119.063 151.669 115.3 148.534 108.853C144.762 101.097 137.253 89.5658 129.611 85.9267C121.969 82.2877 103.41 72.8262 79.0282 83.0155C54.6466 93.2048 46.0552 126.528 45.6756 127.659C44.4247 131.888 43.5245 136.214 42.984 140.591C42.1811 144.467 41.9534 148.439 42.3081 152.381C42.3127 159.653 43.8665 166.842 46.8659 173.467C52.9378 186.096 72.9624 193.354 77.282 195.155C77.282 195.155 77.8455 207.47 76.208 209.108C77.2997 214.021 88.4897 215.931 88.4897 215.931C91.1944 216.184 93.9188 215.739 96.4032 214.641C98.8876 213.542 101.049 211.825 102.682 209.654V195.734C102.682 195.734 113.696 190.67 120.129 183.685C124.803 179.172 128.091 171.807 128.83 170.061C130.015 170.227 131.21 170.31 132.406 170.308C135.919 170.308 140.845 169.595 144.637 166.248C148.718 162.649 150.473 156.963 149.856 149.347Z" fill="white"/>
<path d="M66.6283 150.755C69.4277 150.755 71.6971 148.485 71.6971 145.686C71.6971 142.887 69.4277 140.617 66.6283 140.617C63.8289 140.617 61.5596 142.887 61.5596 145.686C61.5596 148.485 63.8289 150.755 66.6283 150.755Z" fill="black"/>
<path d="M102.257 157.533C105.056 157.533 107.325 155.264 107.325 152.464C107.325 149.665 105.056 147.396 102.257 147.396C99.4573 147.396 97.1879 149.665 97.1879 152.464C97.1879 155.264 99.4573 157.533 102.257 157.533Z" fill="black"/>
<path d="M76.957 212.139C76.421 212.138 75.8948 211.995 75.4331 211.722C74.9714 211.45 74.591 211.059 74.3312 210.59C74.0715 210.121 73.9418 209.591 73.9557 209.055C73.9697 208.52 74.1267 207.997 74.4104 207.542C75.1256 206.175 75.3584 200.647 74.8967 198.364C74.4633 198.251 73.9144 198.123 73.434 198.01C67.4321 196.604 53.3776 193.312 46.004 177.602C36.6142 157.597 42.6562 128.622 42.7276 128.353C46.9735 112.422 55.8126 79.2567 95.3023 75.3154C104.005 74.4258 112.795 75.5536 120.991 78.6114C129.187 81.6691 136.568 86.5744 142.561 92.9466C153.48 104.462 158.503 119.123 156.341 133.168C156.281 133.559 156.145 133.933 155.94 134.27C155.736 134.608 155.467 134.901 155.148 135.135C154.83 135.368 154.469 135.537 154.086 135.63C153.702 135.724 153.304 135.742 152.914 135.682C152.524 135.622 152.15 135.485 151.812 135.281C151.475 135.076 151.181 134.807 150.948 134.489C150.715 134.17 150.546 133.809 150.452 133.426C150.358 133.043 150.341 132.644 150.401 132.254C152.278 120.059 147.83 107.24 138.199 97.0823C132.834 91.3783 126.228 86.9871 118.892 84.2494C111.557 81.5118 103.689 80.5013 95.8992 81.2964C60.5986 84.8196 52.7554 114.07 48.5516 129.842C48.3148 130.991 43.0984 157.264 51.4454 175.048C57.5824 188.123 69.2146 190.848 74.8047 192.158C77.4628 192.781 78.9273 193.124 79.8284 194.558C81.8496 197.866 81.3369 207.847 79.4967 210.744C79.2254 211.172 78.8502 211.524 78.4062 211.768C77.9621 212.012 77.4636 212.14 76.957 212.139Z" fill="black"/>
<path d="M66.6303 150.367C69.2277 150.367 71.3333 148.261 71.3333 145.664C71.3333 143.066 69.2277 140.961 66.6303 140.961C64.033 140.961 61.9274 143.066 61.9274 145.664C61.9274 148.261 64.033 150.367 66.6303 150.367Z" fill="black"/>
<path d="M102.221 157.167C104.819 157.167 106.924 155.062 106.924 152.464C106.924 149.867 104.819 147.761 102.221 147.761C99.6241 147.761 97.5186 149.867 97.5186 152.464C97.5186 155.062 99.6241 157.167 102.221 157.167Z" fill="black"/>
<path d="M43.4204 123.243C56.0113 100.465 68.2422 103.499 75.0117 109.704C81.7813 115.909 81.463 117.396 95.5663 112.318C109.67 107.241 114.501 110.268 117.886 119.294C121.27 128.32 125.783 140.731 131.989 140.167C138.194 139.603 147.785 136.782 149.477 148.065C151.169 159.348 161.324 152.014 164.144 146.373C164.934 144.793 174.899 122.778 166.965 109.14C150.383 80.6388 87.0089 37.0036 58.985 77.0158C52.5179 86.2493 31.5736 110.832 43.4204 123.243Z" fill="#2D8C3C"/>
<path d="M132.961 143.398C126.265 143.4 122.828 136.112 119.745 129.577C114.517 118.495 110.24 111.463 98.9439 114.571L98.0575 114.817C91.6388 116.604 79.6936 119.93 72.7113 111.64C69.8537 108.247 67.9176 106.884 65.6606 106.702C64.3633 106.868 55.1662 108.535 50.572 122.645C50.4498 123.021 50.2549 123.368 49.9984 123.668C49.742 123.968 49.4289 124.215 49.0772 124.393C48.7254 124.572 48.3418 124.68 47.9484 124.711C47.5549 124.742 47.1593 124.695 46.784 124.573C46.4087 124.45 46.0612 124.256 45.7612 123.999C45.4613 123.743 45.2148 123.429 45.0358 123.078C44.8568 122.726 44.7489 122.342 44.7182 121.949C44.6874 121.555 44.7345 121.16 44.8567 120.785C51.026 101.836 64.828 100.726 65.4131 100.688C65.5274 100.68 65.642 100.679 65.7565 100.685C70.8799 100.939 74.3373 104.239 77.3094 107.768C81.7999 113.102 90.6135 110.65 96.4453 109.026L97.3502 108.775C114.367 104.095 120.619 117.341 125.181 127.012C129.274 135.688 131.102 138.212 134.564 137.094C135.323 136.849 136.148 136.915 136.857 137.279C137.567 137.642 138.103 138.272 138.348 139.03C138.593 139.789 138.526 140.614 138.163 141.323C137.8 142.033 137.17 142.569 136.411 142.814C135.299 143.188 134.135 143.385 132.961 143.398Z" fill="black"/>
<path d="M115.466 189.697C114.856 189.697 114.261 189.512 113.76 189.166C113.258 188.82 112.873 188.33 112.656 187.761C112.439 187.191 112.401 186.57 112.545 185.978C112.69 185.386 113.011 184.852 113.466 184.447C122.108 176.751 123.326 168.294 123.338 168.209C123.391 167.813 123.522 167.43 123.723 167.085C123.925 166.739 124.193 166.437 124.513 166.197C124.832 165.956 125.196 165.78 125.583 165.681C125.971 165.582 126.374 165.561 126.77 165.619C126.859 165.632 136.303 166.955 141.556 162.032C144.347 159.419 145.547 155.323 145.127 149.856C144.098 143.861 139.554 142.371 135.944 142.925C135.156 143.045 134.352 142.848 133.71 142.377C133.067 141.905 132.638 141.198 132.517 140.41C132.396 139.622 132.593 138.818 133.065 138.176C133.537 137.533 134.244 137.104 135.032 136.983C141.651 135.967 149.503 139.297 151.079 149.008C151.092 149.087 151.102 149.167 151.109 149.247C151.713 156.711 149.872 162.497 145.638 166.445C140.332 171.393 132.738 171.917 128.669 171.787C126.616 178.441 122.733 184.383 117.463 188.936C116.914 189.427 116.203 189.697 115.466 189.697Z" fill="black"/>
<path d="M48.7262 179.331C48.155 179.332 47.5956 179.169 47.1134 178.863C46.6312 178.557 46.2462 178.119 46.0036 177.602C39.218 163.145 40.434 144.199 41.7636 134.193C41.8149 133.801 41.9429 133.423 42.1404 133.081C42.3379 132.739 42.6009 132.439 42.9144 132.198C43.2279 131.958 43.5858 131.782 43.9675 131.68C44.3492 131.578 44.7473 131.552 45.139 131.604C45.5306 131.656 45.9082 131.785 46.25 131.983C46.5919 132.181 46.8913 132.444 47.1312 132.758C47.3711 133.072 47.5467 133.43 47.648 133.812C47.7493 134.194 47.7742 134.592 47.7215 134.984C46.7217 142.514 45.082 161.493 51.445 175.048C51.6596 175.506 51.7552 176.011 51.723 176.515C51.6909 177.02 51.5319 177.509 51.2609 177.936C50.9898 178.363 50.6155 178.714 50.1724 178.958C49.7294 179.202 49.232 179.331 48.7262 179.331V179.331Z" fill="black"/>
<path d="M183.503 38.3622C182.864 38.3618 182.242 38.1576 181.726 37.7793C181.211 37.4009 180.83 36.8682 180.638 36.2584C177.523 26.3614 165.499 17.9772 151.506 21.6868C151.119 21.7892 150.717 21.8136 150.321 21.7585C149.925 21.7034 149.544 21.5699 149.201 21.3658C148.857 21.1618 148.558 20.8912 148.32 20.57C148.082 20.2489 147.911 19.8835 147.816 19.4953C146.554 14.3333 141.867 9.85447 135.278 7.51428C128.053 4.94889 120.507 5.67388 115.586 9.40579C115.112 9.76452 114.543 9.975 113.951 10.0107C113.358 10.0464 112.768 9.90565 112.255 9.60629C100.426 2.70255 86.8496 8.10934 82.323 15.024C81.3872 16.525 80.0531 17.7367 78.4694 18.5244C76.8856 19.312 75.1144 19.6446 73.3528 19.4852C69.8563 19.197 66.5897 17.1257 65.4089 14.4483C64.9985 13.5704 64.8403 12.5956 64.9519 11.6329C65.0635 10.6702 65.4405 9.75749 66.0409 8.99667C66.502 8.40044 67.1702 7.99923 67.9132 7.87256C68.6562 7.74589 69.4197 7.903 70.0523 8.31276C70.6849 8.72252 71.1405 9.35501 71.3287 10.0848C71.5169 10.8147 71.424 11.5886 71.0684 12.2532C71.7991 12.9675 72.7561 13.4043 73.7745 13.4882C74.4691 13.5759 75.1741 13.4558 75.8006 13.1432C76.427 12.8306 76.9469 12.3394 77.2944 11.7316C83.6388 2.03858 99.7791 -3.40458 113.59 3.49756C120.033 -0.468051 128.914 -1.12389 137.29 1.85014C144.662 4.46847 150.242 9.37454 152.732 15.2833C159.142 14.2466 165.716 15.1622 171.599 17.911C175.079 19.4854 178.191 21.7705 180.735 24.6195C183.279 27.4685 185.199 30.8183 186.371 34.4536C186.512 34.9039 186.546 35.3811 186.468 35.8466C186.391 36.3122 186.205 36.7531 185.926 37.1336C185.647 37.5141 185.282 37.8235 184.861 38.037C184.441 38.2504 183.975 38.3618 183.503 38.3622H183.503Z" fill="black"/>
<path d="M209.956 129.585C208.929 129.613 207.91 129.399 206.982 128.961C206.053 128.522 205.24 127.872 204.609 127.062C203.735 125.857 203.246 124.417 203.205 122.929C203.165 121.441 203.574 119.975 204.381 118.724C204.721 118.194 205.154 117.586 205.652 116.892C209.001 112.619 211.284 107.61 212.312 102.279C214.248 91.6382 209.948 83.3936 201.089 80.7633C200.568 80.6087 200.098 80.3155 199.73 79.9151C199.363 79.5146 199.11 79.0218 199 78.4893C198.891 77.9568 198.927 77.4044 199.107 76.8911C199.286 76.3777 199.601 75.9227 200.019 75.5744C200.854 74.6669 201.93 68.5835 199.195 62.1442C197.012 57.0058 192.024 50.832 180.654 50.6004C179.862 50.5844 179.109 50.2566 178.558 49.6883C178.006 49.12 177.701 48.357 177.709 47.5652C177.717 46.7735 178.037 46.0168 178.6 45.4597C179.163 44.9027 179.923 44.5902 180.715 44.5902L180.777 44.5908C192.732 44.8343 201.695 50.9782 205.367 61.447C207.202 66.6733 207.421 72.364 206.205 76.2917C215.797 80.7914 220.468 91.0335 218.225 103.356C217.042 109.562 214.407 115.401 210.537 120.394C210.11 120.99 209.735 121.509 209.445 121.964C209.314 122.179 209.239 122.425 209.228 122.678C209.217 122.93 209.269 123.181 209.381 123.408C209.508 123.576 210.116 123.694 211.254 123.335C212.014 123.095 212.838 123.167 213.545 123.536C214.252 123.904 214.784 124.537 215.024 125.298C215.264 126.058 215.192 126.882 214.824 127.589C214.456 128.296 213.822 128.828 213.062 129.068C212.059 129.398 211.011 129.572 209.956 129.585Z" fill="black"/>
<path d="M29.3153 62.3191C28.8154 62.3198 28.3232 62.1956 27.8835 61.9578C27.4437 61.7201 27.0703 61.3763 26.7971 60.9577C23.144 55.3705 23.0423 46.5652 26.5476 39.545C27.7709 36.9056 29.6044 34.5949 31.8967 32.8038C34.189 31.0126 36.8744 29.7923 39.7314 29.2436C41.4332 25.3199 44.4872 22.1375 48.3376 20.2756C50.8399 19.1076 53.5599 18.4793 56.321 18.4315C59.082 18.3837 61.8222 18.9176 64.3634 19.9983C65.104 20.2924 65.6975 20.8687 66.0134 21.6003C66.3292 22.332 66.3415 23.1591 66.0476 23.8998C65.7537 24.6406 65.1776 25.2342 64.446 25.5503C63.7145 25.8663 62.8873 25.8788 62.1465 25.5851C60.3847 24.7992 58.4746 24.401 56.5455 24.4176C54.6164 24.4342 52.7134 24.8651 50.9654 25.6812C49.4982 26.3848 48.1933 27.3856 47.1334 28.6201C46.0734 29.8546 45.2815 31.2959 44.8078 32.8525C44.6333 33.4419 44.2823 33.9636 43.8022 34.3474C43.322 34.7311 42.7357 34.9584 42.1224 34.9986C36.1977 35.3877 33.1903 39.6965 31.9254 42.2304C29.3681 47.3508 29.327 53.8437 31.8275 57.6691C32.1238 58.1222 32.2921 58.647 32.3148 59.188C32.3374 59.7289 32.2135 60.2659 31.9561 60.7423C31.6988 61.2186 31.3175 61.6166 30.8527 61.8942C30.3878 62.1717 29.8566 62.3186 29.3152 62.3192L29.3153 62.3191Z" fill="black"/>
<path d="M16.905 104.508C16.4015 104.508 15.9062 104.381 15.4649 104.138C11.6002 102.129 8.41631 99.0212 6.31406 95.2062C4.21181 91.3912 3.28514 87.0395 3.65071 82.699C4.23475 73.1987 9.90116 63.9583 16.8316 61.2052C17.1988 61.0573 17.5915 60.9835 17.9874 60.9879C18.3832 60.9923 18.7742 61.0749 19.138 61.2309C19.5019 61.3868 19.8313 61.6131 20.1074 61.8968C20.3835 62.1804 20.6009 62.5158 20.747 62.8837C20.8931 63.2516 20.9651 63.6447 20.9589 64.0405C20.9526 64.4363 20.8683 64.827 20.7106 65.1901C20.553 65.5532 20.3252 65.8815 20.0402 66.1563C19.7553 66.4311 19.4189 66.6469 19.0504 66.7913C14.9092 68.4363 10.1379 75.1268 9.65071 83.0675C9.35136 87.9384 10.6183 94.6333 18.3509 98.8658C18.9366 99.1864 19.3989 99.693 19.6648 100.306C19.9307 100.918 19.985 101.602 19.8192 102.249C19.6535 102.895 19.277 103.469 18.7493 103.878C18.2216 104.287 17.5727 104.509 16.9049 104.508H16.905Z" fill="black"/>
<path d="M18.8872 137.021C18.7178 137.021 18.5486 137.006 18.3815 136.978C9.79283 135.525 3.04245 128.888 0.765894 119.658C-1.54293 110.3 1.46931 100.82 8.43883 95.5073C8.75269 95.2681 9.1106 95.0931 9.49212 94.9922C9.87363 94.8913 10.2713 94.8665 10.6624 94.9193C11.0535 94.9721 11.4303 95.1014 11.7714 95.2998C12.1126 95.4982 12.4113 95.7619 12.6505 96.0757C12.8897 96.3896 13.0648 96.7475 13.1657 97.129C13.2666 97.5105 13.2913 97.9082 13.2385 98.2993C13.1858 98.6904 13.0565 99.0672 12.858 99.4084C12.6596 99.7495 12.3959 100.048 12.0821 100.287C7.01831 104.148 4.867 111.186 6.60155 118.218C7.92912 123.601 11.9852 129.799 19.3852 131.052C20.1278 131.177 20.7961 131.578 21.2578 132.173C21.7195 132.768 21.9409 133.514 21.8783 134.265C21.8157 135.016 21.4736 135.715 20.9197 136.226C20.3657 136.736 19.6404 137.02 18.8872 137.021V137.021Z" fill="black"/>
<path d="M134.088 194.91C132.737 194.911 131.386 194.823 130.046 194.646C123.155 193.729 117.987 190.724 116.222 186.609C115.908 185.876 115.898 185.049 116.194 184.308C116.49 183.568 117.068 182.976 117.801 182.662C118.534 182.348 119.361 182.338 120.102 182.634C120.842 182.93 121.434 183.508 121.748 184.241C122.456 185.894 125.603 187.991 130.839 188.688C137.155 189.529 145.77 188.067 151.014 181.443C151.51 180.82 152.232 180.418 153.023 180.327C153.814 180.236 154.609 180.462 155.233 180.956C155.857 181.45 156.26 182.172 156.353 182.963C156.446 183.754 156.221 184.549 155.728 185.174C150.016 192.388 141.408 194.91 134.088 194.91Z" fill="black"/>
<path d="M187.181 168.156C185.21 168.174 183.246 167.934 181.338 167.441C180.957 167.337 180.6 167.159 180.288 166.916C179.976 166.674 179.715 166.372 179.519 166.029C179.324 165.686 179.198 165.307 179.149 164.915C179.1 164.523 179.129 164.125 179.234 163.744C179.339 163.363 179.518 163.007 179.761 162.695C180.003 162.384 180.305 162.123 180.649 161.928C180.993 161.733 181.372 161.608 181.764 161.56C182.156 161.512 182.554 161.541 182.934 161.647C184.919 162.117 186.967 162.259 188.997 162.065C202.726 159.263 206.447 145.945 205.31 139.743C205.167 138.959 205.34 138.15 205.793 137.494C206.246 136.838 206.941 136.389 207.725 136.245C208.509 136.101 209.318 136.275 209.974 136.728C210.63 137.181 211.08 137.876 211.223 138.66C213.086 148.822 206.76 164.667 190.04 167.987C189.967 168.001 189.894 168.013 189.82 168.022C188.943 168.116 188.062 168.161 187.181 168.156Z" fill="black"/>
<path d="M165.579 189.655C160.791 189.586 156.097 188.31 151.932 185.947C151.583 185.76 151.275 185.505 151.025 185.197C150.775 184.89 150.589 184.537 150.476 184.157C150.363 183.777 150.327 183.379 150.368 182.985C150.41 182.592 150.529 182.21 150.719 181.862C150.908 181.515 151.165 181.208 151.473 180.96C151.782 180.711 152.136 180.527 152.516 180.416C152.897 180.305 153.295 180.271 153.689 180.314C154.082 180.358 154.463 180.479 154.81 180.671C161.601 184.374 168.574 184.598 174.443 181.299C177.081 179.841 179.317 177.751 180.95 175.217C182.582 172.683 183.561 169.783 183.797 166.778C183.835 165.982 184.188 165.233 184.778 164.697C185.368 164.161 186.147 163.881 186.943 163.919C187.74 163.957 188.488 164.31 189.024 164.9C189.56 165.49 189.84 166.268 189.802 167.065C189.506 171.084 188.216 174.968 186.049 178.367C183.883 181.765 180.906 184.573 177.388 186.539C173.788 188.583 169.719 189.656 165.579 189.655Z" fill="black"/>
<path d="M19.1497 158.314C18.5166 158.315 17.8997 158.114 17.3878 157.742C14.5193 155.66 12.6175 151.703 12.1704 146.883C11.6333 141.095 13.3268 135.512 16.701 131.948C17.2494 131.371 18.0045 131.035 18.8005 131.014C19.5966 130.993 20.3684 131.288 20.9467 131.836C21.5249 132.383 21.8623 133.138 21.8847 133.934C21.9071 134.73 21.6128 135.502 21.0662 136.081C18.8963 138.372 17.781 142.298 18.1548 146.328C18.4297 149.288 19.5136 151.858 20.9175 152.876C21.4317 153.249 21.8144 153.775 22.0109 154.379C22.2074 154.983 22.2074 155.634 22.0111 156.238C21.8147 156.842 21.432 157.368 20.918 157.741C20.4039 158.115 19.7849 158.315 19.1497 158.314H19.1497Z" fill="black"/>
</svg>
