<svg width="195" height="175" viewBox="0 0 195 175" fill="none" xmlns="http://www.w3.org/2000/svg">
<path d="M154.668 104.149C154.664 104.091 154.656 104.034 154.648 103.977C154.44 102.546 153.866 101.193 152.983 100.049C163.374 89.4369 156.907 71.0193 153.347 63.6975C149.579 55.9505 142.078 44.4313 134.444 40.7962C126.81 37.1611 108.271 27.7098 83.9157 37.8881C59.5604 48.0664 50.978 81.3542 50.5989 82.4833C49.3494 86.7084 48.4501 91.0292 47.9102 95.402C47.1082 99.2732 46.8807 103.241 47.235 107.179C47.2396 114.444 48.7917 121.624 51.788 128.243C57.8533 140.858 77.8564 148.108 82.1714 149.907C82.1714 149.907 82.7343 162.209 81.0985 163.845C82.189 168.753 93.367 170.661 93.367 170.661C96.0689 170.913 98.7904 170.47 101.272 169.372C103.754 168.274 105.913 166.559 107.544 164.39V150.486C107.544 150.486 118.546 145.427 124.972 138.45C129.641 133.942 132.926 126.584 133.664 124.84C134.848 125.006 136.041 125.089 137.236 125.087C140.745 125.087 145.666 124.374 149.454 121.031C153.53 117.436 155.284 111.756 154.668 104.149Z" fill="white"/>
<path d="M71.5291 104.997C74.3255 104.997 76.5924 102.73 76.5924 99.9334C76.5924 97.137 74.3255 94.8701 71.5291 94.8701C68.7327 94.8701 66.4658 97.137 66.4658 99.9334C66.4658 102.73 68.7327 104.997 71.5291 104.997Z" fill="black"/>
<path d="M107.119 111.768C109.916 111.768 112.183 109.501 112.183 106.704C112.183 103.908 109.916 101.641 107.119 101.641C104.323 101.641 102.056 103.908 102.056 106.704C102.056 109.501 104.323 111.768 107.119 111.768Z" fill="black"/>
<path d="M81.8463 166.315C81.3108 166.315 80.7853 166.171 80.3241 165.899C79.8628 165.627 79.4828 165.236 79.2233 164.768C78.9638 164.3 78.8343 163.77 78.8482 163.235C78.8622 162.7 79.019 162.178 79.3025 161.724C80.0169 160.357 80.2495 154.835 79.7882 152.555C79.3553 152.442 78.807 152.314 78.3271 152.202C72.3316 150.797 58.2912 147.508 50.9256 131.815C41.4383 111.601 47.5794 82.8992 47.6508 82.6296C51.8941 66.7051 60.7237 33.5757 100.171 29.6385C108.864 28.7494 117.645 29.8757 125.832 32.9301C134.019 35.9845 141.392 40.8847 147.378 47.2503C158.286 58.7538 163.304 73.3985 161.146 87.4294C161.025 88.2163 160.596 88.9229 159.954 89.3937C159.312 89.8645 158.509 90.061 157.722 89.94C156.935 89.8189 156.229 89.3902 155.758 88.7482C155.287 88.1062 155.091 87.3035 155.212 86.5166C157.085 74.3342 152.642 61.528 143.021 51.3817C137.663 45.6837 131.064 41.2971 123.736 38.5624C116.408 35.8278 108.548 34.8186 100.767 35.6132C65.5045 39.1327 57.6697 68.3503 53.4714 84.1049C53.232 85.2688 48.0349 111.525 56.3612 129.264C62.4916 142.325 74.1122 145.048 79.6963 146.356C82.3516 146.978 83.8145 147.32 84.7146 148.753C86.7336 152.058 86.2215 162.028 84.3833 164.922C84.1123 165.349 83.7376 165.701 83.294 165.945C82.8504 166.189 82.3524 166.316 81.8463 166.315Z" fill="black"/>
<path d="M71.5311 104.608C74.1257 104.608 76.229 102.505 76.229 99.9105C76.229 97.3159 74.1257 95.2126 71.5311 95.2126C68.9366 95.2126 66.8333 97.3159 66.8333 99.9105C66.8333 102.505 68.9366 104.608 71.5311 104.608Z" fill="black"/>
<path d="M107.084 111.402C109.679 111.402 111.782 109.299 111.782 106.704C111.782 104.11 109.679 102.007 107.084 102.007C104.49 102.007 102.386 104.11 102.386 106.704C102.386 109.299 104.49 111.402 107.084 111.402Z" fill="black"/>
<path d="M120.314 143.896C119.705 143.897 119.111 143.712 118.61 143.366C118.109 143.021 117.724 142.532 117.508 141.963C117.291 141.394 117.252 140.773 117.397 140.182C117.541 139.59 117.862 139.057 118.317 138.652C126.949 130.964 128.166 122.516 128.178 122.432C128.231 122.036 128.362 121.654 128.563 121.309C128.764 120.964 129.032 120.662 129.351 120.422C129.67 120.181 130.034 120.006 130.421 119.907C130.808 119.808 131.211 119.787 131.606 119.845C131.695 119.858 141.128 121.18 146.377 116.262C149.164 113.652 150.363 109.56 149.944 104.099C148.915 98.1097 144.377 96.6214 140.769 97.1747C140.379 97.2345 139.982 97.2169 139.599 97.1231C139.216 97.0292 138.855 96.8608 138.537 96.6275C137.896 96.1564 137.467 95.4496 137.346 94.6626C137.226 93.8756 137.422 93.0728 137.893 92.4309C138.365 91.789 139.071 91.3605 139.858 91.2397C146.469 90.2257 154.313 93.5489 155.889 103.251C155.902 103.331 155.912 103.41 155.919 103.491C156.523 110.946 154.683 116.726 150.454 120.67C145.152 125.613 137.56 126.136 133.503 126.006C131.452 132.653 127.573 138.588 122.31 143.136C121.761 143.627 121.05 143.897 120.314 143.896Z" fill="black"/>
<path d="M53.6453 133.543C53.0747 133.543 52.5158 133.38 52.0342 133.074C51.5525 132.769 51.168 132.332 50.9256 131.815C44.1483 117.374 45.363 98.4481 46.6911 88.4522C46.7424 88.0608 46.8703 87.6835 47.0676 87.3416C47.2648 86.9998 47.5276 86.7002 47.8407 86.46C48.1539 86.2198 48.5114 86.0437 48.8927 85.9419C49.274 85.84 49.6717 85.8143 50.0629 85.8663C50.4541 85.9182 50.8313 86.0468 51.1728 86.2447C51.5143 86.4426 51.8134 86.7059 52.053 87.0195C52.2926 87.3331 52.468 87.6909 52.5692 88.0724C52.6704 88.4539 52.6953 88.8516 52.6427 89.2427C51.6439 96.7652 50.006 115.723 56.3612 129.264C56.5756 129.722 56.6711 130.226 56.639 130.73C56.6068 131.234 56.448 131.722 56.1773 132.149C55.9065 132.575 55.5326 132.926 55.09 133.17C54.6474 133.414 54.1505 133.542 53.6453 133.542V133.543Z" fill="black"/>
<path d="M96.0616 61.7387C96.9749 61.5291 97.9042 61.3962 98.8398 61.3416C102.372 61.1113 105.876 62.0964 108.771 64.1333C114.302 68.2242 116.821 74.3256 119.264 80.4758C121.42 85.468 122.961 90.7038 123.854 96.0681C124.351 99.7347 123.865 103.688 123.576 107.362C122.889 116.11 120.899 124.654 120.027 133.377C119.1 143.088 117.596 153.012 119.913 162.488C120.359 164.901 121.459 167.146 123.093 168.977C124.825 170.696 127.61 171.548 129.784 170.44C131.295 169.671 132.27 168.125 133.717 167.24C137.107 165.166 141.401 167.361 144.811 169.405C148.22 171.449 152.806 173.308 155.873 170.779C157.727 169.251 158.296 166.567 160.125 165.009C164.882 160.956 169.926 170.759 178.061 163.114C180.28 161.029 180.162 157.367 178.829 154.63C177.497 151.893 175.236 149.739 173.462 147.265C166.512 137.573 167.768 124.494 168.642 112.6C169.738 97.6804 169.736 82.5198 166.305 67.9592C162.874 53.3985 155.782 39.3826 144.478 29.5849C133.173 19.7871 121.471 16.6586 106.911 20.0928C104.977 20.6828 102.979 21.0402 100.96 21.1575C97.1185 21.1303 93.6995 18.8694 90.0479 17.6773C81.4251 14.8622 64.5879 14.5605 53.2036 28.2951C47.4151 35.2786 47.6389 41.7703 40.3635 51.9256C22.1328 77.3725 34.804 99.8056 22.6731 128.663C21.3477 131.816 18.337 134.874 16.1382 137.494C13.7665 140.32 4.48126 144.029 3.11204 151.35C2.38417 155.242 5.05728 159.517 8.95355 160.221C13.3775 161.02 17.7282 157.716 22.1829 158.321C25.9836 158.837 28.7663 161.993 31.7029 164.46C34.6395 166.928 38.9909 168.849 42.1607 166.689C43.8555 165.534 44.8632 163.385 46.8146 162.754C49.2288 161.973 56.5618 164.856 58.9629 150.9C59.9104 145.392 57.725 139.088 56.4257 133.807C54.6294 126.506 52.599 119.149 51.9599 111.633C50.7914 97.8932 53.0126 83.8045 61.9642 72.8141C66.1239 67.707 71.7396 62.5641 78.3838 61.2104C81.8133 60.5117 84.3342 62.37 87.5974 62.8912C90.5469 63.3624 93.2665 62.3453 96.0616 61.7387Z" fill="#2D8C3C"/>
<path d="M152.29 174.998C149.941 174.998 146.974 174.202 143.267 171.98C141.2 170.74 138.37 169.041 136.209 169.451C135.41 169.74 134.698 170.23 134.143 170.874C133.16 171.858 132.02 172.672 130.769 173.281C129.693 173.79 128.517 174.05 127.326 174.04C126.136 174.03 124.964 173.752 123.897 173.225C120.168 171.392 117.888 166.845 116.997 163.201C114.854 154.437 115.775 145.48 116.665 136.817C116.792 135.573 116.92 134.331 117.038 133.092C117.461 129.314 118.078 125.561 118.886 121.846C119.387 119.349 119.904 116.767 120.276 114.235C121.238 108.598 121.492 102.863 121.032 97.1628C119.752 84.9047 114.82 73.7945 107.837 67.4434C106.344 66.0856 103.42 63.8795 100.606 64.3602C99.5937 64.5962 98.6123 64.9479 97.6807 65.4083C95.6595 66.4934 93.3879 67.0263 91.0949 66.9533C88.8665 66.6343 86.7544 65.7587 84.9538 64.4075C84.0457 63.7463 83.0441 63.2243 81.982 62.8587C79.3261 62.3424 76.5731 62.8226 74.2488 64.2077C67.6523 67.8645 62.3858 74.9397 58.1474 85.8379C54.5384 95.1177 53.2865 106.834 54.6205 118.829C55.1813 124.448 56.4399 129.976 58.3673 135.284C61.1359 142.603 63.9993 150.17 59.6837 158.873C58.5044 161.438 56.4149 163.474 53.8201 164.586C52.5542 165.035 51.2352 165.318 49.8964 165.426C48.9386 165.46 47.9963 165.679 47.1219 166.071C46.6574 166.415 46.2338 166.811 45.8593 167.252C45.2066 167.996 44.4719 168.665 43.6692 169.244C39.2246 172.287 33.577 169.956 29.7725 166.759C29.1949 166.274 28.6232 165.763 28.0486 165.25C25.9416 163.368 23.9519 161.591 21.7794 161.296C19.9989 161.24 18.2251 161.539 16.5618 162.178C14.1353 162.896 11.3862 163.711 8.42021 163.176C7.11213 162.924 5.86714 162.415 4.75777 161.678C3.6484 160.941 2.69685 159.99 1.95856 158.881C0.31474 156.53 -0.331409 153.624 0.161365 150.798C0.307773 150.015 0.759128 149.323 1.41614 148.873C2.07315 148.423 2.88199 148.252 3.66474 148.399C4.44748 148.545 5.14 148.996 5.58996 149.653C6.03992 150.31 6.21045 151.119 6.06404 151.902C5.86859 153.156 6.16897 154.437 6.90157 155.473C7.19286 155.928 7.57133 156.321 8.01515 156.629C8.45898 156.936 8.95936 157.153 9.48743 157.267C11.0462 157.548 12.8961 157.001 14.8556 156.421C17.3252 155.51 19.9623 155.143 22.5867 155.346C26.5818 155.888 29.4862 158.483 32.0486 160.773C32.5773 161.245 33.1031 161.715 33.6347 162.162C35.7447 163.933 38.7195 165.356 40.2772 164.29C40.7127 163.95 41.1137 163.569 41.4744 163.15C42.1979 162.315 43.032 161.581 43.9537 160.971C45.5595 160.078 47.348 159.562 49.183 159.465C50.0142 159.404 50.8355 159.246 51.6301 158.995C52.8269 158.416 53.776 157.426 54.3049 156.206C57.4576 149.847 55.3809 144.358 52.752 137.409C50.6463 131.631 49.2694 125.612 48.6534 119.493C47.2138 106.553 48.5977 93.8279 52.5517 83.6616C57.3188 71.4023 63.4638 63.3212 71.3386 58.9564C74.9973 56.8165 79.3275 56.1327 83.4675 57.041C85.1604 57.5474 86.7585 58.3291 88.1974 59.3547C89.2069 60.1444 90.3807 60.6974 91.6324 60.9729C92.9073 60.901 94.1489 60.5383 95.262 59.9127C96.6397 59.2442 98.0953 58.75 99.5952 58.4416C104.655 57.5767 109.067 60.4452 111.878 63.0017C119.921 70.3177 125.576 82.8554 127.003 96.54C127.519 102.737 127.255 108.975 126.216 115.106C125.822 117.794 125.289 120.453 124.774 123.026C124.006 126.539 123.418 130.089 123.015 133.662C122.896 134.915 122.767 136.172 122.637 137.431C121.8 145.586 120.933 154.019 122.83 161.775C123.4 164.108 124.896 167.025 126.545 167.836C126.824 167.975 127.133 168.044 127.445 168.036C127.757 168.028 128.062 167.945 128.334 167.792C128.982 167.432 129.574 166.978 130.09 166.445C131.435 165.01 133.175 164.003 135.09 163.552C139.495 162.717 143.623 165.192 146.355 166.83C148.024 167.831 152.108 169.993 153.963 168.464C154.648 167.798 155.24 167.043 155.724 166.219C156.599 164.73 157.735 163.41 159.077 162.322C162.562 159.733 166.003 161.225 168.28 162.213C169.074 162.609 169.915 162.899 170.783 163.077C172.543 163.284 174.248 162.579 176.006 160.926C177.142 159.858 176.918 157.562 176.131 155.944C175.379 154.577 174.471 153.302 173.425 152.145C172.539 151.114 171.713 150.033 170.95 148.908C162.148 135.446 164.288 112.514 165.567 98.8117C165.749 96.8537 165.914 95.0871 166.026 93.5709C166.085 92.7775 166.457 92.0402 167.06 91.5208C167.662 91.0014 168.446 90.7423 169.24 90.8006C170.033 90.8589 170.771 91.2297 171.291 91.8315C171.812 92.4334 172.072 93.2171 172.015 94.0106C171.9 95.5611 171.732 97.3675 171.546 99.3696C170.34 112.29 168.322 133.916 175.975 145.622C176.616 146.557 177.308 147.455 178.048 148.314C179.409 149.833 180.578 151.513 181.529 153.317C183.301 156.957 183.551 162.075 180.118 165.301C177.076 168.161 173.604 169.452 170.083 169.041C168.628 168.812 167.215 168.367 165.891 167.721C163.653 166.75 163.217 166.727 162.657 167.142C161.893 167.832 161.243 168.638 160.731 169.531C159.934 170.863 158.94 172.066 157.781 173.098C156.235 174.364 154.288 175.038 152.29 174.998Z" fill="black"/>
<path d="M16.1365 140.496C15.5652 140.496 15.0058 140.332 14.5241 140.025C14.0425 139.718 13.6584 139.28 13.4172 138.762C13.1759 138.244 13.0875 137.668 13.1622 137.101C13.2369 136.535 13.4717 136.002 13.839 135.564C14.2807 135.038 14.7537 134.494 15.2404 133.936C17.0151 131.899 19.0273 129.591 19.9059 127.5C25.36 114.525 25.4342 103.236 25.5056 92.3186C25.5896 79.5746 25.6756 66.3965 34.3186 51.2715C38.7676 43.6679 43.8971 36.4835 49.644 29.8066C55.3275 23.2846 62.7151 18.4746 70.9787 15.9156C78.3942 13.5644 85.8723 13.1553 90.9795 14.8231C92.3017 15.2545 93.5507 15.7926 94.7576 16.313C96.9398 17.2532 99.0009 18.1412 100.982 18.1553L101.03 18.1554C102.394 18.082 103.745 17.8477 105.054 17.4576C105.444 17.3599 105.833 17.2625 106.223 17.1707C121.517 13.5631 134.297 16.7871 146.444 27.3161C160.329 39.3506 166.498 55.6859 169.227 67.2704C169.318 67.6542 169.332 68.0519 169.268 68.4411C169.205 68.8302 169.066 69.203 168.858 69.5383C168.651 69.8736 168.379 70.1647 168.06 70.3951C167.74 70.6255 167.378 70.7906 166.994 70.8811C166.61 70.9715 166.212 70.9855 165.823 70.9222C165.434 70.8589 165.061 70.7195 164.726 70.5121C164.391 70.3048 164.099 70.0334 163.869 69.7134C163.639 69.3935 163.474 69.0314 163.383 68.6477C160.856 57.9249 155.184 42.8373 142.512 31.8533C131.804 22.5716 121.04 19.8457 107.601 23.0146C107.238 23.1001 106.877 23.191 106.514 23.2818C104.729 23.8008 102.886 24.0957 101.028 24.1597L100.939 24.1594C97.7422 24.1368 94.8944 22.9097 92.3818 21.8272C91.2482 21.3387 90.1771 20.8773 89.1168 20.531C81.3446 17.9934 64.3109 21.7693 54.2274 33.6851C48.7175 40.0822 43.7987 46.9654 39.5313 54.2504C31.6692 68.0094 31.592 79.8365 31.5099 92.358C31.4346 103.86 31.3564 115.754 25.4411 129.826C24.1882 132.807 21.8389 135.503 19.767 137.881C19.3058 138.41 18.8562 138.925 18.438 139.424C18.1562 139.76 17.8041 140.031 17.4064 140.216C17.0087 140.401 16.5752 140.497 16.1365 140.496Z" fill="black"/>
</svg>
