<svg width="195" height="175" viewBox="0 0 195 175" fill="none" xmlns="http://www.w3.org/2000/svg">
<path d="M154.98 104.17C154.976 104.112 154.969 104.056 154.96 103.999C154.625 101.942 154.18 101.557 153.292 100.072C163.703 89.4639 157.224 71.053 153.657 63.7339C149.882 55.9897 142.366 44.4748 134.717 40.841C127.068 37.2072 108.493 27.7593 84.0904 37.9339C59.6875 48.1086 51.0885 81.3842 50.7086 82.5128C50.6698 82.6272 48.9938 87.8878 48.0147 95.4268C47.2041 99.1865 47.0022 103.166 47.3381 107.199C47.4792 114.086 48.6555 121.522 51.9 128.256C57.9772 140.866 78.0193 148.114 82.3427 149.912C82.3427 149.912 82.9067 162.21 81.2677 163.845C82.3603 168.751 93.5601 170.658 93.5601 170.658C103.266 171.295 107.765 164.39 107.765 164.39V150.491C107.765 150.491 118.788 145.433 125.227 138.459C129.905 133.953 133.196 126.598 133.936 124.854C134.72 124.966 135.981 125.101 137.515 125.101C141.031 125.101 145.961 124.389 149.757 121.047C153.841 117.453 155.598 111.775 154.98 104.17Z" fill="white"/>
<path d="M71.6808 105.018C74.4827 105.018 76.754 102.752 76.754 99.9564C76.754 97.1611 74.4827 94.895 71.6808 94.895C68.879 94.895 66.6077 97.1611 66.6077 99.9564C66.6077 102.752 68.879 105.018 71.6808 105.018Z" fill="black"/>
<path d="M107.34 111.786C110.142 111.786 112.413 109.52 112.413 106.725C112.413 103.93 110.142 101.663 107.34 101.663C104.538 101.663 102.267 103.93 102.267 106.725C102.267 109.52 104.538 111.786 107.34 111.786Z" fill="black"/>
<path d="M82.0165 166.315C81.4652 166.315 80.9071 166.163 80.4067 165.845C79.0149 164.959 78.6005 163.116 79.4743 161.72C80.1888 160.354 80.4224 154.838 79.961 152.561C79.5261 152.448 78.9758 152.32 78.493 152.207C72.4878 150.803 58.4221 147.516 51.0418 131.829C41.651 111.867 47.6913 82.9163 47.7636 82.6477C52.0124 66.7379 60.8578 33.6205 100.379 29.6851C118.155 27.9148 135.414 34.3532 147.728 47.3485C158.617 58.8396 163.624 73.4588 161.465 87.458C161.212 89.097 159.678 90.2201 158.04 89.9678C156.401 89.715 155.277 88.1816 155.53 86.5427C157.404 74.3924 152.972 61.6122 143.369 51.4792C132.341 39.8419 116.886 34.0751 100.973 35.6607C65.6373 39.1794 57.7878 68.3873 53.5811 84.1363C53.3445 85.2836 48.1243 111.52 56.4761 129.273C62.6191 142.33 74.2638 145.051 79.8603 146.359C82.5189 146.981 83.983 147.323 84.8842 148.755C86.9083 152.059 86.3952 162.03 84.5518 164.925C83.9801 165.824 83.0085 166.315 82.0165 166.315Z" fill="black"/>
<path d="M71.6822 104.63C74.2818 104.63 76.3892 102.527 76.3892 99.9337C76.3892 97.3401 74.2818 95.2376 71.6822 95.2376C69.0826 95.2376 66.9752 97.3401 66.9752 99.9337C66.9752 102.527 69.0826 104.63 71.6822 104.63Z" fill="black"/>
<path d="M107.304 111.421C109.904 111.421 112.011 109.318 112.011 106.725C112.011 104.131 109.904 102.029 107.304 102.029C104.705 102.029 102.597 104.131 102.597 106.725C102.597 109.318 104.705 111.421 107.304 111.421Z" fill="black"/>
<path d="M120.561 143.905C119.733 143.905 118.909 143.564 118.316 142.897C117.214 141.657 117.326 139.759 118.565 138.658C127.214 130.973 128.434 122.53 128.446 122.445C128.553 121.647 128.977 120.917 129.621 120.434C130.264 119.951 131.075 119.739 131.873 119.859C131.964 119.872 141.433 121.195 146.692 116.265C149.475 113.656 150.674 109.571 150.254 104.121C149.224 98.1343 144.663 96.6476 141.054 97.2001C139.405 97.4504 137.882 96.3262 137.631 94.6865C137.381 93.0474 138.506 91.5151 140.145 91.2641C146.771 90.2501 154.622 93.5742 156.201 103.272C156.213 103.351 156.223 103.431 156.23 103.511C156.834 110.956 154.998 116.73 150.77 120.673C145.458 125.629 137.841 126.152 133.769 126.021C132.676 129.785 129.805 136.704 122.555 143.147C121.982 143.655 121.27 143.905 120.561 143.905H120.561Z" fill="black"/>
<path d="M53.7615 133.554C52.6345 133.554 51.5545 132.917 51.0423 131.829C44.2514 117.391 45.4682 98.4712 46.7985 88.478C47.0174 86.8344 48.5304 85.6784 50.1705 85.8979C51.8145 86.1167 52.9698 87.6266 52.7508 89.2704C51.75 96.7893 50.1099 115.739 56.4767 129.273C57.1823 130.774 56.5382 132.562 55.0379 133.268C54.6245 133.462 54.1895 133.554 53.7615 133.554V133.554Z" fill="black"/>
<path d="M152.573 175C149.67 175 146.979 173.822 144.46 172.497C142.154 171.283 139.038 168.737 136.294 169.561C132.94 170.569 131.954 173.936 127.901 173.936C125.512 173.936 123.017 172.878 121.226 171.106C118.796 168.7 117.786 165.442 117.236 163.201C115.089 154.438 116.011 145.482 116.904 136.82C117.033 135.579 117.16 134.339 117.278 133.103C117.692 128.972 118.352 124.87 118.992 120.902C119.718 116.393 120.469 111.731 120.83 107.147C120.875 106.575 120.925 105.996 120.975 105.413C121.235 102.392 121.503 99.2682 121.126 96.4958C120.476 91.7133 118.891 87.0876 116.712 81.6135C114.492 76.0334 112.194 70.2633 107.206 66.5823C105.264 65.1492 102.662 64.3598 99.8804 64.3598C99.6484 64.3598 99.4163 64.3652 99.1852 64.3759C98.5301 64.4072 97.8026 64.5127 96.8979 64.7081C96.1468 64.8708 95.7209 65.0075 95.3097 65.1399C93.9545 65.5751 93.0497 65.7656 90.076 65.7656C88.1354 65.7656 86.4228 65.0198 84.7662 64.2985C81.234 62.7607 77.435 62.8573 74.0954 64.8619C70.3603 67.104 68.2648 70.7172 65.2736 73.7016L64.4286 74.742C56.9291 83.9293 53.7801 96.2618 55.0696 111.398C55.6043 117.667 57.1964 124.019 58.7357 130.162C58.9814 131.142 59.2272 132.122 59.4681 133.1C59.6894 133.998 59.9371 134.926 60.1907 135.875C61.4842 140.722 62.95 146.216 62.0531 151.413C60.5884 159.909 57.0711 164.43 48.5614 165.64C48.163 165.696 47.7556 165.756 47.3993 165.942C46.933 166.187 46.6033 166.621 46.2655 167.024C44.4471 169.194 41.9659 170.626 39.0935 170.626C36.1462 170.626 32.7739 169.215 29.8413 166.757C29.2626 166.272 28.6898 165.762 28.1138 165.248C26.2135 163.555 24.1465 161.514 21.4759 161.271C19.723 161.112 18.02 161.793 16.3414 162.322C13.88 163.096 11.2656 163.562 8.71413 163.174C3.00237 162.304 -0.880464 156.417 0.172425 150.802C1.16009 145.536 5.03966 142.247 9.10954 139.246C16.897 133.504 20.8831 126.921 23.2779 117.618C25.7032 108.196 26.171 98.4705 26.5513 88.7949C26.9795 77.8991 27.3107 66.5169 31.6579 56.3288C36.1837 45.7224 43.4186 35.3318 51.9481 27.5396C61.3716 18.9306 73.4781 13.7916 84.3346 13.7916C87.1192 13.7916 89.9791 14.1327 92.6145 15.0673C95.001 15.9137 97.2463 17.376 99.7724 17.793C102.714 18.2786 105.035 16.9904 107.78 16.1946C110.464 15.4166 113.355 15.2618 116.134 15.2618C127.732 15.2618 137.62 19.3399 148.196 28.4853C161.446 39.9429 166.385 55.1285 169.207 67.0781C172.615 81.509 171.495 96.6213 170.412 111.236L170.282 113.002C169.231 127.266 171.286 137.449 176.745 145.046C177.317 145.842 178.055 146.716 178.836 147.642C180.394 149.489 182.005 151.399 183.021 153.484C184.851 157.235 183.782 162.205 180.48 165.3C177.732 167.876 174.91 169.128 171.851 169.128C169.404 169.128 164.747 166.286 162.588 167.284C162.009 167.552 161.62 168.101 161.259 168.627C158.905 172.052 157.2 174.997 152.573 175L152.573 175Z" fill="black"/>
</svg>
