<svg width="180" height="170" viewBox="0 0 180 170" fill="none" xmlns="http://www.w3.org/2000/svg">
<path d="M130.009 32.6812C167.009 56.6812 161.008 86.975 154.008 106.975C150.273 117.648 133.008 118.975 133.008 118.975C133.008 118.975 121.008 105.975 122.008 95.975L130.009 32.6812Z" fill="#2D8C3C"/>
<path d="M140.095 103.506C140.091 103.448 140.084 103.391 140.075 103.334C139.868 101.905 139.295 100.553 138.412 99.4088C148.795 88.8046 142.333 70.4003 138.775 63.0838C135.01 55.3423 127.514 43.8315 119.886 40.199C112.258 36.5665 93.7322 27.122 69.3944 37.293C45.0566 47.464 36.4804 80.7278 36.1015 81.856C34.8529 86.078 33.9543 90.3958 33.4148 94.7654C32.6133 98.6338 32.386 102.599 32.74 106.534C32.7447 113.794 34.2957 120.969 37.2897 127.583C43.3507 140.189 63.3395 147.434 67.6513 149.231C67.6513 149.231 68.2138 161.525 66.5792 163.159C67.6689 168.063 78.8389 168.97 78.8389 168.97C88.5189 169.607 93.0056 163.704 93.0056 163.704V149.81C93.0056 149.81 104 144.754 110.421 137.782C115.087 133.277 118.369 125.925 119.107 124.182C120.29 124.348 121.482 124.431 122.676 124.429C126.183 124.429 131.1 123.717 134.886 120.376C138.959 116.783 140.711 111.108 140.095 103.506Z" fill="white"/>
<path d="M57.0167 104.911C59.8111 104.911 62.0764 102.646 62.0764 99.8512C62.0764 97.0568 59.8111 94.7915 57.0167 94.7915C54.2223 94.7915 51.957 97.0568 51.957 99.8512C51.957 102.646 54.2223 104.911 57.0167 104.911Z" fill="black"/>
<path d="M92.5812 111.677C95.3755 111.677 97.6408 109.412 97.6408 106.617C97.6408 103.823 95.3755 101.558 92.5812 101.558C89.7868 101.558 87.5215 103.823 87.5215 106.617C87.5215 109.412 89.7868 111.677 92.5812 111.677Z" fill="black"/>
<path d="M67.3267 166.185C66.7916 166.185 66.2664 166.041 65.8055 165.769C65.3447 165.497 64.9649 165.107 64.7056 164.639C64.4463 164.171 64.3169 163.642 64.3308 163.107C64.3447 162.572 64.5014 162.051 64.7847 161.597C65.4986 160.231 65.731 154.713 65.2701 152.435C64.8374 152.322 64.2896 152.194 63.8101 152.082C57.8189 150.678 43.7896 147.392 36.4292 131.71C26.9468 111.509 33.0845 82.8289 33.1558 82.5595C37.397 66.6465 46.2222 33.5408 85.6392 29.6067C94.3257 28.7186 103.1 29.8443 111.281 32.8964C119.462 35.9485 126.83 40.8448 132.812 47.2054C143.712 58.7006 148.726 73.3349 146.569 87.3561C146.509 87.7456 146.373 88.1195 146.169 88.4565C145.965 88.7935 145.696 89.087 145.378 89.3201C145.061 89.5533 144.7 89.7215 144.317 89.8152C143.935 89.909 143.537 89.9264 143.148 89.8665C142.758 89.8066 142.384 89.6705 142.047 89.466C141.711 89.2616 141.417 88.9927 141.184 88.6749C140.951 88.357 140.783 87.9964 140.69 87.6136C140.596 87.2308 140.579 86.8333 140.639 86.4438C142.511 74.2699 138.072 61.4728 128.458 51.3338C123.103 45.6401 116.509 41.2568 109.187 38.5241C101.864 35.7915 94.0103 34.783 86.2349 35.577C51.0015 39.0935 43.1695 68.2896 38.9722 84.0338C38.7339 85.1938 33.5386 111.432 41.8609 129.16C47.9869 142.212 59.5982 144.933 65.1783 146.24C67.8316 146.861 69.2935 147.204 70.1929 148.636C72.2105 151.938 71.6988 161.901 69.8619 164.793C69.591 165.22 69.2166 165.571 68.7733 165.815C68.33 166.058 67.8324 166.186 67.3267 166.185Z" fill="black"/>
<path d="M57.0168 104.523C59.6094 104.523 61.7112 102.421 61.7112 99.8283C61.7112 97.2356 59.6094 95.1338 57.0168 95.1338C54.4241 95.1338 52.3223 97.2356 52.3223 99.8283C52.3223 102.421 54.4241 104.523 57.0168 104.523Z" fill="black"/>
<path d="M92.5461 111.312C95.1387 111.312 97.2405 109.21 97.2405 106.617C97.2405 104.025 95.1387 101.923 92.5461 101.923C89.9534 101.923 87.8516 104.025 87.8516 106.617C87.8516 109.21 89.9534 111.312 92.5461 111.312Z" fill="black"/>
<path d="M39.1467 133.436C38.5765 133.436 38.0181 133.274 37.5367 132.969C37.0554 132.663 36.6711 132.226 36.4289 131.71C29.6555 117.279 30.8693 98.3672 32.1965 88.3782C32.2477 87.9872 32.3755 87.6101 32.5727 87.2685C32.7698 86.9269 33.0324 86.6275 33.3453 86.3875C33.6583 86.1475 34.0155 85.9715 34.3965 85.8697C34.7775 85.7679 35.1749 85.7423 35.5659 85.7942C35.9568 85.8461 36.3337 85.9746 36.6749 86.1724C37.0162 86.3701 37.3151 86.6332 37.5545 86.9466C37.7939 87.26 37.9692 87.6175 38.0704 87.9988C38.1715 88.38 38.1964 88.7774 38.1438 89.1682C37.1458 96.6852 35.509 115.63 41.8606 129.161C42.0748 129.618 42.1702 130.122 42.1381 130.625C42.106 131.129 41.9473 131.617 41.6768 132.043C41.4062 132.469 41.0325 132.82 40.5903 133.064C40.148 133.307 39.6515 133.435 39.1467 133.436V133.436Z" fill="black"/>
<path d="M114.01 99.6811C114.01 99.6811 134.01 92.975 141.01 108.975C153.01 93.975 152.01 77.6811 149.01 63.6811C147.22 55.3268 139.058 33.394 128.01 31.6811C113.465 29.4262 110.498 40.5069 106.01 53.975C123.01 71.975 114.01 99.6811 114.01 99.6811Z" fill="black"/>
<path d="M87.0095 10.6812C63.0095 13.6812 48.6602 24.0934 33.0095 42.6812C22.6849 55.1585 11.0095 84.6812 25.0095 117.681C48.0093 68.9751 74.0093 52.9751 105.009 55.9751C109.876 56.446 123.168 42.7667 127.009 39.6812C132.612 35.1809 134.706 31.2904 132.009 24.6812C127.272 13.0703 111.009 7.68123 87.0095 10.6812Z" fill="#2D8C3C"/>
<path d="M28.012 118.682C27.5463 118.682 27.087 118.573 26.6705 118.365C26.254 118.156 25.8917 117.854 25.6123 117.481C25.3328 117.109 25.1439 116.676 25.0604 116.218C24.9769 115.76 25.0011 115.289 25.1311 114.841C32.5041 89.562 48.5296 75.089 63.2327 64.2654C76.5882 54.4344 93.888 50.119 109.504 52.7223C110.287 52.855 110.986 53.2928 111.447 53.9397C111.907 54.5866 112.093 55.3899 111.962 56.1733C111.832 56.9567 111.396 57.6564 110.75 58.1189C110.104 58.5815 109.302 58.7691 108.518 58.6406C94.469 56.2988 78.8675 60.2072 66.7893 69.0974C52.1956 79.8407 37.7454 93.0216 30.8909 116.522C30.7092 117.145 30.3304 117.692 29.8114 118.081C29.2923 118.471 28.661 118.682 28.012 118.682Z" fill="black"/>
<path d="M19.0073 101.681C18.2572 101.681 17.5346 101.399 16.982 100.892C16.4294 100.384 16.0869 99.6884 16.022 98.9411C14.0845 76.6597 18.5054 58.028 29.5386 41.9815C40.5386 25.9812 58.9116 14.0051 77.4888 10.7268C78.2723 10.5885 79.0787 10.7671 79.7305 11.2234C80.3824 11.6796 80.8263 12.3761 80.9646 13.1597C81.1029 13.9432 80.9243 14.7496 80.4681 15.4015C80.0118 16.0533 79.3153 16.4972 78.5318 16.6355C61.4829 19.6442 44.604 30.6587 34.482 45.3808C24.27 60.2335 20.187 77.5832 21.9985 98.4213C22.0675 99.2139 21.8188 100.001 21.3071 100.611C20.7954 101.22 20.0626 101.601 19.27 101.67C19.1821 101.678 19.0942 101.681 19.0073 101.681Z" fill="black"/>
<path d="M133.01 35.6821C132.379 35.6819 131.765 35.4832 131.254 35.1142C130.743 34.7452 130.361 34.2247 130.162 33.6264C125.229 18.7677 106.98 9.38609 91.1161 13.5466C90.735 13.6465 90.338 13.6704 89.9477 13.6168C89.5574 13.5633 89.1815 13.4334 88.8414 13.2346C88.5013 13.0358 88.2037 12.7719 87.9655 12.4581C87.7274 12.1442 87.5534 11.7866 87.4535 11.4055C87.3536 11.0244 87.3298 10.6274 87.3833 10.2371C87.4368 9.84679 87.5667 9.47086 87.7655 9.13076C87.9644 8.79065 88.2282 8.49304 88.5421 8.25491C88.8559 8.01678 89.2136 7.8428 89.5946 7.7429C108.692 2.73411 129.878 13.7226 135.857 31.7362C136.007 32.1871 136.047 32.667 135.975 33.1365C135.902 33.6059 135.72 34.0516 135.442 34.4367C135.164 34.8219 134.798 35.1356 134.376 35.3521C133.953 35.5686 133.485 35.6817 133.01 35.6821Z" fill="black"/>
<path d="M150.006 114.975C149.478 114.975 148.96 114.835 148.504 114.57C148.048 114.306 147.669 113.925 147.407 113.468C147.144 113.01 147.007 112.492 147.009 111.964C147.011 111.437 147.151 110.919 147.417 110.463C159.007 90.5961 156.225 78.1762 154.73 71.5038C154.482 70.3996 154.269 69.4462 154.136 68.5672C152.876 59.9706 149.244 51.8958 143.647 45.2505C141.816 42.9592 139.591 41.0136 137.076 39.5058C136.383 39.1152 135.873 38.4653 135.659 37.6989C135.445 36.9326 135.545 36.1126 135.935 35.4194C136.326 34.7263 136.976 34.2166 137.742 34.0026C138.508 33.7886 139.328 33.8879 140.022 34.2784C143.151 36.1358 145.926 38.5348 148.217 41.3633C154.537 48.8579 158.641 57.9673 160.067 67.667C160.17 68.3387 160.362 69.1977 160.585 70.1922C162.26 77.6683 165.377 91.584 152.601 113.486C152.336 113.94 151.957 114.316 151.502 114.577C151.047 114.839 150.531 114.976 150.006 114.975Z" fill="black"/>
<path d="M105.766 143.783C105.158 143.783 104.564 143.598 104.064 143.253C103.563 142.908 103.179 142.419 102.962 141.85C102.746 141.282 102.707 140.661 102.851 140.071C102.996 139.48 103.316 138.947 103.77 138.542C112.396 130.86 113.613 122.418 113.625 122.333C113.677 121.938 113.808 121.556 114.01 121.211C114.211 120.867 114.479 120.565 114.797 120.325C115.116 120.084 115.479 119.909 115.866 119.81C116.253 119.711 116.656 119.69 117.051 119.748C117.138 119.761 126.565 121.083 131.81 116.168C134.596 113.559 135.794 109.471 135.375 104.013C134.348 98.0291 129.806 96.5419 126.207 97.0944C125.422 97.2125 124.622 97.0145 123.982 96.5437C123.343 96.0729 122.916 95.3678 122.795 94.5828C122.675 93.7979 122.871 92.9973 123.339 92.3564C123.808 91.7155 124.512 91.2867 125.297 91.1639C131.906 90.1484 139.742 93.4729 141.316 103.167C141.329 103.246 141.339 103.326 141.346 103.406C141.949 110.856 140.111 116.632 135.885 120.573C130.587 125.512 122.999 126.034 118.946 125.905C116.896 132.547 113.02 138.478 107.761 143.023C107.212 143.513 106.502 143.783 105.766 143.783Z" fill="black"/>
<path d="M105.766 143.783C105.158 143.783 104.564 143.598 104.064 143.253C103.563 142.908 103.179 142.419 102.962 141.85C102.746 141.282 102.707 140.661 102.851 140.071C102.996 139.48 103.316 138.947 103.77 138.542C112.396 130.86 113.613 122.418 113.625 122.333C113.677 121.938 113.808 121.556 114.01 121.211C114.211 120.867 114.479 120.565 114.797 120.325C115.116 120.084 115.479 119.909 115.866 119.81C116.253 119.711 116.656 119.69 117.051 119.748C117.138 119.761 126.565 121.083 131.81 116.168C134.596 113.559 135.794 109.471 135.375 104.013C134.348 98.0291 129.806 96.5419 126.207 97.0944C125.422 97.2125 124.622 97.0145 123.982 96.5437C123.343 96.0729 122.916 95.3678 122.795 94.5828C122.675 93.7979 122.871 92.9973 123.339 92.3564C123.808 91.7155 124.512 91.2867 125.297 91.1639C131.906 90.1484 139.742 93.4729 141.316 103.167C141.329 103.246 141.339 103.326 141.346 103.406C141.949 110.856 140.111 116.632 135.885 120.573C130.587 125.512 122.999 126.034 118.946 125.905C116.896 132.547 113.02 138.478 107.761 143.023C107.212 143.513 106.502 143.783 105.766 143.783Z" fill="black"/>
</svg>
