<svg width="180" height="171" viewBox="0 0 180 171" fill="none" xmlns="http://www.w3.org/2000/svg">
<path d="M152.125 88.776C160.537 46.6025 121.309 19.2339 105.766 15.309C87.6722 10.74 70.1663 15.7856 58.1638 23.7421C52.0808 27.7745 29.3243 32.3234 25.6228 67.2911C25.0977 72.2518 22.3689 91.6752 23.897 96.3572C27.6348 107.81 33.8013 109.276 32.7393 106.537C29.8551 99.0971 103.709 133.004 107.934 137.052C116.048 144.827 122.061 138.788 129.483 130.335C134.351 124.79 141.88 119.966 145.793 114.259C147.977 111.074 150.851 95.158 152.125 88.776Z" fill="#2D8C3C"/>
<path d="M142.239 121.876C141.63 121.876 141.034 121.69 140.533 121.343C140.031 120.997 139.647 120.505 139.431 119.935C139.216 119.364 139.18 118.742 139.327 118.15C139.475 117.558 139.799 117.025 140.257 116.623C146.82 110.85 148.672 93.8739 149.279 88.2953C149.351 87.6478 149.408 87.1157 149.458 86.7216C154.72 45.1895 121.152 22.2885 105.031 18.2177C87.339 13.7507 69.4855 19.8168 58.674 26.9837C56.9887 27.9985 55.2436 28.9107 53.4484 29.7152C51.6164 30.5957 49.5412 31.5937 47.34 32.7698C36.2619 38.6893 29.4474 55.7067 28.4416 69.4575C28.3836 70.2511 28.0126 70.9891 27.4104 71.5092C26.8082 72.0293 26.0241 72.2888 25.2305 72.2308C24.437 72.1727 23.6989 71.8018 23.1788 71.1996C22.6587 70.5974 22.3992 69.8133 22.4572 69.0197C23.7912 50.7866 32.8605 33.7039 44.5119 27.4778C46.8263 26.2415 48.963 25.2141 50.8488 24.3077C52.3921 23.6122 53.8977 22.8361 55.3595 21.9826C67.2414 14.1068 86.9181 7.45491 106.5 12.4003C124.235 16.8786 161.171 42 155.411 87.4755C155.364 87.8435 155.311 88.3406 155.244 88.9455C154.503 95.7477 152.533 113.817 144.22 121.128C143.673 121.61 142.969 121.876 142.239 121.876Z" fill="black"/>
<path d="M115.26 143.457C111.753 143.457 108.259 141.812 104.861 138.556C100.803 135.097 45.6338 115.008 35.6338 112.518L35.456 112.474C28.0068 110.646 19.4697 104.245 21.1035 84.1367C21.1692 83.3447 21.5466 82.6111 22.1527 82.0969C22.7588 81.5828 23.5442 81.3302 24.3363 81.3946C25.1285 81.459 25.8628 81.8351 26.3779 82.4404C26.8931 83.0456 27.147 83.8305 27.084 84.6228C25.5205 103.857 34.0752 105.957 36.8867 106.648L37.083 106.696C44.2607 108.483 103.963 129.386 109.012 134.223C111.44 136.55 113.609 137.602 115.672 137.441C118.569 137.213 121.824 134.598 125.916 129.212C126.154 128.898 126.452 128.635 126.792 128.436C127.132 128.237 127.508 128.108 127.899 128.054C128.289 128.001 128.686 128.025 129.067 128.125C129.448 128.225 129.806 128.4 130.119 128.638C130.433 128.876 130.697 129.174 130.895 129.514C131.094 129.854 131.224 130.23 131.277 130.621C131.33 131.011 131.306 131.408 131.206 131.789C131.106 132.17 130.932 132.528 130.693 132.841C127.145 137.514 122.283 142.939 116.143 143.423C115.849 143.446 115.554 143.457 115.26 143.457Z" fill="black"/>
<path d="M140.095 103.509C140.091 103.451 140.084 103.394 140.075 103.337C139.868 101.907 139.295 100.556 138.412 99.4118C148.795 88.8075 142.333 70.4032 138.775 63.0867C135.01 55.3452 127.514 43.8344 119.886 40.2019C112.258 36.5694 93.7322 27.1249 69.3944 37.2959C45.0566 47.4669 36.4804 80.7307 36.1016 81.8589C34.8529 86.081 33.9543 90.3987 33.4148 94.7684C32.6133 98.6368 32.386 102.602 32.74 106.537C32.7447 113.796 34.2957 120.972 37.2897 127.585C43.3507 140.192 51.9576 147.878 67.6513 149.234C67.6513 149.234 68.2138 161.528 66.5792 163.162C67.6689 168.066 78.8389 169.973 78.8389 169.973C81.5388 170.225 84.2583 169.782 86.7382 168.685C89.2182 167.588 91.3758 165.874 93.0056 163.707V149.813C93.0056 149.813 104 144.757 110.421 137.785C115.087 133.28 118.369 125.928 119.107 124.185C120.29 124.351 121.482 124.434 122.676 124.432C126.183 124.432 131.1 123.72 134.886 120.379C138.959 116.786 140.711 111.111 140.095 103.509Z" fill="white"/>
<path d="M57.0167 104.914C59.8111 104.914 62.0764 102.648 62.0764 99.8541C62.0764 97.0597 59.8111 94.7944 57.0167 94.7944C54.2223 94.7944 51.957 97.0597 51.957 99.8541C51.957 102.648 54.2223 104.914 57.0167 104.914Z" fill="black"/>
<path d="M92.5812 111.68C95.3755 111.68 97.6408 109.415 97.6408 106.62C97.6408 103.826 95.3755 101.561 92.5812 101.561C89.7868 101.561 87.5215 103.826 87.5215 106.62C87.5215 109.415 89.7868 111.68 92.5812 111.68Z" fill="black"/>
<path d="M67.3249 166.188C66.7899 166.188 66.2647 166.044 65.8038 165.772C65.3429 165.5 64.9632 165.11 64.7038 164.642C64.4445 164.174 64.3151 163.645 64.329 163.11C64.343 162.575 64.4997 162.054 64.7829 161.6C65.4968 160.234 65.7292 154.716 65.2683 152.438C64.8357 152.325 64.2878 152.197 63.8083 152.085C57.8171 150.681 43.7878 147.395 36.4274 131.713C36.0904 130.993 36.053 130.169 36.3234 129.421C36.5939 128.673 37.1501 128.064 37.8699 127.726C38.5897 127.388 39.4141 127.35 40.1621 127.619C40.9101 127.889 41.5204 128.444 41.8591 129.164C47.9851 142.216 59.5964 144.936 65.1764 146.243C67.8298 146.865 69.2917 147.207 70.1911 148.639C72.2087 151.941 71.697 161.904 69.86 164.796C69.5892 165.223 69.2148 165.575 68.7715 165.818C68.3283 166.062 67.8306 166.189 67.3249 166.188Z" fill="black"/>
<path d="M105.766 143.785C105.158 143.785 104.564 143.601 104.064 143.256C103.563 142.911 103.179 142.421 102.962 141.853C102.746 141.285 102.707 140.664 102.851 140.073C102.996 139.482 103.316 138.949 103.77 138.545C112.397 130.863 113.613 122.421 113.625 122.336C113.677 121.941 113.808 121.559 114.009 121.214C114.211 120.869 114.478 120.568 114.797 120.327C115.116 120.087 115.479 119.912 115.866 119.813C116.253 119.714 116.656 119.693 117.051 119.751C117.139 119.764 126.564 121.085 131.81 116.171C134.596 113.562 135.794 109.474 135.375 104.016C134.348 98.0315 129.81 96.5451 126.208 97.0971C125.423 97.2152 124.622 97.0172 123.983 96.5465C123.343 96.0757 122.917 95.3705 122.796 94.5856C122.676 93.8006 122.871 92.9999 123.34 92.359C123.809 91.7181 124.513 91.2893 125.298 91.1665C131.913 90.152 139.743 93.4755 141.316 103.17C141.329 103.249 141.339 103.328 141.346 103.408C141.949 110.859 140.111 116.635 135.885 120.576C130.587 125.515 122.997 126.037 118.946 125.908C116.897 132.55 113.021 138.482 107.761 143.026C107.212 143.516 106.502 143.786 105.766 143.785Z" fill="black"/>
<path d="M147.031 88.7762C147.939 79.5133 147.614 68.2178 140.531 55.6857C133.447 43.1535 114.149 14.2853 71.5836 24.1613C64.9498 25.5858 58.7019 28.4259 53.2668 32.4874C47.8317 36.5489 43.3377 41.736 40.0918 47.6942C35.3695 56.4122 26.9269 88.8117 29.8329 92.2626C33.0122 94.6096 37.7159 97.3241 38.0222 95.3745C39.9076 83.3713 52.4361 53.6893 55.3014 61.5357C58.3098 69.7738 51.9568 89.4329 90.2498 92.6645C102.094 93.6641 109.876 92.1888 116.312 99.8541C126.164 111.586 139.693 113.919 142.963 111.68C144.776 104.134 146.135 96.4853 147.031 88.7762Z" fill="#2D8C3C"/>
<path d="M93.1221 95.94C93.0391 95.94 92.9551 95.9365 92.8711 95.9295C56.9121 92.9445 52.3008 75.9808 52.3008 61.5356C52.3008 60.74 52.6169 59.9769 53.1795 59.4143C53.7421 58.8517 54.5051 58.5356 55.3008 58.5356C56.0964 58.5356 56.8595 58.8517 57.4221 59.4143C57.9847 59.9769 58.3008 60.74 58.3008 61.5356C58.3008 74.7816 62.5488 87.3917 93.3672 89.9501C94.1383 90.0143 94.8549 90.3739 95.3671 90.9539C95.8794 91.5339 96.1477 92.2894 96.1161 93.0626C96.0844 93.8357 95.7553 94.5668 95.1973 95.103C94.6394 95.6392 93.8959 95.9391 93.1221 95.94H93.1221Z" fill="black"/>
<path d="M39.1454 133.439C38.5752 133.439 38.0168 133.277 37.5354 132.971C37.0541 132.666 36.6698 132.229 36.4276 131.713C29.702 117.384 31.4208 104.507 32.6756 95.1046L32.7694 94.3992C32.8206 94.0082 32.9484 93.6311 33.1456 93.2895C33.3427 92.9479 33.6052 92.6485 33.9182 92.4085C34.2311 92.1685 34.5884 91.9925 34.9694 91.8907C35.3504 91.7889 35.7478 91.7633 36.1387 91.8152C36.5297 91.8671 36.9066 91.9956 37.2478 92.1934C37.589 92.3911 37.8879 92.6542 38.1274 92.9676C38.3668 93.281 38.5421 93.6385 38.6432 94.0198C38.7443 94.401 38.7693 94.7984 38.7166 95.1892L38.6229 95.8984C37.4657 104.563 35.8827 116.43 41.8592 129.163C42.0734 129.621 42.1689 130.124 42.1368 130.628C42.1046 131.132 41.946 131.62 41.6754 132.046C41.4049 132.472 41.0312 132.823 40.5889 133.067C40.1467 133.31 39.6502 133.438 39.1454 133.439L39.1454 133.439Z" fill="black"/>
</svg>
