<svg width="180" height="171" viewBox="0 0 180 171" fill="none" xmlns="http://www.w3.org/2000/svg">
<path d="M152.13 88.7765C160.543 46.603 121.315 19.2344 105.772 15.3095C87.6781 10.7405 70.1722 15.7861 58.1696 23.7426C52.0866 27.775 29.3301 32.3239 25.6287 67.2915C25.1036 72.2523 22.3748 91.6757 23.9028 96.3577C27.6406 107.81 33.8072 109.276 32.7452 106.537C29.8609 99.0976 103.715 133.005 107.94 137.053C116.054 144.828 122.066 138.788 129.488 130.335C134.357 124.79 141.886 119.967 145.799 114.26C147.983 111.075 150.857 95.1585 152.13 88.7765L152.13 88.7765Z" fill="black"/>
<path d="M114.48 143.2C111.515 143.2 108.342 141.887 104.867 138.556C100.808 135.097 45.6392 115.008 35.6392 112.519L35.4673 112.476C22.0591 109.182 20.2573 95.2546 21.1069 84.1513C21.3872 80.4946 22.3921 69.7795 22.4653 68.9893C23.8062 50.7679 32.8716 33.7013 44.5181 27.4781C46.8325 26.2414 48.9702 25.2137 50.856 24.3071C52.814 23.3656 54.5054 22.5525 55.3648 21.9829C67.2446 14.1076 86.9165 7.45433 106.506 12.4006C124.241 16.8791 161.177 42.0009 155.417 87.4757C155.368 87.867 155.311 88.406 155.241 89.0665C154.518 95.889 152.599 114.012 144.188 121.161C136.085 128.048 132.57 131.063 130.405 133.175L129.824 133.742C125.034 138.418 120.135 143.199 114.48 143.2H114.48ZM92.5152 16.6913C79.271 16.6913 66.9263 21.5175 58.6792 26.984C57.4761 27.7813 55.7017 28.6344 53.4556 29.7145C51.6236 30.5953 49.5474 31.5935 47.3462 32.7699C36.2671 38.6901 29.4527 55.7073 28.4478 69.4576C28.4458 69.4782 28.4448 69.4988 28.4429 69.5194C28.4321 69.6332 27.3706 80.9441 27.0894 84.6094C25.6157 103.877 34.1079 105.964 36.8989 106.649L37.0884 106.696C44.2661 108.483 103.968 129.386 109.017 134.224C114.666 139.634 117.502 137.385 125.632 129.449L126.215 128.879C128.526 126.627 131.914 123.72 140.301 116.59C146.885 110.994 148.683 94.0143 149.274 88.4347C149.349 87.7236 149.412 87.1434 149.464 86.7219C154.726 45.1904 121.158 22.289 105.038 18.218C100.84 17.1582 96.6343 16.6913 92.5151 16.6913L92.5152 16.6913Z" fill="black"/>
<path d="M140.1 103.509C140.096 103.451 140.089 103.394 140.08 103.337C139.746 101.281 139.302 100.896 138.417 99.4118C148.8 88.8075 142.338 70.4032 138.78 63.0867C135.015 55.3453 127.519 43.8344 119.891 40.2019C112.263 36.5694 93.7368 27.1249 69.399 37.2959C45.0612 47.4669 36.4851 80.7307 36.1062 81.8589C36.0674 81.9733 34.396 87.232 33.4194 94.7684C32.611 98.5267 32.4097 102.505 32.7447 106.537C32.8854 113.421 34.0586 120.854 37.2944 127.585C43.3554 140.192 51.9623 147.878 67.656 149.234C67.656 149.234 68.2184 161.528 66.5838 163.162C67.6736 168.066 78.8435 169.973 78.8435 169.973C88.5235 170.61 93.0103 163.707 93.0103 163.707V149.813C93.0103 149.813 104.004 144.757 110.426 137.785C115.091 133.28 118.374 125.928 119.112 124.185C119.894 124.297 121.152 124.432 122.681 124.432C126.188 124.432 131.105 123.72 134.891 120.379C138.963 116.786 140.716 111.111 140.1 103.509V103.509Z" fill="white"/>
<path d="M57.0226 104.914C59.8169 104.914 62.0822 102.648 62.0822 99.8541C62.0822 97.0597 59.8169 94.7944 57.0226 94.7944C54.2282 94.7944 51.9629 97.0597 51.9629 99.8541C51.9629 102.648 54.2282 104.914 57.0226 104.914Z" fill="black"/>
<path d="M92.587 111.68C95.3814 111.68 97.6467 109.415 97.6467 106.621C97.6467 103.826 95.3814 101.561 92.587 101.561C89.7926 101.561 87.5273 103.826 87.5273 106.621C87.5273 109.415 89.7926 111.68 92.587 111.68Z" fill="black"/>
<path d="M67.3319 166.188C66.7821 166.188 66.2254 166.037 65.7264 165.72C64.3348 164.836 63.9178 162.996 64.7899 161.6C65.5037 160.233 65.7362 154.715 65.2752 152.438C64.8416 152.325 64.2938 152.197 63.8143 152.084C57.8231 150.681 43.7938 147.394 36.4334 131.713C35.7293 130.213 36.3748 128.427 37.8748 127.723C39.3758 127.018 41.161 127.664 41.8651 129.164C47.991 142.215 59.6024 144.935 65.1824 146.243C67.8367 146.864 69.2987 147.207 70.1971 148.64C72.2147 151.94 71.7039 161.903 69.867 164.796C69.2957 165.696 68.324 166.188 67.3319 166.188H67.3319Z" fill="black"/>
<path d="M105.772 143.786C104.946 143.786 104.124 143.446 103.531 142.781C102.429 141.544 102.539 139.647 103.776 138.545C112.402 130.863 113.619 122.421 113.631 122.336C113.737 121.539 114.161 120.809 114.805 120.326C115.448 119.843 116.258 119.63 117.056 119.751C117.144 119.764 126.571 121.086 131.816 116.171C134.601 113.563 135.8 109.474 135.381 104.017C134.353 98.0317 129.812 96.5453 126.213 97.0973C124.573 97.3484 123.044 96.2248 122.793 94.5871C122.541 92.9494 123.665 91.4181 125.303 91.1668C131.906 90.1533 139.747 93.4744 141.322 103.17C141.335 103.249 141.345 103.329 141.351 103.409C141.955 110.859 140.117 116.635 135.89 120.576C130.594 125.515 123.001 126.037 118.952 125.908C117.86 129.671 114.998 136.585 107.766 143.026C107.195 143.535 106.482 143.786 105.772 143.786Z" fill="black"/>
<path d="M147.693 88.8606C148.601 79.5978 148.276 68.3023 141.193 55.7702C134.109 43.238 114.811 14.3698 72.2456 24.2458C55.062 28.2327 45.4762 39.0606 40.7539 47.7787C36.0316 56.4967 27.589 88.8962 30.495 92.347C33.6744 94.6941 38.378 97.4086 38.6843 95.459C40.5697 83.4557 53.0982 53.7737 55.9635 61.6202C58.9718 69.8583 52.6189 89.5174 90.9119 92.749C102.757 93.7486 110.538 92.2733 116.974 99.9386C126.826 111.671 140.355 114.003 143.625 111.764C144.716 106.705 146.785 98.1235 147.693 88.8606H147.693Z" fill="black"/>
<path d="M39.1508 133.439C38.0239 133.439 36.9438 132.801 36.433 131.713C29.7094 117.387 31.4262 104.511 32.6801 95.1095L32.7748 94.4C32.9936 92.7572 34.5024 91.6034 36.143 91.8207C37.7856 92.0387 38.9408 93.5469 38.7221 95.1893L38.6274 95.9026C37.4721 104.567 35.8891 116.433 41.8647 129.164C42.5688 130.664 41.9233 132.45 40.4233 133.154C40.0111 133.348 39.5776 133.439 39.1508 133.439H39.1508Z" fill="black"/>
</svg>
