<svg width="180" height="171" viewBox="0 0 180 171" fill="none" xmlns="http://www.w3.org/2000/svg">
<path d="M155.542 106.621C158.165 99.4655 150.854 95.1585 152.127 88.7765C160.54 46.6029 121.311 19.2343 105.768 15.3095C87.6746 10.7405 70.1687 15.7862 58.1662 23.7426C52.0832 27.775 44.5691 28.5042 31.8835 40.5048C27.9649 44.2118 24.7491 56.4742 26.4119 62.46C28.0746 68.4457 27.7312 72.8344 24.7383 76.825C21.7454 80.8155 20.5662 84.0945 22.0942 88.7765C25.8321 100.229 33.8037 109.276 32.7417 106.537C29.8574 99.0976 103.712 133.005 107.936 137.053C116.05 144.828 122.063 138.788 129.485 130.335C134.354 124.79 141.882 119.967 145.796 114.26C147.979 111.075 154.346 109.882 155.542 106.621Z" fill="#2D8C3C"/>
<path d="M144.27 118.999C143.692 118.999 143.127 118.832 142.642 118.519C142.156 118.205 141.772 117.758 141.535 117.231C141.298 116.705 141.218 116.121 141.304 115.549C141.391 114.978 141.641 114.444 142.024 114.012C144.716 111.088 147.716 108.463 150.97 106.182C152.211 105.247 154.226 103.378 153.776 101.36C153.305 99.6694 152.66 98.0322 151.849 96.4754C150.349 93.2931 148.798 90.0024 149.494 86.5116C153.829 64.7821 144.46 48.5984 135.838 38.8484C129.955 32.1972 116.898 21.2143 105.032 18.2182C87.342 13.7511 69.4856 19.8173 58.675 26.984C56.9903 27.9984 55.2459 28.9103 53.4514 29.7147C51.6194 30.5954 49.5432 31.5937 47.342 32.7701C33.1526 40.3512 29.3635 52.8797 30.5491 62.0766C30.6495 62.8651 30.4329 63.6613 29.9468 64.2903C29.4607 64.9193 28.7448 65.3296 27.9564 65.4312C27.1679 65.5328 26.3714 65.3174 25.7417 64.8322C25.112 64.347 24.7007 63.6317 24.5979 62.8434C22.4006 45.7885 33.4456 33.3923 44.5139 27.4782C46.8284 26.2416 48.9661 25.2139 50.8518 24.3072C52.3945 23.6121 53.8995 22.8363 55.3606 21.983C67.2405 14.1077 86.9133 7.45413 106.501 12.4008C115.157 14.5862 129.435 22.5509 140.332 34.8736C149.855 45.6407 160.195 63.5432 155.379 87.6858C155.07 89.2355 156.191 91.6158 157.276 93.9176C158.285 95.8698 159.075 97.9276 159.631 100.054C160.496 103.925 158.655 107.906 154.579 110.975C151.649 113.017 148.946 115.368 146.518 117.987C146.236 118.306 145.89 118.561 145.503 118.736C145.115 118.91 144.695 119 144.27 118.999Z" fill="black"/>
<path d="M115.262 143.458C111.754 143.458 108.26 141.812 104.862 138.557C100.805 135.098 45.6358 115.009 35.6358 112.519C31.1319 111.398 22.9893 101.189 19.2422 89.7078C17.2403 83.5755 19.9112 78.801 23.0958 74.5549C23.5736 73.9193 24.2841 73.4994 25.0713 73.3874C25.8586 73.2753 26.6581 73.4804 27.2942 73.9574C27.9304 74.4345 28.3511 75.1445 28.4641 75.9316C28.577 76.7187 28.3729 77.5185 27.8966 78.1552C24.7511 82.3482 23.9786 84.8841 24.9454 87.8459C28.4229 98.4976 35.3761 106.038 37.1505 106.716C44.2628 108.484 103.967 129.388 109.014 134.224C111.441 136.55 113.618 137.605 115.673 137.442C118.57 137.214 121.826 134.599 125.918 129.213C126.4 128.58 127.113 128.165 127.901 128.058C128.688 127.951 129.486 128.161 130.119 128.642C130.752 129.123 131.169 129.835 131.277 130.623C131.385 131.41 131.176 132.209 130.695 132.842C127.146 137.515 122.284 142.94 116.144 143.423C115.85 143.447 115.556 143.458 115.262 143.458Z" fill="black"/>
<path d="M140.095 103.509C140.091 103.451 140.084 103.394 140.075 103.338C139.867 101.908 139.295 100.556 138.412 99.4122C148.795 88.808 142.333 70.4037 138.775 63.0872C135.01 55.3457 127.514 43.8349 119.886 40.2024C112.258 36.5699 93.7322 27.1254 69.3944 37.2964C45.0566 47.4674 36.4804 80.7312 36.1015 81.8594C34.8529 86.0814 33.9543 90.3992 33.4148 94.7688C32.6133 98.6372 32.386 102.603 32.74 106.537C32.7447 113.797 34.2957 120.972 37.2897 127.586C43.3507 140.192 63.3395 147.437 67.6513 149.234C67.6513 149.234 68.2138 161.528 66.5792 163.163C67.6689 168.067 78.8389 169.974 78.8389 169.974C81.5388 170.226 84.2583 169.782 86.7382 168.685C89.2181 167.589 91.3758 165.875 93.0056 163.708V149.813C93.0056 149.813 104 144.758 110.421 137.786C115.087 133.281 118.369 125.928 119.107 124.186C120.29 124.351 121.482 124.434 122.676 124.433C126.183 124.433 131.1 123.72 134.886 120.38C138.959 116.787 140.711 111.111 140.095 103.509Z" fill="white"/>
<path d="M57.0187 104.914C59.813 104.914 62.0783 102.649 62.0783 99.8546C62.0783 97.0602 59.813 94.7949 57.0187 94.7949C54.2243 94.7949 51.959 97.0602 51.959 99.8546C51.959 102.649 54.2243 104.914 57.0187 104.914Z" fill="black"/>
<path d="M92.5831 111.68C95.3775 111.68 97.6428 109.415 97.6428 106.621C97.6428 103.826 95.3775 101.561 92.5831 101.561C89.7887 101.561 87.5234 103.826 87.5234 106.621C87.5234 109.415 89.7887 111.68 92.5831 111.68Z" fill="black"/>
<path d="M67.3268 166.189C66.7916 166.188 66.2664 166.045 65.8054 165.773C65.3445 165.501 64.9647 165.11 64.7053 164.642C64.446 164.174 64.3166 163.645 64.3306 163.11C64.3446 162.575 64.5014 162.054 64.7848 161.6C65.4997 160.234 65.7321 154.716 65.2711 152.438C64.8376 152.326 64.2897 152.198 63.8102 152.085C57.819 150.682 43.7897 147.395 36.4293 131.714C27.0563 111.744 33.0876 82.8215 33.1588 82.5533C37.3971 66.6503 46.2204 33.5445 85.6393 29.6104C94.3261 28.7218 103.101 29.8473 111.282 32.8996C119.463 35.9518 126.831 40.8487 132.813 47.21C143.713 58.7052 148.726 73.3393 146.569 87.3599C146.509 87.7495 146.374 88.1236 146.169 88.4607C145.965 88.7979 145.697 89.0914 145.379 89.3247C145.061 89.5579 144.7 89.7263 144.318 89.8201C143.935 89.9139 143.537 89.9313 143.148 89.8714C142.758 89.8114 142.384 89.6753 142.047 89.4707C141.71 89.2662 141.417 88.9972 141.184 88.6793C140.951 88.3613 140.783 88.0005 140.689 87.6176C140.596 87.2346 140.579 86.837 140.639 86.4475C142.512 74.2741 138.073 61.4773 128.459 51.3383C123.104 45.6442 116.51 41.2607 109.187 38.5279C101.865 35.7951 94.0106 34.7866 86.235 35.5808C50.9977 39.0976 43.1686 68.2958 38.9723 84.0391C38.736 85.186 33.529 111.412 41.861 129.164C47.987 142.216 59.5983 144.936 65.1784 146.243C67.8327 146.865 69.2946 147.208 70.193 148.641C72.2116 151.941 71.6999 161.905 69.862 164.797C69.591 165.224 69.2165 165.576 68.7733 165.819C68.33 166.062 67.8324 166.189 67.3268 166.189Z" fill="black"/>
<path d="M105.768 143.786C105.16 143.786 104.566 143.601 104.066 143.256C103.565 142.911 103.181 142.422 102.964 141.853C102.748 141.285 102.709 140.664 102.853 140.074C102.998 139.483 103.318 138.95 103.772 138.545C112.399 130.863 113.616 122.421 113.628 122.336C113.68 121.941 113.811 121.559 114.012 121.214C114.214 120.87 114.481 120.568 114.8 120.328C115.119 120.087 115.482 119.912 115.869 119.813C116.256 119.715 116.659 119.693 117.054 119.751C117.141 119.764 126.568 121.086 131.813 116.171C134.598 113.563 135.797 109.474 135.378 104.017C134.35 98.0318 129.808 96.5455 126.21 97.0974C125.424 97.2156 124.624 97.0176 123.985 96.5468C123.345 96.076 122.918 95.3709 122.798 94.5859C122.678 93.801 122.873 93.0003 123.342 92.3594C123.811 91.7185 124.515 91.2896 125.3 91.1669C131.903 90.153 139.744 93.4744 141.319 103.17C141.332 103.249 141.342 103.329 141.348 103.409C141.952 110.859 140.114 116.635 135.887 120.576C130.591 125.515 123.009 126.037 118.949 125.908C116.899 132.55 113.022 138.482 107.762 143.026C107.214 143.516 106.504 143.787 105.768 143.786Z" fill="black"/>
<path d="M139.988 98.5681C139.988 98.5681 147.979 94.7356 148.887 85.4727C149.795 76.2098 147.616 68.2183 140.533 55.6862C133.449 43.154 114.151 14.2858 71.5855 24.1618C64.9517 25.5863 58.7038 28.4264 53.2687 32.4879C47.8337 36.5494 43.3396 41.7365 40.0938 47.6947C35.3715 56.4127 27.0198 86.7 29.9258 90.1509C33.1051 92.4979 37.5124 91.9587 37.8187 90.0091C39.7041 78.0058 52.4381 53.6898 55.3034 61.5362C59.4896 72.9998 98.8757 109.608 125.903 91.1032C130.862 90.3066 136.718 93.1194 139.988 98.5681Z" fill="#2D8C3C"/>
<path d="M111.963 100.003C88.3254 100.003 61.1623 80.5136 52.6027 62.8439C52.2573 62.128 52.2102 61.3042 52.4716 60.5535C52.733 59.8029 53.2817 59.1866 53.9971 58.8401C54.7125 58.4936 55.5362 58.4451 56.2872 58.7054C57.0383 58.9657 57.6555 59.5133 58.0031 60.2282C68.2755 81.4348 103.694 101.1 124.487 91.4129C124.845 91.2455 125.232 91.1503 125.626 91.1326C126.02 91.1149 126.414 91.1751 126.784 91.3098C127.155 91.4445 127.496 91.6511 127.787 91.9176C128.078 92.1841 128.313 92.5053 128.48 92.863C128.646 93.2206 128.741 93.6076 128.757 94.0018C128.774 94.3959 128.713 94.7896 128.578 95.1601C128.442 95.5306 128.235 95.8707 127.968 96.161C127.7 96.4514 127.379 96.6861 127.021 96.8519C122.293 98.9934 117.153 100.069 111.963 100.003Z" fill="black"/>
<path d="M39.1467 133.44C38.5765 133.44 38.0181 133.278 37.5367 132.972C37.0554 132.666 36.6711 132.23 36.4289 131.714C29.6555 117.283 30.8693 98.3706 32.1965 88.3817C32.2477 87.9906 32.3756 87.6135 32.5727 87.2719C32.7698 86.9303 33.0324 86.6309 33.3453 86.3909C33.6583 86.1509 34.0155 85.975 34.3965 85.8732C34.7775 85.7713 35.1749 85.7457 35.5659 85.7976C35.9568 85.8495 36.3337 85.9781 36.6749 86.1758C37.0162 86.3736 37.3151 86.6367 37.5545 86.95C37.7939 87.2634 37.9692 87.621 38.0704 88.0022C38.1715 88.3834 38.1964 88.7808 38.1438 89.1717C37.1458 96.6887 35.509 115.633 41.8606 129.164C42.0748 129.621 42.1702 130.125 42.1381 130.629C42.106 131.133 41.9473 131.62 41.6768 132.046C41.4062 132.473 41.0325 132.824 40.5903 133.067C40.1481 133.311 39.6515 133.439 39.1467 133.44V133.44Z" fill="black"/>
</svg>
