<svg width="180" height="171" viewBox="0 0 180 171" fill="none" xmlns="http://www.w3.org/2000/svg">
<path d="M159.211 104.915C160.874 96.1574 153.34 93.5703 154.656 86.9754C163.35 43.3956 122.415 17.3053 106.354 13.2496C87.6572 8.52819 69.5676 13.7421 57.1648 21.9639C50.8789 26.1307 44.1381 28.065 30.0057 39.285C23.9223 44.1148 22.6334 55.787 24.3516 61.9724C26.0697 68.1577 25.7149 72.6928 22.6222 76.8164C19.5295 80.9399 18.311 84.3283 19.89 89.1664C23.7524 101.001 33.7034 112.439 32.6059 109.609C29.6255 101.921 103.307 136.276 107.672 140.459C116.057 148.493 123.275 140.474 130.945 131.739C135.976 126.009 140.09 122.096 146.741 117.388C149.998 115.083 158.301 109.708 159.211 104.915H159.211Z" fill="black"/>
<path d="M140.118 103.51C140.114 103.452 140.106 103.395 140.098 103.339C139.764 101.283 139.32 100.898 138.434 99.4132C148.817 88.809 142.356 70.4047 138.797 63.0882C135.033 55.3467 127.537 43.8359 119.908 40.2034C112.28 36.5709 93.7544 27.1263 69.4166 37.2974C45.0788 47.4684 36.5026 80.7322 36.1238 81.8604C36.085 81.9747 34.4135 87.2334 33.437 94.7699C32.6286 98.5281 32.4273 102.507 32.7623 106.538C32.903 113.422 34.0762 120.856 37.312 127.587C43.373 140.193 63.3617 147.438 67.6735 149.235C67.6735 149.235 68.236 161.529 66.6014 163.164C67.6911 168.068 78.8611 169.975 78.8611 169.975C88.5411 170.611 93.0279 163.709 93.0279 163.709V149.814C93.0279 149.814 104.022 144.759 110.443 137.787C115.109 133.282 118.392 125.929 119.13 124.187C119.912 124.299 121.169 124.434 122.699 124.434C126.205 124.434 131.122 123.721 134.908 120.381C138.981 116.788 140.733 111.112 140.118 103.51L140.118 103.51Z" fill="white"/>
<path d="M57.0401 104.915C59.8345 104.915 62.0998 102.65 62.0998 99.8556C62.0998 97.0612 59.8345 94.7959 57.0401 94.7959C54.2458 94.7959 51.9805 97.0612 51.9805 99.8556C51.9805 102.65 54.2458 104.915 57.0401 104.915Z" fill="black"/>
<path d="M92.6026 111.681C95.397 111.681 97.6623 109.416 97.6623 106.622C97.6623 103.827 95.397 101.562 92.6026 101.562C89.8083 101.562 87.543 103.827 87.543 106.622C87.543 109.416 89.8083 111.681 92.6026 111.681Z" fill="black"/>
<path d="M67.3482 166.19C66.7984 166.19 66.2417 166.039 65.7427 165.722C64.3511 164.838 63.9341 162.998 64.8062 161.601C65.52 160.235 65.7525 154.718 65.2915 152.439C64.8589 152.327 64.311 152.199 63.8316 152.086C57.8403 150.683 43.811 147.396 36.4507 131.715C26.9683 111.512 33.106 82.8336 33.1773 82.5642C37.4185 66.6512 46.2437 33.5454 85.6607 29.6114C103.362 27.8451 120.552 34.2591 132.834 47.2101C143.733 58.7053 148.748 73.3396 146.59 87.3608C146.338 88.999 144.798 90.12 143.169 89.8698C141.532 89.6178 140.409 88.0861 140.661 86.4485C142.533 74.2746 138.093 61.4775 128.479 51.3385C117.485 39.7439 102.093 34.0014 86.2564 35.5817C51.021 39.0984 43.1899 68.2952 38.9937 84.0387C38.7544 85.2018 33.562 111.438 41.8823 129.165C48.0083 142.217 59.6196 144.937 65.1997 146.244C67.853 146.866 69.3149 147.208 70.2144 148.64C72.2319 151.943 71.7202 161.906 69.8833 164.797C69.312 165.697 68.3403 166.19 67.3481 166.19H67.3482Z" fill="black"/>
<path d="M105.79 143.787C104.964 143.787 104.142 143.448 103.549 142.782C102.446 141.545 102.557 139.648 103.794 138.547C112.421 130.864 113.637 122.422 113.649 122.338C113.755 121.54 114.179 120.81 114.823 120.327C115.466 119.845 116.275 119.631 117.074 119.753C117.162 119.766 126.588 121.087 131.834 116.172C134.619 113.564 135.818 109.475 135.399 104.018C134.371 98.032 129.829 96.5471 126.232 97.0987C124.594 97.35 123.063 96.2263 122.812 94.5886C122.56 92.9509 123.684 91.4195 125.321 91.1682C131.938 90.1529 139.767 93.4771 141.34 103.171C141.353 103.251 141.362 103.33 141.369 103.41C141.973 110.861 140.135 116.636 135.908 120.577C130.611 125.516 123.023 126.038 118.97 125.909C117.879 129.672 115.016 136.587 107.784 143.027C107.213 143.537 106.5 143.787 105.79 143.787Z" fill="black"/>
<path d="M140.009 98.5691C140.009 98.5691 148.001 94.7366 148.909 85.4737C149.817 76.2108 147.637 68.2193 140.554 55.6872C133.471 43.155 114.172 14.2868 71.607 24.1628C54.4233 28.1497 44.8375 38.9776 40.1152 47.6956C35.393 56.4137 27.0412 86.701 29.9472 90.1519C33.1266 92.4989 37.5339 91.9597 37.8402 90.01C39.7256 78.0068 50.5149 56.0357 53.3802 63.8821C57.5664 75.3458 98.8972 109.609 125.924 91.1041C130.884 90.3075 136.74 93.1203 140.009 98.5691V98.5691Z" fill="black"/>
<path d="M111.987 100.004C88.3473 100.004 61.1852 80.5161 52.6246 62.8454C51.903 61.3543 52.526 59.5599 54.0172 58.8376C55.5055 58.1164 57.3024 58.7375 58.025 60.2294C68.2975 81.4366 103.721 101.099 124.51 91.4143C126.014 90.7146 127.797 91.3653 128.497 92.8671C129.196 94.369 128.546 96.1537 127.044 96.8533C122.366 99.032 117.261 100.004 111.987 100.004L111.987 100.004Z" fill="black"/>
<path d="M39.1682 133.441C38.0412 133.441 36.9611 132.803 36.4504 131.715C29.677 117.284 30.8908 98.3717 32.218 88.3828C32.4358 86.7401 33.9436 85.5853 35.5861 85.8039C37.2287 86.022 38.384 87.5304 38.1652 89.1728C37.1672 96.6898 35.5305 115.634 41.882 129.165C42.5861 130.665 41.9406 132.452 40.4406 133.156C40.0285 133.349 39.5949 133.441 39.1682 133.441Z" fill="black"/>
</svg>
