<svg width="180" height="171" viewBox="0 0 180 171" fill="none" xmlns="http://www.w3.org/2000/svg">
<path d="M138.477 104.472C138.473 104.414 138.465 104.357 138.457 104.3C138.123 102.244 137.679 101.859 136.794 100.375C147.177 89.7704 140.715 71.3661 137.157 64.0496C133.392 56.3081 125.896 44.7973 118.268 41.1648C110.64 37.5323 92.1137 28.0878 67.7759 38.2588C43.4382 48.4298 34.862 81.6936 34.4831 82.8218C34.4444 82.9361 32.7729 88.1949 31.7964 95.7313C30.988 99.4895 30.7866 103.468 31.1216 107.5C31.2623 114.383 32.4355 121.817 35.6713 128.548C41.7324 141.155 61.7211 148.399 66.0329 150.197C66.0329 150.197 66.5954 162.491 64.9608 164.125C66.0505 169.029 77.2205 170.936 77.2205 170.936C86.9004 171.573 91.3873 164.67 91.3873 164.67V150.776C91.3873 150.776 102.381 145.72 108.803 138.748C113.468 134.243 116.751 126.891 117.489 125.148C118.271 125.26 119.529 125.395 121.058 125.395C124.565 125.395 129.482 124.683 133.267 121.342C137.34 117.749 139.093 112.073 138.477 104.472V104.472Z" fill="white"/>
<path d="M49.8867 62.165C49.8867 62.165 44.8867 81.165 42.8867 83.165C40.8867 85.165 34.8867 89.165 34.8867 88.165C34.8867 87.165 42.8867 63.165 42.8867 63.165L49.8867 62.165Z" fill="#82BE28"/>
<path d="M57.0147 104.877C59.8091 104.877 62.0744 102.611 62.0744 99.817C62.0744 97.0226 59.8091 94.7573 57.0147 94.7573C54.2204 94.7573 51.9551 97.0226 51.9551 99.817C51.9551 102.611 54.2204 104.877 57.0147 104.877Z" fill="black"/>
<path d="M92.5792 111.643C95.3736 111.643 97.6389 109.377 97.6389 106.583C97.6389 103.789 95.3736 101.523 92.5792 101.523C89.7848 101.523 87.5195 103.789 87.5195 106.583C87.5195 109.377 89.7848 111.643 92.5792 111.643Z" fill="black"/>
<path d="M67.3245 166.151C66.7747 166.151 66.218 166 65.719 165.683C64.3274 164.799 63.9104 162.959 64.7825 161.562C65.4964 160.196 65.7288 154.678 65.2678 152.4C64.8343 152.288 64.2864 152.16 63.8069 152.047C57.8157 150.644 43.7864 147.357 36.4261 131.676C26.9456 111.476 33.0823 82.7947 33.1536 82.5253C37.3938 66.6123 46.2171 33.5065 85.636 29.5723C102.16 27.9232 117.176 33.2619 127.931 44.6037C138.485 55.7342 143.392 71.432 141.059 86.5955C140.807 88.2336 139.259 89.355 137.638 89.1044C136 88.8524 134.877 87.3206 135.129 85.683C137.182 72.3397 132.864 58.5262 123.576 48.7321C114.127 38.766 100.864 34.0829 86.2317 35.5427C50.9944 39.0595 43.1653 68.2562 38.97 83.9996C38.7307 85.1627 33.5374 111.399 41.8577 129.126C47.9837 142.178 59.595 144.898 65.1751 146.205C67.8294 146.827 69.2913 147.17 70.1897 148.602C72.2073 151.902 71.6966 161.866 69.8596 164.758C69.2884 165.658 68.3167 166.151 67.3245 166.151Z" fill="black"/>
<path d="M115.887 78.165C115.887 78.165 113.887 88.165 112.887 96.165C112.254 101.225 113.887 110.165 116.887 106.165C119.887 102.165 120.887 97.165 125.887 97.165C130.887 97.165 139.094 102.139 139.094 102.139L144.094 84.1393L115.887 78.165Z" fill="#82BE28"/>
<path d="M41.6765 42.4304C46.2549 37.5995 45.9433 29.63 65.1439 28.5633C71.5441 23.2298 74.6917 22.6766 80.0777 19.8963C91.0497 14.2322 101.889 22.9545 113.145 28.0297C124.402 33.1049 144.33 58.967 145.094 69.1397C145.858 79.3123 142.58 81.287 142.58 81.287C142.58 81.287 122.896 86.9776 113.296 85.9109C108.296 83.9109 100.205 71.4362 88.9749 64.3697C80.3777 58.9596 65.1439 54.1641 65.1439 54.1641C65.1439 54.1641 37.8866 72.1654 33.1429 68.0312C31.8866 65.1654 35.6721 48.7658 41.6765 42.4304V42.4304Z" fill="black"/>
<path d="M111.495 90.7697C110.49 90.7697 109.509 90.2652 108.941 89.3483C99.746 74.4943 84.0409 56.5506 61.4404 55.4206C59.7851 55.3378 58.5107 53.9293 58.5937 52.2745C58.6767 50.6196 60.1025 49.3463 61.7392 49.428C81.6865 50.4254 99.7724 63.1375 114.043 86.1902C114.915 87.5989 114.48 89.4479 113.071 90.32C112.579 90.6245 112.034 90.7697 111.495 90.7697Z" fill="black"/>
<path d="M142.094 85.1403C141.743 85.1403 141.388 85.0786 141.04 84.9485C139.489 84.3667 138.703 82.6374 139.285 81.0861C139.544 80.3938 139.812 79.7243 140.077 79.0646C142.623 72.7124 144.634 67.6951 131.391 47.8292C115.014 23.264 88.4247 20.2275 75.6093 25.9086C72.9628 27.082 69.2616 29.5873 68.7137 30.8383C68.0507 32.3557 66.2811 33.0488 64.7626 32.3839C63.245 31.7197 62.5526 29.9507 63.2177 28.4328C65.1464 24.0259 72.8505 20.5687 73.1776 20.4236C87.8544 13.9156 118.094 17.0677 136.383 44.5011C150.369 65.4814 149.213 72.3984 145.646 81.297C145.398 81.9157 145.146 82.5435 144.902 83.1929C144.451 84.3971 143.308 85.1403 142.094 85.1403Z" fill="black"/>
<path d="M34.6242 70.2681C34.3693 70.2681 34.1164 70.249 33.8684 70.2077C32.7443 70.0209 31.7756 69.4185 31.1408 68.5113C29.3273 65.9215 30.6516 60.3808 32.0822 56.189C34.2551 49.8081 41.0529 34.2584 57.2024 27.7364C58.5188 27.2044 61.0783 26.6357 64.3137 26.6357C65.9709 26.6357 67.3137 27.9789 67.3137 29.6357C67.3137 31.2926 65.9709 32.6357 64.3137 32.6357C61.6711 32.6357 59.9065 33.1149 59.4494 33.2996C45.5998 38.8933 39.6682 52.5241 37.7609 58.1249C37.1594 59.8889 36.6516 61.9324 36.4006 63.4563C36.7072 63.2739 37.0119 63.0763 37.2824 62.8801C38.6223 61.9086 40.4963 62.2037 41.4709 63.5415C42.4455 64.8793 42.1545 66.7514 40.8176 67.7277C39.7151 68.5335 37.0578 70.268 34.6242 70.2681L34.6242 70.2681Z" fill="black"/>
<path d="M113.724 90.8799C112.813 90.8799 111.954 90.8393 111.161 90.7511C109.515 90.5682 108.327 89.0849 108.511 87.4382C108.694 85.7908 110.192 84.6062 111.823 84.7878C119.188 85.605 135.51 81.0899 141.183 79.2813C142.759 78.7779 144.448 79.6496 144.952 81.2281C145.455 82.8067 144.584 84.4944 143.005 84.9977C142.193 85.257 124.425 90.8799 113.724 90.8799V90.8799Z" fill="black"/>
<path d="M105.765 143.749C104.939 143.749 104.116 143.409 103.524 142.744C102.421 141.506 102.531 139.61 103.769 138.508C112.396 130.826 113.612 122.384 113.624 122.299C113.731 121.501 114.154 120.772 114.799 120.289C115.442 119.806 116.253 119.593 117.05 119.714C117.139 119.727 126.565 121.049 131.81 116.134C134.595 113.525 135.793 109.437 135.374 103.979C134.346 97.9946 129.811 96.5085 126.206 97.0603C124.563 97.3118 123.036 96.1878 122.786 94.5501C122.534 92.9124 123.658 91.381 125.296 91.1297C131.897 90.116 139.739 93.4373 141.316 103.132C141.328 103.212 141.338 103.292 141.345 103.372C141.948 110.822 140.111 116.598 135.884 120.539C130.587 125.478 123.005 125.999 118.945 125.871C117.854 129.634 114.991 136.549 107.759 142.989C107.188 143.498 106.475 143.749 105.765 143.749L105.765 143.749Z" fill="black"/>
</svg>
