<svg width="180" height="172" viewBox="0 0 180 172" fill="none" xmlns="http://www.w3.org/2000/svg">
<path d="M138.467 104.479C138.462 104.422 138.455 104.365 138.447 104.308C138.239 102.878 137.666 101.526 136.783 100.382C147.166 89.7782 140.705 71.3739 137.146 64.0574C133.381 56.3159 125.886 44.8051 118.257 41.1726C110.629 37.5401 92.1033 28.0956 67.7655 38.2666C43.4276 48.4376 34.8515 81.7014 34.4726 82.8296C33.224 87.0517 32.3254 91.3694 31.7859 95.7391C30.9844 99.6075 30.7571 103.573 31.1111 107.507C31.1158 114.767 32.6668 121.943 35.6608 128.556C41.7218 141.162 61.7106 148.407 66.0224 150.205C66.0224 150.205 66.5849 162.498 64.9503 164.133C66.04 169.037 77.21 170.944 77.21 170.944C79.9099 171.196 82.6294 170.753 85.1093 169.656C87.5892 168.559 89.7469 166.845 91.3768 164.678V150.783C91.3768 150.783 102.371 145.728 108.792 138.756C113.458 134.251 116.74 126.899 117.478 125.156C118.661 125.322 119.854 125.404 121.048 125.403C124.554 125.403 129.471 124.69 133.257 121.35C137.33 117.757 139.082 112.081 138.467 104.479Z" fill="white"/>
<path d="M57.005 104.884C59.7994 104.884 62.0647 102.619 62.0647 99.8248C62.0647 97.0304 59.7994 94.7651 57.005 94.7651C54.2106 94.7651 51.9453 97.0304 51.9453 99.8248C51.9453 102.619 54.2106 104.884 57.005 104.884Z" fill="black"/>
<path d="M92.5694 111.651C95.3638 111.651 97.6291 109.385 97.6291 106.591C97.6291 103.797 95.3638 101.531 92.5694 101.531C89.7751 101.531 87.5098 103.797 87.5098 106.591C87.5098 109.385 89.7751 111.651 92.5694 111.651Z" fill="black"/>
<path d="M67.3131 166.159C66.778 166.159 66.2527 166.015 65.7917 165.743C65.3308 165.471 64.951 165.081 64.6917 164.613C64.4323 164.144 64.303 163.615 64.3169 163.08C64.3309 162.545 64.4877 162.024 64.7711 161.57C65.486 160.205 65.7184 154.687 65.2575 152.409C64.8239 152.296 64.276 152.168 63.7965 152.056C57.8053 150.652 43.776 147.366 36.4157 131.684C27.0427 111.714 33.0739 82.7918 33.1452 82.5236C37.3834 66.6206 46.2067 33.5149 85.6256 29.5806C102.146 27.9315 117.167 33.2702 127.921 44.612C133.146 50.16 137.043 56.8226 139.317 64.097C141.592 71.3713 142.184 79.0672 141.048 86.6038C140.989 86.9931 140.853 87.3669 140.648 87.7036C140.444 88.0404 140.175 88.3337 139.857 88.5666C139.54 88.7995 139.179 88.9676 138.797 89.0613C138.414 89.1549 138.017 89.1723 137.627 89.1124C137.238 89.0525 136.864 88.9164 136.528 88.7121C136.191 88.5077 135.898 88.2391 135.665 87.9214C135.432 87.6037 135.264 87.2433 135.17 86.8606C135.076 86.478 135.059 86.0807 135.119 85.6913C136.118 79.0594 135.597 72.2873 133.595 65.8862C131.594 59.4851 128.165 53.6223 123.566 48.7404C114.117 38.7743 100.853 34.0912 86.2214 35.551C50.9841 39.0678 43.155 68.266 38.9587 84.0094C38.7224 85.1563 33.5154 111.382 41.8474 129.135C47.9734 142.186 59.5847 144.906 65.1648 146.214C67.8181 146.835 69.28 147.178 70.1794 148.61C72.198 151.911 71.6862 161.875 69.8484 164.768C69.5774 165.195 69.2029 165.546 68.7596 165.789C68.3164 166.033 67.8188 166.16 67.3131 166.159Z" fill="black"/>
<path d="M105.755 143.756C105.147 143.756 104.553 143.572 104.052 143.227C103.551 142.882 103.167 142.392 102.95 141.824C102.734 141.256 102.695 140.635 102.84 140.044C102.984 139.453 103.304 138.92 103.759 138.516C112.386 130.834 113.602 122.391 113.614 122.307C113.667 121.911 113.798 121.53 113.999 121.185C114.2 120.84 114.468 120.539 114.787 120.298C115.105 120.058 115.469 119.883 115.855 119.784C116.242 119.685 116.645 119.664 117.04 119.722C117.128 119.735 126.554 121.056 131.8 116.142C134.585 113.533 135.783 109.445 135.364 103.987C134.336 98.0024 129.795 96.5163 126.196 97.0681C125.411 97.1863 124.611 96.9883 123.971 96.5175C123.332 96.0467 122.905 95.3415 122.784 94.5566C122.664 93.7716 122.86 92.9709 123.328 92.33C123.797 91.6891 124.501 91.2603 125.286 91.1376C131.888 90.1238 139.73 93.4451 141.305 103.14C141.318 103.22 141.328 103.299 141.335 103.379C141.938 110.83 140.1 116.606 135.874 120.547C130.577 125.486 122.987 126.007 118.935 125.879C116.885 132.521 113.009 138.452 107.749 142.997C107.2 143.487 106.49 143.757 105.755 143.756Z" fill="black"/>
<path d="M115.877 78.1729C115.877 78.1729 113.877 88.1728 112.877 96.1728C112.245 101.232 113.877 110.173 116.877 106.173C119.877 102.173 120.877 97.1728 125.877 97.1728C130.877 97.1728 139.084 102.147 139.084 102.147L144.084 84.1471L115.877 78.1729Z" fill="black"/>
<path d="M49.877 62.1729C49.877 62.1729 44.877 81.1728 42.877 83.1728C40.877 85.1728 34.877 89.1728 34.877 88.1728C34.877 87.1728 42.877 63.1729 42.877 63.1729L49.877 62.1729Z" fill="black"/>
<path d="M41.6667 42.4382C46.2451 37.6073 45.9335 29.6378 65.1341 28.5711C71.5343 23.2376 74.682 22.6844 80.0679 19.9041C91.04 14.24 101.879 22.9623 113.136 28.0375C124.392 33.1127 144.32 58.9748 145.084 69.1475C145.848 79.3201 143.482 83.7774 143.482 83.7774C143.482 83.7774 124.083 89.8441 114.482 88.7774C109.482 86.7774 100.712 70.844 89.4822 63.7774C80.885 58.3673 65.1341 54.1719 65.1341 54.1719C65.1341 54.1719 37.8769 72.1732 33.1331 68.039C31.8769 65.1732 35.6624 48.7737 41.6667 42.4382Z" fill="#82BE28"/>
<path d="M112.485 94.7778C111.974 94.7785 111.471 94.6482 111.024 94.3994C110.577 94.1506 110.201 93.7915 109.932 93.3564C94.5498 68.5082 81.2109 57.5676 65.333 56.7736C64.5383 56.734 63.792 56.3803 63.2581 55.7904C62.7242 55.2005 62.4465 54.4226 62.4861 53.6279C62.5258 52.8333 62.8795 52.0869 63.4694 51.553C64.0593 51.0191 64.8372 50.7414 65.6318 50.7811C88.3652 51.9178 103.362 71.3447 115.033 90.1983C115.314 90.6525 115.469 91.1736 115.481 91.7076C115.494 92.2416 115.363 92.7692 115.104 93.236C114.844 93.7028 114.464 94.0918 114.004 94.3628C113.544 94.6339 113.02 94.7771 112.485 94.7778Z" fill="black"/>
<path d="M143.084 89.148C142.599 89.1477 142.122 89.0299 141.692 88.8049C141.263 88.5799 140.895 88.2542 140.619 87.8558C140.343 87.4574 140.167 86.998 140.107 86.517C140.047 86.036 140.105 85.5477 140.275 85.0938C143.096 77.569 146.014 69.7881 131.381 47.837C122.195 34.0585 108.155 25.2877 92.86 23.7735C82.4489 22.7432 74.6452 25.4346 71.5221 28.5586C71.2437 28.8378 70.913 29.0593 70.5488 29.2105C70.1847 29.3618 69.7944 29.4397 69.4001 29.44C69.0058 29.4402 68.6154 29.3628 68.2511 29.212C67.8868 29.0612 67.5558 28.8401 67.277 28.5613C66.9982 28.2825 66.7771 27.9515 66.6264 27.5871C66.4756 27.2228 66.3982 26.8324 66.3984 26.4381C66.3987 26.0438 66.4767 25.6535 66.628 25.2894C66.7792 24.9253 67.0008 24.5946 67.2799 24.3161C72.3903 19.2059 82.4235 16.7106 93.4508 17.8027C110.542 19.4947 126.186 29.2287 136.373 44.5088C152.712 69.0171 148.93 79.0993 145.892 87.2005C145.678 87.7724 145.294 88.2653 144.792 88.6133C144.29 88.9613 143.694 89.1478 143.084 89.148Z" fill="black"/>
<path d="M34.2026 62.5058C33.7482 62.5056 33.2998 62.4023 32.8912 62.2036C32.4825 62.005 32.1243 61.7162 31.8435 61.359C31.5626 61.0018 31.3665 60.5856 31.2699 60.1416C31.1732 59.6976 31.1786 59.2375 31.2856 58.7959C31.5336 57.7759 37.6216 33.7351 60.105 26.7029C60.4812 26.5842 60.8773 26.5409 61.2703 26.5755C61.6634 26.6101 62.0457 26.7219 62.3955 26.9045C62.7453 27.0871 63.0556 27.3369 63.3087 27.6395C63.5618 27.9422 63.7527 28.2919 63.8705 28.6685C63.9883 29.045 64.0306 29.4412 63.9951 29.8341C63.9595 30.2271 63.8468 30.6092 63.6634 30.9585C63.48 31.3079 63.2295 31.6176 62.9262 31.87C62.6229 32.1224 62.2728 32.3124 61.896 32.4293C42.6147 38.4601 37.1684 59.9975 37.1157 60.2143C36.9568 60.8673 36.5833 61.448 36.0551 61.8634C35.527 62.2789 34.8746 62.5051 34.2026 62.5058Z" fill="black"/>
</svg>
