<svg width="180" height="171" viewBox="0 0 180 171" fill="none" xmlns="http://www.w3.org/2000/svg">
<path d="M140.068 103.513C140.064 103.455 140.057 103.398 140.048 103.342C139.84 101.912 139.267 100.56 138.385 99.4162C148.768 88.8119 142.306 70.4076 138.748 63.0911C134.983 55.3497 127.487 43.8388 119.859 40.2063C112.231 36.5738 93.7048 27.1293 69.367 37.3003C45.0292 47.4713 36.4531 80.7351 36.0742 81.8633C34.8256 86.0854 33.9269 90.4031 33.3874 94.7728C32.586 98.6412 32.3586 102.606 32.7127 106.541C32.7173 113.801 34.2683 120.976 37.2624 127.59C43.3234 140.196 63.3121 147.441 67.624 149.238C67.624 149.238 68.1864 161.532 66.5518 163.167C67.6416 168.071 78.8115 169.978 78.8115 169.978C81.5115 170.23 84.231 169.786 86.7109 168.689C89.1908 167.592 91.3485 165.879 92.9783 163.712V149.817C92.9783 149.817 103.972 144.761 110.394 137.789C115.059 133.285 118.342 125.932 119.08 124.189C120.262 124.355 121.455 124.438 122.649 124.437C126.156 124.437 131.073 123.724 134.859 120.384C138.931 116.791 140.684 111.115 140.068 103.513Z" fill="white"/>
<path d="M56.9913 104.918C59.7857 104.918 62.051 102.653 62.051 99.8585C62.051 97.0641 59.7857 94.7988 56.9913 94.7988C54.1969 94.7988 51.9316 97.0641 51.9316 99.8585C51.9316 102.653 54.1969 104.918 56.9913 104.918Z" fill="black"/>
<path d="M92.5558 111.684C95.3501 111.684 97.6154 109.419 97.6154 106.625C97.6154 103.83 95.3501 101.565 92.5558 101.565C89.7614 101.565 87.4961 103.83 87.4961 106.625C87.4961 109.419 89.7614 111.684 92.5558 111.684Z" fill="black"/>
<path d="M67.2999 166.192C66.7647 166.192 66.2394 166.048 65.7785 165.776C65.3175 165.504 64.9377 165.114 64.6784 164.646C64.4191 164.178 64.2897 163.649 64.3037 163.114C64.3177 162.579 64.4745 162.057 64.7579 161.603C65.4727 160.238 65.7051 154.72 65.2442 152.442C64.8106 152.329 64.2628 152.201 63.7833 152.089C57.7921 150.685 43.7628 147.399 36.4024 131.717C27.0284 111.746 33.0606 82.8249 33.1319 82.5567C37.3702 66.6539 46.1934 33.5481 85.6124 29.6139C94.2991 28.726 103.074 29.8518 111.255 32.904C119.436 35.9563 126.804 40.8528 132.786 47.2135C143.686 58.7088 148.699 73.3428 146.542 87.3634C146.482 87.7528 146.346 88.1265 146.142 88.4633C145.937 88.8001 145.669 89.0933 145.351 89.3263C145.033 89.5592 144.673 89.7273 144.29 89.821C143.908 89.9146 143.51 89.932 143.121 89.8721C142.335 89.751 141.629 89.3226 141.158 88.6811C140.925 88.3634 140.757 88.0029 140.663 87.6203C140.57 87.2376 140.552 86.8403 140.612 86.451C142.485 74.2776 138.046 61.4809 128.432 51.3418C123.077 45.6478 116.483 41.2642 109.16 38.5314C101.838 35.7987 93.9837 34.7902 86.2081 35.5843C50.9708 39.1011 43.1417 68.2993 38.9454 84.0426C38.71 85.1865 33.501 111.414 41.8341 129.168C47.9601 142.219 59.5714 144.94 65.1514 146.247C67.8057 146.869 69.2677 147.211 70.1661 148.644C72.1847 151.945 71.6729 161.909 69.8351 164.801C69.5641 165.228 69.1896 165.579 68.7464 165.823C68.3031 166.066 67.8055 166.193 67.2999 166.192Z" fill="black"/>
<path d="M105.741 143.79C105.133 143.79 104.539 143.605 104.038 143.26C103.537 142.915 103.153 142.426 102.937 141.858C102.72 141.289 102.682 140.669 102.826 140.078C102.97 139.487 103.291 138.954 103.745 138.55C112.372 130.867 113.589 122.425 113.6 122.341C113.653 121.945 113.784 121.564 113.985 121.219C114.186 120.874 114.454 120.572 114.773 120.332C115.092 120.091 115.455 119.917 115.842 119.818C116.229 119.719 116.631 119.698 117.026 119.756C117.114 119.768 126.542 121.09 131.786 116.175C134.571 113.567 135.769 109.478 135.35 104.021C134.323 98.0361 129.78 96.5497 126.182 97.1017C125.397 97.2198 124.597 97.0218 123.958 96.551C123.318 96.0802 122.891 95.3751 122.771 94.5902C122.651 93.8053 122.846 93.0046 123.315 92.3637C123.784 91.7228 124.488 91.294 125.272 91.1712C131.872 90.1576 139.717 93.4787 141.292 103.174C141.305 103.253 141.314 103.333 141.321 103.413C141.925 110.864 140.087 116.639 135.86 120.58C130.563 125.519 122.975 126.041 118.922 125.912C116.871 132.554 112.995 138.486 107.735 143.03C107.187 143.52 106.477 143.791 105.741 143.79Z" fill="black"/>
<path d="M39.1213 133.443C38.5511 133.444 37.9927 133.281 37.5113 132.976C37.03 132.67 36.6457 132.234 36.4035 131.717C29.6301 117.286 30.844 98.3744 32.1711 88.3855C32.2759 87.5969 32.6896 86.8821 33.3214 86.3985C33.9531 85.915 34.7511 85.7021 35.5397 85.8069C36.3284 85.9117 37.0431 86.3254 37.5267 86.9572C38.0103 87.5889 38.2231 88.3869 38.1184 89.1755C37.1204 96.6925 35.4836 115.637 41.8352 129.168C42.0494 129.625 42.1448 130.129 42.1127 130.633C42.0806 131.137 41.9219 131.624 41.6514 132.05C41.3808 132.477 41.0071 132.828 40.5649 133.071C40.1227 133.315 39.6261 133.443 39.1213 133.443L39.1213 133.443Z" fill="black"/>
<path d="M126.363 96.7067C124.419 98.0701 122.727 99.7621 121.363 101.707C119.363 104.707 115.363 107.707 117.363 98.7067C119.363 89.7067 118.036 78.8632 118.036 78.8632C118.036 78.8632 150.363 67.7067 152.363 76.7067C154.363 85.7067 148.363 99.7067 139.363 104.707C137.363 97.7067 126.363 96.7067 126.363 96.7067Z" fill="black"/>
<path d="M119.035 22.8633C133.064 34.1096 135.035 39.8633 144.035 43.8633C157.035 60.8633 151.035 84.8633 146.035 95.8633C139.035 83.8633 126.035 81.8633 119.035 79.8633C119.035 79.8633 102.035 82.8633 88.0352 77.8633C84.9725 79.2244 69.0352 76.8633 57.0352 68.8633C38.8883 69.3103 29.0352 63.8633 37.0352 57.8633C27.0352 49.8633 26.0352 36.8633 26.0352 36.8633C26.0352 36.8633 32.0352 38.8633 44.0352 34.8633C56.0352 30.8633 63.0352 16.8633 88.0352 13.8633C91.6353 12.0446 119.035 22.8633 119.035 22.8633Z" fill="#82BE28"/>
<path d="M147.033 97.8632C146.468 97.8628 145.915 97.7029 145.437 97.4019C144.959 97.1009 144.575 96.671 144.331 96.1618C144.086 95.6525 143.99 95.0846 144.054 94.5233C144.118 93.962 144.339 93.4302 144.692 92.989C156.072 78.7646 150.258 54.6996 143.012 48.0777C142.424 47.541 142.074 46.793 142.038 45.9983C142.002 45.2035 142.284 44.427 142.82 43.8396C143.357 43.2523 144.105 42.9022 144.9 42.8663C145.695 42.8305 146.471 43.1118 147.058 43.6485C157.276 52.9855 162.381 80.4838 149.378 96.7372C149.097 97.089 148.74 97.373 148.334 97.568C147.928 97.7629 147.483 97.8638 147.033 97.8632Z" fill="black"/>
<path d="M134.089 39.593C133.425 39.5935 132.779 39.3725 132.254 38.9651C124.424 32.8874 118.096 25.0913 113.758 16.1788C113.411 15.463 113.362 14.6384 113.623 13.8866C113.883 13.1348 114.432 12.5174 115.148 12.1701C115.863 11.8227 116.688 11.774 117.44 12.0346C118.192 12.2952 118.809 12.8438 119.156 13.5597C123.089 21.6412 128.828 28.7103 135.928 34.2207C136.423 34.604 136.785 35.1324 136.965 35.7319C137.144 36.3315 137.132 36.9722 136.929 37.5643C136.726 38.1564 136.344 38.6704 135.834 39.0341C135.325 39.3979 134.715 39.5933 134.089 39.593V39.593Z" fill="black"/>
<path d="M86.3136 81.5787C81.3731 81.529 76.4877 80.5344 71.921 78.6485C71.1822 78.353 70.5911 77.7761 70.2777 77.0448C69.9643 76.3134 69.9542 75.4875 70.2498 74.7488C70.5453 74.01 71.1222 73.4189 71.8535 73.1055C72.5849 72.7921 73.4108 72.782 74.1495 73.0775C87.5187 78.4255 99.7305 75.1542 108.527 63.8696C109.016 63.2435 109.734 62.8373 110.523 62.7402C111.312 62.6432 112.107 62.8631 112.734 63.3518C113.361 63.8405 113.768 64.558 113.867 65.3467C113.965 66.1354 113.747 66.931 113.259 67.5587C106.061 76.7914 96.6554 81.5787 86.3136 81.5787Z" fill="black"/>
<path d="M52.284 72.2665C45.6984 72.2982 39.1849 70.8955 33.1961 68.1559C32.8375 67.9907 32.515 67.7563 32.2471 67.4662C31.9792 67.1761 31.7713 66.836 31.6351 66.4654C31.499 66.0947 31.4374 65.7008 31.4538 65.3063C31.4702 64.9118 31.5643 64.5244 31.7308 64.1664C31.8972 63.8083 32.1327 63.4866 32.4237 63.2198C32.7148 62.953 33.0556 62.7462 33.4268 62.6114C33.7979 62.4765 34.192 62.4163 34.5864 62.4341C34.9809 62.4519 35.3679 62.5474 35.7254 62.7151C42.3039 65.6571 49.5423 66.8107 56.7094 66.0594C63.8765 65.3081 70.7184 62.6785 76.5437 58.4362C76.8588 58.1996 77.2173 58.0274 77.599 57.9293C77.9806 57.8313 78.3777 57.8094 78.7678 57.8648C79.1579 57.9203 79.5332 58.052 79.8724 58.2526C80.2115 58.4531 80.5079 58.7184 80.7445 59.0335C80.9811 59.3485 81.1534 59.7071 81.2514 60.0887C81.3494 60.4703 81.3713 60.8675 81.3159 61.2575C81.2604 61.6476 81.1287 62.0229 80.9282 62.3621C80.7277 62.7013 80.4623 62.9976 80.1473 63.2342C72.0689 69.156 62.3002 72.3227 52.284 72.2665Z" fill="black"/>
<path d="M29.3507 39.5621C27.2923 39.565 25.2426 39.2953 23.255 38.76C22.4867 38.553 21.8321 38.0494 21.4351 37.3598C21.0382 36.6702 20.9315 35.8511 21.1384 35.0828C21.3453 34.3145 21.849 33.6599 22.5386 33.263C23.2282 32.866 24.0473 32.7593 24.8156 32.9662C34.1241 35.4738 43.6534 29.5705 53.7413 23.322C69.7169 13.4251 87.8253 2.20536 110.835 19.4631C111.152 19.6989 111.419 19.9949 111.621 20.3341C111.823 20.6733 111.956 21.049 112.012 21.4398C112.069 21.8305 112.048 22.2285 111.95 22.6111C111.852 22.9936 111.68 23.3531 111.443 23.669C111.207 23.9848 110.91 24.2508 110.57 24.4517C110.23 24.6526 109.854 24.7844 109.463 24.8396C109.072 24.8948 108.674 24.8723 108.292 24.7734C107.909 24.6744 107.551 24.501 107.235 24.2631C87.505 9.46543 72.6388 18.6729 56.9005 28.4226C48.0353 33.9149 38.9181 39.5616 29.3507 39.5621Z" fill="black"/>
<path d="M42.0391 60.8636C41.8407 60.8635 41.6428 60.8438 41.4483 60.8048C26.5098 57.8172 20.4346 46.037 21.0411 35.6876C21.0876 34.8932 21.4478 34.1499 22.0424 33.6211C22.637 33.0923 23.4173 32.8214 24.2117 32.8679C25.006 32.9145 25.7494 33.2747 26.2781 33.8693C26.8069 34.4639 27.0778 35.2442 27.0313 36.0385C26.4005 46.8021 34.4083 53.2781 42.6241 54.9213C43.3538 55.0673 44.0033 55.4793 44.4463 56.0773C44.8893 56.6753 45.0943 57.4166 45.0214 58.1573C44.9484 58.8979 44.6029 59.585 44.0518 60.0851C43.5006 60.5853 42.7833 60.8627 42.0391 60.8636H42.0391Z" fill="black"/>
</svg>
