<svg width="180" height="171" viewBox="0 0 180 171" fill="none" xmlns="http://www.w3.org/2000/svg">
<path d="M140.069 103.523C140.065 103.465 140.057 103.408 140.049 103.351C139.715 101.295 139.271 100.911 138.385 99.4259C148.768 88.8217 142.307 70.4174 138.749 63.1009C134.984 55.3594 127.488 43.8486 119.86 40.2161C112.231 36.5836 93.7055 27.139 69.3677 37.3101C45.03 47.4811 36.4538 80.7449 36.0749 81.8731C36.0362 81.9874 34.3647 87.2461 33.3882 94.7826C32.5798 98.5408 32.3784 102.519 32.7134 106.551C32.8541 113.435 34.0273 120.869 37.2631 127.6C43.3242 140.206 63.3129 147.451 67.6247 149.248C67.6247 149.248 68.1872 161.542 66.5526 163.176C67.6423 168.08 78.8123 169.987 78.8123 169.987C88.4922 170.624 92.9791 163.721 92.9791 163.721V149.827C92.9791 149.827 103.973 144.771 110.395 137.799C115.06 133.295 118.343 125.942 119.081 124.199C119.863 124.311 121.12 124.447 122.65 124.447C126.157 124.447 131.074 123.734 134.859 120.394C138.932 116.801 140.685 111.125 140.069 103.523V103.523Z" fill="white"/>
<path d="M56.9913 104.928C59.7857 104.928 62.051 102.663 62.051 99.8683C62.051 97.0739 59.7857 94.8086 56.9913 94.8086C54.1969 94.8086 51.9316 97.0739 51.9316 99.8683C51.9316 102.663 54.1969 104.928 56.9913 104.928Z" fill="black"/>
<path d="M92.5558 111.694C95.3501 111.694 97.6154 109.429 97.6154 106.634C97.6154 103.84 95.3501 101.575 92.5558 101.575C89.7614 101.575 87.4961 103.84 87.4961 106.634C87.4961 109.429 89.7614 111.694 92.5558 111.694Z" fill="black"/>
<path d="M67.3015 166.202C66.7517 166.202 66.195 166.051 65.696 165.734C64.3044 164.85 63.8874 163.01 64.7595 161.614C65.4733 160.247 65.7058 154.729 65.2448 152.452C64.8112 152.339 64.2634 152.211 63.7839 152.098C57.7927 150.695 43.7634 147.408 36.403 131.727C26.9216 111.525 33.0593 82.8459 33.1306 82.5764C37.3708 66.6636 46.194 33.5578 85.613 29.6236C103.307 27.8571 120.506 34.2717 132.787 47.2232C143.686 58.7185 148.7 73.3525 146.543 87.3731C146.291 89.0113 144.742 90.1331 143.122 89.882C141.484 89.63 140.361 88.0983 140.613 86.4607C142.486 74.2873 138.047 61.4906 128.432 51.3515C117.437 39.7564 102.039 34.0135 86.2087 35.594C50.9714 39.1108 43.1423 68.3074 38.947 84.0509C38.7087 85.2108 33.5134 111.449 41.8347 129.178C47.9607 142.229 59.572 144.949 65.1521 146.257C67.8064 146.878 69.2683 147.221 70.1667 148.654C72.1843 151.953 71.6735 161.917 69.8366 164.81C69.2653 165.71 68.2937 166.202 67.3015 166.202V166.202Z" fill="black"/>
<path d="M39.1204 133.453C37.9934 133.453 36.9134 132.815 36.4026 131.727C29.6302 117.296 30.844 98.3841 32.1712 88.3954C32.3889 86.7527 33.9026 85.5984 35.5393 85.8165C37.1819 86.0346 38.3372 87.5429 38.1184 89.1854C37.1204 96.7023 35.4837 115.647 41.8342 129.178C42.5383 130.678 41.8928 132.464 40.3928 133.168C39.9807 133.362 39.5471 133.453 39.1204 133.453L39.1204 133.453Z" fill="black"/>
<path d="M126.363 96.7164C126.363 96.7164 123.363 98.7164 121.363 101.716C119.363 104.716 115.363 107.716 117.363 98.7164C119.363 89.7164 118.036 78.8729 118.036 78.8729C118.036 78.8729 150.363 67.7164 152.363 76.7164C154.363 85.7164 148.363 99.7164 139.363 104.716C137.363 97.7164 126.363 96.7164 126.363 96.7164Z" fill="#82BE28"/>
<path d="M119.035 22.873C129.557 31.3078 133.566 32.7166 138.574 36.5495C140.244 37.8272 144.306 42.3202 146.556 43.3202C159.556 60.3202 151.035 84.873 146.035 95.873C139.035 83.873 126.035 81.873 119.035 79.873C119.035 79.873 102.035 82.873 88.0352 77.873C85.6262 78.9437 70.2076 84.1091 63.6021 69.9073C60.8456 68.6949 59.5964 70.5805 57.0352 68.873C44.8814 69.1725 34.0675 68.9974 32.226 65.6137C31.318 63.9452 34.3931 59.8546 37.0352 57.873C27.0352 49.873 26.0352 36.873 26.0352 36.873C26.0352 36.873 32.0352 38.873 44.0352 34.873C56.0352 30.873 63.0352 16.873 88.0352 13.873C91.6354 12.0544 119.035 22.873 119.035 22.873Z" fill="black"/>
<path d="M147.38 95.8982C146.723 95.8982 146.061 95.6832 145.508 95.2406C144.214 94.2056 144.004 92.3177 145.039 91.024C156.196 77.0779 150.393 54.8328 143.012 48.0876C141.788 46.9699 141.703 45.0724 142.82 43.8493C143.938 42.6264 145.837 42.5406 147.059 43.6584C157.191 52.9174 162.774 78.4596 149.725 94.7721C149.132 95.5127 148.26 95.8982 147.38 95.8982V95.8982Z" fill="black"/>
<path d="M134.089 39.6027C133.448 39.6027 132.801 39.3979 132.254 38.9748C124.458 32.9394 118.063 25.0601 113.758 16.1886C113.036 14.6979 113.658 12.9032 115.148 12.1799C116.64 11.4569 118.433 12.0787 119.157 13.5695C123.059 21.6135 128.859 28.7579 135.928 34.2304C137.238 35.2446 137.478 37.1289 136.463 38.439C135.873 39.2026 134.986 39.6027 134.089 39.6027L134.089 39.6027Z" fill="black"/>
<path d="M86.3149 81.5885C81.6675 81.5885 76.8325 80.6222 71.9214 78.6581C70.3833 78.0429 69.6353 76.2971 70.2505 74.7587C70.8657 73.22 72.6128 72.4723 74.1499 73.0872C87.521 78.4355 99.73 75.1641 108.527 63.8793C109.546 62.5728 111.431 62.339 112.738 63.3577C114.044 64.3763 114.278 66.2615 113.259 67.5682C106.062 76.8011 96.6567 81.5884 86.3149 81.5884L86.3149 81.5885Z" fill="black"/>
<path d="M52.2851 72.2762C45.7021 72.2762 39.1386 70.9277 33.1972 68.1655C31.6943 67.467 31.0429 65.6828 31.7412 64.1803C32.4404 62.6775 34.2246 62.0268 35.7265 62.7247C48.7002 68.7561 65.1025 67.0373 76.5459 58.4458C77.8711 57.4514 79.7529 57.7182 80.747 59.0434C81.7412 60.3683 81.4736 62.2489 80.1494 63.2438C72.2285 69.1913 62.2373 72.2762 52.2851 72.2762Z" fill="black"/>
<path d="M29.351 39.5719C27.3393 39.572 25.309 39.3226 23.2553 38.7697C21.6557 38.339 20.7084 36.6928 21.1391 35.093C21.5697 33.4925 23.2182 32.5462 24.8158 32.976C34.1264 35.4836 43.6547 29.5803 53.7416 23.3318C69.7162 13.4349 87.8246 2.21512 110.835 19.4729C112.162 20.467 112.43 22.3474 111.436 23.6729C110.441 24.9989 108.56 25.2664 107.236 24.2729C87.5053 9.47519 72.64 18.6827 56.9008 28.4324C48.0356 33.9246 38.9184 39.5714 29.351 39.5719H29.351Z" fill="black"/>
<path d="M42.0391 60.8735C41.8448 60.8735 41.6466 60.8544 41.4483 60.8147C26.5098 57.8271 20.4346 46.0469 21.0411 35.6975C21.1378 34.043 22.5518 32.7831 24.212 32.8781C25.8653 32.975 27.128 34.3944 27.0313 36.0484C26.4005 46.812 34.4083 53.288 42.6241 54.9312C44.2491 55.2561 45.3028 56.8366 44.9776 58.4613C44.6924 59.8874 43.4405 60.8735 42.0391 60.8735Z" fill="black"/>
<path d="M105.743 143.8C104.917 143.8 104.095 143.46 103.502 142.795C102.4 141.558 102.51 139.661 103.747 138.559C112.373 130.877 113.59 122.435 113.601 122.35C113.708 121.553 114.132 120.823 114.776 120.34C115.419 119.857 116.23 119.644 117.027 119.766C117.115 119.778 126.541 121.1 131.787 116.185C134.572 113.577 135.77 109.488 135.351 104.031C134.323 98.0459 129.782 96.5594 126.183 97.1115C124.546 97.3628 123.014 96.2391 122.763 94.6013C122.512 92.9636 123.636 91.4322 125.273 91.181C131.872 90.1674 139.718 93.4885 141.293 103.184C141.305 103.263 141.315 103.343 141.322 103.423C141.926 110.873 140.088 116.649 135.861 120.59C130.564 125.529 122.976 126.051 118.923 125.922C117.831 129.685 114.969 136.6 107.737 143.04C107.166 143.549 106.453 143.8 105.743 143.8V143.8Z" fill="black"/>
</svg>
