<svg width="180" height="171" viewBox="0 0 180 171" fill="none" xmlns="http://www.w3.org/2000/svg">
<path d="M140.078 103.502C140.074 103.444 140.066 103.388 140.058 103.331C139.85 101.901 139.277 100.549 138.394 99.4054C148.777 88.8012 142.316 70.3969 138.758 63.0803C134.993 55.3389 127.497 43.8281 119.869 40.1955C112.24 36.563 93.7147 27.1185 69.3768 37.2895C45.039 47.4605 36.4628 80.7244 36.084 81.8526C34.8353 86.0746 33.9367 90.3924 33.3972 94.762C32.5958 98.6304 32.3684 102.596 32.7225 106.53C32.7271 113.79 34.2781 120.966 37.2722 127.579C43.3332 140.185 63.3219 147.43 67.6337 149.228C67.6337 149.228 68.1962 161.521 66.5616 163.156C67.6513 168.06 78.8213 169.967 78.8213 169.967C81.5212 170.219 84.2407 169.776 86.7206 168.679C89.2006 167.582 91.3583 165.868 92.9881 163.701V149.806C92.9881 149.806 103.982 144.751 110.404 137.779C115.069 133.274 118.352 125.922 119.09 124.179C120.272 124.345 121.465 124.427 122.659 124.426C126.166 124.426 131.083 123.713 134.868 120.373C138.941 116.78 140.694 111.104 140.078 103.502Z" fill="white"/>
<path d="M56.9991 104.907C59.7935 104.907 62.0588 102.642 62.0588 99.8478C62.0588 97.0534 59.7935 94.7881 56.9991 94.7881C54.2047 94.7881 51.9395 97.0534 51.9395 99.8478C51.9395 102.642 54.2047 104.907 56.9991 104.907Z" fill="black"/>
<path d="M92.5636 111.674C95.358 111.674 97.6232 109.408 97.6232 106.614C97.6232 103.819 95.358 101.554 92.5636 101.554C89.7692 101.554 87.5039 103.819 87.5039 106.614C87.5039 109.408 89.7692 111.674 92.5636 111.674Z" fill="black"/>
<path fill-rule="evenodd" clip-rule="evenodd" d="M140.62 86.4404C144.644 60.2814 118.706 32.3309 86.2156 35.5737C68.9286 37.299 58.3463 45.2033 51.4583 54.6608C44.4725 64.2526 41.218 75.5338 38.9355 84.0979C38.9377 84.0897 38.9323 84.1179 38.9202 84.1806C38.7652 84.9838 37.5166 91.4556 37.2154 99.974C36.8897 109.189 37.6958 120.325 41.8414 129.157L39.1443 130.423L41.8414 129.157C45.8106 137.614 51.9907 141.691 57.39 143.896C60.1163 145.009 62.6412 145.643 64.6461 146.116C64.8067 146.154 64.9679 146.191 65.1284 146.229C65.9202 146.414 66.6956 146.596 67.3036 146.774C67.6726 146.882 68.1102 147.025 68.5217 147.221C68.8373 147.371 69.6338 147.773 70.1736 148.633L70.1923 148.663C70.8866 149.799 71.1656 151.315 71.3081 152.503C71.4675 153.83 71.5153 155.333 71.4746 156.794C71.4339 158.255 71.3024 159.751 71.0766 161.065C70.8725 162.254 70.527 163.713 69.843 164.79C68.9548 166.188 67.1009 166.602 65.7023 165.714C64.3036 164.826 63.8899 162.972 64.7782 161.573C64.7779 161.573 64.7785 161.572 64.7799 161.569C64.8001 161.521 64.9859 161.082 65.1632 160.05C65.3312 159.071 65.4424 157.866 65.4769 156.627C65.5115 155.386 65.4672 154.187 65.3509 153.218C65.3119 152.893 65.2689 152.632 65.2285 152.425C64.8545 152.328 64.3969 152.22 63.8228 152.086C63.649 152.045 63.4646 152.002 63.2686 151.956C61.1938 151.466 58.2968 150.747 55.1218 149.451C48.7184 146.836 41.178 141.865 36.4099 131.707C31.6559 121.578 30.8822 109.294 31.2192 99.762C31.557 90.2055 33.0345 82.9405 33.1378 82.5531L33.1378 82.553C35.4219 73.9828 38.8995 61.713 46.6083 51.1285C54.4149 40.4097 66.4898 31.5126 85.6197 29.6033C121.521 26.0201 151.243 56.8447 146.55 87.3528C146.298 88.9904 144.766 90.1137 143.129 89.8617C141.491 89.6098 140.368 88.078 140.62 86.4404Z" fill="black"/>
<path fill-rule="evenodd" clip-rule="evenodd" d="M135.406 93.3333C138.441 95.4115 140.585 98.7646 141.299 103.163C141.312 103.243 141.322 103.322 141.328 103.403C141.829 109.586 140.614 114.336 138.187 117.876C135.772 121.399 132.38 123.397 129.118 124.511C125.875 125.618 122.636 125.898 120.265 125.917C119.788 125.921 119.341 125.914 118.93 125.901C118.626 126.95 118.184 128.247 117.545 129.712C115.9 133.487 112.954 138.379 107.743 143.02C106.506 144.122 104.61 144.012 103.508 142.775C102.406 141.537 102.516 139.641 103.753 138.539C108.221 134.56 110.692 130.419 112.045 127.315C112.723 125.76 113.12 124.465 113.344 123.582C113.456 123.142 113.525 122.805 113.564 122.592C113.584 122.486 113.596 122.41 113.602 122.369C113.605 122.349 113.607 122.336 113.607 122.332C113.709 121.533 114.128 120.808 114.77 120.321C115.414 119.832 116.228 119.624 117.028 119.744C117.029 119.744 117.029 119.744 117.03 119.745C117.031 119.745 117.031 119.745 117.032 119.745C117.032 119.745 117.032 119.745 117.032 119.745L117.03 119.745L117.03 119.744L117.057 119.748C117.086 119.752 117.136 119.759 117.206 119.767C117.345 119.784 117.562 119.808 117.844 119.831C118.41 119.879 119.231 119.925 120.216 119.917C122.211 119.901 124.754 119.661 127.179 118.833C129.585 118.011 131.747 116.658 133.239 114.483C134.707 112.342 135.747 109.081 135.358 104.01C134.865 101.14 133.55 99.3342 132.016 98.284C130.423 97.193 128.358 96.7585 126.19 97.0911C124.552 97.3425 123.021 96.2186 122.77 94.5809C122.518 92.9433 123.642 91.4119 125.28 91.1606C128.769 90.6251 132.41 91.2819 135.406 93.3333ZM116.583 122.711C117.031 119.767 117.033 119.745 117.032 119.745C117.032 119.745 117.033 119.745 117.034 119.745L116.583 122.711ZM113.606 122.344C113.606 122.345 113.606 122.346 113.606 122.346L116.583 122.711C113.606 122.346 113.606 122.345 113.606 122.344Z" fill="black"/>
<path fill-rule="evenodd" clip-rule="evenodd" d="M35.5468 85.7955C37.1893 86.0136 38.3439 87.5219 38.1258 89.1643C36.9212 98.2339 35.7255 116.126 41.8419 129.157C42.5459 130.657 41.9007 132.443 40.4009 133.147C38.901 133.851 37.1145 133.206 36.4105 131.706C29.4904 116.963 30.9648 97.5096 32.178 88.3744C32.3961 86.732 33.9044 85.5774 35.5468 85.7955Z" fill="black"/>
<path d="M125.371 100.696C123.427 102.059 121.735 103.751 120.371 105.696C118.371 108.696 114.371 111.696 116.371 102.696C117.479 97.4064 119.479 79.4064 119.479 79.4064C119.479 79.4064 146.479 73.4064 148.479 82.4064C147.479 91.4064 142.479 107.406 138.371 108.696C136.371 101.696 125.371 100.696 125.371 100.696Z" fill="black"/>
<path d="M117.657 71.4795C115.31 73.058 111.042 84.4501 111.639 86.605C112.236 88.7599 124.225 95.1832 124.225 95.1832L131.801 77.3057C131.801 77.3057 120.004 69.9011 117.657 71.4795Z" fill="black"/>
<path d="M55.4785 55.4062C50.9999 60.4062 49.7178 69.7222 47.4785 71.4062C45.2392 73.0903 37.4785 75.4062 37.4785 75.4062L46.4785 57.4062C46.4785 57.4062 57.7178 51.4062 55.4785 55.4062Z" fill="black"/>
<path d="M141.479 97.4062C159.554 91.5708 153.656 66.3449 148.479 56.4062C143.839 47.4977 149.479 49.4062 130.479 32.4062C111.479 15.4062 98.6221 15.977 88.4794 16.4062C78.3367 16.8353 61.0124 17.3842 47.4794 26.4062C32.4794 36.4062 48.4794 56.4062 48.4794 56.4062C48.4794 56.4062 64.9751 55.3053 80.4794 58.4062C95.4794 61.4062 108.981 68.0738 115.479 72.4062C124.479 78.4062 134.479 83.4062 141.479 97.4062Z" fill="#2D8C3C"/>
<path d="M130.479 36.4062C131.479 36.4062 151.479 46.4062 151.479 46.4062C151.479 46.4062 148.954 57.7366 141.479 56.4062C134.003 55.0759 131.479 54.4062 131.479 54.4062L130.479 36.4062Z" fill="#2D8C3C"/>
<path fill-rule="evenodd" clip-rule="evenodd" d="M76.8969 19.7625L76.9208 19.755C76.9446 19.7476 76.9846 19.7353 77.0401 19.7186C77.151 19.6853 77.3241 19.6346 77.5546 19.5708C78.0159 19.4431 78.7061 19.2632 79.5886 19.0649C81.3562 18.6678 83.8806 18.2003 86.8721 17.9283C92.8933 17.3809 100.599 17.6448 107.819 20.6728C118.343 25.0864 125.149 31.4525 130.947 36.8882L131.057 36.9922C133.865 39.6244 136.6 42.189 139.383 44.0107C142.279 45.9064 145.474 47.1702 149.198 46.8983C150.85 46.7776 152.092 45.3402 151.971 43.6878C151.851 42.0353 150.413 40.7936 148.761 40.9142C146.777 41.0591 144.885 40.4415 142.669 38.9907C140.377 37.4899 138.011 35.2865 135.05 32.5111L134.959 32.4258C129.157 26.9857 121.688 19.983 110.14 15.1397C101.682 11.5927 92.8884 11.3566 86.3288 11.953C83.0299 12.2529 80.2438 12.7682 78.2734 13.2109C77.2869 13.4325 76.5012 13.6368 75.9539 13.7883C75.6802 13.8641 75.4658 13.9267 75.3153 13.9719C75.2401 13.9944 75.1809 14.0126 75.1382 14.0259L75.0866 14.0421L75.0703 14.0473L75.0622 14.0499C75.0612 14.0502 75.0603 14.0505 75.9793 16.9063L75.0603 14.0505C73.4831 14.5581 72.616 16.2481 73.1236 17.8253C73.631 19.402 75.3201 20.269 76.8969 19.7625Z" fill="black"/>
<path fill-rule="evenodd" clip-rule="evenodd" d="M146.454 49.688C148.007 49.1105 149.734 49.9012 150.312 51.4541C153.037 58.7827 154.757 66.3469 155.467 74.1337L155.469 74.157C156.047 81.1027 153.167 87.4243 150.401 91.8048C148.996 94.0303 147.561 95.8476 146.476 97.1113C145.932 97.7449 145.472 98.2439 145.142 98.5904C144.977 98.7637 144.844 98.8992 144.749 98.9946C144.702 99.0423 144.663 99.08 144.636 99.1075L144.601 99.1409L144.59 99.1517L144.585 99.1573C144.584 99.158 144.583 99.1587 142.5 96.9998L144.583 99.1587C143.624 100.084 142.168 100.266 141.011 99.6042C139.856 98.944 139.274 97.6026 139.581 96.3089C139.581 96.3078 139.581 96.3058 139.582 96.303C139.584 96.2926 139.589 96.2708 139.596 96.2381C139.61 96.1726 139.632 96.0639 139.658 95.9156C139.712 95.6186 139.783 95.1655 139.845 94.5865C139.97 93.4241 140.054 91.7801 139.887 89.8885C139.552 86.0999 138.233 81.4755 134.379 77.6212C133.207 76.4496 133.207 74.5501 134.379 73.3785C135.55 72.2069 137.45 72.2069 138.621 73.3785C143.279 78.0361 145.098 83.4963 145.709 87.9841C148.011 84.1721 149.886 79.455 149.49 74.6664C148.828 67.4129 147.227 60.3727 144.688 53.5456C144.111 51.9926 144.901 50.2655 146.454 49.688Z" fill="black"/>
<path fill-rule="evenodd" clip-rule="evenodd" d="M70.8777 29.6064C71.8718 30.9319 71.6032 32.8123 70.2777 33.8064C67.657 35.7719 66.4944 40.2583 67.4368 45.9132C67.7457 47.7665 68.8478 49.5138 70.0663 50.9086C70.6551 51.5826 71.223 52.1193 71.639 52.4833C71.8458 52.6642 72.0115 52.7993 72.1188 52.8843C72.1724 52.9268 72.2111 52.9565 72.2328 52.9729L72.2516 52.9871L72.2466 52.9834L72.2454 52.9826C72.2476 52.9841 72.2494 52.9855 72.2516 52.9871C73.5841 53.9643 73.8761 55.8362 72.9025 57.1728C71.927 58.512 70.0505 58.8068 68.7113 57.8313L70.4777 55.4064C68.7113 57.8313 68.7106 57.8308 68.7098 57.8302L68.7047 57.8265L68.6963 57.8203L68.6738 57.8036C68.6563 57.7907 68.634 57.774 68.6071 57.7536C68.5533 57.7128 68.4811 57.6572 68.393 57.5873C68.2168 57.4477 67.9754 57.2502 67.6883 56.999C67.1165 56.4988 66.3491 55.7734 65.5477 54.856C63.9857 53.068 62.0878 50.3154 61.5185 46.8996C60.461 40.5545 61.2983 33.0409 66.6777 29.0064C68.0031 28.0123 69.8836 28.2809 70.8777 29.6064Z" fill="black"/>
<path fill-rule="evenodd" clip-rule="evenodd" d="M68.4698 18.1763C68.5969 19.8283 67.3607 21.2705 65.7088 21.3976C53.9963 22.2985 45.1145 31.3743 43.4072 39.0572C42.6283 42.5622 43.7818 46.5754 45.4427 50.0276C46.2468 51.6989 47.1128 53.1211 47.7781 54.1244C48.1094 54.624 48.3874 55.0144 48.5779 55.274C48.673 55.4037 48.7461 55.5004 48.7927 55.5613C48.816 55.5918 48.8327 55.6132 48.8422 55.6254L48.8486 55.6337C48.849 55.6341 48.8493 55.6345 48.8496 55.6348M48.8496 55.6348C49.8793 56.932 49.6632 58.8183 48.3664 59.8488C47.0693 60.8797 45.1821 60.6637 44.1513 59.3666L46.5 57.5001C44.1513 59.3666 44.1507 59.3659 44.1502 59.3652L44.1489 59.3636L44.1457 59.3596L44.1373 59.3489L44.1118 59.3164C44.0911 59.2898 44.063 59.2535 44.028 59.2079C43.9581 59.1166 43.8608 58.9876 43.7405 58.8237C43.5002 58.4961 43.1671 58.0276 42.7776 57.4403C42.0015 56.2698 40.9871 54.606 40.0359 52.6289C38.1862 48.7843 36.329 43.2506 37.5501 37.7556C39.8428 27.4385 50.9611 16.5143 65.2486 15.4152C66.9005 15.2882 68.3428 16.5243 68.4698 18.1763" fill="black"/>
<path fill-rule="evenodd" clip-rule="evenodd" d="M76.942 39.4422C78.5789 39.6983 79.6983 41.233 79.4422 42.8699C79.0431 45.4212 79.4492 48.0336 80.6041 50.3433C81.7589 52.653 83.6051 54.5453 85.8857 55.7568C87.3489 56.5341 87.905 58.3504 87.1277 59.8136C86.3504 61.2768 84.5341 61.8329 83.0709 61.0556C79.6885 59.2588 76.9503 56.4523 75.2375 53.0266C73.5247 49.6009 72.9223 45.7265 73.5143 41.9425C73.7704 40.3055 75.3051 39.1861 76.942 39.4422Z" fill="black"/>
</svg>
