<svg width="180" height="171" viewBox="0 0 180 171" fill="none" xmlns="http://www.w3.org/2000/svg">
<path d="M140.079 103.515C140.074 103.457 140.067 103.4 140.059 103.343C139.724 101.287 139.281 100.902 138.395 99.4176C148.778 88.8134 142.317 70.4091 138.758 63.0926C134.994 55.3511 127.498 43.8403 119.869 40.2078C112.241 36.5753 93.7153 27.1307 69.3775 37.3018C45.0397 47.4728 36.4636 80.7366 36.0847 81.8648C36.046 81.9791 34.3745 87.2378 33.398 94.7743C32.5895 98.5325 32.3882 102.511 32.7232 106.543C32.8639 113.426 34.0371 120.86 37.2729 127.591C43.3339 140.197 63.3226 147.442 67.6345 149.24C67.6345 149.24 68.197 161.534 66.5623 163.168C67.6521 168.072 78.822 169.979 78.822 169.979C88.502 170.615 92.9888 163.713 92.9888 163.713V149.819C92.9888 149.819 103.983 144.763 110.404 137.791C115.07 133.286 118.352 125.934 119.09 124.191C119.873 124.303 121.13 124.438 122.66 124.438C126.166 124.438 131.083 123.726 134.869 120.385C138.942 116.792 140.694 111.116 140.079 103.515V103.515Z" fill="white"/>
<path d="M57.0011 104.92C59.7955 104.92 62.0607 102.654 62.0607 99.86C62.0607 97.0656 59.7955 94.8003 57.0011 94.8003C54.2067 94.8003 51.9414 97.0656 51.9414 99.86C51.9414 102.654 54.2067 104.92 57.0011 104.92Z" fill="black"/>
<path d="M92.5655 111.686C95.3599 111.686 97.6252 109.42 97.6252 106.626C97.6252 103.832 95.3599 101.566 92.5655 101.566C89.7712 101.566 87.5059 103.832 87.5059 106.626C87.5059 109.42 89.7712 111.686 92.5655 111.686Z" fill="black"/>
<path d="M55.4805 55.4185C51.0018 60.4185 49.7198 69.7345 47.4805 71.4185C45.2411 73.1024 37.4805 75.4185 37.4805 75.4185L46.4805 57.4185C46.4805 57.4185 57.7198 51.4185 55.4805 55.4185Z" fill="#82BE28"/>
<path d="M67.3093 166.194C66.7595 166.194 66.2028 166.043 65.7038 165.726C64.3122 164.842 63.8952 163.002 64.7673 161.605C65.4812 160.239 65.7136 154.721 65.2526 152.443C64.819 152.331 64.2712 152.203 63.7917 152.09C57.8005 150.687 43.7712 147.4 36.4108 131.719C26.9294 111.517 33.0671 82.8376 33.1384 82.5681C37.3786 66.6553 46.2019 33.5495 85.6208 29.6153C103.318 27.8488 120.514 34.2632 132.795 47.2145C143.694 58.7097 148.709 73.3439 146.551 87.3647C146.3 89.003 144.755 90.1241 143.131 89.8737C141.493 89.6218 140.37 88.0901 140.622 86.4525C142.494 74.2788 138.054 61.4819 128.44 51.3429C117.445 39.748 102.049 34.0052 86.2165 35.5857C50.9792 39.1025 43.1501 68.2991 38.9548 84.0426C38.7165 85.2025 33.5212 111.441 41.8425 129.169C47.9685 142.221 59.5798 144.941 65.1599 146.248C67.8142 146.87 69.2761 147.212 70.1745 148.645C72.1921 151.945 71.6814 161.909 69.8444 164.801C69.2731 165.701 68.3015 166.194 67.3093 166.194Z" fill="black"/>
<path d="M39.1302 133.445C38.0032 133.445 36.9231 132.807 36.4124 131.719C29.6399 117.288 30.8538 98.3758 32.1809 88.3871C32.3987 86.7444 33.9143 85.5901 35.5491 85.8082C37.1917 86.0263 38.3469 87.5346 38.1282 89.1771C37.1301 96.694 35.4934 115.638 41.844 129.17C42.5481 130.67 41.9026 132.456 40.4026 133.16C39.9905 133.353 39.5569 133.445 39.1301 133.445H39.1302Z" fill="black"/>
<path d="M125.373 100.708C125.373 100.708 122.373 102.708 120.373 105.708C118.373 108.708 114.373 111.708 116.373 102.708C117.481 97.4182 119.481 79.4182 119.481 79.4182C119.481 79.4182 146.481 73.4182 148.481 82.4182C147.481 91.4182 142.481 107.418 138.373 108.708C136.373 101.708 125.373 100.708 125.373 100.708Z" fill="#82BE28"/>
<path d="M117.657 71.4917C115.31 73.0702 111.042 84.4623 111.639 86.6172C112.236 88.7721 124.225 95.1954 124.225 95.1954L131.801 77.3179C131.801 77.3179 120.004 69.9133 117.657 71.4917H117.657Z" fill="#82BE28"/>
<path d="M141.48 97.4185C159.555 91.5831 153.657 66.3572 148.48 56.4185C143.84 47.5101 149.48 49.4185 130.48 32.4185C111.48 15.4185 98.8414 11.6716 88.6987 12.1008C78.556 12.53 62.8189 12.987 49.2859 22.009C41.0903 27.4727 39.6419 40.6957 41.7997 48.431C43.5912 54.8532 45.1025 56.5778 45.1025 56.5778C45.1025 56.5778 59.1942 57.4585 69.3226 55.0365C71.5244 58.3392 79.2308 60.3209 85.1758 58.7796C97.0657 65.1649 108.981 68.0861 115.48 72.4185C124.48 78.4185 134.48 83.4185 141.48 97.4185Z" fill="black"/>
<path d="M130.48 36.4185C131.48 36.4185 151.231 44.6879 151.231 44.6879C151.231 44.6879 148.956 57.7488 141.48 56.4185C134.005 55.0881 131.48 54.4185 131.48 54.4185L130.48 36.4185Z" fill="black"/>
<path d="M148.19 46.9475C141.664 46.948 136.667 42.2614 130.923 36.8761C125.331 31.6342 118.373 25.1103 107.822 20.6849C93.3988 14.6363 77.06 19.7232 76.8969 19.7753C75.3207 20.279 73.6313 19.4089 73.1264 17.8332C72.6215 16.2568 73.4867 14.5698 75.0629 14.0626C75.8119 13.8211 93.6313 8.22728 110.142 15.1518C121.69 19.9949 129.084 26.928 135.027 32.499C140.444 37.5786 144.369 41.2467 148.763 40.9264C150.426 40.8056 151.854 42.0476 151.974 43.6999C152.094 45.3524 150.853 46.7898 149.201 46.9105C148.86 46.9353 148.523 46.9475 148.19 46.9475H148.19Z" fill="black"/>
<path d="M143.743 98.3298C143.258 98.3298 142.77 98.2122 142.322 97.9714C141.199 97.3669 140.581 96.1181 140.781 94.8583C140.837 94.4854 142.101 85.2812 134.359 77.5395C133.187 76.368 133.187 74.4684 134.359 73.2969C135.531 72.1253 137.43 72.1253 138.602 73.2969C143.265 77.9599 145.356 83.0747 146.254 87.2496C148.18 83.9824 149.9 79.5851 149.491 74.6673C148.539 63.2472 144.733 53.6282 144.695 53.5324C144.08 51.994 144.828 50.2481 146.366 49.6328C147.905 49.0177 149.651 49.7654 150.266 51.304C150.437 51.7293 154.444 61.8627 155.47 74.169C156.58 87.4837 146.212 97.1382 145.77 97.5427C145.203 98.061 144.477 98.3297 143.743 98.3298Z" fill="black"/>
<path d="M44.8733 56.712C44.1164 56.712 43.3606 56.4268 42.7785 55.8538C42.468 55.549 35.218 48.27 37.552 37.7674C39.7981 27.6604 50.7727 16.5407 65.2502 15.427C66.9221 15.2992 68.345 16.5362 68.4719 18.1881C68.5989 19.8401 67.3625 21.2823 65.7112 21.4093C54.1623 22.2977 45.1428 31.2677 43.4094 39.069C41.8098 46.2662 46.7854 51.3741 46.9973 51.5881C48.1604 52.7586 48.1662 54.655 47.0022 55.8248C46.4153 56.4154 45.6438 56.712 44.8733 56.712Z" fill="black"/>
<path d="M105.75 140.791C115.428 132.172 116.585 122.723 116.585 122.723C116.585 122.723 140.174 126.307 138.34 103.657C137.148 96.3206 131.394 93.2697 125.737 94.1379" fill="white"/>
<path d="M105.751 143.791C104.925 143.791 104.102 143.452 103.51 142.787C102.408 141.549 102.517 139.653 103.755 138.551C112.381 130.869 113.597 122.427 113.609 122.342C113.716 121.544 114.139 120.815 114.784 120.332C115.427 119.849 116.236 119.636 117.035 119.757C117.124 119.77 126.55 121.091 131.795 116.177C134.58 113.568 135.778 109.48 135.359 104.022C134.332 98.0376 129.791 96.5511 126.191 97.1032C124.544 97.3545 123.022 96.2308 122.771 94.593C122.519 92.9553 123.643 91.4239 125.281 91.1727C131.885 90.1591 139.725 93.4802 141.301 103.175C141.313 103.255 141.323 103.335 141.33 103.415C141.933 110.865 140.095 116.641 135.869 120.582C130.572 125.521 122.991 126.043 118.93 125.914C117.839 129.677 114.976 136.591 107.745 143.032C107.174 143.541 106.461 143.791 105.751 143.791V143.791Z" fill="black"/>
</svg>
