<svg width="180" height="171" viewBox="0 0 180 171" fill="none" xmlns="http://www.w3.org/2000/svg">
<path d="M140.11 103.504C140.106 103.446 140.098 103.39 140.09 103.333C139.756 101.277 139.312 100.892 138.426 99.4074C148.809 88.8031 142.348 70.3988 138.79 63.0823C135.025 55.3409 127.529 43.83 119.901 40.1975C112.272 36.565 93.7466 27.1205 69.4088 37.2915C45.071 47.4625 36.4948 80.7263 36.116 81.8545C36.0772 81.9689 34.4057 87.2276 33.4292 94.764C32.6208 98.5223 32.4195 102.501 32.7545 106.532C32.8952 113.416 34.0684 120.85 37.3042 127.581C43.3652 140.187 63.3539 147.432 67.6657 149.23C67.6657 149.23 68.2282 161.523 66.5936 163.158C67.6833 168.062 78.8533 169.969 78.8533 169.969C88.5333 170.605 93.0201 163.703 93.0201 163.703V149.808C93.0201 149.808 104.014 144.753 110.436 137.781C115.101 133.276 118.384 125.924 119.122 124.181C119.904 124.293 121.161 124.428 122.691 124.428C126.198 124.428 131.115 123.715 134.9 120.375C138.973 116.782 140.726 111.106 140.11 103.504V103.504Z" fill="white"/>
<path d="M36.4023 81.698C36.4023 81.698 46.4023 76.698 51.4023 63.698C55.1502 53.9536 62.9794 51.7785 69.4023 54.698C80.4023 59.698 96.048 62.1913 101.466 62.8585C116.402 64.698 120.402 69.698 115.402 86.698C111.267 100.76 118.402 99.698 129.546 94.7901C131.683 93.8487 133.655 94.0292 138.37 103.647C139.828 106.622 146.734 98.6226 146.734 81.2281C146.734 57.0666 126.402 32.698 100.493 28.7169C70.4873 24.1064 42.5972 36.9533 36.4023 81.698Z" fill="black"/>
<path d="M57.0304 104.909C59.8248 104.909 62.09 102.644 62.09 99.8497C62.09 97.0553 59.8248 94.79 57.0304 94.79C54.236 94.79 51.9707 97.0553 51.9707 99.8497C51.9707 102.644 54.236 104.909 57.0304 104.909Z" fill="black"/>
<path d="M92.5948 111.675C95.3892 111.675 97.6545 109.41 97.6545 106.616C97.6545 103.821 95.3892 101.556 92.5948 101.556C89.8004 101.556 87.5352 103.821 87.5352 106.616C87.5352 109.41 89.8004 111.675 92.5948 111.675Z" fill="black"/>
<path d="M67.3403 166.184C66.7905 166.184 66.2339 166.033 65.7349 165.716C64.3433 164.832 63.9263 162.992 64.7984 161.596C65.5122 160.23 65.7446 154.712 65.2837 152.434C64.8511 152.321 64.3032 152.193 63.8237 152.08C57.8325 150.677 43.8032 147.39 36.4429 131.709C26.9605 111.507 33.0982 82.8277 33.1694 82.5583L33.7388 80.4016C38.2495 63.2412 46.645 31.2991 83.6528 27.6054C102.636 25.7099 120.357 31.4577 132.251 43.375C143.259 54.4047 148.356 69.9696 146.602 87.2025C146.435 88.8507 144.975 90.052 143.314 89.8833C141.666 89.7155 140.465 88.2433 140.633 86.5949C142.224 70.9647 137.857 57.4851 128.004 47.6135C117.388 36.9767 101.44 31.8597 84.2485 33.5758C51.3882 36.8555 44.2593 63.9788 39.5415 81.9268L38.9859 84.03C38.7554 85.1535 33.5464 111.418 41.8745 129.159C48.0005 142.211 59.6118 144.931 65.1919 146.238C67.8452 146.86 69.3071 147.202 70.2066 148.634C72.2241 151.937 71.7124 161.9 69.8755 164.792C69.3042 165.692 68.3325 166.184 67.3403 166.184Z" fill="black"/>
<path d="M57.0324 104.522C59.6251 104.522 61.7269 102.42 61.7269 99.8273C61.7269 97.2346 59.6251 95.1328 57.0324 95.1328C54.4397 95.1328 52.3379 97.2346 52.3379 99.8273C52.3379 102.42 54.4397 104.522 57.0324 104.522Z" fill="black"/>
<path d="M92.5597 111.31C95.1524 111.31 97.2542 109.209 97.2542 106.616C97.2542 104.023 95.1524 101.921 92.5597 101.921C89.967 101.921 87.8652 104.023 87.8652 106.616C87.8652 109.209 89.967 111.31 92.5597 111.31Z" fill="black"/>
<path d="M105.782 143.781C104.956 143.781 104.134 143.442 103.541 142.776C102.439 141.539 102.549 139.643 103.786 138.541C112.412 130.859 113.629 122.416 113.64 122.332C113.747 121.534 114.171 120.804 114.815 120.321C115.458 119.839 116.269 119.626 117.066 119.747C117.153 119.76 126.581 121.081 131.826 116.166C134.611 113.558 135.809 109.47 135.39 104.012C134.363 98.0273 129.822 96.5409 126.222 97.0929C124.582 97.3442 123.053 96.2205 122.803 94.5828C122.551 92.9451 123.675 91.4137 125.312 91.1624C131.914 90.1489 139.757 93.47 141.332 103.165C141.345 103.245 141.354 103.324 141.361 103.404C141.965 110.855 140.127 116.631 135.9 120.572C130.603 125.511 123.018 126.032 118.962 125.904C117.87 129.666 115.008 136.581 107.776 143.021C107.205 143.531 106.492 143.781 105.782 143.781V143.781Z" fill="black"/>
<path d="M39.1604 133.435C38.0334 133.435 36.9533 132.797 36.4426 131.709C29.6692 117.278 30.883 98.3657 32.2102 88.3768C32.4289 86.7342 33.9377 85.5798 35.5783 85.7979C37.2209 86.0161 38.3762 87.5244 38.1574 89.1668C37.1594 96.6838 35.5227 115.628 41.8742 129.159C42.5783 130.659 41.9328 132.446 40.4328 133.15C40.0207 133.343 39.5871 133.435 39.1604 133.435H39.1604Z" fill="black"/>
</svg>
