<svg width="180" height="171" viewBox="0 0 180 171" fill="none" xmlns="http://www.w3.org/2000/svg">
<path d="M140.099 103.504C140.095 103.446 140.088 103.39 140.079 103.333C139.871 101.903 139.299 100.551 138.416 99.4074C148.799 88.8031 142.337 70.3988 138.779 63.0823C135.014 55.3409 127.518 43.83 119.89 40.1975C112.262 36.565 93.7362 27.1205 69.3983 37.2915C45.0605 47.4625 36.4843 80.7263 36.1054 81.8545C34.8568 86.0766 33.9582 90.3943 33.4187 94.764C32.6172 98.6324 32.3899 102.598 32.7439 106.532C32.7486 113.792 34.2996 120.967 37.2936 127.581C43.3546 140.187 63.3434 147.432 67.6552 149.23C67.6552 149.23 68.2177 161.523 66.5831 163.158C67.6728 168.062 78.8428 169.969 78.8428 169.969C81.5427 170.221 84.2622 169.778 86.7421 168.681C89.2221 167.584 91.3797 165.87 93.0096 163.703V149.808C93.0096 149.808 104.004 144.753 110.425 137.781C115.091 133.276 118.373 125.924 119.111 124.181C120.294 124.347 121.486 124.429 122.68 124.428C126.187 124.428 131.104 123.715 134.89 120.375C138.963 116.782 140.715 111.106 140.099 103.504Z" fill="white"/>
<path d="M36.3926 81.698C36.3926 81.698 46.3926 76.698 51.3926 63.698C55.1404 53.9536 62.9696 51.7785 69.3926 54.698C80.3926 59.698 96.0382 62.1912 101.456 62.8585C116.393 64.698 120.393 69.698 115.393 86.698C111.257 100.76 118.393 99.698 129.536 94.7901C131.673 93.8487 133.646 94.0291 138.36 103.647C139.818 106.622 146.724 98.6226 146.724 81.2281C146.724 57.0666 126.393 32.698 100.483 28.7169C70.4776 24.1064 42.5875 36.9534 36.3926 81.698Z" fill="#82BE28"/>
<path d="M57.0206 104.909C59.815 104.909 62.0803 102.644 62.0803 99.8497C62.0803 97.0553 59.815 94.79 57.0206 94.79C54.2262 94.79 51.9609 97.0553 51.9609 99.8497C51.9609 102.644 54.2262 104.909 57.0206 104.909Z" fill="black"/>
<path d="M92.5851 111.676C95.3794 111.676 97.6447 109.411 97.6447 106.616C97.6447 103.822 95.3794 101.557 92.5851 101.557C89.7907 101.557 87.5254 103.822 87.5254 106.616C87.5254 109.411 89.7907 111.676 92.5851 111.676Z" fill="black"/>
<path d="M67.3306 166.184C66.7955 166.183 66.2704 166.04 65.8095 165.768C65.3487 165.496 64.9689 165.106 64.7096 164.638C64.4503 164.17 64.3209 163.641 64.3348 163.106C64.3487 162.571 64.5054 162.049 64.7886 161.596C65.5025 160.23 65.7349 154.712 65.274 152.434C64.8414 152.321 64.2935 152.193 63.814 152.08C57.8228 150.677 43.7935 147.39 36.4331 131.709C26.9507 111.507 33.0884 82.8277 33.1597 82.5583L33.729 80.4016C38.2398 63.2412 46.6353 31.2991 83.6431 27.6054C102.626 25.7099 120.347 31.4577 132.242 43.375C143.25 54.4047 148.346 69.9696 146.592 87.2025C146.553 87.5949 146.437 87.9758 146.25 88.3232C146.064 88.6707 145.81 88.978 145.505 89.2275C145.199 89.477 144.848 89.6638 144.47 89.7772C144.092 89.8906 143.696 89.9284 143.304 89.8885C142.911 89.8486 142.531 89.7317 142.183 89.5444C141.836 89.3572 141.53 89.1034 141.281 88.7975C141.032 88.4916 140.845 88.1396 140.733 87.7616C140.62 87.3837 140.583 86.9872 140.624 86.5949C142.214 70.9647 137.847 57.4851 127.995 47.6135C117.378 36.9767 101.43 31.8597 84.2388 33.5758C51.3784 36.8555 44.2495 63.9788 39.5317 81.9268L38.9761 84.03C38.7456 85.1535 33.5366 111.418 41.8648 129.159C47.9908 142.211 59.6021 144.931 65.1821 146.238C67.8355 146.86 69.2974 147.202 70.1968 148.634C72.2144 151.937 71.7026 161.9 69.8658 164.792C69.5949 165.219 69.2205 165.57 68.7772 165.814C68.334 166.057 67.8363 166.184 67.3306 166.184Z" fill="black"/>
<path d="M57.0226 104.522C59.6153 104.522 61.7171 102.42 61.7171 99.8273C61.7171 97.2346 59.6153 95.1328 57.0226 95.1328C54.4299 95.1328 52.3281 97.2346 52.3281 99.8273C52.3281 102.42 54.4299 104.522 57.0226 104.522Z" fill="black"/>
<path d="M92.55 111.311C95.1427 111.311 97.2445 109.209 97.2445 106.616C97.2445 104.024 95.1427 101.922 92.55 101.922C89.9573 101.922 87.8555 104.024 87.8555 106.616C87.8555 109.209 89.9573 111.311 92.55 111.311Z" fill="black"/>
<path d="M105.772 143.781C105.164 143.781 104.57 143.597 104.069 143.252C103.569 142.907 103.184 142.417 102.968 141.849C102.751 141.281 102.713 140.66 102.857 140.069C103.002 139.478 103.322 138.945 103.776 138.541C112.402 130.859 113.619 122.416 113.631 122.332C113.683 121.936 113.814 121.555 114.015 121.21C114.217 120.865 114.484 120.564 114.803 120.323C115.122 120.083 115.485 119.908 115.872 119.809C116.259 119.71 116.661 119.689 117.056 119.747C117.143 119.76 126.571 121.081 131.816 116.166C134.601 113.558 135.8 109.47 135.381 104.012C134.353 98.0273 129.812 96.5409 126.213 97.0929C125.427 97.2111 124.627 97.0131 123.988 96.5423C123.348 96.0715 122.921 95.3664 122.801 94.5814C122.681 93.7965 122.876 92.9958 123.345 92.3549C123.814 91.714 124.518 91.2852 125.303 91.1624C131.904 90.1489 139.747 93.47 141.322 103.165C141.335 103.244 141.345 103.324 141.351 103.404C141.955 110.855 140.117 116.631 135.89 120.572C130.594 125.511 123.009 126.032 118.952 125.904C116.902 132.545 113.026 138.477 107.766 143.021C107.218 143.512 106.508 143.782 105.772 143.781Z" fill="black"/>
<path d="M39.1506 133.435C38.5804 133.435 38.022 133.273 37.5406 132.967C37.0593 132.661 36.675 132.225 36.4328 131.709C29.6594 117.278 30.8733 98.3657 32.2004 88.3768C32.2516 87.9857 32.3795 87.6086 32.5766 87.267C32.7737 86.9254 33.0363 86.6261 33.3492 86.386C33.6622 86.146 34.0194 85.9701 34.4004 85.8683C34.7814 85.7665 35.1788 85.7408 35.5698 85.7927C35.9607 85.8447 36.3376 85.9732 36.6788 86.1709C37.0201 86.3687 37.319 86.6318 37.5584 86.9452C37.7979 87.2586 37.9732 87.6161 38.0743 87.9973C38.1754 88.3785 38.2003 88.7759 38.1477 89.1668C37.1496 96.6838 35.5129 115.628 41.8645 129.159C42.0787 129.616 42.1742 130.12 42.142 130.624C42.1099 131.128 41.9512 131.615 41.6807 132.042C41.4101 132.468 41.0364 132.819 40.5942 133.062C40.152 133.306 39.6555 133.434 39.1506 133.435V133.435Z" fill="black"/>
</svg>
