<svg width="180" height="171" viewBox="0 0 180 171" fill="none" xmlns="http://www.w3.org/2000/svg">
<path d="M140.084 103.532C140.08 103.474 140.072 103.417 140.064 103.361C139.856 101.931 139.283 100.579 138.4 99.4352C148.783 88.831 142.322 70.4266 138.764 63.1101C134.999 55.3687 127.503 43.8578 119.875 40.2253C112.246 36.5928 93.7205 27.1483 69.3827 37.3193C45.0449 47.4903 36.4687 80.7541 36.0898 81.8824C34.8412 86.1044 33.9426 90.4222 33.4031 94.7918C32.6016 98.6602 32.3743 102.626 32.7283 106.56C32.733 113.82 34.2839 120.995 37.278 127.609C43.339 140.215 63.3277 147.46 67.6396 149.257C67.6396 149.257 68.202 161.551 66.5674 163.186C67.6572 168.09 78.8271 169.997 78.8271 169.997C81.5271 170.249 84.2466 169.805 86.7265 168.708C89.2064 167.612 91.3641 165.898 92.9939 163.731V149.836C92.9939 149.836 103.988 144.78 110.409 137.809C115.075 133.304 118.358 125.951 119.096 124.208C120.278 124.374 121.471 124.457 122.665 124.456C126.171 124.456 131.089 123.743 134.874 120.403C138.947 116.81 140.699 111.134 140.084 103.532Z" fill="white"/>
<path d="M57.005 104.937C59.7994 104.937 62.0647 102.671 62.0647 99.8771C62.0647 97.0827 59.7994 94.8174 57.005 94.8174C54.2106 94.8174 51.9453 97.0827 51.9453 99.8771C51.9453 102.671 54.2106 104.937 57.005 104.937Z" fill="black"/>
<path d="M92.5694 111.703C95.3638 111.703 97.6291 109.438 97.6291 106.643C97.6291 103.849 95.3638 101.583 92.5694 101.583C89.7751 101.583 87.5098 103.849 87.5098 106.643C87.5098 109.438 89.7751 111.703 92.5694 111.703Z" fill="black"/>
<path d="M67.315 166.211C66.7799 166.211 66.2547 166.067 65.7938 165.795C65.333 165.523 64.9532 165.133 64.6939 164.665C64.4346 164.197 64.3052 163.668 64.3191 163.133C64.333 162.598 64.4897 162.077 64.773 161.623C65.4869 160.257 65.7193 154.739 65.2584 152.461C64.8257 152.349 64.2779 152.22 63.7984 152.108C57.8071 150.705 43.7778 147.418 36.4175 131.736C26.9351 111.534 33.0728 82.8553 33.1441 82.5859C37.3853 66.6728 46.2105 33.5672 85.6275 29.6331C94.314 28.745 103.088 29.8707 111.269 32.9228C119.45 35.9748 126.818 40.8712 132.8 47.2317C143.7 58.727 148.714 73.3613 146.557 87.3824C146.497 87.7718 146.361 88.1455 146.157 88.4823C145.953 88.8191 145.684 89.1124 145.366 89.3453C145.049 89.5783 144.688 89.7464 144.306 89.84C143.923 89.9337 143.526 89.9511 143.136 89.8912C142.747 89.8312 142.373 89.6952 142.036 89.4909C141.7 89.2866 141.406 89.0179 141.173 88.7002C140.94 88.3826 140.772 88.0221 140.679 87.6395C140.585 87.2569 140.568 86.8595 140.628 86.4702C142.5 74.2963 138.06 61.4992 128.446 51.3601C123.092 45.6664 116.497 41.2832 109.175 38.5505C101.852 35.8179 93.9985 34.8094 86.2232 35.6034C50.9879 39.1201 43.1568 68.3169 38.9605 84.0604C38.7213 85.2234 33.5289 111.46 41.8492 129.187C47.9752 142.239 59.5865 144.959 65.1666 146.266C67.8199 146.888 69.2818 147.23 70.1812 148.662C72.1988 151.964 71.6871 161.927 69.8502 164.819C69.5794 165.246 69.2049 165.598 68.7616 165.841C68.3184 166.085 67.8207 166.212 67.315 166.211Z" fill="black"/>
<path d="M105.757 143.809C105.149 143.809 104.555 143.624 104.054 143.279C103.553 142.934 103.169 142.445 102.952 141.877C102.736 141.308 102.697 140.688 102.842 140.097C102.986 139.506 103.306 138.973 103.761 138.568C112.387 130.886 113.603 122.444 113.615 122.36C113.668 121.964 113.798 121.582 114 121.238C114.201 120.893 114.469 120.591 114.787 120.351C115.106 120.11 115.47 119.935 115.856 119.837C116.243 119.738 116.646 119.717 117.041 119.775C117.129 119.787 126.557 121.109 131.801 116.194C134.586 113.586 135.784 109.497 135.365 104.04C134.338 98.0538 129.795 96.5689 126.198 97.1205C125.413 97.2386 124.613 97.0406 123.973 96.5698C123.334 96.099 122.907 95.3939 122.787 94.609C122.666 93.8241 122.862 93.0234 123.331 92.3825C123.8 91.7416 124.503 91.3128 125.288 91.19C131.903 90.1753 139.732 93.499 141.306 103.193C141.319 103.272 141.329 103.352 141.336 103.432C141.939 110.882 140.101 116.658 135.875 120.599C130.578 125.538 122.994 126.06 118.936 125.931C116.886 132.573 113.01 138.504 107.751 143.049C107.202 143.539 106.492 143.81 105.757 143.809Z" fill="black"/>
<path d="M39.135 133.462C38.5648 133.462 38.0063 133.3 37.525 132.994C37.0437 132.689 36.6594 132.252 36.4172 131.736C29.6438 117.305 30.8576 98.393 32.1848 88.4041C32.2367 88.0136 32.3649 87.6371 32.5623 87.2962C32.7597 86.9552 33.0222 86.6565 33.335 86.4171C33.6479 86.1776 34.0048 86.0021 34.3854 85.9006C34.766 85.7991 35.1629 85.7736 35.5534 85.8254C35.9439 85.8773 36.3204 86.0056 36.6613 86.2029C37.0022 86.4003 37.3009 86.6629 37.5404 86.9757C37.7798 87.2885 37.9553 87.6454 38.0568 88.026C38.1584 88.4067 38.1839 88.8036 38.132 89.1941C37.134 96.7111 35.4973 115.656 41.8488 129.186C42.0631 129.644 42.1585 130.147 42.1264 130.651C42.0943 131.155 41.9356 131.643 41.665 132.069C41.3945 132.495 41.0208 132.846 40.5786 133.09C40.1363 133.333 39.6398 133.461 39.135 133.462V133.462Z" fill="black"/>
<path d="M74.5293 14.7588C90.0302 9.78684 127.529 9.75884 147.529 43.7588C167.529 77.7588 150.529 108.759 141.529 114.759C132.529 120.759 117.529 104.759 117.529 104.759C117.529 104.759 117.529 105.759 107.529 100.759C99.5293 100.759 86.5293 98.7588 79.5293 89.7588C64.5293 89.7588 64.5293 87.7588 64.5293 87.7588C64.5293 87.7588 52.5293 87.7588 42.5293 75.7588C41.5293 81.7588 33.5293 93.7588 33.5293 93.7588C33.5293 93.7588 26.5293 88.7588 25.5293 77.7588C26.5293 68.7588 21.5293 31.7588 74.5293 14.7588Z" fill="#2D8C3C"/>
<path d="M89.5284 98.7592C89.0874 98.759 88.6518 98.6613 88.253 98.4729C72.506 91.0626 65.1817 76.1869 68.6612 58.6803C68.738 58.2939 68.8902 57.9264 69.109 57.5988C69.3278 57.2712 69.609 56.9899 69.9365 56.771C70.2641 56.5521 70.6315 56.3998 71.0179 56.3229C71.4043 56.246 71.802 56.2459 72.1884 56.3227C72.5748 56.3995 72.9423 56.5516 73.2699 56.7705C73.5975 56.9893 73.8788 57.2705 74.0977 57.598C74.3166 57.9255 74.4689 58.293 74.5458 58.6793C74.6227 59.0657 74.6228 59.4635 74.546 59.8499C73.1505 66.8727 71.9415 84.1656 90.8077 93.044C91.425 93.3345 91.9248 93.8266 92.2248 94.4393C92.5248 95.0519 92.6071 95.7485 92.4581 96.4142C92.3091 97.0799 91.9377 97.675 91.4051 98.1013C90.8725 98.5275 90.2106 98.7596 89.5284 98.7592V98.7592Z" fill="black"/>
<path d="M117.488 107.32C117.241 107.32 116.995 107.289 116.755 107.229C100.283 103.089 90.6192 90.9618 91.5343 75.5805C91.5815 74.7861 91.9424 74.0431 92.5376 73.5148C93.1327 72.9866 93.9133 72.7163 94.7076 72.7636C95.502 72.8109 96.245 73.1718 96.7733 73.7669C97.3016 74.362 97.5718 75.1426 97.5245 75.9369C96.7911 88.2567 104.72 98.0173 118.218 101.41C118.927 101.588 119.547 102.02 119.961 102.623C120.374 103.227 120.553 103.961 120.463 104.687C120.374 105.413 120.022 106.081 119.474 106.566C118.926 107.051 118.22 107.319 117.488 107.32H117.488Z" fill="black"/>
<path d="M31.5313 97.7592C30.9599 97.7595 30.4004 97.5966 29.9184 97.2898C29.4365 96.983 29.0521 96.5449 28.8106 96.0272C17.502 71.7932 22.0596 48.9038 42.3584 27.9948C62.9112 6.82277 99.3926 2.65777 125.413 18.5151C145.817 30.9508 158.061 52.0646 159.005 76.4429C159.036 77.2381 158.749 78.0129 158.209 78.5969C157.668 79.1809 156.918 79.5263 156.123 79.5571C155.328 79.5879 154.553 79.3015 153.969 78.7611C153.385 78.2206 153.04 77.4703 153.009 76.6751C152.145 54.3407 140.948 35.0097 122.29 23.6386C98.5664 9.18007 65.3457 12.9288 46.6631 32.174C28.0176 51.3804 23.9561 71.4369 34.2481 93.4898C34.4611 93.9469 34.5555 94.4503 34.5225 94.9536C34.4896 95.4568 34.3304 95.9436 34.0597 96.3691C33.789 96.7945 33.4154 97.1449 32.9735 97.3879C32.5316 97.6309 32.0356 97.7586 31.5313 97.7592Z" fill="black"/>
<path d="M142.57 117.577C141.974 117.577 141.39 117.399 140.895 117.066C140.4 116.733 140.016 116.259 139.791 115.706C139.566 115.154 139.512 114.546 139.634 113.962C139.756 113.378 140.05 112.844 140.478 112.428C146.411 106.557 150.462 99.0529 152.116 90.8716C152.194 90.485 152.348 90.1177 152.568 89.7906C152.789 89.4635 153.071 89.183 153.4 88.9652C153.729 88.7474 154.097 88.5966 154.484 88.5214C154.872 88.4462 155.27 88.448 155.656 88.5268C156.043 88.6056 156.41 88.7598 156.736 88.9806C157.063 89.2014 157.343 89.4845 157.56 89.8136C157.778 90.1428 157.928 90.5115 158.003 90.8987C158.077 91.286 158.075 91.6841 157.995 92.0704C156.097 101.43 151.456 110.013 144.663 116.726C144.104 117.272 143.352 117.578 142.57 117.577Z" fill="black"/>
<path d="M46.5288 83.759C45.8802 83.7596 45.2491 83.5489 44.7309 83.1588C41.9898 81.021 39.922 78.1392 38.7745 74.8578C37.6271 71.5764 37.4486 68.034 38.2602 64.6538C38.3515 64.2706 38.5173 63.9091 38.7482 63.59C38.9792 63.2709 39.2707 63.0005 39.6062 62.794C39.9417 62.5876 40.3146 62.4493 40.7035 62.3869C41.0925 62.3246 41.4899 62.3395 41.8731 62.4307C42.2563 62.522 42.6177 62.6878 42.9368 62.9188C43.2559 63.1497 43.5264 63.4412 43.7329 63.7767C43.9393 64.1122 44.0776 64.4851 44.14 64.874C44.2023 65.263 44.1874 65.6604 44.0962 66.0436C43.5653 68.2867 43.6813 70.6343 44.4308 72.8141C45.1803 74.9939 46.5325 76.9165 48.3305 78.3588C48.8345 78.7366 49.2068 79.2635 49.3945 79.8647C49.5823 80.4659 49.5761 81.111 49.3767 81.7085C49.1774 82.306 48.795 82.8256 48.2839 83.1936C47.7727 83.5616 47.1587 83.7594 46.5288 83.759H46.5288Z" fill="black"/>
<path d="M64.1195 90.5638C63.6568 90.5638 63.2005 90.4563 62.7865 90.2496C47.8617 82.832 48.8939 63.5822 48.9447 62.7663C48.9938 61.9723 49.3564 61.2302 49.9526 60.7034C50.5488 60.1766 51.3299 59.9083 52.124 59.9574C52.9181 60.0065 53.6602 60.3691 54.1869 60.9653C54.7137 61.5615 54.9821 62.3426 54.933 63.1367C54.9222 63.324 54.1332 79.2489 65.4564 84.8767C66.0623 85.1779 66.5486 85.675 66.8364 86.2874C67.1242 86.8997 67.1965 87.5914 67.0417 88.2501C66.8868 88.9087 66.5139 89.4957 65.9834 89.9157C65.453 90.3358 64.7961 90.5642 64.1195 90.5638V90.5638Z" fill="black"/>
</svg>
