<svg width="180" height="171" viewBox="0 0 180 171" fill="none" xmlns="http://www.w3.org/2000/svg">
<path d="M140.094 103.532C140.09 103.474 140.083 103.417 140.074 103.36C139.74 101.304 139.296 100.919 138.411 99.4347C148.794 88.8305 142.332 70.4262 138.774 63.1096C135.009 55.3682 127.513 43.8574 119.885 40.2249C112.257 36.5923 93.7309 27.1478 69.3931 37.3188C45.0554 47.4899 36.4792 80.7537 36.1003 81.8819C36.0616 81.9962 34.3901 87.2549 33.4136 94.7913C32.6052 98.5496 32.4038 102.528 32.7388 106.56C32.8795 113.443 34.0527 120.877 37.2885 127.608C43.3496 140.215 63.3383 147.459 67.6501 149.257C67.6501 149.257 68.2126 161.551 66.578 163.185C67.6677 168.089 78.8377 169.996 78.8377 169.996C88.5176 170.633 93.0044 163.73 93.0044 163.73V149.836C93.0044 149.836 103.998 144.78 110.42 137.808C115.086 133.303 118.368 125.951 119.106 124.208C119.888 124.32 121.146 124.455 122.675 124.455C126.182 124.455 131.099 123.743 134.885 120.402C138.958 116.809 140.71 111.133 140.094 103.532V103.532Z" fill="white"/>
<path d="M57.0167 104.937C59.8111 104.937 62.0764 102.671 62.0764 99.8771C62.0764 97.0827 59.8111 94.8174 57.0167 94.8174C54.2223 94.8174 51.957 97.0827 51.957 99.8771C51.957 102.671 54.2223 104.937 57.0167 104.937Z" fill="black"/>
<path d="M92.5792 111.703C95.3736 111.703 97.6389 109.438 97.6389 106.643C97.6389 103.849 95.3736 101.583 92.5792 101.583C89.7848 101.583 87.5195 103.849 87.5195 106.643C87.5195 109.438 89.7848 111.703 92.5792 111.703Z" fill="black"/>
<path d="M67.3249 166.211C66.7751 166.211 66.2185 166.06 65.7194 165.743C64.3278 164.859 63.9108 163.019 64.7829 161.622C65.4968 160.256 65.7292 154.738 65.2683 152.46C64.8347 152.348 64.2868 152.22 63.8073 152.107C57.8161 150.704 43.7868 147.417 36.4265 131.736C26.945 111.534 33.0827 82.8546 33.154 82.5852C37.3942 66.6724 46.2175 33.5666 85.6364 29.6324C103.338 27.8659 120.529 34.2805 132.81 47.232C143.71 58.7273 148.723 73.3613 146.566 87.3819C146.315 89.0201 144.769 90.1419 143.145 89.8908C141.508 89.6388 140.384 88.1071 140.636 86.4694C142.509 74.2961 138.07 61.4994 128.456 51.3603C117.462 39.7652 102.066 34.0223 86.2321 35.6027C50.9948 39.1196 43.1657 68.3162 38.9704 84.0597C38.7321 85.2196 33.5368 111.458 41.8581 129.186C47.9841 142.238 59.5954 144.958 65.1755 146.265C67.8298 146.887 69.2917 147.23 70.1901 148.662C72.2077 151.962 71.697 161.926 69.8601 164.819C69.2888 165.719 68.3171 166.211 67.3249 166.211Z" fill="black"/>
<path d="M105.766 143.808C104.94 143.808 104.118 143.469 103.525 142.804C102.424 141.566 102.533 139.67 103.77 138.568C112.396 130.886 113.613 122.444 113.625 122.359C113.731 121.561 114.155 120.832 114.8 120.349C115.442 119.866 116.254 119.653 117.051 119.774C117.138 119.787 126.564 121.108 131.81 116.194C134.595 113.585 135.794 109.497 135.375 104.039C134.346 98.0547 129.81 96.5682 126.207 97.1203C124.564 97.3716 123.037 96.2478 122.787 94.6101C122.535 92.9724 123.659 91.441 125.297 91.1898C131.898 90.1762 139.741 93.4973 141.316 103.192C141.329 103.272 141.339 103.352 141.345 103.432C141.949 110.882 140.111 116.658 135.885 120.599C130.588 125.538 123.005 126.06 118.946 125.931C117.854 129.694 114.992 136.608 107.761 143.049C107.189 143.558 106.476 143.808 105.766 143.808V143.808Z" fill="black"/>
<path d="M39.1438 133.462C38.0169 133.462 36.9368 132.824 36.4261 131.736C29.6536 117.305 30.8675 98.3929 32.1946 88.4042C32.4124 86.7615 33.9182 85.6072 35.5628 85.8253C37.2053 86.0434 38.3606 87.5517 38.1419 89.1942C37.1438 96.7111 35.5071 115.656 41.8577 129.187C42.5618 130.687 41.9163 132.473 40.4163 133.177C40.0042 133.37 39.5706 133.462 39.1438 133.462L39.1438 133.462Z" fill="black"/>
<path d="M74.5391 14.7584C90.04 9.78635 127.539 9.75835 147.539 43.7584C167.539 77.7583 150.539 108.758 141.539 114.758C132.539 120.758 117.539 104.758 117.539 104.758C117.539 104.758 117.539 105.758 107.539 100.758C99.5391 100.758 86.5391 98.7584 79.5391 89.7584C64.5391 89.7584 64.5391 87.7584 64.5391 87.7584C64.5391 87.7584 52.5391 87.7584 42.5391 75.7584C41.5391 81.7584 33.5391 93.7584 33.5391 93.7584C33.5391 93.7584 26.5391 88.7584 25.5391 77.7584C26.5391 68.7584 21.5391 31.7584 74.5391 14.7584Z" fill="black"/>
<path d="M89.5382 98.7591C89.1105 98.7591 88.6759 98.6671 88.2628 98.4728C72.5157 91.0625 65.1915 76.1867 68.671 58.6801C68.9933 57.0558 70.5714 55.9987 72.1983 56.3225C73.8233 56.6454 74.879 58.2246 74.5558 59.8497C73.1602 66.8725 71.9513 84.1654 90.8175 93.0438C92.3165 93.7494 92.9601 95.5366 92.255 97.0357C91.7433 98.122 90.6642 98.7591 89.5382 98.7591H89.5382Z" fill="black"/>
<path d="M117.498 107.32C117.256 107.32 117.011 107.29 116.765 107.228C100.292 103.088 90.6281 90.9612 91.5442 75.58C91.6438 73.9256 93.0432 72.6655 94.718 72.7637C96.3713 72.8622 97.6321 74.2828 97.5344 75.9368C96.8 88.2562 104.73 98.0167 118.228 101.409C119.834 101.813 120.81 103.443 120.406 105.05C120.064 106.411 118.841 107.32 117.498 107.32Z" fill="black"/>
<path d="M31.5417 97.759C30.4119 97.7591 29.3308 97.1181 28.821 96.027C17.5115 71.7925 22.0691 48.9031 42.3679 27.9946C62.9236 6.82147 99.405 2.65875 125.423 18.515C145.828 30.9506 158.071 52.0645 159.014 76.4429C159.078 78.0985 157.788 79.4925 156.133 79.5566C154.468 79.6214 153.083 78.3304 153.018 76.6748C152.155 54.3405 140.958 35.0095 122.3 23.6384C98.575 9.17969 65.3562 12.9286 46.6726 32.1739C28.0271 51.3797 23.9666 71.4363 34.2585 93.4896C34.9587 94.991 34.3103 96.7762 32.8083 97.4769C32.3982 97.6683 31.9665 97.759 31.5417 97.759Z" fill="black"/>
<path d="M142.58 117.577C141.799 117.577 141.019 117.274 140.431 116.67C139.275 115.483 139.3 113.583 140.488 112.427C146.316 106.752 150.449 99.0967 152.127 90.8713C152.458 89.2486 154.044 88.1994 155.666 88.5316C157.289 88.8628 158.337 90.4474 158.006 92.0708C156.09 101.463 151.355 110.22 144.673 116.726C144.09 117.294 143.335 117.577 142.58 117.577Z" fill="black"/>
<path d="M46.5387 83.7585C45.9117 83.7585 45.2799 83.563 44.7408 83.1583C40.1471 79.7129 36.3648 72.6549 38.2701 64.6533C38.6539 63.0409 40.2731 62.0465 41.8834 62.4298C43.4947 62.8136 44.4899 64.4313 44.1061 66.0431C42.8375 71.3711 45.4117 76.1618 48.3404 78.3583C49.6656 79.3524 49.9352 81.2328 48.941 82.5583C48.3512 83.3441 47.4508 83.7585 46.5387 83.7585L46.5387 83.7585Z" fill="black"/>
<path d="M64.1293 90.5632C63.68 90.5632 63.225 90.4622 62.7963 90.249C47.8715 82.8313 48.9037 63.5816 48.9545 62.7657C49.0589 61.112 50.4779 59.8553 52.1371 59.9597C53.7884 60.0634 55.0433 61.4849 54.9427 63.1361C54.932 63.3233 54.1429 79.2483 65.4662 84.8761C66.9506 85.6134 67.555 87.414 66.8177 88.8977C66.2933 89.9525 65.2318 90.5631 64.1293 90.5632H64.1293Z" fill="black"/>
<path d="M138.088 118.505C134.594 118.505 130.106 116.962 124.715 111.99C122.862 110.281 121.24 108.48 119.969 106.945C119.87 107.008 119.769 107.07 119.663 107.128C116.496 108.891 112.093 107.418 105.454 102.35C94.1269 102.13 84.5459 98.3048 78.0673 91.4626C71.8769 95.0804 64.2998 91.8528 59.7617 88.5782C55.5966 89.2791 44.4629 89.8018 39.7207 76.7846C39.1543 75.2278 39.957 73.5061 41.5136 72.9392C43.0683 72.3725 44.791 73.1744 45.3593 74.7315C49.29 85.5275 59.1894 82.6215 59.6113 82.4922C60.5664 82.1974 61.6132 82.4011 62.3925 83.0377C62.4765 83.1061 71.3886 90.2251 76.372 85.2382C76.9814 84.6302 77.8203 84.3114 78.6796 84.3654C79.538 84.4189 80.333 84.8385 80.8613 85.5178C88.1982 94.9511 100.069 96.3596 106.493 96.3596C107.165 96.3596 107.818 96.5854 108.347 97.0006C113.29 100.885 115.653 101.652 116.509 101.795C116.512 101.739 116.513 101.698 116.512 101.691C116.358 100.316 117.166 99.0144 118.467 98.5408C119.765 98.0673 121.222 98.5441 121.989 99.6954C124.74 103.809 134.016 114.906 140.291 112.031C141.796 111.34 143.577 112.003 144.268 113.509C144.957 115.015 144.296 116.796 142.789 117.486C141.511 118.071 139.938 118.505 138.088 118.505L138.088 118.505Z" fill="black"/>
<path d="M141.542 117.758C140.697 117.758 139.857 117.404 139.265 116.712C138.185 115.455 138.33 113.561 139.588 112.482C151.207 102.511 161.947 76.5464 143.908 45.8809C143.068 44.4528 143.545 42.6142 144.973 41.7741C146.404 40.9339 148.239 41.4109 149.08 42.8388C158.195 58.3344 161.476 74.4203 158.569 89.3578C156.413 100.439 150.778 110.786 143.494 117.035C142.929 117.521 142.233 117.758 141.542 117.758H141.542Z" fill="black"/>
</svg>
