<svg width="180" height="171" viewBox="0 0 180 171" fill="none" xmlns="http://www.w3.org/2000/svg">
<path d="M156.637 86.0665C159.233 39.7332 121.123 19.3874 105.581 15.4625C87.4869 10.8935 63.8975 15.7572 51.7715 23.5242C36.0561 33.5904 13.7741 73.3866 24.8977 95.531C30.3054 106.296 33.616 109.429 32.554 106.69C29.6697 99.2506 102.682 134.279 107.748 137.206C111.559 139.407 115.633 139.319 124.829 132.84C133.858 126.479 141.419 119.92 145.608 114.413C155.265 101.714 156.272 92.564 156.637 86.0665Z" fill="black"/>
<path d="M140.309 103.662C140.305 103.604 140.298 103.547 140.289 103.491C139.955 101.435 139.511 101.05 138.626 99.5651C149.009 88.9609 142.547 70.5565 138.989 63.24C135.224 55.4986 127.728 43.9877 120.1 40.3552C112.472 36.7227 93.9458 27.2782 69.608 37.4492C45.2702 47.6202 36.694 80.884 36.3152 82.0123C36.2764 82.1266 34.6049 87.3853 33.6284 94.9217C32.82 98.68 32.6187 102.659 32.9537 106.69C33.0944 113.574 34.2676 121.008 37.5034 127.739C43.5644 140.345 63.5531 147.59 67.8649 149.387C67.8649 149.387 68.4274 161.681 66.7928 163.316C67.8825 168.219 79.0525 170.127 79.0525 170.127C88.7325 170.763 93.2193 163.86 93.2193 163.86V149.966C93.2193 149.966 104.213 144.91 110.635 137.938C115.3 133.434 118.583 126.081 119.321 124.338C120.103 124.451 121.361 124.586 122.89 124.586C126.397 124.586 131.314 123.873 135.1 120.533C139.172 116.94 140.925 111.264 140.309 103.662V103.662Z" fill="white"/>
<path d="M57.2315 105.067C60.0259 105.067 62.2912 102.802 62.2912 100.007C62.2912 97.213 60.0259 94.9478 57.2315 94.9478C54.4372 94.9478 52.1719 97.213 52.1719 100.007C52.1719 102.802 54.4372 105.067 57.2315 105.067Z" fill="black"/>
<path d="M92.794 111.833C95.5884 111.833 97.8537 109.568 97.8537 106.774C97.8537 103.979 95.5884 101.714 92.794 101.714C89.9997 101.714 87.7344 103.979 87.7344 106.774C87.7344 109.568 89.9997 111.833 92.794 111.833Z" fill="black"/>
<path d="M67.5403 166.342C66.9905 166.342 66.4329 166.19 65.9339 165.873C64.5423 164.989 64.1262 163.149 64.9983 161.753C65.7132 160.387 65.9456 154.869 65.4846 152.591C65.0511 152.479 64.5032 152.35 64.0237 152.238C58.0325 150.834 44.0032 147.548 36.6428 131.866C27.1624 111.667 33.2991 82.9856 33.3704 82.7161C37.6106 66.8032 46.4339 33.6974 85.8528 29.7633C103.552 27.9968 120.746 34.4113 133.027 47.3628C143.926 58.858 148.94 73.4921 146.782 87.5127C146.531 89.1509 144.99 90.2727 143.362 90.0216C141.724 89.7697 140.601 88.2379 140.853 86.6004C142.726 74.427 138.286 61.6301 128.672 51.4911C117.678 39.8959 102.283 34.1525 86.4485 35.7336C51.2112 39.2504 43.3821 68.4471 39.1868 84.1905C38.9475 85.3536 33.7542 111.59 42.0745 129.317C48.2005 142.369 59.8118 145.089 65.3919 146.396C68.0462 147.018 69.5081 147.36 70.4065 148.793C72.4251 152.094 71.9134 162.058 70.0755 164.95C69.5042 165.85 68.5325 166.342 67.5403 166.342V166.342Z" fill="black"/>
<path d="M57.2316 104.679C59.8243 104.679 61.9261 102.577 61.9261 99.9845C61.9261 97.3918 59.8243 95.29 57.2316 95.29C54.6389 95.29 52.5371 97.3918 52.5371 99.9845C52.5371 102.577 54.6389 104.679 57.2316 104.679Z" fill="black"/>
<path d="M92.7609 111.468C95.3536 111.468 97.4554 109.366 97.4554 106.774C97.4554 104.181 95.3536 102.079 92.7609 102.079C90.1682 102.079 88.0664 104.181 88.0664 106.774C88.0664 109.366 90.1682 111.468 92.7609 111.468Z" fill="black"/>
<path d="M39.3596 133.592C38.2326 133.592 37.1526 132.954 36.6418 131.866C29.8684 117.435 31.0822 98.5234 32.4094 88.5345C32.6272 86.8918 34.1399 85.7377 35.7776 85.9556C37.4201 86.1738 38.5754 87.6821 38.3567 89.3245C37.3586 96.8415 35.7219 115.786 42.0735 129.317C42.7776 130.817 42.132 132.603 40.632 133.307C40.2199 133.501 39.7863 133.592 39.3596 133.592Z" fill="black"/>
<path d="M56.8312 105.067C59.6255 105.067 61.8908 102.802 61.8908 100.007C61.8908 97.213 59.6255 94.9478 56.8312 94.9478C54.0368 94.9478 51.7715 97.213 51.7715 100.007C51.7715 102.802 54.0368 105.067 56.8312 105.067Z" fill="black"/>
<path d="M92.3956 111.833C95.19 111.833 97.4553 109.568 97.4553 106.774C97.4553 103.979 95.19 101.714 92.3956 101.714C89.6012 101.714 87.3359 103.979 87.3359 106.774C87.3359 109.568 89.6012 111.833 92.3956 111.833Z" fill="black"/>
<path d="M139.8 98.721C139.8 98.721 147.791 94.8885 148.699 85.6256C149.608 76.3627 147.428 68.3712 140.345 55.839C133.261 43.3069 113.963 14.4387 71.3976 24.3146C54.2139 28.3015 44.6281 39.1295 39.9059 47.8475C38.0632 51.2494 27.978 70.7246 26.5226 81.1952C24.2482 97.5574 31.3475 105.5 34.0521 99.9608C43.3755 80.868 89.0163 84.7736 105.58 65.4428C107.839 67.5709 109.443 75.2993 109.88 84.9234C110.264 93.3593 111.378 104.556 114.833 104.268C121.113 103.745 122.357 93.3962 126.607 92.4945C131.567 91.6979 136.531 93.2722 139.8 98.721V98.721Z" fill="black"/>
<path d="M34.0624 106.236C33.5936 106.236 33.1171 106.126 32.6727 105.893C31.205 105.124 30.6386 103.311 31.4081 101.843C38.5253 88.2622 53.8544 84.9253 68.6786 81.6981C83.0868 78.5617 96.6952 75.5993 102.94 64.0187C103.725 62.5606 105.545 62.0153 107.005 62.802C108.463 63.5884 109.008 65.4082 108.222 66.8665C100.668 80.8752 85.0546 84.2739 69.955 87.5608C55.8563 90.63 42.539 93.529 36.7226 104.628C36.1864 105.651 35.1425 106.236 34.0624 106.236V106.236Z" fill="black"/>
<path d="M60.5069 9.95273C59.403 6.63072 65.239 4.43198 67.0782 5.929C74.9237 12.3149 90.0916 16.4487 93.9339 16.6897C106.553 17.4813 76.9683 26.148 75.1356 25.9238C69.3493 25.2157 63.881 20.1055 60.5069 9.95273Z" fill="black"/>
<path d="M105.982 143.939C105.155 143.939 104.333 143.6 103.74 142.934C102.638 141.697 102.748 139.8 103.986 138.698C112.612 131.016 113.829 122.574 113.841 122.49C113.947 121.692 114.371 120.962 115.016 120.479C115.658 119.996 116.471 119.783 117.267 119.905C117.355 119.918 126.78 121.239 132.027 116.324C134.812 113.716 136.01 109.627 135.591 104.17C134.563 98.185 130.022 96.6987 126.423 97.2506C124.782 97.5018 123.254 96.3781 123.003 94.7404C122.751 93.1027 123.875 91.5713 125.513 91.3201C132.112 90.3067 139.957 93.6276 141.532 103.323C141.545 103.402 141.555 103.482 141.562 103.562C142.165 111.012 140.327 116.788 136.101 120.729C130.804 125.668 123.219 126.19 119.162 126.061C118.07 129.824 115.208 136.739 107.976 143.179C107.404 143.688 106.692 143.939 105.982 143.939L105.982 143.939Z" fill="black"/>
</svg>
