<svg width="180" height="171" viewBox="0 0 180 171" fill="none" xmlns="http://www.w3.org/2000/svg">
<path d="M156.615 86.0377C159.211 39.7043 121.102 19.3586 105.559 15.4337C87.4654 10.8647 63.8761 15.7284 51.75 23.4954C36.0346 33.5616 13.7526 73.3578 24.8762 95.5022C30.2839 106.268 33.5945 109.401 32.5325 106.661C29.6482 99.2218 102.661 134.25 107.727 137.177C111.538 139.378 115.612 139.291 124.807 132.812C133.836 126.45 141.397 119.892 145.586 114.384C155.244 101.685 156.251 92.5352 156.615 86.0377H156.615Z" fill="#2D8C3C"/>
<path d="M41.5794 116.091C41.3402 116.091 41.096 116.062 40.8529 116.001C36.1204 114.823 17.4574 104.182 19.5658 77.0044C19.6947 75.3533 21.1224 74.1173 22.7894 74.2455C24.4408 74.3736 25.6761 75.8166 25.5482 77.4685C23.7533 100.601 39.1888 109.404 42.3021 110.179C43.9095 110.579 44.889 112.207 44.4886 113.815C44.1488 115.179 42.9251 116.091 41.5794 116.091V116.091Z" fill="black"/>
<path d="M140.288 103.633C140.283 103.575 140.276 103.519 140.268 103.462C139.933 101.406 139.49 101.021 138.604 99.5363C148.987 88.932 142.526 70.5277 138.967 63.2112C135.203 55.4698 127.707 43.9589 120.078 40.3264C112.45 36.6939 93.9243 27.2494 69.5865 37.4204C45.2487 47.5914 36.6726 80.8552 36.2937 81.9834C36.2549 82.0978 34.5835 87.3565 33.6069 94.8929C32.7985 98.6512 32.5972 102.63 32.9322 106.661C33.0729 113.545 34.2461 120.979 37.4819 127.71C43.5429 140.316 63.5316 147.561 67.8435 149.358C67.8435 149.358 68.4059 161.652 66.7713 163.287C67.8611 168.191 79.031 170.098 79.031 170.098C88.711 170.734 93.1978 163.832 93.1978 163.832V149.937C93.1978 149.937 104.192 144.882 110.613 137.91C115.279 133.405 118.561 126.053 119.299 124.31C120.082 124.422 121.339 124.557 122.869 124.557C126.375 124.557 131.292 123.844 135.078 120.504C139.151 116.911 140.903 111.235 140.288 103.633L140.288 103.633Z" fill="white"/>
<path d="M57.2101 105.038C60.0044 105.038 62.2697 102.773 62.2697 99.9786C62.2697 97.1842 60.0044 94.9189 57.2101 94.9189C54.4157 94.9189 52.1504 97.1842 52.1504 99.9786C52.1504 102.773 54.4157 105.038 57.2101 105.038Z" fill="black"/>
<path d="M92.7745 111.804C95.5689 111.804 97.8342 109.539 97.8342 106.745C97.8342 103.95 95.5689 101.685 92.7745 101.685C89.9801 101.685 87.7148 103.95 87.7148 106.745C87.7148 109.539 89.9801 111.804 92.7745 111.804Z" fill="black"/>
<path d="M67.5186 166.313C66.9688 166.313 66.4112 166.162 65.9122 165.845C64.5206 164.96 64.1046 163.12 64.9766 161.724C65.6915 160.358 65.9239 154.841 65.463 152.563C65.0294 152.45 64.4815 152.322 64.002 152.209C58.0108 150.806 43.9815 147.519 36.6212 131.838C27.2472 111.866 33.2794 82.9455 33.3507 82.6773C37.5889 66.7744 46.4122 33.6687 85.8311 29.7345C103.524 27.968 120.724 34.3825 133.005 47.3341C143.904 58.8293 148.918 73.4633 146.761 87.484C146.509 89.1221 144.967 90.2436 143.34 89.9928C141.702 89.7409 140.579 88.2091 140.831 86.5715C142.704 74.3981 138.265 61.6014 128.65 51.4624C117.656 39.8672 102.264 34.1242 86.4268 35.7048C51.1895 39.2216 43.3604 68.4198 39.1641 84.1632C38.9288 85.307 33.7198 111.535 42.0528 129.288C48.1788 142.34 59.7901 145.06 65.3702 146.367C68.0235 146.989 69.4854 147.331 70.3848 148.763C72.4034 152.065 71.8917 162.029 70.0538 164.921C69.4825 165.821 68.5108 166.313 67.5186 166.313H67.5186Z" fill="black"/>
<path d="M57.2101 104.651C59.8028 104.651 61.9046 102.549 61.9046 99.9562C61.9046 97.3635 59.8028 95.2617 57.2101 95.2617C54.6174 95.2617 52.5156 97.3635 52.5156 99.9562C52.5156 102.549 54.6174 104.651 57.2101 104.651Z" fill="black"/>
<path d="M92.7394 111.439C95.3321 111.439 97.4339 109.337 97.4339 106.745C97.4339 104.152 95.3321 102.05 92.7394 102.05C90.1467 102.05 88.0449 104.152 88.0449 106.745C88.0449 109.337 90.1467 111.439 92.7394 111.439Z" fill="black"/>
<path d="M39.3381 133.564C38.2111 133.564 37.1311 132.926 36.6203 131.838C29.8469 117.407 31.0608 98.4947 32.3879 88.5058C32.6057 86.8632 34.1164 85.7084 35.7561 85.9269C37.3986 86.1451 38.5539 87.6534 38.3352 89.2958C37.3371 96.8128 35.7004 115.757 42.052 129.288C42.7561 130.788 42.1106 132.575 40.6106 133.279C40.1984 133.472 39.7649 133.564 39.3381 133.564Z" fill="black"/>
<path d="M112.12 141.581C110.65 141.581 109.125 141.354 107.556 140.825C105.986 140.296 105.142 138.594 105.672 137.024C106.201 135.454 107.902 134.609 109.472 135.139C114.131 136.708 118.353 133.93 122.998 130.419C124.319 129.42 126.2 129.68 127.2 131.002C128.2 132.324 127.938 134.205 126.617 135.205C123.3 137.713 118.184 141.581 112.12 141.581H112.12Z" fill="black"/>
<path d="M144.06 119.124C143.447 119.124 142.829 118.937 142.296 118.548C140.957 117.572 140.662 115.696 141.638 114.357C152.91 98.8893 156.157 79.7104 150.546 61.7374C144.464 42.2553 128.919 26.8734 107.897 19.5359C98.0891 16.1135 76.6701 14.3676 57.8459 23.5821C43.924 30.3964 34.1867 41.8121 28.9035 57.5123C28.3742 59.0827 26.6721 59.9274 25.1027 59.3988C23.5324 58.8704 22.6877 57.169 23.216 55.5987C29.0295 38.3231 39.7932 25.7381 55.2082 18.193C75.6848 8.17074 99.1174 10.117 109.873 13.8711C132.708 21.8408 149.62 38.6358 156.274 59.9494C162.456 79.7538 158.89 100.873 146.488 117.89C145.9 118.696 144.987 119.124 144.06 119.124L144.06 119.124Z" fill="black"/>
<path d="M56.8097 105.038C59.604 105.038 61.8693 102.773 61.8693 99.9786C61.8693 97.1842 59.604 94.9189 56.8097 94.9189C54.0153 94.9189 51.75 97.1842 51.75 99.9786C51.75 102.773 54.0153 105.038 56.8097 105.038Z" fill="black"/>
<path d="M92.3741 111.804C95.1685 111.804 97.4338 109.539 97.4338 106.745C97.4338 103.95 95.1685 101.685 92.3741 101.685C89.5797 101.685 87.3145 103.95 87.3145 106.745C87.3145 109.539 89.5797 111.804 92.3741 111.804Z" fill="black"/>
<path d="M139.778 98.6922C139.778 98.6922 147.77 94.8596 148.678 85.5968C149.586 76.3339 147.407 68.3424 140.323 55.8102C133.24 43.2781 113.941 14.4099 71.3761 24.2858C54.1925 28.2727 44.6066 39.1007 39.8844 47.8187C38.0417 51.2206 27.9565 70.6958 26.5011 81.1664C24.2267 97.5286 31.326 105.471 34.0306 99.932C43.354 80.8392 88.9948 84.7448 105.559 65.414C107.817 67.5421 109.421 75.2705 109.859 84.8946C110.242 93.3305 111.357 104.527 114.812 104.239C121.091 103.716 122.335 93.3674 126.586 92.4656C131.546 91.6691 136.509 93.2434 139.778 98.6922V98.6922Z" fill="#2D8C3C"/>
<path d="M32.5321 109.662C32.1952 109.662 31.8534 109.605 31.5184 109.485C29.9589 108.925 29.1483 107.207 29.7088 105.648C35.744 88.8346 52.4764 85.1922 68.6571 81.6698C83.0653 78.5334 96.6737 75.571 102.919 63.9904C103.705 62.5323 105.523 61.9869 106.983 62.7737C108.441 63.5602 108.986 65.3799 108.2 66.8382C100.646 80.8469 85.0331 84.2457 69.9335 87.5325C54.6776 90.8535 40.2684 93.9903 35.3553 107.675C34.9159 108.9 33.7626 109.662 32.5321 109.662H32.5321Z" fill="black"/>
<path d="M60.4855 9.92392C59.3815 6.60191 65.2175 4.40317 67.0567 5.90019C74.9022 12.2861 90.0702 16.4199 93.9124 16.6609C106.531 17.4524 76.9468 26.1192 75.1141 25.895C69.3278 25.1869 63.8595 20.0767 60.4855 9.92392Z" fill="#2D8C3C"/>
<path d="M95.7756 17.045L95.7531 17.0449C84.0793 16.9569 74.7356 14.302 65.4543 8.43631C64.0539 7.55112 63.6359 5.69815 64.5207 4.29758C65.4074 2.89737 67.2619 2.47892 68.6594 3.36429C74.2336 6.88718 82.3557 10.9438 95.7981 11.0451C97.4553 11.0576 98.7883 12.4108 98.7756 14.0676C98.7629 15.7166 97.4221 17.045 95.7756 17.045V17.045Z" fill="black"/>
<path d="M105.96 143.91C105.134 143.91 104.312 143.571 103.719 142.905C102.616 141.668 102.727 139.772 103.964 138.67C112.591 130.988 113.808 122.545 113.82 122.461C113.926 121.663 114.35 120.933 114.994 120.45C115.637 119.968 116.449 119.754 117.245 119.876C117.332 119.889 126.758 121.21 132.005 116.296C134.789 113.687 135.988 109.598 135.569 104.141C134.541 98.1553 129.993 96.6707 126.402 97.222C124.763 97.4733 123.233 96.3496 122.982 94.7118C122.73 93.0741 123.854 91.5428 125.491 91.2915C132.103 90.2771 139.936 93.6004 141.51 103.295C141.523 103.374 141.532 103.453 141.539 103.533C142.143 110.984 140.306 116.76 136.079 120.701C130.782 125.64 123.196 126.161 119.141 126.033C118.049 129.795 115.187 136.71 107.954 143.151C107.383 143.66 106.67 143.91 105.96 143.91L105.96 143.91Z" fill="black"/>
</svg>
