<svg width="180" height="171" viewBox="0 0 180 171" fill="none" xmlns="http://www.w3.org/2000/svg">
<path d="M139.8 103.421C139.8 103.321 139.8 103.321 139.8 103.221C139.5 101.121 139 100.821 138.1 99.3212C148.5 88.7212 142 70.3212 138.5 63.0212C134.7 55.3212 127.2 43.7212 119.6 40.1212C112 36.5212 93.5 27.0212 69.1 37.2212C44.7 47.4212 36.2 80.6212 35.8 81.8212C35.8 81.9212 34.1 87.2212 33.1 94.7212C32.3 98.5212 32.1 102.421 32.4 106.521C32.5 113.421 33.7 120.821 36.9 127.521C43 140.121 62.9 147.421 67.3 149.121C67.3 149.121 67.9 161.421 66.2 163.021C67.3 167.921 78.5 169.821 78.5 169.821C88.2 170.421 92.7 163.521 92.7 163.521V149.621C92.7 149.621 103.7 144.521 110.1 137.621C114.8 133.121 118 125.721 118.8 124.021C119.6 124.121 120.8 124.221 122.4 124.221C125.9 124.221 130.8 123.521 134.6 120.121C138.7 116.721 140.5 111.021 139.8 103.421Z" fill="white"/>
<path d="M56.7992 104.821C59.6159 104.821 61.8992 102.537 61.8992 99.7206C61.8992 96.904 59.6159 94.6206 56.7992 94.6206C53.9826 94.6206 51.6992 96.904 51.6992 99.7206C51.6992 102.537 53.9826 104.821 56.7992 104.821Z" fill="black"/>
<path d="M92.2992 111.621C95.1159 111.621 97.3992 109.338 97.3992 106.521C97.3992 103.704 95.1159 101.421 92.2992 101.421C89.4826 101.421 87.1992 103.704 87.1992 106.521C87.1992 109.338 89.4826 111.621 92.2992 111.621Z" fill="black"/>
<path d="M67.0998 166.121C66.5998 166.121 65.9998 165.921 65.4998 165.621C64.0998 164.721 63.6998 162.921 64.5998 161.521C65.2998 160.121 65.4998 154.621 65.0998 152.321C64.6998 152.221 64.0998 152.121 63.5998 151.921C57.5998 150.521 43.5998 147.221 36.1998 131.521C26.6998 111.321 32.8998 82.621 32.8998 82.321C37.0998 66.421 45.9998 33.321 85.3998 29.321C103.1 27.521 120.3 33.921 132.6 46.921C143.5 58.421 148.5 73.021 146.4 87.121C146.1 88.721 144.6 89.921 143 89.621C141.4 89.321 140.2 87.8209 140.5 86.221C142.4 74.021 137.9 61.221 128.3 51.121C117.3 39.521 101.9 33.821 86.0998 35.321C50.6998 39.021 42.8998 68.221 38.6998 83.921C38.4998 85.121 33.2998 111.321 41.5998 129.021C47.6998 142.121 59.2998 144.821 64.8998 146.121C67.5998 146.721 68.9998 147.121 69.8998 148.521C71.8998 151.821 71.3998 161.821 69.5998 164.721C68.9998 165.621 68.0998 166.121 67.0998 166.121Z" fill="black"/>
<path d="M157.701 80.3207C141.1 75.3207 157.801 67.9207 154.701 51.7207C151.701 42.0207 144.201 26.8207 124.001 33.8207C125.301 14.8207 114.601 10.9207 108.801 7.52072C99.6005 2.52072 71.6005 4.62072 69.6005 17.8207C69.1005 22.6207 67.4005 29.8207 60.5005 32.7207C53.6005 35.6207 46.5005 28.4207 46.5005 28.4207C46.5005 28.4207 33.2005 23.1207 29.5005 24.4207C23.5005 26.5207 19.4005 33.4207 19.2005 40.0207C19.0005 49.9207 28.1005 53.1207 26.4005 60.0207C23.7005 71.0207 14.5005 59.3207 9.5005 71.3207C6.1005 79.5207 9.5005 92.9207 20.8005 88.3207C26.9005 85.8207 24.9005 97.5207 23.2005 103.421C21.8005 108.121 28.7005 107.721 30.6005 106.021C32.4005 106.121 32.0005 102.321 35.4005 102.321C35.6005 93.8207 37.4005 91.7207 37.9005 88.0207C39.7005 82.1207 41.6005 81.1207 44.3005 81.3207C48.7005 81.6207 55.0005 85.1207 66.0005 76.4207C71.0005 68.8207 70.9005 60.4207 79.5005 58.1207C81.8005 57.3207 83.9005 56.9207 85.9005 56.9207C91.6005 57.2207 96.4005 60.7207 99.7005 64.1207C102.201 67.0207 103.601 69.5207 104.101 69.4207C105.701 68.9207 107.201 68.6207 108.601 68.5207C116.001 68.8207 118.301 79.4207 113.001 86.1207C109.801 90.2207 118.901 95.2207 122.301 93.1207C123.801 94.1207 125.701 94.7207 127.601 94.7207C134.8 94.7207 131.301 94.6207 135.501 98.2207C139.001 101.221 138.301 107.221 138.101 108.421C137.601 112.821 131.201 119.321 132.601 119.021C137.501 118.021 142.701 115.821 146.501 117.021C153.201 120.021 157.501 116.321 155.4 105.321C167.001 104.621 174.301 85.3207 157.701 80.3207Z" fill="#2D8C3C"/>
<path d="M105.501 143.721C104.701 143.721 103.901 143.421 103.301 142.721C102.201 141.521 102.301 139.621 103.501 138.521C112.101 130.821 113.301 122.421 113.401 122.321C113.501 121.521 113.901 120.821 114.601 120.321C115.201 119.821 116.101 119.621 116.901 119.721C117.001 119.721 126.401 121.021 131.701 116.121C134.501 113.521 135.701 109.421 135.301 103.921C134.301 97.921 129.701 96.421 126.101 97.021C124.501 97.321 122.901 96.121 122.701 94.521C122.401 92.921 123.601 91.321 125.201 91.121C131.801 90.121 139.601 93.421 141.201 103.121C141.201 103.221 141.201 103.321 141.201 103.321C141.801 110.821 140.001 116.521 135.701 120.521C130.401 125.421 122.801 126.021 118.801 125.821C117.701 129.621 114.801 136.521 107.601 142.921C106.901 143.421 106.201 143.721 105.501 143.721Z" fill="black"/>
<path d="M149.7 120.521C148.3 120.521 146.9 120.221 145.6 119.721C144.1 119.121 143.3 117.321 144 115.821C144.6 114.321 146.4 113.521 147.9 114.221C149.6 114.921 151.4 114.621 152.5 113.521C153.9 112.121 154.1 109.521 152.8 106.421C152.4 105.521 152.5 104.521 153.1 103.621C153.6 102.821 154.6 102.321 155.5 102.321C160.6 102.221 163.2 97.3213 163.5 92.8213C163.7 88.9213 162.2 84.1213 157.2 83.3213C154 82.8213 151.4 81.1213 149.8 78.5213C147.8 75.2213 147.5 70.7213 149.1 66.4213C149.1 66.3213 149.2 66.2213 149.2 66.1213C152.8 58.3213 152.9 49.6213 149.5 43.5213C147.9 40.7213 144.8 37.1213 139.2 36.4213C137.6 36.2213 136.4 34.7213 136.6 33.1213C136.8 31.5213 138.3 30.3213 139.9 30.5213C146.3 31.3213 151.6 34.8213 154.8 40.6213C159.1 48.3213 159.1 59.0213 154.7 68.5213C153.8 71.0213 153.9 73.7213 155 75.4213C155.7 76.5213 156.7 77.2213 158.2 77.4213C165.4 78.5213 170.1 85.0213 169.6 93.2213C169.2 99.4213 165.7 105.721 159.5 107.721C160.2 111.721 159.3 115.221 156.8 117.721C154.8 119.521 152.3 120.521 149.7 120.521Z" fill="black"/>
<path d="M26.9008 57.4211C26.3008 57.4211 25.7008 57.2211 25.2008 56.821C18.7008 52.121 15.4008 45.421 16.4008 38.321C17.3008 31.321 22.2008 25.121 28.8008 22.521C35.6008 19.921 43.2008 21.521 49.6008 27.021C52.3008 29.321 55.5008 30.121 58.5008 29.321C62.6008 28.121 66.0008 24.021 67.7008 18.121C72.3008 2.92105 89.4008 -2.17895 103.101 0.821049C116.801 3.82105 129.501 15.3211 126.901 34.2211C126.701 35.821 125.201 37.021 123.501 36.821C121.901 36.621 120.701 35.1211 120.901 33.4211C123.101 17.3211 112.501 9.02105 101.801 6.72105C90.7008 4.32105 77.0008 8.12105 73.4008 20.021C71.0008 27.921 66.2008 33.4211 60.1008 35.2211C55.1008 36.6211 49.9008 35.4211 45.6008 31.7211C40.9008 27.621 35.6008 26.4211 30.8008 28.2211C26.3008 29.9211 22.8008 34.321 22.2008 39.121C21.6008 44.021 23.8008 48.521 28.6008 51.9211C29.9008 52.9211 30.3008 54.721 29.3008 56.121C28.7008 57.021 27.8008 57.4211 26.9008 57.4211Z" fill="black"/>
<path d="M29.3002 110.521C28.4002 110.521 27.4002 110.321 26.5002 110.021C22.7002 108.721 19.3002 104.321 20.7002 97.9214C21.2002 95.5214 21.1002 93.4214 20.2002 92.4214C20.0002 92.2214 19.4002 91.5214 17.4002 91.6214C13.0002 91.8214 8.90015 89.6214 6.40015 85.6214C3.50015 81.0214 3.20015 75.0214 5.70015 70.4214C7.40015 67.3214 11.8002 62.0214 22.8002 61.7214C24.4002 61.7214 25.8002 63.0214 25.9002 64.6214C25.9002 66.3214 24.6002 67.6214 23.0002 67.7214C17.0002 67.9214 12.9002 69.8214 11.1002 73.2214C9.60015 76.0214 9.80015 79.6214 11.6002 82.4214C12.3002 83.4214 14.1002 85.8214 17.3002 85.6214C21.4002 85.4214 23.7002 87.1214 25.0002 88.6214C27.1002 91.1214 27.7002 94.9214 26.7002 99.3214C26.0002 102.321 27.2002 104.021 28.6002 104.421C29.0002 104.521 30.0002 104.821 30.7002 104.021C32.0002 86.3214 40.3002 77.8214 40.7002 77.4214C41.6002 76.5214 43.1002 76.3214 44.2002 76.9214C48.6002 79.2214 54.0002 79.5214 58.8002 77.6214C62.0002 76.4214 66.3002 73.6214 68.5002 67.6214C70.9002 61.0214 76.7002 56.4214 83.8002 55.3214C92.2002 54.0214 100.6 57.7214 106.3 65.1214C107.3 66.4214 107.1 68.3214 105.7 69.3214C104.4 70.3214 102.5 70.1214 101.5 68.7214C97.2001 63.1214 90.9001 60.3214 84.7001 61.2214C79.6002 62.0214 75.8001 65.0214 74.1002 69.6214C71.8001 75.9214 67.1002 80.7214 60.9002 83.1214C55.3002 85.2214 49.1002 85.2214 43.6002 83.1214C41.5002 86.1214 37.3002 93.3214 36.6002 105.021C36.6002 105.421 36.5002 105.821 36.3002 106.121C34.9002 108.921 32.2002 110.521 29.3002 110.521Z" fill="black"/>
</svg>
