<svg width="180" height="170" viewBox="0 0 180 170" fill="none" xmlns="http://www.w3.org/2000/svg">
<path d="M140.442 103.487C140.438 103.429 140.431 103.372 140.422 103.315C140.213 101.886 139.637 100.535 138.751 99.394C149.18 88.8004 142.69 70.4146 139.116 63.1055C135.335 55.3718 127.806 43.8725 120.144 40.2437C112.482 36.6148 93.8746 27.1798 69.4296 37.3406C44.9846 47.5014 36.3706 80.7317 35.9901 81.8588C34.7362 86.0758 33.8336 90.3893 33.2915 94.7552C32.4866 98.6191 32.2582 102.581 32.6138 106.512C32.619 113.767 34.1772 120.937 37.1835 127.539C43.2713 140.133 63.348 147.37 67.6789 149.166C67.6789 149.166 68.2439 161.447 66.602 163.08C67.6966 167.979 78.9157 169.884 78.9157 169.884C81.6243 170.139 84.353 169.698 86.8432 168.602C89.3334 167.507 91.5026 165.793 93.1449 163.625V149.744C93.1449 149.744 104.187 144.694 110.637 137.729C115.323 133.228 118.62 125.883 119.362 124.142C120.549 124.308 121.747 124.391 122.947 124.389C126.469 124.389 131.407 123.678 135.21 120.34C139.301 116.751 141.061 111.081 140.442 103.487Z" fill="white"/>
<path d="M56.998 104.89C59.8047 104.89 62.0799 102.627 62.0799 99.8358C62.0799 97.0443 59.8047 94.7812 56.998 94.7812C54.1913 94.7812 51.916 97.0443 51.916 99.8358C51.916 102.627 54.1913 104.89 56.998 104.89Z" fill="black"/>
<path d="M92.7187 111.65C95.5254 111.65 97.8006 109.387 97.8006 106.596C97.8006 103.804 95.5254 101.541 92.7187 101.541C89.912 101.541 87.6367 103.804 87.6367 106.596C87.6367 109.387 89.912 111.65 92.7187 111.65Z" fill="black"/>
<path d="M67.3532 166.106C66.8176 166.106 66.2919 165.962 65.8307 165.689C65.3695 165.417 64.9896 165.026 64.7305 164.557C64.4714 164.088 64.3426 163.559 64.3573 163.023C64.372 162.488 64.5297 161.966 64.8142 161.512C65.529 160.15 65.7624 154.645 65.3015 152.372C64.864 152.259 64.3112 152.131 63.8269 152.018C57.8122 150.616 43.7263 147.334 36.3337 131.67C26.9343 111.752 32.9753 82.8188 33.0476 82.5504C37.3054 66.6603 46.1677 33.5883 85.7487 29.6591C94.4944 28.764 103.329 29.8966 111.566 32.969C119.803 36.0413 127.221 40.9707 133.244 47.3745C144.099 58.8385 149.089 73.4115 146.931 87.3565C146.871 87.7458 146.735 88.1195 146.53 88.4562C146.326 88.7928 146.057 89.0859 145.739 89.3186C145.421 89.5514 145.06 89.7192 144.677 89.8126C144.295 89.9059 143.897 89.923 143.508 89.8628C143.119 89.8026 142.745 89.6662 142.408 89.4616C142.072 89.257 141.779 88.988 141.546 88.6701C141.313 88.3522 141.145 87.9916 141.052 87.6089C140.959 87.2261 140.941 86.8287 141.002 86.4394C142.873 74.3417 138.457 61.6067 128.886 51.4999C123.492 45.7621 116.847 41.3453 109.468 38.5929C102.089 35.8405 94.175 34.8265 86.3405 35.6297C50.9392 39.1441 43.0749 68.3121 38.86 84.0399C38.6208 85.1918 33.3981 111.389 41.7595 129.109C47.9138 142.149 59.5817 144.868 65.1891 146.174C67.8493 146.794 69.3151 147.136 70.2165 148.565C72.2448 151.866 71.7311 161.828 69.8845 164.72C69.6133 165.145 69.2392 165.496 68.7967 165.738C68.3542 165.98 67.8577 166.107 67.3532 166.106Z" fill="black"/>
<path d="M57.0003 104.503C59.6044 104.503 61.7155 102.403 61.7155 99.8133C61.7155 97.2232 59.6044 95.1235 57.0003 95.1235C54.3962 95.1235 52.2852 97.2232 52.2852 99.8133C52.2852 102.403 54.3962 104.503 57.0003 104.503Z" fill="black"/>
<path d="M92.6839 111.285C95.288 111.285 97.3991 109.185 97.3991 106.595C97.3991 104.005 95.288 101.905 92.6839 101.905C90.0798 101.905 87.9688 104.005 87.9688 106.595C87.9688 109.185 90.0798 111.285 92.6839 111.285Z" fill="black"/>
<path d="M105.964 143.726C105.355 143.726 104.761 143.541 104.259 143.195C103.758 142.85 103.374 142.359 103.158 141.79C102.942 141.221 102.904 140.599 103.05 140.008C103.196 139.417 103.518 138.884 103.974 138.48C112.637 130.807 113.86 122.377 113.87 122.293C113.923 121.897 114.054 121.516 114.256 121.172C114.457 120.827 114.724 120.526 115.043 120.286C115.361 120.046 115.724 119.871 116.111 119.772C116.497 119.673 116.899 119.652 117.294 119.709C117.383 119.722 126.893 121.048 132.163 116.105C134.941 113.5 136.136 109.426 135.716 103.996C134.684 98.0168 130.107 96.5319 126.492 97.085C126.102 97.1445 125.705 97.1267 125.322 97.0326C124.94 96.9386 124.579 96.7701 124.262 96.5368C123.944 96.3035 123.676 96.0099 123.472 95.6729C123.268 95.3358 123.132 94.9619 123.073 94.5725C123.013 94.183 123.031 93.7856 123.125 93.4031C123.219 93.0205 123.388 92.6602 123.621 92.3427C123.854 92.0253 124.148 91.7569 124.485 91.5528C124.822 91.3488 125.196 91.2132 125.585 91.1537C132.216 90.1417 140.075 93.4616 141.658 103.145C141.67 103.224 141.68 103.305 141.687 103.385C142.291 110.808 140.459 116.569 136.241 120.507C130.916 125.477 123.255 125.996 119.189 125.866C117.126 132.511 113.231 138.439 107.952 142.972C107.405 143.458 106.697 143.727 105.964 143.726Z" fill="black"/>
<path d="M39.049 133.39C38.4799 133.39 37.9225 133.229 37.4417 132.924C36.961 132.619 36.5769 132.184 36.3342 131.67C29.5295 117.251 30.7492 98.3532 32.0812 88.3721C32.1865 87.5834 32.6008 86.8689 33.2329 86.3857C33.865 85.9025 34.6632 85.6901 35.4519 85.7954C36.2405 85.9007 36.9551 86.315 37.4383 86.9471C37.9215 87.5792 38.1338 88.3774 38.0285 89.1661C37.0266 96.6743 35.383 115.596 41.76 129.109C41.9755 129.566 42.072 130.07 42.0407 130.575C42.0094 131.079 41.8512 131.567 41.5808 131.994C41.3105 132.421 40.9366 132.773 40.494 133.017C40.0514 133.261 39.5544 133.389 39.049 133.39V133.39Z" fill="black"/>
<path d="M69.3501 16.8068C75.2104 15.2713 80.0922 7.48944 91.6285 8.12547C102.26 8.71161 114.074 13.1168 119.97 21.9356C123.729 27.5588 125.615 32.849 130.257 37.7766C133.964 41.712 138.565 41.1913 143.475 43.4797C148.385 45.7682 156.976 52.421 157.419 63.9211C157.862 75.4212 150.671 78.175 147.992 84.9871C146.458 88.8901 148.29 93.477 143.478 98.3882C138.665 103.299 138.745 96.3004 132.701 94.2588C126.657 92.2172 125.246 94.2792 123.566 90.7446C121.886 87.21 121.82 84.0784 121.371 80.1945C120.922 76.3105 119.9 74.0347 115.979 73.7598C113.811 73.6079 111.806 74.7751 109.843 75.7045C104.958 78.0176 96.7012 76.3272 93.9696 71.6828C91.7343 67.882 91.8766 64.1388 90.0049 60.1483C87.6172 55.058 82.3124 54.8368 77.0864 56.9657C71.8604 59.0947 71.3663 61.3389 61.9778 63.1213C52.5892 64.9036 52.0509 58.5053 45.0602 64.9793C38.0696 71.4533 39.7036 85.825 37.0445 87.3393C36.1255 87.7686 35.1054 87.9347 34.0976 87.8191C33.0899 87.7035 32.1339 87.3106 31.336 86.6843C26.5197 83.2723 30.1699 71.4579 26.134 67.1596C22.1184 62.883 14.8496 63.403 10.4447 59.5241C6.94698 56.4442 4.58667 54.507 3.73076 45.1512C2.87485 35.7954 4.13709 31.2845 6.77007 24.0404C8.26562 20.2878 10.4943 16.871 13.3259 13.9898C16.1574 11.1085 19.5349 8.82077 23.261 7.26018C31.3742 4.02487 44.5872 3.85718 51.9076 8.608C57.1081 11.9831 63.4898 18.3423 69.3501 16.8068Z" fill="#2D8C3C"/>
<path d="M140.61 103.102C140.566 103.102 140.522 103.101 140.478 103.1C138.144 103.037 136.687 101.378 135.515 100.044C134.556 98.731 133.249 97.7116 131.742 97.1011C130.242 96.59 128.684 96.2696 127.105 96.1474C124.994 95.9373 122.6 95.6992 120.857 92.0323C119.513 88.9695 118.743 85.6861 118.585 82.3453C118.525 81.7596 118.463 81.1591 118.391 80.5391C117.971 76.9068 117.282 76.8585 115.77 76.7525C114.417 76.8725 113.111 77.3052 111.954 78.0164C111.677 78.1514 111.402 78.2859 111.127 78.4159C105.22 81.2139 95.0952 79.5127 91.3842 73.2036C90.1699 71.002 89.2998 68.6275 88.8041 66.1627C88.4583 64.5361 87.9509 62.9481 87.2895 61.4224C85.5395 57.6926 81.392 58.4519 78.2192 59.744C76.9032 60.2955 75.6349 60.9544 74.4272 61.7141C71.8969 63.2257 69.2797 64.7887 62.5375 66.0686C59.3016 66.7356 55.9464 66.5274 52.8178 65.4656C50.5649 64.7996 49.8862 64.6001 47.099 67.1803C43.5951 70.425 42.6293 76.777 41.9242 81.4152C41.2631 85.7648 40.8265 88.6384 38.5297 89.9462C37.1164 90.6666 35.528 90.9725 33.9482 90.8285C32.3685 90.6844 30.8616 90.0964 29.6019 89.1322C25.8851 86.4988 25.6371 81.3603 25.4183 76.8266C25.2738 73.8388 25.1107 70.4523 23.9476 69.2131C22.389 67.5535 19.8431 66.7671 17.1478 65.9345C14.2865 65.0509 11.0443 64.0494 8.46229 61.7757L8.29529 61.6289C4.2035 58.0273 1.64881 55.3178 0.74354 45.4247C-0.18224 35.2998 1.33729 30.2042 3.95154 23.0153C6.8207 15.1218 14.1342 7.67018 22.1498 4.47351C30.7592 1.04051 45.2084 0.683648 53.5404 6.09151C54.7582 6.88161 55.9769 7.78127 57.2679 8.73372C61.0804 11.5488 65.4066 14.7401 68.5902 13.9047C70.4541 13.2264 72.2025 12.2651 73.7738 11.0546C78.0072 8.20551 83.2973 4.66199 91.7943 5.13C102.108 5.69867 115.581 9.97406 122.464 20.2681C123.896 22.4094 125.049 24.4709 126.164 26.4646C127.856 29.8033 129.965 32.9132 132.441 35.7195C134.195 37.5805 136.303 38.1324 138.972 38.831C140.952 39.2937 142.884 39.9397 144.744 40.7606C151.689 43.9983 159.961 51.9764 160.417 63.8056C160.748 72.4189 157.151 77.001 154.26 80.6828C152.846 82.3054 151.675 84.1252 150.785 86.0849C150.434 87.1874 150.233 88.332 150.187 89.4881C149.912 92.4442 149.536 96.4927 145.62 100.488C144.515 101.616 142.802 103.102 140.61 103.102ZM126.602 90.0386C126.828 90.0902 127.305 90.1377 127.699 90.1769C129.73 90.3435 131.732 90.7599 133.662 91.4166C136.173 92.3543 138.375 93.97 140.023 96.0843C140.238 96.3292 140.499 96.6264 140.722 96.8593C140.936 96.6799 141.141 96.4895 141.335 96.2887C143.758 93.8154 143.969 91.5527 144.212 88.9326C144.295 87.2126 144.628 85.5138 145.201 83.8897C146.291 81.3799 147.754 79.0496 149.541 76.9777C152.292 73.4736 154.668 70.4474 154.421 64.0365C153.958 52.0171 143.41 46.7589 142.208 46.1989C140.675 45.5326 139.083 45.0093 137.454 44.6356C134.433 43.8451 131.008 42.9489 128.074 39.8341C125.255 36.6742 122.854 33.1657 120.929 29.3945C119.871 27.5028 118.776 25.5467 117.476 23.6032C111.822 15.1456 100.331 11.6098 91.4642 11.121C84.9476 10.7618 80.973 13.4415 77.1234 16.0325C75.0099 17.6441 72.6393 18.887 70.1117 19.7088C64.1449 21.2718 58.601 17.1747 53.7045 13.5612C52.4886 12.6639 51.3402 11.8164 50.2748 11.1246C43.7621 6.89834 31.6234 7.15493 24.3724 10.0468C21.0353 11.4441 18.0096 13.4917 15.4717 16.0701C12.9339 18.6485 10.9345 21.7063 9.59022 25.0651C6.9887 32.2222 5.93006 36.2592 6.71815 44.878C7.45252 52.8941 9.05897 54.308 12.2591 57.1248L12.4271 57.2728C14.0443 58.6963 16.4115 59.4276 18.9184 60.2018C22.0864 61.1802 25.6762 62.2892 28.3207 65.1061C30.9975 67.9561 31.2074 72.3186 31.4115 76.5376C31.5561 79.5467 31.7367 83.2917 33.0707 84.2363C33.6749 84.6887 34.4212 84.9095 35.1742 84.8587C35.5343 83.4281 35.8075 81.977 35.9926 80.5134C36.8315 74.9997 37.9789 67.4485 43.0229 62.7781C47.9242 58.2379 51.0033 58.6728 54.5189 59.7118C56.7327 60.4965 59.1197 60.6564 61.4184 60.174C67.1156 59.0923 69.0785 57.9203 71.35 56.5631C72.8179 55.6472 74.3582 54.8527 75.9555 54.1875C83.5014 51.113 89.9242 52.9107 92.7211 58.8743C93.5525 60.7537 94.1915 62.7124 94.6283 64.7204C94.9948 66.6206 95.6446 68.4548 96.5561 70.1619C98.35 73.2117 104.857 74.7472 108.559 72.9932C108.812 72.8734 109.066 72.7494 109.321 72.625C111.185 71.714 113.497 70.5788 116.19 70.7672C123.359 71.2699 124.055 77.2824 124.352 79.8498C124.426 80.4958 124.491 81.1214 124.553 81.7318C124.854 84.6556 125.091 86.9649 126.276 89.4564C126.367 89.6597 126.476 89.8545 126.602 90.0386Z" fill="black"/>
</svg>
