<svg width="180" height="175" viewBox="0 0 180 175" fill="none" xmlns="http://www.w3.org/2000/svg">
<path d="M93.0122 160.776C94.1322 165.24 100.631 163.15 103.297 167.837C113.154 153.025 119.176 133.297 119.176 133.297L81.5586 131.844L93.0122 160.776L93.0122 160.776Z" fill="black"/>
<path d="M40.3875 168.308C42.5734 164.269 46.8116 162.173 52.3308 163.15C59.9556 164.501 68.1018 165.715 67.6585 150.196C67.2151 134.678 32.9062 103.928 29.8557 111.277C26.8052 118.626 38.922 171.016 40.3875 168.308V168.308Z" fill="black"/>
<path d="M140.102 103.472C140.098 103.414 140.091 103.357 140.082 103.3C139.748 101.244 139.304 100.859 138.419 99.3747C148.802 88.7704 142.34 70.3661 138.782 63.0496C135.017 55.3081 127.521 43.7973 119.893 40.1648C112.265 36.5323 93.7388 27.0878 69.401 37.2588C45.0632 47.4298 36.487 80.6936 36.1081 81.8218C36.0694 81.9361 34.3979 87.1949 33.4214 94.7313C32.613 98.4895 32.4116 102.468 32.7466 106.5C32.8873 113.383 34.0605 120.817 37.2963 127.548C43.3574 140.155 63.3461 147.399 67.6579 149.197C67.6579 149.197 68.2204 161.491 66.5858 163.125C67.6755 168.029 78.5415 167.837 78.5415 167.837C91.8935 168.331 93.0123 163.67 93.0123 163.67V149.776C93.0123 149.776 104.006 144.72 110.428 137.748C115.093 133.243 118.376 125.891 119.114 124.148C119.896 124.26 121.154 124.395 122.683 124.395C126.19 124.395 131.107 123.683 134.892 120.342C138.965 116.749 140.718 111.073 140.102 103.472L140.102 103.472Z" fill="white"/>
<path d="M57.0245 104.877C59.8189 104.877 62.0842 102.611 62.0842 99.817C62.0842 97.0226 59.8189 94.7573 57.0245 94.7573C54.2301 94.7573 51.9648 97.0226 51.9648 99.817C51.9648 102.611 54.2301 104.877 57.0245 104.877Z" fill="black"/>
<path d="M92.587 111.643C95.3814 111.643 97.6467 109.377 97.6467 106.583C97.6467 103.789 95.3814 101.523 92.587 101.523C89.7926 101.523 87.5273 103.789 87.5273 106.583C87.5273 109.377 89.7926 111.643 92.587 111.643Z" fill="black"/>
<path d="M67.3327 166.151C66.7829 166.151 66.2253 166 65.7272 165.683C64.3346 164.798 63.9186 162.958 64.7907 161.562C65.5055 160.196 65.738 154.678 65.277 152.401C64.8434 152.288 64.2956 152.16 63.8161 152.047C57.8249 150.644 43.7956 147.357 36.4352 131.676C27.0622 111.706 33.0934 82.7835 33.1647 82.5153C37.403 66.6124 46.2262 33.5066 85.6452 29.5724C103.346 27.8057 120.539 34.2204 132.819 47.172C143.718 58.6672 148.732 73.3012 146.575 87.3219C146.323 88.9602 144.784 90.0816 143.154 89.8308C141.516 89.5788 140.393 88.0471 140.645 86.4095C142.518 74.236 138.079 61.4393 128.465 51.3004C117.47 39.7051 102.078 33.9621 86.2409 35.5427C51.0036 39.0597 43.1745 68.2578 38.9782 84.0012C38.7419 85.148 33.5348 111.374 41.8669 129.126C47.9928 142.178 59.6042 144.898 65.1842 146.205C67.8385 146.827 69.3005 147.17 70.1989 148.603C72.2174 151.903 71.7057 161.867 69.8678 164.759C69.2966 165.659 68.3249 166.151 67.3327 166.151V166.151Z" fill="black"/>
<path d="M57.0246 104.489C59.6173 104.489 61.7191 102.387 61.7191 99.7941C61.7191 97.2014 59.6173 95.0996 57.0246 95.0996C54.4319 95.0996 52.3301 97.2014 52.3301 99.7941C52.3301 102.387 54.4319 104.489 57.0246 104.489Z" fill="black"/>
<path d="M109.146 110.616C107.821 116.28 116.928 117.231 117.602 110.746C117.74 109.414 119.341 102.633 119.557 101.603C121.214 93.6842 124.911 94.1055 126.897 94.049C143.844 93.5665 149.361 124.16 117.486 123.445C117.486 123.445 115.117 136.476 106.343 142.025C94.5096 149.51 101.511 167.583 106.343 172.083C109.889 175.386 114.111 173.947 116.075 172.388C120.376 168.971 125.308 169.983 128.811 172.083C132.315 174.184 137.686 176.039 141.35 174.234C145.717 172.083 145.375 168.407 147.254 166.806C152.142 162.642 159.761 172.938 168.121 165.082C170.4 162.94 171.444 155.78 160.959 148.572C150.86 141.629 151.285 111.059 151.764 98.813C153.266 60.4774 139.35 39.0049 127.733 28.9365C116.117 18.8682 94.6903 13.8097 80.2233 17.8372C78.1755 18.4073 74.2343 16.9515 64.6628 17.6453C51.6202 18.5906 32.7151 27.735 24.1851 50.5997C12.9413 80.7386 18.4825 97.6028 19.5929 120.255C20.3438 135.575 14.9448 142.564 9.8837 147.491C4.82257 152.418 0.0993567 155.283 2.202 162.356C3.02539 165.125 7.12499 169.014 17.4633 167.991C23.707 167.374 26.9673 173.849 32.5909 173.343C37.9342 172.862 40.2018 169.717 41.1341 166.266C42.6086 160.807 39.3791 153.817 37.1379 145.187C34.0555 133.319 31.3661 119.218 32.0777 104.876C32.9044 88.2166 43.7112 70.6441 52.3294 62.7313C60.3904 55.33 69.9383 55.3603 72.2213 55.5019C88.2133 56.4937 107.804 72.1758 109.633 87.6239C110.492 94.8781 111.208 101.803 109.146 110.616V110.616Z" fill="black"/>
<path d="M119.915 129.517C118.276 129.517 116.937 128.198 116.916 126.554C116.896 124.901 118.217 123.543 119.868 123.517C120.017 123.513 127.077 123.284 131.569 118.313C134.578 114.981 135.863 110.159 135.384 103.981C134.361 98.0768 128.689 93.5822 124.886 94.1661C123.246 94.4157 121.717 93.2935 121.466 91.6558C121.214 90.0181 122.338 88.4867 123.976 88.2354C131.455 87.0872 139.895 94.3262 141.325 103.132C141.338 103.211 141.348 103.291 141.355 103.371C142.001 111.359 140.189 117.759 135.967 122.394C129.661 129.317 120.347 129.512 119.953 129.516L119.915 129.517L119.915 129.517Z" fill="black"/>
<path d="M42.386 138.903C41.3576 138.903 40.3567 138.374 39.7971 137.424C27.0842 115.815 32.8283 93.1477 37.384 81.5595C41.5051 71.0789 47.6447 62.7565 51.9025 59.1577C57.84 54.139 68.7707 48.7604 72.0852 49.2382C73.7248 49.4746 74.8625 50.9957 74.6262 52.6356C74.4045 54.1791 73.0363 55.2781 71.5168 55.2044C69.6652 55.4797 61.3283 59.0454 55.7756 63.7399C52.2131 66.7513 46.6858 74.2991 42.968 83.7548C38.8117 94.3273 33.5451 114.963 44.969 134.381C45.8088 135.809 45.3322 137.648 43.9045 138.488C43.427 138.769 42.9026 138.903 42.386 138.903V138.903ZM71.2287 55.1766L71.2326 55.1774L71.2287 55.1766Z" fill="black"/>
</svg>
