<svg width="182" height="178" viewBox="0 0 182 178" fill="none" xmlns="http://www.w3.org/2000/svg">
<path d="M94.3519 160.818C95.4722 165.282 101.973 163.193 104.64 167.88C114.499 153.065 120.522 133.332 120.522 133.332L82.8955 131.878L94.3519 160.818Z" fill="#2D8C3C"/>
<path d="M41.7142 168.352C43.9007 164.311 48.1398 162.215 53.6604 163.192C61.2871 164.543 69.4353 165.758 68.9919 150.235C68.5485 134.713 34.2311 103.956 31.1798 111.307C28.1286 118.657 40.2484 171.06 41.7142 168.352Z" fill="#2D8C3C"/>
<path d="M141.455 103.499C141.45 103.441 141.443 103.384 141.435 103.327C141.227 101.897 140.654 100.545 139.771 99.4006C150.156 88.7938 143.693 70.3849 140.134 63.0666C136.368 55.3233 128.871 43.8096 121.24 40.1762C113.61 36.5428 95.0799 27.0959 70.7361 37.2694C46.3922 47.443 37.814 80.715 37.435 81.8434C36.1861 86.0666 35.2872 90.3854 34.7476 94.7561C33.9459 98.6255 33.7185 102.592 34.0727 106.527C34.0773 113.789 35.6287 120.966 38.6235 127.581C44.686 140.191 64.6796 147.437 68.9926 149.235C68.9926 149.235 69.5552 161.532 67.9202 163.167C69.0102 168.072 79.8788 167.88 79.8788 167.88C93.2341 168.374 94.3532 163.712 94.3532 163.712V149.814C94.3532 149.814 105.35 144.757 111.773 137.783C116.44 133.278 119.723 125.923 120.461 124.18C121.644 124.346 122.837 124.429 124.031 124.427C127.539 124.427 132.457 123.715 136.244 120.373C140.318 116.78 142.07 111.102 141.455 103.499Z" fill="white"/>
<path d="M58.3553 104.904C61.1504 104.904 63.4162 102.638 63.4162 99.8431C63.4162 97.048 61.1504 94.7822 58.3553 94.7822C55.5603 94.7822 53.2944 97.048 53.2944 99.8431C53.2944 102.638 55.5603 104.904 58.3553 104.904Z" fill="black"/>
<path d="M93.9286 111.672C96.7236 111.672 98.9895 109.406 98.9895 106.611C98.9895 103.816 96.7236 101.55 93.9286 101.55C91.1335 101.55 88.8676 103.816 88.8676 106.611C88.8676 109.406 91.1335 111.672 93.9286 111.672Z" fill="black"/>
<path d="M68.6676 166.193C68.1324 166.193 67.6071 166.049 67.1461 165.777C66.6851 165.505 66.3052 165.115 66.0459 164.647C65.7865 164.178 65.657 163.649 65.671 163.114C65.6849 162.579 65.8416 162.058 66.125 161.604C66.839 160.237 67.0715 154.718 66.6105 152.44C66.1768 152.327 65.6288 152.199 65.1492 152.086C59.1565 150.682 45.1237 147.395 37.7615 131.71C28.2787 111.505 34.417 82.8167 34.4883 82.5472C38.7296 66.6303 47.555 33.5164 86.9837 29.5812C95.6725 28.693 104.449 29.8192 112.632 32.8721C120.816 35.9251 128.185 40.8229 134.169 47.1851C145.071 58.6832 150.086 73.3208 147.928 87.3449C147.869 87.7346 147.733 88.1088 147.529 88.446C147.324 88.7833 147.056 89.0769 146.738 89.3102C146.42 89.5435 146.059 89.7119 145.676 89.8057C145.293 89.8995 144.896 89.917 144.506 89.857C144.116 89.797 143.742 89.6609 143.405 89.4563C143.068 89.2517 142.775 88.9827 142.542 88.6646C142.309 88.3466 142.141 87.9857 142.047 87.6027C141.954 87.2196 141.937 86.8219 141.997 86.4323C143.871 74.2558 139.43 61.4559 129.814 51.3145C124.458 45.6189 117.862 41.2341 110.538 38.5006C103.213 35.7671 95.357 34.7585 87.5795 35.553C52.3335 39.0708 44.5025 68.2745 40.3061 84.0218C40.0668 85.1852 34.8722 111.428 43.1945 129.16C49.322 142.214 60.9362 144.935 66.5177 146.243C69.1726 146.865 70.6349 147.207 71.5336 148.641C73.5516 151.941 73.0408 161.907 71.2034 164.801C70.9325 165.228 70.5579 165.58 70.1146 165.823C69.6712 166.067 69.1734 166.194 68.6676 166.193Z" fill="black"/>
<path d="M58.3554 104.516C60.9487 104.516 63.051 102.414 63.051 99.8202C63.051 97.2269 60.9487 95.1246 58.3554 95.1246C55.762 95.1246 53.6597 97.2269 53.6597 99.8202C53.6597 102.414 55.762 104.516 58.3554 104.516Z" fill="black"/>
<path d="M110.492 110.645C109.167 116.31 118.276 117.261 118.949 110.774C119.088 109.442 120.689 102.66 120.905 101.63C122.563 93.7088 126.261 94.1302 128.247 94.0737C145.199 93.5911 150.717 124.192 118.833 123.477C118.833 123.477 116.464 136.511 107.688 142.062C95.8516 149.548 102.855 167.626 107.688 172.127C108.997 173.35 110.707 174.056 112.498 174.112C114.289 174.168 116.039 173.571 117.422 172.432C121.725 169.014 126.658 170.027 130.162 172.127C133.666 174.228 139.039 176.084 142.704 174.279C147.071 172.127 146.729 168.45 148.609 166.848C153.498 162.683 161.119 172.983 169.481 165.124C171.761 162.982 172.805 155.82 162.318 148.61C152.216 141.666 152.641 111.088 153.12 98.8388C154.623 60.4938 140.703 39.0159 129.083 28.9451C117.464 18.8743 96.0324 13.8146 81.5618 17.843C79.5135 18.4133 75.5713 16.9572 65.9974 17.6511C52.9516 18.5967 34.0419 27.7433 25.5097 50.6137C14.2632 80.76 19.8057 97.6283 20.9164 120.286C21.6676 135.61 16.2672 142.6 11.2048 147.529C6.14245 152.457 1.41807 155.323 3.52122 162.397C4.34482 165.168 8.44544 169.057 18.7863 168.034C25.0315 167.416 28.2926 173.893 33.9176 173.387C39.2623 172.906 41.5305 169.761 42.4629 166.309C43.9378 160.848 40.7075 153.856 38.4657 145.225C35.3826 133.354 32.6925 119.249 33.4043 104.904C34.2312 88.2398 45.0407 70.663 53.661 62.7482C59.0895 57.8238 66.2342 55.2271 73.5578 55.5171C89.5537 56.5091 109.149 72.1951 110.979 87.647C111.838 94.903 112.554 101.829 110.492 110.645Z" fill="#2D8C3C"/>
<path d="M107.119 143.785C106.511 143.786 105.917 143.601 105.416 143.256C104.915 142.911 104.531 142.421 104.314 141.853C104.097 141.284 104.059 140.663 104.203 140.073C104.348 139.482 104.668 138.948 105.123 138.544C113.751 130.86 114.968 122.415 114.979 122.331C115.032 121.935 115.163 121.554 115.364 121.209C115.566 120.864 115.833 120.562 116.152 120.322C116.471 120.081 116.834 119.906 117.221 119.807C117.608 119.708 118.011 119.687 118.406 119.745C118.493 119.758 127.923 121.08 133.17 116.164C135.955 113.555 137.154 109.465 136.735 104.007C135.706 98.0201 131.169 96.5325 127.565 97.0857C126.778 97.2064 125.976 97.0097 125.334 96.5388C124.692 96.0679 124.264 95.3615 124.143 94.5748C124.023 93.7882 124.219 92.9858 124.69 92.3442C125.161 91.7026 125.868 91.2743 126.654 91.1536C133.257 90.1401 141.102 93.4617 142.678 103.159C142.69 103.239 142.7 103.318 142.707 103.399C143.311 110.851 141.472 116.628 137.245 120.57C131.947 125.51 124.363 126.033 120.302 125.903C118.251 132.547 114.374 138.48 109.114 143.026C108.565 143.516 107.855 143.786 107.119 143.785Z" fill="black"/>
<path d="M43.7147 138.939C43.1915 138.94 42.6773 138.803 42.2231 138.544C41.7688 138.284 41.3903 137.91 41.1252 137.459C28.4092 115.844 34.1557 93.1721 38.7125 81.5812C43.198 70.1696 49.3186 62.041 53.3938 59.0475C55.4432 57.5266 57.5731 56.1173 59.7743 54.8258C64.7296 51.9598 68.7873 50.7307 71.8037 51.1659C102.424 55.5823 117.043 82.2756 115.443 99.0387C115.368 99.8309 114.981 100.561 114.367 101.067C113.753 101.574 112.963 101.816 112.171 101.741C111.379 101.665 110.649 101.278 110.142 100.664C109.636 100.051 109.394 99.2607 109.469 98.4685C110.608 86.5373 100.19 61.3237 70.947 57.106C70.3599 57.0215 68.0361 56.9802 62.779 60.0208C60.7672 61.203 58.8205 62.4927 56.9474 63.8844C53.5726 66.3627 48.1445 73.9916 44.2978 83.7771C40.1396 94.3522 34.8707 114.993 46.2983 134.416C46.5662 134.872 46.7091 135.39 46.7124 135.919C46.7157 136.447 46.5793 136.967 46.3172 137.426C46.055 137.885 45.6762 138.267 45.2193 138.533C44.7623 138.798 44.2432 138.938 43.7147 138.939H43.7147Z" fill="black"/>
<path d="M32.0845 176.546C27.9116 176.546 25.1228 174.463 23.051 172.916C21.2733 171.588 20.3033 170.9 19.0813 171.021C7.51986 172.163 1.92375 167.551 0.645118 163.254C-1.69046 155.397 2.74818 151.295 7.04026 147.328C7.71132 146.707 8.40779 146.064 9.11108 145.379C14.084 140.538 18.5929 134.166 17.9199 120.433C17.7783 117.544 17.5936 114.566 17.4051 111.527C16.526 97.3477 15.5297 81.2771 18.5411 66.504C18.6199 66.1179 18.7739 65.7511 18.9943 65.4245C19.2148 65.0979 19.4975 64.8179 19.8261 64.6005C20.1548 64.3832 20.5231 64.2327 20.9099 64.1576C21.2968 64.0826 21.6946 64.0845 22.0807 64.1632C22.4668 64.2419 22.8336 64.3959 23.1602 64.6164C23.4868 64.8369 23.7668 65.1195 23.9842 65.4482C24.2015 65.7769 24.352 66.1452 24.4271 66.532C24.5021 66.9188 24.5002 67.3167 24.4215 67.7028C21.5692 81.6979 22.5392 97.3478 23.3949 111.155C23.5854 114.222 23.771 117.225 23.9136 120.14C24.7058 136.292 18.9914 144.136 13.2977 149.679C12.5563 150.401 11.8217 151.08 11.1135 151.735C6.85466 155.671 5.17554 157.432 6.39752 161.543C6.77456 162.812 9.67763 165.92 18.4913 165.048C22.0654 164.694 24.6051 166.587 26.6428 168.107C29.4413 170.198 31.4643 171.711 36.5427 169.397C36.9014 169.233 37.2889 169.141 37.6832 169.127C38.0774 169.113 38.4706 169.176 38.8402 169.314C39.2098 169.452 39.5486 169.661 39.8372 169.93C40.1259 170.199 40.3586 170.522 40.5222 170.881C40.6858 171.24 40.777 171.628 40.7906 172.022C40.8042 172.417 40.74 172.81 40.6015 173.179C40.463 173.548 40.2531 173.887 39.9837 174.175C39.7144 174.463 39.3908 174.695 39.0316 174.859C36.8645 175.915 34.4947 176.49 32.0845 176.546Z" fill="black"/>
<path d="M153.121 101.84C153.081 101.84 153.042 101.839 153.002 101.838C152.207 101.807 151.456 101.461 150.916 100.876C150.376 100.292 150.089 99.517 150.12 98.7217C151.689 58.6898 136.382 39.2424 127.117 31.213C116.26 21.8023 95.7643 17.0036 82.3655 20.7341C80.8875 21.0258 79.3662 21.0193 77.8907 20.7151C74.0644 20.1725 70.1826 20.1443 66.3488 20.6313C52.5954 22.2582 41.1395 30.2724 33.2186 43.8076C33.0199 44.1484 32.756 44.4467 32.442 44.6854C32.1279 44.9241 31.7699 45.0986 31.3884 45.1988C31.0068 45.299 30.6093 45.3229 30.2185 45.2693C29.8277 45.2157 29.4513 45.0855 29.1108 44.8863C28.7704 44.687 28.4726 44.4226 28.2344 44.1081C27.9963 43.7936 27.8225 43.4353 27.723 43.0536C27.6235 42.6719 27.6002 42.2743 27.6545 41.8836C27.7089 41.4929 27.8397 41.1167 28.0396 40.7766C36.9461 25.5549 49.9502 16.5278 65.6436 14.6714C69.9606 14.1207 74.3319 14.1508 78.6409 14.7607C79.3527 14.8776 80.0725 14.9387 80.7938 14.9434C96.1052 10.6803 118.661 15.9414 131.047 26.6779C141.126 35.4124 157.784 56.4174 156.118 98.9566C156.088 99.7312 155.759 100.464 155.2 101.001C154.641 101.539 153.896 101.839 153.121 101.84Z" fill="black"/>
<path d="M139.267 177.998C135.493 177.838 131.824 176.702 128.619 174.701C126.654 173.523 122.829 171.969 119.289 174.781C117.35 176.384 114.893 177.222 112.379 177.138C109.865 177.053 107.469 176.052 105.643 174.323C105.061 173.781 104.719 173.029 104.692 172.235C104.664 171.44 104.953 170.667 105.495 170.085C106.037 169.503 106.788 169.16 107.583 169.131C108.377 169.102 109.151 169.39 109.734 169.932C112.467 172.478 115.429 170.182 115.555 170.082C120.141 166.439 126.179 166.241 131.705 169.554C134.704 171.351 139.008 172.754 141.377 171.587C142.083 171.228 142.71 170.731 143.221 170.126C143.732 169.52 144.115 168.818 144.35 168.061C144.84 166.732 145.632 165.535 146.664 164.564C150.019 161.705 153.942 162.987 157.091 164.016C161.319 165.396 164.079 166.083 167.425 162.938C167.665 162.604 167.836 162.227 167.929 161.827C168.022 161.427 168.035 161.012 167.967 160.608C167.832 158.845 166.699 155.264 160.618 151.083C155.44 147.524 152.219 139.332 150.768 126.04C150.683 125.249 150.915 124.457 151.413 123.837C151.911 123.217 152.635 122.82 153.426 122.734C154.217 122.648 155.009 122.879 155.63 123.377C156.25 123.874 156.647 124.598 156.734 125.389C158.35 140.197 161.992 144.745 164.017 146.138C171.75 151.453 173.687 156.692 173.951 160.151C174.098 161.449 173.958 162.763 173.541 164C173.124 165.238 172.439 166.368 171.536 167.311C165.426 173.052 159.289 171.047 155.228 169.721C152.593 168.86 151.274 168.521 150.555 169.133C150.258 169.563 150.013 170.026 149.826 170.514C148.792 173.329 146.718 175.64 144.03 176.971C142.543 177.675 140.913 178.027 139.267 177.998Z" fill="black"/>
</svg>
