<svg width="300" height="400" viewBox="0 0 300 400" fill="none" xmlns="http://www.w3.org/2000/svg">
<path d="M116.738 283.746C116.738 283.746 106.941 307.901 79.6927 315.704C52.4443 323.507 56.8951 347.883 89.0039 350.288C121.113 352.694 137.222 347.628 137.222 347.628C137.222 347.628 171.142 325.015 148.833 287.655C149.569 232.263 116.738 283.746 116.738 283.746H116.738Z" fill="white"/>
<path d="M103.901 352.265C93.3939 352.265 82.35 351.033 73.5472 348.518C65.0072 346.077 59.4428 340.318 59.0258 333.485C58.5824 326.23 63.8822 319.544 73.2025 315.602C89.1039 308.874 104.979 301.409 109.153 290.674C109.752 289.128 111.487 288.364 113.036 288.965C114.58 289.566 115.345 291.304 114.745 292.848C109.722 305.764 92.6234 313.901 75.5404 321.127C68.6684 324.034 64.7338 328.518 65.014 333.119C65.2719 337.338 69.1732 341.028 75.1957 342.748C94.3432 348.22 121.436 346.856 131.104 342.081C132.586 341.348 134.388 341.956 135.121 343.443C135.856 344.928 135.246 346.727 133.76 347.46C127.325 350.639 115.967 352.265 103.901 352.265L103.901 352.265Z" fill="black"/>
<path d="M154.828 276.91C158.391 321.347 139.342 340.495 132.431 344.772C125.52 349.048 109.839 363.192 117.269 372.237C132.566 390.859 188.126 378.622 199.822 355.984C206.964 345.128 193.81 319.29 191.696 293.395L154.828 276.91Z" fill="white"/>
<path d="M143.894 383.014C143.244 383.014 142.591 383.007 141.93 382.995C126.876 382.706 116.986 379.06 113.331 372.452C111.581 369.287 110.456 363.914 115.039 356.288C118.275 350.904 124.924 346.31 130.268 342.62L130.725 342.303C136.351 338.415 148.597 325.563 150.542 310.66C150.755 309.017 152.283 307.853 153.904 308.074C155.547 308.288 156.706 309.793 156.491 311.436C154.365 327.731 141.651 342.044 134.137 347.239L133.677 347.556C128.809 350.919 122.75 355.104 120.181 359.378C117.685 363.532 117.146 366.954 118.581 369.547C121.067 374.042 129.62 376.757 142.045 376.997C142.661 377.008 143.273 377.014 143.878 377.014C177.116 377.014 195.152 359.461 198.206 354.664C201.815 348.992 198.147 333.847 194.789 327.802C193.985 326.354 194.506 324.527 195.955 323.722C197.406 322.918 199.23 323.442 200.035 324.888C201.724 327.93 203.922 333.876 205.024 340.304C205.937 345.63 206.374 353.004 203.268 357.884C199.057 364.501 179.239 383.013 143.894 383.014H143.894Z" fill="black"/>
<path d="M208.276 216.385C207.579 239.213 206.724 286.441 209.384 301.737C211.218 312.28 184.111 312.379 176.13 312.6C164.46 312.925 150.857 308.388 148.197 305.728C145.536 303.068 146.306 300.957 146.866 296.638C117.603 297.969 101.311 287.894 101.641 281.12C103.193 249.196 105.295 222.724 100.976 186.013C91.6645 106.868 86.444 82.2673 88.3391 54.3269C92.7378 -10.5223 216.561 22.0667 216.257 69.6238C215.924 121.5 210.049 158.301 208.276 216.385H208.276Z" fill="#82BE28"/>
<path d="M129.871 298.498C129.768 298.498 129.665 298.493 129.56 298.482C116.847 297.176 98.2292 290.714 98.6423 280.993C101.849 205.638 94.8464 153.343 89.7331 115.158C86.3855 90.1602 83.7409 70.4141 85.3523 54.0332C85.5144 52.3838 86.9704 51.1856 88.6316 51.3418C90.28 51.5039 91.4851 52.9717 91.323 54.6211C89.78 70.3086 92.3835 89.7491 95.6794 114.361C100.823 152.768 107.866 205.365 104.636 281.248C104.492 284.646 115.876 291.044 130.174 292.514C131.822 292.684 133.02 294.156 132.851 295.805C132.692 297.349 131.389 298.498 129.871 298.498Z" fill="black"/>
<path d="M177.06 316.252C166.271 316.252 155.48 314.425 148.953 310.37C143.268 306.837 142.329 302.524 142.543 299.528C144.56 271.293 148.028 184.949 145.197 112.305C145.133 110.649 146.423 109.255 148.078 109.19C148.118 109.189 148.158 109.188 148.197 109.188C149.801 109.188 151.13 110.456 151.193 112.071C154.033 184.963 150.552 271.617 148.527 299.956C148.476 300.686 148.316 302.91 152.119 305.273C163.432 312.302 193.245 311.256 203.427 305.287C204.543 304.633 206.395 303.336 206.388 301.937C204.504 283.554 203.518 182.263 212.051 96.9255C215.055 66.8942 214.868 58.278 207.806 50.3337C206.705 49.0954 206.816 47.1989 208.055 46.0983C209.292 44.9968 211.189 45.1081 212.29 46.3474C221.243 56.4196 221 67.7399 218.022 97.5231C214.842 129.322 207.587 255.751 212.366 301.424C212.373 301.483 212.377 301.542 212.38 301.601C212.488 303.998 211.55 307.48 206.46 310.464C200.156 314.158 188.609 316.252 177.06 316.252Z" fill="black"/>
<path d="M144.182 83.9375H144.174V83.9453H144.182V83.9375Z" fill="black"/>
</svg>
