<svg width="300" height="400" viewBox="0 0 300 400" fill="none" xmlns="http://www.w3.org/2000/svg">
<path d="M70.5667 283.276C70.5667 283.276 64.386 304.15 38.7589 311.48C13.1318 318.809 17.5915 339.507 47.7897 341.766C77.9879 344.026 113.431 329.759 113.431 329.759C113.431 329.759 123.368 322.179 110.399 300.213C108.912 297.694 106.775 289.836 105.798 284.21C106.49 232.177 70.5667 283.276 70.5667 283.276Z" fill="white"/>
<path d="M49.8538 344.173C43.013 344.173 37.0725 343.658 32.9319 342.477C24.7727 340.149 19.636 334.886 19.1907 328.401C18.72 321.542 23.7122 315.124 32.5452 311.232C48.512 304.195 66.3499 287.991 67.6507 282.574C68.0374 280.962 69.6575 279.969 71.2679 280.358C72.8792 280.744 73.8714 282.365 73.4847 283.975C71.4661 292.382 51.3059 309.521 34.9651 316.722C28.5462 319.551 24.887 323.763 25.177 327.99C25.4417 331.844 28.9563 335.103 34.5784 336.707C41.9993 338.825 57.9573 338.618 76.221 336.173C93.0706 333.915 107.643 330.282 111.658 327.338C116.317 323.922 111.094 310.365 108.288 303.083L107.596 301.281C107.006 299.732 107.783 297.998 109.331 297.408C110.881 296.818 112.614 297.596 113.203 299.144L113.887 300.926C117.971 311.528 123.565 326.047 115.206 332.176C107.04 338.164 73.2161 344.173 49.8538 344.173Z" fill="black"/>
<path d="M211.442 300.213C207.552 324.562 213.498 335.333 220.417 339.608C227.335 343.884 239.333 361.1 231.895 370.143C221.986 382.191 213.602 383.371 197.917 378.918C192.627 377.417 181.533 371.366 173.312 361.784C169.433 357.263 166.037 355.902 164.46 352.853C157.31 341.998 167.475 329.942 169.591 304.05L211.442 300.213Z" fill="white"/>
<path d="M216.675 212.808C214.716 235.56 213.291 285.846 211.441 300.212C209.048 318.798 171.999 309.4 169.336 306.74C166.673 304.08 161.118 294.523 161.679 290.204C156.76 290.428 146.893 150.546 144.736 134.764C144.736 134.764 128.425 162.971 121.464 203.414C116.206 233.962 114.738 277.134 113.172 279.006C103.209 290.916 64.0216 283.582 64.0215 278.831C64.0197 163.606 83.0356 71.6734 91.8756 41.3361C110.058 -21.0648 203.302 16.1069 208.956 63.3225C214.419 108.937 222.005 150.895 216.675 212.808H216.675Z" fill="#2D8C3C"/>
<path d="M91.286 288.858C81.1375 288.858 70.7606 287.055 65.8485 284.688C62.6776 283.159 61.0535 281.202 61.0223 278.871C59.7576 184.674 70.7606 91.0368 89.0545 40.318C89.618 38.7584 91.3338 37.9499 92.8944 38.5133C94.453 39.0758 95.2606 40.7946 94.6991 42.3532C76.6551 92.3795 65.7967 185.004 67.0164 278.404C67.7625 279.101 70.9744 280.828 78.866 281.995C90.0643 283.651 104.643 283.043 109.857 279.182C112.113 275.885 113.971 252.891 115.329 236.066C116.129 226.166 116.955 215.929 117.931 207.156C121.056 179.063 141.134 132.71 141.986 130.751C142.648 129.231 144.416 128.537 145.934 129.197C147.454 129.859 148.149 131.627 147.488 133.145C147.282 133.617 126.919 180.63 123.894 207.82C122.929 216.503 122.105 226.693 121.309 236.548C118.723 268.565 117.394 280.936 113.66 283.829C108.968 287.462 100.215 288.857 91.286 288.858H91.286Z" fill="black"/>
<path d="M189.66 314.208C175.803 314.208 162.144 308.732 160.036 298.03C155.873 276.899 152.373 239.253 148.988 202.846C146.159 172.416 143.233 140.95 139.916 118.822C139.67 117.183 140.8 115.656 142.439 115.411C144.071 115.172 145.605 116.294 145.85 117.933C149.192 140.227 152.125 171.778 154.962 202.291C158.333 238.547 161.82 276.04 165.922 296.87C167.595 305.363 182.382 309.421 195.148 307.881C201.901 307.067 208.63 304.421 208.445 300.348C208.432 300.062 208.459 299.776 208.528 299.498C213.388 279.651 215.72 179.657 211.412 95.5709C209.768 63.5025 201.948 48.3697 195.676 41.3228C194.575 40.0855 194.685 38.189 195.923 37.0875C197.159 35.9859 199.056 36.0953 200.159 37.3346C210.069 48.4713 216.033 68.5025 217.404 95.2642C221.437 173.962 219.938 277.034 214.45 300.534C214.449 307.372 207.387 312.449 195.867 313.837C193.819 314.085 191.737 314.208 189.66 314.208H189.66Z" fill="black"/>
<path d="M210.267 383.442C204.987 383.442 199.141 382.528 192.844 380.696C182.435 377.667 179.18 373.624 175.059 368.505C172.699 365.573 170.025 362.251 165.299 358.196C155.625 349.894 158.623 338.093 161.524 326.68C163.188 320.131 164.908 313.358 164.489 306.935C164.381 305.282 165.634 303.854 167.287 303.747C168.948 303.637 170.367 304.892 170.476 306.545C170.957 313.915 169.117 321.155 167.338 328.158C164.25 340.314 162.688 348.049 169.207 353.643C174.352 358.057 177.335 361.764 179.733 364.742C183.594 369.538 185.924 372.433 194.52 374.934C206.665 378.468 217.04 378.22 223.742 374.235C227.525 371.986 230.013 368.556 230.938 364.316C232.332 357.921 226.54 351.252 220.408 344.19C214.181 337.019 207.121 328.891 206.067 319.121C205.889 317.473 207.079 315.994 208.727 315.816C210.374 315.636 211.853 316.829 212.031 318.476C212.885 326.378 219.013 333.433 224.939 340.257C231.771 348.124 238.836 356.259 236.799 365.595C235.511 371.501 232.057 376.272 226.809 379.392C222.274 382.09 216.689 383.442 210.267 383.442V383.442Z" fill="black"/>
</svg>
