<svg width="300" height="424" viewBox="0 0 300 424" fill="none" xmlns="http://www.w3.org/2000/svg">
<path d="M121.985 302.804C121.985 302.804 112.66 335.648 83.8958 343.885C55.1316 352.122 50.0009 377.693 83.8958 380.232C117.791 382.771 121.985 375.616 121.985 375.616C121.985 375.616 151.961 370.685 152.738 312.212C153.515 253.739 121.985 302.804 121.985 302.804Z" fill="white"/>
<path d="M95.4823 382.282C82.6513 382.282 71.0038 380.007 65.079 376.548C59.6688 373.389 56.9833 368.386 57.5155 362.462C58.1005 355.957 62.8153 349.313 68.2479 347.334C98.3847 336.359 110.999 320.457 111.123 320.298C112.138 318.99 114.019 318.751 115.329 319.764C116.638 320.777 116.881 322.654 115.872 323.965C115.329 324.669 102.215 341.349 70.3007 352.973C67.3515 354.046 63.911 358.332 63.4921 362.999C63.1698 366.576 64.7216 369.391 68.1044 371.366C76.5966 376.325 100.584 378.302 118.779 373.418L119.214 373.302C123.367 372.191 134.401 369.238 138.564 365.075C139.736 363.903 141.635 363.903 142.807 365.075C143.978 366.246 143.978 368.147 142.807 369.318C137.506 374.618 126.199 377.644 120.765 379.098L120.334 379.213C112.356 381.354 103.679 382.282 95.4823 382.282Z" fill="black"/>
<path d="M117.934 350.058C110.007 350.058 103.498 348.385 100.065 345.755C97.2423 343.593 96.6153 341.037 96.587 339.274C96.4952 333.639 102.366 328.667 103.036 328.118C104.319 327.068 106.208 327.258 107.258 328.539C108.306 329.819 108.119 331.706 106.842 332.757C105.437 333.918 102.546 337.018 102.586 339.182C102.595 339.629 102.73 340.238 103.713 340.991C108.834 344.915 128.859 346.731 147.298 336.072C148.733 335.244 150.567 335.734 151.397 337.169C152.226 338.603 151.734 340.438 150.3 341.268C139.41 347.561 127.614 350.058 117.934 350.058H117.934Z" fill="black"/>
<path d="M152.686 303.102C156.661 352.678 135.41 374.04 127.7 378.811C119.989 383.581 109.017 397.527 119.127 405.792C132.677 416.869 191.952 410.769 204.999 385.513C208.863 377.785 195.897 317.055 195.897 317.055L152.686 303.102H152.686Z" fill="white"/>
<path d="M158.114 380.903C156.619 380.903 155.326 379.789 155.14 378.268C154.938 376.624 156.108 375.128 157.752 374.926C170.371 373.377 180.964 368.871 189.237 361.532C195.416 356.051 197.921 350.942 197.946 350.891C198.663 349.403 200.449 348.773 201.945 349.483C203.436 350.196 204.072 351.976 203.364 353.47C202.913 354.42 191.96 376.772 158.483 380.881C158.359 380.896 158.236 380.903 158.114 380.903Z" fill="black"/>
<path d="M144.466 378.709C143.793 378.709 143.118 378.485 142.558 378.023C135.714 372.371 139.852 362.351 140.032 361.927C140.678 360.402 142.444 359.692 143.964 360.334C145.487 360.98 146.201 362.735 145.56 364.258C145.508 364.385 143.003 370.61 146.378 373.396C147.656 374.451 147.836 376.342 146.782 377.62C146.188 378.338 145.331 378.709 144.466 378.709Z" fill="black"/>
<path d="M191.395 9.34462C179.867 -5.73052 110.699 -2.62681 105.821 19.0993C102.9 32.1139 106.586 73.4563 106.586 73.4563C106.586 73.4563 119.403 202.7 121.176 239.944C122.95 277.189 118.959 302.791 118.959 302.791C118.959 302.791 122.585 308.652 138.206 308.967C144.507 309.094 149.513 308.461 153.344 307.604L153.653 314.78C153.653 314.78 161.004 320.641 176.625 320.956C194.032 321.307 198.326 315.869 198.326 315.869C192.553 251.435 209.471 159.074 209.131 76.7396C209.025 51.0233 203.035 22.8423 191.395 9.34463V9.34462Z" fill="#82BE28"/>
<path d="M118.077 312.112C117.875 312.112 117.669 312.091 117.463 312.048C115.841 311.71 114.8 310.122 115.137 308.499C124.272 264.592 110.385 132.072 103.989 77.1342C103.769 75.2426 103.635 74.0805 103.601 73.7446L103.428 71.9682C101.388 51.02 99.7771 34.4741 102.878 18.5248C103.194 16.8979 104.764 15.8412 106.395 16.1518C108.022 16.4682 109.084 18.0434 108.768 19.6694C105.834 34.7612 107.408 50.9242 109.4 71.3862L109.574 73.1645C109.605 73.4887 109.736 74.6118 109.949 76.4409C116.378 131.668 130.325 264.956 121.012 309.722C120.717 311.138 119.469 312.112 118.077 312.112H118.077Z" fill="black"/>
<path d="M144.223 416.372C143.107 416.372 142.007 416.347 140.921 416.297C126.33 415.626 116.365 410.494 112.861 401.847C108.793 391.805 119.775 381.911 125.677 376.596C126.619 375.747 127.538 374.939 128.447 374.141C136.325 367.219 143.13 361.242 147.064 343.159C154.182 310.451 146.062 105.905 145.979 103.843C145.913 102.188 147.201 100.792 148.857 100.725C150.54 100.665 151.908 101.947 151.976 103.603C152.314 112.055 160.207 310.984 152.928 344.435C148.572 364.446 140.721 371.345 132.407 378.648C131.517 379.43 130.616 380.222 129.707 381.04C125.226 385.077 115.933 393.448 118.422 399.593C121.894 408.16 134.181 409.981 141.197 410.304C162.603 411.27 192.445 401.007 200.316 385.772C203.01 380.384 199.986 364.774 198.533 357.272C198.153 355.305 197.853 353.752 197.685 352.63C193.347 323.626 193.772 311.055 195.774 275.689C198.066 235.19 199.962 207.882 201.795 181.474C202.688 168.592 203.533 156.425 204.411 142.935C204.607 139.927 204.83 136.766 205.061 133.48C207.669 96.4542 211.608 40.5021 189.019 11.1759C188.008 9.86342 188.252 7.97963 189.564 6.96791C190.878 5.95912 192.762 6.20229 193.772 7.51381C217.754 38.6476 213.718 95.9699 211.047 133.902C210.816 137.177 210.595 140.326 210.398 143.325C209.519 156.828 208.675 169.001 207.78 181.889C205.948 208.278 204.055 235.567 201.765 276.028C199.746 311.686 199.354 323.234 203.618 351.743C203.767 352.737 204.071 354.31 204.424 356.13C206.777 368.281 209.008 381.804 205.665 388.49C201.351 396.842 191.711 404.321 178.503 409.586C167.55 413.953 155.244 416.372 144.223 416.372V416.372Z" fill="black"/>
<path d="M144.196 107.895H144.176V107.915H144.196V107.895Z" fill="black"/>
</svg>
