<svg width="300" height="418" viewBox="0 0 300 418" fill="none" xmlns="http://www.w3.org/2000/svg">
<path d="M192.992 280.133C193.656 206.968 212.484 74.6079 205.852 55.9843C200.683 41.471 173.211 43.1223 157.29 49.1738C138.021 39.6411 103.71 25.4614 103.71 55.9843C103.71 96.6615 124.612 167.251 122.642 225.257C120.671 283.264 122.659 274.521 120.89 290.04C119.122 305.56 100.698 322.716 79.9073 328.687C52.7336 336.49 57.1723 360.868 89.1928 363.274C106.287 364.558 118.831 363.712 126.814 362.645C121.736 368.305 118.198 376.497 124.839 381.942C136.951 391.871 186.265 388.735 197.928 366.095C205.05 355.238 198.962 349.306 197.304 339.329C195.645 329.352 192.787 302.756 192.992 280.133H192.992Z" fill="white"/>
<path d="M131.605 360.369C141.354 352.819 152.864 341.99 153.528 324.031C123.018 338.664 106.437 336.004 90.1869 324.253C88.2245 325.07 82.4535 328.06 80.2706 328.687C53.0969 336.491 57.5356 360.868 89.5561 363.274C109.12 364.743 122.717 363.424 130.344 362.175C130.549 361.509 130.949 360.877 131.605 360.369H131.605Z" fill="white"/>
<path d="M104.385 366.295C93.9418 366.295 82.8403 364.962 73.5336 361.421C64.8256 358.109 59.5502 352.088 59.4223 345.313C59.2934 338.513 64.3989 332.417 73.4282 328.586L75.0102 327.916C90.0151 321.565 108.688 313.661 114.932 298.292C121.838 281.294 121.811 229.582 114.867 172.537C114.665 170.892 115.837 169.397 117.482 169.197C119.126 168.992 120.622 170.168 120.822 171.812C127.877 229.764 127.742 282.704 120.491 300.55C113.313 318.22 93.3715 326.659 77.3491 333.441L75.7719 334.109C69.1137 336.933 65.3413 340.976 65.4213 345.2C65.5004 349.373 69.4262 353.439 75.6664 355.813C93.3598 362.542 119.019 360.542 130.791 357.07C132.385 356.6 134.049 357.512 134.518 359.099C134.986 360.688 134.078 362.357 132.489 362.826C125.83 364.789 115.479 366.295 104.385 366.295H104.385Z" fill="black"/>
<path d="M120.558 337.409C114.683 337.409 108.951 336.589 104.092 334.835C102.533 334.271 101.726 332.553 102.288 330.994C102.851 329.437 104.569 328.629 106.129 329.19C120.203 334.271 141.401 330.002 148.886 322.946C150.093 321.808 151.991 321.867 153.126 323.071C154.263 324.276 154.207 326.175 153.001 327.312C146.245 333.682 133.076 337.409 120.558 337.409Z" fill="black"/>
<path d="M143.579 348.64C139.484 354.783 135.042 356.179 132.501 357.755C125.609 362.032 107.469 376.945 115.722 385.223C134.294 403.846 188.956 391.899 200.619 369.259C204.416 363.472 201.282 348.64 197.773 339.797C180.722 353.961 162.592 357.065 143.579 348.64Z" fill="white"/>
<path d="M105.036 51.3283C112.995 64.6309 122.736 80.9241 148.603 83.5846C170.901 79.7495 187.776 64.9966 206.243 58.3731C206.243 58.3731 208.265 53.2242 198.284 34.4285C184.984 9.38109 105.036 10.0903 104.277 28.714L105.036 51.3283Z" fill="white"/>
<path d="M195.641 327.031C194.136 327.031 192.838 325.902 192.664 324.37C185.944 265.21 196.748 165.825 200.22 136.774L200.991 130.366C205.508 92.9103 208.772 65.8478 197.846 43.3263C197.123 41.8351 197.745 40.0412 199.236 39.3175C200.727 38.5978 202.522 39.217 203.244 40.7072C214.94 64.8156 211.587 92.6125 206.947 131.085L206.177 137.486C202.725 166.374 191.979 265.178 198.625 323.693C198.813 325.339 197.63 326.825 195.984 327.012C195.868 327.026 195.754 327.031 195.641 327.031H195.641Z" fill="black"/>
<path d="M175.492 277.631C173.414 277.631 171.357 277.51 169.411 277.271C167.767 277.068 166.598 275.571 166.8 273.927C167.002 272.282 168.498 271.107 170.144 271.316C180.031 272.528 189.241 270.082 190.998 267.927C192.044 266.643 193.936 266.449 195.219 267.499C196.503 268.546 196.695 270.436 195.647 271.72C192.391 275.712 183.773 277.631 175.492 277.631H175.492Z" fill="black"/>
<path d="M138.35 266.547C136.272 266.547 134.214 266.425 132.269 266.186C130.624 265.984 129.455 264.487 129.657 262.842C129.861 261.198 131.361 260.022 133.001 260.231C142.883 261.448 152.097 258.997 153.856 256.842C154.902 255.558 156.793 255.366 158.076 256.415C159.361 257.462 159.552 259.351 158.504 260.635C155.248 264.628 146.63 266.547 138.35 266.547H138.35Z" fill="black"/>
<path d="M143.932 396.001C143.283 396.001 142.632 395.994 141.973 395.981C126.97 395.692 117.108 392.052 113.454 385.454C111.7 382.288 110.57 376.911 115.147 369.275C118.616 363.485 125.649 358.423 130.938 355.195C150.419 343.302 151.408 317.969 152.552 288.637L152.656 285.973C155.791 206.871 143.3 85.4471 143.173 84.2303C143.002 82.5818 144.199 81.1072 145.847 80.9354C147.491 80.7576 148.969 81.9627 149.142 83.6092C149.269 84.8309 161.803 206.683 158.652 286.212L158.548 288.87C157.387 318.635 156.289 346.748 134.064 360.316C127.4 364.383 122.51 368.66 120.293 372.359C117.799 376.521 117.264 379.949 118.703 382.547C121.189 387.034 129.712 389.744 142.088 389.983C176.415 390.637 194.985 372.537 198.085 367.652C201.049 362.981 199.094 351.89 196.442 344.742C186.481 354.006 167.597 359.318 155.702 355.487C154.125 354.978 153.259 353.288 153.767 351.712C154.276 350.133 155.971 349.267 157.542 349.776C168.453 353.291 187.999 346.893 194.887 337.549C195.492 336.726 196.474 336.277 197.495 336.335C198.515 336.401 199.431 336.981 199.926 337.875C203.131 343.661 208.797 361.97 203.151 370.867C198.952 377.484 179.187 396 143.932 396.001H143.932Z" fill="black"/>
<path d="M216.362 37.9118C207.086 5.81966 168.94 4.21205 149.474 0.77788C130.009 -2.65629 101.96 5.65078 100.182 18.4014C98.4036 31.152 98.0746 58.2293 98.8096 69.2861C101.463 109.194 120.935 152.952 118.965 210.958C118.501 224.604 110.941 250.12 110.342 258.183C121.426 266.02 145.694 268.824 148.996 268.603C155.629 268.159 154.544 273.962 154.302 277.915C168.452 290.552 195.239 290.109 209.831 277.471C188.681 161.739 226.486 80.9258 216.362 37.9118Z" fill="white"/>
<path d="M182.357 289.619C176.079 289.619 169.82 288.728 164.618 287.131C159.459 285.547 152.914 282.526 151.026 277.132C150.848 276.624 150.811 276.077 150.918 275.549C159.133 234.785 154.197 132.487 144.798 101.416C144.317 99.831 145.215 98.1562 146.799 97.6767C148.389 97.1933 150.059 98.0937 150.54 99.6786C160.18 131.548 165.31 232.638 156.985 275.79C158.178 277.872 161.603 279.929 166.38 281.395C177.591 284.84 194.936 284.668 203.398 278.389C205.538 276.801 206.534 275.914 205.818 273.116C197.939 242.359 198.475 164.767 204.626 129.301C213.945 75.5683 217.605 39.3183 207.079 24.6396C206.113 23.2939 206.422 21.4189 207.768 20.454C209.115 19.4863 210.988 19.7968 211.954 21.1435C223.754 37.5946 220.37 73.6347 210.538 130.326C204.481 165.25 203.913 241.501 211.631 271.628C213.379 278.454 209.213 281.546 206.974 283.207C200.95 287.677 191.632 289.619 182.357 289.619H182.357Z" fill="black"/>
<path d="M141.256 270.495C129.899 270.495 115.329 266.911 110.176 259.042C108.007 255.73 107.712 252.028 109.323 248.337C112.781 240.413 118.652 212.591 114.732 177.161C111.967 152.179 106.982 129.274 102.582 109.067C94.8569 73.5782 88.185 42.9278 97.3569 17.3887C97.9155 15.8292 99.6352 15.0206 101.194 15.5792C102.753 16.1387 103.564 17.8565 103.003 19.4161C94.4145 43.335 100.606 71.7794 108.446 107.791C112.875 128.142 117.897 151.208 120.695 176.501C124.748 213.134 118.489 242.334 114.823 250.736C114.028 252.558 114.147 254.152 115.196 255.755C118.458 260.737 129.663 264.495 141.256 264.495C142.914 264.495 144.256 265.838 144.256 267.495C144.256 269.152 142.914 270.495 141.256 270.495L141.256 270.495Z" fill="black"/>
<path d="M144.177 101.559H144.17V101.566H144.177V101.559Z" fill="white"/>
</svg>
