<svg width="300" height="400" viewBox="0 0 300 400" fill="none" xmlns="http://www.w3.org/2000/svg">
<path d="M116.488 283.761C116.488 283.761 106.691 307.917 79.4427 315.72C52.1943 323.523 56.6451 347.899 88.7539 350.304C120.863 352.709 136.972 347.644 136.972 347.644C136.972 347.644 170.892 325.031 148.583 287.671C149.319 232.279 116.488 283.761 116.488 283.761H116.488Z" fill="white"/>
<path d="M91.4141 310.399C86.7586 311.73 81.997 315.093 79.808 315.72C52.5595 323.523 57.0104 347.899 89.1191 350.304C121.228 352.71 137.338 347.644 137.338 347.644C137.338 347.644 161.913 334.342 157.257 309.734C131.319 328.357 93.4094 319.046 91.4141 310.399Z" fill="white"/>
<path d="M118.518 324.324C112.639 324.324 106.991 323.532 102.369 321.868C100.81 321.307 100.002 319.589 100.563 318.029C101.125 316.47 102.847 315.663 104.402 316.223C111.696 318.849 121.841 319.151 131.537 317.03C140.562 315.056 147.587 311.18 149.431 307.155C150.122 305.648 151.901 304.988 153.409 305.677C154.915 306.368 155.577 308.149 154.886 309.655C150.616 318.969 133.797 324.324 118.518 324.324L118.518 324.324Z" fill="black"/>
<path d="M103.652 352.282C93.1449 352.282 82.1 351.049 73.2972 348.534C64.7572 346.094 59.1928 340.334 58.7758 333.502C58.3324 326.247 63.6322 319.561 72.9525 315.618C88.8539 308.89 104.729 301.425 108.903 290.691C109.503 289.146 111.242 288.382 112.786 288.982C114.33 289.583 115.095 291.321 114.495 292.865C109.472 305.78 92.3734 313.917 75.2904 321.143C68.4184 324.052 64.4838 328.534 64.764 333.137C65.0219 337.354 68.9232 341.044 74.9457 342.764C94.0912 348.234 121.185 346.871 130.853 342.097C132.337 341.362 134.138 341.972 134.871 343.458C135.606 344.944 134.996 346.743 133.511 347.476C127.075 350.656 115.718 352.282 103.652 352.282Z" fill="black"/>
<path d="M154.579 276.926C158.142 321.363 139.093 340.511 132.182 344.787C125.271 349.063 115.436 361.564 124.498 368.972C136.644 378.901 186.093 375.765 197.788 353.127C204.93 342.27 193.561 319.305 191.447 293.411L154.579 276.926H154.579Z" fill="white"/>
<path d="M142.183 336.116C138.076 342.259 134.731 343.211 132.183 344.787C125.272 349.063 108.995 361.691 116.466 370.701C131.541 388.88 188.793 378.929 200.488 356.291C204.296 350.503 201.153 335.673 197.635 326.83C178.984 340.994 160.362 342.767 142.183 336.116H142.183Z" fill="white"/>
<path d="M143.647 383.028C142.995 383.028 142.343 383.023 141.68 383.009C126.626 382.72 116.736 379.074 113.081 372.466C111.331 369.302 110.206 363.929 114.789 356.302C118.022 350.921 124.668 346.33 130.006 342.642L130.475 342.317C136.101 338.429 148.347 325.577 150.292 310.675C150.506 309.032 152.022 307.87 153.654 308.089C155.297 308.303 156.456 309.809 156.241 311.451C154.115 327.745 141.401 342.059 133.887 347.253L133.418 347.577C128.552 350.939 122.498 355.122 119.931 359.393C117.435 363.547 116.896 366.969 118.332 369.563C120.817 374.057 129.37 376.772 141.795 377.011C176.206 377.672 194.847 359.564 197.956 354.678C200.928 350.007 198.964 338.91 196.304 331.764C186.321 341.033 167.38 346.355 155.452 342.519C153.875 342.012 153.006 340.321 153.513 338.744C154.021 337.166 155.711 336.305 157.288 336.806C168.231 340.326 187.839 333.924 194.75 324.577C195.356 323.756 196.324 323.296 197.356 323.366C198.374 323.433 199.289 324.012 199.784 324.903C201.474 327.945 203.672 333.891 204.774 340.318C205.687 345.646 206.124 353.019 203.018 357.899C198.807 364.516 178.986 383.026 143.647 383.028H143.647Z" fill="black"/>
<path d="M210.463 92.253C208.468 134.153 202.702 165.883 202.039 187.581C200.266 245.665 204.669 283.942 208.69 293.995C213.124 305.079 211.35 311.287 195.832 313.06C182.961 314.531 167.898 316.164 150.606 306.853C146.683 304.74 142.952 302.304 143.512 297.985C124.446 300.202 90.2968 290.447 95.626 279.169C105.381 258.524 114.248 226.156 105.381 173.393C95.4937 114.566 93.5893 73.8087 98.6235 44.0345C104.279 10.5832 202.648 16.5218 204.524 34.0216C204.524 34.0216 212.459 50.3529 210.463 92.253H210.463Z" fill="#2D8C3C"/>
<path d="M127.997 300.763C127.918 300.763 127.838 300.76 127.758 300.753C110.714 299.405 97.4452 291.718 93.6132 285.169C91.7363 281.96 92.1913 279.45 92.9042 277.909C103.271 255.49 107.566 224.244 104.393 194.326C103.355 184.539 102.027 173.89 100.621 162.614C95.2997 119.948 89.2685 71.59 95.6991 43.3683C96.0663 41.7521 97.6835 40.7394 99.29 41.1095C100.906 41.4776 101.917 43.0851 101.549 44.7003C95.3525 71.8937 101.315 119.696 106.575 161.872C107.984 173.175 109.316 183.852 110.36 193.693C113.643 224.643 109.152 257.067 98.3495 280.427C98.1952 280.762 98.3603 281.401 98.7919 282.139C101.442 286.669 113.147 293.579 128.23 294.773C129.882 294.902 131.115 296.348 130.984 297.999C130.86 299.57 129.547 300.763 127.997 300.763H127.997Z" fill="black"/>
<path d="M179.702 316.691C167.012 316.691 153.972 314.558 147.01 309.235C143.552 306.59 138.326 302.593 140.745 296.824C163.217 243.236 143.309 100.503 143.105 99.0679C142.872 97.4273 144.014 95.9087 145.654 95.6763C147.291 95.4409 148.813 96.5835 149.046 98.2242C149.097 98.5864 154.213 134.939 156.436 177.541C159.433 235.01 156.016 275.923 146.279 299.144C146.029 299.741 145.651 300.641 150.655 304.469C157.281 309.536 174.269 311.9 191.052 310.091C199.044 309.229 204.818 307.215 206.497 304.705C206.85 304.176 207.203 303.393 206.8 302.014C196.265 266.025 195.491 194.507 204.827 119.813C209.833 79.7554 208.954 55.9761 201.689 35.0015C201.147 33.4361 201.976 31.7281 203.542 31.1851C205.106 30.6441 206.817 31.4722 207.359 33.0386C214.953 54.9634 215.912 79.5015 210.78 120.557C201.68 193.363 202.395 265.608 212.558 300.329C213.371 303.106 213 305.773 211.485 308.039C208.672 312.247 202.014 314.944 191.695 316.056C187.88 316.467 183.809 316.691 179.702 316.691L179.702 316.691Z" fill="black"/>
</svg>
