<svg width="300" height="413" viewBox="0 0 300 413" fill="none" xmlns="http://www.w3.org/2000/svg">
<path d="M188.011 279.838C188.676 206.679 207.557 74.328 200.906 55.7057C195.723 41.1933 168.175 42.8445 152.21 48.8957C132.889 39.3636 98.4831 25.1849 98.4831 55.7057C98.4831 96.38 119.443 166.964 117.467 224.967C115.491 282.969 115.378 284.203 115.378 284.203L114.416 285.628C108.733 306.89 95.4626 322.419 74.6147 328.389C47.3661 336.192 51.8171 360.568 83.9257 362.974C101.067 364.258 113.645 363.412 121.651 362.345C116.559 368.005 113.01 376.196 119.67 381.641C131.816 391.569 181.265 388.433 192.96 365.795C200.102 354.939 193.997 349.007 192.334 339.031C190.671 329.054 187.805 302.46 188.011 279.838H188.011Z" fill="white"/>
<path d="M126.456 360.07C136.231 352.52 147.774 341.692 148.439 323.734C117.845 338.366 101.218 335.706 84.9235 323.956C82.9557 324.773 77.1689 327.763 74.9799 328.39C47.7314 336.193 52.1823 360.569 84.2909 362.974C103.909 364.444 117.543 363.125 125.191 361.876C125.397 361.21 125.798 360.578 126.456 360.07H126.456Z" fill="#82BE28"/>
<path d="M115.377 337.112C109.488 337.112 103.742 336.292 98.8717 334.538C97.3121 333.977 96.5035 332.258 97.0651 330.7C97.6256 329.14 99.3522 328.334 100.903 328.893C115.017 333.974 136.285 329.706 143.792 322.647C144.999 321.509 146.898 321.572 148.032 322.778C149.167 323.985 149.108 325.883 147.901 327.018C141.128 333.385 127.926 337.112 115.377 337.112Z" fill="black"/>
<path d="M99.1586 365.995C88.6889 365.995 77.56 364.662 68.2299 361.123C59.4985 357.812 54.2104 351.79 54.0825 345.015C53.9535 338.214 59.0717 332.117 68.1244 328.287L69.7094 327.617C84.7563 321.267 103.484 313.363 109.746 297.994C116.669 280.998 116.642 229.291 109.679 172.252C107.478 154.224 105.174 140.027 103.142 127.502C98.6059 99.543 95.0229 77.46 95.4828 32.3975C95.4994 30.751 96.8403 29.4277 98.4819 29.4277H98.5131C100.17 29.4443 101.499 30.8018 101.483 32.458C101.028 77.0068 104.575 98.8662 109.065 126.541C111.106 139.121 113.419 153.379 115.634 171.525C122.709 229.475 122.573 282.411 115.302 300.258C108.104 317.926 88.1088 326.364 72.0424 333.146L70.4623 333.813C63.7856 336.638 60.0014 340.68 60.0815 344.901C60.1596 349.073 64.0971 353.139 70.3569 355.514C88.1039 362.244 113.838 360.242 125.644 356.771C127.232 356.305 128.902 357.213 129.369 358.802C129.836 360.392 128.926 362.06 127.337 362.526C120.662 364.49 110.283 365.995 99.1586 365.995H99.1586Z" fill="black"/>
<path d="M138.462 348.343C134.356 354.485 129.902 355.88 127.354 357.457C120.443 361.733 102.252 376.646 110.529 384.922C129.151 403.545 183.964 391.599 195.66 368.961C199.467 363.173 196.325 348.343 192.806 339.5C175.707 353.664 157.528 356.767 138.462 348.343H138.462Z" fill="#82BE28"/>
<path d="M99.8134 51.0504C107.794 64.352 117.562 80.6442 143.501 83.3045C165.86 79.4696 182.782 64.7177 201.299 58.0947C201.299 58.0947 203.326 52.9462 193.318 34.1518C179.982 9.1061 99.8134 9.81529 99.0527 28.4376L99.8134 51.0504V51.0504Z" fill="white"/>
<path d="M190.666 326.735C189.161 326.735 187.863 325.605 187.69 324.074C180.951 264.925 191.784 165.54 195.266 136.489L196.038 130.077C200.568 92.6281 203.841 65.5705 192.887 43.052C192.161 41.5617 192.781 39.7668 194.272 39.0422C195.76 38.3156 197.558 38.9367 198.281 40.427C210.01 64.5354 206.649 92.3293 201.995 130.798L201.223 137.203C197.762 166.091 186.986 264.892 193.65 323.395C193.838 325.041 192.655 326.528 191.01 326.715C190.895 326.729 190.779 326.735 190.666 326.735V326.735Z" fill="black"/>
<path d="M170.464 277.337C168.38 277.337 166.319 277.216 164.367 276.976C162.723 276.774 161.553 275.278 161.755 273.634C161.957 271.988 163.457 270.807 165.098 271.021C175.016 272.238 184.257 269.786 186.022 267.63C187.07 266.348 188.96 266.157 190.243 267.209C191.526 268.258 191.714 270.148 190.664 271.43C187.4 275.419 178.763 277.337 170.464 277.337Z" fill="black"/>
<path d="M133.22 266.253C131.136 266.253 129.074 266.132 127.123 265.893C125.479 265.691 124.309 264.194 124.511 262.55C124.712 260.904 126.204 259.734 127.854 259.938C137.765 261.151 147.013 258.702 148.777 256.546C149.825 255.265 151.716 255.073 152.998 256.123C154.281 257.172 154.47 259.063 153.421 260.345C150.157 264.335 141.52 266.253 133.22 266.253Z" fill="black"/>
<path d="M138.816 395.7C138.166 395.7 137.513 395.693 136.852 395.681C121.797 395.392 111.907 391.746 108.253 385.138C106.502 381.974 105.378 376.6 109.961 368.974C113.437 363.187 120.489 358.124 125.792 354.894C145.329 343.002 146.321 317.672 147.469 288.342L147.573 285.681C150.715 206.591 138.189 85.1688 138.063 83.9511C137.892 82.3036 139.088 80.828 140.736 80.6571C142.378 80.4735 143.859 81.6806 144.03 83.329C144.158 84.5507 156.728 206.395 153.569 285.919L153.464 288.577C152.299 318.341 151.198 346.454 128.912 360.019C122.229 364.089 117.325 368.366 115.103 372.063C112.606 376.219 112.068 379.641 113.503 382.233C115.989 386.728 124.541 389.443 136.967 389.683C137.582 389.694 138.194 389.7 138.799 389.7C172.039 389.7 190.074 372.148 193.127 367.35C196.101 362.679 194.137 351.582 191.476 344.436C181.493 353.705 162.554 359.024 150.623 355.19C149.046 354.683 148.178 352.993 148.685 351.416C149.191 349.838 150.885 348.973 152.459 349.477C163.405 352.999 183.011 346.596 189.921 337.249C190.527 336.428 191.495 335.968 192.527 336.038C193.545 336.104 194.46 336.684 194.955 337.575C198.17 343.361 203.853 361.673 198.189 370.571C193.979 377.187 174.162 395.699 138.816 395.7H138.816Z" fill="black"/>
<path d="M99.8868 14.4716C81.9296 38.4146 85.9201 79.6497 81.9296 86.9656C77.2741 98.272 107.223 106.047 138.462 101.597C138.462 101.597 138.616 105.181 139.127 108.248C141.122 120.885 229.578 117.559 221.597 94.9466C213.616 72.3338 223.592 46.3956 202.309 15.8018C194.994 -3.48557 115.608 -6.48931 99.8868 14.4716Z" fill="white"/>
<path d="M117.124 107.109C104.365 107.109 87.9204 102.717 81.563 95.5908C78.27 91.9004 78.3794 88.4033 79.0512 86.1192C81.9106 76.3955 82.7944 66.7559 83.6479 57.4336C85.2075 40.4111 86.6811 24.334 99.6909 10.4268C100.821 9.21875 102.719 9.15235 103.931 10.2861C105.141 11.418 105.204 13.3164 104.072 14.5264C92.4682 26.9307 91.1499 41.3193 89.6235 57.9805C88.7426 67.5899 87.8325 77.5264 84.8071 87.8125C84.5796 88.5879 84.4585 89.8242 86.0395 91.5967C91.643 97.876 111.497 102.693 123.316 100.637C124.951 100.352 126.502 101.446 126.786 103.079C127.069 104.711 125.976 106.265 124.343 106.549C122.167 106.927 119.721 107.109 117.124 107.109H117.124Z" fill="black"/>
<path d="M170.925 119.227C157.64 119.227 145.612 117.461 140.123 114.284C136.473 112.172 135.946 109.649 136.148 107.904C137.83 93.3186 136.189 77.5657 131.643 64.6848C131.091 63.1223 131.911 61.4094 133.474 60.8577C135.035 60.3079 136.75 61.1262 137.301 62.6887C142.116 76.3342 143.875 92.968 142.134 108.366C143.225 109.775 150.736 112.738 167.481 113.148C182.757 113.524 198.196 111.455 207.779 107.753C216.122 104.529 219.788 100.448 218.675 95.6213C217.229 89.3577 216.465 81.8528 215.656 73.9075C213.74 55.0823 211.569 33.7444 199.879 17.5579C198.908 16.2141 199.211 14.3391 200.554 13.3694C201.898 12.3987 203.774 12.7014 204.742 14.0442C217.375 31.5364 219.732 54.6936 221.626 73.3C222.415 81.053 223.16 88.3752 224.521 94.2717C225.426 98.1936 225.076 103.923 218.27 108.954C208.625 116.082 188.655 119.227 170.925 119.227V119.227Z" fill="black"/>
</svg>
