<svg width="300" height="400" viewBox="0 0 300 400" fill="none" xmlns="http://www.w3.org/2000/svg">
<path d="M134.012 336.031C139.016 329.028 144.021 322.024 146.023 314.019C153.029 283.001 152.028 254.986 158.034 223.968C158.11 223.665 158.178 223.365 158.252 223.062H115.495C113.435 270.195 110.061 271.044 110.061 271.044C110.061 271.044 110.997 271.779 112.868 272.738C107.179 294.011 93.8968 309.549 73.0296 315.523C45.7559 323.33 50.211 347.72 82.3492 350.127C99.5067 351.412 112.096 350.566 120.109 349.498C119.925 349.703 119.732 349.922 119.535 350.148C125.465 346.821 130.292 341.98 134.012 336.031H134.012Z" fill="white"/>
<path d="M124.918 347.22C134.703 339.666 141.61 329.197 146.927 318.093C124.274 321.596 101.647 320.02 83.3476 311.086C81.378 311.903 75.5858 314.895 73.3949 315.522C46.1212 323.33 50.5762 347.72 82.7145 350.126C102.351 351.597 115.997 350.277 123.652 349.027C123.858 348.361 124.26 347.728 124.918 347.22Z" fill="white"/>
<path d="M97.261 352.103C86.7434 352.103 75.6897 350.869 66.8792 348.353C58.3323 345.911 52.7629 340.149 52.346 333.314C51.9036 326.055 57.2073 319.366 66.5344 315.422C82.0169 308.874 98.9993 300.649 104.55 285.854C105.132 284.302 106.864 283.516 108.412 284.099C109.963 284.681 110.749 286.409 110.167 287.961C103.781 304.984 85.5032 313.914 68.8723 320.947C61.9934 323.857 58.054 328.343 58.3352 332.948C58.593 337.169 62.4983 340.861 68.5276 342.583C87.6907 348.057 114.811 346.693 124.489 341.915C125.972 341.185 127.773 341.791 128.508 343.277C129.241 344.763 128.631 346.563 127.146 347.296C120.704 350.476 109.336 352.103 97.261 352.103H97.261Z" fill="black"/>
<path d="M113.471 324.13C107.587 324.13 101.936 323.338 97.3097 321.674C95.7501 321.112 94.9415 319.394 95.502 317.835C96.0636 316.276 97.7862 315.471 99.3409 316.027C106.641 318.654 116.796 318.957 126.504 316.835C135.538 314.86 142.568 310.982 144.416 306.953C145.105 305.446 146.884 304.782 148.393 305.477C149.9 306.167 150.561 307.947 149.869 309.453C145.597 318.773 128.764 324.13 113.471 324.13Z" fill="black"/>
<path d="M190.858 326.17C189.194 316.188 186.325 289.579 186.531 266.944C186.65 253.878 187.352 238.919 188.383 223.062H158.252C158.179 223.365 158.11 223.665 158.034 223.968C152.028 254.986 153.029 283.001 146.023 314.019C144.021 322.024 139.017 329.028 134.012 336.031C130.293 341.98 125.465 346.821 119.535 350.148C114.286 356.175 104.928 369.498 111.353 374.749C123.51 384.683 179.779 375.601 191.485 352.95C198.633 342.087 192.522 336.152 190.858 326.17H190.858Z" fill="white"/>
<path d="M188.749 312.516C187.229 312.516 185.926 311.364 185.769 309.819C184.867 300.951 183.378 283.586 183.53 266.918C183.546 265.261 184.928 263.97 186.558 263.945C188.215 263.961 189.545 265.315 189.53 266.973C189.381 283.353 190.849 300.468 191.737 309.212C191.905 310.86 190.704 312.333 189.057 312.5C188.953 312.511 188.851 312.516 188.749 312.516Z" fill="black"/>
<path d="M137.492 331.938C133.381 338.083 128.369 343.028 125.818 344.606C118.901 348.885 102.283 367.336 111.354 374.749C123.51 384.683 182.481 378.767 194.187 356.116C197.998 350.325 194.852 335.487 191.331 326.639C174.464 335.249 156.575 340.367 137.492 331.938L137.492 331.938Z" fill="white"/>
<path d="M137.292 382.869C136.641 382.869 135.988 382.862 135.327 382.849C120.257 382.559 110.358 378.91 106.702 372.298C104.951 369.132 103.827 363.757 108.413 356.128C111.649 350.745 118.3 346.152 123.645 342.46L124.113 342.137C129.745 338.244 142.003 325.385 143.948 310.476C144.163 308.831 145.677 307.664 147.31 307.889C148.954 308.103 150.112 309.609 149.897 311.251C147.77 327.553 135.046 341.875 127.525 347.073L127.054 347.398C122.184 350.761 116.124 354.947 113.555 359.22C111.056 363.376 110.517 366.799 111.953 369.395C114.44 373.894 123.002 376.611 135.442 376.851C169.907 377.508 188.545 359.393 191.657 354.503C194.632 349.828 192.666 338.723 190.002 331.572C180.01 340.848 161.05 346.167 149.111 342.334C147.534 341.827 146.666 340.137 147.173 338.56C147.681 336.982 149.373 336.118 150.947 336.621C161.899 340.148 181.53 333.74 188.447 324.385C189.053 323.566 190.026 323.12 191.053 323.175C192.071 323.242 192.986 323.821 193.481 324.712C195.173 327.755 197.373 333.705 198.475 340.136C199.389 345.465 199.827 352.843 196.717 357.726C192.504 364.345 172.668 382.868 137.292 382.869Z" fill="black"/>
<path d="M202.316 65.3093C216.914 101.826 193.075 150.161 192.409 188.758C191.744 227.355 205.619 244.707 216.348 264.282C234.1 296.667 197.439 304.904 189.277 293.118C183.286 284.467 166.199 290.013 161.318 301.991C157.175 312.155 129.808 318.406 120.045 296.667C116.019 287.704 100.517 277.591 84.0969 294.449C72.9127 305.931 43.9592 291.239 57.2731 267.282C68.5651 246.964 80.5908 224.309 74.5812 186.762C66.5928 136.852 74.5813 96.9248 109.863 62.9863C125.814 43.7928 193.715 43.7928 202.316 65.3093V65.3093Z" fill="#82BE28"/>
<path d="M65.2566 255.103C64.824 255.103 64.3845 255.009 63.9675 254.81C62.4714 254.097 61.8377 252.306 62.5505 250.811C69.6755 235.869 76.324 216.632 71.6189 187.237C68.447 167.418 67.907 150.227 69.9666 134.683C70.1834 133.041 71.7068 131.873 73.3338 132.103C74.9763 132.32 76.1316 133.829 75.9138 135.47C73.9324 150.43 74.4656 167.052 77.5427 186.289C82.5379 217.489 75.0486 238.54 67.9666 253.393C67.4519 254.472 66.3767 255.103 65.2566 255.103H65.2566Z" fill="black"/>
<path d="M142.438 314.406C132.302 314.406 123.374 309.144 119.137 300.672C116.348 295.097 110.394 289.036 103.377 288.063C98.5054 287.39 93.9575 289.32 89.8638 293.81C81.3149 303.182 68.0688 302.029 59.9438 296.188C50.3227 289.27 48.2446 277.352 54.6509 265.826C55.4556 264.377 57.2837 263.855 58.73 264.661C60.1782 265.466 60.6997 267.292 59.895 268.74C58.0298 272.097 52.7739 283.642 63.4468 291.315C69.4692 295.646 79.2222 296.573 85.4302 289.767C92.2895 282.247 99.4233 281.455 104.202 282.12C112.273 283.239 120.242 289.468 124.502 297.988C127.717 304.414 134.589 308.406 142.438 308.406C150.29 308.405 157.007 304.345 160.409 297.544C162.916 292.53 169.004 288.492 175.918 287.255C182.049 286.158 187.667 287.498 191.329 290.931C197.489 296.703 207.933 295.214 213.826 290.201C220.308 284.684 220.644 276.494 214.747 267.732C205.68 254.26 199.588 242.388 194.995 229.236C188.123 209.561 185.88 192.521 193.696 158.877C194.42 155.756 195.182 152.579 195.954 149.363C203.301 118.718 211.63 83.9834 196.125 61.4659C195.186 60.1016 195.53 58.2334 196.895 57.294C198.26 56.3526 200.126 56.6983 201.067 58.0635C218.088 82.7823 209.428 118.898 201.788 150.763C201.02 153.964 200.262 157.127 199.54 160.234C192.055 192.454 194.159 208.647 200.659 227.258C205.077 239.904 210.957 251.354 219.725 264.382C225.657 273.196 228.244 285.809 217.714 294.771C209.881 301.433 196.001 303.531 187.225 295.309C184.959 293.184 181.222 292.401 176.975 293.161C171.94 294.062 167.439 296.901 165.775 300.228C161.335 309.106 152.612 314.405 142.438 314.406H142.438Z" fill="black"/>
</svg>
