<svg width="300" height="400" viewBox="0 0 300 400" fill="none" xmlns="http://www.w3.org/2000/svg">
<path d="M131.895 336.386C136.882 329.372 141.868 322.358 143.863 314.342C150.844 283.281 149.847 255.226 155.83 224.165C155.906 223.861 155.975 223.56 156.048 223.258H113.445C111.393 270.457 108.031 271.307 108.031 271.307C108.031 271.307 108.964 272.043 110.829 273.003C105.16 294.306 91.926 309.867 71.1346 315.848C43.9598 323.667 48.3987 348.091 80.4204 350.501C97.5156 351.788 110.06 350.941 118.043 349.872C117.86 350.077 117.667 350.296 117.471 350.522C123.38 347.19 128.19 342.343 131.895 336.386L131.895 336.386Z" fill="white"/>
<path d="M95.279 352.474C84.7975 352.474 73.7809 351.239 65.0007 348.718C56.486 346.274 50.9352 340.508 50.5163 333.669C50.071 326.403 55.3561 319.704 64.655 315.752C80.5124 309.011 96.3425 301.531 100.506 290.774C101.103 289.229 102.837 288.46 104.386 289.059C105.931 289.657 106.699 291.395 106.101 292.94C101.093 305.878 84.0397 314.032 67.0026 321.273C60.1462 324.188 56.2223 328.684 56.5046 333.302C56.7643 337.531 60.654 341.228 66.6559 342.951C85.7448 348.429 112.758 347.066 122.398 342.284C123.878 341.547 125.68 342.152 126.419 343.638C127.155 345.122 126.549 346.922 125.064 347.659C118.644 350.844 107.315 352.474 95.279 352.474Z" fill="black"/>
<path d="M178.191 292.302C174.874 286.932 147.955 290.563 147.955 290.563C146.955 298.357 145.683 306.246 143.864 314.342C141.869 322.358 136.883 329.372 131.896 336.385C128.191 342.343 123.381 347.19 117.472 350.522C112.243 356.558 102.918 369.899 109.32 375.157C121.432 385.105 178.245 381.18 189.909 358.497C197.031 347.619 191.567 335.173 189.909 325.178C186.638 316.514 181.507 297.672 178.191 292.302H178.191Z" fill="white"/>
<path d="M135.166 383.285C134.517 383.285 133.864 383.278 133.205 383.265C118.21 382.976 108.35 379.333 104.69 372.732C102.932 369.56 101.797 364.173 106.377 356.519C109.6 351.128 116.228 346.529 121.553 342.833L122.019 342.508C127.631 338.611 139.845 325.731 141.784 310.797C141.997 309.153 143.506 307.988 145.144 308.208C146.788 308.421 147.947 309.926 147.733 311.569C145.615 327.89 132.936 342.231 125.442 347.436L124.974 347.761C120.123 351.128 114.085 355.32 111.525 359.599C109.027 363.776 108.493 367.215 109.938 369.823C112.428 374.314 120.951 377.028 133.32 377.267C133.934 377.279 134.545 377.285 135.149 377.285C168.289 377.286 186.272 359.701 189.318 354.893C192.854 349.308 190.754 335.911 183.838 319.927C183.18 318.407 183.879 316.64 185.4 315.983C186.918 315.326 188.688 316.024 189.344 317.544C194.003 328.309 200.853 347.893 194.386 358.104C190.186 364.734 170.42 383.285 135.166 383.285H135.166Z" fill="black"/>
<path d="M196.879 59.3779C196.879 59.3779 105.486 41.0696 100.622 67.9475C97.9554 82.6813 104.578 87.3061 99.3738 100.274C89.3463 125.258 66.7948 160.577 64.1418 193.23C61.7664 222.462 71.4374 241.211 84.0399 267.2L87.4453 279.861C89.2139 284.748 90.4211 293.256 90.8398 294.861C92.8783 302.683 113.932 307.695 127.387 300.64C127.84 303.171 128.217 305.689 128.48 308.189C130.164 324.204 190.828 309.198 190.828 294.522C190.828 263.868 170.267 240.544 169.604 207.224C168.94 173.904 192.74 154.24 202.767 131.255C212.795 108.271 208.958 74.8336 196.879 59.3779Z" fill="#2D8C3C"/>
<path d="M84.0417 270.202C82.9284 270.202 81.8591 269.579 81.3405 268.51L80.1022 265.959C68.1931 241.439 58.7878 222.07 61.1511 192.988C62.9206 171.201 73.154 148.593 83.4831 127.304C84.2058 125.814 86.0026 125.192 87.4919 125.914C88.9821 126.638 89.6042 128.433 88.8815 129.923C78.8005 150.7 68.8171 172.722 67.1315 193.475C64.9001 220.924 73.5407 238.714 85.4987 263.338L86.739 265.893C87.4616 267.383 86.8396 269.178 85.3483 269.9C84.9274 270.106 84.4811 270.202 84.0417 270.202L84.0417 270.202Z" fill="black"/>
<path d="M109.711 305.208C103.672 305.208 97.7242 304.244 93.5611 302.037C90.5191 300.424 88.6275 298.265 87.9371 295.619C87.8003 295.091 87.649 294.265 87.3697 292.729C86.7916 289.535 85.8228 284.19 84.6255 280.883C84.0611 279.326 84.8667 277.605 86.4244 277.042C87.981 276.472 89.7037 277.283 90.2662 278.84C91.6363 282.623 92.6617 288.279 93.274 291.659C93.4712 292.747 93.6578 293.774 93.7437 294.106C94.0523 295.292 95.3433 296.19 96.3716 296.736C102.372 299.917 115.619 300.055 124.162 297.026C125.726 296.469 127.439 297.289 127.992 298.85C128.545 300.412 127.729 302.127 126.168 302.68C121.667 304.277 115.644 305.208 109.711 305.208H109.711Z" fill="black"/>
<path d="M143.14 318.078C142.067 318.078 141.027 318.045 140.02 317.977C128.168 317.184 125.833 311.702 125.497 308.505C124.949 303.295 122.61 291.761 119.789 282.21C118.251 277.007 116.508 271.615 114.821 266.401C108.648 247.315 102.266 227.581 102.266 207.224C102.266 172.551 115.808 147.085 130.146 120.123L131.878 116.861C132.654 115.398 134.466 114.841 135.935 115.617C137.398 116.394 137.955 118.21 137.179 119.674L135.442 122.939C121.467 149.222 108.266 174.047 108.266 207.224C108.266 226.634 114.5 245.912 120.53 264.554C122.228 269.804 123.983 275.233 125.543 280.509C128.461 290.386 130.889 302.405 131.464 307.877C131.8 311.071 137.839 311.818 140.42 311.991C154.589 312.939 177.233 306.203 185.313 298.645C186.936 297.128 187.829 295.664 187.829 294.522C187.829 280.596 183.289 268.294 178.481 255.268C177.804 253.43 177.123 251.587 176.454 249.732C166.796 222.988 162.682 203.598 170.235 183.634C174.612 172.063 180.994 162.117 187.165 152.498C192.086 144.828 196.734 137.584 200.018 130.056C209.92 107.36 205.279 74.9978 194.517 61.2263C193.496 59.9206 193.727 58.0349 195.032 57.0153C196.339 55.9958 198.225 56.2253 199.243 57.531C212.563 74.5739 215.495 109.585 205.518 132.455C202.042 140.421 197.269 147.861 192.216 155.738C186.211 165.096 180.002 174.774 175.847 185.758C168.95 203.986 172.916 222.271 182.097 247.695C182.762 249.536 183.437 251.366 184.11 253.191C188.889 266.137 193.829 279.524 193.829 294.522C193.829 297.424 192.343 300.286 189.412 303.027C180.809 311.074 158.822 318.077 143.14 318.078L143.14 318.078Z" fill="black"/>
</svg>
