<svg width="300" height="400" viewBox="0 0 300 400" fill="none" xmlns="http://www.w3.org/2000/svg">
<path d="M100.321 153.253V285.726C100.321 285.726 97.319 300.726 87.3121 309.726C77.3052 318.726 111.329 326.253 117.333 323.253C129.341 317.253 138.347 311.253 138.347 311.253C138.347 311.253 141.349 154.253 141.349 153.253C141.349 152.253 100.321 153.253 100.321 153.253H100.321Z" fill="white"/>
<path d="M140.101 293.289C138.489 293.289 137.157 292.009 137.105 290.385C136.499 271.457 136.942 244.101 137.371 217.646C137.688 198.09 137.987 179.619 137.862 165.271C137.847 163.613 139.179 162.259 140.836 162.244H140.863C142.508 162.244 143.847 163.57 143.862 165.218C143.988 179.642 143.688 198.148 143.37 217.743C142.942 244.127 142.5 271.41 143.101 290.193C143.155 291.849 141.855 293.234 140.199 293.287C140.167 293.289 140.134 293.289 140.101 293.289H140.101Z" fill="black"/>
<path d="M108.327 314.728C91.3149 312.728 87.9498 307.709 87.9498 307.709C87.9498 307.709 77.3671 315.264 67.2983 321.255C57.2296 327.245 47.4245 332.092 48.2852 350.255C50.2679 358.354 62.8552 358.327 73.3025 360.255C86.2125 362.637 102.361 357.288 112.329 354.728C126.1 351.191 141.829 342.95 143.033 334.846C143.006 324.102 142.319 304.645 142.319 304.645C142.319 304.645 130.342 314.728 108.327 314.728Z" fill="#2D8C3C"/>
<path d="M79.8975 364.042C77.5186 364.042 75.2149 363.933 73.0039 363.712C57.044 362.116 48.3321 357.448 46.3721 349.439C41.8428 331.335 52.5996 324.729 66.0411 318.529C75.1651 314.321 81.458 310.565 85.2793 307.047C90.6651 302.09 92.6309 296.515 92.6504 296.459C92.668 296.407 92.6875 296.355 92.708 296.305C99.6368 279.309 99.6094 227.602 92.6416 170.564C85.6504 113.338 81.3868 73.58 81.3438 73.1855C81.168 71.5381 82.3604 70.0595 84.0078 69.8828C85.6553 69.7285 87.1348 70.8994 87.3106 72.5468C87.3526 72.9414 91.6114 112.658 98.5967 169.836C105.669 227.719 105.54 280.6 98.2901 298.507C97.9737 299.381 95.5049 305.789 89.3438 311.461C85.0547 315.409 78.2549 319.504 68.5547 323.978C54.9229 330.266 48.8653 334.685 52.1963 347.998C53.4463 353.103 60.8457 356.467 73.6006 357.741C86.2451 359.007 102.328 356.28 117.721 350.264C132.282 344.573 139.398 338.607 140.031 336.626C139.995 325.967 139.443 306.358 139.438 306.16C139.391 304.504 140.695 303.123 142.352 303.076C143.999 303.033 145.389 304.334 145.436 305.99C145.441 306.191 146.006 326.269 146.032 336.929C146.032 337.079 146.022 337.229 146 337.378C144.763 345.7 124.183 354.174 120.069 355.788C106.419 361.145 92.166 364.042 79.8975 364.042H79.8975Z" fill="black"/>
<path d="M125.779 282.215C119.963 282.215 115.884 281.234 115.613 281.166C114.004 280.769 113.023 279.143 113.42 277.534C113.818 275.929 115.438 274.947 117.047 275.34C117.141 275.364 126.489 277.579 136.558 274.832C138.158 274.393 139.805 275.339 140.242 276.938C140.677 278.536 139.735 280.186 138.136 280.621C133.68 281.836 129.394 282.215 125.779 282.215H125.779Z" fill="black"/>
<path d="M156.359 162.254C156.359 162.254 158.36 209.254 159.361 228.254C160.362 247.254 163.364 309.254 163.364 309.254C163.364 309.254 169.368 337.727 189.382 333.727C191.853 333.233 214.147 329.61 208.395 321.727C198.404 308.035 202.715 260.651 204.392 244.727C206.394 225.727 206.394 161.254 206.394 161.254C206.394 161.254 154.358 148.254 156.359 162.254H156.359Z" fill="white"/>
<path d="M184.378 325.727C202.391 331.727 208.395 321.727 208.395 321.727C209.035 327.654 213.358 333.495 220.99 343.153C228.642 352.838 233.546 371.235 228.409 375.727C220.694 382.472 199.468 386.075 188.381 379.727C175.917 372.59 162.73 348.84 157.36 340.254C152.916 333.149 160.362 302.254 160.362 302.254C160.362 302.254 172.519 321.776 184.378 325.727H184.378Z" fill="#2D8C3C"/>
<path d="M188.428 290.684C184.956 290.684 181.515 290.156 177.089 289.085C175.478 288.695 174.488 287.074 174.878 285.464C175.266 283.852 176.89 282.857 178.499 283.253C186.102 285.092 190.006 285.146 197.494 283.513C199.111 283.154 200.712 284.184 201.064 285.804C201.418 287.423 200.392 289.021 198.773 289.374C194.787 290.244 191.595 290.684 188.428 290.684H188.428Z" fill="black"/>
<path d="M207.457 385.9C200.285 385.9 192.858 383.963 186.098 380.093C173.234 372.727 161.777 353.335 157.577 342.842C153.787 333.375 156.48 317.028 157.925 308.246C158.12 307.064 158.284 306.065 158.394 305.303C159.325 298.784 160.274 287.671 160.367 286.567C161.344 244.192 156.419 175.163 156.369 174.471C156.25 172.818 157.493 171.382 159.146 171.263C160.801 171.152 162.236 172.387 162.354 174.039C162.403 174.736 167.357 244.148 166.363 286.797C166.362 286.858 166.359 286.917 166.354 286.977C166.313 287.471 165.334 299.146 164.333 306.152C164.22 306.946 164.049 307.987 163.846 309.221C162.591 316.842 159.98 332.699 163.148 340.612C167.336 351.077 178.15 368.628 189.078 374.886C197.798 379.879 212.11 382.963 223.746 375.23C226.524 373.383 228.408 369.969 228.915 365.861C229.493 361.186 228.737 351.446 217.185 338.746C206.885 327.425 201.225 309.965 200.433 305.222C195.304 274.466 198.628 176.556 214.607 135.637C215.209 134.093 216.948 133.33 218.492 133.933C220.036 134.536 220.799 136.276 220.196 137.819C204.539 177.911 201.312 274.016 206.351 304.235C206.968 307.931 212.136 324.28 221.622 334.709C231.381 345.436 236.086 356.761 234.87 366.598C234.148 372.443 231.304 377.409 227.069 380.226C221.378 384.009 214.542 385.9 207.457 385.9V385.9Z" fill="black"/>
<path d="M71.2997 141.254C71.233 147.675 69.2983 158.831 72.3004 163.254C80.3044 178.08 133.342 183.254 141.348 172.254C158.36 189.254 216.017 186.086 223.714 177.67C231.41 169.254 224.714 49.6699 224.714 49.6699C224.714 49.6699 221.712 29.6699 191.692 18.6699C161.671 7.66992 124.645 10.6699 112.637 15.6699C100.629 20.6699 85.3262 21.8662 81.3235 37.8662C77.3207 53.8662 78.7178 63.8309 77.3038 81.2538C75.7672 100.187 71.5107 120.941 71.2997 141.254H71.2997Z" fill="#82BE28"/>
<path d="M225.463 142.68C223.818 142.68 222.477 141.353 222.464 139.703L222.441 136.869C222.389 130.716 222.33 123.742 222.408 116.223C222.458 111.362 222.259 106.77 222.048 101.906C221.78 95.7041 221.501 89.29 221.683 81.4395C221.693 81.0117 221.84 78.1504 222.099 73.1309C222.356 68.1367 222.709 61.2969 222.717 60.6563C222.74 59.0147 224.078 57.6836 225.717 57.6836H225.737C227.386 57.6943 228.717 59.0205 228.717 60.6699C228.717 61.2012 228.533 64.8691 228.09 73.4395C227.894 77.2471 227.692 81.1855 227.681 81.5801C227.504 89.2295 227.778 95.542 228.043 101.646C228.257 106.592 228.459 111.263 228.408 116.285C228.33 123.748 228.389 130.691 228.441 136.818L228.464 139.656C228.477 141.312 227.145 142.666 225.488 142.68H225.463H225.463Z" fill="black"/>
<path d="M185.841 185.954C170.524 185.954 154.3 183.971 143.815 178.857C143.739 178.82 143.664 178.779 143.59 178.735C137.954 175.364 138.056 164.582 138.754 144.221C139.152 132.636 139.602 119.505 138.366 107.562C138.196 105.915 139.393 104.44 141.041 104.269C142.681 104.104 144.164 105.296 144.334 106.945C145.613 119.297 145.155 132.648 144.75 144.427C144.357 155.905 143.819 171.587 146.593 173.536C167.972 183.839 214.869 179.904 221.607 174.853C223.911 173.126 224.315 165.357 224.409 157.219C224.428 155.574 225.767 154.254 227.408 154.254H227.443C229.1 154.273 230.427 155.631 230.409 157.288C230.263 169.909 229.447 176.474 225.206 179.654C220.418 183.242 203.75 185.954 185.841 185.954Z" fill="black"/>
<path d="M119.628 181.474C112.003 181.474 104.913 180.273 100.039 179.182C86.1692 176.072 74.0705 170.412 69.9338 165.097C65.219 159.039 66.7825 143.661 69.9514 117.004C70.76 110.195 71.5969 103.155 72.3176 95.9551C72.5334 93.8027 72.8411 90.8643 73.1926 87.5166C74.4319 75.6865 76.3059 57.8076 76.3059 53.2539C76.3059 51.5967 77.6487 50.2539 79.3059 50.2539C80.9631 50.2539 82.3059 51.5967 82.3059 53.2539C82.3059 58.1211 80.4875 75.4727 79.1594 88.1416C78.8098 91.4785 78.5032 94.4072 78.2883 96.5527C77.5618 103.809 76.7219 110.877 75.9094 117.712C73.6125 137.029 71.2385 157.004 74.6682 161.411C80.9455 169.477 118.581 181.774 139.007 171.57C140.488 170.831 142.291 171.431 143.031 172.913C143.772 174.396 143.171 176.197 141.689 176.938C134.851 180.354 126.99 181.474 119.628 181.474Z" fill="black"/>
<path d="M112.131 318.196C107.94 318.196 103.758 317.677 99.5934 316.636C97.986 316.235 97.0084 314.606 97.4108 312.999C97.8102 311.391 99.4362 310.405 101.048 310.816C114.097 314.077 127.458 311.507 140.757 303.183C142.164 302.305 144.013 302.731 144.892 304.134C145.771 305.539 145.345 307.39 143.941 308.269C133.382 314.878 122.728 318.196 112.131 318.196Z" fill="black"/>
<path d="M194.473 331.12C191.636 331.12 188.789 330.594 186.199 329.485C180.106 326.875 172.853 321.343 172.547 321.109C171.231 320.101 170.982 318.218 171.989 316.904C172.997 315.587 174.879 315.337 176.195 316.345C176.264 316.398 183.165 321.659 188.561 323.969C194.114 326.348 201.818 324.89 205.052 320.852C206.088 319.559 207.974 319.349 209.269 320.385C210.562 321.42 210.771 323.308 209.735 324.602C206.397 328.772 200.461 331.12 194.473 331.12H194.473Z" fill="black"/>
</svg>
