<svg width="300" height="400" viewBox="0 0 300 400" fill="none" xmlns="http://www.w3.org/2000/svg">
<path d="M188.051 268.481C188.716 195.322 207.61 62.9706 200.954 44.3483C195.768 29.8359 168.202 31.4871 152.225 37.5383C132.891 28.0062 98.4611 13.8275 98.4611 44.3483C98.4611 85.0226 119.435 155.607 117.458 213.609C115.481 271.612 115.368 272.846 115.368 272.846L114.405 274.271C108.718 295.532 95.4385 311.062 74.5762 317.032C47.3089 324.835 51.7629 349.211 83.8937 351.616C101.047 352.9 113.634 352.055 121.645 350.988C116.55 356.647 112.998 364.839 119.663 370.283C131.817 380.212 181.3 377.076 193.003 354.438C200.15 343.581 194.041 337.649 192.377 327.673C190.713 317.697 187.845 291.103 188.051 268.481V268.481Z" fill="white"/>
<path d="M126.453 348.71C136.235 341.161 147.785 330.332 148.451 312.375C117.836 327.007 101.198 324.346 84.8919 312.597C82.9228 313.414 77.1319 316.404 74.9415 317.031C47.6741 324.833 52.1281 349.21 84.2589 351.615C103.891 353.084 117.534 351.765 125.187 350.516C125.393 349.85 125.795 349.218 126.453 348.71H126.453Z" fill="#2D8C3C"/>
<path d="M115.366 325.753C109.473 325.753 103.725 324.933 98.8506 323.18C97.292 322.619 96.4824 320.901 97.043 319.341C97.6045 317.782 99.3203 316.977 100.882 317.534C115.007 322.617 136.287 318.345 143.803 311.287C145.008 310.151 146.908 310.211 148.043 311.419C149.178 312.626 149.118 314.525 147.91 315.66C141.134 322.027 127.924 325.753 115.366 325.753Z" fill="black"/>
<path d="M99.1381 354.638C88.6615 354.638 77.5248 353.305 68.1879 349.767C59.4516 346.454 54.1596 340.432 54.0316 333.655C53.9037 326.855 59.0258 320.759 68.0834 316.929L69.6674 316.261C84.726 309.909 103.467 302.006 109.733 286.636C116.662 269.641 116.634 217.935 109.666 160.896C107.463 142.866 105.159 128.669 103.125 116.144C98.5863 88.1856 95.0004 66.1025 95.4603 21.04C95.4769 19.3936 96.8178 18.0703 98.4594 18.0703H98.4906C100.148 18.0869 101.477 19.4443 101.46 21.1006C101.005 65.6494 104.554 87.5078 109.047 115.182C111.09 127.763 113.405 142.021 115.621 160.167C122.702 218.118 122.565 271.056 115.289 288.901C108.086 306.569 88.0765 315.008 71.9984 321.789L70.4193 322.456C63.7377 325.28 59.9515 329.321 60.0306 333.543C60.1088 337.714 64.0502 341.781 70.3148 344.155C88.0746 350.887 113.827 348.885 125.642 345.413C127.232 344.946 128.899 345.855 129.366 347.445C129.833 349.035 128.923 350.702 127.333 351.169C120.654 353.133 110.268 354.638 99.1381 354.638H99.1381Z" fill="black"/>
<path d="M138.468 336.984C134.358 343.126 129.901 344.521 127.351 346.098C120.436 350.374 102.233 365.287 110.515 373.563C129.15 392.185 184.001 380.239 195.704 357.601C199.514 351.814 196.37 336.984 192.849 328.141C175.738 342.304 157.546 345.408 138.468 336.984L138.468 336.984Z" fill="#2D8C3C"/>
<path d="M99.7924 39.693C107.779 52.9946 117.554 69.2867 143.51 71.9471C165.884 68.1122 182.818 53.3603 201.348 46.7373C201.348 46.7373 203.377 41.5888 193.362 22.7943C180.016 -2.25132 99.7924 -1.54213 99.0312 17.0802L99.7924 39.693Z" fill="white"/>
<path d="M190.709 315.377C189.204 315.377 187.906 314.248 187.732 312.717C180.989 253.564 191.83 154.182 195.313 125.131L196.086 118.73C200.619 81.2754 203.895 54.2139 192.932 31.6954C192.207 30.2051 192.827 28.4102 194.316 27.6846C195.805 26.9581 197.601 27.5801 198.327 29.0684C210.064 53.1788 206.699 80.9766 202.042 119.451L201.27 125.846C197.806 154.732 187.024 253.531 193.693 312.037C193.881 313.684 192.699 315.17 191.052 315.357C190.937 315.371 190.822 315.377 190.709 315.377Z" fill="black"/>
<path d="M170.491 304.979C168.406 304.979 166.343 304.858 164.391 304.619C162.746 304.418 161.576 302.921 161.779 301.276C161.981 299.632 163.486 298.455 165.121 298.664C175.042 299.879 184.296 297.428 186.062 295.271C187.111 293.989 189 293.802 190.283 294.85C191.566 295.9 191.754 297.79 190.704 299.072C187.439 303.061 178.795 304.979 170.491 304.979V304.979Z" fill="black"/>
<path d="M130.223 293.895C128.136 293.895 126.073 293.774 124.119 293.534C122.475 293.332 121.305 291.836 121.507 290.191C121.708 288.546 123.211 287.364 124.85 287.579C134.77 288.797 144.025 286.344 145.79 284.187C146.841 282.905 148.73 282.718 150.012 283.766C151.294 284.816 151.483 286.707 150.433 287.988C147.166 291.977 138.525 293.895 130.223 293.895Z" fill="black"/>
<path d="M138.823 384.342C138.172 384.342 137.519 384.335 136.857 384.322C121.789 384.033 111.893 380.386 108.237 373.775C106.488 370.61 105.364 365.238 109.949 357.614C113.432 351.825 120.487 346.762 125.793 343.535C145.342 331.643 146.334 306.314 147.483 276.985L147.588 274.322C150.732 195.233 138.199 73.8103 138.072 72.5935C137.9 70.9451 139.097 69.4705 140.744 69.2986C142.4 69.1101 143.868 70.3221 144.039 71.9705C144.167 73.1922 156.745 195.037 153.584 274.56L153.479 277.22C152.313 306.983 151.212 335.096 128.911 348.662C122.225 352.728 117.317 357.006 115.092 360.706C112.595 364.858 112.055 368.279 113.488 370.872C115.975 375.369 124.534 378.085 136.973 378.324C137.589 378.336 138.201 378.342 138.807 378.342C172.069 378.342 190.119 360.789 193.175 355.991C196.149 351.319 194.183 340.221 191.52 333.075C181.529 342.345 162.571 347.663 150.639 343.831C149.062 343.324 148.193 341.635 148.7 340.056C149.208 338.478 150.898 337.615 152.475 338.118C163.429 341.637 183.05 335.237 189.965 325.889C190.572 325.07 191.542 324.627 192.571 324.679C193.589 324.746 194.504 325.325 194.999 326.216C198.216 332.003 203.901 350.314 198.235 359.214C194.022 365.83 174.19 384.341 138.823 384.342H138.823Z" fill="black"/>
<path d="M81.6312 132C81.5645 138.421 84.6333 152.577 87.6354 157C98.6429 169 139.671 166 139.671 166C170.693 177 195.858 172.653 221.728 167L224.73 39C224.73 39 221.728 19 191.707 8C161.686 -3 124.661 0 112.653 5C100.644 10 88.636 13 84.6333 29C80.6305 45 83.1108 60.8088 81.6968 78.2317C80.1603 97.1652 81.8422 111.687 81.6312 132H81.6312Z" fill="#82BE28"/>
<path d="M179.6 176.049C164.606 176.049 148.963 174.132 138.826 169.188C138.75 169.15 138.674 169.109 138.601 169.065C132.761 165.572 133.222 156.656 133.92 143.159C134.38 134.242 134.955 123.144 133.687 111.319C133.51 109.673 134.703 108.193 136.35 108.018C137.98 107.843 139.476 109.032 139.653 110.681C140.971 122.978 140.383 134.34 139.912 143.47C139.418 153.04 138.95 162.085 141.596 163.862C162.292 173.833 210.226 169.62 216.927 164.6C219.661 162.55 219.347 149.717 219.016 136.13C218.836 128.738 218.631 120.36 218.728 110.969C218.786 105.385 219.429 98.9209 220.111 92.0772C220.811 85.041 221.536 77.7666 221.698 70.7695C221.708 70.3389 221.856 67.4326 222.119 62.334C222.374 57.3906 222.722 50.6221 222.731 49.9863C222.754 48.3447 224.091 47.0137 225.731 47.0137H225.751C227.4 47.0244 228.731 48.3506 228.731 50C228.731 50.5273 228.548 54.1592 228.111 62.6426C227.912 66.5078 227.707 70.5039 227.696 70.9072C227.529 78.1338 226.793 85.5244 226.082 92.6709C225.414 99.3789 224.783 105.714 224.728 111.031C224.632 120.318 224.836 128.641 225.014 135.983C225.479 155.014 225.735 165.496 220.525 169.4C215.533 173.143 198.058 176.049 179.6 176.049H179.6Z" fill="black"/>
<path d="M118.594 169.504C103.244 169.505 88.4607 163.58 82.6053 158.211C77.7488 153.758 77.7098 138.867 78.0496 114.94C78.2068 103.861 78.369 92.4053 77.6326 83.8213C77.2059 78.8379 77.4119 62.1572 77.5486 51.1191C77.5936 47.4658 77.6307 44.5205 77.6307 43C77.6307 41.3428 78.9734 40 80.6307 40C82.2879 40 83.6307 41.3428 83.6307 43C83.6307 44.5342 83.5936 47.5068 83.5486 51.1934C83.4217 61.4502 83.2088 78.6182 83.6111 83.3086C84.3729 92.1904 84.2078 103.8 84.0486 115.025C83.8338 130.177 83.5399 150.928 86.66 153.789C96.0535 162.4 117.452 164.757 128.052 162.59C129.682 162.262 131.261 163.306 131.592 164.93C131.923 166.553 130.876 168.138 129.252 168.469C125.74 169.186 122.15 169.504 118.594 169.504H118.594Z" fill="black"/>
</svg>
