<svg width="300" height="401" viewBox="0 0 300 401" fill="none" xmlns="http://www.w3.org/2000/svg">
<path d="M188.041 267.981C188.707 194.822 207.6 62.4706 200.945 43.8483C195.758 29.3359 168.192 30.9871 152.216 37.0383C132.881 27.5062 98.4513 13.3275 98.4513 43.8483C98.4513 84.5226 119.425 155.107 117.448 213.109C115.471 271.112 115.358 272.346 115.358 272.346L114.396 273.771C108.708 295.032 95.4287 310.562 74.5665 316.532C47.2991 324.335 51.7531 348.711 83.8839 351.116C101.037 352.4 113.624 351.555 121.635 350.488C116.54 356.147 112.989 364.339 119.653 369.783C131.807 379.712 181.29 376.576 192.994 353.938C200.141 343.081 194.031 337.149 192.367 327.173C190.703 317.197 187.835 290.603 188.041 267.981L188.041 267.981Z" fill="white"/>
<path d="M126.443 348.21C136.225 340.661 147.776 329.832 148.441 311.875C117.826 326.507 101.188 323.846 84.8822 312.097C82.913 312.914 77.1222 315.904 74.9317 316.531C47.6644 324.333 52.1184 348.71 84.2492 351.115C103.881 352.584 117.524 351.265 125.177 350.016C125.383 349.35 125.785 348.718 126.443 348.21H126.443Z" fill="#2D8C3C"/>
<path d="M115.356 325.253C109.463 325.253 103.715 324.433 98.8408 322.68C97.2822 322.119 96.4726 320.401 97.0332 318.841C97.5947 317.282 99.3125 316.477 100.872 317.034C114.998 322.117 136.277 317.845 143.793 310.787C144.998 309.651 146.897 309.711 148.033 310.919C149.168 312.126 149.108 314.025 147.9 315.16C141.124 321.527 127.914 325.253 115.356 325.253Z" fill="black"/>
<path d="M99.1283 354.138C88.6518 354.138 77.515 352.805 68.1781 349.267C59.4418 345.954 54.1498 339.932 54.0219 333.155C53.8939 326.355 59.016 320.259 68.0736 316.429L69.6576 315.761C84.7162 309.409 103.457 301.506 109.723 286.136C116.653 269.141 116.624 217.435 109.657 160.396C107.454 142.366 105.149 128.169 103.116 115.644C98.5766 87.6856 94.9906 65.6025 95.4506 20.54C95.4672 18.8936 96.808 17.5703 98.4496 17.5703H98.4808C100.138 17.5869 101.467 18.9443 101.451 20.6006C100.995 65.1494 104.544 87.0078 109.037 114.682C111.08 127.263 113.395 141.521 115.612 159.667C122.692 217.618 122.555 270.556 115.28 288.401C108.077 306.069 88.0668 314.508 71.9887 321.289L70.4096 321.956C63.7279 324.78 59.9418 328.821 60.0209 333.043C60.099 337.214 64.0404 341.281 70.3051 343.655C88.0639 350.387 113.817 348.385 125.632 344.913C127.223 344.446 128.889 345.355 129.356 346.945C129.824 348.535 128.913 350.202 127.324 350.669C120.644 352.633 110.258 354.138 99.1283 354.138H99.1283Z" fill="black"/>
<path d="M138.458 336.484C134.349 342.626 129.892 344.021 127.342 345.598C120.426 349.874 102.223 364.787 110.505 373.063C129.14 391.685 183.991 379.739 195.694 357.101C199.504 351.314 196.36 336.484 192.839 327.641C175.728 341.804 157.537 344.908 138.458 336.484L138.458 336.484Z" fill="#2D8C3C"/>
<path d="M99.7827 39.193C107.769 52.4946 117.544 68.7867 143.5 71.4471C165.875 67.6122 182.808 52.8603 201.339 46.2373C201.339 46.2373 203.367 41.0888 193.352 22.2943C180.006 -2.75132 99.7827 -2.04213 99.0215 16.5802L99.7827 39.193H99.7827Z" fill="white"/>
<path d="M190.699 314.877C189.194 314.877 187.896 313.748 187.722 312.217C180.979 253.064 191.82 153.682 195.303 124.631L196.077 118.224C200.61 80.7725 203.885 53.7129 192.923 31.1954C192.197 29.7051 192.817 27.9102 194.306 27.1846C195.798 26.4581 197.592 27.0801 198.317 28.5684C210.054 52.6768 206.69 80.4737 202.033 118.944L201.26 125.346C197.797 154.232 187.014 253.031 193.683 311.537C193.871 313.184 192.689 314.67 191.043 314.857C190.927 314.871 190.812 314.877 190.699 314.877Z" fill="black"/>
<path d="M138.814 383.842C138.162 383.842 137.509 383.835 136.848 383.822C121.779 383.533 111.883 379.886 108.228 373.275C106.479 370.11 105.355 364.738 109.94 357.114C113.422 351.325 120.478 346.262 125.783 343.035C145.332 331.143 146.324 305.814 147.474 276.485L147.578 273.822C150.723 194.733 138.19 73.3103 138.063 72.0935C137.891 70.4451 139.087 68.9705 140.734 68.7986C142.388 68.6101 143.858 69.8221 144.029 71.4705C144.157 72.6922 156.735 194.537 153.574 274.06L153.469 276.72C152.303 306.483 151.202 334.596 128.901 348.162C122.215 352.228 117.308 356.506 115.082 360.206C112.585 364.358 112.045 367.779 113.479 370.372C115.965 374.869 124.524 377.585 136.963 377.824C171.411 378.499 190.054 360.376 193.165 355.491C196.14 350.818 194.174 339.72 191.51 332.575C181.521 341.845 162.562 347.163 150.629 343.331C149.052 342.824 148.184 341.135 148.69 339.556C149.198 337.978 150.888 337.115 152.465 337.618C163.417 341.137 183.041 334.737 189.955 325.389C190.563 324.57 191.536 324.127 192.562 324.179C193.579 324.246 194.493 324.824 194.989 325.716C198.206 331.502 203.893 349.812 198.226 358.714C194.012 365.33 174.181 383.841 138.814 383.842H138.814Z" fill="black"/>
<path d="M81.6215 131.5C81.5548 137.921 84.6235 152.077 87.6256 156.5C98.6332 168.5 139.661 165.5 139.661 165.5C170.683 176.5 195.849 172.153 221.718 166.5L224.72 38.5C224.72 38.5 221.718 18.5 191.697 7.5C161.677 -3.5 124.651 -0.5 112.643 4.5C100.635 9.5 88.6263 12.5 84.6235 28.5C80.6208 44.5 83.1011 60.3088 81.6871 77.7317C80.1505 96.6652 81.8325 111.187 81.6215 131.5H81.6215Z" fill="white"/>
<path d="M179.591 175.549C164.596 175.549 148.954 173.632 138.816 168.688C138.74 168.65 138.665 168.609 138.591 168.565C132.752 165.072 133.213 156.156 133.91 142.659C134.371 133.742 134.945 122.644 133.677 110.819C133.501 109.173 134.693 107.693 136.34 107.518C137.971 107.343 139.466 108.532 139.643 110.181C140.962 122.478 140.374 133.84 139.902 142.97C139.408 152.54 138.94 161.585 141.587 163.362C162.281 173.333 210.216 169.12 216.918 164.1C219.651 162.05 219.338 149.217 219.006 135.63C218.826 128.238 218.622 119.86 218.718 110.469C218.776 104.885 219.42 98.4209 220.101 91.5772C220.801 84.541 221.526 77.2666 221.688 70.2695C221.698 69.8389 221.846 66.9326 222.109 61.834C222.364 56.8906 222.713 50.1221 222.721 49.4863C222.744 47.8447 224.082 46.5137 225.721 46.5137H225.741C227.39 46.5244 228.721 47.8506 228.721 49.5C228.721 50.0273 228.539 53.6592 228.101 62.1426C227.902 66.0078 227.697 70.0039 227.686 70.4072C227.519 77.6338 226.783 85.0244 226.072 92.1709C225.404 98.8789 224.773 105.214 224.718 110.531C224.623 119.818 224.826 128.141 225.004 135.483C225.469 154.514 225.725 164.996 220.515 168.9C215.523 172.643 198.049 175.549 179.591 175.549H179.591Z" fill="black"/>
<path d="M118.584 169.004C103.234 169.005 88.451 163.08 82.5955 157.711C77.7391 153.258 77.7 138.367 78.0399 114.44C78.1971 103.361 78.3592 91.9053 77.6229 83.3213C77.1961 78.3379 77.4022 61.6572 77.5389 50.6191C77.5838 46.9658 77.6209 44.0205 77.6209 42.5C77.6209 40.8428 78.9637 39.5 80.6209 39.5C82.2781 39.5 83.6209 40.8428 83.6209 42.5C83.6209 44.0342 83.5838 47.0068 83.5389 50.6934C83.4119 60.9502 83.199 78.1182 83.6014 82.8086C84.3631 91.6904 84.1981 103.3 84.0389 114.525C83.824 129.677 83.5301 150.428 86.6502 153.289C96.0438 161.9 117.441 164.257 128.042 162.09C129.68 161.762 131.251 162.806 131.582 164.43C131.913 166.053 130.866 167.638 129.242 167.969C125.73 168.686 122.14 169.004 118.584 169.004H118.584Z" fill="black"/>
</svg>
