<svg width="300" height="414" viewBox="0 0 300 414" fill="none" xmlns="http://www.w3.org/2000/svg">
<path d="M188.051 280.932C188.716 207.773 207.61 75.4217 200.954 56.7994C195.768 42.2871 168.202 43.9383 152.225 49.9894C132.891 40.4573 98.4611 26.2787 98.4611 56.7994C98.4611 97.4737 119.435 168.058 117.458 226.06C115.481 284.063 115.368 285.297 115.368 285.297L114.405 286.722C108.718 307.983 95.4385 323.513 74.5762 329.483C47.3089 337.286 51.7629 361.662 83.8937 364.067C101.047 365.351 113.634 364.506 121.645 363.439C116.55 369.099 112.998 377.29 119.663 382.735C131.817 392.663 181.3 389.527 193.003 366.889C200.15 356.033 194.041 350.101 192.377 340.124C190.713 330.148 187.845 303.554 188.051 280.932Z" fill="white"/>
<path d="M126.453 361.163C136.235 353.614 147.785 342.785 148.451 324.828C117.836 339.46 101.198 336.8 84.8919 325.05C82.9228 325.867 77.1319 328.857 74.9415 329.484C47.6741 337.287 52.1281 361.663 84.2589 364.068C103.891 365.538 117.534 364.218 125.187 362.969C125.393 362.304 125.795 361.672 126.453 361.163H126.453Z" fill="white"/>
<path d="M115.366 338.205C109.474 338.205 103.725 337.384 98.8506 335.631C97.292 335.07 96.4824 333.352 97.043 331.793C97.6045 330.233 99.3203 329.428 100.882 329.985C115.006 335.068 136.289 330.796 143.804 323.738C145.009 322.602 146.908 322.663 148.044 323.871C149.179 325.078 149.119 326.976 147.911 328.111C141.135 334.478 127.924 338.205 115.366 338.205L115.366 338.205Z" fill="black"/>
<path d="M99.1381 367.089C88.6615 367.089 77.5238 365.756 68.1879 362.218C59.4506 358.905 54.1586 352.883 54.0316 346.106C53.9037 339.306 59.0248 333.21 68.0834 329.38L69.6703 328.711C84.7279 322.359 103.468 314.456 109.733 299.087C116.662 282.092 116.634 230.386 109.666 173.347C107.463 155.317 105.159 141.12 103.125 128.595C98.5863 100.637 95.0004 78.5537 95.4603 33.4912C95.4769 31.8447 96.8178 30.5215 98.4594 30.5215H98.4906C100.148 30.5381 101.477 31.8955 101.46 33.5518C101.005 78.1006 104.554 99.959 109.047 127.633C111.09 140.214 113.405 154.473 115.621 172.618C122.702 230.569 122.565 283.507 115.289 301.353C108.087 319.02 88.0785 327.458 72.0013 334.239L70.4193 334.907C63.7377 337.731 59.9506 341.772 60.0306 345.994C60.1088 350.165 64.0492 354.231 70.3148 356.606C88.0746 363.338 113.827 361.336 125.642 357.864C127.234 357.397 128.899 358.307 129.366 359.896C129.833 361.486 128.923 363.153 127.333 363.62C120.654 365.584 110.268 367.089 99.1381 367.089L99.1381 367.089Z" fill="black"/>
<path d="M138.468 349.435C134.358 355.577 129.901 356.972 127.351 358.549C120.436 362.825 102.233 377.738 110.515 386.014C129.15 404.637 184.001 392.691 195.704 370.052C199.514 364.265 196.37 349.435 192.849 340.592C175.738 354.755 157.546 357.859 138.468 349.435H138.468Z" fill="white"/>
<path d="M99.7924 52.1441C107.779 65.4458 117.554 81.7379 143.51 84.3982C165.884 80.5634 182.818 65.8115 201.348 59.1884C201.348 59.1884 203.377 54.0399 193.362 35.2455C180.016 10.1999 99.7924 10.909 99.0312 29.5314L99.7924 52.1441V52.1441Z" fill="white"/>
<path d="M190.709 327.828C189.204 327.828 187.906 326.699 187.732 325.168C180.989 266.021 191.83 166.634 195.313 137.582L196.087 131.17C200.619 93.7207 203.894 66.6631 192.932 44.1465C192.207 42.6563 192.827 40.8614 194.316 40.1358C195.806 39.4092 197.602 40.0313 198.327 41.5196C210.063 65.627 206.699 93.4219 202.044 131.891L201.27 138.297C197.806 167.185 187.024 265.987 193.693 324.488C193.881 326.135 192.699 327.621 191.052 327.809C190.937 327.822 190.822 327.828 190.709 327.828V327.828Z" fill="black"/>
<path d="M138.823 396.793C138.173 396.793 137.519 396.786 136.857 396.773C121.789 396.484 111.893 392.837 108.237 386.226C106.488 383.061 105.364 377.689 109.949 370.065C113.432 364.276 120.487 359.214 125.793 355.986C145.342 344.095 146.334 318.765 147.483 289.436L147.588 286.773C150.732 207.684 138.199 86.2615 138.072 85.0447C137.9 83.3963 139.097 81.9217 140.744 81.7498C142.397 81.5613 143.868 82.7732 144.039 84.4217C144.167 85.6434 156.745 207.488 153.584 287.012L153.479 289.671C152.313 319.434 151.212 347.548 128.911 361.113C122.225 365.179 117.317 369.457 115.092 373.157C112.595 377.309 112.055 380.73 113.488 383.323C115.975 387.82 124.534 390.536 136.973 390.775C171.433 391.438 190.063 373.327 193.174 368.442C196.148 363.77 194.183 352.673 191.52 345.526C181.529 354.797 162.569 360.114 150.639 356.282C149.062 355.775 148.193 354.086 148.7 352.508C149.208 350.93 150.898 350.066 152.475 350.569C163.431 354.089 183.051 347.688 189.965 338.341C190.571 337.521 191.547 337.078 192.571 337.131C193.589 337.197 194.504 337.776 194.999 338.667C198.216 344.454 203.901 362.766 198.234 371.665C194.022 378.281 174.192 396.792 138.823 396.793H138.823Z" fill="black"/>
<path d="M211.508 55.7916C207.3 40.2034 190.198 17.8539 190.505 2.99805L105.841 3.56774C104.84 17.8631 79.5645 64.8224 86.9849 108.369C88.7058 118.469 87.9045 170.926 89.0187 176.252C90.0194 199.252 197.499 210.792 214.51 182.792C221.515 161.792 218.679 82.3557 211.508 55.7916V55.7916Z" fill="white"/>
<path d="M86.9787 151.364C85.4826 151.364 84.1906 150.25 84.006 148.729C83.6163 145.504 83.2101 102.108 83.2189 99.8206C83.3205 73.9378 92.8048 39.7943 99.0802 17.2005C100.694 11.3909 102.088 6.37335 102.922 2.87238C103.305 1.2591 104.927 0.266909 106.534 0.647769C108.147 1.03156 109.142 2.64972 108.758 4.26105C107.899 7.8714 106.491 12.9388 104.861 18.8069C99.048 39.7366 89.3175 74.7679 89.2189 99.8441C89.2042 103.674 89.6554 145.38 89.963 148.009C90.1554 149.653 88.9816 151.147 87.338 151.342C87.2169 151.357 87.0978 151.364 86.9787 151.364H86.9787Z" fill="black"/>
<path d="M160.423 202.203C144.898 202.203 128.913 200.244 116.001 196.93C102.582 193.486 86.4883 187.125 86.0205 176.383C85.9482 174.728 87.2314 173.328 88.8867 173.255C90.5586 173.177 91.9424 174.466 92.0146 176.121C92.2441 181.398 102.007 187.144 117.493 191.119C152.07 199.992 201.784 197.601 211.877 181.346C213.601 177.749 216.33 166.518 215.736 131.59C215.343 108.475 213.604 84.0775 212.057 70.1517C209.988 51.557 201.924 35.4906 195.444 22.5814C191.484 14.6918 188.356 8.45934 187.543 3.4818C187.276 1.84703 188.385 0.305039 190.021 0.0374592C191.646 -0.220351 193.198 0.879259 193.465 2.515C194.13 6.58727 197.225 12.7523 200.807 19.89C207.148 32.5238 215.833 49.8255 218.02 69.4886C221.039 96.6439 225.09 168.196 217.198 184.124C217.16 184.202 217.118 184.277 217.073 184.35C209.328 197.098 185.479 202.202 160.423 202.202L160.423 202.203Z" fill="black"/>
</svg>
