<svg width="300" height="400" viewBox="0 0 300 400" fill="none" xmlns="http://www.w3.org/2000/svg">
<path d="M117.776 283.759C117.776 283.759 107.972 307.915 80.7051 315.718C53.4379 323.521 57.8918 347.897 90.0226 350.302C122.154 352.707 138.274 347.642 138.274 347.642C138.274 347.642 172.217 325.029 149.893 287.669C150.629 232.277 117.776 283.759 117.776 283.759Z" fill="#82BE28"/>
<path d="M155.892 276.922C159.458 321.359 140.396 340.507 133.48 344.783C126.564 349.06 110.873 363.204 118.307 372.249C133.615 390.871 189.103 378.191 200.806 355.553C207.953 344.696 194.901 319.301 192.786 293.407L155.892 276.922H155.892Z" fill="#82BE28"/>
<path d="M104.93 352.28C94.4153 352.28 83.3655 351.046 74.5569 348.532C66.01 346.091 60.4426 340.332 60.0256 333.499C59.5833 326.243 64.886 319.558 74.2122 315.615C90.1243 308.888 106.01 301.421 110.187 290.687C110.787 289.143 112.522 288.377 114.071 288.979C115.615 289.58 116.379 291.319 115.779 292.863C110.753 305.778 93.6428 313.915 76.5481 321.142C69.6712 324.049 65.7337 328.532 66.0139 333.133C66.2717 337.351 70.176 341.042 76.2034 342.762C95.3626 348.234 122.479 346.872 132.152 342.094C133.634 341.364 135.436 341.97 136.17 343.457C136.904 344.943 136.293 346.742 134.808 347.475C128.368 350.653 117.002 352.279 104.93 352.28H104.93Z" fill="black"/>
<path d="M205.272 217.729C204.654 240.559 203.497 296.975 206.159 312.272C207.994 322.815 180.869 322.913 172.882 323.135C161.204 323.459 147.592 318.923 144.929 316.262C142.267 313.602 143.038 311.492 143.598 307.173C114.315 308.503 97.0105 298.305 98.3416 291.654C104.642 260.174 101.998 222.738 97.6761 186.026C88.3585 106.882 83.1344 82.2805 85.0308 54.3401C89.4325 -10.5092 219.328 22.8051 214.146 70.0803C209.82 109.542 207.268 143.904 205.272 217.729Z" fill="white"/>
<path d="M144.952 383.027C144.3 383.027 143.647 383.02 142.986 383.007C127.918 382.718 118.021 379.071 114.366 372.46C112.617 369.295 111.494 363.923 116.078 356.299C119.315 350.916 125.967 346.324 131.313 342.634L131.775 342.315C137.049 338.671 144.622 330.327 148.788 320.617C149.44 319.094 151.206 318.389 152.727 319.043C154.25 319.696 154.955 321.46 154.301 322.983C149.668 333.784 141.144 343.135 135.185 347.251L134.721 347.571C129.851 350.934 123.79 355.118 121.22 359.391C118.722 363.543 118.183 366.964 119.617 369.557C122.103 374.053 130.663 376.77 143.101 377.009C177.574 377.684 196.192 359.561 199.303 354.676C202.915 349.003 199.244 333.86 195.883 327.817C195.079 326.368 195.599 324.542 197.048 323.737C198.497 322.933 200.323 323.453 201.128 324.901C202.819 327.942 205.018 333.888 206.122 340.317C207.035 345.643 207.472 353.018 204.364 357.899C200.15 364.515 180.319 383.026 144.952 383.027H144.952Z" fill="black"/>
<path d="M129.857 307.711C129.838 307.711 129.819 307.711 129.801 307.71C115.923 307.458 104.678 303.821 98.9484 297.734C96.4669 295.097 95.2208 292.159 95.3449 289.238C98.547 214.037 91.5607 158.68 86.4601 118.259C83.091 91.5587 80.4298 70.4698 82.046 54.047C82.2081 52.3976 83.6906 51.1866 85.3253 51.3556C86.9738 51.5177 88.1789 52.9855 88.0167 54.6349C86.4669 70.3868 89.091 91.1818 92.4132 117.508C97.5402 158.14 104.563 213.788 101.339 289.493C101.286 290.743 101.988 292.209 103.318 293.621C107.878 298.467 117.819 301.491 129.91 301.712C131.567 301.741 132.885 303.109 132.856 304.766C132.825 306.403 131.488 307.711 129.857 307.711Z" fill="black"/>
<path d="M173.814 326.789C163.016 326.789 152.216 324.96 145.684 320.902C139.999 317.369 139.062 313.058 139.275 310.063C140.755 289.366 145.013 191.33 141.932 112.319C141.867 110.662 143.157 109.268 144.813 109.203C146.506 109.174 147.862 110.43 147.928 112.084C151.018 191.349 146.744 289.721 145.26 310.491C145.208 311.221 145.049 313.443 148.851 315.805C160.169 322.839 190.013 321.792 200.205 315.819C201.32 315.165 203.17 313.869 203.164 312.472C201.144 292.765 200.621 178.984 208.831 96.9388C211.837 66.9085 211.65 58.2923 204.584 50.3479C203.482 49.1097 203.594 47.2132 204.831 46.1126C206.069 45.0101 207.964 45.1224 209.066 46.3597C218.025 56.4319 217.782 67.7522 214.802 97.5364C206.612 179.372 207.129 292.725 209.143 311.959C209.149 312.018 209.153 312.076 209.156 312.135C209.265 314.532 208.327 318.013 203.239 320.995C196.93 324.693 185.373 326.789 173.814 326.789H173.814Z" fill="black"/>
</svg>
