<svg width="422" height="467" viewBox="0 0 422 467" fill="none" xmlns="http://www.w3.org/2000/svg">
<path d="M192.967 303.775L143.093 312.222C143.093 312.222 6.2088 281.712 4.37333 279.112C2.53785 276.513 3.90506 269.936 6.98216 268.436C30.9285 256.759 55.7812 266.808 55.7812 266.808L220.609 184.199L244.974 204.898L192.967 303.775H192.967Z" fill="white"/>
<path d="M144.348 313.019C137.181 313.019 130.042 311.748 119.615 309.588C82.2873 301.854 9.12267 283.323 5.9662 282.083C4.42409 281.477 3.66525 279.736 4.27173 278.193C4.87432 276.658 6.60002 275.895 8.14116 276.491C11.2849 277.603 82.6164 295.794 120.832 303.712C138.764 307.428 145.793 308.507 162.105 304.497C171.886 302.091 182.104 300.217 187.594 299.21C189.054 298.942 190.21 298.731 190.976 298.578C192.603 298.259 194.18 299.315 194.502 300.94C194.823 302.565 193.765 304.143 192.14 304.465C191.356 304.62 190.171 304.837 188.676 305.112C183.249 306.107 173.145 307.961 163.538 310.323C155.958 312.188 150.144 313.019 144.348 313.019Z" fill="black"/>
<path d="M6.32961 282.042C5.87059 282.042 5.40474 281.937 4.96818 281.713C1.96112 280.179 0.0107802 276.786 3.93854e-05 273.07C-0.0107014 269.12 2.17598 265.627 5.85008 263.725C7.63732 262.801 9.78006 262.324 12.2607 261.772C14.131 261.356 16.0637 260.926 18.0707 260.257C19.646 259.735 21.3424 260.584 21.8659 262.156C22.3894 263.728 21.5397 265.427 19.9673 265.951C17.6674 266.717 15.4875 267.202 13.5635 267.63C11.4911 268.091 9.70096 268.488 8.60713 269.055C6.33255 270.232 5.99755 272.065 6.00048 273.052C6.00439 274.498 6.70171 275.862 7.69495 276.369C9.17162 277.122 9.75662 278.929 9.00364 280.404C8.47333 281.444 7.42051 282.042 6.32961 282.042Z" fill="black"/>
<path d="M182.12 271.402C182.12 279.85 166.971 294.9 146.699 297.715C126.426 300.531 90.7754 282.288 84.8129 274.967C56.1933 286.794 15.6218 273.29 19.7955 254.143C23.9692 234.995 53.49 238.225 57.6637 238.225C61.8374 238.225 66.3294 236.109 66.3294 236.109C77.658 234.42 97.9303 251.878 97.9303 251.878C125.954 240.051 169.003 260.139 182.12 271.402Z" fill="white"/>
<path d="M300.057 131.362C289.324 119.536 191.109 95.2265 157.124 104.8C142.155 104.443 127.394 112.584 117.627 114.499C101.821 117.599 94.6774 133.803 88.1187 154.64C81.5601 175.477 58.65 225.862 59.2463 235.436C74.7486 238.815 96.2428 248.326 99.8202 253.958C119.496 248.326 157.795 259.374 186.29 274.66C209.716 229.436 213.36 184.571 218.384 182.061C233.886 178.682 248.184 179.231 265.475 174.162C282.766 169.094 296.479 160.647 300.057 131.362Z" fill="#82BE28"/>
<path d="M73.7816 280.418C59.722 280.418 43.3643 277.994 31.7521 273.904C22.1098 270.508 15.6152 261.361 16.9659 253.079C19.1867 239.462 38.2917 237.704 46.4026 237.58C48.0902 237.577 49.4234 238.878 49.4488 240.534C49.4741 242.192 48.1508 243.555 46.4944 243.581C32.7473 243.79 23.9225 247.702 22.8882 254.045C22.0053 259.455 26.8768 265.824 33.7454 268.244C48.1332 273.312 70.1808 275.689 85.0373 273.768C86.681 273.563 88.186 274.717 88.397 276.36C88.6089 278.003 87.4487 279.507 85.805 279.72C82.1455 280.193 78.07 280.418 73.7816 280.418H73.7816Z" fill="black"/>
<path d="M184.562 277.394C184.07 277.394 183.57 277.272 183.108 277.016C156.697 262.348 137.315 255.477 118.299 254.041C116.646 253.917 115.408 252.476 115.533 250.824C115.657 249.173 117.083 247.935 118.75 248.058C138.686 249.563 158.805 256.654 186.022 271.77C187.471 272.575 187.992 274.401 187.189 275.85C186.64 276.837 185.617 277.394 184.562 277.394Z" fill="black"/>
<path d="M60.7147 236.157C60.5321 236.157 60.3456 236.139 60.1581 236.104C58.53 235.798 57.4577 234.231 57.7633 232.602C58.2985 229.746 60.0291 225.593 62.6475 219.308C67.4184 207.856 74.6279 190.55 80.5355 166.634C87.7831 137.298 93.7406 118.897 115.308 110.749C132.952 104.083 142.946 100.838 158.321 99.8779C159.98 99.7627 161.397 101.032 161.501 102.686C161.605 104.339 160.348 105.763 158.694 105.867C144.133 106.776 134.498 109.914 117.429 116.363C99.244 123.232 93.765 138.103 86.3602 168.073C80.3431 192.435 73.0272 209.994 68.187 221.614C65.8919 227.122 64.0802 231.472 63.6603 233.709C63.3897 235.151 62.1308 236.157 60.7147 236.157H60.7147Z" fill="black"/>
<path d="M118.52 254.051C118.048 254.051 117.567 253.939 117.12 253.701C115.655 252.926 115.096 251.11 115.872 249.645C118.751 244.208 135.519 191.293 141.822 161.525C148.546 129.77 170.074 125.413 199.871 119.384L200.091 119.339C201.707 119.01 203.297 120.059 203.626 121.685C203.954 123.309 202.904 124.891 201.28 125.22L201.061 125.264C171.464 131.255 153.599 134.87 147.691 162.768C141.483 192.092 124.623 245.94 121.175 252.453C120.637 253.471 119.596 254.051 118.52 254.051V254.051Z" fill="black"/>
<path d="M147.75 300.633C138.292 300.634 126.92 298.365 113.387 294.762C90.5614 288.684 83.6722 276.167 84.7094 267.295C85.7544 258.35 94.4182 252.121 106.267 251.794C112.939 251.61 115.182 250.906 118.288 249.933L119.469 249.565C121.054 249.083 122.731 249.975 123.215 251.558C123.7 253.142 122.808 254.82 121.223 255.304L120.083 255.658C116.786 256.692 113.938 257.585 106.433 257.793C97.5522 258.038 91.3652 262.041 90.6688 267.992C89.8504 274.997 97.0355 284.198 114.93 288.963C150.742 298.498 164.791 296.236 172.766 279.655C173.484 278.161 175.278 277.535 176.77 278.252C178.262 278.97 178.891 280.763 178.172 282.256C171.779 295.549 161.908 300.633 147.75 300.633H147.75Z" fill="black"/>
<path d="M371.108 22.9151H409.289C414.815 22.4131 420.843 15.3846 417.829 8.35611C414.815 1.32762 375.629 2.83372 356.539 4.33983C346.491 7.85408 344.481 24.4212 342.472 34.964C340.462 45.5067 329.912 100.731 329.912 100.731L248.477 124.313C235.917 126.823 214.803 137.357 215.415 173.12C217.425 210.271 212.355 293.326 212.355 293.326C210.575 308.443 240.806 268.871 240.806 268.871L242.319 219.42C242.319 219.42 323.387 198.724 328.913 196.716C334.439 194.708 342.472 187.583 343.979 175.032C345.486 162.481 371.108 22.9151 371.108 22.9151L371.108 22.9151Z" fill="white"/>
<path d="M241.033 264.001C239.632 264.001 238.379 263.015 238.094 261.589C237.163 256.942 237.207 244.791 238.229 224.442C238.278 223.46 238.311 222.825 238.315 222.64C238.315 220.29 239.916 215.88 245.919 214.459C251.086 213.237 258.809 211.034 258.887 211.012C260.48 210.565 262.142 211.479 262.596 213.073C263.051 214.666 262.128 216.327 260.535 216.782C260.213 216.874 252.603 219.044 247.301 220.298C244.474 220.968 244.323 222.513 244.315 222.687C244.315 222.816 244.281 223.555 244.221 224.742C242.998 249.12 243.414 257.594 243.977 260.411C244.302 262.035 243.25 263.616 241.625 263.942C241.426 263.982 241.228 264.001 241.033 264.001V264.001Z" fill="black"/>
<path d="M246.31 125.331C244.999 125.331 243.793 124.462 243.422 123.137C242.977 121.541 243.909 119.886 245.504 119.44L329.644 95.9194C331.243 95.4789 332.896 96.4057 333.342 98.0015C333.787 99.5974 332.856 101.253 331.26 101.699L247.12 125.219C246.849 125.295 246.578 125.331 246.31 125.331Z" fill="black"/>
<path d="M325.38 204.38C324.035 204.38 322.812 203.47 322.472 202.106C322.069 200.499 323.047 198.87 324.655 198.468C335.894 195.66 337.26 187.435 337.313 187.086C337.318 187.056 337.326 186.996 337.332 186.965L367.195 23.6037C367.494 21.9717 369.069 20.8945 370.685 21.1914C372.315 21.4893 373.395 23.0519 373.098 24.6819L343.244 187.997C343.044 189.282 340.876 200.6 326.11 204.289C325.866 204.35 325.62 204.38 325.38 204.38L325.38 204.38Z" fill="black"/>
<path d="M330.455 101.812C330.26 101.812 330.062 101.792 329.864 101.752C328.239 101.427 327.186 99.8456 327.511 98.2215L344.224 14.7885C344.842 10.0206 348.7 1.06877 359.068 0.503299C371.747 -0.188162 405.197 -0.16081 412.487 0.546272C417.599 1.04338 422.494 5.35132 421.959 12.6243C421.561 18.0378 417.65 23.6935 409.957 23.3566L395.94 23.5656C394.282 23.6076 392.919 22.2676 392.895 20.6103C392.87 18.9529 394.194 17.5905 395.85 17.5651L409.959 17.3551C410.03 17.3551 410.089 17.3551 410.154 17.359C415.304 17.6042 415.908 13.0931 415.975 12.1839C416.107 10.3742 415.429 6.8612 411.907 6.51938C405.514 5.89727 372.52 5.7791 359.394 6.49399C351.298 6.9364 350.209 15.272 350.166 15.6265C350.157 15.7046 350.144 15.7818 350.129 15.8589L333.394 99.3993C333.109 100.825 331.856 101.812 330.455 101.812V101.812Z" fill="black"/>
<path d="M343.651 108.451H343.648C337.281 108.451 330.786 109.605 324.344 111.88C305.632 118.487 288.415 134.217 275.862 156.171C263.873 177.139 257.271 201.751 257.271 225.474C257.271 246.668 262.475 265.239 272.319 279.18C283.138 294.5 298.682 302.936 316.086 302.936C322.453 302.936 328.948 301.783 335.391 299.508C354.103 292.9 371.32 277.171 383.873 255.217C395.862 234.249 402.464 209.636 402.464 185.913C402.464 164.721 397.261 146.15 387.416 132.209C376.597 116.889 361.054 108.451 343.651 108.451H343.651Z" fill="white"/>
<path d="M312.808 149.668C327.168 134.098 350.424 123.832 379.143 122.689C369.271 113.443 357.014 108.451 343.651 108.451H343.648C337.281 108.451 330.786 109.605 324.344 111.88C305.632 118.487 288.415 134.217 275.862 156.171C263.873 177.139 257.271 201.751 257.271 225.474C257.271 246.668 262.475 265.239 272.319 279.18C281.87 292.704 295.106 300.854 310.051 302.581C280.423 271.49 270.354 205.984 312.808 149.668Z" fill="#82BE28"/>
<path d="M353.78 128.701C378.055 128.7 396.016 153.048 396.016 189.595C396.016 232.78 370.937 276.644 339.999 287.568C335.244 289.247 330.626 290.05 326.218 290.05C301.943 290.05 283.982 265.703 283.982 229.156C283.982 185.972 309.062 142.108 339.999 131.184C344.754 129.504 349.372 128.701 353.78 128.701ZM353.783 112.133H353.779C347.413 112.133 340.918 113.287 334.475 115.562C315.764 122.169 298.546 137.899 285.994 159.853C274.005 180.821 267.403 205.433 267.403 229.156C267.403 250.35 272.606 268.921 282.451 282.862C293.27 298.181 308.813 306.618 326.218 306.618C332.584 306.618 339.079 305.465 345.523 303.19C364.234 296.582 381.452 280.853 394.005 258.899C405.993 237.931 412.596 213.318 412.596 189.595C412.596 168.403 407.392 149.832 397.548 135.891C386.729 120.571 371.186 112.133 353.782 112.133H353.783H353.783Z" fill="#82BE28"/>
<path d="M327.348 309.74C314.342 309.74 303.004 305.773 294.709 301.628C293.226 300.888 292.626 299.086 293.366 297.603C294.106 296.12 295.909 295.52 297.391 296.26C314.113 304.615 330.612 306.028 346.431 300.46C365.654 292.687 380.025 279.44 393.027 257.512C403.246 240.278 409.595 214.253 409.595 189.594C409.595 169.025 404.582 151.053 395.097 137.621C394.141 136.267 394.463 134.395 395.817 133.44C397.171 132.481 399.045 132.807 399.998 134.16C410.202 148.61 415.596 167.779 415.596 189.594C415.596 215.268 408.925 242.465 398.187 260.573C384.642 283.417 368.891 297.867 348.616 306.049C348.575 306.066 348.534 306.081 348.492 306.096C341.13 308.696 334.019 309.74 327.348 309.74Z" fill="black"/>
<path d="M326.218 293.05C299.584 293.05 280.982 266.776 280.982 229.156C280.982 184.87 307.008 139.651 339 128.353C343.985 126.593 348.958 125.701 353.78 125.701H353.783C366.648 125.701 378.251 132.097 386.452 143.711C394.672 155.35 399.017 171.216 399.017 189.594C399.518 212.352 393.869 235.125 383.11 253.653C372.418 272.064 357.434 285.123 340.916 290.424C336.011 292.157 331.038 293.05 326.218 293.05ZM353.78 131.701C349.641 131.701 345.34 132.479 340.998 134.012C311.213 144.529 286.982 187.211 286.982 229.156C286.982 263.243 303.117 287.05 326.218 287.05C330.356 287.05 334.657 286.272 339 284.738C370.798 274.532 393.985 233.67 393.017 189.661C393.016 172.707 388.945 157.642 381.551 147.172C374.404 137.051 364.8 131.701 353.783 131.701H353.78V131.701Z" fill="black"/>
<path d="M352.663 205.095C352.663 214.438 346.802 224.24 340.108 226.603C333.414 228.967 328.45 222.998 328.45 213.654C328.45 204.311 333.302 194.813 339.996 192.449C346.69 190.086 352.663 195.751 352.663 205.095Z" fill="white"/>
<path d="M357.264 204.449C357.264 213.793 352.617 223.599 345.924 225.963C339.23 228.327 333.505 222.353 333.505 213.009C333.505 203.665 338.893 193.537 345.587 191.173C352.281 188.81 357.264 195.106 357.264 204.449L357.264 204.449Z" fill="#2D8C3C"/>
<path d="M342.571 228.781C340.464 228.781 338.48 228.168 336.77 226.958C333.089 224.353 331.062 219.4 331.062 213.009C331.062 202.031 336.961 191.67 344.785 188.907C348.41 187.629 352.064 188.097 355.081 190.23C359.034 193.027 361.302 198.21 361.302 204.449C361.302 214.783 354.87 225.149 346.658 228.049C345.272 228.538 343.897 228.781 342.571 228.781V228.781ZM348.772 194.201C348.134 194.201 347.471 194.323 346.783 194.566C341.423 196.458 337.062 204.733 337.062 213.009C337.062 217.271 338.249 220.654 340.235 222.059C341.421 222.897 342.91 223.009 344.66 222.39C349.799 220.575 355.302 212.933 355.302 204.449C355.302 200.246 353.924 196.761 351.616 195.129C350.742 194.511 349.791 194.201 348.772 194.201Z" fill="black"/>
<path d="M258.84 252.732C257.505 252.732 256.286 251.833 255.937 250.48C253.825 242.305 251.616 229.05 252.341 218.6C253.965 195.23 258.798 178.236 270.169 155.899C285.79 125.22 307.998 114.467 323.344 109.049C330.111 106.66 336.941 105.449 343.647 105.449C345.304 105.449 346.648 106.792 346.648 108.449C346.648 110.107 345.307 111.45 343.65 111.45H343.647C337.624 111.45 331.464 112.545 325.342 114.708C295.662 125.187 283.124 143.682 275.517 158.622C264.409 180.441 259.91 196.246 258.328 219.016C257.695 228.124 259.589 240.628 261.746 248.98C262.161 250.584 261.196 252.221 259.592 252.635C259.341 252.7 259.088 252.732 258.84 252.732H258.84Z" fill="black"/>
<path d="M253.665 265.49L253.675 265.444L245.911 261.853C245.502 261.772 239.877 263.171 239.455 263.138H239.45C237.696 263.001 235.838 263.277 233.91 264.036C223.381 268.177 214.844 284.804 214.844 301.174C214.844 313.862 219.228 323.587 226.972 324.941C233.912 326.155 239.769 328.355 246.572 325.416C256.958 320.928 265.638 304.648 265.638 288.278C265.638 275.809 260.679 267.108 253.665 265.49Z" fill="white"/>
<path d="M250.821 285.867L250.825 285.85L246.149 285.091C246.002 285.061 245.855 285.031 245.703 285.02H245.701C245.069 284.97 244.4 285.07 243.706 285.343C239.913 286.835 236.838 292.824 236.838 298.72C236.838 303.291 238.417 306.793 241.206 307.281C243.706 307.718 245.816 308.511 248.266 307.452C252.008 305.836 255.134 299.972 255.134 294.075C255.134 289.584 253.348 286.45 250.821 285.867L250.821 285.867Z" fill="#2D8C3C"/>
<path d="M244.718 311.189C242.807 311.189 240.953 310.705 239.316 309.746C235.63 307.592 233.838 303.985 233.838 298.722C233.838 291.73 237.555 284.801 242.484 282.603H242.485C246.197 280.948 249.936 281.181 253.011 283.257C256.341 285.504 258.315 289.568 258.161 293.861C257.885 301.583 254.372 308.158 249.421 310.223C247.872 310.867 246.276 311.189 244.718 311.189ZM244.927 288.084C242.52 289.157 239.838 293.79 239.838 298.722C239.838 302.581 241.106 303.842 242.345 304.567C243.681 305.348 245.417 305.391 247.112 304.683C249.404 303.728 251.954 299.535 252.164 293.646C252.242 291.472 251.233 289.296 249.653 288.23C248.321 287.33 246.729 287.282 244.927 288.084Z" fill="black"/>
<path d="M236.731 330.453C232.356 330.453 228.133 329.358 224.416 327.184C215.838 322.167 211.844 313.901 211.844 301.174C211.844 289.978 215.701 278.336 222.16 270.032C225.31 265.984 228.951 262.963 232.688 261.296C240.813 257.677 248.971 258.077 255.659 262.424C263.554 267.555 268.649 277.705 268.638 288.281C268.619 307.236 260.411 322.899 247.726 328.186C244.092 329.7 240.36 330.453 236.731 330.453ZM226.897 273.716C221.313 280.894 217.844 291.415 217.844 301.174C217.844 314.658 222.975 319.39 227.446 322.004C232.605 325.023 239.155 325.257 245.418 322.647C253.349 319.341 262.617 308.356 262.638 288.275C262.646 279.812 258.528 271.445 252.389 267.455C247.39 264.208 241.424 263.973 235.131 266.777C232.291 268.043 229.443 270.443 226.897 273.716H226.897Z" fill="black"/>
<path d="M213.721 273.712C213.616 273.712 213.51 273.707 213.403 273.695C211.755 273.522 210.56 272.046 210.734 270.397C211.612 262.06 213.19 184.914 212.421 173.319C212.311 171.665 213.563 170.237 215.216 170.127C216.869 170.013 218.3 171.269 218.408 172.922C219.185 184.637 217.589 262.598 216.701 271.026C216.539 272.567 215.237 273.712 213.721 273.712Z" fill="black"/>
<path d="M262.997 119.584C262.684 119.584 262.366 119.534 262.052 119.43C225.996 107.457 178.131 103.797 158.826 105.856C157.168 106.03 155.699 104.836 155.525 103.189C155.35 101.542 156.543 100.064 158.191 99.8884C178.023 97.7808 227.093 101.499 263.943 113.736C265.515 114.258 266.367 115.956 265.844 117.528C265.426 118.787 264.255 119.584 262.997 119.584L262.997 119.584Z" fill="black"/>
</svg>
