<svg width="301" height="400" viewBox="0 0 301 400" fill="none" xmlns="http://www.w3.org/2000/svg">
<path d="M70.5727 291.602C53.2446 301.02 29.7555 306.201 14.3453 308.945C5.51332 310.518 0.949508 319.384 3.88647 327.82C8.56951 341.272 75.4979 357.629 97.2078 350.251C106.337 345.386 111.487 318.097 111.487 318.097" fill="white"/>
<path d="M82.5015 355.107C70.3267 355.107 55.6168 352.707 43.4566 349.763C34.4635 347.586 4.82576 339.642 1.0533 328.807C-0.71135 323.738 -0.2426 318.303 2.33846 313.895C4.80819 309.678 8.88534 306.872 13.8189 305.993C37.5015 301.775 56.1138 296.046 69.1402 288.966C70.5973 288.175 72.4176 288.713 73.2086 290.169C73.9996 291.625 73.4615 293.447 72.0055 294.238C58.4117 301.626 39.189 307.569 14.8717 311.899C11.6959 312.465 9.08358 314.25 7.5162 316.927C5.82382 319.816 5.53378 323.427 6.71932 326.834C8.20565 331.102 21.7867 338.345 44.8687 343.932C66.1988 349.096 86.6695 350.515 95.9937 347.494C101.631 344.167 106.67 327.432 108.54 317.542C108.847 315.914 110.42 314.838 112.045 315.151C113.672 315.458 114.743 317.027 114.436 318.655C113.881 321.592 108.727 347.512 98.6197 352.899C98.4762 352.975 98.3277 353.04 98.1744 353.092C93.9976 354.511 88.5631 355.106 82.5015 355.107Z" fill="black"/>
<path d="M78.3233 50.5586C78.3233 50.5586 78.0451 76.9153 75.8387 101.016C74.6608 113.883 68.6231 146.287 63.432 183.889C58.8993 216.721 55.7767 244.062 41.8441 286.052C40.0544 291.446 38.235 296.787 48.7398 302.517C66.7662 312.349 100.224 324.208 118.795 325.729C127.567 326.448 126.866 322.851 128.374 307.856C129.165 299.995 135.601 231.747 140.707 210.909C145.693 190.562 158.736 161.848 158.736 161.848L191.102 88.033L78.3233 50.5586Z" fill="#2D8C3C"/>
<path d="M120.504 328.806C119.893 328.806 119.243 328.777 118.549 328.721C99.1089 327.128 65.3979 315.021 47.3032 305.151C34.6382 298.244 37.145 290.688 38.9751 285.17C51.8716 246.305 55.4194 220.336 59.5288 190.267L60.4595 183.48C63.0171 164.952 65.8159 147.463 68.0649 133.41C70.4097 118.756 72.2612 107.181 72.8511 100.743C75.02 77.0459 75.3198 50.7901 75.3227 50.5284C75.3335 49.5694 75.8003 48.6739 76.5806 48.1172C77.3608 47.5616 78.3589 47.4122 79.269 47.7129L192.048 85.1875C192.849 85.4532 193.5 86.044 193.843 86.8155C194.186 87.586 194.188 88.4659 193.849 89.2393L161.483 163.054C161.338 163.374 148.481 191.788 143.622 211.624C141.492 220.314 137.683 243.632 131.633 305.366L131.359 308.158C131.202 309.718 131.069 311.154 130.947 312.475C129.991 322.813 129.435 328.806 120.504 328.806L120.504 328.806ZM81.2515 54.6944C81.0757 63.0792 80.5063 82.9327 78.8257 101.29C78.2183 107.929 76.3521 119.592 73.9888 134.357C71.7446 148.383 68.9517 165.837 66.4028 184.3L65.4731 191.079C61.3247 221.443 57.7407 247.667 44.6909 286.997C42.9497 292.245 41.9116 295.376 50.1763 299.884C67.7085 309.446 100.883 321.253 119.04 322.74C122.302 323.008 124.279 319.402 124.972 311.922C125.095 310.587 125.23 309.135 125.388 307.558L125.663 304.781C131.747 242.694 135.618 219.076 137.793 210.196C142.789 189.812 155.467 161.791 156.004 160.607L187.033 89.8438L81.2515 54.6944Z" fill="black"/>
<path d="M195.6 302.238C191.751 320.452 180.612 339.011 172.793 350.658C168.312 357.333 172.282 367.289 180.766 372.31C194.294 380.315 254.725 347.993 262.999 328.747C265.102 319.23 253.316 297.496 253.316 297.496" fill="white"/>
<path d="M186.614 376.549C183.572 376.55 181.109 375.997 179.24 374.891C173.7 371.612 169.632 366.289 168.355 360.652C167.398 356.425 168.091 352.281 170.304 348.984C182.266 331.165 189.79 315.229 192.666 301.617C193.009 299.996 194.596 298.956 196.221 299.302C197.842 299.645 198.879 301.236 198.537 302.857C195.501 317.224 187.677 333.868 175.286 352.328C173.639 354.779 173.791 357.487 174.208 359.328C175.126 363.386 178.149 367.273 182.296 369.727C183.301 370.322 187.564 371.942 200.191 367.824C226.744 359.166 255.118 338.729 260.125 327.831C261.244 321.543 254.967 306.837 250.679 298.925C249.89 297.469 250.431 295.647 251.887 294.858C253.342 294.067 255.164 294.607 255.954 296.064C257.216 298.391 268.21 319.08 265.93 329.394C265.889 329.578 265.832 329.758 265.757 329.931C259.435 344.636 225.737 365.805 202.051 373.529C195.881 375.542 190.719 376.549 186.614 376.549V376.549Z" fill="black"/>
<path d="M122.75 111.811C134.77 151.657 145.649 205.577 154.222 224.584C174.211 268.898 182.073 310.183 183.435 315.976C184.797 321.768 190.107 322.838 212.454 317.35C234.802 311.863 258.67 302.413 266.208 297.541C270.117 295.015 269.357 292.415 267.354 287.328C265.253 281.99 249.577 252.514 235.062 208.966C221.157 167.249 218.294 137.815 217.08 106.461C215.866 75.1077 209.454 58.9277 204.08 55.5507C198.707 52.1737 182.515 57.7191 174.846 62.916C172.601 64.437 156.149 73.0115 136.811 74.0196" fill="#2D8C3C"/>
<path d="M191.559 323.944C188.361 323.944 186.097 323.397 184.358 322.333C182.384 321.123 181.126 319.268 180.513 316.663C180.384 316.113 180.196 315.249 179.947 314.097C173.005 281.996 163.428 252.295 151.486 225.818C146.396 214.535 140.775 192.255 134.265 166.455C129.658 148.194 124.894 129.312 119.877 112.679C119.398 111.093 120.296 109.419 121.883 108.94C123.47 108.464 125.142 109.359 125.621 110.946C130.678 127.711 135.46 146.661 140.084 164.987C146.255 189.448 152.084 212.553 156.955 223.351C169.071 250.211 178.78 280.315 185.811 312.829C186.051 313.933 186.229 314.762 186.353 315.29C186.65 316.552 187.076 316.961 187.492 317.216C190.807 319.25 202.918 316.605 211.737 314.438C234.514 308.846 257.864 299.36 264.578 295.022C266.32 293.896 266.635 293.693 264.561 288.428C264.158 287.403 263.11 285.203 261.661 282.156C255.844 269.932 243.739 244.494 232.215 209.916C218.899 169.967 215.404 140.758 214.081 106.578C212.882 75.5986 206.488 60.6093 202.482 58.0917C199.031 55.9218 184.471 60.0165 176.527 65.4003C174.012 67.1034 157.023 75.9706 136.966 77.0165C135.276 77.1083 133.899 75.8319 133.813 74.1767C133.727 72.5224 134.999 71.1103 136.653 71.0243C155.094 70.0634 171.002 61.8954 173.162 60.4325C180.4 55.5273 198.441 48.4648 205.675 53.0116C213.474 57.913 218.993 78.3495 220.077 106.346C221.144 133.927 223.401 164.497 237.906 208.019C249.315 242.248 261.313 267.461 267.079 279.578C268.636 282.85 269.665 285.013 270.143 286.23C271.959 290.841 274.017 296.067 267.834 300.061C259.83 305.234 235.41 314.804 213.169 320.265C203.052 322.749 196.285 323.944 191.559 323.944V323.944Z" fill="black"/>
</svg>
