<svg width="334" height="432" viewBox="0 0 334 432" fill="none" xmlns="http://www.w3.org/2000/svg">
<path d="M96.8952 286.376C93.6349 292.082 67.6864 346.177 61.5978 346.356C52.7458 346.617 42.7541 340.629 28.5667 337.992C4.91394 333.596 -9.88141 356.016 19.5957 375.77C42.2991 390.985 45.2358 390.932 45.2358 390.932C45.2358 390.932 66.3121 415.41 86.5391 406.426C97.895 401.383 99.8819 377.723 101.994 370.864C105.593 359.172 119.806 313.698 126.212 305.818C147.756 264.023 102.538 276.502 96.8952 286.376H96.8952Z" fill="white"/>
<path d="M77.4869 411.856C67.1804 411.856 55.6561 405.561 43.1155 393.058C41.6906 391.638 37.7188 389.541 33.5135 387.321C20.7677 380.591 1.50619 370.423 0.0646839 353.384C-0.38194 348.114 1.49544 343.281 5.35087 339.776C10.6957 334.914 19.1268 333.23 29.102 335.037C33.5908 335.851 38.2876 337.677 42.8301 339.445C48.6782 341.721 54.7247 344.068 58.2029 343.193C67.4266 340.861 82.1584 310.707 89.277 292.248C89.8731 290.7 91.6078 289.931 93.1578 290.527C94.7049 291.123 95.476 292.861 94.8788 294.408C92.8812 299.591 74.9166 345.16 59.6747 349.014C54.3368 350.369 47.6902 347.778 40.6537 345.041C36.3751 343.377 31.9518 341.656 28.0309 340.946C19.9399 339.479 13.3227 340.641 9.39101 344.218C6.94973 346.437 5.76231 349.513 6.04768 352.877C7.21261 366.645 24.7267 375.893 36.3164 382.01C41.3309 384.658 45.2919 386.748 47.355 388.807C61.0361 402.446 73.351 408.046 82.9715 405.015C89.4539 402.968 94.6159 387.272 98.3853 375.812C99.9578 371.031 101.444 366.515 102.977 362.85C109.142 348.109 132.079 285.963 132.31 285.338C132.885 283.781 134.618 282.988 136.166 283.56C137.721 284.134 138.517 285.86 137.943 287.415C137.712 288.043 114.731 350.309 108.516 365.166C107.074 368.614 105.624 373.022 104.09 377.689C99.2258 392.476 94.1957 407.767 84.7795 410.74C82.4222 411.485 79.9907 411.856 77.4869 411.856H77.4869Z" fill="black"/>
<path d="M187.208 152.046C195.513 187.92 221.824 258.644 227.643 330.854C230.338 364.299 208.692 374.606 204.767 380.296C199.967 387.253 192.686 402.803 202.691 410.266C220.865 423.822 269.843 393.576 277.216 366.869C278.4 362.36 267.4 340.416 259.55 305.955C253.206 278.108 250.228 239.672 247.193 214.512C245.877 203.604 184.728 141.334 187.208 152.046V152.046Z" fill="white"/>
<path d="M213.942 391.269C213.318 391.269 212.714 391.239 212.132 391.177C206.12 390.536 202.345 386.671 201.777 380.573C201.624 378.921 202.838 377.459 204.488 377.305C206.124 377.148 207.603 378.365 207.756 380.016C208.063 383.312 209.562 384.865 212.768 385.206C226.13 386.636 255.632 366.429 259.878 352.946C260.377 351.364 262.064 350.485 263.644 350.985C265.225 351.483 266.104 353.169 265.605 354.751C260.751 370.164 230.418 391.269 213.942 391.269Z" fill="black"/>
<path d="M213.131 415.997C203.248 415.997 198.381 411.521 195.999 407.448C190.833 398.618 198.111 385.889 202.02 379.05L202.16 378.806C203.949 375.675 206.198 372.405 208.579 368.945C215.943 358.241 224.29 346.11 224.64 330.786C225.395 297.734 175.828 112.323 175.328 110.454C174.899 108.852 175.849 107.207 177.451 106.778C179.052 106.346 180.699 107.298 181.127 108.9C183.181 116.565 231.417 297.018 230.643 330.923C230.252 348.037 220.978 361.517 213.526 372.348C211.218 375.703 209.038 378.872 207.372 381.785L207.233 382.031C204.4 386.984 197.769 398.584 201.181 404.416C204.502 410.097 211.789 410.427 217.312 409.704C240.802 406.632 268.479 383.592 272.79 367.977C274.297 362.237 268.867 347.366 266.257 340.22C265.577 338.357 265.041 336.886 264.698 335.819C255.8 308.103 254.015 295.738 249.715 260.829C246.535 235.005 244.168 216.63 242.079 200.419C239.381 179.468 237.249 162.919 234.576 139.727C234.387 138.079 235.568 136.59 237.215 136.4C238.857 136.201 240.351 137.39 240.542 139.039C243.21 162.192 245.339 178.723 248.035 199.652C250.124 215.871 252.492 234.254 255.674 260.094C260.014 295.328 261.655 306.7 270.415 333.984C270.722 334.939 271.266 336.431 271.897 338.16C276.099 349.668 280.427 362.532 278.587 369.538C272.792 390.531 239.934 412.801 218.09 415.657C216.312 415.89 214.66 415.997 213.131 415.997Z" fill="black"/>
<path d="M229.325 19.1494C265.099 62.6548 249.788 210.073 291.633 232.359C315.288 244.958 305.762 273.412 285.837 278.505C278.287 280.436 270.974 288.024 272.4 294.582C276.054 311.39 256.323 331.852 224.899 314.314C216.13 309.198 195.668 312.852 179.59 325.275C161.304 339.405 134.384 330.881 129.268 313.342C125.193 299.371 114.451 292.172 88.5927 295.215C38.5276 304.708 38.783 251.859 71.7184 235.389C78.6203 231.938 88.6834 221.788 93.0978 203.639C103.497 160.882 112.664 39.9205 139.863 17.8466C150.077 -9.89087 219.544 -2.01653 229.325 19.1494Z" fill="white"/>
<path d="M66.3152 295.626C66.0718 295.626 65.8246 295.596 65.5783 295.534C54.9492 292.85 47.2833 282.177 46.5025 268.974C45.7431 256.14 51.687 239.84 70.6465 232.584C76.2826 230.427 86.7357 214.646 91.2625 198.285C95.2743 183.785 99.894 159.12 104.784 133.006C116.726 69.2418 125.31 26.8752 135.425 19.2454C136.748 18.2457 138.632 18.5095 139.629 19.8338C140.628 21.157 140.365 23.0403 139.04 24.0381C130.027 30.8381 118.849 90.5283 110.686 134.112C105.771 160.354 101.129 185.14 97.0501 199.886C92.2652 217.177 80.9296 235.077 72.7927 238.192C56.8618 244.289 51.862 257.907 52.4962 268.62C53.1217 279.196 58.9698 287.672 67.0481 289.712C68.6558 290.118 69.6301 291.75 69.2236 293.358C68.8806 294.719 67.658 295.626 66.3152 295.626L66.3152 295.626Z" fill="black"/>
<path d="M160.345 334.674C156.653 334.674 152.831 334.203 149.058 333.228C137.453 330.229 129.194 323.303 126.4 314.226C121.497 298.297 101.59 295.831 91.7577 296.757C90.0865 296.903 88.6421 295.699 88.4877 294.048C88.3333 292.397 89.5461 290.933 91.1967 290.778C102.715 289.702 126.099 292.839 132.139 312.459C134.305 319.498 141.02 324.949 150.56 327.414C160.994 330.11 172.077 328.342 177.508 323.112C190.59 310.519 211.511 306.437 229.573 312.95C243.701 318.048 256.842 317.737 263.868 312.143C268.49 308.463 270.357 302.675 269.42 294.944C268.194 284.831 274.132 277.582 285.302 275.552C294.157 273.942 300.883 267.273 302.438 258.562C304.09 249.304 299.481 240.475 290.108 234.945C264.248 219.684 259.192 173.163 253.839 123.91C249.383 82.9013 244.774 40.4955 227.11 21.1754C225.991 19.9518 226.076 18.0529 227.3 16.9339C228.523 15.8139 230.423 15.8999 231.541 17.1235C250.531 37.8939 255.247 81.2917 259.808 123.262C264.766 168.876 269.892 216.043 293.159 229.773C304.781 236.632 310.46 247.788 308.349 259.617C306.349 270.822 297.724 279.396 286.376 281.459C280.777 282.476 274.326 285.517 275.381 294.221C276.882 306.604 271.983 313.356 267.609 316.84C258.835 323.83 243.855 324.485 227.534 318.599C211.577 312.838 193.144 316.393 181.674 327.438C176.804 332.126 168.929 334.674 160.345 334.674H160.345Z" fill="black"/>
<path d="M88.7157 388.073C88.4255 388.073 88.1313 388.068 87.8352 388.059C72.4096 387.588 51.5923 375.211 33.5074 355.757C32.3787 354.542 32.448 352.642 33.6618 351.513C34.8776 350.384 36.7775 350.454 37.9053 351.668C58.2642 373.568 77.1407 381.725 88.0189 382.058C92.1842 382.181 95.5265 381.186 97.6453 379.169C98.8444 378.026 100.745 378.07 101.89 379.273C103.033 380.474 102.986 382.374 101.785 383.518C98.647 386.505 94.1417 388.073 88.7157 388.073Z" fill="black"/>
</svg>
