<svg width="473" height="400" viewBox="0 0 473 400" fill="none" xmlns="http://www.w3.org/2000/svg">
<path d="M376.699 138.053C385.438 132.382 387.995 129.022 394.823 120.709C401.65 112.396 406.078 104.821 421.309 107.89C436.541 110.96 442.408 131.508 445.585 136.844C448.762 142.18 462.942 162.376 465.002 167.369C467.063 172.363 473.793 194.894 462.095 198.182C450.397 201.47 437.528 190.357 428.268 183.007C424.375 179.917 417.263 169.962 398.788 172.772C389.405 174.199 369.732 142.574 376.699 138.053V138.053Z" fill="white"/>
<path d="M79.9393 284.226C76.3339 290.532 71.3073 295.043 64.574 295.241C54.7849 295.529 43.7355 288.911 28.0461 285.997C1.88929 281.138 -14.4724 305.917 18.1254 327.75C43.2323 344.565 46.4799 344.506 46.4799 344.506C46.4799 344.506 67.865 369.485 89.2102 363.235C96.3951 361.131 98.9503 355.751 101.286 348.17C105.266 335.249 105.031 317.403 112.116 308.694C135.94 262.503 86.1792 273.313 79.9393 284.226H79.9393Z" fill="white"/>
<path d="M387.534 128.646C404.807 143.556 409.928 169.425 401.222 186.235C396.306 195.727 365.767 204.648 349.097 214.688C339.104 220.706 317.771 231.384 297.948 208.309C295.499 205.458 254.514 149.22 247.166 142.958C235.217 138.231 180.493 183.115 164.075 208.386C144.886 237.925 136.631 306.197 127.695 309.14C120.862 311.39 106.317 298.232 89.3971 289.071C76.4426 282.056 64.6179 293.795 67.1465 280.094C75.7451 233.506 96.2951 188.381 104.348 169.759C126.701 118.076 162.933 123.169 176.474 76.4126C194.534 14.0542 262.622 7.21083 294.128 42.7745C319.482 71.395 310.565 112.984 327.754 147.483C345.673 148.568 358.236 137.703 369.056 131.125C375.548 127.179 381.282 123.25 387.534 128.646Z" fill="#82BE28"/>
<path d="M86.0164 367.314C74.7068 367.314 62.0379 360.388 48.2332 346.631C46.6238 345.028 42.2107 342.7 37.5389 340.235C23.5047 332.83 2.29569 321.642 0.716581 302.982C0.232201 297.261 2.27029 292.014 6.45486 288.207C12.2908 282.898 21.5242 281.069 32.4519 283.045C38.5457 284.149 45.0115 286.143 51.2635 288.073C56.8445 289.794 62.116 291.42 65.95 291.995C72.3338 292.952 74.6687 290.956 74.6922 290.936C74.6297 290.992 74.6023 291.027 74.6023 291.027L78.9695 295.14C78.5574 295.578 74.6707 299.37 65.0603 297.929C60.7791 297.287 55.2976 295.596 49.4949 293.806C43.4119 291.929 37.1218 289.989 31.3826 288.95C22.3318 287.31 14.9139 288.624 10.492 292.646C7.7205 295.167 6.37186 298.658 6.6951 302.476C7.99783 317.866 27.4598 328.134 40.3387 334.928C45.8601 337.841 50.2205 340.142 52.4676 342.381C67.6892 357.548 81.4226 363.774 92.1775 360.373C100.249 357.826 101.6 351.991 103.887 339.033C104.268 336.868 104.663 334.629 105.136 332.237C107.731 319.107 113.054 307.873 113.28 307.402C113.994 305.908 115.783 305.275 117.279 305.988C118.774 306.702 119.407 308.492 118.694 309.987C118.642 310.096 113.466 321.037 111.022 333.401C110.561 335.733 110.172 337.94 109.795 340.075C107.599 352.518 105.866 362.346 93.9832 366.096C91.4099 366.908 88.7527 367.314 86.0164 367.314L86.0164 367.314Z" fill="black"/>
<path d="M67.1472 283.096C66.823 283.096 66.4929 283.043 66.1687 282.931C64.6023 282.39 63.7712 280.683 64.3112 279.117C67.7985 269.011 70.6023 257.866 73.57 246.066C78.781 225.349 84.1687 203.927 94.2458 183.154C107.993 154.818 115.225 141.84 156.722 104.767C171.368 91.6833 173.478 76.1999 173.498 76.0456C173.706 74.404 175.185 73.2516 176.843 73.4401C178.485 73.6442 179.652 75.1325 179.454 76.7741C179.366 77.4948 177.129 94.5827 160.72 109.242C120.073 145.555 113.023 158.195 99.6442 185.773C89.8366 205.99 84.5251 227.107 79.3884 247.53C76.3884 259.458 73.5544 270.725 69.9831 281.074C69.5544 282.316 68.3913 283.096 67.1472 283.096H67.1472Z" fill="black"/>
<path d="M123.561 313.156C117.516 313.156 112.234 308.366 107.088 303.698C101.917 299.009 96.0556 293.694 88.7206 291.995C87.1064 291.621 86.1005 290.01 86.4746 288.396C86.8486 286.781 88.4658 285.779 90.0742 286.15C98.9306 288.2 105.405 294.073 111.118 299.254C117.814 305.326 121.825 308.656 126.384 306.443C129.32 305.016 133.014 289.283 135.98 276.642C141.455 253.32 148.952 221.379 164.144 201.476C186.754 171.854 203.371 161.489 226.37 147.143L227.072 146.705C228.48 145.828 230.329 146.256 231.205 147.662C232.082 149.069 231.653 150.918 230.248 151.795L229.546 152.234C207.086 166.242 190.858 176.364 168.913 205.116C154.5 224 147.173 255.218 141.822 278.013C136.884 299.052 134.276 309.279 129.007 311.839C127.118 312.757 125.308 313.156 123.561 313.156H123.561Z" fill="black"/>
<path d="M457.475 201.978C444.858 201.978 430.551 189.059 422.615 180.699C421.475 179.496 421.524 177.598 422.726 176.457C423.926 175.318 425.825 175.367 426.967 176.568C446.292 196.928 456.838 196.639 460.47 195.567C464.203 194.469 465.139 191.537 465.368 190.328C468.182 175.474 461.028 165.254 452.745 153.42C448.088 146.766 443.271 139.885 439.523 131.423C434.019 118.994 425.502 110.946 416.739 109.892C411.029 109.208 405.658 111.699 401.642 116.914C392.824 128.367 389.889 130.75 389.037 131.244L386.031 126.05C386.031 126.05 385.979 126.073 385.867 126.155C385.972 126.077 388.459 124.2 396.888 113.254C402.246 106.295 409.54 102.986 417.456 103.935C428.339 105.244 438.64 114.611 445.01 128.994C448.521 136.922 453.168 143.56 457.661 149.98C466.345 162.387 474.547 174.106 471.263 191.446C470.358 196.22 466.956 199.913 462.162 201.324C460.638 201.772 459.069 201.978 457.475 201.978V201.978Z" fill="black"/>
<path d="M337.837 164.553C336.975 164.553 336.118 164.182 335.526 163.467C328.529 155.024 316.817 140.893 314.188 112.433C311.609 84.5145 303.634 60.4168 291.731 44.5779C290.736 43.2527 291.002 41.3719 292.326 40.3768C293.651 39.3826 295.531 39.6482 296.528 40.9725C309.089 57.6883 317.483 82.8709 320.162 111.881C322.62 138.493 333.591 151.729 340.145 159.638C341.202 160.914 341.026 162.805 339.749 163.862C339.19 164.326 338.511 164.553 337.837 164.553V164.553Z" fill="black"/>
<path d="M323.907 226.079C309.793 226.08 297.48 213.143 288.311 201.838C279.74 191.271 270.931 179.216 263.16 168.58C255.283 157.8 248.48 148.49 245.052 145.087C236.345 136.447 230.729 138.121 230.494 138.197C228.948 138.793 227.25 138.006 226.655 136.459C226.06 134.913 226.87 133.163 228.416 132.57C229.338 132.212 237.788 129.424 249.279 140.829C253.044 144.567 259.646 153.602 268.004 165.04C275.734 175.619 284.496 187.609 292.971 198.059C305.257 213.207 315.178 220.18 324.145 220.077C333.755 219.944 343.741 214.342 357.562 206.589C367.265 201.146 379.342 194.371 394.267 188.018C400.497 185.367 402.281 177.766 402.79 173.471C404.383 160.021 398.444 140.478 385.746 131.056C381.121 127.626 374.692 131.157 363.73 137.692C357.966 141.128 351.434 145.023 344.018 148.087C342.491 148.721 340.732 147.994 340.1 146.46C339.467 144.929 340.196 143.175 341.727 142.542C348.738 139.645 355.07 135.869 360.658 132.538C371.713 125.949 381.263 120.26 389.32 126.238C404.31 137.36 410.518 159.239 408.748 174.177C407.605 183.82 403.297 190.696 396.617 193.539C381.993 199.764 370.573 206.17 360.498 211.823C345.905 220.008 335.362 225.922 324.229 226.077C324.122 226.078 324.014 226.079 323.907 226.079Z" fill="black"/>
</svg>
