<svg width="334" height="421" viewBox="0 0 334 421" fill="none" xmlns="http://www.w3.org/2000/svg">
<path d="M97.0581 275.406C93.7921 281.113 67.7981 335.226 61.6988 335.405C52.8313 335.666 42.8221 329.676 28.6098 327.038C4.91549 322.64 -9.90582 345.068 19.6231 364.828C42.3662 380.048 45.3081 379.995 45.3081 379.995C45.3081 379.995 66.4213 404.481 86.6838 395.494C98.0597 390.449 100.05 366.782 102.166 359.92C105.771 348.225 120.009 302.736 126.427 294.854C148.008 253.046 102.711 265.528 97.0581 275.406L97.0581 275.406Z" fill="white"/>
<path d="M223.538 283.759C225.495 295.658 228.318 307.72 228.034 319.897C227.293 351.747 206.383 362.418 205.118 369.354C203.601 377.675 193.016 391.869 203.039 399.334C221.244 412.894 270.308 382.639 277.694 355.923C278.88 351.413 267.86 329.462 259.997 294.99C259.22 291.586 258.494 288.025 257.812 284.348C252.912 257.936 213.855 224.867 223.538 283.759H223.538Z" fill="white"/>
<path d="M139.584 17.5997L224.979 0C245.124 21.4302 251.035 53.6215 246.736 93.5298C246.514 117.933 235.639 153.269 242.496 182.407C250.245 215.332 258.647 243.611 263.892 280.2C254.076 294.653 240.168 297.044 224.979 295.655L185.121 123.627L156.545 200.713C148.536 238.284 139.785 273.324 127.54 296.454C115.384 280.093 102.349 272.683 88.6384 272.152C84.5775 271.994 81.7003 268.141 82.7438 264.216L140.488 47.0241L139.584 17.5997Z" fill="#2D8C3C"/>
<path d="M87.3815 261.689C87.149 261.689 86.9126 261.661 86.6772 261.605C85.0654 261.217 84.0729 259.596 84.4607 257.985L121.15 105.445C122.351 100.69 124.54 93.0552 126.858 84.9717C131.216 69.7719 137.802 46.8022 137.463 43.2005C137.457 43.1409 137.453 43.0813 137.451 43.0217L136.586 17.7027C136.529 16.0459 137.825 14.6578 139.482 14.6012C141.118 14.5572 142.527 15.8408 142.583 17.4975L143.447 42.7463C143.781 47.2945 139.372 63.1029 132.627 86.6265C130.323 94.6621 128.147 102.252 126.977 106.881L90.2964 259.388C89.9653 260.763 88.7364 261.689 87.3815 261.689Z" fill="black"/>
<path d="M77.6161 400.924C67.2947 400.924 55.7531 394.628 43.1908 382.122C41.7626 380.7 37.7829 378.602 33.5698 376.381C20.8023 369.65 1.50844 359.479 0.0646539 342.435C-0.381769 337.169 1.49477 332.338 5.34943 328.831C10.7016 323.964 19.1514 322.275 29.1436 324.085C33.6391 324.899 38.3446 326.726 42.8948 328.493C48.754 330.771 54.8105 333.127 58.3008 332.242C67.5447 329.909 82.3021 299.744 89.4331 281.278C90.0309 279.734 91.7717 278.966 93.3132 279.56C94.8595 280.157 95.6293 281.895 95.0324 283.44C93.0309 288.625 75.0362 334.207 59.77 338.062C54.4217 339.409 47.7683 336.825 40.7213 334.088C36.4359 332.423 32.0039 330.701 28.075 329.991C19.9632 328.523 13.3274 329.687 9.38775 333.271C6.94758 335.492 5.75972 338.567 6.04496 341.929C7.21133 355.701 24.7576 364.951 36.3685 371.072C41.3914 373.72 45.3594 375.811 47.4255 377.869C61.1346 391.516 73.4762 397.126 83.1129 394.084C89.6099 392.036 94.7814 376.334 98.5589 364.869C100.134 360.086 101.622 355.568 103.157 351.902C108.012 340.311 117.792 314.109 124.727 295.409C124.786 295.247 125.023 294.714 125.416 293.849C137.248 267.822 145.379 242.131 148.312 221.509C148.545 219.868 150.065 218.727 151.705 218.961C153.346 219.193 154.487 220.713 154.253 222.353C151.244 243.527 142.942 269.799 130.879 296.333C130.595 296.96 130.407 297.367 130.339 297.535C123.401 316.247 113.591 342.527 108.694 354.221C107.249 357.669 105.796 362.079 104.259 366.746C99.3863 381.539 94.3477 396.835 84.9181 399.809C82.559 400.552 80.1227 400.924 77.6161 400.924H77.6161Z" fill="black"/>
<path d="M156.075 205.521C155.829 205.521 155.577 205.489 155.327 205.426C153.722 205.015 152.754 203.379 153.166 201.773C163.234 162.495 182.225 122.723 182.417 122.326C183.134 120.832 184.928 120.203 186.42 120.92C187.914 121.637 188.544 123.43 187.826 124.923C187.639 125.316 168.898 164.572 158.98 203.264C158.632 204.619 157.412 205.521 156.075 205.521V205.521Z" fill="black"/>
<path d="M214.31 380.33C213.683 380.33 213.078 380.3 212.492 380.237C206.476 379.595 202.699 375.73 202.13 369.632C201.977 367.982 203.189 366.52 204.84 366.366C206.473 366.21 207.952 367.424 208.106 369.076C208.414 372.373 209.916 373.927 213.129 374.269C226.52 375.7 256.078 355.49 260.333 341.997C260.832 340.416 262.513 339.54 264.098 340.038C265.678 340.536 266.555 342.222 266.057 343.802C261.194 359.222 230.815 380.33 214.31 380.33H214.31Z" fill="black"/>
<path d="M213.499 405.064C203.605 405.064 198.729 400.588 196.344 396.516C191.167 387.68 198.459 374.946 202.378 368.104L202.515 367.864C204.308 364.732 206.561 361.462 208.946 358C216.323 347.293 224.685 335.158 225.036 319.828C226.185 297.925 204.108 210.943 189.498 153.386C186.733 142.492 184.121 132.203 182.029 123.774C180.203 116.419 175.889 109.813 169.882 105.177C168.57 104.164 168.327 102.28 169.339 100.968C170.353 99.6558 172.239 99.4155 173.549 100.426C180.623 105.886 185.704 113.665 187.854 122.329C189.942 130.741 192.552 141.024 195.316 151.909C210.893 213.28 232.226 297.33 231.033 320.054C230.645 337.087 221.353 350.57 213.888 361.406C211.576 364.761 209.391 367.931 207.724 370.845L207.586 371.086C204.748 376.042 198.103 387.646 201.522 393.482C204.853 399.168 212.16 399.493 217.7 398.771C237.646 396.161 268.177 375.45 273.27 357.029C274.779 351.29 269.34 336.416 266.727 329.267C266.045 327.403 265.507 325.931 265.163 324.863C260.484 310.306 257.837 300.249 255.723 288.996C255.417 287.368 256.489 285.799 258.118 285.493C259.739 285.189 261.315 286.26 261.621 287.889C263.685 298.874 266.28 308.726 270.878 323.026C271.184 323.981 271.73 325.476 272.363 327.206C276.572 338.716 280.908 351.583 279.065 358.592C273.261 379.583 240.354 401.859 218.478 404.722C216.691 404.957 215.035 405.064 213.499 405.064H213.499Z" fill="black"/>
<path d="M88.8674 377.132C88.5753 377.132 88.2813 377.127 87.9834 377.118C72.5334 376.648 51.6825 364.266 33.5668 344.807C32.4365 343.594 32.5049 341.696 33.7182 340.567C34.9314 339.436 36.8294 339.505 37.9587 340.718C58.3554 362.626 77.2683 370.787 88.167 371.12C92.347 371.232 95.6947 370.248 97.8174 368.229C99.0179 367.085 100.918 367.134 102.06 368.336C103.202 369.537 103.154 371.436 101.953 372.578C98.8108 375.566 94.2997 377.132 88.8674 377.132Z" fill="black"/>
<path d="M233.31 299.449C229.1 299.449 225.561 298.265 222.969 295.923C221.738 294.812 221.641 292.915 222.752 291.686C223.862 290.454 225.76 290.356 226.989 291.469C229.628 293.847 234.645 294.092 240.758 292.13C249.482 289.331 256.264 283.529 257.36 279.697C257.304 251.154 250.768 226.099 241.549 193.868C236.624 176.641 239.316 147.001 241.692 120.849C242.627 110.56 243.51 100.841 243.737 93.438C243.788 91.7812 245.205 90.4898 246.828 90.5299C248.485 90.5807 249.787 91.9649 249.737 93.6216C249.503 101.205 248.612 111.011 247.669 121.393C245.457 145.752 242.702 176.068 247.321 192.217C256.713 225.06 263.362 250.586 263.362 280.063C263.362 280.279 263.338 280.494 263.292 280.705C261.686 288.04 251.428 295.011 242.592 297.846C239.253 298.916 236.13 299.449 233.31 299.449Z" fill="black"/>
<path d="M126.429 297.856C125.286 297.856 124.194 297.199 123.693 296.09C120.721 289.516 107.255 277.402 96.9047 275.45C93.6372 274.832 91.1364 275.342 89.4758 276.962C88.2918 278.119 86.3918 278.099 85.2323 276.911C84.0747 275.725 84.0972 273.825 85.2831 272.667C87.4449 270.558 91.4041 268.307 98.0174 269.552C109.949 271.802 125.115 284.665 129.161 293.618C129.844 295.128 129.173 296.905 127.663 297.588C127.262 297.77 126.842 297.856 126.429 297.856Z" fill="black"/>
<path d="M246.738 96.5315C246.446 96.5315 246.149 96.4885 245.855 96.3977C244.272 95.9112 243.382 94.232 243.869 92.6476C251.327 68.3854 241.582 24.8676 229.101 12.5299C227.923 11.3645 227.912 9.46455 229.077 8.28548C230.242 7.10837 232.142 7.09568 233.321 8.26107C240.165 15.0268 246.326 29.4148 249.804 46.7491C253.431 64.8297 253.359 82.2021 249.605 94.4118C249.209 95.7022 248.021 96.5315 246.738 96.5315V96.5315Z" fill="black"/>
</svg>
