<svg width="334" height="421" viewBox="0 0 334 421" fill="none" xmlns="http://www.w3.org/2000/svg">
<path d="M97.0292 275.324C93.7641 281.029 67.7779 335.126 61.6804 335.305C52.8155 335.566 42.8093 329.577 28.6013 326.94C4.91403 322.544 -9.90286 344.965 19.6172 364.72C42.3536 379.935 45.2946 379.882 45.2946 379.882C45.2946 379.882 66.4015 404.36 86.658 395.376C98.0305 390.333 100.02 366.673 102.135 359.813C105.74 348.121 119.973 302.646 126.389 294.766C147.964 252.97 102.68 265.449 97.0292 275.324L97.0292 275.324Z" fill="white"/>
<path d="M223.474 283.675C225.429 295.569 227.197 307.649 227.968 319.801C229.712 347.289 208.989 363.554 205.059 369.244C200.252 376.202 192.961 391.752 202.98 399.215C221.18 412.771 270.229 382.525 277.614 355.817C278.799 351.308 267.783 329.363 259.921 294.902C259.145 291.5 258.419 287.939 257.737 284.264C252.839 257.86 213.793 224.8 223.474 283.675Z" fill="white"/>
<path d="M139.543 17.5944L224.912 0C245.051 21.4238 250.96 53.6055 246.662 93.502C246.441 117.897 235.569 153.223 242.424 182.352C250.17 215.268 258.57 243.538 263.813 280.117C254 294.565 240.097 296.956 224.912 295.567L185.065 123.59L158.913 200.591C150.907 238.151 139.743 273.243 127.502 296.365C115.35 280.009 102.319 272.602 88.612 272.07C83.4213 283.44 81.814 267.391 82.7191 264.137L140.446 47.0101L139.543 17.5944H139.543Z" fill="black"/>
<path d="M87.3574 261.61C87.125 261.61 86.8886 261.583 86.6533 261.526C85.0419 261.139 84.0498 259.519 84.4375 257.908L121.116 105.413C122.316 100.661 124.504 93.0304 126.82 84.9513C131.178 69.754 137.763 46.7892 137.423 43.1886C137.417 43.129 137.413 43.0685 137.411 43.0089L136.546 17.6974C136.489 16.0411 137.785 14.6534 139.441 14.5968C141.077 14.5528 142.485 15.8361 142.542 17.4923L143.405 42.7335C143.74 47.2804 139.332 63.0861 132.588 86.6046C130.285 94.6368 128.11 102.223 126.941 106.849L90.2715 259.311C89.9404 260.686 88.7119 261.61 87.3574 261.61L87.3574 261.61Z" fill="black"/>
<path d="M77.593 400.805C67.2746 400.805 55.7365 394.511 43.1789 382.008C41.7512 380.587 37.7726 378.489 33.5607 376.27C20.7971 369.541 1.50897 359.372 0.0646346 342.333C-0.381655 337.068 1.49432 332.239 5.34783 328.734C10.6984 323.864 19.1515 322.182 29.1359 323.988C33.6301 324.802 38.3332 326.629 42.882 328.396C48.7394 330.671 54.7961 333.023 58.2834 332.143C67.5246 329.811 82.2775 299.654 89.4064 281.194C90.0041 279.65 91.7433 278.883 93.2853 279.477C94.8312 280.073 95.6008 281.811 95.0041 283.356C93.0031 288.539 75.0139 334.107 59.7521 337.961C54.4035 339.307 47.7541 336.725 40.7092 333.988C36.425 332.324 31.9943 330.603 28.0676 329.893C19.9602 328.426 13.3244 329.589 9.38495 333.172C6.9455 335.392 5.758 338.466 6.04315 341.827C7.21014 355.596 24.7512 364.843 36.3586 370.961C41.3801 373.608 45.3459 375.699 47.4123 377.756C61.1164 391.399 73.4563 397.008 83.0881 393.967C89.5832 391.919 94.7541 376.222 98.5295 364.761C100.104 359.979 101.592 355.462 103.126 351.797C107.993 340.179 117.764 314.001 124.69 295.321C124.749 295.159 124.986 294.626 125.378 293.762C137.207 267.742 145.336 242.059 148.268 221.443C148.5 219.803 150.029 218.662 151.659 218.896C153.3 219.128 154.441 220.647 154.207 222.287C151.198 243.454 142.9 269.719 130.84 296.244C130.556 296.871 130.368 297.278 130.3 297.446C123.37 316.138 113.571 342.394 108.66 354.115C107.217 357.563 105.765 361.971 104.228 366.638C99.3566 381.425 94.3205 396.717 84.8928 399.689C82.5344 400.433 80.0988 400.805 77.593 400.805L77.593 400.805Z" fill="black"/>
<path d="M156.028 205.461C155.782 205.461 155.531 205.43 155.281 205.366C153.677 204.954 152.709 203.321 153.12 201.715C163.186 162.449 182.172 122.689 182.363 122.291C183.081 120.798 184.875 120.169 186.365 120.886C187.859 121.603 188.489 123.395 187.771 124.888C187.584 125.281 168.848 164.525 158.932 203.205C158.585 204.56 157.365 205.461 156.028 205.461V205.461Z" fill="black"/>
<path d="M214.246 380.218C213.62 380.218 213.014 380.188 212.429 380.126C206.414 379.484 202.638 375.62 202.07 369.524C201.916 367.875 203.128 366.413 204.779 366.258C206.418 366.103 207.89 367.316 208.044 368.967C208.352 372.264 209.853 373.817 213.065 374.16C226.458 375.592 256.002 355.386 260.256 341.897C260.756 340.316 262.445 339.441 264.02 339.938C265.6 340.437 266.477 342.122 265.979 343.702C261.117 359.117 230.745 380.218 214.246 380.218H214.246Z" fill="black"/>
<path d="M213.435 404.943C203.542 404.943 198.669 400.469 196.285 396.398C191.11 387.567 198.397 374.839 202.313 368L202.453 367.754C204.245 364.623 206.497 361.355 208.882 357.894C216.257 347.19 224.617 335.058 224.967 319.732C226.116 297.836 204.045 210.88 189.44 153.34C186.676 142.449 184.065 132.163 181.974 123.737C180.148 116.383 175.834 109.78 169.829 105.146C168.518 104.133 168.275 102.249 169.287 100.938C170.301 99.6261 172.186 99.3858 173.495 100.396C180.567 105.854 185.646 113.629 187.796 122.292C189.884 130.702 192.494 140.982 195.256 151.863C210.828 213.216 232.156 297.241 230.962 319.958C230.575 336.986 221.285 350.466 213.823 361.298C211.511 364.652 209.328 367.821 207.66 370.734L207.52 370.982C204.684 375.934 198.043 387.532 201.46 393.364C204.79 399.049 212.094 399.374 217.635 398.652C237.576 396.042 268.096 375.338 273.187 356.923C274.696 351.186 269.258 336.316 266.646 329.169C265.964 327.306 265.426 325.834 265.082 324.766C260.406 310.218 257.76 300.165 255.646 288.91C255.34 287.282 256.411 285.714 258.04 285.408C259.662 285.104 261.237 286.175 261.542 287.803C263.607 298.791 266.201 308.64 270.795 322.93C271.102 323.885 271.648 325.379 272.281 327.108C276.488 338.615 280.823 351.479 278.98 358.485C273.179 379.47 240.283 401.739 218.413 404.602C216.627 404.836 214.97 404.943 213.435 404.943H213.435Z" fill="black"/>
<path d="M88.8399 377.02C88.5479 377.02 88.254 377.015 87.9561 377.006C72.5108 376.534 51.6661 364.157 33.5567 344.704C32.4269 343.491 32.4952 341.594 33.7081 340.465C34.92 339.335 36.8175 339.403 37.9474 340.616C58.337 362.518 77.2442 370.677 88.1397 371.009C92.3224 371.121 95.6651 370.138 97.7872 368.119C98.9874 366.976 100.887 367.025 102.028 368.226C103.17 369.427 103.122 371.325 101.922 372.467C98.7804 375.454 94.2706 377.02 88.8399 377.02Z" fill="black"/>
<path d="M233.24 299.359C229.032 299.359 225.494 298.176 222.902 295.835C221.672 294.725 221.575 292.828 222.685 291.599C223.795 290.367 225.692 290.269 226.922 291.382C229.558 293.76 234.575 294.004 240.686 292.043C249.407 289.245 256.187 283.444 257.283 279.613C257.227 251.081 250.693 226.033 241.478 193.81C236.554 176.588 239.245 146.956 241.62 120.812C242.555 110.526 243.437 100.81 243.664 93.4101C243.716 91.7538 245.094 90.4628 246.755 90.5029C248.411 90.5536 249.713 91.9374 249.662 93.5937C249.429 101.174 248.539 110.976 247.596 121.355C245.384 145.708 242.631 176.016 247.248 192.16C256.637 224.995 263.283 250.514 263.283 279.979C263.283 280.195 263.26 280.41 263.214 280.621C261.608 287.954 251.353 294.923 242.519 297.757C239.182 298.827 236.059 299.359 233.24 299.359Z" fill="black"/>
<path d="M126.39 297.767C125.248 297.767 124.156 297.111 123.655 296.002C120.684 289.431 107.222 277.319 96.8749 275.368C93.6083 274.754 91.1092 275.26 89.4491 276.88C88.2664 278.037 86.3661 278.016 85.2069 276.829C84.0497 275.643 84.0721 273.744 85.2577 272.587C87.4178 270.477 91.3836 268.227 97.9871 269.472C109.915 271.722 125.076 284.581 129.122 293.531C129.805 295.041 129.134 296.817 127.624 297.5C127.223 297.681 126.804 297.767 126.39 297.767V297.767Z" fill="black"/>
<path d="M246.664 96.5027C246.372 96.5027 246.075 96.4598 245.781 96.3689C244.198 95.8826 243.308 94.2039 243.796 92.6199C251.251 68.365 241.51 24.8592 229.033 12.5262C227.855 11.3611 227.845 9.46172 229.009 8.28301C230.174 7.10625 232.072 7.09356 233.252 8.2586C240.094 15.0223 246.253 29.4061 249.729 46.7352C253.354 64.8104 253.282 82.1775 249.53 94.3836C249.134 95.6736 247.946 96.5027 246.664 96.5027V96.5027Z" fill="black"/>
</svg>
