<svg width="334" height="421" viewBox="0 0 334 421" fill="none" xmlns="http://www.w3.org/2000/svg">
<path d="M97.0581 275.406C93.7921 281.113 67.7981 335.226 61.6988 335.405C52.8313 335.666 42.8221 329.676 28.6098 327.038C4.91549 322.64 -9.90582 345.068 19.6231 364.828C42.3662 380.048 45.3081 379.995 45.3081 379.995C45.3081 379.995 66.4213 404.481 86.6838 395.494C98.0597 390.449 100.05 366.782 102.166 359.92C105.771 348.225 120.009 302.736 126.427 294.854C148.008 253.046 102.711 265.528 97.0581 275.406L97.0581 275.406Z" fill="white"/>
<path d="M33.5042 330.03C31.9159 333.626 31.9387 337.179 35.7632 340.63L60.7158 363.947L82.5301 374.131L98.6544 371.416C95.9061 381.802 92.594 391.118 86.6849 395.494L77.143 397.475C70.1695 398.801 61.9177 396.383 53.7544 389.197L40.4436 376.675C31.3922 372.525 23.0568 368.206 16.9182 363.371C9.14466 358.768 3.00971 353.12 3.20521 343.434C2.8252 337.201 3.15732 331.38 9.83261 329.235C17.1323 325.265 25.0674 325.851 33.5042 330.03Z" fill="#2D8C3C"/>
<path d="M223.539 283.759C225.496 295.658 228.369 307.721 228.035 319.897C227.159 351.826 206.256 362.47 205.119 369.354C203.741 377.699 193.017 391.869 203.04 399.334C221.245 412.894 270.309 382.639 277.695 355.923C278.882 351.413 267.862 329.462 259.998 294.99C259.221 291.586 258.495 288.025 257.813 284.348C252.913 257.936 213.856 224.867 223.539 283.759H223.539Z" fill="white"/>
<path d="M205.883 369.755C205.883 369.755 206.756 377.782 211.645 378.829C216.534 379.876 228.297 376.602 242.67 368.359C257.043 360.117 270.483 331.566 270.483 331.566C274.592 336.142 275.748 344.248 276.506 352.83C276.77 365.597 268.226 375.801 255.763 384.864C255.763 384.864 231.9 401.43 215.487 402.056C202.74 402.682 200.134 398.915 198.119 390.53C196.105 382.144 205.883 369.755 205.883 369.755Z" fill="#2D8C3C"/>
<path d="M139.586 17.5997L224.981 0C245.126 21.4302 251.037 53.6215 246.738 93.5298C246.516 117.933 235.641 153.269 242.498 182.407C250.247 215.332 258.649 243.611 263.894 280.2C254.078 294.653 240.17 297.044 224.981 295.655L185.123 123.627L156.547 200.713C148.538 238.284 139.787 273.324 127.542 296.454C115.386 280.093 102.351 272.683 88.6404 272.152C84.5795 271.994 81.7022 268.141 82.7457 264.216L140.49 47.0241L139.586 17.5997H139.586Z" fill="white"/>
<path d="M87.3834 261.687C87.1509 261.687 86.9145 261.659 86.6791 261.603C85.0673 261.215 84.0748 259.594 84.4626 257.983L121.152 105.443C122.353 100.689 124.541 93.0562 126.858 84.9747C131.217 69.7729 137.804 46.8012 137.464 43.1995C137.458 43.1399 137.454 43.0794 137.452 43.0198L136.587 17.7007C136.53 16.044 137.826 14.6559 139.483 14.5992C141.143 14.5552 142.527 15.8388 142.584 17.4956L143.448 42.7443C143.783 47.2926 139.374 63.1029 132.627 86.6285C130.324 94.6631 128.149 102.251 126.979 106.879L90.2984 259.386C89.9672 260.761 88.7384 261.687 87.3835 261.687L87.3834 261.687Z" fill="black"/>
<path d="M77.6161 400.924C67.2947 400.924 55.7531 394.628 43.1918 382.122C41.7636 380.7 37.7839 378.602 33.5707 376.382C20.8033 369.651 1.50942 359.479 0.0646539 342.435C-0.381769 337.169 1.49477 332.338 5.34943 328.832C10.7016 323.961 19.1563 322.278 29.1446 324.085C33.6401 324.899 38.3446 326.726 42.8948 328.493C48.754 330.77 54.8144 333.123 58.3008 332.242C67.5447 329.909 82.3021 299.744 89.4331 281.278C90.0309 279.734 91.7697 278.966 93.3132 279.56C94.8595 280.157 95.6293 281.895 95.0324 283.44C93.0309 288.625 75.0362 334.207 59.77 338.062C54.4207 339.408 47.7674 336.825 40.7213 334.088C36.4359 332.423 32.0039 330.701 28.0759 329.991C19.9661 328.524 13.3274 329.687 9.38775 333.271C6.94758 335.492 5.75972 338.567 6.04496 341.929C7.2123 355.702 24.7585 364.952 36.3694 371.072C41.3924 373.72 45.3594 375.811 47.4264 377.869C61.1346 391.516 73.4791 397.126 83.1129 394.084C89.6099 392.036 94.7824 376.334 98.5589 364.87C100.134 360.086 101.622 355.568 103.157 351.902C108.026 340.28 117.799 314.095 124.727 295.409C124.786 295.247 125.023 294.714 125.416 293.849C137.248 267.822 145.379 242.131 148.312 221.509C148.544 219.868 150.073 218.727 151.705 218.961C153.346 219.193 154.487 220.713 154.253 222.353C151.244 243.527 142.942 269.799 130.879 296.333C130.595 296.96 130.407 297.367 130.339 297.535C123.407 316.232 113.604 342.496 108.693 354.221C107.249 357.669 105.796 362.079 104.259 366.747C99.3863 381.539 94.3486 396.835 84.9181 399.809C82.559 400.552 80.1227 400.924 77.6161 400.924L77.6161 400.924Z" fill="black"/>
<path d="M156.075 205.521C155.829 205.521 155.577 205.489 155.327 205.426C153.722 205.014 152.754 203.379 153.166 201.773C163.235 162.495 182.226 122.723 182.418 122.326C183.135 120.832 184.931 120.203 186.421 120.92C187.915 121.637 188.545 123.43 187.827 124.923C187.64 125.316 168.899 164.572 158.98 203.264C158.632 204.619 157.412 205.521 156.075 205.521V205.521Z" fill="black"/>
<path d="M214.312 380.33C213.685 380.33 213.08 380.3 212.494 380.237C206.478 379.595 202.7 375.73 202.132 369.632C201.979 367.982 203.191 366.52 204.842 366.366C206.489 366.21 207.953 367.424 208.108 369.076C208.416 372.373 209.917 373.927 213.13 374.269C226.545 375.703 256.081 355.49 260.336 341.997C260.835 340.416 262.523 339.54 264.101 340.038C265.681 340.537 266.558 342.222 266.06 343.802C261.196 359.222 230.816 380.33 214.312 380.33H214.312Z" fill="black"/>
<path d="M213.501 405.064C203.605 405.064 198.731 400.588 196.344 396.516C191.169 387.683 198.458 374.951 202.375 368.11L202.516 367.864C204.308 364.732 206.561 361.462 208.946 358C216.324 347.293 224.686 335.158 225.036 319.828C226.186 297.921 204.104 210.927 189.492 153.361C186.73 142.477 184.121 132.196 182.029 123.774C180.203 116.418 175.889 109.813 169.882 105.177C168.57 104.164 168.327 102.28 169.34 100.968C170.353 99.6558 172.239 99.4155 173.549 100.426C180.623 105.885 185.703 113.663 187.854 122.329C189.942 130.734 192.549 141.008 195.311 151.884C210.89 213.265 232.228 297.327 231.033 320.054C230.645 337.087 221.353 350.57 213.888 361.406C211.576 364.761 209.392 367.931 207.724 370.845L207.584 371.092C204.747 376.046 198.104 387.648 201.522 393.482C204.854 399.168 212.157 399.493 217.702 398.771C237.648 396.16 268.178 375.45 273.27 357.029C274.78 351.29 269.34 336.416 266.727 329.267C266.046 327.403 265.507 325.931 265.163 324.863C260.485 310.31 257.839 300.255 255.724 288.996C255.418 287.368 256.49 285.799 258.119 285.493C259.737 285.189 261.316 286.26 261.622 287.889C263.687 298.88 266.282 308.732 270.878 323.026C271.185 323.981 271.731 325.476 272.364 327.206C276.572 338.716 280.908 351.583 279.065 358.592C273.263 379.583 240.356 401.859 218.481 404.722C216.694 404.957 215.036 405.064 213.501 405.064H213.501Z" fill="black"/>
<path d="M88.8664 377.132C88.5744 377.132 88.2803 377.127 87.9824 377.118C72.5325 376.647 51.6815 364.266 33.5668 344.807C32.4365 343.594 32.5049 341.696 33.7182 340.567C34.9314 339.436 36.8294 339.505 37.9587 340.718C58.3544 362.626 77.2673 370.787 88.166 371.12C92.3362 371.232 95.6927 370.248 97.8164 368.229C99.0169 367.085 100.917 367.134 102.059 368.336C103.201 369.537 103.153 371.436 101.952 372.578C98.8098 375.566 94.2987 377.132 88.8664 377.132Z" fill="black"/>
<path d="M233.31 299.447C229.1 299.447 225.561 298.263 222.969 295.921C221.738 294.811 221.641 292.913 222.752 291.684C223.862 290.452 225.76 290.354 226.989 291.467C229.627 293.845 234.646 294.09 240.758 292.128C249.482 289.329 256.264 283.527 257.36 279.695C257.304 251.154 250.768 226.099 241.55 193.866C236.624 176.639 239.316 146.998 241.692 120.847C242.627 110.557 243.51 100.839 243.737 93.436C243.788 91.7793 245.199 90.4879 246.828 90.5279C248.485 90.5787 249.787 91.9629 249.736 93.6196C249.503 101.202 248.613 111.008 247.669 121.39C245.457 145.749 242.703 176.066 247.322 192.215C256.713 225.06 263.362 250.586 263.362 280.061C263.362 280.277 263.338 280.492 263.292 280.703C261.686 288.038 251.428 295.009 242.592 297.844C239.253 298.914 236.13 299.447 233.31 299.447Z" fill="black"/>
<path d="M126.428 297.856C125.285 297.856 124.193 297.2 123.692 296.09C120.72 289.517 107.254 277.402 96.9038 275.45C93.6372 274.836 91.1354 275.342 89.4758 276.962C88.2918 278.12 86.3909 278.099 85.2323 276.912C84.0747 275.726 84.0972 273.826 85.2831 272.668C87.4429 270.558 91.4129 268.307 98.0164 269.552C109.948 271.803 125.113 284.666 129.16 293.619C129.843 295.129 129.172 296.906 127.662 297.589C127.261 297.77 126.841 297.856 126.428 297.856V297.856Z" fill="black"/>
<path d="M246.737 96.5315C246.445 96.5315 246.148 96.4885 245.854 96.3977C244.271 95.9112 243.381 94.232 243.868 92.6476C251.326 68.3854 241.582 24.8666 229.101 12.5299C227.923 11.3645 227.912 9.46455 229.077 8.28548C230.242 7.10837 232.142 7.09568 233.321 8.26107C240.165 15.0268 246.326 29.4148 249.804 46.7491C253.43 64.8297 253.358 82.2021 249.605 94.4118C249.208 95.7022 248.02 96.5315 246.737 96.5315V96.5315Z" fill="black"/>
</svg>
