<svg width="345" height="400" viewBox="0 0 345 400" fill="none" xmlns="http://www.w3.org/2000/svg">
<path d="M326.132 105.242L326.136 105.234L240.284 73.6387L101.142 135.449L99.252 228.233L228.79 279.687C228.79 279.687 238.807 279.445 245.467 274.226L312.916 220.782C325.106 211.229 331.531 190.445 331.531 178.263V115.456C331.531 109.929 329.492 106.479 326.132 105.242Z" fill="white"/>
<path d="M231.205 283.462C229.319 283.462 227.574 283.088 226.014 282.328C223.544 281.126 219.4 277.828 219.4 269.252V203.615C219.4 189.87 230.037 170.77 243.616 160.13L306.614 110.764C314.673 104.447 322.439 102.357 327.918 105.024C330.388 106.227 334.531 109.524 334.531 118.101V183.737C334.531 197.482 323.895 216.583 310.315 227.224L247.317 276.589C241.554 281.106 235.939 283.462 231.205 283.462ZM310.315 115.486L247.317 164.853C235.232 174.321 225.4 191.71 225.4 203.615V269.252C225.4 272.037 225.962 275.63 228.64 276.934C231.876 278.512 237.616 276.568 243.616 271.866L306.614 222.501C318.699 213.031 328.531 195.642 328.531 183.737V118.101C328.531 115.315 327.97 111.723 325.292 110.419C322.056 108.841 316.316 110.786 310.315 115.486Z" fill="black"/>
<path d="M228.038 282.933C227.675 282.933 227.306 282.866 226.946 282.726L125.187 242.943C123.644 242.339 122.883 240.6 123.486 239.056C124.09 237.515 125.829 236.752 127.373 237.355L229.132 277.138C230.675 277.741 231.436 279.481 230.833 281.025C230.37 282.208 229.237 282.933 228.038 282.933Z" fill="black"/>
<path d="M325.894 110.419C325.55 110.419 325.2 110.36 324.858 110.234L235.139 77.2152C233.584 76.6429 232.787 74.9183 233.359 73.3636C233.932 71.808 235.66 71.0111 237.211 71.5843L326.931 104.603C328.485 105.175 329.282 106.9 328.71 108.454C328.264 109.667 327.115 110.419 325.894 110.419V110.419Z" fill="black"/>
<path d="M128.681 255.189C131.38 269.943 106.264 307.186 106.731 326.414C107.05 339.562 127.308 346.758 146.634 341.194C170.937 334.196 180.671 316.219 184.684 300.223C188.697 284.227 190.104 267.555 179.711 255.224L128.681 255.189Z" fill="white"/>
<path d="M131.8 344.234C124.733 344.234 118.133 342.907 112.948 340.17C106.707 336.876 103.189 331.856 102.775 325.653C101.675 309.185 110.719 294.495 117.988 282.692C120.877 278 123.605 273.57 125.23 269.765C125.88 268.241 127.644 267.532 129.167 268.184C130.691 268.834 131.398 270.597 130.748 272.12C128.948 276.336 126.106 280.952 123.097 285.838C115.922 297.491 107.789 310.698 108.761 325.252C109.034 329.327 111.385 332.561 115.75 334.865C126.735 340.663 146.224 338.794 160.114 330.607C180.102 318.821 186.248 284.796 180.944 272.407C180.292 270.883 180.998 269.12 182.521 268.468C184.043 267.815 185.808 268.522 186.46 270.045C189.779 277.799 189.498 290.98 185.744 303.625C183.214 312.152 176.914 327.666 163.161 335.775C153.751 341.324 142.265 344.233 131.8 344.234V344.234Z" fill="black"/>
<path d="M42.8332 236.92C42.8332 236.92 30.4714 252.635 21.642 261.777C12.8125 270.92 -2.87259 282.623 2.96858 292.271C8.80975 301.92 19.8749 308.841 39.8599 306.381C59.8449 303.92 87.1535 290.507 94.5137 282.714C101.874 274.92 98.8718 252.92 98.8718 252.92L42.8332 236.92H42.8332Z" fill="white"/>
<path d="M33.3126 309.96C32.4952 309.96 31.6759 309.945 30.8536 309.914C17.9454 309.425 7.79603 305.291 3.00697 298.572C-0.0184245 294.327 -0.779165 289.316 0.807745 284.081C4.27455 272.646 20.13 258.391 32.8693 246.936C36.63 243.554 39.8781 240.634 42.214 238.3C43.3839 237.129 45.2843 237.129 46.4562 238.302C47.6271 239.474 47.6271 241.373 46.4542 242.544C44.007 244.989 40.7052 247.959 36.881 251.397C25.339 261.775 9.53041 275.989 6.54995 285.821C5.50796 289.259 5.95913 292.377 7.89272 295.09C11.5392 300.206 20.2081 303.506 31.0802 303.918C53.7072 304.776 74.6144 292.273 85.8634 285.557L87.0851 284.828C97.09 278.873 100.135 268.024 95.2296 255.809C94.6124 254.27 95.3585 252.523 96.8956 251.906C98.4357 251.29 100.181 252.035 100.798 253.572C106.81 268.546 102.731 282.498 90.1535 289.984L88.9386 290.709C77.5548 297.506 56.6945 309.96 33.3126 309.96H33.3126Z" fill="black"/>
<path d="M219.453 34.4206C188.627 32.4746 147.878 32.0237 143.531 36.3522L132.393 51.4206C117.11 61.2219 113.283 64.0191 96.3685 74.4206C83.3595 82.4206 60.4277 101.28 57.3416 115.421C51.5427 143.335 33.6879 232.859 35.6475 242.685C37.4607 251.776 72.1954 266.895 96.3685 254.421C104.489 250.23 100.45 235.818 105.375 209.421C109.866 185.347 112.38 171.421 116.382 163.421C118.848 158.492 126.389 148.421 131.393 144.421C126.389 169.421 117.383 258.421 121.294 267.699C123.474 272.872 140.476 282.831 153.963 283.803C167.449 284.775 188.535 279.014 192.391 275.166C196.247 271.318 196.437 196.421 203.442 175.421C206.916 165.007 219.133 144.734 224.457 139.421C233.133 130.762 247.832 121.106 263.484 108.421C279.135 95.7357 285.499 67.4206 277.493 44.4206C277.493 44.4206 250.28 36.3666 219.453 34.4206L219.453 34.4206Z" fill="#2D8C3C"/>
<path d="M132.166 280.732C131.77 280.732 131.369 280.654 130.983 280.488C124.486 277.699 120.398 273.86 118.484 268.753C115.002 259.451 123.331 164.482 128.19 146.493C135.087 120.962 146.515 104.784 158.61 89.1173C159.625 87.8057 161.508 87.5655 162.818 88.5753C164.129 89.588 164.372 91.4717 163.36 92.7833C151.65 107.952 140.592 123.593 133.983 148.058C128.397 168.735 121.651 259.581 124.105 266.653C125.412 270.143 128.436 272.866 133.35 274.975C134.873 275.628 135.577 277.393 134.923 278.915C134.435 280.052 133.329 280.732 132.166 280.732V280.732Z" fill="black"/>
<path d="M163.435 287.904C162.169 287.904 160.867 287.858 159.526 287.762C157.874 287.642 156.631 286.206 156.75 284.554C156.869 282.901 158.325 281.676 159.958 281.777C172.782 282.702 181.774 278.298 188.876 273.867C191.398 272.295 191.763 262.828 192.226 250.842C192.786 236.314 193.634 214.361 198.482 184.933C198.751 183.299 200.298 182.189 201.929 182.461C203.564 182.73 204.671 184.273 204.401 185.908C199.614 214.967 198.776 236.695 198.221 251.073C197.588 267.473 197.271 275.703 192.052 278.959C184.859 283.444 175.905 287.904 163.435 287.904V287.904Z" fill="black"/>
<path d="M210.714 162.295C210.33 162.295 209.938 162.221 209.561 162.063C208.032 161.426 207.309 159.669 207.947 158.14C213.202 145.534 231.078 129.164 234.874 126.6C236.732 125.346 238.674 124.095 240.731 122.771C248.121 118.016 256.496 112.625 263.604 105.164C276.69 91.4307 280.378 71.213 274.565 45.0723C274.206 43.4551 275.225 41.8526 276.842 41.4923C278.464 41.1319 280.062 42.1534 280.422 43.7696C286.696 71.9835 282.498 94.0323 267.948 109.303C260.345 117.282 251.65 122.879 243.979 127.816C241.951 129.122 240.035 130.355 238.233 131.572C234.445 134.131 217.971 149.686 213.484 160.448C213.004 161.601 211.889 162.295 210.714 162.295H210.714Z" fill="black"/>
<path d="M36.6931 238.586C36.4871 238.586 36.2791 238.565 36.0701 238.521C34.449 238.178 33.4128 236.586 33.7546 234.965C38.4285 212.857 40.989 191.845 43.2488 173.307C46.6902 145.075 49.408 122.778 57.7283 107.952C66.2488 92.7717 89.6687 73.4036 116.005 59.7571C117.475 58.9934 119.286 59.5715 120.049 61.0413C120.81 62.512 120.236 64.3225 118.764 65.0852C93.3816 78.2376 70.9558 96.6448 62.9607 110.89C55.2205 124.68 52.5652 146.459 49.2048 174.032C46.9304 192.693 44.3523 213.842 39.6257 236.205C39.3269 237.617 38.0808 238.586 36.6931 238.586V238.586Z" fill="black"/>
<path d="M74.7608 262.223C67.1924 262.223 58.2178 260.775 47.9737 256.673C46.4356 256.057 45.6876 254.31 46.3038 252.772C46.92 251.234 48.6671 250.488 50.2042 251.102C72.4493 260.014 87.837 255.326 95.0303 251.737C96.6915 250.908 97.628 244.616 98.712 237.33C99.5577 231.652 100.608 224.586 102.439 215.81C102.776 214.187 104.36 213.148 105.987 213.485C107.609 213.823 108.65 215.412 108.312 217.034C106.518 225.641 105.481 232.611 104.647 238.213C102.995 249.311 102.166 254.883 97.7081 257.106C93.0108 259.449 85.2335 262.223 74.7608 262.223H74.7608Z" fill="black"/>
</svg>
