<svg width="326" height="400" viewBox="0 0 326 400" fill="none" xmlns="http://www.w3.org/2000/svg">
<path d="M89.0156 117.181C109.004 116.609 123.778 126.803 132.076 135.35C140.374 143.897 171.032 140.513 172.046 121.462C172.682 109.518 151.706 82.5459 138.063 86.8124C124.42 91.0789 89.0156 117.181 89.0156 117.181Z" fill="white"/>
<path d="M149.629 141.673C148.931 141.673 148.226 141.65 147.515 141.605C136.6 140.907 128.757 135.966 121.838 131.606C114.922 127.251 108.966 123.502 100.832 123.805C99.1547 123.833 97.7826 122.581 97.7172 120.925C97.6527 119.269 98.9418 117.875 100.598 117.809C110.564 117.418 117.927 122.051 125.036 126.53C131.659 130.703 138.506 135.016 147.898 135.617C158.046 136.273 166.608 131.183 168.741 123.26C171.981 111.222 159.808 100.295 147.334 94.0828C145.852 93.3436 145.248 91.5428 145.987 90.0594C146.727 88.576 148.528 87.9734 150.01 88.7117C164.608 95.9832 178.716 109.287 174.535 124.819C171.807 134.95 161.727 141.673 149.629 141.673Z" fill="black"/>
<path d="M88.4366 82.2118C85.9467 105.871 98.7928 120.905 101.662 123.91C55.3052 137.73 23.8619 120.945 32.6729 87.6165C36.9975 77.4711 88.4366 82.2118 88.4366 82.2118Z" fill="white"/>
<path d="M179.275 43.3L127.35 45.1981C81.911 22.4945 42.9636 8.87226 22.8408 19.8998C2.71793 30.9273 -8.90691 67.5318 32.1214 87.5318C40.1269 77.5318 87.5888 81.7108 87.5888 81.7108C81.7467 94.0357 96.246 129.883 111.176 130.532C156.615 118.207 170.217 115.532 170.217 115.532C234.374 121.037 251.55 103.88 257.393 101.286C284.365 83.5729 300.1 48.5334 263.229 22.7419C232.071 13.6605 194.854 33.5699 179.275 43.3H179.275Z" fill="white"/>
<path d="M109.166 133.63C102.214 133.63 96.7291 129.598 91.1637 120.545C90.2955 119.134 90.7369 117.286 92.148 116.418C93.5592 115.55 95.4078 115.99 96.275 117.403C102.525 127.568 107.009 127.965 110.723 127.536C128.507 125.491 166.842 113.164 224.664 90.8997C226.208 90.3011 227.946 91.0755 228.542 92.6214C229.136 94.1673 228.366 95.9036 226.82 96.4993C167.705 119.261 129.954 131.364 111.409 133.497C110.644 133.585 109.896 133.63 109.166 133.63L109.166 133.63Z" fill="black"/>
<path d="M68.4199 131.498C52.8007 131.498 35.3046 124.939 30.6572 111.609C26.457 99.562 26.2851 90.9946 30.1308 85.4175C35.2451 78.0014 45.6992 77.7104 55.8085 77.4282L56.6923 77.4028C61.4003 77.2602 65.0214 77.8364 68.8564 78.4389C73.2685 79.1303 77.8242 79.8481 84.7958 79.5854C86.4326 79.5337 87.8447 80.8159 87.9062 82.4711C87.9677 84.1274 86.6757 85.519 85.0204 85.5815C77.4794 85.8667 72.4023 85.0678 67.9267 84.3657C64.2177 83.7837 61.0175 83.2778 56.8632 83.4008L55.9765 83.4253C47.3632 83.6655 38.456 83.9145 35.0702 88.8247C32.4247 92.6606 32.8466 99.6616 36.3232 109.634C40.246 120.887 57.5624 126.457 72.0566 125.361C77.1318 124.973 80.6601 124.016 84.746 122.907C87.7568 122.089 91.1689 121.164 95.624 120.361C97.246 120.063 98.8144 121.151 99.1083 122.781C99.4023 124.412 98.3193 125.971 96.6884 126.265C92.4892 127.022 89.3525 127.873 86.3183 128.697C82.1201 129.836 78.1542 130.913 72.5136 131.343C71.1708 131.446 69.8027 131.498 68.4198 131.498L68.4199 131.498Z" fill="black"/>
<path d="M180.731 120.759C179.087 120.759 177.421 120.743 175.726 120.71C174.07 120.679 172.752 119.31 172.784 117.653C172.816 116.017 174.153 114.711 175.782 114.711C175.802 114.711 175.822 114.711 175.841 114.712C257.13 116.276 279.38 79.999 280.889 70.2011C282.022 62.8427 281.606 46.0136 271.923 34.9941C265.509 27.6953 256.05 24.1464 243.71 24.4335C223.419 24.916 205.587 33.8896 184.94 44.2812C166.101 53.7617 144.753 64.5048 117.433 70.6337C115.496 71.1621 113.787 71.6445 112.25 72.0781C104.366 74.3017 100.489 75.3955 93.468 74.8056C89.8313 79.2685 87.4612 88.6728 90.9309 102.952C91.3225 104.561 90.3342 106.184 88.7239 106.575C87.1155 106.967 85.4924 105.978 85.1008 104.368C81.4104 89.1826 83.3137 76.1533 90.1926 69.5156C90.8352 68.8974 91.717 68.5908 92.6057 68.6933C99.4543 69.4501 102.272 68.6581 110.621 66.3027C112.192 65.8603 113.939 65.3671 115.921 64.8271C115.965 64.8154 116.01 64.8046 116.055 64.7939C142.683 58.83 163.699 48.2529 182.242 38.9208C203.536 28.205 221.927 18.9501 243.568 18.4355C257.759 18.1093 268.789 22.3378 276.43 31.0341C287.553 43.6923 288.194 62.1835 286.819 71.1142C285.902 77.0703 279.57 90.1972 261.657 101.619C247.8 110.456 222.646 120.759 180.731 120.759L180.731 120.759Z" fill="black"/>
<path d="M3.76648 59.3788C2.39148 59.3788 1.15222 58.4267 0.840703 57.0292C-1.26868 47.5419 0.634654 37.5996 6.06336 29.7509C11.5087 21.8779 20.0175 16.7558 30.0204 15.3281C50.8973 12.3486 76.7714 19.5595 125.358 41.9277L179.504 39.7372C181.172 39.6708 182.557 40.958 182.622 42.6132C182.689 44.2685 181.401 45.665 179.746 45.7314L124.88 47.9511C124.41 47.9687 123.933 47.8769 123.502 47.6787C75.6669 25.6142 50.5634 18.4521 30.8681 21.2675C22.539 22.457 15.4823 26.6816 10.9979 33.164C6.51746 39.6425 4.95008 47.8661 6.69813 55.7265C7.05751 57.3437 6.03797 58.9462 4.42079 59.3066C4.20106 59.3554 3.98231 59.3788 3.76649 59.3788H3.76648Z" fill="black"/>
<path d="M113.136 70.937C112.167 70.937 111.216 70.4683 110.637 69.602C109.539 68.1694 101.971 64.8618 95.8914 62.2046C80.5105 55.4829 61.3699 47.1177 55.4197 35.8872C54.6443 34.4233 55.2029 32.6079 56.6667 31.8315C58.1287 31.0571 59.946 31.6138 60.7224 33.0786C65.6912 42.4585 84.5349 50.6938 98.2937 56.7075C108.737 61.271 113.837 63.5845 115.63 66.272C116.549 67.6509 116.177 69.5132 114.799 70.4331C114.287 70.7739 113.709 70.937 113.136 70.937L113.136 70.937Z" fill="black"/>
</svg>
