<svg width="300" height="400" viewBox="0 0 300 400" fill="none" xmlns="http://www.w3.org/2000/svg">
<path d="M181.776 148.595C178.911 140.623 175.574 134.569 183.806 125.517C192.037 116.464 237.497 119.398 241.708 120.023C245.92 120.648 263.885 125.204 261.383 134.438C258.881 143.672 246.161 147.878 237.446 151.166C233.781 152.548 184.642 156.568 181.776 148.595Z" fill="white"/>
<path d="M235.621 154.75C234.248 154.75 233.008 153.801 232.696 152.404C232.335 150.788 233.351 149.184 234.968 148.821C254.445 144.46 257.986 138.956 258.604 136.793C259.336 134.233 257.444 131.884 256.252 130.711C252.207 126.731 245.674 124.878 236.799 125.22C235.138 125.249 233.751 123.99 233.688 122.335C233.626 120.68 234.917 119.286 236.573 119.224C247.139 118.816 255.187 121.248 260.459 126.433C264.103 130.017 265.53 134.393 264.373 138.441C262.358 145.491 252.906 150.953 236.279 154.677C236.058 154.725 235.838 154.75 235.621 154.75V154.75Z" fill="black"/>
<path d="M238.935 134.216C237.528 134.216 236.272 133.221 235.993 131.788C234.019 121.644 227.789 118.982 223.035 119.796C221.408 120.077 219.853 118.977 219.574 117.343C219.296 115.71 220.394 114.16 222.027 113.882C230.023 112.52 239.261 117.171 241.882 130.642C242.198 132.269 241.137 133.843 239.511 134.159C239.318 134.197 239.124 134.216 238.935 134.216Z" fill="black"/>
<path d="M208.757 132.425C258.023 96.1069 245.071 29.0854 183.182 9.09075C119.824 -10.3593 86.1801 50.3691 81.0757 62.1738C74.5771 69.329 24.2416 109.135 21.3105 111.496C-2.41199 130.607 9.45093 155.079 15.1685 165.261C22.5366 178.381 42.1185 184.679 62.515 184.223C74.812 197.314 103.015 198.399 124.274 192.584C136.505 189.238 199.546 173.111 208.157 161.284C214.829 155.112 221.852 143.913 208.757 132.425V132.425Z" fill="#82BE28"/>
<path d="M154.359 159.449C152.945 159.449 151.685 158.444 151.414 157.004C151.107 155.376 152.177 153.807 153.806 153.5C169.145 150.606 194.089 137.062 206.116 128.819C209.353 126.6 226.519 112.298 229.962 97.8855C230.348 96.2742 231.975 95.2859 233.577 95.6648C235.188 96.0496 236.182 97.6688 235.798 99.2801C231.37 117.815 209.724 133.62 209.508 133.768C196.692 142.552 171.283 156.309 154.918 159.396C154.73 159.431 154.543 159.449 154.359 159.449Z" fill="black"/>
<path d="M97.8155 199.01C92.6944 199.01 88.1192 198.471 84.296 197.274C60.9981 189.975 48.3722 173.98 48.7423 152.234C48.9864 137.977 62.4376 125.948 74.13 117.061C90.8888 104.323 121.173 82.3586 135.694 78.3645C137.29 77.9241 138.942 78.8625 139.383 80.4612C139.822 82.0588 138.884 83.7102 137.286 84.1497C127.389 86.8723 105.692 100.609 77.7608 121.838C62.2101 133.657 54.8956 143.349 54.7423 152.335C54.5148 165.673 59.7687 183.302 86.089 191.547C97.6349 195.161 119.218 192.198 146.87 183.198C171.742 175.103 194.181 164.376 203.491 157.964C204.857 157.025 206.725 157.368 207.663 158.734C208.603 160.098 208.259 161.966 206.894 162.906C188.101 175.849 131.364 199.007 97.8155 199.01H97.8155Z" fill="black"/>
<path d="M39.1583 182.41C38.8614 182.41 38.5587 182.365 38.2608 182.272C14.963 174.973 2.33701 158.978 2.70713 137.232C2.95127 122.974 16.4024 110.946 28.0939 102.059C44.1319 89.8708 50.5011 86.2018 54.7159 83.7741C56.2784 82.8737 57.4083 82.2233 58.5899 81.3796C59.9376 80.4157 61.8116 80.7292 62.7745 82.0778C63.7374 83.4255 63.4249 85.2995 62.0763 86.2624C60.6573 87.276 59.3565 88.0251 57.711 88.9733C53.628 91.3249 47.4581 94.8796 31.7247 106.837C16.1739 118.656 8.86045 128.346 8.70713 137.334C8.47959 150.672 13.7335 168.3 40.0538 176.546C41.6349 177.042 42.5157 178.724 42.0206 180.305C41.6183 181.589 40.4347 182.41 39.1583 182.41L39.1583 182.41Z" fill="black"/>
</svg>
