<svg width="303" height="400" viewBox="0 0 303 400" fill="none" xmlns="http://www.w3.org/2000/svg">
<path d="M66.976 282.531C66.976 282.531 52.3368 304.066 24.0757 305.974C-4.1855 307.883 -4.94888 332.619 25.9204 341.698C56.7898 350.777 73.5932 349.207 73.5932 349.207C76.0496 352.955 110.296 338.868 99.1011 298.503C98.05 294.713 98.1124 290.706 98.7775 286.83C106.353 242.679 66.976 282.531 66.976 282.531Z" fill="white"/>
<path d="M67.7031 352.809C52.4024 352.809 26.3018 344.783 11.1904 336.734C3.35645 332.561 -0.873048 325.769 0.151372 319.009C1.24024 311.828 7.82129 306.408 17.7578 304.512C35.9688 301.033 57.8565 295.102 65.5303 279.975C66.2813 278.497 68.085 277.908 69.5635 278.657C71.041 279.407 71.6309 281.212 70.8818 282.69C62.0264 300.144 38.4404 306.67 18.8828 310.405C11.5586 311.804 6.77344 315.357 6.08399 319.908C5.45215 324.078 8.48926 328.497 14.0108 331.439C32.5567 341.317 59.624 347.756 70.5205 346.684C70.5996 346.677 70.7705 346.667 71.0283 346.662C75.1543 346.58 82.9639 345.482 88.9092 339.035C94.7207 332.735 97.2598 322.877 96.457 309.739C96.3555 308.085 97.6143 306.662 99.2686 306.562C100.923 306.464 102.345 307.72 102.445 309.373C103.353 324.205 100.282 335.554 93.3203 343.103C85.8662 351.186 76.2276 352.561 71.1465 352.66L71.0234 352.663C69.9863 352.762 68.877 352.809 67.7031 352.809V352.809Z" fill="black"/>
<path d="M196.942 268.172C211.191 310.358 197.376 333.533 191.716 339.354C186.055 345.175 174.29 362.685 183.69 369.644C203.042 383.971 253.929 358.627 259.767 333.856C264.053 321.604 245.025 299.766 236.686 275.192L196.942 268.172V268.172Z" fill="white"/>
<path d="M249.565 277.256C243.271 263.082 227.629 219.118 222.76 196.833C210.369 140.13 217.433 102.973 204.839 52.7116C193.573 7.75396 122.702 11.2891 90.8252 63.8063C83.1136 90.6935 65.3524 110.348 57.8517 189.586C54.3725 226.341 55.722 269.807 51.9746 289.872C60.9489 281.439 85.9934 290.645 108.495 303.126C104.129 296.593 128.421 181.229 146.22 114.878C148.398 138.606 149.75 169.8 156.225 202.364C162.202 232.423 187.095 264.464 192.72 289.491C193.226 293.811 192.992 296.043 196.217 297.974C199.442 299.906 213.731 300.998 224.965 297.851C232.648 295.698 253.904 287.025 249.565 277.256Z" fill="#2D8C3C"/>
<path d="M195.493 375.985C188.412 375.985 183.131 374.25 179.92 370.807C177.455 368.166 175.062 363.232 177.652 354.732C179.479 348.735 184.804 342.675 189.083 337.805L189.462 337.375C193.971 332.241 202.719 316.819 200.984 301.912C200.791 300.266 201.97 298.777 203.616 298.586C205.251 298.4 206.752 299.573 206.943 301.219C208.842 317.521 199.993 334.476 193.97 341.334L193.59 341.766C189.693 346.202 184.841 351.722 183.392 356.48C181.982 361.108 182.289 364.552 184.308 366.715C187.808 370.468 196.76 371.023 208.864 368.236C242.38 360.523 256.052 338.456 257.878 332.969C259.999 326.597 252.765 312.819 248.042 307.78C246.908 306.571 246.97 304.673 248.179 303.54C249.39 302.405 251.288 302.469 252.419 303.677C256.943 308.503 266.901 324.865 263.571 334.864C261.052 342.432 245.841 365.884 210.21 374.084C204.692 375.353 199.765 375.985 195.493 375.985H195.493Z" fill="black"/>
<path d="M108.499 304.44C108.343 304.44 108.187 304.428 108.029 304.404C106.392 304.146 105.274 302.611 105.531 300.974L120.889 203.221C120.907 203.108 120.931 202.996 120.962 202.885L143.525 121.566C143.968 119.97 145.631 119.04 147.217 119.477C148.814 119.92 149.75 121.573 149.306 123.17L126.79 204.323L111.459 301.906C111.226 303.384 109.95 304.44 108.499 304.44V304.44Z" fill="black"/>
<path d="M108.493 304.439C108.09 304.439 107.681 304.357 107.287 304.184C106.917 304.022 70.1388 287.957 53.0919 289.773C52.2316 289.861 51.3634 289.576 50.7277 288.982C50.0919 288.388 49.7452 287.548 49.7775 286.677C53.2726 193.03 58.6554 112.047 89.2521 69.4616C90.2179 68.1159 92.0929 67.8073 93.4386 68.7751C94.7843 69.7419 95.0919 71.6169 94.1251 72.9626C64.8536 113.703 59.3585 192.369 55.8966 283.639C75.2921 283.661 108.227 298.043 109.703 298.692C111.22 299.359 111.908 301.129 111.241 302.645C110.747 303.769 109.648 304.439 108.493 304.439H108.493Z" fill="black"/>
<path d="M207.176 302.938C204.006 302.938 201.194 302.57 198.867 301.824C192.91 299.914 191.043 296.008 190.526 293.07C189.584 287.729 185.621 279.646 180.604 269.413C172.314 252.504 160.959 229.348 153.858 199.79C151.628 190.512 150.555 178.015 149.417 164.785C147.549 143.046 145.432 118.408 137.702 112.599C136.377 111.604 136.111 109.723 137.106 108.399C138.102 107.073 139.982 106.807 141.306 107.802C151.181 115.221 153.228 139.047 155.396 164.271C156.513 177.27 157.568 189.548 159.692 198.388C166.639 227.302 177.823 250.115 185.99 266.771C191.218 277.431 195.346 285.851 196.434 292.029C196.652 293.263 197.33 295.03 200.699 296.11C211.865 299.695 236.862 291.335 245.385 282.974C246.565 281.817 248.457 279.634 248.006 277.912C247.278 275.931 246.187 273.316 244.81 270.019C239.26 256.732 228.93 231.998 220.748 195.452C216.344 175.78 214.709 151.643 213.128 128.3C211.952 110.947 210.842 94.5551 208.69 79.9125C204.306 50.0912 202.031 41.7895 193.257 35.8071C191.888 34.8744 191.534 33.0082 192.468 31.6391C193.4 30.269 195.269 29.9164 196.636 30.85C207.763 38.435 210.278 49.4614 214.625 79.0395C216.812 93.9145 217.983 111.189 219.114 127.895C220.68 151.012 222.299 174.916 226.604 194.141C234.67 230.173 244.867 254.589 250.346 267.706C251.776 271.13 252.905 273.833 253.68 275.955C253.699 276.01 253.718 276.067 253.736 276.122C254.482 278.614 254.367 282.568 249.587 287.257C244.655 292.095 235.649 296.814 225.494 299.88C218.796 301.904 212.486 302.938 207.176 302.938V302.938Z" fill="black"/>
</svg>
