<svg width="463" height="400" viewBox="0 0 463 400" fill="none" xmlns="http://www.w3.org/2000/svg">
<path d="M218.788 302.628C216.867 313.737 221.332 328.743 235.437 336.163C253.746 345.795 272.198 338.149 279.542 325.598C286.885 313.047 283.273 305.12 279.917 295.968C276.561 286.816 254.583 276.195 242.999 275.766C231.414 275.337 220.71 291.518 218.788 302.628Z" fill="#2D8C3C"/>
<path d="M252.369 343.507C246.47 343.507 240.232 342.076 234.04 338.819C218.576 330.684 213.761 314.091 215.832 302.117V302.116C217.96 289.817 229.667 272.307 243.11 272.769C255.12 273.213 278.764 284.114 282.733 294.936L283.263 296.371C286.478 305.038 289.803 314.001 282.13 327.112C276.546 336.658 265.272 343.507 252.369 343.507V343.507ZM221.744 303.139C220.032 313.042 224.023 326.77 236.833 333.508C253.396 342.221 270.236 335.558 276.951 324.083C283.188 313.423 280.739 306.82 277.638 298.457L277.1 297.002C274.315 289.408 253.49 279.157 242.887 278.765C242.775 278.761 242.662 278.758 242.55 278.758C233.06 278.758 223.425 293.421 221.744 303.14V303.139Z" fill="black"/>
<path d="M250.487 305.698C237.439 302.653 232.164 322.322 244.813 325.737C262.325 330.464 266.972 309.546 250.487 305.698Z" fill="white"/>
<path d="M249.682 329.419C247.881 329.419 245.983 329.159 244.03 328.632C236.055 326.48 233.468 319.05 235.035 312.823C236.667 306.34 242.732 300.805 251.168 302.775C257.325 304.213 261.704 307.953 263.181 313.038C264.453 317.413 263.276 322.136 260.109 325.363C257.492 328.032 253.845 329.418 249.682 329.419H249.682ZM247.792 308.375C243.545 308.375 241.451 311.914 240.853 314.288C240.063 317.429 240.831 321.554 245.594 322.839C249.969 324.022 253.605 323.425 255.827 321.162C257.476 319.48 258.087 317.009 257.42 314.713C256.565 311.77 253.789 309.549 249.804 308.619C249.086 308.451 248.415 308.375 247.792 308.375H247.792Z" fill="black"/>
<path d="M18.5297 138.952C8.82337 144.699 0.294006 157.83 3.79585 173.37C8.34139 193.542 26.1359 202.612 40.4578 200.052C54.7798 197.493 61.705 187.274 61.7297 179.094C61.7591 169.347 61.8814 149.02 54.692 139.933C47.5025 130.845 28.2361 133.204 18.5297 138.952V138.952Z" fill="#2D8C3C"/>
<path d="M35.621 203.474C21.0156 203.475 5.22942 193.375 0.869075 174.028C-2.9698 156.989 6.54095 142.563 17.0019 136.369C27.747 130.008 48.6874 127.506 57.0449 138.07C64.8261 147.905 64.7646 168.041 64.7314 178.86L64.7304 179.102C64.7001 188.877 56.5341 200.226 40.9853 203.004C39.2323 203.318 37.4345 203.474 35.621 203.474L35.621 203.474ZM38.58 136.904C31.9296 136.904 24.6757 138.798 20.0585 141.531C11.4072 146.655 3.5429 158.596 6.72258 172.709C10.8359 190.956 26.8368 199.437 39.9306 197.098C52.2431 194.898 58.7079 186.37 58.7304 179.083L58.7314 178.841C58.7597 169.474 58.8193 149.983 52.3398 141.792C49.5839 138.309 44.3046 136.904 38.58 136.904Z" fill="black"/>
<path d="M35.4517 166.493C31.5979 155.64 14.3677 161.103 17.8195 173.733C21.2712 186.363 40.3891 180.398 35.4517 166.493Z" fill="white"/>
<path d="M26.4093 183.663C25.4679 183.663 24.5255 183.558 23.6007 183.339C19.3438 182.333 16.1817 179.12 14.9259 174.525C12.6857 166.326 17.5177 160.153 23.4503 158.292C28.9356 156.57 35.7931 158.491 38.2784 165.491C40.1231 170.685 39.3253 175.735 36.089 179.345C33.6144 182.106 30.0187 183.663 26.4093 183.663ZM27.3937 163.682C26.6515 163.682 25.9171 163.807 25.2452 164.017C22.0499 165.02 19.4083 168.168 20.713 172.943C21.3917 175.425 22.8673 177.001 24.9806 177.5C27.3009 178.046 29.9708 177.181 31.6212 175.341C32.8585 173.96 34.0372 171.478 32.6241 167.498C31.6173 164.662 29.4727 163.682 27.3936 163.682H27.3937Z" fill="black"/>
<path d="M359.72 309.213C390.515 307.473 396.199 289.625 382.942 283.344C371.192 277.777 298.731 265.636 247.965 241.815C200.256 219.429 123.241 161.521 95.2946 128.481C67.3481 95.4401 61.9927 75.3514 51.6745 60.9159C29.8644 30.4028 -10.4843 43.4798 11.3258 108.865C19.6165 133.72 44.0523 172.353 124.042 230.013C204.032 287.672 296.421 312.79 359.72 309.213Z" fill="white"/>
<path d="M347.351 312.554C316.998 312.554 282.68 306.708 247.231 295.436C203.264 281.456 160.06 259.674 122.288 232.446C57.7019 185.89 20.4753 145.777 8.48021 109.814C2.8015 92.7918 0.866935 78.2312 2.72826 66.5359C4.40014 56.033 9.28784 48.2263 16.491 44.5564C28.2234 38.5799 43.6931 44.5906 54.115 59.1716C57.698 64.1834 60.6589 69.7742 64.0876 76.2488C70.8367 88.991 79.2351 104.848 97.5847 126.543C126.34 160.539 202.875 217.344 249.239 239.099C283.129 255.001 326.694 265.638 355.521 272.678C369.795 276.163 380.107 278.681 384.227 280.634C390.411 283.563 393.555 288.945 392.435 294.678C390.936 302.348 381.596 310.98 359.888 312.208C355.794 312.439 351.61 312.554 347.351 312.554ZM26.2595 48.2527C23.782 48.2527 21.4021 48.7879 19.2156 49.9021C3.82494 57.7449 6.87962 86.0554 14.1716 107.916C25.5935 142.161 63.1501 182.421 125.796 227.579C197.574 279.32 289.324 310.178 359.551 306.218C376.675 305.25 385.448 299.147 386.547 293.528C387.133 290.529 385.35 287.805 381.658 286.055C378.091 284.365 367.503 281.78 354.098 278.507C325.039 271.411 281.123 260.687 246.69 244.531C199.739 222.499 122.177 164.909 93.0036 130.418C74.2361 108.228 65.6697 92.0535 58.7859 79.0574C55.4578 72.7732 52.5837 67.3465 49.2341 62.6599C42.6775 53.4881 34.0017 48.2527 26.2595 48.2527L26.2595 48.2527Z" fill="black"/>
<path d="M123.195 108.114C123.195 108.114 99.9385 118.27 67.1403 102.279C56.3496 97.018 49.2671 108.883 50.3732 118.27C52.2956 134.584 74.6682 154.344 81.8469 160.322C95.5943 171.771 100.011 174.41 103.396 176.946C107.399 179.946 129.414 196.946 144.772 192.858C154.633 190.232 160.978 165.377 164.36 150.957" fill="black"/>
<path d="M281.114 221.215C281.114 221.215 258.573 222.735 227.071 226.97C212.088 228.984 221.569 247.511 224.797 251.679C235.487 265.482 257.085 272.894 265.578 275.624C281.841 280.85 286.522 281.946 292.526 282.946C302.231 284.562 327.593 290.006 332.329 281.281C337.065 272.557 335.641 249.772 332.972 235.211" fill="black"/>
<path d="M316.667 128.479C241.423 129.569 226.547 66.3467 212.229 77.0196C197.911 87.6924 187.166 104.975 190.169 114.312C199.983 144.825 178.761 131.237 182.563 146.47C186.365 161.703 188.417 172.956 158.973 170.777C117.562 167.711 82.9709 118.268 93.4515 103.162C100.503 92.9972 116.753 94.1963 126.21 77.7627C135.668 61.3291 153.272 24.8856 185.932 11.746C218.591 -1.3936 249.321 13.6699 260.479 17.2231C273.069 21.2325 346.53 51.823 378.927 82.801C382.783 86.488 383.942 92.1755 381.864 97.0875C378.325 105.453 371.745 119.298 350.125 127.27C345.742 128.886 342.072 132.007 339.776 136.072C330.543 152.414 329.913 175.071 333.182 188.078C335.3 196.505 346.71 208.567 333.653 215.467C326.104 219.456 346.247 222.686 339.715 244.329C337.074 253.077 279.595 245.877 257.819 229.426C229.057 207.697 251.878 147.697 266.622 118.268" fill="#2D8C3C"/>
<path d="M324.194 250.461C303.669 250.462 271.506 242.951 256.068 231.863C249.984 227.494 246.093 219.249 244.506 207.358C240.462 177.07 252.203 131.252 264.292 116.377C265.339 115.091 267.227 114.897 268.513 115.941C269.798 116.986 269.994 118.876 268.949 120.162C257.686 134.018 246.694 178.406 250.454 206.564C251.794 216.607 254.946 223.671 259.568 226.99C277.077 239.565 319.229 247.526 334.584 243.431C336.926 242.807 338.017 242.016 338.239 241.528C340.718 236.082 337.607 231.429 333.281 225.914C330.708 222.632 328.485 219.799 329.121 216.702C329.35 215.585 330.073 214.007 332.211 212.836C338.088 209.62 336.894 205.036 332.995 196.052C331.892 193.512 330.85 191.113 330.272 188.81C330.012 187.779 329.735 186.718 329.449 185.631C326.085 172.805 321.479 155.24 334.663 134.826C335.562 133.433 337.416 133.035 338.811 133.933C340.203 134.833 340.602 136.689 339.704 138.082C327.954 156.275 332 171.708 335.252 184.108C335.543 185.216 335.827 186.297 336.09 187.347C336.549 189.174 337.497 191.355 338.499 193.664C341.649 200.921 346.409 211.885 335.118 218.086C335.524 219.051 336.99 220.921 338.001 222.211C341.939 227.23 347.887 234.816 343.7 244.014C342.6 246.429 340.053 248.184 336.129 249.229C332.991 250.065 328.896 250.46 324.194 250.461Z" fill="black"/>
<path d="M166.069 173.777C133.663 173.777 101.581 143.829 91.794 123.128C87.3438 113.713 87.1153 106.151 91.1329 101.258C94.7657 96.8349 99.5851 94.4648 104.687 91.955C111.472 88.6181 118.487 85.1679 123.609 76.2675C124.522 74.6836 125.509 72.9121 126.579 70.9931C136.961 52.3789 154.337 21.2246 184.812 8.96383C214.318 -2.90629 242.628 7.5234 256.234 12.5351C258.26 13.2812 260.008 13.9257 261.389 14.3652C275.09 18.7285 350.275 50.2255 382.259 81.8584C385.993 85.5498 387.241 91.1718 385.44 96.1806C382.503 104.342 373.911 119.403 349.358 128.577C347.812 129.153 346.078 128.37 345.497 126.816C344.917 125.265 345.706 123.536 347.258 122.956C369.545 114.63 377.209 101.334 379.793 94.1494C380.808 91.33 380.119 88.1806 378.04 86.125C346.813 55.2412 273.026 24.3681 259.568 20.082C258.06 19.6015 256.253 18.9365 254.161 18.166C240.269 13.0478 214.41 3.52145 187.052 14.5302C158.544 25.999 141.815 55.9941 131.819 73.916C130.735 75.8603 129.734 77.6552 128.811 79.2597C122.775 89.7451 114.572 93.7793 107.335 97.3388C102.636 99.6504 98.5782 101.645 95.7696 105.066C93.3995 107.953 93.9278 113.601 97.2188 120.563C106.342 139.86 136.109 167.777 166.069 167.777C174.537 167.777 179.7 166.662 181.415 164.464C183.322 162.019 181.971 156.633 180.26 149.815L179.921 148.466C177.853 140.177 181.834 136.796 185.033 134.079C188.753 130.92 191.966 128.191 187.346 115.326C183.233 103.877 196.129 85.2793 210.436 74.6152C217.764 69.1572 224.441 76.4687 232.895 85.7314C247.387 101.608 269.191 125.494 314.715 125.494C315.349 125.494 315.981 125.489 316.623 125.479H316.668C318.305 125.479 319.643 126.794 319.667 128.436C319.691 130.093 318.367 131.455 316.71 131.479C316.055 131.488 315.399 131.493 314.751 131.493C266.536 131.493 242.753 105.432 228.463 89.7763C220.31 80.8437 216.716 77.4121 214.022 79.4257C207.343 84.4043 201.194 91.0869 197.152 97.7617C193.323 104.083 191.769 109.892 192.992 113.299C199.018 130.075 193.18 135.033 188.917 138.652C186.026 141.106 184.576 142.339 185.743 147.013L186.079 148.354C188.189 156.76 189.856 163.398 186.147 168.154C183.071 172.096 177.067 173.777 166.069 173.777H166.069Z" fill="black"/>
</svg>
