<svg width="463" height="400" viewBox="0 0 463 400" fill="none" xmlns="http://www.w3.org/2000/svg">
<path d="M218.788 302.758C216.867 313.868 221.332 328.874 235.437 336.294C253.746 345.926 272.198 338.28 279.542 325.729C286.885 313.177 283.273 305.251 279.917 296.099C276.561 286.947 254.583 276.326 242.999 275.897C231.414 275.468 220.71 291.649 218.788 302.758Z" fill="#2D8C3C"/>
<path d="M252.369 343.635C246.47 343.635 240.232 342.205 234.04 338.947C218.576 330.813 213.761 314.22 215.832 302.246V302.245C217.96 289.945 229.662 272.436 243.11 272.898C255.121 273.342 278.766 284.244 282.733 295.066L283.264 296.502C286.478 305.169 289.803 314.131 282.131 327.241C276.546 336.787 265.272 343.635 252.369 343.635ZM221.744 303.268C220.032 313.171 224.023 326.899 236.833 333.637C253.393 342.35 270.237 335.687 276.953 324.212C283.189 313.553 280.74 306.949 277.638 298.588L277.1 297.131C274.316 289.537 253.491 279.286 242.887 278.894C233.313 278.567 223.445 293.435 221.744 303.269V303.268Z" fill="black"/>
<path d="M250.487 305.829C237.439 302.783 232.164 322.453 244.813 325.868C262.325 330.595 266.972 309.677 250.487 305.829Z" fill="white"/>
<path d="M249.682 329.55C247.88 329.55 245.983 329.291 244.03 328.763C236.055 326.611 233.468 319.181 235.035 312.955C236.666 306.47 242.734 300.941 251.168 302.907C257.325 304.344 261.704 308.085 263.181 313.169C264.453 317.544 263.276 322.267 260.109 325.495C257.491 328.164 253.844 329.549 249.682 329.55H249.682ZM247.792 308.506C243.545 308.506 241.451 312.045 240.853 314.419C240.063 317.56 240.831 321.684 245.594 322.97C249.973 324.155 253.606 323.556 255.826 321.294C257.476 319.611 258.086 317.139 257.419 314.843C256.565 311.901 253.789 309.68 249.804 308.751C249.086 308.583 248.415 308.506 247.792 308.506Z" fill="black"/>
<path d="M18.5297 139.08C8.82337 144.828 0.294006 157.959 3.79585 173.499C8.34139 193.671 26.1359 202.741 40.4578 200.181C54.7798 197.622 61.705 187.403 61.7297 179.223C61.7591 169.476 61.8814 149.149 54.692 140.061C47.5025 130.974 28.2361 133.333 18.5297 139.08V139.08Z" fill="#2D8C3C"/>
<path d="M35.6211 203.605C21.0146 203.606 5.22851 193.506 0.869138 174.158C-2.96973 157.121 6.54004 142.695 17.001 136.5C27.7461 130.139 48.6865 127.637 57.0439 138.2C64.8252 148.035 64.7637 168.172 64.7305 178.99L64.7295 179.233C64.7002 189.007 56.5351 200.356 40.9853 203.135C39.2324 203.449 37.4346 203.605 35.6211 203.605V203.605ZM38.5791 137.034C31.9287 137.034 24.6748 138.929 20.0576 141.662C11.4062 146.785 3.542 158.727 6.72266 172.84C10.834 191.086 26.8379 199.564 39.9307 197.229C52.2432 195.028 58.708 186.501 58.7295 179.215L58.7305 178.972C58.7588 169.605 58.8184 150.114 52.3389 141.923C49.583 138.44 44.3037 137.034 38.5791 137.034H38.5791Z" fill="black"/>
<path d="M35.4517 166.624C31.5979 155.771 14.3677 161.234 17.8195 173.864C21.2712 186.494 40.3891 180.529 35.4517 166.624Z" fill="white"/>
<path d="M26.4073 183.792C25.4659 183.792 24.5235 183.687 23.5987 183.468C19.3419 182.462 16.1798 179.249 14.9239 174.654C12.6837 166.455 17.5157 160.283 23.4474 158.421C28.9366 156.699 35.7911 158.619 38.2775 165.619C40.1222 170.814 39.3243 175.864 36.088 179.474C33.6134 182.235 30.0177 183.792 26.4073 183.792H26.4073ZM27.3927 163.811C26.6495 163.811 25.9151 163.936 25.2433 164.146C22.048 165.149 19.4064 168.297 20.711 173.072C21.3897 175.554 22.8653 177.13 24.9786 177.629C27.297 178.174 29.9698 177.31 31.6202 175.469C32.8575 174.088 34.0362 171.607 32.6231 167.627C31.6163 164.791 29.4708 163.811 27.3927 163.811Z" fill="black"/>
<path d="M359.72 309.342C390.515 307.602 396.199 289.754 382.942 283.473C371.192 277.905 298.731 265.764 247.965 241.944C200.256 219.557 123.241 161.65 95.2946 128.609C67.3481 95.569 61.9927 75.4803 51.6745 61.0448C29.8644 30.5317 -10.4843 43.6087 11.3258 108.994C19.6165 133.849 44.0522 172.482 124.042 230.142C204.032 287.801 296.421 312.919 359.72 309.342Z" fill="#82BE28"/>
<path d="M347.351 312.683C316.998 312.683 282.68 306.836 247.231 295.565C203.265 281.584 160.06 259.802 122.289 232.575C57.7038 186.021 20.4773 145.908 8.48022 109.943C2.80151 92.9203 0.866935 78.3597 2.72826 66.6644C4.40014 56.1605 9.28784 48.3548 16.4919 44.6849C28.2205 38.7093 43.6931 44.7191 54.115 59.3001C57.698 64.3119 60.6589 69.9027 64.0876 76.3773C70.8367 89.1195 79.2351 104.977 97.5847 126.671C126.34 160.668 202.876 217.472 249.24 239.228C283.13 255.129 326.694 265.767 355.522 272.806C369.795 276.291 380.107 278.81 384.227 280.762C390.411 283.692 393.555 289.074 392.435 294.807C390.936 302.477 381.596 311.109 359.888 312.336C355.794 312.568 351.61 312.683 347.351 312.683ZM26.2605 48.3812C23.7829 48.3812 21.4021 48.9164 19.2156 50.0306C3.82494 57.8734 6.87962 86.1839 14.1716 108.044C25.5954 142.29 63.1521 182.551 125.797 227.707C197.575 279.449 289.328 310.307 359.551 306.346C376.675 305.378 385.448 299.276 386.547 293.657C387.133 290.658 385.35 287.934 381.658 286.184C378.091 284.494 367.503 281.909 354.098 278.635C325.039 271.539 281.124 260.816 246.691 244.66C199.739 222.628 122.177 165.038 93.0036 130.546C74.2361 108.357 65.6697 92.182 58.7859 79.1859C55.4578 72.9017 52.5837 67.4749 49.2341 62.7884C42.6775 53.6165 34.0027 48.3812 26.2605 48.3812V48.3812Z" fill="black"/>
<path d="M123.195 108.243C123.195 108.243 99.9385 118.399 67.1403 102.408C56.3496 97.1469 49.2671 109.011 50.3732 118.399C52.2956 134.713 74.6682 154.473 81.8469 160.451C95.5943 171.9 100.011 174.538 103.396 177.075C107.399 180.075 129.414 197.075 144.772 192.986C154.633 190.361 160.978 165.506 164.36 151.086" fill="white"/>
<path d="M139.72 196.703C129.623 196.703 116.705 190.961 101.899 179.82L101.541 179.55C100.808 179.002 100.026 178.448 99.1062 177.797C95.7391 175.412 90.6512 171.808 79.868 162.828C70.742 155.228 49.3006 135.72 47.3016 118.761C46.4598 111.622 49.493 104.065 54.6775 100.385C58.7137 97.5192 63.6228 97.2506 68.4959 99.6276C99.4744 114.73 121.744 105.5 121.966 105.404C123.532 104.731 125.351 105.452 126.029 107.015C126.707 108.58 125.996 110.395 124.433 111.078C123.431 111.515 99.4813 121.618 65.785 105.188C62.9568 103.81 60.4266 103.893 58.2586 105.43C54.9451 107.783 52.8768 113.202 53.4461 118.037C55.2332 133.198 77.1521 152.514 83.827 158.074C94.4246 166.899 99.3934 170.419 102.681 172.747C103.653 173.435 104.478 174.02 105.252 174.599L105.62 174.876C121.655 186.942 135.281 192.311 143.976 189.997C149.694 188.474 155.539 175.145 161.349 150.379C161.739 148.715 163.403 147.684 165.068 148.074C166.731 148.464 167.763 150.129 167.373 151.792C162.624 172.035 156.32 193.113 145.568 195.975C143.743 196.462 141.791 196.703 139.72 196.703H139.72Z" fill="black"/>
<path d="M281.114 221.344C281.114 221.344 258.573 222.864 227.071 227.098C212.088 229.113 221.569 247.64 224.797 251.808C235.487 265.61 257.085 273.023 265.578 275.753C281.841 280.979 286.522 282.075 292.526 283.075C302.231 284.691 327.593 290.135 332.329 281.41C337.065 272.686 335.641 249.901 332.972 235.34" fill="white"/>
<path d="M318.191 289.22C311.175 289.22 302.94 287.951 295.042 286.556C293.927 286.36 292.914 286.181 292.033 286.034C286.011 285.031 281.347 283.971 264.66 278.609C244.43 272.109 230.22 263.71 222.425 253.645C220.482 251.136 213.368 239.205 216.769 230.906C217.848 228.275 220.441 224.963 226.671 224.125C257.911 219.927 280.686 218.367 280.911 218.351C282.578 218.234 283.995 219.49 284.107 221.142C284.218 222.796 282.968 224.226 281.316 224.338C281.091 224.353 258.498 225.901 227.47 230.072C223.37 230.623 222.58 232.549 222.321 233.181C220.366 237.95 225.056 247.244 227.169 249.971C234.208 259.061 247.44 266.774 266.495 272.896C282.807 278.138 287.29 279.162 293.019 280.116C293.917 280.265 294.95 280.448 296.086 280.648C304.381 282.113 326.42 286.003 329.692 279.98C333.629 272.727 332.951 251.863 330.02 235.882C329.721 234.252 330.8 232.688 332.43 232.389C334.054 232.093 335.622 233.17 335.922 234.8C338.472 248.706 340.322 272.975 334.965 282.843C332.367 287.629 326.043 289.22 318.191 289.22L318.191 289.22Z" fill="black"/>
<path d="M316.665 128.61C241.421 129.7 226.545 66.4776 212.227 77.1504C197.909 87.8232 187.164 105.106 190.167 114.443C199.981 144.956 178.759 131.367 182.561 146.601C186.363 161.834 188.415 173.087 158.971 170.908C117.56 167.842 82.9689 118.399 93.4495 103.292C100.501 93.1281 116.751 94.3271 126.208 77.8935C135.666 61.4599 153.27 25.0164 185.93 11.8768C218.589 -1.26274 249.319 13.8007 260.477 17.3539C273.067 21.3633 346.528 51.9539 378.925 82.9319C382.781 86.6189 383.94 92.3064 381.862 97.2184C378.323 105.584 371.743 119.429 350.123 127.401C345.74 129.017 342.07 132.137 339.774 136.203C330.541 152.545 329.911 175.202 333.18 188.209C335.298 196.635 346.708 208.698 333.651 215.598C326.102 219.587 346.245 222.817 339.713 244.459C337.072 253.208 279.593 246.008 257.817 229.557C229.055 207.828 251.876 147.828 266.62 118.399" fill="white"/>
<path d="M324.194 250.592C303.67 250.592 271.507 243.082 256.069 231.994C249.985 227.625 246.094 219.381 244.506 207.49C240.462 177.202 252.203 131.383 264.293 116.508C265.339 115.222 267.229 115.028 268.514 116.072C269.799 117.117 269.995 119.007 268.95 120.293C257.686 134.149 246.694 178.538 250.454 206.696C251.794 216.738 254.947 223.801 259.569 227.121C277.079 239.697 319.232 247.653 334.584 243.562C336.926 242.938 338.017 242.147 338.239 241.659C340.718 236.213 337.607 231.56 333.281 226.045C330.708 222.763 328.485 219.929 329.121 216.833C329.35 215.716 330.073 214.137 332.211 212.966C338.089 209.75 336.895 205.166 332.995 196.182C331.892 193.642 330.85 191.244 330.272 188.941C330.012 187.91 329.735 186.849 329.449 185.761C326.085 172.936 321.479 155.371 334.664 134.957C335.562 133.564 337.417 133.166 338.812 134.064C340.204 134.964 340.603 136.821 339.705 138.213C327.954 156.406 332 171.839 335.252 184.239C335.543 185.348 335.827 186.427 336.09 187.478C336.549 189.304 337.497 191.485 338.499 193.793C341.649 201.05 346.411 212.016 335.118 218.216C335.524 219.182 336.99 221.051 338.001 222.341C341.939 227.361 347.887 234.947 343.7 244.145C342.6 246.56 340.053 248.315 336.129 249.36C332.991 250.196 328.896 250.591 324.194 250.591L324.194 250.592Z" fill="black"/>
<path d="M166.069 173.908C133.664 173.908 101.582 143.96 91.7949 123.259C87.3437 113.845 87.1152 106.282 91.1328 101.389C94.7656 96.9658 99.5849 94.5957 104.687 92.0859C111.472 88.749 118.488 85.2988 123.609 76.3984C124.521 74.8144 125.509 73.0439 126.579 71.125C136.961 52.5107 154.337 21.3554 184.812 9.09469C214.317 -2.77543 242.627 7.65426 256.234 12.666C258.26 13.4121 260.008 14.0566 261.389 14.4961C275.09 18.8593 350.275 50.3564 382.26 81.9892C385.993 85.6816 387.241 91.3037 385.439 96.3115C382.504 104.473 373.914 119.533 349.357 128.708C347.81 129.284 346.078 128.501 345.497 126.947C344.917 125.395 345.706 123.667 347.258 123.087C369.548 114.76 377.21 101.465 379.793 94.2802C380.808 91.4609 380.12 88.3115 378.041 86.2549C346.814 55.372 273.027 24.499 259.568 20.2129C258.06 19.7324 256.253 19.0674 254.161 18.2968C240.269 13.1787 214.41 3.65231 187.052 14.6611C158.544 26.1299 141.814 56.1259 131.819 74.0478C130.734 75.9922 129.733 77.7861 128.811 79.3906C122.776 89.8759 114.572 93.9101 107.335 97.4707C102.636 99.7812 98.5781 101.776 95.7695 105.197C93.3994 108.084 93.9277 113.732 97.2197 120.694C106.343 139.991 136.11 167.908 166.069 167.908C174.537 167.908 179.701 166.793 181.416 164.595C183.323 162.148 181.971 156.764 180.26 149.945L179.921 148.597C177.853 140.308 181.834 136.927 185.033 134.21C188.753 131.051 191.966 128.323 187.346 115.457C183.233 104.008 196.129 85.4101 210.436 74.7461C217.763 69.2881 224.439 76.5996 232.895 85.8623C247.588 101.96 269.816 126.324 316.623 125.61H316.668C318.305 125.61 319.643 126.925 319.667 128.567C319.69 130.224 318.367 131.586 316.71 131.61C316.055 131.619 315.398 131.624 314.751 131.624C266.537 131.624 242.753 105.562 228.464 89.9072C220.311 80.9746 216.716 77.5429 214.021 79.5566C207.343 84.5351 201.194 91.2177 197.152 97.8925C193.323 104.214 191.769 110.022 192.992 113.43C199.018 130.206 193.18 135.164 188.917 138.783C186.027 141.238 184.576 142.47 185.743 147.144L186.079 148.484C188.189 156.89 189.856 163.529 186.147 168.284C183.072 172.227 177.068 173.908 166.069 173.908H166.069Z" fill="black"/>
</svg>
