<svg width="463" height="400" viewBox="0 0 463 400" fill="none" xmlns="http://www.w3.org/2000/svg">
<path d="M218.786 302.618C216.865 313.728 221.33 328.734 235.435 336.154C253.744 345.785 272.196 338.139 279.54 325.588C286.883 313.037 283.271 305.11 279.915 295.958C276.559 286.807 254.581 276.186 242.997 275.756C231.412 275.327 220.708 291.508 218.786 302.618Z" fill="#2D8C3C"/>
<path d="M252.368 343.496C246.47 343.497 240.233 342.066 234.04 338.808C218.575 330.672 213.761 314.08 215.832 302.106C217.958 289.807 229.6 272.265 243.11 272.758C255.119 273.203 278.765 284.104 282.734 294.925L283.266 296.365C286.479 305.031 289.802 313.993 282.13 327.102C276.545 336.648 265.272 343.495 252.368 343.495V343.496ZM242.548 278.747C233.059 278.747 223.425 293.411 221.744 303.128V303.129C220.031 313.032 224.023 326.759 236.833 333.497C253.394 342.21 270.236 335.547 276.952 324.073C283.188 313.414 280.739 306.811 277.64 298.451L277.101 296.992C274.316 289.398 253.49 279.147 242.887 278.754C242.775 278.75 242.661 278.747 242.548 278.747Z" fill="black"/>
<path d="M250.487 305.688C237.439 302.643 232.164 322.312 244.813 325.727C262.325 330.455 266.972 309.536 250.487 305.688Z" fill="white"/>
<path d="M249.682 329.41C247.881 329.41 245.983 329.15 244.03 328.623C236.055 326.47 233.468 319.041 235.035 312.814C236.666 306.33 242.733 300.8 251.168 302.766C257.325 304.204 261.704 307.944 263.181 313.029C264.453 317.404 263.276 322.127 260.109 325.354C257.492 328.023 253.845 329.409 249.682 329.41H249.682ZM247.792 308.366C243.545 308.366 241.451 311.905 240.853 314.278C240.063 317.419 240.831 321.543 245.594 322.83C249.97 324.012 253.604 323.416 255.827 321.153C257.476 319.47 258.087 317 257.42 314.704C256.565 311.76 253.789 309.54 249.804 308.61C249.085 308.442 248.415 308.366 247.792 308.366H247.792Z" fill="black"/>
<path d="M18.5297 138.94C8.82337 144.687 0.294006 157.819 3.79585 173.358C8.34139 193.53 26.1359 202.6 40.4578 200.041C54.7798 197.481 61.705 187.262 61.7297 179.083C61.7591 169.336 61.8814 149.008 54.692 139.921C47.5025 130.834 28.2361 133.192 18.5297 138.94V138.94Z" fill="#2D8C3C"/>
<path d="M35.6214 203.464C21.0159 203.465 5.22981 193.364 0.869456 174.018C-2.97038 156.98 6.54036 142.553 17.0023 136.36C27.7474 129.998 48.6878 127.496 57.0452 138.06C64.8255 147.894 64.764 168.029 64.7308 178.846L64.7298 179.092C64.7005 188.866 56.5355 200.216 40.9857 202.994C39.2327 203.308 37.4349 203.464 35.6214 203.464ZM38.5804 136.894C31.93 136.894 24.6761 138.788 20.0589 141.522C11.4066 146.645 3.54231 158.586 6.72297 172.699C10.8353 190.947 26.8411 199.427 39.931 197.088C52.2435 194.888 58.7083 186.361 58.7298 179.074L58.7308 178.827C58.7591 169.461 58.8187 149.972 52.3402 141.782C49.5843 138.299 44.305 136.894 38.5804 136.894H38.5804Z" fill="black"/>
<path d="M35.4497 166.483C31.5959 155.63 14.3658 161.093 17.8175 173.723C21.2693 186.353 40.3871 180.388 35.4497 166.483Z" fill="white"/>
<path d="M26.4077 183.654C25.4653 183.654 24.5229 183.548 23.5981 183.329C19.3413 182.324 16.1801 179.111 14.9243 174.515C12.6831 166.317 17.5161 160.144 23.4477 158.283C28.9321 156.56 35.7915 158.481 38.2768 165.481C40.1216 170.675 39.3237 175.725 36.0874 179.336C33.6118 182.097 30.0171 183.654 26.4077 183.654ZM27.3921 163.672C26.6489 163.672 25.9145 163.797 25.2436 164.007C22.0473 165.01 19.4067 168.159 20.7114 172.933C21.3901 175.415 22.8647 176.991 24.978 177.491C27.3051 178.04 29.9702 177.17 31.6196 175.331C32.8569 173.95 34.0356 171.468 32.6225 167.489C31.6157 164.653 29.4712 163.672 27.3921 163.672H27.3921Z" fill="black"/>
<path d="M359.72 309.201C390.515 307.461 396.199 289.614 382.942 283.332C371.192 277.765 298.731 265.624 247.965 241.803C200.256 219.417 123.241 161.509 95.2946 128.469C67.3481 95.4284 61.9926 75.3397 51.6744 60.9042C29.8644 30.3911 -10.4843 43.4681 11.3258 108.853C19.6165 133.708 44.0523 172.341 124.042 230.001C204.032 287.661 296.421 312.779 359.72 309.201Z" fill="black"/>
<path d="M123.195 108.102C123.195 108.102 99.9385 118.258 67.1403 102.267C56.3496 97.0063 49.2671 108.871 50.3732 118.258C52.2956 134.573 74.6682 154.332 81.8469 160.31C95.5943 171.759 100.011 174.398 103.396 176.935C107.399 179.935 129.414 196.935 144.772 192.846C154.633 190.22 160.978 165.365 164.36 150.945" fill="white"/>
<path d="M139.718 196.562C129.621 196.562 116.704 190.82 101.899 179.679L101.54 179.41C100.807 178.861 100.025 178.307 99.104 177.655C95.7368 175.271 90.6489 171.668 79.8657 162.687C70.7397 155.088 49.2983 135.58 47.2993 118.621C46.4585 111.48 49.4917 103.924 54.6763 100.245C58.7124 97.3796 63.6206 97.1091 68.4946 99.487C99.4722 114.592 121.743 105.359 121.963 105.263C123.531 104.591 125.35 105.311 126.027 106.875C126.705 108.439 125.994 110.255 124.431 110.937C123.428 111.375 99.48 121.477 65.7837 105.048C62.9575 103.671 60.4253 103.752 58.2573 105.29C54.9438 107.641 52.8745 113.061 53.4438 117.897C55.231 133.057 77.1499 152.374 83.8247 157.933C94.4224 166.759 99.3911 170.277 102.68 172.606C103.652 173.295 104.477 173.88 105.25 174.459L105.619 174.736C121.655 186.801 135.278 192.171 143.975 189.856C149.694 188.334 155.539 175.005 161.347 150.239C161.738 148.575 163.407 147.544 165.065 147.933C166.729 148.323 167.761 149.988 167.371 151.651C162.624 171.893 156.321 192.972 145.567 195.835C143.742 196.321 141.79 196.562 139.718 196.562H139.718Z" fill="black"/>
<path d="M281.114 221.205C281.114 221.205 258.573 222.725 227.071 226.96C212.088 228.974 221.569 247.502 224.797 251.67C235.487 265.472 257.085 272.885 265.578 275.614C281.841 280.84 286.522 281.936 292.526 282.936C302.231 284.552 327.593 289.996 332.329 281.272C337.065 272.547 335.641 249.762 332.972 235.202" fill="white"/>
<path d="M318.191 289.08C311.176 289.08 302.94 287.81 295.044 286.417C293.928 286.219 292.915 286.041 292.033 285.893C286.011 284.89 281.347 283.831 264.661 278.469C244.432 271.97 230.221 263.57 222.425 253.505C220.482 250.996 213.368 239.064 216.769 230.765C217.848 228.135 220.441 224.822 226.671 223.984C257.911 219.786 280.686 218.226 280.911 218.211C282.584 218.094 283.995 219.349 284.107 221.002C284.218 222.655 282.968 224.086 281.316 224.197C281.091 224.213 258.498 225.761 227.47 229.931C223.37 230.482 222.58 232.408 222.321 233.041C220.366 237.809 225.056 247.103 227.169 249.831C234.209 258.922 247.441 266.635 266.496 272.756C282.807 277.998 287.29 279.021 293.019 279.975C293.917 280.125 294.951 280.307 296.087 280.508C304.383 281.972 326.422 285.863 329.693 279.839C333.63 272.586 332.952 251.721 330.021 235.741C329.722 234.111 330.801 232.548 332.431 232.249C334.057 231.952 335.623 233.029 335.923 234.659C338.473 248.564 340.322 272.834 334.966 282.701C332.368 287.489 326.044 289.08 318.191 289.08Z" fill="black"/>
<path d="M316.665 128.469C241.421 129.559 226.545 66.337 212.227 77.0098C197.909 87.6826 187.164 104.965 190.167 114.302C199.981 144.816 178.759 131.227 182.561 146.46C186.363 161.694 188.415 172.946 158.971 170.767C117.56 167.702 82.9689 118.259 93.4495 103.152C100.501 92.9874 116.751 94.1865 126.208 77.7529C135.666 61.3193 153.27 24.8758 185.93 11.7362C218.589 -1.40337 249.319 13.6601 260.477 17.2133C273.067 21.2227 346.528 51.8133 378.925 82.7913C382.781 86.4782 383.94 92.1658 381.862 97.0778C378.323 105.444 371.743 119.288 350.123 127.26C345.74 128.877 342.07 131.997 339.774 136.062C330.541 152.404 329.911 175.062 333.18 188.068C335.298 196.495 346.708 208.557 333.651 215.457C326.102 219.446 346.245 222.676 339.713 244.319C337.072 253.067 279.593 245.867 257.817 229.416C229.055 207.688 251.876 147.687 266.62 118.258" fill="#82BE28"/>
<path d="M324.194 250.45C303.67 250.451 271.505 242.94 256.068 231.853C249.984 227.484 246.093 219.239 244.506 207.348C240.462 177.06 252.203 131.242 264.292 116.367C265.339 115.082 267.228 114.887 268.513 115.931C269.798 116.976 269.994 118.866 268.949 120.152C257.686 134.008 246.694 178.396 250.454 206.554C251.794 216.597 254.946 223.661 259.568 226.98C277.076 239.553 319.232 247.513 334.583 243.422C336.926 242.798 338.017 242.007 338.239 241.518C340.718 236.072 337.606 231.421 333.281 225.904C330.708 222.623 328.485 219.79 329.121 216.692C329.35 215.575 330.073 213.997 332.211 212.826C338.088 209.61 336.894 205.026 332.995 196.043C331.892 193.503 330.85 191.103 330.272 188.8C330.013 187.77 329.735 186.712 329.45 185.624C326.085 172.799 321.478 155.232 334.663 134.816C335.561 133.424 337.417 133.025 338.811 133.924C340.203 134.823 340.602 136.679 339.704 138.072C327.953 156.267 332 171.701 335.253 184.102C335.543 185.21 335.827 186.288 336.09 187.338C336.549 189.165 337.497 191.345 338.498 193.654C341.649 200.911 346.409 211.876 335.117 218.076C335.523 219.042 336.99 220.911 338.001 222.202C341.938 227.221 347.887 234.806 343.7 244.005C342.6 246.42 340.052 248.174 336.128 249.219C332.99 250.055 328.896 250.45 324.194 250.45H324.194Z" fill="black"/>
<path d="M166.068 173.768C133.662 173.768 101.581 143.819 91.794 123.118C87.3438 113.703 87.1153 106.142 91.1329 101.248C94.7657 96.8251 99.5851 94.455 104.687 91.9452C111.472 88.6083 118.487 85.1581 123.609 76.2577C124.521 74.6747 125.508 72.9052 126.577 70.9872C136.959 52.372 154.335 21.2158 184.811 8.95403C214.315 -2.91609 242.628 7.5136 256.235 12.5263C258.26 13.2714 260.008 13.916 261.389 14.3554C275.09 18.7187 350.275 50.2158 382.259 81.8486C385.992 85.539 387.24 91.1611 385.44 96.1699C382.503 104.332 373.911 119.393 349.357 128.567C347.81 129.143 346.078 128.36 345.497 126.807C344.917 125.255 345.706 123.526 347.258 122.946C369.545 114.619 377.209 101.324 379.793 94.1396C380.808 91.3202 380.119 88.1699 378.04 86.1152C346.813 55.2314 273.026 24.3583 259.568 20.0722C258.06 19.5917 256.253 18.9267 254.161 18.1562C240.27 13.039 214.409 3.5136 187.051 14.5204C158.542 25.9902 141.813 55.9872 131.817 73.9101C130.733 75.8525 129.733 77.6464 128.811 79.2499C122.775 89.7353 114.572 93.7695 107.335 97.329C102.636 99.6406 98.5782 101.636 95.7696 105.057C93.3995 107.943 93.9278 113.592 97.2188 120.554C106.342 139.851 136.109 167.768 166.068 167.768C174.536 167.768 179.7 166.652 181.415 164.454C183.322 162.009 181.971 156.623 180.26 149.806L179.921 148.456C177.853 140.167 181.834 136.786 185.032 134.069C188.752 130.91 191.965 128.182 187.345 115.316C183.233 103.867 196.129 85.2695 210.436 74.6054C217.761 69.1474 224.441 76.4589 232.895 85.7216C247.387 101.599 269.191 125.484 314.715 125.484C315.349 125.484 315.981 125.479 316.624 125.47H316.668C318.305 125.47 319.643 126.784 319.667 128.427C319.691 130.083 318.367 131.445 316.711 131.47C316.055 131.478 315.399 131.483 314.751 131.483C266.537 131.483 242.753 105.422 228.463 89.7665C220.311 80.8339 216.719 77.4023 214.022 79.4159C207.343 84.3945 201.194 91.0771 197.151 97.7519C193.323 104.073 191.768 109.882 192.991 113.289C199.017 130.065 193.179 135.022 188.916 138.643C186.026 141.097 184.576 142.329 185.743 147.003L186.079 148.345C188.189 156.75 189.856 163.389 186.147 168.143C183.071 172.086 177.067 173.768 166.068 173.768H166.068Z" fill="black"/>
</svg>
