<svg width="394" height="400" viewBox="0 0 394 400" fill="none" xmlns="http://www.w3.org/2000/svg">
<path d="M185.884 212.306C196.192 210.791 199.918 208.802 209.591 204.089C219.264 199.377 226.448 194.335 239.014 203.469C251.579 212.603 248.344 233.726 249.006 239.9C249.669 246.073 254.136 270.338 253.926 275.735C253.717 281.132 250.439 304.417 238.434 302.533C226.429 300.65 219.366 285.187 214.014 274.649C211.763 270.219 209.45 258.208 191.485 253.066C182.36 250.455 177.665 213.514 185.884 212.306H185.884Z" fill="#2D8C3C"/>
<path d="M75.2522 97.633C64.8605 129.935 67.5848 222.199 72.7742 242.402C76.9213 258.547 80.9996 267.652 91.823 272.431C108.012 279.578 144.082 267.504 182.865 268.56C201.841 269.077 213.728 230.879 201.586 208.788C195.647 197.981 159.645 203.99 137.251 203.145L138.697 184.931C139.31 180.46 141.027 174.339 144.526 164.371C152.737 140.982 158.151 129.479 158.63 122.409C158.788 120.071 161.011 81.5577 121.681 67.4032C100.998 65.4847 84.9696 74.2893 75.2522 97.633V97.633Z" fill="black"/>
<path d="M136.767 184.414C135.822 191.305 137.506 194.268 139.38 201.281L136.767 184.414Z" fill="black"/>
<path d="M239.197 305.565C238.534 305.565 237.861 305.516 237.182 305.419C223.17 303.386 214.036 282.479 209.839 270.197C209.303 268.629 210.14 266.924 211.708 266.388C213.278 265.853 214.981 266.689 215.517 268.257C224.59 294.805 234.292 298.936 238.043 299.48C241.888 300.036 243.973 297.763 244.686 296.758C253.437 284.427 251.197 272.159 248.604 257.952C247.145 249.962 245.636 241.701 245.758 232.448C245.937 218.86 241.554 207.998 234.031 203.39C229.119 200.379 223.202 200.413 217.374 203.482C204.583 210.219 200.923 211.164 199.942 211.257L199.372 205.285C199.372 205.285 199.322 205.281 199.18 205.311C199.307 205.285 202.352 204.613 214.577 198.173C222.354 194.08 230.376 194.116 237.166 198.273C246.511 203.998 251.965 216.802 251.758 232.527C251.644 241.197 253.099 249.167 254.506 256.874C257.225 271.769 259.794 285.838 249.578 300.231C247.15 303.652 243.367 305.565 239.197 305.565H239.197Z" fill="black"/>
<path d="M104.055 277.198C98.0173 277.198 92.8581 276.503 88.6814 274.658C78.8845 270.333 72.532 262.131 69.2624 249.583C64.0183 229.451 59.8093 129.324 70.4665 96.1985C70.9743 94.6213 72.6628 93.7551 74.2409 94.262C75.8181 94.7688 76.6853 96.4592 76.1775 98.0364C66.0339 129.57 70.0691 228.878 75.0691 248.071C77.8855 258.878 82.9812 265.583 91.1052 269.17C99.2946 272.784 114.315 270.862 131.708 268.633C146.585 266.727 163.439 264.561 181.017 265.045C181.116 265.048 181.215 265.049 181.313 265.049C187.93 265.049 192.616 259.003 194.838 255.362C201.89 243.799 204.638 223.564 197.028 209.717C193.693 203.651 173.411 204.518 157.117 205.217C149.572 205.54 141.77 205.874 135.208 205.626C133.552 205.564 132.26 204.17 132.323 202.515C132.385 200.86 133.766 199.605 135.434 199.63C141.757 199.87 149.092 199.556 156.86 199.222C177.583 198.335 197.158 197.497 202.286 206.826C211.271 223.174 207.794 245.644 199.96 258.487C194.9 266.782 188.124 271.256 180.853 271.043C163.765 270.58 147.133 272.706 132.47 274.584C121.617 275.975 112.064 277.199 104.055 277.199L104.055 277.198Z" fill="black"/>
<path d="M139.378 204.282C138.052 204.282 136.839 203.398 136.481 202.056C136.222 201.085 135.971 200.19 135.736 199.347C132.858 189.034 132.44 185.382 140.555 162.267C141.983 158.202 143.289 154.549 144.473 151.234C150.046 135.638 152.843 127.81 153.077 119.865C153.089 119.478 153.816 81.0003 118.832 69.7424C117.255 69.2356 116.387 67.5452 116.895 65.968C117.402 64.3909 119.095 63.5247 120.67 64.0315C135.003 68.6428 146.072 78.3655 152.68 92.1477C157.699 102.615 159.261 113.716 159.075 120.042C158.813 128.936 155.909 137.062 150.123 153.253C148.942 156.559 147.64 160.201 146.217 164.255C138.391 186.542 139.116 189.137 141.515 197.734C141.756 198.596 142.012 199.514 142.278 200.507C142.706 202.108 141.755 203.752 140.154 204.18C139.895 204.249 139.634 204.282 139.378 204.282L139.378 204.282Z" fill="black"/>
<path d="M289.072 133.288C296.26 125.75 297.97 121.89 302.687 112.224C307.404 102.557 309.958 94.1634 325.486 93.6266C341.015 93.0898 351.482 111.723 355.808 116.18C360.134 120.636 378.606 137.004 381.766 141.385C384.927 145.766 396.692 166.129 386.073 172.034C375.454 177.938 360.362 170.103 349.651 165.094C345.148 162.989 335.924 154.949 318.602 161.956C309.803 165.514 283.341 139.299 289.072 133.288V133.288Z" fill="#2D8C3C"/>
<path d="M131.245 111.031C142.963 142.877 201.963 213.892 218.501 226.616C231.717 236.784 240.541 241.448 252.013 238.551C269.172 234.219 290.151 202.506 321.357 179.468C336.626 168.196 322.454 130.785 299.275 120.853C287.936 115.994 263.274 142.887 245.11 156.003L235.025 140.763C232.753 136.863 230.334 130.984 226.949 120.977C219.006 97.4954 216.182 85.1005 212.203 79.2355C210.887 77.2963 188.907 45.5844 149.197 58.6388C131.72 69.8568 124.517 86.6589 131.245 111.031L131.245 111.031Z" fill="black"/>
<path d="M233.186 141.543C236.687 147.554 239.84 148.852 245.637 153.224L233.186 141.543Z" fill="black"/>
<path d="M377.446 177.349C365.897 177.349 352.015 169.633 343.617 164.157C342.229 163.251 341.838 161.393 342.743 160.005C343.648 158.619 345.508 158.226 346.895 159.131C370.409 174.467 380.6 171.746 383.889 169.864C387.265 167.933 387.496 164.866 387.438 163.637C386.736 148.536 377.411 140.247 366.612 130.65C360.54 125.253 354.262 119.673 348.655 112.307C340.421 101.488 330.273 95.6284 321.5 96.6313C315.778 97.2866 311.141 100.953 308.442 106.955C302.516 120.134 300.214 123.132 299.499 123.809L295.372 119.454C295.372 119.454 295.325 119.488 295.236 119.593C295.319 119.495 297.305 117.093 302.97 104.494C306.57 96.4848 312.909 91.5756 320.817 90.6703C331.718 89.4155 343.902 96.1528 353.431 108.674C358.683 115.576 364.74 120.958 370.599 126.165C381.919 136.227 392.612 145.731 393.433 163.358C393.658 168.211 391.205 172.591 386.869 175.072C384.066 176.675 380.857 177.349 377.446 177.349V177.349Z" fill="black"/>
<path d="M243.096 243.233C235.43 243.233 227.864 240.32 220.158 234.433C203.622 221.801 138.606 145.505 126.59 112.846C126.017 111.292 126.814 109.567 128.369 108.995C129.923 108.421 131.648 109.219 132.221 110.774C143.66 141.863 208.035 217.622 223.801 229.666C232.681 236.449 240.828 238.594 249.438 236.422C258.117 234.23 268.765 223.469 281.097 211.009C291.644 200.35 303.599 188.269 317.735 177.834C323.18 173.814 323.156 166.012 322.658 161.718C321.097 148.261 310.793 130.62 296.254 124.389C289.893 121.662 274.446 134.826 262.037 145.406C256.291 150.304 250.35 155.37 245.025 159.215C243.683 160.184 241.807 159.882 240.837 158.538C239.867 157.195 240.17 155.32 241.514 154.349C246.641 150.646 252.229 145.883 258.144 140.84C273.924 127.387 288.831 114.682 298.617 118.874C315.78 126.228 326.884 146.082 328.618 161.027C329.737 170.668 327.138 178.35 321.3 182.661C307.537 192.82 295.756 204.725 285.361 215.229C271.865 228.867 261.206 239.638 250.907 242.239C248.286 242.9 245.685 243.233 243.096 243.233V243.233Z" fill="black"/>
<path d="M245.635 156.224C245.007 156.224 244.372 156.027 243.831 155.619C243.028 155.014 242.279 154.461 241.574 153.942C232.953 147.589 230.374 144.969 222.524 121.763C221.144 117.684 219.922 114.003 218.813 110.663C213.592 94.9437 210.972 87.0531 206.26 80.6478C206.03 80.3353 182.894 49.5706 148.392 62.2347C146.836 62.8021 145.114 62.0091 144.542 60.4525C143.971 58.8968 144.769 57.1732 146.324 56.6019C160.459 51.4144 175.169 52.2611 188.869 59.0521C199.272 64.2103 207.343 71.9945 211.094 77.0931C216.368 84.2621 219.088 92.4535 224.508 108.773C225.613 112.103 226.832 115.773 228.208 119.841C235.777 142.217 237.759 143.677 245.133 149.112C245.855 149.644 246.622 150.209 247.444 150.828C248.766 151.827 249.03 153.707 248.033 155.031C247.443 155.812 246.545 156.224 245.635 156.224L245.635 156.224Z" fill="black"/>
</svg>
