<svg width="578" height="412" viewBox="0 0 578 412" fill="none" xmlns="http://www.w3.org/2000/svg">
<path d="M567.292 234.045L32.7388 294.052C27.0018 294.696 21.6142 291.182 19.8945 285.675L0.55288 223.733C-1.70154 216.513 3.18652 209.029 10.7076 208.184L545.261 148.177C550.998 147.533 556.386 151.047 558.105 156.554L577.447 218.497C579.702 225.717 574.813 233.201 567.292 234.045Z" fill="#82BE28"/>
<path d="M213.193 3C213.193 3 267.261 15.8207 306.359 3C306.359 3 335.59 75.0668 261.557 75.0533C187.524 75.0397 213.193 3 213.193 3Z" fill="#2D8C3C"/>
<path d="M261.579 78.0537H261.557C239.105 78.0498 223.15 71.5654 214.135 58.7812C207.564 49.4619 204.84 36.6523 206.261 21.7383C207.317 10.6494 210.244 2.34178 210.368 1.99314C210.882 0.553685 212.4 -0.266635 213.885 0.0810251C214.419 0.207005 267.6 12.5537 305.425 0.149385C306.928 -0.340845 308.549 0.412085 309.14 1.87205C309.283 2.22361 312.651 10.6113 314.243 21.7842C316.387 36.8408 314.193 49.7412 307.895 59.0898C299.419 71.6728 283.834 78.0537 261.579 78.0537ZM215.242 6.51951C212.998 14.3642 207.392 38.831 219.052 55.3427C226.881 66.4277 241.181 72.0498 261.559 72.0537H261.58C281.708 72.0537 295.612 66.5703 302.909 55.7529C313.99 39.3252 307.176 14.6943 304.507 6.71678C288.364 11.4668 268.312 12.8388 244.855 10.7969C231.083 9.59764 220.125 7.53709 215.242 6.51952L215.242 6.51951Z" fill="black"/>
<path d="M358.578 124.165C379.752 138.954 456.135 153.546 462.76 158.765C466.194 161.471 475.642 172.965 475.9 193.108C476.059 205.514 489.934 208.079 505.697 207.668C539.182 206.794 531.392 186.98 522.198 165.067C511.479 139.519 494.044 135.845 484.595 132.759C433.103 115.943 376.589 80.2861 369.181 75.6738L358.578 124.165V124.165Z" fill="white"/>
<path d="M425.882 107.446C390.012 92.2734 375.142 79.3853 369.181 75.6737C361.773 71.0614 318.641 24.6154 308.782 14.6052C298.923 4.59498 250.397 40.2864 263.798 73.1092C263.798 73.1092 277.607 74.9168 278.754 75.6737C287.072 81.1633 325.323 100.938 358.577 124.165C367.512 130.405 386.574 135.95 406.124 140.667C417.415 132.557 418.448 118.937 425.882 107.446V107.446Z" fill="#2D8C3C"/>
<path d="M472.511 131.515C472.162 131.515 471.806 131.454 471.459 131.324C465.425 129.065 459.066 126.485 452.559 123.655C426.71 112.415 396.764 96.4207 368.236 78.6179L367.596 78.2195C361.709 74.5535 339.265 51.5418 315.887 27.2205L312.101 23.2839C311.955 23.1326 308.291 19.3103 306.418 13.1677C305.935 11.5828 306.828 9.90699 308.413 9.42359C309.992 8.94214 311.673 9.83277 312.157 11.4177C313.589 16.115 316.396 19.0935 316.423 19.1228L320.213 23.0623C333.527 36.9138 364.705 69.3504 370.768 73.1257L371.413 73.5281C399.698 91.1785 429.366 107.027 454.952 118.153C461.364 120.941 467.625 123.482 473.563 125.705C475.115 126.286 475.902 128.014 475.321 129.566C474.87 130.771 473.726 131.515 472.511 131.515Z" fill="black"/>
<path d="M502.675 210.708C490.199 210.708 482.124 208.557 477.395 204.009C474.469 201.195 472.957 197.541 472.9 193.146C472.617 170.961 461.021 161.213 460.903 161.121C458.861 159.517 444.065 155.598 431.011 152.14C404.013 144.989 370.413 136.089 356.861 126.625C335.535 111.729 289.353 82.8745 273.241 78.395C272.054 78.1245 265.145 77.9888 259.448 78.0327H259.428C257.78 78.0327 256.439 76.7027 256.428 75.0533C256.417 73.396 257.751 72.0435 259.407 72.0327C263.333 72.0083 272.68 72.0103 274.85 72.6138C293.834 77.8921 344.852 110.918 360.297 121.705C372.977 130.561 407.407 139.681 432.547 146.34C451.643 151.398 461.741 154.143 464.616 156.408C469.443 160.209 478.641 172.765 478.9 193.07C478.936 195.837 479.804 198.001 481.554 199.684C485.323 203.31 493.405 204.984 505.619 204.667C516.135 204.393 522.827 202.149 525.511 197.997C529.907 191.193 524.343 177.929 519.433 166.226C511.638 147.648 500.122 141.457 492.139 138.416C490.591 137.826 489.814 136.092 490.403 134.543C490.992 132.996 492.723 132.214 494.275 132.808C503.29 136.243 516.278 143.202 524.966 163.905C530.717 177.615 536.664 191.791 530.55 201.252C526.672 207.252 518.568 210.332 505.775 210.666C504.713 210.693 503.68 210.708 502.675 210.708V210.708Z" fill="black"/>
<path d="M111.739 71.2695C102.156 95.2421 98.6785 189.444 92.8976 195.584C90.1173 198.537 75.9368 211.77 62.9957 221.116C49.0283 231.204 36.6465 237.795 45.6223 251.295C51.4326 260.035 80.1281 255.715 99.3875 252.311C126.726 247.481 132.388 239.871 132.554 223.291C132.72 206.711 128.714 202.703 130.998 193.035C143.627 139.56 144.465 101.989 149.709 95.0172L111.739 71.2695V71.2695Z" fill="white"/>
<path d="M206.657 20.3763C206.657 20.3763 121.321 47.2963 111.738 71.2689C107.056 82.9821 103.831 111.461 101.083 138.242C100.429 144.662 129.168 148.102 140.81 141.691C146.05 115.796 148.442 103.576 151.725 99.2113C156.034 93.4827 212.217 82.1842 238.127 73.3767C243.748 71.4658 252.03 73.6709 253.963 72.0768C263.681 64.0603 240.345 14.0834 214.471 12.6767C211.487 12.5144 210.161 19.2929 206.657 20.3763L206.657 20.3763Z" fill="#2D8C3C"/>
<path d="M63.723 259.454C53.8295 259.455 46.2904 257.716 43.1244 252.956C33.4096 238.343 44.9838 230.175 57.2377 221.529C58.5443 220.607 59.8842 219.662 61.2387 218.683C73.8881 209.547 87.9701 196.44 90.7133 193.526C91.849 192.321 93.7465 192.262 94.9545 193.398C96.1605 194.534 96.2182 196.432 95.0824 197.639C91.8393 201.084 77.6019 214.266 64.7523 223.546C63.3793 224.539 62.0219 225.497 60.6976 226.431C47.4808 235.757 41.8988 240.275 48.1205 249.633C51.5512 254.792 68.6215 254.699 98.8646 249.356C125.112 244.718 129.408 237.864 129.554 223.259C129.594 219.264 129.58 216.046 129.568 213.205C129.53 204.418 129.511 200.006 131.323 192.335C137.979 164.151 140.969 141.814 143.152 125.505C145.241 109.906 146.391 101.313 149.328 97.4069C154.388 90.6813 206.707 76.4293 230.961 71.86C236.046 70.9029 245.186 71.3483 251.861 71.6744L254.101 71.7818C255.756 71.857 257.036 73.2604 256.961 74.9156C256.885 76.5699 255.476 77.8404 253.828 77.776L251.569 77.6676C245.551 77.3736 236.461 76.9303 232.073 77.7565C201.803 83.4586 157.664 97.107 154.096 101.048C152.129 103.665 150.792 113.654 149.099 126.301C146.899 142.735 143.886 165.241 137.162 193.713C135.514 200.693 135.531 204.606 135.568 213.179C135.58 216.04 135.594 219.281 135.554 223.32C135.359 242.768 126.698 250.531 99.9095 255.264C86.8236 257.577 74.0033 259.454 63.723 259.454H63.723Z" fill="black"/>
<path d="M96.1452 185.69C95.9977 185.69 95.8493 185.679 95.6999 185.658C94.0612 185.413 92.9304 183.887 93.1735 182.248C94.5153 173.231 95.8347 160.215 97.2321 146.436C100.223 116.941 103.613 83.5102 108.951 70.1557C112.427 61.4604 124.902 51.9545 147.088 41.0942C164.752 32.4467 184.706 24.894 198.335 20.0815C201.167 19.0815 206.182 16.5697 207.95 10.9799C208.45 9.39886 210.137 8.52288 211.715 9.02386C213.295 9.52288 214.171 11.2084 213.671 12.7885C211.806 18.685 206.945 23.4057 200.333 25.7397C151.365 43.0307 119.287 60.4682 114.522 72.3823C109.497 84.9545 106.007 119.38 103.202 147.041C101.798 160.892 100.47 173.975 99.1091 183.131C98.8874 184.621 97.6071 185.69 96.1452 185.69H96.1452Z" fill="black"/>
</svg>
