<svg width="578" height="412" viewBox="0 0 578 412" fill="none" xmlns="http://www.w3.org/2000/svg">
<path d="M567.292 234.047L32.7388 294.054C27.0018 294.698 21.6142 291.184 19.8945 285.677L0.55288 223.735C-1.70154 216.515 3.18652 209.03 10.7076 208.186L545.261 148.179C550.998 147.535 556.386 151.049 558.105 156.556L577.447 218.499C579.702 225.719 574.813 233.203 567.292 234.047Z" fill="#2D8C3C"/>
<path d="M213.195 3.00195C213.195 3.00195 267.263 15.8227 306.361 3.00195C306.361 3.00195 335.592 75.0688 261.559 75.0552C187.526 75.0417 213.195 3.00195 213.195 3.00195Z" fill="white"/>
<path d="M261.579 78.0537H261.557C239.105 78.0498 223.15 71.5654 214.135 58.7812C207.564 49.4619 204.84 36.6523 206.261 21.7383C207.317 10.6494 210.244 2.34178 210.368 1.99314C210.882 0.553685 212.395 -0.266635 213.885 0.0810251C214.419 0.207005 267.6 12.5537 305.425 0.149385C306.928 -0.340845 308.548 0.412085 309.14 1.87205C309.283 2.22361 312.651 10.6113 314.243 21.7842C316.387 36.8408 314.193 49.7412 307.895 59.0898C299.419 71.6728 283.834 78.0537 261.579 78.0537ZM215.242 6.51951C212.998 14.3642 207.392 38.831 219.052 55.3427C226.881 66.4277 241.181 72.0498 261.559 72.0537H261.58C281.708 72.0537 295.612 66.5703 302.909 55.7529C313.99 39.3252 307.176 14.6943 304.507 6.71678C288.364 11.4668 268.313 12.8388 244.855 10.7969C231.083 9.59764 220.125 7.53709 215.242 6.51952L215.242 6.51951Z" fill="black"/>
<path d="M358.578 124.165C379.752 138.954 456.135 153.546 462.76 158.765C466.194 161.471 475.642 172.965 475.9 193.108C476.059 205.514 489.934 208.079 505.697 207.668C539.182 206.794 531.392 186.98 522.198 165.067C511.479 139.519 494.044 135.845 484.595 132.759C433.103 115.943 376.589 80.2861 369.181 75.6738L358.578 124.165V124.165Z" fill="white"/>
<path d="M425.884 107.446C390.014 92.2734 375.144 79.3853 369.183 75.6737C361.775 71.0614 318.643 24.6154 308.784 14.6052C298.924 4.59498 250.399 40.2864 263.799 73.1092C263.799 73.1092 277.609 74.9168 278.756 75.6737C287.074 81.1633 325.324 100.938 358.579 124.165C367.514 130.405 386.576 135.95 406.126 140.667C417.417 132.557 418.45 118.937 425.884 107.446V107.446Z" fill="white"/>
<path d="M472.511 131.517C472.162 131.517 471.806 131.456 471.459 131.326C465.425 129.067 459.066 126.487 452.559 123.657C426.71 112.417 396.764 96.4226 368.236 78.6199L367.596 78.2214C361.709 74.5554 339.265 51.5437 315.887 27.2224L312.101 23.2859C311.955 23.1345 308.291 19.3123 306.418 13.1697C305.935 11.5847 306.828 9.90895 308.413 9.42555C309.99 8.9441 311.673 9.83472 312.157 11.4197C313.589 16.117 316.396 19.0955 316.423 19.1248L320.213 23.0642C333.527 36.9158 364.705 69.3523 370.768 73.1277L371.413 73.53C399.698 91.1804 429.366 107.029 454.952 118.155C461.364 120.943 467.625 123.484 473.563 125.707C475.115 126.288 475.902 128.016 475.321 129.568C474.87 130.773 473.726 131.517 472.511 131.517Z" fill="black"/>
<path d="M502.675 210.709C490.199 210.709 482.124 208.559 477.395 204.011C474.469 201.197 472.957 197.542 472.9 193.148C472.617 170.963 461.021 161.215 460.903 161.123C458.861 159.519 444.065 155.6 431.011 152.142C404.013 144.991 370.413 136.091 356.861 126.626C335.535 111.731 289.353 82.8765 273.241 78.397C272.054 78.1265 265.146 77.9907 259.448 78.0347H259.428C257.78 78.0347 256.439 76.7046 256.428 75.0552C256.417 73.398 257.751 72.0454 259.407 72.0347C263.329 72.0103 272.68 72.0122 274.85 72.6157C293.834 77.8941 344.852 110.919 360.297 121.707C372.977 130.563 407.407 139.683 432.547 146.342C451.643 151.4 461.741 154.145 464.616 156.41C469.443 160.211 478.641 172.767 478.9 193.072C478.936 195.839 479.804 198.002 481.554 199.686C485.324 203.312 493.411 204.986 505.619 204.669C516.135 204.395 522.827 202.151 525.511 197.999C529.907 191.195 524.343 177.931 519.433 166.228C511.638 147.65 500.122 141.459 492.139 138.417C490.591 137.828 489.814 136.094 490.403 134.545C490.992 132.998 492.725 132.216 494.275 132.81C503.29 136.245 516.278 143.204 524.966 163.907C530.717 177.617 536.664 191.792 530.55 201.254C526.672 207.254 518.568 210.334 505.775 210.667C504.713 210.695 503.68 210.709 502.675 210.709V210.709Z" fill="black"/>
<path d="M111.739 71.2695C102.156 95.2421 98.6785 189.444 92.8976 195.584C90.1173 198.537 75.9368 211.77 62.9957 221.116C49.0283 231.204 36.6465 237.795 45.6223 251.295C51.4326 260.035 80.1281 255.715 99.3875 252.311C126.726 247.481 132.388 239.871 132.554 223.291C132.72 206.711 128.714 202.703 130.998 193.035C143.627 139.56 144.465 101.989 149.709 95.0172L111.739 71.2695V71.2695Z" fill="white"/>
<path d="M206.657 20.3763C206.657 20.3763 121.321 47.2963 111.738 71.2689C107.056 82.9821 103.831 111.461 101.083 138.242C100.429 144.662 129.168 148.102 140.81 141.691C146.05 115.796 148.442 103.576 151.725 99.2113C156.034 93.4827 212.217 82.1842 238.127 73.3767C243.748 71.4658 252.03 73.6709 253.963 72.0768C263.681 64.0603 240.345 14.0834 214.471 12.6767C211.487 12.5144 210.161 19.2929 206.657 20.3763L206.657 20.3763Z" fill="white"/>
<path d="M63.723 259.456C53.8295 259.457 46.2904 257.718 43.1244 252.958C33.4096 238.345 44.9838 230.177 57.2377 221.531C58.5443 220.609 59.8842 219.664 61.2387 218.685C73.8881 209.549 87.9701 196.442 90.7133 193.528C91.849 192.323 93.7455 192.264 94.9545 193.4C96.1605 194.536 96.2182 196.434 95.0824 197.641C91.8393 201.086 77.6019 214.268 64.7523 223.548C63.3793 224.541 62.0219 225.499 60.6976 226.433C47.4808 235.759 41.8988 240.277 48.1205 249.635C51.5512 254.794 68.6215 254.701 98.8646 249.358C125.112 244.72 129.408 237.866 129.554 223.261C129.594 219.266 129.58 216.047 129.568 213.207C129.53 204.42 129.511 200.008 131.323 192.337C137.979 164.153 140.969 141.816 143.152 125.507C145.241 109.908 146.391 101.315 149.328 97.4088C154.388 90.6832 206.707 76.4313 230.961 71.8619C236.046 70.9049 245.186 71.3502 251.861 71.6764L254.101 71.7838C255.756 71.859 257.036 73.2623 256.961 74.9176C256.886 76.5719 255.486 77.8424 253.828 77.7779L251.569 77.6695C245.55 77.3756 236.46 76.9322 232.073 77.7584C201.803 83.4606 157.664 97.109 154.096 101.05C152.129 103.667 150.792 113.656 149.099 126.303C146.899 142.737 143.886 165.243 137.162 193.715C135.514 200.695 135.531 204.608 135.568 213.181C135.58 216.042 135.594 219.283 135.554 223.322C135.359 242.77 126.698 250.533 99.9095 255.266C86.8236 257.579 74.0033 259.456 63.723 259.456H63.723Z" fill="black"/>
<path d="M96.1472 185.69C95.9997 185.69 95.8513 185.679 95.7018 185.658C94.0632 185.413 92.9323 183.887 93.1755 182.248C94.5173 173.231 95.8366 160.215 97.2341 146.436C100.225 116.941 103.615 83.5102 108.953 70.1557C112.429 61.4604 124.904 51.9545 147.09 41.0942C164.754 32.4467 184.708 24.894 198.337 20.0815C201.169 19.0815 206.184 16.5697 207.952 10.9799C208.452 9.39886 210.138 8.52288 211.716 9.02386C213.297 9.52288 214.173 11.2084 213.673 12.7885C211.808 18.685 206.947 23.4057 200.335 25.7397C151.367 43.0307 119.289 60.4682 114.524 72.3823C109.499 84.9545 106.008 119.38 103.204 147.041C101.799 160.892 100.472 173.975 99.111 183.131C98.8893 184.621 97.6091 185.69 96.1472 185.69H96.1472Z" fill="black"/>
<path d="M405.317 144.691C404.088 144.691 402.934 143.929 402.494 142.705C401.934 141.146 402.743 139.428 404.303 138.867C419.024 133.577 421.969 123.153 421.861 109.129C421.849 107.472 423.182 106.118 424.838 106.105H424.861C426.508 106.105 427.849 107.434 427.861 109.082C427.966 122.739 425.49 137.629 406.332 144.514C405.997 144.634 405.654 144.691 405.317 144.691H405.317Z" fill="black"/>
<path d="M122.847 148.08C114.174 148.08 105.543 146.459 101.362 143.693C98.2245 141.617 97.9716 139.197 98.0995 137.939C98.2684 136.292 99.7606 135.098 101.388 135.259C102.932 135.416 104.082 136.718 104.084 138.236C106.458 141.26 129.016 144.764 139.363 139.064C140.815 138.266 142.639 138.794 143.438 140.245C144.237 141.696 143.709 143.521 142.258 144.32C137.533 146.922 130.175 148.079 122.847 148.08H122.847Z" fill="black"/>
</svg>
