<svg width="587" height="498" viewBox="0 0 587 498" fill="none" xmlns="http://www.w3.org/2000/svg">
<path d="M435.84 10.7422C422.28 3.34222 409.39 0.792223 407.06 5.06222L402.93 12.6322C400.6 16.9022 409.7 26.3622 423.27 33.7722C436.84 41.1822 449.72 43.7222 452.05 39.4522L456.18 31.8822C458.51 27.6122 449.41 18.1522 435.84 10.7422Z" fill="white"/>
<path d="M456.931 28.4533C458.898 24.6519 449.713 15.9921 436.416 9.11106C423.118 2.23003 410.744 -0.266496 408.777 3.53491C406.809 7.33632 415.995 15.9961 429.292 22.8772C442.59 29.7582 454.964 32.2547 456.931 28.4533Z" fill="#82BE28"/>
<path d="M446.629 44.5114C445.119 44.5114 443.349 44.3314 441.289 43.9314C435.559 42.8014 428.649 40.1314 421.829 36.4014C415.009 32.6814 409.019 28.3114 404.979 24.1014C398.799 17.6714 399.019 13.5314 400.299 11.1914L404.429 3.62138C406.749 -0.628616 413.589 -1.15862 423.689 2.14138C425.269 2.65138 426.129 4.35138 425.609 5.92138C425.099 7.50138 423.399 8.36138 421.829 7.84138C413.339 5.07138 410.039 6.11138 409.679 6.52138L405.559 14.0614C405.129 15.6214 410.339 23.2914 424.699 31.1314C439.059 38.9714 448.319 39.2114 449.419 37.9814L453.539 30.4414C453.969 28.8814 448.759 21.2114 434.399 13.3714C432.949 12.5814 432.409 10.7514 433.199 9.30138C433.989 7.85139 435.819 7.31139 437.269 8.10139C444.089 11.8214 450.079 16.1914 454.119 20.4014C460.299 26.8314 460.079 30.9714 458.799 33.3114L454.669 40.8814C453.689 42.6714 451.499 44.5114 446.619 44.5114H446.629Z" fill="black"/>
<path d="M452.26 34.3023C446.03 34.3023 436.88 31.3823 427.4 26.2023C423.97 24.3323 420.75 22.3023 417.84 20.1623C416.5 19.1823 416.21 17.3023 417.19 15.9723C418.17 14.6323 420.05 14.3523 421.38 15.3223C424.08 17.3023 427.07 19.1923 430.27 20.9323C441.51 27.0723 451.14 29.1723 454.5 28.0323C456.07 27.5023 457.77 28.3423 458.3 29.9123C458.83 31.4823 457.99 33.1823 456.42 33.7123C455.25 34.1023 453.85 34.3023 452.25 34.3023H452.26Z" fill="black"/>
<path d="M62.1018 172.091C50.0218 181.721 42.6818 192.621 45.7218 196.421L51.0918 203.161C54.1218 206.961 66.3718 202.241 78.4618 192.601C90.5418 182.971 97.8818 172.071 94.8418 168.271L89.4718 161.531C86.4418 157.731 74.1918 162.451 62.1018 172.091Z" fill="white"/>
<path d="M71.451 183.763C83.4336 174.786 91.067 164.732 88.5007 161.306C85.9343 157.881 74.1401 162.381 62.1574 171.359C50.1748 180.336 42.5414 190.39 45.1077 193.816C47.674 197.241 59.4683 192.741 71.451 183.763Z" fill="#82BE28"/>
<path d="M54.5794 207.441C52.1094 207.441 50.0794 206.711 48.7394 205.031L43.3694 198.291C40.3494 194.501 42.5094 187.991 49.4594 179.961C50.5394 178.711 52.4394 178.571 53.6894 179.651C54.9394 180.731 55.0794 182.631 53.9994 183.881C48.1594 190.631 47.8394 194.081 48.0694 194.571L53.4294 201.291C54.6994 202.291 63.7894 200.461 76.5794 190.261C89.3694 180.061 93.1794 171.611 92.4694 170.121L87.1094 163.401C85.8394 162.401 76.7494 164.231 63.9594 174.431C62.6694 175.461 60.7794 175.251 59.7394 173.951C58.7094 172.661 58.9194 170.771 60.2194 169.731C66.2994 164.891 72.6394 161.061 78.0894 158.961C86.4094 155.751 90.1394 157.561 91.8094 159.651L97.1794 166.391C102.239 172.731 91.9894 185.631 80.3194 194.941C71.7394 201.781 61.4394 207.441 54.5794 207.441Z" fill="black"/>
<path d="M62.2699 192.76C61.2499 192.76 60.2599 192.24 59.6999 191.3C58.8499 189.88 59.3099 188.04 60.7299 187.18C63.6099 185.45 66.5099 183.43 69.3499 181.16C79.3599 173.18 85.0299 165.11 85.2799 161.57C85.3999 159.92 86.8099 158.65 88.4899 158.79C90.1399 158.91 91.3899 160.34 91.2699 162C90.8399 168.03 83.7099 177.39 73.0999 185.85C70.0499 188.28 66.9299 190.46 63.8299 192.33C63.3499 192.62 62.8099 192.76 62.2899 192.76H62.2699Z" fill="black"/>
<path d="M104.45 42.3109C89.2901 45.2909 77.7601 51.5809 78.7001 56.3509L80.3601 64.8109C81.3001 69.5809 94.3501 71.0409 109.51 68.0509C124.67 65.0709 136.2 58.7809 135.26 54.0109L133.6 45.5509C132.66 40.7809 119.61 39.3209 104.45 42.3109Z" fill="white"/>
<path d="M107.362 56.9844C122.133 54.5416 133.542 49.138 132.844 44.9152C132.146 40.6923 119.604 39.2493 104.833 41.6921C90.0609 44.1349 78.652 49.5385 79.3504 53.7614C80.0487 57.9842 92.5897 59.4273 107.362 56.9844Z" fill="#82BE28"/>
<path d="M94.7599 72.59C85.7399 72.59 78.4299 70.5599 77.4199 65.3799L75.7599 56.92C74.8199 52.16 79.7499 47.38 89.6199 43.46C91.1599 42.85 92.9099 43.6 93.5199 45.14C94.1299 46.68 93.3799 48.42 91.8399 49.04C83.5399 52.34 81.6699 55.25 81.6499 55.79L83.3099 64.22C83.9799 65.7 92.8899 68.25 108.94 65.1C124.99 61.94 132.27 56.2 132.33 54.56L130.67 46.13C130 44.65 121.09 42.09 105.04 45.25C103.42 45.58 101.84 44.51 101.52 42.89C101.2 41.26 102.26 39.69 103.88 39.37C118.52 36.49 134.99 37.02 136.55 44.98L138.21 53.44C138.72 56.06 137.7 60.0799 129.86 64.3399C124.74 67.1299 117.71 69.5 110.09 71C104.97 72.01 99.6099 72.6 94.7599 72.6V72.59Z" fill="black"/>
<path d="M96.4409 61.0702C94.8709 61.0702 93.5509 59.8502 93.4509 58.2602C93.3509 56.6102 94.6109 55.1802 96.2609 55.0802C99.6009 54.8702 103.111 54.4102 106.691 53.7102C119.251 51.2402 128.001 46.6902 129.861 43.6702C130.731 42.2602 132.571 41.8102 133.991 42.6802C135.401 43.5502 135.841 45.3902 134.981 46.8102C131.821 51.9602 121.171 56.9802 107.861 59.6002C104.031 60.3502 100.251 60.8502 96.6509 61.0702C96.5909 61.0702 96.5209 61.0702 96.4609 61.0702H96.4409Z" fill="black"/>
<path d="M200.31 102.241C200.31 102.241 156.53 206.391 119.22 230.631C81.9098 254.871 69.0498 273.351 81.0398 295.491C93.0298 317.631 124.29 330.201 163.99 321.861C203.69 313.511 248.46 315.101 280.56 322.701C312.66 330.301 330.4 316.791 356.58 315.941C382.76 315.091 439.36 323.541 462.16 320.161C484.96 316.781 513.69 310.871 489.19 277.081C464.69 243.291 405.87 177.581 396.43 155.951C386.99 134.331 365.03 97.1608 337.15 98.0008C309.27 98.8408 218.05 65.9008 200.31 102.221V102.241Z" fill="white"/>
<path d="M96.4409 253.471C80.9909 253.471 68.4609 257.411 68.4609 262.281V276.901C68.4609 281.761 80.9909 285.711 96.4409 285.711C111.891 285.711 124.421 281.771 124.421 276.901V262.281C124.421 257.421 111.891 253.471 96.4409 253.471Z" fill="white"/>
<path d="M90.23 240.49C74.78 240.49 62.25 244.43 62.25 249.3V263.92C62.25 268.78 74.78 272.73 90.23 272.73C105.68 272.73 118.21 268.79 118.21 263.92V249.3C118.21 244.44 105.68 240.49 90.23 240.49Z" fill="white"/>
<path d="M109.21 222.371C93.7605 222.371 81.2305 226.311 81.2305 231.181V245.801C81.2305 250.661 93.7605 254.611 109.21 254.611C124.66 254.611 137.19 250.671 137.19 245.801V231.181C137.19 226.321 124.66 222.371 109.21 222.371Z" fill="white"/>
<path d="M111.001 239.852C125.973 239.852 138.111 236.382 138.111 232.102C138.111 227.821 125.973 224.352 111.001 224.352C96.0282 224.352 83.8906 227.821 83.8906 232.102C83.8906 236.382 96.0282 239.852 111.001 239.852Z" fill="#82BE28"/>
<path d="M141.21 213.771C125.76 213.771 113.23 217.711 113.23 222.581V237.201C113.23 242.061 125.76 246.011 141.21 246.011C156.66 246.011 169.19 242.071 169.19 237.201V222.581C169.19 217.721 156.66 213.771 141.21 213.771Z" fill="white"/>
<path d="M135 200.791C119.55 200.791 107.02 204.731 107.02 209.601V224.221C107.02 229.081 119.55 233.031 135 233.031C150.45 233.031 162.98 229.091 162.98 224.221V209.601C162.98 204.741 150.45 200.791 135 200.791Z" fill="white"/>
<path d="M153.98 182.672C138.53 182.672 126 186.612 126 191.482V206.102C126 210.962 138.53 214.912 153.98 214.912C169.43 214.912 181.96 210.972 181.96 206.102V191.482C181.96 186.622 169.43 182.672 153.98 182.672Z" fill="white"/>
<path d="M158.109 160.551C142.659 160.551 130.129 164.491 130.129 169.361V183.981C130.129 188.841 142.659 192.791 158.109 192.791C173.559 192.791 186.089 188.851 186.089 183.981V169.361C186.089 164.501 173.559 160.551 158.109 160.551Z" fill="white"/>
<path d="M151.9 147.58C136.45 147.58 123.92 151.52 123.92 156.39V171.01C123.92 175.87 136.45 179.82 151.9 179.82C167.35 179.82 179.88 175.88 179.88 171.01V156.39C179.88 151.53 167.35 147.58 151.9 147.58Z" fill="white"/>
<path d="M152.85 163.68C167.823 163.68 179.96 160.21 179.96 155.93C179.96 151.649 167.823 148.18 152.85 148.18C137.878 148.18 125.74 151.649 125.74 155.93C125.74 160.21 137.878 163.68 152.85 163.68Z" fill="#82BE28"/>
<path d="M170.871 129.461C155.421 129.461 142.891 133.401 142.891 138.271V152.891C142.891 157.751 155.421 161.701 170.871 161.701C186.321 161.701 198.851 157.761 198.851 152.891V138.271C198.851 133.411 186.321 129.461 170.871 129.461Z" fill="white"/>
<path d="M178.21 147.461C162.76 147.461 150.23 151.401 150.23 156.271V170.891C150.23 175.751 162.76 179.701 178.21 179.701C193.66 179.701 206.19 175.761 206.19 170.891V156.271C206.19 151.411 193.66 147.461 178.21 147.461Z" fill="white"/>
<path d="M173.059 145.82C188.032 145.82 200.169 142.351 200.169 138.07C200.169 133.79 188.032 130.32 173.059 130.32C158.087 130.32 145.949 133.79 145.949 138.07C145.949 142.351 158.087 145.82 173.059 145.82Z" fill="white"/>
<path d="M197.81 109.031C182.36 109.031 169.83 112.971 169.83 117.841V132.461C169.83 137.321 182.36 141.271 197.81 141.271C213.26 141.271 225.79 137.331 225.79 132.461V117.841C225.79 112.981 213.26 109.031 197.81 109.031Z" fill="white"/>
<path d="M191.601 96.0508C176.151 96.0508 163.621 99.9908 163.621 104.861V119.481C163.621 124.341 176.151 128.291 191.601 128.291C207.051 128.291 219.581 124.351 219.581 119.481V104.861C219.581 100.001 207.051 96.0508 191.601 96.0508Z" fill="white"/>
<path d="M192.809 113.852C207.782 113.852 219.919 110.382 219.919 106.102C219.919 101.821 207.782 98.3516 192.809 98.3516C177.837 98.3516 165.699 101.821 165.699 106.102C165.699 110.382 177.837 113.852 192.809 113.852Z" fill="white"/>
<path d="M210.57 77.9297C195.12 77.9297 182.59 81.8697 182.59 86.7397V101.36C182.59 106.22 195.12 110.17 210.57 110.17C226.02 110.17 238.55 106.23 238.55 101.36V86.7397C238.55 81.8797 226.02 77.9297 210.57 77.9297Z" fill="white"/>
<path d="M211.62 93.1602C226.592 93.1602 238.73 89.6904 238.73 85.4102C238.73 81.1299 226.592 77.6602 211.62 77.6602C196.647 77.6602 184.51 81.1299 184.51 85.4102C184.51 89.6904 196.647 93.1602 211.62 93.1602Z" fill="#82BE28"/>
<path d="M240.039 104.811C224.589 104.811 212.059 108.751 212.059 113.621V128.241C212.059 133.101 224.589 137.051 240.039 137.051C255.489 137.051 268.019 133.111 268.019 128.241V113.621C268.019 108.761 255.489 104.811 240.039 104.811Z" fill="white"/>
<path d="M233.83 91.8301C218.38 91.8301 205.85 95.7701 205.85 100.64V115.26C205.85 120.12 218.38 124.07 233.83 124.07C249.28 124.07 261.81 120.13 261.81 115.26V100.64C261.81 95.7801 249.28 91.8301 233.83 91.8301Z" fill="white"/>
<path d="M263.34 69.0807C249.93 61.4107 237.1 58.6107 234.68 62.8307L227.42 75.5207C225 79.7407 233.92 89.3807 247.33 97.0607C260.74 104.741 273.57 107.531 275.99 103.311L283.25 90.6207C285.67 86.4007 276.75 76.7607 263.34 69.0807Z" fill="white"/>
<path d="M281.332 89.9257C283.635 86.3182 275.273 76.8615 262.654 68.8036C250.035 60.7457 237.937 57.138 235.634 60.7454C233.33 64.3529 241.693 73.8096 254.312 81.8675C266.931 89.9254 279.028 93.5332 281.332 89.9257Z" fill="#82BE28"/>
<path d="M270.629 93.971C270.349 93.971 270.059 93.931 269.779 93.851C264.769 92.371 259.219 89.921 253.729 86.781C246.979 82.921 241.089 78.441 237.119 74.151C231.059 67.601 231.369 63.471 232.699 61.151C233.519 59.711 235.359 59.211 236.789 60.031C238.219 60.851 238.719 62.671 237.909 64.111C237.459 65.711 242.529 73.461 256.699 81.571C261.799 84.491 266.909 86.741 271.479 88.101C273.069 88.571 273.969 90.241 273.499 91.831C273.109 93.131 271.919 93.981 270.619 93.981L270.629 93.971Z" fill="black"/>
<path d="M248.269 100.58C247.779 100.58 247.279 100.46 246.819 100.2C246.499 100.02 246.179 99.8399 245.859 99.6599C232.909 92.2499 220.809 81.0699 224.829 74.0299C225.649 72.5899 227.489 72.0899 228.919 72.9099C230.349 73.7299 230.849 75.5499 230.039 76.9899C229.589 78.5899 234.659 86.3399 248.829 94.4499C249.129 94.6199 249.429 94.7899 249.729 94.9599C251.179 95.7599 251.699 97.5899 250.899 99.0399C250.349 100.03 249.329 100.58 248.269 100.58Z" fill="black"/>
<path d="M289.201 114.012C273.751 114.012 261.221 117.952 261.221 122.822V137.442C261.221 142.302 273.751 146.252 289.201 146.252C304.651 146.252 317.181 142.312 317.181 137.442V122.822C317.181 117.962 304.651 114.012 289.201 114.012Z" fill="white"/>
<path d="M301.96 82.9102C286.51 82.9102 273.98 86.8502 273.98 91.7202V106.34C273.98 111.2 286.51 115.15 301.96 115.15C317.41 115.15 329.94 111.21 329.94 106.34V91.7202C329.94 86.8602 317.41 82.9102 301.96 82.9102Z" fill="white"/>
<path d="M326.813 91.2201C326.869 86.9403 314.778 83.3119 299.807 83.116C284.835 82.92 272.654 86.2306 272.598 90.5104C272.542 94.7903 284.633 98.4186 299.604 98.6146C314.575 98.8106 326.757 95.5 326.813 91.2201Z" fill="#82BE28"/>
<path d="M58.4292 296.551C42.9792 296.551 30.4492 300.491 30.4492 305.361V319.981C30.4492 324.841 42.9792 328.791 58.4292 328.791C73.8792 328.791 86.4092 324.851 86.4092 319.981V305.361C86.4092 300.501 73.8792 296.551 58.4292 296.551Z" fill="white"/>
<path d="M52.2202 283.57C36.7702 283.57 24.2402 287.51 24.2402 292.38V307C24.2402 311.86 36.7702 315.81 52.2202 315.81C67.6702 315.81 80.2002 311.87 80.2002 307V292.38C80.2002 287.52 67.6702 283.57 52.2202 283.57Z" fill="white"/>
<path d="M71.2007 265.451C55.7507 265.451 43.2207 269.391 43.2207 274.261V288.881C43.2207 293.741 55.7507 297.691 71.2007 297.691C86.6507 297.691 99.1807 293.751 99.1807 288.881V274.261C99.1807 269.401 86.6507 265.451 71.2007 265.451Z" fill="white"/>
<path d="M455.259 241.441C470.709 241.441 483.239 245.381 483.239 250.251V264.871C483.239 269.731 470.709 273.681 455.259 273.681C439.809 273.681 427.279 269.741 427.279 264.871V250.251C427.279 245.391 439.809 241.441 455.259 241.441Z" fill="white"/>
<path d="M461.47 228.471C476.92 228.471 489.45 232.411 489.45 237.281V251.901C489.45 256.761 476.92 260.711 461.47 260.711C446.02 260.711 433.49 256.771 433.49 251.901V237.281C433.49 232.421 446.02 228.471 461.47 228.471Z" fill="white"/>
<path d="M442.49 210.34C457.94 210.34 470.47 214.28 470.47 219.15V233.77C470.47 238.63 457.94 242.58 442.49 242.58C427.04 242.58 414.51 238.64 414.51 233.77V219.15C414.51 214.29 427.04 210.34 442.49 210.34Z" fill="white"/>
<path d="M431.06 176.941C446.51 176.941 459.04 180.881 459.04 185.751V200.371C459.04 205.231 446.51 209.181 431.06 209.181C415.61 209.181 403.08 205.241 403.08 200.371V185.751C403.08 180.891 415.61 176.941 431.06 176.941Z" fill="white"/>
<path d="M412.082 158.82C427.532 158.82 440.062 162.76 440.062 167.63V182.25C440.062 187.11 427.532 191.06 412.082 191.06C396.632 191.06 384.102 187.12 384.102 182.25V167.63C384.102 162.77 396.632 158.82 412.082 158.82Z" fill="white"/>
<path d="M390.22 136.701C405.67 136.701 418.2 140.641 418.2 145.511V160.131C418.2 164.991 405.67 168.941 390.22 168.941C374.77 168.941 362.24 165.001 362.24 160.131V145.511C362.24 140.651 374.77 136.701 390.22 136.701Z" fill="white"/>
<path d="M396.431 123.73C411.881 123.73 424.411 127.67 424.411 132.54V147.16C424.411 152.02 411.881 155.97 396.431 155.97C380.981 155.97 368.451 152.03 368.451 147.16V132.54C368.451 127.68 380.981 123.73 396.431 123.73Z" fill="white"/>
<path d="M377.451 105.602C392.901 105.602 405.431 109.542 405.431 114.412V129.032C405.431 133.892 392.901 137.842 377.451 137.842C362.001 137.842 349.471 133.902 349.471 129.032V114.412C349.471 109.552 362.001 105.602 377.451 105.602Z" fill="white"/>
<path d="M352.21 105.451C367.66 105.451 380.19 109.391 380.19 114.261V128.881C380.19 133.741 367.66 137.691 352.21 137.691C336.76 137.691 324.23 133.751 324.23 128.881V114.261C324.23 109.401 336.76 105.451 352.21 105.451Z" fill="white"/>
<path d="M358.421 92.4707C373.871 92.4707 386.401 96.4107 386.401 101.281V115.901C386.401 120.761 373.871 124.711 358.421 124.711C342.971 124.711 330.441 120.771 330.441 115.901V101.281C330.441 96.4207 342.971 92.4707 358.421 92.4707Z" fill="white"/>
<path d="M340.15 77.481C355.03 73.311 368.15 73.721 369.47 78.401L373.42 92.481C374.73 97.161 363.74 104.341 348.86 108.521C333.98 112.691 320.86 112.281 319.54 107.601L315.59 93.521C314.28 88.841 325.27 81.661 340.15 77.481Z" fill="white"/>
<path d="M346.137 97.1711C361.373 92.1821 372.302 83.7893 370.545 78.4251C368.789 73.061 355.013 72.7569 339.776 77.7459C324.539 82.7349 313.611 91.1278 315.368 96.4919C317.124 101.856 330.9 102.16 346.137 97.1711Z" fill="#82BE28"/>
<path d="M330.35 114.401C329.9 114.401 329.46 114.401 329.02 114.381C320.1 114.101 317.37 110.981 316.65 108.411C316.2 106.811 317.13 105.161 318.73 104.711C320.33 104.261 321.98 105.191 322.43 106.791C323.21 108.211 332.3 110.051 348.05 105.631C363.8 101.211 370.6 94.9107 370.53 93.2607L368.66 86.5907C368.21 84.9907 369.14 83.3407 370.74 82.8907C372.34 82.4407 373.99 83.3707 374.44 84.9707L376.32 91.6607C377.04 94.2307 376.33 98.3207 368.86 103.191C363.97 106.381 357.16 109.301 349.68 111.401C342.76 113.341 335.96 114.391 330.36 114.391L330.35 114.401Z" fill="black"/>
<path d="M349.129 101.421C347.859 101.421 346.679 100.601 346.269 99.3211C345.769 97.7411 346.649 96.0611 348.229 95.5511C362.259 91.1111 368.029 85.4911 367.959 84.0011C367.509 82.4111 368.449 80.7611 370.039 80.3111C371.639 79.8611 373.289 80.8111 373.739 82.4011C375.899 90.1011 362.319 97.3711 350.039 101.261C349.739 101.351 349.429 101.401 349.129 101.401V101.421Z" fill="black"/>
<path d="M493.271 284.521C508.721 284.521 521.251 288.461 521.251 293.331V307.952C521.251 312.812 508.721 316.762 493.271 316.762C477.821 316.762 465.291 312.822 465.291 307.952V293.331C465.291 288.471 477.821 284.521 493.271 284.521Z" fill="white"/>
<path d="M499.48 271.541C514.93 271.541 527.46 275.481 527.46 280.351V294.971C527.46 299.831 514.93 303.781 499.48 303.781C484.03 303.781 471.5 299.841 471.5 294.971V280.351C471.5 275.491 484.03 271.541 499.48 271.541Z" fill="white"/>
<path d="M480.5 253.422C495.95 253.422 508.48 257.362 508.48 262.232V276.852C508.48 281.712 495.95 285.662 480.5 285.662C465.05 285.662 452.52 281.722 452.52 276.852V262.232C452.52 257.372 465.05 253.422 480.5 253.422Z" fill="white"/>
<path d="M107.63 298.811C92.1804 298.811 79.6504 302.751 79.6504 307.621V322.241C79.6504 327.101 92.1804 331.051 107.63 331.051C123.08 331.051 135.61 327.111 135.61 322.241V307.621C135.61 302.761 123.08 298.811 107.63 298.811Z" fill="white"/>
<path d="M127.63 307.77C112.18 307.77 99.6504 311.71 99.6504 316.58V331.2C99.6504 336.06 112.18 340.01 127.63 340.01C143.08 340.01 155.61 336.07 155.61 331.2V316.58C155.61 311.72 143.08 307.77 127.63 307.77Z" fill="white"/>
<path d="M165.07 304.73C149.62 304.73 137.09 308.67 137.09 313.54V328.16C137.09 333.02 149.62 336.97 165.07 336.97C180.52 336.97 193.05 333.03 193.05 328.16V313.54C193.05 308.68 180.52 304.73 165.07 304.73Z" fill="white"/>
<path d="M213.011 294.971C197.561 294.971 185.031 298.911 185.031 303.781V318.401C185.031 323.261 197.561 327.211 213.011 327.211C228.461 327.211 240.991 323.271 240.991 318.401V303.781C240.991 298.921 228.461 294.971 213.011 294.971Z" fill="white"/>
<path d="M263.691 301.73C248.241 301.73 235.711 305.67 235.711 310.54V325.16C235.711 330.02 248.241 333.97 263.691 333.97C279.141 333.97 291.671 330.03 291.671 325.16V310.54C291.671 305.68 279.141 301.73 263.691 301.73Z" fill="white"/>
<path d="M314.371 308.49C298.921 308.49 286.391 312.43 286.391 317.3V331.92C286.391 336.78 298.921 340.73 314.371 340.73C329.821 340.73 342.351 336.79 342.351 331.92V317.3C342.351 312.44 329.821 308.49 314.371 308.49Z" fill="white"/>
<path d="M356.601 297.512C341.151 297.512 328.621 301.452 328.621 306.322V320.942C328.621 325.802 341.151 329.752 356.601 329.752C372.051 329.752 384.581 325.812 384.581 320.942V306.322C384.581 301.462 372.051 297.512 356.601 297.512Z" fill="white"/>
<path d="M408.13 305.111C392.68 305.111 380.15 309.051 380.15 313.921V328.541C380.15 333.401 392.68 337.351 408.13 337.351C423.58 337.351 436.11 333.411 436.11 328.541V313.921C436.11 309.061 423.58 305.111 408.13 305.111Z" fill="white"/>
<path d="M463.88 300.041C448.43 300.041 435.9 303.981 435.9 308.851V323.471C435.9 328.331 448.43 332.281 463.88 332.281C479.33 332.281 491.86 328.341 491.86 323.471V308.851C491.86 303.991 479.33 300.041 463.88 300.041Z" fill="white"/>
<path d="M502.839 309.352C487.389 309.352 474.859 313.292 474.859 318.162V332.782C474.859 337.642 487.389 341.592 502.839 341.592C518.289 341.592 530.819 337.652 530.819 332.782V318.162C530.819 313.302 518.289 309.352 502.839 309.352Z" fill="white"/>
<path d="M109.019 286.68C93.5691 286.68 81.0391 290.62 81.0391 295.49V310.11C81.0391 314.97 93.5691 318.92 109.019 318.92C124.469 318.92 136.999 314.98 136.999 310.11V295.49C136.999 290.63 124.469 286.68 109.019 286.68Z" fill="white"/>
<path d="M128 268.561C112.55 268.561 100.02 272.501 100.02 277.371V291.991C100.02 296.851 112.55 300.801 128 300.801C143.45 300.801 155.98 296.861 155.98 291.991V277.371C155.98 272.511 143.45 268.561 128 268.561Z" fill="white"/>
<path d="M502.84 344.591C501.18 344.591 499.84 343.251 499.84 341.591C499.84 339.931 501.18 338.591 502.84 338.591C519.2 338.591 527.45 334.361 527.82 332.761V318.171C527.72 317.761 525.78 315.631 518.76 314.001C517.65 313.741 516.78 312.881 516.52 311.771C516.26 310.661 516.65 309.501 517.52 308.771C518.16 308.241 518.25 307.931 518.25 307.921V300.511C518.25 299.271 519.01 298.161 520.16 297.711C524.01 296.211 524.46 294.961 524.46 294.951V280.361C524.24 279.431 519.79 276.251 508.16 275.001C506.64 274.841 505.48 273.551 505.48 272.021V262.241C505.25 261.271 500.61 257.991 488.48 256.811C487.42 256.711 486.49 256.041 486.04 255.071C485.59 254.101 485.7 252.961 486.32 252.091C486.43 251.941 486.45 251.861 486.45 251.861V237.281C486.22 236.351 481.78 233.171 470.15 231.921C468.5 231.741 467.31 230.261 467.49 228.621C467.67 226.971 469.15 225.791 470.79 225.961C490.34 228.051 492.45 234.581 492.45 237.281V251.251C499.45 252.271 511.48 255.071 511.48 262.241V269.371C528.54 271.751 530.46 277.781 530.46 280.361V294.981C530.46 297.091 529.33 300.011 524.25 302.481V307.961C524.25 308.351 524.21 308.791 524.1 309.271C530.48 311.381 533.82 314.421 533.82 318.171V332.791C533.82 340.901 517.76 344.601 502.84 344.601V344.591ZM314.37 343.721C301.06 343.721 286.84 340.781 283.93 334.381C278.47 336.041 271.33 336.961 263.69 336.961C250.38 336.961 236.16 334.021 233.25 327.621C227.79 329.281 220.65 330.201 213.01 330.201C206.85 330.201 200.98 329.601 196.03 328.471C195.87 329.971 194.59 331.141 193.05 331.141C191.39 331.141 190.05 329.801 190.05 328.141V324.561C190.05 323.601 190.51 322.701 191.28 322.141C192.06 321.581 193.05 321.411 193.96 321.711C198.91 323.301 205.85 324.211 213.01 324.211C221.58 324.211 229.62 322.931 234.51 320.801C235.44 320.401 236.51 320.481 237.35 321.041C238.2 321.591 238.71 322.541 238.71 323.551V325.161C239.08 326.741 247.33 330.971 263.69 330.971C272.26 330.971 280.3 329.691 285.19 327.561C286.12 327.151 287.19 327.241 288.03 327.801C288.88 328.351 289.39 329.301 289.39 330.311V331.921C289.76 333.501 298.01 337.731 314.37 337.731C316.03 337.731 317.37 339.071 317.37 340.731C317.37 342.391 316.03 343.731 314.37 343.731V343.721ZM46.68 330.971C46.54 330.971 46.39 330.971 46.24 330.941C39.22 329.921 27.46 327.131 27.46 319.981V314.501C22.38 312.041 21.25 309.121 21.25 307.001V292.381C21.25 289.801 23.16 283.761 40.23 281.391V274.261C40.23 271.551 42.07 267.761 50.82 265.081C52.4 264.591 54.08 265.491 54.57 267.071C55.06 268.651 54.16 270.331 52.58 270.821C47.63 272.341 46.31 273.941 46.23 274.291V284.051C46.23 285.581 45.08 286.871 43.55 287.031C31.92 288.271 27.47 291.461 27.25 292.411V307.001C27.25 307.001 27.73 308.251 31.55 309.741C32.7 310.191 33.46 311.301 33.46 312.541V319.991C33.65 320.811 37.26 323.581 47.11 325.021C48.75 325.261 49.88 326.781 49.65 328.421C49.43 329.911 48.15 330.991 46.69 330.991L46.68 330.971ZM81.04 303.171C80.64 303.171 80.23 303.091 79.85 302.921C79.61 302.821 79.36 302.721 79.11 302.621C77.96 302.171 77.2 301.061 77.2 299.821V297.211C77.2 295.681 78.36 294.391 79.88 294.231L80.68 294.141C81.53 294.031 82.39 294.311 83.03 294.871C83.67 295.441 84.04 296.261 84.04 297.111V300.161C84.04 301.171 83.53 302.111 82.69 302.671C82.19 303.001 81.62 303.161 81.04 303.161V303.171ZM81.23 243.961C79.57 243.961 78.23 242.621 78.23 240.961V231.181C78.23 224.051 90.75 220.281 104.02 219.521V209.601C104.02 204.811 109.38 201.211 119.53 199.201C121.15 198.881 122.73 199.931 123.06 201.561C123.38 203.181 122.33 204.761 120.7 205.091C112.41 206.731 110.14 209.131 110.03 209.631V222.401C110.03 224.031 108.73 225.361 107.11 225.401C91.91 225.771 84.59 229.701 84.24 231.211V240.971C84.24 242.631 82.9 243.971 81.24 243.971L81.23 243.961ZM459.04 188.751C457.39 188.751 456.05 187.421 456.04 185.771C455.79 184.801 451.33 181.641 439.74 180.401C438.22 180.241 437.06 178.951 437.06 177.421V167.641C436.76 166.381 430.85 162.941 417.99 162.041C416.42 161.931 415.2 160.621 415.2 159.051V152.701C415.2 151.461 415.96 150.351 417.11 149.901C420.96 148.401 421.41 147.151 421.41 147.141V132.551C421.19 131.621 416.74 128.441 405.11 127.191C403.59 127.031 402.43 125.741 402.43 124.211V114.431C402.21 113.501 397.75 110.311 386.08 109.071C384.55 108.911 383.4 107.621 383.4 106.091V101.301C383.4 99.6412 384.74 98.3012 386.4 98.3012C388.06 98.3012 389.4 99.6412 389.4 101.301V103.431C406.52 105.801 408.43 111.851 408.43 114.431V121.561C425.49 123.941 427.41 129.981 427.41 132.551V147.171C427.41 149.281 426.28 152.201 421.2 154.671V156.301C432.23 157.461 443.06 160.941 443.06 167.641V174.771C460.12 177.151 462.04 183.191 462.04 185.761C462.04 187.421 460.7 188.761 459.04 188.761V188.751ZM130.13 179.541C129.77 179.541 129.4 179.471 129.04 179.331C122.33 176.711 120.92 173.361 120.92 171.001V156.381C120.92 153.801 122.83 147.761 139.9 145.391V138.261C139.9 131.011 152.5 127.291 166.06 126.581C161.64 124.201 160.62 121.481 160.62 119.481V104.861C160.62 102.281 162.53 96.2412 179.6 93.8712V86.7412C179.6 78.6312 195.66 74.9312 210.58 74.9312C212.24 74.9312 213.58 76.2712 213.58 77.9312C213.58 79.5912 212.24 80.9312 210.58 80.9312C194.22 80.9312 185.97 85.1612 185.6 86.7612V96.5212C185.6 98.0512 184.45 99.3412 182.92 99.5012C171.29 100.741 166.84 103.931 166.62 104.881V119.471C166.62 119.471 167.1 120.721 170.92 122.211C172.07 122.661 172.83 123.771 172.83 125.001V129.451C172.83 131.091 171.51 132.431 169.86 132.451C154.16 132.631 146.25 136.741 145.89 138.281V148.041C145.89 149.571 144.74 150.861 143.21 151.021C131.58 152.261 127.13 155.451 126.91 156.401V170.991C126.91 170.991 127.39 172.241 131.21 173.731C132.75 174.331 133.52 176.071 132.92 177.611C132.46 178.801 131.32 179.521 130.12 179.521L130.13 179.541ZM321.6 88.4512C321.3 88.4512 321 88.4112 320.71 88.3212C315.72 86.7712 309.06 85.9212 301.96 85.9212C294.86 85.9212 288.32 86.7612 283.34 88.2812C282 88.6912 280.55 88.1212 279.85 86.8912C277.34 82.4712 270.27 76.5112 261.84 71.6812C247.64 63.5612 238.38 63.1312 237.26 64.3412C236.44 65.7812 234.61 66.2712 233.18 65.4412C231.74 64.6212 231.25 62.7712 232.07 61.3412C236.1 54.3012 251.87 59.0612 264.82 66.4712C273.25 71.3012 280.13 76.9312 283.77 81.9212C288.96 80.6112 295.31 79.9012 301.95 79.9012C309.03 79.9012 315.77 80.7012 321.12 82.1712C325.92 79.2212 332.32 76.5512 339.33 74.5812C347.29 72.3512 354.97 71.3112 360.95 71.6512C362.6 71.7512 363.87 73.1612 363.77 74.8212C363.67 76.4712 362.22 77.7112 360.6 77.6412C355.33 77.3412 348.17 78.3312 340.94 80.3512C334.02 82.2912 327.57 85.0512 323.23 87.9312C322.73 88.2612 322.16 88.4312 321.57 88.4312L321.6 88.4512Z" fill="black"/>
<path d="M94.4605 314.57C79.0105 314.57 66.4805 318.51 66.4805 323.38V334C66.4805 338.86 79.0105 342.81 94.4605 342.81C109.91 342.81 122.44 338.87 122.44 334V323.38C122.44 318.52 109.91 314.57 94.4605 314.57Z" fill="white"/>
<path d="M97.4214 298.561C81.9714 298.561 69.4414 302.501 69.4414 307.371V317.991C69.4414 322.851 81.9714 326.801 97.4214 326.801C112.871 326.801 125.401 322.861 125.401 317.991V307.371C125.401 302.511 112.871 298.561 97.4214 298.561Z" fill="white"/>
<path d="M103.82 281.82C88.3698 281.82 75.8398 285.76 75.8398 290.63V301.25C75.8398 306.11 88.3698 310.06 103.82 310.06C119.27 310.06 131.8 306.12 131.8 301.25V290.63C131.8 285.77 119.27 281.82 103.82 281.82Z" fill="white"/>
<path d="M97.3198 262.371C81.8698 262.371 69.3398 266.311 69.3398 271.181V281.801C69.3398 286.661 81.8698 290.611 97.3198 290.611C112.77 290.611 125.3 286.671 125.3 281.801V271.181C125.3 266.321 112.77 262.371 97.3198 262.371Z" fill="white"/>
<path d="M98.7819 279.291C113.754 279.291 125.892 275.821 125.892 271.541C125.892 267.261 113.754 263.791 98.7819 263.791C83.8094 263.791 71.6719 267.261 71.6719 271.541C71.6719 275.821 83.8094 279.291 98.7819 279.291Z" fill="#82BE28"/>
<path d="M94.4605 345.801C79.5405 345.801 63.4805 342.101 63.4805 333.991V323.371C63.4805 321.901 64.0405 319.861 66.4405 317.901V307.371C66.4405 305.221 67.6105 302.261 72.8405 299.781V290.621C72.8405 290.281 72.8705 289.901 72.9505 289.481C67.5705 286.991 66.3405 284.011 66.3405 281.801V271.181C66.3405 263.071 82.4005 259.371 97.3205 259.371C112.24 259.371 128.3 263.071 128.3 271.181V279.591C128.3 281.251 126.96 282.591 125.3 282.591C123.64 282.591 122.3 281.251 122.3 279.591V271.181C121.93 269.601 113.68 265.371 97.3205 265.371C80.9605 265.371 72.7105 269.601 72.3405 271.201V281.791C72.4205 282.081 73.6205 283.581 78.1205 285.051C79.1205 285.381 79.8705 286.201 80.1105 287.221C80.3505 288.241 80.0305 289.311 79.2805 290.051C78.8905 290.431 78.8305 290.641 78.8305 290.641V301.231C79.0905 302.651 78.3005 304.021 76.9405 304.541C72.9005 306.071 72.4305 307.371 72.4205 307.391V317.981C73.0605 319.381 72.5705 321.041 71.2505 321.831C69.9105 322.621 69.5005 323.241 69.4705 323.401V333.991C69.8405 335.571 78.0905 339.801 94.4505 339.801C98.9905 339.801 103.47 339.441 107.4 338.761C109.03 338.481 110.58 339.571 110.87 341.201C111.15 342.831 110.06 344.391 108.43 344.671C104.17 345.411 99.3405 345.801 94.4605 345.801Z" fill="black"/>
<path d="M143.72 322.941C128.27 322.941 115.74 326.881 115.74 331.751V342.371C115.74 347.231 128.27 351.181 143.72 351.181C159.17 351.181 171.7 347.241 171.7 342.371V331.751C171.7 326.891 159.17 322.941 143.72 322.941Z" fill="white"/>
<path d="M141.011 306.201C125.561 306.201 113.031 310.141 113.031 315.011V325.631C113.031 330.491 125.561 334.441 141.011 334.441C156.461 334.441 168.991 330.501 168.991 325.631V315.011C168.991 310.151 156.461 306.201 141.011 306.201Z" fill="white"/>
<path d="M144.359 289.211C128.909 289.211 116.379 293.151 116.379 298.021V308.641C116.379 313.501 128.909 317.451 144.359 317.451C159.809 317.451 172.339 313.511 172.339 308.641V298.021C172.339 293.161 159.809 289.211 144.359 289.211Z" fill="white"/>
<path d="M146.53 306.34C161.502 306.34 173.64 302.87 173.64 298.59C173.64 294.31 161.502 290.84 146.53 290.84C131.557 290.84 119.42 294.31 119.42 298.59C119.42 302.87 131.557 306.34 146.53 306.34Z" fill="#82BE28"/>
<path d="M141.011 337.431C126.091 337.431 110.031 333.731 110.031 325.621C110.031 323.961 111.371 322.621 113.031 322.621C114.691 322.621 116.021 323.951 116.031 325.601C116.441 327.211 124.681 331.431 141.011 331.431C147.751 331.431 154.161 330.651 159.071 329.241C160.661 328.781 162.321 329.701 162.781 331.291C163.241 332.881 162.321 334.541 160.731 335.001C155.301 336.561 148.301 337.431 141.011 337.431Z" fill="black"/>
<path d="M143.719 354.181C128.799 354.181 112.739 350.491 112.739 342.371V331.751C112.739 331.481 112.759 331.211 112.799 330.941C110.569 329.021 110.039 327.061 110.039 325.621V315.001C110.039 313.421 110.679 311.251 113.419 309.191C113.399 309.011 113.389 308.821 113.389 308.631V298.011C113.389 289.901 129.449 286.201 144.369 286.201C146.029 286.201 147.369 287.541 147.369 289.201C147.369 290.861 146.029 292.201 144.369 292.201C128.009 292.201 119.759 296.431 119.389 298.031V308.611C119.389 308.611 119.409 308.651 119.499 308.781C119.979 309.491 120.129 310.361 119.919 311.191C119.709 312.021 119.159 312.721 118.409 313.111C116.619 314.051 116.089 314.811 116.039 315.001V325.591C116.079 325.721 116.509 326.371 117.929 327.201C118.659 327.621 119.179 328.331 119.359 329.161C119.539 329.981 119.359 330.851 118.879 331.531C118.769 331.681 118.749 331.761 118.749 331.761V342.341C119.129 343.921 127.369 348.151 143.729 348.151C160.089 348.151 168.339 343.921 168.709 342.321V331.731C168.669 331.601 168.249 330.951 166.819 330.121C166.089 329.701 165.569 328.991 165.389 328.161C165.209 327.341 165.389 326.471 165.869 325.791C165.979 325.641 165.999 325.561 165.999 325.561V314.991C165.999 314.991 165.979 314.951 165.889 314.821C165.409 314.111 165.259 313.241 165.469 312.411C165.679 311.581 166.229 310.881 166.979 310.491C168.769 309.551 169.299 308.791 169.349 308.601V298.011C169.349 298.011 169.219 297.631 168.359 296.991C167.029 296.001 166.759 294.121 167.749 292.791C168.739 291.461 170.619 291.191 171.949 292.181C174.759 294.271 175.349 296.511 175.349 298.011V308.631C175.349 310.211 174.709 312.381 171.969 314.441C171.989 314.621 171.999 314.811 171.999 314.991V325.611C171.999 325.881 171.979 326.151 171.939 326.421C174.169 328.341 174.699 330.301 174.699 331.741V342.361C174.699 350.471 158.639 354.171 143.719 354.171V354.181Z" fill="black"/>
<path d="M144.361 308.922C139.531 308.922 134.741 308.542 130.501 307.812C128.871 307.532 127.771 305.982 128.051 304.352C128.331 302.722 129.881 301.622 131.511 301.902C135.411 302.572 139.861 302.922 144.351 302.922C160.711 302.922 168.961 298.692 169.331 297.092C169.331 295.432 170.671 294.102 172.331 294.102C173.991 294.102 175.331 295.462 175.331 297.112C175.331 305.222 159.271 308.922 144.351 308.922H144.361Z" fill="black"/>
<path d="M97.3198 282.322C82.3998 282.322 66.3398 278.622 66.3398 270.512C66.3398 268.852 67.6798 267.512 69.3398 267.512C70.9998 267.512 72.3298 268.842 72.3398 270.492C72.7498 272.102 80.9898 276.322 97.3198 276.322C100.97 276.322 104.5 276.102 107.81 275.652C109.46 275.432 110.96 276.592 111.18 278.232C111.4 279.872 110.25 281.382 108.6 281.602C105.02 282.082 101.22 282.322 97.3098 282.322H97.3198Z" fill="black"/>
<path d="M91.5506 318.161C91.4606 318.161 91.3605 318.161 91.2705 318.151C85.9405 317.651 68.5605 315.351 68.5605 306.721C68.5605 305.061 69.9005 303.721 71.5605 303.721C73.2205 303.721 74.5505 305.051 74.5605 306.701C74.8205 307.721 79.5406 311.021 91.8306 312.171C93.4806 312.331 94.6905 313.791 94.5406 315.441C94.3906 316.991 93.0905 318.161 91.5605 318.161H91.5506Z" fill="black"/>
<path d="M450.851 309.98C466.301 309.98 478.831 313.92 478.831 318.79V329.41C478.831 334.27 466.301 338.22 450.851 338.22C435.401 338.22 422.871 334.28 422.871 329.41V318.79C422.871 313.93 435.401 309.98 450.851 309.98Z" fill="white"/>
<path d="M447.9 293.971C463.35 293.971 475.88 297.911 475.88 302.781V313.401C475.88 318.261 463.35 322.211 447.9 322.211C432.45 322.211 419.92 318.271 419.92 313.401V302.781C419.92 297.921 432.45 293.971 447.9 293.971Z" fill="white"/>
<path d="M441.49 277.23C456.94 277.23 469.47 281.17 469.47 286.04V296.66C469.47 301.52 456.94 305.47 441.49 305.47C426.04 305.47 413.51 301.53 413.51 296.66V286.04C413.51 281.18 426.04 277.23 441.49 277.23Z" fill="white"/>
<path d="M447.99 257.781C463.44 257.781 475.97 261.721 475.97 266.591V277.211C475.97 282.071 463.44 286.021 447.99 286.021C432.54 286.021 420.01 282.081 420.01 277.211V266.591C420.01 261.731 432.54 257.781 447.99 257.781Z" fill="white"/>
<path d="M447.46 274.23C462.432 274.23 474.57 270.761 474.57 266.48C474.57 262.2 462.432 258.73 447.46 258.73C432.487 258.73 420.35 262.2 420.35 266.48C420.35 270.761 432.487 274.23 447.46 274.23Z" fill="#82BE28"/>
<path d="M450.85 341.21C445.97 341.21 441.14 340.82 436.88 340.08C435.25 339.8 434.15 338.25 434.44 336.61C434.72 334.98 436.27 333.87 437.91 334.17C441.84 334.85 446.32 335.21 450.86 335.21C467.22 335.21 475.47 330.98 475.84 329.38V318.79C475.8 318.67 475.4 318.05 474.06 317.25C472.74 316.47 472.23 314.82 472.86 313.42L472.88 302.78C472.88 302.78 472.39 301.48 468.37 299.96C467.02 299.45 466.23 298.05 466.48 296.63V286.03C466.48 286.03 466.4 285.82 466.03 285.47C465.28 284.74 464.96 283.66 465.2 282.64C465.44 281.62 466.19 280.79 467.19 280.47C471.69 279 472.9 277.5 472.98 277.18V266.59C472.6 265.01 464.36 260.78 448 260.78C431.64 260.78 423.39 265.01 423.02 266.61V274.99C423.02 276.65 421.68 277.99 420.02 277.99C418.36 277.99 417.02 276.65 417.02 274.99V266.58C417.02 258.47 433.08 254.77 448 254.77C462.92 254.77 478.98 258.47 478.98 266.58V277.2C478.98 279.42 477.74 282.4 472.37 284.88C472.45 285.3 472.48 285.68 472.48 286.02V295.18C477.71 297.66 478.88 300.62 478.88 302.77V313.3C481.28 315.27 481.84 317.3 481.84 318.77V329.39C481.84 337.5 465.78 341.2 450.86 341.2L450.85 341.21Z" fill="black"/>
<path d="M401.601 318.352C417.051 318.352 429.581 322.292 429.581 327.162V337.782C429.581 342.642 417.051 346.592 401.601 346.592C386.151 346.592 373.621 342.652 373.621 337.782V327.162C373.621 322.302 386.151 318.352 401.601 318.352Z" fill="white"/>
<path d="M404.31 301.611C419.76 301.611 432.29 305.551 432.29 310.421V321.041C432.29 325.901 419.76 329.851 404.31 329.851C388.86 329.851 376.33 325.911 376.33 321.041V310.421C376.33 305.561 388.86 301.611 404.31 301.611Z" fill="white"/>
<path d="M400.949 284.621C416.399 284.621 428.929 288.561 428.929 293.431V304.051C428.929 308.911 416.399 312.861 400.949 312.861C385.499 312.861 372.969 308.921 372.969 304.051V293.431C372.969 288.571 385.499 284.621 400.949 284.621Z" fill="white"/>
<path d="M401.809 299.49C416.782 299.49 428.919 296.02 428.919 291.74C428.919 287.46 416.782 283.99 401.809 283.99C386.837 283.99 374.699 287.46 374.699 291.74C374.699 296.02 386.837 299.49 401.809 299.49Z" fill="#82BE28"/>
<path d="M404.31 332.84C403.35 332.84 402.39 332.82 401.45 332.8C399.79 332.75 398.49 331.36 398.54 329.71C398.59 328.05 399.99 326.72 401.63 326.8C402.51 326.83 403.4 326.84 404.3 326.84C420.66 326.84 428.91 322.61 429.28 321.01C429.28 319.35 430.62 318.02 432.28 318.02C433.94 318.02 435.28 319.38 435.28 321.03C435.28 329.14 419.22 332.84 404.3 332.84H404.31Z" fill="black"/>
<path d="M372.98 307.05C371.32 307.05 369.98 305.71 369.98 304.05V293.43C369.98 291.93 370.57 289.7 373.38 287.6C374.71 286.61 376.59 286.88 377.58 288.21C378.57 289.54 378.3 291.42 376.97 292.41C376.09 293.06 375.98 293.45 375.98 293.45V304.04C375.98 305.7 374.64 307.04 372.98 307.04V307.05Z" fill="black"/>
<path d="M401.601 349.591C395.791 349.591 390.161 349.051 385.331 348.021C383.711 347.681 382.671 346.081 383.021 344.461C383.371 342.841 384.961 341.801 386.581 342.151C391.001 343.091 396.201 343.591 401.601 343.591C417.961 343.591 426.211 339.361 426.581 337.761V327.181C426.581 327.181 426.561 327.131 426.451 326.981C425.961 326.291 425.791 325.431 425.971 324.611C426.151 323.791 426.671 323.081 427.401 322.651C428.821 321.831 429.251 321.181 429.291 321.021V310.431C429.241 310.261 428.711 309.501 426.921 308.561C426.171 308.161 425.611 307.461 425.411 306.641C425.201 305.811 425.361 304.941 425.831 304.231C425.921 304.101 425.941 304.031 425.941 304.031V293.451C425.561 291.871 417.321 287.641 400.961 287.641C399.301 287.641 397.961 286.301 397.961 284.641C397.961 282.981 399.301 281.641 400.961 281.641C415.881 281.641 431.941 285.341 431.941 293.451V304.071C431.941 304.261 431.941 304.441 431.911 304.621C434.651 306.681 435.291 308.841 435.291 310.431V321.051C435.291 322.491 434.761 324.451 432.531 326.371C432.571 326.641 432.591 326.911 432.591 327.181V337.801C432.591 345.911 416.531 349.611 401.611 349.611L401.601 349.591Z" fill="black"/>
<path d="M400.949 304.33C386.029 304.33 369.969 300.63 369.969 292.52C369.969 290.86 371.309 289.52 372.969 289.52C374.629 289.52 375.969 290.86 375.969 292.52C376.339 294.1 384.589 298.33 400.949 298.33C405.439 298.33 409.889 297.98 413.799 297.31C415.429 297.03 416.979 298.13 417.259 299.76C417.539 301.39 416.439 302.94 414.809 303.22C410.569 303.95 405.779 304.33 400.949 304.33Z" fill="black"/>
<path d="M447.991 277.73C444.081 277.73 440.281 277.49 436.701 277.01C435.061 276.79 433.901 275.28 434.121 273.64C434.341 272 435.861 270.85 437.491 271.06C440.811 271.5 444.341 271.73 447.991 271.73C464.351 271.73 472.601 267.5 472.971 265.9C472.971 264.24 474.311 262.91 475.971 262.91C477.631 262.91 478.971 264.27 478.971 265.92C478.971 274.03 462.911 277.73 447.991 277.73Z" fill="black"/>
<path d="M453.76 313.571C452.23 313.571 450.92 312.401 450.78 310.851C450.63 309.201 451.84 307.741 453.49 307.581C465.82 306.431 470.53 303.111 470.76 302.101C470.76 300.441 472.1 299.111 473.76 299.111C475.42 299.111 476.76 300.471 476.76 302.121C476.76 310.751 459.38 313.051 454.05 313.551C453.95 313.551 453.86 313.561 453.77 313.561L453.76 313.571Z" fill="black"/>
<path d="M369.061 343.875C377.209 332.982 376.713 318.84 367.952 312.286C359.192 305.732 345.484 309.249 337.336 320.141C329.188 331.033 329.684 345.176 338.445 351.73C347.205 358.284 360.913 354.767 369.061 343.875Z" fill="white"/>
<path d="M374.37 347.851C382.518 336.959 382.022 322.816 373.261 316.262C364.5 309.709 350.793 313.226 342.645 324.118C334.496 335.01 334.993 349.153 343.753 355.706C352.514 362.26 366.221 358.743 374.37 347.851Z" fill="white"/>
<path d="M366.883 342.241C375.031 331.349 375.026 317.574 366.871 311.473C358.716 305.373 345.5 309.257 337.352 320.149C329.203 331.041 329.208 344.817 337.363 350.917C345.518 357.018 358.734 353.133 366.883 342.241Z" fill="#82BE28"/>
<path d="M348.729 358.01C344.309 358.01 340.109 356.72 336.649 354.13C326.579 346.6 325.809 330.54 334.939 318.34C336.779 315.88 338.919 313.71 341.299 311.89C342.609 310.88 344.499 311.13 345.509 312.45C346.519 313.77 346.269 315.65 344.949 316.66C343.009 318.15 341.259 319.92 339.749 321.94C332.609 331.49 332.829 343.78 340.249 349.33C345.409 353.19 353.099 352.87 359.839 348.5C361.229 347.6 363.089 348 363.989 349.39C364.889 350.78 364.489 352.64 363.099 353.54C358.499 356.52 353.489 358.01 348.739 358.01H348.729Z" fill="black"/>
<path d="M374.569 326.631C373.129 326.631 371.859 325.591 371.609 324.121C370.949 320.131 369.069 316.861 366.159 314.691C364.409 313.381 362.389 312.541 360.149 312.181C358.509 311.921 357.399 310.381 357.659 308.741C357.919 307.101 359.459 305.991 361.099 306.251C364.309 306.761 367.219 307.981 369.759 309.881C373.869 312.961 376.639 317.671 377.539 323.141C377.809 324.771 376.699 326.321 375.069 326.591C374.899 326.621 374.739 326.631 374.579 326.631H374.569Z" fill="black"/>
<path d="M353.889 361.922C349.449 361.922 345.309 360.602 341.859 358.022L336.649 354.132C335.319 353.142 335.049 351.262 336.039 349.932C337.029 348.602 338.909 348.332 340.239 349.322L345.449 353.212C348.939 355.822 353.559 356.572 358.439 355.322C363.559 354.012 368.329 350.682 371.859 345.962C375.389 341.242 377.239 335.732 377.049 330.442C376.869 325.402 374.849 321.192 371.359 318.572L366.149 314.672C364.819 313.682 364.549 311.802 365.539 310.472C366.529 309.142 368.409 308.872 369.739 309.862L374.949 313.762C379.929 317.482 382.799 323.332 383.039 330.222C383.269 336.872 381.009 343.732 376.659 349.542C372.309 355.352 366.369 359.472 359.929 361.122C357.879 361.652 355.849 361.912 353.879 361.912L353.889 361.922Z" fill="black"/>
<path d="M531.72 162.413C539.264 154.489 537.392 140.462 527.54 131.083C517.687 121.704 503.585 120.524 496.042 128.449C488.498 136.373 490.37 150.4 500.222 159.779C510.075 169.158 524.177 170.337 531.72 162.413Z" fill="white"/>
<path d="M527.146 167.214C534.69 159.29 532.818 145.262 522.966 135.883C513.113 126.504 499.011 125.325 491.467 133.249C483.924 141.174 485.796 155.201 495.648 164.58C505.5 173.959 519.603 175.138 527.146 167.214Z" fill="white"/>
<path d="M532.662 161.429C539.684 154.053 537.39 140.47 527.537 131.091C517.685 121.712 504.006 120.088 496.984 127.464C489.962 134.841 492.256 148.424 502.109 157.803C511.961 167.182 525.641 168.805 532.662 161.429Z" fill="#82BE28"/>
<path d="M518.681 170.671C515.121 170.671 511.381 169.901 507.731 168.331C506.211 167.671 505.511 165.911 506.161 164.391C506.811 162.871 508.581 162.171 510.101 162.821C517.471 166.001 525.111 165.031 529.551 160.361C532.561 157.201 533.851 152.711 533.181 147.711C532.481 142.471 529.741 137.341 525.471 133.281C523.641 131.541 521.621 130.081 519.461 128.941C518.001 128.171 517.431 126.351 518.211 124.891C518.981 123.431 520.791 122.861 522.261 123.641C524.911 125.041 527.381 126.821 529.601 128.941C534.861 133.951 538.241 140.331 539.121 146.931C540.031 153.771 538.171 160.011 533.891 164.511C530.031 168.571 524.571 170.681 518.661 170.681L518.681 170.671Z" fill="black"/>
<path d="M514.249 175.361C507.249 175.361 499.719 172.421 493.689 166.671C482.659 156.171 480.729 140.211 489.399 131.101L493.879 126.391C495.019 125.191 496.919 125.141 498.119 126.291C499.319 127.431 499.369 129.331 498.219 130.531L493.739 135.241C487.349 141.951 489.179 154.101 497.819 162.331C506.459 170.551 518.689 171.781 525.069 165.071L529.549 160.361C530.689 159.161 532.589 159.111 533.789 160.261C534.989 161.401 535.039 163.301 533.889 164.501L529.409 169.211C525.479 173.341 520.039 175.361 514.229 175.361H514.249Z" fill="black"/>
<path d="M424.851 189.92C440.301 189.92 452.831 193.86 452.831 198.73V213.35C452.831 218.21 440.301 222.16 424.851 222.16C409.401 222.16 396.871 218.22 396.871 213.35V198.73C396.871 193.87 409.401 189.92 424.851 189.92Z" fill="white"/>
<path d="M451.233 200.695C451.289 196.415 439.198 192.787 424.227 192.591C409.255 192.395 397.073 195.705 397.017 199.985C396.961 204.265 409.053 207.893 424.024 208.089C438.995 208.285 451.177 204.975 451.233 200.695Z" fill="#82BE28"/>
<path d="M452.171 210.141C450.511 210.141 449.171 208.801 449.171 207.141V199.781C448.801 198.201 440.551 193.971 424.191 193.971C407.831 193.971 399.581 198.201 399.211 199.801C399.211 201.461 397.871 202.791 396.211 202.791C394.551 202.791 393.211 201.431 393.211 199.781C393.211 191.671 409.271 187.971 424.191 187.971C439.111 187.971 455.171 191.671 455.171 199.781V207.141C455.171 208.801 453.831 210.141 452.171 210.141Z" fill="black"/>
<path d="M315.6 96.52C314.39 96.52 313.25 95.78 312.79 94.58C310.35 88.14 321.47 81.05 329.05 78.09C330.59 77.49 332.33 78.25 332.94 79.79C333.54 81.33 332.78 83.07 331.24 83.68C323.48 86.71 318.84 91.11 318.48 92.66C318.93 94.15 318.15 95.76 316.67 96.32C316.32 96.45 315.96 96.52 315.61 96.52H315.6Z" fill="black"/>
<path d="M80.9395 29.1403C79.2795 29.1403 77.9395 27.8003 77.9395 26.1403V22.0703C77.9395 20.4103 79.2795 19.0703 80.9395 19.0703C82.5995 19.0703 83.9395 20.4103 83.9395 22.0703V26.1403C83.9395 27.8003 82.5995 29.1403 80.9395 29.1403Z" fill="black"/>
<path d="M80.9395 40.3395C79.2795 40.3395 77.9395 38.9995 77.9395 37.3395V33.2695C77.9395 31.6095 79.2795 30.2695 80.9395 30.2695C82.5995 30.2695 83.9395 31.6095 83.9395 33.2695V37.3395C83.9395 38.9995 82.5995 40.3395 80.9395 40.3395Z" fill="black"/>
<path d="M88.5798 32.7109H84.5098C82.8498 32.7109 81.5098 31.3709 81.5098 29.7109C81.5098 28.0509 82.8498 26.7109 84.5098 26.7109H88.5798C90.2398 26.7109 91.5798 28.0509 91.5798 29.7109C91.5798 31.3709 90.2398 32.7109 88.5798 32.7109Z" fill="black"/>
<path d="M86.1786 32.7109H73.3086C71.6486 32.7109 70.3086 31.3709 70.3086 29.7109C70.3086 28.0509 71.6486 26.7109 73.3086 26.7109H86.1786C87.8386 26.7109 89.1786 28.0509 89.1786 29.7109C89.1786 31.3709 87.8386 32.7109 86.1786 32.7109Z" fill="black"/>
<path d="M413.371 70.8395C411.711 70.8395 410.371 69.4995 410.371 67.8395V63.7695C410.371 62.1095 411.711 60.7695 413.371 60.7695C415.031 60.7695 416.371 62.1095 416.371 63.7695V67.8395C416.371 69.4995 415.031 70.8395 413.371 70.8395Z" fill="black"/>
<path d="M413.371 82.0407C411.711 82.0407 410.371 80.7007 410.371 79.0407V74.9707C410.371 73.3107 411.711 71.9707 413.371 71.9707C415.031 71.9707 416.371 73.3107 416.371 74.9707V79.0407C416.371 80.7007 415.031 82.0407 413.371 82.0407Z" fill="black"/>
<path d="M421 74.4004H416.93C415.27 74.4004 413.93 73.0604 413.93 71.4004C413.93 69.7404 415.27 68.4004 416.93 68.4004H421C422.66 68.4004 424 69.7404 424 71.4004C424 73.0604 422.66 74.4004 421 74.4004Z" fill="black"/>
<path d="M418.6 74.4004H405.73C404.07 74.4004 402.73 73.0604 402.73 71.4004C402.73 69.7404 404.07 68.4004 405.73 68.4004H418.6C420.26 68.4004 421.6 69.7404 421.6 71.4004C421.6 73.0604 420.26 74.4004 418.6 74.4004Z" fill="black"/>
<path d="M215.371 138.172C213.711 138.172 212.371 136.832 212.371 135.172V131.102C212.371 129.442 213.711 128.102 215.371 128.102C217.031 128.102 218.371 129.442 218.371 131.102V135.172C218.371 136.832 217.031 138.172 215.371 138.172Z" fill="#82BE28"/>
<path d="M215.371 149.371C213.711 149.371 212.371 148.031 212.371 146.371V142.301C212.371 140.641 213.711 139.301 215.371 139.301C217.031 139.301 218.371 140.641 218.371 142.301V146.371C218.371 148.031 217.031 149.371 215.371 149.371Z" fill="#82BE28"/>
<path d="M223 141.74H218.93C217.27 141.74 215.93 140.4 215.93 138.74C215.93 137.08 217.27 135.74 218.93 135.74H223C224.66 135.74 226 137.08 226 138.74C226 140.4 224.66 141.74 223 141.74Z" fill="#82BE28"/>
<path d="M220.6 141.74H207.73C206.07 141.74 204.73 140.4 204.73 138.74C204.73 137.08 206.07 135.74 207.73 135.74H220.6C222.26 135.74 223.6 137.08 223.6 138.74C223.6 140.4 222.26 141.74 220.6 141.74Z" fill="#82BE28"/>
<path d="M562.25 256.66C560.59 256.66 559.25 255.32 559.25 253.66V242.4C559.25 240.74 560.59 239.4 562.25 239.4C563.91 239.4 565.25 240.74 565.25 242.4V253.66C565.25 255.32 563.91 256.66 562.25 256.66Z" fill="black"/>
<path d="M562.25 287.621C560.59 287.621 559.25 286.281 559.25 284.621V273.361C559.25 271.701 560.59 270.361 562.25 270.361C563.91 270.361 565.25 271.701 565.25 273.361V284.621C565.25 286.281 563.91 287.621 562.25 287.621Z" fill="black"/>
<path d="M583.36 266.512H572.1C570.44 266.512 569.1 265.172 569.1 263.512C569.1 261.852 570.44 260.512 572.1 260.512H583.36C585.02 260.512 586.36 261.852 586.36 263.512C586.36 265.172 585.02 266.512 583.36 266.512Z" fill="black"/>
<path d="M552.389 266.512H541.129C539.469 266.512 538.129 265.172 538.129 263.512C538.129 261.852 539.469 260.512 541.129 260.512H552.389C554.049 260.512 555.389 261.852 555.389 263.512C555.389 265.172 554.049 266.512 552.389 266.512Z" fill="black"/>
<path d="M11.58 193.121C16.3186 193.121 20.16 189.28 20.16 184.541C20.16 179.802 16.3186 175.961 11.58 175.961C6.8414 175.961 3 179.802 3 184.541C3 189.28 6.8414 193.121 11.58 193.121Z" fill="#82BE28"/>
<path d="M11.58 196.121C5.2 196.121 0 190.931 0 184.541C0 178.151 5.19 172.961 11.58 172.961C17.97 172.961 23.16 178.151 23.16 184.541C23.16 190.931 17.97 196.121 11.58 196.121ZM11.58 178.961C8.5 178.961 6 181.461 6 184.541C6 187.621 8.5 190.121 11.58 190.121C14.66 190.121 17.16 187.621 17.16 184.541C17.16 181.461 14.66 178.961 11.58 178.961Z" fill="black"/>
<path d="M532.859 246.101C537.598 246.101 541.439 242.26 541.439 237.521C541.439 232.783 537.598 228.941 532.859 228.941C528.121 228.941 524.279 232.783 524.279 237.521C524.279 242.26 528.121 246.101 532.859 246.101Z" fill="#82BE28"/>
<path d="M532.859 249.101C526.479 249.101 521.279 243.911 521.279 237.521C521.279 231.131 526.469 225.941 532.859 225.941C539.249 225.941 544.439 231.131 544.439 237.521C544.439 243.911 539.249 249.101 532.859 249.101ZM532.859 231.941C529.779 231.941 527.279 234.441 527.279 237.521C527.279 240.601 529.779 243.101 532.859 243.101C535.939 243.101 538.439 240.601 538.439 237.521C538.439 234.441 535.939 231.941 532.859 231.941Z" fill="black"/>
<path d="M214.359 227.15C229.809 227.15 242.339 231.09 242.339 235.96V246.58C242.339 251.44 229.809 255.39 214.359 255.39C198.909 255.39 186.379 251.45 186.379 246.58V235.96C186.379 231.1 198.909 227.15 214.359 227.15Z" fill="white"/>
<path d="M217.07 210.4C232.52 210.4 245.05 214.34 245.05 219.21V229.83C245.05 234.69 232.52 238.64 217.07 238.64C201.62 238.64 189.09 234.7 189.09 229.83V219.21C189.09 214.35 201.62 210.4 217.07 210.4Z" fill="white"/>
<path d="M213.72 193.42C229.17 193.42 241.7 197.36 241.7 202.23V212.85C241.7 217.71 229.17 221.66 213.72 221.66C198.27 221.66 185.74 217.72 185.74 212.85V202.23C185.74 197.37 198.27 193.42 213.72 193.42Z" fill="white"/>
<path d="M214.581 208.281C229.553 208.281 241.691 204.811 241.691 200.531C241.691 196.251 229.553 192.781 214.581 192.781C199.608 192.781 187.471 196.251 187.471 200.531C187.471 204.811 199.608 208.281 214.581 208.281Z" fill="#82BE28"/>
<path d="M217.07 241.64C216.1 241.64 215.15 241.63 214.21 241.6C212.55 241.55 211.25 240.16 211.3 238.51C211.35 236.89 212.68 235.6 214.3 235.6C214.33 235.6 214.36 235.6 214.39 235.6C215.27 235.63 216.16 235.64 217.07 235.64C233.43 235.64 241.68 231.41 242.05 229.81C242.05 228.15 243.39 226.82 245.05 226.82C246.71 226.82 248.05 228.18 248.05 229.83C248.05 237.94 231.99 241.64 217.07 241.64Z" fill="black"/>
<path d="M185.74 215.851C184.08 215.851 182.74 214.511 182.74 212.851V202.231C182.74 200.731 183.33 198.501 186.14 196.401C187.47 195.411 189.35 195.681 190.34 197.011C191.33 198.341 191.06 200.221 189.73 201.211C188.85 201.861 188.74 202.251 188.74 202.251V212.841C188.74 214.501 187.4 215.841 185.74 215.841V215.851Z" fill="black"/>
<path d="M242.34 249.58C240.68 249.58 239.34 248.24 239.34 246.58V235.97C239.34 235.97 239.32 235.92 239.22 235.77C238.73 235.08 238.56 234.22 238.74 233.4C238.92 232.58 239.44 231.87 240.17 231.44C241.59 230.62 242.02 229.97 242.06 229.81V219.22C242.02 219.05 241.48 218.29 239.7 217.35C238.95 216.95 238.39 216.25 238.19 215.43C237.98 214.6 238.14 213.73 238.61 213.02C238.7 212.89 238.72 212.82 238.72 212.82V202.24C238.34 200.66 230.1 196.43 213.74 196.43C212.08 196.43 210.74 195.09 210.74 193.43C210.74 191.77 212.08 190.43 213.74 190.43C228.66 190.43 244.72 194.13 244.72 202.24V212.86C244.72 213.05 244.72 213.23 244.69 213.42C247.43 215.48 248.07 217.64 248.07 219.23V229.85C248.07 231.29 247.54 233.25 245.31 235.17C245.35 235.44 245.37 235.71 245.37 235.98V246.6C245.37 248.26 244.03 249.6 242.37 249.6L242.34 249.58Z" fill="black"/>
<path d="M213.72 213.13C198.8 213.13 182.74 209.43 182.74 201.32C182.74 199.66 184.08 198.32 185.74 198.32C187.4 198.32 188.74 199.66 188.74 201.32C189.11 202.9 197.36 207.13 213.72 207.13C218.22 207.13 222.66 206.78 226.56 206.11C228.19 205.84 229.74 206.93 230.02 208.56C230.3 210.19 229.2 211.74 227.57 212.02C223.34 212.74 218.54 213.13 213.71 213.13H213.72Z" fill="black"/>
<path d="M210.395 286.258C218.922 279.403 218.924 265.251 210.4 254.65C201.877 244.049 188.055 241.013 179.529 247.868C171.002 254.724 171 268.875 179.523 279.476C188.047 290.077 201.868 293.114 210.395 286.258Z" fill="white"/>
<path d="M205.235 290.421C213.761 283.565 213.764 269.414 205.24 258.812C196.717 248.211 182.895 245.175 174.368 252.03C165.842 258.886 165.839 273.037 174.363 283.638C182.886 294.24 196.708 297.276 205.235 290.421Z" fill="white"/>
<path d="M210.395 286.258C218.922 279.403 218.924 265.251 210.4 254.65C201.877 244.049 188.055 241.013 179.529 247.868C171.002 254.724 171 268.875 179.523 279.476C188.047 290.077 201.868 293.114 210.395 286.258Z" fill="#82BE28"/>
<path d="M199.53 292.931C195.01 292.931 190.26 291.601 185.82 288.951C184.4 288.101 183.94 286.261 184.79 284.831C185.64 283.411 187.48 282.951 188.91 283.801C195.8 287.921 203.49 287.981 208.52 283.941C209.81 282.901 211.7 283.111 212.74 284.401C213.78 285.691 213.57 287.581 212.28 288.621C208.71 291.491 204.25 292.931 199.54 292.931H199.53Z" fill="black"/>
<path d="M210.39 289.281C209.51 289.281 208.64 288.901 208.05 288.161C207.01 286.871 207.22 284.981 208.51 283.941C215.73 278.131 215.53 265.851 208.05 256.551C206.47 254.581 204.66 252.871 202.67 251.451C201.32 250.491 201 248.621 201.96 247.271C202.92 245.921 204.79 245.611 206.14 246.561C208.58 248.301 210.79 250.391 212.72 252.791C222.27 264.661 222.06 280.731 212.26 288.611C211.71 289.061 211.04 289.271 210.38 289.271L210.39 289.281Z" fill="black"/>
<path d="M173.309 262.461C173.179 262.461 173.049 262.461 172.919 262.441C171.279 262.231 170.119 260.721 170.329 259.081C171.039 253.581 173.639 248.781 177.639 245.561C180.109 243.581 182.979 242.251 186.169 241.631C187.799 241.311 189.369 242.371 189.689 244.001C190.009 245.631 188.949 247.201 187.319 247.521C185.099 247.951 183.099 248.871 181.399 250.241C178.569 252.521 176.799 255.841 176.279 259.861C176.079 261.371 174.789 262.481 173.309 262.481V262.461Z" fill="black"/>
<path d="M331.99 137.371C316.54 137.371 304.01 141.311 304.01 146.181V160.801C304.01 165.661 316.54 169.611 331.99 169.611C347.44 169.611 359.97 165.671 359.97 160.801V146.181C359.97 141.321 347.44 137.371 331.99 137.371Z" fill="white"/>
<path d="M357.278 144.289C357.334 140.009 345.243 136.38 330.272 136.184C315.3 135.988 303.118 139.299 303.062 143.579C303.006 147.859 315.097 151.487 330.069 151.683C345.04 151.879 357.222 148.568 357.278 144.289Z" fill="#82BE28"/>
<path d="M330.031 171.211C328.371 171.211 327.031 169.871 327.031 168.211C327.031 166.551 328.371 165.211 330.031 165.211C346.391 165.211 354.641 160.981 355.011 159.381V144.791C354.641 143.211 346.391 138.981 330.031 138.981C313.671 138.981 305.421 143.211 305.051 144.811V159.401C305.051 161.061 303.711 162.401 302.051 162.401C300.391 162.401 299.051 161.061 299.051 159.401V144.781C299.051 136.671 315.111 132.971 330.031 132.971C344.951 132.971 361.011 136.671 361.011 144.781V159.401C361.011 167.511 344.951 171.211 330.031 171.211Z" fill="black"/>
<path d="M330.031 156.591C315.111 156.591 299.051 152.891 299.051 144.781C299.051 143.121 300.391 141.781 302.051 141.781C303.711 141.781 305.041 143.111 305.051 144.761C305.461 146.371 313.701 150.591 330.031 150.591C346.361 150.591 354.641 146.361 355.011 144.761C355.011 143.101 356.351 141.771 358.011 141.771C359.671 141.771 361.011 143.131 361.011 144.781C361.011 152.891 344.951 156.591 330.031 156.591Z" fill="black"/>
<path d="M348.609 274.4C353.348 274.4 357.189 270.559 357.189 265.82C357.189 261.082 353.348 257.24 348.609 257.24C343.871 257.24 340.029 261.082 340.029 265.82C340.029 270.559 343.871 274.4 348.609 274.4Z" fill="#82BE28"/>
</svg>
