<svg width="300" height="400" viewBox="0 0 300 400" fill="none" xmlns="http://www.w3.org/2000/svg">
<path d="M93.3304 251.461C95.0004 264.171 100.69 292.941 94.6704 302.641C88.6504 312.341 82.6304 320.371 73.2604 323.381C63.8904 326.391 59.8804 341.441 68.9104 345.791C77.9404 350.141 99.6804 356.161 122.09 352.481C133.8 348.471 142.83 344.791 144.84 327.061C146.85 309.331 148.85 260.831 148.85 260.831C131.46 261.831 118.08 264.171 99.0104 248.791C92.3204 247.791 93.3204 247.791 93.3204 251.471L93.3304 251.461Z" fill="#2D8C3C"/>
<path d="M107.389 356.9C95.019 356.9 81.239 354.32 75.279 352.23C66.559 349.17 61.219 343.27 60.999 336.44C60.779 329.47 65.919 323.25 75.089 319.37C76.619 318.73 78.379 319.44 79.019 320.96C79.659 322.48 78.949 324.25 77.429 324.89C70.659 327.75 66.859 331.89 66.999 336.25C67.129 340.44 71.059 344.4 77.249 346.57C84.819 349.22 106.109 352.52 118.189 349.96C119.809 349.61 121.399 350.65 121.749 352.27C122.089 353.89 121.059 355.48 119.439 355.83C115.849 356.59 111.699 356.91 107.389 356.91V356.9Z" fill="black"/>
<path d="M206.07 221.479C205.45 244.309 204.3 251.859 206.96 267.159C208.79 277.699 181.69 277.799 173.71 278.019C162.04 278.339 148.44 273.809 145.78 271.149C143.12 268.489 143.89 266.379 144.45 262.059C115.19 263.389 97.8896 253.189 99.2196 246.539C105.52 215.059 102.87 226.489 98.5496 189.779C89.2396 110.639 84.0196 86.029 85.9096 58.089C90.3096 -6.761 220.11 26.559 214.94 73.829C210.62 113.289 208.07 147.649 206.07 221.479Z" fill="#82BE28"/>
<path d="M129.171 264.27C129.101 264.27 129.031 264.27 128.961 264.27C119.391 263.6 108.771 260.32 102.521 256.12C99.1808 253.87 98.5908 247.08 98.6408 234.52C98.6408 233.26 98.6408 232.17 98.6408 231.38C97.2408 170.5 91.3908 135.95 87.1308 110.72C83.6808 90.2897 81.1808 75.5397 82.9308 57.7997C83.0908 56.1497 84.5508 54.9397 86.2108 55.1097C87.8608 55.2697 89.0608 56.7397 88.9008 58.3897C87.2308 75.3297 89.6708 89.7597 93.0508 109.72C97.3508 135.13 103.231 169.93 104.641 231.24C104.661 232.07 104.651 233.21 104.641 234.54C104.631 238.16 104.581 249.09 106.021 251.24C111.411 254.8 120.981 257.69 129.381 258.29C131.031 258.41 132.281 259.84 132.161 261.49C132.051 263.07 130.731 264.28 129.171 264.28V264.27Z" fill="black"/>
<path d="M205.68 261.219C204.02 261.219 202.68 259.879 202.68 258.219C202.66 237.789 203.09 166.049 209.62 100.679C212.62 70.6495 212.44 62.0295 205.37 54.0895C204.27 52.8495 204.38 50.9595 205.62 49.8495C206.86 48.7495 208.75 48.8595 209.86 50.0995C218.81 60.1695 218.57 71.4895 215.59 101.279C209.08 166.359 208.65 237.849 208.68 258.209C208.68 259.869 207.34 261.209 205.68 261.209V261.219Z" fill="black"/>
<path d="M146.83 275.439C146.83 275.439 146.77 275.439 146.75 275.439C145.09 275.399 143.79 274.019 143.83 272.359C144.32 254.529 145.68 190.569 142.77 116.069C142.71 114.409 144 113.019 145.65 112.949C145.69 112.949 145.73 112.949 145.77 112.949C147.37 112.949 148.7 114.219 148.77 115.829C151.68 190.519 150.31 254.639 149.83 272.519C149.79 274.149 148.45 275.439 146.83 275.439Z" fill="black"/>
<path d="M209.31 271.43C201.69 276.51 149.38 279.56 141.76 271.43L143.79 289.21C145.82 301.4 146.03 327.65 139.4 336.27C130.27 348.15 107.34 355.3 120 371.5C129.9 384.17 167.78 383.04 191.53 371.48C210.32 362.34 210.32 346.59 206.77 330.85C203.21 315.11 210.33 307.49 209.31 271.43Z" fill="#2D8C3C"/>
<path d="M149.541 383.019C135.671 383.019 123.431 379.949 118.031 373.039C107.591 359.679 118.571 350.969 127.391 343.969C131.081 341.039 134.901 338.009 137.421 334.739C143.061 327.399 143.511 302.709 141.331 289.609C141.101 288.249 142.021 286.959 143.381 286.729C144.751 286.499 146.031 287.419 146.261 288.779C148.231 300.619 148.871 328.049 141.391 337.779C138.501 341.539 134.441 344.759 130.511 347.879C120.351 355.939 114.941 360.939 121.981 369.949C130.601 380.979 167.071 380.589 190.441 369.219C208.211 360.579 207.621 345.929 204.331 331.389C202.481 323.189 203.351 317.149 204.551 308.789C205.701 300.819 207.111 291.029 206.881 275.069C192.171 279.449 148.071 281.799 139.931 273.119C138.991 272.109 139.041 270.529 140.041 269.589C141.051 268.639 142.631 268.699 143.571 269.699C145.841 272.119 156.571 274.349 175.461 273.859C191.931 273.439 205.131 271.179 207.911 269.329C208.671 268.829 209.641 268.769 210.451 269.189C211.261 269.609 211.781 270.429 211.801 271.339C212.321 289.869 210.691 301.219 209.501 309.499C208.331 317.619 207.561 322.989 209.201 330.279C212.551 345.109 213.691 363.459 192.621 373.709C180.501 379.609 164.121 382.999 149.541 382.999V383.019Z" fill="black"/>
<path d="M76.2705 325.13C75.1705 325.13 74.1105 324.52 73.5805 323.47C72.8405 321.99 73.4505 320.19 74.9305 319.45C98.7205 307.61 94.4305 280.93 91.5905 263.28C90.8205 258.51 90.2205 254.74 90.3405 252.01C90.4105 250.35 91.8405 249.09 93.4705 249.14C95.1305 249.21 96.4105 250.61 96.3405 252.27C96.2505 254.38 96.8405 258.06 97.5205 262.32C100.261 279.34 105.351 311.01 77.6105 324.81C77.1805 325.02 76.7205 325.13 76.2805 325.13H76.2705Z" fill="black"/>
</svg>
