<svg width="300" height="400" viewBox="0 0 300 400" fill="none" xmlns="http://www.w3.org/2000/svg">
<path d="M120.738 287.959C120.738 287.959 110.938 312.119 83.6884 319.919C56.4384 327.719 60.8884 352.099 92.9984 354.499C125.108 356.909 141.218 351.839 141.218 351.839C141.218 351.839 175.138 329.229 152.828 291.869C153.568 236.479 120.738 287.959 120.738 287.959Z" fill="white"/>
<path d="M158.829 281.119C162.389 325.559 143.339 344.709 136.429 348.979C129.519 353.259 113.839 367.399 121.269 376.449C136.569 395.069 192.019 382.389 203.709 359.749C210.849 348.889 197.809 323.499 195.699 297.599L158.829 281.109V281.119Z" fill="white"/>
<path d="M107.899 356.48C97.3893 356.48 86.3493 355.25 77.5493 352.73C69.0093 350.29 63.4393 344.53 63.0293 337.7C62.5893 330.44 67.8893 323.76 77.2093 319.82C93.1093 313.09 108.989 305.63 113.159 294.89C113.759 293.35 115.499 292.58 117.039 293.18C118.579 293.78 119.349 295.52 118.749 297.06C113.729 309.97 96.6293 318.11 79.5493 325.34C72.6793 328.25 68.7393 332.73 69.0193 337.33C69.2793 341.55 73.1793 345.24 79.1993 346.96C98.3393 352.43 125.439 351.07 135.109 346.29C136.589 345.55 138.389 346.16 139.129 347.65C139.859 349.14 139.249 350.93 137.769 351.67C131.329 354.85 119.979 356.47 107.909 356.47L107.899 356.48Z" fill="black"/>
<path d="M208.169 221.93C207.549 244.76 206.399 301.18 209.059 316.47C210.889 327.01 183.789 327.11 175.809 327.33C164.139 327.65 150.539 323.12 147.879 320.46C145.219 317.8 145.989 315.69 146.549 311.37C117.289 312.7 99.9892 302.5 101.319 295.85C107.619 264.37 104.969 226.93 100.649 190.22C91.3392 111.08 86.1192 86.4704 88.0092 58.5304C92.4092 -6.3196 222.209 27.0004 217.039 74.2704C212.719 113.73 210.169 148.09 208.169 221.92V221.93Z" fill="#2D8C3C"/>
<path d="M147.9 387.231C147.25 387.231 146.6 387.231 145.94 387.211C130.89 386.921 121 383.281 117.34 376.671C115.59 373.501 114.47 368.131 119.05 360.511C122.28 355.131 128.93 350.541 134.27 346.851L134.73 346.531C140 342.891 147.57 334.541 151.73 324.831C152.38 323.311 154.15 322.601 155.67 323.261C157.19 323.911 157.9 325.681 157.24 327.201C152.61 338.001 144.09 347.351 138.14 351.471L137.67 351.791C132.8 355.151 126.75 359.331 124.18 363.611C121.68 367.761 121.14 371.191 122.58 373.781C125.07 378.281 133.62 380.991 146.04 381.231C180.44 381.861 199.09 363.781 202.2 358.901C205.81 353.231 202.14 338.081 198.78 332.041C197.98 330.591 198.5 328.761 199.95 327.961C201.4 327.161 203.23 327.681 204.03 329.131C205.72 332.171 207.92 338.121 209.02 344.551C209.93 349.881 210.37 357.251 207.26 362.131C203.05 368.751 183.23 387.261 147.89 387.261L147.9 387.231Z" fill="black"/>
<path d="M132.808 311.91C132.808 311.91 132.768 311.91 132.748 311.91C118.878 311.66 107.648 308.02 101.918 301.94C99.4383 299.3 98.1883 296.36 98.3183 293.44C101.518 218.24 94.5383 162.89 89.4383 122.47L88.7783 117.24C88.5683 115.6 89.7383 114.1 91.3783 113.89C93.0183 113.69 94.5183 114.85 94.7283 116.49L95.3883 121.72C100.508 162.35 107.528 218 104.308 293.7C104.258 294.95 104.958 296.42 106.288 297.83C110.848 302.67 120.778 305.7 132.858 305.92C134.518 305.95 135.828 307.32 135.798 308.97C135.768 310.61 134.428 311.92 132.798 311.92L132.808 311.91Z" fill="black"/>
<path d="M176.74 330.99C165.95 330.99 155.16 329.16 148.63 325.11C142.94 321.58 142.01 317.26 142.22 314.27C143.7 293.58 147.95 195.54 144.87 116.53C144.81 114.87 146.1 113.48 147.75 113.41C147.79 113.41 147.83 113.41 147.87 113.41C149.47 113.41 150.8 114.68 150.87 116.29C153.96 195.56 149.69 293.93 148.2 314.7C148.15 315.43 147.99 317.66 151.79 320.02C163.1 327.05 192.91 326 203.1 320.03C204.22 319.38 206.07 318.08 206.06 316.68C204.04 296.97 203.52 183.19 211.72 101.15C214.72 71.1202 214.54 62.5002 207.47 54.5602C206.37 53.3202 206.48 51.4302 207.72 50.3202C208.96 49.2202 210.85 49.3302 211.96 50.5702C220.91 60.6402 220.67 71.9602 217.69 101.75C209.51 183.59 210.02 296.94 212.03 316.17C212.03 316.23 212.04 316.29 212.04 316.35C212.15 318.75 211.21 322.23 206.12 325.21C199.82 328.9 188.27 331 176.72 331L176.74 330.99Z" fill="black"/>
<path d="M91.8602 43.76C88.7702 51.77 89.2302 157.85 83.1002 223.21C80.0002 241.09 93.7902 245.18 122.38 250.29C150.97 255.4 223.49 256.42 226.04 232.42C221.42 192.72 218.39 148.93 216.55 125.19C214.71 101.45 220.42 66.47 210.21 46.55C200 26.63 107.05 4.41004 91.8602 43.76Z" fill="#82BE28"/>
<path d="M171.92 256.061C170.32 256.061 168.99 254.791 168.92 253.181C168.86 251.521 170.15 250.131 171.8 250.061C202.51 248.861 221.6 242.271 223.02 232.401C219.1 198.641 216.31 161.701 214.46 137.231C214.13 132.901 213.83 128.931 213.56 125.411C212.96 117.681 213.14 109.001 213.33 99.8008C213.73 80.6208 214.14 60.7908 207.54 47.9108C206.78 46.4408 207.37 44.6308 208.84 43.8708C210.31 43.1208 212.12 43.7008 212.88 45.1708C220.18 59.4008 219.75 80.0008 219.33 99.9208C219.14 108.971 218.96 117.511 219.54 124.941C219.81 128.471 220.11 132.441 220.44 136.771C222.29 161.281 225.09 198.321 229.02 232.061C229.05 232.281 229.05 232.501 229.02 232.721C227.99 242.391 217.27 254.281 172.03 256.051C171.99 256.051 171.95 256.051 171.91 256.051L171.92 256.061Z" fill="black"/>
<path d="M147.85 255.909C147.85 255.909 147.75 255.909 147.7 255.909C138.02 255.439 128.84 254.489 121.86 253.239C97.4404 248.879 76.3404 245.109 80.1304 222.819C83.4804 187.009 84.8404 139.609 85.9204 101.509C86.9804 64.5493 87.5504 46.5993 89.0604 42.6893C89.6604 41.1493 91.3804 40.3793 92.9304 40.9793C94.4704 41.5693 95.2504 43.3093 94.6604 44.8493C93.4504 48.0393 92.7104 74.0993 91.9204 101.679C90.8304 139.909 89.4704 187.479 86.0904 223.499C86.0904 223.579 86.0704 223.659 86.0604 223.729C83.5904 237.969 92.6304 241.929 122.91 247.339C129.65 248.539 138.56 249.459 147.99 249.919C149.65 249.999 150.92 251.409 150.84 253.059C150.76 254.659 149.44 255.909 147.85 255.909Z" fill="black"/>
</svg>
