<svg width="362" height="410" viewBox="0 0 362 410" fill="none" xmlns="http://www.w3.org/2000/svg">
<path d="M301.382 191.427C301.812 197.06 308.746 203.123 315.239 208.316C321.732 213.508 348.146 236.9 354.209 229.967C360.272 223.033 362.003 204.414 352.048 190.997C342.093 177.57 326.065 158.951 309.176 170.206C292.288 181.462 301.382 191.427 301.382 191.427Z" fill="#2D8C3C"/>
<path d="M320.441 172.809C310.917 157.651 281.472 142.934 269.346 142.934L258.09 181.473C281.472 181.043 299.661 189.698 308.756 192.729C317.85 195.761 329.976 187.967 320.452 172.809H320.441Z" fill="#82BE28"/>
<path d="M74.0378 159.381C64.513 167.605 59.3103 186.665 60.1808 201.382C61.0512 216.11 61.0512 304.875 52.817 313.539C38.5298 327.396 92.6572 367.666 93.0875 317.001C100.451 265.905 112.577 191.417 115.609 188.385C118.64 185.354 92.6572 147.675 74.0378 159.371V159.381Z" fill="white"/>
<path d="M60.5516 224.525C60.5115 256.161 58.9507 307.097 52.8176 313.55C47.4349 318.773 51.7671 327.748 59.2909 334.191L73.8783 341.545C83.7033 343.265 92.918 337.803 93.0981 317.012C97.3302 287.667 103.123 250.609 107.866 223.805C87.5853 232.169 71.0769 230.288 60.5516 224.525Z" fill="#82BE28"/>
<path d="M60.5698 223.234C63.3812 232.319 90.515 234.07 105.383 226.186" stroke="black" stroke-width="6" stroke-linecap="round" stroke-linejoin="round"/>
<path d="M52.8167 313.549C42.4214 324.374 45.1628 327.566 39.0797 334.599C24.4323 351.498 7.32362 358.522 26.3233 382.624C35.8281 394.69 67.174 371.998 77.9494 358.261C84.5528 349.847 94.848 350.938 95.2482 337.801C97.7995 325.935 95.8585 313.879 85.3532 322.823C79.7203 310.267 67.0739 304.544 52.8067 313.549H52.8167Z" fill="#2D8C3C"/>
<path d="M210.557 36.5292C192.448 33.6077 150.407 44.7034 143.983 47.6248C110.697 73.3179 79.1606 107.195 65.7238 124.714C52.287 142.233 41.1913 164.424 53.4576 177.271C58.7102 180.772 62.222 181.363 62.222 181.363C65.1435 167.346 71.5668 157.421 71.5668 157.421C86.7545 158.001 104.273 174.359 110.116 183.704C115.959 193.049 127.635 208.236 138.731 195.97C149.826 183.704 159.751 155.67 184.284 154.509C200.632 181.953 214.129 204.745 240.993 200.072C267.856 195.4 287.736 158.931 277.221 131.487C272.549 123.313 252.188 126.775 252.188 126.775C250.437 103.413 239.762 48.8054 210.567 36.5392L210.557 36.5292Z" fill="white"/>
<path d="M145.524 48.2159C105.593 73.7088 49.7251 140.283 47.8242 161.213C46.9737 170.558 52.9268 177.351 52.9268 177.351" stroke="black" stroke-width="6" stroke-linecap="round" stroke-linejoin="round"/>
<path d="M60.5698 162.064C78.4088 155.27 90.3049 162.914 102.201 176.511C117.879 194.43 121.741 202.844 133.637 200.303C145.533 197.752 144.492 184.855 154.027 173.119C165.073 159.522 175.268 155.28 180.361 154.43" stroke="black" stroke-width="6" stroke-linecap="round" stroke-linejoin="round"/>
<path d="M154.027 133.177C166.774 136.579 182.912 147.625 193.107 168.866C203.302 190.106 221.502 206.545 248.635 197.78C272.207 190.156 284.013 142.532 277.22 131.487" stroke="black" stroke-width="6" stroke-linecap="round" stroke-linejoin="round"/>
<path d="M211.797 38.0193C229.636 48.2145 245.104 75.4983 247.485 103.442C249.396 125.944 258.31 134.178 260.862 135.879" stroke="black" stroke-width="6" stroke-linecap="round" stroke-linejoin="round"/>
<path d="M70.765 161.213C60.5698 173.959 58.8689 196.05 60.5698 223.234C62.2706 250.418 60.0895 299.493 55.8174 309.988" stroke="black" stroke-width="6" stroke-linecap="round" stroke-linejoin="round"/>
<path d="M114.087 190.948C106.443 207.937 96.248 294.601 91.9959 320.934" stroke="black" stroke-width="6" stroke-linecap="round" stroke-linejoin="round"/>
<path d="M274.669 183.303C293.358 184.153 303.843 191.447 308.656 192.648C320.282 195.549 329.046 182.452 315.449 167.155C301.852 151.857 280.612 145.914 280.612 145.914" stroke="black" stroke-width="6" stroke-linecap="round" stroke-linejoin="round"/>
<path d="M310.788 203.614C313.97 206.895 322.174 213.208 326.587 217.621C338.663 229.697 356.302 237.161 358.743 218.881C361.184 200.602 346.136 167.055 315.461 167.165" stroke="black" stroke-width="6" stroke-linecap="round" stroke-linejoin="round"/>
<path d="M179.862 406.347C209.684 406.347 233.859 382.172 233.859 352.35C233.859 322.528 209.684 298.352 179.862 298.352C150.04 298.352 125.865 322.528 125.865 352.35C125.865 382.172 150.04 406.347 179.862 406.347Z" fill="white"/>
<path d="M168.156 371.87H193.779C195.08 371.87 196.23 371.029 196.63 369.799L204.544 345.436C204.945 344.196 204.504 342.845 203.454 342.085L182.723 327.027C181.673 326.266 180.242 326.266 179.192 327.027L158.461 342.085C157.41 342.845 156.97 344.206 157.37 345.436L165.284 369.799C165.685 371.039 166.835 371.87 168.136 371.87H168.156Z" fill="black"/>
<path d="M169.396 366.756L151.647 391.189" stroke="black" stroke-width="6" stroke-linecap="round" stroke-linejoin="round"/>
<path d="M162.241 344.746L133.107 335.281" stroke="black" stroke-width="6" stroke-linecap="round" stroke-linejoin="round"/>
<path d="M180.961 331.139V316.182" stroke="black" stroke-width="6" stroke-linecap="round" stroke-linejoin="round"/>
<path d="M180.961 316.181V301.794" stroke="black" stroke-width="6" stroke-linecap="round" stroke-linejoin="round"/>
<path d="M219.82 338.202L224.843 336.571" stroke="black" stroke-width="6" stroke-linecap="round" stroke-linejoin="round"/>
<path d="M199.691 344.746L209.796 341.464" stroke="black" stroke-width="6" stroke-linecap="round" stroke-linejoin="round"/>
<path d="M192.537 366.756L211.357 392.659" stroke="black" stroke-width="6" stroke-linecap="round" stroke-linejoin="round"/>
<path d="M223.544 384.087C224.544 382.706 225.465 381.295 226.315 379.865H203.414C202.653 379.865 201.973 380.355 201.733 381.085L194.159 404.407C205.575 401.275 216.05 394.412 223.544 384.087Z" fill="black"/>
<path d="M160.342 381.185C160.102 380.454 159.431 379.964 158.661 379.964H133.458C137.1 386.087 142.003 391.58 148.126 396.032C154.299 400.515 161.092 403.496 168.096 405.047L160.342 381.185Z" fill="black"/>
<path d="M138.671 317.472C137.81 318.482 136.98 319.523 136.179 320.613C128.776 330.808 125.464 342.724 125.924 354.42L144.914 340.623C145.534 340.173 145.794 339.373 145.554 338.652L138.671 317.472Z" fill="black"/>
<path d="M179.751 312.591C180.371 313.041 181.211 313.041 181.822 312.591L197.4 301.275C186.354 297.473 174.488 297.433 163.603 300.865L179.751 312.601V312.591Z" fill="black"/>
<path d="M222.562 319.303L216.329 338.482C216.089 339.213 216.349 340.003 216.969 340.453L233.838 352.71C233.908 340.783 230.036 328.967 222.552 319.303H222.562Z" fill="black"/>
<path d="M185.365 406.067C172.598 407.378 159.322 404.176 148.126 396.032C124.004 378.503 118.651 344.736 136.18 320.614C138.201 317.832 140.432 315.311 142.843 313.03" stroke="black" stroke-width="6" stroke-linecap="round" stroke-linejoin="round"/>
<path d="M156.509 303.655C173.808 295.381 194.989 296.602 211.597 308.668C235.719 326.197 241.072 359.964 223.543 384.086C216.089 394.351 205.684 401.215 194.348 404.367" stroke="black" stroke-width="6" stroke-linecap="round" stroke-linejoin="round"/>
<path d="M84.1522 325.016C81.9011 304.736 58.4492 303.965 52.8163 313.55C47.1834 323.125 43.8217 329.538 37.5085 337.422C31.1853 345.306 24.9222 349.879 20.1798 363.555C16.5479 374.031 21.4604 385.246 34.0568 384.896C41.2104 384.696 52.136 384.396 71.7659 365.016C78.0291 358.833 81.5709 356.262 84.4123 354.091C87.2538 351.92 94.3073 343.045 94.8676 333.46" stroke="black" stroke-width="6" stroke-linecap="round" stroke-linejoin="round"/>
</svg>
