<svg width="340" height="400" viewBox="0 0 340 400" fill="none" xmlns="http://www.w3.org/2000/svg">
<path d="M28.5735 244.989C14.2035 257.689 9.25353 262.869 6.09353 273.079C2.93353 283.289 4.20353 290.609 5.73353 308.009C6.87353 320.959 14.5935 341.019 15.0335 343.499C16.2035 350.179 31.7835 366.019 45.8835 366.839C59.9835 367.659 73.0835 367.269 76.2935 359.309C79.5035 351.349 75.1035 337.469 67.0235 328.639C58.9435 319.809 72.3935 290.779 69.4435 284.649C66.4935 278.519 57.4135 275.339 49.0135 277.769C40.6135 280.199 26.2035 290.659 28.5835 244.979L28.5735 244.989Z" fill="#82BE28"/>
<path d="M57.273 369.68C51.983 369.68 46.083 368.79 39.843 366.99C18.023 360.67 7.65304 345.43 4.06304 314.36C3.60304 310.4 2.89304 306.22 2.20304 302.18C0.753043 293.66 -0.616957 285.6 0.293043 279.62C1.07304 274.47 4.40304 264.79 7.85304 261.34C9.02304 260.17 10.923 260.17 12.093 261.34C13.263 262.51 13.263 264.41 12.093 265.58C10.103 267.57 6.97304 275.53 6.22304 280.52C5.46304 285.56 6.75304 293.15 8.12304 301.18C8.82304 305.3 9.55304 309.56 10.023 313.68C13.333 342.3 22.163 355.64 41.513 361.24C57.763 365.94 68.083 363.21 72.313 359.1C74.433 357.04 75.193 354.6 74.533 352.03C72.773 345.25 70.113 340.84 67.763 336.95C64.883 332.18 62.163 327.67 62.343 320.69C62.643 309.36 64.223 292.31 64.233 292.14C64.383 290.49 65.853 289.27 67.493 289.43C69.143 289.58 70.353 291.05 70.203 292.69C70.183 292.86 68.633 309.71 68.333 320.85C68.193 326.07 70.163 329.33 72.883 333.85C75.313 337.88 78.343 342.9 80.323 350.52C81.523 355.16 80.123 359.85 76.483 363.39C72.193 367.56 65.453 369.69 57.263 369.69L57.273 369.68Z" fill="black"/>
<path d="M234.324 304.15C223.124 307.21 218.754 313.5 215.534 320.89C199.584 312.79 194.914 332.92 194.914 332.92C194.134 348.71 199.814 361.67 213.664 364.31C233.464 368.38 268.324 365.37 273.304 361.32C278.284 357.27 285.394 347.54 275.104 340.44C264.814 333.34 253.454 329.08 252.094 318.41C250.734 307.74 243.264 301.14 234.324 304.15Z" fill="#82BE28"/>
<path d="M250.522 371.509C243.192 371.509 213.402 368.209 202.072 360.129C194.202 354.519 191.242 343.459 193.272 327.249C193.482 325.609 194.972 324.449 196.622 324.649C198.262 324.859 199.432 326.359 199.222 327.999C197.512 341.649 199.702 351.079 205.552 355.249C215.292 362.199 245.052 365.699 250.942 365.509C264.632 365.009 273.782 361.059 276.052 354.689C277.492 350.649 275.852 345.929 271.792 342.359C269.102 339.999 266.412 338.379 263.802 336.809C257.882 333.249 252.302 329.879 248.742 319.619L248.302 318.329C245.042 308.869 244.172 306.319 233.972 307.229C225.972 307.939 216.602 317.349 216.062 325.219C215.952 326.869 214.512 328.119 212.862 328.009C211.212 327.899 209.962 326.459 210.072 324.809C210.812 314.099 222.602 302.209 233.442 301.249C248.312 299.929 250.562 306.469 253.972 316.379L254.412 317.649C257.262 325.859 261.512 328.419 266.902 331.669C269.602 333.299 272.662 335.139 275.752 337.849C281.702 343.069 283.982 350.299 281.712 356.699C279.872 361.879 273.452 370.689 251.162 371.509C250.972 371.509 250.762 371.519 250.522 371.519V371.509Z" fill="black"/>
<path d="M130.994 5.14949C108.434 23.5195 91.1637 80.1395 94.5137 117.379C96.0937 138.189 97.8337 166.309 87.3537 176.679C76.8737 187.049 32.5937 244.599 30.4037 247.459C27.2737 258.789 27.5437 274.859 34.4737 282.589C54.1037 278.779 67.0937 280.189 67.0937 280.189C78.8637 268.709 88.8637 252.429 102.684 241.069C128.714 227.189 151.644 194.319 153.204 189.099C158.274 172.209 171.234 138.369 174.144 118.959C194.584 152.309 204.504 176.539 209.474 186.689C208.764 194.319 199.834 297.519 203.814 306.799C214.414 310.109 215.544 320.879 215.544 320.879C228.684 303.699 241.084 303.989 241.084 303.989C255.734 252.409 263.434 220.939 268.084 199.199C267.924 165.969 240.664 52.2295 218.644 23.9795C211.474 5.55949 137.244 1.66949 130.994 5.14949Z" fill="white"/>
<path d="M67.0739 280.2C78.6039 268.96 88.4239 253.14 101.814 241.82C78.8339 236.93 68.8739 219.66 66.5339 201.34C50.5239 221.29 31.7939 245.63 30.3939 247.47C27.2639 258.8 27.5339 274.87 34.4639 282.6C54.0939 278.79 67.0839 280.2 67.0839 280.2H67.0739Z" fill="black"/>
<path d="M204.743 249.141C202.463 262.931 196.973 319.991 204.143 322.731C214.743 326.041 215.533 320.901 215.533 320.901C228.673 303.721 241.073 304.011 241.073 304.011C246.193 285.991 249.913 270.421 252.983 256.851C225.663 260.541 220.663 257.501 204.733 249.141H204.743Z" fill="black"/>
<path d="M68.8926 279.81C68.2726 279.81 67.6426 279.62 67.1026 279.22C65.7726 278.23 65.5026 276.35 66.4926 275.02C73.2026 266.01 83.0926 255.55 100.603 238.91C100.893 238.63 101.233 238.42 101.603 238.28C105.493 236.73 134.003 210.56 145.523 194.69C162.143 171.78 174.183 102.42 174.303 101.73C174.583 100.1 176.143 98.9999 177.763 99.2799C179.393 99.5599 180.493 101.11 180.213 102.74C179.713 105.65 167.803 174.19 150.373 198.21C139.993 212.51 111.703 239.77 104.373 243.59C87.5626 259.58 77.6526 270.06 71.2826 278.61C70.6926 279.4 69.7926 279.82 68.8726 279.82L68.8926 279.81Z" fill="black"/>
<path d="M67.3633 294.539C66.9033 294.539 66.4333 294.429 65.9833 294.199C64.5133 293.439 63.9333 291.629 64.6933 290.159C65.6733 288.269 66.6133 284.589 64.9833 282.719C60.6633 277.759 42.3233 283.749 36.8033 285.699C35.5733 286.129 34.2133 285.729 33.4233 284.699C25.5933 274.479 25.4833 253.199 27.5233 246.579C28.0133 244.999 29.6833 244.109 31.2733 244.599C32.8533 245.089 33.7433 246.769 33.2533 248.349C31.6533 253.559 31.9533 270.479 37.0133 279.289C54.1333 273.509 64.7633 273.349 69.5033 278.789C73.3833 283.239 71.6533 289.769 70.0133 292.929C69.4833 293.959 68.4333 294.549 67.3433 294.549L67.3633 294.539Z" fill="black"/>
<path d="M40.8519 241.07C40.3519 241.07 39.8319 240.94 39.3619 240.67C37.9219 239.85 37.4219 238.02 38.2419 236.58C42.9119 228.41 53.2719 212.89 67.1419 195.99C67.2919 195.81 80.3819 180.15 85.0119 173.69C87.9119 169.64 89.8919 163.65 90.8819 155.87C91.0919 154.23 92.5919 153.07 94.2419 153.28C95.8819 153.49 97.0519 154.99 96.8319 156.64C95.7119 165.41 93.3719 172.32 89.8819 177.19C85.1219 183.83 72.3019 199.17 71.7519 199.82C58.1419 216.41 47.9919 231.6 43.4419 239.56C42.8919 240.53 41.8719 241.07 40.8319 241.07H40.8519Z" fill="black"/>
<path d="M94.3733 138.53H94.3433C92.6833 138.51 91.3533 137.16 91.3733 135.5C92.0033 69.8296 102.503 27.0396 122.573 8.33959C123.783 7.20959 125.683 7.27959 126.813 8.48959C127.943 9.69959 127.873 11.5996 126.663 12.7296C107.833 30.2696 97.9833 71.5896 97.3733 135.56C97.3533 137.21 96.0133 138.53 94.3733 138.53Z" fill="black"/>
<path d="M242.992 306.349C241.742 306.349 240.572 305.559 240.152 304.309C237.932 297.729 241.782 280.219 248.702 254.119C248.742 253.959 248.802 253.809 248.862 253.659C255.002 240.029 258.092 229.529 260.522 220.209C260.992 218.419 261.512 216.639 262.012 214.919C265.702 202.269 269.892 187.929 259.012 148.799C256.692 140.459 254.182 131.449 251.522 122.139C251.062 120.549 251.992 118.889 253.582 118.429C255.162 117.979 256.832 118.899 257.292 120.489C259.962 129.819 262.472 138.839 264.792 147.189C276.122 187.979 271.682 203.179 267.772 216.599C267.262 218.359 266.772 220.019 266.332 221.729C263.852 231.249 260.692 241.969 254.442 255.899C251.192 268.159 243.772 296.239 245.842 302.399C246.372 303.969 245.522 305.669 243.952 306.199C243.632 306.309 243.312 306.359 242.992 306.359V306.349Z" fill="black"/>
<path d="M249.103 106.109C247.813 106.109 246.613 105.269 246.223 103.959C233.973 62.6995 224.533 37.4195 217.363 26.6695C216.443 25.2895 216.813 23.4295 218.193 22.5095C219.573 21.5895 221.433 21.9595 222.353 23.3395C229.863 34.5895 239.553 60.4095 251.973 102.249C252.443 103.839 251.543 105.509 249.953 105.979C249.673 106.06 249.383 106.099 249.103 106.099V106.109Z" fill="black"/>
<path d="M203.803 309.819C202.353 309.819 201.083 308.769 200.843 307.289C197.403 285.679 200.493 248.729 203.753 209.609C204.203 204.159 204.663 198.669 205.113 193.169C205.933 183.069 191.213 156.739 181.473 139.319C176.673 130.739 172.893 123.959 171.353 120.079C170.743 118.539 171.493 116.799 173.033 116.189C174.573 115.579 176.313 116.329 176.923 117.869C178.313 121.379 182.203 128.339 186.703 136.389C200.573 161.199 211.983 182.639 211.093 193.659C210.643 199.169 210.193 204.659 209.733 210.109C206.503 248.859 203.443 285.459 206.773 306.339C207.033 307.979 205.913 309.509 204.283 309.769C204.123 309.799 203.963 309.809 203.803 309.809V309.819Z" fill="black"/>
<path d="M98.7436 244.41C89.7636 244.41 81.3436 239.77 74.6836 231.04C66.3636 220.13 62.8736 205.02 66.7436 196.63C67.4336 195.13 69.2236 194.47 70.7236 195.16C72.2236 195.85 72.8836 197.64 72.1936 199.14C69.5936 204.78 71.8836 217.48 79.4536 227.4C83.1236 232.21 90.9536 239.99 102.184 238.12C103.814 237.84 105.364 238.95 105.634 240.59C105.904 242.22 104.804 243.77 103.164 244.04C101.674 244.29 100.204 244.41 98.7436 244.41Z" fill="black"/>
<path d="M233.624 261.71C231.684 261.71 229.704 261.59 227.694 261.36C216.564 260.06 207.534 255.5 202.934 248.85C201.994 247.49 202.334 245.62 203.694 244.68C205.054 243.74 206.924 244.08 207.864 245.44C211.434 250.6 219.104 254.32 228.384 255.4C237.534 256.47 246.184 254.71 250.404 250.91C251.634 249.8 253.534 249.9 254.644 251.13C255.754 252.36 255.654 254.26 254.424 255.37C249.914 259.43 242.254 261.71 233.624 261.71Z" fill="black"/>
</svg>
