<svg width="25" height="25" viewBox="0 0 25 25" xmlns="http://www.w3.org/2000/svg" fill="currentColor"><path d="M7.55 18.73h10.14a3.116 3.116 0 003.12-3.12V5.21a3.116 3.116 0 00-3.12-3.12H7.29a3.116 3.116 0 00-3.12 3.12v14.56a3.116 3.116 0 003.12 3.119h10.4a3.12 3.12 0 003.098-2.777.275.275 0 00-.062-.25.262.262 0 00-.302-.062.26.26 0 00-.114.104 3.118 3.118 0 01-2.62 1.425H7.55a1.3 1.3 0 010-2.6zm5.72-13.146a2.18 2.18 0 012.173 2.174A2.18 2.18 0 0113.27 9.93a2.18 2.18 0 01-2.174-2.173 2.18 2.18 0 012.174-2.174zM9.162 13.53c.468-1.384 1.664-2.642 4.108-2.642 2.443 0 3.64 1.258 4.107 2.642.177.52-.135 1.07-.655 1.227a12.766 12.766 0 01-6.905 0 .96.96 0 01-.655-1.227z"/></svg>