<svg width="24" height="24" viewBox="0 0 24 24" xmlns="http://www.w3.org/2000/svg" fill="currentColor"><g clip-path="url(#clip0)"><path d="M7.5 6c-1.66 0-3 1.34-3 3v6.82a2.99 2.99 0 01-2-2.82V7c0-1.66 1.34-3 3-3h9c1.3 0 2.4.84 2.82 2H7.5zm5.03 13.5H9c-1.13 0-2.1-.63-2.61-1.56-.11-.2-.2-.41-.26-.63-.01-.03-.02-.05-.02-.08-.07-.24-.11-.48-.11-.73v-6c0-1.66 1.34-3 3-3h9c1.66 0 3 1.34 3 3v2.32c-.63-.2-1.3-.32-2-.32-.49 0-.97.06-1.42.16l-.37-.37a.996.996 0 00-1.41 0l-3.15 3.15c-.2.2-.51.2-.71 0l-.82-.82a.996.996 0 00-1.41 0l-1.96 1.96a.52.52 0 00-.1.58c.25.5.76.84 1.35.84h3.58c-.05.33-.08.66-.08 1 0 .17.01.33.03.5zM9 11.5c0 .83.67 1.5 1.5 1.5s1.5-.67 1.5-1.5-.67-1.5-1.5-1.5-1.5.67-1.5 1.5zM24 19c0 2.76-2.24 5-5 5s-5-2.24-5-5 2.24-5 5-5 5 2.24 5 5zm-2 1.29c0-1.65-1.34-2.99-2.99-2.99H19v-1.12c0-.31-.36-.49-.6-.29l-2.51 1.96c-.19.15-.19.44 0 .59l2.51 1.96c.25.19.6.02.6-.29v-1.12h.01c1.24 0 2.24 1 2.24 2.24 0 .18-.02.36-.07.53-.03.1.03.2.13.23.09.03.17-.01.22-.09.29-.46.47-1.01.47-1.61z"/></g><defs><clipPath id="clip0"><path d="M0 0h24v24H0z"/></clipPath></defs></svg>