<svg width="25" height="25" viewBox="0 0 25 25" xmlns="http://www.w3.org/2000/svg" fill="currentColor"><path d="M8.975 9.505a2.448 2.448 0 012.444-2.444 2.448 2.448 0 012.443 2.444 2.448 2.448 0 01-2.444 2.444 2.454 2.454 0 01-2.443-2.444zm2.444 3.525c-2.746 0-4.098 1.415-4.628 2.975a1.074 1.074 0 00.738 1.372c2.538.718 5.231.718 7.768 0 .593-.166.936-.79.739-1.372-.52-1.56-1.872-2.975-4.618-2.975zm6.977-1.091a2.448 2.448 0 002.444-2.444 2.448 2.448 0 00-2.444-2.444 2.448 2.448 0 00-2.443 2.444 2.448 2.448 0 002.443 2.444zm4.628 4.055c-.53-1.55-1.872-2.974-4.628-2.974-.675 0-1.258.083-1.768.24a6.686 6.686 0 011.54 4.263c0 .125-.01.25-.021.374 1.393.021 2.787-.145 4.139-.53a1.07 1.07 0 00.738-1.373zM6.936 10.701a.525.525 0 00-.738.02l-2.309 2.434-1.092-1.144a.524.524 0 00-.738-.02.524.524 0 00-.02.738l1.476 1.55a.503.503 0 00.749 0l2.683-2.83c.208-.228.197-.55-.01-.748z"/></svg>