<svg width="25" height="25" viewBox="0 0 25 25" xmlns="http://www.w3.org/2000/svg" fill="currentColor"><path d="M4.95 8.673a3.129 3.129 0 013.12-3.12 3.129 3.129 0 013.12 3.12 3.122 3.122 0 01-3.12 3.12 3.122 3.122 0 01-3.12-3.12zm3.12 4.503c-3.505 0-5.231 1.81-5.907 3.796-.25.749.187 1.55.946 1.757a18.27 18.27 0 009.921 0c.76-.218 1.196-1.019.947-1.757-.676-1.987-2.402-3.796-5.907-3.796zm8.84-1.383a3.122 3.122 0 003.12-3.12 3.122 3.122 0 00-3.12-3.12 3.129 3.129 0 00-3.12 3.12 3.122 3.122 0 003.12 3.12zm5.906 5.179c-.676-1.987-2.402-3.796-5.907-3.796-1.03 0-1.892.166-2.63.437a8.202 8.202 0 012.11 5.49c0 .094-.01.188-.01.281a18.261 18.261 0 005.501-.665 1.362 1.362 0 00.936-1.747z"/></svg>