<svg width="25" height="25" viewBox="0 0 25 25" xmlns="http://www.w3.org/2000/svg" fill="currentColor"><path d="M9.006 9.505a2.448 2.448 0 012.444-2.444 2.448 2.448 0 012.444 2.444 2.448 2.448 0 01-2.444 2.444 2.454 2.454 0 01-2.444-2.444zm2.444 3.525c-2.746 0-4.098 1.415-4.628 2.975a1.074 1.074 0 00.738 1.372c2.538.718 5.231.718 7.769 0 .592-.166.936-.79.738-1.372-.52-1.56-1.872-2.975-4.617-2.975zm6.978-1.091a2.448 2.448 0 002.444-2.444 2.448 2.448 0 00-2.444-2.444 2.448 2.448 0 00-2.444 2.444 2.448 2.448 0 002.444 2.444zm4.627 4.055c-.53-1.55-1.872-2.974-4.627-2.974-.676 0-1.259.083-1.768.24a6.686 6.686 0 011.539 4.263c0 .125-.01.25-.021.374 1.394.021 2.787-.145 4.139-.53a1.07 1.07 0 00.738-1.373zM7.124 11.44a.515.515 0 00-.52-.52h-1.56V9.36a.515.515 0 00-.52-.52.515.515 0 00-.52.52v1.56h-1.56a.515.515 0 00-.52.52c0 .291.229.52.52.52h1.56v1.56c0 .291.229.52.52.52.29 0 .52-.229.52-.52v-1.56h1.56c.29 0 .52-.239.52-.52z"/></svg>