<svg width="24" height="24" viewBox="0 0 24 24" xmlns="http://www.w3.org/2000/svg" fill="currentColor"><path d="M11.5 10C9.6 10 8 11.6 8 13.5S9.6 17 11.5 17s3.5-1.6 3.5-3.5-1.6-3.5-3.5-3.5zm0 5c-.8 0-1.5-.7-1.5-1.5s.7-1.5 1.5-1.5 1.5.7 1.5 1.5-.7 1.5-1.5 1.5zm9.1-5l-6.4-5.8c-1.5-1.4-3.9-1.4-5.4 0L2.4 10c-.9.8-1.2 2.1-.7 3.2.3.8 1 1.5 1.8 1.7V17c0 2.2 1.8 4 4 4h8c2.2 0 4-1.8 4-4v-2.1c.8-.3 1.5-.9 1.8-1.7.5-1.2.2-2.4-.7-3.2zm-1.1 2.4c-.1.1-.3.6-.8.6H18c-.3 0-.5.2-.5.5V17c0 1.1-.9 2-2 2h-8c-1.1 0-2-.9-2-2v-3.5c0-.3-.2-.5-.5-.5h-.6c-.6 0-.8-.4-.8-.6 0-.2-.2-.6.2-1l6.4-5.8c.8-.7 1.9-.7 2.7 0l6.4 5.8c.3.4.2.9.2 1z"/></svg>