<svg width="24" height="24" viewBox="0 0 24 24" xmlns="http://www.w3.org/2000/svg" fill="currentColor"><path d="M20 6h-1.5V5c0-1.1-.9-2-2-2H5c-1.1 0-2 .9-2 2v12c0 2.2 1.8 4 4 4h10.5c2.5 0 4.5-2 4.5-4.5V8c0-1.1-.9-2-2-2zm0 10.5c0 1.4-1.1 2.5-2.5 2.5H7c-1.1 0-2-.9-2-2V5h11.5v11c0 .6.4 1 1 1s1-.4 1-1V8H20v8.5zM14.8 14c0 .4-.3.8-.8.8H7c-.4 0-.8-.3-.8-.8s.3-.8.8-.8h7c.4 0 .8.4.8.8zm-4 3c0 .4-.3.8-.8.8H7c-.4 0-.8-.3-.8-.8s.3-.8.8-.8h3c.4 0 .8.4.8.8zm2.7-10.8h-6c-.7 0-1.2.6-1.2 1.2v3c0 .7.6 1.2 1.2 1.2h6c.7 0 1.2-.6 1.2-1.2v-3c.1-.6-.5-1.2-1.2-1.2zm-.3 4H7.8V7.8h5.5v2.4h-.1z"/></svg>