<svg width="24" height="24" viewBox="0 0 24 24" xmlns="http://www.w3.org/2000/svg" fill="currentColor"><path d="M19.34 5.59l-4.77-.03-.94-.94c-.45-.45-1.08-.71-1.72-.71H7.55C6.21 3.91 5.12 5 5.12 6.34v.51h-.47c-1.34 0-2.43 1.09-2.43 2.43v8.39c0 1.34 1.09 2.43 2.43 2.43h11.74c1.34 0 2.43-1.09 2.43-2.43v-.47h.52c1.34 0 2.43-1.09 2.43-2.43V8.02c.01-1.34-1.09-2.43-2.43-2.43zm-2.02 12.08c0 .51-.42.93-.93.93H4.65c-.51 0-.93-.42-.93-.93V9.28c0-.51.42-.93.93-.93h4.34c.25 0 .48.1.66.27l.94.94c.3.3.7.46 1.12.46h4.68c.51 0 .93.42.93.93v6.72zm2.96-2.91c0 .51-.42.93-.93.93h-.52v-4.74c0-1.34-1.09-2.43-2.43-2.43h-4.68c-.02 0-.05-.01-.07-.03l-.94-.94c-.46-.46-1.07-.71-1.72-.71H6.62v-.5c0-.52.42-.93.93-.93h4.35c.25 0 .49.1.66.27l.94.94c.3.3.7.47 1.13.47h4.7c.52 0 .93.42.93.93v6.74h.02z"/></svg>