<svg width="24" height="24" viewBox="0 0 24 24" xmlns="http://www.w3.org/2000/svg" fill="currentColor"><path d="M18 10.34c0 .55.45 1 1 1s1-.45 1-1v-.65c0-.8-.31-1.55-.88-2.12l-4.83-4.83c-.57-.57-1.32-.88-2.12-.88H8c-2.21 0-4 1.79-4 4v12c0 2.21 1.79 4 4 4h4.95c.55 0 1-.45 1-1s-.45-1-1-1H8c-1.1 0-2-.9-2-2v-12c0-1.1.9-2 2-2h4v4c0 1.1.9 2 2 2h4v.48zm-4-5.06l2.59 2.59H14V5.28zm-6 7.58c0-.55.45-1 1-1h4.95c.55 0 1 .45 1 1s-.45 1-1 1H9c-.55 0-1-.44-1-1zm0 4c0-.55.45-1 1-1h4c.55 0 1 .45 1 1s-.45 1-1 1H9c-.55 0-1-.44-1-1zm12.06 4.91c0 .6-.49 1.09-1.09 1.09-.6 0-1.09-.49-1.09-1.09 0-.6.49-1.09 1.09-1.09.6 0 1.09.49 1.09 1.09zM22 15.52c0 1.41-.89 2.15-1.53 2.69-.19.16-.37.3-.51.47-.06.07-.1.18-.09.52 0 .49-.39.89-.88.89a.89.89 0 01-.89-.88c0-.52.06-1.12.51-1.66.21-.25.46-.47.74-.7.57-.48.9-.78.9-1.34 0-.47-.52-1-1.22-1-.62 0-1.24.38-1.24 1.1 0 .49-.4.89-.89.89s-.9-.38-.9-.87c0-1.61 1.32-2.87 3.01-2.87 1.62 0 2.99 1.27 2.99 2.76z"/></svg>