<svg width="24" height="24" viewBox="0 0 24 24" xmlns="http://www.w3.org/2000/svg" fill="currentColor"><path fill-rule="evenodd" clip-rule="evenodd" d="M3.02 5.64A2.492 2.492 0 005.51 8c1.02 0 1.9-.62 2.29-1.5H20c.55 0 1-.45 1-1s-.45-1-1-1H7.8C7.41 3.62 6.53 3 5.51 3 4.17 3 3.09 4.05 3.02 5.36a.593.593 0 01-.013.051c-.009.03-.017.057-.017.089 0 .032.008.06.017.089.004.016.01.033.013.051zM3.99 13h12.23c.39.88 1.26 1.5 2.29 1.5a2.5 2.5 0 000-5c-1.02 0-1.9.62-2.29 1.5H3.99c-.55 0-1 .45-1 1s.45 1 1 1zm3.81 4.5h12.19c.56 0 1.01.45 1.01 1s-.45 1-1 1H7.8c-.39.88-1.27 1.5-2.29 1.5-1.34 0-2.42-1.05-2.49-2.36a.588.588 0 00-.013-.051.307.307 0 01-.017-.089c0-.032.008-.06.017-.089a.588.588 0 00.013-.051C3.1 17.05 4.18 16 5.51 16c1.02 0 1.9.62 2.29 1.5z"/></svg>