<svg width="24" height="24" viewBox="0 0 24 24" xmlns="http://www.w3.org/2000/svg" fill="currentColor"><path fill-rule="evenodd" clip-rule="evenodd" d="M17.2 10.05c.58 0 1.1.32 1.35.85.25.52.18 1.13-.18 1.58l-6.33 7.86a1.493 1.493 0 01-1.67.47c-.61-.21-1-.77-1-1.41v-5.48H6.73c-.58 0-1.09-.32-1.35-.85s-.19-1.14.18-1.59l6.33-7.86c.41-.5 1.06-.69 1.67-.47.61.21 1 .77 1 1.41v5.49h2.64zm-5.83 3.37v4.56l4.78-5.94h-2.09c-.83 0-1.5-.67-1.5-1.5V5.98l-4.79 5.94h2.1c.83 0 1.5.67 1.5 1.5zm8.73 4.08l-1.29 1.29 1.27 1.29c.2.2.2.51 0 .71a.485.485 0 01-.7 0l-1.29-1.29-1.29 1.29a.485.485 0 01-.7 0c-.2-.2-.2-.51 0-.71l1.29-1.29-1.29-1.29c-.2-.2-.2-.51 0-.71.2-.2.51-.2.71 0l1.29 1.29 1.29-1.29c.2-.2.51-.2.71 0 .2.2.2.51 0 .71z"/></svg>