<svg width="24" height="24" viewBox="0 0 24 24" xmlns="http://www.w3.org/2000/svg" fill="currentColor"><path d="M11.5 18H5c-.55 0-1-.45-1-1v-.21c0-.13.05-.26.15-.35l3.15-3.15a.996.996 0 011.41 0l1.44 1.44c.2.2.51.2.71 0l4.44-4.44a.996.996 0 011.41 0l1.21 1.21H18c1.51 0 2.9.52 4 1.38V7c0-1.66-1.34-3-3-3H5C3.34 4 2 5.34 2 7v10c0 .23.03.45.08.66 0 .01.01.03.01.04.05.2.12.39.21.58v.01A2.992 2.992 0 005 20h6.82a6.3 6.3 0 01-.32-2zM8 7c1.1 0 2 .9 2 2s-.9 2-2 2-2-.9-2-2 .9-2 2-2zm10 6c-2.76 0-5 2.24-5 5s2.24 5 5 5 5-2.24 5-5-2.24-5-5-5zm0 1.5c.69 0 1.34.21 1.88.56l-4.82 4.82c-.35-.54-.56-1.19-.56-1.88 0-1.93 1.57-3.5 3.5-3.5zm0 7c-.69 0-1.34-.21-1.88-.56l4.82-4.82c.35.54.56 1.19.56 1.88 0 1.93-1.57 3.5-3.5 3.5z"/></svg>