<svg width="24" height="24" viewBox="0 0 24 24" xmlns="http://www.w3.org/2000/svg" fill="currentColor"><path fill-rule="evenodd" clip-rule="evenodd" d="M8.35 5.65h7.3C19.15 5.65 22 8.5 22 12c0 3.5-2.85 6.35-6.35 6.35h-7.3C4.85 18.35 2 15.5 2 12c0-3.5 2.85-6.35 6.35-6.35zm0 10.7h7.3c2.4 0 4.35-1.95 4.35-4.35 0-2.4-1.95-4.35-4.35-4.35h-7.3C5.95 7.65 4 9.6 4 12c0 2.4 1.95 4.35 4.35 4.35zm2.72-5.21H9.36V9.43c0-.24-.19-.43-.43-.43h-.86c-.24 0-.43.19-.43.43v1.71H5.93c-.24 0-.43.19-.43.43v.86c0 .24.19.43.43.43h1.71v1.71c0 .24.19.43.43.43h.86c.24 0 .43-.19.43-.43v-1.71h1.71c.24 0 .43-.19.43-.43v-.86c0-.24-.19-.43-.43-.43zm7.53-.26a1.38 1.38 0 11-2.76 0 1.38 1.38 0 012.76 0zm-2.75 2.74a1.38 1.38 0 11-2.76 0 1.38 1.38 0 012.76 0z"/></svg>