<svg width="24" height="24" viewBox="0 0 24 24" xmlns="http://www.w3.org/2000/svg" fill="currentColor"><path d="M12 7.49c-.55 0-1-.45-1-1v-3.5c0-.55.45-1 1-1s1 .45 1 1v3.5c0 .55-.45 1-1 1zm5.6 5.5H21c.55 0 1-.45 1-1s-.45-1-1-1h-3.4c-.55 0-1 .45-1 1s.45 1 1 1zm1.47 4.66l-2.41-2.41a.996.996 0 10-1.41 1.41l2.41 2.41a.996.996 0 101.41-1.41zM8.75 7.32l-2.41-2.4a.996.996 0 10-1.41 1.41l2.41 2.41c.39.39 1.02.39 1.41 0 .39-.39.39-1.02 0-1.42zM3 12.99h3.4c.55 0 1-.45 1-1s-.45-1-1-1H3c-.55 0-1 .45-1 1s.45 1 1 1zm3.34 6.07l2.41-2.41a.996.996 0 10-1.41-1.41l-2.41 2.41a.996.996 0 101.41 1.41zM13 20.99v-3.4c0-.55-.45-1-1-1s-1 .45-1 1v3.4c0 .55.45 1 1 1s1-.45 1-1z"/></svg>