<svg width="24" height="24" viewBox="0 0 24 24" xmlns="http://www.w3.org/2000/svg" fill="currentColor"><path d="M11.9 21c-.3 0-.6-.1-.9-.2l-1.8-1-1.8 1c-.6.4-1.4.3-2-.1-.6-.4-.9-1.1-.7-1.8l.4-2-1.5-1.4c-.5-.5-.7-1.2-.5-1.9.2-.7.8-1.2 1.5-1.3l2.1-.3.9-1.9c.2-.7.9-1.1 1.6-1.1.7 0 1.4.4 1.7 1.1l.9 1.9 2 .2c.7.1 1.3.6 1.5 1.3.2.7 0 1.4-.5 1.9l-1.5 1.4.4 2c.1.7-.1 1.4-.7 1.8-.4.3-.7.4-1.1.4zm-2.7-3l2.5 1.4c.2.1.3 0 .4 0 .1 0 .2-.2.1-.3l-.6-2.9 2.2-2c.1-.1.1-.3.1-.3 0-.1-.1-.2-.3-.2l-2.9-.3-1.2-2.7c-.1-.2-.2-.2-.3-.2-.1 0-.2 0-.3.2l-1.2 2.7-2.9.3c-.2 0-.3.2-.3.2 0 .1 0 .2.1.3l2.2 2-.6 2.9c0 .2.1.3.1.3.1 0 .2.1.4 0L9.2 18zm8.7-5.1c.5-.5 1.2-.8 1.9-.8.6 0 1-.4 1-1s-.4-1-1-1c-1.2 0-2.4.5-3.3 1.4-.4.4-.4 1 0 1.4.2.2.5.3.7.3.2 0 .5-.1.7-.3zm-2.6-2.6c1.2-1.2 2.8-1.9 4.5-1.9.6 0 1-.4 1-1s-.4-1-1-1c-2.2 0-4.3.9-5.9 2.4-.4.4-.4 1 0 1.4.2.2.5.3.7.3.2 0 .5 0 .7-.2zm-2.6-2.6c1.9-1.9 4.4-2.9 7.1-2.9.6 0 1-.4 1-1s-.4-1-1-1c-3.2 0-6.2 1.2-8.5 3.5-.4.4-.4 1 0 1.4.2.2.5.3.7.3.2 0 .5-.1.7-.3z"/></svg>