<svg width="24" height="24" viewBox="0 0 24 24" xmlns="http://www.w3.org/2000/svg" fill="currentColor"><path d="M14.7 14.2l-2.5 2.3.7 3.3c.2.8-.7 1.4-1.4 1l-2.9-1.7-2.9 1.7c-.7.4-1.6-.2-1.4-1l.7-3.3-2.5-2.3c-.6-.6-.3-1.6.5-1.7l3.4-.4L7.8 9c.2-.6 1.2-.6 1.6.1l1.4 3.1 3.4.4c.8.1 1.1 1.1.5 1.6zm3.2-1.3c.5-.5 1.2-.8 1.9-.8.6 0 1-.4 1-1s-.4-1-1-1c-1.2 0-2.4.5-3.3 1.4-.4.4-.4 1 0 1.4.2.2.5.3.7.3.2 0 .5-.1.7-.3zm-2.6-2.6c1.2-1.2 2.8-1.9 4.5-1.9.6 0 1-.4 1-1s-.4-1-1-1c-2.2 0-4.3.9-5.9 2.4-.4.4-.4 1 0 1.4.2.2.5.3.7.3.2 0 .5 0 .7-.2zm-2.6-2.6c1.9-1.9 4.4-2.9 7.1-2.9.6 0 1-.4 1-1s-.4-1-1-1c-3.2 0-6.2 1.2-8.5 3.5-.4.4-.4 1 0 1.4.2.2.5.3.7.3.2 0 .5-.1.7-.3z"/></svg>