<svg width="24" height="24" viewBox="0 0 24 24" xmlns="http://www.w3.org/2000/svg" fill="currentColor"><path d="M18 3H9.5c-1.65 0-3 1.35-3 3v.5H6c-1.65 0-3 1.35-3 3V18c0 1.65 1.35 3 3 3h8.5c1.65 0 3-1.35 3-3v-.5h.5c1.65 0 3-1.35 3-3V6c0-1.65-1.35-3-3-3zm-2.5 15c0 .55-.45 1-1 1H6c-.55 0-1-.45-1-1V9.5c0-.55.45-1 1-1h.5v6c0 1.65 1.35 3 3 3h6v.5zm3.5-3.5c0 .55-.45 1-1 1H9.5c-.55 0-1-.45-1-1V6c0-.55.45-1 1-1H18c.55 0 1 .45 1 1v8.5zm-1.75-6.25v4.5c0 .55-.45 1-1 1s-1-.45-1-1v-2.59l-3.2 3.2c-.2.2-.45.29-.71.29-.26 0-.51-.1-.71-.29a.996.996 0 010-1.41l3.2-3.2h-2.59c-.55 0-1-.45-1-1s.45-1 1-1h4.5c.84 0 1.51.67 1.51 1.5z"/></svg>