<svg width="24" height="24" viewBox="0 0 24 24" xmlns="http://www.w3.org/2000/svg" fill="currentColor"><path d="M10 18h6.5v.5A2.5 2.5 0 0114 21H5.5A2.5 2.5 0 013 18.5V10a2.5 2.5 0 012.5-2.5H6V14c0 2.21 1.79 4 4 4zm.75-10.75c0-.55.45-1 1-1h4c1.1 0 2 .9 2 2v4c0 .55-.45 1-1 1-.09 0-.17-.03-.25-.05v3.3h2A2.5 2.5 0 0021 14V5.5A2.5 2.5 0 0018.5 3H10a2.5 2.5 0 00-2.5 2.5v2h3.3c-.02-.08-.05-.16-.05-.25zM10 16.5h6.5v-3.3a.985.985 0 01-.75-.95V9.66l-3.2 3.2c-.2.2-.45.29-.71.29-.26 0-.51-.1-.71-.29a.996.996 0 010-1.41l3.2-3.2h-2.59c-.46 0-.84-.32-.95-.75H7.5V14a2.5 2.5 0 002.5 2.5z"/></svg>