<svg width="24" height="24" viewBox="0 0 24 24" xmlns="http://www.w3.org/2000/svg" fill="currentColor"><path d="M12 2C6.49 2 2 6.49 2 12s4.49 10 10 10 10-4.49 10-10S17.51 2 12 2zm0 18c-4.41 0-8-3.59-8-8s3.59-8 8-8 8 3.59 8 8-3.59 8-8 8zm3.4-4.1a.9.9 0 01-.04 1.27c-.17.16-.39.24-.61.24-.24 0-.48-.1-.66-.29 0-.01-.92-.94-2.08-.94-1.16 0-2.08.94-2.09.95-.35.36-.92.38-1.28.04a.9.9 0 01-.04-1.27c.06-.06 1.44-1.52 3.4-1.52s3.34 1.46 3.4 1.52zm-4.94-3.71L8.1 13.55a.902.902 0 01-.9-1.56l1.01-.59-1.01-.58a.9.9 0 11.9-1.56l2.36 1.36c.28.16.45.46.45.78s-.17.62-.45.79zm6.67 1.03a.902.902 0 01-1.23.33l-2.36-1.37a.899.899 0 010-1.56l2.36-1.36a.9.9 0 11.9 1.56l-1.01.58 1.01.59c.43.25.58.8.33 1.23z"/></svg>