<svg width="24" height="24" viewBox="0 0 24 24" xmlns="http://www.w3.org/2000/svg" fill="currentColor"><path fill-rule="evenodd" clip-rule="evenodd" d="M8 4c0-.55.45-1 1-1s1 .45 1 1v3.05c0 1.66-1.34 3-3 3H4c-.55 0-1-.45-1-1s.45-1 1-1h3c.55 0 1-.45 1-1V4zm12 6.05h-3c-1.66 0-3-1.34-3-3V4c0-.55.45-1 1-1s1 .45 1 1v3.05c0 .55.45 1 1 1h3c.55 0 1 .45 1 1s-.45 1-1 1zm-13 4H4c-.55 0-1 .45-1 1s.45 1 1 1h3c.55 0 1 .45 1 1V20c0 .55.45 1 1 1s1-.45 1-1v-2.95c0-1.65-1.34-3-3-3zm10 0h3c.55 0 1 .45 1 1s-.45 1-1 1h-3c-.55 0-1 .45-1 1V20c0 .55-.45 1-1 1s-1-.45-1-1v-2.95c0-1.66 1.34-3 3-3z"/></svg>