<svg width="24" height="24" viewBox="0 0 24 24" xmlns="http://www.w3.org/2000/svg" fill="currentColor"><path fill-rule="evenodd" clip-rule="evenodd" d="M21.17 10.28l-1.96-.31c-.16-.58-.39-1.13-.68-1.65l1.17-1.6c.29-.4.25-.95-.1-1.3L18.57 4.4c-.35-.35-.9-.39-1.3-.1l-1.6 1.17a7.37 7.37 0 00-1.64-.68l-.31-1.96a1 1 0 00-.99-.84h-1.46c-.49 0-.91.36-.99.84l-.31 1.96c-.57.16-1.13.39-1.64.68L6.73 4.3c-.4-.29-.95-.25-1.3.1L4.4 5.43c-.35.35-.39.9-.1 1.3l1.17 1.6a7.37 7.37 0 00-.68 1.64l-1.96.31a1 1 0 00-.84.99v1.46c0 .49.36.91.84.99l1.96.31c.16.58.39 1.13.68 1.64l-1.17 1.6c-.29.4-.25.95.1 1.3l1.03 1.03c.35.35.9.39 1.3.1l1.6-1.17c.51.29 1.07.52 1.64.68l.31 1.96a1 1 0 00.99.84h1.46c.49 0 .91-.36.99-.84l.31-1.96a7.18 7.18 0 001.64-.68l1.6 1.17c.4.29.95.25 1.3-.1l1.03-1.03c.35-.35.39-.9.1-1.3l-1.17-1.6c.29-.51.52-1.07.68-1.65l1.96-.31a1 1 0 00.84-.99v-1.46c.01-.48-.35-.9-.84-.98zM12 16.5c-2.48 0-4.5-2.02-4.5-4.5S9.52 7.5 12 7.5s4.5 2.02 4.5 4.5-2.02 4.5-4.5 4.5z"/></svg>