<svg width="24" height="24" viewBox="0 0 24 24" xmlns="http://www.w3.org/2000/svg" fill="currentColor"><path fill-rule="evenodd" clip-rule="evenodd" d="M11 5.81L8.63 8.18c-.39.4-1.02.39-1.41 0a.996.996 0 010-1.41l3.37-3.37c.37-.38.88-.59 1.41-.59.54 0 1.04.21 1.41.59l3.38 3.37c.39.39.39 1.02 0 1.41-.2.19-.45.29-.71.29-.26 0-.51-.09-.71-.29L13 5.81v8.09c0 .55-.45 1-1 1s-1-.45-1-1V5.81zm8.02 6.17c0-.55.45-1 1-1s1 .44 1 1v6.01c0 1.65-1.34 3-3 3H5.99c-1.65 0-3-1.34-3-3v-6.01c0-.55.45-1 1-1s1 .45 1 1v6.01c0 .55.45 1 1 1h12.03c.55 0 1-.45 1-1v-6.01z"/></svg>