<svg width="24" height="24" viewBox="0 0 24 24" xmlns="http://www.w3.org/2000/svg" fill="currentColor"><path fill-rule="evenodd" clip-rule="evenodd" d="M15.39 3.66a.998.998 0 00-1.3.55c-.21.51.04 1.1.55 1.3A6.975 6.975 0 0119.02 12c0 2.87-1.72 5.41-4.38 6.49a.996.996 0 00.38 1.92c.12 0 .25-.02.38-.07A8.962 8.962 0 0021.03 12c0-3.68-2.22-6.96-5.64-8.34zm-1.04 11.72c.19.17.42.25.66.25.28 0 .55-.12.75-.34A4.99 4.99 0 0017.02 12c0-1.2-.45-2.37-1.26-3.29-.37-.42-1-.45-1.41-.09a.99.99 0 00-.09 1.41c.35.39.76 1.05.76 1.97 0 .92-.41 1.58-.76 1.97a.989.989 0 00.09 1.41zm-7.22-6.4l3.18-3.17c.63-.63 1.71-.18 1.71.71v11c0 .89-1.08 1.34-1.71.71l-3.26-3.25H4.02c-.55 0-1-.45-1-1v-4c0-.55.45-1 1-1h3.11z"/></svg>