<?xml version="1.0" encoding="utf-8"?><svg xmlns="http://www.w3.org/2000/svg" xmlns:xlink="http://www.w3.org/1999/xlink"><symbol viewBox="0 0 24 24" id="accesspage" xmlns="http://www.w3.org/2000/svg"><path d="M17.44 5.8h-.85v-.85c0-1.52-1.23-2.75-2.75-2.75H6.56c-1.52 0-2.75 1.23-2.75 2.75v10.5c0 1.52 1.23 2.75 2.75 2.75h.85v.85c0 1.52 1.23 2.75 2.75 2.75h3.62c.73 0 1.42-.29 1.94-.81l3.66-3.66c.52-.52.81-1.21.81-1.94V8.55c0-1.51-1.23-2.75-2.75-2.75zM7.41 8.55v8.15h-.85c-.69 0-1.25-.56-1.25-1.25V4.95c0-.69.56-1.25 1.25-1.25h7.28c.69 0 1.25.56 1.25 1.25v.85h-4.92c-1.52 0-2.76 1.24-2.76 2.75zm1.5 10.5V8.55c0-.69.56-1.25 1.25-1.25h7.28c.69 0 1.25.56 1.25 1.25v6.51H15.2c-.96 0-1.75.79-1.75 1.75v3.49h-3.29c-.69 0-1.25-.56-1.25-1.25zm6.04.59v-2.83c0-.14.11-.25.25-.25h2.83l-3.08 3.08z"/></symbol><symbol viewBox="0 0 24 24" id="all" xmlns="http://www.w3.org/2000/svg"><path fill-rule="evenodd" clip-rule="evenodd" d="M5 3h3.5c1.1 0 2 .9 2 2v3.5c0 1.1-.9 2-2 2H5c-1.1 0-2-.9-2-2V5c0-1.1.9-2 2-2zm10.5 0H19c1.1 0 2 .9 2 2v3.5c0 1.1-.9 2-2 2h-3.5c-1.1 0-2-.9-2-2V5c0-1.1.9-2 2-2zm-7 10.5H5c-1.1 0-2 .9-2 2V19c0 1.1.9 2 2 2h3.5c1.1 0 2-.9 2-2v-3.5c0-1.1-.9-2-2-2zm7 0H19c1.1 0 2 .9 2 2V19c0 1.1-.9 2-2 2h-3.5c-1.1 0-2-.9-2-2v-3.5c0-1.1.9-2 2-2z"/></symbol><symbol viewBox="0 0 24 24" id="arrow-down" xmlns="http://www.w3.org/2000/svg"><path fill-rule="evenodd" clip-rule="evenodd" d="M16.45 14.57H13.5V4.39c0-.83-.67-1.5-1.5-1.5s-1.5.67-1.5 1.5v10.18H7.55c-.89 0-1.34 1.08-.71 1.71l4.45 4.45c.39.39 1.02.39 1.41 0l4.45-4.45c.63-.63.19-1.71-.7-1.71z"/></symbol><symbol viewBox="0 0 24 24" id="arrow_down" xmlns="http://www.w3.org/2000/svg"><path d="M19.07 13.32a.996.996 0 00-1.41 0L13 17.98V4c0-.55-.45-1-1-1s-1 .45-1 1v13.98l-4.66-4.66a.996.996 0 00-1.7.71c0 .26.1.51.29.71l5.66 5.66c.33.33.74.51 1.17.56.08.02.16.05.25.05s.17-.03.25-.05c.43-.05.84-.23 1.17-.56l5.66-5.66c.37-.4.37-1.03-.02-1.42z"/></symbol><symbol viewBox="0 0 24 24" id="arrow_down_bold" xmlns="http://www.w3.org/2000/svg"><path d="M19.42 12.96a1.49 1.49 0 00-2.12 0l-3.8 3.8V4c0-.83-.67-1.5-1.5-1.5s-1.5.67-1.5 1.5v12.77l-3.8-3.8a1.49 1.49 0 00-2.12 0c-.29.29-.44.68-.44 1.06s.15.77.44 1.06l5.66 5.66c.38.38.85.61 1.35.69.13.04.27.07.42.07.15 0 .29-.03.42-.07.49-.08.97-.31 1.35-.69l5.66-5.66c.57-.59.57-1.54-.02-2.13z"/></symbol><symbol viewBox="0 0 24 24" id="arrow_left" xmlns="http://www.w3.org/2000/svg"><path d="M20 11.363H6.03l4.66-4.66a.996.996 0 10-1.41-1.41l-5.66 5.66c-.33.33-.51.74-.56 1.17-.03.07-.06.15-.06.24s.03.17.05.25c.05.43.23.84.56 1.17l5.66 5.66c.2.2.45.29.71.29.26 0 .51-.1.71-.29a.996.996 0 000-1.41l-4.66-4.67H20c.55 0 1-.45 1-1s-.45-1-1-1z"/></symbol><symbol viewBox="0 0 24 24" id="arrow_left_bold" xmlns="http://www.w3.org/2000/svg"><path d="M20 10.5H7.23l3.8-3.8c.59-.59.59-1.54 0-2.12-.59-.58-1.54-.59-2.12 0l-5.66 5.66c-.38.38-.61.85-.69 1.35-.03.12-.06.26-.06.41 0 .15.03.29.07.42.08.49.31.97.69 1.35l5.66 5.66c.29.29.68.44 1.06.44s.77-.15 1.06-.44c.59-.59.59-1.54 0-2.12l-3.8-3.8H20c.83 0 1.5-.67 1.5-1.5s-.67-1.51-1.5-1.51z"/></symbol><symbol viewBox="0 0 24 24" id="arrow_right" xmlns="http://www.w3.org/2000/svg"><path d="M21 12c0-.09-.03-.17-.05-.25-.05-.43-.23-.84-.56-1.17l-5.66-5.66a.996.996 0 10-1.41 1.41L17.98 11H4c-.55 0-1 .45-1 1s.45 1 1 1h13.98l-4.66 4.66a.996.996 0 00.71 1.7c.26 0 .51-.1.71-.29l5.66-5.66c.33-.33.51-.74.56-1.17.01-.07.04-.15.04-.24z"/></symbol><symbol viewBox="0 0 24 24" id="arrow_right_bold" xmlns="http://www.w3.org/2000/svg"><path d="M21 11.873c0-.15-.03-.29-.07-.42-.08-.49-.31-.97-.69-1.35l-5.66-5.66a1.49 1.49 0 00-2.12 0c-.58.59-.59 1.54 0 2.12l3.8 3.8H3.5c-.83 0-1.5.67-1.5 1.5s.67 1.5 1.5 1.5h12.77l-3.8 3.8a1.49 1.49 0 000 2.12c.29.29.68.44 1.06.44s.77-.15 1.06-.44l5.66-5.66c.38-.38.61-.85.69-1.35.03-.11.06-.25.06-.4z"/></symbol><symbol viewBox="0 0 24 24" id="arrow_right_circle" xmlns="http://www.w3.org/2000/svg"><path d="M12 21a9 9 0 100-18 9 9 0 000 18z" stroke="#000" stroke-width="2" stroke-miterlimit="10"/><path d="M8 12h7.6m-2.9-3.6l3 3c.4.4.4 1 0 1.4l-3 3" stroke="#000" stroke-width="2" stroke-miterlimit="10" stroke-linecap="round"/></symbol><symbol viewBox="0 0 24 24" id="arrow_right_circle_fill" xmlns="http://www.w3.org/2000/svg"><path d="M12 2C6.5 2 2 6.5 2 12s4.5 10 10 10 10-4.5 10-10S17.5 2 12 2zm5.5 11.4l-3.3 3.3c-.2.2-.5.3-.7.3-.2 0-.5-.1-.7-.3-.4-.4-.4-1 0-1.4l2.3-2.3H6.5c-.6 0-1-.4-1-1s.4-1 1-1h8.6l-2.3-2.3c-.4-.4-.4-1 0-1.4.4-.4 1-.4 1.4 0l3.3 3.3c.4.4.6.9.6 1.4 0 .5-.2 1-.6 1.4z"/></symbol><symbol viewBox="0 0 24 24" id="arrow_up" xmlns="http://www.w3.org/2000/svg"><path d="M19.07 9.27l-5.66-5.66c-.33-.33-.74-.51-1.17-.56-.07-.02-.15-.05-.24-.05s-.17.03-.25.05c-.43.05-.84.23-1.17.56L4.92 9.27c-.2.2-.29.45-.29.71 0 .26.1.51.29.71.39.39 1.02.39 1.41 0L11 6.02V20c0 .55.45 1 1 1s1-.45 1-1V6.02l4.66 4.66a.996.996 0 101.41-1.41z"/></symbol><symbol viewBox="0 0 24 24" id="arrow_up_bold" xmlns="http://www.w3.org/2000/svg"><path d="M19.42 8.91l-5.66-5.66c-.38-.38-.85-.61-1.35-.69-.13-.04-.27-.07-.42-.07-.15 0-.29.03-.42.07-.49.08-.97.31-1.35.69L4.56 8.91a1.49 1.49 0 000 2.12c.59.58 1.54.59 2.12 0l3.8-3.8V20c0 .83.67 1.5 1.5 1.5s1.5-.67 1.5-1.5V7.23l3.8 3.8c.59.59 1.54.59 2.12 0 .29-.29.44-.68.44-1.06s-.12-.76-.42-1.06z"/></symbol><symbol viewBox="0 0 24 24" id="arrowpaging_down" xmlns="http://www.w3.org/2000/svg"><path fill-rule="evenodd" clip-rule="evenodd" d="M11.33 15.3l-4.62-4.59c-.63-.63-.19-1.71.7-1.71h9.17c.89 0 1.34 1.07.71 1.7l-4.55 4.59c-.38.39-1.01.39-1.41.01z"/></symbol><symbol viewBox="0 0 24 24" id="arrowpaging_down_circle" xmlns="http://www.w3.org/2000/svg"><path fill-rule="evenodd" clip-rule="evenodd" d="M2 12C2 6.49 6.49 2 12 2s10 4.49 10 10-4.49 10-10 10S2 17.51 2 12zm2 0c0 4.41 3.59 8 8 8s8-3.59 8-8-3.59-8-8-8-8 3.59-8 8zm4.2-2.18h7.58c.89 0 1.34 1.07.71 1.7l-3.76 3.79c-.38.4-1.02.4-1.41.01L7.5 11.53c-.64-.63-.19-1.71.7-1.71z"/></symbol><symbol viewBox="0 0 24 24" id="arrowpaging_left" xmlns="http://www.w3.org/2000/svg"><path fill-rule="evenodd" clip-rule="evenodd" d="M8.8 12.67l4.59 4.62c.63.63 1.71.19 1.71-.7V7.41c0-.89-1.07-1.34-1.7-.71l-4.59 4.55c-.39.39-.39 1.02-.01 1.42z"/></symbol><symbol viewBox="0 0 24 24" id="arrowpaging_left_circle" xmlns="http://www.w3.org/2000/svg"><path fill-rule="evenodd" clip-rule="evenodd" d="M12 2c5.51 0 10 4.49 10 10s-4.49 10-10 10S2 17.51 2 12 6.49 2 12 2zm0 2c-4.41 0-8 3.59-8 8s3.59 8 8 8 8-3.59 8-8-3.59-8-8-8zm2.18 4.2v7.58c0 .89-1.07 1.34-1.7.71l-3.79-3.76a.987.987 0 01-.01-1.41l3.79-3.82c.63-.64 1.71-.19 1.71.7z"/></symbol><symbol viewBox="0 0 24 24" id="arrowpaging_right" xmlns="http://www.w3.org/2000/svg"><path fill-rule="evenodd" clip-rule="evenodd" d="M15.2 12.67l-4.59 4.62c-.63.63-1.71.19-1.71-.7V7.41c0-.89 1.07-1.34 1.7-.71l4.59 4.55c.39.39.39 1.02.01 1.42z"/></symbol><symbol viewBox="0 0 24 24" id="arrowpaging_right_circle" xmlns="http://www.w3.org/2000/svg"><path fill-rule="evenodd" clip-rule="evenodd" d="M12 22C6.49 22 2 17.51 2 12S6.49 2 12 2s10 4.49 10 10-4.49 10-10 10zm0-2c4.41 0 8-3.59 8-8s-3.59-8-8-8-8 3.59-8 8 3.59 8 8 8zm-2.18-4.2V8.22c0-.89 1.07-1.34 1.7-.71l3.79 3.76c.4.38.4 1.02.01 1.41l-3.79 3.82c-.63.64-1.71.19-1.71-.7z"/></symbol><symbol viewBox="0 0 24 24" id="arrowpaging_up" xmlns="http://www.w3.org/2000/svg"><path fill-rule="evenodd" clip-rule="evenodd" d="M11.33 8.8l-4.62 4.59c-.63.63-.19 1.71.7 1.71h9.17c.89 0 1.34-1.07.71-1.7l-4.55-4.59c-.38-.39-1.01-.39-1.41-.01z"/></symbol><symbol viewBox="0 0 24 24" id="arrowpaging_up_circle" xmlns="http://www.w3.org/2000/svg"><path fill-rule="evenodd" clip-rule="evenodd" d="M22 12c0 5.51-4.49 10-10 10S2 17.51 2 12 6.49 2 12 2s10 4.49 10 10zm-2 0c0-4.41-3.59-8-8-8s-8 3.59-8 8 3.59 8 8 8 8-3.59 8-8zm-4.2 2.18H8.22c-.89 0-1.34-1.07-.71-1.7l3.76-3.79c.38-.4 1.02-.4 1.41-.01l3.82 3.79c.64.63.19 1.71-.7 1.71z"/></symbol><symbol viewBox="0 0 24 24" id="astrogy" xmlns="http://www.w3.org/2000/svg"><path d="M12.3 21c-2.5 0-4.8-1-6.5-2.9-.5-.5-.6-1.3-.3-2s1-1 1.7-.9h1.1C12 15 15 12 15.2 8.3V7.2c-.1-.7.3-1.4.9-1.7.7-.3 1.4-.2 2 .3 2.1 1.9 3.2 4.8 2.8 7.7-.5 3.8-3.7 7-7.5 7.5h-1.1zM7 16.7c-.1 0-.2.1-.2.1 0 .1-.1.2 0 .3 1.6 1.8 4 2.7 6.4 2.3 3.2-.4 5.8-3 6.2-6.2.3-2.4-.5-4.8-2.3-6.4-.1-.1-.2-.1-.3 0-.1 0-.1.1-.1.2 0 .4.1.9 0 1.4-.2 4.4-3.9 8.1-8.3 8.3-.4.1-.9.1-1.4 0 .1 0 .1 0 0 0zm4-11.1l-2.2-.2-.9-2c-.2-.5-1-.5-1.2 0l-.9 2-2.1.2c-.6.1-.8.8-.4 1.2l1.6 1.5-.4 2.1c-.1.6.5 1 1 .7L7.3 10l1.9 1.1c.5.3 1.1-.2 1-.7l-.4-2.2 1.6-1.5c.4-.3.2-1-.4-1.1z"/></symbol><symbol viewBox="0 0 24 24" id="astrogy_fill" xmlns="http://www.w3.org/2000/svg"><path d="M17.5 4.9c2.4 1.9 3.8 4.9 3.4 8.3-.5 4-3.8 7.2-7.7 7.7-3.4.4-6.4-1-8.3-3.4-.5-.7 0-1.7.9-1.6 1 .1 2.1.1 3.3-.2 3.3-.8 5.9-3.4 6.7-6.7.2-1 .3-2.1.1-3.2-.1-.9.9-1.4 1.6-.9zm-6.5.7l-2.2-.2-.9-2c-.2-.5-1-.5-1.2 0l-.9 2-2.1.2c-.6.1-.8.8-.4 1.2l1.6 1.5-.4 2.1c-.1.6.5 1 1 .7L7.3 10l1.9 1.1c.5.3 1.1-.2 1-.7l-.4-2.2 1.6-1.5c.4-.3.2-1-.4-1.1z"/></symbol><symbol viewBox="0 0 24 24" id="bell" xmlns="http://www.w3.org/2000/svg"><path d="M20 15c-.6-.9-1-1.9-1-3v-1.7c0-3-1.8-5.6-4.4-6.7-.5-1-1.5-1.6-2.6-1.6s-2.1.6-2.6 1.5c-.8.3-1.6.8-2.3 1.5C5.8 6.3 5 8.1 5 10v2c0 1.1-.4 2.1-1 3-.6.8-.7 1.8-.2 2.6C4.2 18.5 5 19 6 19h12c1 0 1.8-.5 2.2-1.4.5-.8.4-1.8-.2-2.6zm-1.6 1.7c0 .1-.2.3-.4.3H6c-.3 0-.4-.2-.4-.3 0-.1-.1-.3 0-.5C6.5 15 7 13.5 7 12v-2c0-1.4.5-2.6 1.5-3.6C9.5 5.5 10.7 5 12 5h.2c2.7.1 4.8 2.4 4.8 5.2V12c0 1.5.5 3 1.4 4.2.2.2.1.4 0 .5zM13.7 20c.4 0 .6.4.4.8-.4.7-1.2 1.2-2.1 1.2-.9 0-1.7-.5-2.2-1.2-.2-.3 0-.8.4-.8h3.5z"/></symbol><symbol viewBox="0 0 24 24" id="bell_fill" xmlns="http://www.w3.org/2000/svg"><path d="M20 15c1.2 1.6.1 4-2 4H6c-2.1 0-3.2-2.4-2-4l.4-.5c.4-.6.6-1.2.6-1.8V10c0-2.9 1.8-5.4 4.4-6.5C9.9 2.6 10.9 2 12 2s2.1.6 2.6 1.5C17.2 4.6 19 7.1 19 10v2.7c0 .6.2 1.3.6 1.8l.4.5zm-9.7 5c-.4 0-.6.4-.4.8.4.7 1.2 1.2 2.2 1.2 1 0 1.7-.5 2.2-1.2.2-.3 0-.8-.4-.8h-3.6z"/></symbol><symbol viewBox="0 0 24 24" id="bell_fill_slash" xmlns="http://www.w3.org/2000/svg"><path d="M7.5 4.7c.6-.5 1.2-.9 1.9-1.2C9.9 2.6 10.9 2 12 2s2.1.6 2.6 1.5C17.2 4.6 19 7.1 19 10v2.7c0 .6.2 1.3.6 1.8l.4.5c.6.8.6 1.7.3 2.5L7.5 4.7zM12 22c1.2 0 2.2-.9 2.4-2H9.6c.2 1.1 1.2 2 2.4 2zm6.8-3.2L6.2 6.2 4.5 4.5c-.4-.4-1-.4-1.4 0-.4.4-.4 1 0 1.4l2.2 2.2C5.1 8.7 5 9.3 5 10v2.7c0 .6-.2 1.3-.6 1.8L4 15c-1.2 1.6-.1 4 2 4h10.2l1.9 1.9c.2.2.5.3.7.3.2 0 .5-.1.7-.3.4-.4.4-1 0-1.4l-.7-.7z"/></symbol><symbol viewBox="0 0 24 24" id="bell_slash" xmlns="http://www.w3.org/2000/svg"><path d="M7.5 4.7c.6-.5 1.2-.9 1.9-1.2C9.9 2.6 10.9 2 12 2s2.1.6 2.6 1.5c2.6 1.1 4.4 3.7 4.4 6.7V12c0 1.1.4 2.1 1 3 .5.7.6 1.6.3 2.5l-2.7-2.7c-.4-.9-.6-1.8-.6-2.8v-1.7c0-2.8-2.2-5.2-4.8-5.2C12.1 5 12 5 12 5c-1.1 0-2.2.4-3.1 1.1L7.5 4.7zm12 14.8c.4.4.4 1 0 1.4-.2.2-.5.3-.7.3-.2 0-.5-.1-.7-.3L16.2 19H6c-1 0-1.8-.5-2.2-1.4-.5-.8-.4-1.8.2-2.6.6-.9 1-1.9 1-3v-2c0-.7.1-1.3.3-1.9L3.1 5.9c-.4-.4-.4-1 0-1.4.4-.4 1-.4 1.4 0l3.1 3.1L17 17l1.8 1.8.7.7zM14.2 17L7 9.8V12c0 1.5-.5 3-1.4 4.2-.2.2-.1.4 0 .5 0 .1.1.3.4.3h8.2zm-.5 3h-3.5c-.4 0-.6.4-.4.8.4.7 1.2 1.2 2.2 1.2 1 0 1.7-.5 2.2-1.2.2-.4-.1-.8-.5-.8z"/></symbol><symbol viewBox="0 0 24 24" id="book" xmlns="http://www.w3.org/2000/svg"><path d="M20.81 4.26l-1.47-.66c-1.81-.8-3.88-.8-5.69 0L12 4.34l-1.66-.74c-1.81-.8-3.88-.8-5.69 0l-1.46.66C2.47 4.58 2 5.29 2 6.08v11.81c0 .68.34 1.31.91 1.68.57.37 1.28.43 1.9.15l.66-.29c1.29-.57 2.77-.57 4.06 0l1.66.74c.26.12.54.17.81.17s.55-.06.81-.17l1.66-.74c1.29-.57 2.77-.57 4.06 0l.66.29A1.997 1.997 0 0022 17.89V6.08c0-.79-.47-1.5-1.19-1.82zM7.5 17c-.97 0-1.94.2-2.84.6l-.66.29V6.08l1.47-.65c1.29-.57 2.77-.57 4.06 0l1.47.65v11.81l-.66-.29c-.9-.4-1.87-.6-2.84-.6zm12.5.89l-.66-.29c-1.81-.8-3.88-.8-5.69 0l-.65.29V6.08l1.47-.65c1.29-.57 2.77-.57 4.06 0l1.47.65v11.81z"/></symbol><symbol viewBox="0 0 24 24" id="book_fill" xmlns="http://www.w3.org/2000/svg"><path d="M19.04 3.66l2.36 1.05c.37.16.6.52.6.92v13.15c0 1.14-1.23 1.87-2.23 1.31l-.48-.26a5.512 5.512 0 00-5.5.09l-.04.02c-.33.2-.75-.04-.75-.43V4.84c0-.18.09-.34.24-.43l.74-.44a5.494 5.494 0 015.06-.31zM2 5.63v13.15c0 1.14 1.23 1.87 2.23 1.31l.47-.26c1.72-.95 3.81-.92 5.5.09l.04.02c.33.2.76-.04.76-.43V4.84c0-.18-.09-.34-.24-.43l-.74-.44a5.494 5.494 0 00-5.06-.31L2.59 4.71c-.36.16-.59.52-.59.92z"/></symbol><symbol viewBox="0 0 24 24" id="bottomnav_followfeed_active" xmlns="http://www.w3.org/2000/svg"><path d="M21 6h-1c-.3 0-.5.2-.5.5V16c0 .6-.4 1-1 1s-1-.4-1-1V4c0-.6-.4-1-1-1H4c-.6 0-1 .4-1 1v13c0 2.2 1.8 4 4 4h11c2.2 0 4-1.8 4-4V7c0-.6-.4-1-1-1zM9.5 18h-3c-.6 0-1-.4-1-1s.4-1 1-1h3c.6 0 1 .4 1 1s-.4 1-1 1zm3.5-4H6.5c-.6 0-1-.4-1-1s.4-1 1-1H13c.6 0 1 .4 1 1s-.4 1-1 1zm1-4.9c0 .5-.4.9-.9.9H6.4c-.5 0-.9-.4-.9-.9V6.4c0-.5.4-.9.9-.9h6.7c.5 0 .9.4.9.9v2.7z"/></symbol><symbol viewBox="0 0 24 24" id="bottomnav_followfeed_inactive" xmlns="http://www.w3.org/2000/svg"><path d="M20 6h-1.5V5c0-1.1-.9-2-2-2H5c-1.1 0-2 .9-2 2v12c0 2.2 1.8 4 4 4h10.5c2.5 0 4.5-2 4.5-4.5V8c0-1.1-.9-2-2-2zm0 10.5c0 1.4-1.1 2.5-2.5 2.5H7c-1.1 0-2-.9-2-2V5h11.5v11c0 .6.4 1 1 1s1-.4 1-1V8H20v8.5zM14.8 14c0 .4-.3.8-.8.8H7c-.4 0-.8-.3-.8-.8s.3-.8.8-.8h7c.4 0 .8.4.8.8zm-4 3c0 .4-.3.8-.8.8H7c-.4 0-.8-.3-.8-.8s.3-.8.8-.8h3c.4 0 .8.4.8.8zm2.7-10.8h-6c-.7 0-1.2.6-1.2 1.2v3c0 .7.6 1.2 1.2 1.2h6c.7 0 1.2-.6 1.2-1.2v-3c.1-.6-.5-1.2-1.2-1.2zm-.3 4H7.8V7.8h5.5v2.4h-.1z"/></symbol><symbol viewBox="0 0 24 24" id="bottomnav_home_active" xmlns="http://www.w3.org/2000/svg"><path d="M21.7 10.6L14 3.5c-1.1-1.1-2.9-1.1-4.1 0l-7.7 7.1C.6 12.1 1.7 15 4 15v3c0 1.7 1.3 3 3 3h10c1.7 0 3-1.3 3-3v-3c2.3 0 3.4-2.9 1.7-4.4zM12 16.5c-1.7 0-3-1.3-3-3s1.3-3 3-3 3 1.3 3 3c0 1.6-1.3 3-3 3z"/></symbol><symbol viewBox="0 0 24 24" id="bottomnav_home_inactive" xmlns="http://www.w3.org/2000/svg"><path d="M11.5 10C9.6 10 8 11.6 8 13.5S9.6 17 11.5 17s3.5-1.6 3.5-3.5-1.6-3.5-3.5-3.5zm0 5c-.8 0-1.5-.7-1.5-1.5s.7-1.5 1.5-1.5 1.5.7 1.5 1.5-.7 1.5-1.5 1.5zm9.1-5l-6.4-5.8c-1.5-1.4-3.9-1.4-5.4 0L2.4 10c-.9.8-1.2 2.1-.7 3.2.3.8 1 1.5 1.8 1.7V17c0 2.2 1.8 4 4 4h8c2.2 0 4-1.8 4-4v-2.1c.8-.3 1.5-.9 1.8-1.7.5-1.2.2-2.4-.7-3.2zm-1.1 2.4c-.1.1-.3.6-.8.6H18c-.3 0-.5.2-.5.5V17c0 1.1-.9 2-2 2h-8c-1.1 0-2-.9-2-2v-3.5c0-.3-.2-.5-.5-.5h-.6c-.6 0-.8-.4-.8-.6 0-.2-.2-.6.2-1l6.4-5.8c.8-.7 1.9-.7 2.7 0l6.4 5.8c.3.4.2.9.2 1z"/></symbol><symbol viewBox="0 0 24 24" id="bottomnav_mypage_active" xmlns="http://www.w3.org/2000/svg"><path d="M7.5 6.5C7.5 4 9.5 2 12 2s4.5 2 4.5 4.5-2 4.5-4.5 4.5-4.5-2-4.5-4.5zM19.2 21c1.1-.3 1.7-1.5 1.4-2.5-1-2.9-3.5-5.5-8.5-5.5s-7.6 2.6-8.5 5.5c-.4 1.1.3 2.2 1.4 2.5 4.5 1.3 9.5 1.3 14.2 0z"/></symbol><symbol viewBox="0 0 24 24" id="bottomnav_search_active" xmlns="http://www.w3.org/2000/svg"><path d="M19.8 17.7l-3.5-3.5c.7-1.1 1.2-2.5 1.2-4 0-4-3.3-7.2-7.2-7.2C6.4 3 3 6.3 3 10.2c0 3.9 3.3 7.2 7.2 7.2 1.5 0 2.8-.4 4-1.2l3.5 3.5c.3.3.7.4 1.1.4.4 0 .8-.1 1.1-.4.5-.5.5-1.4-.1-2zM5.5 10.2c0-2.6 2.1-4.8 4.8-4.8 2.7 0 4.7 2.2 4.7 4.8 0 2.6-2.1 4.8-4.8 4.8-2.7 0-4.7-2.1-4.7-4.8z"/></symbol><symbol viewBox="0 0 24 24" id="bottomnav_search_inactive" xmlns="http://www.w3.org/2000/svg"><path d="M19.5 18l-3.6-3.6c.9-1.2 1.4-2.6 1.4-4.2 0-3.9-3.1-7-7-7s-7 3.1-7 7 3.1 7 7 7c1.6 0 3-.5 4.2-1.4l3.6 3.6c.2.2.5.3.7.3.2 0 .5-.1.7-.3.3-.3.3-1 0-1.4zm-9.3-2.8c-2.8 0-5-2.2-5-5s2.2-5 5-5 5 2.2 5 5-2.2 5-5 5z"/></symbol><symbol viewBox="0 0 24 24" id="bottomnvav_mypage_inactive" xmlns="http://www.w3.org/2000/svg"><path d="M12 11c-2.5 0-4.5-2-4.5-4.5S9.5 2 12 2s4.5 2 4.5 4.5-2 4.5-4.5 4.5zm0-7c-1.4 0-2.5 1.1-2.5 2.5S10.6 9 12 9s2.5-1.1 2.5-2.5S13.4 4 12 4zm0 18.2c-2.1 0-4.2-.3-6.2-.8-.9-.2-1.6-.8-2-1.6-.4-.8-.4-1.7-.1-2.5.9-2 3.1-5.4 8.3-5.4 5.2 0 7.4 3.4 8.3 5.4.3.8.3 1.7-.1 2.5s-1.1 1.4-2 1.6c-2 .6-4.1.8-6.2.8zm0-8.2c-3.9 0-5.6 2.3-6.4 4.2-.1.3-.1.6 0 .8.1.3.4.5.7.5 3.8.9 7.8.9 11.5 0 .3-.1.5-.3.7-.5.1-.3.1-.6 0-.8-.9-1.9-2.6-4.2-6.5-4.2z"/></symbol><symbol viewBox="0 0 24 24" id="c" xmlns="http://www.w3.org/2000/svg"><path fill-rule="evenodd" clip-rule="evenodd" d="M19.29 20.7c.2.19.45.29.71.29.25 0 .51-.1.71-.29a.996.996 0 000-1.41L13.42 12l7.28-7.3a.996.996 0 10-1.41-1.41L12 10.58c-.78.78-.78 2.05 0 2.83l7.29 7.29zM3 20c0 .55.45 1 1 1s1-.45 1-1V4c0-.55-.45-1-1-1s-1 .45-1 1v16z"/></symbol><symbol viewBox="0 0 24 24" id="camera" xmlns="http://www.w3.org/2000/svg"><path fill-rule="evenodd" clip-rule="evenodd" d="M16.86 5.5H19c1.66 0 3 1.34 3 3v8.99c0 1.66-1.34 3-3 3H5c-1.66 0-3-1.34-3-3V8.5c0-1.66 1.34-3 3-3h2.16L8 4.34a2 2 0 011.62-.82h4.77c.64 0 1.23.3 1.61.81l.86 1.17zM7 12.99c0 2.76 2.24 5 5 5s5-2.24 5-5-2.24-5-5-5-5 2.24-5 5zm8 0a3 3 0 11-6 0 3 3 0 016 0z"/></symbol><symbol viewBox="0 0 24 24" id="caution" xmlns="http://www.w3.org/2000/svg"><path d="M21.85 17.96L13.73 3.91c-.77-1.33-2.69-1.33-3.46 0L2.15 17.96c-.77 1.33.19 3 1.73 3h16.23c1.54 0 2.5-1.66 1.74-3zM10.75 7.91a1.25 1.25 0 012.5 0v5.5a1.25 1.25 0 01-2.5 0v-5.5zm1.25 11a1.25 1.25 0 110-2.5 1.25 1.25 0 010 2.5z"/></symbol><symbol viewBox="0 0 24 24" id="check" xmlns="http://www.w3.org/2000/svg"><path d="M9.95 17.63c-.47 0-.94-.16-1.31-.49l-4.79-4.17a.998.998 0 01-.1-1.41c.36-.42 1-.46 1.41-.1l4.79 4.17 9.59-9.71c.39-.39 1.02-.4 1.42-.01.39.39.4 1.02.01 1.42l-9.59 9.71c-.4.39-.91.59-1.43.59z"/></symbol><symbol viewBox="0 0 24 24" id="check_bold" xmlns="http://www.w3.org/2000/svg"><path d="M9.93 18.66c-.56 0-1.12-.19-1.58-.57l-4.8-3.93c-.64-.52-.74-1.47-.21-2.11.53-.64 1.47-.73 2.11-.21l4.45 3.64 9.04-9.04a1.49 1.49 0 012.12 0c.58.59.59 1.54 0 2.12l-9.36 9.36c-.49.49-1.12.74-1.77.74z"/></symbol><symbol viewBox="0 0 24 24" id="check_circle" xmlns="http://www.w3.org/2000/svg"><path d="M12 2C6.49 2 2 6.49 2 12s4.49 10 10 10 10-4.49 10-10S17.51 2 12 2zm0 18c-4.41 0-8-3.59-8-8s3.59-8 8-8 8 3.59 8 8-3.59 8-8 8zm5.18-11.23c.41.37.43 1.01.06 1.41l-5.35 5.79c-.39.43-.93.65-1.47.65-.46 0-.92-.16-1.3-.48l-2.77-2.37a.999.999 0 111.3-1.52l2.77 2.37 5.35-5.79c.37-.41 1-.44 1.41-.06z"/></symbol><symbol viewBox="0 0 24 24" id="check_circle_fill" xmlns="http://www.w3.org/2000/svg"><path d="M12 2C6.49 2 2 6.49 2 12s4.49 10 10 10 10-4.49 10-10S17.51 2 12 2zm5.23 8.18l-5.35 5.79c-.39.43-.93.65-1.47.65-.46 0-.92-.16-1.3-.48l-2.77-2.37a.999.999 0 111.3-1.52l2.77 2.37 5.35-5.79a.997.997 0 011.41-.06c.41.37.44 1 .06 1.41z"/></symbol><symbol viewBox="0 0 24 24" id="chevron_down" xmlns="http://www.w3.org/2000/svg"><path d="M3.05 9.45c0-.26.1-.51.29-.71a.996.996 0 011.41 0l7.29 7.29 7.29-7.29a.996.996 0 111.41 1.41l-7.29 7.29c-.78.78-2.05.78-2.83 0l-7.29-7.29c-.18-.19-.28-.44-.28-.7z"/></symbol><symbol viewBox="0 0 24 24" id="chevron_down_bold" xmlns="http://www.w3.org/2000/svg"><path d="M2.55 9.45c0-.38.15-.77.44-1.06a1.49 1.49 0 012.12 0l6.94 6.94 6.94-6.94a1.49 1.49 0 012.12 0c.58.59.59 1.54 0 2.12l-7.29 7.29c-.97.97-2.56.97-3.54 0l-7.29-7.29c-.29-.29-.44-.67-.44-1.06z"/></symbol><symbol viewBox="0 0 24 24" id="chevron_left" xmlns="http://www.w3.org/2000/svg"><path d="M13.84 20.71l-7.29-7.29c-.78-.78-.78-2.05 0-2.83l7.29-7.29a.996.996 0 111.41 1.41L7.96 12l7.29 7.29c.39.39.39 1.02 0 1.41-.19.2-.45.3-.7.3-.25 0-.51-.1-.71-.29z"/></symbol><symbol viewBox="0 0 24 24" id="chevron_left_bold" xmlns="http://www.w3.org/2000/svg"><path d="M13.49 21.06L6.2 13.77c-.97-.97-.97-2.56 0-3.54l7.29-7.29a1.49 1.49 0 012.12 0c.59.59.59 1.54 0 2.12L8.67 12l6.94 6.94c.59.59.59 1.54 0 2.12-.29.29-.68.44-1.06.44s-.77-.15-1.06-.44z"/></symbol><symbol viewBox="0 0 24 24" id="chevron_right" xmlns="http://www.w3.org/2000/svg"><path d="M9.41 21c-.26 0-.51-.1-.71-.29a.996.996 0 010-1.41L16 12 8.71 4.71a.996.996 0 111.41-1.41l7.29 7.29c.78.78.78 2.05 0 2.83l-7.29 7.29c-.19.19-.45.29-.71.29z"/></symbol><symbol viewBox="0 0 24 24" id="chevron_right_bold" xmlns="http://www.w3.org/2000/svg"><path d="M9.41 21.5c-.38 0-.77-.15-1.06-.44a1.49 1.49 0 010-2.12L15.29 12 8.35 5.06a1.49 1.49 0 010-2.12c.59-.58 1.54-.59 2.12 0l7.29 7.29c.97.97.97 2.56 0 3.54l-7.29 7.29c-.29.29-.67.44-1.06.44z"/></symbol><symbol viewBox="0 0 24 24" id="chevron_up" xmlns="http://www.w3.org/2000/svg"><path d="M20.97 14.55c0 .26-.1.51-.29.71a.996.996 0 01-1.41 0l-7.29-7.29-7.29 7.29a.996.996 0 11-1.41-1.41l7.29-7.29c.78-.78 2.05-.78 2.83 0l7.29 7.29c.19.19.28.44.28.7z"/></symbol><symbol viewBox="0 0 24 24" id="chevron_up_bold" xmlns="http://www.w3.org/2000/svg"><path d="M21.47 14.55c0 .38-.15.77-.44 1.06-.59.59-1.54.59-2.12 0l-6.94-6.94-6.94 6.94c-.59.59-1.54.59-2.12 0-.58-.59-.59-1.54 0-2.12L10.2 6.2c.97-.97 2.56-.97 3.54 0l7.29 7.29c.3.29.44.67.44 1.06z"/></symbol><symbol viewBox="0 0 24 24" id="clock" xmlns="http://www.w3.org/2000/svg"><path d="M12 22C6.5 22 2 17.5 2 12S6.5 2 12 2s10 4.5 10 10-4.5 10-10 10zm0-18c-4.4 0-8 3.6-8 8s3.6 8 8 8 8-3.6 8-8-3.6-8-8-8zm6 8c0-.6-.4-1-1-1h-4V7c0-.6-.4-1-1-1s-1 .4-1 1v4c0 1.1.9 2 2 2h4c.6 0 1-.4 1-1z"/></symbol><symbol viewBox="0 0 24 24" id="clock_fill" xmlns="http://www.w3.org/2000/svg"><path d="M12 2C6.5 2 2 6.5 2 12s4.5 10 10 10 10-4.5 10-10S17.5 2 12 2zm5.5 11.2H13c-1.2 0-2.2-1-2.2-2.2V6.5c0-.7.6-1.2 1.2-1.2s1.2.6 1.2 1.2v4.2h4.2c.7 0 1.2.6 1.2 1.2s-.4 1.3-1.1 1.3z"/></symbol><symbol viewBox="0 0 24 24" id="cross" xmlns="http://www.w3.org/2000/svg"><path d="M18.36 16.95a.996.996 0 01-.71 1.7c-.26 0-.51-.1-.71-.29L12 13.41l-4.95 4.95c-.2.2-.45.29-.71.29-.26 0-.51-.1-.71-.29a.996.996 0 010-1.41L10.59 12 5.64 7.05a.996.996 0 111.41-1.41L12 10.59l4.95-4.95a.996.996 0 111.41 1.41L13.41 12l4.95 4.95z"/></symbol><symbol viewBox="0 0 24 24" id="cross_bold" xmlns="http://www.w3.org/2000/svg"><path d="M18.72 16.6c.59.59.59 1.54 0 2.12-.29.29-.68.44-1.06.44s-.77-.15-1.06-.44l-4.6-4.6-4.6 4.6c-.29.29-.68.44-1.06.44s-.77-.15-1.06-.44a1.49 1.49 0 010-2.12l4.6-4.6-4.6-4.6a1.49 1.49 0 010-2.12c.59-.58 1.54-.59 2.12 0l4.6 4.6 4.6-4.6a1.49 1.49 0 012.12 0c.58.59.59 1.54 0 2.12l-4.6 4.6 4.6 4.6z"/></symbol><symbol viewBox="0 0 24 24" id="cross_circle" xmlns="http://www.w3.org/2000/svg"><path d="M12 2C6.49 2 2 6.49 2 12s4.49 10 10 10 10-4.49 10-10S17.51 2 12 2zm0 18c-4.41 0-8-3.59-8-8s3.59-8 8-8 8 3.59 8 8-3.59 8-8 8zm3.8-10.39L13.41 12l2.39 2.39a.996.996 0 01-.71 1.7c-.26 0-.51-.1-.71-.29L12 13.41 9.61 15.8c-.2.2-.45.29-.71.29-.26 0-.51-.09-.7-.29a.996.996 0 010-1.41L10.59 12 8.2 9.61A.996.996 0 119.61 8.2L12 10.59l2.39-2.39a.996.996 0 111.41 1.41z"/></symbol><symbol viewBox="0 0 24 24" id="cross_circle_fill" xmlns="http://www.w3.org/2000/svg"><path d="M12 2C6.48 2 2 6.48 2 12s4.48 10 10 10 10-4.48 10-10S17.52 2 12 2zm2.83 14.24L12 13.41l-2.83 2.83a.996.996 0 11-1.41-1.41L10.59 12 7.76 9.17a.996.996 0 111.41-1.41L12 10.59l2.83-2.83a.996.996 0 111.41 1.41L13.41 12l2.83 2.83a.996.996 0 11-1.41 1.41z"/></symbol><symbol viewBox="0 0 24 24" id="editdelete" xmlns="http://www.w3.org/2000/svg"><path d="M19.34 5.59l-4.77-.03-.94-.94c-.45-.45-1.08-.71-1.72-.71H7.55C6.21 3.91 5.12 5 5.12 6.34v.51h-.47c-1.34 0-2.43 1.09-2.43 2.43v8.39c0 1.34 1.09 2.43 2.43 2.43h11.74c1.34 0 2.43-1.09 2.43-2.43v-.47h.52c1.34 0 2.43-1.09 2.43-2.43V8.02c.01-1.34-1.09-2.43-2.43-2.43zm-2.02 12.08c0 .51-.42.93-.93.93H4.65c-.51 0-.93-.42-.93-.93V9.28c0-.51.42-.93.93-.93h4.34c.25 0 .48.1.66.27l.94.94c.3.3.7.46 1.12.46h4.68c.51 0 .93.42.93.93v6.72zm2.96-2.91c0 .51-.42.93-.93.93h-.52v-4.74c0-1.34-1.09-2.43-2.43-2.43h-4.68c-.02 0-.05-.01-.07-.03l-.94-.94c-.46-.46-1.07-.71-1.72-.71H6.62v-.5c0-.52.42-.93.93-.93h4.35c.25 0 .49.1.66.27l.94.94c.3.3.7.47 1.13.47h4.7c.52 0 .93.42.93.93v6.74h.02z"/></symbol><symbol viewBox="0 0 24 24" id="editentry" xmlns="http://www.w3.org/2000/svg"><path fill-rule="evenodd" clip-rule="evenodd" d="M16.06 19.95c1.1 0 2-.9 2-2v-6.02l2-2v8.02c0 2.21-1.79 4-4 4H7.05c-2.21 0-4-1.79-4-4v-12c0-2.21 1.79-4 4-4h9c1 0 1.91.38 2.61.99l-.83.83-.58.58c-.33-.25-.74-.4-1.19-.4H7.05c-1.1 0-2 .9-2 2v12c0 1.1.9 2 2 2h9.01zm-8.01-13c-.55 0-1 .45-1 1s.45 1 1 1h4.6l2-2h-6.6zm0 4h3.75l-.28.99c-.1.34-.09.68 0 1.01H8.05c-.55 0-1-.45-1-1s.45-1 1-1zm7 6h-7c-.55 0-1-.45-1-1s.45-1 1-1h7c.55 0 1 .45 1 1s-.45 1-1 1zm-1.46-6.82l-.63 2.21a.4.4 0 00.38.51c.033 0 .06-.007.09-.015l.02-.005 2.21-.63 5.31-5.31-2.07-2.07-5.31 5.31zm7.96-7.39l1.51 1.51c.16.16.16.41-.01.56L22 5.86l-2.07-2.07 1.05-1.05c.16-.16.41-.16.57 0z"/></symbol><symbol viewBox="0 0 24 24" id="exclamationmark" xmlns="http://www.w3.org/2000/svg"><path d="M12 15.5c-.8 0-1.5-.7-1.5-1.5V5c0-.8.7-1.5 1.5-1.5s1.5.7 1.5 1.5v9c0 .8-.7 1.5-1.5 1.5zm0 2c-.8 0-1.5.7-1.5 1.5s.7 1.5 1.5 1.5 1.5-.7 1.5-1.5-.7-1.5-1.5-1.5z"/></symbol><symbol viewBox="0 0 24 24" id="exclamationmark_bold" xmlns="http://www.w3.org/2000/svg"><path d="M12 15.8c-1 0-1.8-.8-1.8-1.8V5c0-1 .8-1.8 1.8-1.8s1.8.8 1.8 1.8v9c0 1-.8 1.8-1.8 1.8zm0 1.7c-1 0-1.8.8-1.8 1.8S11 21 12 21s1.8-.8 1.8-1.8-.8-1.7-1.8-1.7z"/></symbol><symbol viewBox="0 0 24 24" id="exclamationmark_circle" xmlns="http://www.w3.org/2000/svg"><path d="M12 2C6.49 2 2 6.49 2 12s4.49 10 10 10 10-4.49 10-10S17.51 2 12 2zm0 18c-4.41 0-8-3.59-8-8s3.59-8 8-8 8 3.59 8 8-3.59 8-8 8zm1.25-12.5V13a1.25 1.25 0 01-2.5 0V7.5a1.25 1.25 0 012.5 0zm0 8.75a1.25 1.25 0 11-2.5 0 1.25 1.25 0 012.5 0z"/></symbol><symbol viewBox="0 0 24 24" id="exclamationmark_circle_fill" xmlns="http://www.w3.org/2000/svg"><path d="M12 2C6.48 2 2 6.48 2 12s4.48 10 10 10 10-4.48 10-10S17.52 2 12 2zm0 16a1.25 1.25 0 110-2.5 1.25 1.25 0 010 2.5zm1.25-5.5a1.25 1.25 0 01-2.5 0V7a1.25 1.25 0 012.5 0v5.5z"/></symbol><symbol viewBox="0 0 24 24" id="file" xmlns="http://www.w3.org/2000/svg"><path d="M18.8 7.4l-4.2-4.2c-.8-.8-1.8-1.2-2.8-1.2H8C5.8 2 4 3.8 4 6v12c0 2.2 1.8 4 4 4h8c2.2 0 4-1.8 4-4v-7.8c0-1-.4-2-1.2-2.8zm-5.3-2.5l3.6 3.6h-3.6V4.9zM18 18c0 1.1-.9 2-2 2H8c-1.1 0-2-.9-2-2V6c0-1.1.9-2 2-2h3.5v4.5c0 1.1.9 2 2 2H18V18z"/></symbol><symbol viewBox="0 0 24 24" id="file_add" xmlns="http://www.w3.org/2000/svg"><path d="M13.5 10.5H18V12h.5c.5 0 1 .1 1.5.2v-1.9c0-1.1-.4-2.1-1.2-2.8l-4.2-4.2c-.8-.9-1.8-1.3-2.8-1.3H8C5.8 2 4 3.8 4 6v12c0 2.2 1.8 4 4 4h5c-.4-.6-.7-1.3-.8-2H8c-1.1 0-2-.9-2-2V6c0-1.1.9-2 2-2h3.5v4.5c0 1.1.9 2 2 2zm0-5.6l3.6 3.6h-3.6V4.9zM23 18.5c0 .6-.4 1-1 1h-2.5V22c0 .6-.4 1-1 1s-1-.4-1-1v-2.5H15c-.6 0-1-.4-1-1s.4-1 1-1h2.5V15c0-.6.4-1 1-1s1 .4 1 1v2.5H22c.6 0 1 .4 1 1z"/></symbol><symbol viewBox="0 0 24 24" id="file_add_fill" xmlns="http://www.w3.org/2000/svg"><path d="M12 18.5c0-3.6 2.9-6.5 6.5-6.5.5 0 1 .1 1.5.2V9.8c0-.8-.3-1.6-.9-2.1l-4.8-4.8c-.6-.6-1.3-.9-2.1-.9H7C5.3 2 4 3.3 4 5v14c0 1.7 1.3 3 3 3h6c-.6-1-1-2.2-1-3.5zm0-13.3c0-.4.5-.7.9-.4l4.3 4.3c.3.3.1.9-.4.9H13c-.6 0-1-.4-1-1V5.2zm6.5 8.3c-2.8 0-5 2.2-5 5s2.2 5 5 5 5-2.2 5-5-2.2-5-5-5zm2.5 5.7h-1.8V21c0 .4-.3.8-.8.8s-.8-.3-.8-.8v-1.8H16c-.4 0-.8-.3-.8-.8s.3-.8.8-.8h1.8V16c0-.4.3-.8.8-.8s.8.3.8.8v1.8H21c.4 0 .8.3.8.8s-.4.6-.8.6z"/></symbol><symbol viewBox="0 0 24 24" id="file_circle" xmlns="http://www.w3.org/2000/svg"><path d="M12 2C6.5 2 2 6.5 2 12s4.5 10 10 10 10-4.5 10-10S17.5 2 12 2zm0 18c-4.4 0-8-3.6-8-8s3.6-8 8-8 8 3.6 8 8-3.6 8-8 8zm1.6-13.1c-.3-.3-.7-.4-1.1-.4H10c-.8 0-1.5.7-1.5 1.5v7c0 .8.7 1.5 1.5 1.5h5c.8 0 1.5-.7 1.5-1.5v-4.6c0-.4-.2-.8-.4-1.1l-2.5-2.4zm1.3 3.6H13c-.3 0-.5-.2-.5-.5V8.1c0-.2.3-.3.4-.2L15 10c.2.2.1.5-.1.5z"/></symbol><symbol viewBox="0 0 24 24" id="file_circle_fill" xmlns="http://www.w3.org/2000/svg"><path d="M15.3 9.9c.2.2.1.5-.2.5H13c-.3 0-.5-.2-.5-.5V7.8c0-.2.3-.4.5-.2l2.3 2.3zM22 12c0 5.5-4.5 10-10 10S2 17.5 2 12 6.5 2 12 2s10 4.5 10 10zm-5.1-1.7c0-.4-.2-.9-.5-1.2l-2.7-2.7c-.2-.2-.7-.4-1.1-.4H9.8c-1 0-1.7.7-1.7 1.6v7.7c0 .9.7 1.7 1.7 1.7h5.5c.9 0 1.7-.7 1.7-1.7v-5h-.1z"/></symbol><symbol viewBox="0 0 24 24" id="file_fill" xmlns="http://www.w3.org/2000/svg"><path d="M19.1 7.7l-4.8-4.8c-.6-.6-1.3-.9-2.1-.9H7C5.3 2 4 3.3 4 5v14c0 1.7 1.3 3 3 3h10c1.7 0 3-1.3 3-3V9.8c0-.8-.3-1.5-.9-2.1zM16.8 10H13c-.6 0-1-.4-1-1V5.2c0-.4.5-.7.9-.4l4.3 4.3c.3.4 0 .9-.4.9z"/></symbol><symbol viewBox="0 0 24 24" id="folder" xmlns="http://www.w3.org/2000/svg"><path d="M19 20H5c-1.7 0-3-1.3-3-3V7c0-1.7 1.3-3 3-3h5.2c.8 0 1.6.3 2.1.9L13.4 6H19c1.7 0 3 1.3 3 3v8c0 1.7-1.3 3-3 3zM5 6c-.6 0-1 .4-1 1v10c0 .6.4 1 1 1h14c.6 0 1-.4 1-1V9c0-.6-.4-1-1-1h-5.6c-.5 0-1-.2-1.4-.6l-1.1-1.1c-.2-.2-.5-.3-.7-.3H5z"/></symbol><symbol viewBox="0 0 24 24" id="folder_fill" xmlns="http://www.w3.org/2000/svg"><path d="M13.1 5.7L12 4.6c-.4-.4-.9-.6-1.4-.6H5C3.3 4 2 5.3 2 7v10c0 1.7 1.3 3 3 3h14c1.7 0 3-1.3 3-3V9c0-1.7-1.3-3-3-3h-5.2c-.2 0-.5-.1-.7-.3z"/></symbol><symbol viewBox="0 0 24 24" id="game" xmlns="http://www.w3.org/2000/svg"><path d="M16.2 12.1c0 .8-.6 1.4-1.4 1.4-.8 0-1.4-.6-1.4-1.4 0-.8.6-1.4 1.4-1.4.8 0 1.4.7 1.4 1.4zM17.6 8c-.8 0-1.4.6-1.4 1.4 0 .8.6 1.4 1.4 1.4.8 0 1.4-.7 1.4-1.4S18.4 8 17.6 8zm-7 1.6H8.9V7.9c0-.2-.2-.4-.4-.4h-.9c-.2 0-.4.2-.4.4v1.7H5.4c-.2 0-.4.2-.4.5v.9c0 .2.2.4.4.4h1.7v1.7c0 .2.2.4.4.4h.9c.2 0 .4-.2.4-.4v-1.7h1.7c.2 0 .4-.2.4-.4v-.9c.1-.3-.1-.5-.3-.5zm12.1 5.7c.1 1.5-.6 2.9-1.9 3.7-.6.4-1.4.6-2.1.6-.7 0-1.4-.2-2.1-.6L13 16.8c-.6-.4-1.4-.4-2.1 0L7.3 19c-1.3.8-2.9.8-4.1 0-1.3-.8-2-2.2-1.9-3.7l.5-7.8c.1-1.2.6-2.2 1.6-3 .9-.7 2.1-1 3.3-.7 3.5.8 7.2.8 10.7 0 1.1-.3 2.3 0 3.3.7.9.7 1.5 1.8 1.6 3l.4 7.8zm-2 .1l-.5-7.8c0-.6-.3-1.1-.8-1.5-.5-.4-1.1-.5-1.6-.4-3.8.9-7.8.9-11.6 0-.6-.1-1.2 0-1.6.4-.5.4-.8.9-.8 1.5l-.5 7.8c0 .8.3 1.4 1 1.8.6.4 1.4.4 2.1 0L10 15c.6-.4 1.3-.6 2.1-.6s1.4.2 2.1.6l3.6 2.2c.6.4 1.4.4 2.1 0 .5-.4.8-1.1.8-1.8z"/></symbol><symbol viewBox="0 0 24 24" id="game_fill" xmlns="http://www.w3.org/2000/svg"><path d="M22.2 7.5c-.1-2.5-2.5-4.2-4.9-3.7-3.5.8-7.2.8-10.7 0C4.3 3.3 1.9 5 1.8 7.5l-.6 9.7c-.1 2.4 2.5 4 4.5 2.7l4.7-2.8c1-.6 2.1-.6 3.1 0l4.7 2.8c2.1 1.2 4.7-.3 4.5-2.7l-.5-9.7zm-11 3.5c0 .3-.2.5-.5.5H9v1.8c0 .3-.2.5-.5.5h-1c-.3 0-.5-.2-.5-.5v-1.8H5.2c-.3 0-.5-.2-.5-.5v-1c0-.3.2-.5.5-.5H7V7.7c0-.3.2-.5.5-.5h1c.3 0 .5.3.5.5v1.8h1.8c.3 0 .5.2.5.5v1h-.1zm4.3 2.5c-.8 0-1.5-.7-1.5-1.5s.7-1.5 1.5-1.5 1.5.7 1.5 1.5-.7 1.5-1.5 1.5zm3-3c-.8 0-1.5-.7-1.5-1.5s.7-1.5 1.5-1.5S20 8.2 20 9s-.7 1.5-1.5 1.5z"/></symbol><symbol viewBox="0 0 24 24" id="graph_bar" xmlns="http://www.w3.org/2000/svg"><path fill-rule="evenodd" clip-rule="evenodd" d="M12 3c-1.1 0-2 .9-2 2v14c0 1.1.9 2 2 2s2-.9 2-2V5c0-1.1-.9-2-2-2zM5 13c-1.1 0-2 .9-2 2v4c0 1.1.9 2 2 2s2-.9 2-2v-4c0-1.1-.9-2-2-2zm12-2c0-1.1.9-2 2-2s2 .9 2 2v8c0 1.1-.9 2-2 2s-2-.9-2-2v-8z"/></symbol><symbol viewBox="0 0 24 24" id="heart" xmlns="http://www.w3.org/2000/svg"><path d="M12 22.06c-.92 0-1.85-.32-2.6-.97L7 19.03a21.32 21.32 0 01-4.59-5.55 7.81 7.81 0 01.62-8.7C4.18 3.3 5.97 2.5 7.87 2.58c1.62.08 3.12.85 4.13 2.1a5.73 5.73 0 014.14-2.12c1.87-.1 3.68.72 4.83 2.2 1.96 2.52 2.2 5.94.62 8.71-1.2 2.11-2.75 3.97-4.59 5.55l-2.4 2.06c-.75.65-1.68.98-2.6.98zM7.54 4.56c-1.16 0-2.22.51-2.94 1.44a5.812 5.812 0 00-.46 6.48c1.09 1.91 2.49 3.6 4.15 5.02l2.41 2.06c.75.65 1.85.65 2.6 0l2.41-2.06c1.67-1.43 3.06-3.12 4.15-5.02 1.18-2.06 1-4.61-.46-6.48a3.645 3.645 0 00-3.15-1.44c-1.24.07-2.32.71-2.97 1.77-.55.89-2 .89-2.55 0a3.674 3.674 0 00-2.97-1.77h-.22z"/></symbol><symbol viewBox="0 0 24 24" id="heart_fill" xmlns="http://www.w3.org/2000/svg"><path d="M10.05 20.33l-2.4-2.06c-1.75-1.5-3.23-3.29-4.37-5.29a6.844 6.844 0 01.53-7.6c2.03-2.6 6.03-2.38 7.76.43.2.32.66.32.85 0 1.73-2.81 5.73-3.03 7.76-.42 1.7 2.19 1.91 5.19.54 7.59-1.14 2-2.62 3.79-4.37 5.29l-2.4 2.06a3 3 0 01-3.9 0z"/></symbol><symbol viewBox="0 0 24 24" id="information" xmlns="http://www.w3.org/2000/svg"><path d="M12.01 22c5.51 0 10-4.49 10-10s-4.49-10-10-10-10 4.49-10 10 4.48 10 10 10zm0-18c4.41 0 8 3.59 8 8s-3.59 8-8 8-8-3.59-8-8 3.59-8 8-8zm-1.25 12.5V11a1.25 1.25 0 012.5 0v5.5a1.25 1.25 0 01-2.5 0zm0-8.75a1.25 1.25 0 112.5 0 1.25 1.25 0 01-2.5 0z"/></symbol><symbol viewBox="0 0 24 24" id="kantangame" xmlns="http://www.w3.org/2000/svg"><path fill-rule="evenodd" clip-rule="evenodd" d="M8.35 5.65h7.3C19.15 5.65 22 8.5 22 12c0 3.5-2.85 6.35-6.35 6.35h-7.3C4.85 18.35 2 15.5 2 12c0-3.5 2.85-6.35 6.35-6.35zm0 10.7h7.3c2.4 0 4.35-1.95 4.35-4.35 0-2.4-1.95-4.35-4.35-4.35h-7.3C5.95 7.65 4 9.6 4 12c0 2.4 1.95 4.35 4.35 4.35zm2.72-5.21H9.36V9.43c0-.24-.19-.43-.43-.43h-.86c-.24 0-.43.19-.43.43v1.71H5.93c-.24 0-.43.19-.43.43v.86c0 .24.19.43.43.43h1.71v1.71c0 .24.19.43.43.43h.86c.24 0 .43-.19.43-.43v-1.71h1.71c.24 0 .43-.19.43-.43v-.86c0-.24-.19-.43-.43-.43zm7.53-.26a1.38 1.38 0 11-2.76 0 1.38 1.38 0 012.76 0zm-2.75 2.74a1.38 1.38 0 11-2.76 0 1.38 1.38 0 012.76 0z"/></symbol><symbol viewBox="0 0 24 24" id="mail" xmlns="http://www.w3.org/2000/svg"><path d="M12 13.6c-.9 0-1.7-.3-2.5-.9l-3.2-2.5c-.4-.3-.5-1-.2-1.4.3-.4 1-.5 1.4-.2l3.2 2.5c.7.6 1.7.6 2.5 0l3.2-2.5c.4-.3 1.1-.3 1.4.2.3.4.3 1.1-.2 1.4l-3.2 2.5c-.7.6-1.5.9-2.4.9zM22 16V8c0-2.2-1.8-4-4-4H6C3.8 4 2 5.8 2 8v8c0 2.2 1.8 4 4 4h12c2.2 0 4-1.8 4-4zM18 6c1.1 0 2 .9 2 2v8c0 1.1-.9 2-2 2H6c-1.1 0-2-.9-2-2V8c0-1.1.9-2 2-2h12z"/></symbol><symbol viewBox="0 0 24 24" id="mail_circle" xmlns="http://www.w3.org/2000/svg"><path d="M12 22C6.5 22 2 17.5 2 12S6.5 2 12 2s10 4.5 10 10-4.5 10-10 10zm0-18c-4.4 0-8 3.6-8 8s3.6 8 8 8 8-3.6 8-8-3.6-8-8-8zm3.5 4h-7C7.7 8 7 8.7 7 9.5v5c0 .8.7 1.5 1.5 1.5h7c.8 0 1.5-.7 1.5-1.5v-5c0-.8-.7-1.5-1.5-1.5zm-.4 3l-1.8 1.4c-.4.3-.9.5-1.3.5-.5 0-1-.2-1.4-.5L8.9 11c-.3-.2-.3-.6-.1-.9.2-.3.6-.3.8-.1l1.8 1.4c.3.3.8.3 1.1 0l1.8-1.4c.3-.2.7-.2.9.1.3.3.2.7-.1.9z"/></symbol><symbol viewBox="0 0 24 24" id="mail_circle_fill" xmlns="http://www.w3.org/2000/svg"><path d="M12 2C6.5 2 2 6.5 2 12s4.5 10 10 10 10-4.5 10-10S17.5 2 12 2zm5 12.5c0 .8-.7 1.5-1.5 1.5h-7c-.8 0-1.5-.7-1.5-1.5v-5C7 8.7 7.7 8 8.5 8h7c.8 0 1.5.7 1.5 1.5v5zm-1.8-4.4c.2.3.2.7-.1.9l-1.8 1.4c-.4.3-.9.5-1.3.5-.5 0-1-.2-1.4-.5L8.9 11c-.3-.2-.3-.6-.1-.9.2-.3.6-.3.8-.1l1.8 1.4c.3.3.8.3 1.1 0l1.8-1.4c.3-.2.7-.2.9.1z"/></symbol><symbol viewBox="0 0 24 24" id="mail_fill" xmlns="http://www.w3.org/2000/svg"><path d="M19 4H5C3.3 4 2 5.3 2 7v10c0 1.7 1.3 3 3 3h14c1.7 0 3-1.3 3-3V7c0-1.7-1.3-3-3-3zm-.7 6l-3.6 2.8c-.8.6-1.7 1-2.7 1-1 0-1.9-.3-2.7-1L5.7 10c-.5-.4-.6-1.2-.2-1.8.4-.5 1.2-.6 1.8-.2l3.6 2.8c.7.6 1.6.6 2.3 0L16.7 8c.5-.4 1.3-.3 1.8.2.4.6.3 1.4-.2 1.8z"/></symbol><symbol viewBox="0 0 24 24" id="menu_hamburger" xmlns="http://www.w3.org/2000/svg"><path d="M19.5 13h-15c-.6 0-1-.4-1-1s.4-1 1-1h15c.6 0 1 .4 1 1s-.4 1-1 1zm1-7c0-.6-.4-1-1-1h-15c-.6 0-1 .4-1 1s.4 1 1 1h15c.6 0 1-.4 1-1zm0 12c0-.6-.4-1-1-1h-15c-.6 0-1 .4-1 1s.4 1 1 1h15c.6 0 1-.4 1-1z"/></symbol><symbol viewBox="0 0 24 24" id="menu_hamburger_bold" xmlns="http://www.w3.org/2000/svg"><path d="M19.5 13.5h-15c-.8 0-1.5-.7-1.5-1.5s.7-1.5 1.5-1.5h15c.8 0 1.5.7 1.5 1.5s-.7 1.5-1.5 1.5zM21 6c0-.8-.7-1.5-1.5-1.5h-15C3.7 4.5 3 5.2 3 6s.7 1.5 1.5 1.5h15c.8 0 1.5-.7 1.5-1.5zm0 12c0-.8-.7-1.5-1.5-1.5h-15c-.8 0-1.5.7-1.5 1.5s.7 1.5 1.5 1.5h15c.8 0 1.5-.7 1.5-1.5z"/></symbol><symbol viewBox="0 0 24 24" id="menu_horizotal" xmlns="http://www.w3.org/2000/svg"><path d="M18.01 14c1.1 0 2-.9 2-2s-.9-2-2-2-2 .9-2 2 .9 2 2 2zm-12 0c1.1 0 2-.9 2-2s-.9-2-2-2-2 .9-2 2 .9 2 2 2zm6 0c1.1 0 2-.9 2-2s-.9-2-2-2-2 .9-2 2 .9 2 2 2z"/></symbol><symbol viewBox="0 0 24 24" id="menu_vertical" xmlns="http://www.w3.org/2000/svg"><path d="M14.01 6c0-1.1-.9-2-2-2s-2 .9-2 2 .9 2 2 2 2-.9 2-2zm0 12c0-1.1-.9-2-2-2s-2 .9-2 2 .9 2 2 2 2-.9 2-2zm0-6c0-1.1-.9-2-2-2s-2 .9-2 2 .9 2 2 2 2-.9 2-2z"/></symbol><symbol viewBox="0 0 24 24" id="messagecomment" xmlns="http://www.w3.org/2000/svg"><path d="M15.15 21.53c-.29 0-.59-.09-.83-.28l-4.36-3.27H6c-2.21 0-4-1.79-4-4V8c0-2.21 1.79-4 4-4h12c2.21 0 4 1.79 4 4v5.97c0 2.21-1.79 4-4 4h-1.46v2.16c0 .53-.29 1.01-.77 1.25-.2.1-.41.15-.62.15zM6 6c-1.1 0-2 .9-2 2v5.97c0 1.1.9 2 2 2h4.62l3.93 2.95v-2.95H18c1.1 0 2-.9 2-2V8c0-1.1-.9-2-2-2H6z"/></symbol><symbol viewBox="0 0 24 24" id="messagecomment_fill" xmlns="http://www.w3.org/2000/svg"><path d="M19.01 4h-14c-1.66 0-3 1.34-3 3v8c0 1.66 1.34 3 3 3h5.66l4.53 3.4c.33.25.8.01.8-.4v-3h3.01c1.66 0 3-1.34 3-3V7c0-1.66-1.34-3-3-3z"/></symbol><symbol viewBox="0 0 24 24" id="movie" xmlns="http://www.w3.org/2000/svg"><path fill-rule="evenodd" clip-rule="evenodd" d="M17.54 10.38l2.74-2.87c.63-.65 1.73-.21 1.72.69v7.6c0 .9-1.1 1.34-1.72.69l-2.74-2.87v3.06c0 1.1-.9 2-2 2H4c-1.1 0-2-.9-2-2V7.33c0-1.1.9-2 2-2h11.54c1.1 0 2 .9 2 2v3.05zM5.77 12a3.999 3.999 0 108 0c0-2.21-1.79-4-4-4s-4 1.79-4 4zm6.5 0a2.5 2.5 0 11-5 0 2.5 2.5 0 015 0z"/></symbol><symbol viewBox="0 0 24 24" id="nice" xmlns="http://www.w3.org/2000/svg"><path fill-rule="evenodd" clip-rule="evenodd" d="M2 12C2 6.49 6.49 2 12 2s10 4.49 10 10-4.49 10-10 10S2 17.51 2 12zm2 0c0 4.41 3.59 8 8 8s8-3.59 8-8-3.59-8-8-8-8 3.59-8 8zm6.47-2.01a1.5 1.5 0 11-3 0 1.5 1.5 0 013 0zm4.54 1.5a1.5 1.5 0 100-3 1.5 1.5 0 000 3zM12 14.8c.8 0 1.55-.38 2.01-1.03.29-.4.85-.49 1.24-.21.41.29.5.86.21 1.26-.8 1.11-2.1 1.78-3.47 1.78s-2.67-.67-3.47-1.78a.908.908 0 01.21-1.26c.41-.29.97-.19 1.26.21.46.65 1.21 1.03 2.01 1.03z"/></symbol><symbol viewBox="0 0 24 24" id="nice_done" xmlns="http://www.w3.org/2000/svg"><path fill-rule="evenodd" clip-rule="evenodd" d="M11.98 20c-4.41 0-8-3.59-8-8s3.59-8 8-8 8 3.59 8 8c0 .3-.02.6-.05.9-.06.55.33 1.04.88 1.11.55.06 1.04-.33 1.11-.88.04-.37.06-.74.06-1.12 0-5.51-4.49-10-10-10s-10 4.49-10 10 4.49 10 10 10c.55 0 1-.45 1-1s-.45-1.01-1-1.01zm-2.99-8.86a1.5 1.5 0 100-3 1.5 1.5 0 000 3zm6.04 0a1.5 1.5 0 100-3 1.5 1.5 0 000 3zm-3.01 5.88c-1.86 0-3.72-1.22-4.57-2.56a.51.51 0 01.27-.76c.87-.27 2.59-.69 4.3-.69 1.69 0 3.4.42 4.28.69.32.1.46.48.27.76-.9 1.34-2.69 2.56-4.55 2.56zm9.187-.727a.996.996 0 111.41 1.41l-3.76 3.76a1.497 1.497 0 01-2.01.1l-2.18-1.78a1 1 0 01-.14-1.41 1 1 0 011.41-.14l1.83 1.5 3.44-3.44z"/></symbol><symbol viewBox="0 0 24 24" id="nodate" xmlns="http://www.w3.org/2000/svg"><path d="M20 13.75V5.99c0-2.21-1.79-4-4-4H8c-2.21 0-4 1.79-4 4v12c0 2.21 1.79 4 4 4h3.76c1.05 0 2.08-.43 2.83-1.17l4.24-4.24c.74-.75 1.17-1.78 1.17-2.83zm-6.5 1.74h3.59l-3.59 3.59v-3.59zm4.5-2h-4.5c-1.1 0-2 .9-2 2v4.5H8c-1.1 0-2-.9-2-2v-12c0-1.1.9-2 2-2h8c1.1 0 2 .9 2 2v7.5z"/></symbol><symbol viewBox="0 0 24 24" id="notification" xmlns="http://www.w3.org/2000/svg"><path fill-rule="evenodd" clip-rule="evenodd" d="M5.65 4c0-.55.45-1 1-1s1 .45 1 1v16c0 .55-.45 1-1 1s-1-.45-1-1V4zm5.45-.05l8.54 3.98c.77.36.77 1.45 0 1.8L11.1 13.7c-.12.06-.25.08-.38.09a.077.077 0 00-.02.005.058.058 0 01-.02.005.03.03 0 01-.015-.005.036.036 0 00-.015-.005.88.88 0 01-.33-.06l-.06-.03a.963.963 0 01-.25-.16c-.005-.005-.013-.01-.02-.015l-.02-.015a.877.877 0 01-.19-.27l-.015-.035a1.048 1.048 0 01-.085-.395V4.86a1.048 1.048 0 01.085-.395l.015-.035c.05-.1.11-.2.19-.28.01-.01.03-.02.04-.02.07-.07.16-.13.25-.17l.06-.03c.11-.04.22-.07.33-.07a.03.03 0 00.015-.005.036.036 0 01.015-.005c.005 0 .013.003.02.005a.064.064 0 00.02.005c.12.01.25.03.38.09z"/></symbol><symbol viewBox="0 0 24 24" id="officialgroupstampcard" xmlns="http://www.w3.org/2000/svg"><path d="M12 2C6.48 2 2 6.48 2 12s4.48 10 10 10 10-4.48 10-10S17.52 2 12 2zm6.65 8.87L16 13.29l.72 3.51c.19.92-.79 1.63-1.6 1.16L12 16.2l-3.12 1.77c-.81.46-1.79-.25-1.6-1.16L8 13.29l-2.65-2.42c-.69-.63-.32-1.78.61-1.88l3.56-.4L11 5.33c.39-.85 1.59-.85 1.98 0l1.48 3.26 3.56.4c.94.1 1.32 1.25.63 1.88z"/></symbol><symbol viewBox="0 0 24 24" id="officialgrouptopblogger" xmlns="http://www.w3.org/2000/svg"><path fill-rule="evenodd" clip-rule="evenodd" d="M5.7 8.27a6.3 6.3 0 016.3-6.3 6.3 6.3 0 016.3 6.3 6.3 6.3 0 01-6.3 6.3 6.3 6.3 0 01-6.3-6.3zm8.65.8l1.56-1.42c.41-.37.19-1.05-.35-1.11l-2.1-.24-.87-1.92c-.23-.5-.94-.5-1.17 0l-.87 1.92-2.1.24a.64.64 0 00-.36 1.11l1.55 1.41-.42 2.07c-.11.54.46.96.94.69L12 10.78l1.83 1.05c.47.27 1.05-.15.94-.69l-.42-2.07zm3.54 5.15a8.397 8.397 0 01-4.17 2.25l3.09 5.34c.19.32.67.26.76-.1l.61-2.26 2.27.6c.36.09.65-.29.47-.61l-3.03-5.22zM3.56 20.06l2.27-.61.61 2.27c.1.36.58.42.76.1l3.09-5.34a8.39 8.39 0 01-4.17-2.25L3.1 19.45c-.2.32.1.7.46.61z"/></symbol><symbol viewBox="0 0 24 24" id="officialstar" xmlns="http://www.w3.org/2000/svg"><path d="M11.9 21c-.3 0-.6-.1-.9-.2l-1.8-1-1.8 1c-.6.4-1.4.3-2-.1-.6-.4-.9-1.1-.7-1.8l.4-2-1.5-1.4c-.5-.5-.7-1.2-.5-1.9.2-.7.8-1.2 1.5-1.3l2.1-.3.9-1.9c.2-.7.9-1.1 1.6-1.1.7 0 1.4.4 1.7 1.1l.9 1.9 2 .2c.7.1 1.3.6 1.5 1.3.2.7 0 1.4-.5 1.9l-1.5 1.4.4 2c.1.7-.1 1.4-.7 1.8-.4.3-.7.4-1.1.4zm-2.7-3l2.5 1.4c.2.1.3 0 .4 0 .1 0 .2-.2.1-.3l-.6-2.9 2.2-2c.1-.1.1-.3.1-.3 0-.1-.1-.2-.3-.2l-2.9-.3-1.2-2.7c-.1-.2-.2-.2-.3-.2-.1 0-.2 0-.3.2l-1.2 2.7-2.9.3c-.2 0-.3.2-.3.2 0 .1 0 .2.1.3l2.2 2-.6 2.9c0 .2.1.3.1.3.1 0 .2.1.4 0L9.2 18zm8.7-5.1c.5-.5 1.2-.8 1.9-.8.6 0 1-.4 1-1s-.4-1-1-1c-1.2 0-2.4.5-3.3 1.4-.4.4-.4 1 0 1.4.2.2.5.3.7.3.2 0 .5-.1.7-.3zm-2.6-2.6c1.2-1.2 2.8-1.9 4.5-1.9.6 0 1-.4 1-1s-.4-1-1-1c-2.2 0-4.3.9-5.9 2.4-.4.4-.4 1 0 1.4.2.2.5.3.7.3.2 0 .5 0 .7-.2zm-2.6-2.6c1.9-1.9 4.4-2.9 7.1-2.9.6 0 1-.4 1-1s-.4-1-1-1c-3.2 0-6.2 1.2-8.5 3.5-.4.4-.4 1 0 1.4.2.2.5.3.7.3.2 0 .5-.1.7-.3z"/></symbol><symbol viewBox="0 0 24 24" id="officialstar_fill" xmlns="http://www.w3.org/2000/svg"><path d="M14.7 14.2l-2.5 2.3.7 3.3c.2.8-.7 1.4-1.4 1l-2.9-1.7-2.9 1.7c-.7.4-1.6-.2-1.4-1l.7-3.3-2.5-2.3c-.6-.6-.3-1.6.5-1.7l3.4-.4L7.8 9c.2-.6 1.2-.6 1.6.1l1.4 3.1 3.4.4c.8.1 1.1 1.1.5 1.6zm3.2-1.3c.5-.5 1.2-.8 1.9-.8.6 0 1-.4 1-1s-.4-1-1-1c-1.2 0-2.4.5-3.3 1.4-.4.4-.4 1 0 1.4.2.2.5.3.7.3.2 0 .5-.1.7-.3zm-2.6-2.6c1.2-1.2 2.8-1.9 4.5-1.9.6 0 1-.4 1-1s-.4-1-1-1c-2.2 0-4.3.9-5.9 2.4-.4.4-.4 1 0 1.4.2.2.5.3.7.3.2 0 .5 0 .7-.2zm-2.6-2.6c1.9-1.9 4.4-2.9 7.1-2.9.6 0 1-.4 1-1s-.4-1-1-1c-3.2 0-6.2 1.2-8.5 3.5-.4.4-.4 1 0 1.4.2.2.5.3.7.3.2 0 .5-.1.7-.3z"/></symbol><symbol viewBox="0 0 24 24" id="pause" xmlns="http://www.w3.org/2000/svg"><path fill-rule="evenodd" clip-rule="evenodd" d="M5.08 5.45C5.08 4.1 6.18 3 7.53 3c1.36 0 2.46 1.1 2.45 2.45v13.09c0 1.35-1.09 2.45-2.45 2.45-1.35 0-2.45-1.09-2.45-2.45V5.45zm8.94 0C14.02 4.1 15.11 3 16.47 3c1.35 0 2.45 1.1 2.45 2.45v13.09c0 1.35-1.1 2.45-2.45 2.45s-2.45-1.09-2.45-2.45V5.45z"/></symbol><symbol viewBox="0 0 24 24" id="pencil" xmlns="http://www.w3.org/2000/svg"><path d="M19.2 7.5l-2.9-2.9c-.2-.2-.2-.5 0-.6l1.2-1.2c.4-.4.9-.4 1.3 0L21 5c.4.4.4.9 0 1.3l-1.2 1.2c-.1.1-.4.1-.6 0zM14.3 6l-9.2 9.2-1 3.6c-.2.7.3 1.2 1 1l3.6-1 9.2-9.2c.1-.3.1-.5-.1-.7L14.9 6c-.2-.2-.5-.2-.6 0z"/></symbol><symbol viewBox="0 0 24 24" id="pencil_bold" xmlns="http://www.w3.org/2000/svg"><path d="M19.6 9.2l-4.9-4.9c-.2-.2-.2-.5 0-.7l1.8-1.8c.4-.4 1-.4 1.4 0L22.1 6c.4.4.4 1 0 1.4l-1.8 1.8c-.2.2-.5.2-.7 0zm-7-3.5l-8.1 8.1L3 19.7c-.2.7.5 1.4 1.2 1.2l5.8-1.4 8.1-8.1c.2-.2.2-.5 0-.7l-4.9-4.9c-.1-.3-.5-.3-.6-.1z"/></symbol><symbol viewBox="0 0 24 24" id="play" xmlns="http://www.w3.org/2000/svg"><path fill-rule="evenodd" clip-rule="evenodd" d="M20.54 11.15L7.71 3.17c-.66-.41-1.53.07-1.53.85v15.96c0 .78.86 1.26 1.53.85l12.82-7.98c.63-.39.63-1.31.01-1.7z"/></symbol><symbol viewBox="0 0 24 24" id="plus" xmlns="http://www.w3.org/2000/svg"><path d="M20.5 12c0 .6-.4 1-1 1H13v6.5c0 .6-.4 1-1 1s-1-.4-1-1V13H4.5c-.6 0-1-.4-1-1s.4-1 1-1H11V4.5c0-.6.4-1 1-1s1 .4 1 1V11h6.5c.6 0 1 .4 1 1z"/></symbol><symbol viewBox="0 0 24 24" id="plus_bold" xmlns="http://www.w3.org/2000/svg"><path d="M21 12c0 .8-.7 1.5-1.5 1.5h-6v6c0 .8-.7 1.5-1.5 1.5s-1.5-.7-1.5-1.5v-6h-6c-.8 0-1.5-.7-1.5-1.5s.7-1.5 1.5-1.5h6v-6c0-.8.7-1.5 1.5-1.5s1.5.7 1.5 1.5v6h6c.8 0 1.5.7 1.5 1.5z"/></symbol><symbol viewBox="0 0 24 24" id="plus_circle" xmlns="http://www.w3.org/2000/svg"><path d="M12 2C6.5 2 2 6.5 2 12s4.5 10 10 10 10-4.5 10-10S17.5 2 12 2zm0 18c-4.4 0-8-3.6-8-8s3.6-8 8-8 8 3.6 8 8-3.6 8-8 8zm5.4-8c0 .6-.4 1-1 1H13v3.4c0 .6-.4 1-1 1s-1-.4-1-1V13H7.6c-.6 0-1-.4-1-1s.4-1 1-1H11V7.6c0-.6.4-1 1-1s1 .4 1 1V11h3.4c.5 0 1 .4 1 1z"/></symbol><symbol viewBox="0 0 24 24" id="plus_circle_fill" xmlns="http://www.w3.org/2000/svg"><path d="M12 2C6.5 2 2 6.5 2 12s4.5 10 10 10 10-4.5 10-10S17.5 2 12 2zm5 11h-4v4c0 .6-.4 1-1 1s-1-.4-1-1v-4H7c-.6 0-1-.4-1-1s.4-1 1-1h4V7c0-.6.4-1 1-1s1 .4 1 1v4h4c.6 0 1 .4 1 1s-.4 1-1 1z"/></symbol><symbol viewBox="0 0 24 24" id="ranking_down" xmlns="http://www.w3.org/2000/svg"><path fill-rule="evenodd" clip-rule="evenodd" d="M17.07 10.78l-2.08 2.08-7.2-7.2a1.49 1.49 0 00-2.12 0c-.58.59-.59 1.54 0 2.12l7.2 7.2-2.08 2.08c-.63.63-.18 1.71.71 1.71h6.29c.55 0 1-.45 1-1v-6.29c-.01-.88-1.09-1.33-1.72-.7z"/></symbol><symbol viewBox="0 0 24 24" id="ranking_stay" xmlns="http://www.w3.org/2000/svg"><path fill-rule="evenodd" clip-rule="evenodd" d="M20.78 11.29l-4.45-4.45c-.63-.63-1.71-.18-1.71.71v2.95H4.44c-.83 0-1.5.67-1.5 1.5s.67 1.5 1.5 1.5h10.18v2.95c0 .89 1.08 1.34 1.71.71l4.45-4.45c.39-.39.39-1.03 0-1.42z"/></symbol><symbol viewBox="0 0 24 24" id="ranking_up" xmlns="http://www.w3.org/2000/svg"><path fill-rule="evenodd" clip-rule="evenodd" d="M17.78 5.22h-6.29c-.89 0-1.34 1.08-.71 1.71l2.08 2.08-7.2 7.2a1.49 1.49 0 000 2.12c.59.58 1.54.59 2.12 0l7.2-7.2 2.08 2.08c.63.63 1.71.18 1.71-.71V6.22c.01-.55-.44-1-.99-1z"/></symbol><symbol viewBox="0 0 24 24" id="reply" xmlns="http://www.w3.org/2000/svg"><path d="M12.05 8.03h-.04v-3c0-.83-.96-1.3-1.62-.79L3.68 9.49c-.51.4-.51 1.18 0 1.58l6.72 5.24c.66.51 1.62.04 1.62-.79v-2.99h.04c3.31 0 6 2.69 6 6 0 .49-.06.97-.18 1.42-.07.26.08.54.34.61.25.07.46-.04.58-.23a7.971 7.971 0 001.26-4.3c-.01-4.42-3.6-8-8.01-8z"/></symbol><symbol viewBox="0 0 24 24" id="reply_circle_fill" xmlns="http://www.w3.org/2000/svg"><path d="M12 2C6.48 2 2 6.48 2 12s4.48 10 10 10 10-4.48 10-10S17.52 2 12 2zm5.05 15.8c-.09.14-.25.23-.44.17-.2-.05-.3-.26-.25-.46a4.479 4.479 0 00-4.35-5.54h-.03v2.24c0 .62-.72.97-1.21.59l-5.02-3.92a.753.753 0 010-1.18l5.02-3.92a.751.751 0 011.21.59v2.24h.03c3.3 0 5.98 2.68 5.98 5.98 0 1.18-.35 2.28-.94 3.21z"/></symbol><symbol viewBox="0 0 24 24" id="sad" xmlns="http://www.w3.org/2000/svg"><path fill-rule="evenodd" clip-rule="evenodd" d="M2 12C2 6.49 6.49 2 12 2s10 4.49 10 10-4.49 10-10 10S2 17.51 2 12zm2 0c0 4.41 3.59 8 8 8s8-3.59 8-8-3.59-8-8-8-8 3.59-8 8zm4.607 3.893c.121-.124 1.481-1.513 3.393-1.513 1.96 0 3.34 1.46 3.39 1.53a.9.9 0 01-.04 1.27c-.17.16-.39.24-.61.24-.24 0-.48-.1-.66-.29 0 0-.91-.94-2.08-.94-1.156 0-2.058.918-2.09.95-.34.35-.91.37-1.27.03a.9.9 0 01-.04-1.27l.007-.007zm2.303-4.483c0-.32-.17-.62-.45-.78L8.1 9.26a.9.9 0 10-.9 1.56l1.01.58-1.01.59a.9.9 0 00.9 1.56l2.36-1.37c.28-.16.45-.45.45-.77zm4.88-.01l1.01.59a.9.9 0 01-.9 1.56l-2.36-1.37a.899.899 0 010-1.56l2.36-1.36a.9.9 0 11.9 1.56l-1.01.58z"/></symbol><symbol viewBox="0 0 24 24" id="setting" xmlns="http://www.w3.org/2000/svg"><path fill-rule="evenodd" clip-rule="evenodd" d="M21.17 10.28l-1.96-.31c-.16-.58-.39-1.13-.68-1.65l1.17-1.6c.29-.4.25-.95-.1-1.3L18.57 4.4c-.35-.35-.9-.39-1.3-.1l-1.6 1.17a7.37 7.37 0 00-1.64-.68l-.31-1.96a1 1 0 00-.99-.84h-1.46c-.49 0-.91.36-.99.84l-.31 1.96c-.57.16-1.13.39-1.64.68L6.73 4.3c-.4-.29-.95-.25-1.3.1L4.4 5.43c-.35.35-.39.9-.1 1.3l1.17 1.6a7.37 7.37 0 00-.68 1.64l-1.96.31a1 1 0 00-.84.99v1.46c0 .49.36.91.84.99l1.96.31c.16.58.39 1.13.68 1.64l-1.17 1.6c-.29.4-.25.95.1 1.3l1.03 1.03c.35.35.9.39 1.3.1l1.6-1.17c.51.29 1.07.52 1.64.68l.31 1.96a1 1 0 00.99.84h1.46c.49 0 .91-.36.99-.84l.31-1.96a7.18 7.18 0 001.64-.68l1.6 1.17c.4.29.95.25 1.3-.1l1.03-1.03c.35-.35.39-.9.1-1.3l-1.17-1.6c.29-.51.52-1.07.68-1.65l1.96-.31a1 1 0 00.84-.99v-1.46c.01-.48-.35-.9-.84-.98zM12 16.5c-2.48 0-4.5-2.02-4.5-4.5S9.52 7.5 12 7.5s4.5 2.02 4.5 4.5-2.02 4.5-4.5 4.5z"/></symbol><symbol viewBox="0 0 24 24" id="snsconnect" xmlns="http://www.w3.org/2000/svg"><path fill-rule="evenodd" clip-rule="evenodd" d="M11 5.81L8.63 8.18c-.39.4-1.03.39-1.42 0a.996.996 0 010-1.41l4.09-4.08a.996.996 0 011.41 0l4.08 4.08c.39.39.39 1.02 0 1.41-.2.19-.45.29-.71.29-.26 0-.51-.09-.71-.29L13 5.81v8.09c0 .55-.45 1-1 1s-1-.45-1-1V5.81zm8.02 6.17c0-.55.45-1 1-1s1 .44 1 1v6.01c0 1.65-1.34 3-3 3H5.99c-1.66 0-3.01-1.34-3.01-3v-6.01c0-.55.45-1 1-1s1 .45 1 1v6.01c0 .55.46 1 1.01 1h12.03c.55 0 1-.45 1-1v-6.01z"/></symbol><symbol viewBox="0 0 24 24" id="star" xmlns="http://www.w3.org/2000/svg"><path d="M7.9 20.3c-.5 0-1.1-.2-1.6-.5-.9-.6-1.2-1.6-1-2.7L6 14l-2.4-2.2c-.8-.7-1.1-1.8-.8-2.8.3-1 1.2-1.7 2.3-1.8l3.2-.4 1.3-2.9c.4-1 1.4-1.6 2.4-1.6s2 .6 2.4 1.6l1.3 2.9 3.3.4c1 .1 1.9.8 2.2 1.8.3 1 0 2.1-.7 2.8L18.1 14l.6 3.2c.2 1-.2 2.1-1 2.7-.9.6-1.9.7-2.9.2L12 18.4 9.2 20c-.4.2-.8.3-1.3.3zm4.1-16c-.1 0-.4 0-.6.4l-1.8 4-4.3.5c-.4 0-.5.3-.5.4 0 .1-.1.4.2.7l3.2 2.9-.9 4.3c-.1.4.2.6.3.7.1.1.4.2.7 0l3.8-2.2 3.8 2.2c.3.2.6 0 .7 0 .1-.1.3-.3.3-.7l-.9-4.3 3.2-2.9c.3-.3.2-.6.2-.7 0-.1-.2-.4-.5-.4l-4.3-.5-1.8-4c-.3-.3-.6-.4-.8-.4z"/></symbol><symbol viewBox="0 0 24 24" id="star_fill" xmlns="http://www.w3.org/2000/svg"><path d="M18.1 14l4-3.7c1-1 .5-2.7-.9-2.9l-5.4-.6-2.2-4.9c-.6-1.3-2.4-1.3-3 0L8.3 6.8l-5.4.6c-1.4.2-2 1.9-.9 2.9L6 14l-1.1 5.3c-.3 1.4 1.2 2.5 2.4 1.8l4.7-2.7 4.7 2.7c1.2.7 2.7-.4 2.4-1.8l-1-5.3z"/></symbol><symbol viewBox="0 0 24 24" id="stop" xmlns="http://www.w3.org/2000/svg"><path fill-rule="evenodd" clip-rule="evenodd" d="M19 21H5c-1.1 0-2-.9-2-2V5c0-1.1.9-2 2-2h14c1.1 0 2 .9 2 2v14c0 1.1-.9 2-2 2z"/></symbol><symbol viewBox="0 0 24 24" id="triangleend_right" xmlns="http://www.w3.org/2000/svg"><path fill-rule="evenodd" clip-rule="evenodd" d="M19 20c0 .55.45 1 1 1s1-.45 1-1V4c0-.55-.45-1-1-1s-1 .45-1 1v16zm-15.71.7c.2.19.45.29.71.29.26 0 .51-.1.71-.29l7.28-7.28c.78-.78.78-2.05 0-2.83L4.7 3.3a.996.996 0 10-1.41 1.41L10.58 12l-7.29 7.29a.996.996 0 000 1.41z"/></symbol></svg>