<svg width="24" height="24" viewBox="0 0 24 24" xmlns="http://www.w3.org/2000/svg" fill="currentColor"><path d="M7.9 20.3c-.5 0-1.1-.2-1.6-.5-.9-.6-1.2-1.6-1-2.7L6 14l-2.4-2.2c-.8-.7-1.1-1.8-.8-2.8.3-1 1.2-1.7 2.3-1.8l3.2-.4 1.3-2.9c.4-1 1.4-1.6 2.4-1.6s2 .6 2.4 1.6l1.3 2.9 3.3.4c1 .1 1.9.8 2.2 1.8.3 1 0 2.1-.7 2.8L18.1 14l.6 3.2c.2 1-.2 2.1-1 2.7-.9.6-1.9.7-2.9.2L12 18.4 9.2 20c-.4.2-.8.3-1.3.3zm4.1-16c-.1 0-.4 0-.6.4l-1.8 4-4.3.5c-.4 0-.5.3-.5.4 0 .1-.1.4.2.7l3.2 2.9-.9 4.3c-.1.4.2.6.3.7.1.1.4.2.7 0l3.8-2.2 3.8 2.2c.3.2.6 0 .7 0 .1-.1.3-.3.3-.7l-.9-4.3 3.2-2.9c.3-.3.2-.6.2-.7 0-.1-.2-.4-.5-.4l-4.3-.5-1.8-4c-.3-.3-.6-.4-.8-.4z"/></svg>