<svg width="24" height="24" viewBox="0 0 24 24" fill="none" xmlns="http://www.w3.org/2000/svg">
<path d="M18.28 9.49992H16.64L16.29 10.2199L16.36 10.2499C16.55 10.3399 16.73 10.4699 16.91 10.6699C17.22 10.9999 17.38 11.4299 17.37 11.9399C17.36 12.5599 17.14 13.0699 16.71 13.4599C16.29 13.8399 15.76 14.0399 15.11 14.0399H15.1C14.55 14.0399 14.07 13.8799 13.67 13.5799L13.49 13.4399L14.06 12.3999L14.31 12.5999C14.57 12.7999 14.8 12.8799 15.16 12.8799C15.44 12.8799 15.66 12.7999 15.84 12.6199C16.02 12.4399 16.1 12.2399 16.1 11.9599C16.1 11.7599 16.01 11.5699 15.84 11.4399C15.62 11.2699 15.24 11.2299 15.23 11.2299C14.88 11.1899 14.61 11.1999 14.45 11.2199L15.44 9.08992L15.83 8.21992H18.86L18.28 9.49992ZM11.82 10.7199C12.01 10.8099 12.19 10.9399 12.37 11.1399C12.68 11.4699 12.84 11.8999 12.84 12.4099C12.83 13.0299 12.61 13.5399 12.18 13.9299C11.76 14.3099 11.23 14.4999 10.59 14.4999H10.56C10.01 14.4999 9.53 14.3399 9.13 14.0399L8.95 13.8999L9.52 12.8599L9.77 13.0599C10.03 13.2599 10.26 13.3399 10.62 13.3399C10.9 13.3399 11.12 13.2599 11.3 13.0799C11.48 12.8999 11.56 12.6999 11.56 12.4199C11.56 12.2199 11.47 12.0299 11.3 11.8999C11.08 11.7299 10.7 11.6899 10.69 11.6899C10.34 11.6499 10.07 11.6599 9.91 11.6799L10.9 9.54992L11.29 8.68992H14.32L13.75 9.96992H12.1L11.75 10.6899L11.82 10.7199ZM5.7 14.7199L7.78 10.4199H5.25L5.45 10.0099L5.84 9.13992H9.79L7.13 14.7099H5.7V14.7199ZM3 6.09992V17.2899L10.45 17.2799L10.38 19.0799L13.13 17.2799L21 17.2899V4.91992L3 6.09992Z" fill="black"/>
</svg>
