<svg width="24" height="24" viewBox="0 0 24 24" fill="none" xmlns="http://www.w3.org/2000/svg">
<path d="M17.44 10.6399C17.61 10.8099 17.69 11.0099 17.69 11.2499V15.3399C17.69 15.5799 17.61 15.7799 17.44 15.9499C17.27 16.1199 17.07 16.1999 16.83 16.1999H7.16C6.92 16.1999 6.72 16.1199 6.55 15.9499C6.38 15.7799 6.3 15.5799 6.3 15.3399V11.2499C6.3 11.0099 6.38 10.8099 6.55 10.6399C6.72 10.4699 6.92 10.3899 7.16 10.3899H16.83C17.07 10.3899 17.27 10.4699 17.44 10.6399ZM19.34 11.2499C19.34 10.9099 19.27 10.5799 19.14 10.2699C19.01 9.95988 18.83 9.69988 18.6 9.46988C18.37 9.24988 18.1 9.06988 17.8 8.92988C17.49 8.78988 17.17 8.72988 16.82 8.72988H7.16C6.82 8.72988 6.49 8.79988 6.19 8.92988C5.89 9.06988 5.62 9.24988 5.39 9.46988C5.16 9.68988 4.98 9.95988 4.85 10.2699C4.72 10.5799 4.65 10.8999 4.65 11.2499V15.3399C4.65 15.6799 4.71 16.0099 4.85 16.3099C4.98 16.6099 5.16 16.8799 5.39 17.1099C5.62 17.3399 5.89 17.5199 6.19 17.6499C6.49 17.7799 6.82 17.8499 7.16 17.8499H16.83C17.17 17.8499 17.5 17.7899 17.81 17.6499C18.12 17.5199 18.39 17.3399 18.61 17.1099C18.84 16.8799 19.02 16.6199 19.15 16.3099C19.28 16.0099 19.35 15.6799 19.35 15.3399V11.2499H19.34ZM16.83 7.08988C17.4 7.08988 17.94 7.19988 18.45 7.41988C18.95 7.63988 19.4 7.93988 19.78 8.30988C20.16 8.68988 20.46 9.12988 20.68 9.62988C20.9 10.1399 21.01 10.6699 21.01 11.2499V15.3399C21.01 15.9099 20.9 16.4499 20.68 16.9599C20.46 17.4599 20.16 17.9099 19.78 18.2799C19.4 18.6599 18.96 18.9499 18.45 19.1699C17.94 19.3899 17.41 19.4999 16.83 19.4999H7.16C6.59 19.4999 6.05 19.3899 5.54 19.1699C5.03 18.9499 4.59 18.6499 4.22 18.2799C3.84 17.8999 3.55 17.4599 3.33 16.9599C3.11 16.4599 3 15.9199 3 15.3399V11.2499C3 10.6799 3.11 10.1399 3.33 9.62988C3.55 9.12988 3.85 8.67988 4.22 8.30988C4.6 7.92988 5.03 7.63988 5.54 7.41988C6.04 7.19988 6.58 7.08988 7.16 7.08988H10.02L8.2 5.27988C8.05 5.11988 7.97 4.91988 7.97 4.69988C7.97 4.47988 8.05 4.27988 8.2 4.10988C8.37 3.94988 8.56 3.87988 8.79 3.87988C9.01 3.87988 9.21 3.95988 9.38 4.10988L11.99 6.71988L14.6 4.10988C14.76 3.94988 14.95 3.87988 15.18 3.87988C15.41 3.87988 15.6 3.95988 15.76 4.10988C15.92 4.27988 16 4.46988 16 4.69988C16 4.92988 15.92 5.11988 15.75 5.28988L13.95 7.09988H16.83V7.08988Z" fill="black"/>
</svg>
