<svg width="24" height="24" viewBox="0 0 24 24" fill="none" xmlns="http://www.w3.org/2000/svg">
<path d="M19.2399 16.9098C19.0599 16.4598 18.7199 16.2598 18.0999 15.8498C17.6299 15.5498 17.3099 15.1298 17.2499 14.2998C17.1799 13.2198 17.4099 12.5398 17.3599 10.9898C17.3199 9.78979 16.8899 8.88978 16.6199 8.35979C16.2999 7.73979 16.2499 7.29979 16.2199 6.57979C16.1999 5.91979 16.2299 4.45979 16.2199 3.99979C16.1999 3.53979 16.0199 3.23979 15.6999 3.09979C15.3199 2.91979 14.9099 2.97979 14.5699 3.34979C14.2599 3.68979 13.6899 4.29979 13.2899 4.65979C12.7799 5.12979 12.4499 5.22979 11.9999 5.22979C11.5499 5.22979 11.2199 5.12979 10.7099 4.65979C10.3099 4.29979 9.73989 3.68979 9.42989 3.34979C9.08989 2.97979 8.67989 2.91979 8.29989 3.09979C7.97989 3.23979 7.79989 3.53979 7.77989 3.99979C7.76989 4.45979 7.79989 5.91979 7.77989 6.56979C7.75989 7.28979 7.69989 7.72978 7.37989 8.35979C7.10989 8.88978 6.67989 9.78979 6.63989 10.9898C6.57989 12.5398 6.81989 13.2198 6.74989 14.2998C6.68989 15.1298 6.36989 15.5498 5.89989 15.8498C5.27989 16.2498 4.93989 16.4598 4.75989 16.9098C4.62989 17.2198 4.62989 17.6798 5.00989 17.8698C5.24989 17.9898 5.54989 17.9698 5.84989 17.8498C6.08989 17.7598 6.31989 17.6098 6.54989 17.6298C6.72989 17.6398 6.86989 17.7298 6.89989 18.0298C6.92989 18.3298 7.06989 18.4598 7.28989 18.4598C7.46989 18.4598 7.63989 18.3398 7.75989 18.0098C7.89989 17.6598 7.95989 17.3498 8.17989 17.3498C8.40989 17.3598 8.45989 17.5998 8.47989 17.9398C8.49989 18.4298 8.30989 18.8198 7.94989 19.1498C7.52989 19.5398 7.20989 19.9098 7.32989 20.3898C7.40989 20.7298 7.77989 20.9498 8.37989 20.9798C8.96989 21.0098 9.94989 21.0198 10.6299 20.9998C11.2599 20.9798 11.6299 20.7098 11.7099 20.3498C11.7999 19.9398 11.5599 19.7898 11.6199 19.4498C11.6499 19.2598 11.8299 19.1798 12.0199 19.1798C12.2099 19.1798 12.3899 19.2598 12.4199 19.4498C12.4799 19.7898 12.2399 19.9398 12.3299 20.3498C12.4099 20.7098 12.7699 20.9898 13.4099 20.9998C14.0899 21.0198 15.0699 21.0098 15.6599 20.9798C16.2499 20.9498 16.6199 20.7298 16.6999 20.3898C16.8099 19.9098 16.4999 19.5398 16.0799 19.1498C15.7099 18.8098 15.5199 18.4298 15.5499 17.9398C15.5699 17.5998 15.6199 17.3498 15.8499 17.3498C16.0599 17.3398 16.1299 17.6598 16.2699 18.0098C16.3999 18.3398 16.5699 18.4598 16.7399 18.4598C16.9599 18.4598 17.0999 18.3298 17.1299 18.0298C17.1599 17.7398 17.2999 17.6398 17.4799 17.6298C17.7099 17.6198 17.9399 17.7598 18.1799 17.8498C18.4899 17.9698 18.7799 17.9998 19.0199 17.8698C19.3699 17.6698 19.3699 17.2198 19.2399 16.9098ZM14.7599 8.29979C15.0299 8.29979 15.2499 8.51979 15.2499 8.78979C15.2499 9.05979 15.0299 9.27979 14.7599 9.27979C14.4899 9.27979 14.2699 9.05979 14.2699 8.78979C14.2599 8.51979 14.4799 8.29979 14.7599 8.29979ZM9.23989 8.29979C9.50989 8.29979 9.72989 8.51979 9.72989 8.78979C9.72989 9.05979 9.50989 9.27979 9.23989 9.27979C8.96989 9.27979 8.74989 9.05979 8.74989 8.78979C8.74989 8.51979 8.96989 8.29979 9.23989 8.29979ZM11.9999 18.5098C10.7399 18.5098 9.71989 17.4898 9.71989 16.2298C9.71989 14.9698 10.7399 13.9498 11.9999 13.9498C13.2599 13.9498 14.2799 14.9698 14.2799 16.2298C14.2799 17.4898 13.2599 18.5098 11.9999 18.5098ZM15.2599 12.2698C15.0499 12.6198 14.6399 12.9098 14.1599 12.9498C13.5199 13.0098 13.1299 12.7798 12.8699 12.4998C12.6299 12.2298 12.3699 11.9798 11.9999 11.9798C11.6299 11.9798 11.3699 12.2298 11.1299 12.4998C10.8799 12.7798 10.4799 13.0098 9.83989 12.9498C9.35989 12.9098 8.94989 12.6298 8.73989 12.2698C8.31989 11.5698 8.67989 10.6398 9.22989 10.1798C10.0199 9.49979 10.8499 9.23979 11.9999 9.23979C13.1499 9.23979 13.9699 9.49979 14.7699 10.1798C15.3199 10.6498 15.6699 11.5698 15.2599 12.2698ZM13.1399 10.3598C13.1399 10.8498 12.6399 11.2298 11.9999 11.2298C11.3599 11.2298 10.8599 10.8498 10.8599 10.3598C10.8599 9.86979 11.3599 9.48979 11.9999 9.48979C12.6399 9.48979 13.1399 9.86979 13.1399 10.3598Z" fill="black"/>
</svg>
