<svg width="24" height="24" viewBox="0 0 24 24" fill="none" xmlns="http://www.w3.org/2000/svg">
<path d="M17.4401 5.8002H16.5901V4.9502C16.5901 3.4302 15.3601 2.2002 13.8401 2.2002H6.56006C5.04006 2.2002 3.81006 3.4302 3.81006 4.9502V15.4502C3.81006 16.9702 5.04006 18.2002 6.56006 18.2002H7.41006V19.0502C7.41006 20.5702 8.64006 21.8002 10.1601 21.8002H13.7801C14.5101 21.8002 15.2001 21.5102 15.7201 20.9902L19.3801 17.3302C19.9001 16.8102 20.1901 16.1202 20.1901 15.3902V8.5502C20.1901 7.0402 18.9601 5.8002 17.4401 5.8002ZM7.41006 8.5502V16.7002H6.56006C5.87006 16.7002 5.31006 16.1402 5.31006 15.4502V4.9502C5.31006 4.2602 5.87006 3.7002 6.56006 3.7002H13.8401C14.5301 3.7002 15.0901 4.2602 15.0901 4.9502V5.8002H10.1701C8.65006 5.8002 7.41006 7.0402 7.41006 8.5502ZM8.91006 19.0502V8.5502C8.91006 7.8602 9.47006 7.3002 10.1601 7.3002H17.4401C18.1301 7.3002 18.6901 7.8602 18.6901 8.5502V15.0602H15.2001C14.2401 15.0602 13.4501 15.8502 13.4501 16.8102V20.3002H10.1601C9.47006 20.3002 8.91006 19.7402 8.91006 19.0502ZM14.9501 19.6402V16.8102C14.9501 16.6702 15.0601 16.5602 15.2001 16.5602H18.0301L14.9501 19.6402Z" fill="black"/>
</svg>
