<svg width="24" height="24" viewBox="0 0 24 24" fill="none" xmlns="http://www.w3.org/2000/svg">
<path d="M7.86997 2.47998C8.93997 2.47998 9.93997 2.89998 10.7 3.64998L14.86 7.80998C15.7 8.64998 16.13 9.76998 16.13 10.86C16.13 11.75 15.84 12.63 15.25 13.34C14.83 13.85 14.28 14.25 13.67 14.49C13.16 14.7 12.58 14.45 12.37 13.94C12.16 13.43 12.41 12.84 12.92 12.64C13.23 12.52 13.49 12.32 13.71 12.06C14.36 11.28 14.24 10.03 13.43 9.22998L9.27997 5.05998C8.89997 4.67998 8.39997 4.47998 7.86997 4.47998C7.33997 4.47998 6.82997 4.67998 6.44997 5.05998C5.68997 5.81998 5.68997 7.12998 6.44997 7.88998L7.70997 9.14998C8.09997 9.53998 8.09997 10.17 7.70997 10.56C7.31997 10.95 6.68997 10.95 6.29997 10.56L5.03997 9.29998C3.52997 7.78998 3.52997 5.14998 5.03997 3.63998C5.78997 2.88998 6.79997 2.47998 7.86997 2.47998ZM16.65 14.35L17.91 15.61C18.67 16.37 18.67 17.68 17.91 18.44C17.53 18.82 17.03 19.03 16.5 19.03C15.97 19.03 15.46 18.82 15.09 18.44L10.92 14.27C10.15 13.5 10.01 12.29 10.6 11.52C10.83 11.22 11.11 11 11.45 10.87C11.96 10.66 12.21 10.08 12 9.56998C11.79 9.05998 11.21 8.80998 10.7 9.01998C10.02 9.27998 9.43997 9.72998 8.99997 10.3C7.78997 11.88 8.00997 14.19 9.50997 15.69L13.67 19.85C14.42 20.61 15.43 21.02 16.5 21.02C17.57 21.02 18.57 20.6 19.33 19.85C20.09 19.09 20.5 18.09 20.5 17.02C20.5 15.95 20.08 14.95 19.33 14.19L18.07 12.93C17.68 12.54 17.05 12.54 16.66 12.93C16.27 13.32 16.26 13.96 16.65 14.35Z" fill="black"/>
</svg>
