<svg width="24" height="24" viewBox="0 0 24 24" fill="none" xmlns="http://www.w3.org/2000/svg">
<path d="M18.1901 5.78H9.41006C8.31006 5.78 7.41006 6.68 7.41006 7.78V19.75C7.41006 20.85 8.31006 21.75 9.41006 21.75H13.9401C14.5801 21.75 15.1801 21.5 15.6301 21.05L19.4901 17.19C19.9401 16.74 20.1901 16.13 20.1901 15.5V7.78C20.1901 6.67 19.3001 5.78 18.1901 5.78ZM17.9101 16.05L14.4801 19.48C14.2301 19.73 13.8001 19.55 13.8001 19.2V16.17C13.8001 15.73 14.1601 15.37 14.6001 15.37H17.6301C17.9901 15.36 18.1601 15.79 17.9101 16.05ZM7.61006 4.05H16.3901C16.4501 4.05 16.5101 4.06 16.5701 4.07C16.4801 3.05 15.6301 2.25 14.5901 2.25H5.81006C4.71006 2.25 3.81006 3.15 3.81006 4.25V16.22C3.81006 17.26 4.61006 18.11 5.63006 18.2C5.62006 18.14 5.61006 18.08 5.61006 18.02V6.05C5.61006 4.94 6.51006 4.05 7.61006 4.05Z" fill="black"/>
</svg>
