<svg width="24" height="24" viewBox="0 0 24 24" fill="none" xmlns="http://www.w3.org/2000/svg">
<path d="M11.2899 8.37668C10.5915 6.72885 8.84554 5.57715 6.80853 5.57715C4.77152 5.57715 3.00612 6.72885 2.32712 8.37668C2.01671 9.10314 1.99731 9.8296 1.99731 10.7864C1.99731 11.8141 1.99731 16.1906 1.99731 17.1296C1.99731 17.3245 1.99731 17.5194 2.05551 17.6612C2.21072 18.1042 2.67632 18.4231 3.20012 18.4231C3.74332 18.4231 4.20892 18.1042 4.36412 17.6612C4.42232 17.5194 4.42232 17.3245 4.42232 17.1296C4.42232 16.7576 4.42232 15.7476 4.42232 14.6136H9.19474C9.19474 15.7476 9.19474 16.7576 9.19474 17.1296C9.19474 17.3245 9.19474 17.5194 9.25294 17.6612C9.40814 18.1042 9.85434 18.4231 10.3975 18.4231C10.9407 18.4231 11.4063 18.1042 11.5615 17.6612C11.6003 17.5194 11.6197 17.3245 11.6197 17.1296C11.6197 16.1906 11.6197 11.8141 11.6197 10.7864C11.6197 9.8296 11.6003 9.10314 11.2899 8.37668ZM9.19474 12.3811H4.42232C4.42232 11.4951 4.42232 10.751 4.42232 10.4143C4.42232 9.86504 4.46112 9.43979 4.61632 9.12086C4.98493 8.35896 5.81913 7.80969 6.80853 7.80969C7.79794 7.80969 8.63214 8.35896 9.00074 9.12086C9.15594 9.43979 9.19474 9.86504 9.19474 10.4143C9.19474 10.751 9.19474 11.4951 9.19474 12.3811Z" fill="black"/>
<path d="M22.4642 10.5915C22.4642 9.98907 22.4448 9.56382 22.3284 9.1563C21.921 7.52619 20.5824 6.21502 18.7976 5.84293C18.3902 5.75433 17.8082 5.7189 16.8964 5.7189C16.392 5.7189 16.1204 5.7189 16.1204 5.7189C15.8488 5.7189 15.5966 5.7189 15.3832 5.73662C14.1222 5.89608 13.2492 6.6757 13.0552 7.79197C13.0358 7.98687 13.0358 8.16406 13.0358 8.37668C13.0358 8.46527 13.0358 15.535 13.0358 15.6236C13.0358 15.8362 13.0358 16.0311 13.0552 16.2083C13.2492 17.3423 14.1222 18.1219 15.3832 18.2636C15.5966 18.2991 15.8488 18.2991 16.1204 18.2991C16.1204 18.2991 16.392 18.2991 16.8964 18.2991C17.8082 18.2991 18.3902 18.2636 18.7976 18.175C20.5824 17.8029 21.921 16.4741 22.3284 14.8617C22.4448 14.4364 22.4642 14.0289 22.4642 13.4087C22.4642 12.8949 22.4642 11.1053 22.4642 10.5915ZM20.0392 13.6568C20.0198 13.9226 20.0198 14.1175 19.981 14.2947C19.8064 15.1274 19.1468 15.8185 18.2544 16.0134C18.1574 16.0311 17.8276 16.0665 16.8964 16.0665H15.4608V7.93372H16.8964C17.8276 7.93372 18.1574 7.98687 18.2544 8.00459C19.1468 8.19949 19.8064 8.8728 19.981 9.72329C20.0198 9.90047 20.0198 10.0954 20.0392 10.3612C20.0392 10.8573 20.0392 13.1607 20.0392 13.6568Z" fill="black"/>
</svg>
