<svg width="24" height="24" viewBox="0 0 24 24" fill="none" xmlns="http://www.w3.org/2000/svg">
<path d="M7.21997 18H13.48H16.97C18.63 18 19.97 16.66 19.97 15V5C19.97 3.34 18.63 2 16.97 2H6.96997C5.30997 2 3.96997 3.34 3.96997 5V19C3.96997 20.66 5.30997 22 6.96997 22H16.97C18.51 22 19.79 20.83 19.95 19.33C19.96 19.27 19.97 19.18 19.89 19.09C19.83 19.02 19.71 18.98 19.6 19.03C19.56 19.05 19.53 19.07 19.49 19.13C18.96 19.95 18.03 20.5 16.97 20.5H13.48H7.21997C6.52997 20.5 5.96997 19.94 5.96997 19.25C5.96997 18.56 6.52997 18 7.21997 18ZM12.72 5.36C13.87 5.36 14.81 6.3 14.81 7.45C14.81 8.6 13.87 9.54 12.72 9.54C11.57 9.54 10.63 8.6 10.63 7.45C10.63 6.3 11.57 5.36 12.72 5.36ZM8.76997 13C9.21997 11.67 10.37 10.46 12.72 10.46C15.07 10.46 16.22 11.67 16.67 13C16.84 13.5 16.54 14.03 16.04 14.18C13.87 14.79 11.57 14.79 9.39997 14.18C8.88997 14.04 8.59997 13.5 8.76997 13Z" fill="black"/>
</svg>
