<svg width="24" height="24" viewBox="0 0 24 24" fill="none" xmlns="http://www.w3.org/2000/svg">
<path d="M13.45 18.9849C13.45 18.6449 13.48 18.3149 13.54 17.9949H8.95996C8.39996 17.9949 7.91996 17.6849 7.65996 17.2349C7.54996 17.0349 7.57996 16.7849 7.73996 16.6249L9.74996 14.6149C10.14 14.2249 10.77 14.2249 11.16 14.6149L11.89 15.3449C12.09 15.5449 12.4 15.5449 12.6 15.3449L15.66 12.2849C16.05 11.8949 16.68 11.8949 17.07 12.2849L18.3 13.5149C18.51 13.4949 18.73 13.4749 18.94 13.4749C19.65 13.4749 20.32 13.6149 20.95 13.8549V10.4949C20.95 8.83488 19.61 7.49488 17.95 7.49488H8.95996C7.29996 7.49488 5.95996 8.83488 5.95996 10.4949V16.4949C5.95996 18.1549 7.29996 19.4949 8.95996 19.4949H13.47C13.46 19.3349 13.45 19.1649 13.45 18.9849ZM10.46 10.0049C11.29 10.0049 11.96 10.6749 11.96 11.5049C11.96 12.3349 11.29 13.0049 10.46 13.0049C9.62996 13.0049 8.95996 12.3349 8.95996 11.5049C8.95996 10.6749 9.62996 10.0049 10.46 10.0049ZM7.45996 6.00488C5.80996 6.00488 4.45996 7.35488 4.45996 9.00488V15.8249C3.29996 15.4149 2.45996 14.3149 2.45996 13.0049V7.00488C2.45996 5.34488 3.79996 4.00488 5.45996 4.00488H14.46C15.76 4.00488 16.86 4.84488 17.28 6.00488H7.45996ZM22.24 21.2349C21.21 20.3149 19.82 19.7049 18.26 19.5549V20.9849C18.26 21.1849 18.02 21.2949 17.87 21.1449L15.11 18.4849C15.02 18.3949 15.02 18.2449 15.11 18.1549L17.87 15.4949C18.02 15.3549 18.26 15.4549 18.26 15.6549V17.1749C20.37 17.4649 22.08 18.9949 22.62 21.0149C22.68 21.2349 22.41 21.3849 22.24 21.2349Z" fill="black"/>
</svg>
