<svg width="24" height="24" viewBox="0 0 24 24" fill="none" xmlns="http://www.w3.org/2000/svg">
<path d="M4.5 15.82C3.34 15.41 2.5 14.31 2.5 13V7C2.5 5.34 3.84 4 5.5 4H14.5C15.8 4 16.9 4.84 17.32 6H7.5C5.85 6 4.5 7.35 4.5 9V15.82ZM21 10.5V16.5C21 18.16 19.66 19.5 18 19.5H9C7.34 19.5 6 18.16 6 16.5V10.5C6 8.84 7.34 7.5 9 7.5H18C19.66 7.5 21 8.84 21 10.5ZM10.5 10C9.67 10 9 10.67 9 11.5C9 12.33 9.67 13 10.5 13C11.33 13 12 12.33 12 11.5C12 10.67 11.33 10 10.5 10ZM19.5 16.5V14.88C19.5 14.75 19.45 14.62 19.35 14.53L17.12 12.3C16.73 11.91 16.1 11.91 15.71 12.3L12.65 15.36C12.45 15.56 12.14 15.56 11.94 15.36L11.21 14.63C10.82 14.24 10.19 14.24 9.8 14.63L7.79 16.64C7.63 16.8 7.59 17.05 7.71 17.25C7.96 17.69 8.44 18 9 18H18C18.83 18 19.5 17.33 19.5 16.5Z" fill="black"/>
</svg>
