<svg width="24" height="24" viewBox="0 0 24 24" fill="none" xmlns="http://www.w3.org/2000/svg">
<path d="M3 5C3 4.45 3.45 4 4 4H20C20.55 4 21 4.45 21 5C21 5.55 20.55 6 20 6H4C3.45 6 3 5.55 3 5ZM4 10.67H15C15.55 10.67 16 10.22 16 9.67C16 9.12 15.55 8.67 15 8.67H4C3.45 8.67 3 9.12 3 9.67C3 10.22 3.45 10.67 4 10.67ZM20 13.33H4C3.45 13.33 3 13.78 3 14.33C3 14.88 3.45 15.33 4 15.33H20C20.55 15.33 21 14.88 21 14.33C21 13.78 20.55 13.33 20 13.33ZM15 18H4C3.45 18 3 18.45 3 19C3 19.55 3.45 20 4 20H15C15.55 20 16 19.55 16 19C16 18.45 15.55 18 15 18Z" fill="black"/>
</svg>
