<svg width="24" height="24" viewBox="0 0 24 24" fill="none" xmlns="http://www.w3.org/2000/svg">
<path d="M19.25 6H4.75C4.2 6 3.75 5.55 3.75 5C3.75 4.45 4.2 4 4.75 4H19.25C19.8 4 20.25 4.45 20.25 5C20.25 5.55 19.8 6 19.25 6ZM17.25 8.5C17.25 7.95 16.8 7.5 16.25 7.5H7.75C7.2 7.5 6.75 7.95 6.75 8.5C6.75 9.05 7.2 9.5 7.75 9.5H16.25C16.8 9.5 17.25 9.05 17.25 8.5ZM17.25 15.5C17.25 14.95 16.8 14.5 16.25 14.5H7.75C7.2 14.5 6.75 14.95 6.75 15.5C6.75 16.05 7.2 16.5 7.75 16.5H16.25C16.8 16.5 17.25 16.05 17.25 15.5ZM20.25 12C20.25 11.45 19.8 11 19.25 11H4.75C4.2 11 3.75 11.45 3.75 12C3.75 12.55 4.2 13 4.75 13H19.25C19.8 13 20.25 12.55 20.25 12ZM20.25 19C20.25 18.45 19.8 18 19.25 18H4.75C4.2 18 3.75 18.45 3.75 19C3.75 19.55 4.2 20 4.75 20H19.25C19.8 20 20.25 19.55 20.25 19Z" fill="black"/>
</svg>
