<svg width="24" height="24" viewBox="0 0 24 24" fill="none" xmlns="http://www.w3.org/2000/svg">
<path fill-rule="evenodd" clip-rule="evenodd" d="M10.5 5V8.5C10.5 9.6 9.6 10.5 8.5 10.5H5C3.9 10.5 3 9.6 3 8.5V5C3 3.9 3.9 3 5 3H8.5C9.6 3 10.5 3.9 10.5 5ZM19 3H15.5C14.4 3 13.5 3.9 13.5 5V8.5C13.5 9.6 14.4 10.5 15.5 10.5H19C20.1 10.5 21 9.6 21 8.5V5C21 3.9 20.1 3 19 3ZM8.5 13.5H5C3.9 13.5 3 14.4 3 15.5V19C3 20.1 3.9 21 5 21H8.5C9.6 21 10.5 20.1 10.5 19V15.5C10.5 14.4 9.6 13.5 8.5 13.5ZM19 13.5H15.5C14.4 13.5 13.5 14.4 13.5 15.5V19C13.5 20.1 14.4 21 15.5 21H19C20.1 21 21 20.1 21 19V15.5C21 14.4 20.1 13.5 19 13.5Z" fill="black"/>
</svg>
