<svg width="24" height="24" viewBox="0 0 24 24" fill="none" xmlns="http://www.w3.org/2000/svg">
<path d="M18.0004 20.001H6.00037C3.79037 20.001 2.00037 18.211 2.00037 16.001V8.00098C2.00037 5.79098 3.79037 4.00098 6.00037 4.00098H18.0004C20.2104 4.00098 22.0004 5.79098 22.0004 8.00098V16.001C22.0004 18.211 20.2104 20.001 18.0004 20.001ZM6.00037 6.00098C4.90037 6.00098 4.00037 6.90098 4.00037 8.00098V16.001C4.00037 17.101 4.90037 18.001 6.00037 18.001H18.0004C19.1004 18.001 20.0004 17.101 20.0004 16.001V8.00098C20.0004 6.90098 19.1004 6.00098 18.0004 6.00098H6.00037ZM7.85037 9.26098C6.60037 9.26098 5.81037 9.96098 5.60037 10.171C5.32037 10.451 5.32037 10.911 5.60037 11.191C5.82037 11.411 6.15037 11.461 6.45037 11.311C6.51037 11.281 6.58037 11.221 6.65037 11.161C6.69037 11.131 6.72037 11.101 6.76037 11.071C6.86037 10.981 7.23037 10.701 7.86037 10.701C8.38037 10.701 8.81037 10.951 8.91037 11.311C8.55037 11.491 7.93037 11.641 7.60037 11.721C7.05037 11.851 5.36037 12.241 5.36037 13.881C5.36037 15.091 6.48037 16.071 7.87037 16.071C9.26037 16.071 10.3704 15.091 10.3804 13.891C10.4004 13.101 10.4004 12.321 10.3804 11.461C10.3704 10.211 9.29037 9.27098 7.87037 9.27098L7.85037 9.26098ZM8.92037 12.841C8.92037 13.181 8.92037 13.521 8.92037 13.861C8.88037 14.231 8.46037 14.621 7.84037 14.621C7.26037 14.621 6.77037 14.281 6.77037 13.871C6.77037 13.701 6.77037 13.391 7.91037 13.111C8.28037 13.031 8.62037 12.941 8.92037 12.841ZM13.8604 14.671C13.7804 14.641 13.6704 14.641 13.5904 14.631C13.5504 14.631 13.5204 14.631 13.4904 14.631C13.2104 14.601 13.1004 14.451 13.1004 14.091V8.39098C13.1004 8.26098 13.1004 8.17098 13.0904 8.09098C13.0004 7.76098 12.7104 7.53098 12.3904 7.53098C12.0704 7.53098 11.7704 7.76098 11.6904 8.09098C11.6704 8.18098 11.6704 8.28098 11.6704 8.39098V13.891C11.6704 14.201 11.6804 14.441 11.7104 14.571C11.8604 15.451 12.4504 15.991 13.3604 16.071C13.4104 16.071 13.4804 16.071 13.5504 16.071C13.6704 16.071 13.8104 16.071 13.9004 16.031C14.1904 15.941 14.3904 15.661 14.3904 15.351C14.3904 15.041 14.1804 14.741 13.8904 14.671H13.8604ZM17.7604 14.651C17.7604 14.651 17.5204 14.621 17.4804 14.621C17.1404 14.571 17.0004 14.381 16.9904 14.001V11.061H17.7404C18.1304 11.061 18.4704 10.731 18.4704 10.341C18.4704 9.95098 18.1404 9.61098 17.7404 9.61098H16.9904V8.38098C16.9904 8.23098 16.9804 8.14098 16.9704 8.07098C16.8804 7.75098 16.5904 7.52098 16.2704 7.52098C15.9504 7.52098 15.6504 7.74098 15.5704 8.07098C15.5604 8.14098 15.5604 8.24098 15.5604 8.38098V9.61098H15.0904C14.6904 9.61098 14.3604 9.94098 14.3604 10.341C14.3604 10.741 14.6904 11.061 15.0904 11.061H15.5604V14.261C15.6504 15.341 16.3704 16.011 17.4704 16.071C17.5604 16.071 17.6804 16.071 17.7704 16.061C18.1104 16.001 18.3704 15.701 18.3704 15.351C18.3704 15.001 18.1304 14.711 17.7904 14.651H17.7604Z" fill="black"/>
</svg>
