<svg width="24" height="24" viewBox="0 0 24 24" fill="none" xmlns="http://www.w3.org/2000/svg">
<path d="M7.92037 13.161C8.27037 13.081 8.59037 13.001 8.87037 12.911C8.87037 13.231 8.87037 13.541 8.87037 13.861C8.84037 14.201 8.44037 14.571 7.84037 14.571C7.28037 14.571 6.82037 14.251 6.82037 13.871C6.82037 13.711 6.82037 13.421 7.92037 13.161ZM22.0004 8.00098V16.001C22.0004 18.211 20.2104 20.001 18.0004 20.001H6.00037C3.79037 20.001 2.00037 18.211 2.00037 16.001V8.00098C2.00037 5.79098 3.79037 4.00098 6.00037 4.00098H18.0004C20.2104 4.00098 22.0004 5.79098 22.0004 8.00098ZM10.4004 11.451C10.3904 10.171 9.29037 9.21098 7.84037 9.21098C6.57037 9.21098 5.77037 9.92098 5.55037 10.131C5.25037 10.431 5.25037 10.921 5.55037 11.221C5.78037 11.451 6.14037 11.501 6.46037 11.351C6.53037 11.311 6.60037 11.251 6.67037 11.191C6.71037 11.161 6.74037 11.131 6.78037 11.101C6.87037 11.021 7.23037 10.741 7.84037 10.741C8.32037 10.741 8.71037 10.951 8.83037 11.271C8.47037 11.441 7.89037 11.581 7.57037 11.661C6.06037 12.011 5.29037 12.751 5.29037 13.861C5.29037 15.101 6.44037 16.101 7.85037 16.101C9.26037 16.101 10.3904 15.101 10.4104 13.871C10.4304 13.071 10.4304 12.301 10.4104 11.431L10.4004 11.451ZM14.4104 15.351C14.4104 15.001 14.1904 14.701 13.8804 14.621C13.7904 14.591 13.6904 14.591 13.5904 14.581C13.5504 14.581 13.5204 14.581 13.4904 14.581C13.2804 14.551 13.1504 14.461 13.1504 14.091V8.39098C13.1504 8.26098 13.1504 8.16098 13.1404 8.08098C13.0504 7.73098 12.7404 7.49098 12.3904 7.49098C12.0404 7.49098 11.7304 7.74098 11.6404 8.09098C11.6204 8.18098 11.6204 8.28098 11.6204 8.40098V13.901C11.6204 14.081 11.6204 14.411 11.6604 14.591C11.8204 15.501 12.4204 16.041 13.3604 16.131C13.4204 16.131 13.4804 16.131 13.5504 16.131C13.6804 16.131 13.8204 16.121 13.9104 16.081C14.2204 15.991 14.4304 15.691 14.4304 15.351H14.4104ZM17.0404 14.001V11.111H17.7404C18.1604 11.111 18.5204 10.761 18.5204 10.341C18.5204 9.92098 18.1704 9.56098 17.7404 9.56098H17.0404V8.38098C17.0404 8.23098 17.0304 8.13098 17.0104 8.06098C16.9204 7.72098 16.6104 7.48098 16.2604 7.48098C15.9104 7.48098 15.6004 7.72098 15.5104 8.07098C15.5004 8.15098 15.5004 8.24098 15.5004 8.39098V9.57098H15.0804C14.6504 9.57098 14.3004 9.92098 14.3004 10.351C14.3004 10.781 14.6604 11.121 15.0804 11.121H15.5004V14.271C15.6004 15.371 16.3304 16.071 17.4604 16.131C17.5604 16.131 17.6704 16.131 17.7604 16.121C18.1304 16.051 18.4004 15.731 18.4004 15.361C18.4004 14.991 18.1404 14.671 17.7904 14.611C17.7404 14.591 17.5004 14.581 17.5004 14.581C17.2404 14.541 17.0604 14.431 17.0504 14.011L17.0404 14.001Z" fill="black"/>
</svg>
