<svg width="24" height="24" viewBox="0 0 24 24" fill="none" xmlns="http://www.w3.org/2000/svg">
<path d="M17.5 19H6.5C4.01 19 2 16.99 2 14.5V9.5C2 7.01 4.01 5 6.5 5H17.5C19.99 5 22 7.01 22 9.5V14.5C22 16.99 19.99 19 17.5 19ZM8.04 9.47C7.95 9.47 7.85 9.46 7.75 9.46H7.08C7.03 9.46 6.85 9.46 6.81 9.48C6.58 9.51 6.39 9.6 6.25 9.74C6.1 9.88 6.01 10.07 5.97 10.3C5.97 10.34 5.97 10.38 5.97 10.42V14.12C5.97 14.12 5.97 14.18 5.97 14.2C6 14.3 6.05 14.38 6.13 14.44C6.21 14.5 6.3 14.53 6.4 14.53C6.5 14.53 6.6 14.5 6.68 14.44C6.76 14.38 6.81 14.3 6.84 14.2C6.84 14.17 6.86 14.15 6.86 14.12V12.66C6.86 12.66 7.97 12.66 8.06 12.66C8.15 12.66 8.23 12.64 8.3 12.61C8.45 12.56 8.59 12.48 8.72 12.38C8.85 12.28 8.96 12.16 9.06 12.02C9.15 11.88 9.23 11.73 9.28 11.57C9.33 11.41 9.36 11.24 9.36 11.06C9.36 10.88 9.33 10.71 9.28 10.55C9.23 10.39 9.15 10.24 9.06 10.1C8.97 9.96 8.86 9.85 8.72 9.74C8.59 9.64 8.45 9.57 8.3 9.52C8.23 9.49 8.15 9.48 8.06 9.47H8.04ZM7.95 11.76C7.89 11.76 6.84 11.76 6.84 11.76V10.34C6.84 10.34 7.9 10.34 7.95 10.34C8.01 10.34 8.05 10.36 8.09 10.39C8.19 10.44 8.27 10.53 8.34 10.64C8.41 10.76 8.45 10.89 8.45 11.04C8.45 11.19 8.41 11.33 8.34 11.45C8.27 11.57 8.19 11.65 8.09 11.71C8.05 11.74 8 11.75 7.95 11.75V11.76ZM11.82 13.04C11.82 13.25 11.86 13.44 11.93 13.62C12.04 13.89 12.22 14.11 12.47 14.27C12.72 14.44 12.99 14.52 13.3 14.52C13.46 14.52 13.61 14.5 13.76 14.45C13.91 14.4 14.05 14.33 14.17 14.24C14.29 14.15 14.4 14.04 14.5 13.91C14.59 13.78 14.67 13.64 14.72 13.49C14.76 13.38 14.75 13.27 14.7 13.17C14.65 13.07 14.57 13 14.46 12.96C14.39 12.93 14.32 12.93 14.25 12.94C14.16 12.96 14.02 13.03 13.96 13.17C13.93 13.22 13.91 13.27 13.88 13.33C13.82 13.44 13.74 13.52 13.64 13.58C13.54 13.64 13.43 13.67 13.31 13.67C13.19 13.67 13.08 13.64 12.98 13.58C12.88 13.52 12.8 13.44 12.75 13.34C12.7 13.24 12.67 13.14 12.67 13.01C12.67 12.98 12.67 11.95 12.67 11.92C12.67 11.8 12.7 11.69 12.75 11.59C12.81 11.49 12.88 11.41 12.98 11.35C13.08 11.29 13.19 11.26 13.31 11.26C13.43 11.26 13.53 11.29 13.64 11.35C13.78 11.43 13.89 11.64 13.96 11.76C13.99 11.81 14.02 11.86 14.06 11.89C14.12 11.94 14.18 11.97 14.25 11.98C14.32 12 14.39 11.99 14.46 11.97C14.57 11.93 14.65 11.86 14.7 11.75C14.75 11.65 14.76 11.54 14.72 11.43C14.66 11.28 14.59 11.14 14.5 11.01C14.41 10.88 14.29 10.78 14.17 10.68C14 10.55 13.72 10.4 13.3 10.4C12.99 10.4 12.71 10.48 12.47 10.65C12.22 10.82 12.04 11.04 11.93 11.31C11.85 11.49 11.82 11.69 11.82 11.89C11.82 11.93 11.82 12.94 11.82 12.98V13.04ZM18.42 10.76C18.39 10.67 18.33 10.6 18.24 10.55C18.16 10.5 18.07 10.48 17.97 10.5C17.86 10.52 17.74 10.57 17.69 10.68C17.68 10.7 16.9 12.03 16.87 12.08C16.82 12.14 16.72 12.21 16.63 12.21C16.59 12.21 16.36 12.21 16.36 12.21C16.36 12.21 16.36 9.88 16.36 9.85C16.36 9.82 16.36 9.79 16.35 9.77C16.32 9.68 16.28 9.61 16.2 9.55C16.13 9.49 16.04 9.46 15.94 9.46C15.84 9.46 15.75 9.49 15.68 9.55C15.61 9.61 15.56 9.68 15.53 9.77C15.53 9.8 15.53 9.82 15.53 9.85V14.13C15.53 14.13 15.53 14.18 15.53 14.21C15.55 14.3 15.6 14.37 15.68 14.43C15.75 14.49 15.84 14.52 15.94 14.52C16.04 14.52 16.13 14.49 16.2 14.43C16.27 14.37 16.32 14.3 16.35 14.21C16.35 14.18 16.35 14.16 16.36 14.13C16.36 14.1 16.36 13.04 16.36 13.04H16.64C16.7 13.04 16.77 13.04 16.83 13.02C16.86 13.08 17.7 14.39 17.72 14.41C17.79 14.47 17.87 14.51 17.96 14.52C18.05 14.52 18.14 14.51 18.23 14.45C18.31 14.4 18.37 14.33 18.4 14.24C18.43 14.15 18.43 14.06 18.4 13.97C18.39 13.93 17.59 12.67 17.55 12.6C17.56 12.58 18.43 11.05 18.44 11.01C18.47 10.92 18.46 10.83 18.43 10.74L18.42 10.76ZM10.93 14.1V11.17C10.93 10.94 10.74 10.75 10.51 10.75C10.28 10.75 10.09 10.94 10.09 11.17V14.1C10.09 14.33 10.28 14.52 10.51 14.52C10.74 14.52 10.93 14.33 10.93 14.1ZM10.51 9.45C10.25 9.45 10.04 9.66 10.04 9.92C10.04 10.18 10.25 10.39 10.51 10.39C10.77 10.39 10.98 10.18 10.98 9.92C10.98 9.66 10.77 9.45 10.51 9.45Z" fill="black"/>
</svg>
