<svg width="24" height="24" viewBox="0 0 24 24" fill="none" xmlns="http://www.w3.org/2000/svg">
<path d="M10.8049 9.66545C10.8049 9.94433 10.5788 10.1629 10.3075 10.1629C10.0361 10.1629 9.81 9.94433 9.81 9.66545C9.81 9.39411 10.0361 9.168 10.3075 9.168C10.5788 9.168 10.8049 9.39411 10.8049 9.66545Z" fill="black"/>
<path d="M9.87029 10.9317C9.92305 10.7357 10.0964 10.585 10.3075 10.585C10.5185 10.585 10.6918 10.7357 10.7446 10.9317C10.7521 10.9769 10.7521 11.0372 10.7521 11.1201V14.0973C10.7521 14.1878 10.7521 14.2481 10.7446 14.2933C10.6918 14.4893 10.5185 14.6325 10.3075 14.6325C10.0964 14.6325 9.92305 14.4893 9.87029 14.2933C9.86276 14.2481 9.86276 14.1878 9.86276 14.0973V11.1201C9.86276 11.0372 9.86276 10.9769 9.87029 10.9317Z" fill="black"/>
<path fill-rule="evenodd" clip-rule="evenodd" d="M7.39398 9.2283C7.6201 9.2283 7.81607 9.23583 7.96681 9.28859C8.62255 9.4921 9.08985 10.178 9.08985 10.9317C9.08985 11.6779 8.62255 12.3638 7.96681 12.5748C7.81607 12.62 7.6201 12.6351 7.39398 12.6351H6.42169V14.0672C6.42169 14.1652 6.42169 14.2255 6.40661 14.2782C6.35385 14.4817 6.16542 14.6325 5.94684 14.6325C5.72073 14.6325 5.53983 14.4817 5.48707 14.2782C5.472 14.2255 5.472 14.1652 5.472 14.0672V10.3589C5.472 10.2684 5.472 10.1931 5.48707 10.1101C5.55491 9.63531 5.89408 9.30367 6.384 9.23583C6.47445 9.2283 6.57243 9.2283 6.67041 9.2283H7.39398ZM7.39398 11.6854C7.5598 11.6854 7.6804 11.6854 7.76331 11.6327C7.96681 11.5271 8.14017 11.2558 8.14017 10.9317C8.14017 10.6001 7.96681 10.3363 7.76331 10.2232C7.6804 10.178 7.5598 10.1704 7.39398 10.1704H6.42169V11.6854H7.39398Z" fill="black"/>
<path d="M11.6848 13.0497C11.6924 13.2532 11.73 13.4793 11.8054 13.6677C12.0541 14.2405 12.6194 14.64 13.2752 14.64C13.9535 14.64 14.5565 14.2028 14.7826 13.5471C14.858 13.3135 14.7374 13.0572 14.5037 12.9743C14.3454 12.9215 14.1872 12.9667 14.0666 13.0647C14.0078 13.1181 13.968 13.198 13.9284 13.2775C13.912 13.3103 13.8957 13.343 13.8781 13.3738C13.7575 13.5999 13.5239 13.7431 13.2752 13.7431C13.0189 13.7431 12.7928 13.5999 12.6722 13.3888C12.6119 13.2908 12.5893 13.1778 12.5817 13.0497V11.8889C12.5893 11.7533 12.6119 11.6402 12.6722 11.5422C12.7928 11.3312 13.0189 11.188 13.2752 11.188C13.5239 11.188 13.7575 11.3312 13.8781 11.5648C13.8975 11.5963 13.9153 11.6317 13.9334 11.6675C13.9714 11.743 14.0103 11.8203 14.0666 11.8663C14.1872 11.9718 14.3454 12.0095 14.5037 11.9568C14.7374 11.8739 14.858 11.6251 14.7826 11.3915C14.5565 10.7357 13.9535 10.291 13.2752 10.291C12.6194 10.291 12.0541 10.6905 11.8054 11.2633C11.73 11.4593 11.6924 11.6779 11.6848 11.8814V13.0497Z" fill="black"/>
<path d="M18.415 10.3513C18.5959 10.4493 18.6788 10.6679 18.626 10.8563C18.6146 10.8963 18.5945 10.932 18.5657 10.9831C18.2675 11.5123 17.978 12.0489 17.6613 12.5673C17.8497 12.8612 18.4602 13.826 18.4904 13.8712C18.5431 13.9466 18.5733 13.9993 18.5884 14.0446C18.6486 14.2405 18.5808 14.4516 18.3999 14.5646C18.2266 14.6777 18.0005 14.6475 17.8497 14.5119C17.8196 14.4817 17.7819 14.429 17.7366 14.3536C17.7065 14.3008 17.0508 13.2682 16.8849 13.012C16.8246 13.027 16.7568 13.0346 16.689 13.0346H16.3875V14.0973C16.3875 14.1878 16.38 14.2481 16.3724 14.2933C16.3197 14.4893 16.1463 14.6325 15.9353 14.6325C15.7242 14.6325 15.5509 14.4893 15.4981 14.2933C15.4906 14.2481 15.4906 14.1878 15.4906 14.0973V9.70314C15.4906 9.62023 15.4906 9.55993 15.4981 9.51471C15.5509 9.31874 15.7242 9.168 15.9353 9.168C16.1463 9.168 16.3197 9.31874 16.3724 9.51471C16.38 9.55993 16.3875 9.62023 16.3875 9.70314V12.1377H16.5608C16.6362 12.1377 16.7267 12.1377 16.802 12.1C16.9151 12.0472 16.9754 11.9643 17.0432 11.8437C17.292 11.4065 17.7366 10.6302 17.7593 10.5925C17.8045 10.5096 17.8346 10.4644 17.8723 10.4267C18.008 10.2835 18.2341 10.2458 18.415 10.3513Z" fill="black"/>
<path fill-rule="evenodd" clip-rule="evenodd" d="M8 5.5H16C17.7239 5.5 19.3772 6.18482 20.5962 7.40381C21.8152 8.62279 22.5 10.2761 22.5 12C22.5 13.7239 21.8152 15.3772 20.5962 16.5962C19.3772 17.8152 17.7239 18.5 16 18.5H8C6.27609 18.5 4.6228 17.8152 3.40381 16.5962C2.18482 15.3772 1.5 13.7239 1.5 12C1.5 10.2761 2.18482 8.62279 3.40381 7.40381C4.6228 6.18482 6.27609 5.5 8 5.5ZM8 16.9H16C17.2996 16.9 18.5459 16.3838 19.4648 15.4648C20.3837 14.5459 20.9 13.2996 20.9 12C20.9 10.7004 20.3837 9.4541 19.4648 8.53517C18.5459 7.61624 17.2996 7.10001 16 7.10001H8C6.70044 7.10001 5.45411 7.61624 4.53519 8.53517C3.61626 9.4541 3.10001 10.7004 3.10001 12C3.10001 13.2996 3.61626 14.5459 4.53519 15.4648C5.45411 16.3838 6.70044 16.9 8 16.9Z" fill="black"/>
</svg>
