<svg width="24" height="24" viewBox="0 0 24 24" fill="none" xmlns="http://www.w3.org/2000/svg">
<path d="M16 5.5H8C6.27609 5.5 4.6228 6.18482 3.40381 7.40381C2.18482 8.6228 1.5 10.2761 1.5 12C1.5 13.7239 2.18482 15.3772 3.40381 16.5962C4.6228 17.8152 6.27609 18.5 8 18.5H16C17.7239 18.5 19.3772 17.8152 20.5962 16.5962C21.8152 15.3772 22.5 13.7239 22.5 12C22.5 10.2761 21.8152 8.6228 20.5962 7.40381C19.3772 6.18482 17.7239 5.5 16 5.5ZM16 16.9H8C6.70044 16.9 5.45411 16.3838 4.53519 15.4648C3.61626 14.5459 3.10001 13.2996 3.10001 12C3.10001 10.7004 3.61626 9.4541 4.53519 8.53517C5.45411 7.61624 6.70044 7.10001 8 7.10001H16C17.2996 7.10001 18.5459 7.61624 19.4648 8.53517C20.3837 9.4541 20.9 10.7004 20.9 12C20.9 13.2996 20.3837 14.5459 19.4648 15.4648C18.5459 16.3838 17.2996 16.9 16 16.9ZM7.97852 9.29324C7.79297 9.24586 7.60146 9.22611 7.41016 9.2346H6.68799C6.55835 9.2346 6.46303 9.23703 6.40201 9.24191C6.17612 9.26358 5.96448 9.36202 5.80237 9.52081C5.64026 9.6796 5.53748 9.88914 5.51114 10.1145C5.49803 10.1957 5.49186 10.2779 5.49271 10.3602V14.0558C5.49019 14.126 5.49638 14.1962 5.51114 14.2648C5.5365 14.3651 5.59452 14.4542 5.67606 14.5178C5.75896 14.5823 5.86104 14.6171 5.96603 14.6168C6.07103 14.6164 6.17288 14.581 6.25537 14.516C6.33784 14.4533 6.39717 14.3649 6.42407 14.2648C6.43676 14.1959 6.44168 14.1258 6.43872 14.0558V12.6296H7.41019C7.6016 12.635 7.79285 12.614 7.97855 12.5673C8.30858 12.4585 8.59175 12.2406 8.78152 11.9495C8.98913 11.6511 9.09923 11.2957 9.09671 10.9321C9.0998 10.5656 8.98974 10.2072 8.78152 9.90556C8.59328 9.61421 8.30929 9.39769 7.97852 9.29324ZM8.04272 11.3556C7.98183 11.47 7.88962 11.5647 7.77686 11.6287C7.66054 11.6752 7.535 11.6941 7.41016 11.6837H6.43869V10.1732H7.41013C7.53461 10.1644 7.65954 10.1819 7.77682 10.2245C7.89014 10.2916 7.98275 10.3886 8.0444 10.505C8.11661 10.6356 8.15331 10.7829 8.15085 10.9321C8.15291 11.0803 8.11562 11.2265 8.04272 11.3556ZM10.739 10.9321C10.7455 10.9942 10.7479 11.0567 10.7463 11.1191V14.0851C10.748 14.15 10.7455 14.2149 10.739 14.2794C10.7132 14.3756 10.6565 14.4607 10.5776 14.5215C10.4998 14.584 10.4026 14.6177 10.3027 14.6167C10.2033 14.6179 10.1067 14.5842 10.0295 14.5215C9.95164 14.4601 9.89571 14.3752 9.87012 14.2794C9.8636 14.2149 9.86116 14.15 9.86279 14.0851V11.1191C9.86123 11.0567 9.86367 10.9942 9.87012 10.9321C9.89525 10.8346 9.95117 10.7479 10.0295 10.6847C10.107 10.6215 10.204 10.5872 10.3039 10.5875C10.4039 10.5878 10.5006 10.6228 10.5776 10.6865C10.6562 10.7491 10.7127 10.8352 10.739 10.9321ZM10.6547 9.32262C10.7011 9.36834 10.738 9.42283 10.7632 9.48294C10.7883 9.54305 10.8013 9.60758 10.8013 9.67274C10.8013 9.73791 10.7883 9.80242 10.7632 9.86253C10.738 9.92264 10.7011 9.97715 10.6547 10.0229C10.6086 10.0691 10.5537 10.1056 10.4933 10.1302C10.4328 10.1547 10.368 10.1669 10.3027 10.1659C10.2377 10.167 10.1732 10.1549 10.113 10.1303C10.0528 10.1057 9.99826 10.0692 9.95264 10.0229C9.88363 9.9534 9.8367 9.86509 9.81772 9.76903C9.79874 9.67297 9.80857 9.57345 9.84598 9.48296C9.88338 9.39247 9.94669 9.31504 10.028 9.26042C10.1092 9.2058 10.2048 9.1764 10.3027 9.17593C10.3683 9.17504 10.4334 9.1876 10.4939 9.21281C10.5544 9.23803 10.6091 9.27543 10.6547 9.32262ZM12.5685 12.4646V13.0402C12.5713 13.1584 12.6028 13.2741 12.6602 13.3775C12.7205 13.4843 12.8077 13.5734 12.9131 13.636C13.018 13.7 13.1386 13.7336 13.2615 13.7332C13.3848 13.7335 13.5057 13.6985 13.6097 13.6323C13.7162 13.5662 13.8034 13.4733 13.8627 13.3629C13.8725 13.3458 13.8896 13.3115 13.914 13.2602C13.9338 13.2172 13.9565 13.1756 13.9819 13.1356C14.0009 13.1059 14.0236 13.0787 14.0496 13.0549C14.1298 12.984 14.2324 12.9438 14.3393 12.9412C14.3893 12.9418 14.4387 12.9505 14.4859 12.9669C14.5411 12.986 14.5919 13.0159 14.6354 13.055C14.6789 13.094 14.7141 13.1414 14.739 13.1942C14.7697 13.2556 14.7848 13.3236 14.7829 13.3922C14.7826 13.4407 14.7752 13.4888 14.7609 13.5352C14.6544 13.8522 14.4511 14.1279 14.1797 14.3234C13.9144 14.5207 13.592 14.6262 13.2614 14.6241C12.9479 14.6269 12.641 14.5341 12.3815 14.3583C12.1218 14.1863 11.9179 13.9423 11.7948 13.6561C11.7203 13.4592 11.6806 13.2508 11.6774 13.0402V11.878C11.682 11.6676 11.7217 11.4594 11.7948 11.262C11.9179 10.9759 12.1218 10.7319 12.3815 10.5599C12.641 10.384 12.9479 10.2913 13.2614 10.2941C13.5923 10.292 13.9148 10.3983 14.1797 10.5966C14.4516 10.794 14.6548 11.0716 14.7609 11.3904C14.7754 11.4354 14.7828 11.4824 14.7829 11.5296C14.7829 11.5981 14.7679 11.6657 14.739 11.7276C14.7136 11.7798 14.6782 11.8263 14.6348 11.8647C14.5913 11.9031 14.5407 11.9325 14.4859 11.9513C14.4362 11.9677 14.3843 11.9764 14.332 11.977C14.2269 11.9761 14.126 11.9355 14.0496 11.8633C14.0228 11.841 13.9999 11.8143 13.9819 11.7845C13.9577 11.7454 13.9357 11.705 13.9159 11.6635C13.8926 11.6158 13.875 11.5822 13.8628 11.5626C13.804 11.4504 13.7168 11.3555 13.6098 11.2876C13.5061 11.2203 13.3851 11.1847 13.2615 11.185C13.1386 11.1845 13.018 11.2181 12.9131 11.2821C12.8077 11.3448 12.7205 11.4339 12.6602 11.5406C12.6022 11.6464 12.5707 11.7646 12.5685 11.8852L12.5685 12.4646ZM18.574 10.5691C18.598 10.6233 18.6093 10.6822 18.6069 10.7415C18.607 10.7798 18.6021 10.818 18.5923 10.8551L18.5006 11.0347C18.4982 11.0372 18.453 11.1166 18.365 11.2731C18.2769 11.4295 18.184 11.5939 18.0863 11.7662C17.9885 11.9385 17.8932 12.1059 17.8003 12.2684C17.7075 12.431 17.6513 12.5282 17.6316 12.56C17.6805 12.6381 17.7741 12.7854 17.9121 13.0017C18.0503 13.218 18.1737 13.4117 18.2825 13.5828C18.3912 13.7539 18.4493 13.8456 18.4565 13.8578C18.4965 13.9117 18.5287 13.9709 18.552 14.0338C18.5662 14.0777 18.5737 14.1234 18.574 14.1695C18.5738 14.2222 18.5638 14.2744 18.5446 14.3235C18.5117 14.4172 18.4485 14.4971 18.365 14.5508C18.2952 14.5962 18.2137 14.6204 18.1304 14.6204C18.1146 14.6181 18.0986 14.6169 18.0827 14.6168C17.9842 14.6077 17.8914 14.5665 17.8187 14.4995C17.775 14.4514 17.7369 14.3985 17.7052 14.3418C17.6341 14.2172 17.3518 13.7711 16.8582 13.0036C16.7934 13.019 16.7269 13.0264 16.6602 13.0256H16.3594V14.0851C16.3599 14.1502 16.355 14.2152 16.3448 14.2795C16.3192 14.3753 16.2633 14.4602 16.1854 14.5215C16.1083 14.5842 16.0116 14.6179 15.9122 14.6167C15.8123 14.6177 15.7151 14.584 15.6373 14.5215C15.5584 14.4607 15.5017 14.3756 15.4759 14.2795C15.4694 14.2149 15.4669 14.15 15.4686 14.0851V9.70757C15.467 9.64516 15.4694 9.58271 15.4759 9.52061C15.5022 9.42366 15.5587 9.33761 15.6373 9.27495C15.7143 9.21127 15.811 9.17628 15.911 9.17595C16.0109 9.17562 16.1079 9.20996 16.1854 9.27312C16.2638 9.33629 16.3197 9.42309 16.3448 9.52061C16.3548 9.58242 16.3597 9.64495 16.3594 9.70757V12.131H16.5354C16.6166 12.136 16.6978 12.1235 16.7737 12.0943C16.8802 12.0391 16.9654 11.9501 17.0158 11.8413C17.0818 11.7265 17.1753 11.5627 17.2962 11.3501C17.4173 11.1374 17.5175 10.9608 17.597 10.8203C17.6763 10.6797 17.7197 10.6045 17.7271 10.5948C17.7564 10.5344 17.7947 10.4787 17.8406 10.4298C17.907 10.3576 17.9965 10.3109 18.0936 10.2978C18.1155 10.2954 18.1376 10.2941 18.1596 10.2941C18.2368 10.2945 18.3125 10.3147 18.3796 10.3528C18.468 10.3995 18.5369 10.4762 18.574 10.5691Z" fill="black"/>
</svg>
