<svg width="24" height="24" viewBox="0 0 24 24" fill="none" xmlns="http://www.w3.org/2000/svg">
<path d="M13.5051 3.0089L11.0037 3C6.35677 3.05341 2.6001 7.07715 2.6001 12C2.6001 16.9318 6.35677 20.9466 11.0037 21L13.5051 20.9911C17.8672 20.9288 21.4102 16.9228 21.4102 11.9911C21.4013 7.07715 17.8672 3.06231 13.5051 3.0089ZM13.5051 18.5074C13.1224 18.6766 12.7218 18.8012 12.3034 18.8813C11.9117 18.9614 11.52 19.0059 11.1105 19.0059C10.6743 19.0059 10.2381 18.9614 9.81968 18.8635C8.79594 18.6409 7.86123 18.1602 7.07784 17.4837C5.57339 16.2018 4.61197 14.2255 4.61197 12C4.61197 9.78338 5.58229 7.79822 7.07784 6.51632C7.87013 5.83976 8.80485 5.35905 9.81968 5.1365C10.2381 5.04748 10.6654 4.99407 11.1105 4.99407C11.52 4.99407 11.9206 5.03858 12.3034 5.11869C12.7218 5.19881 13.1224 5.33234 13.5051 5.49258C15.9087 6.52522 17.609 9.04451 17.609 11.9911C17.609 14.9466 15.8998 17.4748 13.5051 18.5074ZM9.15203 11.5015V12.5163C9.15203 12.8546 9.16983 13.2196 9.23215 13.4421C9.4547 14.1187 10.1045 14.6172 10.8612 14.6172C11.0215 14.6172 11.1728 14.5994 11.3152 14.5549C11.7603 14.4303 12.152 14.1365 12.3746 13.7359C12.4903 13.5134 12.5971 13.2196 12.7396 13.095C12.9621 12.8813 13.3004 12.819 13.612 12.9258C13.701 12.9525 13.7722 13.0059 13.8345 13.0593C14.1372 13.2819 14.2796 13.6736 14.155 14.0475C14.0749 14.2789 13.9591 14.4926 13.8345 14.6973C13.2915 15.5875 12.3657 16.2018 11.3152 16.3353C11.1639 16.3531 11.0126 16.3709 10.8612 16.3709C9.58823 16.3709 8.46657 15.6766 7.87013 14.6439C7.78111 14.4926 7.70099 14.3323 7.63867 14.1721C7.41612 13.6291 7.38942 13.0059 7.38942 12.2493V11.7507C7.38942 11.0119 7.41612 10.3887 7.63867 9.82789C7.70099 9.66766 7.78111 9.50742 7.87013 9.35608C8.45766 8.32344 9.58823 7.62908 10.8612 7.62908C11.0126 7.62908 11.1639 7.64688 11.3152 7.66469C12.3657 7.80712 13.2826 8.41246 13.8345 9.31157C13.9591 9.51632 14.0749 9.72997 14.155 9.97033C14.2796 10.3442 14.1372 10.727 13.8345 10.9585C13.7633 11.0119 13.6921 11.0653 13.612 11.092C13.3004 11.1899 12.971 11.1187 12.7396 10.9228C12.5971 10.7804 12.4903 10.5045 12.3746 10.2819C12.152 9.8724 11.7603 9.57864 11.3152 9.46291C11.1639 9.4273 11.0126 9.40059 10.8612 9.40059C10.1045 9.40059 9.4636 9.89021 9.23215 10.5757C9.16093 10.7982 9.15203 11.1543 9.15203 11.5015Z" fill="black"/>
</svg>
