<svg width="24" height="24" viewBox="0 0 24 24" fill="none" xmlns="http://www.w3.org/2000/svg">
<path d="M13.77 3C13.72 3 13.68 3.01 13.63 3.01V3H10.31V3.01C10.29 3 10.26 3 10.23 3C5.81998 3 2.22998 7.04 2.22998 12C2.22998 16.96 5.81998 21 10.23 21C10.26 21 10.29 21 10.32 20.99V21H13.64V20.99C13.69 20.99 13.73 21 13.78 21C18.19 21 21.78 16.96 21.78 12C21.78 7.04 18.18 3 13.77 3ZM4.22998 12C4.22998 8.14 6.91998 5 10.23 5C13.54 5 16.23 8.14 16.23 12C16.23 15.86 13.54 19 10.23 19C6.91998 19 4.22998 15.86 4.22998 12ZM15.57 18.68C17.19 17.03 18.22 14.65 18.22 12C18.22 9.35 17.19 6.97 15.57 5.32C18 6.22 19.77 8.87 19.77 12C19.77 15.13 18 17.78 15.57 18.68ZM10.27 16.33C9.42998 16.33 8.68998 16.02 8.15998 15.5C7.59998 14.95 7.27998 14.28 7.24998 13.34C7.23998 13.02 7.22998 11.23 7.24998 10.69C7.28998 9.9 7.47998 9.3 7.87998 8.79C8.40998 8.1 9.29998 7.67 10.29 7.67C11.46 7.67 12.32 8.24 12.91 8.94C13.17 9.25 13.14 9.73 12.83 9.99C12.57 10.2 12.21 10.23 11.93 10.05C11.85 9.99 11.69 9.81 11.64 9.76C11.34 9.46 10.9 9.17 10.29 9.17C9.43998 9.17 8.74998 9.72 8.74998 10.78C8.73998 11.44 8.73998 12.37 8.74998 13.17C8.75998 14.16 9.37998 14.83 10.27 14.83C10.96 14.83 11.38 14.52 11.61 14.1C11.67 13.99 11.75 13.74 11.75 13.52C11.75 13.52 11.75 13.36 11.75 12.97H10.91C10.49 12.97 10.16 12.64 10.16 12.22C10.16 11.8 10.49 11.48 10.91 11.47C11.32 11.47 11.87 11.47 12.26 11.47C12.87 11.48 13.2 11.84 13.22 12.38C13.23 12.71 13.23 13.53 13.23 13.65C13.21 14.13 13.12 14.5 12.93 14.87C12.44 15.77 11.41 16.33 10.27 16.33Z" fill="black"/>
</svg>
