<svg width="24" height="24" viewBox="0 0 24 24" fill="none" xmlns="http://www.w3.org/2000/svg">
<path d="M18.36 18.3598C20.17 16.5498 21.21 13.9698 20.95 11.1598C20.57 6.96976 17.2 3.52976 13.01 3.05976C7.57999 2.45976 2.98999 6.68976 2.98999 11.9998C2.98999 16.9698 7.01999 20.9998 11.99 20.9998C12.05 20.9998 12.11 20.9898 12.17 20.9898H19.79C20.24 20.9898 20.46 20.4498 20.14 20.1398L18.36 18.3598ZM9.77999 17.0898C9.13999 17.0898 8.83999 16.4998 8.83999 16.1798C8.83999 15.8298 8.99999 15.7098 9.44999 15.3698C10.53 14.5898 11.14 13.3198 11.16 11.9698C11.16 11.6198 11.17 11.0798 12.03 11.0798C12.87 11.0798 12.92 11.5898 12.92 11.9498C12.93 15.2598 10.54 17.0898 9.77999 17.0898ZM15.67 11.5598C14.61 12.9798 14.38 12.9798 14.12 12.9798C13.72 12.9798 13.21 12.6298 13.21 12.1198C13.21 11.8598 13.29 11.7698 13.71 11.3298C13.99 11.0398 14.49 10.3898 14.49 10.2698C14.49 10.2198 14.43 10.2198 14.4 10.2198H8.48999C7.73999 10.2198 7.64999 9.63976 7.64999 9.38976C7.64999 8.92976 7.85999 8.53976 8.48999 8.53976H15.86C16.08 8.53976 16.9 8.53976 16.9 9.37976C16.9 9.85976 16.15 10.9298 15.67 11.5598Z" fill="black"/>
</svg>
