<svg width="24" height="24" viewBox="0 0 24 24" fill="none" xmlns="http://www.w3.org/2000/svg">
<path d="M19.5701 13.53L15.7201 9.68C15.5318 9.4917 15.2764 9.38591 15.0101 9.38591C14.7438 9.38591 14.4884 9.4917 14.3001 9.68C14.1118 9.8683 14.006 10.1237 14.006 10.39C14.006 10.6563 14.1118 10.9117 14.3001 11.1L17.1501 14H7.8501C7.31966 14 6.81096 13.7893 6.43588 13.4142C6.06081 13.0391 5.8501 12.5304 5.8501 12V4.5C5.8501 4.23478 5.74474 3.98043 5.5572 3.79289C5.36967 3.60536 5.11531 3.5 4.8501 3.5C4.58488 3.5 4.33053 3.60536 4.14299 3.79289C3.95545 3.98043 3.8501 4.23478 3.8501 4.5V12C3.8501 13.0609 4.27153 14.0783 5.02167 14.8284C5.77182 15.5786 6.78923 16 7.8501 16H17.1501L14.3001 18.79C14.2064 18.883 14.132 18.9936 14.0812 19.1154C14.0304 19.2373 14.0043 19.368 14.0043 19.5C14.0043 19.632 14.0304 19.7627 14.0812 19.8846C14.132 20.0064 14.2064 20.117 14.3001 20.21C14.3931 20.3037 14.5037 20.3781 14.6255 20.4289C14.7474 20.4797 14.8781 20.5058 15.0101 20.5058C15.1421 20.5058 15.2728 20.4797 15.3947 20.4289C15.5165 20.3781 15.6271 20.3037 15.7201 20.21L19.5701 16.36C19.7561 16.1743 19.9036 15.9537 20.0042 15.7109C20.1049 15.4681 20.1567 15.2078 20.1567 14.945C20.1567 14.6822 20.1049 14.4219 20.0042 14.1791C19.9036 13.9363 19.7561 13.7157 19.5701 13.53Z" fill="black"/>
</svg>
