<svg width="24" height="24" viewBox="0 0 24 24" fill="none" xmlns="http://www.w3.org/2000/svg">
<path d="M20.43 6.50023H15.56C15.13 6.50023 14.74 6.76023 14.58 7.16023C14.41 7.56023 14.5 8.02023 14.81 8.32023L16.18 9.69023L12.74 13.1302L10.51 10.9002C9.54005 9.93023 7.95005 9.93023 6.97005 10.9002L2.93005 14.9402C2.34005 15.5302 2.34005 16.4802 2.93005 17.0602C3.22005 17.3502 3.61005 17.5002 3.99005 17.5002C4.37005 17.5002 4.76005 17.3502 5.05005 17.0602L8.74005 13.3702L10.97 15.6002C11.94 16.5702 13.53 16.5702 14.51 15.6002L18.3 11.8102L19.67 13.1802C19.88 13.3802 20.15 13.4902 20.42 13.4902C20.56 13.4902 20.7001 13.4602 20.83 13.4102C21.23 13.2402 21.49 12.8602 21.49 12.4302V7.56023C21.49 6.97023 21.01 6.49023 20.42 6.49023L20.43 6.50023Z" fill="black"/>
</svg>
