<svg width="24" height="24" viewBox="0 0 24 24" fill="none" xmlns="http://www.w3.org/2000/svg">
<path d="M12 2C6.5 2 2 6.5 2 12C2 17.5 6.5 22 12 22C17.5 22 22 17.5 22 12C22 6.5 17.5 2 12 2ZM17.5 13.4L14.2 16.7C14 16.9 13.7 17 13.5 17C13.3 17 13 16.9 12.8 16.7C12.4 16.3 12.4 15.7 12.8 15.3L15.1 13H6.5C5.9 13 5.5 12.6 5.5 12C5.5 11.4 5.9 11 6.5 11H15.1L12.8 8.7C12.4 8.3 12.4 7.7 12.8 7.3C13.2 6.9 13.8 6.9 14.2 7.3L17.5 10.6C17.9 11 18.1 11.5 18.1 12C18.1 12.5 17.9 13 17.5 13.4Z" fill="black"/>
</svg>
