<svg width="24" height="24" viewBox="0 0 24 24" fill="none" xmlns="http://www.w3.org/2000/svg">
<path d="M19.4199 8.91024L13.7599 3.25024C13.3799 2.87024 12.9099 2.64023 12.4099 2.56023C12.2799 2.52023 12.1399 2.49023 11.9899 2.49023C11.8399 2.49023 11.6999 2.52023 11.5699 2.56023C11.0799 2.64023 10.5999 2.87024 10.2199 3.25024L4.55993 8.91024C3.96993 9.50024 3.96993 10.4502 4.55993 11.0302C5.14993 11.6102 6.09993 11.6202 6.67993 11.0302L10.4799 7.23024V20.0002C10.4799 20.8302 11.1499 21.5002 11.9799 21.5002C12.8099 21.5002 13.4799 20.8302 13.4799 20.0002V7.23024L17.2799 11.0302C17.8699 11.6202 18.8199 11.6202 19.3999 11.0302C19.6899 10.7402 19.8399 10.3502 19.8399 9.97024C19.8399 9.59024 19.7199 9.21024 19.4199 8.91024Z" fill="black"/>
</svg>
