<svg width="24" height="24" viewBox="0 0 24 24" fill="none" xmlns="http://www.w3.org/2000/svg">
<path d="M21 11.9999C21 11.9099 20.97 11.8299 20.95 11.7499C20.9 11.3199 20.72 10.9099 20.39 10.5799L14.73 4.91994C14.34 4.52994 13.71 4.52994 13.32 4.91994C12.93 5.30994 12.93 5.93994 13.32 6.32994L17.98 10.9999H4C3.45 10.9999 3 11.4499 3 11.9999C3 12.5499 3.45 12.9999 4 12.9999H17.98L13.32 17.6599C12.93 18.0499 12.93 18.6799 13.32 19.0699C13.52 19.2699 13.77 19.3599 14.03 19.3599C14.29 19.3599 14.54 19.2599 14.74 19.0699L20.4 13.4099C20.73 13.0799 20.91 12.6699 20.96 12.2399C20.97 12.1699 21 12.0899 21 11.9999Z" fill="black"/>
</svg>
