<svg width="24" height="24" viewBox="0 0 24 24" fill="none" xmlns="http://www.w3.org/2000/svg">
<path d="M18.13 9.24V12.78C18.13 13.23 17.59 13.45 17.28 13.13L16.22 12.07L14.05 14.24C13.29 15 11.98 15 11.22 14.24L9.63 12.65L7.59 14.69C7.39 14.89 7.14 14.98 6.88 14.98C6.62 14.98 6.37 14.88 6.17 14.69C5.78 14.3 5.78 13.67 6.17 13.28L8.21 11.24C8.97 10.48 10.28 10.48 11.04 11.24L12.63 12.83L14.8 10.66L13.73 9.59C13.42 9.28 13.64 8.74 14.08 8.74H17.62C17.9 8.74 18.12 8.96 18.12 9.24H18.13ZM22 16V8C22 5.79 20.21 4 18 4H6C3.79 4 2 5.79 2 8V16C2 18.21 3.79 20 6 20H18C20.21 20 22 18.21 22 16ZM18 6C19.1 6 20 6.9 20 8V16C20 17.1 19.1 18 18 18H6C4.9 18 4 17.1 4 16V8C4 6.9 4.9 6 6 6H18Z" fill="black"/>
</svg>
