<svg width="24" height="24" viewBox="0 0 24 24" fill="none" xmlns="http://www.w3.org/2000/svg">
<path d="M12 2C6.49 2 2 6.49 2 12C2 17.51 6.49 22 12 22C17.51 22 22 17.51 22 12C22 6.49 17.51 2 12 2ZM12 20C7.59 20 4 16.41 4 12C4 7.59 7.59 4 12 4C16.41 4 20 7.59 20 12C20 16.41 16.41 20 12 20ZM16.42 10.71C17.2 11.49 17.2 12.76 16.42 13.54L13.42 16.54C13.22 16.74 12.97 16.83 12.71 16.83C12.45 16.83 12.2 16.73 12 16.54C11.61 16.15 11.61 15.52 12 15.13L14.13 13H8C7.45 13 7 12.55 7 12C7 11.45 7.45 11 8 11H13.89L12 9.12C11.61 8.73 11.61 8.1 12 7.71C12.39 7.32 13.02 7.32 13.41 7.71L16.42 10.71Z" fill="black"/>
</svg>
