<svg width="24" height="24" viewBox="0 0 24 24" fill="none" xmlns="http://www.w3.org/2000/svg">
<path d="M19.9201 13.18L16.0701 9.33C15.7787 9.1236 15.4232 9.02795 15.0675 9.06025C14.7119 9.09254 14.3794 9.25066 14.1299 9.50617C13.8804 9.76168 13.7303 10.0978 13.7065 10.4541C13.6827 10.8105 13.7868 11.1636 14.0001 11.45L16.0001 13.45H7.8501C7.46079 13.4502 7.08664 13.2991 6.80673 13.0285C6.52682 12.7579 6.36307 12.3891 6.3501 12V4.5C6.3501 4.10218 6.19206 3.72064 5.91076 3.43934C5.62945 3.15804 5.24792 3 4.8501 3C4.45227 3 4.07074 3.15804 3.78944 3.43934C3.50813 3.72064 3.3501 4.10218 3.3501 4.5V12C3.35274 13.1927 3.82769 14.3357 4.67104 15.1791C5.51438 16.0224 6.65744 16.4974 7.8501 16.5H15.9401L13.9401 18.5C13.7998 18.6386 13.6884 18.8036 13.6124 18.9856C13.5364 19.1676 13.4972 19.3628 13.4972 19.56C13.4972 19.7572 13.5364 19.9524 13.6124 20.1344C13.6884 20.3164 13.7998 20.4814 13.9401 20.62C14.2213 20.9009 14.6026 21.0587 15.0001 21.0587C15.3976 21.0587 15.7788 20.9009 16.0601 20.62L19.9101 16.77C20.1512 16.5376 20.3431 16.2592 20.4745 15.9512C20.6059 15.6432 20.6741 15.312 20.675 14.9771C20.6759 14.6423 20.6096 14.3107 20.4799 14.002C20.3502 13.6932 20.1599 13.4137 19.9201 13.18Z" fill="black"/>
</svg>
