<svg width="24" height="24" viewBox="0 0 24 24" fill="none" xmlns="http://www.w3.org/2000/svg">
<path d="M19.0699 13.32C18.6799 12.93 18.0499 12.93 17.6599 13.32L12.9999 17.98V4C12.9999 3.45 12.5499 3 11.9999 3C11.4499 3 10.9999 3.45 10.9999 4V17.98L6.33989 13.32C5.94989 12.93 5.31989 12.93 4.92989 13.32C4.72989 13.52 4.63989 13.77 4.63989 14.03C4.63989 14.29 4.73989 14.54 4.92989 14.74L10.5899 20.4C10.9199 20.73 11.3299 20.91 11.7599 20.96C11.8399 20.98 11.9199 21.01 12.0099 21.01C12.0999 21.01 12.1799 20.98 12.2599 20.96C12.6899 20.91 13.0999 20.73 13.4299 20.4L19.0899 14.74C19.4599 14.34 19.4599 13.71 19.0699 13.32Z" fill="black"/>
</svg>
