<svg width="24" height="24" viewBox="0 0 24 24" fill="none" xmlns="http://www.w3.org/2000/svg">
<path d="M21 11.8725C21 11.7225 20.97 11.5825 20.93 11.4525C20.85 10.9625 20.62 10.4825 20.24 10.1025L14.58 4.4425C13.99 3.8525 13.04 3.8525 12.46 4.4425C11.88 5.0325 11.87 5.9825 12.46 6.5625L16.26 10.3625H3.5C2.67 10.3625 2 11.0325 2 11.8625C2 12.6925 2.67 13.3625 3.5 13.3625H16.27L12.47 17.1625C11.88 17.7525 11.88 18.7025 12.47 19.2825C12.76 19.5725 13.15 19.7225 13.53 19.7225C13.91 19.7225 14.3 19.5725 14.59 19.2825L20.25 13.6225C20.63 13.2425 20.86 12.7725 20.94 12.2725C20.97 12.1625 21 12.0225 21 11.8725Z" fill="black"/>
</svg>
