<svg width="24" height="24" viewBox="0 0 24 24" fill="none" xmlns="http://www.w3.org/2000/svg">
<path d="M21 7.57V12.44C21 12.94 20.3901 13.2 20.0301 12.84L18.3 11.11L14.16 15.25C13.38 16.03 12.11 16.03 11.33 15.25L8.74005 12.66L4.70005 16.7C4.50005 16.9 4.25005 16.99 3.99005 16.99C3.73005 16.99 3.48005 16.89 3.28005 16.7C2.89005 16.31 2.89005 15.68 3.28005 15.29L7.32005 11.25C8.10005 10.47 9.37005 10.47 10.15 11.25L12.74 13.84L16.88 9.7L15.15 7.97C14.79 7.61 15.05 7 15.55 7H20.42C20.73 7 20.99 7.25 20.99 7.57H21Z" fill="black"/>
</svg>
