<svg width="24" height="24" viewBox="0 0 24 24" fill="none" xmlns="http://www.w3.org/2000/svg">
<path d="M13.0605 2.41675L16.2383 5.59351C16.4336 5.78882 16.5312 6.04468 16.5312 6.30054C16.5312 6.5564 16.4336 6.81228 16.2383 7.00757C15.8476 7.39819 15.2148 7.39819 14.8242 7.00757L13 5.18396V18.8152L14.8242 16.991C15.2148 16.6003 15.8476 16.6003 16.2383 16.991C16.4336 17.1863 16.5312 17.4421 16.5312 17.698C16.5312 17.9539 16.4336 18.2097 16.2383 18.405L13.0605 21.5828C12.4756 22.1677 11.5244 22.1677 10.9394 21.5828L7.76171 18.405C7.3711 18.0144 7.3711 17.3816 7.76171 16.991C8.15233 16.6003 8.78515 16.6003 9.17577 16.991L11 18.8152V5.18396L9.17577 7.00757C8.78515 7.39819 8.15233 7.39819 7.76171 7.00757C7.3711 6.61695 7.3711 5.98413 7.76171 5.59351L10.9394 2.41675C11.5244 1.83179 12.4756 1.83179 13.0605 2.41675Z" fill="black"/>
</svg>
