<svg width="24" height="24" viewBox="0 0 24 24" fill="none" xmlns="http://www.w3.org/2000/svg">
<path d="M22 8V16C22 18.21 20.21 20 18 20H6C3.79 20 2 18.21 2 16V8C2 5.79 3.79 4 6 4H18C20.21 4 22 5.79 22 8ZM18 8.5H14.48C14.03 8.5 13.81 9.04 14.13 9.35L15.21 10.43L12.73 12.86L11.14 11.27C10.4 10.53 9.1 10.53 8.36 11.27L5.82 13.81C5.44 14.19 5.44 14.8 5.82 15.17C6.01 15.36 6.25 15.45 6.5 15.45C6.75 15.45 6.99 15.36 7.18 15.17L9.77 12.63L11.36 14.22C12.1 14.96 13.4 14.96 14.14 14.22L16.57 11.79L17.65 12.87C17.96 13.18 18.5 12.96 18.5 12.52V9C18.5 8.72 18.28 8.5 18 8.5Z" fill="black"/>
</svg>
