<svg width="24" height="24" viewBox="0 0 24 24" fill="none" xmlns="http://www.w3.org/2000/svg">
<path d="M19.4199 12.96C18.8299 12.37 17.8799 12.37 17.2999 12.96L13.4999 16.76V4C13.4999 3.17 12.8299 2.5 11.9999 2.5C11.1699 2.5 10.4999 3.17 10.4999 4V16.77L6.69989 12.97C6.10989 12.38 5.15989 12.38 4.57989 12.97C4.28989 13.26 4.13989 13.65 4.13989 14.03C4.13989 14.41 4.28989 14.8 4.57989 15.09L10.2399 20.75C10.6199 21.13 11.0899 21.36 11.5899 21.44C11.7199 21.48 11.8599 21.51 12.0099 21.51C12.1599 21.51 12.2999 21.48 12.4299 21.44C12.9199 21.36 13.3999 21.13 13.7799 20.75L19.4399 15.09C20.0099 14.5 20.0099 13.55 19.4199 12.96Z" fill="black"/>
</svg>
