<svg width="24" height="24" viewBox="0 0 24 24" fill="none" xmlns="http://www.w3.org/2000/svg">
<path d="M19.0699 9.27L13.4099 3.61C13.0799 3.28 12.6699 3.1 12.2399 3.05C12.1699 3.03 12.0899 3 11.9999 3C11.9099 3 11.8299 3.03 11.7499 3.05C11.3199 3.1 10.9099 3.28 10.5799 3.61L4.91988 9.27C4.71988 9.47 4.62988 9.72 4.62988 9.98C4.62988 10.24 4.72988 10.49 4.91988 10.69C5.30988 11.08 5.93988 11.08 6.32988 10.69L10.9999 6.02V20C10.9999 20.55 11.4499 21 11.9999 21C12.5499 21 12.9999 20.55 12.9999 20V6.02L17.6599 10.68C18.0499 11.07 18.6799 11.07 19.0699 10.68C19.4599 10.29 19.4599 9.66 19.0699 9.27Z" fill="black"/>
</svg>
