<svg width="24" height="24" viewBox="0 0 24 24" fill="none" xmlns="http://www.w3.org/2000/svg">
<path d="M20 11.3625H6.03L10.69 6.7025C11.08 6.3125 11.08 5.6825 10.69 5.2925C10.3 4.9025 9.67 4.9025 9.28 5.2925L3.62 10.9525C3.29 11.2825 3.11 11.6925 3.06 12.1225C3.03 12.1925 3 12.2725 3 12.3625C3 12.4525 3.03 12.5325 3.05 12.6125C3.1 13.0425 3.28 13.4525 3.61 13.7825L9.27 19.4425C9.47 19.6425 9.72 19.7325 9.98 19.7325C10.24 19.7325 10.49 19.6325 10.69 19.4425C11.08 19.0525 11.08 18.4225 10.69 18.0325L6.03 13.3625H20C20.55 13.3625 21 12.9125 21 12.3625C21 11.8125 20.55 11.3625 20 11.3625Z" fill="black"/>
</svg>
