<svg width="24" height="24" viewBox="0 0 24 24" fill="none" xmlns="http://www.w3.org/2000/svg">
<path d="M20 10.4999H7.23L11.03 6.69987C11.62 6.10987 11.62 5.15987 11.03 4.57987C10.44 3.99987 9.49 3.98987 8.91 4.57987L3.25 10.2399C2.87 10.6199 2.64 11.0899 2.56 11.5899C2.53 11.7099 2.5 11.8499 2.5 11.9999C2.5 12.1499 2.53 12.2899 2.57 12.4199C2.65 12.9099 2.88 13.3899 3.26 13.7699L8.92 19.4299C9.21 19.7199 9.6 19.8699 9.98 19.8699C10.36 19.8699 10.75 19.7199 11.04 19.4299C11.63 18.8399 11.63 17.8899 11.04 17.3099L7.24 13.5099H20C20.83 13.5099 21.5 12.8399 21.5 12.0099C21.5 11.1799 20.83 10.4999 20 10.4999Z" fill="black"/>
</svg>
