<svg width="24" height="24" viewBox="0 0 24 24" fill="none" xmlns="http://www.w3.org/2000/svg">
<path d="M15.08 21.0001H8.24988C7.18901 21.0001 6.17165 20.5787 5.42151 19.8285C4.67136 19.0784 4.24988 18.061 4.24988 17.0001V7.0001C4.24988 5.93923 4.67136 4.92181 5.42151 4.17167C6.17165 3.42152 7.18901 3.0001 8.24988 3.0001H9.82996C10.0952 3.0001 10.3495 3.10545 10.537 3.29299C10.7245 3.48052 10.83 3.73488 10.83 4.0001C10.83 4.26531 10.7245 4.51967 10.537 4.7072C10.3495 4.89474 10.0952 5.0001 9.82996 5.0001H8.24988C7.71945 5.0001 7.21064 5.21081 6.83557 5.58588C6.4605 5.96095 6.24988 6.46966 6.24988 7.0001V17.0001C6.24988 17.5305 6.4605 18.0392 6.83557 18.4143C7.21064 18.7894 7.71945 19.0001 8.24988 19.0001H15.08C15.6104 19.0001 16.1189 18.7894 16.494 18.4143C16.8691 18.0392 17.08 17.5305 17.08 17.0001V15.1501C17.08 14.8849 17.1851 14.6305 17.3727 14.443C17.5602 14.2555 17.8147 14.1501 18.08 14.1501C18.3452 14.1501 18.5995 14.2555 18.787 14.443C18.9745 14.6305 19.08 14.8849 19.08 15.1501V17.0001C19.08 18.061 18.6585 19.0784 17.9083 19.8285C17.1582 20.5787 16.1408 21.0001 15.08 21.0001ZM15.4198 12.8601C15.4198 12.5949 15.3146 12.3405 15.1271 12.153C14.9395 11.9655 14.685 11.8601 14.4198 11.8601H8.9198C8.65458 11.8601 8.40031 11.9655 8.21277 12.153C8.02523 12.3405 7.9198 12.5949 7.9198 12.8601C7.9198 13.1253 8.02523 13.3797 8.21277 13.5672C8.40031 13.7547 8.65458 13.8601 8.9198 13.8601H14.4198C14.685 13.8601 14.9395 13.7547 15.1271 13.5672C15.3146 13.3797 15.4198 13.1253 15.4198 12.8601ZM15.4198 16.5201C15.4198 16.2549 15.3146 16.0005 15.1271 15.813C14.9395 15.6255 14.685 15.5201 14.4198 15.5201H8.9198C8.65458 15.5201 8.40031 15.6255 8.21277 15.813C8.02523 16.0005 7.9198 16.2549 7.9198 16.5201C7.9198 16.7853 8.02523 17.0397 8.21277 17.2272C8.40031 17.4147 8.65458 17.5201 8.9198 17.5201H14.4198C14.685 17.5201 14.9395 17.4147 15.1271 17.2272C15.3146 17.0397 15.4198 16.7853 15.4198 16.5201ZM18.6698 5.1101L17.4999 4.3401C17.2821 4.2023 17.0976 4.01786 16.9598 3.80009L16.2098 2.6501C16.1645 2.57992 16.1023 2.52222 16.0289 2.48227C15.9556 2.44232 15.8735 2.42139 15.7899 2.42139C15.7064 2.42139 15.624 2.44232 15.5507 2.48227C15.4773 2.52222 15.4153 2.57992 15.37 2.6501L14.6298 3.80009C14.4893 4.01569 14.3056 4.19961 14.09 4.3401L12.9198 5.1101C12.8496 5.1542 12.7917 5.2154 12.7516 5.28799C12.7115 5.36057 12.6903 5.44216 12.6903 5.5251C12.6903 5.60804 12.7115 5.68962 12.7516 5.7622C12.7917 5.83479 12.8496 5.896 12.9198 5.94009L14.09 6.70009C14.303 6.84374 14.4861 7.02708 14.6298 7.24009L15.37 8.4001C15.4153 8.47027 15.4773 8.52797 15.5507 8.56792C15.624 8.60787 15.7064 8.6288 15.7899 8.6288C15.8735 8.6288 15.9556 8.60787 16.0289 8.56792C16.1023 8.52797 16.1645 8.47027 16.2098 8.4001L16.9598 7.24009C17.1003 7.0245 17.2843 6.84058 17.4999 6.70009L18.6698 5.94009C18.7379 5.89436 18.7936 5.83258 18.8322 5.76021C18.8707 5.68784 18.891 5.6071 18.891 5.5251C18.891 5.44309 18.8707 5.36235 18.8322 5.28998C18.7936 5.21761 18.7379 5.15583 18.6698 5.1101ZM21.6 9.8301L20.6998 9.2501C20.5456 9.14273 20.4134 9.00698 20.3099 8.85009L19.7399 7.9701C19.7086 7.92472 19.6668 7.88762 19.618 7.86199C19.5693 7.83636 19.5149 7.82297 19.4598 7.82297C19.4047 7.82297 19.3504 7.83636 19.3016 7.86199C19.2529 7.88762 19.2111 7.92472 19.1798 7.9701L18.61 8.85009C18.5029 9.00728 18.367 9.14297 18.2098 9.2501L17.3199 9.8301C17.2746 9.86135 17.2374 9.90317 17.2118 9.95195C17.1862 10.0007 17.1727 10.055 17.1727 10.1101C17.1727 10.1652 17.1862 10.2195 17.2118 10.2682C17.2374 10.317 17.2746 10.3588 17.3199 10.3901L18.2098 10.9701C18.3667 11.0735 18.5026 11.2059 18.61 11.3601L19.1798 12.2501C19.2111 12.2955 19.2529 12.3326 19.3016 12.3582C19.3504 12.3838 19.4047 12.3972 19.4598 12.3972C19.5149 12.3972 19.5693 12.3838 19.618 12.3582C19.6668 12.3326 19.7086 12.2955 19.7399 12.2501L20.3099 11.3601C20.4138 11.2063 20.5461 11.0739 20.6998 10.9701L21.6 10.3901C21.6454 10.3588 21.6823 10.317 21.7079 10.2682C21.7335 10.2195 21.747 10.1652 21.747 10.1101C21.747 10.055 21.7335 10.0007 21.7079 9.95195C21.6823 9.90317 21.6454 9.86135 21.6 9.8301Z" fill="black"/>
</svg>
