<svg width="24" height="24" viewBox="0 0 24 24" fill="none" xmlns="http://www.w3.org/2000/svg">
<path d="M19.04 7.71L14.21 2.88C13.65 2.31 12.9 2 12.09 2H7.92004C5.71004 2 3.92004 3.79 3.92004 6V18C3.92004 20.21 5.71004 22 7.92004 22H15.92C18.13 22 19.92 20.21 19.92 18V9.83C19.92 9.03 19.61 8.27 19.04 7.71ZM13.92 5.41L16.51 8H13.92V5.41ZM17.92 18C17.92 19.1 17.02 20 15.92 20H7.92004C6.82004 20 5.92004 19.1 5.92004 18V6C5.92004 4.9 6.82004 4 7.92004 4H11.92V8C11.92 9.1 12.82 10 13.92 10H17.92V18ZM8.92004 12H14.92C15.47 12 15.92 12.45 15.92 13C15.92 13.55 15.47 14 14.92 14H8.92004C8.37004 14 7.92004 13.55 7.92004 13C7.92004 12.45 8.37004 12 8.92004 12ZM15.92 17C15.92 17.55 15.47 18 14.92 18H8.92004C8.37004 18 7.92004 17.55 7.92004 17C7.92004 16.45 8.37004 16 8.92004 16H14.92C15.47 16 15.92 16.45 15.92 17Z" fill="black"/>
</svg>
