<svg width="24" height="24" viewBox="0 0 24 24" fill="none" xmlns="http://www.w3.org/2000/svg">
<path d="M7.92007 4.00977H11.9201V8.00977C11.9201 9.10977 12.8201 10.0098 13.9201 10.0098H17.9201V15.0998L19.9201 17.0998V9.83977C19.9201 9.03977 19.6101 8.28977 19.0401 7.71977L14.2101 2.88977C13.6401 2.31977 12.8901 2.00977 12.0901 2.00977H7.92007C7.05007 2.00977 6.25007 2.29977 5.59007 2.76977L7.04007 4.21977C7.31007 4.08977 7.61007 4.00977 7.92007 4.00977ZM13.9201 5.41977L16.5101 8.00977H13.9201V5.41977ZM20.7101 20.5398L3.46007 3.28977C3.07007 2.89977 2.44007 2.89977 2.05007 3.28977C1.66007 3.67977 1.66007 4.30977 2.05007 4.69977L3.93007 6.57977V17.9998C3.93007 20.2098 5.72007 21.9998 7.93007 21.9998H15.9301C16.8901 21.9998 17.7601 21.6598 18.4401 21.0898L19.3001 21.9498C19.5001 22.1498 19.7501 22.2398 20.0101 22.2398C20.2701 22.2398 20.5201 22.1398 20.7201 21.9498C21.1001 21.5698 21.1001 20.9298 20.7101 20.5398ZM15.9201 20.0098H7.92007C6.82007 20.0098 5.92007 19.1098 5.92007 18.0098V8.58977L9.34007 12.0098H8.92007C8.37007 12.0098 7.92007 12.4598 7.92007 13.0098C7.92007 13.5598 8.37007 14.0098 8.92007 14.0098H11.3401L13.3401 16.0098H8.92007C8.37007 16.0098 7.92007 16.4598 7.92007 17.0098C7.92007 17.5598 8.37007 18.0098 8.92007 18.0098H14.9201C15.0401 18.0098 15.1601 17.9798 15.2701 17.9398L17.0101 19.6798C16.7001 19.8798 16.3301 20.0098 15.9201 20.0098Z" fill="black"/>
</svg>
