<svg width="24" height="24" viewBox="0 0 24 24" fill="none" xmlns="http://www.w3.org/2000/svg">
<path d="M12.3 20.9999C9.80002 20.9999 7.50002 19.9999 5.80002 18.0999C5.30002 17.5999 5.20002 16.7999 5.50002 16.0999C5.80002 15.3999 6.50002 15.0999 7.20002 15.1999C7.60002 15.1999 8.00002 15.1999 8.30002 15.1999C12 14.9999 15 11.9999 15.2 8.2999C15.2 7.8999 15.2 7.4999 15.2 7.1999C15.1 6.4999 15.5 5.7999 16.1 5.4999C16.8 5.1999 17.5 5.2999 18.1 5.7999C20.2 7.6999 21.3 10.5999 20.9 13.4999C20.4 17.2999 17.2 20.4999 13.4 20.9999C13.1 20.9999 12.7 20.9999 12.3 20.9999ZM7.00002 16.6999C6.90002 16.6999 6.80002 16.7999 6.80002 16.7999C6.80002 16.8999 6.70002 16.9999 6.80002 17.0999C8.40002 18.8999 10.8 19.7999 13.2 19.3999C16.4 18.9999 19 16.3999 19.4 13.1999C19.7 10.7999 18.9 8.3999 17.1 6.7999C17 6.6999 16.9 6.6999 16.8 6.7999C16.7 6.7999 16.7 6.8999 16.7 6.9999C16.7 7.3999 16.8 7.8999 16.7 8.3999C16.5 12.7999 12.8 16.4999 8.40002 16.6999C8.00002 16.7999 7.50002 16.7999 7.00002 16.6999C7.10002 16.6999 7.10002 16.6999 7.00002 16.6999ZM11 5.5999L8.80002 5.3999L7.90002 3.3999C7.70002 2.8999 6.90002 2.8999 6.70002 3.3999L5.80002 5.3999L3.70002 5.5999C3.10002 5.6999 2.90002 6.3999 3.30002 6.7999L4.90002 8.2999L4.50002 10.3999C4.40002 10.9999 5.00002 11.3999 5.50002 11.0999L7.30002 9.9999L9.20002 11.0999C9.70002 11.3999 10.3 10.8999 10.2 10.3999L9.80002 8.1999L11.4 6.6999C11.8 6.3999 11.6 5.6999 11 5.5999Z" fill="black"/>
</svg>
