<svg width="24" height="24" viewBox="0 0 24 24" fill="none" xmlns="http://www.w3.org/2000/svg">
<path d="M17.5 4.8999C19.9 6.7999 21.3 9.7999 20.9 13.1999C20.4 17.1999 17.1 20.3999 13.2 20.8999C9.80002 21.2999 6.80002 19.8999 4.90002 17.4999C4.40002 16.7999 4.90002 15.7999 5.80002 15.8999C6.80002 15.9999 7.90002 15.9999 9.10002 15.6999C12.4 14.8999 15 12.2999 15.8 8.9999C16 7.9999 16.1 6.8999 15.9 5.7999C15.8 4.8999 16.8 4.3999 17.5 4.8999ZM11 5.5999L8.80002 5.3999L7.90002 3.3999C7.70002 2.8999 6.90002 2.8999 6.70002 3.3999L5.80002 5.3999L3.70002 5.5999C3.10002 5.6999 2.90002 6.3999 3.30002 6.7999L4.90002 8.2999L4.50002 10.3999C4.40002 10.9999 5.00002 11.3999 5.50002 11.0999L7.30002 9.9999L9.20002 11.0999C9.70002 11.3999 10.3 10.8999 10.2 10.3999L9.80002 8.1999L11.4 6.6999C11.8 6.3999 11.6 5.6999 11 5.5999Z" fill="black"/>
</svg>
