<svg width="24" height="24" viewBox="0 0 24 24" fill="none" xmlns="http://www.w3.org/2000/svg">
<path d="M9 11.8999C9.82843 11.8999 10.5 11.2283 10.5 10.3999C10.5 9.57148 9.82843 8.8999 9 8.8999C8.17157 8.8999 7.5 9.57148 7.5 10.3999C7.5 11.2283 8.17157 11.8999 9 11.8999Z" fill="black"/>
<path d="M14.0001 14.2C13.5001 14.9 12.8001 15.2 12.0001 15.2C11.2001 15.2 10.4001 14.8 10.0001 14.2C9.70012 13.8 9.10012 13.7 8.70012 14C8.30012 14.3 8.20012 14.9 8.50012 15.3C9.30012 16.3 10.6001 17 12.0001 17C13.4001 17 14.7001 16.3 15.5001 15.2C15.8001 14.8 15.7001 14.2 15.3001 13.9C14.9001 13.7 14.3001 13.8 14.0001 14.2Z" fill="black"/>
<path d="M15 11.8999C15.8284 11.8999 16.5 11.2283 16.5 10.3999C16.5 9.57148 15.8284 8.8999 15 8.8999C14.1716 8.8999 13.5 9.57148 13.5 10.3999C13.5 11.2283 14.1716 11.8999 15 11.8999Z" fill="black"/>
<path d="M12 2C6.5 2 2 6.5 2 12C2 17.5 6.5 22 12 22C17.5 22 22 17.5 22 12C22 6.5 17.5 2 12 2ZM12 20C7.6 20 4 16.4 4 12C4 8.3 6.6 5.1 10 4.3C10 4.6 10 5 10.2 5.3C10.5 6.2 11.1 6.9 11.9 7.3C12 7.4 12.2 7.4 12.3 7.4C12.7 7.4 13 7.2 13.2 6.8C13.5 6.3 13.2 5.7 12.7 5.4C12.4 5.2 12.1 4.9 12 4.6C12 4.5 12 4.2 12 4C16.4 4 20 7.6 20 12C20 16.4 16.4 20 12 20Z" fill="black"/>
</svg>
