<svg width="24" height="24" viewBox="0 0 24 24" fill="none" xmlns="http://www.w3.org/2000/svg">
<path fill-rule="evenodd" clip-rule="evenodd" d="M13 6.82C13.12 7.07 13.01 7.37 12.76 7.49C12.51 7.61 12.21 7.5 12.09 7.25C11.98 7 12.09 6.7 12.34 6.58C12.59 6.46 12.89 6.57 13 6.82ZM16.34 12.98C16.07 13.04 15.9 13.31 15.97 13.58C16.03 13.85 16.3 14.02 16.57 13.95C16.84 13.89 17.01 13.62 16.94 13.35C16.88 13.09 16.61 12.92 16.34 12.98ZM22 7V17C22 18.66 20.66 20 19 20H5C3.34 20 2 18.66 2 17V7C2 5.34 3.34 4 5 4H19C20.66 4 22 5.34 22 7ZM10.13 12.41L5.34 10.97C5.08 10.89 4.8 11.04 4.72 11.31L3.28 16.1C3.2 16.36 3.35 16.64 3.62 16.72L8.41 18.16C8.67 18.24 8.95 18.09 9.03 17.82L10.47 13.03C10.55 12.77 10.4 12.49 10.13 12.41ZM12.41 12.6L16.93 10.47C17.18 10.35 17.29 10.05 17.17 9.8L15.04 5.28C14.92 5.03 14.62 4.92 14.37 5.04L9.85 7.17C9.6 7.29 9.5 7.59 9.61 7.84L11.74 12.36C11.86 12.61 12.16 12.72 12.41 12.6ZM20.39 17.15L19.26 12.28C19.2 12.01 18.93 11.84 18.66 11.91L13.79 13.04C13.52 13.1 13.35 13.37 13.42 13.64L14.55 18.51C14.61 18.78 14.88 18.95 15.15 18.88L20.02 17.75C20.28 17.69 20.45 17.42 20.39 17.15ZM7.59 12.19C7.33 12.11 7.05 12.26 6.97 12.53C6.89 12.79 7.04 13.07 7.31 13.15C7.57 13.23 7.85 13.08 7.93 12.81C8 12.55 7.85 12.27 7.59 12.19Z" fill="black"/>
</svg>
