<svg width="24" height="24" viewBox="0 0 24 24" fill="none" xmlns="http://www.w3.org/2000/svg">
<path fill-rule="evenodd" clip-rule="evenodd" d="M18.69 3.30005C17.88 2.86005 16.9 2.91005 16.13 3.41005L12 6.13005L7.88 3.41005C7.11 2.91005 6.13 2.86005 5.31 3.30005C4.5 3.74005 4 4.58005 4 5.50005V15.3201C4 16.1601 4.42 16.9401 5.12 17.4101L10.89 21.21C11.22 21.43 11.61 21.5401 11.99 21.5401C12.37 21.5401 12.76 21.43 13.09 21.21L18.87 17.4101C19.57 16.9501 19.99 16.1701 19.99 15.3201V5.50005C20 4.58005 19.5 3.74005 18.69 3.30005ZM6.22 15.7401C6.08 15.6501 6 15.4901 6 15.3201V5.50005C6 5.23005 6.18 5.10005 6.26 5.06005C6.31 5.04005 6.4 5.00005 6.5 5.00005C6.58 5.00005 6.67 5.02005 6.77 5.08005L12 8.52005C12 11.0601 12 16.9901 12 19.5401L6.22 15.7401Z" fill="black"/>
</svg>
