<svg width="24" height="24" viewBox="0 0 24 24" fill="none" xmlns="http://www.w3.org/2000/svg">
<path d="M10.1399 10.5798C10.3699 10.8098 10.3699 11.1898 10.1399 11.4298C10.0199 11.5498 9.86994 11.6098 9.71994 11.6098C9.56994 11.6098 9.40994 11.5498 9.29994 11.4298L5.79994 7.92985C5.56994 7.69985 5.56994 7.31985 5.79994 7.07985C6.02994 6.84985 6.40994 6.84985 6.64994 7.07985L10.1399 10.5798ZM21.0099 5.91985C20.9399 7.51985 20.5699 10.4698 18.8299 12.2098C17.4799 13.5698 15.6299 13.8898 14.1799 13.8898C13.7299 13.8898 13.3299 13.8598 12.9799 13.8198C12.9799 13.8598 12.9999 13.8898 12.9999 13.9298V19.9298C12.9999 20.4798 12.5499 20.9298 11.9999 20.9298C11.4499 20.9298 10.9999 20.4798 10.9999 19.9298V13.9298C10.9999 13.8898 11.0199 13.8598 11.0199 13.8198C10.6699 13.8598 10.2699 13.8898 9.81994 13.8898C8.36994 13.8898 6.52994 13.5598 5.16994 12.2098C3.42994 10.4698 3.05994 7.51985 2.98994 5.91985C2.97994 5.47985 3.13994 5.04985 3.45994 4.73985C3.76994 4.42985 4.18994 4.23985 4.63994 4.27985C6.23994 4.34985 9.17994 4.71985 10.9299 6.45985C11.3999 6.92985 11.7499 7.46985 11.9999 8.02985C12.2499 7.46985 12.5999 6.92985 13.0699 6.44985C14.8099 4.70985 17.7599 4.33985 19.3599 4.26985C19.8299 4.23985 20.2299 4.41985 20.5399 4.72985C20.8599 5.04985 21.0199 5.47985 21.0099 5.91985ZM11.3999 11.1998C11.3999 11.1798 11.3999 11.1598 11.3999 11.1398C11.3999 9.96985 11.1699 8.38985 10.0799 7.30985C8.61994 5.84985 6.00994 5.53985 4.58994 5.47985C4.57994 5.47985 4.57994 5.47985 4.56994 5.47985C4.42994 5.47985 4.33994 5.54985 4.29994 5.58985C4.25994 5.62985 4.18994 5.72985 4.18994 5.86985C4.24994 7.29985 4.55994 9.90985 6.01994 11.3598C7.47994 12.8198 9.76994 12.7698 11.0099 12.6098C11.1799 12.5898 11.3099 12.4598 11.3299 12.2898C11.3599 12.0198 11.3899 11.6398 11.3999 11.1998ZM18.6199 6.65985C18.3899 6.42985 18.0099 6.42985 17.7699 6.65985L13.4399 10.9998C13.2099 11.2298 13.2099 11.6098 13.4399 11.8498C13.5599 11.9698 13.7099 12.0298 13.8599 12.0298C14.0099 12.0298 14.1699 11.9698 14.2799 11.8498L18.6099 7.51985C18.8599 7.27985 18.8599 6.89985 18.6199 6.65985Z" fill="black"/>
</svg>
