<svg width="24" height="24" viewBox="0 0 24 24" fill="none" xmlns="http://www.w3.org/2000/svg">
<path d="M7.50011 4.67C8.32011 3.97 9.29011 3.46 10.3801 3.2C10.7301 2.46 11.3001 2 12.0001 2C12.7001 2 13.2701 2.46 13.6201 3.2C16.7001 3.93 19.0001 6.7 19.0001 10V12.67C19.0001 13.32 19.2101 13.95 19.6001 14.47L20.6001 15.8C21.1101 16.47 21.1001 17.29 20.7601 17.93L7.50011 4.67ZM13.7301 20H10.2801C9.89011 20 9.65011 20.43 9.85011 20.76C10.2801 21.5 11.0801 22 12.0001 22C12.9201 22 13.7201 21.5 14.1601 20.76C14.3601 20.43 14.1201 20 13.7301 20ZM19.0001 19L6.17011 6.17L4.50011 4.5C4.11011 4.11 3.48011 4.11 3.09011 4.5C2.70011 4.89 2.70011 5.52 3.09011 5.91L5.29011 8.11C5.11011 8.72 5.00011 9.34 5.00011 10V12.67C5.00011 13.32 4.79011 13.95 4.40011 14.47L3.40011 15.8C2.41011 17.12 3.35011 19 5.00011 19H6.00011H9.55011H14.4501H16.1701L18.0801 20.91C18.2801 21.11 18.5301 21.2 18.7901 21.2C19.0501 21.2 19.3001 21.1 19.5001 20.91C19.8901 20.52 19.8901 19.89 19.5001 19.5L19.0001 19Z" fill="black"/>
</svg>
