<svg width="24" height="24" viewBox="0 0 24 24" fill="none" xmlns="http://www.w3.org/2000/svg">
<path d="M13.7301 20C14.1201 20 14.3601 20.43 14.1601 20.76C13.7201 21.5 12.9201 22 12.0001 22C11.0801 22 10.2801 21.5 9.84006 20.76C9.64006 20.43 9.88006 20 10.2701 20H13.7301ZM19.6001 14.47C19.2101 13.95 19.0001 13.32 19.0001 12.67V10C19.0001 6.7 16.7001 3.93 13.6201 3.2C13.2701 2.46 12.7001 2 12.0001 2C11.3001 2 10.7301 2.46 10.3801 3.2C7.30006 3.93 5.00006 6.7 5.00006 10V12.67C5.00006 13.32 4.79006 13.95 4.40006 14.47L3.40006 15.8C2.41006 17.12 3.35006 19 5.00006 19H6.00006H9.55006H14.4501H18.0001H19.0001C20.6501 19 21.5901 17.12 20.6001 15.8L19.6001 14.47Z" fill="black"/>
</svg>
