<svg width="24" height="24" viewBox="0 0 24 24" fill="none" xmlns="http://www.w3.org/2000/svg">
<path d="M7.49011 4.66C8.34011 3.94 9.32011 3.44 10.3701 3.19C10.7301 2.46 11.3101 2 12.0001 2C12.7001 2 13.2701 2.46 13.6301 3.2C16.6901 3.97 19.0001 6.87 19.0001 10.25V13C19.0001 13.43 19.1401 13.86 19.4001 14.2L20.0001 15C20.5401 15.72 20.6301 16.64 20.2901 17.46L17.2901 14.46C17.1101 14 17.0001 13.5 17.0001 13V10.25C17.0001 7.44 14.8301 5.08 12.1501 5C12.1001 5 12.0501 5 12.0001 5C10.8701 5 9.80011 5.39 8.92011 6.09L7.49011 4.66ZM19.5001 19.5C19.8901 19.89 19.8901 20.52 19.5001 20.91C19.3001 21.11 19.0501 21.2 18.7901 21.2C18.5301 21.2 18.2801 21.1 18.0801 20.91L16.1701 19H14.4501H9.55011H6.00011C5.05011 19 4.19011 18.47 3.76011 17.62C3.34011 16.77 3.43011 15.76 4.00011 15L4.60011 14.2C4.86011 13.86 5.00011 13.43 5.00011 13V10C5.00011 9.35 5.10011 8.71 5.27011 8.1L3.09011 5.91C2.70011 5.52 2.70011 4.89 3.09011 4.5C3.48011 4.11 4.11011 4.11 4.50011 4.5L7.62011 7.62L17.0001 17L18.8401 18.84L19.5001 19.5ZM14.1701 17L7.02011 9.84C7.01011 9.9 7.00011 9.95 7.00011 10V13C7.00011 13.86 6.72011 14.71 6.20011 15.4L5.60011 16.2C5.43011 16.42 5.51011 16.64 5.55011 16.72C5.59011 16.81 5.72011 17 6.00011 17H14.1701ZM13.7301 20H10.2801C9.89011 20 9.65011 20.43 9.85011 20.76C10.2801 21.5 11.0801 22 12.0001 22C12.9201 22 13.7201 21.5 14.1601 20.76C14.3601 20.43 14.1201 20 13.7301 20Z" fill="black"/>
</svg>
