<svg width="24" height="24" viewBox="0 0 24 24" fill="none" xmlns="http://www.w3.org/2000/svg">
<path d="M20.0001 15L19.4001 14.2C19.1401 13.86 19.0001 13.43 19.0001 13V10.25C19.0001 6.87 16.6901 3.97 13.6301 3.2C13.2701 2.46 12.7001 2 12.0001 2C11.3101 2 10.7301 2.46 10.3801 3.19C9.16008 3.48 8.05008 4.08 7.13008 4.98C5.75008 6.31 5.00008 8.09 5.00008 10V13C5.00008 13.43 4.86008 13.86 4.60008 14.2L4.00008 15C3.43008 15.76 3.34008 16.77 3.76008 17.62C4.19008 18.47 5.05008 19 6.00008 19H9.55008H14.4501H17.5001H18.0001C18.9501 19 19.8101 18.47 20.2401 17.62C20.6601 16.77 20.5701 15.76 20.0001 15ZM18.4501 16.72C18.4101 16.81 18.2801 17 18.0001 17H6.00008C5.72008 17 5.59008 16.81 5.55008 16.72C5.51008 16.64 5.43008 16.42 5.60008 16.2L6.20008 15.4C6.72008 14.71 7.00008 13.86 7.00008 13V10C7.00008 8.64 7.54008 7.36 8.52008 6.41C9.46008 5.5 10.6901 5 12.0001 5C12.0501 5 12.1001 5 12.1601 5C14.8301 5.08 17.0001 7.44 17.0001 10.25V13C17.0001 13.86 17.2801 14.71 17.8001 15.4L18.4001 16.2C18.5701 16.42 18.4901 16.64 18.4501 16.72ZM13.7301 20C14.1201 20 14.3601 20.43 14.1601 20.76C13.7201 21.5 12.9201 22 12.0001 22C11.0801 22 10.2801 21.5 9.84008 20.76C9.64008 20.43 9.88008 20 10.2701 20H13.7301Z" fill="black"/>
</svg>
