<svg width="24" height="24" viewBox="0 0 24 24" fill="none" xmlns="http://www.w3.org/2000/svg">
<path d="M21.9401 8.65977L21.3901 5.75977C21.0401 3.87977 19.3901 2.50977 17.4701 2.50977H6.45009C4.53009 2.50977 2.88009 3.87977 2.52009 5.76977L1.98009 8.65977C1.80009 9.60977 2.0601 10.5798 2.6701 11.3198C3.02009 11.7498 3.47009 12.0698 3.97009 12.2598V17.4998C3.97009 19.6998 5.76009 21.4898 7.96009 21.4898H15.9601C18.1601 21.4898 19.9501 19.6998 19.9501 17.4998V12.2598C20.4501 12.0698 20.9001 11.7498 21.2501 11.3198C21.8601 10.5798 22.1101 9.60977 21.9401 8.65977ZM12.9501 4.48977H15.0601L15.4901 9.12977C15.5201 9.48977 15.4101 9.81977 15.1601 10.0898C14.9201 10.3598 14.5901 10.5098 14.2201 10.5098C13.5201 10.5098 12.9501 9.93976 12.9501 9.23977V4.48977ZM8.4301 9.11977L8.86009 4.48977H10.9701V9.23977C10.9701 9.93976 10.4001 10.5098 9.70009 10.5098C9.33009 10.5098 9.00009 10.3598 8.7601 10.0898C8.5101 9.81977 8.40009 9.48977 8.4301 9.12977V9.11977ZM3.93009 9.00977L4.47009 6.11977C4.65009 5.16977 5.48009 4.47977 6.45009 4.47977H6.87009L6.45009 8.91977V8.93976L6.41009 9.35977C6.35009 10.0098 5.8201 10.4998 5.17009 10.4998C4.79009 10.4998 4.44009 10.3298 4.20009 10.0498C3.96009 9.75977 3.86009 9.37977 3.93009 9.00977ZM17.9701 17.4898C17.9701 18.5998 17.0701 19.4998 15.9601 19.4998H7.96009C6.85009 19.4998 5.95009 18.5998 5.95009 17.4898V12.3798C6.52009 12.2498 7.03009 11.9598 7.43009 11.5598C8.03009 12.1398 8.85009 12.4798 9.70009 12.4798C10.5501 12.4798 11.3701 12.1298 11.9601 11.5698C12.5501 12.1298 13.3401 12.4798 14.2201 12.4798C15.1001 12.4798 15.8901 12.1398 16.5001 11.5598C16.9001 11.9598 17.4101 12.2498 17.9701 12.3798V17.4898ZM19.7201 10.0498C19.4801 10.3298 19.1301 10.4998 18.7501 10.4998C18.1001 10.4998 17.5701 10.0098 17.5101 9.35977L17.0501 4.47977H17.4701C18.4401 4.47977 19.2701 5.16977 19.4401 6.11977L19.9901 9.00977C20.0501 9.37977 19.9601 9.75977 19.7201 10.0498Z" fill="black"/>
</svg>
