<svg width="24" height="24" viewBox="0 0 24 24" fill="none" xmlns="http://www.w3.org/2000/svg">
<path d="M19.9199 9V18C19.9199 20.21 18.1299 22 15.9199 22H7.91992C5.70992 22 3.91992 20.21 3.91992 18V6C3.91992 3.79 5.70992 2 7.91992 2H12.9199C13.4699 2 13.9199 2.45 13.9199 3C13.9199 3.55 13.4699 4 12.9199 4H7.91992C6.81992 4 5.91992 4.9 5.91992 6V18C5.91992 19.1 6.81992 20 7.91992 20H15.9199C17.0199 20 17.9199 19.1 17.9199 18V9C17.9199 8.45 18.3699 8 18.9199 8C19.4699 8 19.9199 8.45 19.9199 9ZM14.9199 16H8.91992C8.36992 16 7.91992 16.45 7.91992 17C7.91992 17.55 8.36992 18 8.91992 18H14.9199C15.4699 18 15.9199 17.55 15.9199 17C15.9199 16.45 15.4699 16 14.9199 16ZM14.9199 12H8.91992C8.36992 12 7.91992 12.45 7.91992 13C7.91992 13.55 8.36992 14 8.91992 14H14.9199C15.4699 14 15.9199 13.55 15.9199 13C15.9199 12.45 15.4699 12 14.9199 12ZM8.91992 10H9.41992C9.96992 10 10.4199 9.55 10.4199 9C10.4199 8.45 9.96992 8 9.41992 8H8.91992C8.36992 8 7.91992 8.45 7.91992 9C7.91992 9.55 8.36992 10 8.91992 10ZM18.7399 4.88C18.8399 4.98 19.0099 4.98 19.1099 4.88L19.7799 4.21C19.9999 4 19.9999 3.66 19.7899 3.46L18.4899 2.16C18.2799 1.95 17.9499 1.95 17.7399 2.16L17.0699 2.83C16.9699 2.93 16.9699 3.1 17.0699 3.2L18.7399 4.88ZM12.3699 7.63L11.8599 9.43C11.7599 9.78 12.0799 10.1 12.4299 10L14.2299 9.49C14.4099 9.44 14.5799 9.34 14.7199 9.2L17.9199 6.09C18.0299 5.98 18.0499 5.81 17.9499 5.71L16.2299 4C16.1399 3.91 15.9699 3.92 15.8499 4.03L12.6499 7.14C12.5199 7.28 12.4199 7.45 12.3699 7.63Z" fill="black"/>
</svg>
