<svg width="24" height="24" viewBox="0 0 24 24" fill="none" xmlns="http://www.w3.org/2000/svg">
<path d="M13.19 21.01H9.5C7.57 21.01 6 19.44 6 17.51V6.47998C6 4.54998 7.57 2.97998 9.5 2.97998H12.05C14.87 2.97998 17 5.20998 17 8.17998C17 9.34998 16.67 10.4 16.1 11.25C17.55 12.2 18.5 13.84 18.5 15.7C18.5 18.62 16.12 21.01 13.19 21.01ZM9 13.37V17.5C9 17.78 9.22 18 9.5 18H13.19C14.47 18 15.51 16.96 15.51 15.68C15.51 14.4 14.47 13.36 13.19 13.36H9V13.37ZM9 10.37H12.05C13.39 10.37 14 9.22998 14 8.16998C14 7.10998 13.39 5.96998 12.05 5.96998H9.5C9.22 5.97998 9 6.20998 9 6.47998V10.37Z" fill="black"/>
</svg>
