<svg width="24" height="24" viewBox="0 0 24 24" fill="none" xmlns="http://www.w3.org/2000/svg">
<path d="M17.52 20.6102C17.27 20.6102 17.03 20.5502 16.8 20.4202L12 17.8002L7.22 20.4202C6.75 20.6802 6.2 20.6702 5.73 20.4002C5.28 20.1202 5 19.6402 5 19.1102V5.9502C5 4.3002 6.35 2.9502 8 2.9502H16.01C17.66 2.9502 19.01 4.3002 19.01 5.9502V19.1102C19.01 19.6502 18.73 20.1302 18.27 20.4002C18.05 20.5402 17.78 20.6102 17.52 20.6102ZM12 15.7302C12.25 15.7302 12.49 15.7902 12.72 15.9102L17.02 18.2602V5.9502C17.02 5.4002 16.57 4.9502 16.02 4.9502H8C7.45 4.9502 7 5.4002 7 5.9502V18.2602L11.27 15.9202C11.5 15.7902 11.75 15.7302 12 15.7302Z" fill="black"/>
</svg>
