<svg width="24" height="24" viewBox="0 0 24 24" fill="none" xmlns="http://www.w3.org/2000/svg">
<path d="M19.04 3.65979L21.4 4.70979C21.77 4.86979 22 5.22979 22 5.62979V18.7798C22 19.9198 20.77 20.6498 19.77 20.0898L19.29 19.8298C17.57 18.8798 15.47 18.9098 13.79 19.9198L13.75 19.9398C13.42 20.1398 13 19.8998 13 19.5098V4.83979C13 4.65979 13.09 4.49979 13.24 4.40979L13.98 3.96979C15.52 3.04979 17.41 2.92979 19.04 3.65979ZM2 5.62979V18.7798C2 19.9198 3.23 20.6498 4.23 20.0898L4.7 19.8298C6.42 18.8798 8.51 18.9098 10.2 19.9198L10.24 19.9398C10.57 20.1398 11 19.8998 11 19.5098V4.83979C11 4.65979 10.91 4.49979 10.76 4.40979L10.02 3.96979C8.48 3.04979 6.59 2.92979 4.96 3.65979L2.59 4.70979C2.23 4.86979 2 5.22979 2 5.62979Z" fill="black"/>
</svg>
