<svg width="24" height="24" viewBox="0 0 24 24" fill="none" xmlns="http://www.w3.org/2000/svg">
<path d="M11.5001 9.9999C9.6001 9.9999 8.0001 11.5999 8.0001 13.4999C8.0001 15.3999 9.6001 16.9999 11.5001 16.9999C13.4001 16.9999 15.0001 15.3999 15.0001 13.4999C15.0001 11.5999 13.4001 9.9999 11.5001 9.9999ZM11.5001 14.9999C10.7001 14.9999 10.0001 14.2999 10.0001 13.4999C10.0001 12.6999 10.7001 11.9999 11.5001 11.9999C12.3001 11.9999 13.0001 12.6999 13.0001 13.4999C13.0001 14.2999 12.3001 14.9999 11.5001 14.9999ZM20.6001 9.9999L14.2001 4.1999C12.7001 2.7999 10.3001 2.7999 8.8001 4.1999L2.4001 9.9999C1.5001 10.7999 1.2001 12.0999 1.7001 13.1999C2.0001 13.9999 2.7001 14.6999 3.5001 14.8999V16.9999C3.5001 19.1999 5.3001 20.9999 7.5001 20.9999H15.5001C17.7001 20.9999 19.5001 19.1999 19.5001 16.9999V14.8999C20.3001 14.5999 21.0001 13.9999 21.3001 13.1999C21.8001 11.9999 21.5001 10.7999 20.6001 9.9999ZM19.5001 12.3999C19.4001 12.4999 19.2001 12.9999 18.7001 12.9999H18.0001C17.7001 12.9999 17.5001 13.1999 17.5001 13.4999V16.9999C17.5001 18.0999 16.6001 18.9999 15.5001 18.9999H7.5001C6.4001 18.9999 5.5001 18.0999 5.5001 16.9999V13.4999C5.5001 13.1999 5.3001 12.9999 5.0001 12.9999H4.4001C3.8001 12.9999 3.6001 12.5999 3.6001 12.3999C3.6001 12.1999 3.4001 11.7999 3.8001 11.3999L10.2001 5.5999C11.0001 4.8999 12.1001 4.8999 12.9001 5.5999L19.3001 11.3999C19.6001 11.7999 19.5001 12.2999 19.5001 12.3999Z" fill="black"/>
</svg>
