<svg width="24" height="24" viewBox="0 0 24 24" fill="none" xmlns="http://www.w3.org/2000/svg">
<path d="M21.7 10.5998L14 3.4998C12.9 2.3998 11.1 2.3998 9.90003 3.4998L2.20003 10.5998C0.600025 12.0998 1.70003 14.9998 4.00003 14.9998V17.9998C4.00003 19.6998 5.30003 20.9998 7.00003 20.9998H17C18.7 20.9998 20 19.6998 20 17.9998V14.9998C22.3 14.9998 23.4 12.0998 21.7 10.5998ZM12 16.4998C10.3 16.4998 9.00003 15.1998 9.00003 13.4998C9.00003 11.7998 10.3 10.4998 12 10.4998C13.7 10.4998 15 11.7998 15 13.4998C15 15.0998 13.7 16.4998 12 16.4998Z" fill="black"/>
</svg>
