<svg width="24" height="24" viewBox="0 0 24 24" fill="none" xmlns="http://www.w3.org/2000/svg">
<path d="M20.5 6C20.22 6 20 6.22 20 6.5V15.75C20 16.16 19.66 16.5 19.25 16.5C18.84 16.5 18.5 16.16 18.5 15.75V6V4.75V4.5C18.5 3.67 17.83 3 17 3H4.5C3.67 3 3 3.67 3 4.5V17C3 19.21 4.79 21 7 21H17.5H18C20.21 21 22 19.21 22 17V7C22 6.45 21.55 6 21 6H20.5ZM10.4 17.75H7.5C7.09 17.75 6.75 17.41 6.75 17C6.75 16.59 7.09 16.25 7.5 16.25H10.4C10.81 16.25 11.15 16.59 11.15 17C11.15 17.41 10.82 17.75 10.4 17.75ZM14 14.25H7.5C7.09 14.25 6.75 13.91 6.75 13.5C6.75 13.09 7.09 12.75 7.5 12.75H14C14.41 12.75 14.75 13.09 14.75 13.5C14.75 13.91 14.41 14.25 14 14.25ZM13.75 10.25H7.75C7.2 10.25 6.75 9.8 6.75 9.25V7C6.75 6.45 7.2 6 7.75 6H13.75C14.3 6 14.75 6.45 14.75 7V9.25C14.75 9.8 14.3 10.25 13.75 10.25Z" fill="black"/>
</svg>
