<svg width="24" height="24" viewBox="0 0 24 24" fill="none" xmlns="http://www.w3.org/2000/svg">
<path d="M11.9999 11C9.49993 11 7.49993 9 7.49993 6.5C7.49993 4 9.49993 2 11.9999 2C14.4999 2 16.4999 4 16.4999 6.5C16.4999 9 14.4999 11 11.9999 11ZM11.9999 4C10.5999 4 9.49993 5.1 9.49993 6.5C9.49993 7.9 10.5999 9 11.9999 9C13.3999 9 14.4999 7.9 14.4999 6.5C14.4999 5.1 13.3999 4 11.9999 4ZM11.9999 22.2C9.89993 22.2 7.79993 21.9 5.79993 21.4C4.89993 21.2 4.19993 20.6 3.79993 19.8C3.39993 19 3.39993 18.1 3.69993 17.3C4.59993 15.3 6.79993 11.9 11.9999 11.9C17.1999 11.9 19.3999 15.3 20.2999 17.3C20.5999 18.1 20.5999 19 20.1999 19.8C19.7999 20.6 19.0999 21.2 18.1999 21.4C16.1999 22 14.0999 22.2 11.9999 22.2ZM11.9999 14C8.09993 14 6.39993 16.3 5.59993 18.2C5.49993 18.5 5.49993 18.8 5.59993 19C5.69993 19.3 5.99993 19.5 6.29993 19.5C10.0999 20.4 14.0999 20.4 17.7999 19.5C18.0999 19.4 18.2999 19.2 18.4999 19C18.5999 18.7 18.5999 18.4 18.4999 18.2C17.5999 16.3 15.8999 14 11.9999 14Z" fill="black"/>
</svg>
