<svg width="24" height="24" viewBox="0 0 24 24" fill="none" xmlns="http://www.w3.org/2000/svg">
<path d="M20 6H18.5V5C18.5 3.9 17.6 3 16.5 3H5C3.9 3 3 3.9 3 5V17C3 19.2 4.8 21 7 21H17.5C20 21 22 19 22 16.5V8C22 6.9 21.1 6 20 6ZM20 16.5C20 17.9 18.9 19 17.5 19H7C5.9 19 5 18.1 5 17V5H16.5V16C16.5 16.6 16.9 17 17.5 17C18.1 17 18.5 16.6 18.5 16V8H20V16.5ZM14.8 14C14.8 14.4 14.5 14.8 14 14.8H7C6.6 14.8 6.2 14.5 6.2 14C6.2 13.5 6.5 13.2 7 13.2H14C14.4 13.2 14.8 13.6 14.8 14ZM10.8 17C10.8 17.4 10.5 17.8 10 17.8H7C6.6 17.8 6.2 17.5 6.2 17C6.2 16.5 6.5 16.2 7 16.2H10C10.4 16.2 10.8 16.6 10.8 17ZM13.5 6.2H7.5C6.8 6.2 6.3 6.8 6.3 7.4V10.4C6.3 11.1 6.9 11.6 7.5 11.6H13.5C14.2 11.6 14.7 11 14.7 10.4V7.4C14.8 6.8 14.2 6.2 13.5 6.2ZM13.2 10.2H7.8V7.8H13.3V10.2H13.2Z" fill="black"/>
</svg>
