<svg width="24" height="24" viewBox="0 0 24 24" fill="none" xmlns="http://www.w3.org/2000/svg">
<path d="M21 6H20C19.7 6 19.5 6.2 19.5 6.5V16C19.5 16.6 19.1 17 18.5 17C17.9 17 17.5 16.6 17.5 16V4C17.5 3.4 17.1 3 16.5 3H4C3.4 3 3 3.4 3 4V17C3 19.2 4.8 21 7 21H18C20.2 21 22 19.2 22 17V7C22 6.4 21.6 6 21 6ZM9.5 18H6.5C5.9 18 5.5 17.6 5.5 17C5.5 16.4 5.9 16 6.5 16H9.5C10.1 16 10.5 16.4 10.5 17C10.5 17.6 10.1 18 9.5 18ZM13 14H6.5C5.9 14 5.5 13.6 5.5 13C5.5 12.4 5.9 12 6.5 12H13C13.6 12 14 12.4 14 13C14 13.6 13.6 14 13 14ZM14 9.1C14 9.6 13.6 10 13.1 10H6.4C5.9 10 5.5 9.6 5.5 9.1V6.4C5.5 5.9 5.9 5.5 6.4 5.5H13.1C13.6 5.5 14 5.9 14 6.4V9.1Z" fill="black"/>
</svg>
