<svg width="24" height="24" viewBox="0 0 24 24" fill="none" xmlns="http://www.w3.org/2000/svg">
<path d="M19.5 18.0002L15.9 14.4002C16.8 13.2002 17.3 11.8002 17.3 10.2002C17.3 6.3002 14.2 3.2002 10.3 3.2002C6.40005 3.2002 3.30005 6.3002 3.30005 10.2002C3.30005 14.1002 6.40005 17.2002 10.3 17.2002C11.9 17.2002 13.3 16.7002 14.5 15.8002L18.1 19.4002C18.3 19.6002 18.6 19.7002 18.8 19.7002C19 19.7002 19.3 19.6002 19.5 19.4002C19.8 19.1002 19.8 18.4002 19.5 18.0002ZM10.2 15.2002C7.40005 15.2002 5.20005 13.0002 5.20005 10.2002C5.20005 7.4002 7.40005 5.2002 10.2 5.2002C13 5.2002 15.2 7.4002 15.2 10.2002C15.2 13.0002 13 15.2002 10.2 15.2002Z" fill="black"/>
</svg>
