<svg width="24" height="24" viewBox="0 0 24 24" fill="none" xmlns="http://www.w3.org/2000/svg">
<path fill-rule="evenodd" clip-rule="evenodd" d="M8 6.6001C8 6.0501 8.45 5.6001 9 5.6001H20C20.55 5.6001 21 6.0501 21 6.6001C21 7.1501 20.55 7.6001 20 7.6001H9C8.45 7.6001 8 7.1601 8 6.6001ZM4.5 5.1001C3.67 5.1001 3 5.7801 3 6.6001C3 7.4201 3.67 8.1001 4.5 8.1001C5.33 8.1001 6 7.4301 6 6.6001C6 5.7701 5.33 5.1001 4.5 5.1001ZM20 11.0801H9C8.45 11.0801 8 11.5301 8 12.0801C8 12.6301 8.45 13.0801 9 13.0801H20C20.55 13.0801 21 12.6301 21 12.0801C21 11.5301 20.55 11.0801 20 11.0801ZM4.5 10.5801C3.67 10.5801 3 11.2501 3 12.0801C3 12.9101 3.67 13.5801 4.5 13.5801C5.33 13.5801 6 12.9101 6 12.0801C6 11.2501 5.33 10.5801 4.5 10.5801ZM20 16.6601H9C8.45 16.6601 8 17.1101 8 17.6601C8 18.2101 8.45 18.6601 9 18.6601H20C20.55 18.6601 21 18.2101 21 17.6601C21 17.1101 20.55 16.6601 20 16.6601ZM4.5 16.1601C3.67 16.1601 3 16.8301 3 17.6601C3 18.4901 3.67 19.1601 4.5 19.1601C5.33 19.1601 6 18.4901 6 17.6601C6 16.8301 5.33 16.1601 4.5 16.1601Z" fill="black"/>
</svg>
