<svg width="24" height="24" viewBox="0 0 24 24" fill="none" xmlns="http://www.w3.org/2000/svg">
<path d="M18 4.75002H16.55V4.27002C16.55 3.72002 16.1 3.27002 15.55 3.27002C15 3.27002 14.55 3.72002 14.55 4.27002V4.75002H9.44V4.27002C9.44 3.72002 8.99 3.27002 8.44 3.27002C7.89 3.27002 7.44 3.72002 7.44 4.27002V4.75002H6C4.35 4.75002 3 6.09002 3 7.75002V17.75C3 19.4 4.34 20.75 6 20.75H18C19.65 20.75 21 19.41 21 17.75V7.75002C21 6.10002 19.65 4.75002 18 4.75002ZM19 17.75C19 18.3 18.55 18.75 18 18.75H6C5.45 18.75 5 18.3 5 17.75V10.4H19V17.75ZM19 8.41002H5V7.75002C5 7.20002 5.45 6.75002 6 6.75002H7.45V6.77002C7.45 7.32002 7.9 7.77002 8.45 7.77002C9 7.77002 9.45 7.32002 9.45 6.77002V6.75002H14.56V6.77002C14.56 7.32002 15.01 7.77002 15.56 7.77002C16.11 7.77002 16.56 7.32002 16.56 6.77002V6.75002H18C18.55 6.75002 19 7.20002 19 7.75002V8.41002ZM11 12.75C11 12.2 11.45 11.75 12 11.75C12.55 11.75 13 12.2 13 12.75C13 13.3 12.55 13.75 12 13.75C11.45 13.75 11 13.3 11 12.75ZM7.06 12.75C7.06 12.2 7.51 11.75 8.06 11.75C8.61 11.75 9.06 12.2 9.06 12.75C9.06 13.3 8.61 13.75 8.06 13.75C7.51 13.75 7.06 13.3 7.06 12.75ZM7.06 16.3C7.06 15.75 7.51 15.3 8.06 15.3C8.61 15.3 9.06 15.75 9.06 16.3C9.06 16.85 8.61 17.3 8.06 17.3C7.51 17.3 7.06 16.86 7.06 16.3ZM11 16.3C11 15.75 11.45 15.3 12 15.3C12.55 15.3 13 15.75 13 16.3C13 16.85 12.55 17.3 12 17.3C11.45 17.3 11 16.86 11 16.3ZM15.05 12.75C15.05 12.2 15.5 11.75 16.05 11.75C16.6 11.75 17.05 12.2 17.05 12.75C17.05 13.3 16.6 13.75 16.05 13.75C15.5 13.75 15.05 13.3 15.05 12.75ZM15.05 16.3C15.05 15.75 15.5 15.3 16.05 15.3C16.6 15.3 17.05 15.75 17.05 16.3C17.05 16.85 16.6 17.3 16.05 17.3C15.5 17.3 15.05 16.86 15.05 16.3Z" fill="black"/>
</svg>
