<svg width="24" height="24" viewBox="0 0 24 24" fill="none" xmlns="http://www.w3.org/2000/svg">
<path d="M18 4H17C17 3.45 16.55 3 16 3C15.45 3 15 3.45 15 4H9C9 3.45 8.55 3 8 3C7.45 3 7 3.45 7 4H6C3.79 4 2 5.79 2 8V17C2 19.21 3.79 21 6 21H18C20.21 21 22 19.21 22 17V8C22 5.79 20.21 4 18 4ZM20 17C20 18.1 19.1 19 18 19H6C4.9 19 4 18.1 4 17V8C4 6.9 4.9 6 6 6H7V7C7 7.55 7.45 8 8 8C8.55 8 9 7.55 9 7V6H15V7C15 7.55 15.45 8 16 8C16.55 8 17 7.55 17 7V6H18C19.1 6 20 6.9 20 8V17Z" fill="black"/>
<path d="M12.88 8.58C12.51 8.42 12.08 8.51 11.79 8.8L9.79 10.8C9.4 11.19 9.4 11.82 9.79 12.21C10.18 12.6 10.81 12.6 11.2 12.21L11.49 11.92V15.51C11.49 16.06 11.94 16.51 12.49 16.51C13.04 16.51 13.49 16.06 13.49 15.51V9.51C13.5 9.1 13.26 8.73 12.88 8.58Z" fill="black"/>
</svg>
