<svg width="24" height="24" viewBox="0 0 24 24" fill="none" xmlns="http://www.w3.org/2000/svg">
<path d="M19 5.50002H16.86L16 4.33002C15.62 3.82002 15.03 3.52002 14.39 3.52002H9.62C8.98 3.52002 8.38 3.82002 8 4.34002L7.16 5.50002H5C3.34 5.50002 2 6.84002 2 8.50002V17.49C2 19.15 3.34 20.49 5 20.49H19C20.66 20.49 22 19.15 22 17.49V8.50002C22 6.84002 20.66 5.50002 19 5.50002ZM12 17.99C9.24 17.99 7 15.75 7 12.99C7 10.23 9.24 7.99002 12 7.99002C14.76 7.99002 17 10.23 17 12.99C17 15.75 14.76 17.99 12 17.99ZM15 12.99C15 14.65 13.66 15.99 12 15.99C10.34 15.99 9 14.65 9 12.99C9 11.33 10.34 9.99002 12 9.99002C13.66 9.99002 15 11.33 15 12.99Z" fill="black"/>
</svg>
