<svg width="24" height="24" viewBox="0 0 24 24" fill="none" xmlns="http://www.w3.org/2000/svg">
<path d="M19.517 6.39987L16.0253 5.46426L15.9619 4.73843C15.8922 3.94597 15.5108 3.21359 14.9013 2.70231C14.2919 2.19102 13.5044 1.94268 12.7119 2.01187L5.73921 2.62222C5.34674 2.65634 4.96485 2.76747 4.61534 2.94924C4.26583 3.13101 3.95557 3.37987 3.70227 3.68159C3.44897 3.98331 3.25761 4.33199 3.13912 4.70769C3.02062 5.0834 2.97731 5.47877 3.01167 5.87122L3.92573 16.3175C3.99073 17.0643 4.33304 17.7598 4.88524 18.2668C5.43744 18.7738 6.15948 19.0556 6.90913 19.0568C6.998 19.0568 7.08589 19.0529 7.17475 19.045L8.23628 18.9521L15.6235 20.9315C15.8772 20.9994 16.1417 21.0168 16.4021 20.9825C16.6625 20.9482 16.9136 20.863 17.141 20.7317C17.3685 20.6004 17.5678 20.4255 17.7277 20.2171C17.8875 20.0088 18.0048 19.771 18.0727 19.5173L20.9314 8.84939C21.0686 8.33701 20.9967 7.7911 20.7315 7.33173C20.4663 6.87236 20.0294 6.53716 19.517 6.39987ZM13.9746 16.4425L7.00095 17.0529C6.73715 17.0732 6.47573 16.9906 6.27145 16.8224C6.17058 16.7383 6.0874 16.635 6.02672 16.5185C5.96604 16.402 5.92906 16.2746 5.91794 16.1437L5.00386 5.69644C4.98127 5.43246 5.0643 5.1703 5.23474 4.96746C5.40518 4.76462 5.64912 4.63767 5.91304 4.61444L12.8867 4.00409C12.9159 4.00115 12.9462 4.00015 12.9755 4.00015C13.2101 3.99967 13.4373 4.08276 13.6162 4.23453C13.7169 4.31881 13.7999 4.42215 13.8606 4.53862C13.9213 4.65509 13.9583 4.7824 13.9697 4.91324L14.8837 15.3585C14.9062 15.6227 14.8232 15.885 14.6528 16.0881C14.4825 16.2913 14.2386 16.4187 13.9746 16.4425Z" fill="black"/>
</svg>
