<svg width="24" height="24" viewBox="0 0 24 24" fill="none" xmlns="http://www.w3.org/2000/svg">
<path d="M16.22 16.6821H9.80695C9.13569 16.6836 8.48342 16.4594 7.95492 16.0456C7.42643 15.6317 7.05241 15.0522 6.89295 14.4001L4.51395 4.68213H3.19995C2.93473 4.68213 2.68038 4.57677 2.49284 4.38924C2.30531 4.2017 2.19995 3.94735 2.19995 3.68213C2.19995 3.41691 2.30531 3.16256 2.49284 2.97502C2.68038 2.78749 2.93473 2.68213 3.19995 2.68213H5.29995C5.52359 2.68213 5.74077 2.7571 5.91679 2.89505C6.0928 3.033 6.2175 3.22597 6.27095 3.44313L7.08995 6.78713H18.832C19.1462 6.78797 19.4559 6.86286 19.7358 7.00573C20.0157 7.1486 20.2581 7.35543 20.4431 7.60945C20.6282 7.86347 20.7508 8.15752 20.8009 8.46777C20.8511 8.77802 20.8275 9.09572 20.732 9.39513L19.073 14.5951C18.8811 15.2012 18.5011 15.7303 17.988 16.1056C17.475 16.4809 16.8556 16.6828 16.22 16.6821ZM7.57895 8.78713L8.83495 13.9191C8.88806 14.1368 9.01274 14.3304 9.189 14.4687C9.36526 14.6071 9.58288 14.6822 9.80695 14.6821H16.22C16.4326 14.6819 16.6396 14.614 16.811 14.4881C16.9824 14.3622 17.1092 14.185 17.173 13.9821L18.832 8.78213L7.57895 8.78713ZM9.10895 18.0001C8.81228 18.0001 8.52227 18.0881 8.2756 18.2529C8.02892 18.4177 7.83666 18.652 7.72313 18.9261C7.6096 19.2002 7.5799 19.5018 7.63777 19.7928C7.69565 20.0837 7.83851 20.351 8.04829 20.5608C8.25807 20.7706 8.52534 20.9134 8.81632 20.9713C9.10729 21.0292 9.40889 20.9995 9.68298 20.8859C9.95707 20.7724 10.1913 20.5802 10.3562 20.3335C10.521 20.0868 10.609 19.7968 10.609 19.5001C10.609 19.1023 10.4509 18.7208 10.1696 18.4395C9.88831 18.1582 9.50678 18.0001 9.10895 18.0001ZM16.809 18.0001C16.5123 18.0001 16.2223 18.0881 15.9756 18.2529C15.7289 18.4177 15.5367 18.652 15.4231 18.9261C15.3096 19.2002 15.2799 19.5018 15.3378 19.7928C15.3957 20.0837 15.5385 20.351 15.7483 20.5608C15.9581 20.7706 16.2253 20.9134 16.5163 20.9713C16.8073 21.0292 17.1089 20.9995 17.383 20.8859C17.6571 20.7724 17.8913 20.5802 18.0562 20.3335C18.221 20.0868 18.309 19.7968 18.309 19.5001C18.309 19.1023 18.1509 18.7208 17.8696 18.4395C17.5883 18.1582 17.2068 18.0001 16.809 18.0001Z" fill="black"/>
</svg>
