<svg width="24" height="24" viewBox="0 0 24 24" fill="none" xmlns="http://www.w3.org/2000/svg">
<path d="M21.9714 18.0324L13.8514 3.98236C13.0814 2.65236 11.1614 2.65236 10.3914 3.98236L2.27137 18.0324C1.50137 19.3624 2.46137 21.0324 4.00137 21.0324H20.2314C21.7714 21.0324 22.7314 19.3724 21.9714 18.0324ZM10.8714 7.98236C10.8714 7.29236 11.4314 6.73236 12.1214 6.73236C12.8114 6.73236 13.3714 7.29236 13.3714 7.98236V13.4824C13.3714 14.1724 12.8114 14.7324 12.1214 14.7324C11.4314 14.7324 10.8714 14.1724 10.8714 13.4824V7.98236ZM12.1214 18.9824C11.4314 18.9824 10.8714 18.4224 10.8714 17.7324C10.8714 17.0424 11.4314 16.4824 12.1214 16.4824C12.8114 16.4824 13.3714 17.0424 13.3714 17.7324C13.3714 18.4224 12.8114 18.9824 12.1214 18.9824Z" fill="black"/>
</svg>
