<svg width="24" height="24" viewBox="0 0 24 24" fill="none" xmlns="http://www.w3.org/2000/svg">
<path d="M18.3599 19.9898H5.63989C3.42989 19.9898 1.63989 18.1998 1.63989 15.9898V8.00977C1.63989 5.79977 3.42989 4.00977 5.63989 4.00977H18.3599C20.5699 4.00977 22.3599 5.79977 22.3599 8.00977V15.9898C22.3599 18.1898 20.5699 19.9898 18.3599 19.9898ZM5.63989 6.00977C4.53989 6.00977 3.63989 6.90977 3.63989 8.00977V15.9898C3.63989 17.0898 4.53989 17.9898 5.63989 17.9898H18.3599C19.4599 17.9898 20.3599 17.0898 20.3599 15.9898V8.00977C20.3599 6.90977 19.4599 6.00977 18.3599 6.00977H5.63989ZM10.8799 15.3798C10.5399 15.3798 10.2099 15.2598 9.92989 15.0298L7.83989 13.1998C7.41989 12.8398 7.37989 12.2098 7.73989 11.7898C8.09989 11.3698 8.72989 11.3298 9.14989 11.6898L10.8499 13.1698L14.6699 9.29977C15.0599 8.90977 15.6899 8.89977 16.0899 9.28977C16.4799 9.67977 16.4899 10.3098 16.0999 10.7098L11.9099 14.9598C11.6299 15.2298 11.2499 15.3798 10.8799 15.3798Z" fill="black"/>
</svg>
