<svg width="24" height="24" viewBox="0 0 24 24" fill="none" xmlns="http://www.w3.org/2000/svg">
<path d="M12 2C6.49 2 2 6.49 2 12C2 17.51 6.49 22 12 22C17.51 22 22 17.51 22 12C22 6.49 17.51 2 12 2ZM12 20C7.59 20 4 16.41 4 12C4 7.59 7.59 4 12 4C16.41 4 20 7.59 20 12C20 16.41 16.41 20 12 20ZM17.18 8.77C17.59 9.14 17.61 9.78 17.24 10.18L11.89 15.97C11.5 16.4 10.96 16.62 10.42 16.62C9.96 16.62 9.5 16.46 9.12 16.14L6.35 13.77C5.93 13.41 5.88 12.78 6.24 12.36C6.6 11.94 7.23 11.89 7.65 12.25L10.42 14.62L15.77 8.83C16.14 8.42 16.77 8.39 17.18 8.77Z" fill="black"/>
</svg>
