<svg width="24" height="24" viewBox="0 0 24 24" fill="none" xmlns="http://www.w3.org/2000/svg">
<path d="M20.81 4.26L19.34 3.6C17.53 2.8 15.46 2.8 13.65 3.6L12 4.34L10.34 3.6C8.53 2.8 6.46 2.8 4.65 3.6L3.19 4.26C2.47 4.58 2 5.29 2 6.08V17.89C2 18.57 2.34 19.2 2.91 19.57C3.48 19.94 4.19 20 4.81 19.72L5.47 19.43C6.76 18.86 8.24 18.86 9.53 19.43L11.19 20.17C11.45 20.29 11.73 20.34 12 20.34C12.28 20.34 12.55 20.28 12.81 20.17L14.47 19.43C15.76 18.86 17.24 18.86 18.53 19.43L19.19 19.72C19.81 19.99 20.52 19.94 21.09 19.57C21.66 19.2 22 18.57 22 17.89V6.08C22 5.29 21.53 4.58 20.81 4.26ZM7.5 17C6.53 17 5.56 17.2 4.66 17.6L4 17.89V6.08L5.47 5.43C6.76 4.86 8.24 4.86 9.53 5.43L11 6.08V17.89L10.34 17.6C9.44 17.2 8.47 17 7.5 17ZM19.34 17.6C17.53 16.8 15.46 16.8 13.65 17.6L13 17.89V6.08L14.47 5.43C15.76 4.86 17.24 4.86 18.53 5.43L20 6.08V17.89L19.34 17.6ZM9.75 8.5C9.75 8.91 9.41 9.25 9 9.25H6C5.59 9.25 5.25 8.91 5.25 8.5C5.25 8.09 5.59 7.75 6 7.75H9C9.41 7.75 9.75 8.09 9.75 8.5ZM9.75 11.5C9.75 11.91 9.41 12.25 9 12.25H6C5.59 12.25 5.25 11.91 5.25 11.5C5.25 11.09 5.59 10.75 6 10.75H9C9.41 10.75 9.75 11.09 9.75 11.5ZM9.75 14.5C9.75 14.91 9.41 15.25 9 15.25H6C5.59 15.25 5.25 14.91 5.25 14.5C5.25 14.09 5.59 13.75 6 13.75H9C9.41 13.75 9.75 14.09 9.75 14.5ZM18.75 8.5C18.75 8.91 18.41 9.25 18 9.25H15C14.59 9.25 14.25 8.91 14.25 8.5C14.25 8.09 14.59 7.75 15 7.75H18C18.41 7.75 18.75 8.09 18.75 8.5ZM18.75 11.5C18.75 11.91 18.41 12.25 18 12.25H15C14.59 12.25 14.25 11.91 14.25 11.5C14.25 11.09 14.59 10.75 15 10.75H18C18.41 10.75 18.75 11.09 18.75 11.5ZM18.75 14.5C18.75 14.91 18.41 15.25 18 15.25H15C14.59 15.25 14.25 14.91 14.25 14.5C14.25 14.09 14.59 13.75 15 13.75H18C18.41 13.75 18.75 14.09 18.75 14.5Z" fill="black"/>
</svg>
