<svg width="24" height="24" viewBox="0 0 24 24" fill="none" xmlns="http://www.w3.org/2000/svg">
<path d="M19.9999 13.1001C19.8028 13.1001 19.6077 13.0612 19.4256 12.9857C19.2435 12.9102 19.0782 12.7995 18.9389 12.6601L11.9999 5.72109L5.06088 12.6601C4.92162 12.7994 4.75627 12.91 4.57428 12.9854C4.3923 13.0608 4.19724 13.0997 4.00024 13.0997C3.60238 13.0998 3.22078 12.9419 2.93938 12.6606C2.65799 12.3793 2.49985 11.9978 2.49976 11.5999C2.49966 11.2021 2.65762 10.8205 2.93888 10.5391L10.2319 3.24609C10.7015 2.77888 11.337 2.5166 11.9994 2.5166C12.6618 2.5166 13.2973 2.77888 13.7669 3.24609L21.0609 10.5401C21.2705 10.7499 21.4131 11.0172 21.4709 11.3081C21.5286 11.599 21.4988 11.9004 21.3853 12.1744C21.2717 12.4484 21.0795 12.6825 20.8329 12.8473C20.5863 13.0121 20.2964 13.1 19.9999 13.1001ZM21.0609 21.6461C21.3421 21.3648 21.5001 20.9833 21.5001 20.5856C21.5001 20.1878 21.3421 19.8064 21.0609 19.5251L13.7679 12.2321C13.5357 11.9999 13.2601 11.8157 12.9567 11.69C12.6534 11.5643 12.3282 11.4996 11.9999 11.4996C11.6715 11.4996 11.3464 11.5643 11.043 11.69C10.7397 11.8157 10.464 11.9999 10.2319 12.2321L2.93888 19.5251C2.65762 19.8065 2.49966 20.1881 2.49976 20.5859C2.49985 20.9838 2.65799 21.3653 2.93938 21.6466C3.22078 21.9279 3.60238 22.0858 4.00024 22.0857C4.39809 22.0856 4.77962 21.9275 5.06088 21.6461L11.9999 14.7071L18.9389 21.6461C19.0782 21.7855 19.2436 21.8961 19.4256 21.9715C19.6077 22.0469 19.8028 22.0858 19.9999 22.0858C20.1969 22.0858 20.3921 22.0469 20.5741 21.9715C20.7562 21.8961 20.9216 21.7855 21.0609 21.6461Z" fill="black"/>
</svg>
