<svg width="24" height="24" viewBox="0 0 24 24" fill="none" xmlns="http://www.w3.org/2000/svg">
<path d="M12 2C10.0222 2 8.08883 2.58649 6.44434 3.6853C4.79985 4.78412 3.51811 6.3459 2.76123 8.17316C2.00436 10.0004 1.80629 12.0111 2.19214 13.9509C2.578 15.8907 3.53043 17.6725 4.92896 19.071C6.32748 20.4696 8.10927 21.422 10.0491 21.8079C11.9889 22.1937 13.9996 21.9956 15.8269 21.2388C17.6542 20.4819 19.2159 19.2002 20.3147 17.5557C21.4135 15.9112 22 13.9778 22 12C21.9969 9.34879 20.9423 6.80706 19.0676 4.93237C17.1929 3.05768 14.6512 2.00311 12 2ZM4 12C3.99747 10.5029 4.41587 9.03531 5.20728 7.76453C5.99869 6.49374 7.13114 5.47098 8.47583 4.81293C9.82053 4.15487 11.3232 3.88799 12.8123 4.04279C14.3013 4.19758 15.7169 4.76779 16.8975 5.68835L5.68848 16.8976C4.59461 15.4994 4.0002 13.7753 4 12ZM12 20C10.2248 19.9998 8.50076 19.4054 7.10254 18.3116L18.3115 7.10242C19.2321 8.28299 19.8025 9.69856 19.9573 11.1876C20.1121 12.6767 19.8453 14.1793 19.1873 15.524C18.5292 16.8687 17.5064 18.0014 16.2356 18.7928C14.9648 19.5842 13.4971 20.0025 12 20Z" fill="black"/>
</svg>
