<svg width="24" height="24" viewBox="0 0 24 24" fill="none" xmlns="http://www.w3.org/2000/svg">
<path d="M9.39005 11.8998C9.39005 10.4598 10.5601 9.28982 12.0001 9.28982C13.4401 9.28982 14.6101 10.4598 14.6101 11.8998C14.6101 13.3398 13.4401 14.5098 12.0001 14.5098C10.5601 14.5098 9.39005 13.3398 9.39005 11.8998ZM12.0001 15.4698C9.07005 15.4698 7.62005 16.9898 7.06005 18.6398C6.85005 19.2598 7.22005 19.9298 7.85005 20.1098C10.5601 20.8698 13.4401 20.8698 16.1501 20.1098C16.7801 19.9298 17.1501 19.2598 16.9401 18.6398C16.3801 16.9798 14.9301 15.4698 12.0001 15.4698ZM19.0001 14.2898C20.1501 14.2898 21.0901 13.3498 21.0901 12.1998C21.0901 11.0498 20.1501 10.1098 19.0001 10.1098C17.8501 10.1098 16.9101 11.0498 16.9101 12.1998C16.9101 13.3498 17.8501 14.2898 19.0001 14.2898ZM22.9501 17.5898C22.5001 16.2598 21.3501 15.0498 19.0001 15.0498C18.0001 15.0498 17.23 15.2798 16.63 15.6298C17.6301 16.5698 18.3401 17.8098 18.6201 19.2098C19.8701 19.2498 21.1201 19.1098 22.3301 18.7698C22.8301 18.6298 23.1201 18.0898 22.9501 17.5898ZM5.00005 14.2898C6.15005 14.2898 7.09005 13.3498 7.09005 12.1998C7.09005 11.0498 6.15005 10.1098 5.00005 10.1098C3.85005 10.1098 2.91005 11.0498 2.91005 12.1998C2.91005 13.3498 3.85005 14.2898 5.00005 14.2898ZM5.00005 15.0498C2.65005 15.0498 1.50005 16.2598 1.05005 17.5898C0.880051 18.0898 1.18005 18.6198 1.68005 18.7698C2.89005 19.1098 4.14005 19.2498 5.39005 19.2098C5.66005 17.8098 6.37005 16.5698 7.38005 15.6298C6.77005 15.2798 6.00005 15.0498 5.00005 15.0498ZM12.0001 6.31982C12.2801 6.31982 12.5001 6.09982 12.5001 5.81982V3.81982C12.5001 3.53982 12.2801 3.31982 12.0001 3.31982C11.7201 3.31982 11.5001 3.53982 11.5001 3.81982V5.81982C11.5001 6.08982 11.7201 6.31982 12.0001 6.31982ZM17.8601 7.12982L19.2701 5.71982C19.4701 5.51982 19.4701 5.20982 19.2701 5.00982C19.0701 4.80982 18.7601 4.80982 18.5601 5.00982L17.1501 6.41982C16.9501 6.61982 16.9501 6.92982 17.1501 7.12982C17.3501 7.31982 17.6601 7.31982 17.8601 7.12982ZM6.14005 7.12982C6.34005 7.32982 6.65005 7.32982 6.85005 7.12982C7.05005 6.92982 7.05005 6.61982 6.85005 6.41982L5.43005 5.00982C5.23005 4.80982 4.92005 4.80982 4.72005 5.00982C4.52005 5.20982 4.52005 5.51982 4.72005 5.71982L6.14005 7.12982Z" fill="black"/>
</svg>
