<svg width="24" height="24" viewBox="0 0 24 24" fill="none" xmlns="http://www.w3.org/2000/svg">
<path d="M20.96 12.7346V12.2346C20.96 12.8446 20.96 14.4246 20.96 14.4946C20.96 17.7146 17.01 20.2446 11.96 20.2446C6.90996 20.2446 2.95996 17.7146 2.95996 14.4946C2.95996 14.2046 2.95996 13.6046 2.95996 12.7346C3.15996 15.8346 7.04996 17.7346 11.96 17.7346C16.87 17.7346 20.76 15.8346 20.96 12.7346ZM20.96 8.99463C20.96 9.24463 20.96 10.2346 20.96 10.4946C20.96 13.7146 17.01 16.2446 11.96 16.2446C6.90996 16.2446 2.95996 13.7146 2.95996 10.4946C2.95996 10.2346 2.95996 9.24463 2.95996 8.99463C2.95996 5.91463 6.90996 3.49463 11.96 3.49463C17.01 3.49463 20.96 5.90463 20.96 8.99463ZM19.46 8.99463C19.46 6.82463 16.03 4.99463 11.96 4.99463C7.88996 4.99463 4.45996 6.82463 4.45996 8.99463C4.45996 11.1646 7.88996 12.9946 11.96 12.9946C16.03 12.9946 19.46 11.1546 19.46 8.99463ZM17.46 8.99463C17.46 7.39463 15.1 6.18463 11.96 6.18463C8.81996 6.18463 6.45996 7.39463 6.45996 8.99463C6.45996 10.5946 8.81996 11.8046 11.96 11.8046C15.1 11.8046 17.46 10.5946 17.46 8.99463ZM16.46 8.99463C16.46 9.84463 14.54 10.8046 11.96 10.8046C9.37996 10.8046 7.45996 9.84463 7.45996 8.99463C7.45996 8.13463 9.37996 7.18463 11.96 7.18463C14.54 7.18463 16.46 8.13463 16.46 8.99463Z" fill="black"/>
</svg>
