<svg width="24" height="24" viewBox="0 0 24 24" fill="none" xmlns="http://www.w3.org/2000/svg">
<path d="M15.04 21.42C14.72 21.42 14.41 21.32 14.14 21.12L9.95 17.98H6C3.79 17.98 2 16.19 2 13.98V8C2 5.79 3.79 4 6 4H18C20.21 4 22 5.79 22 8V13.97C22 16.18 20.21 17.97 18 17.97H16.54V19.91C16.54 20.48 16.22 21 15.71 21.25C15.5 21.37 15.27 21.42 15.04 21.42ZM6 6C4.9 6 4 6.9 4 8V13.97C4 15.07 4.9 15.97 6 15.97H10.28C10.5 15.97 10.71 16.04 10.88 16.17L14.54 18.91V16.97C14.54 16.42 14.99 15.97 15.54 15.97H18C19.1 15.97 20 15.07 20 13.97V8C20 6.9 19.1 6 18 6H6Z" fill="black"/>
</svg>
