<svg width="24" height="24" viewBox="0 0 24 24" fill="none" xmlns="http://www.w3.org/2000/svg">
<path d="M18.9927 4.00684H8.99268C8.19703 4.00685 7.43394 4.32289 6.87134 4.8855C6.30873 5.4481 5.99269 6.21119 5.99268 7.00684V9.99976H4.99292C4.59895 9.99975 4.20895 10.0774 3.84497 10.2281C3.48099 10.3789 3.15016 10.5998 2.87158 10.8784C2.593 11.157 2.37195 11.4877 2.22119 11.8517C2.07043 12.2157 1.99291 12.6058 1.99292 12.9998V15.9998C1.99292 16.7954 2.30902 17.5584 2.87158 18.121C3.43414 18.6836 4.19707 18.9997 4.99268 18.9998V20.1689C4.99269 20.2707 5.02386 20.37 5.08179 20.4536C5.13972 20.5373 5.22166 20.6013 5.31689 20.6371C5.41213 20.6729 5.51607 20.6787 5.61475 20.6539C5.71342 20.6291 5.80213 20.5748 5.86914 20.4983L7.18018 18.9998H10.9929C11.7886 18.9997 12.5517 18.6837 13.1143 18.1211C13.6769 17.5585 13.9929 16.7954 13.9929 15.9998V14.9998H16.7983L19.1504 17.2087C19.2215 17.2755 19.3106 17.32 19.4067 17.3368C19.5028 17.3536 19.6016 17.342 19.6912 17.3032C19.7807 17.2645 19.8568 17.2003 19.9104 17.1188C19.964 17.0372 19.9927 16.9418 19.9927 16.8442V14.816C20.5764 14.6111 21.082 14.2302 21.4402 13.7258C21.7984 13.2215 21.9915 12.6184 21.9927 11.9998V7.00684C21.9927 6.61287 21.9149 6.22274 21.7642 5.85876C21.6134 5.49479 21.3926 5.16408 21.114 4.8855C20.8354 4.60692 20.5046 4.386 20.1406 4.23523C19.7767 4.08446 19.3866 4.00684 18.9927 4.00684ZM10.4927 8.5033C10.6905 8.5033 10.8839 8.56199 11.0483 8.67188C11.2128 8.78176 11.3408 8.93788 11.4165 9.12061C11.4922 9.30333 11.512 9.50438 11.4734 9.69836C11.4348 9.89235 11.3396 10.0706 11.1997 10.2104C11.0599 10.3503 10.8817 10.4455 10.6877 10.4841C10.4938 10.5227 10.2928 10.5028 10.1101 10.4271C9.92738 10.3514 9.77101 10.2233 9.66113 10.0588C9.55125 9.89439 9.49268 9.70108 9.49268 9.5033C9.49265 9.37197 9.5186 9.24194 9.56885 9.12061C9.61909 8.99927 9.69254 8.88901 9.7854 8.79614C9.87826 8.70328 9.98853 8.62959 10.1099 8.57935C10.2312 8.5291 10.3613 8.50327 10.4927 8.5033ZM12.4929 15.9998C12.4925 16.3974 12.3344 16.7787 12.0532 17.0599C11.772 17.3411 11.3906 17.4993 10.9929 17.4998H4.99292C4.59523 17.4993 4.21407 17.3411 3.93286 17.0599C3.65165 16.7787 3.49335 16.3974 3.49292 15.9998V12.9998C3.49335 12.6021 3.65165 12.2208 3.93286 11.9396C4.21407 11.6584 4.59523 11.5002 4.99292 11.4998H5.99268V11.9998C5.99269 12.7954 6.30873 13.5585 6.87134 14.1211C7.43394 14.6837 8.19703 14.9997 8.99268 14.9998H12.4929V15.9998ZM13.9927 10.5033C13.7949 10.5033 13.6015 10.4446 13.437 10.3347C13.2726 10.2248 13.1445 10.0687 13.0688 9.88599C12.9932 9.70326 12.9734 9.50221 13.012 9.30823C13.0505 9.11425 13.1458 8.936 13.2856 8.79614C13.4255 8.65629 13.6036 8.56105 13.7976 8.52246C13.9916 8.48388 14.1925 8.50378 14.3752 8.57947C14.558 8.65516 14.7143 8.7833 14.8242 8.94775C14.9341 9.1122 14.9927 9.30551 14.9927 9.5033C14.9927 9.63462 14.9668 9.76466 14.9165 9.88599C14.8662 10.0073 14.7926 10.1176 14.6997 10.2104C14.6068 10.3033 14.4966 10.3769 14.3752 10.4271C14.2539 10.4774 14.124 10.5033 13.9927 10.5033ZM17.4927 10.5033C17.2949 10.5033 17.1015 10.4446 16.937 10.3347C16.7726 10.2248 16.6445 10.0687 16.5688 9.88599C16.4932 9.70326 16.4734 9.50221 16.512 9.30823C16.5505 9.11425 16.6458 8.936 16.7856 8.79614C16.9255 8.65629 17.1036 8.56105 17.2976 8.52246C17.4916 8.48388 17.6925 8.50378 17.8752 8.57947C18.058 8.65516 18.2143 8.7833 18.3242 8.94775C18.4341 9.1122 18.4927 9.30551 18.4927 9.5033C18.4927 9.63462 18.4668 9.76466 18.4165 9.88599C18.3662 10.0073 18.2926 10.1176 18.1997 10.2104C18.1068 10.3033 17.9966 10.3769 17.8752 10.4271C17.7539 10.4774 17.624 10.5033 17.4927 10.5033Z" fill="black"/>
</svg>
