<svg width="24" height="24" viewBox="0 0 24 24" fill="none" xmlns="http://www.w3.org/2000/svg">
<path d="M9.05 10.99C9.05 11.54 8.6 11.99 8.05 11.99C7.5 11.99 7.05 11.54 7.05 10.99C7.05 10.44 7.5 9.99 8.05 9.99C8.6 9.99 9.05 10.43 9.05 10.99ZM12.05 9.99C11.5 9.99 11.05 10.44 11.05 10.99C11.05 11.54 11.5 11.99 12.05 11.99C12.6 11.99 13.05 11.54 13.05 10.99C13.05 10.44 12.6 9.99 12.05 9.99ZM20 10.79V13.97C20 15.07 19.1 15.97 18 15.97H15.54C14.99 15.97 14.54 16.42 14.54 16.97V18.91L10.88 16.17C10.71 16.04 10.5 15.97 10.28 15.97H6C4.9 15.97 4 15.07 4 13.97V8C4 6.9 4.9 6 6 6H17.28L18.59 4.7L19.11 4.18C18.75 4.07 18.39 4 18 4H6C3.79 4 2 5.79 2 8V13.97C2 16.18 3.79 17.97 6 17.97H9.95L14.14 21.11C14.41 21.31 14.72 21.41 15.04 21.41C15.27 21.41 15.5 21.36 15.71 21.25C16.22 21 16.54 20.48 16.54 19.91V17.97H18C20.21 17.97 22 16.18 22 13.97V8.79L20 10.79ZM22.8 5.88L22.46 6.22C22.26 6.42 21.95 6.42 21.75 6.22L20.83 5.3C20.63 5.1 20.63 4.79 20.83 4.59L21.17 4.25C21.37 4.05 21.68 4.05 21.88 4.25L22.8 5.17C22.99 5.37 22.99 5.68 22.8 5.88ZM15.48 9.93L15.07 11.35C14.96 11.73 15.31 12.08 15.69 11.97L17.11 11.56L20.93 7.74C21.13 7.54 21.13 7.23 20.93 7.03L20 6.11C19.8 5.91 19.49 5.91 19.29 6.11L15.48 9.93Z" fill="black"/>
</svg>
