<svg width="24" height="24" viewBox="0 0 24 24" fill="none" xmlns="http://www.w3.org/2000/svg">
<path d="M19.6201 3.6499H8.62012C8.49012 3.6499 8.37012 3.6699 8.25012 3.6999L19.1201 14.9399V13.6499H19.6201C20.4501 13.6499 21.1201 12.9799 21.1201 12.1499V5.1499C21.1201 4.3199 20.4501 3.6499 19.6201 3.6499ZM14.3701 9.2799C13.8101 9.2799 13.3701 8.8299 13.3701 8.2799C13.3701 7.7199 13.8101 7.2799 14.3701 7.2799C14.9201 7.2799 15.3701 7.7199 15.3701 8.2799C15.3701 8.8299 14.9201 9.2799 14.3701 9.2799ZM17.8701 9.2799C17.3101 9.2799 16.8701 8.8299 16.8701 8.2799C16.8701 7.7199 17.3101 7.2799 17.8701 7.2799C18.4201 7.2799 18.8701 7.7199 18.8701 8.2799C18.8701 8.8299 18.4201 9.2799 17.8701 9.2799ZM18.4201 17.0799L15.1201 13.6799V13.6699L10.8701 9.2799L9.87012 8.2499L7.12012 5.3999L5.87012 4.1099C5.48012 3.7299 4.86012 3.7399 4.47012 4.1099C4.08012 4.4999 4.07012 5.1299 4.45012 5.5299L7.12012 8.2799V8.2899V8.6499H4.62012C3.79012 8.6499 3.12012 9.3199 3.12012 10.1499V16.1499C3.12012 16.9799 3.79012 17.6499 4.62012 17.6499H5.12012V18.8599C5.12012 19.2999 5.66012 19.5199 5.97012 19.2099L7.53012 17.6499H13.6201C14.3301 17.6499 14.9201 17.1699 15.0701 16.5099L17.0001 18.4999C17.2001 18.6999 17.4601 18.7999 17.7201 18.7999C17.9701 18.7999 18.2201 18.7099 18.4101 18.5199C18.8101 18.1299 18.8201 17.4999 18.4301 17.0999L18.4201 17.0799ZM13.6201 15.6499C13.6201 15.9299 13.3901 16.1499 13.1201 16.1499H5.12012C4.84012 16.1499 4.62012 15.9299 4.62012 15.6499V10.6499C4.62012 10.3699 4.84012 10.1499 5.12012 10.1499H7.12012V12.1499C7.12012 12.9799 7.79012 13.6499 8.62012 13.6499H12.3101L13.6201 15.0099V15.6499Z" fill="black"/>
</svg>
