<svg width="24" height="24" viewBox="0 0 24 24" fill="none" xmlns="http://www.w3.org/2000/svg">
<path d="M16.4575 14.9999H16.4592L11.4258 9.83485L11.4253 9.83656L10.1863 8.56532L10.1882 8.56495L6.74829 5.03516L6.74707 5.03626L5.87207 4.13856C5.78064 4.04342 5.67127 3.96737 5.55029 3.91468C5.42932 3.862 5.29917 3.83381 5.16724 3.83167C5.0353 3.82954 4.90435 3.85348 4.78174 3.90223C4.65912 3.95098 4.54734 4.02347 4.45288 4.11561C4.35843 4.20775 4.28298 4.31773 4.2312 4.4391C4.17942 4.56046 4.15227 4.69082 4.15112 4.82276C4.14998 4.95471 4.17495 5.08565 4.22461 5.20789C4.27427 5.33014 4.34759 5.44128 4.44043 5.53504L5.99268 7.12782V9.99989H4.99292C4.59895 9.99988 4.20895 10.0775 3.84497 10.2283C3.48099 10.379 3.15016 10.6 2.87158 10.8785C2.593 11.1571 2.3722 11.4878 2.22144 11.8518C2.07068 12.2158 1.99291 12.6059 1.99292 12.9999V15.9999C1.99292 16.7955 2.30902 17.5585 2.87158 18.1211C3.43414 18.6837 4.19707 18.9998 4.99268 18.9999V20.1691C4.99269 20.2708 5.02386 20.3701 5.08179 20.4537C5.13972 20.5374 5.22166 20.6014 5.31689 20.6372C5.41213 20.673 5.51607 20.6789 5.61475 20.6541C5.71342 20.6293 5.80213 20.575 5.86914 20.4984L7.18018 18.9999H10.9929C11.7886 18.9999 12.5517 18.6838 13.1143 18.1212C13.6769 17.5586 13.9929 16.7955 13.9929 15.9999V15.3364L17.5195 18.955C17.611 19.0501 17.7203 19.1262 17.8413 19.1788C17.9623 19.2315 18.0924 19.2598 18.2244 19.262C18.3563 19.2641 18.4875 19.24 18.6101 19.1913C18.7327 19.1425 18.8445 19.07 18.939 18.9779C19.0334 18.8858 19.1086 18.7758 19.1604 18.6544C19.2122 18.5331 19.2393 18.4027 19.2405 18.2708C19.2416 18.1388 19.2167 18.008 19.167 17.8858C19.1173 17.7635 19.044 17.6522 18.9512 17.5585L16.4575 14.9999ZM12.4929 15.9999C12.4925 16.3976 12.3344 16.7789 12.0532 17.0601C11.772 17.3413 11.3906 17.4995 10.9929 17.4999H4.99292C4.59523 17.4995 4.21407 17.3413 3.93286 17.0601C3.65165 16.7789 3.49335 16.3976 3.49292 15.9999V12.9999C3.49335 12.6022 3.65165 12.2209 3.93286 11.9397C4.21407 11.6585 4.59523 11.5003 4.99292 11.4999H5.99268V11.9999C5.99269 12.7955 6.30873 13.5586 6.87134 14.1212C7.43394 14.6838 8.19703 14.9999 8.99268 14.9999H12.4929V15.9999ZM18.9927 4.00697H8.99268C8.85529 4.01241 8.71847 4.02767 8.58325 4.05262L13.2532 8.84437C13.3451 8.73819 13.4587 8.6528 13.5862 8.594C13.7137 8.53521 13.8522 8.50436 13.9927 8.50343C14.124 8.5034 14.2542 8.52923 14.3755 8.57948C14.4968 8.62972 14.6071 8.70341 14.7 8.79627C14.7928 8.88914 14.8663 8.9994 14.9165 9.12074C14.9668 9.24207 14.9927 9.3721 14.9927 9.50343C14.9914 9.64803 14.9582 9.79058 14.8955 9.92091C14.8328 10.0512 14.7423 10.1661 14.6301 10.2575L19.9927 15.7601V14.816C20.5764 14.6111 21.082 14.2302 21.4402 13.7258C21.7984 13.2215 21.9915 12.6185 21.9927 11.9999V7.00697C21.9927 6.613 21.9152 6.22287 21.7644 5.8589C21.6136 5.49492 21.3926 5.1642 21.114 4.88563C20.8354 4.60706 20.5046 4.38612 20.1406 4.23536C19.7766 4.0846 19.3866 4.00696 18.9927 4.00697ZM17.4927 10.5034C17.2949 10.5034 17.1015 10.4447 16.937 10.3348C16.7726 10.225 16.6445 10.0688 16.5688 9.88612C16.4932 9.70339 16.4734 9.50234 16.512 9.30836C16.5505 9.11438 16.6458 8.93613 16.7856 8.79627C16.9255 8.65642 17.1036 8.56118 17.2976 8.52259C17.4916 8.48401 17.6925 8.50391 17.8752 8.5796C18.058 8.65529 18.2143 8.78344 18.3242 8.94788C18.4341 9.11233 18.4927 9.30565 18.4927 9.50343C18.4927 9.63475 18.4668 9.76479 18.4165 9.88612C18.3662 10.0074 18.2926 10.1177 18.1997 10.2106C18.1068 10.3034 17.9966 10.377 17.8752 10.4273C17.7539 10.4775 17.624 10.5034 17.4927 10.5034Z" fill="black"/>
</svg>
