<svg width="24" height="24" viewBox="0 0 24 24" fill="none" xmlns="http://www.w3.org/2000/svg">
<path d="M11 6.75023C11 8.27023 9.77 9.50023 8.25 9.50023H7.6L7.19 10.5402C7.12 10.7102 6.89 10.7102 6.82 10.5402L6.4 9.50023H5.75C4.23 9.50023 3 8.27023 3 6.75023C3 5.23023 4.23 4.00023 5.75 4.00023H8.25C9.77 4.00023 11 5.23023 11 6.75023ZM21 5.42023V8.89023C21 9.53023 20.48 10.0502 19.84 10.0502H14.44C13.8 10.0502 13.28 9.53023 13.28 8.89023V5.42023C13.28 4.78023 13.8 4.26023 14.44 4.26023H15.27L15.59 3.81023C15.74 3.61023 15.97 3.49023 16.21 3.49023H18.05C18.3 3.49023 18.53 3.61023 18.67 3.80023L19 4.25023H19.83C20.48 4.26023 21 4.78023 21 5.42023ZM19.07 7.16023C19.07 6.10023 18.2 5.23023 17.14 5.23023C16.08 5.23023 15.21 6.10023 15.21 7.16023C15.21 8.22023 16.08 9.09023 17.14 9.09023C18.2 9.09023 19.07 8.22023 19.07 7.16023ZM17.14 6.00023C16.5 6.00023 15.98 6.52023 15.98 7.16023C15.98 7.80023 16.5 8.32023 17.14 8.32023C17.78 8.32023 18.3 7.80023 18.3 7.16023C18.3 6.52023 17.78 6.00023 17.14 6.00023ZM10.5 14.0002V20.0002C10.5 20.5502 10.05 21.0002 9.5 21.0002H4C3.45 21.0002 3 20.5502 3 20.0002V14.0002C3 13.4502 3.45 13.0002 4 13.0002H9.5C10.05 13.0002 10.5 13.4502 10.5 14.0002ZM9.5 15.5002H4V19.5002C4 19.7802 4.22 20.0002 4.5 20.0002H9C9.28 20.0002 9.5 19.7802 9.5 19.5002V15.5002ZM5 17.5002H8.5C8.78 17.5002 9 17.2802 9 17.0002C9 16.7202 8.78 16.5002 8.5 16.5002H5C4.72 16.5002 4.5 16.7202 4.5 17.0002C4.5 17.2802 4.72 17.5002 5 17.5002ZM5 19.0002H8.5C8.78 19.0002 9 18.7802 9 18.5002C9 18.2202 8.78 18.0002 8.5 18.0002H5C4.72 18.0002 4.5 18.2202 4.5 18.5002C4.5 18.7802 4.72 19.0002 5 19.0002ZM18.04 14.6002C17.96 14.5202 17.83 14.5402 17.74 14.6302L13.49 18.8802L13.02 20.5302C12.93 20.8302 13.17 21.0702 13.47 20.9802L15.12 20.5102L19.37 16.2602C19.46 16.1702 19.47 16.0402 19.4 15.9602L18.04 14.6002ZM19.84 13.1302C19.68 12.9702 19.41 12.9702 19.24 13.1302L18.71 13.6602C18.63 13.7402 18.63 13.8802 18.71 13.9602L20.05 15.3002C20.13 15.3802 20.27 15.3802 20.35 15.3002L20.88 14.7702C21.04 14.6102 21.04 14.3402 20.88 14.1702L19.84 13.1302Z" fill="black"/>
</svg>
