<svg width="24" height="24" viewBox="0 0 24 24" fill="none" xmlns="http://www.w3.org/2000/svg">
<path d="M15.1301 7.24988C15.3536 7.24988 15.572 7.31614 15.7578 7.44031C15.9436 7.56447 16.0885 7.74091 16.1741 7.94739C16.2596 8.15387 16.2819 8.38114 16.2383 8.60034C16.1947 8.81954 16.0872 9.02092 15.9292 9.17896C15.7712 9.33699 15.5698 9.44456 15.3506 9.48816C15.1314 9.53176 14.904 9.50936 14.6975 9.42383C14.491 9.3383 14.3146 9.19352 14.1904 9.00769C14.0663 8.82186 14 8.60338 14 8.37988C13.9987 8.23112 14.0269 8.08362 14.0833 7.94592C14.1396 7.80822 14.2229 7.68308 14.3281 7.57788C14.4333 7.47268 14.5583 7.38945 14.696 7.33313C14.8337 7.27681 14.9814 7.24854 15.1301 7.24988ZM12.72 12.9698C12.5036 12.9698 12.2932 13.0401 12.1201 13.1699L8.45996 15.9199V13.9199C8.45996 13.6547 8.35477 13.4003 8.16724 13.2128C7.9797 13.0252 7.72518 12.9199 7.45996 12.9199H5C4.46957 12.9199 3.96101 12.7092 3.58594 12.3341C3.21086 11.959 3 11.4504 3 10.9199V4.91992C3 4.38949 3.21086 3.88069 3.58594 3.50562C3.96101 3.13054 4.46957 2.91992 5 2.91992H17C17.5304 2.91992 18.0392 3.13054 18.4143 3.50562C18.7894 3.88069 19 4.38949 19 4.91992V10.9199C18.9981 11.1027 18.9714 11.2843 18.9202 11.4598C19.6005 11.4675 20.2755 11.5823 20.9202 11.7999C20.9841 11.5109 21.0175 11.2159 21.02 10.9199V4.91992C21.02 3.85906 20.5985 2.84158 19.8484 2.09143C19.0982 1.34129 18.0809 0.919922 17.02 0.919922H5.02002C3.95915 0.919922 2.9418 1.34129 2.19165 2.09143C1.4415 2.84158 1.02002 3.85906 1.02002 4.91992V10.9199C1.02002 11.9808 1.4415 12.9981 2.19165 13.7483C2.9418 14.4984 3.95915 14.9199 5.02002 14.9199H6.47998V16.9199C6.4826 17.3169 6.64162 17.6969 6.92236 17.9777C7.2031 18.2584 7.58296 18.4173 7.97998 18.4199C8.30477 18.4214 8.62117 18.3159 8.88013 18.1199L13.0701 14.9698C13.4761 14.2021 14.03 13.5224 14.7 12.9698H12.72ZM5.5 8.37988C5.5 8.60338 5.56626 8.82186 5.69043 9.00769C5.8146 9.19352 5.99103 9.3383 6.19751 9.42383C6.40399 9.50936 6.63139 9.53176 6.85059 9.48816C7.06978 9.44456 7.27117 9.33699 7.4292 9.17896C7.58723 9.02092 7.69468 8.81954 7.73828 8.60034C7.78188 8.38114 7.7596 8.15387 7.67407 7.94739C7.58855 7.74091 7.44364 7.56447 7.25781 7.44031C7.07198 7.31614 6.85362 7.24988 6.63013 7.24988C6.48173 7.24988 6.33461 7.27915 6.19751 7.33594C6.06041 7.39273 5.93599 7.47588 5.83105 7.58081C5.72612 7.68574 5.64297 7.81029 5.58618 7.94739C5.52939 8.08449 5.5 8.23149 5.5 8.37988ZM9.75 8.37988C9.75 8.60338 9.81626 8.82186 9.94043 9.00769C10.0646 9.19352 10.241 9.3383 10.4475 9.42383C10.654 9.50936 10.8814 9.53176 11.1006 9.48816C11.3198 9.44456 11.5212 9.33699 11.6792 9.17896C11.8372 9.02092 11.9447 8.81954 11.9883 8.60034C12.0319 8.38114 12.0096 8.15387 11.9241 7.94739C11.8385 7.74091 11.6936 7.56447 11.5078 7.44031C11.322 7.31614 11.1036 7.24988 10.8801 7.24988C10.5804 7.24988 10.293 7.36889 10.0811 7.58081C9.86914 7.79273 9.75 8.08019 9.75 8.37988ZM23.8101 17.9999C23.8101 18.9888 23.5167 19.9555 22.9673 20.7777C22.4179 21.6 21.637 22.2408 20.7234 22.6193C19.8098 22.9977 18.8046 23.0967 17.8347 22.9038C16.8648 22.7109 15.9737 22.2347 15.2744 21.5354C14.5752 20.8361 14.0992 19.9452 13.9062 18.9753C13.7133 18.0054 13.8122 17.0001 14.1907 16.0864C14.5691 15.1728 15.21 14.3919 16.0322 13.8425C16.8545 13.2931 17.8212 12.9999 18.8101 12.9999C20.1361 12.9999 21.408 13.5267 22.3457 14.4644C23.2834 15.402 23.8101 16.6738 23.8101 17.9999ZM15.3101 17.9999C15.3115 18.6674 15.506 19.3204 15.8701 19.8799L20.6899 15.0599C20.1304 14.6958 19.4776 14.5013 18.8101 14.4999C17.8818 14.4999 16.9916 14.8686 16.3352 15.525C15.6788 16.1814 15.3101 17.0716 15.3101 17.9999ZM22.3101 17.9999C22.3087 17.3323 22.1141 16.6794 21.75 16.1199L16.9302 20.9398C17.4897 21.3039 18.1425 21.4985 18.8101 21.4999C19.7383 21.4999 20.6285 21.1311 21.2849 20.4747C21.9413 19.8184 22.3101 18.9281 22.3101 17.9999Z" fill="black"/>
</svg>
