<svg width="24" height="24" viewBox="0 0 24 24" fill="none" xmlns="http://www.w3.org/2000/svg">
<path d="M19.5 4H8.5C7.67 4 7 4.67 7 5.5V9H4.5C3.67 9 3 9.67 3 10.5V16.5C3 17.33 3.67 18 4.5 18H5V19.21C5 19.66 5.54 19.88 5.85 19.56L7.41 18H13.5C14.33 18 15 17.33 15 16.5V14H15.74L18.11 16.91C18.41 17.27 19 17.06 19 16.59V14H19.5C20.33 14 21 13.33 21 12.5V5.5C21 4.67 20.33 4 19.5 4ZM10.75 7.62C11.3 7.62 11.75 8.07 11.75 8.62C11.75 9.17 11.3 9.62 10.75 9.62C10.2 9.62 9.75 9.17 9.75 8.62C9.75 8.07 10.2 7.62 10.75 7.62ZM13.5 16C13.5 16.28 13.28 16.5 13 16.5H5C4.72 16.5 4.5 16.28 4.5 16V11C4.5 10.72 4.72 10.5 5 10.5H7V12.5C7 13.33 7.67 14 8.5 14H13.5V16ZM14.25 9.62C13.7 9.62 13.25 9.17 13.25 8.62C13.25 8.07 13.7 7.62 14.25 7.62C14.8 7.62 15.25 8.07 15.25 8.62C15.25 9.18 14.8 9.62 14.25 9.62ZM17.75 9.62C17.2 9.62 16.75 9.17 16.75 8.62C16.75 8.07 17.2 7.62 17.75 7.62C18.3 7.62 18.75 8.07 18.75 8.62C18.75 9.18 18.3 9.62 17.75 9.62Z" fill="black"/>
</svg>
