<svg width="24" height="24" viewBox="0 0 24 24" fill="none" xmlns="http://www.w3.org/2000/svg">
<path d="M12 2C6.5 2 2 6.5 2 12C2 17.5 6.5 22 12 22C17.5 22 22 17.5 22 12C22 6.5 17.5 2 12 2ZM13 19.9V19.5C13 18.9 12.6 18.5 12 18.5C11.4 18.5 11 18.9 11 19.5V19.9C7.4 19.4 4.5 16.6 4.1 13H4.5C5.1 13 5.5 12.6 5.5 12C5.5 11.4 5.1 11 4.5 11H4.1C4.5 7.4 7.4 4.5 11 4.1V4.5C11 5.1 11.4 5.5 12 5.5C12.6 5.5 13 5.1 13 4.5V4.1C16.6 4.6 19.5 7.4 19.9 11H19.5C18.9 11 18.5 11.4 18.5 12C18.5 12.6 18.9 13 19.5 13H19.9C19.5 16.6 16.6 19.5 13 19.9Z" fill="black"/>
<path d="M15.3 6.9L10.2 10.2L6.9 15.3C6.6 15.8 6.6 16.4 7.1 16.9C7.3 17.1 7.7 17.3 8 17.3C8.2 17.3 8.5 17.2 8.7 17.1L13.8 13.8L17.1 8.7C17.4 8.2 17.4 7.6 16.9 7.1C16.5 6.7 15.8 6.6 15.3 6.9ZM14.9 9.2L12.8 12.5C12.7 12.6 12.6 12.6 12.5 12.5L11.5 11.5C11.4 11.4 11.4 11.3 11.5 11.2L14.8 9.1C14.9 9 15 9.1 14.9 9.2Z" fill="black"/>
</svg>
