<svg width="24" height="24" viewBox="0 0 24 24" fill="none" xmlns="http://www.w3.org/2000/svg">
<path d="M18 4H6C3.79 4 2 5.79 2 8V16C2 18.21 3.79 20 6 20H18C20.21 20 22 18.21 22 16V8C22 5.79 20.21 4 18 4ZM20 16C20 17.1 19.1 18 18 18H10.01V16C10.01 15.45 9.56 15 9.01 15C8.46 15 8.01 15.45 8.01 16V18H6C4.9 18 4 17.1 4 16V8C4 6.9 4.9 6 6 6H8.01V8C8.01 8.55 8.46 9 9.01 9C9.56 9 10.01 8.55 10.01 8V6H18C19.1 6 20 6.9 20 8V16ZM10.01 11V13C10.01 13.55 9.56 14 9.01 14C8.46 14 8.01 13.55 8.01 13V11C8.01 10.45 8.46 10 9.01 10C9.56 10 10.01 10.45 10.01 11Z" fill="black"/>
</svg>
