<svg width="24" height="24" viewBox="0 0 24 24" fill="none" xmlns="http://www.w3.org/2000/svg">
<path d="M17.9512 4.01074H5.95117C3.74512 4.01074 1.95117 5.80469 1.95117 8.01074V16.0107C1.95117 18.2168 3.74512 20.0107 5.95117 20.0107H17.9512C20.1572 20.0107 21.9512 18.2168 21.9512 16.0107V8.01074C21.9512 5.80469 20.1572 4.01074 17.9512 4.01074ZM5.95117 6.01074H17.9512C19.0537 6.01074 19.9512 6.9082 19.9512 8.01074V8.25H3.95117V8.01074C3.95117 6.9082 4.84863 6.01074 5.95117 6.01074ZM17.9512 18.0107H5.95117C4.84863 18.0107 3.95117 17.1133 3.95117 16.0107V10.25H19.9512V16.0107C19.9512 17.1133 19.0537 18.0107 17.9512 18.0107ZM10 14.5V15C10 15.5522 9.55225 16 9 16H7C6.44775 16 6 15.5522 6 15V14.5C6 13.9478 6.44775 13.5 7 13.5H9C9.55225 13.5 10 13.9478 10 14.5Z" fill="black"/>
</svg>
