<svg width="24" height="24" viewBox="0 0 24 24" fill="none" xmlns="http://www.w3.org/2000/svg">
<path d="M9.38 5.88H16.13C17.23 5.88 18.13 6.78 18.13 7.88V14.63H16.13V7.88H9.38V5.88ZM20.5 16.62H18.12H16.12H8.5H7.38V15.5V3.5V3.49C7.37 2.94 6.93 2.5 6.38 2.5C5.83 2.5 5.38 2.95 5.38 3.5V5.88H3C2.45 5.88 2 6.33 2 6.88C2 7.43 2.45 7.88 3 7.88H5.38V16.63C5.38 17.73 6.28 18.63 7.38 18.63H16.13V21.01C16.13 21.56 16.58 22.01 17.13 22.01C17.68 22.01 18.13 21.56 18.13 21.01V18.63H20.51C21.06 18.63 21.51 18.18 21.51 17.63C21.51 17.08 21.05 16.62 20.5 16.62Z" fill="black"/>
</svg>
