<svg width="24" height="24" viewBox="0 0 24 24" fill="none" xmlns="http://www.w3.org/2000/svg">
<path d="M15.4 10.6L13.8 12.2L15.4 13.8C15.8 14.2 15.8 14.8 15.4 15.2C15.2 15.4 14.9 15.5 14.7 15.5C14.5 15.5 14.2 15.4 14 15.2L12.4 13.6L10.8 15.2C10.6 15.4 10.3 15.5 10.1 15.5C9.9 15.5 9.6 15.4 9.4 15.2C9 14.8 9 14.2 9.4 13.8L11 12.2L9.4 10.6C9 10.2 9 9.6 9.4 9.2C9.8 8.8 10.4 8.8 10.8 9.2L12.4 10.8L14 9.2C14.4 8.8 15 8.8 15.4 9.2C15.8 9.6 15.8 10.2 15.4 10.6ZM22.7 8V16.3C22.7 18.5 20.9 20.3 18.7 20.3H6C3.8 20.3 2 18.5 2 16.3V8C2 5.8 3.8 4 6 4H18.7C20.9 4 22.7 5.8 22.7 8ZM20.7 8C20.7 6.9 19.8 6 18.7 6H6C4.9 6 4 6.9 4 8V16.3C4 17.4 4.9 18.3 6 18.3H18.7C19.8 18.3 20.7 17.4 20.7 16.3V8Z" fill="black"/>
</svg>
