<svg width="24" height="24" viewBox="0 0 24 24" fill="none" xmlns="http://www.w3.org/2000/svg">
<path d="M12 2C6.49 2 2 6.49 2 12C2 17.51 6.49 22 12 22C17.51 22 22 17.51 22 12C22 6.49 17.51 2 12 2ZM12 20C7.59 20 4 16.41 4 12C4 7.59 7.59 4 12 4C16.41 4 20 7.59 20 12C20 16.41 16.41 20 12 20ZM15.8 9.61L13.41 12L15.8 14.39C16.19 14.78 16.19 15.41 15.8 15.8C15.6 16 15.35 16.09 15.09 16.09C14.83 16.09 14.58 15.99 14.38 15.8L12 13.41L9.61 15.8C9.41 16 9.16 16.09 8.9 16.09C8.64 16.09 8.39 16 8.2 15.8C7.81 15.41 7.81 14.78 8.2 14.39L10.59 12L8.2 9.61C7.81 9.22 7.81 8.59 8.2 8.2C8.59 7.81 9.22 7.81 9.61 8.2L12 10.59L14.39 8.2C14.78 7.81 15.41 7.81 15.8 8.2C16.19 8.59 16.19 9.22 15.8 9.61Z" fill="black"/>
</svg>
