<svg width="24" height="24" viewBox="0 0 24 24" fill="none" xmlns="http://www.w3.org/2000/svg">
<path d="M18.3599 16.9502C18.7499 17.3402 18.7499 17.9702 18.3599 18.3602C18.1599 18.5602 17.9099 18.6502 17.6499 18.6502C17.3899 18.6502 17.1399 18.5502 16.9399 18.3602L11.9999 13.4102L7.0499 18.3602C6.8499 18.5602 6.5999 18.6502 6.3399 18.6502C6.0799 18.6502 5.8299 18.5502 5.6299 18.3602C5.2399 17.9702 5.2399 17.3402 5.6299 16.9502L10.5899 12.0002L5.6399 7.05016C5.2499 6.66016 5.2499 6.03016 5.6399 5.64016C6.0299 5.25016 6.6599 5.25016 7.0499 5.64016L11.9999 10.5902L16.9499 5.64016C17.3399 5.25016 17.9699 5.25016 18.3599 5.64016C18.7499 6.03016 18.7499 6.66016 18.3599 7.05016L13.4099 12.0002L18.3599 16.9502Z" fill="black"/>
</svg>
