<svg width="24" height="24" viewBox="0 0 24 24" fill="none" xmlns="http://www.w3.org/2000/svg">
<path d="M12 2C6.48 2 2 6.48 2 12C2 17.52 6.48 22 12 22C17.52 22 22 17.52 22 12C22 6.48 17.52 2 12 2ZM14.83 16.24L12 13.41L9.17 16.24C8.78 16.63 8.15 16.63 7.76 16.24C7.37 15.85 7.37 15.22 7.76 14.83L10.59 12L7.76 9.17C7.37 8.78 7.37 8.15 7.76 7.76C8.15 7.37 8.78 7.37 9.17 7.76L12 10.59L14.83 7.76C15.22 7.37 15.85 7.37 16.24 7.76C16.63 8.15 16.63 8.78 16.24 9.17L13.41 12L16.24 14.83C16.63 15.22 16.63 15.85 16.24 16.24C15.85 16.63 15.22 16.63 14.83 16.24Z" fill="black"/>
</svg>
