<svg width="24" height="24" viewBox="0 0 24 24" fill="none" xmlns="http://www.w3.org/2000/svg">
<path d="M18.7199 16.5999C19.3099 17.1899 19.3099 18.1399 18.7199 18.7199C18.4299 19.0099 18.0399 19.1599 17.6599 19.1599C17.2799 19.1599 16.8899 19.0099 16.5999 18.7199L11.9999 14.1199L7.3999 18.7199C7.1099 19.0099 6.7199 19.1599 6.3399 19.1599C5.9599 19.1599 5.5699 19.0099 5.2799 18.7199C4.6899 18.1299 4.6899 17.1799 5.2799 16.5999L9.8799 11.9999L5.2799 7.3999C4.6899 6.8099 4.6899 5.8599 5.2799 5.2799C5.8699 4.6999 6.8199 4.6899 7.3999 5.2799L11.9999 9.8799L16.5999 5.2799C17.1899 4.6899 18.1399 4.6899 18.7199 5.2799C19.2999 5.8699 19.3099 6.8199 18.7199 7.3999L14.1199 11.9999L18.7199 16.5999Z" fill="black"/>
</svg>
