<svg width="24" height="24" viewBox="0 0 24 24" fill="none" xmlns="http://www.w3.org/2000/svg">
<path d="M11 8C11 9.62 10.33 10.57 8.75 10.88V20.75C8.75 21.44 8.19 22 7.5 22C6.81 22 6.25 21.44 6.25 20.75V10.88C4.67 10.57 4 9.62 4 8C4 4 5.5 2 7.5 2C9.5 2 11 4 11 8ZM19.25 2C18.84 2 18.5 2.34 18.5 2.75V4.63V6.5V7.25C18.5 7.39 18.39 7.5 18.25 7.5H17.5C17.36 7.5 17.25 7.39 17.25 7.25V6.5V4.62V2.75C17.25 2.34 16.91 2 16.5 2C16.09 2 15.75 2.34 15.75 2.75V4.63V6.5V7.25C15.75 7.39 15.64 7.5 15.5 7.5H14.75C14.61 7.5 14.5 7.39 14.5 7.25V6.5V4.62V2.75C14.5 2.34 14.16 2 13.75 2C13.34 2 13 2.34 13 2.75V7.5C13 8.99 13.94 10.26 15.25 10.76V20.75C15.25 21.44 15.81 22 16.5 22C17.19 22 17.75 21.44 17.75 20.75V10.76C19.06 10.26 20 8.99 20 7.5V2.75C20 2.34 19.66 2 19.25 2Z" fill="black"/>
</svg>
