<svg width="24" height="24" viewBox="0 0 24 24" fill="none" xmlns="http://www.w3.org/2000/svg">
<g clip-path="url(#clip0_7493_4146)">
<path d="M9.64995 16.3503L9.24995 16.7503C9.04995 16.9503 8.74995 16.9503 8.54995 16.7503L4.14995 12.3503C3.94995 12.1503 3.94995 11.8503 4.14995 11.6503L8.54995 7.25029C8.74995 7.05029 9.04995 7.05029 9.24995 7.25029L9.64995 7.65029L11.05 6.25029L10.25 5.45029C9.54995 4.75029 8.24995 4.75029 7.54995 5.45029L2.34995 10.6503C1.64995 11.3503 1.64995 12.6503 2.34995 13.3503L7.54995 18.5503C7.94995 18.9503 8.34995 19.1503 8.84995 19.1503C9.34995 19.1503 9.84995 18.9503 10.25 18.5503L11.05 17.7503L9.64995 16.3503Z" fill="black"/>
<path d="M15.1499 19.1503C14.6499 19.1503 14.1499 18.9503 13.7499 18.5503L8.5499 13.3503C7.8499 12.6503 7.8499 11.3503 8.5499 10.6503L13.7499 5.45029C14.4499 4.75029 15.7499 4.75029 16.4499 5.45029L21.6499 10.6503C22.3499 11.3503 22.3499 12.6503 21.6499 13.3503L16.4499 18.5503C16.1499 18.9503 15.6499 19.1503 15.1499 19.1503ZM10.3499 12.3503L14.7499 16.7503C14.9499 16.9503 15.2499 16.9503 15.4499 16.7503L19.8499 12.3503C20.0499 12.1503 20.0499 11.8503 19.8499 11.6503L15.4499 7.25029C15.2499 7.05029 14.9499 7.05029 14.7499 7.25029L10.3499 11.6503C10.1499 11.8503 10.1499 12.1503 10.3499 12.3503Z" fill="black"/>
</g>
<defs>
<clipPath id="clip0_7493_4146">
<rect width="20.5" height="14.3" fill="white" transform="translate(1.75 4.8501)"/>
</clipPath>
</defs>
</svg>
