<svg width="24" height="24" viewBox="0 0 24 24" fill="none" xmlns="http://www.w3.org/2000/svg">
<path d="M20.98 10.6202C20.96 10.4502 20.96 10.2702 20.9 10.1202L20.88 10.0802L20.87 10.0002C20.13 7.42023 16.47 5.49023 12 5.49023C7.55 5.49023 3.81 7.42023 3.13 10.0002L3.11 10.0802L3.1 10.1202C3.04 10.2702 3.04 10.4502 3.02 10.6202C3.02 10.7902 3.02 10.8902 3 10.9102C3 11.3902 3.07 12.6902 3.19 13.5902C3.63 16.9402 7.14 18.9002 12 18.9002C16.86 18.9002 20.37 16.9402 20.81 13.5802C20.93 12.6802 21 11.3802 21 10.9002C20.98 10.8902 20.98 10.7902 20.98 10.6202ZM9.15 10.6802C9.15 9.47023 10.15 8.48023 11.33 8.48023C11.91 8.48023 12.41 8.67024 12.81 9.06024C13.23 8.67024 13.74 8.48023 14.29 8.48023C15.5 8.48023 16.49 9.46023 16.49 10.6802V12.5902C16.49 12.9902 16.18 13.3002 15.78 13.3002C15.39 13.3002 15.09 12.9902 15.09 12.5902V10.6802C15.09 10.2402 14.74 9.91023 14.3 9.91023C13.86 9.91023 13.53 10.2402 13.53 10.6802V12.5902C13.53 12.9902 13.22 13.3002 12.82 13.3002C12.43 13.3002 12.13 12.9902 12.13 12.5902V10.6802C12.13 10.2402 11.78 9.91023 11.34 9.91023C10.9 9.91023 10.57 10.2402 10.57 10.6802V12.5902C10.57 12.9902 10.26 13.3002 9.86 13.3002C9.47 13.3002 9.17 12.9902 9.17 12.5902V10.6802H9.15ZM7.3 11.6602C7.74 11.6602 8.11 12.0302 8.11 12.4902C8.11 12.9302 7.74 13.3002 7.3 13.3002C6.84 13.3002 6.47 12.9302 6.47 12.4902C6.47 12.0202 6.84 11.6602 7.3 11.6602ZM17.38 16.3802C16.05 17.1702 14.18 17.5902 12 17.5902C9.82 17.5902 7.95 17.1602 6.62 16.3802C5.58 15.7602 4.9 14.9502 4.62 13.9702C6.24 15.3802 8.9 16.2802 12 16.2802C15.1 16.2802 17.69 15.3502 19.38 13.9702C19.09 14.9502 18.42 15.7602 17.38 16.3802Z" fill="black"/>
</svg>
