<svg width="24" height="24" viewBox="0 0 24 24" fill="none" xmlns="http://www.w3.org/2000/svg">
<path d="M16.79 10.94L13.42 14.31C13.03 14.7 12.52 14.89 12.01 14.89C11.5 14.89 10.99 14.69 10.6 14.31L7.23 10.94C6.84 10.55 6.84 9.92 7.23 9.53C7.62 9.14 8.25 9.14 8.64 9.53L11 11.89V4C11 3.45 11.45 3 12 3C12.55 3 13 3.45 13 4V11.89L15.37 9.52C15.76 9.13 16.39 9.13 16.78 9.52C17.17 9.91 17.18 10.55 16.79 10.94ZM21 18V12C21 11.45 20.55 11 20 11C19.45 11 19 11.45 19 12V18C19 18.55 18.55 19 18 19H6C5.45 19 5 18.55 5 18V12C5 11.45 4.55 11 4 11C3.45 11 3 11.45 3 12V18C3 19.65 4.35 21 6 21H18C19.65 21 21 19.65 21 18Z" fill="black"/>
</svg>
