<svg width="24" height="24" viewBox="0 0 24 24" fill="none" xmlns="http://www.w3.org/2000/svg">
<path d="M10.5 6C10.5 6.82843 9.82843 7.5 9 7.5C8.17157 7.5 7.5 6.82843 7.5 6C7.5 5.17157 8.17157 4.5 9 4.5C9.82843 4.5 10.5 5.17157 10.5 6Z" fill="black"/>
<path d="M16.5 6C16.5 6.82843 15.8284 7.5 15 7.5C14.1716 7.5 13.5 6.82843 13.5 6C13.5 5.17157 14.1716 4.5 15 4.5C15.8284 4.5 16.5 5.17157 16.5 6Z" fill="black"/>
<path d="M10.5 12C10.5 12.8284 9.82843 13.5 9 13.5C8.17157 13.5 7.5 12.8284 7.5 12C7.5 11.1716 8.17157 10.5 9 10.5C9.82843 10.5 10.5 11.1716 10.5 12Z" fill="black"/>
<path d="M16.5 12C16.5 12.8284 15.8284 13.5 15 13.5C14.1716 13.5 13.5 12.8284 13.5 12C13.5 11.1716 14.1716 10.5 15 10.5C15.8284 10.5 16.5 11.1716 16.5 12Z" fill="black"/>
<path d="M10.5 18C10.5 18.8284 9.82843 19.5 9 19.5C8.17157 19.5 7.5 18.8284 7.5 18C7.5 17.1716 8.17157 16.5 9 16.5C9.82843 16.5 10.5 17.1716 10.5 18Z" fill="black"/>
<path d="M16.5 18C16.5 18.8284 15.8284 19.5 15 19.5C14.1716 19.5 13.5 18.8284 13.5 18C13.5 17.1716 14.1716 16.5 15 16.5C15.8284 16.5 16.5 17.1716 16.5 18Z" fill="black"/>
</svg>
