<svg width="24" height="24" viewBox="0 0 24 24" fill="none" xmlns="http://www.w3.org/2000/svg">
<path d="M7.93042 17.6801C8.00766 17.787 8.06301 17.9081 8.09326 18.0364C8.12351 18.1648 8.12807 18.2978 8.10669 18.428C8.08531 18.5581 8.03848 18.6827 7.96875 18.7946C7.89903 18.9065 7.80781 19.0036 7.70044 19.0801C7.53044 19.1988 7.32792 19.2617 7.12061 19.2601C6.96282 19.2605 6.80704 19.2236 6.66626 19.1523C6.52548 19.0811 6.40364 18.9775 6.31055 18.8501L2.44043 13.4601C2.133 13.0354 1.96753 12.5244 1.96753 12.0001C1.96753 11.4758 2.133 10.9648 2.44043 10.5401L6.31055 5.1701C6.38119 5.05083 6.4757 4.94755 6.58838 4.86681C6.70106 4.78607 6.82944 4.72964 6.96509 4.7011C7.10074 4.67257 7.2408 4.67255 7.37647 4.70104C7.51213 4.72954 7.64047 4.78593 7.75317 4.86663C7.86588 4.94734 7.96058 5.05059 8.03125 5.16984C8.10193 5.2891 8.14689 5.42174 8.16358 5.55935C8.18026 5.69697 8.16831 5.83655 8.12817 5.96923C8.08804 6.10192 8.02058 6.22481 7.93042 6.3301L4.06055 11.7101C4.00163 11.7953 3.96997 11.8965 3.96997 12.0001C3.96997 12.1037 4.00163 12.2049 4.06055 12.2901L7.93042 17.6801ZM21.5305 10.5501L17.6604 5.1701C17.5898 5.05083 17.4953 4.94755 17.3826 4.86681C17.2699 4.78607 17.1415 4.72964 17.0059 4.7011C16.8702 4.67257 16.7301 4.67255 16.5945 4.70104C16.4588 4.72954 16.3305 4.78593 16.2178 4.86663C16.1051 4.94734 16.0104 5.05059 15.9397 5.16984C15.869 5.2891 15.8241 5.42174 15.8074 5.55935C15.7907 5.69697 15.8029 5.83655 15.843 5.96923C15.8832 6.10192 15.9504 6.22481 16.0405 6.3301L19.9104 11.7201C19.9689 11.8074 20.0002 11.9101 20.0002 12.0151C20.0002 12.1202 19.9689 12.2228 19.9104 12.3101L16.0005 17.6801C15.9227 17.7864 15.8667 17.907 15.8357 18.0349C15.8047 18.1629 15.7991 18.2957 15.8196 18.4258C15.84 18.5559 15.8861 18.6806 15.9548 18.7929C16.0236 18.9052 16.1139 19.0028 16.2205 19.0801C16.3932 19.2008 16.5998 19.2638 16.8105 19.2601C16.9683 19.2605 17.1239 19.2236 17.2647 19.1523C17.4054 19.0811 17.5275 18.9775 17.6206 18.8501L21.4905 13.4701C21.8038 13.0496 21.9762 12.5409 21.9834 12.0166C21.9906 11.4922 21.8322 10.979 21.5305 10.5501ZM16.7505 12.0001C16.7505 11.7349 16.6451 11.4805 16.4575 11.293C16.27 11.1055 16.0157 11.0001 15.7505 11.0001H13.0005V8.2501C13.0005 7.98488 12.8951 7.73053 12.7075 7.54299C12.52 7.35546 12.2657 7.2501 12.0005 7.2501C11.7353 7.2501 11.481 7.35546 11.2935 7.54299C11.1059 7.73053 11.0005 7.98488 11.0005 8.2501V11.0001H8.23047C7.96525 11.0001 7.71097 11.1055 7.52344 11.293C7.3359 11.4805 7.23047 11.7349 7.23047 12.0001C7.23047 12.2653 7.3359 12.5197 7.52344 12.7072C7.71097 12.8947 7.96525 13.0001 8.23047 13.0001H11.0005V15.7401C11.0005 16.0053 11.1059 16.2597 11.2935 16.4472C11.481 16.6347 11.7353 16.7401 12.0005 16.7401C12.2657 16.7401 12.52 16.6347 12.7075 16.4472C12.8951 16.2597 13.0005 16.0053 13.0005 15.7401V13.0001H15.7305C15.8635 13.0028 15.9957 12.9789 16.1194 12.9298C16.243 12.8807 16.3555 12.8075 16.4504 12.7144C16.5454 12.6212 16.6211 12.5101 16.6726 12.3875C16.7241 12.2648 16.7505 12.1331 16.7505 12.0001Z" fill="black"/>
</svg>
