<svg width="24" height="24" viewBox="0 0 24 24" fill="none" xmlns="http://www.w3.org/2000/svg">
<path d="M4.43996 11.7C4.31996 11.87 4.31996 12.11 4.43996 12.28L7.81996 17.03C8.13996 17.48 8.02996 18.1 7.57996 18.42C7.40996 18.56 7.19996 18.62 6.99996 18.62C6.68996 18.62 6.37996 18.47 6.17996 18.2L2.79996 13.45C2.17996 12.58 2.17996 11.42 2.79996 10.55L6.18996 5.8C6.50996 5.35 7.12996 5.25 7.58996 5.57C8.03996 5.89 8.13996 6.52 7.81996 6.96L4.43996 11.7ZM21.19 10.56L17.81 5.8C17.49 5.35 16.87 5.24 16.42 5.56C15.97 5.88 15.86 6.5 16.18 6.95L19.56 11.7C19.68 11.87 19.68 12.11 19.56 12.28L16.18 17.02C15.86 17.47 15.96 18.09 16.41 18.41C16.59 18.53 16.79 18.6 16.99 18.6C17.3 18.6 17.61 18.45 17.81 18.18L21.19 13.44C21.81 12.59 21.81 11.42 21.19 10.56ZM15.03 11H13.03V9C13.03 8.45 12.58 8 12.03 8C11.48 8 11.03 8.45 11.03 9V11H9.02996C8.47996 11 8.02996 11.45 8.02996 12C8.02996 12.55 8.47996 13 9.02996 13H11.03V15C11.03 15.55 11.48 16 12.03 16C12.58 16 13.03 15.55 13.03 15V13H15.03C15.58 13 16.03 12.55 16.03 12C16.03 11.45 15.58 11 15.03 11Z" fill="black"/>
</svg>
