<svg width="24" height="24" viewBox="0 0 24 24" fill="none" xmlns="http://www.w3.org/2000/svg">
<path d="M12 2C6.48 2 2 6.48 2 12C2 17.52 6.48 22 12 22C17.52 22 22 17.52 22 12C22 6.48 17.52 2 12 2ZM7.16 9.69C7.16 8.85 7.83 8.17 8.66 8.17C9.49 8.17 10.16 8.85 10.16 9.69C10.16 10.53 9.49 11.21 8.66 11.21C7.83 11.21 7.16 10.53 7.16 9.69ZM15.78 15.04C14.91 16.26 13.51 16.99 12.01 16.99C10.52 16.99 9.11 16.26 8.24 15.04C7.95 14.63 8.05 14.07 8.45 13.79C8.86 13.5 9.42 13.59 9.71 14C10.24 14.75 11.1 15.19 12.01 15.19C12.92 15.19 13.78 14.74 14.31 14C14.6 13.6 15.16 13.5 15.56 13.79C15.97 14.07 16.07 14.63 15.78 15.04ZM15.34 11.21C14.51 11.21 13.84 10.53 13.84 9.69C13.84 8.85 14.51 8.17 15.34 8.17C16.17 8.17 16.84 8.85 16.84 9.69C16.84 10.53 16.17 11.21 15.34 11.21Z" fill="black"/>
</svg>
