<svg width="24" height="24" viewBox="0 0 24 24" fill="none" xmlns="http://www.w3.org/2000/svg">
<path d="M12.0001 3C10.22 3 8.47987 3.52784 6.99983 4.51677C5.51978 5.50571 4.36632 6.91131 3.68513 8.55585C3.00394 10.2004 2.82566 12.01 3.17292 13.7558C3.52019 15.5016 4.37738 17.1053 5.63606 18.364C6.89473 19.6226 8.49838 20.4798 10.2442 20.8271C11.99 21.1743 13.7996 20.9961 15.4442 20.3149C17.0887 19.6337 18.4943 18.4802 19.4832 17.0001C20.4722 15.5201 21.0001 13.78 21.0001 12C21.0001 9.61305 20.0519 7.32387 18.3641 5.63604C16.6763 3.94821 14.387 3 12.0001 3ZM7.49006 9.92C7.49006 9.62333 7.57792 9.33332 7.74275 9.08665C7.90757 8.83997 8.142 8.64771 8.41609 8.53418C8.69018 8.42065 8.99181 8.39094 9.28279 8.44882C9.57376 8.5067 9.84107 8.64956 10.0509 8.85934C10.2606 9.06912 10.4034 9.33639 10.4613 9.62736C10.5191 9.91834 10.4893 10.2199 10.3758 10.494C10.2623 10.7681 10.07 11.0024 9.82331 11.1672C9.57664 11.332 9.28673 11.42 8.99006 11.42C8.59224 11.42 8.21082 11.262 7.92951 10.9807C7.64821 10.6994 7.49006 10.3178 7.49006 9.92ZM15.41 14.99C15.005 15.5076 14.4876 15.9262 13.8968 16.214C13.306 16.5019 12.6573 16.6515 12.0001 16.6515C11.3429 16.6515 10.6942 16.5019 10.1033 16.214C9.51253 15.9262 8.99519 15.5076 8.59016 14.99C8.50546 14.8895 8.44125 14.7734 8.40144 14.6481C8.36163 14.5229 8.34684 14.3911 8.35798 14.2601C8.36912 14.1292 8.40598 14.0018 8.46638 13.8851C8.52678 13.7684 8.60957 13.6647 8.71003 13.58C8.81049 13.4953 8.9266 13.4312 9.05183 13.3914C9.17706 13.3516 9.30908 13.3368 9.44001 13.348C9.57094 13.3591 9.69831 13.3959 9.81501 13.4563C9.93171 13.5167 10.0355 13.5995 10.1202 13.7C10.3427 13.9866 10.6276 14.2185 10.9534 14.3781C11.2793 14.5376 11.6373 14.6205 12.0001 14.6205C12.3629 14.6205 12.7209 14.5376 13.0467 14.3781C13.3725 14.2185 13.6575 13.9866 13.88 13.7C14.051 13.4971 14.2957 13.3705 14.5601 13.348C14.8246 13.3255 15.0872 13.4089 15.2901 13.58C15.493 13.7511 15.6197 13.9957 15.6422 14.2601C15.6647 14.5246 15.581 14.7871 15.41 14.99ZM15.0101 11.42C14.7134 11.42 14.4235 11.332 14.1768 11.1672C13.9302 11.0024 13.7379 10.7681 13.6243 10.494C13.5108 10.2199 13.481 9.91834 13.5389 9.62736C13.5968 9.33639 13.7395 9.06912 13.9493 8.85934C14.1591 8.64956 14.4264 8.5067 14.7174 8.44882C15.0083 8.39094 15.31 8.42065 15.5841 8.53418C15.8581 8.64771 16.0926 8.83997 16.2574 9.08665C16.4222 9.33332 16.5101 9.62333 16.5101 9.92C16.5101 10.1178 16.4709 10.3137 16.3948 10.4963C16.3188 10.679 16.2076 10.8448 16.0672 10.9842C15.9269 11.1236 15.7604 11.2339 15.5772 11.3087C15.3941 11.3835 15.1979 11.4213 15.0001 11.42H15.0101Z" fill="black"/>
</svg>
