<svg width="24" height="24" viewBox="0 0 24 24" fill="none" xmlns="http://www.w3.org/2000/svg">
<path d="M18 10.3399C18 10.8899 18.45 11.3399 19 11.3399C19.55 11.3399 20 10.8899 20 10.3399V9.68986C20 8.88986 19.69 8.13986 19.12 7.56986L14.29 2.73986C13.72 2.16986 12.97 1.85986 12.17 1.85986H8C5.79 1.85986 4 3.64986 4 5.85986V17.8599C4 20.0699 5.79 21.8599 8 21.8599H12.95C13.5 21.8599 13.95 21.4099 13.95 20.8599C13.95 20.3099 13.5 19.8599 12.95 19.8599H8C6.9 19.8599 6 18.9599 6 17.8599V5.85986C6 4.75986 6.9 3.85986 8 3.85986H12V7.85986C12 8.95986 12.9 9.85986 14 9.85986H18V10.3399ZM14 5.27986L16.59 7.86986H14V5.27986ZM8 12.8599C8 12.3099 8.45 11.8599 9 11.8599H13.95C14.5 11.8599 14.95 12.3099 14.95 12.8599C14.95 13.4099 14.5 13.8599 13.95 13.8599H9C8.45 13.8599 8 13.4199 8 12.8599ZM8 16.8599C8 16.3099 8.45 15.8599 9 15.8599H13C13.55 15.8599 14 16.3099 14 16.8599C14 17.4099 13.55 17.8599 13 17.8599H9C8.45 17.8599 8 17.4199 8 16.8599ZM20.06 21.7699C20.06 22.3699 19.57 22.8599 18.97 22.8599C18.37 22.8599 17.88 22.3699 17.88 21.7699C17.88 21.1699 18.37 20.6799 18.97 20.6799C19.57 20.6799 20.06 21.1699 20.06 21.7699ZM22 15.5199C22 16.9299 21.11 17.6699 20.47 18.2099C20.28 18.3699 20.1 18.5099 19.96 18.6799C19.9 18.7499 19.86 18.8599 19.87 19.1999C19.87 19.6899 19.48 20.0899 18.99 20.0899C18.5 20.0899 18.11 19.6999 18.1 19.2099C18.1 18.6899 18.16 18.0899 18.61 17.5499C18.82 17.2999 19.07 17.0799 19.35 16.8499C19.92 16.3699 20.25 16.0699 20.25 15.5099C20.25 15.0399 19.73 14.5099 19.03 14.5099C18.41 14.5099 17.79 14.8899 17.79 15.6099C17.79 16.0999 17.39 16.4999 16.9 16.4999C16.41 16.4999 16 16.1199 16 15.6299C16 14.0199 17.32 12.7599 19.01 12.7599C20.63 12.7599 22 14.0299 22 15.5199Z" fill="black"/>
</svg>
