<svg width="24" height="24" viewBox="0 0 24 24" fill="none" xmlns="http://www.w3.org/2000/svg">
<path d="M21.0401 8.44L15.5601 2.96C14.7801 2.18 13.5101 2.18 12.7401 2.96L3.54012 12.15C2.79012 12.9 2.37012 13.91 2.37012 14.98C2.37012 16.05 2.79012 17.05 3.54012 17.81L6.19012 20.46C6.95012 21.21 7.95012 21.63 9.02012 21.63C10.0901 21.63 11.1001 21.21 11.8501 20.46L21.0401 11.26C21.4201 10.89 21.6301 10.39 21.6301 9.85C21.6301 9.31 21.4201 8.81 21.0401 8.44ZM10.4401 19.04C9.68012 19.8 8.36012 19.8 7.61012 19.04L4.96012 16.39C4.58012 16.01 4.37012 15.51 4.37012 14.98C4.37012 14.45 4.58012 13.94 4.96012 13.56L5.67012 12.86L11.1501 18.34L10.4401 19.04ZM12.5601 16.93L7.08012 11.45L14.1501 4.37L19.6301 9.85L12.5601 16.93Z" fill="black"/>
</svg>
