<svg width="24" height="24" viewBox="0 0 24 24" fill="none" xmlns="http://www.w3.org/2000/svg">
<path d="M17.9 4H5.99995C4.49995 4 3.19995 5.3 3.19995 7V18.7V20.3C3.19995 21.2 4.19995 21.6 4.79995 21L6.79995 19C6.99995 18.8 7.19995 18.7 7.49995 18.7H17.9C19.5 18.7 20.7 17.4 20.7 15.7V7C20.8 5.3 19.5 4 17.9 4ZM12 16.1C11.3 16.1 10.8 15.5 10.8 14.9C10.8 14.2 11.4 13.7 12 13.7C12.6 13.7 13.2 14.3 13.2 14.9C13.2 15.5 12.7 16.1 12 16.1ZM13.2 11.2C13.2 11.9 12.6 12.4 12 12.4C11.4 12.4 10.8 11.8 10.8 11.2V7.8C10.8 7.1 11.4 6.6 12 6.6C12.6 6.6 13.2 7.2 13.2 7.8V11.2Z" fill="black"/>
</svg>
