<svg width="24" height="24" viewBox="0 0 24 24" fill="none" xmlns="http://www.w3.org/2000/svg">
<path d="M17.5 3H6.5C4.3 3 2.5 4.8 2.5 7V19.3C2.5 20.1 2.9 20.8 3.5 21.2C3.8 21.4 4.2 21.5 4.5 21.5C5 21.5 5.6 21.3 6 20.9L7.5 19.3C7.7 19.1 8 19 8.2 19H17.5C19.7 19 21.5 17.2 21.5 15V7C21.5 4.8 19.7 3 17.5 3ZM19.5 14.9C19.5 16 18.6 16.9 17.5 16.9H7.5C7.1 16.9 6.7 17.1 6.4 17.4L4.5 19.5V7C4.5 5.9 5.4 5 6.5 5H17.5C18.6 5 19.5 5.9 19.5 7V14.9ZM13.2 7.8V11.1C13.2 11.8 12.6 12.3 12 12.3C11.4 12.3 10.8 11.7 10.8 11.1V7.8C10.8 7.1 11.4 6.6 12 6.6C12.6 6.6 13.2 7.1 13.2 7.8ZM13.2 14.1C13.2 14.8 12.6 15.3 12 15.3C11.4 15.3 10.8 14.7 10.8 14.1C10.8 13.4 11.4 12.9 12 12.9C12.6 12.9 13.2 13.4 13.2 14.1Z" fill="black"/>
</svg>
