<svg width="24" height="24" viewBox="0 0 24 24" fill="none" xmlns="http://www.w3.org/2000/svg">
<path d="M12 2C6.48 2 2 6.48 2 12C2 17.52 6.48 22 12 22C17.52 22 22 17.52 22 12C22 6.48 17.52 2 12 2ZM12 18C11.31 18 10.75 17.44 10.75 16.75C10.75 16.06 11.31 15.5 12 15.5C12.69 15.5 13.25 16.06 13.25 16.75C13.25 17.44 12.69 18 12 18ZM13.25 12.5C13.25 13.19 12.69 13.75 12 13.75C11.31 13.75 10.75 13.19 10.75 12.5V7C10.75 6.31 11.31 5.75 12 5.75C12.69 5.75 13.25 6.31 13.25 7V12.5Z" fill="black"/>
</svg>
