<svg width="24" height="24" viewBox="0 0 24 24" fill="none" xmlns="http://www.w3.org/2000/svg">
<path d="M12 2C6.49 2 2 6.49 2 12C2 17.51 6.49 22 12 22C17.51 22 22 17.51 22 12C22 6.49 17.51 2 12 2ZM12 20C7.59 20 4 16.41 4 12C4 7.59 7.59 4 12 4C16.41 4 20 7.59 20 12C20 16.41 16.41 20 12 20ZM13.25 7.5V13C13.25 13.69 12.69 14.25 12 14.25C11.31 14.25 10.75 13.69 10.75 13V7.5C10.75 6.81 11.31 6.25 12 6.25C12.69 6.25 13.25 6.81 13.25 7.5ZM13.25 16.25C13.25 16.94 12.69 17.5 12 17.5C11.31 17.5 10.75 16.94 10.75 16.25C10.75 15.56 11.31 15 12 15C12.69 15 13.25 15.56 13.25 16.25Z" fill="black"/>
</svg>
