<svg width="24" height="24" viewBox="0 0 24 24" fill="none" xmlns="http://www.w3.org/2000/svg">
<path d="M10 4C10 4.55 9.55 5 9 5H5V9C5 9.55 4.55 10 4 10C3.45 10 3 9.55 3 9V5C3 3.9 3.9 3 5 3H9C9.55 3 10 3.45 10 4ZM20 14C19.45 14 19 14.45 19 15V19H15C14.45 19 14 19.45 14 20C14 20.55 14.45 21 15 21H19C20.1 21 21 20.1 21 19V15C21 14.45 20.55 14 20 14ZM19 3H15C14.45 3 14 3.45 14 4C14 4.55 14.45 5 15 5H17.59L14.39 8.2C14 8.59 14 9.22 14.39 9.61C14.59 9.81 14.84 9.9 15.1 9.9C15.36 9.9 15.61 9.8 15.81 9.61L19.01 6.41V9C19.01 9.55 19.46 10 20.01 10C20.56 10 21.01 9.55 21.01 9V5C21 3.9 20.1 3 19 3ZM9.71 14.29C9.32 13.9 8.69 13.9 8.3 14.29L5 17.59V15C5 14.45 4.55 14 4 14C3.45 14 3 14.45 3 15V19C3 20.1 3.9 21 5 21H9C9.55 21 10 20.55 10 20C10 19.45 9.55 19 9 19H6.41L9.7 15.71C10.1 15.32 10.1 14.68 9.71 14.29Z" fill="black"/>
</svg>
