<svg width="24" height="24" viewBox="0 0 24 24" fill="none" xmlns="http://www.w3.org/2000/svg">
<path d="M10.05 4C10.05 4.55 9.60005 5 9.05005 5H5.05005V9C5.05005 9.55 4.60005 10 4.05005 10C3.50005 10 3.05005 9.55 3.05005 9V5C3.05005 3.9 3.95005 3 5.05005 3H9.05005C9.60005 3 10.05 3.45 10.05 4ZM20.05 14C19.5 14 19.05 14.45 19.05 15V19H15.05C14.5 19 14.05 19.45 14.05 20C14.05 20.55 14.5 21 15.05 21H19.05C20.15 21 21.05 20.1 21.05 19V15C21.05 14.45 20.6 14 20.05 14ZM16.05 10H20.05C20.6 10 21.05 9.55 21.05 9C21.05 8.45 20.6 8 20.05 8H17.46L20.24 5.22C20.63 4.83 20.63 4.2 20.24 3.81C19.85 3.42 19.22 3.42 18.83 3.81L16.05 6.59V4C16.05 3.45 15.6 3 15.05 3C14.5 3 14.05 3.45 14.05 4V8C14.05 9.1 14.95 10 16.05 10ZM8.05005 14H4.05005C3.50005 14 3.05005 14.45 3.05005 15C3.05005 15.55 3.50005 16 4.05005 16H6.64005L3.75005 18.89C3.36005 19.28 3.36005 19.91 3.75005 20.3C3.95005 20.5 4.20005 20.59 4.46005 20.59C4.72005 20.59 4.97005 20.49 5.17005 20.3L8.06005 17.41V20C8.06005 20.55 8.51005 21 9.06005 21C9.61005 21 10.06 20.55 10.06 20V16C10.05 14.9 9.15005 14 8.05005 14Z" fill="black"/>
</svg>
