<svg width="24" height="24" viewBox="0 0 24 24" fill="none" xmlns="http://www.w3.org/2000/svg">
<path d="M17.98 12.295C18.1375 12.4525 18.1375 12.715 17.98 12.8725L11.5575 19.3037C11.4437 19.4175 11.295 19.4963 11.1375 19.54L6.64 20.6162C6.05375 20.7563 5.52 20.2225 5.66 19.6363L6.73625 15.13C6.77125 14.9725 6.85 14.8325 6.9725 14.71L13.395 8.27875C13.5525 8.12125 13.8062 8.12125 13.9725 8.27875L17.98 12.295ZM21.1388 8.55875L17.7 5.11125C17.385 4.79625 16.8687 4.79625 16.5538 5.11125L15.1188 6.54625C14.9613 6.70375 14.9613 6.96625 15.1188 7.12375L19.135 11.1488C19.2925 11.3062 19.5463 11.3062 19.7125 11.1488L21.1475 9.71375C21.4538 9.39 21.4537 8.87375 21.1388 8.55875ZM6.5 9.25C6.5 9.73125 6.89375 10.125 7.375 10.125C7.85625 10.125 8.25 9.73125 8.25 9.25V7.5H10C10.4812 7.5 10.875 7.10625 10.875 6.625C10.875 6.14375 10.4812 5.75 10 5.75H8.25V4C8.25 3.51875 7.85625 3.125 7.375 3.125C6.89375 3.125 6.5 3.51875 6.5 4V5.75H4.75C4.26875 5.75 3.875 6.14375 3.875 6.625C3.875 7.10625 4.26875 7.5 4.75 7.5H6.5V9.25Z" fill="black"/>
</svg>
