<svg width="24" height="24" viewBox="0 0 24 24" fill="none" xmlns="http://www.w3.org/2000/svg">
<path d="M7.47 9.99C7.47 10.82 8.14 11.49 8.97 11.49C9.8 11.49 10.47 10.82 10.47 9.99C10.47 9.16 9.8 8.49 8.97 8.49C8.14 8.49 7.47 9.16 7.47 9.99Z" fill="black"/>
<path d="M15.01 11.49C15.84 11.49 16.51 10.82 16.51 9.99C16.51 9.16 15.84 8.49 15.01 8.49C14.18 8.49 13.51 9.16 13.51 9.99C13.51 10.82 14.18 11.49 15.01 11.49Z" fill="black"/>
<path d="M8.74725 16.4405C8.34725 16.1505 8.24725 15.5905 8.53725 15.1805C9.33725 14.0705 10.6372 13.4005 12.0072 13.4005C13.3772 13.4005 14.6772 14.0705 15.4772 15.1805C15.7672 15.5805 15.6772 16.1505 15.2672 16.4405C14.8672 16.7305 14.2972 16.6405 14.0072 16.2305C13.5472 15.5905 12.7972 15.2005 11.9972 15.2005C11.1972 15.2005 10.4472 15.5805 9.98725 16.2305C9.71725 16.6405 9.15725 16.7305 8.74725 16.4405Z" fill="black"/>
<path fill-rule="evenodd" clip-rule="evenodd" d="M2 12C2 6.49 6.49 2 12 2C17.51 2 22 6.49 22 12C22 17.51 17.51 22 12 22C6.49 22 2 17.51 2 12ZM4 12C4 16.41 7.59 20 12 20C16.41 20 20 16.41 20 12C20 7.59 16.41 4 12 4C7.59 4 4 7.59 4 12Z" fill="black"/>
</svg>
