<svg width="24" height="24" viewBox="0 0 24 24" fill="none" xmlns="http://www.w3.org/2000/svg">
<path d="M12 18.5C12 14.9 14.9 12 18.5 12C19 12 19.5 12.1 20 12.2V9.8C20 9 19.7 8.2 19.1 7.7L14.3 2.9C13.7 2.3 13 2 12.2 2H7C5.3 2 4 3.3 4 5V19C4 20.7 5.3 22 7 22H13C12.4 21 12 19.8 12 18.5ZM12 5.2C12 4.8 12.5 4.5 12.9 4.8L17.2 9.1C17.5 9.4 17.3 10 16.8 10H13C12.4 10 12 9.6 12 9V5.2ZM18.5 13.5C15.7 13.5 13.5 15.7 13.5 18.5C13.5 21.3 15.7 23.5 18.5 23.5C21.3 23.5 23.5 21.3 23.5 18.5C23.5 15.7 21.3 13.5 18.5 13.5ZM21 19.2H19.2V21C19.2 21.4 18.9 21.8 18.4 21.8C17.9 21.8 17.6 21.5 17.6 21V19.2H16C15.6 19.2 15.2 18.9 15.2 18.4C15.2 17.9 15.5 17.6 16 17.6H17.8V16C17.8 15.6 18.1 15.2 18.6 15.2C19.1 15.2 19.4 15.5 19.4 16V17.8H21C21.4 17.8 21.8 18.1 21.8 18.6C21.8 19.1 21.4 19.2 21 19.2Z" fill="black"/>
</svg>
