<svg width="24" height="24" viewBox="0 0 24 24" fill="none" xmlns="http://www.w3.org/2000/svg">
<path d="M12 2C6.5 2 2 6.5 2 12C2 17.5 6.5 22 12 22C17.5 22 22 17.5 22 12C22 6.5 17.5 2 12 2ZM12 20C7.6 20 4 16.4 4 12C4 7.6 7.6 4 12 4C16.4 4 20 7.6 20 12C20 16.4 16.4 20 12 20ZM13.6 6.9C13.3 6.6 12.9 6.5 12.5 6.5H10C9.2 6.5 8.5 7.2 8.5 8V15C8.5 15.8 9.2 16.5 10 16.5H15C15.8 16.5 16.5 15.8 16.5 15V10.4C16.5 10 16.3 9.6 16.1 9.3L13.6 6.9ZM14.9 10.5H13C12.7 10.5 12.5 10.3 12.5 10V8.1C12.5 7.9 12.8 7.8 12.9 7.9L15 10C15.2 10.2 15.1 10.5 14.9 10.5Z" fill="black"/>
</svg>
