<svg width="24" height="24" viewBox="0 0 24 24" fill="none" xmlns="http://www.w3.org/2000/svg">
<path d="M13.5 10.5H18V11.21C18 11.76 18.45 12.21 19 12.21C19.55 12.21 20 11.76 20 11.21V10.24C20 9.19 19.57 8.16 18.83 7.41L14.59 3.17C13.83 2.42 12.82 2 11.76 2H8C5.79 2 4 3.79 4 6V18C4 20.21 5.79 22 8 22H12C12.55 22 13 21.55 13 21C13 20.45 12.55 20 12 20H8C6.9 20 6 19.1 6 18V6C6 4.9 6.9 4 8 4H11.5V8.5C11.5 9.6 12.4 10.5 13.5 10.5ZM13.5 4.91L17.09 8.5H13.5V4.91ZM23 18.5C23 19.05 22.55 19.5 22 19.5H19.5V22C19.5 22.55 19.05 23 18.5 23C17.95 23 17.5 22.55 17.5 22V19.5H15C14.45 19.5 14 19.05 14 18.5C14 17.95 14.45 17.5 15 17.5H17.5V15C17.5 14.45 17.95 14 18.5 14C19.05 14 19.5 14.45 19.5 15V17.5H22C22.55 17.5 23 17.95 23 18.5Z" fill="black"/>
</svg>
