<svg width="24" height="24" viewBox="0 0 24 24" fill="none" xmlns="http://www.w3.org/2000/svg">
<path d="M8.5 15.5C9.32843 15.5 10 16.1716 10 17V17.5H20C20.5523 17.5 21 17.9477 21 18.5C21 19.0523 20.5523 19.5 20 19.5H10V20C10 20.8284 9.32843 21.5 8.5 21.5H7.5C6.67157 21.5 6 20.8284 6 20V19.5H4C3.44772 19.5 3 19.0523 3 18.5C3 17.9477 3.44772 17.5 4 17.5H6V17C6 16.1716 6.67157 15.5 7.5 15.5H8.5Z" fill="black"/>
<path d="M16.5 9C17.3284 9 18 9.67157 18 10.5V11H20C20.5523 11 21 11.4477 21 12C21 12.5523 20.5523 13 20 13H18V13.5C18 14.3284 17.3284 15 16.5 15H15.5C14.6716 15 14 14.3284 14 13.5V13H4C3.44772 13 3 12.5523 3 12C3 11.4477 3.44772 11 4 11H14V10.5C14 9.67157 14.6716 9 15.5 9H16.5Z" fill="black"/>
<path d="M8.5 2.5C9.32843 2.5 10 3.17157 10 4V4.5H20C20.5523 4.5 21 4.94772 21 5.5C21 6.05228 20.5523 6.5 20 6.5H10V7C10 7.82843 9.32843 8.5 8.5 8.5H7.5C6.67157 8.5 6 7.82843 6 7V6.5H4C3.44772 6.5 3 6.05228 3 5.5C3 4.94772 3.44772 4.5 4 4.5H6V4C6 3.17157 6.67157 2.5 7.5 2.5H8.5Z" fill="black"/>
</svg>
