<svg width="24" height="24" viewBox="0 0 24 24" fill="none" xmlns="http://www.w3.org/2000/svg">
<path d="M21 5.5C21 6.05 20.55 6.5 20 6.5H7.8C7.42 7.38 6.54 8 5.51 8C4.13 8 3.01 6.88 3.01 5.5C3.01 4.12 4.13 3 5.51 3C6.53 3 7.41 3.62 7.8 4.5H20C20.55 4.5 21 4.95 21 5.5ZM18.51 9.5C17.48 9.5 16.61 10.12 16.22 11H4C3.45 11 3 11.45 3 12C3 12.55 3.45 13 4 13H16.23C16.62 13.88 17.49 14.5 18.52 14.5C19.9 14.5 21.02 13.38 21.02 12C21.01 10.62 19.89 9.5 18.51 9.5ZM9.6 17.5H7.8C7.42 16.62 6.54 16 5.51 16C4.13 16 3.01 17.12 3.01 18.5C3.01 19.88 4.13 21 5.51 21C6.53 21 7.41 20.38 7.8 19.5H9.6C10.15 19.5 10.6 19.05 10.6 18.5C10.6 17.95 10.15 17.5 9.6 17.5ZM17.12 22.31L22.71 16.72C23.1 16.33 23.1 15.7 22.71 15.31C22.32 14.92 21.69 14.92 21.3 15.31L16.42 20.19L14.06 17.84C13.67 17.45 13.03 17.45 12.64 17.84C12.25 18.23 12.25 18.87 12.64 19.26L15.7 22.31C15.9 22.5 16.15 22.6 16.41 22.6C16.67 22.6 16.92 22.5 17.12 22.31Z" fill="black"/>
</svg>
