<svg width="24" height="24" viewBox="0 0 24 24" fill="none" xmlns="http://www.w3.org/2000/svg">
<path d="M3 5.5C3 5.45 3.02 5.41 3.03 5.36C3.1 4.05 4.18 3 5.51 3C6.53 3 7.41 3.62 7.8 4.5H20C20.55 4.5 21 4.95 21 5.5C21 6.05 20.55 6.5 20 6.5H7.8C7.42 7.38 6.54 8 5.51 8C4.18 8 3.1 6.95 3.03 5.64C3.02 5.59 3 5.55 3 5.5ZM4 13H16.23C16.62 13.88 17.49 14.5 18.52 14.5C19.9 14.5 21.02 13.38 21.02 12C21.02 10.62 19.9 9.5 18.52 9.5C17.5 9.5 16.62 10.12 16.23 11H4C3.45 11 3 11.45 3 12C3 12.55 3.45 13 4 13ZM20 17.5H7.8C7.42 16.62 6.54 16 5.51 16C4.18 16 3.1 17.05 3.02 18.36C3.02 18.41 3 18.45 3 18.5C3 18.55 3.02 18.59 3.03 18.64C3.1 19.95 4.18 21 5.51 21C6.53 21 7.41 20.38 7.8 19.5H20C20.55 19.5 21 19.05 21 18.5C21 17.95 20.55 17.5 20 17.5Z" fill="black"/>
</svg>
