<svg width="24" height="24" viewBox="0 0 24 24" fill="none" xmlns="http://www.w3.org/2000/svg">
<path d="M21.5801 10.9398L18.4001 7.75979C18.0101 7.36979 17.3801 7.36979 16.9901 7.75979C16.6001 8.14979 16.6001 8.77979 16.9901 9.16979L18.8201 10.9998H5.1801L7.0001 9.17979C7.3901 8.78979 7.3901 8.15978 7.0001 7.76978C6.6101 7.37978 5.9801 7.37978 5.5901 7.76978L2.4101 10.9498C1.8301 11.5298 1.8301 12.4898 2.4101 13.0698L5.5901 16.2498C5.7901 16.4498 6.0401 16.5398 6.3001 16.5398C6.5601 16.5398 6.8101 16.4398 7.0101 16.2498C7.4001 15.8598 7.4001 15.2298 7.0101 14.8398L5.1801 12.9998H18.8101L16.9901 14.8198C16.6001 15.2098 16.6001 15.8398 16.9901 16.2298C17.1901 16.4298 17.4401 16.5198 17.7001 16.5198C17.9601 16.5198 18.2101 16.4198 18.4101 16.2298L21.5901 13.0498C22.1701 12.4798 22.1701 11.5198 21.5801 10.9398Z" fill="black"/>
</svg>
