<svg width="24" height="24" viewBox="0 0 24 24" fill="none" xmlns="http://www.w3.org/2000/svg">
<path fill-rule="evenodd" clip-rule="evenodd" d="M3 5.5V18.5H17L21 5.5H3ZM13.2 15.19H7.89C7.73 15.19 7.59 15.06 7.59 14.89C7.59 14.72 7.72 14.59 7.89 14.59H13.2C13.36 14.59 13.5 14.72 13.5 14.89C13.5 15.06 13.36 15.19 13.2 15.19ZM13.5 10.76V13.61C13.5 13.83 13.32 14 13.11 14H7.98C7.76 14 7.59 13.82 7.59 13.61V10.76C7.26 10.76 7 10.5 7 10.17C7 9.84 7.26 9.58 7.59 9.58C7.92 9.58 8.18 9.84 8.18 10.17C8.18 10.35 8.1 10.51 7.98 10.61L9.05 11.57C9.25 11.75 9.57 11.68 9.68 11.43L10.33 9.84C10.06 9.75 9.86 9.49 9.86 9.19C9.86 8.81 10.17 8.5 10.55 8.5C10.93 8.5 11.24 8.81 11.24 9.19C11.24 9.49 11.04 9.75 10.78 9.84L11.43 11.43C11.53 11.68 11.85 11.76 12.06 11.57L13.13 10.61C13.01 10.5 12.93 10.34 12.93 10.17C12.93 9.84 13.19 9.58 13.52 9.58C13.85 9.58 14.11 9.84 14.11 10.17C14.09 10.5 13.82 10.76 13.5 10.76Z" fill="black"/>
</svg>
