<svg width="24" height="24" viewBox="0 0 24 24" fill="none" xmlns="http://www.w3.org/2000/svg">
<path d="M7.62988 4V20C7.62988 20.55 7.17988 21 6.62988 21C6.07988 21 5.62988 20.55 5.62988 20V4C5.62988 3.45 6.07988 3 6.62988 3C7.17988 3 7.62988 3.45 7.62988 4ZM19.6299 7.93L11.0899 3.96C10.9599 3.9 10.8299 3.88 10.7099 3.87C10.6999 3.87 10.6799 3.86 10.6699 3.86C10.6599 3.86 10.6499 3.87 10.6399 3.87C10.5299 3.87 10.4199 3.9 10.3099 3.94C10.2899 3.95 10.2699 3.96 10.2499 3.97C10.1599 4 10.0699 4.05 9.99988 4.12C9.98988 4.13 9.96988 4.14 9.95988 4.15C9.87988 4.23 9.81988 4.33 9.76988 4.43C9.75988 4.45 9.74988 4.48 9.73988 4.5C9.69988 4.61 9.65988 4.73 9.65988 4.86V12.81C9.65988 12.94 9.68988 13.06 9.72988 13.17C9.73988 13.19 9.74988 13.22 9.75988 13.24C9.80988 13.34 9.86988 13.44 9.94988 13.51C9.95988 13.52 9.97988 13.53 9.98988 13.54C10.0699 13.61 10.1499 13.66 10.2399 13.7C10.2599 13.71 10.2799 13.72 10.2999 13.73C10.3999 13.77 10.5099 13.79 10.6299 13.79C10.6399 13.79 10.6499 13.8 10.6599 13.8C10.6699 13.8 10.6899 13.79 10.6999 13.79C10.8299 13.78 10.9599 13.76 11.0799 13.7L19.6199 9.73C20.3999 9.38 20.3999 8.29 19.6299 7.93Z" fill="black"/>
</svg>
