<svg width="18" height="13" viewBox="0 0 18 13" fill="none" xmlns="http://www.w3.org/2000/svg">
<path fill-rule="evenodd" clip-rule="evenodd" d="M0 0V13H14L18 0H0ZM10.2 9.69H4.89C4.73 9.69 4.59 9.56 4.59 9.39C4.59 9.22 4.72 9.09 4.89 9.09H10.2C10.36 9.09 10.5 9.22 10.5 9.39C10.5 9.56 10.36 9.69 10.2 9.69ZM10.5 5.26V8.11C10.5 8.33 10.32 8.5 10.11 8.5H4.98C4.76 8.5 4.59 8.32 4.59 8.11V5.26C4.26 5.26 4 5 4 4.67C4 4.34 4.26 4.08 4.59 4.08C4.92 4.08 5.18 4.34 5.18 4.67C5.18 4.85 5.1 5.01 4.98 5.11L6.05 6.07C6.25 6.25 6.57 6.18 6.68 5.93L7.33 4.34C7.05 4.24 6.85 3.99 6.85 3.69C6.85 3.31 7.16 3 7.54 3C7.92 3 8.23 3.31 8.23 3.69C8.23 3.99 8.03 4.25 7.77 4.34L8.42 5.93C8.52 6.18 8.84 6.26 9.05 6.07L10.12 5.11C10 5 9.92 4.84 9.92 4.67C9.92 4.34 10.18 4.08 10.51 4.08C10.84 4.08 11.1 4.34 11.1 4.67C11.09 5 10.82 5.26 10.5 5.26Z" fill="black"/>
</svg>
