<svg width="24" height="24" viewBox="0 0 24 24" fill="none" xmlns="http://www.w3.org/2000/svg">
<path d="M19.8899 20.3199L18.0399 15.6299C17.8399 15.1199 17.0099 15.1199 16.8099 15.6299L14.9599 20.3199C14.8599 20.5799 14.9799 20.8699 15.2399 20.9699C15.4999 21.0699 15.7899 20.9499 15.8899 20.6899L16.2799 19.6999H18.5699L18.9599 20.6899C19.0399 20.8899 19.2299 21.0099 19.4199 21.0099C19.4799 21.0099 19.5399 20.9999 19.5999 20.9699C19.8699 20.8699 19.9899 20.5799 19.8899 20.3199ZM16.6799 18.6999L17.4299 16.7999L18.1799 18.6999H16.6799ZM17.9499 10.9099H14.2799C13.9999 10.9099 13.7699 10.6799 13.7699 10.3999V3.4999C13.7699 3.0199 13.1599 2.7999 12.8599 3.1799L5.60988 12.1899C5.33988 12.5299 5.57988 13.0299 6.00988 13.0299H9.67988C9.95988 13.0299 10.1899 13.2599 10.1899 13.5399V20.4399C10.1899 20.9199 10.7999 21.1399 11.0999 20.7599L18.3499 11.7499C18.6199 11.4099 18.3799 10.9099 17.9499 10.9099Z" fill="black"/>
</svg>
