<svg width="24" height="24" viewBox="0 0 24 24" fill="none" xmlns="http://www.w3.org/2000/svg">
<path d="M10.6201 20.8398C10.4701 20.8398 10.3101 20.8098 10.1601 20.7598C9.60005 20.5598 9.24005 20.0498 9.24005 19.4598V13.8498H6.47005C5.94005 13.8498 5.46005 13.5498 5.23005 13.0698C5.00005 12.5898 5.07005 12.0298 5.40005 11.6198L11.7301 3.7598C12.1001 3.2998 12.7001 3.1298 13.2601 3.3298C13.8201 3.5298 14.1801 4.0398 14.1801 4.6298V10.2398H16.9401C17.4701 10.2398 17.9501 10.5398 18.1801 11.0198C18.4101 11.4998 18.3501 12.0598 18.0101 12.4798L11.6801 20.3398C11.4201 20.6598 11.0301 20.8398 10.6201 20.8398ZM7.26005 12.0998H9.62005C10.3801 12.0998 11.0001 12.7198 11.0001 13.4798V18.3998L16.1701 11.9798H13.8001C13.0401 11.9798 12.4201 11.3598 12.4201 10.5998V5.6798L7.26005 12.0998ZM19.8501 20.8498C20.0501 20.6498 20.0501 20.3398 19.8501 20.1398L16.5601 16.8498C16.3601 16.6498 16.0501 16.6498 15.8501 16.8498C15.6501 17.0498 15.6501 17.3598 15.8501 17.5598L19.1401 20.8498C19.2401 20.9498 19.3701 20.9998 19.4901 20.9998C19.6101 20.9998 19.7601 20.9498 19.8501 20.8498ZM16.5601 20.8498L19.8501 17.5598C20.0501 17.3598 20.0501 17.0498 19.8501 16.8498C19.6501 16.6498 19.3401 16.6498 19.1401 16.8498L15.8501 20.1398C15.6501 20.3398 15.6501 20.6498 15.8501 20.8498C15.9501 20.9498 16.0801 20.9998 16.2001 20.9998C16.3201 20.9998 16.4601 20.9498 16.5601 20.8498Z" fill="black"/>
</svg>
