<svg width="24" height="24" viewBox="0 0 24 24" fill="none" xmlns="http://www.w3.org/2000/svg">
<path d="M15.9 14.8022C15.8 14.1022 15.2 13.5022 14.4 13.5022H13.5V13.0022C13.5 12.4022 13.1 12.0022 12.5 12.0022C11.9 12.0022 11.5 12.4022 11.5 13.0022V13.5022H10.6C9.89999 13.5022 9.19999 14.1022 9.09999 14.8022L8.4 19.7022C8.3 20.3022 8.49999 20.9022 8.9 21.3022C9.3 21.7022 9.79999 22.0022 10.4 22.0022H14.6C15.2 22.0022 15.7 21.7022 16.1 21.3022C16.5 20.9022 16.7 20.3022 16.6 19.7022L15.9 14.8022ZM14 20.0022H11C10.7 20.0022 10.5 19.7022 10.5 19.4022L11 15.9022C11 15.7022 11.2 15.5022 11.5 15.5022H13.5C13.7 15.5022 14 15.7022 14 15.9022L14.5 19.4022C14.6 19.7022 14.3 20.0022 14 20.0022Z" fill="black"/>
<path d="M18.2 9.5022C16.7 9.5022 15.2 10.0022 14.3 11.9022C14.2 12.2022 14.3 12.5022 14.6 12.5022H14.7C16.2 12.5022 16.7 12.0022 17.5 11.3022C17.7 11.1022 18.3 10.3022 18.5 10.0022C18.6 9.8022 18.4 9.5022 18.2 9.5022Z" fill="black"/>
<path d="M10.1 10.8021L10.7 10.4021C10.9 10.3021 11.1 10.3021 11.3 10.4021L11.9 10.8021C13 11.6021 14.4 10.7021 14.3 9.4021L14.2 8.7021C14.2 8.5021 14.3 8.3021 14.5 8.2021L15.1 7.9021C16.3 7.4021 16.3 5.7021 15.1 5.2021L14.5 4.9021C14.3 4.8021 14.1 4.6021 14.2 4.4021L14.3 3.7021C14.4 2.4021 13 1.6021 11.9 2.3021L11.3 2.7021C11.1 2.8021 10.9 2.8021 10.7 2.7021L10.1 2.3021C9.1 1.5021 7.6 2.4021 7.8 3.7021L7.9 4.4021C7.9 4.6021 7.8 4.8021 7.6 4.9021L6.9 5.2021C5.7 5.7021 5.7 7.4021 6.9 7.9021L7.5 8.2021C7.7 8.3021 7.8 8.5021 7.8 8.7021V9.4021C7.6 10.7021 9.1 11.5021 10.1 10.8021ZM11 5.3021C11.7 5.3021 12.2 5.9021 12.2 6.6021C12.2 7.3021 11.6 7.8021 11 7.8021C10.3 7.8021 9.8 7.2021 9.8 6.6021C9.7 5.8021 10.3 5.3021 11 5.3021Z" fill="black"/>
</svg>
