<svg width="24" height="24" viewBox="0 0 24 24" fill="none" xmlns="http://www.w3.org/2000/svg">
<path d="M21.7001 7.56992V15.1599C21.7001 16.0599 21.1 16.8199 20.2801 17.0599V9.02992C20.2801 7.92992 19.38 7.02992 18.28 7.02992H13.33C13.23 7.02992 13.13 6.98992 13.06 6.91992L11.92 5.77992C11.66 5.51992 11.31 5.37992 10.95 5.37992H5.23005C5.47005 4.53992 6.23005 3.91992 7.15005 3.91992H12.37C12.73 3.91992 13.08 4.05992 13.34 4.31992L14.48 5.45992C14.55 5.52992 14.65 5.56992 14.75 5.56992H19.7001C20.8101 5.56992 21.7001 6.46992 21.7001 7.56992ZM16.86 8.48992H11.96C11.83 8.48992 11.7 8.43992 11.61 8.33992L10.54 7.26992C10.25 6.99992 9.87005 6.83992 9.47005 6.83992H4.30005C3.20005 6.83992 2.30005 7.73992 2.30005 8.83992V18.0899C2.30005 19.1899 3.20005 20.0899 4.30005 20.0899H16.86C17.96 20.0899 18.8601 19.1899 18.8601 18.0899V10.4999C18.8601 9.38992 17.96 8.48992 16.86 8.48992Z" fill="black"/>
</svg>
