<svg width="24" height="24" viewBox="0 0 24 24" fill="none" xmlns="http://www.w3.org/2000/svg">
<path d="M19.5001 5.1001L14.7601 5.0801L13.4301 4.0801C13.0201 3.7701 12.5101 3.6001 12.0001 3.6001H7.50012C6.19012 3.6001 5.12012 4.6701 5.12012 5.9801V7.6001H4.50012C3.19012 7.6001 2.12012 8.6701 2.12012 9.9801V17.9801C2.12012 19.2901 3.19012 20.3601 4.50012 20.3601H16.5001C17.8101 20.3601 18.8801 19.2901 18.8801 17.9801V16.3601H19.5001C20.8101 16.3601 21.8801 15.2901 21.8801 13.9801V7.4801C21.8801 6.1701 20.8101 5.1001 19.5001 5.1001ZM17.1201 17.9801C17.1201 18.3201 16.8401 18.6001 16.5001 18.6001H4.50012C4.16012 18.6001 3.88012 18.3201 3.88012 17.9801V9.9801C3.88012 9.6401 4.16012 9.3601 4.50012 9.3601H9.00012C9.13012 9.3601 9.27012 9.4001 9.38012 9.4801L10.7101 10.4801C11.0301 10.7201 11.4301 10.8601 11.8301 10.8601H16.5001C16.8401 10.8601 17.1201 11.1401 17.1201 11.4801V17.9801ZM20.1201 13.9801C20.1201 14.3201 19.8401 14.6001 19.5001 14.6001H18.8801V11.4801C18.8801 10.1701 17.8101 9.1001 16.5001 9.1001L11.7601 9.0801L10.4301 8.0801C10.0201 7.7701 9.51012 7.6001 9.00012 7.6001H6.88012V5.9801C6.88012 5.6401 7.16012 5.3601 7.50012 5.3601H12.0001C12.1301 5.3601 12.2701 5.4001 12.3801 5.4801L13.7101 6.4801C14.0301 6.7201 14.4301 6.8601 14.8301 6.8601H19.5001C19.8401 6.8601 20.1201 7.1401 20.1201 7.4801V13.9801Z" fill="black"/>
</svg>
