<svg width="24" height="24" viewBox="0 0 24 24" fill="none" xmlns="http://www.w3.org/2000/svg">
<path d="M19.6099 18.9298L13.8599 4.34984C13.5599 3.57984 12.8299 3.08984 11.9999 3.08984C11.1699 3.08984 10.4399 3.58984 10.1399 4.35984L4.38989 18.9298C4.08989 19.6998 4.45989 20.5698 5.22989 20.8798C5.40989 20.9498 5.59989 20.9798 5.77989 20.9798C6.37989 20.9798 6.93989 20.6198 7.17989 20.0298L8.40989 16.9198H15.5999L16.8299 20.0298C17.1299 20.7998 18.0099 21.1798 18.7799 20.8798C19.5299 20.5698 19.9099 19.6998 19.6099 18.9298ZM9.58989 13.9198L11.9999 7.80984L14.4099 13.9198H9.58989Z" fill="black"/>
</svg>
