<svg width="24" height="24" viewBox="0 0 24 24" fill="none" xmlns="http://www.w3.org/2000/svg">
<path d="M14.03 14.5401L9.77004 3.76014C9.56004 3.23014 9.06004 2.89014 8.50004 2.89014C7.93004 2.89014 7.43004 3.23014 7.23004 3.76014L2.97004 14.5401C2.77004 15.0501 3.02004 15.6301 3.53004 15.8401C3.65004 15.8901 3.78004 15.9101 3.90004 15.9101C4.30004 15.9101 4.68004 15.6701 4.83004 15.2801L5.76004 12.9101H11.23L12.16 15.2801C12.36 15.7901 12.94 16.0401 13.46 15.8401C13.98 15.6401 14.23 15.0601 14.03 14.5401ZM6.55004 10.9101L8.50004 5.98014L10.44 10.9101H6.55004ZM21 20.0401L18.28 13.1501C18.13 12.7701 17.77 12.5201 17.36 12.5201C16.95 12.5201 16.59 12.7701 16.44 13.1401L13.72 20.0301C13.57 20.4201 13.76 20.8501 14.14 21.0001C14.53 21.1501 14.96 20.9601 15.11 20.5801L15.68 19.1401H19.02L19.59 20.5801C19.71 20.8701 19.99 21.0501 20.29 21.0501C20.38 21.0501 20.47 21.0301 20.57 21.0001C20.96 20.8601 21.15 20.4201 21 20.0401ZM16.28 17.6401L17.36 14.9001L18.44 17.6401H16.28Z" fill="black"/>
</svg>
