<svg width="24" height="24" viewBox="0 0 24 24" fill="none" xmlns="http://www.w3.org/2000/svg">
<path fill-rule="evenodd" clip-rule="evenodd" d="M15.892 10.475V13.534C15.8917 13.7914 15.7893 14.0381 15.6073 14.22C15.4252 14.4018 15.1784 14.504 14.921 14.504H14.862C14.6048 14.5037 14.3583 14.4015 14.1764 14.2196C13.9946 14.0377 13.8923 13.7912 13.892 13.534V10.475C13.892 10.2176 13.9942 9.97082 14.1761 9.78875C14.3579 9.60668 14.6047 9.50426 14.862 9.504H14.921C15.1785 9.504 15.4255 9.6063 15.6076 9.7884C15.7897 9.9705 15.892 10.2175 15.892 10.475ZM22 12C22 13.9778 21.4135 15.9112 20.3147 17.5557C19.2159 19.2002 17.6541 20.4819 15.8268 21.2388C13.9996 21.9957 11.9889 22.1937 10.0491 21.8079C8.10929 21.422 6.32746 20.4696 4.92894 19.0711C3.53041 17.6725 2.578 15.8907 2.19215 13.9509C1.8063 12.0111 2.00433 10.0004 2.76121 8.17317C3.51809 6.3459 4.79981 4.78412 6.4443 3.6853C8.08879 2.58649 10.0222 2 12 2C13.3132 2 14.6136 2.25866 15.8268 2.7612C17.0401 3.26375 18.1425 4.00035 19.0711 4.92893C19.9997 5.85752 20.7363 6.95991 21.2388 8.17317C21.7413 9.38642 22 10.6868 22 12ZM11.25 8.36C11.0803 8.25648 10.8765 8.22446 10.6833 8.27095C10.49 8.31743 10.3231 8.43864 10.219 8.608L9.108 10.425L8 8.608C7.94853 8.52402 7.88101 8.451 7.80131 8.39311C7.72162 8.33523 7.6313 8.2936 7.53551 8.27062C7.34207 8.2242 7.13811 8.25654 6.9685 8.3605C6.7989 8.46447 6.67754 8.63155 6.63112 8.82499C6.58471 9.01844 6.61704 9.22239 6.721 9.392L8 11.483H7.331C7.1984 11.483 7.07122 11.5357 6.97745 11.6294C6.88368 11.7232 6.831 11.8504 6.831 11.983C6.831 12.1156 6.88368 12.2428 6.97745 12.3366C7.07122 12.4303 7.1984 12.483 7.331 12.483H8.358V12.971H7.331C7.1984 12.971 7.07122 13.0237 6.97745 13.1174C6.88368 13.2112 6.831 13.3384 6.831 13.471C6.831 13.6036 6.88368 13.7308 6.97745 13.8246C7.07122 13.9183 7.1984 13.971 7.331 13.971H8.358V15C8.358 15.1989 8.43702 15.3897 8.57767 15.5303C8.71833 15.671 8.90909 15.75 9.108 15.75C9.30692 15.75 9.49768 15.671 9.63833 15.5303C9.77899 15.3897 9.858 15.1989 9.858 15V13.971H10.831C10.9636 13.971 11.0908 13.9183 11.1846 13.8246C11.2783 13.7308 11.331 13.6036 11.331 13.471C11.331 13.3384 11.2783 13.2112 11.1846 13.1174C11.0908 13.0237 10.9636 12.971 10.831 12.971H9.858V12.483H10.831C10.9636 12.483 11.0908 12.4303 11.1846 12.3366C11.2783 12.2428 11.331 12.1156 11.331 11.983C11.331 11.8504 11.2783 11.7232 11.1846 11.6294C11.0908 11.5357 10.9636 11.483 10.831 11.483H10.219L11.5 9.392C11.6037 9.22199 11.6356 9.01776 11.5887 8.82424C11.5418 8.63071 11.42 8.46373 11.25 8.36ZM17.392 10.475C17.3925 10.1502 17.329 9.82842 17.2051 9.52816C17.0811 9.2279 16.8992 8.95503 16.6697 8.72515C16.4402 8.49528 16.1676 8.3129 15.8675 8.18848C15.5675 8.06405 15.2458 8 14.921 8H14.862C14.5376 8 14.2163 8.06392 13.9165 8.18811C13.6168 8.3123 13.3445 8.49433 13.1151 8.7238C12.8857 8.95327 12.7038 9.22568 12.5797 9.52547C12.4557 9.82525 12.3919 10.1466 12.392 10.471V13.53C12.392 14.1851 12.6522 14.8133 13.1155 15.2766C13.5787 15.7398 14.2069 16 14.862 16H14.921C15.2455 16.0001 15.5668 15.9363 15.8665 15.8123C16.1663 15.6882 16.4387 15.5063 16.6682 15.2769C16.8977 15.0475 17.0797 14.7752 17.2039 14.4755C17.3281 14.1757 17.392 13.8544 17.392 13.53V10.475Z" fill="black"/>
</svg>
