<svg width="24" height="24" viewBox="0 0 24 24" fill="none" xmlns="http://www.w3.org/2000/svg">
<path d="M12 2C6.48 2 2 6.48 2 12C2 17.52 6.48 22 12 22C17.52 22 22 17.52 22 12C22 6.48 17.52 2 12 2ZM12 20C7.59 20 4 16.41 4 12C4 7.59 7.59 4 12 4C16.41 4 20 7.59 20 12C20 16.41 16.41 20 12 20Z" fill="black"/>
<path d="M11.25 8.36C10.9 8.14 10.44 8.26 10.22 8.61L9.11 10.43L8 8.61C7.78 8.26 7.32 8.14 6.97 8.36C6.62 8.58 6.5 9.04 6.72 9.39L8 11.48H7.33C7.05 11.48 6.83 11.7 6.83 11.98C6.83 12.26 7.05 12.48 7.33 12.48H8.36V12.97H7.33C7.05 12.97 6.83 13.19 6.83 13.47C6.83 13.75 7.05 13.97 7.33 13.97H8.36V15C8.36 15.41 8.7 15.75 9.11 15.75C9.52 15.75 9.86 15.41 9.86 15V13.97H10.83C11.11 13.97 11.33 13.75 11.33 13.47C11.33 13.19 11.11 12.97 10.83 12.97H9.86V12.48H10.83C11.11 12.48 11.33 12.26 11.33 11.98C11.33 11.7 11.11 11.48 10.83 11.48H10.22L11.5 9.39C11.71 9.04 11.6 8.58 11.25 8.36Z" fill="black"/>
<path d="M14.92 8H14.86C13.5 8 12.39 9.11 12.39 10.47V13.53C12.39 14.89 13.5 16 14.86 16H14.92C16.28 16 17.39 14.89 17.39 13.53V10.47C17.39 9.11 16.29 8 14.92 8ZM15.89 13.53C15.89 14.07 15.45 14.5 14.92 14.5H14.86C14.32 14.5 13.89 14.06 13.89 13.53V10.47C13.89 9.93 14.33 9.5 14.86 9.5H14.92C15.46 9.5 15.89 9.94 15.89 10.47V13.53Z" fill="black"/>
</svg>
