<svg width="24" height="24" viewBox="0 0 24 24" fill="none" xmlns="http://www.w3.org/2000/svg">
<path d="M22.2001 7.50029C22.1001 5.00029 19.7001 3.30029 17.3001 3.80029C13.8001 4.60029 10.1001 4.60029 6.60006 3.80029C4.30006 3.30029 1.90006 5.00029 1.80006 7.50029L1.20006 17.2003C1.10006 19.6003 3.70006 21.2003 5.70006 19.9003L10.4001 17.1003C11.4001 16.5003 12.5001 16.5003 13.5001 17.1003L18.2001 19.9003C20.3001 21.1003 22.9001 19.6003 22.7001 17.2003L22.2001 7.50029ZM11.2001 11.0003C11.2001 11.3003 11.0001 11.5003 10.7001 11.5003H9.00006V13.3003C9.00006 13.6003 8.80007 13.8003 8.50006 13.8003H7.50006C7.20006 13.8003 7.00006 13.6003 7.00006 13.3003V11.5003H5.20006C4.90006 11.5003 4.70006 11.3003 4.70006 11.0003V10.0003C4.70006 9.70029 4.90006 9.50029 5.20006 9.50029H7.00006V7.70029C7.00006 7.40029 7.20006 7.20029 7.50006 7.20029H8.50006C8.80007 7.20029 9.00006 7.50029 9.00006 7.70029V9.50029H10.8001C11.1001 9.50029 11.3001 9.70029 11.3001 10.0003V11.0003H11.2001ZM15.5001 13.5003C14.7001 13.5003 14.0001 12.8003 14.0001 12.0003C14.0001 11.2003 14.7001 10.5003 15.5001 10.5003C16.3001 10.5003 17.0001 11.2003 17.0001 12.0003C17.0001 12.8003 16.3001 13.5003 15.5001 13.5003ZM18.5001 10.5003C17.7001 10.5003 17.0001 9.80029 17.0001 9.00029C17.0001 8.20029 17.7001 7.50029 18.5001 7.50029C19.3001 7.50029 20.0001 8.20029 20.0001 9.00029C20.0001 9.80029 19.3001 10.5003 18.5001 10.5003Z" fill="black"/>
</svg>
