<svg width="24" height="24" viewBox="0 0 24 24" fill="none" xmlns="http://www.w3.org/2000/svg">
<path d="M16.2 12.0999C16.2 12.8999 15.6 13.4999 14.8 13.4999C14 13.4999 13.4 12.8999 13.4 12.0999C13.4 11.2999 14 10.6999 14.8 10.6999C15.6 10.6999 16.2 11.3999 16.2 12.0999ZM17.6 7.99992C16.8 7.99992 16.2 8.59992 16.2 9.39992C16.2 10.1999 16.8 10.7999 17.6 10.7999C18.4 10.7999 19 10.0999 19 9.39992C19 8.69992 18.4 7.99992 17.6 7.99992ZM10.6 9.59992H8.89995V7.89992C8.89995 7.69992 8.69995 7.49992 8.49995 7.49992H7.59995C7.39995 7.49992 7.19995 7.69992 7.19995 7.89992V9.59992H5.39995C5.19995 9.59992 4.99995 9.79992 4.99995 10.0999V10.9999C4.99995 11.1999 5.19995 11.3999 5.39995 11.3999H7.09995V13.0999C7.09995 13.2999 7.29995 13.4999 7.49995 13.4999H8.39995C8.59995 13.4999 8.79995 13.2999 8.79995 13.0999V11.3999H10.5C10.7 11.3999 10.9 11.1999 10.9 10.9999V10.0999C11 9.79992 10.8 9.59992 10.6 9.59992ZM22.7 15.2999C22.8 16.7999 22.1 18.1999 20.8 18.9999C20.2 19.3999 19.4 19.5999 18.7 19.5999C18 19.5999 17.3 19.3999 16.6 18.9999L13 16.7999C12.4 16.3999 11.6 16.3999 10.9 16.7999L7.29995 18.9999C5.99995 19.7999 4.39995 19.7999 3.19995 18.9999C1.89995 18.1999 1.19995 16.7999 1.29995 15.2999L1.79995 7.49992C1.89995 6.29992 2.39995 5.29992 3.39995 4.49992C4.29995 3.79992 5.49995 3.49992 6.69995 3.79992C10.2 4.59992 13.9 4.59992 17.4 3.79992C18.5 3.49992 19.7 3.79992 20.7 4.49992C21.6 5.19992 22.2 6.29992 22.3 7.49992L22.7 15.2999ZM20.7 15.3999L20.2 7.59992C20.2 6.99992 19.9 6.49992 19.4 6.09992C18.9 5.69992 18.3 5.59992 17.8 5.69992C14 6.59992 9.99995 6.59992 6.19995 5.69992C5.59995 5.59992 4.99995 5.69992 4.59995 6.09992C4.09995 6.49992 3.79995 6.99992 3.79995 7.59992L3.29995 15.3999C3.29995 16.1999 3.59995 16.7999 4.29995 17.1999C4.89995 17.5999 5.69995 17.5999 6.39995 17.1999L9.99995 14.9999C10.6 14.5999 11.3 14.3999 12.1 14.3999C12.9 14.3999 13.5 14.5999 14.2 14.9999L17.8 17.1999C18.4 17.5999 19.2 17.5999 19.9 17.1999C20.4 16.7999 20.7 16.0999 20.7 15.3999Z" fill="black"/>
</svg>
