<svg width="24" height="24" viewBox="0 0 24 24" fill="none" xmlns="http://www.w3.org/2000/svg">
<path d="M15.85 13.6199C15.85 14.3799 15.23 14.9999 14.47 14.9999C13.71 14.9999 13.09 14.3799 13.09 13.6199C13.09 12.8599 13.71 12.2399 14.47 12.2399C15.23 12.2499 15.85 12.8699 15.85 13.6199ZM17.22 9.4999C16.46 9.4999 15.84 10.1199 15.84 10.8799C15.84 11.6399 16.46 12.2599 17.22 12.2599C17.98 12.2599 18.6 11.6399 18.6 10.8799C18.6 10.1199 17.98 9.4999 17.22 9.4999ZM11.07 11.1399H9.36V9.4299C9.36 9.1899 9.17 8.9999 8.93 8.9999H8.07C7.83 8.9999 7.64 9.1899 7.64 9.4299V11.1399H5.93C5.69 11.1399 5.5 11.3299 5.5 11.5699V12.4299C5.5 12.6699 5.69 12.8599 5.93 12.8599H7.64V14.5699C7.64 14.8099 7.83 14.9999 8.07 14.9999H8.93C9.17 14.9999 9.36 14.8099 9.36 14.5699V12.8599H11.07C11.31 12.8599 11.5 12.6699 11.5 12.4299V11.5699C11.5 11.3299 11.31 11.1399 11.07 11.1399ZM22 11.9999C22 15.4999 19.15 18.3499 15.65 18.3499H8.35C4.85 18.3499 2 15.4999 2 11.9999C2 8.4999 4.85 5.6499 8.35 5.6499H15.65C19.15 5.6499 22 8.4999 22 11.9999ZM20 11.9999C20 9.5999 18.05 7.6499 15.65 7.6499H8.35C5.95 7.6499 4 9.5999 4 11.9999C4 14.3999 5.95 16.3499 8.35 16.3499H15.65C18.05 16.3499 20 14.3999 20 11.9999Z" fill="black"/>
</svg>
