<svg width="24" height="24" viewBox="0 0 24 24" fill="none" xmlns="http://www.w3.org/2000/svg">
<path fill-rule="evenodd" clip-rule="evenodd" d="M19.3999 13.1501C19.4599 12.7701 19.4999 12.3901 19.4999 12.0001C19.4999 11.6101 19.4599 11.2301 19.3999 10.8501L20.8399 9.7401C21.2299 9.4301 21.3399 8.8801 21.0899 8.4501L19.6199 5.9001C19.3699 5.4701 18.8399 5.2901 18.3799 5.4701L16.6999 6.1601C16.0999 5.6801 15.4299 5.2901 14.6999 5.0101L14.4499 3.2101C14.3799 2.7201 13.9599 2.3501 13.4599 2.3501H10.5199C10.0199 2.3501 9.59989 2.7201 9.52989 3.2101L9.27989 5.0101C8.54989 5.2901 7.87989 5.6801 7.27989 6.1601L5.61989 5.4801C5.15989 5.2901 4.62989 5.4701 4.37989 5.9001L2.90989 8.4501C2.65989 8.8801 2.76989 9.4301 3.15989 9.7401L4.59989 10.8501C4.53989 11.2301 4.49989 11.6101 4.49989 12.0001C4.49989 12.3901 4.53989 12.7701 4.59989 13.1501L3.15989 14.2601C2.76989 14.5701 2.65989 15.1201 2.90989 15.5501L4.37989 18.0901C4.62989 18.5201 5.15989 18.7001 5.61989 18.5201L7.29989 17.8401C7.89989 18.3201 8.56989 18.7101 9.29989 18.9901L9.54989 20.7901C9.61989 21.2801 10.0399 21.6501 10.5399 21.6501H13.4799C13.9799 21.6501 14.3999 21.2801 14.4699 20.7901L14.7199 18.9901C15.4499 18.7101 16.1199 18.3201 16.7199 17.8401L18.3999 18.5201C18.8599 18.7101 19.3899 18.5301 19.6399 18.0901L21.1099 15.5501C21.3599 15.1201 21.2499 14.5701 20.8599 14.2601L19.3999 13.1501ZM11.9999 15.0001C10.3399 15.0001 8.99989 13.6601 8.99989 12.0001C8.99989 10.3401 10.3399 9.0001 11.9999 9.0001C13.6599 9.0001 14.9999 10.3401 14.9999 12.0001C14.9999 13.6601 13.6599 15.0001 11.9999 15.0001Z" fill="black"/>
</svg>
