<svg width="24" height="24" viewBox="0 0 24 24" fill="none" xmlns="http://www.w3.org/2000/svg">
<path d="M12 15.88C9.86002 15.88 8.12002 14.14 8.12002 12C8.12002 9.86002 9.86002 8.12002 12 8.12002C14.14 8.12002 15.88 9.86002 15.88 12C15.88 14.14 14.14 15.88 12 15.88ZM12 9.88002C10.83 9.88002 9.88002 10.83 9.88002 12C9.88002 13.17 10.83 14.12 12 14.12C13.17 14.12 14.12 13.17 14.12 12C14.12 10.83 13.17 9.88002 12 9.88002ZM13.08 21.97H10.92C9.99002 21.97 9.19002 21.27 9.06002 20.35L8.90002 19.21C8.33002 18.96 7.79002 18.65 7.30002 18.27L6.23002 18.71C5.37002 19.06 4.37002 18.72 3.90002 17.91L2.82002 16.04C2.35002 15.23 2.56002 14.19 3.29002 13.62L4.22002 12.89C4.19002 12.6 4.17002 12.3 4.17002 12C4.17002 11.7 4.19002 11.4 4.23002 11.09L3.30002 10.37C2.56002 9.79002 2.36002 8.75002 2.82002 7.95002L3.90002 6.08002C4.37002 5.27002 5.37002 4.93002 6.23002 5.28002L7.31002 5.72002C7.80002 5.35002 8.34002 5.04002 8.90002 4.79002L9.06002 3.64002C9.19002 2.72002 9.99002 2.02002 10.92 2.02002H13.08C14.01 2.02002 14.81 2.72002 14.94 3.64002L15.09 4.74002C15.68 4.99002 16.24 5.31002 16.76 5.69002L17.78 5.27002C18.64 4.92002 19.65 5.26002 20.11 6.07002L21.19 7.94002C21.66 8.75002 21.45 9.79002 20.72 10.36L19.88 11.01C19.92 11.34 19.94 11.67 19.94 12C19.94 12.32 19.92 12.65 19.88 12.98L20.72 13.63C21.46 14.2 21.66 15.24 21.19 16.05L20.11 17.92C19.64 18.73 18.64 19.07 17.78 18.72L16.77 18.31C16.25 18.7 15.69 19.02 15.1 19.27L14.95 20.36C14.81 21.28 14.01 21.97 13.08 21.97ZM7.62002 16.26L8.03002 16.61C8.61002 17.11 9.27002 17.5 10 17.76L10.5 17.94L10.8 20.11C10.81 20.17 10.86 20.22 10.92 20.22H13.08C13.14 20.22 13.2 20.17 13.2 20.11L13.49 17.97L14 17.8C14.75 17.55 15.43 17.16 16.03 16.64L16.44 16.29L18.42 17.1C18.48 17.13 18.54 17.1 18.57 17.05L19.65 15.18C19.68 15.13 19.67 15.06 19.62 15.02L17.94 13.72L18.04 13.19C18.12 12.79 18.16 12.4 18.16 12.01C18.16 11.62 18.12 11.22 18.04 10.82L17.94 10.29L19.62 8.99002C19.67 8.95002 19.68 8.88002 19.65 8.83002L18.57 6.96002C18.54 6.91002 18.47 6.88002 18.41 6.91002L16.42 7.72002L16.01 7.37002C15.41 6.86002 14.73 6.47002 13.98 6.21002L13.5 6.03002L13.2 3.88002C13.19 3.82002 13.14 3.77002 13.08 3.77002H10.92C10.86 3.77002 10.8 3.81002 10.8 3.88002L10.5 6.06002L10 6.24002C9.27002 6.50002 8.61002 6.88002 8.04002 7.39002L7.63002 7.74002L5.57002 6.90002C5.51002 6.88002 5.45002 6.90002 5.41002 6.95002L4.34002 8.82002C4.31002 8.88002 4.32002 8.94002 4.37002 8.98002L6.13002 10.35L6.03002 10.88C5.96002 11.26 5.92002 11.64 5.92002 12C5.92002 12.36 5.96002 12.73 6.03002 13.12L6.13002 13.64L4.37002 15.01C4.32002 15.05 4.31002 15.12 4.34002 15.17L5.42002 17.04C5.45002 17.09 5.52002 17.12 5.58002 17.09L7.62002 16.26Z" fill="black"/>
</svg>
