<svg width="24" height="24" viewBox="0 0 24 24" fill="none" xmlns="http://www.w3.org/2000/svg">
<path d="M13.93 21C13.93 21.55 13.48 22 12.93 22H7C5.35 22 4 20.65 4 19V7.97998V4.97998C4 3.31998 5.34 1.97998 7 1.97998H17C18.66 1.97998 20 3.31998 20 4.97998V4.99998V12.81C20 13.36 19.55 13.81 19 13.81C18.45 13.81 18 13.36 18 12.81V7.97998H6V19C6 19.55 6.45 20 7 20H12.93C13.48 20 13.93 20.45 13.93 21ZM15.85 13.45C16.13 13.18 15.97 12.71 15.59 12.67L13.33 12.4L12.41 10.26C12.25 9.88998 11.73 9.88998 11.57 10.26L10.65 12.4L8.39 12.67C8.01 12.72 7.85 13.19 8.13 13.45L9.82 15.09L9.37 17.44C9.29 17.83 9.71 18.12 10.05 17.92L11.99 16.76L13.93 17.92C14.27 18.12 14.69 17.83 14.61 17.44L14.16 15.09L15.85 13.45ZM22 18.3H20V16.3C20 15.75 19.55 15.3 19 15.3C18.45 15.3 18 15.75 18 16.3V18.3H16C15.45 18.3 15 18.75 15 19.3C15 19.85 15.45 20.3 16 20.3H18V22.3C18 22.85 18.45 23.3 19 23.3C19.55 23.3 20 22.85 20 22.3V20.3H22C22.55 20.3 23 19.85 23 19.3C23 18.75 22.55 18.3 22 18.3Z" fill="black"/>
</svg>
