<svg width="24" height="24" viewBox="0 0 24 24" fill="none" xmlns="http://www.w3.org/2000/svg">
<path fill-rule="evenodd" clip-rule="evenodd" d="M11.15 20H7C6.45 20 6 19.55 6 19V7.97998H18V14.95C18 15.5 18.45 15.95 19 15.95C19.55 15.95 20 15.5 20 14.95V7.97998V4.99998V4.97998C20 3.31998 18.66 1.97998 17 1.97998H7C5.34 1.97998 4 3.31998 4 4.97998V4.99998V7.97998V19C4 20.65 5.35 22 7 22H11.15C11.7 22 12.15 21.55 12.15 21C12.15 20.45 11.71 20 11.15 20ZM15.59 12.6602L13.33 12.3902L12.41 10.2502C12.25 9.88016 11.73 9.88016 11.57 10.2502L10.65 12.3902L8.39002 12.6602C8.01002 12.7102 7.85002 13.1802 8.13002 13.4402L9.82002 15.0802L9.37002 17.4302C9.29002 17.8202 9.71002 18.1102 10.05 17.9102L11.99 16.7502L13.93 17.9102C14.27 18.1102 14.69 17.8202 14.61 17.4302L14.16 15.0802L15.85 13.4402C16.13 13.1802 15.97 12.7102 15.59 12.6602ZM20.3401 17.4302C20.7401 17.0402 21.3701 17.0402 21.7601 17.4302C22.1501 17.8202 22.1501 18.4502 21.7701 18.8502L17.7201 22.8902C17.5201 23.0802 17.2701 23.1802 17.0101 23.1802C16.7601 23.1802 16.5101 23.0802 16.3101 22.8902L14.1401 20.7502C13.7501 20.3702 13.7401 19.7302 14.1301 19.3402C14.5101 18.9502 15.1501 18.9402 15.5401 19.3302L17.0001 20.7702L20.3401 17.4302Z" fill="black"/>
</svg>
