<svg width="24" height="24" viewBox="0 0 24 24" fill="none" xmlns="http://www.w3.org/2000/svg">
<path d="M8.12999 13.4602C7.84999 13.1902 8.00999 12.7202 8.38999 12.6802L10.65 12.4102L11.57 10.2702C11.73 9.90024 12.25 9.90024 12.41 10.2702L13.33 12.4102L15.59 12.6802C15.97 12.7302 16.13 13.2002 15.85 13.4602L14.16 15.1002L14.61 17.4502C14.69 17.8402 14.27 18.1302 13.93 17.9302L11.99 16.7702L10.05 17.9302C9.70999 18.1302 9.28999 17.8402 9.36999 17.4502L9.81999 15.1002L8.12999 13.4602ZM19.99 4.99023V5.01023V7.99023V19.0102C19.99 20.6702 18.65 22.0102 16.99 22.0102H6.98999C5.32999 22.0102 3.98999 20.6702 3.98999 19.0102V7.99023V5.01023V4.99023C3.98999 3.33023 5.32999 1.99023 6.98999 1.99023H16.99C18.65 1.99023 19.99 3.33023 19.99 4.99023ZM17.99 7.99023H5.98999V19.0102C5.98999 19.5602 6.43999 20.0102 6.98999 20.0102H16.99C17.54 20.0102 17.99 19.5602 17.99 19.0102V7.99023Z" fill="black"/>
</svg>
