<svg width="24" height="24" viewBox="0 0 24 24" fill="none" xmlns="http://www.w3.org/2000/svg">
<path fill-rule="evenodd" clip-rule="evenodd" d="M20.5301 18.02C20.4401 17.93 19.6301 16.58 17.5001 15.5C18.9901 14.44 19.9601 12.72 19.9601 10.72C19.9601 7.52 17.4501 5 14.4001 5C13.5701 5 12.8201 5.19 12.1101 5.53C11.4201 5.19 10.6401 5 9.8101 5C6.7601 5 4.3501 7.53 4.3501 10.74C4.3501 12.74 5.2401 14.44 6.7201 15.51C4.5801 16.61 3.6801 17.92 3.6201 18.03C3.4701 18.3 3.4501 18.56 3.5801 18.79C3.7301 19.05 3.9301 19.18 4.2401 19.18H19.9001C20.1801 19.18 20.4301 19.02 20.5601 18.79C20.7101 18.52 20.6901 18.25 20.5301 18.02ZM6.7501 9.22C6.7501 8.74 7.1401 8.34 7.6301 8.34C8.1101 8.34 8.5101 8.73 8.5101 9.22C8.5101 9.7 8.1201 10.1 7.6301 10.1C7.1401 10.1 6.7501 9.7 6.7501 9.22ZM11.9201 12.39C11.4201 13.09 10.6101 13.5 9.7501 13.5C8.8901 13.5 8.0801 13.08 7.5801 12.39C7.4201 12.17 7.4701 11.85 7.6901 11.69C7.9201 11.53 8.2301 11.58 8.3901 11.81C9.0101 12.68 10.4801 12.68 11.1101 11.81C11.2701 11.59 11.5801 11.53 11.8101 11.69C12.0301 11.85 12.0801 12.16 11.9201 12.39ZM11.8801 10.1C11.3901 10.1 11.0001 9.7 11.0001 9.22C11.0001 8.74 11.3901 8.34 11.8801 8.34C12.3601 8.34 12.7601 8.73 12.7601 9.22C12.7501 9.7 12.3601 10.1 11.8801 10.1ZM15.5001 17.56C15.0601 16.9 14.3801 16.27 12.9101 15.5C14.4001 14.44 15.3701 12.72 15.3701 10.72C15.3701 9.09 14.7701 7.69 13.7601 6.63C13.8501 6.58 14.0601 6.56 14.4001 6.56C16.5301 6.56 18.2501 8.44 18.2501 10.72C18.2501 12.08 17.6301 13.36 16.5001 14.14C16.0201 14.47 15.7401 15.04 15.7901 15.63C15.8401 16.2 16.4901 16.4 16.9801 16.68C17.5701 17.01 18.2601 17.21 18.6101 17.57H15.5001V17.56Z" fill="black"/>
</svg>
