<svg width="24" height="24" viewBox="0 0 24 24" fill="none" xmlns="http://www.w3.org/2000/svg">
<path d="M20.9901 9.49986V10.7799V14.3699V14.8499C20.9901 14.8699 20.9901 14.8799 20.9901 14.8999V16.4899C20.9901 17.5599 20.6801 18.5699 20.1501 19.4099C19.1701 20.9699 17.4501 21.9999 15.4801 21.9999H15.2601C15.1401 21.9999 15.0101 21.9999 14.8901 21.9799C14.8601 21.9799 14.8201 21.9799 14.7901 21.9699C14.7901 21.9699 14.7901 21.9699 14.7901 21.9799C14.6901 21.9999 14.5901 21.9999 14.4901 21.9999C12.4201 21.9999 10.5501 21.1599 9.19011 19.7999L5.80011 16.4099C5.31011 15.9199 5.31011 15.1299 5.80011 14.6499C6.05011 14.3999 6.37011 14.2799 6.69011 14.2799C6.79011 14.2799 6.90011 14.2899 7.00011 14.3199C7.21011 14.3699 7.41011 14.4799 7.57011 14.6499L9.10011 16.1799L9.17011 16.2499C9.26011 16.3199 9.37011 16.3599 9.49011 16.3599C9.77011 16.3599 9.99011 16.1399 9.99011 15.8599V14.5499C9.99011 14.5299 9.99011 14.5199 9.99011 14.4999V14.3699V8.99986C9.99011 8.72986 10.1001 8.47986 10.2701 8.29986C10.2801 8.28986 10.2901 8.27986 10.3001 8.27986C10.4101 8.17986 10.5301 8.09986 10.6701 8.05986C10.7701 8.01987 10.8801 7.99986 10.9901 7.99986C11.5401 7.99986 11.9901 8.44986 11.9901 8.99986V13.4999C11.9901 13.7799 12.2101 13.9999 12.4901 13.9999C12.7701 13.9999 12.9901 13.7799 12.9901 13.4999V7.49986C12.9901 7.03986 13.3001 6.65986 13.7201 6.53986C13.7201 6.53986 13.7201 6.53986 13.7301 6.53986C13.8101 6.50986 13.9001 6.49986 13.9901 6.49986C14.0501 6.49986 14.1101 6.50986 14.1601 6.51986C14.1701 6.51986 14.1801 6.51986 14.1901 6.51986C14.6501 6.60986 14.9901 7.01986 14.9901 7.49986V13.4999C14.9901 13.5199 14.9901 13.5299 14.9901 13.5499C15.0201 13.7899 15.2001 13.9699 15.4401 13.9999C15.4601 13.9999 15.4701 13.9999 15.4901 13.9999C15.7601 13.9999 15.9701 13.7999 15.9901 13.5299C15.9901 13.5199 15.9901 13.5099 15.9901 13.4999V7.49986C15.9901 7.19986 16.1301 6.92986 16.3401 6.73986C16.5201 6.58986 16.7401 6.49986 16.9901 6.49986C17.5001 6.49986 17.9201 6.87986 17.9801 7.36986C17.9901 7.40986 17.9901 7.45986 17.9901 7.49986V13.4999C17.9901 13.7799 18.2101 13.9999 18.4901 13.9999C18.5101 13.9999 18.5201 13.9999 18.5401 13.9999C18.8001 13.9699 18.9901 13.7599 18.9901 13.4999V9.49986C18.9901 9.20986 19.1101 8.94986 19.3101 8.76987C19.4901 8.59986 19.7301 8.49986 19.9901 8.49986C20.5401 8.49986 20.9901 8.94986 20.9901 9.49986ZM7.88011 9.21986C8.24011 8.52986 8.85011 8.01986 9.59011 7.78986C9.99011 7.66986 10.2101 7.23986 10.0801 6.84986C9.96011 6.44986 9.53011 6.22987 9.14011 6.35986C8.02011 6.70986 7.10011 7.47986 6.55011 8.52986C6.36011 8.88986 6.50011 9.34986 6.87011 9.53986C6.98011 9.58986 7.10011 9.61986 7.22011 9.61986C7.49011 9.61986 7.75011 9.47987 7.88011 9.21986ZM5.23011 8.23986C6.05011 6.67986 7.42011 5.53987 9.10011 5.00987C9.50011 4.88987 9.71011 4.45986 9.59011 4.06986C9.46011 3.66986 9.04011 3.44986 8.65011 3.57986C6.59011 4.21986 4.90011 5.63986 3.90011 7.54986C3.71011 7.91986 3.86011 8.36986 4.22011 8.55986C4.33011 8.61986 4.45011 8.63986 4.57011 8.63986C4.84011 8.64987 5.10011 8.49986 5.23011 8.23986Z" fill="black"/>
</svg>
