<svg width="24" height="24" viewBox="0 0 24 24" fill="none" xmlns="http://www.w3.org/2000/svg">
<path d="M18.87 10.2501C19.49 10.2501 20 9.75007 20 9.12007C20 8.49007 19.49 8.00007 18.87 8.00007H16.72L17.32 4.61007C17.45 3.87007 16.95 3.15007 16.2 3.02007C15.46 2.89007 14.74 3.39007 14.61 4.14007L13.93 8.00007H11.47L12.07 4.61007C12.2 3.87007 11.7 3.15007 10.95 3.02007C10.21 2.89007 9.49 3.39007 9.36 4.14007L8.68 8.00007H6.12C5.5 8.00007 5 8.50007 5 9.12007C5 9.74007 5.5 10.2501 6.12 10.2501H8.28L7.66 13.7501H5.12C4.5 13.7501 4 14.2501 4 14.8801C4 15.5101 4.5 16.0001 5.12 16.0001H7.27L6.67 19.3901C6.54 20.1301 7.04 20.8501 7.79 20.9801C7.87 20.9901 7.95 21.0001 8.03 21.0001C8.68 21.0001 9.26 20.5301 9.38 19.8601L10.06 16.0001H12.52L11.92 19.3901C11.79 20.1301 12.29 20.8501 13.04 20.9801C13.12 20.9901 13.2 21.0001 13.28 21.0001C13.93 21.0001 14.51 20.5301 14.63 19.8601L15.31 16.0001H17.87C18.49 16.0001 19 15.5001 19 14.8801C19 14.2601 18.49 13.7501 17.87 13.7501H15.71L16.33 10.2501H18.87ZM12.91 13.7501H10.46L11.08 10.2501H13.53L12.91 13.7501Z" fill="black"/>
</svg>
