<svg width="24" height="24" viewBox="0 0 24 24" fill="none" xmlns="http://www.w3.org/2000/svg">
<path d="M18.9999 8.56009H15.8799L16.6499 4.17009C16.7399 3.63009 16.3799 3.11009 15.8399 3.02009C15.2899 2.92009 14.7699 3.28009 14.6799 3.83009L13.8499 8.56009H11.3799L12.1499 4.17009C12.2399 3.63009 11.8799 3.11009 11.3399 3.02009C10.7899 2.92009 10.2699 3.28009 10.1799 3.83009L9.34994 8.56009H5.99994C5.54994 8.56009 5.18994 8.93009 5.18994 9.38009C5.18994 9.83009 5.54994 10.1901 5.99994 10.1901H9.05994L8.41994 13.8101H4.99994C4.54994 13.8101 4.18994 14.1801 4.18994 14.6301C4.18994 15.0801 4.54994 15.4401 4.99994 15.4401H8.12994L7.35994 19.8301C7.25994 20.3701 7.61994 20.8901 8.16994 20.9801C8.22994 21.0001 8.27994 21.0001 8.33994 21.0001C8.81994 21.0001 9.23994 20.6601 9.32994 20.1701L10.1599 15.4401H12.6299L11.8599 19.8301C11.7599 20.3701 12.1199 20.8901 12.6699 20.9801C12.7299 21.0001 12.7799 21.0001 12.8399 21.0001C13.3199 21.0001 13.7399 20.6601 13.8299 20.1701L14.6599 15.4401H17.9999C18.4499 15.4401 18.8099 15.0701 18.8099 14.6301C18.8099 14.1901 18.4499 13.8101 17.9999 13.8101H14.9499L15.5899 10.1901H18.9999C19.4499 10.1901 19.8099 9.82009 19.8099 9.38009C19.8099 8.94009 19.4499 8.56009 18.9999 8.56009ZM12.9199 13.8101H10.4499L11.0899 10.1901H13.5599L12.9199 13.8101Z" fill="black"/>
</svg>
