<svg width="24" height="24" viewBox="0 0 24 24" fill="none" xmlns="http://www.w3.org/2000/svg">
<path d="M11.09 13.03C11.29 13.17 11.39 13.4 11.39 13.75C11.39 14.1 11.28 14.28 11.06 14.41C10.84 14.54 10.47 14.61 9.94 14.61H9.16V12.83H9.97C10.52 12.83 10.89 12.9 11.09 13.03ZM10.74 11.18C10.94 11.06 11.05 10.86 11.05 10.55C11.05 10.24 10.96 10.03 10.77 9.9C10.58 9.78 10.21 9.71 9.65 9.71H9.16V11.35H9.6C10.16 11.36 10.53 11.31 10.74 11.18ZM21 6.67V17.33C21 19.36 19.36 21 17.33 21H6.67C4.64 21 3 19.36 3 17.33V6.67C3 4.64 4.64 3 6.67 3H17.33C19.36 3 21 4.64 21 6.67ZM14.97 13.37H16.77V7.91H14.97V13.37ZM13.5 13.75C13.5 13.14 13.34 12.66 13.01 12.29C12.68 11.93 12.23 11.72 11.65 11.68C12.17 11.54 12.54 11.33 12.78 11.06C13.02 10.78 13.13 10.42 13.13 9.95C13.14 9.61 13.05 9.27 12.89 8.97C12.73 8.69 12.49 8.45 12.2 8.3C11.95 8.16 11.63 8.06 11.27 8C10.9 7.94 10.26 7.91 9.34 7.91H7.09V16.09H9.4C10.33 16.09 11 16.06 11.41 16C11.82 15.94 12.16 15.83 12.44 15.68C12.77 15.51 13.05 15.24 13.23 14.91C13.41 14.57 13.5 14.19 13.5 13.75ZM16.91 15.06C16.91 14.49 16.45 14.02 15.87 14.02C15.3 14.02 14.83 14.48 14.83 15.06C14.83 15.63 15.29 16.1 15.87 16.1C16.45 16.09 16.91 15.63 16.91 15.06Z" fill="black"/>
</svg>
