<svg width="24" height="24" viewBox="0 0 24 24" fill="none" xmlns="http://www.w3.org/2000/svg">
<path d="M12.0001 22.06C11.0801 22.06 10.1501 21.74 9.40011 21.09L7.00011 19.03C5.16011 17.45 3.62011 15.58 2.41011 13.48C0.830111 10.71 1.07011 7.28995 3.03011 4.77995C4.18011 3.29995 5.97011 2.49995 7.87011 2.57995C9.49011 2.65995 10.9901 3.42995 12.0001 4.67995C13.0101 3.42995 14.5101 2.64995 16.1401 2.55995C18.0101 2.45995 19.8201 3.27995 20.9701 4.75995C22.9301 7.27995 23.1701 10.7 21.5901 13.47C20.3901 15.58 18.8401 17.44 17.0001 19.02L14.6001 21.08C13.8501 21.73 12.9201 22.06 12.0001 22.06ZM7.54011 4.55995C6.38011 4.55995 5.32011 5.06995 4.60011 5.99995C3.14011 7.87995 2.96011 10.42 4.14011 12.48C5.23011 14.39 6.63011 16.08 8.29011 17.5L10.7001 19.56C11.4501 20.21 12.5501 20.21 13.3001 19.56L15.7101 17.5C17.3801 16.07 18.7701 14.38 19.8601 12.48C21.0401 10.42 20.8601 7.86995 19.4001 5.99995C18.6401 5.01995 17.5201 4.48995 16.2501 4.55995C15.0101 4.62995 13.9301 5.26995 13.2801 6.32995C12.7301 7.21995 11.2801 7.21995 10.7301 6.32995C10.0801 5.26995 9.00011 4.62995 7.76011 4.55995C7.68011 4.55995 7.61011 4.55995 7.54011 4.55995Z" fill="black"/>
</svg>
