<svg width="24" height="24" viewBox="0 0 24 24" fill="none" xmlns="http://www.w3.org/2000/svg">
<path d="M20.81 4.26L19.34 3.6C17.53 2.8 15.46 2.8 13.65 3.6L12 4.34L10.34 3.6C8.53 2.8 6.46 2.8 4.65 3.6L3.19 4.26C2.47 4.58 2 5.29 2 6.08V17.89C2 18.57 2.34 19.2 2.91 19.57C3.48 19.94 4.19 20 4.81 19.72L5.47 19.43C6.76 18.86 8.24 18.86 9.53 19.43L11.19 20.17C11.45 20.29 11.73 20.34 12 20.34C12.28 20.34 12.55 20.28 12.81 20.17L14.47 19.43C15.76 18.86 17.24 18.86 18.53 19.43L19.19 19.72C19.81 19.99 20.52 19.94 21.09 19.57C21.66 19.2 22 18.57 22 17.89V6.08C22 5.29 21.53 4.58 20.81 4.26ZM19.34 17.6C17.53 16.8 15.46 16.8 13.65 17.6L12 18.34L10.34 17.6C9.44 17.2 8.47 17 7.5 17C6.53 17 5.56 17.2 4.66 17.6L4 17.89V6.08L5.47 5.43C6.76 4.86 8.24 4.86 9.53 5.43L11.19 6.17C11.71 6.4 12.3 6.4 12.82 6.17L14.48 5.43C15.77 4.86 17.25 4.86 18.54 5.43L20 6.08V17.89L19.34 17.6ZM11.97 7.93C9.75 7.93 7.94 9.74 7.94 11.96C7.94 14.18 9.75 15.99 11.97 15.99C14.19 15.99 16 14.19 16 11.97C16 9.74 14.19 7.93 11.97 7.93ZM14.18 12.47H12.36C11.86 12.47 11.45 12.06 11.45 11.56V9.75C11.45 9.47 11.68 9.25 11.95 9.25C12.22 9.25 12.45 9.48 12.45 9.75V11.46H14.16C14.44 11.46 14.66 11.69 14.66 11.96C14.69 12.24 14.46 12.47 14.18 12.47Z" fill="black"/>
</svg>
