<svg width="24" height="24" viewBox="0 0 24 24" fill="none" xmlns="http://www.w3.org/2000/svg">
<path d="M21.7559 10.925L14.0559 3.825C12.9559 2.725 11.1559 2.725 9.95593 3.825L2.25593 10.925C0.655934 12.425 1.75593 15.325 4.05593 15.325V18.325C4.05593 20.025 5.35593 21.325 7.05593 21.325H17.0559C18.7559 21.325 20.0559 20.025 20.0559 18.325V15.325C22.3559 15.325 23.4559 12.425 21.7559 10.925ZM12.0559 16.825C10.3559 16.825 9.05593 15.525 9.05593 13.825C9.05593 12.125 10.3559 10.825 12.0559 10.825C13.7559 10.825 15.0559 12.125 15.0559 13.825C15.0559 15.425 13.7559 16.825 12.0559 16.825Z" fill="black"/>
</svg>
