<svg width="24" height="24" viewBox="0 0 24 24" fill="none" xmlns="http://www.w3.org/2000/svg">
<path d="M6.92998 9.06002C6.92998 9.15002 6.92998 14.88 6.92998 14.97C6.92998 15.1 6.92998 15.19 6.90998 15.26C6.83998 15.54 6.58998 15.74 6.27998 15.74C5.97998 15.74 5.71998 15.53 5.64998 15.26C5.63998 15.19 5.62998 15.11 5.62998 14.97C5.62998 14.94 5.62998 14.11 5.62998 13.08C5.62998 12.8 5.52998 12.66 5.19998 12.66H3.81998C3.62998 12.66 3.43998 12.65 3.27998 12.58C3.27998 13.82 3.27998 14.93 3.27998 14.98C3.27998 15.11 3.27998 15.2 3.25998 15.27C3.18998 15.55 2.93998 15.75 2.62998 15.75C2.32998 15.75 2.06998 15.54 1.99998 15.27C1.98998 15.2 1.97998 15.12 1.97998 14.98C1.97998 14.89 1.97998 9.16002 1.97998 9.07002C1.97998 8.95002 1.98998 8.85002 1.99998 8.79002C2.06998 8.51002 2.32998 8.30002 2.62998 8.30002C2.93998 8.30002 3.18998 8.52002 3.25998 8.79002C3.27998 8.85002 3.27998 8.94002 3.27998 9.07002C3.27998 9.11002 3.27998 9.93002 3.27998 10.96C3.27998 11.24 3.38998 11.38 3.71998 11.38H5.09998C5.28998 11.38 5.48998 11.4 5.63998 11.46C5.63998 10.22 5.63998 9.10002 5.63998 9.06002C5.63998 8.94002 5.64998 8.84002 5.65998 8.78002C5.72998 8.50002 5.98998 8.29002 6.28998 8.29002C6.59998 8.29002 6.84998 8.51002 6.91998 8.78002C6.92998 8.85002 6.92998 8.94002 6.92998 9.06002ZM13.31 11.32C13.31 11.48 13.31 12.56 13.31 12.73C13.31 13.29 13.29 13.74 13.12 14.14C12.75 15.09 11.82 15.75 10.74 15.75C9.66998 15.75 8.74998 15.08 8.37998 14.14C8.21998 13.74 8.18998 13.29 8.18998 12.73C8.18998 12.57 8.18998 11.49 8.18998 11.32C8.18998 10.78 8.20998 10.32 8.37998 9.91002C8.74998 8.96002 9.66998 8.30002 10.74 8.30002C11.82 8.30002 12.75 8.97002 13.12 9.91002C13.29 10.32 13.31 10.77 13.31 11.32ZM12.02 11.13C12.02 10.87 12.01 10.62 11.96 10.45C11.78 9.95002 11.32 9.59002 10.76 9.59002C10.21 9.59002 9.72998 9.95002 9.56998 10.45C9.51998 10.61 9.50998 10.87 9.50998 11.13C9.50998 11.23 9.50998 12.81 9.50998 12.92C9.50998 13.17 9.51998 13.43 9.56998 13.6C9.72998 14.09 10.21 14.46 10.76 14.46C11.33 14.46 11.79 14.09 11.96 13.6C12.01 13.44 12.02 13.17 12.02 12.92C12.02 12.81 12.02 11.23 12.02 11.13ZM19.22 8.99002C19.22 9.35002 18.93 9.64002 18.58 9.64002H17.21V15.08C17.21 15.44 16.92 15.73 16.56 15.73C16.2 15.73 15.91 15.44 15.91 15.08V9.64002H14.54C14.19 9.64002 13.89 9.35002 13.89 8.99002C13.89 8.64002 14.19 8.35002 14.54 8.35002H18.57C18.93 8.35002 19.22 8.64002 19.22 8.99002ZM21.85 15.06C21.85 15.43 21.55 15.73 21.17 15.73C20.8 15.73 20.49 15.43 20.49 15.06C20.49 14.68 20.8 14.38 21.17 14.38C21.56 14.38 21.85 14.68 21.85 15.06ZM20.58 13.33C20.57 13.27 20.57 13.19 20.57 13.06C20.57 12.98 20.57 9.09002 20.57 9.00002C20.57 8.89002 20.57 8.81002 20.58 8.74002C20.65 8.47002 20.89 8.27002 21.18 8.27002C21.47 8.27002 21.7 8.48002 21.78 8.74002C21.8 8.80002 21.8 8.88002 21.8 9.00002C21.8 9.09002 21.8 12.98 21.8 13.06C21.8 13.18 21.8 13.27 21.78 13.33C21.71 13.6 21.47 13.79 21.18 13.79C20.89 13.79 20.65 13.6 20.58 13.33Z" fill="black"/>
</svg>
