<svg width="24" height="24" viewBox="0 0 24 24" fill="none" xmlns="http://www.w3.org/2000/svg">
<path d="M21.4 13.4098L16.13 18.6798C15.93 18.8798 15.68 18.9698 15.42 18.9698C15.16 18.9698 14.91 18.8698 14.71 18.6798C14.32 18.2898 14.32 17.6598 14.71 17.2698L19.98 11.9998L14.71 6.72984C14.32 6.33984 14.32 5.70984 14.71 5.31984C15.1 4.92984 15.73 4.92984 16.12 5.31984L21.39 10.5898C22.18 11.3698 22.18 12.6298 21.4 13.4098ZM9.19005 5.31984C8.80005 4.92984 8.17005 4.92984 7.78005 5.31984L2.51005 10.5898C1.73005 11.3698 1.73005 12.6398 2.51005 13.4198L7.78005 18.6898C7.98005 18.8898 8.23005 18.9798 8.49005 18.9798C8.75005 18.9798 9.00005 18.8798 9.20005 18.6898C9.59005 18.2998 9.59005 17.6698 9.20005 17.2798L3.93005 11.9998L9.20005 6.72984C9.58005 6.33984 9.58005 5.70984 9.19005 5.31984Z" fill="black"/>
</svg>
