<svg width="24" height="24" viewBox="0 0 24 24" fill="none" xmlns="http://www.w3.org/2000/svg">
<path d="M5 18C4.45 18 4 17.55 4 17V16.79C4 16.66 4.05 16.53 4.15 16.44L7.3 13.29C7.69 12.9 8.32 12.9 8.71 13.29L10.15 14.73C10.35 14.93 10.66 14.93 10.86 14.73L15.3 10.29C15.69 9.9 16.32 9.9 16.71 10.29L18.44 12.02C19.81 12.12 21.04 12.67 22 13.53V7C22 5.34 20.66 4 19 4H5C3.34 4 2 5.34 2 7V17C2 17.23 2.03 17.45 2.08 17.66C2.08 17.67 2.09 17.69 2.09 17.7C2.14 17.9 2.21 18.09 2.3 18.28C2.3 18.28 2.3 18.28 2.3 18.29C2.78 19.3 3.81 20 5 20H12.35C12.13 19.37 12 18.7 12 18H5ZM8 7C9.1 7 10 7.9 10 9C10 10.1 9.1 11 8 11C6.9 11 6 10.1 6 9C6 7.9 6.9 7 8 7ZM22.5 18C22.5 18.55 22.05 19 21.5 19H19V21.5C19 22.05 18.55 22.5 18 22.5C17.45 22.5 17 22.05 17 21.5V19H14.5C13.95 19 13.5 18.55 13.5 18C13.5 17.45 13.95 17 14.5 17H17V14.5C17 13.95 17.45 13.5 18 13.5C18.55 13.5 19 13.95 19 14.5V17H21.5C22.05 17 22.5 17.45 22.5 18Z" fill="black"/>
</svg>
