<svg width="24" height="24" viewBox="0 0 24 24" fill="none" xmlns="http://www.w3.org/2000/svg">
<path d="M11.5 18H5C4.45 18 4 17.55 4 17V16.79C4 16.66 4.05 16.53 4.15 16.44L7.3 13.29C7.69 12.9 8.32 12.9 8.71 13.29L10.15 14.73C10.35 14.93 10.66 14.93 10.86 14.73L15.3 10.29C15.69 9.9 16.32 9.9 16.71 10.29L17.92 11.5C17.95 11.5 17.97 11.5 18 11.5C19.51 11.5 20.9 12.02 22 12.88V7C22 5.34 20.66 4 19 4H5C3.34 4 2 5.34 2 7V17C2 17.23 2.03 17.45 2.08 17.66C2.08 17.67 2.09 17.69 2.09 17.7C2.14 17.9 2.21 18.09 2.3 18.28C2.3 18.28 2.3 18.28 2.3 18.29C2.78 19.3 3.81 20 5 20H11.82C11.61 19.37 11.5 18.7 11.5 18ZM8 7C9.1 7 10 7.9 10 9C10 10.1 9.1 11 8 11C6.9 11 6 10.1 6 9C6 7.9 6.9 7 8 7ZM18 13C15.24 13 13 15.24 13 18C13 20.76 15.24 23 18 23C20.76 23 23 20.76 23 18C23 15.24 20.76 13 18 13ZM18 14.5C18.69 14.5 19.34 14.71 19.88 15.06L15.06 19.88C14.71 19.34 14.5 18.69 14.5 18C14.5 16.07 16.07 14.5 18 14.5ZM18 21.5C17.31 21.5 16.66 21.29 16.12 20.94L20.94 16.12C21.29 16.66 21.5 17.31 21.5 18C21.5 19.93 19.93 21.5 18 21.5Z" fill="black"/>
</svg>
