<svg width="24" height="24" viewBox="0 0 24 24" fill="none" xmlns="http://www.w3.org/2000/svg">
<path d="M11.5 18.0098H5C4.45 18.0098 4 17.5598 4 17.0098V16.7998C4 16.6698 4.05 16.5398 4.15 16.4498L7.3 13.2998C7.69 12.9098 8.32 12.9098 8.71 13.2998L10.15 14.7398C10.35 14.9398 10.66 14.9398 10.86 14.7398L15.3 10.2998C15.69 9.90977 16.32 9.90977 16.71 10.2998L17.92 11.5098C17.95 11.5098 17.97 11.5098 18 11.5098C19.51 11.5098 20.9 12.0298 22 12.8898V7.00977C22 5.34977 20.66 4.00977 19 4.00977H5C3.34 4.00977 2 5.34977 2 7.00977V17.0098C2 17.2398 2.03 17.4598 2.08 17.6698C2.08 17.6798 2.09 17.6998 2.09 17.7098C2.14 17.9098 2.21 18.0998 2.3 18.2898C2.3 18.2898 2.3 18.2898 2.3 18.2998C2.78 19.3098 3.81 20.0098 5 20.0098H11.82C11.61 19.3798 11.5 18.7098 11.5 18.0098ZM8 7.00977C9.1 7.00977 10 7.90977 10 9.00977C10 10.1098 9.1 11.0098 8 11.0098C6.9 11.0098 6 10.1098 6 9.00977C6 7.89977 6.9 7.00977 8 7.00977ZM18.85 21.8998C18.85 22.3698 18.47 22.7498 18 22.7498C17.53 22.7498 17.15 22.3698 17.15 21.8998C17.15 21.4298 17.53 21.0498 18 21.0498C18.47 21.0498 18.85 21.4298 18.85 21.8998ZM17.98 20.6398C17.48 20.6398 17.08 20.2398 17.08 19.7398C17.08 19.2398 17.13 18.6498 17.58 18.1198C17.79 17.8698 18.04 17.6598 18.28 17.4598C18.82 17.0098 19.11 16.7498 19.11 16.2398C19.11 15.8298 18.63 15.3598 18.02 15.3598C17.47 15.3598 16.91 15.6998 16.91 16.3398C16.91 16.8398 16.51 17.2398 16.01 17.2398C15.51 17.2398 15.11 16.8398 15.11 16.3398C15.11 14.7798 16.39 13.5598 18.02 13.5598C19.59 13.5598 20.91 14.7898 20.91 16.2398C20.91 17.6098 20.02 18.3498 19.44 18.8398C19.25 18.9998 19.07 19.1498 18.96 19.2798C18.91 19.3398 18.88 19.4298 18.88 19.7298C18.88 20.2298 18.48 20.6398 17.98 20.6398Z" fill="black"/>
</svg>
