<svg width="24" height="24" viewBox="0 0 24 24" fill="none" xmlns="http://www.w3.org/2000/svg">
<path d="M19 4H5C3.34 4 2 5.34 2 7V17C2 17.23 2.03 17.45 2.08 17.66C2.08 17.67 2.09 17.69 2.09 17.7C2.14 17.9 2.21 18.09 2.3 18.28C2.3 18.28 2.3 18.28 2.3 18.29C2.78 19.3 3.81 20 5 20H19C20.66 20 22 18.66 22 17V15.59V7C22 5.34 20.66 4 19 4ZM10 9C10 10.1 9.1 11 8 11C6.9 11 6 10.1 6 9C6 7.9 6.9 7 8 7C9.1 7 10 7.9 10 9ZM20 17C20 17.55 19.55 18 19 18H5C4.45 18 4 17.55 4 17V16.79C4 16.66 4.05 16.53 4.15 16.44L7.3 13.29C7.69 12.9 8.32 12.9 8.71 13.29L10.15 14.73C10.35 14.93 10.66 14.93 10.86 14.73L15.3 10.29C15.69 9.9 16.32 9.9 16.71 10.29L19.86 13.44C19.95 13.53 20.01 13.66 20.01 13.79V17H20Z" fill="black"/>
</svg>
