<svg width="24" height="24" viewBox="0 0 24 24" fill="none" xmlns="http://www.w3.org/2000/svg">
<path d="M19 3.89657H9.7L14 11.4966L15.3 10.1966C15.7 9.79657 16.3 9.79657 16.7 10.1966L19.9 13.3966C20 13.4966 20.1 13.5966 20.1 13.6966V16.8966C20.1 17.3966 19.7 17.8966 19.1 17.8966H17.8L19 19.8966C20.7 19.8966 22 18.5966 22 16.8966V6.89657C22 5.19657 20.7 3.89657 19 3.89657Z" fill="black"/>
<path d="M6.9 2.49657C6.7 1.99657 6.1 1.89657 5.6 2.09657C5.1 2.39657 4.9 2.99657 5.2 3.49657L5.4 3.89657H5C3.3 3.89657 2 5.19657 2 6.89657V16.8966C2 17.0966 2 17.3966 2.1 17.5966C2.1 17.7966 2.2 17.9966 2.3 18.1966C2.8 19.1966 3.8 19.8966 5 19.8966H14.7L15.2 20.7966C15.2 20.7966 15.2 20.7966 15.3 20.8966L15.6 21.3966C15.8 21.6966 16.1 21.8966 16.5 21.8966C16.7 21.8966 16.8 21.8966 17 21.7966C17.5 21.4966 17.6 20.8966 17.4 20.3966L6.9 2.49657ZM9.2 10.4966C8.9 10.6966 8.5 10.8966 8 10.8966C6.9 10.8966 6 9.99657 6 8.89657C6 8.09657 6.5 7.29657 7.3 6.99657L9.2 10.4966ZM5 17.8966C4.5 17.8966 4 17.3966 4 16.8966V16.6966C4 16.5966 4 16.3966 4.2 16.3966L7.3 13.1966C7.7 12.7966 8.3 12.7966 8.7 13.1966L10.1 14.5966C10.3 14.7966 10.6 14.7966 10.8 14.5966L11.3 14.0966L13.5 17.8966H5Z" fill="black"/>
</svg>
