<svg width="24" height="24" viewBox="0 0 24 24" fill="none" xmlns="http://www.w3.org/2000/svg">
<path d="M12.01 22C17.52 22 22.01 17.51 22.01 12C22.01 6.49 17.52 2 12.01 2C6.50001 2 2.01001 6.49 2.01001 12C2.01001 17.51 6.49001 22 12.01 22ZM12.01 4C16.42 4 20.01 7.59 20.01 12C20.01 16.41 16.42 20 12.01 20C7.60001 20 4.01001 16.41 4.01001 12C4.01001 7.59 7.60001 4 12.01 4ZM10.76 16.5V11C10.76 10.31 11.32 9.75 12.01 9.75C12.7 9.75 13.26 10.31 13.26 11V16.5C13.26 17.19 12.7 17.75 12.01 17.75C11.32 17.75 10.76 17.19 10.76 16.5ZM10.76 7.75C10.76 7.06 11.32 6.5 12.01 6.5C12.7 6.5 13.26 7.06 13.26 7.75C13.26 8.44 12.7 9 12.01 9C11.32 9 10.76 8.44 10.76 7.75Z" fill="black"/>
</svg>
