<svg width="24" height="24" viewBox="0 0 24 24" fill="none" xmlns="http://www.w3.org/2000/svg">
<path d="M12 4.62C14.4 4.62 14.69 4.63 15.64 4.67C16.52 4.71 16.99 4.86 17.31 4.98C17.73 5.14 18.03 5.34 18.34 5.65C18.65 5.96 18.85 6.26 19.01 6.68C19.13 7 19.28 7.47 19.32 8.35C19.36 9.3 19.37 9.58 19.37 11.99C19.37 14.4 19.36 14.68 19.32 15.63C19.28 16.51 19.13 16.98 19.01 17.3C18.85 17.72 18.65 18.02 18.34 18.33C18.03 18.64 17.73 18.84 17.31 19C16.99 19.12 16.52 19.27 15.64 19.31C14.69 19.35 14.41 19.36 12 19.36C9.59 19.36 9.31 19.35 8.36 19.31C7.48 19.27 7.01 19.12 6.69 19C6.27 18.84 5.97 18.64 5.66 18.33C5.35 18.02 5.15 17.72 4.99 17.3C4.87 16.98 4.72 16.51 4.68 15.63C4.63 14.69 4.62 14.4 4.62 12C4.62 9.6 4.63 9.31 4.67 8.36C4.71 7.48 4.86 7.01 4.98 6.69C5.14 6.27 5.34 5.97 5.65 5.66C5.96 5.35 6.26 5.15 6.68 4.99C7 4.87 7.47 4.72 8.35 4.68C9.31 4.63 9.6 4.62 12 4.62ZM12 3C9.56 3 9.25 3.01 8.29 3.05C7.33 3.1 6.68 3.25 6.1 3.47C5.51 3.7 5.01 4.01 4.51 4.51C4.01 5.01 3.7 5.51 3.47 6.1C3.25 6.68 3.1 7.33 3.05 8.29C3.01 9.25 3 9.56 3 12C3 14.44 3.01 14.75 3.05 15.71C3.09 16.67 3.25 17.32 3.47 17.89C3.7 18.48 4.01 18.98 4.51 19.48C5.01 19.98 5.51 20.29 6.1 20.52C6.67 20.74 7.33 20.89 8.28 20.94C9.25 20.99 9.56 21 12 21C14.44 21 14.75 20.99 15.71 20.95C16.67 20.91 17.32 20.75 17.89 20.53C18.48 20.3 18.98 19.99 19.48 19.49C19.98 18.99 20.29 18.49 20.52 17.9C20.74 17.33 20.89 16.67 20.94 15.72C20.99 14.75 21 14.44 21 12C21 9.56 20.99 9.25 20.95 8.29C20.91 7.33 20.75 6.68 20.53 6.11C20.3 5.52 19.99 5.02 19.49 4.52C18.99 4.02 18.49 3.71 17.9 3.48C17.33 3.26 16.67 3.11 15.72 3.06C14.75 3.01 14.44 3 12 3ZM12 7.38C9.45 7.38 7.38 9.45 7.38 12C7.38 14.55 9.45 16.62 12 16.62C14.55 16.62 16.62 14.55 16.62 12C16.62 9.45 14.55 7.38 12 7.38ZM12 15C10.34 15 9 13.66 9 12C9 10.34 10.34 9 12 9C13.66 9 15 10.34 15 12C15 13.66 13.66 15 12 15ZM16.8 6.12C16.2 6.12 15.72 6.6 15.72 7.2C15.72 7.8 16.2 8.28 16.8 8.28C17.4 8.28 17.88 7.8 17.88 7.2C17.88 6.6 17.4 6.12 16.8 6.12Z" fill="black"/>
</svg>
