<svg width="24" height="24" viewBox="0 0 24 24" fill="none" xmlns="http://www.w3.org/2000/svg">
<path d="M19 5.62012C19 6.45012 18.33 7.12012 17.5 7.12012H15.74L11.53 16.8801H12C12.83 16.8801 13.5 17.5501 13.5 18.3801C13.5 19.2101 12.83 19.8801 12 19.8801H6.5C5.67 19.8801 5 19.2101 5 18.3801C5 17.5501 5.67 16.8801 6.5 16.8801H8.26L12.47 7.12012H12C11.17 7.12012 10.5 6.45012 10.5 5.62012C10.5 4.79012 11.17 4.12012 12 4.12012H14.75C14.76 4.12012 14.76 4.12012 14.77 4.12012H17.5C18.33 4.12012 19 4.79012 19 5.62012Z" fill="black"/>
</svg>
