<svg width="24" height="24" viewBox="0 0 24 24" fill="none" xmlns="http://www.w3.org/2000/svg">
<path d="M8.51 11.0502C8.63 11.2702 8.66 11.3402 8.66 11.4902C8.66 11.8602 8.32 12.0702 7.99 12.0702C7.65 12.0702 7.54 11.8602 7.43 11.6302L6.87 10.5002L6.3 11.6502C6.2 11.8602 6.09 12.0802 5.74 12.0802C5.42 12.0802 5.08 11.8602 5.08 11.5002C5.08 11.3402 5.12 11.2602 5.24 11.0502L6.2 9.2202C6.33 8.9602 6.47 8.7002 6.86 8.7002C7.26 8.7002 7.39 8.9502 7.53 9.2202L8.51 11.0502ZM17.8 9.2202C17.66 8.9502 17.53 8.7002 17.13 8.7002C16.74 8.7002 16.6 8.9702 16.47 9.2302L15.5 11.0602C15.38 11.2702 15.34 11.3502 15.34 11.5102C15.34 11.8702 15.68 12.0902 16 12.0902C16.36 12.0902 16.46 11.8702 16.56 11.6602L17.13 10.5202L17.7 11.6602C17.82 11.8902 17.92 12.0902 18.26 12.0902C18.59 12.0902 18.93 11.8702 18.93 11.5102C18.93 11.3602 18.89 11.2902 18.78 11.0702L17.8 9.2202ZM3.98 9.1302C3.98 8.8302 3.74 8.7002 3.52 8.7002C3.18 8.7002 2.99 8.9602 2.9 9.0902C2.63 9.4602 2 10.5102 2 12.0002C2 13.3802 2.54 14.3802 2.87 14.8602C2.98 15.0102 3.17 15.3002 3.53 15.3002C3.75 15.3002 3.99 15.1702 3.99 14.8702C3.99 14.7302 3.94 14.6402 3.88 14.5102L3.76 14.5602L3.87 14.5002C3.65 14.1102 3.2 13.3002 3.2 12.0002C3.2 11.1102 3.41 10.2902 3.84 9.5302C3.94 9.3502 3.98 9.2702 3.98 9.1302ZM21.13 9.1402C21.03 8.9902 20.83 8.7002 20.47 8.7002C20.25 8.7002 20.01 8.8302 20.01 9.1302C20.01 9.2702 20.06 9.3502 20.13 9.4802L20.25 9.4402L20.14 9.5002C20.34 9.8602 20.8 10.6902 20.8 12.0002C20.8 13.2902 20.35 14.1102 20.13 14.5102C20.06 14.6402 20.01 14.7302 20.01 14.8702C20.01 15.1502 20.24 15.3002 20.47 15.3002C20.77 15.3002 20.96 15.0902 21.09 14.9202C21.37 14.5402 22 13.4902 22 12.0002C22 10.6102 21.46 9.6102 21.13 9.1402ZM14.57 12.0502C14.57 13.5902 13.42 14.8502 12 14.8502C10.58 14.8502 9.43 13.5902 9.43 12.0502C9.43 10.5102 10.58 9.2502 12 9.2502C13.42 9.2502 14.57 10.5102 14.57 12.0502ZM13.32 12.0502C13.32 11.1902 12.73 10.5002 12 10.5002C11.27 10.5002 10.68 11.2002 10.68 12.0502C10.68 12.9002 11.27 13.6002 12 13.6002C12.73 13.6002 13.32 12.9102 13.32 12.0502Z" fill="black"/>
</svg>
