<svg width="24" height="24" viewBox="0 0 24 24" fill="none" xmlns="http://www.w3.org/2000/svg">
<path d="M17.9998 2H5.99976C4.93889 2 3.92153 2.42143 3.17139 3.17157C2.42124 3.92172 1.99976 4.93913 1.99976 6V14C1.99976 15.0609 2.42124 16.0783 3.17139 16.8284C3.92153 17.5786 4.93889 18 5.99976 18H17.9998C19.0606 18 20.078 17.5786 20.8281 16.8284C21.5783 16.0783 21.9998 15.0609 21.9998 14V6C21.9998 4.93913 21.5783 3.92172 20.8281 3.17157C20.078 2.42143 19.0606 2 17.9998 2ZM13.7498 5.5C13.9475 5.5 14.141 5.55865 14.3054 5.66853C14.4699 5.77841 14.5979 5.93459 14.6736 6.11732C14.7493 6.30004 14.7691 6.50111 14.7305 6.69509C14.6919 6.88907 14.5966 7.06726 14.4568 7.20711C14.3169 7.34696 14.1388 7.4422 13.9448 7.48078C13.7508 7.51937 13.5499 7.49957 13.3672 7.42388C13.1845 7.34819 13.0281 7.22002 12.9182 7.05557C12.8083 6.89112 12.7498 6.69778 12.7498 6.5C12.7497 6.23651 12.8537 5.98366 13.0391 5.79641C13.2244 5.60915 13.4763 5.50264 13.7397 5.5H13.7498ZM13.7498 9C13.9475 9 14.141 9.05865 14.3054 9.16853C14.4699 9.27842 14.5979 9.43459 14.6736 9.61732C14.7493 9.80004 14.7691 10.0011 14.7305 10.1951C14.6919 10.3891 14.5966 10.5673 14.4568 10.7071C14.3169 10.847 14.1388 10.9422 13.9448 10.9808C13.7508 11.0194 13.5499 10.9996 13.3672 10.9239C13.1845 10.8482 13.0281 10.72 12.9182 10.5556C12.8083 10.3911 12.7498 10.1978 12.7498 10C12.7497 9.73651 12.8537 9.48365 13.0391 9.2964C13.2244 9.10915 13.4763 9.00264 13.7397 9H13.7498ZM10.2498 5.5C10.4475 5.5 10.641 5.55865 10.8054 5.66853C10.9699 5.77841 11.0979 5.93459 11.1736 6.11732C11.2493 6.30004 11.2691 6.50111 11.2305 6.69509C11.1919 6.88907 11.0966 7.06726 10.9568 7.20711C10.8169 7.34696 10.6388 7.4422 10.4448 7.48078C10.2508 7.51937 10.0499 7.49957 9.86719 7.42388C9.68446 7.34819 9.52809 7.22002 9.41821 7.05557C9.30833 6.89112 9.24976 6.69778 9.24976 6.5C9.24974 6.23651 9.35368 5.98366 9.53906 5.79641C9.72444 5.60915 9.97627 5.50264 10.2397 5.5H10.2498ZM10.2498 9C10.4475 9 10.641 9.05865 10.8054 9.16853C10.9699 9.27842 11.0979 9.43459 11.1736 9.61732C11.2493 9.80004 11.2691 10.0011 11.2305 10.1951C11.1919 10.3891 11.0966 10.5673 10.9568 10.7071C10.8169 10.847 10.6388 10.9422 10.4448 10.9808C10.2508 11.0194 10.0499 10.9996 9.86719 10.9239C9.68446 10.8482 9.52809 10.72 9.41821 10.5556C9.30833 10.3911 9.24976 10.1978 9.24976 10C9.24974 9.73651 9.35368 9.48365 9.53906 9.2964C9.72444 9.10915 9.97627 9.00264 10.2397 9H10.2498ZM6.74976 5.5C6.94754 5.5 7.14097 5.55865 7.30542 5.66853C7.46987 5.77841 7.5979 5.93459 7.67358 6.11732C7.74927 6.30004 7.76905 6.50111 7.73047 6.69509C7.69188 6.88907 7.59664 7.06726 7.45679 7.20711C7.31693 7.34696 7.13881 7.4422 6.94482 7.48078C6.75084 7.51937 6.54991 7.49957 6.36719 7.42388C6.18446 7.34819 6.02809 7.22002 5.91821 7.05557C5.80833 6.89112 5.74976 6.69778 5.74976 6.5C5.74974 6.23651 5.85368 5.98366 6.03906 5.79641C6.22444 5.60915 6.47627 5.50264 6.73975 5.5H6.74976ZM6.74976 11C6.55197 11 6.35854 10.9413 6.19409 10.8315C6.02964 10.7216 5.90162 10.5654 5.82593 10.3827C5.75024 10.2 5.73046 9.99889 5.76904 9.80491C5.80763 9.61093 5.90287 9.43275 6.04272 9.29289C6.18258 9.15304 6.36071 9.0578 6.55469 9.01922C6.74867 8.98063 6.9496 9.00043 7.13232 9.07612C7.31505 9.15181 7.47142 9.27998 7.5813 9.44443C7.69118 9.60888 7.74976 9.80222 7.74976 10C7.74976 10.1322 7.72349 10.263 7.67261 10.385C7.62173 10.507 7.54729 10.6177 7.45337 10.7107C7.35945 10.8037 7.24797 10.8771 7.12549 10.9268C7.00301 10.9764 6.87191 11.0013 6.73975 11H6.74976ZM15.4998 14.5H8.49976C8.23454 14.5 7.98026 14.3946 7.79272 14.2071C7.60519 14.0196 7.49976 13.7652 7.49976 13.5C7.49976 13.2348 7.60519 12.9804 7.79272 12.7929C7.98026 12.6054 8.23454 12.5 8.49976 12.5H15.4998C15.765 12.5 16.0193 12.6054 16.2068 12.7929C16.3943 12.9804 16.4998 13.2348 16.4998 13.5C16.4998 13.7652 16.3943 14.0196 16.2068 14.2071C16.0193 14.3946 15.765 14.5 15.4998 14.5ZM17.2498 11C17.052 11 16.8585 10.9413 16.6941 10.8315C16.5296 10.7216 16.4016 10.5654 16.3259 10.3827C16.2502 10.2 16.2305 9.99889 16.269 9.80491C16.3076 9.61093 16.4029 9.43275 16.5427 9.29289C16.6826 9.15304 16.8607 9.0578 17.0547 9.01922C17.2487 8.98063 17.4496 9.00043 17.6323 9.07612C17.8151 9.15181 17.9714 9.27998 18.0813 9.44443C18.1912 9.60888 18.2498 9.80222 18.2498 10C18.2498 10.1322 18.2235 10.263 18.1726 10.385C18.1217 10.507 18.0473 10.6177 17.9534 10.7107C17.8594 10.8037 17.748 10.8771 17.6255 10.9268C17.503 10.9764 17.3719 11.0013 17.2397 11H17.2498ZM17.2498 7.5C17.052 7.5 16.8585 7.44135 16.6941 7.33147C16.5296 7.22159 16.4016 7.06541 16.3259 6.88268C16.2502 6.69996 16.2305 6.49889 16.269 6.30491C16.3076 6.11093 16.4029 5.93275 16.5427 5.79289C16.6826 5.65304 16.8607 5.5578 17.0547 5.51922C17.2487 5.48063 17.4496 5.50044 17.6323 5.57612C17.8151 5.65181 17.9714 5.77998 18.0813 5.94443C18.1912 6.10888 18.2498 6.30222 18.2498 6.5C18.2498 6.63217 18.2235 6.76303 18.1726 6.88501C18.1217 7.00699 18.0473 7.11767 17.9534 7.21066C17.8594 7.30365 17.748 7.3771 17.6255 7.42677C17.503 7.47643 17.3719 7.50132 17.2397 7.5H17.2498ZM11.3997 21.79L9.58984 20.4C9.50589 20.337 9.44389 20.2493 9.4126 20.1491C9.38131 20.0489 9.38234 19.9414 9.41553 19.8419C9.44871 19.7423 9.51228 19.6557 9.59741 19.5944C9.68254 19.533 9.78471 19.5 9.88965 19.5H14.1296C14.2346 19.5 14.337 19.533 14.4221 19.5944C14.5073 19.6557 14.5708 19.7423 14.604 19.8419C14.6372 19.9414 14.6382 20.0489 14.6069 20.1491C14.5756 20.2493 14.5136 20.337 14.4297 20.4L12.6199 21.79C12.4442 21.927 12.2275 22.0015 12.0046 22.0015C11.7818 22.0015 11.5654 21.927 11.3896 21.79H11.3997Z" fill="black"/>
</svg>
