<svg width="24" height="24" viewBox="0 0 24 24" fill="none" xmlns="http://www.w3.org/2000/svg">
<path d="M13.52 10C14.07 10 14.52 9.55 14.52 9C14.52 8.45 14.07 8 13.52 8C12.97 8 12.52 8.45 12.52 9C12.52 9.55 12.97 10 13.52 10ZM16.52 10C17.07 10 17.52 9.55 17.52 9C17.52 8.45 17.07 8 16.52 8C15.97 8 15.52 8.45 15.52 9C15.52 9.55 15.97 10 16.52 10ZM7.52 10C8.07 10 8.52 9.55 8.52 9C8.52 8.45 8.07 8 7.52 8C6.97 8 6.52 8.45 6.52 9C6.52 9.55 6.97 10 7.52 10ZM10.52 10C11.07 10 11.52 9.55 11.52 9C11.52 8.45 11.07 8 10.52 8C9.97 8 9.52 8.45 9.52 9C9.52 9.55 9.97 10 10.52 10ZM13.52 13C14.07 13 14.52 12.55 14.52 12C14.52 11.45 14.07 11 13.52 11C12.97 11 12.52 11.45 12.52 12C12.52 12.55 12.97 13 13.52 13ZM16.52 13C17.07 13 17.52 12.55 17.52 12C17.52 11.45 17.07 11 16.52 11C15.97 11 15.52 11.45 15.52 12C15.52 12.55 15.97 13 16.52 13ZM7.52 13C8.07 13 8.52 12.55 8.52 12C8.52 11.45 8.07 11 7.52 11C6.97 11 6.52 11.45 6.52 12C6.52 12.55 6.97 13 7.52 13ZM10.52 13C11.07 13 11.52 12.55 11.52 12C11.52 11.45 11.07 11 10.52 11C9.97 11 9.52 11.45 9.52 12C9.52 12.55 9.97 13 10.52 13ZM18 20H6C3.79 20 2 18.21 2 16V8C2 5.79 3.79 4 6 4H18C20.21 4 22 5.79 22 8V16C22 18.21 20.21 20 18 20ZM6 6C4.9 6 4 6.9 4 8V16C4 17.1 4.9 18 6 18H18C19.1 18 20 17.1 20 16V8C20 6.9 19.1 6 18 6H6ZM15 16H9C8.45 16 8 15.55 8 15C8 14.45 8.45 14 9 14H15C15.55 14 16 14.45 16 15C16 15.55 15.55 16 15 16Z" fill="black"/>
</svg>
