<svg width="24" height="24" viewBox="0 0 24 24" fill="none" xmlns="http://www.w3.org/2000/svg">
<path d="M18 4H6C3.79 4 2 5.79 2 8V16C2 18.21 3.79 20 6 20H18C20.21 20 22 18.21 22 16V8C22 5.79 20.21 4 18 4ZM13.75 7.5C14.3 7.5 14.75 7.95 14.75 8.5C14.75 9.05 14.3 9.5 13.75 9.5C13.2 9.5 12.75 9.05 12.75 8.5C12.75 7.95 13.2 7.5 13.75 7.5ZM13.75 11C14.3 11 14.75 11.45 14.75 12C14.75 12.55 14.3 13 13.75 13C13.2 13 12.75 12.55 12.75 12C12.75 11.45 13.2 11 13.75 11ZM10.25 7.5C10.8 7.5 11.25 7.95 11.25 8.5C11.25 9.05 10.8 9.5 10.25 9.5C9.7 9.5 9.25 9.05 9.25 8.5C9.25 7.95 9.7 7.5 10.25 7.5ZM10.25 11C10.8 11 11.25 11.45 11.25 12C11.25 12.55 10.8 13 10.25 13C9.7 13 9.25 12.55 9.25 12C9.25 11.45 9.7 11 10.25 11ZM6.75 7.5C7.3 7.5 7.75 7.95 7.75 8.5C7.75 9.05 7.3 9.5 6.75 9.5C6.2 9.5 5.75 9.05 5.75 8.5C5.75 7.95 6.2 7.5 6.75 7.5ZM6.75 13C6.2 13 5.75 12.55 5.75 12C5.75 11.45 6.2 11 6.75 11C7.3 11 7.75 11.45 7.75 12C7.75 12.55 7.3 13 6.75 13ZM15.5 16.5H8.5C7.95 16.5 7.5 16.05 7.5 15.5C7.5 14.95 7.95 14.5 8.5 14.5H15.5C16.05 14.5 16.5 14.95 16.5 15.5C16.5 16.05 16.05 16.5 15.5 16.5ZM17.25 13C16.7 13 16.25 12.55 16.25 12C16.25 11.45 16.7 11 17.25 11C17.8 11 18.25 11.45 18.25 12C18.25 12.55 17.8 13 17.25 13ZM17.25 9.5C16.7 9.5 16.25 9.05 16.25 8.5C16.25 7.95 16.7 7.5 17.25 7.5C17.8 7.5 18.25 7.95 18.25 8.5C18.25 9.05 17.8 9.5 17.25 9.5Z" fill="black"/>
</svg>
