<svg width="24" height="24" viewBox="0 0 24 24" fill="none" xmlns="http://www.w3.org/2000/svg">
<path d="M20 13.7099C19.45 13.7099 19 13.2599 19 12.7099V11.2799C19 10.7299 19.45 10.2799 20 10.2799C20.55 10.2799 21 10.7299 21 11.2799V12.7099C21 13.2699 20.55 13.7099 20 13.7099ZM5 12.7099V11.2799C5 10.7299 4.55 10.2799 4 10.2799C3.45 10.2799 3 10.7299 3 11.2799V12.7099C3 13.2599 3.45 13.7099 4 13.7099C4.55 13.7099 5 13.2699 5 12.7099ZM12.01 14.7399C12.47 14.7399 12.85 14.8399 12.97 14.9699C12.98 14.9799 13.01 14.9699 13.01 14.9499V6.27992C13.01 5.73992 12.6 5.27992 12.06 5.24992C11.49 5.21992 11.01 5.67992 11.01 6.24992V14.9499C11.01 14.9699 11.03 14.9799 11.05 14.9699C11.16 14.8399 11.55 14.7399 12.01 14.7399ZM12.01 15.7099C11.46 15.7099 11.01 15.8499 11.01 16.0199V17.1899C11.01 17.2199 11.02 17.2499 11.03 17.2799L11.8 18.6099C11.89 18.7699 12.12 18.7699 12.21 18.6099L12.98 17.2799C13 17.2499 13 17.2199 13 17.1899V16.0199C13.01 15.8499 12.56 15.7099 12.01 15.7099ZM17 15.2399V8.75992C17 8.20992 16.55 7.75992 16 7.75992C15.45 7.75992 15 8.20992 15 8.75992V15.2399C15 15.7899 15.45 16.2399 16 16.2399C16.55 16.2399 17 15.7899 17 15.2399ZM9 15.2399V8.75992C9 8.20992 8.55 7.75992 8 7.75992C7.45 7.75992 7 8.20992 7 8.75992V15.2399C7 15.7899 7.45 16.2399 8 16.2399C8.55 16.2399 9 15.7899 9 15.2399Z" fill="black"/>
</svg>
