<svg width="24" height="24" viewBox="0 0 24 24" fill="none" xmlns="http://www.w3.org/2000/svg">
<path d="M22 12C22 17.52 17.52 22 12 22C6.48 22 2 17.52 2 12C2 6.48 6.48 2 12 2C17.52 2 22 6.48 22 12ZM18.65 11.4C18.65 8.42 15.67 6 12 6C8.33 6 5.35 8.42 5.35 11.4C5.35 14.07 7.72 16.3 10.91 16.73C11.13 16.78 11.42 16.87 11.5 17.06C11.57 17.23 11.54 17.49 11.52 17.66C11.52 17.66 11.44 18.13 11.43 18.23C11.4 18.4 11.3 18.89 12.01 18.59C12.72 18.29 15.84 16.33 17.24 14.73C18.19 13.66 18.65 12.59 18.65 11.4ZM10.65 9.96H10.18C10.11 9.96 10.05 10.02 10.05 10.09V12.99C10.05 13.06 10.11 13.12 10.18 13.12H10.65C10.72 13.12 10.78 13.06 10.78 12.99V10.09C10.78 10.02 10.72 9.96 10.65 9.96ZM13.86 9.96H13.39C13.32 9.96 13.26 10.02 13.26 10.09V11.81L11.93 10.02L11.92 10.01L11.91 10C11.91 10 11.91 10 11.9 9.99C11.9 9.99 11.9 9.99 11.89 9.99C11.89 9.99 11.89 9.99 11.88 9.99C11.88 9.99 11.88 9.99 11.87 9.99H11.86C11.86 9.99 11.86 9.99 11.85 9.99C11.85 9.99 11.85 9.99 11.84 9.99C11.84 9.99 11.84 9.99 11.83 9.99C11.83 9.99 11.83 9.99 11.82 9.99H11.35C11.28 9.99 11.22 10.05 11.22 10.12V13.02C11.22 13.09 11.28 13.15 11.35 13.15H11.82C11.89 13.15 11.95 13.09 11.95 13.02V11.3L13.28 13.1C13.29 13.11 13.3 13.12 13.31 13.13H13.32C13.32 13.13 13.32 13.13 13.33 13.13C13.33 13.13 13.33 13.13 13.34 13.13H13.35C13.36 13.13 13.37 13.13 13.38 13.13H13.85C13.92 13.13 13.98 13.07 13.98 13V10.1C13.99 10.02 13.93 9.96 13.86 9.96ZM9.52 12.39H8.26V10.09C8.26 10.02 8.2 9.96 8.13 9.96H7.66C7.59 9.96 7.53 10.02 7.53 10.09V12.99C7.53 13.02 7.54 13.06 7.57 13.08C7.59 13.1 7.62 13.12 7.66 13.12H9.52C9.59 13.12 9.65 13.06 9.65 12.99V12.52C9.65 12.45 9.6 12.39 9.52 12.39ZM16.44 10.69C16.51 10.69 16.57 10.63 16.57 10.56V10.09C16.57 10.02 16.51 9.96 16.44 9.96H14.58C14.55 9.96 14.51 9.97 14.49 10C14.47 10.02 14.45 10.05 14.45 10.09V12.99C14.45 13.02 14.46 13.06 14.49 13.08C14.51 13.1 14.54 13.12 14.58 13.12H16.44C16.51 13.12 16.57 13.06 16.57 12.99V12.52C16.57 12.45 16.51 12.39 16.44 12.39H15.17V11.9H16.44C16.51 11.9 16.57 11.84 16.57 11.77V11.3C16.57 11.23 16.51 11.17 16.44 11.17H15.17V10.68H16.44V10.69Z" fill="black"/>
</svg>
