<svg width="24" height="24" viewBox="0 0 24 24" fill="none" xmlns="http://www.w3.org/2000/svg">
<path d="M17.1 21H6.9C4.75 21 3 19.25 3 17.1V6.9C3 4.75 4.75 3 6.9 3H17.1C19.25 3 21 4.75 21 6.9V17.1C21 19.25 19.25 21 17.1 21ZM18.52 11.21C18.52 8.28 15.58 5.89 11.97 5.89C8.36 5.89 5.42 8.28 5.42 11.21C5.42 13.84 7.75 16.04 10.9 16.46C11.11 16.51 11.4 16.6 11.48 16.78C11.55 16.95 11.52 17.21 11.5 17.37C11.5 17.37 11.42 17.83 11.41 17.93C11.38 18.1 11.28 18.58 11.98 18.28C12.68 17.99 15.75 16.06 17.13 14.48C18.07 13.44 18.52 12.38 18.52 11.21ZM10.64 9.79H10.18C10.11 9.79 10.05 9.85 10.05 9.92V12.78C10.05 12.85 10.11 12.91 10.18 12.91H10.64C10.71 12.91 10.77 12.85 10.77 12.78V9.92C10.77 9.85 10.71 9.79 10.64 9.79ZM13.8 9.79H13.34C13.27 9.79 13.21 9.85 13.21 9.92V11.62L11.9 9.85L11.89 9.84L11.88 9.83C11.88 9.83 11.88 9.83 11.87 9.82C11.87 9.82 11.87 9.82 11.86 9.82C11.86 9.82 11.86 9.82 11.85 9.82C11.85 9.82 11.85 9.82 11.84 9.82C11.84 9.82 11.84 9.82 11.83 9.82C11.83 9.82 11.83 9.82 11.82 9.82C11.82 9.82 11.82 9.82 11.81 9.82C11.81 9.82 11.81 9.82 11.8 9.82C11.8 9.82 11.8 9.82 11.79 9.82H11.33C11.26 9.82 11.2 9.88 11.2 9.95V12.81C11.2 12.88 11.26 12.94 11.33 12.94H11.79C11.86 12.94 11.92 12.88 11.92 12.81V11.11L13.23 12.88C13.24 12.89 13.25 12.9 13.26 12.91H13.27C13.27 12.91 13.27 12.91 13.28 12.91C13.28 12.91 13.28 12.91 13.29 12.91H13.3C13.31 12.91 13.32 12.91 13.33 12.91H13.79C13.86 12.91 13.92 12.85 13.92 12.78V9.92C13.93 9.85 13.87 9.79 13.8 9.79ZM9.53 12.19H8.28V9.92C8.28 9.85 8.22 9.79 8.15 9.79H7.69C7.62 9.79 7.56 9.85 7.56 9.92V12.78C7.56 12.81 7.57 12.85 7.6 12.87C7.62 12.89 7.65 12.91 7.69 12.91H9.53C9.6 12.91 9.66 12.85 9.66 12.78V12.32C9.66 12.24 9.6 12.19 9.53 12.19ZM16.34 10.51C16.41 10.51 16.47 10.45 16.47 10.38V9.92C16.47 9.85 16.41 9.79 16.34 9.79H14.5C14.47 9.79 14.43 9.8 14.41 9.83C14.39 9.85 14.37 9.88 14.37 9.92V12.78C14.37 12.81 14.38 12.85 14.41 12.87C14.43 12.89 14.46 12.91 14.5 12.91H16.34C16.41 12.91 16.47 12.85 16.47 12.78V12.32C16.47 12.25 16.41 12.19 16.34 12.19H15.09V11.7H16.34C16.41 11.7 16.47 11.64 16.47 11.57V11.11C16.47 11.04 16.41 10.98 16.34 10.98H15.09V10.5H16.34V10.51Z" fill="black"/>
</svg>
