<svg width="24" height="24" viewBox="0 0 24 24" fill="none" xmlns="http://www.w3.org/2000/svg">
<path d="M21.27 7.68004C21.27 8.75004 20.85 9.75004 20.1 10.51L15.94 14.67C15.1 15.51 13.98 15.94 12.89 15.94C12 15.94 11.12 15.65 10.41 15.06C9.89998 14.65 9.50998 14.1 9.25998 13.5C9.04998 12.99 9.29998 12.41 9.80998 12.2C10.32 11.99 10.91 12.24 11.11 12.75C11.23 13.06 11.43 13.32 11.69 13.54C12.47 14.19 13.72 14.07 14.52 13.26L18.68 9.10004C19.06 8.72004 19.27 8.22004 19.27 7.69004C19.27 7.16004 19.06 6.65004 18.68 6.28004C17.92 5.52004 16.61 5.52004 15.85 6.28004L14.6 7.53004C14.21 7.92004 13.58 7.92004 13.19 7.53004C12.8 7.14004 12.8 6.51004 13.19 6.12004L14.45 4.86004C15.96 3.35004 18.6 3.35004 20.11 4.86004C20.86 5.61004 21.27 6.62004 21.27 7.68004ZM9.39998 16.47L8.13998 17.73C7.37998 18.49 6.06998 18.49 5.30998 17.73C4.92998 17.35 4.71998 16.85 4.71998 16.32C4.71998 15.79 4.92998 15.28 5.30998 14.91L9.47998 10.74C10.25 9.97004 11.46 9.83004 12.23 10.42C12.53 10.65 12.75 10.93 12.88 11.27C13.09 11.78 13.67 12.03 14.18 11.82C14.69 11.61 14.94 11.03 14.73 10.52C14.46 9.86004 14.02 9.28004 13.44 8.84004C11.86 7.63004 9.54998 7.85004 8.04998 9.35004L3.89998 13.49C3.13998 14.24 2.72998 15.25 2.72998 16.32C2.72998 17.39 3.14998 18.39 3.89998 19.15C4.65998 19.91 5.65998 20.32 6.72998 20.32C7.79998 20.32 8.79998 19.9 9.55998 19.15L10.82 17.89C11.21 17.5 11.21 16.87 10.82 16.48C10.43 16.09 9.78998 16.08 9.39998 16.47Z" fill="black"/>
</svg>
