<svg width="24" height="24" viewBox="0 0 24 24" fill="none" xmlns="http://www.w3.org/2000/svg">
<path d="M12.8207 15.7204C11.9719 15.7287 11.1471 15.4384 10.4906 14.9004C10.011 14.5042 9.63652 13.9959 9.40049 13.4204C9.35059 13.2982 9.3254 13.1675 9.32603 13.0355C9.32666 12.9036 9.35333 12.7731 9.4044 12.6515C9.45547 12.5298 9.5299 12.4194 9.62364 12.3266C9.71737 12.2337 9.82841 12.1603 9.95054 12.1104C10.0727 12.0605 10.2034 12.0351 10.3353 12.0357C10.4672 12.0364 10.5979 12.063 10.7196 12.1141C10.8412 12.1651 10.9515 12.2397 11.0443 12.3334C11.1371 12.4271 11.2107 12.5382 11.2606 12.6604C11.3673 12.9338 11.543 13.175 11.7706 13.3604C12.1463 13.6301 12.6075 13.7536 13.0677 13.7076C13.528 13.6615 13.9557 13.4492 14.2706 13.1104L18.1107 9.28036C18.4152 8.94358 18.5786 8.50266 18.5672 8.04875C18.5558 7.59485 18.3705 7.16269 18.0494 6.84163C17.7284 6.52057 17.296 6.33518 16.8421 6.32377C16.3882 6.31237 15.9475 6.47583 15.6107 6.78036L14.4505 7.94036C14.2592 8.10419 14.0133 8.18979 13.7616 8.18007C13.5099 8.17035 13.2712 8.06602 13.0931 7.88793C12.915 7.70983 12.8106 7.47109 12.8009 7.21942C12.7912 6.96774 12.8768 6.72166 13.0406 6.53036L14.2005 5.37036C14.906 4.66489 15.863 4.26855 16.8607 4.26855C17.8584 4.26855 18.8151 4.66489 19.5206 5.37036C20.2261 6.07584 20.6224 7.03267 20.6224 8.03036C20.6224 9.02805 20.2261 9.98489 19.5206 10.6904L15.6905 14.5304C14.9289 15.2909 13.897 15.7188 12.8207 15.7204ZM9.82066 18.6504L10.9806 17.4804C11.1444 17.2891 11.23 17.043 11.2203 16.7913C11.2106 16.5396 11.1062 16.3009 10.9281 16.1228C10.75 15.9447 10.5113 15.8404 10.2596 15.8307C10.0079 15.8209 9.76196 15.9065 9.57066 16.0704L8.4105 17.2304C8.07377 17.5519 7.62609 17.7313 7.1605 17.7313C6.69491 17.7313 6.24723 17.5519 5.9105 17.2304C5.74572 17.0676 5.61503 16.8737 5.52574 16.66C5.43644 16.4463 5.39048 16.217 5.39048 15.9854C5.39048 15.7537 5.43644 15.5244 5.52574 15.3107C5.61503 15.097 5.74572 14.9031 5.9105 14.7404L9.7606 10.8904C10.0665 10.5635 10.4781 10.3551 10.9227 10.302C11.3673 10.249 11.8162 10.3546 12.1905 10.6004C12.4434 10.7957 12.6401 11.0544 12.7606 11.3504C12.8601 11.597 13.0535 11.7941 13.2982 11.8981C13.5429 12.0022 13.8189 12.0048 14.0655 11.9054C14.3122 11.8059 14.5093 11.6125 14.6134 11.3678C14.7175 11.1231 14.7202 10.847 14.6207 10.6004C14.3641 9.97049 13.9425 9.42129 13.4005 9.01036C12.6396 8.46547 11.7074 8.21395 10.7757 8.30216C9.84403 8.39037 8.97577 8.81235 8.33067 9.49036L4.50059 13.3204C3.85066 14.037 3.50114 14.976 3.52427 15.9432C3.5474 16.9104 3.94141 17.8316 4.62486 18.5163C5.3083 19.2011 6.22878 19.5969 7.1959 19.6218C8.16302 19.6467 9.10282 19.2989 9.82066 18.6504Z" fill="black"/>
</svg>
