<svg width="24" height="24" viewBox="0 0 24 24" fill="none" xmlns="http://www.w3.org/2000/svg">
<path d="M7.65996 6.03993C7.65996 5.48993 8.10996 5.03993 8.65996 5.03993H19.75C20.3 5.03993 20.75 5.48993 20.75 6.03993C20.75 6.58993 20.3 7.03993 19.75 7.03993H8.65996C8.10996 7.03993 7.65996 6.58993 7.65996 6.03993ZM19.75 10.9999H8.65996C8.10996 10.9999 7.65996 11.4499 7.65996 11.9999C7.65996 12.5499 8.10996 12.9999 8.65996 12.9999H19.75C20.3 12.9999 20.75 12.5499 20.75 11.9999C20.75 11.4499 20.3 10.9999 19.75 10.9999ZM19.75 16.9599H8.65996C8.10996 16.9599 7.65996 17.4099 7.65996 17.9599C7.65996 18.5099 8.10996 18.9599 8.65996 18.9599H19.75C20.3 18.9599 20.75 18.5099 20.75 17.9599C20.75 17.4099 20.3 16.9599 19.75 16.9599ZM4.09996 5.14993C4.17996 5.14993 4.26996 5.12993 4.36996 5.06993L4.44996 5.01993V7.84993C4.44996 7.96993 4.45996 8.02993 4.50996 8.12993C4.59996 8.30993 4.76996 8.40993 4.95996 8.40993C5.14996 8.40993 5.31996 8.29993 5.40996 8.12993C5.45996 8.02993 5.46996 7.96993 5.46996 7.84993V4.18993C5.46996 4.12993 5.45996 4.04993 5.42996 3.97993C5.38996 3.86993 5.30996 3.77993 5.21996 3.72993C5.05996 3.63993 4.86996 3.62993 4.71996 3.71993L3.89996 4.15993C3.77996 4.22993 3.69996 4.29993 3.64996 4.38993C3.56996 4.52993 3.56996 4.71993 3.64996 4.87993C3.73996 5.04993 3.90996 5.14993 4.09996 5.14993ZM3.83996 14.2599C3.98996 14.3399 4.12996 14.3499 4.24996 14.3499H5.67996C5.79996 14.3499 5.85996 14.3399 5.95996 14.2899C6.12996 14.1999 6.22996 14.0199 6.22996 13.8399C6.22996 13.6399 6.11996 13.4699 5.94996 13.3899C5.85996 13.3399 5.78996 13.3299 5.66996 13.3299H4.63996C5.65996 12.2599 5.82996 12.0899 5.82996 12.0899C6.09996 11.8099 6.23996 11.4599 6.23996 11.0999C6.23996 10.2999 5.58996 9.63994 4.77996 9.63994C4.24996 9.63994 3.75996 9.92993 3.50996 10.3999C3.43996 10.5199 3.42996 10.6499 3.45996 10.7799C3.49996 10.9099 3.58996 11.0199 3.70996 11.0899C3.87996 11.1799 4.11996 11.1699 4.26996 11.0399C4.30996 10.9999 4.34996 10.9499 4.37996 10.8999L4.41996 10.8399C4.49996 10.7199 4.63996 10.6499 4.77996 10.6499C5.01996 10.6499 5.21996 10.8499 5.21996 11.0899C5.21996 11.1899 5.16996 11.2899 5.07996 11.3799C5.07996 11.3799 4.94996 11.5099 3.70996 12.8099C3.56996 12.9499 3.48996 13.0699 3.43996 13.1999C3.29996 13.6499 3.44996 14.0799 3.83996 14.2599ZM6.18996 16.9999C6.18996 16.2099 5.55996 15.5899 4.75996 15.5899C4.22996 15.5899 3.74996 15.8799 3.50996 16.3399C3.43996 16.4599 3.42996 16.5999 3.46996 16.7299C3.50996 16.8599 3.59996 16.9699 3.71996 17.0299C3.90996 17.1299 4.11996 17.1099 4.25996 16.9899C4.31996 16.9499 4.36996 16.8799 4.40996 16.8099C4.41996 16.7999 4.42996 16.7899 4.42996 16.7799C4.50996 16.6699 4.63996 16.6099 4.75996 16.6099C4.98996 16.6099 5.16996 16.7899 5.16996 17.0099C5.16996 17.2399 4.95996 17.3599 4.75996 17.3599H4.61996C4.50996 17.3599 4.43996 17.3699 4.33996 17.4199C4.16996 17.5099 4.06996 17.6899 4.06996 17.8699C4.06996 18.0599 4.17996 18.2299 4.34996 18.3199C4.44996 18.3699 4.51996 18.3799 4.62996 18.3799H4.76996C4.92996 18.3799 5.06996 18.4299 5.16996 18.5299C5.24996 18.6099 5.28996 18.7099 5.28996 18.8299C5.28996 19.1099 5.06996 19.3399 4.77996 19.3399C4.55996 19.3399 4.42996 19.2199 4.34996 19.1099C4.22996 18.9499 4.13996 18.8599 4.04996 18.8299C3.91996 18.7799 3.75996 18.7899 3.63996 18.8599C3.51996 18.9199 3.42996 19.0299 3.39996 19.1599C3.35996 19.2899 3.37996 19.4299 3.43996 19.5499C3.69996 20.0499 4.21996 20.3499 4.78996 20.3499C5.63996 20.3499 6.30996 19.6899 6.31996 18.8399V18.8299C6.32996 18.4699 6.17996 18.1199 5.90996 17.8399C6.07996 17.5899 6.18996 17.2999 6.18996 16.9999Z" fill="black"/>
</svg>
