<svg width="24" height="24" viewBox="0 0 24 24" fill="none" xmlns="http://www.w3.org/2000/svg">
<path d="M19.75 7.07H8.66C8.11 7.07 7.66 6.62 7.66 6.07C7.66 5.52 8.11 5.07 8.66 5.07H19.75C20.3 5.07 20.75 5.52 20.75 6.07C20.75 6.62 20.3 7.07 19.75 7.07ZM20.75 12C20.75 11.45 20.3 11 19.75 11H8.66C8.11 11 7.66 11.45 7.66 12C7.66 12.55 8.11 13 8.66 13H19.75C20.3 13 20.75 12.55 20.75 12ZM20.75 17.93C20.75 17.38 20.3 16.93 19.75 16.93H8.66C8.11 16.93 7.66 17.38 7.66 17.93C7.66 18.48 8.11 18.93 8.66 18.93H19.75C20.3 18.93 20.75 18.48 20.75 17.93ZM5 4.5C4.17 4.5 3.5 5.17 3.5 6C3.5 6.83 4.17 7.5 5 7.5C5.83 7.5 6.5 6.83 6.5 6C6.5 5.17 5.83 4.5 5 4.5ZM5 10.5C4.17 10.5 3.5 11.17 3.5 12C3.5 12.83 4.17 13.5 5 13.5C5.83 13.5 6.5 12.83 6.5 12C6.5 11.17 5.83 10.5 5 10.5ZM5 16.5C4.17 16.5 3.5 17.17 3.5 18C3.5 18.83 4.17 19.5 5 19.5C5.83 19.5 6.5 18.83 6.5 18C6.5 17.17 5.83 16.5 5 16.5Z" fill="black"/>
</svg>
