<svg width="24" height="24" viewBox="0 0 24 24" fill="none" xmlns="http://www.w3.org/2000/svg">
<path fill-rule="evenodd" clip-rule="evenodd" d="M20.2495 21.0656L17.25 19.3295L14.2505 21.0656C13.9171 21.2586 13.5 21.018 13.5 20.6329V13.5C13.5 12.6716 14.1716 12 15 12H19.5C20.3284 12 21 12.6716 21 13.5V20.6329C21 21.018 20.5829 21.2586 20.2495 21.0656ZM17.5996 9.09961C17.5996 8.54688 17.1523 8.09961 16.5996 8.09961H4.59961C4.04688 8.09961 3.59961 8.54688 3.59961 9.09961C3.59961 9.65234 4.04688 10.0996 4.59961 10.0996H16.5996C17.1523 10.0996 17.5996 9.65234 17.5996 9.09961ZM17.5996 5.2002C17.5996 4.64747 17.1523 4.2002 16.5996 4.2002H4.59961C4.04688 4.2002 3.59961 4.64747 3.59961 5.2002C3.59961 5.75293 4.04688 6.2002 4.59961 6.2002H16.5996C17.1523 6.2002 17.5996 5.75293 17.5996 5.2002ZM11.5996 13C11.5996 12.4473 11.1523 12 10.5996 12H4.59961C4.04688 12 3.59961 12.4473 3.59961 13C3.59961 13.5527 4.04688 14 4.59961 14H10.5996C11.1523 14 11.5996 13.5527 11.5996 13Z" fill="black"/>
</svg>
