<svg width="24" height="24" viewBox="0 0 24 24" fill="none" xmlns="http://www.w3.org/2000/svg">
<path d="M12 7.49023C11.45 7.49023 11 7.04023 11 6.49023V2.99023C11 2.44023 11.45 1.99023 12 1.99023C12.55 1.99023 13 2.44023 13 2.99023V6.49023C13 7.04023 12.55 7.49023 12 7.49023ZM17.6 12.9902H21C21.55 12.9902 22 12.5402 22 11.9902C22 11.4402 21.55 10.9902 21 10.9902H17.6C17.05 10.9902 16.6 11.4402 16.6 11.9902C16.6 12.5402 17.05 12.9902 17.6 12.9902ZM19.07 17.6502L16.66 15.2402C16.27 14.8502 15.64 14.8502 15.25 15.2402C14.86 15.6302 14.86 16.2602 15.25 16.6502L17.66 19.0602C18.05 19.4502 18.68 19.4502 19.07 19.0602C19.46 18.6702 19.46 18.0402 19.07 17.6502ZM8.75 7.32023L6.34 4.92023C5.95 4.53023 5.32 4.53023 4.93 4.92023C4.54 5.31023 4.54 5.94023 4.93 6.33023L7.34 8.74023C7.73 9.13023 8.36 9.13023 8.75 8.74023C9.14 8.35023 9.14 7.72023 8.75 7.32023ZM3 12.9902H6.4C6.95 12.9902 7.4 12.5402 7.4 11.9902C7.4 11.4402 6.95 10.9902 6.4 10.9902H3C2.45 10.9902 2 11.4402 2 11.9902C2 12.5402 2.45 12.9902 3 12.9902ZM6.34 19.0602L8.75 16.6502C9.14 16.2602 9.14 15.6302 8.75 15.2402C8.36 14.8502 7.73 14.8502 7.34 15.2402L4.93 17.6502C4.54 18.0402 4.54 18.6702 4.93 19.0602C5.32 19.4502 5.95 19.4502 6.34 19.0602ZM13 20.9902V17.5902C13 17.0402 12.55 16.5902 12 16.5902C11.45 16.5902 11 17.0402 11 17.5902V20.9902C11 21.5402 11.45 21.9902 12 21.9902C12.55 21.9902 13 21.5402 13 20.9902Z" fill="black"/>
</svg>
