<svg width="24" height="24" viewBox="0 0 24 24" fill="none" xmlns="http://www.w3.org/2000/svg">
<path d="M18 9.01011H17V8.23011C17 5.62011 15.1 3.29011 12.5 3.03011C9.52 2.74011 7 5.09011 7 8.01011V9.01011H6C4.34 9.01011 3 10.3501 3 12.0101V18.0101C3 19.6701 4.34 21.0101 6 21.0101H18C19.66 21.0101 21 19.6701 21 18.0101V12.0101C21 10.3501 19.66 9.01011 18 9.01011ZM12.75 15.8601V17.2601C12.75 17.6701 12.41 18.0101 12 18.0101C11.59 18.0101 11.25 17.6701 11.25 17.2601V15.8601C10.52 15.5601 10 14.8501 10 14.0101C10 12.9101 10.9 12.0101 12 12.0101C13.1 12.0101 14 12.9101 14 14.0101C14 14.8501 13.48 15.5701 12.75 15.8601ZM15 9.01011H9V8.01011C9 6.36011 10.35 5.01011 12 5.01011C13.65 5.01011 15 6.36011 15 8.01011V9.01011Z" fill="black"/>
</svg>
