<svg width="24" height="24" viewBox="0 0 24 24" fill="none" xmlns="http://www.w3.org/2000/svg">
<path d="M20 8.9999H11V6.9999C11 5.5999 10.41 4.2599 9.38 3.3099C8.35 2.3699 6.96 1.8999 5.55 2.0199C3 2.2399 1 4.5199 1 7.2099V7.9999C1 8.5499 1.45 8.9999 2 8.9999C2.55 8.9999 3 8.5499 3 7.9999V7.2099C3 5.5499 4.2 4.1499 5.73 4.0099C6.58 3.9299 7.4 4.2099 8.03 4.7899C8.65 5.3599 9 6.1599 9 6.9999V8.9999H8C6.34 8.9999 5 10.3399 5 11.9999V17.9999C5 19.6599 6.34 20.9999 8 20.9999H20C21.66 20.9999 23 19.6599 23 17.9999V11.9999C23 10.3399 21.66 8.9999 20 8.9999ZM14.75 15.8499V17.2499C14.75 17.6599 14.41 17.9999 14 17.9999C13.59 17.9999 13.25 17.6599 13.25 17.2499V15.8499C12.52 15.5499 12 14.8399 12 13.9999C12 12.8999 12.9 11.9999 14 11.9999C15.1 11.9999 16 12.8999 16 13.9999C16 14.8399 15.48 15.5499 14.75 15.8499Z" fill="black"/>
</svg>
