<svg width="24" height="24" viewBox="0 0 24 24" fill="none" xmlns="http://www.w3.org/2000/svg">
<path d="M8.39996 10.56C7.80996 9.97 7.80996 9.02 8.39996 8.44C8.98996 7.85 9.93996 7.85 10.52 8.44C11.11 9.03 11.11 9.98 10.52 10.56C9.92996 11.15 8.97996 11.15 8.39996 10.56ZM8.70996 3H10.21H8.70996ZM10.21 6.5H8.70996H10.21ZM19.78 19.83C20.07 19.54 20.07 19.06 19.78 18.77L12.51 11.5C12.22 11.21 11.74 11.21 11.45 11.5C11.16 11.79 11.16 12.27 11.45 12.56L18.72 19.83C19.02 20.12 19.49 20.12 19.78 19.83ZM6.45996 9.5C6.45996 9.09 6.11996 8.75 5.70996 8.75H3.70996C3.29996 8.75 2.95996 9.09 2.95996 9.5C2.95996 9.91 3.29996 10.25 3.70996 10.25H5.70996C6.11996 10.25 6.45996 9.91 6.45996 9.5ZM5.91996 14.1L7.32996 12.69C7.61996 12.4 7.61996 11.92 7.32996 11.63C7.03996 11.34 6.55996 11.34 6.26996 11.63L4.85996 13.04C4.56996 13.33 4.56996 13.81 4.85996 14.1C5.14996 14.39 5.62996 14.39 5.91996 14.1ZM7.45996 7.47C7.74996 7.18 7.74996 6.7 7.45996 6.41L5.94996 4.9C5.65996 4.61 5.17996 4.61 4.88996 4.9C4.59996 5.2 4.59996 5.67 4.88996 5.96L6.39996 7.47C6.68996 7.76 7.15996 7.76 7.45996 7.47ZM10.24 5.75V3.75C10.24 3.34 9.89996 3 9.48996 3C9.06996 3 8.73996 3.34 8.73996 3.75V5.75C8.73996 6.16 9.07996 6.5 9.48996 6.5C9.89996 6.5 10.24 6.16 10.24 5.75ZM12.64 7.38L14.05 5.97C14.34 5.68 14.34 5.2 14.05 4.91C13.76 4.62 13.28 4.62 12.99 4.91L11.58 6.32C11.29 6.61 11.29 7.09 11.58 7.38C11.87 7.67 12.34 7.67 12.64 7.38Z" fill="black"/>
</svg>
