<svg width="24" height="24" viewBox="0 0 24 24" fill="none" xmlns="http://www.w3.org/2000/svg">
<path d="M12 2C6.5 2 2 6.5 2 12C2 17.5 6.5 22 12 22C17.5 22 22 17.5 22 12C22 6.5 17.5 2 12 2ZM17 14.5C17 15.3 16.3 16 15.5 16H8.5C7.7 16 7 15.3 7 14.5V9.5C7 8.7 7.7 8 8.5 8H15.5C16.3 8 17 8.7 17 9.5V14.5ZM15.2 10.1C15.4 10.4 15.4 10.8 15.1 11L13.3 12.4C12.9 12.7 12.4 12.9 12 12.9C11.5 12.9 11 12.7 10.6 12.4L8.9 11C8.6 10.8 8.6 10.4 8.8 10.1C9 9.8 9.4 9.8 9.6 10L11.4 11.4C11.7 11.7 12.2 11.7 12.5 11.4L14.3 10C14.6 9.8 15 9.8 15.2 10.1Z" fill="black"/>
</svg>
