<svg width="24" height="24" viewBox="0 0 24 24" fill="none" xmlns="http://www.w3.org/2000/svg">
<path d="M14.48 12.8399C13.75 13.4099 12.88 13.6999 12 13.6999C11.13 13.6999 10.25 13.4099 9.52 12.8399L6.3 10.2999C5.87 9.95986 5.8 9.32986 6.14 8.89986C6.48 8.46986 7.11 8.38986 7.54 8.72986L10.76 11.2699C11.49 11.8399 12.51 11.8399 13.24 11.2699L16.46 8.72986C16.9 8.38986 17.52 8.45986 17.86 8.89986C18.2 9.32986 18.13 9.95986 17.69 10.2999L14.48 12.8399ZM10 18.1099H6C4.9 18.1099 4 17.2099 4 16.1099V8.10986C4 7.00986 4.9 6.10986 6 6.10986H18C19.1 6.10986 20 7.00986 20 8.10986V13.1099C20 13.6599 20.45 14.1099 21 14.1099C21.55 14.1099 22 13.6599 22 13.1099V8.10986C22 5.89986 20.21 4.10986 18 4.10986H6C3.79 4.10986 2 5.89986 2 8.10986V16.1099C2 18.3199 3.79 20.1099 6 20.1099H10C10.55 20.1099 11 19.6599 11 19.1099C11 18.5599 10.55 18.1099 10 18.1099ZM23.24 15.8199C22.85 15.4299 22.22 15.4299 21.83 15.8199L16.95 20.6999L14.59 18.3499C14.2 17.9599 13.56 17.9599 13.17 18.3499C12.78 18.7399 12.78 19.3799 13.17 19.7699L16.23 22.8199C16.43 23.0099 16.68 23.1099 16.94 23.1099C17.2 23.1099 17.45 23.0099 17.65 22.8199L23.24 17.2299C23.63 16.8499 23.63 16.2099 23.24 15.8199Z" fill="black"/>
</svg>
