<svg width="24" height="24" viewBox="0 0 24 24" fill="none" xmlns="http://www.w3.org/2000/svg">
<path d="M12 13.6C11.1 13.6 10.3 13.3 9.5 12.7L6.3 10.2C5.9 9.9 5.8 9.2 6.1 8.8C6.4 8.4 7.1 8.3 7.5 8.6L10.7 11.1C11.4 11.7 12.4 11.7 13.2 11.1L16.4 8.6C16.8 8.3 17.5 8.3 17.8 8.8C18.1 9.2 18.1 9.9 17.6 10.2L14.4 12.7C13.7 13.3 12.9 13.6 12 13.6ZM22 16V8C22 5.8 20.2 4 18 4H6C3.8 4 2 5.8 2 8V16C2 18.2 3.8 20 6 20H18C20.2 20 22 18.2 22 16ZM18 6C19.1 6 20 6.9 20 8V16C20 17.1 19.1 18 18 18H6C4.9 18 4 17.1 4 16V8C4 6.9 4.9 6 6 6H18Z" fill="black"/>
</svg>
