<svg width="24" height="24" viewBox="0 0 24 24" fill="none" xmlns="http://www.w3.org/2000/svg">
<g clip-path="url(#clip0_7537_4145)">
<path d="M20 2.75H18C17.2 2.75 16.5 3.25 16.2 3.95L7.9 6.25H5C3.3 6.25 2 7.55 2 9.25V12.25C2 13.45 2.7 14.45 3.7 14.95L5.8 20.05C6.1 20.75 6.8 21.25 7.6 21.25H8.8C9.4 21.25 9.9 21.05 10.3 20.55C10.7 20.15 10.9 19.55 10.8 19.05L10.5 15.95L16.1 17.45C16.4 18.15 17.1 18.65 17.9 18.65H19.9C21 18.65 21.9 17.75 21.9 16.65V4.75C22 3.65 21.1 2.75 20 2.75ZM4 9.25C4 8.65 4.4 8.25 5 8.25H6.5C6.8 8.25 7 8.45 7 8.75V12.75C7 13.05 6.8 13.25 6.5 13.25H5C4.5 13.25 4 12.75 4 12.25V9.25ZM7.7 19.25L6.1 15.45L8.6 15.75L8.9 19.35H7.7V19.25ZM16 6.05V15.45L9.4 13.65C9.1 13.55 9 13.35 9 13.15V8.35C9 8.15 9.2 7.95 9.4 7.85L16 6.05ZM19.5 16.75H18.5C18.2 16.75 18 16.55 18 16.25V5.25C18 4.95 18.2 4.75 18.5 4.75H19.5C19.8 4.75 20 4.95 20 5.25V16.25C20 16.55 19.8 16.75 19.5 16.75Z" fill="black"/>
</g>
<defs>
<clipPath id="clip0_7537_4145">
<rect width="20" height="18.5" fill="white" transform="translate(2 2.75)"/>
</clipPath>
</defs>
</svg>
