<svg width="24" height="24" viewBox="0 0 24 24" fill="none" xmlns="http://www.w3.org/2000/svg">
<path d="M18.01 14C19.11 14 20.01 13.1 20.01 12C20.01 10.9 19.11 10 18.01 10C16.91 10 16.01 10.9 16.01 12C16.01 13.1 16.91 14 18.01 14ZM6.01001 14C7.11001 14 8.01001 13.1 8.01001 12C8.01001 10.9 7.11001 10 6.01001 10C4.91001 10 4.01001 10.9 4.01001 12C4.01001 13.1 4.91001 14 6.01001 14ZM12.01 14C13.11 14 14.01 13.1 14.01 12C14.01 10.9 13.11 10 12.01 10C10.91 10 10.01 10.9 10.01 12C10.01 13.1 10.91 14 12.01 14Z" fill="black"/>
</svg>
