<svg width="24" height="24" viewBox="0 0 24 24" fill="none" xmlns="http://www.w3.org/2000/svg">
<path d="M19.99 6.04004H3.98999C3.43999 6.04004 2.98999 5.59004 2.98999 5.04004C2.98999 4.49004 3.43999 4.04004 3.98999 4.04004H19.99C20.54 4.04004 20.99 4.49004 20.99 5.04004C20.99 5.59004 20.55 6.04004 19.99 6.04004ZM20.99 9.68004C20.99 9.13004 20.54 8.68004 19.99 8.68004H3.98999C3.43999 8.68004 2.98999 9.13004 2.98999 9.68004C2.98999 10.23 3.43999 10.68 3.98999 10.68H19.99C20.55 10.68 20.99 10.23 20.99 9.68004ZM20.99 14.32C20.99 13.77 20.54 13.32 19.99 13.32H3.98999C3.43999 13.32 2.98999 13.77 2.98999 14.32C2.98999 14.87 3.43999 15.32 3.98999 15.32H19.99C20.55 15.32 20.99 14.87 20.99 14.32ZM20.99 18.96C20.99 18.41 20.54 17.96 19.99 17.96H3.98999C3.43999 17.96 2.98999 18.41 2.98999 18.96C2.98999 19.51 3.43999 19.96 3.98999 19.96H19.99C20.55 19.96 20.99 19.51 20.99 18.96Z" fill="black"/>
</svg>
