<svg width="24" height="24" viewBox="0 0 24 24" fill="none" xmlns="http://www.w3.org/2000/svg">
<path d="M17.28 7.00998C17.28 7.55998 16.83 8.00998 16.28 8.00998H10.81C10.26 8.00998 9.81 7.55998 9.81 7.00998C9.81 6.45998 10.26 6.00998 10.81 6.00998H16.28C16.83 6.00998 17.28 6.45998 17.28 7.00998ZM7.72 6.00998C7.17 6.00998 6.72 6.45998 6.72 7.00998C6.72 7.55998 7.17 8.00998 7.72 8.00998C8.27 8.00998 8.72 7.55998 8.72 7.00998C8.72 6.45998 8.27 6.00998 7.72 6.00998ZM16.28 9.50998H10.81C10.26 9.50998 9.81 9.95998 9.81 10.51C9.81 11.06 10.26 11.51 10.81 11.51H16.28C16.83 11.51 17.28 11.06 17.28 10.51C17.28 9.95998 16.83 9.50998 16.28 9.50998ZM7.72 9.50998C7.17 9.50998 6.72 9.95998 6.72 10.51C6.72 11.06 7.17 11.51 7.72 11.51C8.27 11.51 8.72 11.06 8.72 10.51C8.72 9.95998 8.27 9.50998 7.72 9.50998ZM16.28 12.94H10.81C10.26 12.94 9.81 13.39 9.81 13.94C9.81 14.49 10.26 14.94 10.81 14.94H16.28C16.83 14.94 17.28 14.49 17.28 13.94C17.28 13.39 16.83 12.94 16.28 12.94ZM7.72 12.94C7.17 12.94 6.72 13.39 6.72 13.94C6.72 14.49 7.17 14.94 7.72 14.94C8.27 14.94 8.72 14.49 8.72 13.94C8.72 13.39 8.27 12.94 7.72 12.94ZM21 4.97998V15.98C21 17.64 19.66 18.98 18 18.98H14.5L12.84 21.55C12.64 21.85 12.32 22 12 22C11.68 22 11.36 21.85 11.16 21.54L9.5 18.98H6C4.34 18.98 3 17.64 3 15.98V4.97998C3 3.31998 4.34 1.97998 6 1.97998H18C19.66 1.97998 21 3.31998 21 4.97998ZM19 4.97998C19 4.42998 18.55 3.97998 18 3.97998H6C5.45 3.97998 5 4.42998 5 4.97998V15.98C5 16.53 5.45 16.98 6 16.98H9.5H10.59L11.18 17.89L12 19.16L12.82 17.89L13.41 16.98H14.5H18C18.55 16.98 19 16.53 19 15.98V4.97998Z" fill="black"/>
</svg>
