<svg width="24" height="24" viewBox="0 0 24 24" fill="none" xmlns="http://www.w3.org/2000/svg">
<path d="M12 15.0098C13.93 15.0098 15.5 13.4398 15.5 11.5098V6.50977C15.5 4.57977 13.93 3.00977 12 3.00977C10.07 3.00977 8.5 4.57977 8.5 6.50977V11.5098C8.5 13.4398 10.07 15.0098 12 15.0098ZM10.5 6.50977C10.5 5.67977 11.17 5.00977 12 5.00977C12.83 5.00977 13.5 5.67977 13.5 6.50977V11.5098C13.5 12.3398 12.83 13.0098 12 13.0098C11.17 13.0098 10.5 12.3398 10.5 11.5098V6.50977ZM12.98 17.9298C12.98 17.9598 13 17.9798 13 18.0098V19.0098H15C15.55 19.0098 16 19.4598 16 20.0098C16 20.5598 15.55 21.0098 15 21.0098H9C8.45 21.0098 8 20.5598 8 20.0098C8 19.4598 8.45 19.0098 9 19.0098H11V18.0098C11 17.9798 11.01 17.9598 11.02 17.9298C7.9 17.4398 5.5 14.7098 5.5 11.4098C5.5 10.8598 5.95 10.4098 6.5 10.4098C7.05 10.4098 7.5 10.8598 7.5 11.4098C7.5 13.9498 9.52 16.0098 12 16.0098C14.48 16.0098 16.5 13.9498 16.5 11.4098C16.5 10.8598 16.95 10.4098 17.5 10.4098C18.05 10.4098 18.5 10.8598 18.5 11.4098C18.5 14.7098 16.1 17.4398 12.98 17.9298Z" fill="black"/>
</svg>
