<svg width="24" height="24" viewBox="0 0 24 24" fill="none" xmlns="http://www.w3.org/2000/svg">
<path d="M8.5 11.5098V6.50977C8.5 4.57977 10.07 3.00977 12 3.00977C13.93 3.00977 15.5 4.57977 15.5 6.50977V11.5098C15.5 13.4398 13.93 15.0098 12 15.0098C10.07 15.0098 8.5 13.4398 8.5 11.5098ZM18.5 11.4098C18.5 10.8598 18.05 10.4098 17.5 10.4098C16.95 10.4098 16.5 10.8598 16.5 11.4098C16.5 13.9498 14.48 16.0098 12 16.0098C9.52 16.0098 7.5 13.9498 7.5 11.4098C7.5 10.8598 7.05 10.4098 6.5 10.4098C5.95 10.4098 5.5 10.8598 5.5 11.4098C5.5 14.7098 7.9 17.4398 11.02 17.9298C11.02 17.9598 11 17.9798 11 18.0098V19.0098H9C8.45 19.0098 8 19.4598 8 20.0098C8 20.5598 8.45 21.0098 9 21.0098H15C15.55 21.0098 16 20.5598 16 20.0098C16 19.4598 15.55 19.0098 15 19.0098H13V18.0098C13 17.9798 12.99 17.9598 12.98 17.9298C16.1 17.4398 18.5 14.7098 18.5 11.4098Z" fill="black"/>
</svg>
