<svg width="24" height="24" viewBox="0 0 24 24" fill="none" xmlns="http://www.w3.org/2000/svg">
<path d="M10.8601 20.9999C8.84009 20.9999 6.90009 20.3399 5.28009 19.0799C4.61009 18.5599 4.34009 17.7099 4.58009 16.9099C4.83009 16.0999 5.54009 15.5399 6.40009 15.4899C7.15009 15.4399 7.91009 15.2399 8.64009 14.9099C10.6201 14.0099 12.0601 12.1799 12.4001 10.1199C12.6201 8.77994 12.4401 7.42994 11.8701 6.22994C11.5001 5.44994 11.6401 4.55994 12.2301 3.93994C12.8101 3.33994 13.6801 3.16994 14.4601 3.48994C18.2401 5.10994 20.4301 8.94994 19.9201 13.0399C19.4301 16.9799 16.3601 20.1999 12.4601 20.8599C11.9301 20.9599 11.3901 20.9999 10.8601 20.9999ZM13.6801 5.32994L13.6901 5.36994C14.4401 6.93994 14.6801 8.69994 14.3901 10.4399C13.9401 13.1399 12.0601 15.5499 9.49009 16.7199C8.53009 17.1499 7.55009 17.4099 6.55009 17.4799C8.11009 18.7399 10.1101 19.2399 12.1401 18.8899C15.1801 18.3799 17.5701 15.8699 17.9501 12.7999C18.3401 9.58994 16.6301 6.58994 13.6801 5.32994Z" fill="black"/>
</svg>
