<svg width="24" height="24" viewBox="0 0 24 24" fill="none" xmlns="http://www.w3.org/2000/svg">
<path d="M12.27 12C12.27 13.38 11.15 14.5 9.77 14.5C8.39 14.5 7.27 13.38 7.27 12C7.27 10.62 8.39 9.5 9.77 9.5C11.15 9.5 12.27 10.62 12.27 12ZM22.01 7.77V16.23C22.01 17.06 21.05 17.53 20.39 17.02L17.5 14.75V15.5C17.5 17.16 16.16 18.5 14.5 18.5H5C3.34 18.5 2 17.16 2 15.5V8.5C2 6.84 3.34 5.5 5 5.5H14.5C16.16 5.5 17.5 6.84 17.5 8.5V9.25L20.39 6.98C21.04 6.47 22.01 6.93 22.01 7.77ZM13.77 12C13.77 9.79 11.98 8 9.77 8C7.56 8 5.77 9.79 5.77 12C5.77 14.21 7.56 16 9.77 16C11.98 16 13.77 14.21 13.77 12Z" fill="black"/>
</svg>
