<svg width="24" height="24" viewBox="0 0 24 24" fill="none" xmlns="http://www.w3.org/2000/svg">
<path fill-rule="evenodd" clip-rule="evenodd" d="M19 4H5C3.34 4 2 5.34 2 7V17C2 18.66 3.34 20 5 20H19C20.66 20 22 18.66 22 17V7C22 5.34 20.66 4 19 4ZM5.5 17.24C5.5 17.65 5.16 17.99 4.75 17.99C4.34 17.99 4 17.66 4 17.24V15.74C4 15.33 4.34 14.99 4.75 14.99C5.16 14.99 5.5 15.33 5.5 15.74V17.24ZM5.5 12.75C5.5 13.16 5.16 13.5 4.75 13.5C4.34 13.5 4 13.16 4 12.75V11.25C4 10.84 4.34 10.5 4.75 10.5C5.16 10.5 5.5 10.84 5.5 11.25V12.75ZM5.5 8.26C5.5 8.67 5.16 9.01 4.75 9.01C4.34 9.01 4 8.67 4 8.26V6.76C4 6.35 4.34 6.01 4.75 6.01C5.16 6.01 5.5 6.35 5.5 6.76V8.26ZM14.77 12.42L10.84 14.87C10.51 15.08 10.08 14.84 10.08 14.45V9.55C10.08 9.16 10.51 8.92 10.84 9.13L14.77 11.58C15.08 11.77 15.08 12.22 14.77 12.42ZM20 17.24C20 17.65 19.66 17.99 19.25 17.99C18.84 17.99 18.5 17.65 18.5 17.24V15.74C18.5 15.33 18.84 14.99 19.25 14.99C19.66 14.99 20 15.33 20 15.74V17.24ZM20 12.75C20 13.16 19.66 13.5 19.25 13.5C18.84 13.5 18.5 13.16 18.5 12.75V11.25C18.5 10.84 18.84 10.5 19.25 10.5C19.66 10.5 20 10.84 20 11.25V12.75ZM20 8.26C20 8.67 19.66 9.01 19.25 9.01C18.84 9.01 18.5 8.67 18.5 8.26V6.76C18.5 6.35 18.84 6.01 19.25 6.01C19.66 6.01 20 6.35 20 6.76V8.26Z" fill="black"/>
</svg>
