<svg width="24" height="24" viewBox="0 0 24 24" fill="none" xmlns="http://www.w3.org/2000/svg">
<path fill-rule="evenodd" clip-rule="evenodd" d="M19.01 4.0498H5.01001C3.35001 4.0498 2.01001 5.3898 2.01001 7.0498V17.0498C2.01001 18.7098 3.35001 20.0498 5.01001 20.0498H19.01C20.67 20.0498 22.01 18.7098 22.01 17.0498V7.0498C22.01 5.3998 20.66 4.0498 19.01 4.0498ZM20.01 17.0498C20.01 17.5998 19.56 18.0498 19.01 18.0498H5.01001C4.46001 18.0498 4.01001 17.5998 4.01001 17.0498V7.0498C4.01001 6.4998 4.46001 6.0498 5.01001 6.0498H19.01C19.56 6.0498 20.01 6.4998 20.01 7.0498V17.0498ZM14.5 10.0498V14.0498C14.5 14.3298 14.28 14.5498 14 14.5498H10C9.72001 14.5498 9.50001 14.3298 9.50001 14.0498V10.0498C9.50001 9.7698 9.72001 9.5498 10 9.5498H14C14.28 9.5498 14.5 9.7698 14.5 10.0498ZM6.25001 9.7498C5.84001 9.7498 5.50001 9.4098 5.50001 8.9998V7.8998C5.50001 7.4898 5.84001 7.1498 6.25001 7.1498C6.66001 7.1498 7.00001 7.4798 7.00001 7.8998V8.9998C7.00001 9.4098 6.66001 9.7498 6.25001 9.7498ZM6.25001 13.3498C5.84001 13.3498 5.50001 13.0098 5.50001 12.5998V11.4998C5.50001 11.0898 5.84001 10.7498 6.25001 10.7498C6.66001 10.7498 7.00001 11.0798 7.00001 11.4998V12.5998C7.00001 13.0098 6.66001 13.3498 6.25001 13.3498ZM6.25001 16.9498C5.84001 16.9498 5.50001 16.6098 5.50001 16.1998V15.0998C5.50001 14.6898 5.84001 14.3498 6.25001 14.3498C6.66001 14.3498 7.00001 14.6898 7.00001 15.0998V16.1998C7.00001 16.6198 6.66001 16.9498 6.25001 16.9498ZM17.75 9.7498C17.34 9.7498 17 9.4098 17 8.9998V7.8998C17 7.4898 17.34 7.1498 17.75 7.1498C18.16 7.1498 18.5 7.4898 18.5 7.8998V8.9998C18.5 9.4098 18.16 9.7498 17.75 9.7498ZM17.75 13.3498C17.34 13.3498 17 13.0098 17 12.5998V11.4998C17 11.0898 17.34 10.7498 17.75 10.7498C18.16 10.7498 18.5 11.0898 18.5 11.4998V12.5998C18.5 13.0098 18.16 13.3498 17.75 13.3498ZM17.75 16.9498C17.34 16.9498 17 16.6098 17 16.1998V15.0998C17 14.6898 17.34 14.3498 17.75 14.3498C18.16 14.3498 18.5 14.6898 18.5 15.0998V16.1998C18.5 16.6198 18.16 16.9498 17.75 16.9498Z" fill="black"/>
</svg>
