<svg width="24" height="24" viewBox="0 0 24 24" fill="none" xmlns="http://www.w3.org/2000/svg">
<path d="M18.4201 4.63011C17.8501 4.15011 17.1001 3.96011 16.3601 4.10011L10.1101 5.27011C8.93008 5.50011 8.08008 6.53011 8.08008 7.73011V14.1301C7.77008 14.0201 7.43008 13.9501 7.08008 13.9501C5.43008 13.9501 4.08008 15.3001 4.08008 16.9501C4.08008 18.6001 5.43008 19.9501 7.08008 19.9501C8.73008 19.9501 10.0801 18.6001 10.0801 16.9501V7.73011C10.0801 7.49011 10.2501 7.28011 10.4901 7.24011L16.7401 6.07011C16.9401 6.03011 17.0801 6.12011 17.1501 6.18011C17.2201 6.24011 17.3301 6.36011 17.3301 6.56011V12.3901C17.0201 12.2801 16.6801 12.2101 16.3301 12.2101C14.6801 12.2101 13.3301 13.5601 13.3301 15.2101C13.3301 16.8601 14.6801 18.2101 16.3301 18.2101C17.9801 18.2101 19.3301 16.8601 19.3301 15.2101V6.56011C19.3301 5.81011 19.0001 5.11011 18.4201 4.63011Z" fill="black"/>
</svg>
