<svg width="24" height="24" viewBox="0 0 24 24" fill="none" xmlns="http://www.w3.org/2000/svg">
<path d="M7.49999 8.9802C7.49999 8.9802 7.49999 9.0202 7.49999 14.3102C7.49999 14.4702 7.49999 14.6702 7.46999 14.8102C7.31999 15.4002 6.83999 15.8002 6.25999 15.8002C5.68999 15.8002 5.24999 15.4302 4.99999 14.7102C4.99999 14.7102 4.81999 14.2002 3.30999 9.8802C3.30999 14.9902 3.30999 15.0102 3.30999 15.0102C3.30999 15.1502 3.30999 15.2302 3.28999 15.2902C3.21999 15.5802 2.95999 15.7902 2.64999 15.7902C2.34999 15.7902 2.07999 15.5802 2.00999 15.2902C1.99999 15.2402 1.98999 15.1502 1.98999 15.0202C1.98999 15.0202 1.98999 14.9802 1.98999 9.6902C1.98999 9.5302 1.98999 9.3302 2.02999 9.1902C2.17999 8.6002 2.65999 8.2002 3.23999 8.2002C3.80999 8.2002 4.24999 8.5702 4.49999 9.2902C4.49999 9.2902 4.67999 9.8002 6.18999 14.1102C6.18999 9.0102 6.18999 8.9902 6.18999 8.9902C6.18999 8.8502 6.18999 8.7702 6.20999 8.7102C6.27999 8.4202 6.53999 8.2102 6.84999 8.2102C7.14999 8.2102 7.41999 8.4202 7.48999 8.7102C7.49999 8.7602 7.49999 8.8502 7.49999 8.9802ZM13.44 15.0702C13.44 15.3702 13.22 15.6402 12.94 15.7102C12.88 15.7302 12.78 15.7302 12.66 15.7302C12.56 15.7302 10.83 15.7302 10.69 15.7302C10.54 15.7302 10.42 15.7302 10.29 15.7102C9.60999 15.6302 9.12999 15.1702 9.03999 14.4902C9.01999 14.3802 9.01999 14.2702 9.01999 14.1402C9.01999 14.0902 9.01999 9.9002 9.01999 9.8502C9.01999 9.7202 9.01999 9.6202 9.03999 9.5002C9.12999 8.8402 9.60999 8.3802 10.29 8.2802C10.42 8.2702 10.54 8.2702 10.69 8.2702C10.84 8.2702 12.56 8.2702 12.66 8.2702C12.79 8.2702 12.88 8.2702 12.94 8.2802C13.22 8.3502 13.44 8.6202 13.44 8.9202C13.44 9.2302 13.22 9.4902 12.94 9.5602C12.88 9.5802 12.78 9.5802 12.66 9.5802C12.66 9.5802 12.56 9.5802 10.33 9.5802V11.3302C10.83 11.3302 11.8 11.3302 11.87 11.3302C12.01 11.3302 12.09 11.3302 12.15 11.3502C12.44 11.4202 12.65 11.6802 12.65 11.9902C12.65 12.2902 12.44 12.5602 12.15 12.6302C12.09 12.6402 12 12.6402 11.87 12.6402C11.8 12.6402 10.83 12.6402 10.33 12.6402V14.3902C12.56 14.3902 12.66 14.3902 12.66 14.3902C12.79 14.3902 12.88 14.3902 12.94 14.4102C13.22 14.5002 13.44 14.7702 13.44 15.0702ZM21.84 8.9802C21.84 9.0202 21.84 12.2902 21.84 13.3502C21.84 13.7102 21.84 13.9302 21.78 14.1602C21.57 15.1002 20.72 15.8102 19.71 15.8102C19.14 15.8102 18.62 15.5902 18.24 15.2202C17.86 15.5902 17.34 15.8102 16.77 15.8102C15.76 15.8102 14.91 15.1102 14.7 14.1602C14.65 13.9302 14.65 13.7102 14.65 13.3502C14.65 12.2902 14.65 9.0202 14.65 8.9802C14.65 8.8502 14.65 8.7602 14.66 8.7002C14.73 8.4202 15 8.2002 15.3 8.2002C15.62 8.2002 15.87 8.4202 15.94 8.7002C15.96 8.7602 15.96 8.8602 15.96 8.9802C15.96 9.0202 15.96 12.6202 15.96 13.4902C15.96 13.6702 15.96 13.7702 15.98 13.8702C16.06 14.2302 16.39 14.4902 16.77 14.4902C17.15 14.4902 17.47 14.2302 17.56 13.8702C17.58 13.7802 17.58 13.6702 17.58 13.4902C17.58 12.6202 17.58 9.0202 17.58 8.9802C17.58 8.8502 17.58 8.7602 17.6 8.7002C17.67 8.4202 17.94 8.2002 18.24 8.2002C18.56 8.2002 18.81 8.4202 18.88 8.7002C18.9 8.7602 18.9 8.8602 18.9 8.9802C18.9 8.9802 18.9 9.0202 18.9 13.4902C18.9 13.6702 18.9 13.7702 18.92 13.8702C19 14.2302 19.33 14.4902 19.71 14.4902C20.09 14.4902 20.41 14.2302 20.5 13.8702C20.52 13.7802 20.52 13.6702 20.52 13.4902C20.52 12.6202 20.52 9.0202 20.52 8.9802C20.52 8.8502 20.52 8.7602 20.54 8.7002C20.61 8.4202 20.87 8.2002 21.18 8.2002C21.48 8.2002 21.75 8.4202 21.82 8.7002C21.84 8.7602 21.84 8.8602 21.84 8.9802Z" fill="black"/>
</svg>
