<svg width="24" height="24" viewBox="0 0 24 24" fill="none" xmlns="http://www.w3.org/2000/svg">
<path d="M19.8999 7.4H6.7999C5.7999 7.4 4.9999 6.6 4.9999 5.61V5.6C4.9999 5.12 5.1899 4.67 5.5299 4.33C5.8599 3.99 6.3099 3.8 6.7999 3.8H19.8999C20.3999 3.8 20.7999 3.4 20.7999 2.9C20.7999 2.4 20.3999 2 19.8999 2H6.7999C5.8299 2 4.9299 2.38 4.2499 3.06C3.5699 3.74 3.1899 4.64 3.1999 5.6V17.9C3.1999 20.05 4.9499 21.8 7.0999 21.8H18.8999C19.4099 21.8 19.8799 21.6 20.2399 21.24C20.5999 20.88 20.7999 20.4 20.7999 19.9V8.32C20.7999 8.31 20.7999 8.3 20.7999 8.3C20.7999 7.8 20.3999 7.4 19.8999 7.4ZM18.8999 20H7.0999C5.9399 20 4.9999 19.06 4.9999 17.9V8.7C5.5299 9.01 6.1399 9.2 6.7999 9.2H18.9999V19.9C18.9999 19.95 18.9499 20 18.8999 20ZM18.0999 6.5H7.0999C6.5999 6.5 6.1999 6.1 6.1999 5.6C6.1999 5.1 6.5999 4.7 7.0999 4.7H18.0999C18.5999 4.7 18.9999 5.1 18.9999 5.6C18.9999 6.1 18.5999 6.5 18.0999 6.5ZM8.6199 16.61C8.4599 16.61 8.2999 16.53 8.1999 16.39L7.0199 14.62V16.11C7.0199 16.39 6.7999 16.61 6.5199 16.61C6.2399 16.61 6.0199 16.39 6.0199 16.11V12.97C6.0199 12.75 6.1599 12.56 6.3699 12.49C6.5799 12.43 6.8099 12.51 6.9299 12.69L8.0999 14.45L8.0899 12.97C8.0899 12.69 8.3099 12.47 8.5899 12.47C8.8699 12.47 9.0899 12.69 9.0899 12.97L9.0999 16.11C9.0999 16.33 8.9599 16.53 8.7499 16.59C8.7199 16.6 8.6699 16.61 8.6199 16.61ZM16.8099 16.61C16.5899 16.61 16.3899 16.46 16.3299 16.25L15.9099 14.79L15.4899 16.25C15.4299 16.46 15.2299 16.61 15.0099 16.61C14.7899 16.61 14.5899 16.46 14.5299 16.25L13.6299 13.11C13.5499 12.84 13.7099 12.57 13.9699 12.49C14.2399 12.41 14.5099 12.57 14.5899 12.83L15.0099 14.29L15.4299 12.83C15.4899 12.62 15.6899 12.47 15.9099 12.47C16.1299 12.47 16.3299 12.62 16.3899 12.83L16.8099 14.29L17.2299 12.83C17.3099 12.56 17.5799 12.41 17.8499 12.49C18.1199 12.57 18.2699 12.84 18.1899 13.11L17.2899 16.25C17.2299 16.46 17.0299 16.61 16.8099 16.61ZM13.2399 16.11C13.2399 16.39 13.0199 16.61 12.7399 16.61H10.4199C10.1399 16.61 9.9199 16.39 9.9199 16.11V12.97C9.9199 12.69 10.1399 12.47 10.4199 12.47H12.7399C13.0199 12.47 13.2399 12.69 13.2399 12.97C13.2399 13.25 13.0199 13.47 12.7399 13.47H10.9199V14.04H12.4899C12.7699 14.04 12.9899 14.26 12.9899 14.54C12.9899 14.82 12.7699 15.04 12.4899 15.04H10.9199V15.61H12.7399C13.0199 15.61 13.2399 15.83 13.2399 16.11Z" fill="black"/>
</svg>
