<svg width="24" height="24" viewBox="0 0 24 24" fill="none" xmlns="http://www.w3.org/2000/svg">
<path d="M18.1 6.5H7.09995C6.59995 6.5 6.19995 6.1 6.19995 5.6C6.19995 5.1 6.59995 4.7 7.09995 4.7H18.1C18.6 4.7 19 5.1 19 5.6C19 6.1 18.6 6.5 18.1 6.5ZM20.7999 8.3C20.7999 8.33 20.7999 8.36 20.7999 8.39V19.9C20.7999 20.41 20.6 20.88 20.24 21.24C19.8799 21.6 19.4 21.8 18.9 21.8H6.79995C4.80995 21.8 3.19995 20.18 3.19995 18.2V5.66C3.19995 5.64 3.19995 5.62 3.19995 5.6C3.19995 4.64 3.56995 3.73 4.24995 3.05C4.92995 2.38 5.82995 2 6.79995 2H19.9C20.4 2 20.7999 2.4 20.7999 2.9C20.7999 3.4 20.4 3.8 19.9 3.8H6.79995C6.31995 3.8 5.86995 3.99 5.52995 4.33C5.17995 4.67 4.99995 5.12 4.99995 5.6V5.61C4.99995 5.68 5.00995 5.75 5.01995 5.82C5.02995 5.87 5.02995 5.93 5.03995 5.98C5.04995 6.04 5.07995 6.11 5.09995 6.17C5.11995 6.22 5.12995 6.27 5.14995 6.31C5.17995 6.37 5.20995 6.43 5.24995 6.49C5.26995 6.53 5.28995 6.58 5.31995 6.62C5.35995 6.68 5.39995 6.72 5.44995 6.77C5.46995 6.8 5.49995 6.84 5.52995 6.88C5.57995 6.93 5.62995 6.97 5.68995 7.01C5.71995 7.04 5.75995 7.07 5.79995 7.1C5.85995 7.14 5.91995 7.17 5.97995 7.2C6.01995 7.22 6.05995 7.24 6.09995 7.26C6.16995 7.29 6.24995 7.31 6.32995 7.33C6.35995 7.34 6.39995 7.36 6.43995 7.36C6.54995 7.39 6.66995 7.4 6.79995 7.4H19.9C20.4 7.4 20.7999 7.8 20.7999 8.3ZM9.06995 16.1L9.05995 12.96C9.05995 12.71 8.85995 12.51 8.60995 12.51C8.35995 12.51 8.15995 12.71 8.15995 12.96L8.16995 14.6L6.89995 12.7C6.78995 12.53 6.58995 12.46 6.39995 12.52C6.20995 12.58 6.07995 12.75 6.07995 12.95V16.09C6.07995 16.34 6.27995 16.54 6.52995 16.54C6.77995 16.54 6.97995 16.34 6.97995 16.09V14.43L8.24995 16.34C8.32995 16.47 8.47995 16.54 8.61995 16.54C8.65995 16.54 8.70995 16.53 8.74995 16.52C8.93995 16.48 9.06995 16.3 9.06995 16.1ZM10.87 14.09V13.42H12.74C12.99 13.42 13.19 13.22 13.19 12.97C13.19 12.72 12.99 12.52 12.74 12.52H10.42C10.17 12.52 9.96995 12.72 9.96995 12.97V16.11C9.96995 16.36 10.17 16.56 10.42 16.56H12.74C12.99 16.56 13.19 16.36 13.19 16.11C13.19 15.86 12.99 15.66 12.74 15.66H10.87V14.99H12.49C12.74 14.99 12.94 14.79 12.94 14.54C12.94 14.29 12.74 14.09 12.49 14.09H10.87ZM17.83 12.54C17.59 12.47 17.34 12.61 17.27 12.85L16.8 14.48L16.34 12.85C16.28 12.66 16.11 12.52 15.91 12.52C15.71 12.52 15.53 12.65 15.48 12.85L15.01 14.48L14.55 12.85C14.48 12.61 14.23 12.47 13.99 12.54C13.75 12.61 13.61 12.86 13.68 13.1L14.58 16.24C14.64 16.43 14.81 16.57 15.01 16.57C15.21 16.57 15.39 16.44 15.44 16.24L15.91 14.61L16.37 16.24C16.43 16.43 16.6 16.57 16.8 16.57C17 16.57 17.18 16.44 17.23 16.24L18.13 13.1C18.2 12.85 18.07 12.6 17.83 12.54Z" fill="black"/>
</svg>
