<svg width="24" height="24" viewBox="0 0 24 24" fill="none" xmlns="http://www.w3.org/2000/svg">
<path d="M19.5 3H8C6.9 3 6 3.9 6 5V6H4.5C3.4 6 2.5 6.9 2.5 8V16.5C2.5 18.98 4.52 21 7 21H17C19.48 21 21.5 18.98 21.5 16.5V5C21.5 3.9 20.6 3 19.5 3ZM19.5 16.5C19.5 17.88 18.38 19 17 19H7C5.62 19 4.5 17.88 4.5 16.5V8H6V16C6 16.55 6.45 17 7 17C7.55 17 8 16.55 8 16V5H19.5V16.5ZM9.82 10.4V6.9C9.82 6.62 10.04 6.4 10.32 6.4H17.6C17.88 6.4 18.1 6.62 18.1 6.9V10.4C18.1 10.68 17.88 10.9 17.6 10.9H10.32C10.04 10.9 9.82 10.67 9.82 10.4ZM18.14 13.2V14.91C18.14 15.19 17.92 15.41 17.64 15.41H15.93C15.65 15.41 15.43 15.19 15.43 14.91V13.2C15.43 12.92 15.65 12.7 15.93 12.7H17.64C17.91 12.7 18.14 12.93 18.14 13.2ZM9.75 13.48C9.75 13.07 10.09 12.73 10.5 12.73H13.5C13.91 12.73 14.25 13.07 14.25 13.48C14.25 13.89 13.91 14.23 13.5 14.23H10.5C10.09 14.23 9.75 13.89 9.75 13.48ZM9.75 16.48C9.75 16.07 10.09 15.73 10.5 15.73H13.5C13.91 15.73 14.25 16.07 14.25 16.48C14.25 16.89 13.91 17.23 13.5 17.23H10.5C10.09 17.23 9.75 16.89 9.75 16.48Z" fill="black"/>
</svg>
