<svg width="24" height="24" viewBox="0 0 24 24" fill="none" xmlns="http://www.w3.org/2000/svg">
<path d="M7.53002 9.63977C7.53002 8.80977 8.20002 8.13977 9.03002 8.13977C9.86002 8.13977 10.53 8.80977 10.53 9.63977C10.53 10.4698 9.86002 11.1398 9.03002 11.1398C8.20002 11.1398 7.53002 10.4698 7.53002 9.63977ZM16.57 9.63977C16.57 8.80977 15.9 8.13977 15.07 8.13977C14.24 8.13977 13.57 8.80977 13.57 9.63977C13.57 10.4698 14.24 11.1398 15.07 11.1398C15.9 11.1398 16.57 10.4698 16.57 9.63977ZM7.49002 14.4598C8.34002 15.7998 10.2 17.0198 12.06 17.0198C13.92 17.0198 15.71 15.7998 16.61 14.4598C16.8 14.1798 16.66 13.7998 16.34 13.6998C15.46 13.4298 13.75 13.0098 12.06 13.0098C10.35 13.0098 8.63002 13.4298 7.76002 13.6998C7.44002 13.8098 7.31002 14.1798 7.49002 14.4598ZM12.02 19.9998C7.61002 19.9998 4.02002 16.4098 4.02002 11.9998C4.02002 7.58977 7.61002 3.99977 12.02 3.99977C16.43 3.99977 20.02 7.58977 20.02 11.9998C20.02 12.2998 20 12.5998 19.97 12.8998C19.91 13.4498 20.3 13.9398 20.85 14.0098C21.4 14.0698 21.89 13.6798 21.96 13.1298C22 12.7598 22.02 12.3898 22.02 12.0098C22.02 6.49977 17.53 2.00977 12.02 2.00977C6.51002 2.00977 2.02002 6.49977 2.02002 12.0098C2.02002 17.5198 6.51002 22.0098 12.02 22.0098C12.57 22.0098 13.02 21.5598 13.02 21.0098C13.02 20.4598 12.57 19.9998 12.02 19.9998ZM22.49 16.1598C22.1 15.7698 21.47 15.7698 21.08 16.1598L17.64 19.5998L15.81 18.0998C15.38 17.7498 14.75 17.8098 14.4 18.2398C14.05 18.6698 14.11 19.2998 14.54 19.6498L16.72 21.4298C17 21.6598 17.34 21.7698 17.67 21.7698C18.05 21.7698 18.44 21.6198 18.73 21.3298L22.49 17.5698C22.88 17.1898 22.88 16.5598 22.49 16.1598Z" fill="black"/>
</svg>
