<svg width="24" height="24" viewBox="0 0 24 24" fill="none" xmlns="http://www.w3.org/2000/svg">
<path d="M12 2C6.49 2 2 6.49 2 12C2 17.51 6.49 22 12 22C17.51 22 22 17.51 22 12C22 6.49 17.51 2 12 2ZM12 20C7.59 20 4 16.41 4 12C4 7.59 7.59 4 12 4C16.41 4 20 7.59 20 12C20 16.41 16.41 20 12 20ZM8.97 11.49C8.14 11.49 7.47 10.82 7.47 9.99C7.47 9.16 8.14 8.49 8.97 8.49C9.8 8.49 10.47 9.16 10.47 9.99C10.47 10.82 9.8 11.49 8.97 11.49ZM16.51 9.99C16.51 10.82 15.84 11.49 15.01 11.49C14.18 11.49 13.51 10.82 13.51 9.99C13.51 9.16 14.18 8.49 15.01 8.49C15.84 8.49 16.51 9.16 16.51 9.99ZM15.27 13.57C15.67 13.86 15.77 14.42 15.48 14.83C14.68 15.94 13.38 16.61 12.01 16.61C10.64 16.61 9.34 15.94 8.54 14.83C8.25 14.43 8.34 13.86 8.75 13.57C9.15 13.28 9.72 13.37 10.01 13.78C10.47 14.42 11.22 14.81 12.02 14.81C12.82 14.81 13.57 14.43 14.03 13.78C14.3 13.37 14.86 13.28 15.27 13.57Z" fill="black"/>
</svg>
