<svg width="24" height="24" viewBox="0 0 24 24" fill="none" xmlns="http://www.w3.org/2000/svg">
<path d="M20 13.7502V5.99023C20 3.78023 18.21 1.99023 16 1.99023H8C5.79 1.99023 4 3.78023 4 5.99023V17.9902C4 20.2002 5.79 21.9902 8 21.9902H11.76C12.81 21.9902 13.84 21.5602 14.59 20.8202L18.83 16.5802C19.57 15.8302 20 14.8002 20 13.7502ZM13.5 15.4902H17.09L13.5 19.0802V15.4902ZM18 13.4902H13.5C12.4 13.4902 11.5 14.3902 11.5 15.4902V19.9902H8C6.9 19.9902 6 19.0902 6 17.9902V5.99023C6 4.89023 6.9 3.99023 8 3.99023H16C17.1 3.99023 18 4.89023 18 5.99023V13.4902Z" fill="black"/>
</svg>
