<svg width="24" height="24" viewBox="0 0 24 24" fill="none" xmlns="http://www.w3.org/2000/svg">
<path d="M15 4H9C5.13 4 2 7.13 2 11C2 14.87 5.13 18 9 18H11.43L15.2 20.83C15.53 21.08 16 20.84 16 20.43V17.92C19.39 17.43 22 14.53 22 11C22 7.13 18.87 4 15 4ZM7.05 12.25C6.36 12.25 5.8 11.69 5.8 11C5.8 10.31 6.36 9.75 7.05 9.75C7.74 9.75 8.3 10.31 8.3 11C8.3 11.69 7.74 12.25 7.05 12.25ZM12.05 12.25C11.36 12.25 10.8 11.69 10.8 11C10.8 10.31 11.36 9.75 12.05 9.75C12.74 9.75 13.3 10.31 13.3 11C13.3 11.69 12.74 12.25 12.05 12.25ZM17 12.15C16.34 12.15 15.8 11.61 15.8 10.95C15.8 10.29 16.34 9.75 17 9.75C17.66 9.75 18.2 10.29 18.2 10.95C18.2 11.61 17.66 12.15 17 12.15Z" fill="black"/>
</svg>
