<svg width="24" height="24" viewBox="0 0 24 24" fill="none" xmlns="http://www.w3.org/2000/svg">
<path d="M14.7001 14.1998L12.2001 16.4998L12.9001 19.7998C13.1001 20.5998 12.2001 21.1998 11.5001 20.7998L8.60011 19.0998L5.70011 20.7998C5.00011 21.1998 4.10011 20.5998 4.30011 19.7998L5.00011 16.4998L2.50011 14.1998C1.90011 13.5998 2.20011 12.5998 3.00011 12.4998L6.40011 12.0998L7.80011 8.9998C8.00011 8.3998 9.00011 8.39981 9.40011 9.0998L10.8001 12.1998L14.2001 12.5998C15.0001 12.6998 15.3001 13.6998 14.7001 14.1998ZM17.9001 12.8998C18.4001 12.3998 19.1001 12.0998 19.8001 12.0998C20.4001 12.0998 20.8001 11.6998 20.8001 11.0998C20.8001 10.4998 20.4001 10.0998 19.8001 10.0998C18.6001 10.0998 17.4001 10.5998 16.5001 11.4998C16.1001 11.8998 16.1001 12.4998 16.5001 12.8998C16.7001 13.0998 17.0001 13.1998 17.2001 13.1998C17.4001 13.1998 17.7001 13.0998 17.9001 12.8998ZM15.3001 10.2998C16.5001 9.0998 18.1001 8.3998 19.8001 8.3998C20.4001 8.3998 20.8001 7.9998 20.8001 7.39981C20.8001 6.79981 20.4001 6.3998 19.8001 6.3998C17.6001 6.3998 15.5001 7.2998 13.9001 8.7998C13.5001 9.1998 13.5001 9.7998 13.9001 10.1998C14.1001 10.3998 14.4001 10.4998 14.6001 10.4998C14.8001 10.4998 15.1001 10.4998 15.3001 10.2998ZM12.7001 7.6998C14.6001 5.7998 17.1001 4.7998 19.8001 4.7998C20.4001 4.7998 20.8001 4.3998 20.8001 3.7998C20.8001 3.1998 20.4001 2.7998 19.8001 2.7998C16.6001 2.7998 13.6001 3.9998 11.3001 6.2998C10.9001 6.69981 10.9001 7.2998 11.3001 7.6998C11.5001 7.8998 11.8001 7.9998 12.0001 7.9998C12.2001 7.9998 12.5001 7.8998 12.7001 7.6998Z" fill="black"/>
</svg>
