<svg width="24" height="24" viewBox="0 0 24 24" fill="none" xmlns="http://www.w3.org/2000/svg">
<path d="M11.9001 20.9998C11.6001 20.9998 11.3001 20.8998 11.0001 20.7998L9.20008 19.7998L7.40008 20.7998C6.80008 21.1998 6.00008 21.0998 5.40008 20.6998C4.80008 20.2998 4.50008 19.5998 4.70008 18.8998L5.10008 16.8998L3.60008 15.4998C3.10008 14.9998 2.90008 14.2998 3.10008 13.5998C3.30008 12.8998 3.90008 12.3998 4.60008 12.2998L6.70008 11.9998L7.60008 10.0998C7.80008 9.39981 8.50008 8.9998 9.20008 8.9998C9.90008 8.9998 10.6001 9.39981 10.9001 10.0998L11.8001 11.9998L13.8001 12.1998C14.5001 12.2998 15.1001 12.7998 15.3001 13.4998C15.5001 14.1998 15.3001 14.8998 14.8001 15.3998L13.3001 16.7998L13.7001 18.7998C13.8001 19.4998 13.6001 20.1998 13.0001 20.5998C12.6001 20.8998 12.3001 20.9998 11.9001 20.9998ZM9.20008 17.9998L11.7001 19.3998C11.9001 19.4998 12.0001 19.3998 12.1001 19.3998C12.2001 19.3998 12.3001 19.1998 12.2001 19.0998L11.6001 16.1998L13.8001 14.1998C13.9001 14.0998 13.9001 13.8998 13.9001 13.8998C13.9001 13.7998 13.8001 13.6998 13.6001 13.6998L10.7001 13.3998L9.50008 10.6998C9.40008 10.4998 9.30008 10.4998 9.20008 10.4998C9.10008 10.4998 9.00008 10.4998 8.90008 10.6998L7.70008 13.3998L4.80008 13.6998C4.60008 13.6998 4.50008 13.8998 4.50008 13.8998C4.50008 13.9998 4.50008 14.0998 4.60008 14.1998L6.80008 16.1998L6.20008 19.0998C6.20008 19.2998 6.30008 19.3998 6.30008 19.3998C6.40008 19.3998 6.50008 19.4998 6.70008 19.3998L9.20008 17.9998ZM17.9001 12.8998C18.4001 12.3998 19.1001 12.0998 19.8001 12.0998C20.4001 12.0998 20.8001 11.6998 20.8001 11.0998C20.8001 10.4998 20.4001 10.0998 19.8001 10.0998C18.6001 10.0998 17.4001 10.5998 16.5001 11.4998C16.1001 11.8998 16.1001 12.4998 16.5001 12.8998C16.7001 13.0998 17.0001 13.1998 17.2001 13.1998C17.4001 13.1998 17.7001 13.0998 17.9001 12.8998ZM15.3001 10.2998C16.5001 9.0998 18.1001 8.3998 19.8001 8.3998C20.4001 8.3998 20.8001 7.9998 20.8001 7.39981C20.8001 6.79981 20.4001 6.3998 19.8001 6.3998C17.6001 6.3998 15.5001 7.2998 13.9001 8.7998C13.5001 9.1998 13.5001 9.7998 13.9001 10.1998C14.1001 10.3998 14.4001 10.4998 14.6001 10.4998C14.8001 10.4998 15.1001 10.4998 15.3001 10.2998ZM12.7001 7.6998C14.6001 5.7998 17.1001 4.7998 19.8001 4.7998C20.4001 4.7998 20.8001 4.3998 20.8001 3.7998C20.8001 3.1998 20.4001 2.7998 19.8001 2.7998C16.6001 2.7998 13.6001 3.9998 11.3001 6.2998C10.9001 6.69981 10.9001 7.2998 11.3001 7.6998C11.5001 7.8998 11.8001 7.9998 12.0001 7.9998C12.2001 7.9998 12.5001 7.8998 12.7001 7.6998Z" fill="black"/>
</svg>
