<svg width="24" height="24" viewBox="0 0 24 24" fill="none" xmlns="http://www.w3.org/2000/svg">
<path fill-rule="evenodd" clip-rule="evenodd" d="M17.11 9.59C17.46 9.59 17.77 9.75 17.99 9.85C17.9 10.03 17.71 10.41 17.13 10.41C16.75 10.41 16.54 10.22 16.54 9.99C16.54 9.81 16.7 9.59 17.11 9.59ZM5.81999 9.92C5.81999 10.2 6.17999 10.39 6.39999 10.39C6.60999 10.39 6.60999 10.23 6.60999 9.95V9.06C6.47999 9.13 5.81999 9.53 5.81999 9.92ZM20.99 6V18C20.99 19.66 19.65 21 17.99 21H5.98999C4.32999 21 2.98999 19.66 2.98999 18V6C2.98999 4.34 4.32999 3 5.98999 3H17.99C19.65 3 20.99 4.34 20.99 6ZM9.65999 5.67C9.65999 5.88 9.81999 6.01 9.95999 6.13C10.21 6.34 10.39 6.48 10.64 6.76C10.95 7.1 11.05 7.21 11.26 7.21C11.59 7.21 11.88 6.94 11.88 6.6C11.88 6.35 11.74 6.16 11.23 5.7C10.93 5.44 10.54 5.09 10.24 5.09C9.98999 5.09 9.65999 5.33 9.65999 5.67ZM6.54999 6.98V7.81C5.14999 8.48 4.71999 9.24 4.71999 9.92C4.71999 11 5.85999 11.55 6.59999 11.55C6.73999 11.55 7.37999 11.52 7.63999 10.97C7.77999 10.68 7.80999 10.4 7.80999 9.84V8.53C8.20999 8.4 8.56999 8.3 9.01999 8.3C10.18 8.3 10.31 9.01 10.31 9.31C10.31 9.54 10.2 10.17 9.48999 10.17C9.42999 10.17 9.14999 10.14 9.08999 10.14C8.82999 10.14 8.62999 10.41 8.62999 10.75C8.62999 11.33 9.10999 11.42 9.53999 11.42C10.78 11.42 11.59 10.52 11.59 9.33C11.59 8.38 11.03 7.16 9.19999 7.16C8.60999 7.16 8.14999 7.27 7.79999 7.38V6.87C9.12999 6.74 9.32999 6.6 9.32999 6.15C9.32999 5.96 9.23999 5.54 8.78999 5.54C8.64999 5.54 7.94999 5.66 7.79999 5.68V5.07C7.79999 4.86 7.79999 4.42 7.16999 4.42C6.54999 4.42 6.54999 4.86 6.54999 5.07V5.77C6.37999 5.77 5.52999 5.78 5.44999 5.79C5.09999 5.81 4.91999 6.01 4.91999 6.37C4.91999 7 5.33999 7 5.76999 7C5.99999 7 6.05999 7 6.54999 6.98ZM10.9 13.95C10.9 13.76 10.31 12.63 10.07 12.55C10.03 12.53 10.01 12.53 9.97999 12.53C9.71999 12.53 9.54999 12.73 9.54999 12.87C9.54999 12.97 9.60999 13.07 9.64999 13.12C9.82999 13.38 9.97999 13.6 10.14 13.97C10.23 14.16 10.29 14.31 10.51 14.31C10.71 14.32 10.9 14.15 10.9 13.95ZM10.04 14.76C8.17999 14.76 8.01999 14.97 8.01999 15.42C8.01999 15.54 8.01999 16 8.50999 16C8.56999 16 8.58999 16 8.81999 15.98C9.10999 15.95 9.37999 15.93 9.83999 15.93C10.02 15.93 10.99 15.99 11 15.99C11.52 15.99 11.52 15.46 11.52 15.41C11.51 14.79 11.02 14.76 10.04 14.76ZM6.48999 18.08C6.97999 16.75 7.12999 16.17 7.50999 14.71C8.10999 14.65 8.80999 14.53 9.08999 14.45C9.30999 14.39 9.46999 14.24 9.46999 13.94C9.46999 13.62 9.30999 13.33 8.92999 13.33C8.81999 13.33 7.96999 13.48 7.78999 13.5C7.88999 13.04 7.88999 13 7.88999 12.84C7.88999 12.46 7.44999 12.36 7.22999 12.36C6.81999 12.36 6.68999 12.57 6.62999 12.82C6.60999 12.93 6.49999 13.48 6.47999 13.61C6.29999 13.62 5.69999 13.62 5.46999 13.62C5.27999 13.62 4.80999 13.62 4.80999 14.24C4.80999 14.83 5.22999 14.83 5.62999 14.83C5.72999 14.83 5.90999 14.83 6.19999 14.81C6.17999 14.85 5.73999 16.63 5.04999 18.16C4.84999 18.59 4.82999 18.64 4.82999 18.79C4.82999 19.17 5.24999 19.36 5.56999 19.36C5.96999 19.37 6.08999 19.18 6.48999 18.08ZM11.67 18.75C11.67 18.51 11.58 18.16 11.12 18.16C11.06 18.16 10.94 18.18 10.86 18.18C10.6 18.2 10.24 18.25 9.72999 18.25C8.52999 18.25 8.42999 17.98 8.42999 17.78C8.42999 17.66 8.48999 17.59 8.54999 17.48C8.61999 17.38 8.64999 17.32 8.64999 17.24C8.64999 16.98 8.32999 16.86 8.06999 16.86C7.48999 16.86 7.20999 17.69 7.20999 18.05C7.20999 19.43 8.94999 19.43 9.73999 19.43C11.33 19.45 11.67 19.36 11.67 18.75ZM12.02 13.58C12.02 13.37 11.42 12.25 11.19 12.17C11.15 12.15 11.13 12.15 11.1 12.15C10.84 12.15 10.67 12.36 10.67 12.5C10.67 12.6 10.73 12.69 10.77 12.74C10.94 12.99 11.08 13.2 11.26 13.59C11.36 13.82 11.41 13.93 11.63 13.93C11.85 13.93 12.02 13.77 12.02 13.58ZM15.01 17.33C15.07 17.13 15.24 16.6 15.58 15.96C15.83 15.5 15.85 15.45 15.85 15.34C15.85 15.07 15.57 14.91 15.38 14.91C15.12 14.91 15.05 15.07 14.75 15.7C14.75 15.08 14.77 14.74 14.85 14.15C14.87 14.01 14.99 13.29 14.99 13.13C14.99 12.81 14.66 12.64 14.3 12.64C13.89 12.64 13.77 12.86 13.72 13.1C13.64 13.48 13.54 14.36 13.54 15.36C13.54 16.35 13.68 17.17 13.76 17.46C13.83 17.69 13.95 17.92 14.4 17.92C14.82 17.93 14.9 17.68 15.01 17.33ZM18.86 15.35C18.86 15.08 18.84 13.95 18.77 13.25C18.73 12.85 18.63 12.57 18.07 12.57C17.95 12.57 17.44 12.61 17.44 13.14C17.44 13.2 17.46 13.4 17.49 13.84C17.52 14.26 17.55 14.95 17.55 15.26C17.55 16.61 17.34 17.59 16.08 18.37C15.74 18.58 15.57 18.69 15.57 18.99C15.57 19.21 15.76 19.66 16.26 19.66C16.36 19.66 16.57 19.66 17.13 19.26C18.37 18.38 18.86 17.38 18.86 15.35ZM19.97 10.1C19.97 9.75 19.75 9.6 19.39 9.34C19.42 9.08 19.45 8.88 19.45 8.46C19.45 7.85 19.45 5.48 17.29 5.48C16.47 5.48 15.87 5.84 15.19 6.46C15.2 6.26 15.23 5.25 15.23 5.03C15.23 4.57 14.89 4.51 14.64 4.51C14.22 4.51 14.08 4.75 14.07 5.25L14.06 6C13.9 6.02 13.12 6.09 13.06 6.1C12.8 6.16 12.68 6.4 12.68 6.68C12.68 6.8 12.68 7.31 13.28 7.31C13.47 7.31 13.86 7.25 14.05 7.22L14.04 7.65C13.94 7.79 13.83 7.95 12.86 9.36C12.58 9.77 12.56 9.81 12.56 9.98C12.56 10.33 12.89 10.6 13.2 10.6C13.44 10.6 13.55 10.42 13.63 10.3C13.69 10.2 13.95 9.73 14.01 9.63L13.99 10.91C13.98 11.24 13.97 11.65 14.57 11.65C15.14 11.65 15.15 11.23 15.15 10.98C15.15 10.55 15.14 8.45 15.15 7.98C15.88 7.12 16.52 6.65 17.17 6.65C18.06 6.65 18.2 7.61 18.2 8.25C18.2 8.31 18.18 8.64 18.18 8.72C17.84 8.59 17.63 8.52 17.19 8.52C16.17 8.52 15.52 9.17 15.52 9.99C15.52 10.92 16.27 11.45 17.18 11.45C17.48 11.45 18.01 11.39 18.5 10.99C18.57 10.93 18.87 10.6 18.95 10.52C19.17 10.7 19.24 10.76 19.41 10.76C19.71 10.77 19.97 10.44 19.97 10.1Z" fill="black"/>
</svg>
