<svg width="24" height="24" viewBox="0 0 24 24" fill="none" xmlns="http://www.w3.org/2000/svg">
<path d="M3 7.47021C3 6.92021 3.45 6.47021 4 6.47021H16C16.55 6.47021 17 6.92021 17 7.47021C17 8.02021 16.55 8.47022 16 8.47022H4C3.45 8.47022 3 8.03021 3 7.47021ZM4 13.1302H16C16.55 13.1302 17 12.6802 17 12.1302C17 11.5802 16.55 11.1302 16 11.1302H4C3.45 11.1302 3 11.5802 3 12.1302C3 12.6802 3.45 13.1302 4 13.1302ZM20.91 14.2102C20.52 13.8202 19.89 13.8202 19.5 14.2102L14.62 19.0902L12.26 16.7402C11.87 16.3502 11.24 16.3502 10.85 16.7402C10.46 17.1302 10.46 17.7602 10.85 18.1502L13.91 21.2002C14.11 21.4002 14.36 21.4902 14.62 21.4902C14.88 21.4902 15.13 21.3902 15.33 21.2002L20.92 15.6102C21.3 15.2302 21.3 14.6002 20.91 14.2102ZM7.61 15.7902H4C3.45 15.7902 3 16.2402 3 16.7902C3 17.3402 3.45 17.7902 4 17.7902H7.61C8.16 17.7902 8.61 17.3402 8.61 16.7902C8.61 16.2402 8.16 15.7902 7.61 15.7902Z" fill="black"/>
</svg>
