<svg width="24" height="24" viewBox="0 0 24 24" fill="none" xmlns="http://www.w3.org/2000/svg">
<path d="M18 3H9.5C7.85 3 6.5 4.35 6.5 6V6.5H6C4.35 6.5 3 7.85 3 9.5V18C3 19.65 4.35 21 6 21H14.5C16.15 21 17.5 19.65 17.5 18V17.5H18C19.65 17.5 21 16.15 21 14.5V6C21 4.35 19.65 3 18 3ZM15.5 18C15.5 18.55 15.05 19 14.5 19H6C5.45 19 5 18.55 5 18V9.5C5 8.95 5.45 8.5 6 8.5H6.5V14.5C6.5 16.15 7.85 17.5 9.5 17.5H15.5V18ZM19 14.5C19 15.05 18.55 15.5 18 15.5H9.5C8.95 15.5 8.5 15.05 8.5 14.5V6C8.5 5.45 8.95 5 9.5 5H18C18.55 5 19 5.45 19 6V14.5ZM17.25 8.25V12.75C17.25 13.3 16.8 13.75 16.25 13.75C15.7 13.75 15.25 13.3 15.25 12.75V10.16L12.05 13.36C11.85 13.56 11.6 13.65 11.34 13.65C11.08 13.65 10.83 13.55 10.63 13.36C10.24 12.97 10.24 12.34 10.63 11.95L13.83 8.75H11.24C10.69 8.75 10.24 8.3 10.24 7.75C10.24 7.2 10.69 6.75 11.24 6.75H15.74C16.58 6.75 17.25 7.42 17.25 8.25Z" fill="black"/>
</svg>
