<svg width="24" height="24" viewBox="0 0 24 24" fill="none" xmlns="http://www.w3.org/2000/svg">
<path d="M10 18H16.5V18.5C16.5 19.88 15.38 21 14 21H5.5C4.12 21 3 19.88 3 18.5V10C3 8.62 4.12 7.5 5.5 7.5H6V14C6 16.21 7.79 18 10 18ZM10.75 7.25C10.75 6.7 11.2 6.25 11.75 6.25H15.75C16.85 6.25 17.75 7.15 17.75 8.25V12.25C17.75 12.8 17.3 13.25 16.75 13.25C16.66 13.25 16.58 13.22 16.5 13.2V16.5H18.5C19.88 16.5 21 15.38 21 14V5.5C21 4.12 19.88 3 18.5 3H10C8.62 3 7.5 4.12 7.5 5.5V7.5H10.8C10.78 7.42 10.75 7.34 10.75 7.25ZM10 16.5H16.5V13.2C16.07 13.09 15.75 12.71 15.75 12.25V9.66L12.55 12.86C12.35 13.06 12.1 13.15 11.84 13.15C11.58 13.15 11.33 13.05 11.13 12.86C10.74 12.47 10.74 11.84 11.13 11.45L14.33 8.25H11.74C11.28 8.25 10.9 7.93 10.79 7.5H7.5V14C7.5 15.38 8.62 16.5 10 16.5Z" fill="black"/>
</svg>
