<svg width="24" height="24" viewBox="0 0 24 24" fill="none" xmlns="http://www.w3.org/2000/svg">
<path d="M19.44 5.85979C18.3 3.75979 15.82 2.52979 13.17 2.52979C9.71997 2.52979 7.34997 3.86979 5.29997 6.47979C4.20997 7.85979 2.67997 11.7098 4.58997 11.7098C5.00997 11.7098 5.18997 10.8598 5.27997 10.6098C5.64997 9.60979 5.81997 9.08979 6.17997 8.44979C6.96997 7.07979 8.01997 6.32979 9.27997 5.53979C10.74 4.62979 12.55 4.28979 14.32 4.65979C15.78 4.95978 16.84 6.29978 17.15 7.46978C17.92 10.3598 17.09 13.4598 15.53 16.0698C14.99 16.9798 14.15 18.2198 12.85 18.4198C11.2 18.6798 10.66 17.3998 10.52 16.2998C10.1 13.0098 11.12 9.42978 13.21 6.71978C13.58 6.23978 13.17 5.57978 12.46 5.73978C11.79 5.88979 11.19 6.23979 10.67 6.62979C9.35997 7.60979 8.60997 8.97978 8.04997 10.3598C7.02997 12.9198 6.40997 16.7198 8.46997 19.0198C10.22 20.9698 13.46 20.8498 15.55 19.4598C18 17.8298 19.33 15.0098 19.96 12.4298C20.49 10.3398 20.52 7.83979 19.44 5.85979Z" fill="black"/>
</svg>
