<svg width="24" height="24" viewBox="0 0 24 24" fill="none" xmlns="http://www.w3.org/2000/svg">
<path d="M18.06 6.02004L14.06 3.61004C12.79 2.85004 11.21 2.85004 9.94 3.61004L5.94 6.02004C4.74 6.74004 4 8.04004 4 9.45004V14.55C4 15.95 4.74 17.25 5.94 17.98L9.94 20.39C11.21 21.15 12.79 21.15 14.06 20.39L18.06 17.98C19.26 17.26 20 15.96 20 14.55V9.45004C20 8.05004 19.26 6.75004 18.06 6.02004ZM16.29 10.47L11.85 14.91C11.62 15.14 11.32 15.26 11.01 15.26C10.74 15.26 10.48 15.17 10.26 14.99L7.98 13.12C7.68 12.87 7.63 12.42 7.88 12.12C8.13 11.82 8.58 11.77 8.88 12.02L10.99 13.75L15.28 9.46004C15.56 9.18004 16.01 9.18004 16.29 9.46004C16.57 9.74004 16.57 10.19 16.29 10.47Z" fill="black"/>
</svg>
