<svg width="24" height="24" viewBox="0 0 24 24" fill="none" xmlns="http://www.w3.org/2000/svg">
<path d="M18.06 6.06984L14.06 3.65984C12.79 2.89984 11.21 2.89984 9.94 3.65984L5.94 6.06984C4.74 6.78984 4 8.08984 4 9.49984V14.5998C4 15.9998 4.74 17.2998 5.94 18.0298L9.94 20.4398C11.21 21.1998 12.79 21.1998 14.06 20.4398L18.06 18.0298C19.26 17.3098 20 16.0098 20 14.5998V9.49984C20 8.09984 19.26 6.79984 18.06 6.06984ZM16.46 10.8298L11.93 15.3598C11.64 15.6498 11.26 15.7998 10.88 15.7998C10.55 15.7998 10.22 15.6898 9.94 15.4598L7.62 13.5598C7.19 13.2098 7.13 12.5798 7.48 12.1498C7.83 11.7198 8.46 11.6598 8.89 12.0098L10.85 13.6098L15.05 9.40984C15.44 9.01984 16.07 9.01984 16.46 9.40984C16.85 9.79984 16.85 10.4298 16.46 10.8198V10.8298Z" fill="black"/>
</svg>
