<svg width="24" height="24" viewBox="0 0 24 24" fill="none" xmlns="http://www.w3.org/2000/svg">
<path fill-rule="evenodd" clip-rule="evenodd" d="M14.2695 10.2465C14.2695 11.0066 13.8613 11.6429 13.3826 11.8905C13.188 12.0143 12.9053 12.0143 12.5161 12.0143H10.2305V8.45983H12.5161C12.9053 8.45983 13.188 8.47857 13.3826 8.58361C13.8613 8.84997 14.2695 9.46905 14.2695 10.2465ZM20.9971 6.4063V15.6383C20.9971 16.7282 20.406 17.7324 19.4531 18.2613L13.4619 21.5868C12.5569 22.0892 11.4565 22.0895 10.5513 21.5875L4.552 18.261C3.59839 17.7323 3.00684 16.7278 3.00684 15.6374V6.40612C3.00684 5.00018 3.98315 3.78283 5.35547 3.47765C9.73169 2.50439 14.2683 2.5042 18.6445 3.47704L18.6479 3.47784C20.0205 3.78289 20.9971 5.0003 20.9971 6.4063ZM16.5 10.2465C16.5 8.47857 15.4028 6.86901 13.8613 6.39251C13.5066 6.26867 13.0466 6.24999 12.5161 6.24999H10.8159C10.5854 6.24999 10.3545 6.24999 10.1426 6.26867C8.99194 6.42706 8.19458 7.20592 8.03613 8.31872C8 8.51311 8 8.69018 8 8.90179V15.4241C8 15.6544 8 15.7955 8.03613 15.9193C8.15869 16.3958 8.58398 16.75 9.11597 16.75C9.62939 16.75 10.072 16.3958 10.196 15.9193C10.2305 15.7955 10.2305 15.6544 10.2305 15.4241V14.2414H12.5161C13.0466 14.2414 13.5066 14.2069 13.8613 14.1003C15.4028 13.6051 16.5 11.9971 16.5 10.2465Z" fill="black"/>
</svg>
