<svg width="24" height="24" viewBox="0 0 24 24" fill="none" xmlns="http://www.w3.org/2000/svg">
<path fill-rule="evenodd" clip-rule="evenodd" d="M15.56 4.50017C9.09003 2.72017 3.06003 6.62017 2.17003 10.8602C0.610035 18.3402 9.76003 21.3502 15.34 19.3402C18.35 18.2202 18.35 15.9902 17.35 14.8802C16.23 13.6502 16.68 11.4202 18.8 12.2002C20.92 12.9802 21.59 12.4202 21.92 11.4202C22.48 9.41017 19.91 5.62017 15.56 4.50017ZM6.02003 15.4802C5.29003 15.4802 4.69003 14.8902 4.69003 14.1502C4.69003 13.4202 5.28003 12.8202 6.02003 12.8202C6.76003 12.8202 7.35003 13.4102 7.35003 14.1502C7.35003 14.8902 6.75003 15.4802 6.02003 15.4802ZM6.91003 11.6902C6.18003 11.6902 5.58003 11.1002 5.58003 10.3602C5.58003 9.63017 6.17003 9.03017 6.91003 9.03017C7.64003 9.03017 8.24003 9.62017 8.24003 10.3602C8.24003 11.0902 7.64003 11.6902 6.91003 11.6902ZM10.05 9.45017C9.32003 9.45017 8.72003 8.86017 8.72003 8.12017C8.72003 7.39017 9.31003 6.79017 10.05 6.79017C10.78 6.79017 11.38 7.38017 11.38 8.12017C11.37 8.86017 10.78 9.45017 10.05 9.45017ZM13.97 9.12017C13.24 9.12017 12.64 8.53017 12.64 7.79017C12.64 7.06017 13.23 6.46017 13.97 6.46017C14.7 6.46017 15.3 7.05017 15.3 7.79017C15.29 8.53017 14.7 9.12017 13.97 9.12017Z" fill="black"/>
</svg>
