<svg width="24" height="24" viewBox="0 0 24 24" fill="none" xmlns="http://www.w3.org/2000/svg">
<path d="M21.6 11.725C21.51 10.645 20.78 9.72498 19.81 9.24498L7.40996 3.03498C6.35996 2.50498 5.11996 2.73498 4.31996 3.61498C3.59996 4.40498 3.48996 5.57498 3.92996 6.54498L6.18996 11.575C6.30996 11.835 6.30996 12.135 6.18996 12.395L3.93996 17.425C3.47996 18.455 3.62996 19.695 4.43996 20.485C4.93996 20.975 5.58996 21.225 6.24996 21.225C6.64996 21.225 7.04996 21.135 7.41996 20.945L19.96 14.675C21.06 14.125 21.71 12.975 21.61 11.725H21.6ZM19.06 12.885L6.51996 19.155C6.17996 19.325 5.92996 19.135 5.83996 19.055C5.74996 18.965 5.54996 18.725 5.70996 18.375L8.11996 12.995H11.88C12.43 12.995 12.88 12.545 12.88 11.995C12.88 11.445 12.43 10.995 11.88 10.995H8.11996L5.70996 5.61498C5.54996 5.26498 5.74996 5.02498 5.83996 4.93498C5.89996 4.87498 6.04996 4.76498 6.24996 4.76498C6.32996 4.76498 6.42996 4.78498 6.52996 4.83498L19.08 11.105C19.43 11.275 19.63 11.615 19.63 11.995C19.63 12.385 19.42 12.715 19.08 12.885H19.06Z" fill="black"/>
</svg>
