<svg width="24" height="24" viewBox="0 0 24 24" fill="none" xmlns="http://www.w3.org/2000/svg">
<path d="M16.2 13.5C15.2 12.5 15.2 10.5 12.2 10.5C9.2 10.5 9.2 12.5 8.2 13.5C6.9 14.8 5.7 15.5 5.7 17C5.7 19 7.2 20 9.2 20C10.9 20 10.5 20 12.2 20C13.9 20 13.5 20 15.2 20C17.2 20 18.7 19 18.7 17C18.8 15.5 17.2 14.5 16.2 13.5Z" fill="black"/>
<path d="M9.4 7.5C10.6 7.5 11.5 6.5 11.5 5.4V5.1C11.5 4 10.5 3 9.4 3C8.3 3 7.2 4 7.2 5.1V5.3C7.2 6.5 8.2 7.5 9.4 7.5Z" fill="black"/>
<path d="M15.1 7.5C16.3 7.5 17.2 6.5 17.2 5.4V5.1C17.2 3.9 16.2 3 15.1 3C14 3 13 4 13 5.1V5.3C13 6.5 14 7.5 15.1 7.5Z" fill="black"/>
<path d="M7.2 10.4V10.1C7.2 9 6.3 8 5.1 8C4 8 3 9 3 10.1V10.3C3 11.5 4 12.4 5.1 12.4C6.3 12.5 7.2 11.5 7.2 10.4Z" fill="black"/>
<path d="M19.4 8C18.2 8 17.3 9 17.3 10.1V10.3C17.3 11.5 18.3 12.4 19.4 12.4C20.6 12.4 21.5 11.4 21.5 10.3V10.1C21.5 9 20.5 8 19.4 8Z" fill="black"/>
</svg>
