<svg width="24" height="24" viewBox="0 0 24 24" fill="none" xmlns="http://www.w3.org/2000/svg">
<path d="M17.12 11.48C17.3 11.66 17.3 11.96 17.12 12.14L9.78 19.49C9.65 19.62 9.48 19.71 9.3 19.76L4.16 20.99C3.49 21.15 2.88 20.54 3.04 19.87L4.27 14.72C4.31 14.54 4.4 14.38 4.54 14.24L11.88 6.89C12.06 6.71 12.35 6.71 12.54 6.89L17.12 11.48ZM20.73 7.21L16.8 3.27C16.44 2.91 15.85 2.91 15.49 3.27L13.85 4.91C13.67 5.09 13.67 5.39 13.85 5.57L18.44 10.17C18.62 10.35 18.91 10.35 19.1 10.17L20.74 8.53C21.09 8.16 21.09 7.57 20.73 7.21ZM4 8C4 8.55 4.45 9 5 9C5.55 9 6 8.55 6 8V6H8C8.55 6 9 5.55 9 5C9 4.45 8.55 4 8 4H6V2C6 1.45 5.55 1 5 1C4.45 1 4 1.45 4 2V4H2C1.45 4 1 4.45 1 5C1 5.55 1.45 6 2 6H4V8Z" fill="black"/>
</svg>
