<svg width="24" height="24" viewBox="0 0 24 24" fill="none" xmlns="http://www.w3.org/2000/svg">
<path d="M12 11C9.50005 11 7.50005 9 7.50005 6.5C7.50005 4 9.50005 2 12 2C14.5 2 16.5 4 16.5 6.5C16.5 9 14.5 11 12 11ZM12 4C10.6 4 9.50005 5.1 9.50005 6.5C9.50005 7.9 10.6 9 12 9C13.4 9 14.5 7.9 14.5 6.5C14.5 5.1 13.4 4 12 4ZM12 22.2C9.90005 22.2 7.80005 21.9 5.80005 21.4C4.90005 21.2 4.20005 20.6 3.80005 19.8C3.40005 19 3.40005 18.1 3.70005 17.3C4.60005 15.3 6.80005 11.9 12 11.9C17.2 11.9 19.4 15.3 20.3 17.3C20.6 18.1 20.6 19 20.2001 19.8C19.8001 20.6 19.1 21.2 18.2001 21.4C16.2001 22 14.1 22.2 12 22.2ZM12 14C8.10005 14 6.40005 16.3 5.60005 18.2C5.50005 18.5 5.50005 18.8 5.60005 19C5.70005 19.3 6.00005 19.5 6.30005 19.5C10.1 20.4 14.1 20.4 17.8 19.5C18.1 19.4 18.3 19.2 18.5 19C18.6 18.7 18.6 18.4 18.5 18.2C17.6 16.3 15.9 14 12 14Z" fill="black"/>
</svg>
