<svg width="24" height="24" viewBox="0 0 24 24" fill="none" xmlns="http://www.w3.org/2000/svg">
<path d="M8.58991 9.12979C8.58991 7.83979 9.63991 6.77979 10.9399 6.77979C12.2299 6.77979 13.2899 7.82979 13.2899 9.12979C13.2899 10.4198 12.2399 11.4798 10.9399 11.4798C9.64991 11.4798 8.58991 10.4298 8.58991 9.12979ZM10.9399 12.5198C8.29991 12.5198 6.99991 13.8798 6.48991 15.3798C6.29991 15.9398 6.62991 16.5398 7.19991 16.6998C9.63991 17.3898 12.2299 17.3898 14.6699 16.6998C15.2399 16.5398 15.5699 15.9398 15.3799 15.3798C14.8799 13.8798 13.5799 12.5198 10.9399 12.5198ZM17.6499 11.4798C18.9399 11.4798 19.9999 10.4298 19.9999 9.12979C19.9999 7.83979 18.9499 6.77979 17.6499 6.77979C16.3599 6.77979 15.2999 7.82979 15.2999 9.12979C15.3099 10.4298 16.3599 11.4798 17.6499 11.4798ZM22.0999 15.3798C21.5899 13.8898 20.2999 12.5198 17.6499 12.5198C16.9999 12.5198 16.4399 12.5998 15.9499 12.7498C16.8699 13.8698 17.4299 15.2898 17.4299 16.8498C17.4299 16.9698 17.4199 17.0898 17.4099 17.2098C18.7499 17.2298 20.0899 17.0698 21.3899 16.6998C21.9599 16.5398 22.2899 15.9398 22.0999 15.3798ZM6.62991 10.2798C6.42991 10.0898 6.11991 10.0998 5.91991 10.2998L3.69991 12.6298L2.64991 11.5298C2.45991 11.3298 2.13991 11.3198 1.93991 11.5098C1.73991 11.6998 1.72991 12.0198 1.91991 12.2198L3.33991 13.7098C3.42991 13.8098 3.56991 13.8698 3.69991 13.8698C3.83991 13.8698 3.96991 13.8098 4.05991 13.7098L6.63991 10.9898C6.83991 10.7898 6.82991 10.4698 6.62991 10.2798Z" fill="black"/>
</svg>
