<svg width="24" height="24" viewBox="0 0 24 24" fill="none" xmlns="http://www.w3.org/2000/svg">
<path d="M9.39005 8.9098C9.39005 7.4698 10.5601 6.2998 12.0001 6.2998C13.4401 6.2998 14.6101 7.4698 14.6101 8.9098C14.6101 10.3498 13.4401 11.5198 12.0001 11.5198C10.5601 11.5198 9.39005 10.3498 9.39005 8.9098ZM12.0001 12.4798C9.07005 12.4798 7.62005 13.9998 7.06005 15.6498C6.85005 16.2698 7.22005 16.9398 7.85005 17.1198C10.5601 17.8798 13.4401 17.8798 16.1501 17.1198C16.7801 16.9398 17.1501 16.2698 16.9401 15.6498C16.3801 13.9898 14.9301 12.4798 12.0001 12.4798ZM19.0001 11.2998C20.1501 11.2998 21.0901 10.3598 21.0901 9.2098C21.0901 8.0598 20.1501 7.1198 19.0001 7.1198C17.8501 7.1198 16.9101 8.0598 16.9101 9.2098C16.9101 10.3598 17.8501 11.2998 19.0001 11.2998ZM22.9501 14.5998C22.5001 13.2698 21.3501 12.0598 19.0001 12.0598C18.0001 12.0598 17.23 12.2898 16.63 12.6398C17.6301 13.5798 18.3401 14.8198 18.6201 16.2198C19.8701 16.2598 21.1201 16.1198 22.3301 15.7798C22.8301 15.6398 23.1201 15.0998 22.9501 14.5998ZM5.00005 11.2998C6.15005 11.2998 7.09005 10.3598 7.09005 9.2098C7.09005 8.0598 6.15005 7.1198 5.00005 7.1198C3.85005 7.1198 2.91005 8.0598 2.91005 9.2098C2.91005 10.3598 3.85005 11.2998 5.00005 11.2998ZM5.00005 12.0598C2.65005 12.0598 1.50005 13.2698 1.05005 14.5998C0.880051 15.0998 1.18005 15.6298 1.68005 15.7798C2.89005 16.1198 4.14005 16.2598 5.39005 16.2198C5.66005 14.8198 6.37005 13.5798 7.38005 12.6398C6.77005 12.2898 6.00005 12.0598 5.00005 12.0598Z" fill="black"/>
</svg>
