<svg width="24" height="24" viewBox="0 0 24 24" fill="none" xmlns="http://www.w3.org/2000/svg">
<path d="M12.0001 11C12.8901 11 13.76 10.7361 14.5001 10.2416C15.2401 9.74716 15.8169 9.0443 16.1575 8.22204C16.4981 7.39977 16.5873 6.49497 16.4136 5.62206C16.24 4.74915 15.8113 3.94732 15.1819 3.31798C14.5526 2.68865 13.7509 2.26011 12.878 2.08648C12.0051 1.91284 11.1002 2.00193 10.2779 2.34252C9.45562 2.68311 8.75282 3.25991 8.25835 3.99993C7.76389 4.73995 7.50005 5.60997 7.50005 6.49999C7.50269 7.69265 7.97776 8.83573 8.8211 9.67907C9.66444 10.5224 10.8074 10.9973 12.0001 11ZM12.0001 3.99999C12.4945 3.99999 12.9778 4.14661 13.389 4.42132C13.8001 4.69602 14.1206 5.08645 14.3099 5.54326C14.4991 6.00008 14.5484 6.50277 14.452 6.98772C14.3555 7.47267 14.1175 7.91812 13.7679 8.26775C13.4182 8.61738 12.9728 8.85549 12.4878 8.95196C12.0029 9.04842 11.5001 8.9989 11.0433 8.80968C10.5865 8.62046 10.1961 8.30003 9.92144 7.88891C9.64674 7.47778 9.50005 6.99444 9.50005 6.49999C9.50005 5.83695 9.76339 5.20107 10.2322 4.73223C10.7011 4.26339 11.337 3.99999 12.0001 3.99999ZM13.0501 22.2C12.7001 22.2 12.3501 22.2 12.0001 22.2C9.89316 22.1985 7.79431 21.9399 5.75005 21.43C5.33284 21.3209 4.94401 21.1231 4.61016 20.8501C4.27631 20.5771 4.0053 20.2354 3.81548 19.8481C3.62567 19.4609 3.5216 19.0373 3.51031 18.6062C3.49902 18.1751 3.58077 17.7466 3.75005 17.35C4.40624 15.7167 5.5511 14.3262 7.02788 13.3685C8.50466 12.4109 10.2412 11.9329 12.0001 12C12.936 11.995 13.8682 12.1195 14.7701 12.37C14.0193 12.7973 13.3628 13.3722 12.8401 14.06C12.5601 14.06 12.3001 14 12.0001 14C10.6225 13.926 9.25692 14.2894 8.09844 15.0384C6.93997 15.7873 6.04802 16.8835 5.5501 18.17C5.49068 18.3003 5.45977 18.4418 5.45977 18.585C5.45977 18.7282 5.49068 18.8697 5.5501 19C5.61466 19.1312 5.70706 19.2467 5.8211 19.3382C5.93513 19.4298 6.06794 19.4953 6.21001 19.53C8.06215 19.9875 9.96239 20.2224 11.8702 20.23C12.1427 20.9518 12.5423 21.6191 13.0501 22.2ZM18.0001 13C17.0111 13 16.0445 13.2932 15.2222 13.8426C14.4 14.392 13.7591 15.173 13.3807 16.0866C13.0022 17.0002 12.9033 18.0055 13.0962 18.9755C13.2892 19.9454 13.7651 20.8363 14.4644 21.5355C15.1637 22.2348 16.0548 22.711 17.0247 22.9039C17.9946 23.0968 18.9998 22.9978 19.9134 22.6194C20.827 22.2409 21.6079 21.6001 22.1573 20.7778C22.7067 19.9556 23.0001 18.9889 23.0001 18C23.0001 16.6739 22.4734 15.4022 21.5357 14.4645C20.598 13.5268 19.3261 13 18.0001 13ZM18.0001 14.5C18.6676 14.5014 19.3204 14.6959 19.8799 15.06L15.0601 19.88C14.696 19.3205 14.5014 18.6676 14.5001 18C14.5001 17.0717 14.8688 16.1815 15.5252 15.5251C16.1816 14.8688 17.0718 14.5 18.0001 14.5ZM18.0001 21.5C17.3325 21.4986 16.6797 21.3041 16.1202 20.94L20.94 16.12C21.3041 16.6795 21.4987 17.3324 21.5001 18C21.5001 18.9282 21.1313 19.8185 20.4749 20.4748C19.8185 21.1312 18.9283 21.5 18.0001 21.5Z" fill="black"/>
</svg>
