<svg width="24" height="24" viewBox="0 0 24 24" fill="none" xmlns="http://www.w3.org/2000/svg">
<path d="M8.62007 9.12979C8.62007 7.83979 9.67007 6.77979 10.9701 6.77979C12.2601 6.77979 13.3201 7.82979 13.3201 9.12979C13.3201 10.4198 12.2701 11.4798 10.9701 11.4798C9.68007 11.4798 8.62007 10.4298 8.62007 9.12979ZM10.9701 12.5198C8.33007 12.5198 7.03007 13.8798 6.52007 15.3798C6.33007 15.9398 6.66007 16.5398 7.23007 16.6998C9.67007 17.3898 12.2601 17.3898 14.7001 16.6998C15.2701 16.5398 15.6001 15.9398 15.4101 15.3798C14.9101 13.8798 13.6101 12.5198 10.9701 12.5198ZM17.6801 11.4798C18.9701 11.4798 20.0301 10.4298 20.0301 9.12979C20.0301 7.83979 18.9801 6.77979 17.6801 6.77979C16.3901 6.77979 15.3301 7.82979 15.3301 9.12979C15.3401 10.4298 16.3901 11.4798 17.6801 11.4798ZM22.1301 15.3798C21.6201 13.8898 20.3301 12.5198 17.6801 12.5198C17.0301 12.5198 16.4701 12.5998 15.9801 12.7498C16.9001 13.8698 17.4601 15.2898 17.4601 16.8498C17.4601 16.9698 17.4501 17.0898 17.4401 17.2098C18.7801 17.2298 20.1201 17.0698 21.4201 16.6998C21.9901 16.5398 22.3201 15.9398 22.1301 15.3798ZM6.82007 10.9898C6.82007 10.7098 6.60007 10.4898 6.32007 10.4898H4.82007V8.98978C4.82007 8.70978 4.60007 8.48978 4.32007 8.48978C4.04007 8.48978 3.82007 8.70978 3.82007 8.98978V10.4898H2.32007C2.04007 10.4898 1.82007 10.7098 1.82007 10.9898C1.82007 11.2698 2.04007 11.4898 2.32007 11.4898H3.82007V12.9898C3.82007 13.2698 4.04007 13.4898 4.32007 13.4898C4.60007 13.4898 4.82007 13.2698 4.82007 12.9898V11.4898H6.32007C6.59007 11.4898 6.82007 11.2698 6.82007 10.9898Z" fill="black"/>
</svg>
