<svg width="24" height="24" viewBox="0 0 24 24" fill="none" xmlns="http://www.w3.org/2000/svg">
<path d="M4.75993 8.33984C4.75993 6.68984 6.10993 5.33984 7.75993 5.33984C9.40993 5.33984 10.7599 6.68984 10.7599 8.33984C10.7599 9.98984 9.41993 11.3398 7.75993 11.3398C6.09993 11.3398 4.75993 9.98984 4.75993 8.33984ZM7.75993 12.6698C4.38993 12.6698 2.72993 14.4098 2.07993 16.3198C1.83993 17.0398 2.25993 17.8098 2.98993 18.0098C6.10993 18.8898 9.40993 18.8898 12.5299 18.0098C13.2599 17.7998 13.6799 17.0298 13.4399 16.3198C12.7899 14.4098 11.1299 12.6698 7.75993 12.6698ZM16.2599 11.3398C17.9099 11.3398 19.2599 9.99984 19.2599 8.33984C19.2599 6.68984 17.9199 5.33984 16.2599 5.33984C14.6099 5.33984 13.2599 6.68984 13.2599 8.33984C13.2599 9.98984 14.5999 11.3398 16.2599 11.3398ZM21.9399 16.3198C21.2899 14.4098 19.6299 12.6698 16.2599 12.6698C15.2699 12.6698 14.4399 12.8298 13.7299 13.0898C14.9899 14.4998 15.7599 16.3398 15.7599 18.3698C15.7599 18.4598 15.7499 18.5498 15.7499 18.6398C17.5299 18.6898 19.3099 18.4898 21.0399 17.9998C21.7599 17.8098 22.1799 17.0398 21.9399 16.3198Z" fill="black"/>
</svg>
