<svg width="24" height="24" viewBox="0 0 24 24" fill="none" xmlns="http://www.w3.org/2000/svg">
<path d="M3.44008 7.02019C3.50008 7.02019 3.57008 7.03019 3.66008 7.06019C3.75008 7.08019 3.84008 7.12019 3.93008 7.16019C4.02008 7.20019 4.10008 7.26019 4.16008 7.33019C4.22008 7.40019 4.25008 7.48019 4.25008 7.58019C4.25008 7.80019 4.17008 7.96019 4.00008 8.08019C3.83008 8.20019 3.70008 8.26019 3.60008 8.26019C3.49008 8.26019 3.38008 8.21019 3.26008 8.11019C3.14008 8.01019 3.08008 7.86019 3.08008 7.65019C3.08008 7.44019 3.12008 7.29019 3.19008 7.18019C3.26008 7.08019 3.34008 7.02019 3.44008 7.02019ZM5.89008 7.53019C6.13008 7.42019 6.42008 7.33019 6.77008 7.26019C7.12008 7.19019 7.48008 7.15019 7.86008 7.14019C8.24008 7.13019 8.61008 7.16019 8.98008 7.23019C9.35008 7.30019 9.67008 7.41019 9.95008 7.57019C10.2301 7.73019 10.4501 7.95019 10.6101 8.23019C10.7701 8.51019 10.8201 8.85019 10.7701 9.26019C10.7501 9.45019 10.6601 9.63019 10.5101 9.78019C10.3601 9.94019 10.1801 10.0802 9.96008 10.2102C9.74008 10.3402 9.51008 10.4702 9.27008 10.5802C9.02008 10.6902 8.80008 10.8102 8.59008 10.9302C8.38008 11.0502 8.20008 11.1702 8.05008 11.3002C7.90008 11.4302 7.82008 11.5702 7.81008 11.7202C7.75008 12.2602 7.73008 12.6602 7.76008 12.9302C7.78008 13.1902 7.83008 13.3902 7.89008 13.5102C7.95008 13.6402 8.02008 13.7302 8.11008 13.7802C8.20008 13.8302 8.28008 13.9202 8.36008 14.0302C8.44008 14.1402 8.51008 14.3202 8.57008 14.5702C8.63008 14.8202 8.66008 15.1902 8.66008 15.6902C8.66008 15.8902 8.58008 16.0702 8.41008 16.2202C8.24008 16.3702 8.04008 16.4902 7.81008 16.5702C7.58008 16.6502 7.33008 16.7102 7.06008 16.7202C6.79008 16.7302 6.57008 16.7202 6.38008 16.6602C6.18008 16.6002 5.98008 16.4202 5.80008 16.1102C5.62008 15.8002 5.46008 15.4402 5.31008 15.0302C5.17008 14.6202 5.04008 14.1802 4.93008 13.7302C4.82008 13.2802 4.73008 12.8702 4.66008 12.5102C4.58008 12.0802 4.50008 11.6202 4.43008 11.1402C4.36008 10.6602 4.35008 10.1902 4.39008 9.73019C4.44008 9.27019 4.57008 8.85019 4.80008 8.46019C5.00008 8.08019 5.37008 7.77019 5.89008 7.53019ZM5.02008 6.91019C4.92008 6.91019 4.79008 6.84019 4.63008 6.69019C4.47008 6.54019 4.39008 6.38019 4.39008 6.18019C4.39008 5.98019 4.48008 5.83019 4.67008 5.73019C4.86008 5.63019 5.00008 5.58019 5.11008 5.58019C5.22008 5.59019 5.34008 5.64019 5.49008 5.73019C5.63008 5.82019 5.71008 5.97019 5.71008 6.17019C5.71008 6.28019 5.68008 6.38019 5.63008 6.47019C5.58008 6.56019 5.51008 6.64019 5.44008 6.71019C5.36008 6.77019 5.29008 6.82019 5.21008 6.86019C5.13008 6.89019 5.07008 6.91019 5.02008 6.91019ZM7.38008 6.10019C7.18008 6.10019 6.99008 6.03019 6.83008 5.90019C6.67008 5.77019 6.59008 5.60019 6.59008 5.40019C6.59008 5.20019 6.65008 4.99019 6.76008 4.79019C6.87008 4.59019 7.03008 4.49019 7.24008 4.50019C7.44008 4.51019 7.58008 4.56019 7.64008 4.65019C7.69008 4.74019 7.75008 4.89019 7.81008 5.10019C7.91008 5.41019 7.91008 5.66019 7.82008 5.85019C7.73008 6.04019 7.58008 6.12019 7.38008 6.10019ZM9.47008 6.08019C9.26008 6.07019 9.09008 6.00019 8.94008 5.86019C8.79008 5.72019 8.71008 5.55019 8.71008 5.35019C8.72008 5.13019 8.81008 4.98019 8.97008 4.89019C9.13008 4.80019 9.32008 4.76019 9.52008 4.77019C9.72008 4.78019 9.86008 4.84019 9.94008 4.94019C10.0201 5.04019 10.0501 5.19019 10.0401 5.40019C10.0401 5.60019 10.0001 5.77019 9.91008 5.90019C9.82008 6.04019 9.67008 6.10019 9.47008 6.08019ZM11.3901 5.51019C11.5901 5.52019 11.7701 5.60019 11.9101 5.74019C12.0501 5.88019 12.1201 6.05019 12.1101 6.27019C12.1101 6.47019 12.0301 6.65019 11.8801 6.80019C11.7401 6.95019 11.5601 7.02019 11.3601 7.00019C11.1601 6.99019 10.9801 6.91019 10.8401 6.76019C10.7001 6.61019 10.6201 6.43019 10.6201 6.21019C10.6201 6.01019 10.7001 5.84019 10.8501 5.70019C11.0101 5.56019 11.1901 5.50019 11.3901 5.51019ZM13.4101 7.72019C13.6001 7.72019 13.7401 7.80019 13.8201 7.96019C13.9001 8.12019 13.9501 8.30019 13.9601 8.49019C13.9601 8.68019 13.9001 8.86019 13.7901 9.03019C13.6801 9.20019 13.5201 9.27019 13.3301 9.25019C13.1401 9.24019 12.9501 9.16019 12.7701 9.03019C12.5901 8.90019 12.5001 8.73019 12.5001 8.53019C12.5001 8.43019 12.5301 8.34019 12.5801 8.24019C12.6301 8.14019 12.7101 8.06019 12.8001 7.98019C12.8901 7.90019 12.9901 7.84019 13.0901 7.79019C13.2001 7.75019 13.3001 7.72019 13.4101 7.72019ZM18.7401 10.3302C19.2401 10.6102 19.6001 10.9502 19.8201 11.3502C20.0401 11.7502 20.1601 12.1802 20.2101 12.6402C20.2601 13.1002 20.2301 13.5602 20.1601 14.0202C20.0901 14.4802 20.0001 14.9002 19.9301 15.3002C19.8601 15.6202 19.7601 15.9902 19.6401 16.3902C19.5201 16.7902 19.3701 17.1702 19.2001 17.5202C19.0301 17.8702 18.8301 18.1802 18.6201 18.4302C18.4101 18.6802 18.1801 18.8302 17.9501 18.8602C17.5701 18.9202 17.2301 18.9102 16.9501 18.8402C16.6701 18.7702 16.4401 18.6602 16.2601 18.5202C16.0801 18.3802 15.9401 18.2002 15.8501 18.0102C15.7501 17.8102 15.7101 17.6202 15.7101 17.4302C15.7001 16.9602 15.7201 16.6202 15.7801 16.4002C15.8401 16.1802 15.9101 16.0302 16.0001 15.9402C16.0901 15.8502 16.1901 15.7902 16.2901 15.7602C16.3901 15.7302 16.4801 15.6602 16.5601 15.5502C16.6401 15.4402 16.6901 15.2702 16.7101 15.0302C16.7301 14.7902 16.7201 14.4202 16.6601 13.9102C16.6401 13.7102 16.4801 13.5102 16.2001 13.3102C15.9201 13.1102 15.6101 12.9102 15.2701 12.7002C14.9301 12.4902 14.6201 12.2702 14.3301 12.0402C14.0401 11.8102 13.8801 11.5702 13.8401 11.3002C13.7901 10.9602 13.8501 10.6902 14.0101 10.4802C14.1701 10.2702 14.3901 10.1102 14.6801 9.99019C14.9601 9.88019 15.2901 9.81019 15.6701 9.78019C16.0501 9.76019 16.4301 9.76019 16.8001 9.80019C17.1801 9.84019 17.5401 9.90019 17.8801 10.0002C18.2201 10.1102 18.5101 10.2102 18.7401 10.3302ZM15.4301 8.71019C15.2301 8.70019 15.0601 8.62019 14.9301 8.48019C14.8001 8.34019 14.7401 8.17019 14.7201 7.97019C14.7201 7.78019 14.7801 7.62019 14.9101 7.49019C15.0401 7.36019 15.2001 7.31019 15.4101 7.32019C15.6001 7.34019 15.7701 7.42019 15.9101 7.56019C16.0501 7.70019 16.1201 7.86019 16.1201 8.05019C16.1201 8.25019 16.0501 8.42019 15.9201 8.55019C15.7801 8.69019 15.6201 8.74019 15.4301 8.71019ZM17.5101 8.86019C17.3201 8.84019 17.1601 8.76019 17.0301 8.63019C16.9001 8.50019 16.8401 8.34019 16.8401 8.14019C16.8401 7.94019 16.9001 7.77019 17.0201 7.64019C17.1401 7.51019 17.3001 7.45019 17.5101 7.48019C17.7201 7.51019 17.8501 7.58019 17.9101 7.71019C17.9701 7.84019 18.0001 8.00019 18.0001 8.19019C18.0001 8.39019 17.9701 8.56019 17.9101 8.69019C17.8501 8.83019 17.7201 8.88019 17.5101 8.86019ZM19.3001 9.69019C19.2001 9.68019 19.1301 9.60019 19.0701 9.46019C19.0101 9.32019 18.9801 9.15019 18.9801 8.96019C18.9701 8.76019 19.0001 8.59019 19.0601 8.47019C19.1301 8.35019 19.2101 8.29019 19.3001 8.29019C19.4001 8.30019 19.5101 8.37019 19.6501 8.51019C19.7901 8.64019 19.8601 8.81019 19.8601 9.01019C19.8601 9.20019 19.7901 9.37019 19.6501 9.51019C19.5101 9.63019 19.3901 9.70019 19.3001 9.69019ZM20.7201 9.78019C20.8201 9.79019 20.9001 9.88019 20.9701 10.0302C21.0401 10.1902 21.0801 10.3602 21.0801 10.5502C21.0801 10.9802 20.9701 11.1902 20.7401 11.1802C20.6401 11.1702 20.5501 11.1002 20.4501 10.9702C20.3501 10.8402 20.3101 10.6902 20.3101 10.4902C20.3101 10.2902 20.3601 10.1102 20.4501 9.98019C20.5301 9.84019 20.6201 9.78019 20.7201 9.78019Z" fill="black"/>
</svg>
