<svg width="24" height="24" viewBox="0 0 24 24" fill="none" xmlns="http://www.w3.org/2000/svg">
<path fill-rule="evenodd" clip-rule="evenodd" d="M11.99 4.2002C8.34001 4.2002 5.34001 6.8902 5.04001 10.2902C5.02001 10.4102 5.01001 12.3502 5.01001 12.4802V18.6802C5.01001 19.9602 6.05001 21.0002 7.33001 21.0002C8.61001 21.0002 9.65001 19.9602 9.65001 18.6802V17.0702C10.38 17.3202 11.16 17.4602 11.98 17.4602C16.2 17.4602 18.97 14.5002 18.97 10.8502C18.98 7.1902 15.85 4.2002 11.99 4.2002ZM12 13.0002C10.77 13.0002 9.73001 12.0202 9.73001 10.8602C9.73001 9.6802 10.77 8.6802 12 8.6802C13.22 8.6802 14.28 9.7002 14.28 10.8602C14.28 12.0202 13.23 13.0002 12 13.0002Z" fill="black"/>
</svg>
