<svg width="24" height="24" viewBox="0 0 24 24" fill="none" xmlns="http://www.w3.org/2000/svg">
<path d="M19.0484 11.8498L18.3484 11.5498C17.9484 11.3498 17.5484 11.4498 17.2484 11.7498L14.7484 14.2498C14.1484 14.8498 14.0484 15.6498 14.3484 16.4498L14.9484 17.8498C15.1484 18.4498 15.0484 19.0498 14.6484 19.4498C14.0484 20.0498 13.0484 20.0498 12.4484 19.4498L4.44844 11.6498C3.84844 11.0498 3.84844 10.0498 4.44844 9.4498C4.94844 9.0498 5.54844 8.8498 6.14844 9.1498L7.54844 9.7498C8.34844 9.9498 9.14844 9.8498 9.74844 9.2498L12.2484 6.7498C12.5484 6.4498 12.6484 6.0498 12.4484 5.6498L12.1484 4.9498C11.9484 4.4498 12.0484 3.9498 12.4484 3.5498C12.9484 3.0498 13.7484 3.0498 14.2484 3.5498L14.8484 4.1498L17.3484 6.6498L20.4484 9.7498C20.9484 10.2498 20.9484 11.0498 20.4484 11.5498C20.1484 11.9498 19.5484 12.0498 19.0484 11.8498ZM6.84844 15.6498L3.44844 19.1498C3.04844 19.5498 3.04844 20.1498 3.44844 20.5498C3.64844 20.7498 3.94844 20.8498 4.14844 20.8498C4.34844 20.8498 4.64844 20.7498 4.84844 20.5498L8.34844 17.0498L6.84844 15.6498Z" fill="black"/>
</svg>
