<svg width="24" height="24" viewBox="0 0 24 24" fill="none" xmlns="http://www.w3.org/2000/svg">
<path d="M16.1 12.87L10.84 16.14C10.17 16.55 9.31 16.08 9.31 15.29V8.75002C9.31 7.97002 10.17 7.49002 10.84 7.90002L16.1 11.17C16.73 11.56 16.73 12.48 16.1 12.87ZM22 12.02C22 17.53 17.51 22.02 12 22.02C6.49 22.02 2 17.53 2 12.02C2 6.51002 6.49 2.02002 12 2.02002C17.51 2.02002 22 6.51002 22 12.02ZM20 12.02C20 7.61002 16.41 4.02002 12 4.02002C7.59 4.02002 4 7.61002 4 12.02C4 16.43 7.59 20.02 12 20.02C16.41 20.02 20 16.43 20 12.02Z" fill="black"/>
</svg>
