<svg width="24" height="24" viewBox="0 0 24 24" fill="none" xmlns="http://www.w3.org/2000/svg">
<path d="M12 2C6.5 2 2 6.5 2 12C2 17.5 6.5 22 12 22C17.5 22 22 17.5 22 12C22 6.5 17.5 2 12 2ZM12 20C7.6 20 4 16.4 4 12C4 7.6 7.6 4 12 4C16.4 4 20 7.6 20 12C20 16.4 16.4 20 12 20ZM17.4 12C17.4 12.6 17 13 16.4 13H13V16.4C13 17 12.6 17.4 12 17.4C11.4 17.4 11 17 11 16.4V13H7.6C7 13 6.6 12.6 6.6 12C6.6 11.4 7 11 7.6 11H11V7.6C11 7 11.4 6.6 12 6.6C12.6 6.6 13 7 13 7.6V11H16.4C16.9 11 17.4 11.4 17.4 12Z" fill="black"/>
</svg>
