<svg width="24" height="24" viewBox="0 0 24 24" fill="none" xmlns="http://www.w3.org/2000/svg">
<path fill-rule="evenodd" clip-rule="evenodd" d="M19 3H5.01001C3.91001 3 3.01001 3.9 3.01001 5V15.64C3.01001 16.73 3.60001 17.73 4.56001 18.26L10.56 21.59C11.47 22.09 12.57 22.09 13.47 21.59L19.46 18.26C20.41 17.73 21 16.73 21 15.64V5C21 3.9 20.1 3 19 3ZM16.74 10.9L14.62 12.94L15.19 15.87C15.27 16.29 14.81 16.62 14.44 16.39L12 14.94L9.56001 16.4C9.19001 16.62 8.73001 16.3 8.81001 15.88L9.38001 12.95L7.26001 10.9C6.96001 10.61 7.13001 10.09 7.55001 10.04L10.38 9.7L11.54 7.02C11.71 6.62 12.28 6.62 12.46 7.02L13.62 9.7L16.45 10.04C16.87 10.1 17.04 10.61 16.74 10.9Z" fill="black"/>
</svg>
