<svg width="24" height="24" viewBox="0 0 24 24" fill="none" xmlns="http://www.w3.org/2000/svg">
<path d="M18.39 7.44983C18.64 6.83983 18.71 6.15983 18.55 5.48983C18.29 4.31983 17.36 3.37983 16.2 3.09983C14.74 2.74983 13.29 3.38983 12.59 4.68983C12.59 4.69983 12.58 4.69983 12.58 4.70983L12.02 5.75983C12 5.79983 11.99 5.84983 11.97 5.88983C11.95 5.83983 11.94 5.79983 11.92 5.74983L11.36 4.69983C11.36 4.69983 11.35 4.68983 11.35 4.67983C10.65 3.37983 9.19996 2.73983 7.73996 3.08983C6.56996 3.36983 5.64996 4.30983 5.38996 5.47983C5.22996 6.15983 5.29996 6.82983 5.54996 7.44983C4.24996 7.52983 3.20996 8.59983 3.20996 9.90983V12.0598C3.20996 12.9998 3.74996 13.8098 4.51996 14.2298C4.43996 14.4798 4.37996 14.7398 4.37996 15.0098V18.5298C4.38996 19.8898 5.49996 20.9998 6.86996 20.9998H17.07C18.44 20.9998 19.55 19.8898 19.55 18.5198V14.9998C19.55 14.7298 19.49 14.4698 19.41 14.2198C20.19 13.7998 20.72 12.9898 20.72 12.0498V9.90983C20.72 8.58983 19.69 7.51983 18.39 7.44983ZM18.72 9.90983V12.0598C18.72 12.3198 18.51 12.5398 18.24 12.5398H17.07H12.97V9.43983H14.23H15.42H18.25C18.51 9.42983 18.72 9.63983 18.72 9.90983ZM13.79 6.68983L14.07 6.15983C14.2 5.90983 14.29 5.74983 14.35 5.62983C14.57 5.21983 15.09 4.86983 15.73 5.02983C16.15 5.12983 16.5 5.48983 16.6 5.90983C16.68 6.26983 16.61 6.61983 16.41 6.90983C16.21 7.18983 15.9 7.37983 15.56 7.40983C15.51 7.40983 15.47 7.41983 15.42 7.41983H14.23C13.98 7.41983 13.85 7.24983 13.8 7.17983C13.76 7.11983 13.67 6.91983 13.79 6.68983ZM7.33996 5.91983C7.42996 5.49983 7.78996 5.13983 8.20996 5.03983C8.30996 5.00983 8.41996 4.99983 8.51996 4.99983C9.01996 4.99983 9.40996 5.29983 9.58996 5.63983C9.64996 5.75983 9.73996 5.92983 9.86996 6.16983L10.15 6.69983C10.27 6.92983 10.18 7.11983 10.14 7.19983C10.1 7.25983 9.96996 7.42983 9.70996 7.42983H8.51996C8.46996 7.42983 8.42996 7.42983 8.37996 7.41983C8.03996 7.37983 7.72996 7.19983 7.52996 6.91983C7.32996 6.62983 7.25996 6.27983 7.33996 5.91983ZM5.21996 9.90983C5.21996 9.64983 5.42996 9.42983 5.69996 9.42983H8.52996H9.71996H10.98V12.5298H6.87996H5.68996C5.42996 12.5298 5.20996 12.3198 5.20996 12.0498V9.90983H5.21996ZM6.38996 18.5198V14.9998C6.38996 14.7398 6.59996 14.5198 6.86996 14.5198H10.97V18.9998H6.86996C6.60996 18.9998 6.38996 18.7898 6.38996 18.5198ZM17.55 18.5198C17.55 18.7798 17.34 18.9998 17.07 18.9998H12.97V14.5298H17.07C17.33 14.5298 17.55 14.7398 17.55 15.0098V18.5198Z" fill="black"/>
</svg>
