<svg width="24" height="24" viewBox="0 0 24 24" fill="none" xmlns="http://www.w3.org/2000/svg">
<path d="M17.97 4.00977H5.96997C3.75997 4.00977 1.96997 5.79977 1.96997 8.00977V16.0098C1.96997 18.2198 3.75997 20.0098 5.96997 20.0098H17.97C20.18 20.0098 21.97 18.2198 21.97 16.0098V8.00977C21.97 5.79977 20.18 4.00977 17.97 4.00977ZM19.97 16.0098C19.97 17.1098 19.07 18.0098 17.97 18.0098H5.96997C4.86997 18.0098 3.96997 17.1098 3.96997 16.0098V8.00977C3.96997 6.90977 4.86997 6.00977 5.96997 6.00977H17.97C19.07 6.00977 19.97 6.90977 19.97 8.00977V16.0098ZM7.40997 10.0998C7.40997 9.23977 8.10997 8.54977 8.95997 8.54977C9.81997 8.54977 10.51 9.24977 10.51 10.0998C10.51 10.9598 9.80997 11.6498 8.95997 11.6498C8.10997 11.6498 7.40997 10.9598 7.40997 10.0998ZM11.91 14.2298C12.04 14.5998 11.82 14.9998 11.44 15.1098C9.81997 15.5598 8.10997 15.5598 6.49997 15.1098C6.10997 14.9998 5.89997 14.5998 6.01997 14.2298C6.35997 13.2398 7.20997 12.3398 8.95997 12.3398C10.71 12.3398 11.57 13.2498 11.91 14.2298ZM17.93 9.52977C17.93 9.80977 17.71 10.0298 17.43 10.0298H13.46C13.18 10.0298 12.96 9.80977 12.96 9.52977C12.96 9.24976 13.18 9.02977 13.46 9.02977H17.43C17.71 9.02977 17.93 9.24976 17.93 9.52977ZM17.93 12.0298C17.93 12.3098 17.71 12.5298 17.43 12.5298H13.46C13.18 12.5298 12.96 12.3098 12.96 12.0298C12.96 11.7498 13.18 11.5298 13.46 11.5298H17.43C17.71 11.5298 17.93 11.7498 17.93 12.0298ZM17.93 14.5298C17.93 14.8098 17.71 15.0298 17.43 15.0298H13.46C13.18 15.0298 12.96 14.8098 12.96 14.5298C12.96 14.2498 13.18 14.0298 13.46 14.0298H17.43C17.71 14.0298 17.93 14.2498 17.93 14.5298Z" fill="black"/>
</svg>
