<svg width="24" height="24" viewBox="0 0 24 24" fill="none" xmlns="http://www.w3.org/2000/svg">
<path fill-rule="evenodd" clip-rule="evenodd" d="M12.6 4.2H11.4V3H12.6V4.2ZM12.6 4.8H11.4V6H12.6V4.8ZM12.6 7.2H11.4V9H12.6V7.2ZM9 12.6V11.4H7.8V12.6H9ZM6.6 12.6V11.4H4.8V12.6H6.6ZM4.2 11.4H3V12.6H4.2V11.4ZM11.4 21H12.6V19.8H11.4V21ZM11.4 18.6H12.6V17.4H11.4V18.6ZM13.8 18.6H13.2V21H14.4V18.6H15V17.4H13.8V18.6ZM17.4 16.2V15H16.2V16.2H15V17.4H16.2V18.6H15.6V19.8H16.2V21H17.4V19.8H16.8V18.6H17.4V17.4H18.6V16.2H17.4ZM11.4 16.2H12.6V15H11.4V16.2ZM19.8 15H18.6V16.2H19.8V16.3V16.4V17.4H18.6V18.6H19.8V19.8H18.6V21H21V20V19.8V18.5H19.8V17.5H21V16.4V16.3V14H19.8V15ZM16.2 15V12.6H16.8V11.4H15.6V12.6H13.8V13.8H12.6V13.2H11.4V14.4H12.6V15H13.8V16.2H15V15H16.2ZM18 13.8V12.6H16.8V13.8H18ZM12.6 11.4V10.2H11.4V11.4H10.2V12.6H12.6H13.8V11.4H12.6ZM18.6 12.6V13.8H19.8V12.6H21V11.4H18.6V12.6ZM5.4 18.6H7.8V16.2H5.4V18.6ZM3 13.8H10.2V21H3V13.8ZM4.2 19.8H9V15H4.2V19.8ZM18.6 5.4H16.2V7.8H18.6V5.4ZM21 3V10.2H13.8V3H21ZM19.8 4.2H15V9H19.8V4.2ZM7.8 5.4H5.4V7.8H7.8V5.4ZM10.2 10.2H3V3H10.2V10.2ZM9 4.2H4.2V9H9V4.2Z" fill="black"/>
</svg>
