<svg width="24" height="24" viewBox="0 0 24 24" fill="none" xmlns="http://www.w3.org/2000/svg">
<path d="M12 22C6.49 22 2 17.51 2 12C2 6.49 6.49 2 12 2C17.51 2 22 6.49 22 12C22 17.51 17.51 22 12 22ZM12 4C7.59 4 4 7.59 4 12C4 16.41 7.59 20 12 20C16.41 20 20 16.41 20 12C20 7.59 16.41 4 12 4ZM11.97 15.22C11.41 15.22 10.95 15.68 10.95 16.24C10.95 16.8 11.41 17.26 11.97 17.26C12.53 17.26 12.99 16.8 12.99 16.24C12.99 15.68 12.53 15.22 11.97 15.22ZM11.98 14.64C12.49 14.64 12.9 14.22 12.9 13.71C12.9 13.32 12.94 13.19 13.02 13.1C13.16 12.93 13.37 12.76 13.6 12.57C14.31 11.98 15.27 11.17 15.27 9.63C15.27 8 13.78 6.62 12.02 6.62C10.18 6.62 8.74 7.99 8.74 9.74C8.74 10.25 9.15 10.66 9.66 10.66C10.17 10.66 10.58 10.25 10.58 9.74C10.58 8.9 11.3 8.46 12.01 8.46C12.74 8.46 13.41 9.01 13.41 9.62C13.41 10.26 13.04 10.6 12.4 11.14C12.12 11.37 11.84 11.61 11.6 11.9C11.11 12.48 11.05 13.14 11.05 13.71C11.05 14.23 11.46 14.64 11.98 14.64C11.97 14.64 11.97 14.64 11.98 14.64Z" fill="black"/>
</svg>
