<svg width="24" height="24" viewBox="0 0 24 24" fill="none" xmlns="http://www.w3.org/2000/svg">
<path d="M12 2C6.48 2 2 6.48 2 12C2 17.52 6.48 22 12 22C17.52 22 22 17.52 22 12C22 6.48 17.52 2 12 2ZM12 17.25C11.45 17.25 11 16.8 11 16.25C11 15.7 11.45 15.25 12 15.25C12.55 15.25 13 15.7 13 16.25C13 16.8 12.55 17.25 12 17.25ZM13.58 12.56C13.35 12.75 13.14 12.93 13 13.09C12.91 13.2 12.87 13.37 12.88 13.71C12.88 14.21 12.48 14.61 11.98 14.61C11.48 14.61 11.08 14.21 11.08 13.71C11.08 13.15 11.14 12.5 11.63 11.92C11.87 11.63 12.16 11.39 12.43 11.16C13.08 10.61 13.45 10.27 13.45 9.62C13.45 9 12.77 8.44 12.02 8.44C11.3 8.44 10.57 8.89 10.57 9.74C10.57 10.24 10.17 10.64 9.67 10.64C9.17 10.64 8.77 10.24 8.77 9.74C8.77 8 10.2 6.64 12.02 6.64C13.77 6.64 15.25 8.01 15.25 9.62C15.24 11.16 14.28 11.97 13.58 12.56Z" fill="black"/>
</svg>
