<svg width="24" height="24" viewBox="0 0 24 24" fill="none" xmlns="http://www.w3.org/2000/svg">
<path d="M17.4101 7.94988C17.4101 10.4999 15.7901 11.8599 14.6001 12.8499C14.2101 13.1799 13.8401 13.4899 13.5901 13.7799C13.4101 13.9999 13.3401 14.2999 13.3401 14.9399C13.3401 15.7099 12.7201 16.3399 11.9501 16.3499C11.9501 16.3499 11.9501 16.3499 11.9401 16.3499C11.1701 16.3499 10.5401 15.7299 10.5401 14.9599C10.5401 14.0299 10.6401 12.9399 11.4401 11.9899C11.8501 11.4999 12.3301 11.0999 12.8001 10.7099C13.9201 9.77988 14.6001 9.13988 14.6001 7.95988C14.6001 6.81988 13.3601 5.78988 12.0101 5.78988C10.7001 5.78988 9.38008 6.59988 9.38008 8.15988C9.38008 8.92988 8.75008 9.55988 7.98008 9.55988C7.21008 9.55988 6.58008 8.92988 6.58008 8.15988C6.58008 5.25988 8.97008 2.98988 12.0101 2.98988C14.9401 2.96988 17.4101 5.24988 17.4101 7.94988ZM11.9501 17.5299C10.9801 17.5299 10.2001 18.3099 10.2001 19.2799C10.2001 20.2499 10.9801 21.0299 11.9501 21.0299C12.9201 21.0299 13.7001 20.2499 13.7001 19.2799C13.7001 18.3099 12.9201 17.5299 11.9501 17.5299Z" fill="black"/>
</svg>
