<svg width="24" height="24" viewBox="0 0 24 24" fill="none" xmlns="http://www.w3.org/2000/svg">
<path d="M20.6051 9.8239C20.4564 9.7131 20.2799 9.64581 20.0952 9.62957C19.9105 9.61332 19.7249 9.64875 19.5591 9.7319L16.0421 11.4999L12.7781 7.5419C12.6843 7.42831 12.5665 7.33685 12.4332 7.27407C12.3 7.21129 12.1545 7.17874 12.0071 7.17874C11.8598 7.17874 11.7143 7.21129 11.581 7.27407C11.4477 7.33685 11.3299 7.42831 11.2361 7.5419L7.97212 11.4999L4.45612 9.7319C4.29036 9.64852 4.10467 9.6129 3.91982 9.62903C3.73497 9.64516 3.55825 9.71241 3.40944 9.82324C3.26062 9.93407 3.14558 10.0841 3.07718 10.2566C3.00878 10.4291 2.98971 10.6172 3.02212 10.7999L4.47612 19.0259C4.55772 19.4891 4.79994 19.9087 5.16022 20.211C5.52051 20.5133 5.97581 20.679 6.44612 20.6789H17.5681C18.0384 20.679 18.4937 20.5133 18.854 20.211C19.2143 19.9087 19.4565 19.4891 19.5381 19.0259L20.9921 10.7999C21.0244 10.6173 21.0054 10.4294 20.937 10.257C20.8687 10.0847 20.7538 9.93472 20.6051 9.8239ZM17.5691 18.6789H6.44612L5.33812 12.4119L7.78812 13.6409C7.99041 13.7423 8.22111 13.7721 8.44253 13.7254C8.66395 13.6787 8.86298 13.5583 9.00712 13.3839L12.0071 9.7489L15.0071 13.3839C15.1513 13.5586 15.3505 13.6791 15.5722 13.7258C15.7938 13.7725 16.0247 13.7426 16.2271 13.6409L18.6761 12.4119L17.5681 18.6789H17.5691ZM13.6351 4.0279C13.6351 4.34989 13.5396 4.66465 13.3608 4.93237C13.1819 5.20009 12.9276 5.40876 12.6301 5.53198C12.3327 5.6552 12.0053 5.68744 11.6895 5.62462C11.3737 5.5618 11.0836 5.40675 10.856 5.17907C10.6283 4.95139 10.4732 4.66131 10.4104 4.34551C10.3476 4.02971 10.3798 3.70237 10.503 3.40489C10.6263 3.10742 10.8349 2.85316 11.1027 2.67427C11.3704 2.49538 11.6851 2.3999 12.0071 2.3999C12.4389 2.3999 12.853 2.57142 13.1583 2.87673C13.4636 3.18204 13.6351 3.59613 13.6351 4.0279ZM4.55312 6.8839C4.55312 7.20589 4.45764 7.52065 4.27875 7.78837C4.09987 8.05609 3.84561 8.26476 3.54813 8.38798C3.25065 8.5112 2.92331 8.54344 2.60751 8.48062C2.29171 8.4178 2.00163 8.26275 1.77395 8.03507C1.54627 7.80739 1.39122 7.51731 1.3284 7.20151C1.26558 6.88571 1.29782 6.55837 1.42104 6.26089C1.54426 5.96342 1.75293 5.70916 2.02065 5.53027C2.28837 5.35138 2.60313 5.2559 2.92512 5.2559C3.13891 5.2559 3.35061 5.29801 3.54813 5.37983C3.74565 5.46164 3.92512 5.58156 4.07629 5.73273C4.22746 5.88391 4.34738 6.06338 4.4292 6.26089C4.51101 6.45841 4.55312 6.67011 4.55312 6.8839ZM22.6031 6.8839C22.6031 7.20589 22.5076 7.52065 22.3288 7.78837C22.1499 8.05609 21.8956 8.26476 21.5981 8.38798C21.3007 8.5112 20.9733 8.54344 20.6575 8.48062C20.3417 8.4178 20.0516 8.26275 19.8239 8.03507C19.5963 7.80739 19.4412 7.51731 19.3784 7.20151C19.3156 6.88571 19.3478 6.55837 19.471 6.26089C19.5943 5.96342 19.8029 5.70916 20.0707 5.53027C20.3384 5.35138 20.6531 5.2559 20.9751 5.2559C21.4064 5.2567 21.8197 5.42857 22.1244 5.73379C22.429 6.03902 22.6001 6.45265 22.6001 6.8839H22.6031Z" fill="black"/>
</svg>
