<svg width="24" height="24" viewBox="0 0 24 24" fill="none" xmlns="http://www.w3.org/2000/svg">
<path d="M20.9921 10.7999L19.5381 19.0259C19.4565 19.4891 19.2143 19.9087 18.854 20.211C18.4937 20.5133 18.0384 20.679 17.5681 20.6789H6.44612C5.97581 20.679 5.52051 20.5133 5.16022 20.211C4.79994 19.9087 4.55772 19.4891 4.47612 19.0259L3.02212 10.7999C2.98971 10.6172 3.00878 10.4291 3.07718 10.2566C3.14558 10.0841 3.26062 9.93407 3.40944 9.82324C3.55825 9.71241 3.73497 9.64516 3.91982 9.62903C4.10467 9.6129 4.29036 9.64852 4.45612 9.7319L7.97212 11.4999L11.2361 7.5459C11.3299 7.43231 11.4477 7.34085 11.581 7.27807C11.7143 7.21529 11.8598 7.18274 12.0071 7.18274C12.1545 7.18274 12.3 7.21529 12.4332 7.27807C12.5665 7.34085 12.6843 7.43231 12.7781 7.5459L16.0421 11.4999L19.5591 9.7359C19.7245 9.65314 19.9096 9.61786 20.0939 9.634C20.2781 9.65013 20.4543 9.71705 20.6028 9.8273C20.7513 9.93756 20.8663 10.0868 20.935 10.2585C21.0037 10.4302 21.0235 10.6176 20.9921 10.7999ZM12.0071 2.3999C11.6851 2.3999 11.3704 2.49538 11.1027 2.67427C10.8349 2.85316 10.6263 3.10742 10.503 3.40489C10.3798 3.70237 10.3476 4.02971 10.4104 4.34551C10.4732 4.66131 10.6283 4.95139 10.856 5.17907C11.0836 5.40675 11.3737 5.5618 11.6895 5.62462C12.0053 5.68744 12.3327 5.6552 12.6301 5.53198C12.9276 5.40876 13.1819 5.20009 13.3608 4.93237C13.5396 4.66465 13.6351 4.34989 13.6351 4.0279C13.6351 3.59613 13.4636 3.18204 13.1583 2.87673C12.853 2.57142 12.4389 2.3999 12.0071 2.3999ZM2.92512 5.2559C2.60313 5.2559 2.28837 5.35138 2.02065 5.53027C1.75293 5.70916 1.54426 5.96342 1.42104 6.26089C1.29782 6.55837 1.26558 6.88571 1.3284 7.20151C1.39122 7.51731 1.54627 7.80739 1.77395 8.03507C2.00163 8.26275 2.29171 8.4178 2.60751 8.48062C2.92331 8.54344 3.25065 8.5112 3.54813 8.38798C3.84561 8.26476 4.09987 8.05609 4.27875 7.78837C4.45764 7.52065 4.55312 7.20589 4.55312 6.8839C4.55312 6.67011 4.51101 6.45841 4.4292 6.26089C4.34738 6.06338 4.22746 5.88391 4.07629 5.73273C3.92512 5.58156 3.74565 5.46164 3.54813 5.37983C3.35061 5.29801 3.13891 5.2559 2.92512 5.2559ZM20.9751 5.2559C20.653 5.25531 20.338 5.35028 20.0698 5.52881C19.8017 5.70734 19.5926 5.96139 19.4689 6.25881C19.3452 6.55624 19.3126 6.88367 19.375 7.19967C19.4375 7.51567 19.5923 7.80603 19.8199 8.03401C20.0474 8.26199 20.3375 8.41734 20.6534 8.4804C20.9693 8.54346 21.2968 8.51139 21.5944 8.38826C21.8921 8.26513 22.1465 8.05647 22.3255 7.78868C22.5046 7.52089 22.6001 7.20602 22.6001 6.8839C22.6001 6.45265 22.429 6.03902 22.1244 5.73379C21.8197 5.42857 21.4064 5.2567 20.9751 5.2559Z" fill="black"/>
</svg>
