<svg width="24" height="24" viewBox="0 0 24 24" fill="none" xmlns="http://www.w3.org/2000/svg">
<path fill-rule="evenodd" clip-rule="evenodd" d="M19.49 19.4697C19.49 19.8797 19.15 20.2197 18.74 20.2197H5.23999C4.82999 20.2197 4.48999 19.8797 4.48999 19.4697C4.48999 19.0597 4.82999 18.7197 5.23999 18.7197H18.74C19.16 18.7197 19.49 19.0597 19.49 19.4697ZM19.49 5.96973C18.66 5.96973 17.99 6.63973 17.99 7.46973C17.99 7.91973 18.19 8.31973 18.51 8.59973L15.8 11.0297C15.28 11.4897 14.47 11.2997 14.21 10.6597L12.56 6.61973C13.25 6.37973 13.74 5.73973 13.74 4.96973C13.74 3.99973 12.96 3.21973 11.99 3.21973C11.02 3.21973 10.24 3.99973 10.24 4.96973C10.24 5.73973 10.74 6.37973 11.42 6.61973L9.76999 10.6597C9.50999 11.2997 8.68999 11.4897 8.17999 11.0297L5.46999 8.59973C5.78999 8.31973 5.98999 7.91973 5.98999 7.46973C5.98999 6.63973 5.31999 5.96973 4.48999 5.96973C3.65999 5.96973 2.98999 6.63973 2.98999 7.46973C2.98999 8.29973 3.65999 8.96973 4.48999 8.96973V16.2197C4.48999 16.7697 4.93999 17.2197 5.48999 17.2197H18.49C19.04 17.2197 19.49 16.7697 19.49 16.2197V8.96973C20.32 8.96973 20.99 8.29973 20.99 7.46973C20.99 6.63973 20.32 5.96973 19.49 5.96973Z" fill="black"/>
</svg>
