<svg width="24" height="24" viewBox="0 0 24 24" fill="none" xmlns="http://www.w3.org/2000/svg">
<path fill-rule="evenodd" clip-rule="evenodd" d="M19.49 19.2195C19.49 19.6295 19.15 19.9695 18.74 19.9695H5.23999C4.82999 19.9695 4.48999 19.6295 4.48999 19.2195C4.48999 18.8095 4.82999 18.4695 5.23999 18.4695H18.74C19.16 18.4695 19.49 18.8095 19.49 19.2195ZM20.49 6.46949C20.49 7.16949 20.01 7.74949 19.37 7.91949V15.0995C19.37 16.1295 18.53 16.9795 17.49 16.9795H6.48999C5.45999 16.9795 4.60999 16.1395 4.60999 15.0995V7.91949C3.96999 7.74949 3.48999 7.16949 3.48999 6.46949C3.48999 5.63949 4.15999 4.96949 4.98999 4.96949C5.81999 4.96949 6.48999 5.63949 6.48999 6.46949C6.48999 6.79949 6.37999 7.10949 6.19999 7.34949L9.08999 10.3195C9.11999 10.3495 9.15999 10.3595 9.19999 10.3595C9.23999 10.3495 9.26999 10.3295 9.28999 10.2895L11.09 6.21949C10.58 5.90949 10.24 5.35949 10.24 4.72949C10.24 3.75949 11.02 2.97949 11.99 2.97949C12.96 2.97949 13.74 3.75949 13.74 4.72949C13.74 5.36949 13.4 5.91949 12.89 6.21949L14.69 10.2895C14.71 10.3295 14.74 10.3495 14.78 10.3595C14.82 10.3695 14.86 10.3595 14.89 10.3195L17.78 7.34949C17.6 7.09949 17.49 6.79949 17.49 6.46949C17.49 5.63949 18.16 4.96949 18.99 4.96949C19.82 4.96949 20.49 5.63949 20.49 6.46949ZM17.62 10.0395L16.15 11.5395C15.71 11.9895 15.09 12.1895 14.47 12.0795C13.86 11.9695 13.34 11.5595 13.09 10.9895L11.99 8.49949L10.89 10.9895C10.64 11.5595 10.12 11.9695 9.50999 12.0795C8.88999 12.1895 8.26999 11.9895 7.83999 11.5395L6.36999 10.0395V15.0995C6.36999 15.1695 6.42999 15.2195 6.48999 15.2195H17.49C17.56 15.2195 17.61 15.1595 17.61 15.0995V10.0395H17.62Z" fill="black"/>
</svg>
