<svg width="24" height="24" viewBox="0 0 24 24" fill="none" xmlns="http://www.w3.org/2000/svg">
<path fill-rule="evenodd" clip-rule="evenodd" d="M20 10H15.5V6C15.5 5.45 15.05 5 14.5 5H9C8.45 5 8 5.45 8 6V10H4C3.45 10 3 10.45 3 11V18C3 18.55 3.45 19 4 19H9H14.5H20C20.55 19 21 18.55 21 18V11C21 10.45 20.55 10 20 10ZM8.14 16.13C8.28 16.13 8.33 16.14 8.43 16.18C8.6 16.26 8.7 16.42 8.7 16.6C8.7 16.78 8.59 16.94 8.43 17.02C8.33 17.06 8.28 17.07 8.14 17.07H6.3C6.15 17.07 6 17.06 5.84 16.98C5.42 16.78 5.24 16.35 5.42 15.88C5.48 15.74 5.57 15.62 5.73 15.46C7.34 13.89 7.5 13.73 7.5 13.73C7.64 13.59 7.72 13.44 7.72 13.29C7.72 12.92 7.4 12.62 7 12.62C6.77 12.62 6.55 12.73 6.42 12.91C6.37 12.97 6.3 13.08 6.24 13.12C6.1 13.23 5.87 13.25 5.7 13.16C5.45 13.03 5.36 12.75 5.5 12.52C5.8 12 6.38 11.68 7 11.68C7.95 11.68 8.72 12.4 8.72 13.3C8.72 13.7 8.55 14.08 8.23 14.4C8.23 14.4 7.99 14.63 6.45 16.14H8.14V16.13ZM12.4 11.6C12.4 11.72 12.39 11.78 12.34 11.87C12.25 12.03 12.08 12.13 11.89 12.13C11.7 12.13 11.53 12.02 11.44 11.87C11.39 11.78 11.38 11.72 11.38 11.6V7.94L11.05 8.11C10.97 8.15 10.87 8.19 10.78 8.19C10.6 8.19 10.43 8.1 10.33 7.94C10.25 7.79 10.26 7.62 10.34 7.48C10.38 7.4 10.46 7.34 10.6 7.27L11.65 6.74C11.8 6.66 11.99 6.66 12.15 6.75C12.25 6.8 12.32 6.89 12.36 6.98C12.39 7.04 12.4 7.11 12.4 7.18V11.6ZM18.8 15.44C18.78 16.39 17.99 17.13 16.99 17.13C16.32 17.13 15.7 16.78 15.39 16.23C15.25 16 15.35 15.71 15.59 15.59C15.72 15.52 15.87 15.51 16 15.56C16.11 15.6 16.24 15.75 16.32 15.85C16.48 16.05 16.71 16.18 16.99 16.18C17.44 16.18 17.8 15.85 17.8 15.43C17.81 15.04 17.46 14.75 16.99 14.75H16.81C16.68 14.75 16.62 14.74 16.52 14.7C16.35 14.62 16.25 14.46 16.25 14.28C16.25 14.1 16.36 13.94 16.52 13.86C16.62 13.82 16.68 13.81 16.81 13.81H16.99C17.33 13.81 17.67 13.61 17.67 13.25C17.66 12.9 17.37 12.63 16.99 12.63C16.77 12.63 16.57 12.74 16.45 12.89C16.42 12.93 16.34 13.06 16.26 13.12C16.11 13.23 15.9 13.25 15.72 13.16C15.48 13.04 15.38 12.75 15.52 12.52C15.81 12.01 16.38 11.69 17 11.69C17.94 11.69 18.68 12.37 18.68 13.25V13.26C18.68 13.65 18.5 14.01 18.24 14.28C18.57 14.55 18.81 14.97 18.8 15.44Z" fill="black"/>
</svg>
