<svg width="24" height="24" viewBox="0 0 24 24" fill="none" xmlns="http://www.w3.org/2000/svg">
<path d="M15.82 20.08C16.03 20.53 15.84 21.07 15.39 21.28C15.27 21.34 15.13 21.37 15 21.37C14.66 21.37 14.34 21.18 14.19 20.86L13.91 20.27H7.00003C5.35003 20.27 4.00003 18.92 4.00003 17.27V14.29H1.96003C1.51003 14.29 1.29003 13.75 1.61003 13.44L4.65003 10.4C4.85003 10.2 5.16003 10.2 5.36003 10.4L8.40003 13.44C8.72003 13.76 8.49003 14.29 8.05003 14.29H6.00003V17.27C6.00003 17.82 6.45003 18.27 7.00003 18.27H12.96L7.26003 6.27004H7.00003C6.45003 6.27004 6.00003 6.72004 6.00003 7.27004V8.27004C6.00003 8.82004 5.55003 9.27004 5.00003 9.27004C4.45003 9.27004 4.00003 8.82004 4.00003 8.27004V7.27004C4.00003 5.84004 5.00003 4.65004 6.34003 4.35004L6.19003 4.03004C5.98003 3.58004 6.17003 3.04004 6.62003 2.83004C7.07003 2.62004 7.61003 2.81004 7.82003 3.26004L15.82 20.08ZM19 15.26C18.45 15.26 18 15.71 18 16.26V17.26C18 17.81 17.55 18.26 17 18.26H16.94L17.81 20.08C17.82 20.1 17.82 20.11 17.82 20.13C19.07 19.77 20 18.63 20 17.26V16.26C20 15.71 19.55 15.26 19 15.26ZM22.04 10.24H20V7.26004C20 5.61004 18.65 4.26004 17 4.26004H10.29L11.24 6.26004H17C17.55 6.26004 18 6.71004 18 7.26004V10.24H15.96C15.51 10.24 15.29 10.78 15.61 11.09L18.65 14.13C18.85 14.33 19.16 14.33 19.36 14.13L22.4 11.09C22.7 10.78 22.48 10.24 22.04 10.24Z" fill="black"/>
</svg>
