<svg width="24" height="24" viewBox="0 0 24 24" fill="none" xmlns="http://www.w3.org/2000/svg">
<path d="M20 16.1299V17.1299C20 18.7799 18.65 20.1299 17 20.1299H7.00003C5.35003 20.1299 4.00003 18.7799 4.00003 17.1299V14.1499H1.96003C1.51003 14.1499 1.29003 13.6099 1.61003 13.2999L4.65003 10.2599C4.85003 10.0599 5.16003 10.0599 5.36003 10.2599L8.40003 13.2999C8.72003 13.6199 8.49003 14.1499 8.05003 14.1499H6.00003V17.1299C6.00003 17.6799 6.45003 18.1299 7.00003 18.1299H17C17.55 18.1299 18 17.6799 18 17.1299V16.1299C18 15.5799 18.45 15.1299 19 15.1299C19.55 15.1299 20 15.5799 20 16.1299ZM22.04 10.1099H20V7.12988C20 5.47988 18.65 4.12988 17 4.12988H7.00003C5.35003 4.12988 4.00003 5.47988 4.00003 7.12988V8.12988C4.00003 8.67988 4.45003 9.12988 5.00003 9.12988C5.55003 9.12988 6.00003 8.67988 6.00003 8.12988V7.12988C6.00003 6.57988 6.45003 6.12988 7.00003 6.12988H17C17.55 6.12988 18 6.57988 18 7.12988V10.1099H15.96C15.51 10.1099 15.29 10.6499 15.61 10.9599L18.65 13.9999C18.85 14.1999 19.16 14.1999 19.36 13.9999L22.4 10.9599C22.7 10.6499 22.48 10.1099 22.04 10.1099Z" fill="black"/>
</svg>
