<svg width="24" height="24" viewBox="0 0 24 24" fill="none" xmlns="http://www.w3.org/2000/svg">
<path d="M21.0601 13.6101C21.0601 17.8201 17.6301 21.2501 13.4201 21.2501H9.00007C8.17007 21.2501 7.50007 20.5801 7.50007 19.7501C7.50007 18.9201 8.17007 18.2501 9.00007 18.2501H13.4201C15.9801 18.2501 18.0601 16.1701 18.0601 13.6101C18.0601 11.0501 15.9801 8.97015 13.4201 8.97015H9.09007V10.6601C9.09007 11.2801 8.74007 11.8101 8.16007 12.0501C7.97007 12.1301 7.77007 12.1701 7.58007 12.1701C7.19007 12.1701 6.82007 12.0201 6.53007 11.7301L3.38007 8.56015C2.80007 7.98015 2.80007 7.02015 3.38007 6.44015L6.53007 3.29015C6.97007 2.85015 7.60007 2.73015 8.17007 2.96015C8.74007 3.20015 9.09007 3.73015 9.09007 4.35015V5.97015H13.4101C17.6301 5.96015 21.0601 9.39015 21.0601 13.6101Z" fill="black"/>
</svg>
