<svg width="24" height="24" viewBox="0 0 24 24" fill="none" xmlns="http://www.w3.org/2000/svg">
<path d="M20.56 13.61C20.56 17.55 17.36 20.75 13.42 20.75H9.00001C8.45001 20.75 8.00001 20.3 8.00001 19.75C8.00001 19.2 8.45001 18.75 9.00001 18.75H13.42C16.25 18.75 18.56 16.44 18.56 13.61C18.56 10.78 16.25 8.46997 13.42 8.46997H8.59001V10.66C8.59001 11.55 7.51001 12 6.88001 11.37L3.74001 8.20997C3.35001 7.81997 3.35001 7.18997 3.74001 6.79997L6.89001 3.64997C7.52001 3.01997 8.60001 3.46997 8.60001 4.35997V6.46997H13.42C17.35 6.45997 20.56 9.66997 20.56 13.61Z" fill="black"/>
</svg>
