<svg width="24" height="24" viewBox="0 0 24 24" fill="none" xmlns="http://www.w3.org/2000/svg">
<path d="M19.87 14.1501C19.2 18.7801 14.54 22.0601 9.72001 20.6801C6.79001 19.8401 4.55001 17.3101 4.07001 14.3101C3.27001 9.33007 7.10001 5.03007 11.92 5.00007V3.46007C11.92 2.57007 13 2.12007 13.63 2.75007L16.17 5.29007C16.56 5.68007 16.56 6.31007 16.17 6.70007L13.63 9.24007C13 9.87007 11.92 9.42007 11.92 8.53007V7.00007C8.28001 7.02007 5.40001 10.3001 6.05001 14.0601C6.43001 16.2501 8.06001 18.0901 10.19 18.7301C13.84 19.8301 17.38 17.3601 17.89 13.8601C17.97 13.3101 18.48 12.9301 19.02 13.0101C19.57 13.1001 19.95 13.6001 19.87 14.1501Z" fill="black"/>
</svg>
