<svg width="24" height="24" viewBox="0 0 24 24" fill="none" xmlns="http://www.w3.org/2000/svg">
<path d="M12.0801 2C6.56008 2 2.08008 6.48 2.08008 12C2.08008 17.52 6.56008 22 12.0801 22C17.6001 22 22.0801 17.52 22.0801 12C22.0801 6.48 17.6001 2 12.0801 2ZM17.7001 16C16.0101 14.49 13.7101 13.47 11.1401 13.23V15.59C11.1401 15.92 10.7401 16.09 10.5001 15.86L5.95008 11.47C5.80008 11.32 5.80008 11.07 5.95008 10.93L10.5001 6.54C10.7401 6.31 11.1401 6.48 11.1401 6.81V9.31C14.6201 9.79 17.4401 12.32 18.3301 15.65C18.4201 16 17.9801 16.25 17.7001 16Z" fill="black"/>
</svg>
