<svg width="24" height="24" viewBox="0 0 24 24" fill="none" xmlns="http://www.w3.org/2000/svg">
<path d="M10.5699 16.5199C10.3699 16.6699 10.1099 16.6899 9.8899 16.5799C9.8899 16.5799 4.0199 13.3799 3.8999 13.3099C3.7599 13.2299 3.7499 12.9899 3.9499 12.9299C4.1699 12.8699 15.3999 9.84994 18.6099 8.99994C18.8199 8.93994 18.9699 9.20994 18.8199 9.34994C18.7099 9.45994 10.5699 16.5199 10.5699 16.5199ZM9.8599 7.35994C9.9699 7.37994 15.7399 8.19994 15.7399 8.19994L9.2799 9.92994C9.2799 9.92994 9.5999 7.63994 9.6099 7.52994C9.6299 7.41994 9.7499 7.33994 9.8599 7.35994ZM20.7899 7.98994C20.5499 7.58994 20.2199 7.38994 19.7899 7.32994C19.7199 7.31994 9.7999 5.86994 9.7999 5.86994C9.7699 5.86994 9.7499 5.85994 9.7199 5.85994C8.9399 5.83994 8.3299 6.34994 8.1999 7.10994C8.1999 7.11994 8.1999 7.13994 8.1999 7.13994L7.7299 10.3499C7.7299 10.3499 3.0799 11.6299 3.0699 11.6299C2.4899 11.7999 2.0899 12.2699 2.0199 12.8599C1.9499 13.4599 2.2299 13.9399 2.7399 14.2499C2.7499 14.2599 9.1299 17.8799 9.1399 17.8799C9.6299 18.1299 10.2399 18.1899 10.7499 18.0499C11.0199 17.9799 11.2699 17.8499 11.4999 17.6799C11.5099 17.6699 11.5199 17.6599 11.5299 17.6499C11.5299 17.6499 20.5199 9.80994 20.5299 9.79994C21.0399 9.31994 21.1499 8.59994 20.7899 7.98994Z" fill="black"/>
</svg>
