<svg width="24" height="24" viewBox="0 0 24 24" fill="none" xmlns="http://www.w3.org/2000/svg">
<path d="M12 2C6.49 2 2 6.49 2 12C2 17.51 6.49 22 12 22C17.51 22 22 17.51 22 12C22 6.49 17.51 2 12 2ZM12 20C7.59 20 4 16.41 4 12C4 7.59 7.59 4 12 4C16.41 4 20 7.59 20 12C20 16.41 16.41 20 12 20ZM15.4 15.9C15.74 16.26 15.72 16.83 15.36 17.17C15.19 17.33 14.97 17.41 14.75 17.41C14.51 17.41 14.27 17.31 14.09 17.12C14.09 17.11 13.17 16.18 12.01 16.18C10.85 16.18 9.93 17.12 9.92 17.13C9.57 17.49 9 17.51 8.64 17.17C8.28 16.83 8.26 16.27 8.6 15.9C8.66 15.84 10.04 14.38 12 14.38C13.96 14.38 15.34 15.84 15.4 15.9ZM10.46 12.19L8.1 13.55C7.96 13.63 7.8 13.67 7.65 13.67C7.34 13.67 7.04 13.51 6.87 13.22C6.62 12.79 6.77 12.24 7.2 11.99L8.21 11.4L7.2 10.82C6.77 10.57 6.62 10.02 6.87 9.59C7.12 9.16 7.67 9.01 8.1 9.26L10.46 10.62C10.74 10.78 10.91 11.08 10.91 11.4C10.91 11.72 10.74 12.02 10.46 12.19ZM17.13 13.22C16.96 13.51 16.66 13.67 16.35 13.67C16.2 13.67 16.04 13.63 15.9 13.55L13.54 12.18C13.26 12.02 13.09 11.72 13.09 11.4C13.09 11.08 13.26 10.78 13.54 10.62L15.9 9.26C16.33 9.01 16.88 9.16 17.13 9.59C17.38 10.02 17.23 10.57 16.8 10.82L15.79 11.4L16.8 11.99C17.23 12.24 17.38 12.79 17.13 13.22Z" fill="black"/>
</svg>
