<svg width="24" height="24" viewBox="0 0 24 24" fill="none" xmlns="http://www.w3.org/2000/svg">
<path d="M9.46 4.48996C9.15 4.25996 9.31 3.75996 9.7 3.75996H11V1.95996C11 1.67996 11.22 1.45996 11.5 1.45996H12.5C12.78 1.45996 13 1.67996 13 1.95996V3.76996H14.3C14.69 3.76996 14.85 4.26996 14.53 4.48996L12.23 6.14996C12.09 6.24996 11.9 6.24996 11.76 6.14996L9.46 4.48996ZM17 10.02V18.59C17 20.17 15.72 21.45 14.14 21.45H9.86C8.28 21.45 7 20.17 7 18.59V10.02C7 8.43996 8.28 7.15996 9.86 7.15996H14.15C15.72 7.15996 17 8.44996 17 10.02ZM10.57 9.12996C10.57 9.42996 10.81 9.66996 11.11 9.66996H12.9C13.2 9.66996 13.44 9.42996 13.44 9.12996C13.44 8.82996 13.2 8.58996 12.9 8.58996H11.11C10.81 8.58996 10.57 8.82996 10.57 9.12996ZM12.71 19.31C12.71 18.92 12.39 18.6 12 18.6C11.61 18.6 11.29 18.92 11.29 19.31C11.29 19.7 11.61 20.02 12 20.02C12.39 20.02 12.71 19.7 12.71 19.31ZM14.86 11.81C14.86 11.42 14.54 11.1 14.15 11.1H9.86C9.47 11.1 9.15 11.42 9.15 11.81V16.45C9.15 16.84 9.47 17.16 9.86 17.16H14.15C14.54 17.16 14.86 16.84 14.86 16.45V11.81Z" fill="black"/>
</svg>
