<svg width="24" height="24" viewBox="0 0 24 24" fill="none" xmlns="http://www.w3.org/2000/svg">
<path d="M14 7.05V4C14 3.45 14.45 3 15 3C15.55 3 16 3.45 16 4V7.05C16 7.6 16.45 8.05 17 8.05H20C20.55 8.05 21 8.5 21 9.05C21 9.6 20.55 10.05 20 10.05H17C15.34 10.05 14 8.71 14 7.05ZM9 3C8.45 3 8 3.45 8 4V7.05C8 7.6 7.55 8.05 7 8.05H4C3.45 8.05 3 8.5 3 9.05C3 9.6 3.45 10.05 4 10.05H7C8.66 10.05 10 8.71 10 7.05V4C10 3.45 9.55 3 9 3ZM7 14.05H4C3.45 14.05 3 14.5 3 15.05C3 15.6 3.45 16.05 4 16.05H7C7.55 16.05 8 16.5 8 17.05V20C8 20.55 8.45 21 9 21C9.55 21 10 20.55 10 20V17.05C10 15.4 8.66 14.05 7 14.05ZM20 14.05H17C15.34 14.05 14 15.39 14 17.05V20C14 20.55 14.45 21 15 21C15.55 21 16 20.55 16 20V17.05C16 16.5 16.45 16.05 17 16.05H20C20.55 16.05 21 15.6 21 15.05C21 14.5 20.55 14.05 20 14.05Z" fill="black"/>
</svg>
