<svg width="24" height="24" viewBox="0 0 24 24" fill="none" xmlns="http://www.w3.org/2000/svg">
<path d="M10 20C10 20.55 9.55 21 9 21H7C4.79 21 3 19.21 3 17V14.95C3 14.4 3.45 13.95 4 13.95C4.55 13.95 5 14.4 5 14.95V17C5 18.1 5.9 19 7 19H9C9.55 19 10 19.45 10 20ZM20 13.95C19.45 13.95 19 14.4 19 14.95V17C19 18.1 18.1 19 17 19H15C14.45 19 14 19.45 14 20C14 20.55 14.45 21 15 21H17C19.21 21 21 19.21 21 17V14.95C21 14.39 20.55 13.95 20 13.95ZM17 3H15C14.45 3 14 3.45 14 4C14 4.55 14.45 5 15 5H17C18.1 5 19 5.9 19 7V8.95C19 9.5 19.45 9.95 20 9.95C20.55 9.95 21 9.5 21 8.95V7C21 4.79 19.21 3 17 3ZM9 3H7C4.79 3 3 4.79 3 7V8.95C3 9.5 3.45 9.95 4 9.95C4.55 9.95 5 9.5 5 8.95V7C5 5.9 5.9 5 7 5H9C9.55 5 10 4.55 10 4C10 3.45 9.55 3 9 3Z" fill="black"/>
</svg>
