<svg width="24" height="24" viewBox="0 0 24 24" fill="none" xmlns="http://www.w3.org/2000/svg">
<path d="M10.38 14.8301L9.43 15.3001L9.69 16.6601C9.76 17.0101 9.41 17.1201 9.12 16.8401L8 15.7501L6.89 15.9201C6.6 15.9601 6.25 15.5701 6.32 15.2701L6.58 14.1301L5.63 12.8801C5.38 12.5501 5.52 12.2001 5.85 12.3001L7.12 12.6801L7.65 11.7401C7.79 11.4901 8.22 11.6701 8.36 12.0301L8.89 13.4101L10.16 14.0801C10.49 14.2501 10.63 14.7101 10.38 14.8301ZM21 8.62012V15.3801C21 16.1401 20.58 16.8301 19.89 17.1701L12.89 20.6701C12.61 20.8101 12.3 20.8801 12 20.8801C11.7 20.8801 11.39 20.8101 11.11 20.6701L4.11 17.1701C3.42 16.8301 3 16.1501 3 15.3801V8.62012C3 7.86012 3.42 7.17012 4.11 6.83012L11.11 3.33012C11.67 3.05012 12.34 3.05012 12.9 3.33012L19.9 6.83012C20.58 7.17012 21 7.85012 21 8.62012ZM6.24 8.00012L12 10.8801L17.76 8.00012L12 5.12012L6.24 8.00012ZM12 18.8801V13.1201L5 9.62012V15.3801L12 18.8801ZM8.54 7.47012L10.8 6.35012C11.15 6.13012 11.71 6.12012 12.05 6.31012L12.26 6.44012L12.68 6.39012C12.87 6.37012 13.06 6.40012 13.19 6.47012L14.2 6.96012C14.33 7.04012 14.39 7.15012 14.36 7.26012L14.28 7.59012L14.72 7.84012C15.06 8.04012 15.06 8.37012 14.71 8.59012L12.88 9.61012C12.53 9.83012 11.97 9.84012 11.63 9.65012L8.53 8.22012C8.18 8.02012 8.19 7.69012 8.54 7.47012ZM10.69 8.57012C11.26 8.90012 12.17 8.91012 12.72 8.60012C13.27 8.29012 13.26 7.77012 12.69 7.44012C12.12 7.11012 11.21 7.10012 10.66 7.41012C10.11 7.72012 10.12 8.24012 10.69 8.57012ZM11.09 8.33012C11.43 8.53012 11.98 8.54012 12.31 8.35012C12.64 8.17012 12.63 7.86012 12.28 7.66012C11.94 7.46012 11.39 7.45012 11.06 7.64012C10.73 7.83012 10.74 8.14012 11.09 8.33012Z" fill="black"/>
</svg>
