<svg width="24" height="24" viewBox="0 0 24 24" fill="none" xmlns="http://www.w3.org/2000/svg">
<path fill-rule="evenodd" clip-rule="evenodd" d="M21.17 10.2802L19.21 9.97023C19.05 9.39023 18.82 8.84023 18.53 8.32023L19.7 6.72023C19.99 6.32023 19.95 5.77023 19.6 5.42023L18.57 4.40023C18.22 4.05023 17.67 4.01023 17.27 4.30023L15.67 5.47023C15.16 5.18023 14.6 4.95023 14.03 4.79023L13.72 2.83023C13.64 2.34023 13.22 1.99023 12.73 1.99023H11.27C10.78 1.99023 10.36 2.35023 10.28 2.83023L9.96999 4.79023C9.39999 4.95023 8.83999 5.18023 8.32999 5.47023L6.72999 4.30023C6.32999 4.01023 5.77999 4.05023 5.42999 4.40023L4.39999 5.43023C4.04999 5.78023 4.00999 6.33023 4.29999 6.73023L5.46999 8.33023C5.17999 8.84023 4.94999 9.40023 4.78999 9.97023L2.82999 10.2802C2.33999 10.3602 1.98999 10.7802 1.98999 11.2702V12.7302C1.98999 13.2202 2.34999 13.6402 2.82999 13.7202L4.78999 14.0302C4.94999 14.6102 5.17999 15.1602 5.46999 15.6702L4.29999 17.2702C4.00999 17.6702 4.04999 18.2202 4.39999 18.5702L5.42999 19.6002C5.77999 19.9502 6.32999 19.9902 6.72999 19.7002L8.32999 18.5302C8.83999 18.8202 9.39999 19.0502 9.96999 19.2102L10.28 21.1702C10.36 21.6602 10.78 22.0102 11.27 22.0102H12.73C13.22 22.0102 13.64 21.6502 13.72 21.1702L14.03 19.2102C14.61 19.0502 15.16 18.8202 15.67 18.5302L17.27 19.7002C17.67 19.9902 18.22 19.9502 18.57 19.6002L19.6 18.5702C19.95 18.2202 19.99 17.6702 19.7 17.2702L18.53 15.6702C18.82 15.1602 19.05 14.6002 19.21 14.0202L21.17 13.7102C21.66 13.6302 22.01 13.2102 22.01 12.7202V11.2602C22.02 10.7802 21.66 10.3602 21.17 10.2802ZM12 16.5002C9.51999 16.5002 7.49999 14.4802 7.49999 12.0002C7.49999 9.52023 9.51999 7.50023 12 7.50023C14.48 7.50023 16.5 9.52023 16.5 12.0002C16.5 14.4802 14.48 16.5002 12 16.5002Z" fill="black"/>
</svg>
