<svg width="24" height="24" viewBox="0 0 24 24" fill="none" xmlns="http://www.w3.org/2000/svg">
<path d="M7.21998 8.18006C6.82998 7.79006 6.82998 7.16006 7.21998 6.77006L10.59 3.40006C10.97 3.02006 11.47 2.81006 12 2.81006C12.53 2.81006 13.04 3.02006 13.41 3.40006L16.78 6.77006C17.17 7.16006 17.17 7.79006 16.78 8.18006C16.58 8.38006 16.33 8.47006 16.07 8.47006C15.81 8.47006 15.56 8.37006 15.36 8.18006L13 5.81006V13.9001C13 14.4501 12.55 14.9001 12 14.9001C11.45 14.9001 11 14.4501 11 13.9001V5.81006L8.62998 8.18006C8.23998 8.58006 7.60998 8.58006 7.21998 8.18006ZM20.02 10.9801C19.47 10.9801 19.02 11.4301 19.02 11.9801V17.9901C19.02 18.5401 18.57 18.9901 18.02 18.9901H5.97998C5.42998 18.9901 4.97998 18.5401 4.97998 17.9901V11.9801C4.97998 11.4301 4.52998 10.9801 3.97998 10.9801C3.42998 10.9801 2.97998 11.4301 2.97998 11.9801V17.9901C2.97998 19.6501 4.32998 20.9901 5.97998 20.9901H18.01C19.67 20.9901 21.01 19.6401 21.01 17.9901V11.9801C21.02 11.4201 20.57 10.9801 20.02 10.9801Z" fill="black"/>
</svg>
