<svg width="24" height="24" viewBox="0 0 24 24" fill="none" xmlns="http://www.w3.org/2000/svg">
<path d="M4.75 3C5.99 3 7 4.01 7 5.25V18.75C7 19.99 5.99 21 4.75 21C3.51 21 2.5 19.99 2.5 18.75V5.25C2.5 4.01 3.51 3 4.75 3ZM8 5.25V18.75C8 19.99 9.01 21 10.25 21C11.49 21 12.5 19.99 12.5 18.75V5.25C12.5 4.01 11.49 3 10.25 3C9.01 3 8 4.01 8 5.25ZM14.97 3.31C13.77 3.63 13.06 4.87 13.38 6.07L16.87 19.11C17.19 20.31 18.43 21.02 19.63 20.7C20.83 20.38 21.54 19.14 21.22 17.94L17.73 4.9C17.41 3.7 16.17 2.99 14.97 3.31Z" fill="black"/>
</svg>
