<svg width="24" height="24" viewBox="0 0 24 24" fill="none" xmlns="http://www.w3.org/2000/svg">
<path d="M21.45 17.02L18.34 5.43C18.13 4.66 17.64 4.01 16.94 3.61C16.25 3.21 15.44 3.1 14.66 3.31C13.47 3.63 12.63 4.63 12.47 5.79C12.36 4.23 11.08 3 9.5 3C8.73 3 8.03 3.3 7.5 3.78C6.97 3.3 6.27 3 5.5 3C3.85 3 2.5 4.35 2.5 6V18C2.5 19.65 3.85 21 5.5 21C6.27 21 6.97 20.7 7.5 20.22C8.03 20.7 8.73 21 9.5 21C11.15 21 12.5 19.65 12.5 18V6.68C12.52 6.78 12.52 6.88 12.55 6.98L15.66 18.57C15.87 19.34 16.36 19.99 17.06 20.39C17.52 20.66 18.04 20.79 18.56 20.79C18.82 20.79 19.08 20.76 19.34 20.69C20.93 20.26 21.88 18.62 21.45 17.02ZM5.5 19C4.95 19 4.5 18.55 4.5 18V6C4.5 5.45 4.95 5 5.5 5C6.05 5 6.5 5.45 6.5 6V18C6.5 18.55 6.05 19 5.5 19ZM10.5 18C10.5 18.55 10.05 19 9.5 19C8.95 19 8.5 18.55 8.5 18V6C8.5 5.45 8.95 5 9.5 5C10.05 5 10.5 5.45 10.5 6V18ZM18.81 18.76C18.55 18.83 18.28 18.79 18.05 18.66C17.82 18.53 17.65 18.31 17.58 18.05L14.48 6.46C14.34 5.93 14.65 5.38 15.19 5.24C15.28 5.22 15.36 5.21 15.45 5.21C15.62 5.21 15.79 5.25 15.95 5.34C16.18 5.47 16.35 5.69 16.42 5.95L19.53 17.54C19.66 18.07 19.34 18.62 18.81 18.76Z" fill="black"/>
</svg>
