<svg width="24" height="24" viewBox="0 0 24 24" fill="none" xmlns="http://www.w3.org/2000/svg">
<path d="M15.0135 9.91125L12.6452 10.7216C11.8034 11.0096 11.1447 11.6498 10.8563 12.4603L9.94377 15.0244C9.7181 15.6585 8.7819 15.6585 8.55623 15.0244L7.64375 12.4603C7.3553 11.6498 6.69662 11.0096 5.85478 10.7216L3.48645 9.91125C2.83785 9.68933 2.83785 8.81061 3.48646 8.58871L5.85476 7.77844C6.69661 7.49042 7.3553 6.85021 7.64375 6.03967L8.55623 3.4756C8.7819 2.84147 9.7181 2.84147 9.94377 3.4756L10.8562 6.03967C11.1447 6.85021 11.8034 7.49042 12.6452 7.77844L15.0135 8.58871C15.6621 8.81061 15.6622 9.68933 15.0135 9.91125ZM20.7081 16.6467L19.2871 17.1329C18.782 17.3057 18.3868 17.6899 18.2138 18.1762L17.6663 19.7146C17.5309 20.0951 16.9691 20.0951 16.8337 19.7146L16.2862 18.1762C16.1132 17.6899 15.718 17.3057 15.2129 17.1329L13.7919 16.6467C13.4027 16.5136 13.4027 15.9864 13.7919 15.8532L15.2129 15.3671C15.718 15.1943 16.1132 14.8101 16.2863 14.3238L16.8337 12.7854C16.9691 12.4049 17.5309 12.4049 17.6663 12.7854L18.2137 14.3238C18.3868 14.8101 18.782 15.1943 19.2871 15.3671L20.7081 15.8532C21.0973 15.9864 21.0973 16.5136 20.7081 16.6467Z" fill="black"/>
</svg>
