<svg width="24" height="24" viewBox="0 0 24 24" fill="none" xmlns="http://www.w3.org/2000/svg">
<path d="M19.86 12.9402L16.63 14.0902C15.48 14.5002 14.58 15.4102 14.19 16.5702L12.95 20.2202C12.64 21.1202 11.36 21.1202 11.06 20.2202L9.81999 16.5702C9.42999 15.4202 8.52999 14.5002 7.37999 14.0902L4.14999 12.9402C3.26999 12.6202 3.26999 11.3702 4.14999 11.0602L7.36999 9.90021C8.51999 9.49021 9.41999 8.58021 9.80999 7.42022L11.05 3.77021C11.36 2.87021 12.64 2.87021 12.94 3.77021L14.18 7.42022C14.57 8.57022 15.47 9.49021 16.62 9.90021L19.85 11.0502C20.75 11.3702 20.75 12.6302 19.86 12.9402Z" fill="black"/>
</svg>
