<svg width="24" height="24" viewBox="0 0 24 24" fill="none" xmlns="http://www.w3.org/2000/svg">
<path d="M20.3 6.5L17.2 3.8C16.6 3.3 15.9 3 15.2 3H8.7C8 3 7.3 3.3 6.7 3.8L3.7 6.5C3.2 6.9 3 7.4 3 8C3 8.6 3.3 9.1 3.7 9.5L5.5 11V19C5.5 20.1 6.4 21 7.5 21H16.5C17.6 21 18.5 20.1 18.5 19V11L20.2 9.5C20.6 9.1 20.9 8.6 20.9 8C20.9 7.4 20.7 6.9 20.3 6.5ZM13.2 5C13.2 5.7 12.6 6.2 12 6.2C11.4 6.2 10.7 5.7 10.7 5H13.2ZM16.5 10.3V18.5C16.5 18.8 16.3 19 16 19H8C7.7 19 7.5 18.8 7.5 18.5V10.3C7.5 10.2 7.4 10 7.3 9.9L5.4 8.3C5.2 8.1 5.2 7.7 5.4 7.5L8 5.2C8.2 5.1 8.5 5 8.7 5H9.2C9.2 6.5 10.4 7.8 11.9 7.8C13.4 7.8 14.7 6.6 14.7 5H15.2C15.4 5 15.7 5.1 15.9 5.3L18.5 7.6C18.7 7.8 18.7 8.2 18.5 8.4L16.7 9.9C16.5 10 16.5 10.1 16.5 10.3Z" fill="black"/>
</svg>
