<svg width="24" height="24" viewBox="0 0 24 24" fill="none" xmlns="http://www.w3.org/2000/svg">
<path d="M12.5001 15.7497C12.0901 15.7497 11.7501 15.4097 11.7501 14.9997C11.7501 14.5897 12.0901 14.2497 12.5001 14.2497H21.3301C21.5701 14.2497 21.7801 14.0797 21.8301 13.8497C22.1501 12.1497 22.0801 10.3097 21.2701 8.36975C19.8001 4.83975 16.5001 2.27975 12.6801 2.02975C6.46009 1.61975 1.36009 6.88975 2.07009 13.1597C2.58009 17.6497 6.18009 21.3297 10.6601 21.9097C15.1301 22.4897 19.1101 20.1297 20.9401 16.4897C21.1101 16.1497 20.8801 15.7497 20.5001 15.7497H12.5001ZM13.1601 6.60975C14.0201 6.60975 14.7201 7.30975 14.7201 8.16975C14.7201 9.02975 14.0201 9.72975 13.1601 9.72975C12.3001 9.72975 11.6001 9.02975 11.6001 8.16975C11.6001 7.30975 12.3001 6.60975 13.1601 6.60975Z" fill="black"/>
</svg>
