<svg width="24" height="24" viewBox="0 0 24 24" fill="none" xmlns="http://www.w3.org/2000/svg">
<path d="M12.5001 15.7502C12.0901 15.7502 11.7501 15.4102 11.7501 15.0002C11.7501 14.5902 12.0901 14.2502 12.5001 14.2502H21.3301C21.5701 14.2502 21.7801 14.0802 21.8301 13.8502C22.1501 12.1502 22.0801 10.3102 21.2701 8.37023C19.8001 4.84023 16.5001 2.28023 12.6801 2.03023C6.46009 1.62023 1.36009 6.89023 2.07009 13.1602C2.58009 17.6502 6.18009 21.3302 10.6601 21.9102C15.1301 22.4902 19.1101 20.1302 20.9401 16.4902C21.1101 16.1502 20.8801 15.7502 20.5001 15.7502H12.5001ZM13.1601 6.61023C14.0201 6.61023 14.7201 7.31023 14.7201 8.17023C14.7201 9.03023 14.0201 9.73023 13.1601 9.73023C12.3001 9.73023 11.6001 9.03023 11.6001 8.17023C11.6001 7.31023 12.3001 6.61023 13.1601 6.61023Z" fill="black"/>
</svg>
