<svg width="24" height="24" viewBox="0 0 24 24" fill="none" xmlns="http://www.w3.org/2000/svg">
<path d="M11.92 15.9899C11.32 15.5299 11.42 14.5999 12.11 14.2899L21.06 10.1599C21.28 10.0599 21.4 9.81988 21.34 9.58988C20.27 5.19988 16.32 1.95988 11.61 1.99988C6.36004 2.03988 1.93004 6.36988 1.77004 11.6099C1.60004 17.2399 6.10004 21.8499 11.69 21.8499C13.53 21.8499 15.25 21.3499 16.72 20.4799C17.02 20.2999 17.03 19.8699 16.75 19.6599L11.92 15.9899ZM13.07 6.37988C13.93 6.37988 14.63 7.07988 14.63 7.93988C14.63 8.79988 13.93 9.49988 13.07 9.49988C12.21 9.49988 11.51 8.79988 11.51 7.93988C11.51 7.07988 12.21 6.37988 13.07 6.37988Z" fill="black"/>
</svg>
