<svg width="24" height="24" viewBox="0 0 24 24" fill="none" xmlns="http://www.w3.org/2000/svg">
<path d="M15 2H9C6.79 2 5 3.79 5 6V18C5 20.21 6.79 22 9 22H15C17.21 22 19 20.21 19 18V6C19 3.79 17.21 2 15 2ZM10.75 4H13.25C13.66 4 14 4.34 14 4.75C14 5.16 13.66 5.5 13.25 5.5H10.75C10.34 5.5 10 5.16 10 4.75C10 4.34 10.34 4 10.75 4ZM12 20C11.45 20 11 19.55 11 19C11 18.45 11.45 18 12 18C12.55 18 13 18.45 13 19C13 19.55 12.55 20 12 20ZM16 15C16 15.55 15.55 16 15 16H9C8.45 16 8 15.55 8 15V8.5C8 7.95 8.45 7.5 9 7.5H15C15.55 7.5 16 7.95 16 8.5V15Z" fill="black"/>
</svg>
