<svg width="24" height="24" viewBox="0 0 24 24" fill="none" xmlns="http://www.w3.org/2000/svg">
<path d="M7.5 8H3.5C3.22 8 3 7.78 3 7.5V3.5C3 3.22 3.22 3 3.5 3H7.5C7.78 3 8 3.22 8 3.5V7.5C8 7.78 7.78 8 7.5 8ZM8 20.5V16.5C8 16.22 7.78 16 7.5 16H3.5C3.22 16 3 16.22 3 16.5V20.5C3 20.78 3.22 21 3.5 21H7.5C7.78 21 8 20.78 8 20.5ZM8 14V10C8 9.72 7.78 9.5 7.5 9.5H3.5C3.22 9.5 3 9.72 3 10V14C3 14.28 3.22 14.5 3.5 14.5H7.5C7.78 14.5 8 14.28 8 14ZM14.5 7.5V3.5C14.5 3.22 14.28 3 14 3H10C9.72 3 9.5 3.22 9.5 3.5V7.5C9.5 7.78 9.72 8 10 8H14C14.28 8 14.5 7.78 14.5 7.5ZM14.5 20.5V16.5C14.5 16.22 14.28 16 14 16H10C9.72 16 9.5 16.22 9.5 16.5V20.5C9.5 20.78 9.72 21 10 21H14C14.28 21 14.5 20.78 14.5 20.5ZM14.5 14V10C14.5 9.72 14.28 9.5 14 9.5H10C9.72 9.5 9.5 9.72 9.5 10V14C9.5 14.28 9.72 14.5 10 14.5H14C14.28 14.5 14.5 14.28 14.5 14ZM21 7.5V3.5C21 3.22 20.78 3 20.5 3H16.5C16.22 3 16 3.22 16 3.5V7.5C16 7.78 16.22 8 16.5 8H20.5C20.78 8 21 7.78 21 7.5ZM21 20.5V16.5C21 16.22 20.78 16 20.5 16H16.5C16.22 16 16 16.22 16 16.5V20.5C16 20.78 16.22 21 16.5 21H20.5C20.78 21 21 20.78 21 20.5ZM21 14V10C21 9.72 20.78 9.5 20.5 9.5H16.5C16.22 9.5 16 9.72 16 10V14C16 14.28 16.22 14.5 16.5 14.5H20.5C20.78 14.5 21 14.28 21 14Z" fill="black"/>
</svg>
