<svg width="24" height="24" viewBox="0 0 24 24" fill="none" xmlns="http://www.w3.org/2000/svg">
<path d="M11.3401 6.89C11.6501 7.2 11.4301 7.74 10.9901 7.74H8.24007V20C8.24007 20.55 7.79007 21 7.24007 21C6.69007 21 6.24007 20.55 6.24007 20V7.74H3.50007C3.05007 7.74 2.83007 7.2 3.15007 6.89L6.89007 3.15C7.09007 2.95 7.40007 2.95 7.60007 3.15L11.3401 6.89ZM20.5001 16.26H17.7601V4C17.7601 3.45 17.3101 3 16.7601 3C16.2101 3 15.7601 3.45 15.7601 4V16.26H13.0201C12.5701 16.26 12.3501 16.8 12.6701 17.11L16.4101 20.85C16.6101 21.05 16.9201 21.05 17.1201 20.85L20.8601 17.11C21.1701 16.8 20.9401 16.26 20.5001 16.26Z" fill="black"/>
</svg>
