<svg width="24" height="24" viewBox="0 0 24 24" fill="none" xmlns="http://www.w3.org/2000/svg">
<path d="M11.99 6.47016V17.4602C11.99 18.3502 10.92 18.8002 10.28 18.1702L7.02 14.9302H4C3.45 14.9302 3 14.4802 3 13.9302V9.93016C3 9.38016 3.45 8.93016 4 8.93016H7.11L10.29 5.77016C10.91 5.13016 11.99 5.58016 11.99 6.47016ZM18.86 11.9602L20.65 10.1702C21.04 9.78016 21.04 9.15016 20.65 8.76016C20.26 8.37016 19.63 8.37016 19.24 8.76016L17.45 10.5502L15.66 8.76016C15.27 8.37016 14.64 8.37016 14.25 8.76016C13.86 9.15016 13.86 9.78016 14.25 10.1702L16.04 11.9602L14.25 13.7502C13.86 14.1402 13.86 14.7702 14.25 15.1602C14.45 15.3602 14.7 15.4502 14.96 15.4502C15.22 15.4502 15.47 15.3502 15.67 15.1602L17.46 13.3702L19.25 15.1602C19.45 15.3602 19.7 15.4502 19.96 15.4502C20.22 15.4502 20.47 15.3502 20.67 15.1602C21.06 14.7702 21.06 14.1402 20.67 13.7502L18.86 11.9602Z" fill="black"/>
</svg>
