<svg width="24" height="24" viewBox="0 0 24 24" fill="none" xmlns="http://www.w3.org/2000/svg">
<path d="M21 12.1298C21 15.8198 18.79 19.0898 15.37 20.4698C15.25 20.5198 15.12 20.5398 14.99 20.5398C14.59 20.5398 14.22 20.2998 14.06 19.9198C13.85 19.4098 14.1 18.8198 14.61 18.6198C17.28 17.5398 19 14.9998 19 12.1298C19 9.25981 17.28 6.71981 14.62 5.63981C14.11 5.42981 13.86 4.84981 14.07 4.33981C14.28 3.82981 14.86 3.57981 15.37 3.78981C18.79 5.16981 21 8.44981 21 12.1298ZM14.33 15.5098C14.52 15.6798 14.75 15.7598 14.99 15.7598C15.27 15.7598 15.54 15.6398 15.74 15.4198C16.55 14.4998 17 13.3298 17 12.1298C17 10.9298 16.55 9.75981 15.74 8.83981C15.37 8.41981 14.74 8.38981 14.33 8.74981C13.91 9.11981 13.87 9.74981 14.24 10.1598C14.59 10.5498 15 11.2098 15 12.1298C15 13.0498 14.59 13.7098 14.24 14.0998C13.88 14.5198 13.92 15.1498 14.33 15.5098ZM10.29 5.93981L7.11 9.10981H4C3.45 9.10981 3 9.55981 3 10.1098V14.1098C3 14.6598 3.45 15.1098 4 15.1098H7.03L10.29 18.3598C10.92 18.9898 12 18.5398 12 17.6498V6.64981C12 5.75981 10.92 5.30981 10.29 5.93981Z" fill="black"/>
</svg>
