<svg width="24" height="24" viewBox="0 0 24 24" fill="none" xmlns="http://www.w3.org/2000/svg">
<path fill-rule="evenodd" clip-rule="evenodd" d="M18.98 11.53C17.1 13.23 14.53 14.28 12.99 13.56V20C12.99 20.55 12.54 21 11.99 21C11.44 21 10.99 20.55 10.99 20V13.55C9.44999 14.29 6.86999 13.23 4.98999 11.53C2.83999 9.59996 2.46999 7.21996 3.68999 5.86996C4.90999 4.51996 7.24999 4.70996 9.38999 6.63996C10.65 7.76996 11.64 9.31996 11.98 10.7C12.32 9.31996 13.32 7.76996 14.57 6.63996C16.71 4.70996 19.06 4.51996 20.27 5.86996C21.5 7.21996 21.12 9.59996 18.98 11.53Z" fill="black"/>
</svg>
