<svg width="24" height="24" viewBox="0 0 24 24" fill="none" xmlns="http://www.w3.org/2000/svg">
<path d="M21 16.4998V17.7498C21 18.1598 20.66 18.4998 20.25 18.4998H3.75C3.34 18.4998 3 18.1598 3 17.7498V16.4998C3 14.8398 4.34 13.4998 6 13.4998H10.5V11.7298C10.5 10.8598 10.08 10.0798 9.45 9.48982C8.52 8.62982 8.03 7.31982 8.34 5.89982C8.64 4.52982 9.75 3.40982 11.11 3.09982C13.57 2.53982 15.74 4.38982 15.74 6.74982C15.74 7.83982 15.27 8.81982 14.53 9.49982C13.9 10.0798 13.49 10.8698 13.49 11.7298V13.4998H18C19.66 13.4998 21 14.8398 21 16.4998ZM20.25 19.4998H3.75C3.34 19.4998 3 19.8398 3 20.2498C3 20.6598 3.34 20.9998 3.75 20.9998H20.25C20.66 20.9998 21 20.6598 21 20.2498C21 19.8398 20.66 19.4998 20.25 19.4998Z" fill="black"/>
</svg>
