<svg width="24" height="24" viewBox="0 0 24 24" fill="none" xmlns="http://www.w3.org/2000/svg">
<path d="M21.31 11.4797L17.82 14.6797L18.77 19.3197C18.91 20.0197 18.64 20.7197 18.06 21.1397C17.74 21.3697 17.37 21.4897 17 21.4897C16.7 21.4897 16.39 21.4097 16.11 21.2497L12 18.8997L7.88002 21.2397C7.60002 21.3997 7.29002 21.4797 6.99002 21.4797C6.62002 21.4797 6.25002 21.3597 5.93002 21.1297C5.35002 20.7097 5.08002 20.0097 5.22002 19.3097L6.17002 14.6697L2.68002 11.4697C2.15003 10.9897 1.96002 10.2697 2.18002 9.58973C2.40003 8.90973 2.98002 8.43973 3.69002 8.35973L8.39003 7.82973L10.35 3.51973C10.66 2.86973 11.29 2.46973 12 2.46973C12.71 2.46973 13.34 2.86973 13.64 3.52973L15.6 7.83973L20.3 8.36973C21.01 8.44973 21.59 8.91973 21.81 9.59973C22.03 10.2797 21.84 10.9997 21.31 11.4797Z" fill="black"/>
</svg>
