<svg width="24" height="24" viewBox="0 0 24 24" fill="none" xmlns="http://www.w3.org/2000/svg">
<path d="M19.7599 8.52994L15.1799 8.00994L13.2699 3.81994C12.7699 2.72994 11.2199 2.72994 10.7199 3.81994L8.81991 8.00994L4.23991 8.52994C3.04991 8.65994 2.56991 10.1399 3.44991 10.9499L6.84991 14.0599L5.92991 18.5699C5.68991 19.7499 6.94991 20.6599 7.98991 20.0699L11.9999 17.7999L16.0099 20.0699C17.0499 20.6599 18.3099 19.7499 18.0699 18.5699L17.1499 14.0599L20.5499 10.9499C21.4299 10.1399 20.9499 8.65994 19.7599 8.52994ZM8.99991 11.1199C8.99991 10.6399 9.38991 10.2399 9.87991 10.2399C10.3599 10.2399 10.7599 10.6299 10.7599 11.1199C10.7599 11.5999 10.3699 11.9999 9.87991 11.9999C9.38991 11.9999 8.99991 11.6099 8.99991 11.1199ZM14.1699 14.2899C13.6699 14.9899 12.8599 15.3999 11.9999 15.3999C11.1399 15.3999 10.3299 14.9799 9.82991 14.2899C9.66991 14.0699 9.71991 13.7499 9.93991 13.5899C10.1699 13.4299 10.4799 13.4799 10.6399 13.7099C11.2599 14.5799 12.7299 14.5799 13.3599 13.7099C13.5199 13.4799 13.8299 13.4299 14.0599 13.5899C14.2799 13.7499 14.3299 14.0699 14.1699 14.2899ZM14.1199 11.9999C13.6399 11.9999 13.2399 11.6099 13.2399 11.1199C13.2399 10.6399 13.6299 10.2399 14.1199 10.2399C14.5999 10.2399 14.9999 10.6299 14.9999 11.1199C14.9999 11.6099 14.6099 11.9999 14.1199 11.9999Z" fill="black"/>
</svg>
