<svg width="24" height="24" viewBox="0 0 24 24" fill="none" xmlns="http://www.w3.org/2000/svg">
<path d="M7.2001 21.7848C6.7101 21.7848 6.2201 21.6248 5.7901 21.3248C5.0201 20.7648 4.6601 19.8348 4.8501 18.9048L5.6801 14.8348L2.6101 12.0248C1.9101 11.3848 1.6501 10.4148 1.9501 9.51482C2.2401 8.60483 3.0201 7.97482 3.9601 7.87482L8.0901 7.39482L9.8101 3.60482C10.2001 2.73482 11.0401 2.19482 11.9901 2.19482C12.9401 2.19482 13.7801 2.73482 14.1801 3.60482L15.9001 7.38482L20.0301 7.85482C20.9801 7.96482 21.7501 8.59482 22.0401 9.49482C22.3301 10.4048 22.0801 11.3648 21.3801 12.0048L18.3101 14.8148L19.1401 18.8848C19.3301 19.8148 18.9701 20.7448 18.2001 21.3048C17.4301 21.8648 16.4301 21.9248 15.6101 21.4548L12.0001 19.4148L8.3801 21.4648C8.0101 21.6748 7.6001 21.7848 7.2001 21.7848ZM12.0001 4.20482C11.9001 4.20482 11.7301 4.23482 11.6401 4.43482L9.4501 9.25482L4.1901 9.85482C3.9701 9.87482 3.8801 10.0348 3.8501 10.1248C3.8201 10.2148 3.8001 10.3948 3.9601 10.5448L7.8601 14.1148L6.8101 19.2948C6.7701 19.5148 6.8901 19.6448 6.9701 19.6948C7.0501 19.7548 7.2101 19.8348 7.4001 19.7148L12.0001 17.1048L16.6001 19.7148C16.7901 19.8248 16.9501 19.7448 17.0301 19.6948C17.1101 19.6348 17.2301 19.5148 17.1901 19.2948L16.1301 14.1148L20.0301 10.5448C20.2001 10.3948 20.1701 10.2148 20.1401 10.1248C20.1101 10.0348 20.0301 9.87482 19.8001 9.85482L14.5401 9.26482L12.3501 4.44482C12.2701 4.23482 12.1001 4.20482 12.0001 4.20482Z" fill="black"/>
</svg>
