<svg width="24" height="24" viewBox="0 0 24 24" fill="none" xmlns="http://www.w3.org/2000/svg">
<path d="M11.9102 2.46973C12.62 2.46979 13.2498 2.8696 13.5498 3.5293L15.5098 7.83984L19.8204 8.3252V12.7627L17.7305 14.6797L18.6797 19.3193C18.8197 20.0193 18.5498 20.7196 17.9698 21.1396C17.6498 21.3696 17.2801 21.4892 16.9102 21.4893C16.6102 21.4893 16.2996 21.41 16.0196 21.25L11.9102 18.8994L7.79008 21.2393C7.51021 21.3992 7.2003 21.4794 6.90043 21.4795C6.53043 21.4795 6.15988 21.3599 5.83988 21.1299C5.2599 20.7099 4.98992 20.0096 5.12992 19.3096L6.08012 14.6699L2.58988 11.4697C2.05998 10.9898 1.86997 10.2698 2.08988 9.58984C2.30985 8.90995 2.8898 8.43948 3.59965 8.35938L8.29984 7.83008L10.2598 3.51953C10.5698 2.86957 11.2002 2.46973 11.9102 2.46973Z" fill="black"/>
</svg>
