<svg width="24" height="24" viewBox="0 0 24 24" fill="none" xmlns="http://www.w3.org/2000/svg">
<path d="M6.44 9.25C6.32 8.84 6.23 8.41 6.23 7.98C6.23 5.14 8.7 3 11.99 3C13.69 3 15.33 3.63 16.61 4.78C16.69 4.85 16.83 4.98 16.98 5.14C17.57 5.73 17.57 6.68 16.98 7.26C16.39 7.84 15.44 7.85 14.86 7.26C14.76 7.16 14.68 7.08 14.62 7.03C14.09 6.55 13.22 6 11.99 6C10.37 6 9.23 6.81 9.23 7.98C9.23 8.48 9.51 8.99 9.94 9.25H6.44ZM19.5 11.25H13.96H7.64H4.5C3.81 11.25 3.25 11.81 3.25 12.5C3.25 13.19 3.81 13.75 4.5 13.75H12.25C13.17 14.2 13.83 14.55 14.22 14.79C14.68 15.08 14.77 15.61 14.77 16C14.77 17.14 13.56 18 11.96 18C10.28 18 9.19 16.91 8.9 16.57C8.36 15.95 7.41 15.88 6.78 16.43C6.15 16.98 6.09 17.92 6.64 18.55C7.15 19.12 9.02 21 11.96 21C15.27 21 17.77 18.85 17.77 16C17.77 15.17 17.58 14.41 17.22 13.75H19.5C20.19 13.75 20.75 13.19 20.75 12.5C20.75 11.81 20.19 11.25 19.5 11.25Z" fill="black"/>
</svg>
