<svg width="24" height="24" viewBox="0 0 24 24" fill="none" xmlns="http://www.w3.org/2000/svg">
<path d="M12 16.5C9.52 16.5 7.5 14.48 7.5 12C7.5 9.52 9.52 7.5 12 7.5C14.48 7.5 16.5 9.52 16.5 12C16.5 14.48 14.48 16.5 12 16.5ZM12 9C10.35 9 9 10.35 9 12C9 13.65 10.35 15 12 15C13.65 15 15 13.65 15 12C15 10.35 13.65 9 12 9ZM13 4.5V3C13 2.45 12.55 2 12 2C11.45 2 11 2.45 11 3V4.5C11 5.05 11.45 5.5 12 5.5C12.55 5.5 13 5.05 13 4.5ZM13 21V19.5C13 18.95 12.55 18.5 12 18.5C11.45 18.5 11 18.95 11 19.5V21C11 21.55 11.45 22 12 22C12.55 22 13 21.55 13 21ZM18.01 7.4L19.07 6.34C19.46 5.95 19.46 5.32 19.07 4.93C18.68 4.54 18.05 4.54 17.66 4.93L16.6 5.99C16.21 6.38 16.21 7.01 16.6 7.4C16.8 7.6 17.05 7.69 17.31 7.69C17.57 7.69 17.82 7.6 18.01 7.4ZM6.34 19.07L7.4 18.01C7.79 17.62 7.79 16.99 7.4 16.6C7.01 16.21 6.38 16.21 5.99 16.6L4.93 17.66C4.54 18.05 4.54 18.68 4.93 19.07C5.13 19.27 5.38 19.36 5.64 19.36C5.9 19.36 6.15 19.27 6.34 19.07ZM22 12C22 11.45 21.55 11 21 11H19.5C18.95 11 18.5 11.45 18.5 12C18.5 12.55 18.95 13 19.5 13H21C21.55 13 22 12.55 22 12ZM5.5 12C5.5 11.45 5.05 11 4.5 11H3C2.45 11 2 11.45 2 12C2 12.55 2.45 13 3 13H4.5C5.05 13 5.5 12.55 5.5 12ZM19.07 19.07C19.46 18.68 19.46 18.05 19.07 17.66L18.01 16.6C17.62 16.21 16.99 16.21 16.6 16.6C16.21 16.99 16.21 17.62 16.6 18.01L17.66 19.07C17.86 19.27 18.11 19.36 18.37 19.36C18.63 19.36 18.88 19.27 19.07 19.07ZM7.4 7.4C7.79 7.01 7.79 6.38 7.4 5.99L6.34 4.93C5.95 4.54 5.32 4.54 4.93 4.93C4.54 5.32 4.54 5.95 4.93 6.34L5.99 7.4C6.18 7.6 6.44 7.7 6.7 7.7C6.96 7.7 7.21 7.6 7.4 7.4Z" fill="black"/>
</svg>
