<svg width="24" height="24" viewBox="0 0 24 24" fill="none" xmlns="http://www.w3.org/2000/svg">
<path d="M15.19 10.1499C14.74 10.1499 14.52 9.60988 14.84 9.29988L16.24 7.89988C15.12 6.77988 13.62 6.12988 12 6.12988C9.54 6.12988 7.29 7.67988 6.4 9.98988C6.25 10.3899 5.87 10.6299 5.47 10.6299C5.35 10.6299 5.23 10.6099 5.11 10.5599C4.59 10.3599 4.34 9.77988 4.53 9.26988C5.71 6.19988 8.71 4.12988 12 4.12988C14.16 4.12988 16.17 4.98988 17.65 6.47988L19.12 4.99988C19.43 4.67988 19.97 4.90988 19.97 5.34988V9.63988C19.97 9.91988 19.75 10.1399 19.47 10.1399H15.19V10.1499ZM4 14.6299V18.9199C4 19.3699 4.54 19.5899 4.85 19.2699L6.35 17.7699C7.84 19.2599 9.85 20.1299 11.99 20.1299C15.28 20.1299 18.28 18.0599 19.46 14.9899C19.66 14.4699 19.4 13.8999 18.88 13.6999C18.37 13.4999 17.79 13.7599 17.59 14.2799C16.71 16.5899 14.46 18.1399 11.99 18.1399C10.38 18.1399 8.87 17.4899 7.76 16.3699L9.14 14.9899C9.45 14.6699 9.23 14.1399 8.79 14.1399H4.5C4.22 14.1299 4 14.3499 4 14.6299Z" fill="black"/>
</svg>
