<svg width="24" height="24" viewBox="0 0 24 24" fill="none" xmlns="http://www.w3.org/2000/svg">
<path d="M20 5.22V9.51C20 9.79 19.78 10.01 19.5 10.01H15.21C14.76 10.01 14.54 9.47 14.86 9.16L16.26 7.76C15.15 6.64 13.64 6 12.02 6C9.56002 6 7.31002 7.55 6.42002 9.86C6.27002 10.26 5.89002 10.5 5.49002 10.5C5.37002 10.5 5.25002 10.48 5.13002 10.43C4.61002 10.23 4.36002 9.65 4.55002 9.14C5.73002 6.07 8.73002 4 12.02 4C14.18 4 16.19 4.86 17.67 6.35L19.15 4.87C19.46 4.56 20 4.78 20 5.22ZM18.91 13.57C18.4 13.37 17.82 13.63 17.62 14.15C16.74 16.46 14.49 18.01 12.02 18.01C10.41 18.01 8.90002 17.36 7.79002 16.24L9.17002 14.86C9.48002 14.54 9.26002 14 8.81002 14H4.52002C4.24002 14 4.02002 14.22 4.02002 14.5V18.79C4.02002 19.24 4.56002 19.46 4.87002 19.14L6.37002 17.64C7.86002 19.13 9.88002 20 12.02 20C15.31 20 18.31 17.93 19.49 14.86C19.69 14.34 19.43 13.76 18.91 13.57ZM14.02 12C14.02 10.9 13.12 10 12.02 10C10.92 10 10.02 10.9 10.02 12C10.02 13.1 10.92 14 12.02 14C13.13 14 14.02 13.1 14.02 12Z" fill="black"/>
</svg>
