<svg width="24" height="24" viewBox="0 0 24 24" fill="none" xmlns="http://www.w3.org/2000/svg">
<path d="M18.0006 6.00049C19.1006 6.00049 20.0006 6.90049 20.0006 8.00049V16.0105C20.0006 17.1105 19.1006 18.0105 18.0006 18.0105H6.00061C4.90061 18.0105 4.00061 17.1105 4.00061 16.0105V8.00049C4.00061 6.90049 4.90061 6.00049 6.00061 6.00049H18.0106M18.0006 4.00049H6.00061C3.79061 4.00049 2.00061 5.79049 2.00061 8.00049V16.0105C2.00061 18.2205 3.79061 20.0105 6.00061 20.0105H18.0106C20.2206 20.0105 22.0106 18.2205 22.0106 16.0105V8.00049C22.0106 5.79049 20.2206 4.00049 18.0106 4.00049H18.0006ZM18.2506 8.50049C18.2506 7.95049 17.8006 7.50049 17.2506 7.50049H9.50061C8.95061 7.50049 8.50061 7.95049 8.50061 8.50049C8.50061 9.05049 8.95061 9.50049 9.50061 9.50049H17.2506C17.8006 9.50049 18.2506 9.05049 18.2506 8.50049ZM17.0006 12.0005C17.0006 11.4505 16.5506 11.0005 16.0006 11.0005H9.50061C8.95061 11.0005 8.50061 11.4505 8.50061 12.0005C8.50061 12.5505 8.95061 13.0005 9.50061 13.0005H16.0006C16.5506 13.0005 17.0006 12.5505 17.0006 12.0005ZM15.7506 15.5005C15.7506 14.9505 15.3006 14.5005 14.7506 14.5005H9.50061C8.95061 14.5005 8.50061 14.9505 8.50061 15.5005C8.50061 16.0505 8.95061 16.5005 9.50061 16.5005H14.7506C15.3006 16.5005 15.7506 16.0505 15.7506 15.5005ZM6.50061 7.50049C5.95061 7.50049 5.50061 7.95049 5.50061 8.50049C5.50061 9.05049 5.95061 9.50049 6.50061 9.50049C7.05061 9.50049 7.50061 9.05049 7.50061 8.50049C7.50061 7.95049 7.05061 7.50049 6.50061 7.50049ZM6.50061 11.0005C5.95061 11.0005 5.50061 11.4505 5.50061 12.0005C5.50061 12.5505 5.95061 13.0005 6.50061 13.0005C7.05061 13.0005 7.50061 12.5505 7.50061 12.0005C7.50061 11.4505 7.05061 11.0005 6.50061 11.0005ZM6.50061 14.5005C5.95061 14.5005 5.50061 14.9505 5.50061 15.5005C5.50061 16.0505 5.95061 16.5005 6.50061 16.5005C7.05061 16.5005 7.50061 16.0505 7.50061 15.5005C7.50061 14.9505 7.05061 14.5005 6.50061 14.5005Z" fill="black"/>
</svg>
