<svg width="24" height="24" viewBox="0 0 24 24" fill="none" xmlns="http://www.w3.org/2000/svg">
<path d="M20.5001 6.5H7.28009C6.78009 6.5 6.30009 6.69 5.93009 7.03L2.11009 10.53C1.25009 11.32 1.25009 12.69 2.11009 13.48L5.93009 16.98C6.30009 17.32 6.78009 17.51 7.28009 17.51H20.5001C21.0501 17.51 21.5001 17.06 21.5001 16.51V7.51C21.5001 6.95 21.0501 6.5 20.5001 6.5ZM5.00009 13C4.45009 13 4.00009 12.55 4.00009 12C4.00009 11.45 4.45009 11 5.00009 11C5.55009 11 6.00009 11.45 6.00009 12C6.00009 12.55 5.55009 13 5.00009 13ZM17.5801 11.43L16.0901 12.79L16.4901 14.77C16.5801 15.19 16.1301 15.52 15.7501 15.31L14.0001 14.3L12.2501 15.29C11.8801 15.5 11.4301 15.18 11.5101 14.75L11.9101 12.77L10.4201 11.41C10.1001 11.12 10.2701 10.59 10.7001 10.54L12.7001 10.31L13.5301 8.47C13.7101 8.08 14.2601 8.08 14.4401 8.47L15.2701 10.31L17.2701 10.54C17.7201 10.61 17.8901 11.14 17.5801 11.43Z" fill="black"/>
</svg>
