<svg width="24" height="24" viewBox="0 0 24 24" fill="none" xmlns="http://www.w3.org/2000/svg">
<path d="M19.5001 6.5H7.28009C6.78009 6.5 6.30009 6.69 5.93009 7.03L2.11009 10.53C1.25009 11.32 1.25009 12.69 2.11009 13.48L5.93009 16.98C6.30009 17.32 6.78009 17.51 7.28009 17.51H19.5001C20.6001 17.51 21.5001 16.61 21.5001 15.51V8.51C21.5001 7.4 20.6001 6.5 19.5001 6.5ZM5.00009 13C4.45009 13 4.00009 12.55 4.00009 12C4.00009 11.45 4.45009 11 5.00009 11C5.55009 11 6.00009 11.45 6.00009 12C6.00009 12.55 5.55009 13 5.00009 13Z" fill="black"/>
</svg>
