<svg width="24" height="24" viewBox="0 0 24 24" fill="none" xmlns="http://www.w3.org/2000/svg">
<path d="M3 17.8399V11.0899C3 9.98992 3.9 9.08992 5 9.08992C6.1 9.08992 7 9.98992 7 11.0899V17.8399C7 18.9399 6.1 19.8399 5 19.8399C3.9 19.8399 3 18.9499 3 17.8399ZM20.36 17.2899L21.42 13.2499C21.71 12.1499 21.48 11.0099 20.79 10.1099C20.1 9.20992 19.05 8.69992 17.92 8.69992H15.8L16.87 7.25992C17.67 6.18992 17.49 4.66992 16.46 3.80992C15.43 2.93992 13.9 3.03992 12.98 4.01992L9.42 7.81992C8.78 8.49992 8.38 9.36992 8.3 10.3199C8.3 10.3906 8.3 10.5099 8.3 10.5699V16.5699C8.3 18.4299 9.81 19.9499 11.68 19.9499H16.9C18.52 19.9599 19.94 18.8599 20.36 17.2899ZM10.08 10.5099C10.1 10.1099 10.23 9.52992 10.7 9.02992L14.26 5.22992C14.54 4.92992 15.02 4.89992 15.34 5.15992C15.66 5.42992 15.71 5.89992 15.47 6.22992L13.37 9.06992C13.17 9.33992 13.14 9.68992 13.29 9.98992C13.44 10.2799 13.74 10.4699 14.07 10.4699H17.92C18.51 10.4699 19.05 10.7399 19.4 11.1999C19.76 11.6599 19.88 12.2599 19.73 12.8199L18.67 16.8599C18.46 17.6599 17.73 18.2199 16.91 18.2199H11.69C10.79 18.2199 10.07 17.4899 10.07 16.5999V10.6799C10.07 10.6099 10.08 10.5499 10.08 10.5099Z" fill="black"/>
</svg>
