<svg width="24" height="24" viewBox="0 0 24 24" fill="none" xmlns="http://www.w3.org/2000/svg">
<path d="M3 17.8398V11.0898C3 9.98985 3.9 9.08985 5 9.08985C6.1 9.08985 7 9.98985 7 11.0898V17.8398C7 18.9398 6.1 19.8398 5 19.8398C3.9 19.8398 3 18.9498 3 17.8398ZM17.92 8.83985H15.13L16.59 6.86985C17.27 5.94985 17.12 4.65985 16.24 3.92985C15.36 3.18985 14.06 3.26985 13.28 4.10985L9.53 8.10985C8.88 8.79985 8.53 9.67985 8.5 10.5598C8.49674 10.6556 8.5 10.7498 8.5 10.8398V16.8398C8.5 18.4998 9.84 19.8398 11.5 19.8398H16.83C18.41 19.8398 19.79 18.7798 20.21 17.2598L21.3 13.2598C21.9 11.0398 20.23 8.83985 17.92 8.83985Z" fill="black"/>
</svg>
