<svg width="24" height="24" viewBox="0 0 24 24" fill="none" xmlns="http://www.w3.org/2000/svg">
<path d="M10.5 8V18.75C10.5 19.44 9.94 20 9.25 20C8.56 20 8 19.44 8 18.75V8H4.25C3.56 8 3 7.44 3 6.75C3 6.06 3.56 5.5 4.25 5.5H14.25C14.94 5.5 15.5 6.06 15.5 6.75C15.5 7.44 14.94 8 14.25 8H10.5ZM19.75 10.21H13.75C13.06 10.21 12.5 10.77 12.5 11.46C12.5 12.15 13.06 12.71 13.75 12.71H15.5V18.75C15.5 19.44 16.06 20 16.75 20C17.44 20 18 19.44 18 18.75V12.71H19.75C20.44 12.71 21 12.15 21 11.46C21 10.77 20.44 10.21 19.75 10.21Z" fill="black"/>
</svg>
