<svg width="24" height="24" viewBox="0 0 24 24" fill="none" xmlns="http://www.w3.org/2000/svg">
<path d="M10.23 6.5V18.75C10.23 19.0815 10.0982 19.3995 9.86377 19.6339C9.62935 19.8683 9.3115 20 8.97998 20C8.64846 20 8.33061 19.8683 8.09619 19.6339C7.86177 19.3995 7.72998 19.0815 7.72998 18.75V6.5H3.21997C2.88845 6.5 2.5706 6.3683 2.33618 6.13388C2.10176 5.89946 1.96997 5.58152 1.96997 5.25C1.96997 4.91848 2.10176 4.60054 2.33618 4.36612C2.5706 4.1317 2.88845 4 3.21997 4H14.75C15.0815 4 15.3994 4.1317 15.6338 4.36612C15.8682 4.60054 16 4.91848 16 5.25C16 5.58152 15.8682 5.89946 15.6338 6.13388C15.3994 6.3683 15.0815 6.5 14.75 6.5H10.23ZM20.5 8.75H13.5C13.1685 8.75 12.8506 8.8817 12.6162 9.11612C12.3818 9.35054 12.25 9.66848 12.25 10C12.25 10.3315 12.3818 10.6495 12.6162 10.8839C12.8506 11.1183 13.1685 11.25 13.5 11.25H15.75V18.75C15.75 19.0815 15.8818 19.3995 16.1162 19.6339C16.3506 19.8683 16.6685 20 17 20C17.3315 20 17.6494 19.8683 17.8838 19.6339C18.1182 19.3995 18.25 19.0815 18.25 18.75V11.25H20.5C20.8315 11.25 21.1494 11.1183 21.3838 10.8839C21.6182 10.6495 21.75 10.3315 21.75 10C21.75 9.66848 21.6182 9.35054 21.3838 9.11612C21.1494 8.8817 20.8315 8.75 20.5 8.75Z" fill="black"/>
</svg>
