<svg width="24" height="24" viewBox="0 0 24 24" fill="none" xmlns="http://www.w3.org/2000/svg">
<path d="M18.7499 9.75C18.7499 13.48 15.7299 16.5 11.9999 16.5C8.26991 16.5 5.24991 13.48 5.24991 9.75C5.24991 6.02 8.26991 3 11.9999 3C15.7299 3 18.7499 6.02 18.7499 9.75ZM8.05991 17.09C7.58991 16.79 7.23991 16.39 6.99991 15.93C6.64991 15.25 5.65991 15.26 5.24991 15.91L3.57991 18.55C3.36991 18.88 3.59991 19.3 3.97991 19.32L5.70991 19.39C6.24991 19.41 6.72991 19.72 6.97991 20.19L7.77991 21.73C7.95991 22.07 8.43991 22.09 8.64991 21.77L10.3199 19.13C10.7299 18.49 10.3199 17.59 9.55991 17.56C9.04991 17.54 8.52991 17.39 8.05991 17.09ZM14.4399 17.56C13.6799 17.59 13.2699 18.49 13.6799 19.13L15.3499 21.77C15.5599 22.1 16.0399 22.07 16.2199 21.73L17.0199 20.19C17.2699 19.71 17.7499 19.41 18.2899 19.39L20.0199 19.32C20.3999 19.3 20.6299 18.88 20.4199 18.55L18.7499 15.91C18.3399 15.27 17.3499 15.25 16.9999 15.93C16.7599 16.39 16.4099 16.79 15.9399 17.09C15.4699 17.39 14.9599 17.54 14.4399 17.56Z" fill="black"/>
</svg>
