<svg width="24" height="24" viewBox="0 0 24 24" fill="none" xmlns="http://www.w3.org/2000/svg">
<path d="M20.9501 19.44C21.1301 19.75 20.8501 20.11 20.5001 20.02L18.6701 19.54C18.4001 19.47 18.1301 19.63 18.0601 19.89L17.5701 21.7C17.4801 22.04 17.0101 22.1 16.8401 21.8L13.7301 16.44C15.3401 16.1 16.7801 15.31 17.9101 14.2L20.9501 19.44ZM3.51009 20.02L5.34009 19.53C5.61009 19.46 5.88009 19.62 5.95009 19.88L6.44009 21.7C6.53009 22.04 7.00009 22.1 7.17009 21.8L10.2801 16.45C8.67009 16.11 7.23009 15.32 6.10009 14.21L3.06009 19.45C2.88009 19.75 3.16009 20.11 3.51009 20.02ZM18.3101 8.28C18.3101 11.75 15.4801 14.56 12.0001 14.56C8.52009 14.56 5.69009 11.75 5.69009 8.28C5.69009 4.81 8.51009 2 12.0001 2C15.4901 2 18.3101 4.81 18.3101 8.28ZM15.5601 6.55L13.4601 6.31L12.5801 4.4C12.3501 3.9 11.6401 3.9 11.4101 4.4L10.5401 6.31L8.44009 6.55C7.89009 6.61 7.67009 7.28 8.08009 7.65L9.64009 9.07L9.22009 11.13C9.11009 11.67 9.69009 12.08 10.1701 11.81L12.0001 10.78L13.8401 11.82C14.3201 12.09 14.9001 11.67 14.7901 11.14L14.3701 9.08L15.9301 7.66C16.3301 7.28 16.1101 6.61 15.5601 6.55Z" fill="black"/>
</svg>
