<svg width="24" height="24" viewBox="0 0 24 24" fill="none" xmlns="http://www.w3.org/2000/svg">
<path d="M14.0801 11.9998C14.0801 13.0998 13.1801 13.9998 12.0801 13.9998C10.9801 13.9998 10.0801 13.0998 10.0801 11.9998C10.0801 10.8998 10.9801 9.99976 12.0801 9.99976C13.1801 9.99976 14.0801 10.8998 14.0801 11.9998ZM16.4301 7.74976C16.0301 7.36976 15.4001 7.37976 15.0201 7.77976C14.6401 8.17976 14.6501 8.80976 15.0501 9.18976C15.8301 9.93976 16.2601 10.9398 16.2601 11.9998C16.2601 13.0598 15.8301 14.0598 15.0501 14.8098C14.6501 15.1898 14.6401 15.8298 15.0201 16.2198C15.2201 16.4198 15.4801 16.5298 15.7401 16.5298C15.9901 16.5298 16.2401 16.4398 16.4301 16.2498C17.6101 15.1198 18.2501 13.6098 18.2501 11.9998C18.2501 10.3898 17.6101 8.87976 16.4301 7.74976ZM9.14008 7.77976C8.76008 7.37976 8.12008 7.36976 7.73008 7.74976C6.55008 8.87976 5.90008 10.3898 5.90008 11.9998C5.90008 13.6098 6.55008 15.1198 7.72008 16.2498C7.91008 16.4398 8.16008 16.5298 8.41008 16.5298C8.67008 16.5298 8.93008 16.4298 9.13008 16.2198C9.51008 15.8198 9.50008 15.1898 9.10008 14.8098C8.33008 14.0598 7.90008 13.0598 7.90008 11.9998C7.90008 10.9398 8.33008 9.93976 9.11008 9.18976C9.51008 8.80976 9.52008 8.17976 9.14008 7.77976ZM19.1401 5.14976C18.7401 4.76976 18.1101 4.77976 17.7301 5.17976C17.3501 5.57976 17.3601 6.20976 17.7601 6.58976C19.2601 8.03976 20.0901 9.95976 20.0901 11.9998C20.0901 14.0398 19.2601 15.9598 17.7601 17.4098C17.3601 17.7898 17.3501 18.4298 17.7301 18.8198C17.9301 19.0198 18.1901 19.1298 18.4501 19.1298C18.7001 19.1298 18.9501 19.0398 19.1401 18.8498C21.0401 17.0198 22.0801 14.5898 22.0801 11.9998C22.0801 9.40976 21.0301 6.97976 19.1401 5.14976ZM4.08008 11.9998C4.08008 9.95976 4.91008 8.03976 6.41008 6.58976C6.81008 6.20976 6.82008 5.56976 6.44008 5.17976C6.06008 4.77976 5.42008 4.76976 5.03008 5.14976C3.12008 6.97976 2.08008 9.40976 2.08008 11.9998C2.08008 14.5898 3.12008 17.0198 5.02008 18.8498C5.21008 19.0398 5.46008 19.1298 5.71008 19.1298C5.97008 19.1298 6.23008 19.0298 6.43008 18.8198C6.81008 18.4198 6.80008 17.7898 6.40008 17.4098C4.90008 15.9598 4.08008 14.0398 4.08008 11.9998Z" fill="black"/>
</svg>
