<svg width="24" height="24" viewBox="0 0 24 24" fill="none" xmlns="http://www.w3.org/2000/svg">
<path d="M19.25 8.81L18.33 19.4C18.25 20.31 17.5 21 16.59 21H7.42C6.5 21 5.76 20.31 5.68 19.4L4.75 8.81C4.72 8.4 5.02 8.04 5.43 8C5.83 7.96 6.21 8.27 6.24 8.68L7.16 19.27C7.17 19.4 7.28 19.5 7.41 19.5H9.23L8.75 8.78C8.73 8.37 9.05 8.02 9.47 8C9.88 7.96 10.23 8.3 10.25 8.71L10.74 19.49H13.27L13.76 8.71C13.77 8.3 14.12 7.97 14.53 8C14.94 8.02 15.26 8.37 15.25 8.78L14.76 19.5H16.58C16.71 19.5 16.82 19.4 16.83 19.27L17.75 8.68C17.79 8.27 18.15 7.96 18.56 8C18.98 8.04 19.28 8.4 19.25 8.81ZM20 6.25C20 6.66 19.66 7 19.25 7H4.75C4.34 7 4 6.66 4 6.25C4 5.84 4.34 5.5 4.75 5.5H7.75V4.75C7.75 3.78 8.54 3 9.5 3H14.5C15.46 3 16.25 3.79 16.25 4.75V5.5H19.25C19.66 5.5 20 5.84 20 6.25ZM9.25 5.5H14.75V4.75C14.75 4.61 14.64 4.5 14.5 4.5H9.5C9.36 4.5 9.25 4.61 9.25 4.75V5.5Z" fill="black"/>
</svg>
