<svg width="24" height="24" viewBox="0 0 24 24" fill="none" xmlns="http://www.w3.org/2000/svg">
<path d="M12.03 2C6.49 2 2 6.49 2 12.03C2 13.54 2.34 14.96 2.94 16.24L5.47 11.79C5.83 11.16 6.48 10.78 7.21 10.78C7.94 10.78 8.59 11.16 8.95 11.79L11.23 15.81L13.53 11.76L11.87 10.97C11.15 10.63 11.1 9.62 11.79 9.21L16.17 6.61C16.78 6.25 17.57 6.62 17.67 7.33L18.41 12.37C18.53 13.16 17.71 13.76 16.99 13.42L15.35 12.64L12.98 16.82C12.62 17.45 11.97 17.83 11.24 17.83C10.51 17.83 9.86 17.45 9.5 16.82L7.22 12.8L4.12 18.19C5.96 20.54 8.81 22.06 12.03 22.06C17.57 22.06 22.06 17.57 22.06 12.03C22.06 6.49 17.57 2 12.03 2Z" fill="black"/>
</svg>
