<svg width="24" height="24" viewBox="0 0 24 24" fill="none" xmlns="http://www.w3.org/2000/svg">
<path d="M11.97 2C6.46 2 2 6.46 2 11.97C2 17.48 6.46 21.94 11.97 21.94C17.48 21.94 21.94 17.48 21.94 11.97C21.94 6.46 17.48 2 11.97 2ZM11.97 19.92C9.35 19.92 7.02 18.64 5.57 16.67L7.52 12.82L9.14 15.99C9.49 16.67 10.17 17.09 10.93 17.09C11.69 17.09 12.38 16.67 12.72 15.99L14.47 12.58L15.83 13.23C16.55 13.57 17.37 12.97 17.25 12.18L16.6 7.74C16.5 7.04 15.71 6.66 15.1 7.02L11.24 9.31C10.55 9.72 10.6 10.73 11.32 11.07L12.64 11.7L10.94 15.06L9.32 11.9C8.97 11.22 8.29 10.8 7.53 10.8C6.77 10.8 6.08 11.22 5.74 11.9L4.43 14.46C4.17 13.68 4.02 12.84 4.02 11.97C4.02 7.59 7.58 4.02 11.97 4.02C16.36 4.02 19.92 7.58 19.92 11.97C19.92 16.36 16.35 19.92 11.97 19.92Z" fill="black"/>
</svg>
