<svg width="24" height="24" viewBox="0 0 24 24" fill="none" xmlns="http://www.w3.org/2000/svg">
<path d="M3.93005 21C3.38005 21 2.93005 20.55 2.93005 20V4C2.93005 3.45 3.38005 3 3.93005 3C4.48005 3 4.93005 3.45 4.93005 4V20C4.93005 20.55 4.48005 21 3.93005 21ZM20.6301 20.7C21.0201 20.31 21.0201 19.68 20.6301 19.29L13.3401 12L20.6301 4.71C21.0201 4.32 21.0201 3.69 20.6301 3.3C20.2401 2.91 19.6101 2.91 19.2201 3.3L11.9301 10.59C11.1501 11.37 11.1501 12.64 11.9301 13.42L19.2201 20.71C19.4201 20.91 19.6701 21 19.9301 21C20.1901 21 20.4301 20.89 20.6301 20.7Z" fill="black"/>
</svg>
