<svg width="24" height="24" viewBox="0 0 24 24" fill="none" xmlns="http://www.w3.org/2000/svg">
<path d="M20.0001 21C19.4501 21 19.0001 20.55 19.0001 20V4C19.0001 3.45 19.4501 3 20.0001 3C20.5501 3 21.0001 3.45 21.0001 4V20C21.0001 20.55 20.5501 21 20.0001 21ZM4.71006 20.7L12.0001 13.41C12.7801 12.63 12.7801 11.36 12.0001 10.58L4.71006 3.3C4.32006 2.91 3.69006 2.91 3.30006 3.3C2.91006 3.69 2.91006 4.32 3.30006 4.71L10.5801 12L3.29006 19.29C2.90006 19.68 2.90006 20.31 3.29006 20.7C3.49006 20.9 3.74006 20.99 4.00006 20.99C4.26006 20.99 4.51006 20.89 4.71006 20.7Z" fill="black"/>
</svg>
