<svg width="24" height="24" viewBox="0 0 24 24" fill="none" xmlns="http://www.w3.org/2000/svg">
<path d="M4 21.5C3.60218 21.5 3.22076 21.342 2.93945 21.0607C2.65815 20.7794 2.5 20.3978 2.5 20V4C2.5 3.60218 2.65815 3.22064 2.93945 2.93933C3.22076 2.65803 3.60218 2.5 4 2.5C4.39782 2.5 4.77949 2.65803 5.06079 2.93933C5.3421 3.22064 5.5 3.60218 5.5 4V20C5.5 20.3978 5.3421 20.7794 5.06079 21.0607C4.77949 21.342 4.39782 21.5 4 21.5ZM21 21.05C21.1403 20.9115 21.2519 20.7464 21.3279 20.5645C21.4039 20.3825 21.4429 20.1872 21.4429 19.99C21.4429 19.7928 21.4039 19.5976 21.3279 19.4156C21.2519 19.2337 21.1403 19.0686 21 18.9301L14.0701 12L21 5.06995C21.265 4.7856 21.4094 4.4096 21.4026 4.021C21.3957 3.63239 21.2382 3.26164 20.9634 2.98682C20.6886 2.71199 20.3178 2.55446 19.9292 2.54761C19.5406 2.54075 19.1645 2.68499 18.8801 2.94995L11.6001 10.23C11.3673 10.4622 11.1827 10.7381 11.0566 11.0419C10.9306 11.3456 10.8657 11.6712 10.8657 12C10.8657 12.3288 10.9306 12.6544 11.0566 12.9581C11.1827 13.2619 11.3673 13.5378 11.6001 13.77L18.8801 21.05C19.0186 21.1903 19.1837 21.3014 19.3657 21.377C19.5477 21.4525 19.7431 21.4909 19.9402 21.49C20.1458 21.4997 20.3511 21.4654 20.5425 21.3895C20.7339 21.3137 20.8568 21.198 21 21.05Z" fill="black"/>
</svg>
