<svg width="24" height="24" viewBox="0 0 24 24" fill="none" xmlns="http://www.w3.org/2000/svg">
<path d="M19.9902 21.5C19.5924 21.5 19.2107 21.342 18.9294 21.0607C18.6481 20.7794 18.4902 20.3978 18.4902 20V4C18.4902 3.60218 18.6481 3.22064 18.9294 2.93933C19.2107 2.65803 19.5924 2.5 19.9902 2.5C20.3881 2.5 20.7695 2.65803 21.0508 2.93933C21.3321 3.22064 21.4902 3.60218 21.4902 4V20C21.4902 20.3978 21.3321 20.7794 21.0508 21.0607C20.7695 21.342 20.3881 21.5 19.9902 21.5ZM5.06006 21.05L12.3401 13.77C12.5729 13.5378 12.7578 13.2619 12.8838 12.9581C13.0098 12.6544 13.0747 12.3288 13.0747 12C13.0747 11.6712 13.0098 11.3456 12.8838 11.0419C12.7578 10.7381 12.5729 10.4622 12.3401 10.23L5.06006 2.94995C4.77571 2.68499 4.39959 2.54075 4.01099 2.54761C3.62238 2.55446 3.25163 2.71199 2.97681 2.98682C2.70198 3.26164 2.5447 3.63239 2.53784 4.021C2.53099 4.4096 2.67523 4.7856 2.94019 5.06995L9.87012 12L2.94019 18.9301C2.7999 19.0686 2.68833 19.2337 2.6123 19.4156C2.53628 19.5976 2.49731 19.7928 2.49731 19.99C2.49731 20.1872 2.53628 20.3825 2.6123 20.5645C2.68833 20.7464 2.7999 20.9115 2.94019 21.05C3.07763 21.1917 3.24254 21.3037 3.4248 21.3794C3.60707 21.4551 3.80267 21.4926 4 21.49C4.19708 21.4909 4.39244 21.4525 4.57446 21.377C4.75649 21.3014 4.92157 21.1903 5.06006 21.05Z" fill="black"/>
</svg>
