<svg width="24" height="24" viewBox="0 0 24 24" fill="none" xmlns="http://www.w3.org/2000/svg">
<path d="M17.99 5.39986H14.93L16.19 4.18986C16.59 3.80986 16.6 3.16986 16.22 2.77986C15.84 2.37986 15.2 2.36986 14.81 2.74986L12.06 5.39986H11.95L9.18999 2.74986C8.78999 2.36986 8.15999 2.37986 7.76999 2.77986C7.38999 3.16986 7.39999 3.80986 7.79999 4.18986L9.05999 5.39986H5.98999C3.77999 5.39986 1.98999 7.18986 1.98999 9.39986V15.5299C1.98999 17.3899 3.26999 18.9399 4.98999 19.3899V19.4699C4.98999 20.0199 5.43999 20.4699 5.98999 20.4699H7.98999C8.51999 20.4699 8.93999 20.0599 8.97999 19.5399H15.01C15.05 20.0599 15.47 20.4699 16 20.4699H18C18.55 20.4699 19 20.0199 19 19.4699V19.3899C20.72 18.9399 22 17.3899 22 15.5299V9.39986C21.99 7.19986 20.2 5.39986 17.99 5.39986ZM16.99 14.4699C16.99 15.5699 16.09 16.4699 14.99 16.4699H6.98999C5.88999 16.4699 4.98999 15.5699 4.98999 14.4699V10.4699C4.98999 9.36986 5.88999 8.46986 6.98999 8.46986H14.99C16.09 8.46986 16.99 9.36986 16.99 10.4699V14.4699ZM19.49 16.4699C18.94 16.4699 18.49 16.0199 18.49 15.4699C18.49 14.9199 18.94 14.4699 19.49 14.4699C20.04 14.4699 20.49 14.9199 20.49 15.4699C20.49 16.0199 20.04 16.4699 19.49 16.4699ZM19.49 13.4699C18.94 13.4699 18.49 13.0199 18.49 12.4699C18.49 11.9199 18.94 11.4699 19.49 11.4699C20.04 11.4699 20.49 11.9199 20.49 12.4699C20.49 13.0199 20.04 13.4699 19.49 13.4699Z" fill="black"/>
</svg>
