<svg width="24" height="24" viewBox="0 0 24 24" fill="none" xmlns="http://www.w3.org/2000/svg">
<path d="M8.65999 19.3098C15.45 19.3098 19.17 13.6798 19.17 8.7998C19.17 8.6398 19.17 8.4798 19.16 8.3198C19.88 7.8098 20.5 7.1598 21 6.4198C20.33 6.7198 19.61 6.9098 18.88 6.9998C19.65 6.5398 20.23 5.8098 20.5 4.9598C19.78 5.3898 18.98 5.6898 18.15 5.8598C16.75 4.3698 14.41 4.2998 12.92 5.6998C11.96 6.5998 11.55 7.9498 11.85 9.2298C8.88999 9.0698 6.12999 7.6698 4.24999 5.3598C3.26999 7.0498 3.76999 9.2098 5.39999 10.2898C4.80999 10.2698 4.23999 10.1098 3.71999 9.8298C3.71999 9.8498 3.71999 9.8598 3.71999 9.8798C3.71999 11.6398 4.95999 13.1498 6.67999 13.4998C6.13999 13.6498 5.56999 13.6698 5.00999 13.5598C5.48999 15.0598 6.87999 16.0898 8.45999 16.1198C7.14999 17.1498 5.53999 17.7098 3.86999 17.6998C3.57999 17.6998 3.27999 17.6798 2.98999 17.6498C4.68999 18.7398 6.64999 19.3098 8.65999 19.3098Z" fill="black"/>
</svg>
