<svg width="24" height="24" viewBox="0 0 24 24" fill="none" xmlns="http://www.w3.org/2000/svg">
<path d="M2.93993 13.6101C2.93993 17.8201 6.36993 21.2501 10.5799 21.2501H14.9999C15.8299 21.2501 16.4999 20.5801 16.4999 19.7501C16.4999 18.9201 15.8299 18.2501 14.9999 18.2501H10.5799C8.01993 18.2501 5.93993 16.1701 5.93993 13.6101C5.93993 11.0501 8.01993 8.97015 10.5799 8.97015H14.9099V10.6601C14.9099 11.2801 15.2599 11.8101 15.8399 12.0501C16.0299 12.1301 16.2299 12.1701 16.4199 12.1701C16.8099 12.1701 17.1799 12.0201 17.4699 11.7301L20.6199 8.56015C21.1999 7.98015 21.1999 7.02015 20.6199 6.44015L17.4699 3.29015C17.0299 2.85015 16.3999 2.73015 15.8299 2.96015C15.2599 3.20015 14.9099 3.73015 14.9099 4.35015V5.97015H10.5899C6.36993 5.96015 2.93993 9.39015 2.93993 13.6101Z" fill="black"/>
</svg>
