<svg width="24" height="24" viewBox="0 0 24 24" fill="none" xmlns="http://www.w3.org/2000/svg">
<path d="M3.43999 13.61C3.43999 17.55 6.63999 20.75 10.58 20.75H15C15.55 20.75 16 20.3 16 19.75C16 19.2 15.55 18.75 15 18.75H10.58C7.74999 18.75 5.43999 16.44 5.43999 13.61C5.43999 10.78 7.74999 8.46997 10.58 8.46997H15.41V10.66C15.41 11.55 16.49 12 17.12 11.37L20.26 8.20997C20.65 7.81997 20.65 7.18997 20.26 6.79997L17.11 3.64997C16.48 3.01997 15.4 3.46997 15.4 4.35997V6.46997H10.58C6.64999 6.45997 3.43999 9.66997 3.43999 13.61Z" fill="black"/>
</svg>
