<svg width="24" height="24" viewBox="0 0 24 24" fill="none" xmlns="http://www.w3.org/2000/svg">
<path d="M19.5 12.5V9.7C19.5 7.1 17.5 4.9 14.9 4.7C14.9 4.6 15 4.4 15 4.2C15 3.6 14.4 3 13.7 3C13 3 12.5 3.6 12.5 4.2C12.5 4.4 12.5 4.5 12.6 4.7H11.4C11.5 4.5 11.5 4.4 11.5 4.2C11.5 3.6 10.9 3 10.2 3C9.5 3 9 3.6 9 4.2C9 4.4 9.1 4.6 9.1 4.7C6.5 5 4.5 7.1 4.5 9.7V12.5C3.5 13.4 3 14.7 3 16.1V16.3C3 19.1 5.2 21.3 8 21.3H16C18.8 21.3 21 19.1 21 16.3V16.1C21 14.7 20.5 13.4 19.5 12.5ZM6.5 9.7C6.5 8 7.8 6.7 9.5 6.7H14.5C16.2 6.7 17.5 8 17.5 9.7V10.7L17.1 10.4C17 10.3 16.9 10.1 16.8 9.9C16.5 8.6 15.3 7.7 14 7.7H10C8.7 7.7 7.5 8.6 7.2 9.9C7.2 10.1 7.1 10.2 6.9 10.3L6.5 10.7V9.7ZM19 16.2C19 17.9 17.7 19.2 16 19.2H8C6.3 19.2 5 17.9 5 16.2V16C5 15.1 5.4 14.3 6 13.7L6.1 13.6L8.2 11.7C8.3 11.7 8.3 11.6 8.3 11.6C8.7 11.4 9 10.9 9.1 10.4C9.2 10 9.6 9.7 10 9.7H14C14.4 9.7 14.8 10 14.9 10.4C15 10.9 15.3 11.4 15.7 11.7L15.8 11.8L17.9 13.7L18 13.8C18.7 14.4 19 15.2 19 16.1V16.2Z" fill="black"/>
</svg>
