<svg width="24" height="24" viewBox="0 0 24 24" fill="none" xmlns="http://www.w3.org/2000/svg">
<path d="M12 2C6.48 2 2 6.48 2 12C2 17.52 6.48 22 12 22C17.52 22 22 17.52 22 12C22 6.48 17.52 2 12 2ZM16.31 9.88H19.7C19.89 10.56 20 11.27 20 12C20 12.72 19.9 13.42 19.72 14.08H16.32C16.51 12.68 16.51 11.28 16.31 9.88ZM18.85 7.88H15.89C15.57 6.72 15.11 5.56 14.52 4.41C16.34 5.01 17.87 6.26 18.85 7.88ZM10.17 16.08H13.82C13.41 17.38 12.8 18.69 11.99 19.99C11.19 18.69 10.58 17.38 10.17 16.08ZM14.3 14.08H9.7C9.48 12.68 9.48 11.28 9.72 9.88H14.3C14.52 11.29 14.53 12.68 14.3 14.08ZM12 4C12.79 5.3 13.39 6.59 13.8 7.88H10.2C10.61 6.6 11.21 5.3 12 4ZM9.49 4.41C8.9 5.57 8.44 6.72 8.12 7.88H5.15C6.13 6.26 7.66 5.01 9.49 4.41ZM7.68 14.08H4.28C4.1 13.42 4 12.72 4 12C4 11.27 4.11 10.56 4.29 9.88H7.68C7.49 11.28 7.49 12.68 7.68 14.08ZM5.13 16.08H8.1C8.42 17.25 8.89 18.42 9.49 19.59C7.65 18.98 6.11 17.72 5.13 16.08ZM14.51 19.59C15.11 18.42 15.58 17.25 15.9 16.08H18.87C17.89 17.72 16.35 18.98 14.51 19.59Z" fill="black"/>
</svg>
