<svg width="24" height="24" viewBox="0 0 24 24" fill="none" xmlns="http://www.w3.org/2000/svg">
<path d="M20.62 7.64016C20.41 6.86016 19.8 6.25016 19.03 6.04016C17.63 5.66016 12 5.66016 12 5.66016C12 5.66016 6.37 5.66016 4.97 6.04016C4.2 6.25016 3.59 6.86016 3.38 7.64016C3 9.05016 3 12.0002 3 12.0002C3 12.0002 3 14.9502 3.38 16.3602C3.59 17.1402 4.2 17.7502 4.97 17.9602C6.37 18.3402 12 18.3402 12 18.3402C12 18.3402 17.63 18.3402 19.03 17.9602C19.8 17.7502 20.41 17.1402 20.62 16.3602C21 14.9502 21 12.0002 21 12.0002C21 12.0002 21 9.05016 20.62 7.64016ZM10.16 14.6802V9.32016L14.86 12.0002L10.16 14.6802Z" fill="black"/>
</svg>
