<svg width="210" height="173" viewBox="0 0 210 173" fill="none" xmlns="http://www.w3.org/2000/svg">
<path d="M207.132 129.26C204.189 120.534 198.119 113.681 198.123 113.967C198.128 114.253 186.272 111.495 186.122 110.251C186.114 110.187 183.133 108.312 183.12 108.25C183.153 108.098 181.119 104.248 181.119 91.2419C181.119 78.2357 178.921 42.8053 148.328 28.3684C129.582 19.6479 106.654 19.8126 91.0012 25.2563C74.5121 30.9917 64.6462 37.986 51.8172 69.838C50.1198 74.0523 43.0793 78.7608 31.8553 77.1574C8.56636 73.8304 1.50045 91.4349 3.5014 103.441C5.50234 115.446 21.0435 120.256 21.0435 120.256H34.0497C34.0497 120.256 39.1287 121.806 39.0771 125.953C30.8705 134.603 34.6539 144.099 40.8515 148.798C43.825 150.843 47.1149 150.129 49.9452 150.129C55.9849 150.129 59.4991 150.003 62.063 147.268C63.9164 144.39 67.2782 145.59 68.7238 146.08C74.2389 147.952 75.2802 154.021 81.072 156.273C87.1188 158.624 96.5169 154.577 98.0424 154.217C104.225 152.759 103.998 149.975 110.258 147.75C111.065 147.463 138.195 138.292 138.195 138.292C135.219 146.415 136.13 154.69 140.398 158.558C140.398 158.558 152.299 163.947 154.325 162.994C156.26 162.083 161.387 155.009 161.866 155.009C162.492 155.009 163.658 143.554 164.084 143.032C165.728 141.012 168.897 138.266 173.116 140.265C173.337 140.382 180.468 144.416 187.122 147.268C201.129 153.271 209.245 135.532 207.132 129.26L207.132 129.26Z" fill="black"/>
<path d="M170.099 103.286C170.095 103.228 170.087 103.171 170.079 103.114C169.744 101.057 169.3 100.672 168.415 99.1868C178.802 88.5776 172.338 70.1645 168.778 62.8445C165.011 55.0994 157.512 43.5831 149.88 39.9489C142.248 36.3146 123.713 26.8656 99.3641 37.0415C75.0148 47.2173 66.4345 80.4969 66.0555 81.6257C66.0167 81.74 64.3445 87.0013 63.3675 94.5413C62.5587 98.3013 62.3572 102.282 62.6924 106.315C62.8332 113.202 64.0069 120.64 67.2443 127.374C73.3082 139.986 93.3063 147.234 97.6202 149.033C97.6202 149.033 98.183 161.332 96.5476 162.968C95.4083 176.919 123.138 174.306 122.987 163.513L122.987 149.612C122.987 149.612 133.986 144.554 140.41 137.578C145.078 133.071 148.362 125.716 149.101 123.972C149.883 124.084 151.141 124.219 152.672 124.219C156.18 124.219 161.099 123.506 164.887 120.164C168.962 116.57 170.715 110.891 170.099 103.286H170.099Z" fill="white"/>
<path d="M86.9818 104.991C89.7775 104.991 92.0439 102.725 92.0439 99.9293C92.0439 97.1336 89.7775 94.8673 86.9818 94.8673C84.1861 94.8673 81.9197 97.1336 81.9197 99.9293C81.9197 102.725 84.1861 104.991 86.9818 104.991Z" fill="black"/>
<path d="M122.561 111.461C125.357 111.461 127.623 109.194 127.623 106.399C127.623 103.603 125.357 101.337 122.561 101.337C119.765 101.337 117.499 103.603 117.499 106.399C117.499 109.194 119.765 111.461 122.561 111.461Z" fill="black"/>
<path d="M97.2949 166.995C96.7449 166.995 96.188 166.844 95.6887 166.527C94.2896 165.639 93.8754 163.784 94.7645 162.385C95.4806 160.878 95.7131 153.742 95.1894 151.143C94.6775 150.973 93.975 150.763 93.3673 150.582C86.8857 148.646 71.7086 144.114 64.3809 128.502C55.4587 109.493 62.3037 85.0306 63.1137 82.304C67.3501 66.4092 76.1775 33.2879 115.615 29.3517C133.319 27.585 150.524 34.002 162.811 46.9597C173.716 58.4604 178.732 73.1014 176.574 87.1287C176.323 88.7677 174.776 89.8896 173.151 89.6388C171.513 89.3867 170.389 87.8542 170.641 86.2159C172.515 74.0366 168.074 61.2338 158.455 51.09C147.455 39.4893 132.054 33.7431 116.211 35.3249C80.9083 38.8484 73.1028 68.1374 68.9084 83.8725C68.9016 83.8998 68.8762 83.9861 68.8684 84.0132C68.1249 86.5157 61.8367 108.953 69.8151 125.952C76.0016 139.131 88.8906 142.98 95.0849 144.83C97.9036 145.672 99.3193 146.094 100.162 147.438C102.075 150.565 101.846 162.43 99.8313 165.603C99.2597 166.503 98.2876 166.995 97.2949 166.995H97.2949Z" fill="black"/>
<path d="M155.749 93.9045C151.621 94.538 139.81 89.5241 134.449 83.881C129.789 78.9763 126.931 64.1823 126.266 61.5207C120.61 73.1652 89.3708 90.4414 61.1704 82.2149L51.0281 76.2911C51.0281 76.2911 78.2951 23.5477 121.906 28.2722C165.517 32.9967 178.59 62.481 181.86 90.828C181.221 93.1308 178.408 100.277 169.686 97.9147C163.144 87.5572 155.749 93.9045 155.749 93.9045Z" fill="black"/>
<path d="M71.4695 85.3739C68.1144 85.3739 64.6558 85.3095 61.0926 85.2151C59.4355 85.1713 58.1273 83.7924 58.1712 82.1354C58.2152 80.478 59.6436 79.1696 61.2508 79.2145C90.629 79.9917 110.964 78.8128 125.402 56.2434C126.296 54.8467 128.151 54.4394 129.549 55.3325C130.945 56.2259 131.352 58.082 130.459 59.4783C116.241 81.702 96.795 85.3739 71.4695 85.3739V85.3739Z" fill="black"/>
<path d="M141.028 141.417C140.381 141.417 139.729 141.209 139.18 140.779C137.875 139.758 137.644 137.871 138.666 136.566C144.103 129.619 145.448 122.47 145.461 122.399C145.75 120.81 147.233 119.732 148.844 119.965C148.916 119.975 157.011 121.037 161.777 116.534C164.612 113.856 165.823 109.57 165.377 103.794C164.35 97.8047 159.801 96.319 156.205 96.8713C154.558 97.1213 153.035 95.9983 152.783 94.3599C152.531 92.7214 153.656 91.1893 155.294 90.9378C161.901 89.9243 169.746 93.2464 171.322 102.946C171.334 103.026 171.344 103.106 171.351 103.186C171.98 110.952 170.133 116.922 165.864 120.931C161.022 125.477 154.416 126.124 150.709 126.084C149.77 129.243 147.664 134.808 143.393 140.265C142.801 141.021 141.919 141.417 141.028 141.417H141.028Z" fill="black"/>
<path d="M155.121 96.9468C148.761 96.9468 134.455 90.2772 129.716 74.7042C129.233 73.1183 130.127 71.4415 131.714 70.959C133.3 70.476 134.977 71.3708 135.459 72.9565C139.676 86.8144 152.473 91.3727 155.294 90.9376C156.933 90.687 158.464 91.8104 158.716 93.449C158.968 95.0875 157.843 96.6196 156.205 96.871C155.877 96.9214 155.514 96.9468 155.121 96.9468L155.121 96.9468Z" fill="black"/>
<path d="M152.34 166.186C146.854 166.186 141.523 163.202 138.821 158.213C138.032 156.755 138.573 154.934 140.031 154.144C141.489 153.355 143.31 153.897 144.099 155.354C146.503 159.791 151.583 160.921 155.143 159.731C159.172 158.384 161.025 154.561 160.228 149.244C159.458 144.109 161.313 139.818 165.192 137.763C169.233 135.623 174.321 136.524 178.152 140.061C184.267 145.706 190.196 147.198 195.302 144.38C201.111 141.172 204.758 132.75 203.431 125.607C202.668 121.503 200.016 116.37 191.713 115.225C186.049 114.444 176.751 110.261 178.125 91.0282C179.53 71.3581 172.778 54.2097 159.111 42.7419C157.842 41.6764 157.676 39.7832 158.742 38.5134C159.806 37.2445 161.698 37.077 162.97 38.1435C178.15 50.8814 185.659 69.8148 184.112 91.4558C183.575 98.9825 184.6 108.184 192.534 109.279C201.644 110.535 207.767 116.087 209.332 124.51C211.126 134.162 206.238 145.198 198.204 149.635C193.875 152.026 184.984 154.536 174.08 144.472C171.883 142.442 169.444 142.304 168.002 143.068C166.453 143.888 165.783 145.815 166.164 148.353C167.64 158.198 162.422 163.626 157.047 165.424C155.504 165.939 153.915 166.186 152.34 166.186Z" fill="black"/>
<path d="M85.3753 160.729C81.4624 160.729 75.4986 158.898 71.0092 149.36C70.5656 148.416 69.6716 147.743 68.6174 147.559C67.188 147.308 65.614 147.961 64.1837 149.391C56.0128 157.561 45.6778 156.115 39.5304 151.316C33.5598 146.654 29.9917 137.858 35.4767 128.716C36.4879 127.03 36.3218 124.743 35.5324 123.665C35.2344 123.26 34.8123 122.921 33.7434 123.176C20.9405 126.226 10.1873 122.942 4.2392 114.168C-1.53404 105.65 -1.39628 93.3191 4.56553 84.8483C10.6758 76.1684 21.3499 73.0331 33.8577 76.2467C35.3917 76.6414 40.6344 75.1742 44.3832 73.6113C44.4243 73.5942 44.4653 73.5781 44.5064 73.5629C48.4027 72.1368 51.026 64.7603 53.8037 56.9506L54.3128 55.5208C60.4788 38.2569 75.1205 25.2 94.4842 19.698C114.582 13.9875 135.92 17.5139 150.173 28.9002C151.467 29.9349 151.678 31.8235 150.644 33.1186C149.609 34.4131 147.722 34.6252 146.425 33.59C133.665 23.394 114.391 20.2826 96.1256 25.4723C78.6505 30.4374 65.4714 42.1255 59.9658 57.5397L59.4597 58.9619C56.0655 68.5041 53.1335 76.7494 46.6353 79.1757C44.2709 80.158 36.5504 83.1368 32.3629 82.0606C22.2653 79.4653 14.1345 81.6825 9.47411 88.3036C4.89479 94.8096 4.7834 104.27 9.20836 110.8C13.7437 117.49 21.9605 119.811 32.3521 117.336C35.592 116.565 38.5152 117.578 40.3745 120.118C42.6871 123.275 42.7926 128.191 40.6236 131.805C36.779 138.213 39.6222 143.771 43.2245 146.584C47.496 149.918 54.3186 150.767 59.9394 145.146C62.7924 142.294 66.2393 141.051 69.6491 141.646C72.6261 142.165 75.1654 144.093 76.4414 146.803C79.2758 152.828 83.1389 155.635 87.0441 154.504C89.856 153.689 92.0582 150.862 91.7573 148.454C91.5511 146.809 92.7177 145.309 94.363 145.103C96.0083 144.898 97.508 146.064 97.7132 147.709C98.3864 153.095 94.4343 158.612 88.7148 160.269C88.0104 160.474 86.835 160.729 85.3753 160.729L85.3753 160.729Z" fill="black"/>
<path d="M151.853 145.341C152.66 145.054 138.856 136.75 138.856 136.75C134.009 140.495 135.029 154.25 139.296 158.118C139.296 158.118 152.299 163.947 154.325 162.994L151.853 145.341Z" fill="black"/>
</svg>
