<svg width="210" height="173" viewBox="0 0 210 173" fill="none" xmlns="http://www.w3.org/2000/svg">
<path d="M207.122 129.26C204.179 120.535 198.109 113.682 198.113 113.967C198.118 114.253 186.263 111.496 186.112 110.251C186.104 110.187 183.124 108.312 183.111 108.25C183.143 108.099 181.11 104.248 181.11 91.2422C181.11 78.2361 176.222 43.686 145.628 29.2491C126.882 20.5286 106.644 19.813 90.9914 25.2567C74.5023 30.9921 64.6365 37.9863 51.8074 69.8383C50.11 74.0527 43.0696 78.7611 31.8455 77.1577C8.55658 73.8307 1.49068 91.4352 3.49163 103.441C5.49257 115.447 21.0338 120.256 21.0338 120.256H34.0399C34.0399 120.256 39.1189 121.806 39.0673 125.954C30.8607 134.604 34.6441 144.1 40.8417 148.799C43.8152 150.844 47.1052 150.13 49.9355 150.13C55.9752 150.13 59.4893 150.003 62.0532 147.269C63.9067 144.39 67.2684 145.59 68.714 146.081C74.2292 147.952 75.2704 154.021 81.0622 156.273C87.109 158.624 96.5072 154.577 98.0326 154.217C104.215 152.759 103.988 149.975 110.248 147.751C111.055 147.464 138.346 139.483 138.346 139.483C135.37 147.606 137.183 152.916 141.451 156.784C141.451 156.784 152.289 163.948 154.315 162.994C156.25 162.083 161.377 155.009 161.856 155.009C162.482 155.009 163.648 143.554 164.074 143.032C165.718 141.013 168.887 138.266 173.106 140.265C173.327 140.382 180.458 144.417 187.113 147.269C201.119 153.272 209.235 135.533 207.122 129.26Z" fill="#82BE28"/>
<path d="M170.088 103.286C170.084 103.228 170.077 103.171 170.068 103.114C169.86 101.684 169.287 100.331 168.404 99.1868C178.792 88.5776 172.327 70.1645 168.767 62.8445C165.001 55.0994 157.501 43.5831 149.869 39.9489C142.238 36.3146 123.703 26.8657 99.3536 37.0415C75.0042 47.2173 66.424 80.4969 66.045 81.6256C64.7958 85.8497 63.8967 90.1695 63.3569 94.5412C62.5551 98.4114 62.3277 102.379 62.6819 106.315C62.6865 113.578 64.2383 120.757 67.2337 127.374C73.2976 139.986 93.2958 147.234 97.6097 149.033C97.6097 149.033 98.1725 161.332 96.5371 162.968C95.3978 176.919 123.128 174.306 122.976 163.513L122.976 149.612C122.976 149.612 133.975 144.554 140.4 137.578C145.068 133.071 148.352 125.716 149.09 123.972C150.273 124.138 151.466 124.22 152.661 124.219C156.169 124.219 161.089 123.506 164.876 120.164C168.951 116.57 170.704 110.891 170.088 103.286Z" fill="white"/>
<path d="M86.972 104.991C89.7677 104.991 92.0341 102.725 92.0341 99.9293C92.0341 97.1336 89.7677 94.8673 86.972 94.8673C84.1763 94.8673 81.9099 97.1336 81.9099 99.9293C81.9099 102.725 84.1763 104.991 86.972 104.991Z" fill="black"/>
<path d="M122.551 111.461C125.347 111.461 127.613 109.194 127.613 106.399C127.613 103.603 125.347 101.337 122.551 101.337C119.756 101.337 117.489 103.603 117.489 106.399C117.489 109.194 119.756 111.461 122.551 111.461Z" fill="black"/>
<path d="M97.2852 166.995C96.7478 166.994 96.2205 166.849 95.7582 166.576C95.2959 166.302 94.9156 165.909 94.6571 165.437C94.3986 164.966 94.2712 164.435 94.2884 163.897C94.3056 163.36 94.4666 162.838 94.7547 162.384C95.4708 160.878 95.7034 153.742 95.1806 151.143C94.6687 150.973 93.9662 150.763 93.3585 150.581C86.8769 148.646 71.6998 144.114 64.3711 128.501C55.4489 109.492 62.294 85.03 63.1039 82.3034C67.3413 66.4085 76.1707 33.2871 115.606 29.3512C124.297 28.4617 133.076 29.5875 141.261 32.6411C149.445 35.6947 156.816 40.594 162.801 46.9584C173.706 58.4591 178.723 73.1004 176.565 87.1281C176.505 87.5176 176.369 87.8915 176.165 88.2285C175.96 88.5654 175.691 88.8588 175.373 89.0919C175.056 89.3249 174.695 89.4931 174.312 89.5868C173.929 89.6805 173.532 89.6979 173.142 89.638C172.753 89.578 172.379 89.4419 172.042 89.2375C171.705 89.0331 171.412 88.7643 171.179 88.4464C170.945 88.1286 170.777 87.768 170.684 87.3852C170.59 87.0024 170.573 86.6048 170.632 86.2153C172.505 74.0358 168.064 61.2327 158.445 51.0888C153.088 45.3923 146.491 41.0069 139.165 38.2729C131.839 35.5389 123.981 34.53 116.202 35.3243C80.9004 38.8477 73.093 68.1368 68.8986 83.872C68.8918 83.8994 68.8664 83.9856 68.8586 84.0126C68.1151 86.5151 61.827 108.952 69.8054 125.951C75.9919 139.131 88.8818 142.98 95.0761 144.83C97.8949 145.671 99.3096 146.094 100.153 147.436C102.065 150.566 101.836 162.43 99.8216 165.602C99.5506 166.029 99.1759 166.381 98.7324 166.625C98.289 166.868 97.7911 166.995 97.2852 166.995Z" fill="black"/>
<path d="M155.74 93.9045C151.612 94.538 144.925 91.4508 139.564 85.8077C134.904 80.903 126.921 64.1823 126.256 61.5207C120.6 73.1651 89.361 90.4414 61.1606 82.2149L51.0183 76.2911C51.0183 76.2911 78.2853 23.5477 121.896 28.2722C165.507 32.9967 178.58 62.481 181.851 90.828C181.211 93.1308 178.398 100.277 169.676 97.9147C163.134 87.5572 155.74 93.9045 155.74 93.9045Z" fill="#82BE28"/>
<path d="M71.4606 85.3737C68.1045 85.3737 64.6468 85.3094 61.0826 85.2149C60.6886 85.2046 60.3005 85.1167 59.9405 84.9563C59.5804 84.7959 59.2555 84.5662 58.9843 84.2802C58.713 83.9943 58.5007 83.6577 58.3595 83.2897C58.2184 82.9217 58.1511 82.5295 58.1614 82.1355C58.1718 81.7415 58.2597 81.3534 58.4201 80.9933C58.5805 80.6333 58.8102 80.3084 59.0962 80.0371C59.3821 79.7659 59.7187 79.5536 60.0867 79.4124C60.4547 79.2712 60.8469 79.2039 61.2409 79.2143C90.6318 79.9917 110.955 78.8125 125.392 56.2432C125.821 55.5726 126.499 55.0998 127.277 54.929C128.054 54.7581 128.868 54.9031 129.538 55.3321C130.209 55.7611 130.682 56.4389 130.853 57.2164C131.023 57.994 130.878 58.8075 130.45 59.4781C116.232 81.7018 96.786 85.3737 71.4606 85.3737Z" fill="black"/>
<path d="M141.02 141.417C140.457 141.416 139.906 141.258 139.43 140.96C138.953 140.661 138.569 140.235 138.323 139.729C138.077 139.223 137.978 138.659 138.037 138.099C138.096 137.54 138.312 137.009 138.658 136.566C141.93 132.396 144.249 127.561 145.452 122.399C145.589 121.634 146.019 120.951 146.65 120.497C147.282 120.043 148.065 119.852 148.835 119.965C148.906 119.975 157.002 121.037 161.768 116.534C164.603 113.856 165.814 109.57 165.368 103.794C164.341 97.8047 159.791 96.319 156.196 96.8713C155.409 96.9921 154.606 96.7953 153.965 96.3243C153.323 95.8533 152.895 95.1467 152.774 94.3599C152.653 93.573 152.85 92.7705 153.321 92.1287C153.792 91.487 154.498 91.0586 155.285 90.9378C161.894 89.9243 169.736 93.2464 171.312 102.946C171.325 103.026 171.335 103.105 171.342 103.186C171.971 110.952 170.124 116.922 165.855 120.931C161.013 125.477 154.385 126.124 150.701 126.084C149.155 131.22 146.675 136.028 143.385 140.265C143.104 140.624 142.746 140.915 142.336 141.114C141.926 141.314 141.476 141.417 141.02 141.417Z" fill="black"/>
<path d="M155.112 96.9469C148.753 96.9469 134.447 90.2784 129.706 74.7046C129.475 73.9432 129.556 73.1213 129.931 72.4195C130.305 71.7176 130.943 71.1932 131.705 70.9615C132.466 70.7299 133.288 70.8098 133.99 71.1839C134.692 71.558 135.217 72.1955 135.449 72.9564C139.668 86.8145 152.452 91.3706 155.285 90.9378C156.072 90.817 156.874 91.0138 157.516 91.4847C158.158 91.9557 158.586 92.6624 158.707 93.4492C158.828 94.236 158.631 95.0386 158.16 95.6803C157.689 96.3221 156.982 96.7505 156.196 96.8712C155.837 96.9237 155.475 96.949 155.112 96.9469Z" fill="black"/>
<path d="M152.33 166.186C149.57 166.186 146.86 165.446 144.482 164.044C142.105 162.642 140.146 160.629 138.811 158.213C138.623 157.866 138.505 157.486 138.465 157.094C138.424 156.702 138.461 156.306 138.573 155.928C138.685 155.55 138.871 155.199 139.119 154.892C139.368 154.586 139.674 154.332 140.02 154.145C140.367 153.957 140.747 153.839 141.139 153.798C141.531 153.758 141.927 153.794 142.305 153.907C142.683 154.019 143.035 154.205 143.341 154.453C143.647 154.701 143.901 155.007 144.089 155.354C145.137 157.25 146.812 158.723 148.826 159.522C150.841 160.32 153.07 160.394 155.133 159.731C159.161 158.384 161.015 154.561 160.217 149.244C159.447 144.109 161.303 139.818 165.182 137.763C169.226 135.622 174.31 136.524 178.142 140.061C184.257 145.706 190.186 147.199 195.292 144.38C201.101 141.172 204.747 132.75 203.42 125.607C202.657 121.503 200.006 116.37 191.703 115.225C186.038 114.444 176.741 110.261 178.115 91.0282C179.52 71.3574 172.767 54.209 159.101 42.742C158.491 42.2302 158.109 41.4972 158.04 40.7041C157.971 39.9111 158.219 39.1229 158.731 38.5131C159.243 37.9033 159.976 37.5218 160.769 37.4525C161.562 37.3832 162.35 37.6318 162.96 38.1435C178.14 50.8807 185.648 69.8141 184.102 91.4559C183.564 98.9824 184.589 108.184 192.524 109.279C201.634 110.535 207.757 116.087 209.322 124.51C211.116 134.162 206.227 145.198 198.193 149.635C193.864 152.026 184.973 154.536 174.07 144.472C171.872 142.443 169.434 142.304 167.992 143.068C166.443 143.888 165.773 145.815 166.154 148.354C167.63 158.198 162.412 163.626 157.036 165.424C155.519 165.93 153.929 166.187 152.33 166.186Z" fill="black"/>
<path d="M45.5325 77.976C44.8822 77.9766 44.2494 77.7661 43.7291 77.3761C43.2088 76.986 42.8293 76.4376 42.6476 75.8132C42.4659 75.1889 42.4918 74.5224 42.7215 73.9141C42.9513 73.3058 43.3723 72.7885 43.9214 72.4402C47.8549 69.9432 50.9599 64.8832 54.3033 55.5208C60.4692 38.2569 75.111 25.2 94.4746 19.6981C114.573 13.9875 135.911 17.5139 150.163 28.9002C150.785 29.3972 151.184 30.1209 151.272 30.9121C151.361 31.7033 151.131 32.4971 150.634 33.119C150.137 33.741 149.413 34.14 148.622 34.2283C147.831 34.3166 147.037 34.087 146.415 33.59C133.655 23.394 114.382 20.2826 96.116 25.4723C78.641 30.4374 65.4619 42.1255 59.9563 57.5397C56.0756 68.4073 52.3619 74.1926 47.1377 77.5083C46.6581 77.8139 46.1012 77.9761 45.5325 77.976Z" fill="black"/>
<path d="M85.3655 160.728C81.4525 160.729 75.4887 158.898 70.9993 149.359C70.7742 148.89 70.4394 148.481 70.0231 148.167C69.6069 147.854 69.1213 147.645 68.6075 147.559C67.7756 147.485 66.938 147.612 66.166 147.931C65.394 148.25 64.7105 148.751 64.1738 149.391C56.0049 157.559 45.6689 156.116 39.5205 151.315C33.5499 146.654 29.9818 137.858 35.4668 128.716C35.9195 127.954 36.163 127.085 36.1728 126.198C36.1826 125.311 35.9583 124.438 35.5225 123.665C35.2265 123.26 34.8034 122.921 33.7336 123.176C20.9375 126.225 10.1824 122.933 4.23715 114.141C1.41016 109.746 -0.0625805 104.616 0.0020388 99.3904C0.0666581 94.1647 1.66578 89.0731 4.60061 84.7488C10.7187 76.0977 21.382 72.9993 33.8567 76.2492C34.627 76.4498 35.2861 76.9481 35.6889 77.6346C36.0918 78.3211 36.2055 79.1396 36.0049 79.9099C35.8043 80.6802 35.306 81.3393 34.6195 81.7421C33.933 82.145 33.1145 82.2587 32.3442 82.0581C22.2701 79.4349 14.1637 81.6225 9.5014 88.2148C7.24669 91.5334 6.01702 95.4414 5.96526 99.453C5.91349 103.465 7.04192 107.403 9.21026 110.779C13.7427 117.481 21.9575 119.81 32.3423 117.336C33.8034 116.917 35.3582 116.96 36.7942 117.458C38.2302 117.956 39.4775 118.885 40.3657 120.119C41.5033 121.845 42.1301 123.859 42.174 125.926C42.2179 127.994 41.6771 130.031 40.6138 131.805C36.7692 138.213 39.6123 143.771 43.2146 146.584C47.4862 149.918 54.3097 150.767 59.9296 145.146C62.7815 142.294 66.2284 141.051 69.6392 141.645C71.1018 141.898 72.4823 142.498 73.6643 143.396C74.8464 144.294 75.7954 145.462 76.4315 146.803C79.2659 152.828 83.1281 155.635 87.0342 154.504C89.8461 153.689 92.0483 150.862 91.7474 148.454C91.6985 148.063 91.7271 147.666 91.8316 147.286C91.9361 146.906 92.1144 146.55 92.3564 146.239C92.5984 145.928 92.8992 145.667 93.2418 145.473C93.5844 145.278 93.962 145.152 94.3531 145.103C94.7442 145.055 95.1411 145.083 95.5211 145.188C95.9011 145.292 96.2568 145.471 96.5679 145.713C96.879 145.954 97.1394 146.255 97.3342 146.598C97.529 146.941 97.6544 147.318 97.7033 147.709C98.3765 153.095 94.4244 158.612 88.7049 160.269C87.6185 160.577 86.4946 160.731 85.3655 160.728Z" fill="black"/>
</svg>
