<svg width="210" height="172" viewBox="0 0 210 172" fill="none" xmlns="http://www.w3.org/2000/svg">
<path d="M140.582 103.574C140.577 103.515 140.57 103.458 140.561 103.401C140.226 101.324 139.781 100.935 138.892 99.4355C149.31 88.724 142.827 70.1334 139.257 62.7429C135.479 54.9231 127.958 43.2958 120.304 39.6265C112.65 35.9572 94.0613 26.4171 69.6411 36.6911C45.2209 46.965 36.6157 80.5654 36.2355 81.7051C36.1967 81.8206 34.5195 87.1325 33.5397 94.7452C32.7285 98.5415 32.5265 102.56 32.8627 106.633C33.0038 113.586 34.181 121.095 37.4278 127.894C43.5093 140.628 63.5657 147.946 67.8921 149.762C67.8921 149.762 68.4565 162.18 66.8163 163.831C67.9098 168.785 68.5016 171.421 75.5626 171.917C89.9102 172.925 93.3323 164.382 93.3323 164.382V150.347C93.3323 150.347 104.364 145.24 110.807 138.197C115.488 133.647 118.782 126.22 119.522 124.46C120.307 124.573 121.569 124.709 123.104 124.709C126.622 124.709 131.556 123.99 135.354 120.615C139.441 116.986 141.199 111.253 140.582 103.574Z" fill="white"/>
<path d="M57.2218 105.296C60.0256 105.296 62.2986 103.008 62.2986 100.185C62.2986 97.3628 60.0256 95.0745 57.2218 95.0745C54.418 95.0745 52.145 97.3628 52.145 100.185C52.145 103.008 54.418 105.296 57.2218 105.296Z" fill="black"/>
<path d="M92.9073 111.828C95.7111 111.828 97.9841 109.54 97.9841 106.717C97.9841 103.895 95.7111 101.606 92.9073 101.606C90.1035 101.606 87.8305 103.895 87.8305 106.717C87.8305 109.54 90.1035 111.828 92.9073 111.828Z" fill="black"/>
<path d="M67.5672 167.879C67.0183 167.879 66.4624 167.729 65.9634 167.414C64.5567 166.527 64.1361 164.667 65.0233 163.26C65.7497 161.732 65.9831 154.499 65.4527 151.874C64.939 151.702 64.2342 151.49 63.6234 151.307C57.1229 149.353 41.9006 144.777 34.5541 129.019C25.6107 109.837 32.4729 85.152 33.2846 82.4005C33.7512 80.8215 35.4089 79.8808 36.9921 80.3226C38.5773 80.7655 39.5223 82.3697 39.1018 83.9614C39.0949 83.9897 39.0694 84.077 39.0616 84.1051C38.3156 86.633 32.0043 109.298 40.0125 126.474C46.2199 139.786 59.1453 143.671 65.3576 145.539C68.1858 146.389 69.6053 146.816 70.4494 148.169C72.3639 151.322 72.1345 163.278 70.1171 166.475C69.5446 167.382 68.5672 167.879 67.5672 167.879V167.879Z" fill="black"/>
<path d="M98.6624 151.045C97.5743 151.045 96.5244 150.454 95.9881 149.422C95.2206 147.947 95.794 146.128 97.2694 145.361C113.851 136.736 115.774 123.589 115.848 123.033C115.954 122.235 116.377 121.504 117.019 121.018C117.661 120.533 118.478 120.317 119.27 120.433C119.342 120.443 127.417 121.509 132.198 116.999C135.068 114.292 136.296 109.946 135.846 104.082C134.815 98.0266 130.254 96.5221 126.651 97.0787C125.005 97.3319 123.469 96.2061 123.215 94.5622C122.962 92.9185 124.088 91.3801 125.732 91.1262C132.372 90.1012 140.232 93.4537 141.811 103.238C141.824 103.317 141.834 103.396 141.84 103.476C142.472 111.337 140.606 117.373 136.295 121.415C131.474 125.934 124.896 126.608 121.212 126.574C119.739 131.752 114.946 142.956 100.05 150.704C99.6055 150.935 99.1301 151.045 98.6625 151.045H98.6624Z" fill="black"/>
<path d="M189.17 41.588C185.646 45.8439 181.549 36.3125 181.079 32.0682C179.16 14.7154 156.319 13.0323 151.132 32.1827C149.13 39.5726 140.67 52.3707 134.581 40.1637C132.866 36.7249 130.279 33.4345 127.558 31.0726L127.609 30.9942C110.199 10.5514 75.8556 22.7261 74.6092 25.5592C14.3571 16.3926 22.2539 71.4774 26.6319 76.1344L53.4852 65.1376C53.4852 65.1376 54.2726 78.5954 65.0776 82.9002C76.4333 87.4243 85.1046 72.909 94.1116 77.6457C104.545 83.1325 100.973 93.602 105.721 96.3539C110.468 99.1058 116.087 98.0583 125.48 97.8885C126.246 97.8747 126.943 97.8856 127.609 97.9069V98.2335L138.217 100.123C145.933 94.3229 147.128 85.2559 146.823 75.9601C146.518 66.6642 154.757 64.069 159.14 69.8042C165.813 78.5377 179.967 76.9678 178.855 62.9716C178.465 58.0607 186.663 55.0179 189.17 59.0552C195.843 69.8042 209.19 67.1169 209.857 54.3525C210.524 41.5881 195.843 33.5262 189.17 41.588V41.588Z" fill="black"/>
<path d="M46.0675 78.7169C53.4661 74.1664 56.7568 66.0763 53.4176 60.647C50.0783 55.2178 41.3736 54.5055 33.9751 59.0559C26.5765 63.6064 23.2858 71.6966 26.625 77.1258C29.9643 82.555 38.669 83.2674 46.0675 78.7169Z" fill="black"/>
<path d="M138.905 109.189L138.887 109.189C137.223 109.179 135.884 107.822 135.894 106.159C135.921 101.7 131.987 99.7163 130.782 99.2146C128.208 98.1445 124.272 97.8339 121.648 100.477C118.908 103.234 114.167 104.056 109.859 102.524C104.964 100.784 101.715 96.448 101.166 90.9259C100.199 81.189 96.9087 79.5229 93.8177 79.1772C91.961 78.9682 89.871 79.952 87.2281 81.197C83.3862 83.006 78.6062 85.2576 71.5763 85.4253C65.0964 85.5815 55.7795 83.0439 50.8397 75.3864C47.6762 70.4826 45.3244 61.6893 52.0866 47.6466C52.8082 46.1481 54.608 45.5184 56.1069 46.24C57.6048 46.9616 58.2352 48.7614 57.5137 50.2599C53.1189 59.3853 52.5611 66.9449 55.9001 72.1212C59.2606 77.3278 66.1287 79.533 71.4332 79.404C77.1906 79.2665 81.1599 77.3972 84.6616 75.7479C87.8878 74.2285 90.9415 72.7942 94.4873 73.1914C105.58 74.4322 106.769 86.3983 107.16 90.3305C107.593 94.6971 110.301 96.2885 111.876 96.8485C114.22 97.6824 116.459 97.1529 117.376 96.2316C121.267 92.3134 127.437 91.3009 133.094 93.6533C138.57 95.9306 141.95 100.737 141.917 106.196C141.907 107.853 140.56 109.189 138.905 109.189V109.189Z" fill="black"/>
<path fill-rule="evenodd" clip-rule="evenodd" d="M54.7997 48.9534C52.486 53.7582 51.332 57.8287 50.9211 61.2516C51.3912 57.382 52.7409 53.2292 54.8 48.9537L54.7997 48.9534ZM70.8832 82.4205C65.371 82.3902 58.1909 80.2306 54.0332 74.7048C58.1617 80.1816 65.3346 82.3892 70.8832 82.4205ZM83.0293 79.8006C79.9567 81.115 76.394 82.2688 71.6986 82.4096C76.3955 82.2678 80.0352 81.078 83.0293 79.8006ZM85.4966 78.6834C85.6467 78.6129 85.796 78.5427 85.9444 78.4728C85.9446 78.4727 85.9447 78.4726 85.9448 78.4726L86.0297 78.4326C86.0797 78.409 86.1299 78.3854 86.1802 78.3617C86.1022 78.3983 86.0237 78.4353 85.9445 78.4726C85.9445 78.4726 85.9444 78.4726 85.9444 78.4726L85.87 78.5077C85.7467 78.5657 85.6222 78.6243 85.4966 78.6834ZM94.1522 76.1845C92.7686 76.0292 91.4543 76.2808 90.2854 76.6467L94.1522 76.1845ZM90.2854 76.6467C91.6201 76.2229 92.8499 76.0385 94.1518 76.1844L94.1522 76.1844C94.2066 76.1905 94.2607 76.1969 94.3145 76.2036C94.2608 76.197 94.2073 76.1907 94.1542 76.1847M98.8634 77.9249C100.322 78.9892 101.351 80.4374 102.117 82.0468C103.599 85.1571 103.966 88.6457 104.163 90.6288C104.168 90.6822 104.174 90.7354 104.18 90.7883C104.174 90.7352 104.168 90.6818 104.163 90.6283M108.05 98.1381C108.885 98.7963 109.831 99.318 110.867 99.6863L110.867 99.6863L110.868 99.6865C112.773 100.364 114.675 100.425 116.292 100.047C116.061 100.1 115.83 100.144 115.602 100.177C114.154 100.392 112.51 100.27 110.867 99.6863M108.05 98.1381C109.037 98.9078 110.047 99.3946 110.866 99.686L108.05 98.1381ZM49.373 46.3404C50.8163 43.3427 54.4162 42.0839 57.413 43.5267L57.4137 43.5271C60.4091 44.9701 61.6701 48.5689 60.2268 51.5665L60.2267 51.5668C55.9842 60.3761 55.9566 66.6529 58.4301 70.4883C61.0238 74.5069 66.678 76.5074 71.3597 76.3935L71.361 76.3935C76.4363 76.2723 79.9088 74.6576 83.3781 73.0236L83.3782 73.0236C83.4603 72.9849 83.5429 72.946 83.626 72.9068C86.6759 71.4685 90.4152 69.7051 94.8222 70.1987C101.668 70.9647 105.503 75.1483 107.555 79.4569C109.514 83.5707 109.952 87.9718 110.149 89.9582L110.156 90.0326L110.156 90.0333C110.311 91.5944 110.839 92.468 111.311 92.9836C111.816 93.5358 112.416 93.8446 112.885 94.0111L112.885 94.0113C113.587 94.2608 114.234 94.2914 114.72 94.2194C115.101 94.1629 115.27 94.065 115.293 94.055C120.163 89.199 127.647 88.1272 134.25 90.8727L134.25 90.8728C140.729 93.5672 144.97 99.4007 144.928 106.215C144.908 109.53 142.213 112.2 138.905 112.201L138.885 112.2L138.868 112.2C135.54 112.18 132.863 109.466 132.882 106.141V106.14C132.89 104.906 132.382 104.035 131.685 103.346C130.937 102.609 130.043 102.169 129.624 101.995C127.574 101.143 125.162 101.212 123.785 102.599L123.784 102.599C120.057 106.351 114.016 107.199 108.849 105.361C102.764 103.198 98.8234 97.8048 98.1692 91.224L98.1691 91.2239C97.7084 86.587 96.7325 84.4154 95.9283 83.4013C95.2609 82.5596 94.5377 82.2882 93.4827 82.1702L93.4807 82.17C93.19 82.1373 92.694 82.1794 91.8023 82.488C90.9009 82.7999 89.8748 83.2792 88.5112 83.9216L88.5107 83.9218L88.4533 83.9488C84.5662 85.7793 79.3126 88.2531 71.6486 88.4362C64.57 88.6067 54.0246 85.8795 48.3088 77.0191C44.4997 71.1146 42.2213 61.1918 49.373 46.3404ZM49.373 46.3404L52.0864 47.6468L49.373 46.3404C130.223 95.739 127.996 95.2534 125.691 95.4767C127.644 95.2652 129.753 95.5449 131.838 96.3933M132.025 96.4709C132.844 96.8195 134.455 97.6179 135.915 99.0593C136.191 99.331 136.462 99.6277 136.723 99.9498C135.573 98.5092 133.99 97.3038 132.025 96.4709ZM138.905 106.009C138.905 106.065 138.905 106.121 138.905 106.177L138.905 106.177C138.906 106.121 138.905 106.065 138.905 106.009Z" fill="black"/>
</svg>
