<svg width="180" height="173" viewBox="0 0 180 173" fill="none" xmlns="http://www.w3.org/2000/svg">
<path d="M112.252 141.375C119.298 140.073 120.809 146.327 127.125 149.544C131.592 151.82 135.331 151.97 140.492 150.472C159.711 144.895 165.075 124.339 152.646 114.405C141.826 105.756 132.969 116.012 130.258 118.08C127.547 120.147 124.437 115.099 124.437 115.099L108.689 124.629L112.252 141.375" fill="black"/>
<path d="M141.846 105.928C141.842 105.87 141.835 105.813 141.826 105.756C141.492 103.7 141.048 103.315 140.163 101.831C150.546 91.2265 144.084 72.8222 140.526 65.5056C136.761 57.7642 129.265 46.2534 121.637 42.6209C114.009 38.9883 95.4829 29.5438 71.1451 39.7148C46.8073 49.8859 38.2312 83.1497 37.8523 84.2779C37.8135 84.3922 36.1421 89.6509 35.1655 97.1873C34.3571 100.946 34.1558 104.924 34.4908 108.956C34.6315 115.839 35.8047 123.273 39.0405 130.004C45.1015 142.611 65.0902 149.855 69.4021 151.653C69.4021 151.653 69.9645 163.947 68.3299 165.581C69.4197 170.485 80.5896 172.392 80.5896 172.392C90.2696 173.029 94.7564 166.126 94.7564 166.126V152.232C94.7564 152.232 105.75 147.176 112.172 140.204C116.838 135.699 120.12 128.347 120.858 126.604C121.64 126.716 122.898 126.851 124.427 126.851C127.934 126.851 132.851 126.139 136.637 122.798C140.71 119.205 142.462 113.529 141.846 105.928V105.928Z" fill="white"/>
<path d="M58.7687 107.333C61.563 107.333 63.8283 105.067 63.8283 102.273C63.8283 99.4787 61.563 97.2134 58.7687 97.2134C55.9743 97.2134 53.709 99.4787 53.709 102.273C53.709 105.067 55.9743 107.333 58.7687 107.333Z" fill="black"/>
<path d="M94.3312 114.099C97.1255 114.099 99.3908 111.834 99.3908 109.039C99.3908 106.245 97.1255 103.979 94.3312 103.979C91.5368 103.979 89.2715 106.245 89.2715 109.039C89.2715 111.834 91.5368 114.099 94.3312 114.099Z" fill="black"/>
<path d="M69.0767 168.607C68.5264 168.607 67.9697 168.456 67.4712 168.139C66.0791 167.255 65.6631 165.414 66.5347 164.018C67.249 162.653 67.4815 157.134 67.0205 154.856C66.5869 154.744 66.0396 154.616 65.5596 154.503C59.5689 153.1 45.5391 149.813 38.1787 134.132C28.832 114.218 34.8354 85.2449 34.9072 84.9761C39.147 69.0684 47.9697 35.9627 87.3887 32.0284C89.0415 31.8631 90.5073 33.0669 90.6719 34.7156C90.8364 36.3643 89.6333 37.834 87.9844 37.9986C52.7476 41.5157 44.918 70.7132 40.7222 86.4566C40.4849 87.6099 35.2832 113.842 43.6103 131.582C49.7363 144.634 61.3476 147.354 66.9277 148.661C69.5815 149.283 71.0434 149.626 71.9424 151.058C73.9604 154.359 73.4492 164.323 71.6118 167.215C71.0405 168.115 70.0693 168.607 69.0766 168.607L69.0767 168.607Z" fill="black"/>
<path d="M58.7687 106.945C61.3614 106.945 63.4632 104.843 63.4632 102.25C63.4632 99.6575 61.3614 97.5557 58.7687 97.5557C56.176 97.5557 54.0742 99.6575 54.0742 102.25C54.0742 104.843 56.176 106.945 58.7687 106.945Z" fill="black"/>
<path d="M94.298 113.734C96.8907 113.734 98.9925 111.632 98.9925 109.039C98.9925 106.447 96.8907 104.345 94.298 104.345C91.7053 104.345 89.6035 106.447 89.6035 109.039C89.6035 111.632 91.7053 113.734 94.298 113.734Z" fill="black"/>
<path d="M107.519 146.204C106.692 146.204 105.87 145.865 105.277 145.199C104.175 143.962 104.285 142.066 105.522 140.964C114.149 133.282 115.366 124.839 115.377 124.755C115.484 123.957 115.908 123.227 116.552 122.745C117.196 122.262 118.009 122.051 118.804 122.17C118.892 122.183 128.317 123.504 133.563 118.59C136.348 115.981 137.546 111.892 137.127 106.435C136.101 100.45 131.553 98.9633 127.959 99.5163C126.325 99.7682 124.791 98.6442 124.539 97.006C124.288 95.3683 125.412 93.8371 127.049 93.5856C133.664 92.5724 141.494 95.8947 143.068 105.589C143.082 105.668 143.091 105.747 143.098 105.828C143.701 113.278 141.864 119.054 137.637 122.995C132.34 127.934 124.758 128.456 120.698 128.327C119.607 132.09 116.745 139.004 109.513 145.445C108.941 145.954 108.229 146.204 107.519 146.204H107.519Z" fill="black"/>
<path d="M40.8965 135.858C39.7695 135.858 38.6894 135.219 38.1787 134.132C31.4053 119.701 32.6196 100.789 33.9463 90.7998C34.165 89.1572 35.6724 88.0022 37.3154 88.2209C38.958 88.4392 40.1123 89.9475 39.8945 91.5898C38.896 99.1067 37.2593 118.051 43.6104 131.582C44.3145 133.082 43.6689 134.869 42.1694 135.573C41.7573 135.766 41.3232 135.858 40.8965 135.858Z" fill="black"/>
<path d="M125.796 37.8389C118.322 32.7859 107.098 27.6682 96.5406 26.5269C65.116 23.1294 29.7301 37.462 34.3364 71.7119C35.0202 76.7961 39.1629 73.323 54.0749 66.8036C55.7778 66.0591 56.7482 72.5424 58.7685 71.5127C85.3154 57.9822 92.7012 68.3501 102.977 72.2605C113.253 76.1709 115.602 92.4021 130.144 93.3946C140.171 94.0789 140.286 102.873 143.455 98.6194C145.165 96.3247 148.59 78.0141 143.892 63.0223C137.715 43.3098 128.513 40.3593 125.796 37.8389L125.796 37.8389Z" fill="black"/>
<path d="M109.078 49.3582C90.4312 39.4944 67.3515 38.923 50.2533 54.0112C43.3117 60.308 32.4927 67.046 32.0117 75.3762C32.8831 77.0941 40.2218 83.3626 43.578 82.9156C45.5406 82.6543 48.0159 74.4528 50.0912 71.0447C52.3732 67.297 55.3407 68.151 56.076 71.1975C57.6408 77.68 65.4226 85.4245 71.6719 86.2337C77.9213 87.043 90.1391 75.0023 96.415 76.4324C102.691 77.8628 102.176 90.0869 109.166 91.291C113.381 92.017 118.956 84.7811 124.058 83.6335C124.13 83.6173 124.205 83.6092 124.278 83.5944C125.897 69.9149 121.479 55.6533 109.078 49.3582L109.078 49.3582Z" fill="black"/>
<path d="M130.146 96.3948C129.194 96.3948 128.258 95.9429 127.675 95.1006C124.745 90.8608 120.149 91.4995 118.31 91.971C117.508 92.1763 116.699 92.5454 115.843 92.9365C113.553 93.9822 110.705 95.2837 106.486 94.23C100.814 92.8128 99.4942 88.6611 98.5303 85.6297C97.6035 82.7156 97.0928 81.1101 93.6275 80.5022C91.1651 80.0244 89.1319 81.4858 86.0191 83.9092C82.3794 86.7419 77.853 90.2669 71.1953 89.1958C64.0777 88.0493 55.6494 83.2253 55.9204 66.7542C55.9473 65.0979 57.2964 63.783 58.9693 63.804C60.626 63.8311 61.9468 65.1961 61.9195 66.8528C61.7022 80.0581 67.6538 82.5481 72.1494 83.272C76.2271 83.9302 79.0557 81.7253 82.3335 79.1743C85.6958 76.5569 89.5069 73.5906 94.7173 74.6023C101.71 75.8286 103.237 80.6326 104.248 83.8115C105.151 86.6511 105.61 87.8267 107.94 88.4087C110.122 88.9541 111.406 88.3672 113.351 87.4785C114.359 87.0183 115.501 86.4963 116.821 86.1584C121.736 84.8997 128.465 85.6914 132.611 91.6885C133.553 93.0515 133.212 94.9202 131.849 95.8623C131.329 96.2222 130.734 96.3948 130.146 96.3948Z" fill="black"/>
<path d="M40.6039 84.3195C35.2176 84.0121 33.0771 82.809 30.891 79.2526C26.7035 72.4409 30.7089 62.7871 31.1796 61.7087C31.8422 60.1904 33.6103 59.4963 35.1288 60.1586C36.6454 60.8205 37.3398 62.5852 36.6811 64.1027C35.7553 66.2485 33.829 72.5905 36.0077 76.1191C37.122 77.9238 39.2934 78.894 42.645 79.0854C44.2993 79.1799 46.8942 77.3179 45.4023 80.7439C43.8669 84.2696 40.662 84.3229 40.6039 84.3195L40.6039 84.3195Z" fill="black"/>
<path d="M140.159 104.831C139.589 104.831 139.014 104.669 138.503 104.33C137.125 103.416 136.747 101.557 137.659 100.177C138.432 98.9995 156.118 71.2488 127.823 43.4658C119.545 35.7929 108.298 30.8152 96.2173 29.5093C67.0601 26.3581 46.4956 38.2751 36.7334 63.9736C36.1446 65.522 34.4121 66.3018 32.8633 65.7126C31.3145 65.1243 30.5357 63.3916 31.1241 61.8428C41.9634 33.3098 64.6993 20.0669 96.8619 23.5439C110.217 24.9878 122.684 30.5212 131.965 39.1252C163.932 70.5129 142.878 103.163 142.662 103.489C142.085 104.359 141.131 104.831 140.159 104.831Z" fill="black"/>
</svg>
