<svg width="180" height="175" viewBox="0 0 180 175" fill="none" xmlns="http://www.w3.org/2000/svg">
<path d="M118.218 139.955C127.127 142.63 124.443 149.129 135.964 147.593C153.517 145.254 158.621 123.199 146.719 115.677C134.816 108.155 129.307 117.1 126.908 118.929C124.509 120.759 121.757 116.292 121.757 116.292C121.757 116.292 92.1296 137.93 101.297 135.152C110.465 132.373 118.218 139.955 118.218 139.955Z" fill="#2D8C3C"/>
<path d="M132.451 150.841C123.138 150.841 120.138 145.641 118.767 143.265C118.639 143.043 118.524 142.84 118.413 142.666C117.985 141.995 117.84 141.182 118.012 140.405C118.183 139.628 118.656 138.951 119.327 138.523C119.997 138.095 120.811 137.951 121.587 138.122C122.364 138.294 123.041 138.767 123.469 139.437C123.625 139.679 123.787 139.959 123.965 140.266C125.3 142.578 127.128 145.744 135.566 144.619C138.997 144.19 142.209 142.706 144.759 140.371C147.309 138.037 149.071 134.968 149.8 131.588C150.769 127.166 150.047 121.33 145.115 118.213C137.008 113.09 133.141 116.991 130.317 119.838C129.82 120.366 129.289 120.859 128.726 121.315C128.167 121.749 127.522 122.06 126.834 122.227C126.146 122.393 125.431 122.412 124.735 122.283C121.79 121.736 119.755 118.764 119.202 117.866C118.785 117.19 118.654 116.375 118.836 115.602C119.019 114.829 119.501 114.16 120.176 113.742C120.852 113.324 121.665 113.19 122.439 113.371C123.213 113.552 123.883 114.033 124.302 114.707C124.644 115.238 125.055 115.722 125.524 116.145C125.693 115.981 125.881 115.791 126.057 115.613C129.076 112.57 136.142 105.446 148.32 113.141C154.544 117.074 157.425 124.819 155.662 132.872C154.681 137.461 152.295 141.631 148.836 144.802C145.377 147.973 141.016 149.988 136.359 150.567C135.064 150.744 133.758 150.836 132.451 150.841Z" fill="black"/>
<path d="M140.095 103.477C140.091 103.42 140.084 103.363 140.075 103.306C139.868 101.876 139.295 100.524 138.412 99.3805C148.795 88.7763 142.333 70.372 138.775 63.0554C135.01 55.314 127.514 43.8032 119.886 40.1706C112.258 36.5381 93.7322 27.0936 69.3944 37.2646C45.0566 47.4356 36.4804 80.6995 36.1015 81.8277C34.8529 86.0497 33.9543 90.3675 33.4148 94.7371C32.6133 98.6055 32.386 102.571 32.74 106.505C32.7447 113.765 34.2957 120.941 37.2897 127.554C43.3507 140.16 63.3395 147.405 67.6513 149.203C67.6513 149.203 67.6359 163.946 66.0013 165.58C64.7213 172.235 76.8359 173.868 76.8359 173.868C83.3756 174.274 88.2075 174.525 92.9674 172.031C93.8862 171.567 94.6587 170.857 95.1995 169.981C95.7403 169.104 96.0284 168.095 96.0318 167.066L96.589 152.966C96.5864 151.71 96.8938 150.472 97.4839 149.362C98.074 148.253 98.9285 147.306 99.9719 146.605C103.786 144.069 107.292 141.099 110.421 137.754C115.087 133.249 118.369 125.897 119.107 124.154C120.29 124.32 121.482 124.402 122.676 124.401C126.183 124.401 131.1 123.689 134.886 120.348C138.959 116.755 140.711 111.079 140.095 103.477Z" fill="white"/>
<path d="M57.0187 104.883C59.813 104.883 62.0783 102.617 62.0783 99.8229C62.0783 97.0285 59.813 94.7632 57.0187 94.7632C54.2243 94.7632 51.959 97.0285 51.959 99.8229C51.959 102.617 54.2243 104.883 57.0187 104.883Z" fill="black"/>
<path d="M92.5831 111.649C95.3775 111.649 97.6428 109.383 97.6428 106.589C97.6428 103.795 95.3775 101.529 92.5831 101.529C89.7887 101.529 87.5234 103.795 87.5234 106.589C87.5234 109.383 89.7887 111.649 92.5831 111.649Z" fill="black"/>
<path d="M67.3264 166.157C66.7914 166.156 66.2662 166.012 65.8053 165.74C65.3444 165.469 64.9647 165.078 64.7054 164.61C64.4461 164.142 64.3167 163.613 64.3306 163.078C64.3445 162.544 64.5012 162.022 64.7844 161.568C65.4983 160.202 65.7307 154.684 65.2698 152.406C64.8362 152.294 64.2893 152.165 63.8088 152.053C57.8176 150.649 43.7884 147.363 36.428 131.681C26.9475 111.482 33.0843 82.8005 33.1555 82.5311C37.3958 66.618 46.219 33.5124 85.638 29.5782C86.0306 29.5379 86.4273 29.5754 86.8054 29.6887C87.1835 29.802 87.5355 29.9887 87.8413 30.2383C88.1471 30.4879 88.4006 30.7953 88.5874 31.143C88.7741 31.4908 88.8904 31.8719 88.9296 32.2646C88.9688 32.6574 88.9301 33.054 88.8158 33.4318C88.7014 33.8095 88.5136 34.161 88.2632 34.4661C88.0127 34.7711 87.7045 35.0238 87.3563 35.2095C87.008 35.3953 86.6265 35.5105 86.2337 35.5485C50.9964 39.0654 43.1673 68.262 38.972 84.0054C38.7327 85.1685 33.5394 111.405 41.8597 129.132C47.9857 142.184 59.597 144.904 65.1771 146.211C67.8314 146.833 69.2933 147.175 70.1917 148.608C72.2093 151.908 71.6985 161.872 69.8616 164.764C69.5908 165.191 69.2163 165.543 68.7731 165.786C68.3298 166.03 67.8321 166.157 67.3264 166.157Z" fill="black"/>
<path d="M105.768 143.754C105.16 143.754 104.566 143.569 104.066 143.224C103.565 142.879 103.181 142.39 102.964 141.822C102.748 141.253 102.709 140.632 102.853 140.042C102.998 139.451 103.318 138.918 103.772 138.513C112.399 130.831 113.616 122.389 113.628 122.305C113.68 121.909 113.811 121.527 114.012 121.183C114.214 120.838 114.481 120.536 114.8 120.296C115.119 120.055 115.482 119.881 115.869 119.782C116.256 119.683 116.659 119.662 117.054 119.72C117.141 119.733 126.569 121.054 131.813 116.139C134.598 113.531 135.797 109.442 135.378 103.985C134.349 97.9999 129.807 96.5124 126.21 97.0656C125.423 97.1863 124.621 96.9896 123.98 96.5189C123.338 96.0481 122.91 95.3418 122.789 94.5554C122.669 93.7689 122.865 92.9667 123.336 92.3252C123.807 91.6838 124.513 91.2556 125.3 91.1349C131.904 90.1219 139.744 93.4424 141.319 103.138C141.332 103.217 141.342 103.297 141.348 103.377C141.952 110.827 140.114 116.603 135.888 120.544C130.591 125.483 122.999 126.006 118.949 125.876C116.899 132.518 113.022 138.45 107.763 142.994C107.214 143.484 106.504 143.755 105.768 143.754Z" fill="black"/>
<path d="M39.1477 133.408C38.5775 133.408 38.019 133.246 37.5377 132.94C37.0564 132.634 36.6721 132.198 36.4299 131.682C29.6584 117.255 30.8713 98.3407 32.1975 88.3502C32.2491 87.9596 32.3772 87.5829 32.5745 87.2418C32.7717 86.9007 33.0343 86.6017 33.3471 86.3621C33.6599 86.1224 34.0169 85.9468 34.3976 85.8452C34.7783 85.7435 35.1753 85.7179 35.566 85.7697C35.9566 85.8216 36.3332 85.9499 36.6742 86.1473C37.0153 86.3447 37.314 86.6074 37.5535 86.9204C37.793 87.2333 37.9685 87.5904 38.0699 87.9711C38.1714 88.3519 38.1968 88.7489 38.1447 89.1395C37.1477 96.658 35.5119 115.605 41.8615 129.132C42.0758 129.589 42.1712 130.093 42.1391 130.597C42.107 131.101 41.9483 131.588 41.6778 132.015C41.4072 132.441 41.0335 132.792 40.5913 133.035C40.149 133.279 39.6525 133.407 39.1477 133.408Z" fill="black"/>
<path d="M124.046 35.3882C116.572 30.3352 105.348 25.2176 94.7906 24.0762C63.366 20.6787 27.9801 35.0114 32.5864 69.2612C33.2702 74.3454 37.4129 70.8723 52.3249 64.3529C54.0278 63.6084 54.9982 70.0917 57.0185 69.062C83.5654 55.5315 90.9512 65.8994 101.227 69.8098C111.503 73.7202 113.852 89.9514 128.394 90.9438C138.421 91.6282 138.536 100.422 141.705 96.1687C143.415 93.874 146.84 75.5634 142.142 60.5716C135.965 40.8591 126.763 37.9086 124.046 35.3882Z" fill="#2D8C3C"/>
<path d="M107.328 46.908C88.6812 37.0442 65.6015 36.4728 48.5033 51.561C41.5617 57.8578 30.7427 64.5958 30.2617 72.926C31.1331 74.6439 38.4718 80.9124 41.828 80.4654C43.7906 80.2041 45.7616 71.6388 48.3412 68.5945C51.2731 65.1345 54.2241 65.6531 54.9595 68.6995C56.5242 75.1821 63.6726 82.9742 69.9219 83.7835C76.1713 84.5928 88.3891 72.5521 94.665 73.9822C100.941 75.4126 100.426 87.6367 107.416 88.8407C111.631 89.5668 117.206 82.3309 122.308 81.1833C122.38 81.167 122.455 81.159 122.528 81.1442C124.147 67.4647 119.729 53.2031 107.328 46.908Z" fill="#2D8C3C"/>
<path d="M57.1701 64.353C57.0178 73.6164 59.6891 82.1352 69.9225 83.7834C80.1559 85.4316 84.2562 73.5175 92.3964 75.0971C102.428 76.8571 96.9629 86.7451 105.463 88.869C113.963 90.9929 117.796 85.4521 122.349 84.2159" fill="#2D8C3C"/>
<path d="M109.159 92.3477C107.667 92.3405 106.181 92.1496 104.736 91.7794C99.0649 90.3623 97.7446 86.2105 96.7808 83.179C95.854 80.265 95.3433 78.6599 91.8784 78.0518C89.4204 77.5747 87.3833 79.0357 84.269 81.4588C80.6284 84.292 76.0962 87.8166 69.4448 86.7451C62.3276 85.5987 53.8999 80.7747 54.1704 64.3037C54.1849 63.509 54.5141 62.7525 55.0858 62.2003C55.6575 61.6481 56.4249 61.3453 57.2196 61.3583C58.0144 61.3714 58.7714 61.6993 59.3247 62.27C59.8779 62.8407 60.1821 63.6076 60.1704 64.4023C59.9526 77.6076 65.9038 80.0975 70.3989 80.8215C74.4829 81.4785 77.3071 79.2745 80.5835 76.7238C83.9468 74.1071 87.7534 71.1397 92.9683 72.1519C99.9604 73.3781 101.488 78.1821 102.499 81.3609C103.402 84.2007 103.861 85.3762 106.191 85.9584C110.84 87.1202 113.638 85.453 116.601 83.688C118.139 82.6758 119.809 81.8793 121.563 81.3208C121.944 81.2157 122.342 81.1868 122.734 81.2358C123.125 81.2849 123.504 81.4108 123.847 81.6065C124.19 81.8021 124.491 82.0636 124.733 82.3759C124.975 82.6883 125.153 83.0453 125.256 83.4265C125.36 83.8077 125.387 84.2056 125.336 84.5974C125.286 84.9891 125.158 85.367 124.961 85.7094C124.764 86.0517 124.501 86.3518 124.188 86.5923C123.875 86.8329 123.517 87.0091 123.135 87.1111C121.913 87.5411 120.749 88.1228 119.671 88.8426C117.098 90.3759 113.788 92.3476 109.159 92.3477Z" fill="black"/>
<path d="M32.1784 60.458C32.1784 60.458 24.2242 78.6884 40.7235 79.6301L32.1784 60.458Z" fill="#2D8C3C"/>
<path d="M40.7269 82.6301C40.6693 82.6301 40.6116 82.6285 40.5531 82.6252C35.1663 82.3177 31.3275 80.3586 29.1409 76.802C24.9534 69.9904 28.9593 60.3366 29.429 59.2582C29.7465 58.5286 30.3408 57.955 31.0812 57.6636C31.8216 57.3721 32.6474 57.3867 33.377 57.7042C34.1066 58.0217 34.6803 58.616 34.9717 59.3564C35.2631 60.0968 35.2485 60.9226 34.931 61.6522C34.0052 63.7981 32.0784 70.1399 34.2581 73.6686C35.3724 75.4733 37.5433 76.4436 40.8949 76.6349C41.6742 76.6794 42.4055 77.0259 42.9335 77.6008C43.4615 78.1758 43.7446 78.9338 43.7227 79.7141C43.7009 80.4944 43.3757 81.2355 42.8164 81.7799C42.257 82.3244 41.5075 82.6294 40.7269 82.6301H40.7269Z" fill="black"/>
<path d="M138.41 102.381C137.869 102.38 137.337 102.233 136.873 101.954C136.408 101.676 136.027 101.277 135.771 100.8C135.515 100.323 135.392 99.7852 135.417 99.2442C135.441 98.7031 135.612 98.1788 135.91 97.7268C136.684 96.5493 154.369 68.7985 126.074 41.0156C117.296 33.1143 106.222 28.2244 94.469 27.0589C65.3118 23.9052 44.7473 35.8248 34.9846 61.5233C34.8447 61.8916 34.6336 62.2287 34.3634 62.5155C34.0932 62.8022 33.7691 63.0329 33.4098 63.1944C33.0504 63.3559 32.6627 63.4451 32.2689 63.4567C31.8751 63.4684 31.4828 63.4024 31.1145 63.2625C30.7462 63.1226 30.409 62.9115 30.1223 62.6413C29.8355 62.3711 29.6048 62.047 29.4433 61.6877C29.2818 61.3283 29.1927 60.9406 29.181 60.5468C29.1693 60.153 29.2353 59.7607 29.3752 59.3924C40.2161 30.8594 62.9495 17.6171 95.1135 21.0936C108.178 22.4068 120.479 27.867 130.216 36.675C162.184 68.0625 141.129 100.713 140.913 101.039C140.639 101.452 140.268 101.791 139.831 102.025C139.394 102.259 138.906 102.381 138.41 102.381Z" fill="black"/>
</svg>
