<svg width="212" height="171" viewBox="0 0 212 171" fill="none" xmlns="http://www.w3.org/2000/svg">
<path d="M140.151 103.234C140.147 103.176 140.139 103.119 140.131 103.062C139.923 101.632 139.35 100.279 138.467 99.1351C148.852 88.5269 142.389 70.1155 138.831 62.7963C135.065 55.0519 127.568 43.5366 119.939 39.9027C112.31 36.2689 93.782 26.8207 69.4412 36.9956C45.1004 47.1705 36.5232 80.447 36.1443 81.5756C34.8955 85.7993 33.9968 90.1187 33.4572 94.49C32.6557 98.3599 32.4283 102.327 32.7824 106.263C32.787 113.525 34.3382 120.703 37.3327 127.32C43.3944 139.931 63.3856 147.178 67.6979 148.976C67.6979 148.976 68.2605 161.275 66.6257 162.91C67.7156 167.816 68.3054 170.427 75.3435 170.918C89.6445 171.916 93.0554 163.455 93.0554 163.455V149.555C93.0554 149.555 104.051 144.498 110.473 137.523C115.139 133.017 118.422 125.661 119.16 123.918C120.343 124.084 121.536 124.166 122.73 124.165C126.237 124.165 131.155 123.452 134.941 120.111C139.014 116.516 140.767 110.838 140.151 103.234Z" fill="white"/>
<path d="M57.0618 104.939C59.8569 104.939 62.1227 102.673 62.1227 99.8776C62.1227 97.0825 59.8569 94.8167 57.0618 94.8167C54.2667 94.8167 52.0008 97.0825 52.0008 99.8776C52.0008 102.673 54.2667 104.939 57.0618 104.939Z" fill="black"/>
<path d="M92.6312 111.407C95.4263 111.407 97.6922 109.141 97.6922 106.346C97.6922 103.551 95.4263 101.285 92.6312 101.285C89.8362 101.285 87.5703 103.551 87.5703 106.346C87.5703 109.141 89.8362 111.407 92.6312 111.407Z" fill="black"/>
<path fill-rule="evenodd" clip-rule="evenodd" d="M36.8707 80.1483C38.4726 80.5752 39.4252 82.2198 38.9984 83.8217C38.9959 83.8311 38.9883 83.8569 38.9759 83.8985C38.7552 84.6448 37.0273 90.4877 36.2661 98.385C35.4565 106.785 35.7862 117.121 39.9044 125.897C43.869 134.345 50.5514 138.955 56.5619 141.687C59.5722 143.056 62.3753 143.936 64.5728 144.596C64.7613 144.653 64.9491 144.709 65.1347 144.764C65.989 145.019 66.7984 145.261 67.4295 145.481C67.8154 145.616 68.2485 145.782 68.6436 145.984C68.9173 146.124 69.7107 146.536 70.2404 147.381L70.2591 147.411C70.6759 148.093 70.9028 148.868 71.043 149.476C71.1956 150.137 71.3038 150.869 71.3806 151.614C71.5347 153.107 71.5817 154.84 71.5419 156.532C71.5021 158.225 71.3736 159.952 71.1547 161.436C71.0454 162.177 70.9073 162.9 70.7319 163.549C70.5701 164.148 70.3227 164.894 69.9098 165.544C69.0212 166.944 67.1663 167.358 65.7667 166.47C64.3843 165.592 63.9633 163.771 64.8095 162.378C64.8129 162.367 64.8634 162.253 64.9362 161.983C65.0313 161.631 65.1279 161.153 65.2155 160.56C65.3904 159.375 65.5046 157.901 65.5401 156.391C65.5756 154.88 65.5305 153.41 65.4088 152.23C65.3618 151.774 65.306 151.389 65.2467 151.08C64.7886 150.927 64.2128 150.755 63.4787 150.535C63.2798 150.476 63.0692 150.413 62.8462 150.346C60.5883 149.668 57.4689 148.695 54.0771 147.153C47.2834 144.064 39.2434 138.62 34.4696 128.447C29.6872 118.256 29.4371 106.662 30.2903 97.809C30.7205 93.346 31.44 89.4919 32.0572 86.7324C32.6711 83.9879 33.2087 82.2331 33.1973 82.276C33.6241 80.6741 35.2688 79.7215 36.8707 80.1483ZM65.9072 151.327C65.9531 151.351 65.9382 151.349 65.8841 151.316C65.8947 151.321 65.9023 151.325 65.9072 151.327Z" fill="black"/>
<path fill-rule="evenodd" clip-rule="evenodd" d="M132.088 98.0131C130.495 96.922 128.431 96.4873 126.263 96.8201C124.624 97.0716 123.092 95.9471 122.841 94.3085C122.589 92.6699 123.713 91.1376 125.352 90.8861C128.842 90.3503 132.484 91.0075 135.481 93.06C138.516 95.1391 140.66 98.4937 141.375 102.894C141.388 102.973 141.398 103.053 141.404 103.133C141.901 109.271 140.822 113.998 138.626 117.558C136.427 121.123 133.293 123.218 130.227 124.42C127.191 125.61 124.154 125.956 121.935 126.02C121.545 126.031 121.178 126.034 120.835 126.031C120.818 126.09 120.8 126.151 120.782 126.212C120.271 127.942 119.39 130.314 117.896 132.992C114.895 138.37 109.456 144.91 99.7424 149.93C98.2697 150.691 96.4587 150.114 95.6976 148.641C94.9365 147.169 95.5134 145.358 96.9861 144.596C105.555 140.168 110.171 134.517 112.654 130.066C113.902 127.829 114.621 125.877 115.024 124.512C115.226 123.83 115.348 123.296 115.417 122.95C115.452 122.777 115.473 122.651 115.485 122.577C115.491 122.54 115.495 122.516 115.496 122.506C115.496 122.504 115.497 122.503 115.497 122.502C115.598 121.706 116.014 120.983 116.652 120.496C117.291 120.007 118.1 119.796 118.897 119.909C118.898 119.909 118.899 119.909 118.901 119.91L118.897 119.909L118.919 119.912C118.943 119.915 118.987 119.92 119.048 119.927C119.171 119.941 119.365 119.96 119.619 119.978C120.128 120.014 120.87 120.045 121.761 120.019C123.566 119.967 125.858 119.684 128.036 118.831C130.183 117.989 132.148 116.623 133.516 114.406C134.875 112.203 135.825 108.863 135.43 103.742C134.937 100.87 133.622 99.0635 132.088 98.0131ZM118.902 119.91C118.902 119.91 118.902 119.91 118.902 119.91V119.91ZM118.474 122.881C118.902 119.927 118.903 119.91 118.902 119.91C118.903 119.91 118.904 119.91 118.905 119.91L118.474 122.881ZM115.495 122.513C115.495 122.514 115.495 122.515 115.495 122.516L118.474 122.881C115.495 122.516 115.495 122.515 115.495 122.513Z" fill="black"/>
<path d="M187.631 41.8452C184.119 46.0601 180.035 36.6205 179.567 32.4172C177.654 15.2317 154.888 13.5648 149.717 32.5305C147.721 39.8492 139.074 49.8292 133.005 37.7398C131.352 34.4639 129.063 31.5501 126.271 29.1686V31.3535C108.917 11.1078 74.6853 23.1651 73.443 25.9708C13.3868 16.8927 25.3097 70.9818 25.6217 76.0585L52.3877 65.1676C52.3877 65.1676 53.1725 78.4957 63.9423 82.7591C75.2611 87.2395 83.9042 72.8642 92.8819 77.5552C103.281 82.9891 99.7211 93.3577 104.453 96.083C109.185 98.8084 114.785 97.771 124.148 97.6029C124.912 97.5892 125.607 97.5999 126.271 97.621V97.9445L136.844 99.8155C144.535 94.0716 145.726 85.092 145.422 75.8858C145.118 66.6796 153.33 64.1094 157.698 69.7893C164.35 78.4386 178.458 76.8838 177.349 63.0226C176.961 58.159 185.132 55.1456 187.631 59.1439C194.283 69.7893 207.586 67.1279 208.251 54.4866C208.916 41.8452 194.283 33.8611 187.631 41.8452Z" fill="#2D8C3C"/>
<path d="M46.3291 77.4822C53.2334 73.3254 56.365 65.8605 53.3236 60.809C50.2822 55.7574 42.2197 55.032 35.3154 59.1888C28.4111 63.3457 25.2795 70.8105 28.3209 75.8621C31.3622 80.9137 39.4248 81.639 46.3291 77.4822Z" fill="#2D8C3C"/>
<path fill-rule="evenodd" clip-rule="evenodd" d="M165.775 21.9176C160.695 21.7676 154.863 25.0651 152.613 33.3201C152.023 35.4839 150.966 37.7739 149.613 39.7992C148.273 41.8055 146.518 43.7379 144.431 44.9883C142.294 46.2682 139.608 46.9267 136.821 45.858C134.146 44.8319 132.01 42.4473 130.323 39.0866L133.005 37.7399L130.323 39.0866C125.224 28.9301 113.968 24.1422 102.167 23.0656C96.3321 22.5332 90.5665 22.938 85.7375 23.9628C80.8095 25.0087 77.2282 26.6205 75.4385 28.2132C74.2001 29.3153 72.3027 29.2048 71.2006 27.9664C70.0985 26.7279 70.209 24.8306 71.4475 23.7285C74.3845 21.1148 79.1689 19.2197 84.4912 18.0902C89.9125 16.9396 96.2822 16.5002 102.713 17.0869C115.444 18.2485 129.242 23.5515 135.688 36.3932C137.035 39.0771 138.256 39.9785 138.971 40.2526C139.574 40.484 140.313 40.4569 141.346 39.8381C142.428 39.1898 143.589 38.0105 144.621 36.4649C145.64 34.9384 146.413 33.2364 146.821 31.7409C149.741 21.0302 157.878 15.6783 165.952 15.9168C174.009 16.1547 181.426 21.9909 182.55 32.0851C182.732 33.7198 183.71 36.6889 184.981 38.6629C185.243 39.069 185.468 39.3553 185.645 39.5535C190.221 34.4557 197.109 34.8618 202.201 37.8404C207.461 40.9182 211.647 47.075 211.249 54.6442C210.857 62.0834 206.6 67.2346 200.819 68.4819C195.126 69.7101 188.957 66.9305 185.085 60.7345C184.955 60.5261 184.196 59.9229 182.458 60.572C180.767 61.2035 180.3 62.2642 180.342 62.7832C180.659 66.7548 179.907 70.1458 178.201 72.7768C176.485 75.4234 173.949 77.0726 171.153 77.7618C165.652 79.1177 159.29 76.7821 155.319 71.6191C153.861 69.7226 152.126 69.534 150.978 70.0198C149.846 70.4986 148.311 72.0773 148.421 75.7464C148.711 80.5107 148.243 85.2909 147.035 89.9088C146.615 91.5126 144.975 92.4726 143.371 92.0529C141.767 91.6333 140.807 89.993 141.227 88.3892C142.278 84.3729 142.682 80.2149 142.426 76.0713C142.424 76.0425 142.423 76.0136 142.422 75.9848C142.24 70.4765 144.653 66.1768 148.639 64.4906C152.613 62.8098 157.169 64.176 160.078 67.9593C162.759 71.4457 166.777 72.6574 169.716 71.9328C171.14 71.5818 172.338 70.784 173.164 69.5109C173.999 68.2222 174.594 66.2209 174.357 63.2619C174.01 58.9173 177.435 56.0396 180.357 54.948C183.233 53.8741 187.808 53.7632 190.177 57.5532C192.957 62.0026 196.765 63.215 199.553 62.6135C202.252 62.0311 204.98 59.5309 205.253 54.3288C205.52 49.2567 202.722 45.1008 199.169 43.0222C195.567 40.9149 192.018 41.2684 189.937 43.7665C189.239 44.6044 188.33 45.3399 187.172 45.6934C185.974 46.0594 184.814 45.9226 183.829 45.5237C182.054 44.8049 180.777 43.2221 179.934 41.9131C178.168 39.1703 176.87 35.3179 176.584 32.7494C175.794 25.6581 170.872 22.0681 165.775 21.9176ZM185.204 40.0505C185.204 40.0504 185.205 40.0497 185.207 40.0484C185.205 40.0499 185.204 40.0505 185.204 40.0505Z" fill="black"/>
<path fill-rule="evenodd" clip-rule="evenodd" d="M27.1066 70.1892C28.5909 75.1536 31.7825 78.7673 36.8846 80.1522C38.4845 80.5865 39.4295 82.2355 38.9952 83.8354C38.5609 85.4353 36.9119 86.3803 35.312 85.946C27.8946 83.9328 23.3352 78.5327 21.3547 71.909C19.4049 65.3876 19.9154 57.6569 22.3781 50.366C27.2923 35.8167 40.4645 21.8384 60.0521 22.2106C61.7096 22.2421 63.0278 23.6113 62.9963 25.2688C62.9648 26.9263 61.5955 28.2445 59.938 28.213C43.6987 27.9044 32.403 39.4465 28.0659 52.2871C25.9028 58.6911 25.5917 65.1226 27.1066 70.1892Z" fill="black"/>
<path fill-rule="evenodd" clip-rule="evenodd" d="M55.9561 46.4378C57.4479 47.1609 58.0711 48.9564 57.3481 50.4482C51.6118 62.2837 53.3167 69.2706 56.6152 73.2576C60.1526 77.5333 66.3228 79.3932 71.2267 79.2768C76.414 79.1538 80.1166 77.6456 83.4308 76.1148C83.7341 75.9747 84.0425 75.8303 84.3544 75.6842C85.695 75.0563 87.1011 74.3978 88.4519 73.9214C90.1854 73.31 92.0978 72.8901 94.2036 73.1241C98.9416 73.6507 102.06 76.2224 103.967 79.5906C105.779 82.7895 106.492 86.6709 106.836 90.1136C107.201 93.7631 109.242 95.7105 111.443 96.5204C113.903 97.4252 116.14 96.8264 117.025 95.9412L119.148 98.0635L117.025 95.9412C121.234 91.732 127.43 91.3744 132.277 93.2274C137.162 95.0949 141.52 99.5413 141.481 105.83C141.471 107.488 140.118 108.823 138.461 108.813C136.803 108.803 135.467 107.45 135.478 105.793C135.497 102.652 133.349 100.064 130.133 98.835C126.88 97.5913 123.382 98.0744 121.271 100.186C118.274 103.184 113.347 103.618 109.371 102.155C105.137 100.597 101.469 96.7772 100.863 90.7108C100.542 87.5 99.9249 84.6357 98.7431 82.5489C97.6573 80.6314 96.1193 79.3774 93.5404 79.0908C92.6529 78.9922 91.6968 79.1428 90.4487 79.583C89.405 79.9511 88.343 80.4476 87.0316 81.0607C86.6889 81.2209 86.3291 81.3891 85.9481 81.565C82.3715 83.217 77.7804 85.1266 71.3691 85.2786C65.2563 85.4236 57.0493 83.2003 51.9895 77.0845C46.6909 70.6799 45.5786 60.9668 51.9457 47.8298C52.6687 46.338 54.4642 45.7148 55.9561 46.4378Z" fill="black"/>
<path fill-rule="evenodd" clip-rule="evenodd" d="M55.9561 46.4378C57.4479 47.1609 58.0711 48.9564 57.3481 50.4482C51.6118 62.2837 53.3167 69.2706 56.6152 73.2576C60.1526 77.5333 66.3228 79.3932 71.2267 79.2768C76.414 79.1538 80.1166 77.6456 83.4308 76.1148C83.7341 75.9747 84.0425 75.8303 84.3544 75.6842C85.695 75.0563 87.1011 74.3978 88.4519 73.9214C90.1854 73.31 92.0978 72.8901 94.2036 73.1241C98.9416 73.6507 102.06 76.2224 103.967 79.5906C105.779 82.7895 106.492 86.6709 106.836 90.1136C107.201 93.7631 109.242 95.7105 111.443 96.5204C113.903 97.4252 116.14 96.8264 117.025 95.9412L119.148 98.0635L117.025 95.9412C121.234 91.732 127.43 91.3744 132.277 93.2274C137.162 95.0949 141.52 99.5413 141.481 105.83C141.471 107.488 140.118 108.823 138.461 108.813C136.803 108.803 135.467 107.45 135.478 105.793C135.497 102.652 133.349 100.064 130.133 98.835C126.88 97.5913 123.382 98.0744 121.271 100.186C118.274 103.184 113.347 103.618 109.371 102.155C105.137 100.597 101.469 96.7772 100.863 90.7108C100.542 87.5 99.9249 84.6357 98.7431 82.5489C97.6573 80.6314 96.1193 79.3774 93.5404 79.0908C92.6529 78.9922 91.6968 79.1428 90.4487 79.583C89.405 79.9511 88.343 80.4476 87.0316 81.0607C86.6889 81.2209 86.3291 81.3891 85.9481 81.565C82.3715 83.217 77.7804 85.1266 71.3691 85.2786C65.2563 85.4236 57.0493 83.2003 51.9895 77.0845C46.6909 70.6799 45.5786 60.9668 51.9457 47.8298C52.6687 46.338 54.4642 45.7148 55.9561 46.4378Z" fill="black"/>
</svg>
