<svg width="189" height="170" viewBox="0 0 189 170" fill="none" xmlns="http://www.w3.org/2000/svg">
<path d="M140.139 103.476C140.135 103.418 140.128 103.361 140.119 103.304C139.785 101.248 139.341 100.863 138.456 99.3786C148.839 88.7743 142.377 70.37 138.819 63.0535C135.054 55.3121 127.558 43.8012 119.93 40.1687C112.302 36.5362 93.7759 27.0917 69.4381 37.2627C45.1003 47.4337 36.5241 80.6975 36.1452 81.8257C36.1065 81.94 34.435 87.1988 33.4585 94.7352C32.6501 98.4934 32.4487 102.472 32.7837 106.504C32.9244 113.387 34.0977 120.821 37.3335 127.552C43.3945 140.158 63.3832 147.403 67.695 149.201C67.695 149.201 68.2575 161.494 66.6229 163.129C67.7126 168.033 78.8826 169.94 78.8826 169.94C88.5626 170.576 93.0494 163.674 93.0494 163.674V149.78C93.0494 149.78 104.043 144.724 110.465 137.752C115.131 133.247 118.413 125.895 119.151 124.152C119.933 124.264 121.191 124.399 122.72 124.399C126.227 124.399 131.144 123.687 134.93 120.346C139.003 116.753 140.755 111.077 140.139 103.476V103.476Z" fill="white"/>
<path d="M57.0616 104.881C59.856 104.881 62.1213 102.615 62.1213 99.8209C62.1213 97.0265 59.856 94.7612 57.0616 94.7612C54.2672 94.7612 52.002 97.0265 52.002 99.8209C52.002 102.615 54.2672 104.881 57.0616 104.881Z" fill="black"/>
<path d="M92.6261 111.647C95.4205 111.647 97.6857 109.381 97.6857 106.587C97.6857 103.793 95.4205 101.527 92.6261 101.527C89.8317 101.527 87.5664 103.793 87.5664 106.587C87.5664 109.381 89.8317 111.647 92.6261 111.647Z" fill="black"/>
<path d="M67.3698 166.155C66.82 166.155 66.2624 166.004 65.7643 165.687C64.3717 164.803 63.9557 162.962 64.8278 161.566C65.5426 160.2 65.7751 154.683 65.3141 152.405C64.8805 152.293 64.3327 152.164 63.8532 152.052C57.862 150.648 43.8327 147.362 36.4723 131.68C27.0993 111.711 33.1305 82.7881 33.2018 82.5199C37.4401 66.6169 46.2633 33.5113 85.6823 29.5771C87.3376 29.4125 88.8014 30.6156 88.9655 32.2642C89.1296 33.9129 87.9264 35.3828 86.278 35.5474C51.0407 39.0642 43.2116 68.2624 39.0153 84.0058C38.779 85.1527 33.5719 111.379 41.904 129.131C48.0299 142.183 59.6413 144.903 65.2213 146.21C67.8747 146.832 69.3366 147.174 70.236 148.606C72.2545 151.908 71.7428 161.872 69.9049 164.764C69.3337 165.663 68.362 166.155 67.3698 166.155H67.3698Z" fill="black"/>
<path d="M92.591 111.282C95.1837 111.282 97.2855 109.18 97.2855 106.587C97.2855 103.994 95.1837 101.893 92.591 101.893C89.9983 101.893 87.8965 103.994 87.8965 106.587C87.8965 109.18 89.9983 111.282 92.591 111.282Z" fill="black"/>
<path d="M105.812 143.753C104.986 143.753 104.163 143.413 103.57 142.748C102.468 141.51 102.578 139.614 103.816 138.512C112.548 130.736 113.657 122.403 113.668 122.32C113.767 121.515 114.187 120.785 114.832 120.295C115.478 119.804 116.3 119.597 117.096 119.718C117.183 119.731 126.61 121.052 131.856 116.138C134.641 113.529 135.839 109.441 135.42 103.983C134.394 97.9988 129.855 96.5115 126.253 97.0644C124.606 97.314 123.084 96.1918 122.833 94.5541C122.581 92.9164 123.705 91.385 125.343 91.1337C131.954 90.1195 139.788 93.4428 141.362 103.137C141.374 103.216 141.384 103.296 141.391 103.376C141.994 110.826 140.156 116.602 135.93 120.543C130.632 125.482 123.043 126.005 118.991 125.875C117.901 129.638 115.037 136.553 107.806 142.993C107.235 143.502 106.522 143.753 105.812 143.753Z" fill="black"/>
<path d="M39.1916 133.406C38.0647 133.406 36.9846 132.768 36.4738 131.68C29.7004 117.249 30.9143 98.3369 32.2414 88.348C32.4592 86.7053 33.966 85.5508 35.6096 85.7692C37.2522 85.9873 38.4074 87.4956 38.1887 89.1381C37.1906 96.6551 35.5539 115.6 41.9055 129.13C42.6096 130.63 41.9641 132.417 40.4641 133.121C40.052 133.314 39.6184 133.406 39.1916 133.406Z" fill="black"/>
<path d="M175.02 99.9886C177.072 94.1214 180.173 88.6749 182.408 82.8751C186.277 72.8336 190.865 58.5548 187.985 48.1864C185.106 37.8183 178.426 29.1689 168.634 24.7069C158.842 20.2448 146.628 19.322 136.665 28.7213C132.726 32.4373 131.265 38.7237 126.41 37.034C119.09 31.4986 106.504 25.6683 94.8344 24.0748C58.65 19.134 21.7599 51.3717 27.3691 81.1534C29.7953 94.0348 47.1391 93.9552 66.8515 83.9083C93.3984 70.3778 90.9951 65.8981 101.271 69.8085C111.547 73.7189 113.895 89.9501 128.438 90.9425C138.465 91.6268 137.185 103.281 140.314 98.9981C145.418 92.0138 145.62 72.4117 142.46 62.8531C141.586 60.2108 140.554 57.6168 139.363 55.0956C138.78 51.1422 148.852 49.9063 152.908 54.4825C157.509 59.6729 158.508 71.1288 154.787 88.6681C153.784 93.4 151.235 97.6554 149.618 102.214C148.001 106.773 147.168 111.929 149.075 116.374C150.981 120.82 156.412 123.969 160.832 122.003C160.099 127.336 162.137 132.973 166.11 136.605C170.082 140.237 175.88 141.763 181.126 140.556C184.924 139.683 188.608 137.167 188.616 133.27C188.636 123.907 178.348 123.938 175.534 119.439C171.975 113.748 172.805 106.325 175.02 99.9886V99.9886Z" fill="black"/>
</svg>
