<svg width="192" height="172" viewBox="0 0 192 172" fill="none" xmlns="http://www.w3.org/2000/svg">
<path d="M140.403 103.745C140.399 103.687 140.392 103.63 140.383 103.573C140.175 102.14 139.601 100.785 138.716 99.639C149.123 89.0104 142.647 70.5638 139.08 63.2305C135.307 55.4713 127.794 43.934 120.148 40.2932C112.502 36.6524 93.9337 27.1862 69.54 37.3805C45.1463 47.5749 36.5505 80.915 36.1707 82.0459C34.9192 86.2776 34.0185 90.6053 33.4778 94.9849C32.6745 98.8622 32.4466 102.837 32.8015 106.78C32.8062 114.057 34.3607 121.249 37.3617 127.877C43.4366 140.512 63.4712 147.774 67.793 149.576C67.793 149.576 67.75 164.815 66.1117 166.454C67.2039 171.369 79.0062 171.841 79.0062 171.841C82.8605 172.159 86.7392 172.001 90.555 171.372C91.3024 171.231 91.9768 170.832 92.461 170.246C92.9451 169.659 93.2086 168.921 93.2055 168.161V150.156C93.2055 150.156 104.225 145.088 110.661 138.1C115.337 133.585 118.627 126.216 119.367 124.469C120.552 124.635 121.748 124.718 122.944 124.717C126.459 124.717 131.388 124.003 135.182 120.655C139.264 117.053 141.021 111.365 140.403 103.745Z" fill="white"/>
<path d="M57.1339 105.154C59.9347 105.154 62.2052 102.883 62.2052 100.082C62.2052 97.2816 59.9347 95.0111 57.1339 95.0111C54.3331 95.0111 52.0626 97.2816 52.0626 100.082C52.0626 102.883 54.3331 105.154 57.1339 105.154Z" fill="black"/>
<path d="M92.78 111.935C95.5808 111.935 97.8513 109.665 97.8513 106.864C97.8513 104.063 95.5808 101.793 92.78 101.793C89.9792 101.793 87.7087 104.063 87.7087 106.864C87.7087 109.665 89.9792 111.935 92.78 111.935Z" fill="black"/>
<path d="M66.1072 169.461C65.571 169.46 65.0447 169.316 64.5828 169.044C64.1209 168.771 63.7403 168.38 63.4803 167.912C63.2203 167.443 63.0904 166.913 63.1042 166.377C63.1179 165.841 63.2747 165.318 63.5584 164.863C64.4168 163.261 65.514 155.704 65.2615 152.75C64.8533 152.646 64.3708 152.533 63.9411 152.433C57.9361 151.026 43.8746 147.732 36.4973 132.014C27.1028 111.999 33.1479 83.0098 33.2193 82.741C37.4673 66.8014 46.3108 33.6197 85.8203 29.6765C86.2138 29.636 86.6115 29.6737 86.9904 29.7872C87.3694 29.9007 87.7222 30.0879 88.0287 30.3381C88.3352 30.5882 88.5893 30.8964 88.7765 31.2449C88.9637 31.5934 89.0802 31.9754 89.1195 32.3691C89.1588 32.7627 89.12 33.1603 89.0054 33.5389C88.8907 33.9175 88.7025 34.2698 88.4515 34.5756C88.2005 34.8813 87.8916 35.1345 87.5425 35.3207C87.1935 35.5069 86.8111 35.6224 86.4174 35.6605C51.1001 39.1854 43.2521 68.4506 39.0461 84.2303C38.8093 85.3798 33.5903 111.666 41.9414 129.459C48.0815 142.541 59.7195 145.267 65.3124 146.577C67.9718 147.2 69.4371 147.544 70.3385 148.979C72.5076 152.526 70.4227 165.272 68.6481 168.066C68.3766 168.494 68.0012 168.846 67.5569 169.09C67.1127 169.334 66.614 169.461 66.1072 169.461Z" fill="black"/>
<path d="M57.134 104.765C59.7326 104.765 61.8392 102.658 61.8392 100.059C61.8392 97.4608 59.7326 95.3542 57.134 95.3542C54.5353 95.3542 52.4287 97.4608 52.4287 100.059C52.4287 102.658 54.5353 104.765 57.134 104.765Z" fill="black"/>
<path d="M92.7449 111.569C95.3435 111.569 97.4501 109.463 97.4501 106.864C97.4501 104.265 95.3435 102.159 92.7449 102.159C90.1462 102.159 88.0396 104.265 88.0396 106.864C88.0396 109.463 90.1462 111.569 92.7449 111.569Z" fill="black"/>
<path d="M105.996 144.115C105.386 144.115 104.791 143.93 104.289 143.584C103.787 143.238 103.402 142.748 103.185 142.178C102.968 141.608 102.929 140.986 103.074 140.394C103.218 139.802 103.54 139.268 103.995 138.862C112.642 131.162 113.861 122.701 113.873 122.616C113.926 122.22 114.057 121.837 114.259 121.492C114.46 121.146 114.729 120.844 115.048 120.603C115.368 120.362 115.732 120.187 116.119 120.087C116.507 119.988 116.911 119.967 117.307 120.025C117.396 120.038 126.844 121.362 132.1 116.437C134.892 113.822 136.093 109.724 135.673 104.254C134.643 98.2558 130.093 96.7655 126.484 97.3194C126.094 97.3793 125.695 97.3618 125.312 97.2677C124.928 97.1737 124.567 97.0051 124.249 96.7714C123.606 96.2996 123.177 95.5917 123.056 94.8034C122.935 94.0151 123.132 93.2111 123.604 92.5682C124.076 91.9253 124.783 91.4961 125.572 91.3751C132.188 90.3594 140.048 93.6879 141.628 103.405C141.641 103.485 141.65 103.565 141.657 103.645C142.262 111.113 140.42 116.902 136.184 120.852C130.875 125.802 123.27 126.327 119.207 126.196C117.152 132.853 113.266 138.799 107.994 143.353C107.445 143.845 106.733 144.116 105.996 144.115Z" fill="black"/>
<path d="M39.2209 133.744C38.6494 133.745 38.0897 133.582 37.6073 133.276C37.1249 132.969 36.7397 132.532 36.4969 132.014C29.7079 117.55 30.9246 98.5949 32.2548 88.5831C32.3068 88.1917 32.4353 87.8144 32.6332 87.4726C32.831 87.1309 33.0942 86.8315 33.4077 86.5915C33.7212 86.3515 34.0789 86.1756 34.4604 86.0739C34.8419 85.9721 35.2397 85.9465 35.6311 85.9985C36.0225 86.0505 36.3999 86.1791 36.7416 86.3769C37.0833 86.5747 37.3827 86.8379 37.6227 87.1514C37.8627 87.465 38.0386 87.8227 38.1403 88.2042C38.2421 88.5857 38.2677 88.9835 38.2157 89.3749C37.2154 96.9092 35.5749 115.897 41.941 129.459C42.1557 129.917 42.2514 130.422 42.2192 130.927C42.187 131.432 42.028 131.921 41.7568 132.348C41.4856 132.775 41.1111 133.127 40.6678 133.371C40.2246 133.615 39.7269 133.744 39.2209 133.744V133.744Z" fill="black"/>
<path d="M175.362 100.25C177.418 94.3696 180.527 88.9106 182.766 83.0974C186.644 73.0329 191.242 58.7213 188.356 48.3291C185.47 37.9372 178.776 29.2679 168.961 24.7957C159.147 20.3233 142.882 23.6086 134.485 30.3775C130.26 33.784 131.506 38.8446 126.64 37.151C119.303 31.603 106.728 25.4309 94.9919 24.1621C63.4951 20.7569 21.7495 51.5217 27.3716 81.3718C29.8033 94.2827 47.187 94.203 66.9447 84.133C93.5525 70.5714 91.1437 66.0814 101.443 70.0008C111.743 73.9202 114.097 90.1887 128.672 91.1833C138.722 91.8692 138.838 100.683 142.014 96.4202C145.191 92.1572 145.894 72.61 142.727 63.0295C141.851 60.3769 140.814 57.7803 139.622 55.2541C139.039 51.2916 149.134 50.053 153.199 54.6396C157.81 59.842 158.811 71.3241 155.082 88.9037C154.076 93.6465 151.522 97.9116 149.901 102.481C148.281 107.05 147.446 112.218 149.357 116.674C151.268 121.129 156.711 124.286 161.141 122.315C160.772 125.001 161.06 127.736 161.982 130.285C162.903 132.834 164.43 135.122 166.431 136.951C168.431 138.78 170.846 140.096 173.468 140.786C176.09 141.476 178.839 141.519 181.481 140.911C185.289 140.036 188.98 137.514 188.989 133.608C189.009 124.223 178.697 124.254 175.877 119.745C172.31 114.041 173.141 106.601 175.362 100.25Z" fill="#2D8C3C"/>
<path d="M181.479 143.918C180.741 143.918 180.028 143.645 179.478 143.153C178.927 142.66 178.577 141.983 178.494 141.249C178.411 140.515 178.601 139.776 179.028 139.173C179.455 138.571 180.089 138.146 180.809 137.981C183.381 137.389 185.979 135.805 185.984 133.601C185.991 129.66 183.593 128.221 179.68 126.201C177.276 124.959 174.79 123.676 173.329 121.339C168.81 114.113 170.397 105.343 172.524 99.2579C173.699 95.8982 175.196 92.6852 176.644 89.578C177.795 87.1073 178.985 84.5525 179.963 82.016C184.247 70.8928 187.452 55.712 184.952 46.8726C181.281 33.8892 175.269 29.6698 166.125 26.7692C155.791 23.4921 147.547 24.6314 140.175 30.3552C138.35 31.8457 136.739 33.5806 135.388 35.5108C133.287 38.285 130.675 41.7386 125.653 39.9908C125.261 39.8543 124.901 39.6382 124.597 39.3562C116.818 32.1444 108.148 28.6085 94.6699 27.1516C77.4234 25.2867 55.7291 34.4231 41.9104 49.3697C32.5324 59.5139 28.4195 70.6815 30.3282 80.8152C30.5149 82.146 31.0292 83.4097 31.825 84.4927C32.6208 85.5757 33.6731 86.444 34.8874 87.0198C41.096 90.0708 52.8593 87.938 65.5808 81.4539C72.2076 78.1001 78.6502 74.3939 84.8809 70.3512C92.1191 65.7212 94.5554 64.1621 102.515 67.1904C107.374 69.0398 110.349 72.8914 112.974 76.2897C116.755 81.1843 119.751 85.0496 127.494 84.1167C128.285 84.0241 129.079 84.2487 129.705 84.7411C130.33 85.2336 130.734 85.9538 130.829 86.744C130.924 87.5341 130.702 88.3297 130.212 88.9564C129.721 89.5831 129.002 89.9898 128.213 90.0874C117.054 91.43 112.158 85.0719 108.214 79.9655C105.867 76.9272 103.65 74.0574 100.375 72.811C95.2475 70.8589 94.9783 71.0304 88.1217 75.4171C81.7265 79.5662 75.1137 83.3699 68.3117 86.8119C53.4975 94.3614 40.3482 96.4038 32.2359 92.4174C30.1836 91.4289 28.4008 89.9588 27.0396 88.1323C25.6783 86.3059 24.7789 84.1773 24.4181 81.9282C22.1483 69.877 26.7927 56.8644 37.495 45.2874C52.5196 29.0333 76.2899 19.1164 95.3159 21.1725C105.499 22.2733 117.328 24.7179 128.116 34.4248C128.565 34.417 129.042 33.9304 130.594 31.8803C132.258 29.5253 134.241 27.4132 136.486 25.6047C145.437 18.6562 155.727 17.1616 167.943 21.0368C178.463 24.3737 186.365 29.766 190.739 45.2362C193.813 56.104 189.877 73.0064 185.575 84.1782C184.522 86.9064 183.288 89.5556 182.095 92.1177C180.645 95.2282 179.277 98.1662 178.201 101.243C176.815 105.206 175.002 112.673 178.428 118.151C179.015 119.089 180.756 119.988 182.439 120.857C186.252 122.826 192.014 125.801 191.997 133.614C191.987 138.455 188.123 142.469 182.156 143.841C181.934 143.893 181.707 143.918 181.479 143.918Z" fill="black"/>
<path d="M158.278 125.918C156.847 125.91 155.43 125.635 154.1 125.106C150.746 123.766 148.051 121.164 146.594 117.859C144.656 113.339 144.816 107.827 147.069 101.476C147.719 99.641 148.501 97.8762 149.257 96.1697C150.487 93.6459 151.454 91.0019 152.142 88.2797C155.438 72.7419 155.003 61.2075 150.95 56.634C149.549 55.3345 147.69 54.6433 145.781 54.7118C144.696 54.6433 143.611 54.853 142.63 55.3212C142.613 56.0747 142.314 56.7943 141.792 57.3377C141.269 57.881 140.562 58.2084 139.81 58.2551C139.057 58.3017 138.315 58.0642 137.73 57.5895C137.144 57.1148 136.758 56.4377 136.649 55.692C136.283 53.2137 137.649 50.9971 140.3 49.7627C144.603 47.7582 151.72 48.4376 155.45 52.645C161.018 58.9264 161.884 71.3354 158.025 89.5276C157.256 92.6598 156.16 95.7024 154.755 98.6054C154.013 100.283 153.311 101.867 152.736 103.486C151.006 108.366 150.798 112.404 152.121 115.489C152.942 117.316 154.437 118.755 156.294 119.506C156.864 119.756 157.478 119.89 158.1 119.9C158.722 119.911 159.341 119.798 159.919 119.568C160.28 119.406 160.669 119.318 161.064 119.307C161.459 119.296 161.853 119.363 162.222 119.505C162.591 119.646 162.929 119.859 163.215 120.131C163.502 120.403 163.733 120.729 163.893 121.09C164.054 121.452 164.142 121.841 164.152 122.236C164.162 122.631 164.094 123.025 163.952 123.394C163.81 123.763 163.597 124.1 163.324 124.386C163.052 124.672 162.725 124.902 162.364 125.062C161.077 125.631 159.685 125.922 158.278 125.918Z" fill="black"/>
</svg>
