<svg width="180" height="222" viewBox="0 0 180 222" fill="none" xmlns="http://www.w3.org/2000/svg">
<path d="M119.091 124.188C119.091 124.188 125.997 125.722 128.931 140.998C131.865 156.274 114.321 161.853 114.669 178.973C115.018 196.094 136.201 189.137 146.592 198.742C146.592 198.742 145.333 225.831 170.968 217.505C170.968 217.505 160.226 207.121 172.781 194.058C181.453 185.035 170.863 174.117 161.625 173.619C152.387 173.121 146.184 166.637 158.781 155.33C171.379 144.022 154.016 132.193 150.77 130.466C147.525 128.74 137.263 124.616 134.87 120.382L119.091 124.188V124.188Z" fill="black"/>
<path d="M140.079 103.511C140.074 103.453 140.067 103.396 140.059 103.34C139.724 101.284 139.281 100.899 138.395 99.4142C148.778 88.81 142.317 70.4056 138.758 63.0891C134.994 55.3477 127.498 43.8368 119.869 40.2043C112.241 36.5718 93.7153 27.1273 69.3775 37.2983C45.0397 47.4694 36.4636 80.7332 36.0847 81.8614C36.046 81.9757 34.3745 87.2344 33.398 94.7708C32.5895 98.5291 32.3882 102.508 32.7232 106.539C32.8639 113.423 34.0371 120.857 37.2729 127.588C43.3339 140.194 63.3226 147.439 67.6345 149.236C67.6345 149.236 68.197 161.53 66.5623 163.165C67.6521 168.069 78.822 169.976 78.822 169.976C88.502 170.612 92.9888 163.71 92.9888 163.71V149.815C92.9888 149.815 103.983 144.759 110.404 137.788C115.07 133.283 118.352 125.93 119.09 124.188C119.873 124.3 121.13 124.435 122.66 124.435C126.166 124.435 131.083 123.722 134.869 120.382C138.942 116.789 140.694 111.113 140.079 103.511L140.079 103.511Z" fill="white"/>
<path d="M57.0011 104.916C59.7955 104.916 62.0607 102.651 62.0607 99.8565C62.0607 97.0622 59.7955 94.7969 57.0011 94.7969C54.2067 94.7969 51.9414 97.0622 51.9414 99.8565C51.9414 102.651 54.2067 104.916 57.0011 104.916Z" fill="black"/>
<path d="M92.5655 111.682C95.3599 111.682 97.6252 109.417 97.6252 106.622C97.6252 103.828 95.3599 101.562 92.5655 101.562C89.7712 101.562 87.5059 103.828 87.5059 106.622C87.5059 109.417 89.7712 111.682 92.5655 111.682Z" fill="black"/>
<path d="M67.3108 166.19C66.761 166.19 66.2044 166.039 65.7053 165.722C64.3137 164.838 63.8968 162.998 64.7688 161.602C65.4827 160.236 65.7151 154.718 65.2542 152.44C64.8216 152.327 64.2737 152.199 63.7942 152.087C57.803 150.683 43.7727 147.396 36.4124 131.715C26.9319 111.515 33.0686 82.834 33.1399 82.5646C37.3801 66.6516 46.2034 33.546 85.6233 29.6117C87.2903 29.4475 88.7425 30.6502 88.9065 32.2988C89.0706 33.9475 87.8675 35.4175 86.219 35.582C50.9807 39.0989 43.1516 68.2955 38.9563 84.0389C38.7171 85.202 33.5237 111.439 41.844 129.166C47.97 142.217 59.5823 144.937 65.1624 146.245C67.8157 146.866 69.2776 147.209 70.177 148.641C72.1946 151.943 71.6829 161.906 69.846 164.798C69.2747 165.698 68.303 166.19 67.3108 166.19H67.3108Z" fill="black"/>
<path d="M57.0011 104.528C59.5938 104.528 61.6956 102.426 61.6956 99.8337C61.6956 97.241 59.5938 95.1392 57.0011 95.1392C54.4084 95.1392 52.3066 97.241 52.3066 99.8337C52.3066 102.426 54.4084 104.528 57.0011 104.528Z" fill="black"/>
<path d="M92.5304 111.317C95.1231 111.317 97.2249 109.215 97.2249 106.622C97.2249 104.03 95.1231 101.928 92.5304 101.928C89.9377 101.928 87.8359 104.03 87.8359 106.622C87.8359 109.215 89.9377 111.317 92.5304 111.317Z" fill="black"/>
<path d="M105.751 143.788C104.925 143.788 104.102 143.448 103.51 142.783C102.408 141.546 102.517 139.649 103.755 138.547C112.381 130.865 113.597 122.423 113.609 122.338C113.716 121.541 114.139 120.811 114.784 120.328C115.428 119.845 116.24 119.632 117.035 119.753C117.123 119.766 126.55 121.088 131.795 116.173C134.58 113.565 135.778 109.476 135.359 104.019C134.332 98.0336 129.792 96.5461 126.191 97.0994C124.546 97.3497 123.022 96.2267 122.771 94.5892C122.519 92.9515 123.643 91.4201 125.281 91.1688C131.885 90.1552 139.725 93.4763 141.301 103.172C141.313 103.251 141.323 103.331 141.33 103.411C141.933 110.861 140.095 116.637 135.869 120.578C130.572 125.517 122.978 126.041 118.93 125.91C117.839 129.673 114.976 136.587 107.745 143.028C107.174 143.537 106.461 143.788 105.751 143.788Z" fill="black"/>
<path d="M39.1282 133.441C38.0012 133.441 36.9212 132.803 36.4104 131.715C29.638 117.284 30.8518 98.3721 32.179 88.3833C32.3967 86.7406 33.9075 85.5857 35.5471 85.8044C37.1897 86.0226 38.345 87.5309 38.1262 89.1733C37.1282 96.6903 35.4915 115.635 41.8421 129.166C42.5462 130.666 41.9006 132.452 40.4006 133.156C39.9885 133.349 39.5549 133.441 39.1282 133.441L39.1282 133.441Z" fill="black"/>
<path d="M42.5414 82.415C45.0674 72.4915 50.6312 68.3087 55.1158 64.506C58.9976 61.2146 63.6948 58.9812 67.0425 58.7169C69.9525 58.4872 72.9997 66.6096 74.6258 70.5711C77.8787 78.496 82.6772 81.4499 89.663 84.7192C96.6487 87.9885 118.954 86.5175 125.013 91.3886C125.013 91.3886 134.572 88.5532 140.217 99.3709C140.217 99.3709 152.174 66.5664 134.723 43.1275C117.271 19.6886 80.7717 22.3595 62.0597 30.4255C43.3477 38.4914 24.5667 57.8094 26.7452 74.5517C28.9236 91.2939 40.0155 92.3384 42.5415 82.415H42.5414Z" fill="black"/>
<path d="M138.337 106.653C137.731 106.653 137.119 106.47 136.588 106.088C135.244 105.12 134.937 103.246 135.905 101.901C135.955 101.832 140.997 94.7288 141.454 88.5819C142.98 68.0276 139.195 52.378 130.202 42.0674C122.29 32.998 110.641 28.1035 94.5864 27.1043C73.644 25.8006 49.3022 36.5694 36.7426 52.7129C31.7612 59.1159 26.5756 69.0946 30.1635 80.2718C32.2084 86.6401 33.7563 87.0874 33.7719 87.0902C33.8286 87.0902 36.2358 86.9906 41.5942 76.0098C41.9604 75.2593 42.3413 74.4456 42.7368 73.6009C45.1596 68.4256 47.9057 62.5598 51.8374 60.694C55.3315 59.0354 58.3833 59.4992 60.6176 60.58C62.1479 58.4591 64.6332 56.2826 68.434 56.6064C75.145 57.175 77.6088 63.2773 79.2387 67.3153L79.5649 68.1189C82.6323 75.5922 84.8901 79.1729 90.935 82.002C99.5708 86.0428 107.921 87.3003 116.474 85.8464C125.062 84.3859 133.914 88.2007 134.286 88.3637C135.803 89.0282 136.496 90.7973 135.831 92.3151C135.166 93.8315 133.402 94.5234 131.883 93.862C131.809 93.8294 124.269 90.6069 117.48 91.7614C107.688 93.4268 98.1723 92.0129 88.392 87.4363C80.6205 83.799 77.5629 79.0437 74.0141 70.3971L73.6752 69.5616C72.0366 65.5026 70.7504 62.8241 67.9282 62.5849C67.0209 62.5079 65.9282 62.7232 64.2631 66.2712C63.8217 67.2139 62.9223 67.86 61.8871 67.9781C60.853 68.0961 59.8295 67.6685 59.1879 66.85C58.7866 66.377 57.1635 64.8082 54.4096 66.1146C52.4252 67.0562 49.7621 72.7455 48.1713 76.1448C47.7612 77.0203 47.3657 77.8636 46.9868 78.6413C41.895 89.0773 37.8315 93.3944 33.3403 93.0747C28.4155 92.7211 25.9077 86.6452 24.4506 82.1057C21.0268 71.4393 23.7104 59.6923 32.0073 49.0286C45.6948 31.4367 72.1508 19.6979 94.9594 21.1158C112.697 22.2199 125.704 27.7831 134.723 38.1236C144.809 49.6874 149.087 66.8134 147.438 89.026C146.855 96.8748 141.023 105.061 140.776 105.405C140.189 106.22 139.27 106.653 138.337 106.653L138.337 106.653Z" fill="black"/>
<path d="M173.103 221.86C172.598 221.86 172.086 221.732 171.616 221.464C167.115 218.89 164.387 215.949 163.276 212.474C162.005 208.498 162.929 203.811 165.948 198.92C166.681 197.733 167.502 196.634 168.295 195.571C169.757 193.614 171.137 191.765 171.637 189.792C172.714 185.543 170.723 180.525 167.106 178.37C164.485 176.808 162.751 176.662 160.744 176.493C159.073 176.352 157.18 176.193 154.911 175.256C153.335 174.605 151.177 173.713 149.727 171.721C147.935 169.258 147.789 165.756 149.347 162.582C150.352 160.537 151.853 158.928 153.178 157.509L153.752 156.892C157.116 153.234 160.646 147.563 158.347 141.323C156.704 136.862 152.992 134.968 149.063 132.962C148.041 132.441 146.985 131.902 146.005 131.326C139.672 127.604 135.753 124.276 133.183 117.36C132.606 115.806 133.398 114.08 134.95 113.503C136.502 112.927 138.231 113.716 138.808 115.27C140.786 120.597 143.566 122.933 149.045 126.153C149.871 126.638 150.803 127.114 151.79 127.618C156.126 129.831 161.523 132.585 163.978 139.249C166.588 146.335 164.525 154.044 158.167 160.955L157.564 161.604C156.423 162.826 155.345 163.98 154.734 165.226C154.193 166.326 154.128 167.572 154.578 168.19C155.032 168.814 156.235 169.311 157.202 169.71C158.61 170.292 159.775 170.39 161.247 170.514C163.528 170.706 166.367 170.945 170.178 173.215C176.046 176.713 179.174 184.473 177.453 191.266C176.659 194.397 174.77 196.928 173.103 199.161C172.355 200.163 171.648 201.11 171.054 202.072C169.609 204.411 168.079 207.797 168.991 210.647C169.624 212.627 171.457 214.461 174.595 216.255C176.033 217.078 176.532 218.91 175.71 220.349C175.156 221.317 174.144 221.86 173.103 221.86H173.103Z" fill="black"/>
<path d="M148.821 208.377C147.495 208.377 146.281 207.491 145.924 206.148C145.751 205.497 145.612 204.827 145.475 204.155C145.188 202.748 144.918 201.419 144.287 200.662C143.827 200.109 142.989 199.665 142.399 199.378C139.5 197.97 136.232 197.311 132.773 196.614C131.347 196.326 129.873 196.029 128.412 195.673C121.349 193.951 116.622 191.005 113.961 186.666C110.706 181.362 110.859 174.147 114.382 166.872C115.808 163.926 117.59 161.232 119.313 158.627C120.867 156.279 122.334 154.06 123.539 151.702C124.829 149.177 127.538 142.741 124.837 137.503C119.964 128.058 117.172 126.068 116.553 125.72C115.314 125.707 114.162 124.92 113.743 123.679C113.214 122.109 114.056 120.407 115.627 119.877C119.498 118.568 124.4 123.571 130.169 134.753C132.968 140.181 132.499 147.353 128.882 154.432C127.524 157.09 125.894 159.554 124.318 161.937C122.629 164.49 121.034 166.902 119.782 169.487C117.207 174.805 116.942 180.054 119.074 183.528C120.841 186.409 124.462 188.534 129.834 189.843C131.176 190.171 132.528 190.444 133.96 190.732C137.634 191.473 141.433 192.24 145.02 193.981C146.201 194.555 147.709 195.396 148.896 196.822C150.495 198.74 150.952 200.98 151.354 202.957C151.467 203.512 151.579 204.067 151.722 204.605C152.148 206.206 151.196 207.849 149.594 208.276C149.337 208.345 149.077 208.377 148.821 208.377L148.821 208.377Z" fill="black"/>
</svg>
