<svg width="180" height="222" viewBox="0 0 180 222" fill="none" xmlns="http://www.w3.org/2000/svg">
<path d="M119.091 124.194C119.091 124.194 125.997 125.729 128.931 141.005C131.865 156.281 114.321 161.86 114.669 178.98C115.018 196.101 136.201 189.144 146.592 198.749C146.592 198.749 145.333 225.838 170.968 217.511C170.968 217.511 160.226 207.128 172.781 194.065C181.453 185.041 170.863 174.124 161.625 173.626C152.387 173.128 146.184 166.644 158.781 155.336C171.379 144.029 154.016 132.2 150.77 130.473C147.525 128.747 137.263 124.623 134.87 120.389L119.091 124.194Z" fill="#82BE28"/>
<path d="M140.08 103.518C140.076 103.46 140.068 103.403 140.06 103.346C139.852 101.917 139.279 100.565 138.396 99.421C148.779 88.8168 142.318 70.4125 138.76 63.096C134.995 55.3545 127.499 43.8437 119.871 40.2112C112.242 36.5787 93.7166 27.1342 69.3788 37.3052C45.0409 47.4762 36.4648 80.74 36.0859 81.8682C34.8373 86.0903 33.9387 90.408 33.3992 94.7776C32.5977 98.646 32.3704 102.611 32.7244 106.546C32.7291 113.806 34.2801 120.981 37.2741 127.595C43.3351 140.201 63.3238 147.446 67.6357 149.243C67.6357 149.243 68.1982 161.537 66.5635 163.172C67.6533 168.075 78.8232 169.983 78.8232 169.983C81.5232 170.235 84.2427 169.791 86.7226 168.694C89.2025 167.597 91.3602 165.884 92.99 163.716V149.822C92.99 149.822 103.984 144.766 110.406 137.794C115.071 133.29 118.354 125.937 119.092 124.194C120.274 124.36 121.467 124.443 122.661 124.442C126.168 124.442 131.085 123.729 134.87 120.389C138.943 116.796 140.696 111.12 140.08 103.518Z" fill="white"/>
<path d="M57.0011 104.923C59.7955 104.923 62.0607 102.658 62.0607 99.8634C62.0607 97.069 59.7955 94.8037 57.0011 94.8037C54.2067 94.8037 51.9414 97.069 51.9414 99.8634C51.9414 102.658 54.2067 104.923 57.0011 104.923Z" fill="black"/>
<path d="M92.5655 111.689C95.3599 111.689 97.6252 109.424 97.6252 106.629C97.6252 103.835 95.3599 101.57 92.5655 101.57C89.7712 101.57 87.5059 103.835 87.5059 106.629C87.5059 109.424 89.7712 111.689 92.5655 111.689Z" fill="black"/>
<path d="M67.3108 166.198C66.7757 166.197 66.2505 166.053 65.7897 165.781C65.3288 165.51 64.9491 165.119 64.6898 164.651C64.4304 164.183 64.301 163.654 64.3149 163.119C64.3288 162.585 64.4855 162.063 64.7688 161.609C65.4827 160.243 65.7151 154.725 65.2542 152.447C64.8206 152.335 64.2727 152.206 63.7932 152.094C57.802 150.69 43.7727 147.404 36.4124 131.722C26.9319 111.523 33.0686 82.8415 33.1399 82.5721C37.3802 66.659 46.2034 33.5534 85.6223 29.6192C86.015 29.5789 86.4117 29.6164 86.7898 29.7297C87.1679 29.843 87.5199 30.0298 87.8257 30.2793C88.1315 30.5289 88.385 30.8363 88.5718 31.184C88.7585 31.5318 88.8748 31.9129 88.914 32.3057C88.9532 32.6984 88.9145 33.095 88.8001 33.4728C88.6858 33.8506 88.498 34.202 88.2475 34.5071C87.9971 34.8122 87.6889 35.0648 87.3407 35.2505C86.9924 35.4363 86.6109 35.5515 86.218 35.5895C50.9807 39.1064 43.1516 68.303 38.9563 84.0464C38.7171 85.2095 33.5237 111.446 41.844 129.173C47.97 142.225 59.5813 144.945 65.1614 146.252C67.8157 146.874 69.2776 147.216 70.1761 148.649C72.1936 151.949 71.6829 161.913 69.846 164.805C69.5752 165.232 69.2007 165.584 68.7574 165.827C68.3142 166.071 67.8165 166.198 67.3108 166.198Z" fill="black"/>
<path d="M57.0031 104.535C59.5958 104.535 61.6976 102.433 61.6976 99.8405C61.6976 97.2478 59.5958 95.146 57.0031 95.146C54.4104 95.146 52.3086 97.2478 52.3086 99.8405C52.3086 102.433 54.4104 104.535 57.0031 104.535Z" fill="black"/>
<path d="M92.5304 111.324C95.1231 111.324 97.2249 109.222 97.2249 106.63C97.2249 104.037 95.1231 101.935 92.5304 101.935C89.9377 101.935 87.8359 104.037 87.8359 106.63C87.8359 109.222 89.9377 111.324 92.5304 111.324Z" fill="black"/>
<path d="M105.753 143.795C105.145 143.795 104.551 143.61 104.05 143.265C103.549 142.92 103.165 142.431 102.948 141.862C102.732 141.294 102.693 140.673 102.838 140.083C102.982 139.492 103.303 138.959 103.757 138.554C112.383 130.872 113.6 122.43 113.611 122.345C113.664 121.95 113.795 121.568 113.996 121.223C114.197 120.878 114.465 120.577 114.784 120.337C115.102 120.096 115.466 119.921 115.853 119.822C116.239 119.723 116.642 119.702 117.037 119.76C117.126 119.773 126.552 121.094 131.797 116.18C134.582 113.571 135.78 109.482 135.361 104.025C134.334 98.0406 129.792 96.5536 126.193 97.1063C125.407 97.227 124.605 97.0303 123.963 96.5596C123.322 96.0888 122.894 95.3825 122.773 94.596C122.652 93.8096 122.849 93.0074 123.32 92.3659C123.79 91.7245 124.497 91.2963 125.283 91.1756C131.886 90.1619 139.727 93.4832 141.303 103.178C141.315 103.258 141.325 103.338 141.332 103.418C141.935 110.868 140.098 116.644 135.871 120.585C130.574 125.524 122.991 126.047 118.933 125.917C116.882 132.559 113.006 138.49 107.747 143.035C107.198 143.525 106.488 143.795 105.753 143.795Z" fill="black"/>
<path d="M39.1302 133.448C38.5599 133.449 38.0015 133.286 37.5201 132.981C37.0388 132.675 36.6546 132.238 36.4124 131.722C29.6399 117.291 30.8538 98.3792 32.1809 88.3905C32.2322 87.9994 32.36 87.6223 32.5571 87.2807C32.7542 86.9391 33.0168 86.6397 33.3297 86.3997C33.6427 86.1597 33.9999 85.9837 34.3809 85.8819C34.762 85.7801 35.1593 85.7545 35.5503 85.8064C35.9413 85.8583 36.3181 85.9868 36.6594 86.1846C37.0006 86.3823 37.2995 86.6454 37.5389 86.9588C37.7784 87.2722 37.9537 87.6298 38.0548 88.011C38.1559 88.3922 38.1809 88.7896 38.1282 89.1805C37.1302 96.6975 35.4934 115.642 41.844 129.173C42.0583 129.63 42.1538 130.134 42.1216 130.638C42.0895 131.142 41.9308 131.629 41.6603 132.055C41.3897 132.482 41.016 132.833 40.5738 133.076C40.1315 133.32 39.635 133.448 39.1302 133.448V133.448Z" fill="black"/>
<path d="M42.5434 82.4218C45.0694 72.4984 50.6332 68.3155 55.1178 64.5129C58.9995 61.2214 63.6968 58.988 67.0445 58.7237C69.9544 58.494 73.0017 66.6164 74.6277 70.578C77.8807 78.5029 82.6792 81.4567 89.6649 84.726C96.6506 87.9953 118.956 86.5244 125.015 91.3955C125.015 91.3955 134.574 88.56 140.219 99.3778C140.219 99.3778 152.176 66.5732 134.725 43.1343C117.273 19.6954 80.7737 22.3664 62.0617 30.4323C43.3497 38.4982 24.5686 57.8162 26.7471 74.5585C28.9256 91.3008 40.0174 92.3452 42.5434 82.4218Z" fill="#82BE28"/>
<path d="M111.417 92.0116C102.609 92.0116 94.8849 90.4812 88.3937 87.4432C80.6202 83.8053 77.5636 79.0502 74.0148 70.404L73.6749 69.5667C72.0363 65.5087 70.7521 62.831 67.9298 62.5917C67.0089 62.5148 65.9278 62.7339 64.2638 66.2787C64.0463 66.7423 63.7137 67.1424 63.2978 67.4411C62.8818 67.7398 62.3964 67.927 61.8876 67.9849C61.3788 68.0428 60.8637 67.9695 60.3912 67.772C59.9188 67.5745 59.5048 67.2594 59.1886 66.8566C58.6032 66.1959 57.8051 65.7608 56.9327 65.6265C56.0602 65.4922 55.1683 65.6673 54.4113 66.1213C52.3722 67.0889 49.1056 72.5554 47.1291 78.3072C47.0014 78.6803 46.8015 79.0245 46.5407 79.3203C46.2799 79.616 45.9634 79.8574 45.6092 80.0307C45.2551 80.204 44.8702 80.3058 44.4767 80.3302C44.0832 80.3546 43.6887 80.3012 43.3158 80.1731C42.9429 80.0449 42.599 79.8445 42.3036 79.5834C42.0083 79.3222 41.7673 79.0053 41.5945 78.6509C41.4217 78.2965 41.3204 77.9115 41.2965 77.518C41.2726 77.1244 41.3266 76.73 41.4552 76.3573C42.1906 74.2165 46.1486 63.4012 51.839 60.7008C53.1937 60.0036 54.6918 59.6305 56.2153 59.6107C57.7387 59.591 59.246 59.9252 60.6183 60.587C62.1496 58.4662 64.6203 56.2898 68.4357 56.6132C75.1457 57.1818 77.6085 63.2831 79.2384 67.3204L79.5656 68.1256C82.6329 75.5986 84.8908 79.1792 90.9367 82.0088C97.8722 85.2552 106.564 86.537 116.767 85.8181C117.559 85.7655 118.339 86.0288 118.937 86.5503C119.535 87.0718 119.902 87.809 119.958 88.6006C120.014 89.3922 119.754 90.1736 119.235 90.7738C118.716 91.3741 117.98 91.7442 117.189 91.8032C115.217 91.9423 113.293 92.0118 111.417 92.0116Z" fill="black"/>
<path d="M144.45 91.811C144.382 91.811 144.312 91.8087 144.243 91.8039C143.449 91.7496 142.709 91.3823 142.186 90.7827C141.663 90.1831 141.4 89.4003 141.454 88.6064C142.865 67.9492 138.995 52.2489 129.951 41.9417C122.063 32.9525 110.496 28.1014 94.5876 27.1113C74.9343 25.887 53.7546 34.7005 40.6296 49.562C32.0056 59.3284 28.321 70.3657 30.2565 80.6403C30.4038 81.4223 30.2344 82.2307 29.7857 82.8877C29.3369 83.5447 28.6455 83.9966 27.8636 84.1439C27.0816 84.2912 26.2732 84.1218 25.6162 83.673C24.9591 83.2242 24.5073 82.5328 24.36 81.7509C22.0749 69.617 26.2556 56.7748 36.1325 45.5904C50.4372 29.3929 73.5309 19.7899 94.9606 21.1229C112.545 22.2174 125.466 27.7327 134.461 37.9844C144.597 49.5366 148.964 66.7057 147.44 89.0153C147.388 89.7733 147.051 90.4833 146.496 91.0022C145.941 91.5211 145.21 91.8101 144.45 91.811Z" fill="black"/>
<path d="M173.103 221.867C172.581 221.867 172.069 221.73 171.616 221.47C167.116 218.896 164.388 215.956 163.277 212.482C162.005 208.504 162.93 203.817 165.95 198.926C166.682 197.739 167.503 196.639 168.297 195.576C169.758 193.619 171.138 191.77 171.638 189.799C172.139 187.66 171.973 185.419 171.163 183.377C170.353 181.335 168.937 179.59 167.107 178.376C165.19 177.198 162.995 176.55 160.745 176.5C158.746 176.413 156.775 175.995 154.912 175.262C152.885 174.598 151.087 173.372 149.728 171.728C148.841 170.382 148.337 168.821 148.27 167.211C148.203 165.601 148.576 164.003 149.348 162.589C150.365 160.717 151.656 159.007 153.179 157.516L153.753 156.899C157.117 153.241 160.647 147.57 158.348 141.329C156.704 136.868 152.992 134.974 149.063 132.969C148.041 132.447 146.985 131.908 146.006 131.333C139.673 127.612 135.754 124.284 133.184 117.366C133.047 116.997 132.984 116.604 132.998 116.211C133.013 115.817 133.105 115.43 133.269 115.072C133.433 114.713 133.666 114.391 133.955 114.123C134.244 113.855 134.582 113.646 134.952 113.509C135.321 113.372 135.714 113.309 136.107 113.323C136.501 113.338 136.888 113.43 137.246 113.594C137.605 113.758 137.927 113.991 138.195 114.28C138.463 114.569 138.672 114.907 138.809 115.277C140.788 120.605 143.567 122.94 149.045 126.16C149.87 126.645 150.803 127.121 151.79 127.624C156.126 129.837 161.524 132.591 163.979 139.255C166.588 146.343 164.525 154.051 158.168 160.961L157.565 161.611C156.456 162.679 155.503 163.899 154.735 165.233C154.47 165.677 154.317 166.179 154.29 166.696C154.263 167.212 154.362 167.727 154.579 168.197C155.329 168.893 156.226 169.413 157.203 169.717C158.497 170.209 159.865 170.481 161.248 170.521C164.407 170.646 167.481 171.576 170.179 173.222C173.113 175.105 175.39 177.854 176.693 181.088C177.997 184.322 178.263 187.881 177.454 191.273C176.66 194.403 174.772 196.933 173.106 199.165C172.357 200.168 171.649 201.116 171.055 202.078C169.611 204.417 168.08 207.804 168.991 210.654C169.624 212.633 171.457 214.467 174.595 216.262C175.169 216.591 175.619 217.1 175.874 217.71C176.129 218.321 176.175 218.999 176.005 219.638C175.835 220.278 175.458 220.843 174.933 221.246C174.408 221.649 173.765 221.867 173.103 221.867H173.103Z" fill="black"/>
<path d="M148.822 208.384C148.161 208.384 147.519 208.165 146.996 207.762C146.472 207.359 146.096 206.795 145.926 206.157C145.752 205.504 145.612 204.833 145.475 204.16C145.34 202.923 144.934 201.731 144.287 200.669C143.746 200.124 143.106 199.688 142.4 199.385C139.32 198.065 136.086 197.136 132.774 196.621C131.348 196.333 129.874 196.036 128.413 195.68C121.35 193.958 116.623 191.012 113.962 186.673C110.705 181.369 110.859 174.154 114.383 166.878C115.841 164.022 117.489 161.266 119.316 158.63C120.852 156.403 122.263 154.092 123.541 151.708C124.841 149.163 127.572 142.687 124.85 137.537C124.483 136.834 124.41 136.014 124.645 135.257C124.881 134.5 125.407 133.867 126.108 133.496C126.809 133.126 127.629 133.048 128.387 133.28C129.145 133.511 129.781 134.034 130.155 134.733C132.998 140.112 132.534 147.294 128.884 154.439C127.504 157.023 125.981 159.527 124.321 161.94C122.642 164.354 121.126 166.877 119.783 169.494C117.207 174.812 116.942 180.061 119.075 183.535C120.843 186.416 124.463 188.541 129.835 189.85C131.178 190.178 132.529 190.45 133.961 190.739C137.771 191.345 141.488 192.437 145.021 193.988C146.502 194.646 147.823 195.615 148.896 196.828C150.228 198.628 151.074 200.74 151.354 202.961C151.468 203.516 151.579 204.072 151.722 204.611C151.841 205.055 151.855 205.521 151.765 205.972C151.675 206.423 151.482 206.847 151.202 207.212C150.921 207.576 150.561 207.872 150.148 208.075C149.736 208.278 149.282 208.384 148.822 208.384L148.822 208.384Z" fill="black"/>
</svg>
