<svg width="180" height="262" viewBox="0 0 180 262" fill="none" xmlns="http://www.w3.org/2000/svg">
<path d="M140.088 103.185C140.084 103.128 140.077 103.071 140.068 103.014C139.734 100.958 139.29 100.573 138.405 99.0885C148.788 88.4843 142.326 70.08 138.768 62.7635C135.003 55.022 127.507 43.5112 119.879 39.8787C112.251 36.2462 93.7251 26.8016 69.3873 36.9727C45.0495 47.1437 36.4733 80.4075 36.0945 81.5357C36.0557 81.65 34.3842 86.9087 33.4077 94.4452C32.5993 98.2034 32.398 102.182 32.733 106.214C32.8737 113.097 34.0469 120.531 37.2827 127.262C43.3437 139.868 63.3324 147.113 67.6442 148.911C67.6442 148.911 68.2067 161.204 66.5721 162.839C67.6618 167.743 67.7665 173.25 77.9645 173.693C88.1624 174.137 92.9986 163.384 92.9986 163.384V149.49C92.9986 149.49 103.993 144.434 110.414 137.462C115.08 132.957 118.362 125.605 119.1 123.862C119.882 123.974 121.14 124.109 122.669 124.109C126.176 124.109 131.093 123.397 134.879 120.056C138.952 116.463 140.704 110.787 140.088 103.186L140.088 103.185Z" fill="white"/>
<path d="M34.3963 84.0458C31.7003 84.16 28.7728 77.5365 28.0064 71.9633C25.8033 55.9403 34.959 42.5598 38.0518 39.9038C49.6907 29.9085 72.2818 25.1014 75.1744 28.9777C76.2257 30.3864 75.7952 33.2946 74.3612 34.7866C72.4952 36.7281 66.1307 53.1663 64.2212 53.0922C55.8379 52.7666 46.7514 57.2025 43.0734 62.7212C31.9482 79.414 38.452 83.8741 34.3963 84.0458V84.0458Z" fill="black"/>
<path d="M57.0108 104.89C59.8052 104.89 62.0705 102.625 62.0705 99.8307C62.0705 97.0363 59.8052 94.771 57.0108 94.771C54.2165 94.771 51.9512 97.0363 51.9512 99.8307C51.9512 102.625 54.2165 104.89 57.0108 104.89Z" fill="black"/>
<path d="M92.5753 111.357C95.3697 111.357 97.635 109.091 97.635 106.297C97.635 103.503 95.3697 101.237 92.5753 101.237C89.7809 101.237 87.5156 103.503 87.5156 106.297C87.5156 109.091 89.7809 111.357 92.5753 111.357Z" fill="black"/>
<path d="M67.3205 166.865C66.7707 166.865 66.2131 166.713 65.715 166.396C64.3166 165.508 63.9025 163.654 64.7912 162.255C65.508 160.75 65.7404 153.618 65.217 151.02C64.7052 150.85 64.0031 150.641 63.3957 150.459C56.9181 148.525 41.7482 143.995 34.423 128.39C25.4943 109.367 32.3478 84.9306 33.1584 82.2069C34.8048 76.028 36.8625 68.7887 40.3644 61.4315C41.0763 59.935 42.8693 59.3004 44.3625 60.0119C45.8586 60.724 46.4943 62.514 45.7824 64.0101C42.5002 70.9063 40.5343 77.8313 38.9484 83.7809C38.9416 83.8088 38.9172 83.8911 38.9093 83.9188C38.1652 86.4183 31.8703 108.83 39.8547 125.84C46.0382 139.014 58.9211 142.861 65.1125 144.71C67.9298 145.551 69.3439 145.974 70.1867 147.315C72.0988 150.443 71.8703 162.302 69.8556 165.473C69.2843 166.373 68.3127 166.865 67.3205 166.865H67.3205Z" fill="black"/>
<path d="M98.31 150.199C97.2231 150.199 96.1752 149.607 95.642 148.576C94.8813 147.104 95.4585 145.294 96.9301 144.533C113.45 135.999 115.367 122.994 115.44 122.445C115.546 121.651 115.966 120.924 116.606 120.441C117.246 119.957 118.059 119.742 118.845 119.857C118.916 119.866 127.007 120.928 131.772 116.428C134.605 113.751 135.816 109.467 135.37 103.693C134.343 97.7089 129.804 96.2211 126.203 96.7743C124.557 97.0236 123.034 95.9017 122.783 94.264C122.531 92.6263 123.655 91.095 125.292 90.8436C131.9 89.8296 139.738 93.1527 141.311 102.847C141.324 102.926 141.333 103.006 141.34 103.085C141.969 110.848 140.124 116.816 135.856 120.823C131.046 125.338 124.473 126.001 120.778 125.974C119.306 131.109 114.524 142.197 99.6841 149.864C99.2436 150.092 98.7729 150.199 98.31 150.199H98.31Z" fill="black"/>
<path d="M67.9281 34.4487C68.4801 33.1909 64.5308 30.7624 67.7669 28.2626C89.3818 6.6581 123.619 18.4844 141.813 36.2446C150.467 45.5487 152.778 57.4369 153.673 60.4082C160.989 84.6837 150.856 103.847 150.856 109.959C150.856 119.27 153.692 125.419 155.844 132.4C167.248 169.393 130.063 174.47 139.596 206.948C150.833 245.233 130.728 255.721 116.983 257.051C104.211 258.287 97.0057 250.281 93.04 244.788C90.4547 239.75 90.4905 232.332 92.4858 226.679C90.823 228.009 88.1805 226.715 86.9222 222.402C85.2279 216.595 85.8349 211.714 92.5745 203.982C94.0272 196.973 89.8254 189.767 92.8183 179.458C95.8112 169.149 111.108 172.142 111.773 153.852C112.438 135.562 107.633 138.716 101.464 125.919C98.2847 119.322 98.4095 113.226 97.9652 111.077C95.4409 97.91 102.413 88.4096 103.474 77.5561C103.601 65.5928 101.254 61.0774 93.1633 53.4939C87.8124 48.3755 71.5518 51.0311 64.2198 53.0923C59.3094 54.4726 69.6837 45.4393 67.8209 44.2226C65.7806 42.8901 66.4691 37.7729 67.9281 34.4487L67.9281 34.4487Z" fill="black"/>
<path d="M117.237 261.828C104.466 261.829 93.3966 254.462 90.1681 243.726C88.8458 239.329 89.5333 233.847 90.3341 230.048C87.6856 229.736 85.2511 228.295 83.5821 225.879C80.6007 221.561 80.3067 213.998 86.7081 207.597C92.0294 202.276 92.5255 199.084 89.1222 192.074C85.6417 184.903 89.9562 173.188 97.67 168.86C109.014 162.496 109.238 152.63 107.791 142.916C107.189 138.873 104.857 135.321 102.155 131.21C98.8165 126.126 95.0323 120.364 93.8907 112.369C92.4181 102.063 94.9728 96.0849 97.4425 90.304C98.9181 86.8498 100.313 83.5872 100.937 79.275C102.973 65.1887 95.7364 54.4697 82.4991 51.967C75.2403 50.5935 69.5079 54.3322 67.381 56.003C66.0782 57.0267 64.1925 56.8005 63.169 55.498C62.1446 54.1953 62.3712 52.3093 63.6739 51.2855C66.4444 49.108 73.9337 44.2412 83.6144 46.0715C97.2706 48.6535 109.759 60.1871 106.874 80.1336C106.139 85.223 104.523 89.0046 102.96 92.6616C100.618 98.1425 98.5948 102.876 99.8302 111.521C100.782 118.189 104.03 123.134 107.171 127.916C110.132 132.424 112.928 136.682 113.725 142.032C114.741 148.853 117.122 164.828 100.606 174.093C95.632 176.883 92.3907 185.066 94.5206 189.454C99.003 198.688 98.0353 204.755 90.9503 211.84C86.9786 215.811 86.9064 220.134 88.5196 222.47C89.047 223.234 90.5548 224.887 93.1388 223.722C94.2228 223.232 95.4991 223.432 96.3829 224.231C97.2667 225.03 97.5939 226.277 97.2169 227.408C96.3868 229.906 94.5323 237.404 95.9142 241.998C98.4298 250.363 107.458 256.052 117.829 255.822C129.16 255.576 137.619 248.756 140.458 237.579C142.793 228.383 140.735 220.947 138.558 213.074C136.206 204.575 133.775 195.788 137.683 185.386C141.008 176.534 144.807 170.824 147.859 166.237C151.732 160.414 154.53 156.207 155.003 148.351C155.385 141.999 154.784 137.324 153.112 133.639C150.594 128.083 147.198 119.864 146.8 112.672C146.435 106.099 148.226 100.118 149.957 94.3334C151.598 88.8508 153.149 83.6722 152.991 78.0308C151.902 38.8746 129.568 25.4935 116.351 21.0021C101.837 16.0701 80.9962 17.1088 72.6349 27.3869C71.591 28.6715 69.7023 28.867 68.4142 27.8208C67.129 26.7751 66.9347 24.8856 67.9806 23.6003C77.048 12.4545 99.1427 8.81733 118.281 15.3212C143.283 23.8171 158.12 46.6131 158.989 77.864C159.173 84.4692 157.41 90.3586 155.705 96.0541C154.048 101.588 152.483 106.814 152.79 112.34C153.173 119.242 157.099 127.901 158.577 131.161C160.667 135.769 161.435 141.346 160.991 148.711C160.422 158.182 156.915 163.455 152.854 169.56C149.821 174.119 146.384 179.286 143.3 187.496C140.078 196.07 142.054 203.208 144.34 211.474C146.525 219.369 149 228.317 146.273 239.056C142.103 255.477 128.913 261.583 117.96 261.821C117.719 261.826 117.477 261.828 117.237 261.828Z" fill="black"/>
<path d="M33.5308 89.2715C32.4409 89.2715 31.3901 88.6764 30.8589 87.6406C24.3149 74.8899 24.1118 60.4695 30.3013 48.0769C35.8852 36.8963 45.8022 29.089 56.8306 27.1926C61.6802 26.3587 67.1567 25.325 67.2114 25.3146C68.8345 25.0064 70.4077 26.0775 70.7163 27.7055C71.0239 29.3335 69.9526 30.9027 68.3247 31.2103C68.27 31.2207 62.7466 32.2633 57.8481 33.1057C48.6938 34.6799 40.4028 41.2787 35.6684 50.7577C30.3423 61.4231 30.5347 73.8679 36.1968 84.9011C36.9536 86.3753 36.3716 88.1835 34.8979 88.94C34.4595 89.1649 33.9917 89.2715 33.5307 89.2715H33.5308Z" fill="black"/>
</svg>
