<svg width="180" height="261" viewBox="0 0 180 261" fill="none" xmlns="http://www.w3.org/2000/svg">
<path d="M140.088 103.185C140.083 103.128 140.076 103.071 140.068 103.014C139.86 101.584 139.287 100.232 138.404 99.0885C148.787 88.4843 142.326 70.0799 138.767 62.7634C135.003 55.022 127.507 43.5111 119.878 39.8786C112.25 36.2461 93.7244 26.8016 69.3866 36.9726C45.0487 47.1436 36.4726 80.4075 36.0938 81.5356C34.8451 85.7577 33.9465 90.0755 33.407 94.4451C32.6055 98.3135 32.3782 102.279 32.7322 106.213C32.7369 113.473 34.2879 120.649 37.2819 127.262C43.3429 139.868 63.3316 147.113 67.6435 148.911C67.6435 148.911 68.206 161.204 66.5714 162.839C67.6611 167.743 67.7658 173.25 77.9637 173.693C88.1616 174.137 92.9978 163.384 92.9978 163.384V149.49C92.9978 149.49 103.992 144.434 110.413 137.462C115.079 132.957 118.362 125.605 119.099 123.862C120.282 124.028 121.475 124.11 122.669 124.109C126.175 124.109 131.092 123.397 134.878 120.056C138.951 116.463 140.703 110.787 140.088 103.185Z" fill="white"/>
<path d="M34.3924 84.0458C31.6964 84.16 28.7689 77.5365 28.0025 71.9633C25.7994 55.9403 34.9551 42.5598 38.0479 39.9038C49.6868 29.9085 72.2779 25.1014 75.1705 28.9778C76.2218 30.3864 75.7913 33.2946 74.3573 34.7866C72.4913 36.7281 66.1268 53.1664 64.2173 53.0922C55.834 52.7666 46.7475 57.2025 43.0695 62.7212C31.9443 79.4139 38.4481 83.874 34.3924 84.0458Z" fill="#2D8C3C"/>
<path d="M57.0089 104.891C59.8033 104.891 62.0686 102.626 62.0686 99.8312C62.0686 97.0368 59.8033 94.7715 57.0089 94.7715C54.2145 94.7715 51.9492 97.0368 51.9492 99.8312C51.9492 102.626 54.2145 104.891 57.0089 104.891Z" fill="black"/>
<path d="M92.5733 111.357C95.3677 111.357 97.633 109.091 97.633 106.297C97.633 103.503 95.3677 101.237 92.5733 101.237C89.779 101.237 87.5137 103.503 87.5137 106.297C87.5137 109.091 89.779 111.357 92.5733 111.357Z" fill="black"/>
<path d="M67.3191 166.865C66.782 166.864 66.2549 166.719 65.7929 166.446C65.3308 166.172 64.9508 165.779 64.6923 165.308C64.4339 164.837 64.3067 164.306 64.3238 163.769C64.3409 163.232 64.5019 162.71 64.7898 162.256C65.5056 160.751 65.7381 153.618 65.2146 151.02C64.7029 150.85 64.0008 150.64 63.3933 150.459C56.9148 148.525 41.7449 143.994 34.4207 128.39C25.5027 109.389 32.3445 84.9388 33.1541 82.2134C34.9047 75.0769 37.3178 68.1194 40.3621 61.4316C40.704 60.7131 41.3174 60.1599 42.0672 59.8936C42.817 59.6274 43.6419 59.6699 44.3604 60.0119C45.0788 60.3538 45.6321 60.9672 45.8983 61.717C46.1645 62.4668 46.122 63.2917 45.7801 64.0102C42.8943 70.3746 40.6065 76.9935 38.9461 83.7814C38.9392 83.8086 38.9139 83.8948 38.9061 83.9218C38.1629 86.4231 31.8778 108.85 39.8524 125.84C46.036 139.014 58.9188 142.861 65.1102 144.71C67.9276 145.551 69.3426 145.974 70.1844 147.316C72.0965 150.442 71.868 162.301 69.8543 165.472C69.5836 165.9 69.2091 166.251 68.7658 166.495C68.3225 166.738 67.8249 166.866 67.3191 166.865Z" fill="black"/>
<path d="M98.3092 150.199C97.6366 150.2 96.9833 149.974 96.4542 149.559C95.9252 149.143 95.551 148.562 95.3919 147.909C95.2327 147.255 95.2977 146.567 95.5766 145.955C95.8554 145.343 96.3318 144.842 96.9293 144.533C113.607 135.916 115.42 122.595 115.436 122.461C115.485 122.064 115.612 121.682 115.811 121.335C116.009 120.988 116.275 120.685 116.592 120.442C116.909 120.2 117.272 120.023 117.659 119.922C118.045 119.822 118.448 119.799 118.843 119.857C118.915 119.866 127.006 120.928 131.77 116.427C134.604 113.751 135.814 109.467 135.369 103.693C134.34 97.707 129.798 96.2216 126.201 96.7741C125.414 96.8948 124.612 96.6981 123.971 96.2274C123.329 95.7566 122.901 95.0503 122.78 94.2638C122.66 93.4774 122.856 92.6752 123.327 92.0337C123.798 91.3923 124.504 90.9641 125.291 90.8434C131.89 89.8304 139.735 93.1509 141.31 102.846C141.323 102.926 141.333 103.005 141.339 103.085C141.968 110.848 140.123 116.816 135.855 120.823C131.045 125.338 124.467 126.001 120.776 125.973C119.304 131.109 114.522 142.197 99.6832 149.864C99.2587 150.084 98.7875 150.199 98.3092 150.199Z" fill="black"/>
<path d="M67.9261 34.4483C68.4781 33.1904 64.5288 30.7619 67.7649 28.2621C89.3798 6.65762 123.617 18.4839 141.811 36.2441C150.465 45.5482 152.776 57.4364 153.671 60.4077C160.987 84.6832 150.854 103.847 150.854 109.959C150.854 119.27 153.69 125.419 155.842 132.4C167.246 169.392 130.061 174.469 139.594 206.947C150.831 245.232 130.726 255.72 116.981 257.05C104.209 258.286 97.0038 250.28 93.038 244.787C90.4527 239.75 90.4885 232.331 92.4838 226.678C90.8211 228.008 88.1785 226.715 86.9202 222.402C85.2259 216.594 85.833 211.714 92.5726 203.981C94.0252 196.973 89.8235 189.766 92.8163 179.457C95.8092 169.149 111.106 172.142 111.771 153.852C112.436 135.562 107.631 138.715 101.462 125.918C98.2827 119.322 98.4076 113.226 97.9632 111.077C95.4389 97.9096 102.411 88.4091 103.472 77.5556C103.599 65.5923 101.252 61.077 93.1614 53.4934C87.8105 48.3751 71.5498 51.0307 64.2178 53.0918C59.3074 54.4722 69.6817 45.4388 67.8189 44.2221C65.7786 42.8896 66.4671 37.7725 67.9261 34.4483Z" fill="#2D8C3C"/>
<path d="M91.4312 230.112C89.8755 230.106 88.3454 229.716 86.976 228.978C85.6066 228.24 84.4401 227.176 83.5796 225.88C80.5972 221.562 80.3032 213.999 86.7046 207.598C92.0259 202.276 92.5229 199.084 89.1196 192.074C85.6391 184.904 89.9516 173.188 97.6665 168.86C109.011 162.496 109.236 152.63 107.789 142.916C107.185 138.873 104.853 135.322 102.153 131.21C98.8139 126.126 95.0298 120.364 93.8872 112.369C92.4155 102.063 94.9692 96.0856 97.4389 90.3049C99.1096 86.8082 100.286 83.096 100.933 79.2752C102.969 65.1886 95.7329 54.4696 82.4955 51.967C75.2387 50.5945 69.5043 54.3319 67.3774 56.0029C66.7516 56.4924 65.9572 56.7136 65.1686 56.6181C64.3799 56.5226 63.6613 56.1182 63.1704 55.4935C62.6796 54.8689 62.4565 54.075 62.5503 53.2861C62.644 52.4972 63.0468 51.7777 63.6704 51.2854C66.4409 49.1079 73.9243 44.241 83.6108 46.0714C97.2671 48.6533 109.755 60.187 106.871 80.1335C106.155 84.4717 104.838 88.6887 102.956 92.6625C100.615 98.1433 98.5922 102.877 99.8266 111.521C100.78 118.189 104.028 123.134 107.168 127.916C110.128 132.424 112.925 136.682 113.722 142.032C114.739 148.853 117.12 164.828 100.602 174.093C95.6284 176.883 92.3872 185.066 94.518 189.454C98.9994 198.687 98.0317 204.755 90.9467 211.84C86.976 215.811 86.9037 220.134 88.517 222.47C88.9847 223.225 89.7218 223.775 90.5792 224.007C91.4365 224.239 92.3501 224.137 93.1352 223.722C93.4945 223.559 93.8823 223.469 94.2765 223.456C94.6708 223.444 95.0636 223.509 95.4326 223.648C95.8015 223.787 96.1394 223.998 96.4268 224.268C96.7143 224.538 96.9456 224.862 97.1077 225.222C97.2697 225.582 97.3592 225.97 97.3711 226.364C97.3831 226.758 97.3171 227.151 97.1771 227.52C97.037 227.888 96.8257 228.226 96.5551 228.513C96.2845 228.8 95.9599 229.03 95.6 229.192C94.2916 229.791 92.8704 230.105 91.4312 230.112Z" fill="black"/>
<path d="M116.362 260.713C115.289 260.713 114.224 260.667 113.169 260.575C100.243 259.448 90.735 252.257 90.0475 243.086C90.018 242.693 90.0662 242.299 90.1893 241.925C90.3124 241.55 90.508 241.204 90.7649 240.905C91.0218 240.607 91.3351 240.362 91.6867 240.184C92.0383 240.007 92.4215 239.9 92.8143 239.871C93.2071 239.841 93.6019 239.889 93.9761 240.013C94.3503 240.136 94.6965 240.331 94.9951 240.588C95.2937 240.845 95.5388 241.158 95.7163 241.51C95.8939 241.862 96.0004 242.245 96.0299 242.638C96.5465 249.524 105.304 253.867 113.689 254.598C123.825 255.481 136.906 251.554 140.457 237.579C142.792 228.383 140.734 220.946 138.555 213.074C136.204 204.575 133.772 195.788 137.68 185.386C140.268 178.607 143.686 172.174 147.856 166.236C151.729 160.413 154.528 156.206 155.002 148.351C155.343 143.266 154.661 138.165 152.998 133.349C152.872 132.975 152.822 132.58 152.85 132.186C152.877 131.793 152.982 131.409 153.158 131.056C153.334 130.704 153.578 130.389 153.876 130.13C154.173 129.872 154.519 129.675 154.893 129.55C155.267 129.425 155.662 129.376 156.055 129.404C156.449 129.432 156.833 129.537 157.185 129.713C157.538 129.89 157.852 130.134 158.11 130.432C158.368 130.731 158.565 131.077 158.689 131.451C160.587 136.996 161.369 142.862 160.99 148.711C160.42 158.182 156.913 163.454 152.852 169.559C148.931 175.116 145.721 181.141 143.297 187.496C140.076 196.07 142.051 203.208 144.338 211.473C146.523 219.368 148.999 228.317 146.271 239.056C142.411 254.256 128.979 260.713 116.362 260.713Z" fill="black"/>
<path d="M149.789 115.506C149.013 115.506 148.267 115.204 147.709 114.666C147.15 114.127 146.822 113.393 146.793 112.617C146.554 106.152 148.288 100.26 149.966 94.5617C151.602 89.0067 153.147 83.7599 152.987 78.0307C151.899 38.8748 129.564 25.4935 116.349 21.0022C101.835 16.0698 80.9942 17.1084 72.6319 27.3867C72.3832 27.6923 72.0768 27.946 71.7302 28.1332C71.3835 28.3204 71.0034 28.4375 70.6115 28.4777C70.2196 28.518 69.8236 28.4807 69.4461 28.368C69.0686 28.2552 68.717 28.0692 68.4114 27.8206C68.1058 27.5719 67.8522 27.2655 67.665 26.9189C67.4778 26.5722 67.3607 26.1921 67.3204 25.8002C67.2801 25.4083 67.3174 25.0123 67.4302 24.6348C67.5429 24.2573 67.729 23.9057 67.9776 23.6001C77.045 12.4542 99.1416 8.81753 118.278 15.3212C143.279 23.8173 158.116 46.6133 158.985 77.8639C159.171 84.543 157.418 90.4977 155.722 96.2565C154.109 101.734 152.586 106.907 152.789 112.395C152.819 113.19 152.531 113.964 151.99 114.547C151.448 115.13 150.697 115.474 149.902 115.504C149.864 115.505 149.826 115.506 149.789 115.506Z" fill="black"/>
<path d="M33.5284 89.2713C32.9761 89.2718 32.4343 89.1198 31.9629 88.8321C31.4914 88.5443 31.1086 88.1319 30.8566 87.6404C24.5109 75.2751 24.1261 61.8119 29.7736 49.7311C35.1515 38.2265 45.2091 29.8121 56.6759 27.2227C57.452 27.0473 58.2659 27.1875 58.9387 27.6123C59.6115 28.0371 60.088 28.7117 60.2633 29.4878C60.4386 30.2639 60.2985 31.0779 59.8737 31.7507C59.4489 32.4234 58.7743 32.8999 57.9982 33.0752C48.4708 35.2266 39.7384 42.5823 35.2091 52.272C30.3644 62.6348 30.715 74.2227 36.1944 84.9009C36.429 85.358 36.5422 85.8678 36.5232 86.3812C36.5043 86.8946 36.3538 87.3946 36.0862 87.8332C35.8187 88.2719 35.443 88.6344 34.9951 88.8862C34.5472 89.138 34.0422 89.2706 33.5284 89.2713L33.5284 89.2713Z" fill="black"/>
</svg>
