<svg width="180" height="218" viewBox="0 0 180 218" fill="none" xmlns="http://www.w3.org/2000/svg">
<path d="M93.0444 163.787C97.2799 170.094 110.983 168.786 116.187 187.824C129.904 164.754 125.437 123.004 125.437 123.004L87.5605 143.717C87.5605 143.717 90.1449 159.469 93.0444 163.787Z" fill="black"/>
<path d="M46.5334 198.593C48.0946 193.138 46.7375 186.802 49.7712 180.473C54.8308 169.919 65.9934 164.45 67.0149 159.04C67.7951 154.907 67.6913 149.314 67.6913 149.314C54.6996 148.236 40.127 134.128 40.127 134.128L46.5334 198.593H46.5334Z" fill="black"/>
<path d="M140.135 103.588C140.131 103.53 140.124 103.474 140.115 103.417C139.781 101.361 139.337 100.976 138.452 99.4914C148.835 88.8871 142.373 70.4828 138.815 63.1663C135.05 55.4248 127.554 43.914 119.926 40.2815C112.298 36.649 93.772 27.2045 69.4342 37.3755C45.0964 47.5465 36.5202 80.8103 36.1413 81.9385C36.1026 82.0528 34.4311 87.3116 33.4546 94.848C32.6462 98.6062 32.4448 102.585 32.7798 106.616C32.9205 113.5 34.0938 120.934 37.3296 127.665C43.3906 140.271 63.3793 147.516 67.6911 149.314C67.6911 149.314 68.2536 161.607 66.619 163.242C67.7087 168.146 78.8787 170.053 78.8787 170.053C88.5587 170.689 93.0455 163.787 93.0455 163.787V149.892C93.0455 149.892 104.039 144.837 110.461 137.865C115.127 133.36 118.409 126.008 119.147 124.265C119.929 124.377 121.187 124.512 122.716 124.512C126.223 124.512 131.14 123.799 134.926 120.459C138.999 116.866 140.751 111.19 140.135 103.588L140.135 103.588Z" fill="white"/>
<path d="M57.0577 104.993C59.8521 104.993 62.1174 102.728 62.1174 99.9337C62.1174 97.1393 59.8521 94.874 57.0577 94.874C54.2633 94.874 51.998 97.1393 51.998 99.9337C51.998 102.728 54.2633 104.993 57.0577 104.993Z" fill="black"/>
<path d="M92.6202 111.76C95.4146 111.76 97.6799 109.495 97.6799 106.7C97.6799 103.906 95.4146 101.641 92.6202 101.641C89.8258 101.641 87.5605 103.906 87.5605 106.7C87.5605 109.495 89.8258 111.76 92.6202 111.76Z" fill="black"/>
<path d="M67.3655 166.268C66.8157 166.268 66.2591 166.117 65.76 165.8C64.3684 164.916 63.9514 163.076 64.8235 161.68C65.5374 160.314 65.7698 154.795 65.3089 152.518C64.8753 152.405 64.3274 152.277 63.8479 152.164C57.8567 150.761 43.8274 147.474 36.4671 131.793C26.9866 111.593 33.1233 82.9121 33.1946 82.6427C37.4348 66.7296 46.2581 33.6239 85.677 29.6897C87.344 29.5262 88.7962 30.7283 88.9602 32.3768C89.1243 34.0255 87.9212 35.4955 86.2727 35.66C51.0364 39.1769 43.2063 68.3736 39.011 84.117C38.7717 85.2801 33.5784 111.517 41.8987 129.244C48.0247 142.295 59.636 145.015 65.2161 146.323C67.8704 146.944 69.3323 147.287 70.2307 148.72C72.2483 152.02 71.7376 161.983 69.9007 164.876C69.3294 165.776 68.3577 166.268 67.3655 166.268H67.3655Z" fill="black"/>
<path d="M120.029 126.004C117.849 126.004 116.361 125.789 116.191 125.763C114.552 125.514 113.426 123.985 113.675 122.347C113.923 120.71 115.458 119.586 117.085 119.83C117.207 119.848 126.617 121.156 131.851 116.251C134.636 113.642 135.834 109.554 135.415 104.096C134.387 98.1116 129.853 96.6241 126.247 97.1774C124.609 97.4266 123.078 96.3048 122.827 94.6672C122.576 93.0295 123.7 91.4981 125.337 91.2467C131.938 90.2337 139.781 93.5542 141.357 103.25C141.369 103.329 141.379 103.409 141.386 103.489C141.99 110.939 140.152 116.715 135.925 120.656C131.053 125.199 124.245 126.004 120.029 126.004L120.029 126.004Z" fill="black"/>
<path d="M39.1848 133.519C38.0579 133.519 36.9778 132.881 36.4671 131.793C29.6946 117.362 30.9085 98.4496 32.2356 88.4609C32.4534 86.8182 33.968 85.6635 35.6038 85.882C37.2464 86.1001 38.4016 87.6085 38.1829 89.2509C37.1848 96.7678 35.5481 115.712 41.8987 129.243C42.6028 130.743 41.9573 132.53 40.4573 133.234C40.0452 133.427 39.6116 133.519 39.1848 133.519L39.1848 133.519Z" fill="black"/>
<path d="M158.964 168.235C142.173 143.848 149.494 79.1224 142.723 58.8851C138.4 45.9659 132.454 30.2044 111.052 21.0543C97.836 15.4041 72.2005 8.01323 52.2217 24.2881C49.3093 26.6607 43.3004 31.425 37.465 36.0625C24.5617 46.3164 17.1178 69.9237 20.7027 105.497C23.4927 133.183 28.5076 154.276 9.78847 174.549C4.49294 180.284 0.60347 192.57 10.0877 198.847C11.7653 210.133 36.7984 213.381 45.5728 205.11C51.4778 199.544 45.0273 197.3 49.2674 191.984C54.7278 185.138 57.8236 168.777 49.4207 149.604C37.7073 121.514 39.9439 95.9378 44.7208 78.7667C64.4251 90.1903 75.6501 88.8299 95.8669 91.3895C108.417 92.9781 114.354 83.3446 114.13 90.2826C119.105 126.86 97.3696 154.452 109.791 186.625C111.087 189.982 111.059 193.093 106.663 198.566C103.135 200.546 102.506 209.771 110.902 214.169C123.793 220.921 145.96 215.629 150.961 205.699C171.216 201.28 166.084 178.576 158.964 168.235H158.964Z" fill="black"/>
<path d="M149.369 207.215C147.766 207.216 146.436 205.947 146.373 204.331C146.31 202.675 147.601 201.281 149.256 201.218C156.065 200.956 160.849 198.459 163.087 193.999C165.995 188.202 164.184 180.321 160.892 175.531C146.67 154.847 146.113 124.414 145.622 97.5637C145.347 82.5287 145.087 68.3275 142.134 59.6647C136.297 42.5427 125.509 30.8282 109.154 23.8522C102.318 20.9363 78.3624 12.6245 57.1016 28.0974C55.7608 29.074 53.8848 28.7755 52.9102 27.4371C51.9356 26.0974 52.2315 24.2211 53.5704 23.2461C77.3838 5.91441 103.938 15.104 111.508 18.3332C129.52 26.0159 141.396 38.9022 147.814 57.7286C151.069 67.2795 151.325 81.2628 151.621 97.454C152.097 123.459 152.637 152.934 165.835 172.132C170.919 179.526 171.994 189.625 168.449 196.69C166.163 201.246 161.018 206.77 149.486 207.213C149.447 207.215 149.408 207.215 149.369 207.215Z" fill="black"/>
<path d="M9.94571 198.776C9.43594 198.776 8.91837 198.646 8.44571 198.372C4.61173 196.152 2.25919 192.815 1.642 188.721C0.682038 182.355 4.17716 175.951 7.46134 172.402C23.185 155.413 21.1596 137.489 18.5961 114.796C18.2641 111.855 17.9233 108.839 17.6108 105.741C15.766 87.4881 15.8647 54.1828 37.2543 36.2083C38.5219 35.1419 40.4154 35.3069 41.4809 36.575C42.5463 37.8434 42.3822 39.7358 41.1137 40.8018C21.8383 57.0007 21.8549 88.0635 23.5795 105.138C23.89 108.212 24.2289 111.204 24.558 114.123C27.1859 137.382 29.4555 157.47 11.8656 176.477C9.2963 179.253 6.97306 183.839 7.57462 187.827C7.92032 190.118 9.1879 191.869 11.4516 193.179C12.8861 194.009 13.3754 195.845 12.5453 197.279C11.9887 198.239 10.9809 198.776 9.94571 198.776V198.776Z" fill="black"/>
<path d="M107.793 204.417C106.948 204.417 106.108 204.062 105.515 203.369C104.436 202.111 104.582 200.217 105.84 199.139C110.437 195.199 109.055 191.011 105.757 182.661C102.019 173.194 96.8977 160.229 105.532 143.661C110.191 134.722 111.489 122.476 111.759 113.777C112.017 105.468 111.413 97.4327 110.622 92.2094C82.0422 97.7127 48.3391 86.3991 41.2395 79.7425C40.0305 78.6093 39.969 76.7109 41.1028 75.502C42.2336 74.2936 44.133 74.2315 45.343 75.365C51.1115 80.7718 85.2785 92.1961 112.324 85.7052C113.11 85.5168 113.938 85.6525 114.621 86.0827C115.305 86.5125 115.786 87.1999 115.957 87.9892C117.091 93.2391 118.086 103.306 117.756 113.963C117.467 123.287 116.035 136.49 110.853 146.434C103.485 160.573 107.657 171.137 111.338 180.457C114.511 188.49 117.792 196.798 109.744 203.695C109.179 204.18 108.485 204.417 107.793 204.417H107.793Z" fill="black"/>
</svg>
