<svg width="180" height="218" viewBox="0 0 180 218" fill="none" xmlns="http://www.w3.org/2000/svg">
<path d="M93.0562 163.787C97.2916 170.094 110.995 168.786 116.199 187.824C129.916 164.754 125.448 123.004 125.448 123.004L87.5723 143.717C87.5723 143.717 90.1567 159.469 93.0562 163.787Z" fill="#82BE28"/>
<path d="M46.5431 198.593C48.1044 193.138 46.7472 186.802 49.7809 180.473C54.8406 169.919 66.0032 164.45 67.0247 159.04C67.5232 155.822 67.7494 152.569 67.701 149.314C54.7093 148.236 40.1367 134.128 40.1367 134.128L46.5431 198.593Z" fill="#82BE28"/>
<path d="M140.146 103.588C140.142 103.53 140.135 103.474 140.126 103.417C139.918 101.987 139.345 100.635 138.463 99.4913C148.846 88.8871 142.384 70.4828 138.826 63.1663C135.061 55.4248 127.565 43.914 119.937 40.2815C112.309 36.649 93.783 27.2045 69.4451 37.3755C45.1073 47.5465 36.5312 80.8103 36.1523 81.9385C34.9037 86.1605 34.0051 90.4783 33.4656 94.8479C32.6641 98.7163 32.4368 102.682 32.7908 106.616C32.7955 113.876 34.3465 121.051 37.3405 127.665C43.4015 140.271 63.3902 147.516 67.7021 149.314C67.7021 149.314 68.2646 161.607 66.6299 163.242C67.7197 168.146 78.8897 170.053 78.8897 170.053C81.5896 170.305 84.3091 169.861 86.789 168.765C89.2689 167.668 91.4266 165.954 93.0564 163.787V149.892C93.0564 149.892 104.05 144.837 110.472 137.865C115.138 133.36 118.42 126.008 119.158 124.265C120.341 124.43 121.533 124.513 122.727 124.512C126.234 124.512 131.151 123.799 134.937 120.459C139.01 116.866 140.762 111.19 140.146 103.588Z" fill="white"/>
<path d="M57.0675 104.993C59.8619 104.993 62.1272 102.728 62.1272 99.9337C62.1272 97.1393 59.8619 94.874 57.0675 94.874C54.2731 94.874 52.0078 97.1393 52.0078 99.9337C52.0078 102.728 54.2731 104.993 57.0675 104.993Z" fill="black"/>
<path d="M92.6319 111.759C95.4263 111.759 97.6916 109.494 97.6916 106.7C97.6916 103.905 95.4263 101.64 92.6319 101.64C89.8376 101.64 87.5723 103.905 87.5723 106.7C87.5723 109.494 89.8376 111.759 92.6319 111.759Z" fill="black"/>
<path d="M67.3757 166.268C66.8406 166.267 66.3154 166.124 65.8546 165.852C65.3937 165.58 65.0139 165.19 64.7546 164.722C64.4953 164.254 64.3659 163.725 64.3798 163.19C64.3937 162.655 64.5504 162.133 64.8337 161.68C65.5476 160.314 65.78 154.796 65.3191 152.518C64.8864 152.405 64.3386 152.277 63.8591 152.164C57.8678 150.761 43.8385 147.474 36.4782 131.793C27.1051 111.823 33.1364 82.9007 33.2077 82.6325C37.446 66.7294 46.2692 33.6237 85.6882 29.6895C86.0808 29.6492 86.4775 29.6868 86.8556 29.8C87.2337 29.9133 87.5857 30.1001 87.8915 30.3496C88.1973 30.5992 88.4508 30.9066 88.6376 31.2544C88.8243 31.6021 88.9406 31.9832 88.9798 32.376C89.019 32.7687 88.9803 33.1653 88.8659 33.5431C88.7516 33.9209 88.5638 34.2723 88.3133 34.5774C88.0629 34.8825 87.7547 35.1351 87.4065 35.3209C87.0582 35.5066 86.6767 35.6218 86.2839 35.6599C51.0476 39.1767 43.2175 68.375 39.0212 84.1184C38.7849 85.2654 33.5779 111.491 41.9099 129.243C48.0359 142.295 59.6472 145.015 65.2273 146.323C67.8806 146.944 69.3425 147.287 70.2419 148.719C72.2595 152.021 71.7478 161.984 69.9109 164.876C69.64 165.303 69.2655 165.654 68.8223 165.898C68.379 166.141 67.8814 166.269 67.3757 166.268Z" fill="black"/>
<path d="M120.039 126.004C118.756 126.014 117.474 125.933 116.201 125.763C115.418 125.641 114.715 125.213 114.246 124.574C113.776 123.935 113.579 123.136 113.698 122.352C113.816 121.568 114.24 120.862 114.876 120.39C115.513 119.917 116.311 119.716 117.096 119.83C117.219 119.848 126.626 121.156 131.862 116.251C134.647 113.642 135.845 109.554 135.426 104.096C134.4 98.1116 129.86 96.624 126.259 97.1773C125.473 97.298 124.67 97.1013 124.029 96.6306C123.387 96.1598 122.959 95.4535 122.839 94.667C122.718 93.8806 122.915 93.0784 123.385 92.4369C123.856 91.7955 124.562 91.3673 125.349 91.2466C131.964 90.232 139.793 93.5557 141.367 103.25C141.38 103.329 141.39 103.409 141.397 103.489C142 110.939 140.162 116.715 135.936 120.656C131.064 125.198 124.256 126.004 120.039 126.004Z" fill="black"/>
<path d="M39.1955 133.519C38.6253 133.519 38.0669 133.357 37.5856 133.051C37.1042 132.745 36.72 132.309 36.4778 131.793C29.7043 117.362 30.9182 98.4496 32.2453 88.4607C32.2972 88.0702 32.4255 87.6937 32.6228 87.3528C32.8202 87.0119 33.0828 86.7132 33.3956 86.4737C33.7084 86.2343 34.0653 86.0588 34.4459 85.9573C34.8266 85.8558 35.2235 85.8302 35.614 85.8821C36.0045 85.9339 36.3809 86.0622 36.7219 86.2596C37.0628 86.4569 37.3615 86.7195 37.6009 87.0323C37.8404 87.3451 38.0159 87.702 38.1174 88.0827C38.2189 88.4633 38.2445 88.8602 38.1926 89.2507C37.1946 96.7677 35.5578 115.712 41.9094 129.243C42.1236 129.7 42.2191 130.204 42.187 130.708C42.1548 131.212 41.9962 131.699 41.7256 132.125C41.4551 132.552 41.0814 132.903 40.6391 133.146C40.1969 133.39 39.7004 133.518 39.1955 133.519V133.519Z" fill="black"/>
<path d="M158.976 168.235C142.185 143.848 149.506 79.1223 142.734 58.885C138.412 45.9661 132.466 30.2044 111.064 21.0545C97.8476 15.4041 72.9948 11.2342 53.0159 27.5091C50.1036 29.8816 45.0302 33.8675 39.195 38.5052C26.2917 48.7591 17.1293 69.9236 20.7143 105.497C23.4481 132.625 28.3023 153.422 10.8881 173.321L10.8879 173.321C10.5296 173.731 10.1774 174.14 9.80013 174.549L9.79122 174.559C4.50033 180.298 0.620567 192.573 10.0992 198.847L10.0993 198.847C11.777 210.133 36.81 213.381 45.5844 205.11C51.4894 199.544 45.039 197.3 49.279 191.984C54.3789 185.591 57.4128 170.895 50.9459 153.363C50.7304 152.726 50.5141 152.26 50.2593 151.604C50.0041 150.947 49.7285 150.281 49.4324 149.604C39.9376 127.194 38.2817 102.235 44.7323 78.7668C64.4367 90.1902 75.6618 88.8299 95.8786 91.3894C108.428 92.9783 114.366 83.3445 114.142 90.2825C119.116 126.86 97.3813 154.452 109.802 186.625C111.099 189.982 111.071 193.094 106.674 198.566C103.147 200.546 102.518 209.771 110.913 214.169C123.804 220.921 145.971 215.629 150.973 205.698C171.228 201.28 166.096 178.576 158.976 168.235Z" fill="#82BE28"/>
<path d="M149.378 207.215C148.592 207.215 147.838 206.906 147.278 206.356C146.717 205.806 146.395 205.058 146.38 204.272C146.365 203.487 146.659 202.727 147.198 202.156C147.738 201.584 148.48 201.248 149.265 201.218C156.075 200.956 160.857 198.46 163.096 193.999C166.004 188.202 164.192 180.321 160.9 175.531C146.68 154.847 146.123 124.414 145.631 97.5642C145.357 82.5289 145.096 68.3276 142.143 59.6647C136.306 42.5427 125.518 30.8282 109.163 23.8522C102.327 20.9363 78.3712 12.6245 57.1104 28.0974C56.4671 28.5652 55.6643 28.7584 54.8785 28.6345C54.0928 28.5106 53.3884 28.0797 52.9203 27.4365C52.4521 26.7934 52.2586 25.9907 52.3821 25.2049C52.5057 24.4191 52.9363 23.7145 53.5792 23.2461C77.3926 5.91441 103.946 15.104 111.517 18.3332C129.528 26.0158 141.404 38.9022 147.822 57.7286C151.078 67.2796 151.334 81.2631 151.63 97.4545C152.107 123.459 152.646 152.934 165.844 172.132C170.928 179.527 172.003 189.625 168.458 196.69C166.173 201.246 161.027 206.77 149.495 207.213C149.456 207.215 149.417 207.215 149.378 207.215Z" fill="black"/>
<path d="M9.95646 198.776C9.42956 198.776 8.91203 198.637 8.45646 198.372C6.65194 197.4 5.09788 196.023 3.91695 194.348C2.73603 192.673 1.96056 190.747 1.65177 188.721C0.691774 182.355 4.18693 175.951 7.47111 172.402C23.1947 155.413 21.1703 137.49 18.6059 114.798C18.2739 111.856 17.933 108.84 17.6205 105.741C15.7768 87.4871 15.8774 54.1805 37.2651 36.2084C37.5667 35.955 37.9152 35.7635 38.2909 35.6448C38.6665 35.5261 39.0618 35.4825 39.4543 35.5166C39.8468 35.5507 40.2287 35.6618 40.5782 35.8434C40.9277 36.0251 41.2381 36.2739 41.4915 36.5755C41.7449 36.8771 41.9364 37.2257 42.0551 37.6013C42.1738 37.9769 42.2174 38.3723 42.1833 38.7647C42.1492 39.1572 42.0382 39.5391 41.8565 39.8886C41.6748 40.2382 41.426 40.5485 41.1244 40.8019C21.85 56.9986 21.8656 88.0628 23.5892 105.138C23.8998 108.213 24.2387 111.206 24.5678 114.125C27.1957 137.384 29.4662 157.471 11.8754 176.477C9.30604 179.253 6.98279 183.839 7.58437 187.826C7.75885 188.963 8.20164 190.041 8.87605 190.972C9.55045 191.903 10.437 192.659 11.4623 193.179C12.0339 193.51 12.4803 194.02 12.7324 194.631C12.9845 195.241 13.0281 195.917 12.8565 196.555C12.6849 197.193 12.3077 197.756 11.7834 198.158C11.259 198.559 10.6169 198.777 9.95644 198.776H9.95646Z" fill="black"/>
<path d="M107.805 204.417C107.192 204.417 106.593 204.229 106.09 203.879C105.587 203.529 105.203 203.033 104.991 202.458C104.778 201.883 104.746 201.257 104.9 200.664C105.054 200.07 105.386 199.538 105.852 199.139C110.447 195.199 109.066 191.011 105.769 182.661C102.029 173.195 96.9082 160.23 105.543 143.661C110.201 134.722 111.5 122.476 111.769 113.777C112.002 106.568 111.622 99.3532 110.633 92.2093C82.0566 97.7125 48.3505 86.3989 41.2509 79.7423C40.6705 79.1981 40.33 78.4456 40.3043 77.6504C40.2786 76.8552 40.5699 76.0823 41.1141 75.5019C41.6582 74.9214 42.4107 74.5809 43.2059 74.5553C44.0011 74.5296 44.774 74.8209 45.3544 75.3651C51.121 80.7721 85.2851 92.1966 112.335 85.7051C112.724 85.6119 113.127 85.5972 113.522 85.6621C113.916 85.7269 114.293 85.8699 114.632 86.0827C114.97 86.2954 115.263 86.5737 115.492 86.9011C115.722 87.2284 115.883 87.5983 115.968 87.9891C117.102 93.239 118.097 103.306 117.767 113.962C117.477 123.287 116.046 136.489 110.863 146.434C103.495 160.573 107.668 171.137 111.349 180.457C114.521 188.491 117.803 196.797 109.756 203.695C109.213 204.161 108.521 204.418 107.805 204.417Z" fill="black"/>
</svg>
