<svg width="180" height="214" viewBox="0 0 180 214" fill="none" xmlns="http://www.w3.org/2000/svg">
<path d="M93.0249 163.718C97.2603 170.025 102.347 166.719 107.551 185.757C121.268 162.687 125.417 122.935 125.417 122.935L87.541 143.649C87.541 143.649 90.1254 159.4 93.0249 163.718Z" fill="black"/>
<path d="M46.5119 198.524C48.0731 193.069 48.9424 188.839 51.9761 182.511C57.0358 171.956 65.7315 169.091 66.753 163.681C67.5332 159.548 67.6698 149.245 67.6698 149.245C54.6781 148.167 40.1055 134.059 40.1055 134.059L46.5119 198.524Z" fill="black"/>
<path d="M140.115 103.519C140.111 103.462 140.103 103.405 140.095 103.348C139.887 101.918 139.314 100.566 138.432 99.4225C148.815 88.8183 142.353 70.4139 138.795 63.0974C135.03 55.356 127.534 43.8451 119.906 40.2126C112.278 36.5801 93.7518 27.1356 69.4139 37.3066C45.0761 47.4776 36.5 80.7414 36.1211 81.8696C34.8725 86.0917 33.9738 90.4095 33.4343 94.7791C32.6329 98.6475 32.4055 102.613 32.7596 106.547C32.7642 113.807 34.3152 120.983 37.3093 127.596C43.3703 140.202 63.359 147.447 67.6708 149.245C67.6708 149.245 68.2333 161.538 66.5987 163.173C67.6884 168.077 78.8584 169.984 78.8584 169.984C81.5583 170.236 84.2778 169.793 86.7577 168.696C89.2377 167.599 91.3953 165.885 93.0252 163.718V149.824C93.0252 149.824 104.019 144.768 110.441 137.796C115.106 133.291 118.389 125.939 119.127 124.196C120.309 124.362 121.502 124.444 122.696 124.443C126.203 124.443 131.12 123.731 134.905 120.39C138.978 116.797 140.731 111.121 140.115 103.519Z" fill="white"/>
<path d="M57.0362 104.925C59.8306 104.925 62.0959 102.659 62.0959 99.8648C62.0959 97.0705 59.8306 94.8052 57.0362 94.8052C54.2419 94.8052 51.9766 97.0705 51.9766 99.8648C51.9766 102.659 54.2419 104.925 57.0362 104.925Z" fill="black"/>
<path d="M92.6007 111.691C95.3951 111.691 97.6604 109.425 97.6604 106.631C97.6604 103.837 95.3951 101.571 92.6007 101.571C89.8063 101.571 87.541 103.837 87.541 106.631C87.541 109.425 89.8063 111.691 92.6007 111.691Z" fill="black"/>
<path d="M67.3464 166.199C66.8112 166.198 66.2859 166.054 65.8249 165.782C65.3639 165.51 64.9841 165.12 64.7248 164.652C64.4655 164.184 64.3361 163.655 64.3501 163.12C64.3641 162.585 64.5209 162.063 64.8044 161.609C65.5192 160.243 65.7516 154.726 65.2907 152.448C64.8571 152.336 64.3092 152.207 63.8298 152.095C57.8385 150.691 43.8092 147.405 36.4489 131.723C27.0758 111.754 33.1071 82.8314 33.1784 82.5632C37.4167 66.6601 46.24 33.5544 85.6589 29.6202C86.0515 29.5799 86.4482 29.6174 86.8263 29.7307C87.2044 29.844 87.5564 30.0307 87.8622 30.2803C88.168 30.5299 88.4215 30.8373 88.6083 31.185C88.795 31.5327 88.9113 31.9139 88.9505 32.3066C88.9897 32.6994 88.951 33.096 88.8366 33.4738C88.7223 33.8515 88.5345 34.203 88.284 34.5081C88.0336 34.8131 87.7254 35.0658 87.3772 35.2515C87.0289 35.4373 86.6474 35.5525 86.2546 35.5905C51.0182 39.1074 43.1882 68.3056 38.9919 84.0491C38.7555 85.1961 33.5485 111.422 41.8805 129.174C48.0065 142.226 59.6178 144.946 65.1979 146.253C67.8522 146.875 69.3141 147.217 70.2126 148.65C72.2311 151.951 71.7194 161.915 69.8815 164.807C69.6106 165.234 69.236 165.585 68.7928 165.829C68.3496 166.072 67.852 166.199 67.3464 166.199Z" fill="black"/>
<path d="M120.01 125.935C118.727 125.944 117.444 125.864 116.172 125.694C115.389 125.572 114.685 125.144 114.216 124.505C113.747 123.866 113.55 123.067 113.668 122.283C113.787 121.498 114.21 120.793 114.847 120.321C115.484 119.848 116.282 119.647 117.066 119.761C117.19 119.779 126.597 121.087 131.832 116.182C134.617 113.573 135.816 109.485 135.397 104.027C134.368 98.0423 129.833 96.5547 126.229 97.1081C125.839 97.1678 125.442 97.1503 125.059 97.0565C124.677 96.9627 124.316 96.7944 123.998 96.5613C123.357 96.0906 122.929 95.3843 122.808 94.5978C122.748 94.2084 122.766 93.811 122.86 93.4284C122.954 93.0458 123.122 92.6853 123.355 92.3677C123.826 91.7263 124.532 91.2981 125.318 91.1774C131.924 90.1644 139.763 93.4849 141.338 103.18C141.351 103.26 141.36 103.339 141.367 103.419C141.971 110.87 140.133 116.646 135.906 120.587C131.034 125.129 124.227 125.935 120.01 125.935Z" fill="black"/>
<path d="M39.1662 133.45C38.596 133.45 38.0376 133.288 37.5563 132.982C37.075 132.676 36.6907 132.24 36.4485 131.724C29.675 117.293 30.8889 98.3808 32.216 88.3919C32.2679 88.0014 32.3962 87.6249 32.5935 87.284C32.7909 86.943 33.0535 86.6443 33.3663 86.4049C33.6791 86.1654 34.036 85.9899 34.4166 85.8884C34.7973 85.7869 35.1942 85.7614 35.5847 85.8132C35.9752 85.8651 36.3516 85.9934 36.6926 86.1907C37.0335 86.3881 37.3322 86.6507 37.5716 86.9635C37.8111 87.2763 37.9866 87.6332 38.0881 88.0138C38.1896 88.3945 38.2152 88.7914 38.1633 89.1819C37.1652 96.6989 35.5285 115.643 41.8801 129.174C42.0943 129.631 42.1898 130.135 42.1577 130.639C42.1255 131.143 41.9669 131.63 41.6963 132.057C41.4258 132.483 41.0521 132.834 40.6098 133.077C40.1676 133.321 39.6711 133.449 39.1662 133.45V133.45Z" fill="black"/>
<path d="M55.4531 56.9843C54.9013 52.3823 34.1293 80.7043 43.0496 129.452C46.5041 148.331 54.7798 178.871 47.6659 198.652C44.9847 206.107 39.6107 216.133 24.5068 209.1C20.038 207.019 19.3284 200.198 10.9133 197.231C1.57083 193.937 4.47273 180.215 9.76827 174.48C28.4875 154.207 23.4725 133.114 20.6825 105.429C17.0976 69.8547 26.2598 48.69 39.163 38.436C44.9984 33.7986 50.0717 29.8126 52.9841 27.4402C72.9629 11.1653 97.7292 13.5033 110.945 19.1535C132.347 28.3037 138.293 44.0651 142.616 56.9843C149.387 77.2217 141.766 142.201 168.199 167.622C177.248 176.325 178.728 194.233 158.473 198.652C144.831 201.628 142.576 212.344 131.181 213.316C118.434 214.403 113.012 206.27 111.284 201.793C98.8624 169.621 113.124 141.416 114.158 109.369C114.382 102.431 113.223 96.6145 100.673 95.0258C80.3214 92.4494 58.6897 83.9766 55.4531 56.9843Z" fill="black"/>
<path d="M111.879 204.693C111.315 204.693 110.762 204.535 110.284 204.235C109.807 203.936 109.423 203.508 109.177 203C104.286 192.904 104.072 186.947 103.748 177.93L103.714 176.986C103.246 164.169 105.576 151.501 107.829 139.25C109.635 129.43 111.503 119.277 111.833 109.34C112.03 103.408 111.356 99.4212 100.61 98.0995C70.921 94.4483 54.4103 80.7946 51.5363 57.5181C51.4388 56.7284 51.659 55.9323 52.1485 55.305C52.638 54.6777 53.3566 54.2705 54.1463 54.173C54.936 54.0755 55.732 54.2957 56.3594 54.7852C56.9867 55.2747 57.3939 55.9933 57.4914 56.783C60.0187 77.2596 74.3624 88.8263 101.342 92.1444C116.279 93.9814 118.094 101.59 117.829 109.539C117.485 119.923 115.576 130.3 113.731 140.335C111.535 152.268 109.266 164.607 109.71 176.767L109.744 177.714C110.063 186.555 110.237 191.426 114.577 200.384C114.798 200.842 114.9 201.348 114.872 201.855C114.845 202.362 114.689 202.854 114.419 203.284C114.149 203.715 113.775 204.07 113.331 204.316C112.887 204.563 112.387 204.692 111.879 204.693V204.693Z" fill="black"/>
<path d="M158.575 201.524C157.832 201.523 157.116 201.247 156.565 200.748C156.015 200.25 155.668 199.565 155.594 198.825C155.519 198.086 155.722 197.346 156.162 196.747C156.602 196.148 157.248 195.734 157.976 195.585C164.999 194.145 169.501 190.841 170.995 186.03C172.598 180.873 170.653 174.269 166.157 169.597C147.511 150.221 145.237 115.283 143.411 87.2089C142.602 74.7714 141.902 64.0301 139.852 57.9166C135.072 43.6634 129.178 30.1853 109.8 21.9196C98.7579 17.2104 74.755 13.5649 54.8185 29.7687C53.7999 30.5959 52.5157 31.5982 51.0333 32.7553C48.253 34.9239 44.794 37.6226 41.0929 40.7326C21.8185 56.9299 21.8341 87.9939 23.5578 105.069C23.8683 108.142 24.2072 111.133 24.5363 114.051C27.1652 137.312 29.4357 157.401 11.8449 176.408C9.09291 179.382 6.88586 185.55 7.98646 189.992C8.18054 190.979 8.63506 191.897 9.30297 192.65C9.97088 193.403 10.8279 193.964 11.7853 194.274C12.5358 194.538 13.1507 195.09 13.4946 195.807C13.8385 196.525 13.8833 197.35 13.6192 198.1C13.355 198.851 12.8035 199.465 12.0859 199.809C11.3684 200.153 10.5437 200.198 9.7931 199.934C7.9003 199.288 6.20477 198.168 4.86873 196.68C3.53268 195.192 2.60081 193.386 2.16224 191.435C0.461072 184.57 3.61245 176.469 7.44056 172.333C23.1642 155.343 21.1388 137.418 18.5744 114.725C18.2424 111.784 17.9015 108.769 17.589 105.672C15.7453 87.4181 15.8458 54.112 37.2335 36.1391C41.0177 32.9592 44.5245 30.2231 47.3419 28.0246C48.7882 26.8962 50.0412 25.9192 51.0333 25.1125C73.1906 7.10566 99.879 11.1641 112.153 16.4008C135.614 26.4079 141.588 44.2213 145.541 56.0087C147.839 62.8619 148.562 73.9641 149.399 86.8193C151.068 112.488 153.357 147.642 170.481 165.437C176.447 171.636 178.956 180.627 176.726 187.81C175.203 192.709 170.924 199.055 159.181 201.463C158.982 201.504 158.779 201.524 158.575 201.524Z" fill="black"/>
</svg>
