<svg width="187" height="220" viewBox="0 0 187 220" fill="none" xmlns="http://www.w3.org/2000/svg">
<path d="M144.915 73.2328C145.017 88.2217 146.566 113.846 148.483 127.845C150.4 141.844 157.069 154.878 165.547 166.182C174.149 177.652 187.064 179.216 187 192.802C186.934 207.118 165.181 212.753 159.526 208.512C159.526 208.512 154.908 221.144 136.707 212.83C136.707 212.83 129.65 225.02 114.705 217.575C102.248 211.369 117.017 186.337 104.702 162.926C97.8396 149.88 103.638 139.408 103.638 139.408L114.42 101.479L144.915 73.2328L144.915 73.2328Z" fill="black"/>
<path d="M60.4347 147.658C65.8123 151.112 69.4841 150.285 68.0376 161.595C67.2802 167.516 62.4859 180.267 60.1105 187.772C58.3091 193.463 56.6663 205.092 52.3131 209.177C51.1343 210.283 46.5477 210.826 44.9551 211.104C40.4034 211.897 36.7767 207.133 32.2455 206.23C27.9093 205.367 23.145 208.135 19.1496 206.242C15.2565 204.397 14.414 199.15 15.1986 194.914C17.0673 184.825 24.7401 176.993 30.0283 168.2C37.067 156.497 39.9945 142.375 38.1883 128.838L60.1105 118.856L60.4347 147.658H60.4347Z" fill="black"/>
<path d="M42.0949 214.787C41.8729 214.787 41.6549 214.78 41.4408 214.765C38.225 214.548 34.4997 213.891 30.6015 209.031C29.1798 208.916 27.6555 209.072 26.0588 209.236C23.6565 209.483 21.174 209.738 18.5292 209.181C10.9096 207.575 8.037 200.715 9.13795 194.768C10.4755 187.552 15.5735 181.537 20.5033 175.719C23.1559 172.589 25.6619 169.633 27.4541 166.652C34.1829 155.463 36.9372 142.175 35.2105 129.235C35.0258 127.848 35.8226 126.517 37.1338 126.025L63.7627 116.044C64.6222 115.722 65.5813 115.81 66.3704 116.286C67.1565 116.761 67.6825 117.57 67.7969 118.481L71.2992 146.3C71.307 146.366 71.3139 146.432 71.3178 146.498C72.3327 163.612 68.6133 173.444 65.331 182.118C64.1391 185.271 63.0118 188.249 62.1543 191.432C60.4931 197.599 57.4807 205.916 52.5636 210.516C49.8504 213.056 45.5551 214.787 42.0949 214.787V214.787ZM29.565 202.982C30.6288 202.982 31.7161 203.063 32.8317 203.285C33.5767 203.433 34.2387 203.859 34.6826 204.476C37.5679 208.483 39.7424 208.63 41.8455 208.772C43.5556 208.885 46.6179 207.853 48.459 206.13C51.4891 203.295 54.2932 197.52 56.3543 189.869C57.2891 186.4 58.4663 183.288 59.7129 179.993C62.9248 171.502 66.2462 162.723 65.3261 146.952L62.3118 123.003L41.4378 130.828C42.7197 144.351 39.6182 158.082 32.6029 169.748C30.5594 173.145 27.7767 176.428 25.087 179.603C20.6646 184.821 16.0907 190.218 15.0455 195.862C14.9272 196.497 14.0619 202.1 19.769 203.303C21.4918 203.666 23.4121 203.469 25.4448 203.261C26.7873 203.123 28.1561 202.982 29.565 202.982Z" fill="black"/>
<path d="M140.251 103.623C140.246 103.565 140.239 103.508 140.23 103.451C139.896 101.392 139.452 101.007 138.565 99.5206C140.564 85.6816 137.493 65.7743 133.931 58.449C130.161 50.6981 127.654 43.8759 120.017 40.2389C112.379 36.602 93.8309 27.146 69.4636 37.3294C45.0963 47.5128 36.5098 80.8169 36.1304 81.9465C36.0916 82.061 34.4181 87.3261 33.4404 94.8716C32.631 98.6344 32.4294 102.618 32.7649 106.654C32.9057 113.546 34.0804 120.989 37.3201 127.728C43.3885 140.35 63.4014 147.604 67.7185 149.403C67.7185 149.403 70.8887 161.23 69.2521 162.867C70.3431 167.776 78.9196 170.168 78.9196 170.168C88.6113 170.805 93.1036 163.894 93.1036 163.894V149.983C93.1036 149.983 104.066 143.032 110.495 136.051C115.166 131.541 118.498 126.069 119.237 124.324C120.02 124.436 121.279 124.572 122.81 124.572C126.321 124.572 131.244 123.858 135.035 120.514C139.112 116.916 140.867 111.234 140.251 103.623V103.623Z" fill="white"/>
<path d="M57.0702 105.029C59.868 105.029 62.136 102.761 62.136 99.963C62.136 97.1652 59.868 94.8972 57.0702 94.8972C54.2725 94.8972 52.0044 97.1652 52.0044 99.963C52.0044 102.761 54.2725 105.029 57.0702 105.029Z" fill="black"/>
<path d="M92.6778 111.803C95.4756 111.803 97.7436 109.535 97.7436 106.737C97.7436 103.94 95.4756 101.672 92.6778 101.672C89.88 101.672 87.612 103.94 87.612 106.737C87.612 109.535 89.88 111.803 92.6778 111.803Z" fill="black"/>
<path d="M67.5157 167.155C66.9652 167.155 66.4079 167.003 65.9083 166.686C64.5199 165.805 64.1004 163.972 64.9608 162.576C65.6638 161.126 65.831 155.035 65.3294 152.61C64.8963 152.497 64.3497 152.369 63.8706 152.257C57.8721 150.852 43.8258 147.561 36.4565 131.86C26.9646 111.636 33.1087 82.9202 33.1801 82.6505C37.4255 66.7181 46.2594 33.5724 85.7262 29.6334C87.3845 29.4692 88.8491 30.6732 89.0134 32.3238C89.1776 33.9744 87.9731 35.4462 86.3226 35.611C51.0426 39.1321 43.204 68.3641 39.0036 84.1266C38.764 85.2911 33.5644 111.56 41.8948 129.308C48.0282 142.375 59.6536 145.099 65.2404 146.408C67.898 147.03 69.3616 147.373 70.2612 148.808C72.2088 151.993 72.0681 162.59 70.0539 165.761C69.4819 166.662 68.51 167.155 67.5157 167.155H67.5157Z" fill="black"/>
<path d="M105.244 146.883C104.417 146.883 103.593 146.543 103 145.877C101.896 144.638 102.007 142.739 103.245 141.636C111.956 133.88 113.74 122.53 113.757 122.417C113.874 121.627 114.303 120.914 114.944 120.441C115.587 119.967 116.389 119.764 117.179 119.884C117.268 119.897 126.706 121.219 131.957 116.299C134.745 113.688 135.945 109.594 135.526 104.13C134.497 98.1382 129.952 96.6488 126.347 97.2028C124.703 97.4528 123.173 96.3292 122.923 94.6895C122.67 93.0498 123.796 91.5166 125.435 91.265C132.049 90.2509 139.897 93.5754 141.474 103.282C141.487 103.362 141.497 103.442 141.504 103.522C142.108 110.981 140.268 116.764 136.036 120.71C130.747 125.64 123.174 126.173 119.114 126.05C117.976 130.478 114.877 139.323 107.24 146.123C106.668 146.632 105.955 146.883 105.244 146.883V146.883Z" fill="black"/>
<path d="M39.1776 133.589C38.0492 133.589 36.9678 132.95 36.4565 131.861C29.6768 117.416 30.8912 98.479 32.2189 88.4764C32.437 86.8316 33.9447 85.6762 35.5912 85.8941C37.2357 86.1123 38.3924 87.6223 38.1734 89.2667C37.1751 96.7943 35.5374 115.765 41.8947 129.308C42.5997 130.81 41.9534 132.598 40.4516 133.303C40.0389 133.497 39.6048 133.589 39.1776 133.589V133.589Z" fill="black"/>
<path d="M119.818 30.921C111.156 25.333 100.506 22.2452 89.9362 21.1024C61.6844 18.048 29.8472 36.234 27.6558 64.7307C27.4067 67.9694 28.0588 72.9246 31.169 76.5252C34.3088 80.16 44.2466 80.5333 50.8571 65.0497C51.3713 63.8452 52.9173 63.5731 53.8855 64.4549C54.6843 65.1825 55.8791 68.2683 60.1099 69.5875C69.6308 72.5563 72.5392 61.8285 94.446 70.54C107.699 75.8102 106.16 82.8221 115.597 84.1202C116.957 84.3073 118.246 84.822 119.432 85.5141C122.527 87.32 124.764 86.8238 128.533 91.0741C138.572 91.7592 138.687 100.564 141.86 96.3053C143.572 94.0078 147.551 75.5041 142.671 60.5509C136.688 42.2216 127.772 36.0526 119.818 30.921L119.818 30.921Z" fill="black"/>
<path d="M32.202 63.5548C31.8842 63.5548 31.5606 63.5039 31.2419 63.3964C29.6696 62.8661 28.8258 61.1622 29.3558 59.5903C36.6732 37.8977 53.3292 24.2829 76.2544 21.2538C77.896 21.0354 79.4086 22.1937 79.6257 23.8381C79.8427 25.4827 78.6851 26.992 77.0405 27.2093C56.5078 29.9223 41.5942 42.104 35.0482 61.5104C34.6249 62.7638 33.4555 63.5548 32.202 63.5548Z" fill="black"/>
<path d="M43.288 43.7647C43.288 43.7647 34.6222 39.7913 45.9594 29.4591C60.1091 16.5637 89.7585 20.9256 107.116 36.8013C124.96 53.1219 133.011 73.7947 130.111 94.9966L120.905 93.156C120.905 93.156 121.232 65.3439 94.9687 49.6761C67.7943 33.465 43.288 43.7647 43.288 43.7647H43.288Z" fill="#82BE28"/>
<path d="M124.711 97.4427C121.322 97.4432 120.213 93.8213 118.561 88.4229C115.593 78.7329 110.627 62.5148 93.4296 52.2557C67.7814 36.9549 44.1209 45.3492 43.8842 45.4359C43.236 45.6733 42.5252 45.6808 41.875 45.4568C41.4712 45.3183 37.9083 43.9917 37.1085 40.1288C36.3272 36.3544 38.5604 32.1381 43.937 27.239C58.9249 13.5782 90.0046 17.0802 109.143 34.585C125.388 49.4432 134.998 71.2336 135.506 94.3687C135.525 95.2158 135.184 96.0312 134.569 96.6142C133.953 97.1974 133.118 97.4928 132.276 97.4298C132.243 97.4272 128.903 97.1816 125.035 97.4321C124.925 97.4392 124.816 97.4427 124.711 97.4427L124.711 97.4427ZM60.5265 37.0004C70.3734 37.0004 83.1525 39.1296 96.5076 47.0966C115.694 58.542 121.295 76.836 124.305 86.6642C124.814 88.3277 125.422 90.3106 125.876 91.371C127.158 91.3154 128.346 91.3043 129.369 91.3149C128.131 71.0099 119.384 52.0927 105.089 39.0177C88.3727 23.7282 60.6213 20.1614 47.983 31.6791C42.6777 36.5144 42.9436 38.6799 42.9916 38.9109C43.0248 39.074 43.1148 39.2178 43.2233 39.3388C45.9062 38.5391 52.156 37.0004 60.5265 37.0004H60.5265Z" fill="black"/>
</svg>
