<svg width="190" height="223" viewBox="0 0 190 223" fill="none" xmlns="http://www.w3.org/2000/svg">
<path d="M145.151 76.5972C144.102 90.6874 146.563 113.843 148.48 127.842C150.397 141.84 155.31 158.002 163.788 169.305C172.39 180.775 187.06 179.212 186.997 192.798C186.93 207.113 165.178 212.749 159.523 208.507C159.523 208.507 154.905 221.139 136.705 212.825C136.705 212.825 129.647 225.015 114.703 217.57C102.246 211.364 117.015 186.332 104.7 162.922C97.8379 149.877 105.877 140.941 105.877 140.941L114.418 101.476L145.151 76.5972Z" fill="#82BE28"/>
<path d="M123.901 223C120.222 222.921 116.614 221.982 113.364 220.259C105.411 216.297 106.43 207.69 107.508 198.578C108.597 189.376 109.832 178.946 104.083 168.618C103.891 168.273 103.769 167.894 103.724 167.503C103.678 167.111 103.711 166.714 103.819 166.335C103.927 165.955 104.108 165.601 104.353 165.292C104.598 164.983 104.902 164.725 105.246 164.533C105.591 164.341 105.97 164.219 106.362 164.174C106.754 164.128 107.15 164.161 107.53 164.269C107.909 164.377 108.263 164.558 108.573 164.803C108.882 165.048 109.14 165.352 109.331 165.696C116.026 177.722 114.61 189.677 113.473 199.284C112.422 208.169 112.058 212.898 116.043 214.882C127.974 220.829 133.522 212.296 134.115 211.303C134.495 210.666 135.095 210.19 135.803 209.967C136.51 209.744 137.275 209.789 137.951 210.093C143.705 212.721 148.605 213.335 152.118 211.866C154.145 211.034 155.783 209.465 156.701 207.476C156.862 207.036 157.124 206.639 157.465 206.318C157.807 205.997 158.218 205.761 158.668 205.628C159.117 205.494 159.591 205.468 160.052 205.551C160.514 205.634 160.949 205.823 161.324 206.104C163.015 207.373 169.309 207.305 175.319 204.317C178.546 202.713 183.963 199.082 183.993 192.784C184.02 186.877 180.809 184.843 174.651 181.472C170.282 179.08 165.33 176.368 161.384 171.108C153.601 160.73 147.813 145.108 145.503 128.249C144.408 120.248 140.928 92.8606 142.155 76.3743C142.215 75.5806 142.588 74.8432 143.191 74.3242C143.795 73.8051 144.579 73.5467 145.373 73.6058C146.167 73.6649 146.905 74.0367 147.425 74.6394C147.945 75.2421 148.204 76.0265 148.146 76.8204C146.962 92.7196 150.379 119.58 151.456 127.434C153.63 143.313 159.001 157.917 166.19 167.503C169.355 171.724 173.514 174.001 177.537 176.203C183.687 179.57 190.046 183.052 190 192.812C189.968 199.766 185.591 205.92 177.993 209.697C172.81 212.273 165.719 213.749 160.766 212.358C159.164 214.596 156.972 216.345 154.434 217.408C149.784 219.353 144.151 219.044 137.669 216.498C135.975 218.507 133.869 220.127 131.493 221.249C129.117 222.371 126.528 222.968 123.901 223Z" fill="black"/>
<path d="M60.4335 147.655C65.811 151.108 69.4828 150.281 68.0363 161.591C67.2789 167.512 62.4847 180.263 60.1094 187.768C58.308 193.459 56.6652 205.088 52.3121 209.173C51.1334 210.279 46.5468 210.822 44.9543 211.099C40.4026 211.892 36.776 207.128 32.2448 206.226C27.9088 205.363 23.1446 208.131 19.1492 206.238C15.2562 204.393 14.4137 199.146 15.1983 194.91C17.067 184.821 24.7397 176.989 30.0278 168.196C37.0928 156.365 39.9672 142.5 38.1876 128.835L60.1094 118.854L60.4335 147.655Z" fill="#82BE28"/>
<path d="M42.0935 214.782C41.8715 214.782 41.6535 214.775 41.4394 214.761C38.2236 214.544 34.4995 213.886 30.6003 209.027C29.083 208.96 27.5628 209.028 26.0578 209.232C23.5613 209.615 21.0198 209.596 18.5292 209.177C10.9079 207.571 8.03626 200.71 9.13817 194.763C10.4748 187.548 15.5726 181.532 20.5033 175.715C23.0516 172.877 25.3752 169.846 27.453 166.648C34.1922 155.411 36.9265 142.222 35.2102 129.232C35.1203 128.558 35.2616 127.874 35.6109 127.291C35.9602 126.708 36.497 126.261 37.1334 126.023L63.7619 116.041C64.1865 115.882 64.6417 115.821 65.0933 115.863C65.5448 115.905 65.9811 116.048 66.3692 116.283C66.7574 116.517 67.0874 116.837 67.3345 117.217C67.5816 117.597 67.7394 118.029 67.796 118.478L71.2981 146.297C71.306 146.363 71.3128 146.428 71.3167 146.494C72.3316 163.608 68.6113 173.439 65.3301 182.114C64.1373 185.267 63.0099 188.245 62.1525 191.428C60.4913 197.594 57.4789 205.911 52.5629 210.512C49.6768 213.111 45.9741 214.621 42.0935 214.782ZM29.5639 202.978C30.6601 202.971 31.7543 203.072 32.8305 203.28C33.5758 203.429 34.2372 203.854 34.6813 204.471C37.5666 208.479 39.7411 208.625 41.8442 208.767C44.2904 208.688 46.6313 207.753 48.4585 206.125C51.4885 203.291 54.2916 197.516 56.3527 189.865C57.3052 186.518 58.4261 183.222 59.7112 179.988C62.924 171.498 66.2453 162.719 65.3253 146.948L62.3109 123L41.4364 130.825C42.7127 144.408 39.6174 158.044 32.6017 169.745C30.3586 173.221 27.8456 176.516 25.0859 179.598C20.6636 184.817 16.0908 190.213 15.0456 195.858C14.9273 196.493 14.06 202.096 19.769 203.299C21.6523 203.57 23.5657 203.555 25.4448 203.256C26.8121 203.093 28.187 203 29.5639 202.978Z" fill="black"/>
<path d="M140.247 103.62C140.243 103.562 140.235 103.505 140.227 103.448C140.019 102.016 139.445 100.663 138.562 99.5177C140.561 85.679 137.49 65.7721 133.927 58.4468C130.158 50.6962 127.651 43.874 120.014 40.2372C112.376 36.6003 93.8284 27.1446 69.4616 37.3277C45.0947 47.5108 36.5083 80.8144 36.129 81.9439C34.8789 86.171 33.9792 90.4939 33.439 94.8688C32.6366 98.7418 32.409 102.712 32.7635 106.651C32.7681 113.92 34.321 121.104 37.3186 127.725C43.3868 140.346 63.3994 147.6 67.7164 149.399C67.7164 149.399 70.1206 164.622 68.484 166.259C69.575 171.168 79.1402 172.474 79.1402 172.474C83.0356 172.851 86.9629 172.228 90.5501 170.664C91.3181 170.296 91.9656 169.717 92.4173 168.995C92.8689 168.273 93.106 167.437 93.101 166.586V149.979C93.101 149.979 104.063 143.028 110.492 136.048C114.023 132.639 116.975 128.678 119.234 124.321C120.418 124.487 121.612 124.569 122.807 124.568C126.318 124.568 131.241 123.855 135.031 120.51C139.109 116.913 140.863 111.23 140.247 103.62Z" fill="white"/>
<path d="M57.0691 105.026C59.8668 105.026 62.1348 102.758 62.1348 99.9606C62.1348 97.1629 59.8668 94.8949 57.0691 94.8949C54.2714 94.8949 52.0034 97.1629 52.0034 99.9606C52.0034 102.758 54.2714 105.026 57.0691 105.026Z" fill="black"/>
<path d="M92.676 111.801C95.4738 111.801 97.7417 109.533 97.7417 106.735C97.7417 103.937 95.4738 101.669 92.676 101.669C89.8783 101.669 87.6103 103.937 87.6103 106.735C87.6103 109.533 89.8783 111.801 92.676 111.801Z" fill="black"/>
<path d="M66.6051 171.569C66.0744 171.568 65.5533 171.427 65.0949 171.16C64.6365 170.892 64.2571 170.508 63.9954 170.047C63.7336 169.585 63.5988 169.062 63.6046 168.532C63.6105 168.001 63.7568 167.481 64.0288 167.026C64.9156 165.059 65.6068 155.832 65.2108 152.576C64.7992 152.471 64.3064 152.356 63.8704 152.254C57.872 150.849 43.825 147.558 36.4559 131.858C26.9641 111.634 33.1081 82.9184 33.1795 82.6487C37.4248 66.7167 46.2586 33.5716 85.7246 29.6326C86.1177 29.5922 86.5149 29.6298 86.8934 29.7432C87.272 29.8566 87.6244 30.0436 87.9305 30.2935C88.2367 30.5433 88.4905 30.8511 88.6775 31.1993C88.8645 31.5474 88.9809 31.929 89.0202 32.3222C89.0594 32.7154 89.0206 33.1125 88.9061 33.4908C88.7916 33.869 88.6036 34.2209 88.3529 34.5263C88.1021 34.8317 87.7936 35.0847 87.4449 35.2706C87.0962 35.4566 86.7143 35.5719 86.321 35.61C51.0416 39.1312 43.2031 68.3626 39.0028 84.1248C38.7633 85.2893 33.5637 111.557 41.894 129.305C48.0273 142.373 59.6535 145.096 65.2402 146.405C67.8967 147.027 69.3603 147.37 70.2608 148.804C72.4138 152.328 70.8973 167.413 69.1433 170.175C68.8721 170.602 68.4972 170.954 68.0534 171.198C67.6096 171.442 67.1114 171.569 66.6051 171.569ZM64.0727 166.955L64.0493 166.992L64.0727 166.955Z" fill="black"/>
<path d="M57.0711 104.638C59.6669 104.638 61.7712 102.534 61.7712 99.9382C61.7712 97.3424 59.6669 95.2381 57.0711 95.2381C54.4753 95.2381 52.371 97.3424 52.371 99.9382C52.371 102.534 54.4753 104.638 57.0711 104.638Z" fill="black"/>
<path d="M92.6409 111.435C95.2367 111.435 97.341 109.331 97.341 106.735C97.341 104.139 95.2367 102.035 92.6409 102.035C90.0451 102.035 87.9408 104.139 87.9408 106.735C87.9408 109.331 90.0451 111.435 92.6409 111.435Z" fill="black"/>
<path d="M105.879 143.944C105.27 143.945 104.676 143.76 104.174 143.414C103.673 143.069 103.288 142.579 103.071 142.01C102.855 141.441 102.816 140.819 102.96 140.228C103.105 139.636 103.426 139.103 103.881 138.698C112.622 130.912 113.734 122.569 113.745 122.486C113.794 122.087 113.922 121.702 114.122 121.354C114.322 121.006 114.59 120.701 114.91 120.458C115.23 120.215 115.596 120.039 115.985 119.94C116.374 119.841 116.78 119.821 117.177 119.881C117.266 119.894 126.704 121.216 131.954 116.297C134.743 113.685 135.942 109.591 135.523 104.128C134.494 98.1359 129.95 96.6465 126.344 97.2005C125.557 97.3213 124.753 97.1244 124.111 96.6531C123.469 96.1818 123.04 95.4746 122.919 94.6872C122.799 93.8998 122.995 93.0967 123.467 92.4545C123.938 91.8122 124.645 91.3836 125.433 91.2627C132.043 90.2487 139.894 93.5731 141.471 103.28C141.484 103.359 141.494 103.439 141.501 103.519C142.105 110.979 140.265 116.761 136.033 120.707C130.73 125.652 123.136 126.176 119.075 126.045C117.022 132.695 113.141 138.634 107.876 143.184C107.326 143.674 106.616 143.945 105.879 143.944Z" fill="black"/>
<path d="M39.1769 133.586C38.606 133.586 38.0468 133.423 37.5649 133.117C37.083 132.811 36.6983 132.374 36.4559 131.857C29.6753 117.409 30.8906 98.4747 32.2194 88.474C32.2706 88.0825 32.3986 87.7049 32.596 87.3629C32.7933 87.0209 33.0562 86.7212 33.3695 86.4809C33.6829 86.2406 34.0405 86.0644 34.422 85.9625C34.8035 85.8605 35.2013 85.8348 35.5927 85.8868C35.9842 85.9388 36.3615 86.0675 36.7031 86.2655C37.0448 86.4635 37.344 86.7269 37.5838 87.0406C37.8235 87.3544 37.999 87.7124 38.1002 88.094C38.2015 88.4757 38.2264 88.8736 38.1737 89.2649C37.1745 96.7907 35.5358 115.758 41.894 129.305C42.1085 129.763 42.2041 130.267 42.1719 130.772C42.1398 131.276 41.9809 131.764 41.71 132.191C41.4391 132.618 41.065 132.969 40.6222 133.213C40.1794 133.457 39.6823 133.585 39.1769 133.586V133.586Z" fill="black"/>
<path d="M106.711 170.161C106.175 170.162 105.649 170.019 105.187 169.748C104.725 169.476 104.344 169.086 104.084 168.618C94.2733 150.996 103.796 138.173 104.206 137.636C104.69 137.003 105.405 136.587 106.194 136.481C106.984 136.375 107.783 136.588 108.416 137.071C109.05 137.554 109.465 138.27 109.571 139.059C109.677 139.849 109.465 140.648 108.981 141.281C108.682 141.683 101.497 151.621 109.332 165.696C109.587 166.153 109.717 166.669 109.711 167.192C109.705 167.715 109.563 168.227 109.298 168.678C109.033 169.129 108.655 169.503 108.201 169.763C107.748 170.023 107.234 170.16 106.711 170.161H106.711Z" fill="black"/>
<path d="M124.177 35.4496C116.693 30.3906 105.456 25.2668 94.8861 24.1241C63.424 20.7226 26.6549 40.1866 31.2667 74.4774C31.9513 79.5676 52.3697 86.7425 51.1869 66.5689C52.8681 65.7713 54.9286 68.4065 57.069 69.1636C66.471 72.4892 81.5116 61.9431 101.331 69.9123C106.734 72.085 110.871 81.6074 115.986 78.6601C120.491 82.4571 124.685 86.6074 128.53 91.0716C138.569 91.7567 138.684 100.561 141.857 96.3027C143.569 94.0052 146.997 75.6727 142.294 60.663C136.109 40.927 126.897 37.973 124.177 35.4496Z" fill="#82BE28"/>
<path d="M40.7582 82.7474C40.6721 82.7476 40.5841 82.7438 40.4961 82.7361C38.6372 82.6514 36.8212 82.1485 35.1836 81.2647C33.5459 80.3809 32.1287 79.139 31.0376 77.6316C26.4335 71.0461 28.9932 60.8997 29.3012 59.7645C29.5085 58.9954 30.0129 58.3401 30.7033 57.9429C31.3938 57.5456 32.2137 57.4389 32.9829 57.6463C33.752 57.8536 34.4072 58.358 34.8045 59.0484C35.2017 59.7389 35.3084 60.5589 35.1011 61.328C34.4753 63.6732 33.4116 70.557 35.9673 74.1984C36.5572 74.9817 37.319 75.6192 38.194 76.0618C39.069 76.5044 40.0338 76.7403 41.0144 76.7514C41.7856 76.8179 42.5013 77.1796 43.0123 77.761C43.5233 78.3425 43.7901 79.0987 43.7571 79.8721C43.724 80.6454 43.3937 81.3762 42.835 81.9119C42.2762 82.4476 41.5322 82.7469 40.7582 82.7474H40.7582Z" fill="black"/>
<path d="M32.2 63.5535C31.7232 63.553 31.2534 63.4391 30.8293 63.2212C30.4053 63.0034 30.0391 62.6878 29.7611 62.3005C29.483 61.9132 29.3011 61.4653 29.2303 60.9938C29.1595 60.5224 29.2018 60.0408 29.3538 59.5889C36.6721 37.8967 53.3277 24.2822 76.2515 21.2533C76.6428 21.2011 77.0406 21.2266 77.422 21.3283C77.8034 21.43 78.1611 21.6058 78.4745 21.8458C78.7879 22.0858 79.051 22.3853 79.2486 22.727C79.4462 23.0687 79.5745 23.4461 79.6261 23.8374C79.6778 24.2288 79.6518 24.6265 79.5496 25.0078C79.4474 25.3891 79.2711 25.7465 79.0307 26.0596C78.7903 26.3727 78.4905 26.6354 78.1485 26.8325C77.8066 27.0297 77.4291 27.1575 77.0376 27.2087C56.5063 29.9215 41.593 42.103 35.0462 61.5092C34.8451 62.1048 34.4623 62.6223 33.9518 62.989C33.4412 63.3557 32.8285 63.5531 32.2 63.5535Z" fill="black"/>
<path d="M145.297 99.3263L145.27 99.3262C144.473 99.3192 143.712 98.9962 143.154 98.428C142.595 97.8599 142.285 97.0932 142.292 96.2967C142.305 94.8566 142.333 93.3777 142.363 91.8652C142.673 75.8019 143.025 57.5955 126.209 41.0833C118.114 33.5809 111.957 30.6163 108.229 29.461C107.469 29.2248 106.834 28.6964 106.463 27.9919C106.092 27.2874 106.016 26.4645 106.251 25.7039C106.487 24.9434 107.015 24.3076 107.719 23.9361C108.423 23.5646 109.246 23.488 110.007 23.723C116.207 25.6443 123.243 30.1446 130.354 36.7374C149.081 55.1231 148.686 75.5599 148.369 91.9811C148.34 93.4719 148.311 94.9295 148.3 96.3488C148.293 97.1407 147.973 97.8978 147.411 98.4554C146.849 99.0131 146.089 99.3261 145.297 99.3263Z" fill="black"/>
<path d="M43.2872 43.7634C43.2872 43.7634 34.6216 39.79 45.9585 29.4581C60.108 16.5629 89.7567 20.9247 107.114 36.8001C124.957 53.1204 133.009 73.7928 130.109 94.9943L120.902 93.1537C120.902 93.1537 121.23 65.3421 94.9669 49.6746C67.793 33.4639 43.2872 43.7634 43.2872 43.7634Z" fill="#2D8C3C"/>
<path d="M124.71 97.4404C121.321 97.4407 120.213 93.8185 118.559 88.4195C115.592 78.7299 110.626 62.5126 93.4298 52.2542C67.781 36.9528 44.121 45.3477 43.8844 45.4345C43.2365 45.6719 42.5268 45.6793 41.8742 45.4554C40.699 45.0346 39.6477 44.3268 38.8156 43.3964C37.9836 42.466 37.3972 41.3424 37.1097 40.1278C36.3285 36.3535 38.5616 32.1373 43.9372 27.2381C58.9238 13.5791 90.0029 17.0785 109.142 34.5838C125.387 49.4417 134.996 71.2318 135.504 94.3664C135.513 94.7853 135.435 95.2016 135.274 95.5883C135.112 95.9751 134.872 96.3238 134.568 96.6121C134.263 96.9003 133.902 97.1218 133.508 97.2622C133.113 97.4026 132.693 97.4589 132.275 97.4274C129.864 97.2787 127.447 97.2794 125.036 97.4297C124.924 97.4368 124.816 97.4404 124.71 97.4404ZM60.5272 36.9992C73.2162 37.0258 85.6571 40.5167 96.5076 47.0952C115.692 58.5398 121.293 76.8329 124.303 86.6606C124.813 88.3248 125.42 90.3082 125.876 91.3688C127.158 91.3132 128.348 91.3023 129.367 91.3127C128.129 71.0081 119.383 52.0913 105.088 39.0165C88.373 23.7276 60.6202 20.1611 47.983 31.678C42.7247 36.4706 42.9458 38.6546 42.9878 38.8879C43.0237 39.0567 43.106 39.2122 43.2254 39.3369C48.8536 37.7459 54.6786 36.9589 60.5272 36.9992Z" fill="black"/>
<path d="M110.874 82.0559C110.344 82.0565 109.823 81.9168 109.365 81.6508C108.906 81.3849 108.526 81.0023 108.263 80.5419C105.899 76.4054 101.196 72.8843 95.021 70.6273C88.5974 68.2803 82.0261 67.9258 76.5146 69.6287C75.354 69.9871 74.1935 70.444 72.9635 70.9278C70.0939 72.0573 67.1255 73.2252 63.7445 73.2989C60.7673 73.392 57.7977 72.9491 54.9772 71.9915C51.1494 70.5693 48.4665 67.7373 47.7997 64.4158C46.9353 60.1144 47.9424 56.3264 50.4923 54.2831C50.8002 54.0365 51.1536 53.8529 51.5324 53.7428C51.9112 53.6327 52.308 53.5984 52.7001 53.6416C53.0922 53.6849 53.4719 53.805 53.8176 53.995C54.1633 54.185 54.4681 54.4413 54.7148 54.7491C54.9615 55.057 55.1451 55.4104 55.2551 55.7892C55.3652 56.168 55.3996 56.5648 55.3563 56.9569C55.313 57.349 55.193 57.7287 55.0029 58.0744C54.8129 58.4201 54.5567 58.725 54.2488 58.9716C53.5536 59.5283 53.3131 61.3605 53.6895 63.2332C53.9887 64.7243 55.6313 65.8262 57.0696 66.3604C59.1776 67.0598 61.394 67.3758 63.6135 67.2932C66.0917 67.0563 68.5107 66.3949 70.7646 65.3378C72.0425 64.8347 73.3644 64.3144 74.741 63.8892C81.5011 61.801 89.4343 62.1898 97.0831 64.9852C104.59 67.7285 110.412 72.195 113.479 77.5618C113.739 78.0184 113.876 78.5354 113.874 79.0612C113.873 79.5871 113.733 80.1032 113.469 80.5582C113.206 81.0131 112.827 81.3909 112.372 81.6537C111.916 81.9165 111.4 82.0552 110.874 82.0559H110.874Z" fill="black"/>
</svg>
