<svg width="200" height="224" viewBox="0 0 200 224" fill="none" xmlns="http://www.w3.org/2000/svg">
<path d="M142.403 103.903C142.399 103.845 142.392 103.788 142.383 103.731C142.048 101.668 141.602 101.281 140.713 99.7911C151.135 89.147 144.65 70.6734 141.078 63.3294C137.299 55.5588 129.775 44.0047 122.118 40.3585C114.461 36.7123 95.8656 27.2323 71.4362 37.4416C47.0069 47.6508 38.3985 81.0397 38.0182 82.1722C37.9793 82.287 36.3015 87.5655 35.3213 95.1302C34.5099 98.9026 34.3078 102.896 34.644 106.943C34.7853 113.852 35.9629 121.314 39.2109 128.071C45.2947 140.724 65.3586 147.996 69.6866 149.801C69.6866 149.801 70.2512 162.141 68.6104 163.781C69.7043 168.704 80.9163 170.618 80.9163 170.618C90.6326 171.257 95.1363 164.328 95.1363 164.328V150.382C95.1363 150.382 106.172 145.307 112.617 138.309C117.301 133.787 120.595 126.407 121.336 124.658C122.121 124.77 123.383 124.906 124.919 124.906C128.439 124.906 133.374 124.191 137.174 120.838C141.262 117.231 143.021 111.534 142.403 103.903V103.903Z" fill="white"/>
<path d="M59.0132 105.314C61.8181 105.314 64.0919 103.04 64.0919 100.235C64.0919 97.4302 61.8181 95.1564 59.0132 95.1564C56.2083 95.1564 53.9345 97.4302 53.9345 100.235C53.9345 103.04 56.2083 105.314 59.0132 105.314Z" fill="black"/>
<path d="M94.7114 112.105C97.5163 112.105 99.7901 109.832 99.7901 107.027C99.7901 104.222 97.5163 101.948 94.7114 101.948C91.9066 101.948 89.6327 104.222 89.6327 107.027C89.6327 109.832 91.9066 112.105 94.7114 112.105Z" fill="black"/>
<path d="M69.3602 166.818C68.8073 166.818 68.2486 166.667 67.7477 166.348C66.3508 165.461 65.9333 163.613 66.8086 162.212C67.5261 160.841 67.7594 155.303 67.2968 153.016C66.8615 152.903 66.3116 152.775 65.8303 152.662C59.8166 151.253 45.7345 147.954 38.3465 132.214C28.9382 112.169 34.9921 83.1377 35.0637 82.8685C39.3179 66.9056 48.1743 33.6754 87.7415 29.7264C89.4089 29.5623 90.8724 30.7688 91.0371 32.4236C91.2018 34.0785 89.9941 35.554 88.3395 35.7191C52.9706 39.2492 45.1111 68.5573 40.899 84.3599C40.6618 85.5112 35.4352 111.836 43.7986 129.655C49.9476 142.755 61.6026 145.486 67.2036 146.798C69.8679 147.422 71.3353 147.766 72.2371 149.204C74.2633 152.517 73.7497 162.519 71.9049 165.422C71.3314 166.325 70.3561 166.818 69.3602 166.818L69.3602 166.818Z" fill="black"/>
<path d="M59.0133 104.925C61.6157 104.925 63.7254 102.815 63.7254 100.213C63.7254 97.6101 61.6157 95.5004 59.0133 95.5004C56.4108 95.5004 54.3011 97.6101 54.3011 100.213C54.3011 102.815 56.4108 104.925 59.0133 104.925Z" fill="black"/>
<path d="M94.6762 111.739C97.2787 111.739 99.3884 109.629 99.3884 107.027C99.3884 104.424 97.2787 102.315 94.6762 102.315C92.0738 102.315 89.9641 104.424 89.9641 107.027C89.9641 109.629 92.0738 111.739 94.6762 111.739Z" fill="black"/>
<path d="M122.223 126.403C120.035 126.403 118.541 126.187 118.371 126.161C116.726 125.912 115.596 124.376 115.846 122.732C116.095 121.089 117.629 119.961 119.269 120.206C119.391 120.224 128.835 121.537 134.09 116.613C136.885 113.995 138.088 109.891 137.668 104.413C136.636 98.4057 132.081 96.9125 128.465 97.4679C126.816 97.718 125.283 96.5921 125.032 94.9482C124.779 93.3044 125.908 91.7672 127.552 91.515C134.178 90.4981 142.05 93.8311 143.631 103.563C143.644 103.643 143.654 103.723 143.661 103.803C144.266 111.281 142.422 117.079 138.179 121.035C133.289 125.594 126.456 126.403 122.223 126.403L122.223 126.403Z" fill="black"/>
<path d="M41.074 133.946C39.9428 133.946 38.8587 133.306 38.346 132.214C31.5471 117.729 32.7656 98.7455 34.0977 88.7191C34.3163 87.0702 35.8376 85.9112 37.4785 86.1305C39.1273 86.3495 40.2869 87.8635 40.0673 89.5121C39.0655 97.0573 37.4227 116.073 43.7981 129.655C44.5049 131.16 43.8569 132.954 42.3513 133.66C41.9376 133.854 41.5024 133.946 41.074 133.946Z" fill="black"/>
<path d="M199.739 202.14C199.157 191.952 187.295 187.538 180.801 180.439C162.463 160.391 160.943 144.127 157.979 120.18C154.301 90.4674 155.87 75.101 148.886 54.6111C144.428 41.5309 135.677 25.0302 113.605 15.7659C99.9748 10.0453 82.0085 10.259 72.8257 13.298C63.6426 16.3369 57.3985 21.1062 54.4625 27.2178C53.8777 28.4351 53.3469 30.4357 52.3623 31.36C51.32 32.3388 49.7279 32.3231 48.2997 32.391C37.5222 32.9041 28.5342 41.5748 24.2364 51.4718C19.9388 61.3685 19.3705 72.4138 18.5873 83.175C16.5415 111.279 17.3904 156.338 4.11679 181.194C2.2786 184.636 0.223293 188.152 0.0118106 192.048C-0.199672 195.944 2.34183 204.43 14.7114 200.345C22.0629 197.917 18.0156 207.719 25.0649 213.059C33.992 219.822 41.2255 213.57 43.2898 211.417C47.5398 206.986 48.5026 203.299 48.8285 201.668C52.252 184.552 49.4662 156.765 47.4317 136.477C47.1621 133.785 46.9078 131.249 46.6872 128.919C46.5196 127.151 46.2583 125.092 45.9559 122.707C44.5331 111.48 43.4889 95.185 46.9976 77.3312C48.2278 71.0705 50.5963 65.6012 53.9346 62.3036C57.1327 59.1444 60.1985 58.6124 64.0334 59.9138C67.7709 61.1821 71.5259 62.1022 73.9701 59.171C77.4543 54.9928 81.4819 53.8099 86.336 53.893C92.1272 54.0001 98.3461 56.3408 102.729 62.01C112.089 74.1167 113.893 86.427 113.215 107.026C112.886 117.018 112.04 125.208 110.104 135.798C105.862 158.994 101.475 182.979 113.248 208.081C115.515 212.914 124.147 221.573 136.982 223.537C147.305 225.117 159.356 222.739 165.891 215.074C167.571 213.104 170.418 212.565 172.685 213.816C179.011 217.306 186.715 218.29 193.184 214.201C197.343 211.572 200.02 207.052 199.739 202.14Z" fill="black"/>
</svg>
