<svg width="208" height="224" viewBox="0 0 208 224" fill="none" xmlns="http://www.w3.org/2000/svg">
<path d="M147.556 103.949C147.552 103.891 147.544 103.834 147.536 103.777C147.327 102.342 146.752 100.984 145.865 99.8356C156.291 89.1876 149.803 70.7072 146.23 63.3605C142.45 55.5871 134.923 44.0287 127.263 40.3812C119.603 36.7337 101.001 27.2502 76.5628 37.4632C52.1244 47.6762 43.5129 81.0774 43.1325 82.2102C41.8787 86.4497 40.9764 90.7853 40.4346 95.173C39.6299 99.0574 39.4016 103.039 39.7571 106.99C39.7618 114.28 41.3192 121.485 44.3256 128.126C50.4117 140.784 70.4829 148.059 74.8126 149.864C74.8126 149.864 75.3774 162.208 73.736 163.849C74.8303 168.774 86.0464 170.689 86.0464 170.689C88.7574 170.942 91.4882 170.496 93.9783 169.395C96.4685 168.294 98.6351 166.573 100.272 164.397V150.445C100.272 150.445 111.311 145.368 117.759 138.367C122.444 133.844 125.74 126.461 126.481 124.711C127.668 124.878 128.866 124.961 130.065 124.959C133.586 124.959 138.524 124.244 142.325 120.89C146.415 117.282 148.174 111.583 147.556 103.949Z" fill="white"/>
<path d="M64.136 105.36C66.9419 105.36 69.2166 103.086 69.2166 100.28C69.2166 97.4739 66.9419 95.1992 64.136 95.1992C61.3301 95.1992 59.0554 97.4739 59.0554 100.28C59.0554 103.086 61.3301 105.36 64.136 105.36Z" fill="black"/>
<path d="M99.8473 112.154C102.653 112.154 104.928 109.88 104.928 107.074C104.928 104.268 102.653 101.993 99.8473 101.993C97.0414 101.993 94.7668 104.268 94.7668 107.074C94.7668 109.88 97.0414 112.154 99.8473 112.154Z" fill="black"/>
<path d="M74.4867 166.888C73.9493 166.887 73.4218 166.743 72.959 166.47C72.4961 166.197 72.1147 165.805 71.8543 165.335C71.5939 164.865 71.464 164.333 71.4781 163.796C71.4921 163.259 71.6496 162.735 71.9342 162.279C72.652 160.908 72.8854 155.368 72.4225 153.081C71.9872 152.968 71.4371 152.839 70.9556 152.726C64.9396 151.317 50.8524 148.017 43.4616 132.27C34.0499 112.218 40.106 83.1762 40.1776 82.9069C44.4334 66.9382 53.2931 33.6957 92.8748 29.7453C93.269 29.7051 93.6671 29.743 94.0466 29.8568C94.426 29.9707 94.7793 30.1583 95.0861 30.4089C95.393 30.6595 95.6474 30.9682 95.8347 31.3172C96.0221 31.6662 96.1388 32.0488 96.1782 32.443C96.2175 32.8372 96.1787 33.2353 96.064 33.6145C95.9492 33.9937 95.7608 34.3465 95.5096 34.6528C95.2583 34.9591 94.9491 35.2128 94.5996 35.3994C94.2501 35.586 93.8673 35.7018 93.473 35.7403C58.0911 39.2716 50.2287 68.5905 46.0151 84.3989C45.7778 85.5507 40.5493 111.885 48.9157 129.71C55.067 142.816 66.7263 145.547 72.3294 146.86C74.9937 147.484 76.4616 147.828 77.3648 149.266C79.3916 152.581 78.8778 162.586 77.0323 165.491C76.7603 165.919 76.3842 166.272 75.9391 166.516C75.494 166.761 74.9944 166.888 74.4867 166.888Z" fill="black"/>
<path d="M64.136 104.971C66.7394 104.971 68.8499 102.86 68.8499 100.257C68.8499 97.6534 66.7394 95.5429 64.136 95.5429C61.5326 95.5429 59.4222 97.6534 59.4222 100.257C59.4222 102.86 61.5326 104.971 64.136 104.971Z" fill="black"/>
<path d="M99.8121 111.788C102.415 111.788 104.526 109.677 104.526 107.074C104.526 104.47 102.415 102.36 99.8121 102.36C97.2087 102.36 95.0982 104.47 95.0982 107.074C95.0982 109.677 97.2087 111.788 99.8121 111.788Z" fill="black"/>
<path d="M127.368 126.458C126.079 126.467 124.791 126.386 123.514 126.215C122.727 126.093 122.021 125.663 121.55 125.021C121.079 124.38 120.881 123.577 121 122.79C121.119 122.003 121.544 121.294 122.184 120.82C122.823 120.345 123.624 120.143 124.412 120.258C124.535 120.276 133.982 121.589 139.239 116.664C142.035 114.045 143.239 109.939 142.818 104.459C141.787 98.4497 137.23 96.9559 133.613 97.5115C132.823 97.6327 132.018 97.4352 131.374 96.9625C130.73 96.4898 130.3 95.7806 130.179 94.9909C130.057 94.2012 130.255 93.3957 130.728 92.7516C131.2 92.1075 131.91 91.6775 132.699 91.5563C139.336 90.5375 147.204 93.875 148.784 103.609C148.797 103.689 148.806 103.769 148.813 103.849C149.419 111.33 147.574 117.13 143.33 121.087C138.438 125.648 131.602 126.458 127.368 126.458Z" fill="black"/>
<path d="M46.1922 134.003C45.6196 134.004 45.0589 133.841 44.5756 133.534C44.0923 133.227 43.7064 132.789 43.4632 132.27C36.6618 117.78 37.8806 98.7896 39.2133 88.7595C39.2647 88.3668 39.393 87.9881 39.591 87.6451C39.7889 87.3021 40.0526 87.0015 40.3668 86.7605C40.6811 86.5195 41.0398 86.3428 41.4224 86.2406C41.805 86.1384 42.204 86.1126 42.5965 86.1647C42.9891 86.2169 43.3675 86.3459 43.7102 86.5445C44.0528 86.743 44.353 87.0072 44.5934 87.3219C44.8338 87.6366 45.0098 87.9956 45.1114 88.3784C45.2129 88.7612 45.238 89.1602 45.1851 89.5527C44.183 97.1008 42.5394 116.123 48.9172 129.71C49.1324 130.169 49.2282 130.675 49.196 131.181C49.1637 131.687 49.0044 132.177 48.7327 132.605C48.461 133.033 48.0858 133.385 47.6417 133.63C47.1977 133.874 46.6991 134.003 46.1922 134.003V134.003Z" fill="black"/>
<path d="M75.4988 57.9025C75.1487 58.3017 74.7232 58.6276 74.2467 58.8616C73.7701 59.0957 73.252 59.2332 72.7222 59.2662C72.1923 59.2992 71.6612 59.2272 71.1593 59.0542C70.6574 58.8812 70.1946 58.6106 69.7977 58.2581C66.1858 55.2574 62.5225 54.4708 57.4665 57.8389C52.5483 61.1152 49.2237 69.5824 48.0525 76.1154C47.1592 81.0984 44.9223 108.964 48.8061 129.258C52.4621 148.362 54.7872 182.191 50.9936 201.159C49.4164 209.045 40.5844 220.4 30.1752 213.145C25.8038 210.099 27.172 197.998 19.8178 200.427C7.44384 204.513 4.90135 196.024 5.11287 192.126C5.32439 188.229 7.38046 184.712 9.21927 181.268C22.498 156.403 21.6488 111.328 23.6952 83.2135C24.4788 72.4483 25.0471 61.399 29.3465 51.4985C33.6459 41.598 42.637 32.9239 53.4185 32.4109C54.8473 32.3429 56.4399 32.3586 57.4827 31.3795C58.4675 30.4548 58.3138 28.8925 58.8159 27.6383C61.1548 21.7955 68.7671 16.3508 77.9534 13.3107C87.1398 10.2706 105.113 10.0568 118.748 15.7796C140.828 25.0472 146.26 37.3648 150.72 50.4498C157.707 70.9471 157.569 94.1403 163.138 120.232C168.177 143.839 171.31 167.87 184.838 183.407C190.943 190.419 203.53 191.727 204.816 201.202C205.098 203.717 204.667 206.26 203.574 208.542C202.481 210.824 200.768 212.753 198.632 214.109C190.617 219.385 180.629 216.732 173.716 211.113C168.38 221.976 154.134 225.193 142.133 223.627C137.517 223.025 133.164 220.517 129.533 217.604C125.917 214.75 123.033 211.076 121.118 206.887C104.928 173.112 121.102 141.375 122.169 108.917C122.87 87.6016 120.007 72.8171 110.251 60.1982C101.069 48.3217 84.9183 46.6067 75.4988 57.9025Z" fill="#2D8C3C"/>
<path d="M189.05 219.995C182.475 219.995 176.191 217.007 171.816 213.45C171.508 213.201 171.253 212.893 171.064 212.545C170.876 212.197 170.758 211.815 170.717 211.421C170.676 211.027 170.713 210.629 170.826 210.25C170.939 209.87 171.126 209.517 171.376 209.21C171.625 208.903 171.933 208.648 172.282 208.459C172.63 208.271 173.012 208.154 173.406 208.113C173.8 208.073 174.198 208.111 174.577 208.224C174.956 208.338 175.31 208.525 175.617 208.775C180.909 213.078 189.677 216.397 196.976 211.593C198.638 210.55 199.974 209.06 200.833 207.295C201.691 205.53 202.037 203.559 201.831 201.607C201.252 197.345 197.185 195.097 192.474 192.494C188.951 190.548 185.308 188.534 182.566 185.385C169.815 170.74 161.848 147.669 160.132 120.421C158.19 89.5879 154.673 69.1171 148.727 54.0464C138.712 28.6651 117.798 19.6924 117.588 19.6047C117.524 19.5784 117.462 19.5498 117.401 19.5192C102.212 11.9247 74.3907 9.65522 62.9147 28.9025C61.9942 30.5966 60.862 32.1668 59.5454 33.5754C57.7705 35.2409 55.5338 35.3357 53.9001 35.4051L53.5618 35.4199C43.6627 35.891 34.3764 45.2307 30.6649 53.779C27.0023 62.2109 25.0598 71.0387 24.1674 83.2974C23.7477 89.0628 23.4702 95.4662 23.176 102.245C22.0592 128.01 20.6696 160.076 9.8115 180.407C7.97975 183.836 6.43237 186.94 6.03915 190.206C5.94543 191.523 6.16472 192.844 6.67907 194.06C7.19343 195.276 7.98826 196.353 8.99859 197.203C11.8786 199.47 15.9 198.673 18.7653 197.604C19.136 197.466 19.5303 197.402 19.9256 197.416C20.321 197.43 20.7097 197.522 21.0695 197.687C21.4293 197.851 21.7532 198.085 22.0228 198.374C22.2923 198.664 22.5021 199.004 22.6403 199.375C22.7785 199.745 22.8423 200.14 22.8281 200.535C22.8139 200.93 22.7219 201.319 22.5575 201.679C22.3931 202.039 22.1594 202.362 21.8699 202.632C21.5803 202.902 21.2404 203.111 20.8697 203.25C13.0534 206.162 8.07392 204.143 5.27138 201.936C3.4548 200.442 2.03041 198.526 1.12182 196.357C0.213228 194.187 -0.15211 191.828 0.0575127 189.485C0.575272 185.189 2.45312 181.397 4.49667 177.569C14.7096 158.446 16.0667 127.14 17.1571 101.984C17.4533 95.1598 17.7328 88.7136 18.1583 82.86C19.1027 69.8847 21.1903 60.4698 25.1382 51.3792C29.6852 40.9071 40.8111 29.9951 53.2754 29.402L53.6441 29.3857C54.2521 29.3981 54.8588 29.3233 55.4455 29.1635C56.3111 28.121 57.0789 27.0011 57.7391 25.8178C69.8848 5.44885 99.4949 3.87438 120.011 14.0883C121.917 14.9082 143.649 24.7639 154.332 51.8351C160.518 67.5174 164.161 88.5534 166.145 120.043C167.778 145.976 175.223 167.777 187.11 181.429C189.153 183.776 192.182 185.449 195.387 187.221C200.744 190.181 206.815 193.535 207.801 200.797C208.157 203.874 207.641 206.989 206.313 209.788C204.985 212.586 202.897 214.955 200.288 216.625C196.96 218.84 193.047 220.013 189.05 219.995Z" fill="black"/>
<path d="M129.531 220.617C128.845 220.617 128.181 220.383 127.647 219.954C123.66 216.824 120.485 212.781 118.39 208.166C106.612 183.055 111 159.06 115.244 135.855C117.182 125.262 119.012 115.256 119.341 105.261C120.018 84.6534 117.23 74.1512 107.867 62.0409C103.482 56.3696 97.6445 53.0555 91.8511 52.9485C86.9629 52.8594 82.5816 55.0211 79.0965 59.2008C77.8742 60.6128 76.1426 61.4836 74.2802 61.6229C72.4178 61.7622 70.576 61.1587 69.1572 59.9442C66.4547 57.6984 62.8951 57.8415 59.1355 60.346C55.2288 62.9489 52.238 70.4334 51.0074 76.6964C47.4978 94.5574 49.6492 111.53 51.0731 122.762C51.3751 125.147 51.6359 127.206 51.8036 128.974C52.0242 131.303 52.2792 133.838 52.5489 136.529C54.5836 156.827 57.3714 184.626 53.9462 201.75C53.8692 202.139 53.7164 202.508 53.4964 202.837C53.2765 203.167 52.9938 203.449 52.6645 203.669C52.3352 203.889 51.9658 204.042 51.5773 204.119C51.1889 204.196 50.7891 204.196 50.4008 204.118C50.0126 204.04 49.6434 203.887 49.3145 203.666C48.9856 203.446 48.7034 203.163 48.484 202.833C48.2646 202.503 48.1124 202.134 48.0361 201.745C47.9598 201.357 47.9608 200.957 48.0391 200.569C51.2868 184.329 48.4382 155.926 46.5535 137.13C46.2829 134.428 46.0279 131.882 45.8063 129.542C45.6474 127.869 45.3915 125.854 45.0964 123.519C43.7137 112.61 41.3995 94.3502 45.0964 75.5349C46.5251 68.2622 50.0866 59.1356 55.7956 55.332C61.7861 51.342 68.2208 51.3324 73.0071 55.3099C73.1983 55.5055 73.4585 55.6184 73.732 55.6245C74.0054 55.6305 74.2704 55.5292 74.4701 55.3423C79.0975 49.792 85.2625 46.7991 91.9619 46.9248C99.591 47.0657 107.126 51.2321 112.633 58.3558C122.872 71.5993 126.084 83.4853 125.362 105.459C125.019 115.901 123.063 126.596 121.171 136.939C117.098 159.211 112.885 182.242 123.844 205.607C125.547 209.391 128.147 212.702 131.418 215.255C131.905 215.645 132.258 216.177 132.429 216.777C132.601 217.377 132.581 218.016 132.374 218.604C132.167 219.193 131.782 219.703 131.273 220.063C130.763 220.424 130.155 220.617 129.531 220.617L129.531 220.617Z" fill="black"/>
</svg>
