<svg width="199" height="197" viewBox="0 0 199 197" fill="none" xmlns="http://www.w3.org/2000/svg">
<path d="M145.956 130.34C145.951 130.282 145.944 130.225 145.936 130.168C145.601 128.107 145.156 127.721 144.268 126.233C154.675 115.604 148.199 97.1574 144.632 89.8239C140.859 82.0645 133.345 70.527 125.699 66.886C118.053 63.2451 99.4847 53.7787 75.0904 63.9733C50.6961 74.1679 42.1001 107.509 41.7203 108.64C41.6815 108.754 40.0062 114.025 39.0274 121.579C38.2171 125.346 38.0153 129.334 38.351 133.375C38.4921 140.275 39.668 147.726 42.9113 154.472C48.9864 167.108 69.0215 174.369 73.3433 176.171C73.3433 176.171 73.9071 188.493 72.2687 190.132C73.361 195.047 84.5569 196.958 84.5569 196.958C94.2593 197.596 98.7565 190.678 98.7565 190.678V176.751C98.7565 176.751 109.776 171.684 116.212 164.696C120.889 160.18 124.179 152.811 124.919 151.064C125.703 151.176 126.963 151.312 128.496 151.312C132.011 151.312 136.939 150.598 140.734 147.25C144.816 143.648 146.573 137.959 145.956 130.34L145.956 130.34Z" fill="white"/>
<path d="M166.509 114.808L144.663 156.679L115.536 131.92L27.7889 139.93V83.1319L149.76 87.501L166.509 114.808Z" fill="black"/>
<path d="M145.956 130.34C145.951 130.282 145.944 130.225 145.936 130.168C140.295 120.634 130.624 122.122 129.736 120.634C130.988 119.355 128.939 112.275 129.736 110.803C135.569 100.039 147.77 96.2751 144.632 89.8239C140.859 82.0645 133.345 70.527 125.699 66.886C118.053 63.2451 99.4847 53.7787 75.0904 63.9733C50.6961 74.1679 42.1001 107.509 41.7203 108.64C41.6815 108.754 40.0062 114.025 39.0274 121.579C38.2171 125.346 38.0153 129.334 38.351 133.375C38.4921 140.275 39.668 147.726 42.9113 154.472C48.9864 167.108 69.0215 174.369 73.3433 176.171C73.3433 176.171 73.9071 188.493 72.2687 190.132C73.361 195.047 84.5568 196.958 84.5568 196.958C94.2593 197.596 98.7565 190.678 98.7565 190.678V176.751C98.7565 176.751 109.776 171.684 116.212 164.696C120.889 160.18 124.179 152.811 124.919 151.064C125.703 151.176 126.963 151.312 128.496 151.312C132.011 151.312 136.939 150.598 140.734 147.25C144.816 143.648 146.573 137.959 145.956 130.34V130.34Z" fill="white"/>
<path d="M62.6833 131.748C65.4842 131.748 67.7547 129.478 67.7547 126.677C67.7547 123.876 65.4842 121.605 62.6833 121.605C59.8824 121.605 57.6119 123.876 57.6119 126.677C57.6119 129.478 59.8824 131.748 62.6833 131.748Z" fill="black"/>
<path d="M98.3303 138.53C101.131 138.53 103.402 136.259 103.402 133.458C103.402 130.658 101.131 128.387 98.3303 128.387C95.5294 128.387 93.2589 130.658 93.2589 133.458C93.2589 136.259 95.5294 138.53 98.3303 138.53Z" fill="black"/>
<path d="M73.016 193.164C72.4639 193.164 71.906 193.013 71.4058 192.695C70.011 191.808 69.594 189.964 70.4681 188.564C71.1846 187.195 71.4176 181.665 70.9556 179.382C70.521 179.269 69.9718 179.141 69.4912 179.028C63.4861 177.621 49.4243 174.327 42.0468 158.609C32.5444 138.363 38.6953 109.615 38.7668 109.345C43.0168 93.3948 51.8606 60.2123 91.371 56.269C109.114 54.4986 126.345 60.9279 138.654 73.9094C149.579 85.4313 154.604 100.099 152.442 114.152C152.19 115.794 150.637 116.919 149.013 116.667C147.372 116.415 146.246 114.879 146.499 113.238C148.376 101.036 143.926 88.2098 134.29 78.0473C123.27 66.4253 107.842 60.6684 91.9681 62.2532C56.649 65.7782 48.8017 95.0426 44.5967 110.822C44.3569 111.988 39.1515 138.286 47.4911 156.054C53.6313 169.136 65.2695 171.862 70.8626 173.173C73.523 173.796 74.9883 174.139 75.8888 175.575C77.9121 178.884 77.3992 188.871 75.557 191.77C74.9844 192.671 74.0105 193.164 73.016 193.164V193.164Z" fill="black"/>
<path d="M62.6853 131.359C65.284 131.359 67.3907 129.252 67.3907 126.654C67.3907 124.055 65.284 121.948 62.6853 121.948C60.0866 121.948 57.9799 124.055 57.9799 126.654C57.9799 129.252 60.0866 131.359 62.6853 131.359Z" fill="black"/>
<path d="M98.2951 138.164C100.894 138.164 103 136.057 103 133.459C103 130.86 100.894 128.753 98.2951 128.753C95.6964 128.753 93.5897 130.86 93.5897 133.459C93.5897 136.057 95.6964 138.164 98.2951 138.164Z" fill="black"/>
<path d="M111.546 170.71C110.718 170.71 109.894 170.37 109.3 169.703C108.195 168.463 108.306 166.562 109.546 165.457C118.193 157.757 119.412 149.295 119.424 149.211C119.531 148.411 119.956 147.68 120.602 147.196C121.246 146.712 122.057 146.498 122.858 146.62C122.946 146.633 132.396 147.956 137.652 143.031C140.443 140.417 141.645 136.318 141.225 130.849C140.195 124.85 135.644 123.359 132.035 123.913C130.39 124.164 128.859 123.039 128.607 121.397C128.355 119.756 129.482 118.221 131.123 117.969C137.74 116.954 145.601 120.282 147.18 130C147.193 130.079 147.202 130.159 147.209 130.24C147.814 137.707 145.972 143.497 141.736 147.447C136.426 152.397 128.825 152.921 124.758 152.791C123.663 156.562 120.794 163.493 113.545 169.949C112.973 170.459 112.258 170.71 111.547 170.71H111.546Z" fill="black"/>
<path d="M44.7718 160.34C43.6423 160.34 42.5597 159.7 42.0477 158.61C35.2586 144.145 36.4753 125.189 37.8055 115.177C38.0238 113.531 39.5351 112.374 41.1815 112.592C42.8279 112.811 43.9858 114.323 43.7666 115.969C42.7662 123.503 41.1257 142.492 47.492 156.054C48.1977 157.557 47.5507 159.348 46.0472 160.054C45.6342 160.248 45.1996 160.34 44.7718 160.34Z" fill="black"/>
<path d="M30.7014 139.748C21.9007 140.941 8.3711 137.265 6.6712 126.641C4.48665 112.987 21.3631 109.614 19.0504 100.244C17.4238 93.6543 -4.31782 88.4682 5.57892 70.0243C13.589 55.0965 29.2869 69.8387 36.5269 57.6451C43.4446 45.9941 24.8184 33.6781 40.5319 23.7844C60.193 11.4052 61.4673 33.0688 77.6694 28.8817C97.5919 23.7332 91.505 -0.245757 117.72 3.39518C143.934 7.03612 134.434 35.4628 145.755 40.8968C159.408 47.4505 171.059 30.5201 182.528 50.1812C193.997 69.8423 173.79 68.75 177.067 86.2265C180.344 103.703 196.546 94.6006 195.636 113.351C194.726 132.102 179.252 125.367 173.79 134.287C170.222 140.115 179.252 147.576 170.149 157.771C164.109 164.536 153.037 163.596 141.568 155.04L159.226 122.454L130.463 111.895C130.463 111.895 129.543 79.8708 91.8691 69.6602C52.9111 59.1015 44.1729 99.1518 44.1729 99.1518L32.886 98.7877L30.7014 139.748H30.7014Z" fill="black"/>
<path d="M159.645 165.262C153.583 165.263 146.639 162.633 139.757 157.441C134.536 153.502 132.608 151.125 132.404 150.867C131.379 149.562 131.606 147.671 132.911 146.645C134.218 145.619 136.107 145.846 137.134 147.152C137.136 147.155 138.801 149.186 143.379 152.64C153.295 160.12 162.924 161.35 167.906 155.769C172.39 150.748 171.534 146.825 170.629 142.672C169.951 139.568 169.185 136.051 171.226 132.717C173.918 128.32 178.344 126.944 182.247 125.729C188.011 123.937 192.175 122.642 192.633 113.206C193.01 105.418 190.076 103.952 185.633 101.734C181.044 99.4416 175.332 96.5891 174.084 86.5997C173.04 78.2561 176.59 72.6923 179.442 68.2218C183.209 62.3148 185.699 58.4125 178.529 49.3118C171.445 40.321 167.139 41.6983 161.175 43.6041C156.703 45.034 151.132 46.8143 144.455 43.6079C138.771 40.8799 137.31 34.4865 135.764 27.7176C133.585 18.1821 131.333 8.32191 117.306 6.37392C104.246 4.55948 101.186 9.53119 96.9541 16.4118C93.5419 21.959 89.6755 28.2464 80.2044 31.206C70.9349 34.1033 65.0639 30.0414 60.3469 26.7777C54.932 23.0302 51.0167 20.3242 42.217 26.2757C35.3623 30.9108 36.8031 35.1849 38.984 41.6546C40.7723 46.9587 42.7994 52.9706 39.1132 59.1806C34.7437 66.5389 27.7069 66.1614 22.0512 65.8581C15.5283 65.5084 11.3703 65.5915 8.22919 71.4464C2.99638 81.198 7.55673 85.7964 15.1123 91.6988C18.3865 94.2575 21.2153 96.4672 21.97 99.5241C23.4431 105.494 19.4211 109.544 15.8719 113.117C12.1876 116.827 8.70686 120.331 9.63969 126.166C11.0081 134.712 22.8323 137.538 30.3918 136.757C37.0841 136.067 39.5106 135.588 39.5341 135.583C41.1648 135.256 42.7466 136.308 43.0755 137.933C43.4044 139.559 42.359 141.143 40.7341 141.476C40.6294 141.497 38.0883 142.009 31.0095 142.74C20.8776 143.785 5.70479 139.631 3.70211 127.116C2.28574 118.262 7.45298 113.06 11.6052 108.879C14.9195 105.542 16.7636 103.529 16.1313 100.965C15.8748 99.9264 13.3984 97.9921 11.4094 96.4378C5.23887 91.6167 -5.08974 83.5478 2.92981 68.6029C8.03636 59.0849 15.9805 59.5102 22.3733 59.8528C28.1503 60.1628 31.5459 60.1426 33.942 56.1102C36.2188 52.2751 34.8592 48.2438 33.2852 43.5759C31.0202 36.8563 28.2002 28.4936 38.8479 21.2938C51.0617 13.0362 58.1083 17.9141 63.7689 21.8323C68.156 24.8674 71.949 27.4866 78.4112 25.4658C85.7328 23.1778 88.6948 18.3609 91.8319 13.2611C96.2131 6.13741 101.164 -1.93871 118.134 0.41714C136.271 2.93615 139.366 16.4851 141.626 26.3781C142.893 31.9237 143.988 36.7132 147.056 38.1863C151.579 40.3571 155.178 39.2075 159.345 37.8757C165.691 35.8474 173.587 33.3225 183.253 45.5899C193.066 58.0458 188.522 65.1703 184.511 71.456C181.82 75.6761 179.277 79.662 180.051 85.8538C180.9 92.6477 184.175 94.2829 188.321 96.3534C193.171 98.7759 199.207 101.791 198.639 113.498C197.977 127.135 189.918 129.642 184.034 131.472C180.724 132.501 177.865 133.39 176.355 135.857C175.612 137.071 175.911 138.67 176.505 141.391C177.523 146.064 178.918 152.464 172.391 159.774C169.113 163.446 164.683 165.262 159.645 165.262L159.645 165.262Z" fill="black"/>
<path d="M129.372 121.726C116.838 99.9965 95.0616 86.8602 74.3746 86.8602C56.0826 86.8602 51.0915 93.3264 43.0815 103.521C42.3533 91.1419 56.5529 63.1067 80.5831 63.4708C114.122 63.9789 132.284 91.506 129.372 121.726L129.372 121.726Z" fill="#82BE28"/>
<path d="M129.371 124.733C128.313 124.733 127.311 124.172 126.767 123.228C115.077 102.962 94.5116 89.8671 74.3742 89.8671C57.6333 89.8671 53.346 95.3238 45.5624 105.23L45.4449 105.379C44.6736 106.362 43.3678 106.763 42.1825 106.39C40.9893 106.017 40.1524 104.945 40.079 103.698C39.476 93.4419 46.7467 79.9725 53.8951 72.5059C61.4458 64.6181 70.5049 60.4603 80.1219 60.4603C80.2912 60.4603 80.4596 60.4616 80.6289 60.4641C96.158 60.6994 109.384 66.4336 118.879 77.0469C129.102 88.4764 134.018 104.866 132.365 122.014C132.24 123.316 131.287 124.387 130.009 124.664C129.796 124.71 129.582 124.733 129.371 124.733ZM74.3742 83.8532C93.7501 83.8532 113.399 94.68 126.568 112.07C125.887 100.128 121.641 89.1561 114.396 81.0564C106.051 71.7278 94.3433 66.6865 80.5369 66.4774C80.3999 66.4753 80.2609 66.4742 80.1238 66.4742C70.1124 66.4742 62.7085 71.9955 58.2392 76.6645C53.5467 81.5668 50.0806 87.5757 48.0711 93.0226C53.7561 87.4175 60.7352 83.8532 74.3742 83.8532H74.3742Z" fill="black"/>
</svg>
