<svg width="199" height="197" viewBox="0 0 199 197" fill="none" xmlns="http://www.w3.org/2000/svg">
<path d="M145.935 130.322C145.93 130.264 145.923 130.207 145.914 130.15C145.706 128.717 145.132 127.362 144.247 126.216C154.653 115.588 148.177 97.1439 144.611 89.8114C140.838 82.0531 133.326 70.5172 125.681 66.8767C118.036 63.2363 99.4702 53.7712 75.0793 63.9644C50.6883 74.1576 42.0936 107.494 41.7138 108.625C40.4624 112.856 39.5619 117.183 39.0212 121.562C38.218 125.439 37.9901 129.413 38.345 133.356C38.3496 140.632 39.904 147.823 42.9046 154.451C48.9788 167.085 69.0111 174.345 73.3324 176.147C73.3324 176.147 73.8961 188.467 72.2579 190.105C73.35 195.02 84.5444 196.931 84.5444 196.931C87.2502 197.184 89.9756 196.739 92.4609 195.64C94.9463 194.541 97.1087 192.823 98.742 190.651V176.727C98.742 176.727 109.76 171.66 116.196 164.673C120.871 160.158 124.161 152.79 124.901 151.043C126.086 151.209 127.281 151.292 128.478 151.291C131.992 151.291 136.92 150.577 140.714 147.229C144.795 143.628 146.552 137.94 145.935 130.322Z" fill="white"/>
<path d="M166.488 114.792L144.645 156.657L115.522 131.902L27.787 139.911V83.1208L149.741 87.4893L166.488 114.792Z" fill="#2D8C3C"/>
<path d="M145.935 130.322C145.93 130.264 145.923 130.207 145.914 130.15C140.275 120.617 130.605 122.105 129.718 120.617C130.97 119.338 128.92 112.26 129.718 110.788C135.55 100.025 147.748 96.2617 144.611 89.8114C140.838 82.0531 133.326 70.5172 125.681 66.8767C118.036 63.2363 99.4702 53.7712 75.0793 63.9644C50.6883 74.1576 42.0936 107.494 41.7138 108.625C40.4624 112.856 39.5619 117.183 39.0212 121.562C38.218 125.439 37.9901 129.413 38.345 133.356C38.3496 140.632 39.904 147.823 42.9046 154.451C48.9788 167.085 69.0111 174.345 73.3324 176.147C73.3324 176.147 73.8961 188.467 72.2579 190.105C73.35 195.02 84.5444 196.931 84.5444 196.931C87.2502 197.184 89.9756 196.739 92.4609 195.64C94.9463 194.541 97.1087 192.823 98.742 190.651V176.727C98.742 176.727 109.76 171.66 116.196 164.673C120.871 160.158 124.161 152.79 124.901 151.043C126.086 151.209 127.281 151.292 128.478 151.291C131.992 151.291 136.92 150.577 140.714 147.229C144.795 143.628 146.552 137.94 145.935 130.322Z" fill="white"/>
<path d="M62.6765 131.73C65.477 131.73 67.7472 129.46 67.7472 126.659C67.7472 123.859 65.477 121.588 62.6765 121.588C59.8761 121.588 57.6058 123.859 57.6058 126.659C57.6058 129.46 59.8761 131.73 62.6765 131.73Z" fill="black"/>
<path d="M98.3186 138.511C101.119 138.511 103.389 136.24 103.389 133.44C103.389 130.639 101.119 128.369 98.3186 128.369C95.5181 128.369 93.2478 130.639 93.2478 133.44C93.2478 136.24 95.5181 138.511 98.3186 138.511Z" fill="black"/>
<path d="M73.0072 193.137C72.4708 193.137 71.9444 192.993 71.4824 192.72C71.0205 192.448 70.6398 192.057 70.3799 191.588C70.12 191.118 69.9904 190.588 70.0044 190.052C70.0184 189.516 70.1756 188.993 70.4596 188.538C71.176 187.169 71.409 181.64 70.947 179.357C70.5125 179.244 69.9634 179.116 69.4829 179.003C63.4786 177.597 49.4187 174.303 42.0423 158.587C32.6489 138.574 38.6932 109.588 38.7647 109.32C43.0122 93.3819 51.8547 60.2041 91.3596 56.2612C100.065 55.3714 108.859 56.4997 117.058 59.5586C125.257 62.6175 132.641 67.5247 138.636 73.8992C149.56 85.4195 154.584 100.085 152.422 114.137C152.362 114.527 152.226 114.901 152.021 115.239C151.816 115.576 151.547 115.87 151.229 116.104C150.91 116.337 150.549 116.506 150.166 116.599C149.782 116.693 149.384 116.711 148.994 116.651C148.603 116.591 148.229 116.454 147.891 116.25C147.554 116.045 147.26 115.776 147.027 115.457C146.793 115.139 146.625 114.778 146.531 114.394C146.437 114.011 146.42 113.612 146.48 113.222C148.357 101.022 143.908 88.1977 134.272 78.0365C128.906 72.33 122.298 67.9369 114.959 65.1981C107.62 62.4594 99.7491 61.4487 91.9566 62.2446C56.6424 65.7691 48.7963 95.0309 44.5908 110.809C44.354 111.958 39.1356 138.241 47.4858 156.032C53.6252 169.112 65.2618 171.838 70.8541 173.149C73.5132 173.772 74.9783 174.115 75.8796 175.55C77.9026 178.859 77.3898 188.845 75.5479 191.743C75.2763 192.171 74.901 192.523 74.4568 192.767C74.0125 193.011 73.5139 193.138 73.0072 193.137Z" fill="black"/>
<path d="M62.6766 131.341C65.2749 131.341 67.3813 129.234 67.3813 126.636C67.3813 124.038 65.2749 121.931 62.6766 121.931C60.0782 121.931 57.9719 124.038 57.9719 126.636C57.9719 129.234 60.0782 131.341 62.6766 131.341Z" fill="black"/>
<path d="M98.2834 138.145C100.882 138.145 102.988 136.038 102.988 133.44C102.988 130.842 100.882 128.735 98.2834 128.735C95.685 128.735 93.5786 130.842 93.5786 133.44C93.5786 136.038 95.685 138.145 98.2834 138.145Z" fill="black"/>
<path d="M111.533 170.686C110.923 170.687 110.328 170.501 109.826 170.156C109.324 169.81 108.939 169.32 108.722 168.75C108.505 168.18 108.466 167.558 108.611 166.966C108.756 166.374 109.077 165.84 109.532 165.435C118.178 157.736 119.396 149.275 119.408 149.191C119.461 148.794 119.592 148.412 119.794 148.066C119.995 147.721 120.264 147.418 120.583 147.177C120.902 146.936 121.267 146.761 121.654 146.662C122.042 146.563 122.445 146.542 122.841 146.6C122.929 146.613 132.378 147.936 137.633 143.012C140.425 140.397 141.625 136.3 141.206 130.831C140.176 124.833 135.63 123.342 132.019 123.896C131.23 124.017 130.426 123.82 129.784 123.349C129.141 122.877 128.712 122.169 128.591 121.381C128.47 120.593 128.667 119.789 129.139 119.146C129.61 118.503 130.318 118.074 131.106 117.953C137.736 116.937 145.582 120.267 147.16 129.982C147.173 130.062 147.182 130.141 147.189 130.222C147.794 137.688 145.952 143.477 141.716 147.426C136.407 152.376 128.802 152.9 124.741 152.77C122.687 159.426 118.803 165.371 113.531 169.925C112.981 170.416 112.27 170.687 111.533 170.686Z" fill="black"/>
<path d="M44.7656 160.317C44.1942 160.317 43.6345 160.155 43.1521 159.849C42.6698 159.542 42.2847 159.105 42.0419 158.588C35.2537 144.125 36.4702 125.172 37.8002 115.161C37.8516 114.769 37.9797 114.391 38.1772 114.049C38.3748 113.707 38.6379 113.407 38.9516 113.166C39.2652 112.925 39.6232 112.749 40.005 112.647C40.3869 112.545 40.7851 112.519 41.177 112.571C41.5688 112.623 41.9465 112.752 42.2884 112.95C42.6304 113.149 42.93 113.412 43.1699 113.726C43.4099 114.04 43.5856 114.399 43.6869 114.781C43.7882 115.163 43.8132 115.561 43.7605 115.953C42.7603 123.486 41.12 142.472 47.4854 156.032C47.7001 156.49 47.7958 156.995 47.7636 157.5C47.7314 158.005 47.5723 158.494 47.3012 158.921C47.0301 159.348 46.6556 159.7 46.2124 159.944C45.7691 160.188 45.2716 160.316 44.7656 160.317V160.317Z" fill="black"/>
<path d="M30.6991 139.729C21.8996 140.922 8.37187 137.247 6.67222 126.624C4.48797 112.972 21.3621 109.599 19.0497 100.231C17.4233 93.6418 -4.31526 88.4564 5.58009 70.0151C13.589 55.0893 29.2849 69.8295 36.5237 57.6376C43.4406 45.9882 24.8169 33.6739 40.5282 23.7816C60.1865 11.4041 61.4607 33.0647 77.6606 28.8782C97.5802 23.7304 91.4942 -0.245234 117.705 3.3952C143.916 7.03563 134.417 35.4584 145.737 40.8916C159.388 47.4444 171.038 30.5164 182.505 50.1747C193.972 69.833 173.768 68.7409 177.044 86.215C180.321 103.689 196.521 94.588 195.61 113.336C194.7 132.084 179.229 125.35 173.768 134.269C170.2 140.096 179.229 147.556 170.127 157.749C164.088 164.514 153.017 163.574 141.55 155.019L159.206 122.437L130.447 111.88C130.447 111.88 129.527 79.8602 91.8582 69.651C52.9057 59.0938 44.1686 99.1385 44.1686 99.1385L32.8833 98.7744L30.6991 139.729Z" fill="#2D8C3C"/>
<path d="M159.674 165.195C153.617 165.195 146.661 162.584 139.752 157.429C139.112 156.952 138.689 156.241 138.574 155.452C138.459 154.663 138.663 153.86 139.14 153.221C139.616 152.582 140.328 152.158 141.117 152.044C141.906 151.929 142.708 152.132 143.347 152.609C153.314 160.044 162.945 161.279 167.883 155.747C172.366 150.727 171.51 146.805 170.605 142.652C169.929 139.549 169.162 136.032 171.203 132.699C173.894 128.302 178.319 126.926 182.223 125.712C187.985 123.92 192.149 122.625 192.607 113.19C192.985 105.403 190.05 103.938 185.608 101.72C181.019 99.4278 175.308 96.5756 174.061 86.5876C173.017 78.2453 176.566 72.6824 179.417 68.2125C183.184 62.3063 185.673 58.4045 178.504 49.3049C171.421 40.317 167.114 41.692 161.154 43.598C156.678 45.0281 151.112 46.807 144.435 43.602C138.752 40.8743 137.291 34.4819 135.745 27.7141C133.567 18.1798 131.314 8.32079 117.291 6.37307C104.228 4.55888 101.173 9.52994 96.9416 16.4096C93.5299 21.956 89.6641 28.2425 80.1942 31.2017C70.9299 34.0972 65.0548 30.0377 60.3395 26.774C54.9234 23.0274 51.0135 20.3205 42.2112 26.2721C35.3574 30.9064 36.798 35.1799 38.9795 41.6486C40.7676 46.9521 42.7945 52.9632 39.1087 59.1724C34.7408 66.5297 27.7069 66.1523 22.0482 65.849C15.5301 65.4995 11.3696 65.5822 8.22808 71.4366C2.996 81.1869 7.5567 85.7848 15.1102 91.6863C18.3849 94.2444 21.2134 96.4538 21.967 99.5099C23.4409 105.479 19.4194 109.529 15.8707 113.101C12.1859 116.811 8.70666 120.314 9.63935 126.149C10.9909 134.594 22.7108 137.777 30.2937 136.75C31.0838 136.643 31.8842 136.854 32.5187 137.337C33.1532 137.82 33.5699 138.535 33.6771 139.325C33.7843 140.115 33.5733 140.915 33.0903 141.55C32.6074 142.185 31.8922 142.601 31.1021 142.708C25.5536 143.391 19.9234 142.578 14.7951 140.352C8.56377 137.568 4.62454 132.861 3.7026 127.099C2.28546 118.246 7.45296 113.044 11.6046 108.864C14.9184 105.527 16.7623 103.515 16.13 100.951C15.8736 99.9128 13.3975 97.9788 11.4088 96.4249C5.23814 91.6043 -5.08906 83.5364 2.92939 68.5933C8.03817 59.075 15.992 59.5023 22.3701 59.8445C28.1591 60.1549 31.5444 60.1332 33.9383 56.1024C36.2147 52.2678 34.8553 48.2371 33.2816 43.5699C31.0159 36.8512 28.1963 28.4897 38.8425 21.2909C51.0537 13.0357 58.0993 17.9112 63.761 21.8293C68.1446 24.8633 71.9331 27.4839 78.4013 25.4623C85.7219 23.1746 88.6834 18.3584 91.8201 13.2593C96.2007 6.13657 101.156 -1.93844 118.119 0.417081C136.252 2.93575 139.347 16.483 141.607 26.3748C142.874 31.9195 143.968 36.7082 147.036 38.181C151.559 40.3521 155.157 39.2019 159.322 37.8704C165.67 35.8421 173.564 33.3195 183.227 45.5836C193.039 58.0377 188.495 65.1613 184.487 71.4462C181.795 75.6656 179.253 79.651 180.027 85.8418C180.876 92.6348 184.15 94.27 188.295 96.3401C193.145 98.7621 199.181 101.777 198.612 113.482C197.95 127.117 189.893 129.624 184.009 131.453C180.699 132.483 177.841 133.372 176.331 135.838C175.588 137.052 175.887 138.651 176.48 141.371C177.499 146.044 178.894 152.443 172.369 159.752C170.774 161.524 168.812 162.929 166.62 163.869C164.428 164.808 162.058 165.261 159.674 165.195Z" fill="black"/>
<path d="M129.354 121.709C116.822 99.9826 95.0484 86.8481 74.3642 86.8481C56.0749 86.8481 51.0844 93.3135 43.0755 103.507C42.3474 91.1292 56.5451 63.0979 80.5719 63.4619C114.106 63.97 132.266 91.4932 129.354 121.709Z" fill="#82BE28"/>
<path d="M129.355 124.715C128.827 124.715 128.308 124.576 127.851 124.312C127.394 124.048 127.015 123.668 126.751 123.211C115.063 102.948 94.5004 89.8546 74.3658 89.8546C57.6262 89.8546 53.3396 95.3108 45.557 105.216L45.4415 105.364C45.0645 105.844 44.5504 106.198 43.9675 106.378C43.3847 106.559 42.7606 106.558 42.1783 106.376C41.596 106.193 41.083 105.838 40.7073 105.357C40.3317 104.876 40.1113 104.292 40.0753 103.683C39.4725 93.4289 46.7422 79.9614 53.8896 72.4958C61.4392 64.6092 70.497 60.4519 80.1127 60.4519C80.282 60.4519 80.4503 60.4531 80.6196 60.4557C96.1456 60.6909 109.371 66.4241 118.862 77.0353C129.085 88.4631 134 104.851 132.348 121.997C132.276 122.741 131.93 123.432 131.376 123.934C130.823 124.437 130.102 124.715 129.355 124.715H129.355ZM74.3658 83.8415C93.739 83.8415 113.385 94.6665 126.553 112.054C125.87 100.114 121.625 89.1429 114.381 81.0444C106.037 71.7176 94.3311 66.6772 80.5276 66.4682C80.3906 66.4661 80.2516 66.465 80.1146 66.465C70.1046 66.465 62.7017 71.9856 58.233 76.6539C53.7873 81.3727 50.3309 86.9335 48.0674 93.0087C53.7506 87.4048 60.7287 83.8415 74.3658 83.8415V83.8415Z" fill="black"/>
</svg>
