<svg width="181" height="170" viewBox="0 0 181 170" fill="none" xmlns="http://www.w3.org/2000/svg">
<path d="M40.0826 152.4C42.2686 148.361 47.7426 146.164 53.2619 147.141C60.8867 148.491 69.0329 149.706 68.5895 134.187C68.1461 118.669 33.8373 87.9192 30.7868 95.268C27.7363 102.617 38.6172 155.108 40.0826 152.4H40.0826Z" fill="black"/>
<path d="M141.034 103.463C141.03 103.405 141.022 103.348 141.014 103.291C140.68 101.235 140.236 100.85 139.35 99.3659C149.733 88.7616 143.272 70.3573 139.713 63.0408C135.949 55.2994 128.453 43.7885 120.824 40.156C113.196 36.5235 94.6704 27.079 70.3326 37.25C45.9948 47.421 37.4186 80.6848 37.0398 81.813C37.001 81.9273 35.3296 87.1861 34.353 94.7225C33.5446 98.4808 33.3433 102.459 33.6783 106.491C33.819 113.375 34.9922 120.809 38.228 127.54C44.289 140.146 64.2777 147.391 68.5896 149.188C68.5896 149.188 69.152 161.482 67.5174 163.116C68.6072 168.02 79.7771 169.927 79.7771 169.927C89.4571 170.564 93.9439 163.661 93.9439 163.661V149.767C93.9439 149.767 97.2605 148.242 101.314 145.712C104.641 143.635 108.465 140.882 111.359 137.739C116.025 133.234 119.308 125.882 120.046 124.139C120.828 124.251 122.085 124.386 123.615 124.386C127.121 124.386 132.038 123.674 135.824 120.333C139.897 116.74 141.649 111.065 141.034 103.463V103.463Z" fill="white"/>
<path d="M57.9562 104.868C60.7505 104.868 63.0158 102.603 63.0158 99.8082C63.0158 97.0138 60.7505 94.7485 57.9562 94.7485C55.1618 94.7485 52.8965 97.0138 52.8965 99.8082C52.8965 102.603 55.1618 104.868 57.9562 104.868Z" fill="black"/>
<path d="M93.5187 111.634C96.313 111.634 98.5783 109.369 98.5783 106.574C98.5783 103.78 96.313 101.515 93.5187 101.515C90.7243 101.515 88.459 103.78 88.459 106.574C88.459 109.369 90.7243 111.634 93.5187 111.634Z" fill="black"/>
<path d="M68.2639 166.142C67.7141 166.142 67.1575 165.991 66.6585 165.674C65.2669 164.79 64.8499 162.95 65.722 161.554C66.4358 160.188 66.6682 154.67 66.2073 152.392C65.7737 152.279 65.2268 152.151 64.7473 152.039C58.7561 150.635 44.7259 147.349 37.3655 131.667C27.885 111.468 34.0218 82.7862 34.093 82.5168C38.3333 66.6039 47.1565 33.4981 86.5764 29.5638C88.2376 29.3997 89.6956 30.6023 89.8596 32.2511C90.0237 33.8997 88.8206 35.3696 87.1721 35.5342C51.9339 39.0511 44.1048 68.2478 39.9094 83.9912C39.6702 85.1543 34.4768 111.391 42.7971 129.118C48.9231 142.169 60.5354 144.89 66.1155 146.197C68.7688 146.818 70.2307 147.161 71.1302 148.593C73.1477 151.895 72.636 161.858 70.7991 164.75C70.2278 165.65 69.2561 166.142 68.2639 166.142Z" fill="black"/>
<path d="M40.0833 133.393C38.9563 133.393 37.8762 132.755 37.3655 131.667C30.593 117.236 31.8069 98.3241 33.1341 88.3354C33.3509 86.6927 34.8616 85.5381 36.5022 85.7565C38.1448 85.9746 39.3001 87.4829 39.0813 89.1254C38.0833 96.6422 36.4465 115.587 42.7971 129.118C43.5012 130.618 42.8557 132.404 41.3557 133.108C40.9436 133.302 40.51 133.393 40.0833 133.393L40.0833 133.393Z" fill="black"/>
<path d="M107.429 109.561C94.1754 142.595 102.442 147.573 107.274 152.073C110.821 155.376 115.043 153.937 117.007 152.378C121.308 148.961 126.24 149.973 129.743 152.073C133.246 154.174 138.618 156.029 142.282 154.224C146.648 152.073 146.306 148.397 148.186 146.796C153.074 142.632 155.692 145.928 164.052 138.072C166.331 135.929 170.375 128.769 159.891 121.562C149.791 114.619 152.216 112.05 152.696 99.8043C160.719 91.8878 156.44 79.606 150.51 69.4079C146.269 48.9044 136.89 36.0571 128.665 28.9277C117.048 18.8594 95.6219 13.8009 81.1549 17.8284C79.107 18.3985 75.1659 16.9427 65.5944 17.6365C52.5517 18.5818 41.6608 20.9174 26.9253 41.9897C23.4842 51.2136 23.4833 61.6795 20.1871 64.3384C10.8029 71.9081 9.38061 87.0151 19.4759 101.437C20.2269 116.757 16.8765 117.553 11.8153 122.481C6.75421 127.408 2.031 127.273 4.13364 134.345C4.95703 137.115 8.05656 149.003 18.3948 147.981C24.6385 147.364 27.8989 153.838 33.5225 153.333C38.8658 152.852 41.1334 149.707 42.0656 146.256C43.5402 140.797 37.6121 135.95 35.3708 127.32C32.2885 115.452 32.7522 109.519 33.4082 96.0387C34.2191 79.378 36.9711 70.6857 45.5893 62.7729C53.6503 55.3716 70.8699 55.3515 73.1528 55.4931C89.1448 56.4849 108.735 72.167 110.565 87.6151C111.424 94.8693 110.799 101.161 107.429 109.561Z" fill="black"/>
<path d="M107.275 155.074C106.543 155.074 105.809 154.808 105.231 154.269L104.846 153.912C98.2786 147.844 94.6106 141.105 107.294 109.491C107.91 107.953 109.659 107.207 111.196 107.824C112.733 108.441 113.48 110.187 112.863 111.725C100.739 141.947 105.083 145.963 108.918 149.506L109.321 149.879C110.532 151.008 110.6 152.906 109.471 154.119C108.88 154.753 108.078 155.074 107.275 155.074L107.275 155.074Z" fill="black"/>
<path d="M32.7427 156.205C27.8951 156.206 24.6744 153.097 22.5201 151.018C20.7398 149.301 19.8169 148.516 19.1294 148.733C12.314 150.854 4.28666 147.223 1.2183 140.64C-0.0375552 137.946 -3.10299 128.491 10.1968 119.956C12.6265 118.396 14.2447 116.455 15.7818 113.254C18.6792 107.216 17.4048 99.7771 12.5347 94.3022C9.78959 91.2166 8.58354 87.1204 9.04838 82.4563C9.70756 75.8424 13.7261 68.8646 19.2867 64.6794C20.6099 63.6831 22.4917 63.9484 23.4869 65.2723C24.4839 66.5962 24.2183 68.477 22.8941 69.4734C18.6763 72.6479 15.5113 78.1044 15.0191 83.051C14.814 85.1093 14.9947 88.0402 17.0171 90.3142C23.5005 97.6017 25.1392 107.625 21.19 115.851C19.1578 120.085 16.8394 122.822 13.4371 125.006C7.13335 129.051 4.66167 133.826 6.65679 138.105C8.47222 142 13.3697 144.244 17.3443 143.004C21.5152 141.706 24.3804 144.476 26.6871 146.701C29.8121 149.717 31.7925 151.328 36.148 149.344C37.6548 148.657 39.4341 149.322 40.1226 150.83C40.8091 152.338 40.1431 154.117 38.6363 154.804C36.4439 155.802 34.4878 156.205 32.7427 156.205L32.7427 156.205Z" fill="black"/>
<path d="M138.847 157.943C135.147 157.943 131.206 156.448 128.201 154.646C126.239 153.47 122.417 151.913 118.874 154.727C115.453 157.442 109.727 158.456 105.23 154.269C104.018 153.14 103.951 151.241 105.08 150.029C106.208 148.817 108.105 148.748 109.32 149.878C112.055 152.424 115.018 150.127 115.141 150.028C119.726 146.387 125.762 146.188 131.286 149.5C134.283 151.298 138.59 152.699 140.958 151.533C142.742 150.654 143.265 149.486 143.928 148.008C144.445 146.852 145.032 145.542 146.241 144.512C148.79 142.341 150.978 141.753 152.909 141.234C155.248 140.606 157.666 139.956 161.998 135.886C162.722 135.205 163.905 133.485 163.743 131.357C163.558 128.936 161.639 126.404 158.192 124.034C151.836 119.665 151.431 115.943 150.345 105.997C150.165 104.35 151.354 102.869 153.002 102.689C154.65 102.508 156.129 103.699 156.309 105.346C157.413 115.461 157.808 116.489 161.591 119.09C166.657 122.572 169.394 126.546 169.725 130.901C170.038 134.999 168.061 138.421 166.107 140.258C160.678 145.36 157.233 146.285 154.466 147.029C152.771 147.484 151.651 147.785 150.132 149.079C149.954 149.231 149.636 149.942 149.403 150.461C148.579 152.3 147.334 155.08 143.609 156.915C142.143 157.637 140.519 157.943 138.847 157.943L138.847 157.943Z" fill="black"/>
<path d="M149.049 107.538C147.817 107.538 146.662 106.773 146.224 105.546C145.666 103.986 146.48 102.269 148.04 101.712C151.913 100.328 154.531 97.8314 155.819 94.2902C157.914 88.5264 156.127 81.2252 153.58 76.8804C149.361 69.6822 146.16 63.1333 143.797 56.8596C138.784 43.5496 131.734 35.5565 126.701 31.1949C115.846 21.787 95.3577 16.9895 81.9602 20.7186C80.6165 21.0933 79.2346 20.9198 77.4866 20.6997C75.1253 20.4024 71.554 19.9528 65.9475 20.6159C52.1975 22.2425 40.7444 30.2547 32.8255 43.7866C31.9876 45.2168 30.1477 45.6975 28.7219 44.8607C27.2913 44.0239 26.8108 42.1864 27.6477 40.7563C36.552 25.5383 49.552 16.5135 65.2424 14.6574C71.5784 13.9084 75.5852 14.4129 78.2366 14.7467C79.0608 14.8505 80.095 14.9798 80.3889 14.9294C95.6897 10.6688 118.246 15.9266 130.631 26.6609C136.188 31.477 143.956 40.2586 149.412 54.7448C151.654 60.6965 154.71 66.9445 158.756 73.846C162.099 79.5476 164.231 88.7142 161.457 96.3407C159.557 101.566 155.615 105.378 150.058 107.362C149.725 107.481 149.384 107.538 149.049 107.538V107.538Z" fill="black"/>
<path d="M108.266 46.8933C89.6187 37.0295 66.539 36.4582 49.4408 51.5463C42.4992 57.8432 31.6802 64.5812 31.1992 72.9114C32.0706 74.6293 41.2887 79.9945 44.6448 79.5475C45.3153 72.2445 46.6991 71.6241 49.2787 68.5799C52.2106 65.1199 55.1616 65.6384 55.897 68.6849C57.4617 75.1675 64.6101 82.9596 70.8594 83.7689C77.1088 84.5781 89.3266 72.5374 95.6025 73.9676C101.878 75.398 101.363 87.622 108.353 88.8261C112.569 89.5522 123.246 81.1687 123.246 81.1687C123.246 81.1687 123.392 81.1444 123.465 81.1296C125.084 67.45 120.666 53.1885 108.266 46.8933Z" fill="black"/>
<path d="M110.987 92.6724C109.15 92.6725 107.263 92.367 105.367 91.671C100.186 89.769 98.8657 85.8787 97.9019 83.0382C96.9146 80.1296 96.4194 78.6697 92.8159 78.0375C90.355 77.5601 88.3208 79.0213 85.2075 81.4445C81.5669 84.2772 77.0386 87.8033 70.3843 86.7309C63.2661 85.5845 54.8374 80.7604 55.1079 64.2894C55.1362 62.6329 56.4565 61.321 58.1577 61.3391C59.814 61.3664 61.1343 62.7314 61.1079 64.388C60.8901 77.5933 66.8423 80.0832 71.3374 80.8073C75.4204 81.4643 78.2437 79.2602 81.522 76.7097C84.8843 74.093 88.6948 71.1258 93.9058 72.1376C100.958 73.3745 102.475 77.8453 103.583 81.1098C104.503 83.8214 105.051 85.1636 107.435 86.0384C112.606 87.9387 117.935 85.2255 121.194 82.0526C122.38 80.8968 124.279 80.9215 125.436 82.1085C126.591 83.2954 126.567 85.1946 125.379 86.3507C121.925 89.7158 116.7 92.6719 110.987 92.6724L110.987 92.6724Z" fill="black"/>
<path d="M41.6644 82.6155C41.6068 82.6155 41.5492 82.6138 41.4906 82.6105C36.1038 82.303 32.265 80.3439 30.0784 76.7874C25.8909 69.9758 29.8968 60.322 30.3665 59.2436C31.0286 57.7252 32.7952 57.0306 34.3167 57.6937C35.8333 58.3554 36.5277 60.1202 35.8685 61.6376C34.9427 63.7835 33.016 70.1253 35.1956 73.654C36.3099 75.4587 38.4808 76.429 41.8324 76.6203C43.4867 76.7147 44.7513 78.1323 44.6566 79.7864C44.5658 81.3823 43.2425 82.6154 41.6644 82.6155L41.6644 82.6155Z" fill="black"/>
</svg>
