<svg width="181" height="170" viewBox="0 0 181 170" fill="none" xmlns="http://www.w3.org/2000/svg">
<path d="M40.0826 152.3C42.2686 148.26 47.7426 146.063 53.2619 147.04C60.8867 148.391 69.0329 149.605 68.5895 134.087C68.1461 118.568 33.8373 87.8186 30.7868 95.1674C27.7363 102.516 38.6172 155.008 40.0826 152.3Z" fill="#2D8C3C"/>
<path d="M141.033 103.463C141.029 103.405 141.021 103.349 141.013 103.292C140.805 101.862 140.232 100.51 139.349 99.3663C149.732 88.7621 143.271 70.3578 139.713 63.0413C135.948 55.2998 128.452 43.789 120.824 40.1565C113.196 36.524 94.6697 27.0795 70.3319 37.2505C45.994 47.4215 37.4179 80.6853 37.039 81.8135C35.7904 86.0356 34.8918 90.3533 34.3523 94.723C33.5508 98.5913 33.3235 102.557 33.6775 106.491C33.6822 113.751 35.2332 120.926 38.2272 127.54C44.2882 140.146 64.277 147.391 68.5888 149.189C68.5888 149.189 69.1513 161.482 67.5167 163.117C68.6064 168.021 79.7764 169.928 79.7764 169.928C82.4763 170.18 85.1958 169.736 87.6757 168.64C90.1556 167.543 92.3133 165.829 93.9432 163.662V149.767C96.4752 148.557 98.9361 147.203 101.314 145.712C104.991 143.498 108.368 140.819 111.359 137.74C116.024 133.235 119.307 125.883 120.045 124.14C121.227 124.305 122.42 124.388 123.614 124.387C127.121 124.387 132.038 123.674 135.823 120.334C139.896 116.741 141.649 111.065 141.033 103.463Z" fill="white"/>
<path d="M57.9542 104.868C60.7486 104.868 63.0139 102.603 63.0139 99.8087C63.0139 97.0143 60.7486 94.749 57.9542 94.749C55.1598 94.749 52.8945 97.0143 52.8945 99.8087C52.8945 102.603 55.1598 104.868 57.9542 104.868Z" fill="black"/>
<path d="M93.5187 111.634C96.313 111.634 98.5783 109.369 98.5783 106.575C98.5783 103.78 96.313 101.515 93.5187 101.515C90.7243 101.515 88.459 103.78 88.459 106.575C88.459 109.369 90.7243 111.634 93.5187 111.634Z" fill="black"/>
<path d="M68.2639 166.143C67.7289 166.142 67.2037 165.998 66.7428 165.727C66.2819 165.455 65.9022 165.064 65.6429 164.596C65.3836 164.128 65.2542 163.599 65.2681 163.065C65.282 162.53 65.4387 162.008 65.7219 161.554C66.4358 160.189 66.6682 154.67 66.2073 152.392C65.7737 152.28 65.2258 152.151 64.7464 152.039C58.7551 150.636 44.7258 147.349 37.3655 131.668C27.885 111.468 34.0218 82.7867 34.093 82.5173C38.3333 66.6042 47.1565 33.4986 86.5755 29.5643C86.9679 29.5243 87.3645 29.5621 87.7423 29.6755C88.1202 29.7889 88.472 29.9758 88.7775 30.2253C89.0831 30.4749 89.3364 30.7822 89.523 31.1298C89.7096 31.4774 89.8258 31.8584 89.865 32.251C89.9042 32.6435 89.8655 33.04 89.7513 33.4176C89.637 33.7952 89.4494 34.1466 89.1992 34.4516C88.949 34.7566 88.641 35.0092 88.2931 35.1951C87.9451 35.3809 87.5638 35.4963 87.1712 35.5346C51.9339 39.0515 44.1048 68.2483 39.9095 83.9917C39.6702 85.1548 34.4768 111.391 42.7971 129.118C48.9231 142.17 60.5345 144.89 66.1145 146.197C68.7688 146.819 70.2307 147.161 71.1292 148.594C73.1468 151.894 72.636 161.858 70.7991 164.75C70.5283 165.178 70.1538 165.529 69.7105 165.773C69.2673 166.016 68.7696 166.143 68.2639 166.143Z" fill="black"/>
<path d="M40.0833 133.394C39.5131 133.394 38.9546 133.232 38.4733 132.926C37.9919 132.62 37.6077 132.184 37.3655 131.667C30.593 117.236 31.8069 98.3245 33.1341 88.3357C33.1859 87.9452 33.3142 87.5687 33.5116 87.2278C33.7089 86.8869 33.9715 86.5882 34.2843 86.3487C34.5971 86.1093 34.954 85.9338 35.3347 85.8323C35.7153 85.7308 36.1122 85.7052 36.5027 85.7571C36.8932 85.8089 37.2697 85.9372 37.6106 86.1346C37.9515 86.332 38.2502 86.5945 38.4897 86.9073C38.7291 87.2201 38.9046 87.5771 39.0061 87.9577C39.1076 88.3383 39.1332 88.7352 39.0813 89.1257C38.0833 96.6426 36.4466 115.587 42.7971 129.118C43.0114 129.575 43.1069 130.079 43.0748 130.583C43.0426 131.087 42.884 131.574 42.6134 132.001C42.3428 132.427 41.9691 132.778 41.5269 133.021C41.0846 133.265 40.5881 133.393 40.0833 133.394V133.394Z" fill="black"/>
<path d="M107.429 109.562C94.1754 142.596 102.442 147.574 107.274 152.074C108.584 153.297 110.293 154.002 112.083 154.058C113.874 154.114 115.624 153.517 117.007 152.378C121.308 148.962 126.24 149.974 129.743 152.074C133.246 154.175 138.618 156.03 142.282 154.225C146.648 152.074 146.306 148.398 148.186 146.797C153.074 142.633 155.692 145.929 164.052 138.073C166.331 135.93 170.375 128.77 159.891 121.563C149.791 114.62 152.216 112.051 152.696 99.8053C160.719 91.8888 156.44 79.6069 150.51 69.4089C146.269 48.9054 136.89 36.058 128.665 28.9287C117.048 18.8603 95.6219 13.8019 81.1549 17.8293C79.107 18.3994 75.1659 16.9437 65.5944 17.6375C52.5517 18.5828 41.6608 20.9183 26.9253 41.9907C23.4842 51.2146 23.4833 61.6805 20.1871 64.3394C10.8029 71.9091 9.38061 87.0161 19.4759 101.438C20.2269 116.758 16.8764 117.554 11.8153 122.482C6.75421 127.409 2.031 127.274 4.13364 134.346C4.95703 137.116 8.05656 149.004 18.3948 147.982C24.6385 147.364 27.8989 153.839 33.5225 153.334C38.8658 152.853 41.1334 149.708 42.0656 146.257C43.5401 140.798 37.6121 135.951 35.3708 127.321C32.2885 115.453 32.7522 109.52 33.4082 96.0396C34.2191 79.379 36.9711 70.6866 45.5892 62.7739C53.6502 55.3726 70.8698 55.3525 73.1528 55.4941C89.1448 56.4859 108.735 72.168 110.565 87.6161C111.424 94.8703 110.799 101.162 107.429 109.562Z" fill="#2D8C3C"/>
<path d="M107.275 155.074C106.516 155.075 105.785 154.787 105.231 154.27L104.846 153.913C98.2786 147.844 94.6106 141.106 107.294 109.491C107.44 109.125 107.657 108.791 107.933 108.509C108.208 108.226 108.537 108.001 108.899 107.846C109.262 107.691 109.651 107.608 110.046 107.604C110.44 107.599 110.831 107.672 111.197 107.819C111.563 107.966 111.897 108.184 112.179 108.46C112.461 108.735 112.685 109.064 112.84 109.427C112.995 109.79 113.076 110.18 113.08 110.574C113.084 110.968 113.01 111.36 112.863 111.725C100.738 141.947 105.083 145.963 108.918 149.506L109.321 149.879C109.761 150.29 110.068 150.824 110.202 151.411C110.335 151.999 110.288 152.613 110.067 153.173C109.846 153.734 109.462 154.215 108.964 154.554C108.466 154.893 107.877 155.074 107.275 155.074V155.074Z" fill="black"/>
<path d="M32.7427 156.206C27.8951 156.206 24.6744 153.098 22.5201 151.019C20.7408 149.301 19.8199 148.517 19.1294 148.733C12.316 150.854 4.28666 147.223 1.2183 140.641C-0.0375582 137.946 -3.10298 128.491 10.1968 119.957C12.6859 118.33 14.6311 115.996 15.7818 113.255C18.6793 107.217 17.4049 99.7777 12.5348 94.3028C11.1496 92.6869 10.1228 90.7958 9.52182 88.7541C8.92089 86.7124 8.75954 84.5665 9.04842 82.4578C9.49904 78.966 10.6356 75.5977 12.3926 72.5467C14.1497 69.4958 16.4926 66.8222 19.2867 64.68C19.9224 64.2016 20.7221 63.9954 21.5099 64.1066C22.2977 64.2179 23.009 64.6375 23.4874 65.2733C23.9657 65.909 24.172 66.7087 24.0607 67.4965C23.9495 68.2843 23.5298 68.9956 22.8941 69.4739C18.5917 72.7938 15.7637 77.6692 15.0181 83.0522C14.8317 84.3351 14.9131 85.6428 15.2572 86.8927C15.6012 88.1427 16.2005 89.3078 17.0171 90.3146C23.5005 97.6022 25.1392 107.626 21.19 115.852C19.5688 119.603 16.8706 122.789 13.4371 125.006C7.13336 129.052 4.66168 133.826 6.6568 138.106C7.60416 140.026 9.18393 141.561 11.1304 142.454C13.0768 143.346 15.2712 143.541 17.3443 143.005C21.5142 141.706 24.3814 144.477 26.6871 146.701C29.8121 149.718 31.7955 151.328 36.148 149.344C36.5065 149.181 36.8937 149.09 37.2874 149.076C37.6812 149.062 38.0737 149.126 38.4427 149.264C38.8117 149.402 39.1499 149.612 39.438 149.881C39.7261 150.149 39.9584 150.472 40.1218 150.831C40.2851 151.189 40.3762 151.576 40.3899 151.97C40.4036 152.364 40.3396 152.756 40.2015 153.125C40.0635 153.494 39.8541 153.833 39.5854 154.121C39.3167 154.409 38.9938 154.641 38.6353 154.804C36.7952 155.691 34.785 156.169 32.7427 156.206Z" fill="black"/>
<path d="M138.847 157.943C135.073 157.783 131.405 156.648 128.201 154.647C126.237 153.469 122.412 151.915 118.873 154.727C116.935 156.329 114.478 157.167 111.965 157.083C109.452 156.998 107.057 155.998 105.231 154.269C104.942 154.001 104.71 153.678 104.546 153.32C104.383 152.961 104.291 152.574 104.277 152.18C104.263 151.787 104.327 151.394 104.465 151.025C104.603 150.656 104.812 150.317 105.08 150.029C105.349 149.741 105.671 149.508 106.03 149.345C106.388 149.181 106.775 149.09 107.169 149.076C107.563 149.062 107.956 149.126 108.325 149.263C108.694 149.401 109.032 149.61 109.32 149.879C112.053 152.425 115.015 150.128 115.141 150.029C119.727 146.387 125.762 146.189 131.286 149.501C134.282 151.298 138.589 152.7 140.956 151.534C141.662 151.175 142.289 150.678 142.8 150.072C143.31 149.467 143.694 148.765 143.928 148.008C144.419 146.68 145.211 145.483 146.241 144.513C148.158 142.885 150.45 141.758 152.909 141.235C155.248 140.607 157.666 139.957 161.998 135.886C162.591 135.297 163.053 134.588 163.354 133.808C163.655 133.028 163.788 132.193 163.743 131.357C163.559 128.937 161.64 126.404 158.193 124.035C151.836 119.665 151.431 115.944 150.345 105.997C150.259 105.206 150.49 104.414 150.988 103.793C151.487 103.173 152.211 102.776 153.002 102.69C153.793 102.603 154.586 102.835 155.206 103.333C155.826 103.831 156.223 104.556 156.31 105.347C157.413 115.462 157.809 116.49 161.591 119.09C166.657 122.573 169.395 126.547 169.726 130.901C169.84 132.63 169.575 134.364 168.951 135.98C168.326 137.596 167.355 139.056 166.108 140.258C160.678 145.361 157.234 146.286 154.466 147.029C152.868 147.324 151.374 148.031 150.132 149.08C149.834 149.509 149.59 149.973 149.404 150.461C148.37 153.276 146.295 155.586 143.608 156.916C142.121 157.62 140.492 157.972 138.847 157.943Z" fill="black"/>
<path d="M149.048 107.538C148.342 107.538 147.658 107.289 147.117 106.833C146.576 106.378 146.213 105.746 146.093 105.05C145.972 104.353 146.101 103.637 146.458 103.026C146.814 102.416 147.374 101.95 148.04 101.712C149.819 101.156 151.447 100.197 152.795 98.91C154.144 97.6229 155.179 96.0423 155.818 94.2909C157.914 88.5271 156.127 81.2258 153.58 76.8811C149.755 70.4977 146.482 63.7997 143.797 56.8598C138.783 43.5494 131.732 35.5568 126.7 31.1956C115.845 21.7873 95.3551 16.9898 81.9596 20.7192C80.482 21.0108 78.9611 21.0044 77.486 20.7003C73.6606 20.1577 69.7798 20.1296 65.9469 20.6165C52.1969 22.243 40.7438 30.2553 32.8248 43.7872C32.6259 44.1272 32.3619 44.4246 32.048 44.6626C31.734 44.9005 31.3763 45.0743 30.9952 45.174C30.6141 45.2737 30.2171 45.2974 29.8269 45.2437C29.4366 45.1899 29.0608 45.0599 28.7208 44.8609C28.3808 44.6619 28.0834 44.3979 27.8454 44.084C27.6075 43.7701 27.4337 43.4124 27.334 43.0313C27.2343 42.6502 27.2106 42.2532 27.2644 41.8629C27.3181 41.4727 27.4481 41.0968 27.6471 40.7569C36.5514 25.5389 49.5514 16.5141 65.2418 14.658C69.5578 14.1076 73.928 14.1376 78.236 14.7473C78.9475 14.8644 79.6672 14.9255 80.3883 14.93C95.694 10.6678 118.246 15.9279 130.63 26.6615C136.186 31.4769 143.955 40.2582 149.412 54.7454C151.978 61.3663 155.104 67.7565 158.756 73.8466C162.098 79.5481 164.23 88.7148 161.457 96.3412C160.517 98.9226 159.002 101.256 157.027 103.166C155.052 105.075 152.669 106.511 150.057 107.363C149.734 107.479 149.392 107.538 149.048 107.538Z" fill="black"/>
<path d="M108.266 46.8938C89.6187 37.03 66.539 36.4587 49.4408 51.5468C42.4992 57.8437 31.6802 64.5817 31.1992 72.9119C32.0706 74.6298 41.2887 79.995 44.6448 79.548C45.3153 72.245 46.6991 71.6246 49.2787 68.5804C52.2106 65.1204 55.1616 65.6389 55.897 68.6854C57.4617 75.1679 64.6101 82.9601 70.8595 83.7694C77.1088 84.5786 89.3267 72.5379 95.6025 73.968C101.879 75.3984 101.363 87.6225 108.353 88.8266C112.569 89.5527 123.245 81.1691 123.245 81.1691C123.245 81.1691 123.392 81.1448 123.465 81.13C125.084 67.4505 120.666 53.189 108.266 46.8938Z" fill="#2D8C3C"/>
<path d="M110.987 92.673C109.069 92.6743 107.166 92.3352 105.367 91.6716C100.186 89.7696 98.8657 85.8793 97.9018 83.0388C96.9145 80.1302 96.4194 78.6704 92.8159 78.0382C90.3501 77.5607 88.3207 79.0219 85.2075 81.4452C81.5678 84.2778 77.0385 87.8039 70.3842 86.7315C63.2661 85.5852 54.8374 80.7611 55.1079 64.29C55.121 63.5032 55.4427 62.753 56.0037 62.2011C56.5647 61.6492 57.32 61.3397 58.1069 61.3394L58.1577 61.3397C58.9532 61.353 59.7108 61.6817 60.264 62.2535C60.8172 62.8252 61.1208 63.5932 61.1079 64.3887C60.8901 77.594 66.8423 80.0839 71.3374 80.808C75.4165 81.465 78.2436 79.2609 81.522 76.7104C84.8843 74.0937 88.6919 71.1265 93.9057 72.1384C100.957 73.3752 102.475 77.846 103.583 81.1105C104.503 83.8221 105.051 85.1644 107.435 86.0391C112.607 87.9394 117.935 85.2263 121.194 82.0533C121.476 81.7785 121.81 81.5619 122.176 81.416C122.541 81.2701 122.932 81.1977 123.326 81.2029C123.72 81.2081 124.109 81.2909 124.471 81.4465C124.833 81.602 125.161 81.8273 125.436 82.1096C125.71 82.3918 125.927 82.7254 126.073 83.0913C126.219 83.4572 126.291 83.8482 126.286 84.2421C126.281 84.636 126.198 85.025 126.042 85.3869C125.887 85.7488 125.662 86.0766 125.379 86.3514C121.925 89.7164 116.7 92.6726 110.987 92.673Z" fill="black"/>
<path d="M41.6644 82.6161C41.6068 82.6161 41.5491 82.6144 41.4906 82.6111C36.1038 82.3036 32.265 80.3445 30.0784 76.788C25.8909 69.9763 29.8968 60.3225 30.3665 59.2442C30.6842 58.5147 31.2786 57.9413 32.019 57.6501C32.7595 57.3588 33.5852 57.3737 34.3147 57.6913C35.0442 58.009 35.6176 58.6034 35.9088 59.3438C36.2 60.0843 36.1852 60.9101 35.8675 61.6395C34.9418 63.7865 33.0169 70.1266 35.1957 73.6545C36.3099 75.4592 38.4808 76.4295 41.8324 76.6209C42.6117 76.6653 43.343 77.0118 43.871 77.5868C44.399 78.1617 44.6821 78.9198 44.6602 79.7001C44.6384 80.4804 44.3132 81.2214 43.7539 81.7658C43.1945 82.3103 42.445 82.6153 41.6644 82.6161L41.6644 82.6161Z" fill="black"/>
</svg>
