<svg width="190" height="171" viewBox="0 0 190 171" fill="none" xmlns="http://www.w3.org/2000/svg">
<path d="M168.449 107.431C161.315 105.2 160.87 94.7142 160.45 87.4027C159.908 77.9478 112.003 79.7499 80.4465 78.2674C80.4465 78.2674 92.3788 125.216 107.302 122.97C108.348 154.537 134.752 155.457 141.787 139.812C147.806 126.426 158.637 136.607 167.493 137.695C177.455 138.919 189.951 114.156 168.449 107.431Z" fill="black"/>
<path d="M31.5902 75.9253C24.9738 83.589 11.6674 73.2172 5.42542 86.6036C-0.684503 99.7068 6.98591 108.245 17.0177 108.245C27.0494 108.245 32.9862 114.573 29.7245 124.309C26.4629 134.045 38.4187 147.065 51.7944 137.026C83.2272 118.285 73.8642 64.7392 73.8642 64.7392C73.8642 64.7392 35.6743 52.354 35.6743 60.8321C35.6743 69.3102 33.6444 72.7486 31.5902 75.9253H31.5902Z" fill="black"/>
<path d="M150.059 103.959C150.055 103.9 150.047 103.843 150.039 103.786C149.703 101.717 149.256 101.33 148.366 99.8355C158.807 89.1637 152.309 70.6421 148.731 63.2789C144.945 55.4882 137.408 43.904 129.737 40.2483C122.066 36.5927 103.437 27.088 78.9642 37.3238C54.491 47.5596 45.8671 81.0354 45.4862 82.1708C45.4472 82.2859 43.7664 87.5781 42.7844 95.1625C41.9715 98.9447 41.7691 102.949 42.1059 107.006C42.2474 113.933 43.4272 121.415 46.681 128.189C52.7757 140.875 72.8756 148.166 77.2115 149.975C77.2115 149.975 77.7771 162.347 76.1334 163.992C77.2292 168.927 88.4613 170.847 88.4613 170.847C98.1951 171.487 102.707 164.541 102.707 164.541V150.558C102.707 150.558 113.762 145.47 120.219 138.453C124.911 133.92 128.212 126.521 128.954 124.767C129.74 124.879 131.005 125.015 132.543 125.015C136.069 125.015 141.013 124.298 144.82 120.937C148.916 117.321 150.678 111.609 150.059 103.959V103.959Z" fill="white"/>
<path d="M66.5186 105.373C69.3285 105.373 71.6064 103.093 71.6064 100.281C71.6064 97.469 69.3285 95.1893 66.5186 95.1893C63.7087 95.1893 61.4308 97.469 61.4308 100.281C61.4308 103.093 63.7087 105.373 66.5186 105.373Z" fill="black"/>
<path d="M102.279 112.182C105.089 112.182 107.367 109.902 107.367 107.09C107.367 104.278 105.089 101.998 102.279 101.998C99.4688 101.998 97.1909 104.278 97.1909 107.09C97.1909 109.902 99.4688 112.182 102.279 112.182Z" fill="black"/>
<path d="M76.8843 167.031C76.3321 167.031 75.7741 166.88 75.273 166.562C73.8745 165.675 73.4558 163.826 74.3315 162.424C75.0514 161.047 75.2857 155.486 74.8199 153.194C74.3835 153.081 73.8314 152.951 73.3479 152.838C67.3245 151.426 53.2181 148.118 45.8178 132.339C36.4002 112.258 42.457 83.1426 42.5295 82.8726C46.7907 66.8683 55.662 33.5544 95.2988 29.5953C113.076 27.818 130.365 34.2666 142.713 47.2852C153.686 58.8552 158.733 73.5877 156.563 87.7049C156.311 89.3493 154.77 90.4775 153.128 90.225C151.483 89.9721 150.355 88.434 150.608 86.7895C152.493 74.5271 148.022 61.6397 138.341 51.4313C127.286 39.7747 111.821 33.9996 95.897 35.5909C60.4616 39.1305 52.5876 68.5168 48.3686 84.3619C48.1313 85.5101 42.8924 111.912 51.2724 129.781C57.4341 142.918 69.1113 145.656 74.7238 146.971C77.3913 147.597 78.8604 147.941 79.7636 149.381C81.7917 152.7 81.2778 162.722 79.4312 165.632C78.8575 166.536 77.8817 167.031 76.8843 167.031H76.8843Z" fill="black"/>
<path d="M35.6738 65.2945C39.0177 39.191 70.4505 11.7488 104.781 22.458C127.52 18.8882 144.462 40.7527 152.042 55.924C159.622 71.0952 158.284 98.3144 158.284 98.3144C156.385 98.4227 148.366 99.8356 148.366 99.8356L135.637 94.5223C129.51 104.778 111.754 95.9827 111.469 72.8801C111.398 67.0797 109.686 60.3861 106.899 57.932C97.5362 42.086 95.4905 50.1733 83.4917 57.815C65.1002 69.5281 42.3616 56.1417 35.6738 65.2945L35.6738 65.2945Z" fill="black"/>
<path d="M130.979 153.072C128.89 153.072 126.862 152.554 125.069 151.527C122.133 149.843 114.185 144.606 113.848 144.383C113.066 143.868 112.569 143.02 112.501 142.086C112.434 141.153 112.803 140.242 113.502 139.619C122.283 131.793 123.433 123.016 123.444 122.928C123.542 122.119 123.964 121.384 124.612 120.891C125.261 120.398 126.083 120.189 126.888 120.311C126.974 120.324 136.452 121.653 141.728 116.711C144.533 114.084 145.74 109.966 145.318 104.469C144.284 98.4413 139.718 96.9452 136.095 97.5001C134.443 97.7523 132.912 96.6242 132.66 94.9797C132.407 93.3351 133.536 91.7971 135.181 91.5446C141.814 90.5227 149.701 93.8668 151.285 103.619C151.298 103.698 151.307 103.779 151.314 103.859C151.92 111.358 150.072 117.17 145.818 121.135C140.5 126.092 132.889 126.622 128.809 126.495C127.873 129.843 125.6 135.665 120.288 141.396C122.885 143.084 126.412 145.351 128.066 146.299C129.672 147.22 131.739 147.292 133.732 146.496C136.308 145.469 138.298 143.166 139.194 140.177C140.508 135.795 143.713 132.346 147.767 130.951C151.917 129.522 156.454 130.332 160.543 133.23C164.739 136.204 168.418 135.221 170.768 133.873C175.149 131.36 178.125 125.726 177.69 120.768C177.302 116.34 174.37 113.017 169.213 111.158C169.125 111.127 169.037 111.091 168.953 111.051L167.52 110.378C158.971 106.632 157.595 99.3688 156.855 95.4667L156.792 95.1338C155.819 90.0432 154.547 80.9872 154 73.5288C151.712 42.3003 132.158 29.5587 116.108 28.1363C114.635 28.0059 110.154 28.0946 108.553 28.1397C107.529 28.1672 106.586 27.6883 106.003 26.8617C106.002 26.8617 105.244 25.8886 103.661 25.2546C93.0835 21.0157 80.7895 21.8746 69.0417 27.6744C54.9118 34.6505 43.3749 47.7715 39.6512 61.1019C39.6385 61.1466 39.6248 61.1911 39.61 61.2351L34.4516 76.8695C34.3849 77.0726 34.2966 77.2679 34.1878 77.4523C29.9747 84.6217 23.862 84.2471 18.9497 83.9456C14.2885 83.6591 10.9168 83.4524 7.98848 88.1887C5.54165 92.1448 5.35336 97.0506 7.50991 100.687C9.38107 103.844 12.6899 105.459 16.8569 105.237C22.848 104.915 27.7799 106.853 30.7642 110.69C33.6945 114.46 34.3466 119.615 32.6 125.207C31.5556 128.552 32.5922 131.791 35.3734 133.873C37.9919 135.832 42.7238 137.002 47.4478 133.851C48.8315 132.927 50.7017 133.301 51.6255 134.685C52.5494 136.069 52.1757 137.939 50.7919 138.863C44.8421 142.832 37.1965 142.764 31.7625 138.696C26.9198 135.071 25.0369 129.214 26.8492 123.411C27.9898 119.758 27.6907 116.554 26.0078 114.389C24.272 112.155 21.1484 111.041 17.1786 111.254C10.7815 111.595 5.35434 108.866 2.32693 103.76C-0.960361 98.2168 -0.749513 90.8606 2.86337 85.0192C7.68937 77.2168 14.413 77.6301 19.3195 77.9314C24.0278 78.2209 26.6335 78.2052 28.8361 74.6595L33.8671 59.4126C38.0507 44.5321 50.8027 29.9593 66.3742 22.2715C79.6774 15.7045 93.715 14.777 105.903 19.6615C107.647 20.3605 108.917 21.313 109.746 22.0839C111.687 22.0435 115.105 21.9982 116.64 22.1344C144.199 24.5767 158.28 49.486 160.01 73.0887C160.539 80.3183 161.768 89.0816 162.71 94.0018L162.776 94.3452C163.454 97.9288 164.3 102.389 170.01 104.891L171.39 105.539C181.286 109.162 183.347 116.299 183.693 120.242C184.329 127.504 180.155 135.435 173.766 139.1C168.368 142.196 162.279 141.847 157.057 138.145C154.561 136.376 152.026 135.856 149.727 136.648C147.503 137.413 145.723 139.379 144.966 141.907C143.538 146.668 140.258 150.381 135.964 152.093C134.324 152.747 132.633 153.072 130.979 153.072L130.979 153.072Z" fill="black"/>
<path d="M128.605 98.9001C127.899 98.9001 127.17 98.841 126.427 98.706C114.729 96.5837 107.594 76.5927 109.485 61.456C109.691 59.8052 111.18 58.6321 112.848 58.8402C114.499 59.0463 115.671 60.552 115.464 62.2031C113.811 75.4349 120.111 91.4364 127.502 92.7775C130.735 93.3632 133.793 91.1642 133.822 91.1419C135.158 90.1659 137.043 90.444 138.029 91.7757C139.014 93.1068 138.749 94.9778 137.425 95.9721C137.244 96.1078 133.461 98.9 128.605 98.9001L128.605 98.9001Z" fill="black"/>
<path d="M49.7177 61.831C54.3992 64.5083 63.7622 63.839 77.4194 52.9274C89.9202 42.9397 103.22 46.102 106.899 57.9321C130.661 22.554 30.323 33.385 49.7177 61.831Z" fill="black"/>
<path d="M50.924 63.0581C54.792 63.7977 58.7939 63.831 62.7135 63.6168C67.4714 63.3567 72.267 62.7173 76.881 61.5097C81.0099 60.4291 85.1599 58.8608 88.4544 56.0783C89.0061 55.6124 89.5446 55.1323 90.1077 54.6796C90.2103 54.5971 90.8033 54.0874 90.2182 54.5863C90.3295 54.4914 90.4572 54.4052 90.5738 54.3184C90.9183 54.0623 91.2679 53.8129 91.6227 53.5712C92.719 52.8244 93.8673 52.1472 95.0757 51.5977C95.1788 51.5508 95.2843 51.5081 95.3866 51.4598C94.6156 51.824 94.9996 51.6176 95.203 51.5427C95.4525 51.4509 95.6997 51.3549 95.952 51.2708C96.4458 51.1063 96.9484 50.9676 97.4585 50.8634C97.7388 50.8061 98.5804 50.736 97.4775 50.8348C97.6978 50.815 97.9166 50.7862 98.1376 50.7731C98.6004 50.7457 99.0535 50.7747 99.515 50.7975C99.9646 50.8197 99.0294 50.7364 99.0716 50.7335C99.214 50.724 99.3968 50.7866 99.5361 50.8157C99.7435 50.8592 99.9489 50.9115 100.152 50.9727C100.35 51.0324 100.542 51.1254 100.741 51.1785C99.8782 50.9481 100.169 50.919 100.432 51.0547C100.532 51.1059 100.633 51.153 100.731 51.2059C100.928 51.3112 101.119 51.4257 101.305 51.549C101.367 51.5901 101.427 51.634 101.488 51.6752C102.048 52.0468 100.978 51.2262 101.322 51.5447C101.629 51.8294 101.938 52.1002 102.215 52.4159C102.292 52.5029 102.363 52.5944 102.439 52.6814C102.745 53.0309 101.976 52.0344 102.253 52.4436C102.387 52.6417 102.526 52.8348 102.652 53.0385C102.89 53.4243 103.103 53.8264 103.292 54.2389C103.392 54.4576 103.529 54.9223 103.191 53.9892C103.235 54.1113 103.288 54.231 103.333 54.3527C103.426 54.6017 103.511 54.8535 103.59 55.1074C103.754 55.6375 103.885 56.1764 103.994 56.7202C104.306 58.2679 106.227 59.3011 107.7 58.8244C109.343 58.2929 110.138 56.7766 109.805 55.1184C108.943 50.8382 106.483 46.9479 102.29 45.3478C97.6611 43.5813 92.4147 45.7552 88.5815 48.3685C87.1075 49.3734 85.7204 50.4991 84.3713 51.6641C84.2221 51.793 84.0678 51.9159 83.9186 52.0446C83.5913 52.3267 84.2626 51.7771 84.2425 51.7961C84.1562 51.8778 84.0428 51.9453 83.9463 52.0146C83.5675 52.2866 83.176 52.5407 82.7757 52.7799C81.951 53.2727 81.0895 53.7026 80.2099 54.0881C79.4885 54.4042 80.8655 53.8237 80.1265 54.1219C79.8976 54.2143 79.6675 54.304 79.4365 54.3912C78.9147 54.5881 78.388 54.7721 77.8578 54.9452C75.7049 55.648 73.4961 56.1754 71.2708 56.5904C70.7233 56.6925 70.1744 56.7875 69.6245 56.8758C69.349 56.9201 69.0731 56.9627 68.7971 57.0037C68.5423 57.0416 67.3618 57.1818 68.4376 57.0587C67.2833 57.1908 66.1324 57.3351 64.9744 57.4334C62.5585 57.6387 60.1306 57.7347 57.7061 57.6842C56.6376 57.662 55.5691 57.611 54.5044 57.5159C54.2627 57.4943 54.0213 57.4706 53.7801 57.444C53.481 57.4111 52.5834 57.2622 53.7799 57.4531C53.3612 57.3863 52.9424 57.3276 52.5258 57.2479C50.9828 56.9528 49.2009 57.679 48.8198 59.3521C48.4812 60.8384 49.2688 62.7415 50.924 63.0581H50.924Z" fill="black"/>
</svg>
