<svg width="190" height="171" viewBox="0 0 190 171" fill="none" xmlns="http://www.w3.org/2000/svg">
<path d="M168.27 107.432C161.144 105.205 160.699 94.7385 160.28 87.4407C159.738 78.0035 111.885 79.8022 80.3613 78.3224C80.3613 78.3224 92.2809 125.184 107.189 122.942C108.233 154.449 134.609 155.368 141.636 139.752C147.649 126.391 158.468 136.553 167.315 137.639C177.267 138.861 189.749 114.144 168.27 107.432Z" fill="#82BE28"/>
<path d="M131.045 152.724C129.022 152.727 127.027 152.26 125.216 151.357C124.862 151.18 124.547 150.935 124.287 150.636C124.028 150.337 123.83 149.99 123.705 149.615C123.58 149.239 123.53 148.843 123.558 148.448C123.586 148.054 123.692 147.668 123.869 147.314C124.046 146.96 124.291 146.645 124.59 146.385C124.889 146.126 125.236 145.928 125.611 145.803C125.987 145.678 126.383 145.628 126.778 145.656C127.173 145.684 127.558 145.79 127.912 145.967C128.877 146.426 129.929 146.671 130.997 146.686C132.065 146.701 133.124 146.485 134.101 146.053C135.312 145.489 136.383 144.664 137.238 143.637C138.092 142.61 138.709 141.407 139.043 140.113C139.64 138.01 140.728 136.079 142.216 134.477C143.705 132.876 145.552 131.65 147.606 130.901C151.755 129.474 156.287 130.282 160.374 133.175C161.807 134.314 163.556 134.985 165.383 135.099C167.21 135.213 169.029 134.765 170.593 133.814C172.808 132.451 174.617 130.52 175.831 128.221C177.046 125.922 177.621 123.339 177.498 120.741C177.109 116.325 174.182 113.011 169.032 111.158C168.28 110.887 167.667 110.328 167.327 109.605C166.986 108.882 166.947 108.053 167.218 107.301C167.489 106.549 168.048 105.936 168.771 105.595C169.494 105.255 170.323 105.216 171.075 105.487C181.076 109.088 183.153 116.259 183.501 120.213C183.748 123.96 182.953 127.702 181.205 131.025C179.456 134.348 176.822 137.122 173.594 139.04C171.03 140.559 168.072 141.28 165.097 141.111C162.122 140.942 159.265 139.892 156.889 138.094C154.395 136.327 151.864 135.81 149.568 136.6C148.418 137.037 147.388 137.741 146.562 138.652C145.736 139.564 145.138 140.658 144.816 141.845C144.236 143.984 143.188 145.967 141.748 147.651C140.309 149.336 138.513 150.679 136.491 151.585C134.773 152.332 132.919 152.72 131.045 152.724Z" fill="black"/>
<path d="M31.5569 75.9844C24.9475 83.6339 11.6553 73.2815 5.42001 86.6428C-0.683395 99.7216 6.97885 108.244 16.9999 108.244C27.0209 108.244 32.9514 114.56 29.6932 124.277C26.435 133.995 38.3781 146.992 51.7395 136.971C83.1388 118.265 73.7858 64.8193 73.7858 64.8193C73.7858 64.8193 35.6366 52.4573 35.6366 60.9195C35.6366 69.3816 33.6089 72.8137 31.5569 75.9844Z" fill="#82BE28"/>
<path d="M41.1855 141.736C37.7779 141.756 34.4561 140.668 31.7194 138.638C29.3868 136.946 27.6541 134.554 26.7725 131.81C25.8909 129.066 25.9064 126.113 26.8166 123.379C27.9545 119.737 27.6573 116.542 25.9789 114.383C24.2455 112.153 21.1124 111.041 17.1601 111.253C10.7683 111.594 5.34165 108.867 2.3164 103.763C0.710249 100.886 -0.0875398 97.6288 0.00761834 94.3355C0.102777 91.0421 1.08734 87.8359 2.85691 85.0568C7.68024 77.2671 14.3899 77.6792 19.2986 77.9802C24.1072 78.2754 26.7273 78.2525 28.959 74.4565C29.3646 73.7684 30.0268 73.2695 30.8001 73.0694C31.5734 72.8693 32.3945 72.9844 33.083 73.3894C33.7715 73.7943 34.271 74.4561 34.4719 75.2292C34.6727 76.0023 34.5584 76.8235 34.1541 77.5124C29.9429 84.6705 23.8394 84.2964 18.9288 83.9958C14.2752 83.7099 10.9076 83.5026 7.98138 88.2291C6.78596 90.0702 6.11022 92.2 6.02561 94.3935C5.94101 96.587 6.45068 98.7626 7.50073 100.69C9.36944 103.844 12.6909 105.457 16.8384 105.235C22.8202 104.915 27.7563 106.85 30.7374 110.684C33.6626 114.448 34.313 119.594 32.5689 125.176C32.0372 126.721 32.019 128.397 32.517 129.954C33.0149 131.51 34.0024 132.864 35.3322 133.814C37.0913 135.075 39.2021 135.752 41.3666 135.748C43.5311 135.745 45.6398 135.062 47.395 133.795C47.7242 133.576 48.0935 133.423 48.4817 133.347C48.8699 133.27 49.2694 133.27 49.6575 133.348C50.0455 133.425 50.4145 133.579 50.7433 133.799C51.0721 134.019 51.3543 134.302 51.5738 134.631C51.7933 134.96 51.9458 135.33 52.0226 135.718C52.0994 136.106 52.099 136.506 52.0214 136.894C51.9438 137.282 51.7905 137.651 51.5703 137.979C51.3501 138.308 51.0673 138.59 50.738 138.81C47.9123 140.707 44.5887 141.725 41.1855 141.736Z" fill="black"/>
<path d="M149.901 103.965C149.896 103.907 149.889 103.85 149.88 103.793C149.672 102.357 149.096 100.999 148.209 99.8499C158.639 89.1981 152.149 70.7111 148.574 63.3617C144.793 55.5855 137.263 44.0229 129.601 40.3741C121.938 36.7253 103.329 27.2384 78.8819 37.4551C54.4347 47.6718 45.8201 81.085 45.4395 82.2183C44.1853 86.4593 43.2826 90.7964 42.7407 95.1857C41.9356 99.0715 41.7072 103.055 42.0629 107.007C42.0676 114.299 43.6255 121.507 46.633 128.15C52.7213 140.813 72.7998 148.09 77.131 149.896C77.131 149.896 77.696 162.245 76.054 163.887C77.1487 168.813 88.3688 170.728 88.3688 170.728C91.0808 170.982 93.8126 170.536 96.3036 169.434C98.7947 168.332 100.962 166.611 102.599 164.434V150.477C102.599 150.477 113.643 145.399 120.093 138.396C124.78 133.871 128.077 126.485 128.818 124.735C130.006 124.901 131.204 124.984 132.403 124.983C135.926 124.983 140.865 124.267 144.668 120.912C148.759 117.303 150.519 111.601 149.901 103.965Z" fill="white"/>
<path d="M66.4486 105.377C69.2555 105.377 71.531 103.101 71.531 100.294C71.531 97.4874 69.2555 95.2119 66.4486 95.2119C63.6417 95.2119 61.3662 97.4874 61.3662 100.294C61.3662 103.101 63.6417 105.377 66.4486 105.377Z" fill="black"/>
<path d="M102.171 112.173C104.978 112.173 107.253 109.898 107.253 107.091C107.253 104.284 104.978 102.008 102.171 102.008C99.3639 102.008 97.0884 104.284 97.0884 107.091C97.0884 109.898 99.3639 112.173 102.171 112.173Z" fill="black"/>
<path d="M76.8031 166.926C76.2656 166.926 75.738 166.782 75.2751 166.508C74.8122 166.235 74.4307 165.843 74.1702 165.373C73.9098 164.903 73.7798 164.372 73.7937 163.834C73.8077 163.297 73.9651 162.773 74.2497 162.317C74.9668 160.945 75.2002 155.403 74.7372 153.114C74.3027 153.001 73.7523 152.872 73.2707 152.76C67.2525 151.35 53.1602 148.049 45.7668 132.296C36.3517 112.237 42.41 83.1847 42.4816 82.9153C46.739 66.9409 55.6018 33.6864 95.1978 29.7345C103.923 28.842 112.737 29.9726 120.955 33.0384C129.173 36.1042 136.574 41.0228 142.583 47.4123C153.531 58.9592 158.568 73.6593 156.401 87.7433C156.342 88.1349 156.206 88.511 156 88.85C155.795 89.1889 155.526 89.4841 155.206 89.7187C154.887 89.9532 154.525 90.1225 154.14 90.2169C153.755 90.3113 153.356 90.3288 152.964 90.2686C152.573 90.2084 152.197 90.0715 151.858 89.8659C151.52 89.6602 151.225 89.3898 150.991 89.0702C150.757 88.7505 150.588 88.3878 150.494 88.0029C150.401 87.618 150.384 87.2184 150.445 86.8269C152.325 74.5984 147.866 61.7438 138.209 51.5592C132.83 45.8397 126.207 41.4366 118.851 38.6917C111.496 35.9468 103.607 34.9339 95.7962 35.7318C60.4007 39.2644 52.5364 68.5937 48.3212 84.4078C48.0838 85.5598 42.8534 111.904 51.2229 129.736C57.3764 142.846 69.0399 145.578 74.645 146.891C77.3102 147.516 78.7787 147.86 79.6822 149.298C81.7088 152.615 81.1948 162.623 79.3496 165.528C79.0776 165.957 78.7014 166.31 78.2562 166.555C77.8109 166.799 77.3111 166.927 76.8031 166.926Z" fill="black"/>
<path d="M35.6379 65.3736C38.9782 39.3189 70.3775 11.928 104.672 22.6171C127.386 19.0541 144.31 40.8777 151.882 56.0206C159.453 71.1635 158.117 98.3318 158.117 98.3318C156.22 98.4399 148.209 99.8502 148.209 99.8502L135.494 94.5468C129.374 104.783 111.637 96.0045 111.352 72.9451C111.281 67.1555 109.571 60.4744 106.787 58.0248C97.4343 42.2085 95.3908 50.2807 83.4048 57.9081C65.0329 69.5993 42.3185 56.2379 35.6379 65.3736Z" fill="#82BE28"/>
<path d="M115.417 144.423C114.806 144.423 114.21 144.237 113.707 143.891C113.204 143.544 112.818 143.053 112.6 142.482C112.383 141.911 112.344 141.287 112.489 140.694C112.634 140.1 112.956 139.565 113.412 139.159C122.078 131.442 123.299 122.962 123.311 122.878C123.364 122.48 123.495 122.097 123.697 121.75C123.9 121.404 124.169 121.101 124.489 120.86C124.809 120.618 125.174 120.442 125.562 120.343C125.951 120.244 126.355 120.222 126.752 120.281C126.842 120.294 136.31 121.621 141.578 116.684C144.376 114.064 145.58 109.957 145.159 104.475C144.127 98.4634 139.57 96.9692 135.951 97.5249C135.161 97.6461 134.355 97.4486 133.71 96.9757C133.066 96.5028 132.636 95.7933 132.515 95.0034C132.394 94.2134 132.591 93.4076 133.064 92.7632C133.537 92.1189 134.246 91.6888 135.036 91.5676C141.681 90.5489 149.546 93.887 151.127 103.625C151.14 103.704 151.149 103.784 151.156 103.865C151.762 111.348 149.916 117.15 145.671 121.109C140.35 126.07 132.724 126.596 128.656 126.465C126.597 133.137 122.704 139.095 117.42 143.66C116.869 144.152 116.156 144.424 115.417 144.423Z" fill="black"/>
<path d="M125.829 101.791C125.616 101.791 125.403 101.768 125.195 101.723C113.607 99.2402 106.51 79.3591 108.362 64.554C108.411 64.1614 108.537 63.7822 108.732 63.4383C108.928 63.0943 109.189 62.7922 109.502 62.5493C109.814 62.3063 110.171 62.1273 110.553 62.0224C110.934 61.9175 111.333 61.8887 111.725 61.9378C112.118 61.9869 112.497 62.1128 112.841 62.3084C113.185 62.504 113.487 62.7655 113.73 63.0778C113.973 63.3902 114.152 63.7473 114.257 64.1288C114.362 64.5104 114.39 64.9088 114.341 65.3015C112.721 78.2678 119.062 94.2454 126.458 95.83C127.186 95.986 127.83 96.4056 128.266 97.0081C128.703 97.6105 128.901 98.3531 128.823 99.0931C128.745 99.833 128.396 100.518 127.843 101.016C127.291 101.514 126.573 101.79 125.829 101.791L125.829 101.791Z" fill="black"/>
<path d="M49.6664 61.9163C54.3429 64.5886 63.6959 63.9205 77.3385 53.0293C89.8261 43.0603 103.112 46.2167 106.786 58.0247C130.524 22.7127 30.2924 33.5234 49.6664 61.9163Z" fill="#82BE28"/>
<path d="M50.8701 65.1562C54.7591 65.8177 58.714 66.0051 62.6481 65.7141C67.3705 65.4887 72.059 64.7978 76.6456 63.6512C80.8239 62.5727 85.0316 61.0006 88.3644 58.1878C88.9183 57.7203 89.4583 57.2391 90.0239 56.7852C90.1379 56.6807 90.2593 56.5846 90.387 56.4975C89.8222 56.8198 90.2496 56.6048 90.4053 56.4886C90.7239 56.2507 91.0468 56.0186 91.3739 55.7923C92.475 55.0212 93.64 54.3455 94.856 53.7724C94.9601 53.7243 95.0653 53.6787 95.1694 53.6308C95.7408 53.3679 94.4873 53.8916 95.0668 53.6768C95.3176 53.5838 95.5662 53.4867 95.82 53.4015C96.3162 53.2338 96.822 53.096 97.3347 52.9891C97.4839 52.9584 98.3287 52.8286 97.6906 52.9142C97.0561 52.9992 97.871 52.9045 98.0214 52.8954C98.4626 52.8744 98.9046 52.8802 99.345 52.9125C99.652 52.9309 99.9077 53.1112 99.0228 52.8631C99.135 52.8945 99.2586 52.902 99.3728 52.9249C99.6006 52.9706 99.8259 53.027 100.049 53.0942C100.249 53.1547 100.443 53.232 100.64 53.3015C100.975 53.4196 99.8578 52.935 100.282 53.1545C100.382 53.2061 100.484 53.252 100.584 53.3044C100.782 53.4088 100.974 53.5224 101.162 53.6453C101.24 53.6964 101.315 53.7514 101.393 53.8033C101.878 54.1284 100.823 53.3111 101.184 53.639C101.5 53.9125 101.8 54.2029 102.084 54.5089C102.161 54.5957 102.232 54.6887 102.31 54.7744C102.64 55.1383 101.849 54.1254 102.126 54.5365C102.26 54.7355 102.401 54.928 102.528 55.132C102.774 55.5395 102.998 55.9604 103.199 56.3927C103.3 56.6049 103.397 56.9722 103.073 56.0859C103.118 56.2083 103.17 56.3283 103.216 56.4504C103.31 56.7001 103.396 56.9524 103.474 57.2073C103.637 57.7395 103.773 58.2797 103.881 58.8257C104.098 59.5937 104.608 60.2453 105.302 60.6393C105.996 61.0333 106.817 61.1379 107.588 60.9305C108.348 60.7014 108.991 60.1886 109.382 59.4983C109.774 58.8081 109.885 57.9935 109.693 57.2235C108.832 52.9541 106.376 49.0627 102.19 47.4688C97.5662 45.7084 92.3396 47.8641 88.5056 50.4694C87.0347 51.4884 85.6238 52.5914 84.2799 53.7728C84.1309 53.9015 83.9775 54.0248 83.8278 54.1525C83.4395 54.4837 84.4742 53.6787 84.0546 53.9768C83.9711 54.0361 83.8893 54.0981 83.8058 54.1575C83.4431 54.4155 83.069 54.6573 82.6868 54.8855C81.8607 55.374 81.0046 55.8101 80.1238 56.1913C79.9207 56.2802 79.3987 56.4629 80.312 56.1139C80.1983 56.1574 80.0864 56.2065 79.9733 56.2518C79.7439 56.3436 79.5136 56.4329 79.2822 56.5194C78.7838 56.7061 78.2815 56.8817 77.7752 57.0462C75.6201 57.7367 73.422 58.2852 71.1952 58.6883C70.6209 58.7953 70.0452 58.8947 69.4681 58.9864C69.1928 59.0303 68.9172 59.0725 68.6414 59.113C68.5035 59.1333 68.3655 59.1532 68.2275 59.1727C67.7071 59.2462 68.0422 59.1904 68.3661 59.1555C67.2123 59.2797 66.0635 59.4314 64.9066 59.5296C62.469 59.7428 60.0217 59.8259 57.5752 59.7783C56.5314 59.7553 55.4879 59.7046 54.4478 59.6119C54.2064 59.5904 53.9652 59.5665 53.7243 59.5401C53.4251 59.5072 52.5278 59.3589 53.7251 59.5494C53.3068 59.4828 52.8886 59.4241 52.4723 59.3446C52.0907 59.2394 51.6922 59.2104 51.2993 59.2592C50.9065 59.3081 50.5272 59.4338 50.183 59.6292C49.8388 59.8247 49.5364 60.086 49.2932 60.3983C49.05 60.7106 48.8706 61.0677 48.7654 61.4493C48.6602 61.8309 48.6312 62.2295 48.6801 62.6223C48.7289 63.0151 48.8546 63.3945 49.0501 63.7387C49.2455 64.0829 49.5068 64.3853 49.8191 64.6285C50.1314 64.8717 50.4886 65.0511 50.8702 65.1563L50.8701 65.1562Z" fill="black"/>
<path d="M161.368 97.3069C160.789 97.3071 160.222 97.1406 159.735 96.8272C159.249 96.5138 158.862 96.0668 158.623 95.5396C156.015 89.8023 154.311 80.1412 153.832 73.5927C151.72 44.7803 132.761 31.2815 115.723 28.2561C115.332 28.1879 114.959 28.0434 114.624 27.8307C114.29 27.6181 114 27.3414 113.773 27.0167C113.545 26.692 113.384 26.3256 113.298 25.9384C113.213 25.5513 113.204 25.151 113.273 24.7606C113.343 24.3702 113.488 23.9973 113.702 23.6633C113.916 23.3293 114.193 23.0408 114.519 22.8142C114.844 22.5877 115.211 22.4276 115.598 22.3431C115.986 22.2586 116.386 22.2514 116.776 22.3219C146.196 27.546 158.363 52.9689 159.843 73.1522C160.374 80.4087 162.169 88.7751 164.11 93.0458C164.318 93.5047 164.408 94.0086 164.371 94.5112C164.335 95.0139 164.173 95.4993 163.9 95.9231C163.627 96.347 163.253 96.6957 162.81 96.9374C162.368 97.1791 161.872 97.3062 161.368 97.3069L161.368 97.3069Z" fill="black"/>
<path d="M36.7127 63.3935C36.2476 63.3933 35.7889 63.2855 35.3724 63.0787C34.9558 62.8718 34.5928 62.5715 34.3115 62.201C34.0303 61.8306 33.8385 61.4002 33.7512 60.9434C33.6639 60.4866 33.6834 60.0158 33.8081 59.5678C37.7643 45.4218 48.5714 32.3461 62.7187 24.5901C76.2459 17.1736 91.4556 15.4494 105.548 19.7338C106.312 19.9671 106.951 20.4941 107.327 21.1989C107.702 21.9037 107.783 22.7287 107.55 23.4928C107.318 24.2568 106.792 24.8973 106.087 25.2737C105.383 25.65 104.558 25.7314 103.794 25.5C91.2672 21.6913 77.7095 23.2454 65.6164 29.875C52.8611 36.8674 43.1409 48.5742 39.6134 61.1907C39.4361 61.8239 39.0568 62.3818 38.5331 62.7794C38.0095 63.1771 37.3702 63.3927 36.7127 63.3935Z" fill="black"/>
</svg>
