<svg width="180" height="170" viewBox="0 0 180 170" fill="none" xmlns="http://www.w3.org/2000/svg">
<path d="M157.937 87.8501C157.937 127.338 143.388 146.693 137.388 152.693C119.143 160.343 54.5423 157.279 33.0183 145.278C27.3523 138.981 19.937 113.85 21.937 89.3501C25.1498 49.9927 53.0532 21.8501 91.437 21.8501C129.821 21.8501 157.937 48.3617 157.937 87.8501Z" fill="black"/>
<path d="M102.941 159.789C76.9129 159.789 45.5018 155.674 31.5575 147.898C31.2372 147.719 30.952 147.483 30.7167 147.201C15.9081 129.479 16.2694 112.612 18.5116 88.9021C22.411 47.6565 52.3993 18.8501 91.4374 18.8501C132.358 18.8501 160.937 47.2239 160.937 87.8501C160.937 130.103 144.537 149.787 139.51 154.814C139.234 155.09 138.908 155.309 138.549 155.459C131.591 158.377 118.188 159.789 102.941 159.789ZM34.9608 142.921C55.8016 154.053 117.648 157.118 135.685 150.145C140.726 144.906 154.937 126.661 154.937 87.8501C154.937 50.7567 128.825 24.8501 91.4374 24.8501C55.6131 24.8501 28.0819 51.4214 24.4842 89.4668C22.0585 115.135 22.9803 128.346 34.9608 142.921V142.921Z" fill="black"/>
<path d="M140.073 102.504C140.069 102.446 140.061 102.389 140.053 102.332C139.719 100.276 139.275 99.8915 138.389 98.4069C148.772 87.8027 142.311 69.3983 138.753 62.0818C134.988 54.3404 127.492 42.8295 119.864 39.197C112.235 35.5645 93.7094 26.12 69.3717 36.291C45.0339 46.462 36.4577 79.7258 36.0788 80.8541C36.0401 80.9684 34.3686 86.2271 33.3921 93.7635C32.5837 97.5218 32.3823 101.5 32.7173 105.532C32.858 112.416 34.0313 119.85 37.2671 126.581C43.3281 139.187 51.9349 146.873 67.6286 148.229C67.6286 148.229 68.1911 160.523 66.5565 162.157C67.6462 167.061 78.8162 168.968 78.8162 168.968C88.4962 169.605 92.983 162.702 92.983 162.702V148.808C92.983 148.808 103.977 143.752 110.399 136.78C115.064 132.275 118.347 124.923 119.085 123.18C119.867 123.292 121.124 123.427 122.654 123.427C126.161 123.427 131.078 122.715 134.863 119.375C138.936 115.781 140.688 110.106 140.073 102.504V102.504Z" fill="white"/>
<path d="M67.9381 49.8503C45.9381 51.8503 38.8837 88.309 36.8837 103.309C20.9395 97.6817 35.9381 43.8503 68.9381 32.8503C101.938 21.8503 67.9381 49.8503 67.9381 49.8503Z" fill="black"/>
<path d="M56.9952 103.909C59.7896 103.909 62.0549 101.644 62.0549 98.8492C62.0549 96.0548 59.7896 93.7896 56.9952 93.7896C54.2008 93.7896 51.9355 96.0548 51.9355 98.8492C51.9355 101.644 54.2008 103.909 56.9952 103.909Z" fill="black"/>
<path d="M92.5597 110.675C95.354 110.675 97.6193 108.41 97.6193 105.615C97.6193 102.821 95.354 100.556 92.5597 100.556C89.7653 100.556 87.5 102.821 87.5 105.615C87.5 108.41 89.7653 110.675 92.5597 110.675Z" fill="black"/>
<path d="M67.3035 165.183C66.7537 165.183 66.1971 165.032 65.6981 164.715C64.3065 163.832 63.8895 161.991 64.7616 160.595C65.4754 159.229 65.7078 153.711 65.2469 151.433C64.8143 151.32 64.2664 151.192 63.7869 151.08C57.7957 149.676 43.7664 146.39 36.4061 130.708C35.702 129.208 36.3475 127.422 37.8475 126.718C39.3475 126.014 41.1336 126.659 41.8377 128.159C47.9637 141.21 59.575 143.93 65.1551 145.238C67.8084 145.859 69.2703 146.202 70.1698 147.634C72.1873 150.936 71.6756 160.899 69.8387 163.791C69.2674 164.691 68.2957 165.183 67.3035 165.183V165.183Z" fill="black"/>
<path d="M47.9375 40.8502C44.9375 57.8502 55.9395 88.8594 105.939 80.8594C107.847 85.6057 110.631 89.4845 113.546 92.2362C119.939 97.8594 125.634 94.1466 125.939 93.8594C127.939 92.8594 134.859 91.8385 138.335 102.646C156.54 92.0543 152.937 75.8502 151.937 68.8502C150.937 61.8502 111.937 -5.14983 47.9375 40.8502Z" fill="black"/>
<path d="M121.759 124.863C120.204 124.863 118.887 123.662 118.77 122.085C118.648 120.433 119.887 118.994 121.54 118.871C124.956 118.617 129.638 117.6 132.553 114.193C134.782 111.59 135.724 107.828 135.355 103.011C134.328 97.0254 129.785 95.5408 126.188 96.0924C124.547 96.3433 123.019 95.22 122.768 93.5822C122.516 91.9445 123.64 90.4132 125.278 90.1618C131.888 89.1466 139.723 92.4707 141.296 102.165C141.309 102.244 141.319 102.324 141.326 102.404C141.854 108.931 140.437 114.21 137.112 118.095C132.855 123.069 126.536 124.516 121.985 124.855C121.909 124.86 121.833 124.863 121.759 124.863V124.863Z" fill="black"/>
<path d="M121.383 96.7251C118.008 96.7252 115.24 95.6759 113.492 94.5006C111.925 93.8212 107.096 91.2363 104.004 84.1785C92.2487 85.7178 63.3727 86.6727 49.3395 62.3491C48.5114 60.914 49.0036 59.0794 50.4392 58.2514C51.8727 57.4238 53.7087 57.9155 54.5368 59.3508C58.8142 66.7661 72.3386 83.4176 105.446 77.9C106.912 77.6563 108.319 78.5106 108.785 79.9105C111.242 87.2791 115.837 88.9876 115.883 89.0027C116.182 89.1023 116.465 89.2487 116.719 89.4365C117.425 89.9289 124.143 94.1582 133.157 84.3918C134.28 83.1748 136.178 83.098 137.396 84.2222C138.613 85.3461 138.689 87.244 137.565 88.4615C131.752 94.7592 126.001 96.7249 121.384 96.7251L121.383 96.7251Z" fill="black"/>
<path d="M39.1239 132.434C37.997 132.434 36.9169 131.796 36.4061 130.708C29.6805 116.379 31.3993 103.502 32.6542 94.0998L32.7479 93.3944C32.9667 91.7519 34.4755 90.5972 36.1161 90.8156C37.7587 91.0337 38.9139 92.542 38.6952 94.1845L38.6014 94.8936C37.4442 103.559 35.8612 115.426 41.8378 128.159C42.5419 129.658 41.8964 131.445 40.3964 132.149C39.9843 132.342 39.5507 132.434 39.1239 132.434V132.434Z" fill="black"/>
</svg>
