<svg width="180" height="171" viewBox="0 0 180 171" fill="none" xmlns="http://www.w3.org/2000/svg">
<path d="M157.921 88.8501C157.921 128.338 143.373 147.693 137.373 153.693C119.127 161.343 54.5266 158.279 33.0027 146.278C27.3367 139.981 19.9213 114.85 21.9213 90.3501C25.1342 50.9926 53.0376 22.8501 91.4213 22.8501C129.805 22.8501 157.921 49.3617 157.921 88.8501Z" fill="#2D8C3C"/>
<path d="M137.372 156.693C136.779 156.693 136.199 156.517 135.706 156.187C135.212 155.857 134.828 155.389 134.601 154.841C134.374 154.293 134.315 153.689 134.43 153.107C134.546 152.525 134.832 151.991 135.251 151.571C139.866 146.957 154.921 128.797 154.921 88.8501C154.921 51.7567 128.809 25.8501 91.4213 25.8501C62.3705 25.8501 38.4398 43.0718 28.9681 70.7946C28.7088 71.5448 28.1627 72.1616 27.4495 72.51C26.7362 72.8583 25.914 72.9098 25.1629 72.6532C24.4118 72.3966 23.793 71.8528 23.442 71.1408C23.091 70.4289 23.0365 69.6069 23.2904 68.8548C33.6176 38.6276 59.724 19.8501 91.4213 19.8501C132.342 19.8501 160.921 48.2239 160.921 88.8501C160.921 131.103 144.521 150.787 139.494 155.814C139.215 156.093 138.885 156.314 138.521 156.465C138.157 156.616 137.766 156.693 137.372 156.693Z" fill="black"/>
<path d="M32.7325 150.093C32.3116 150.094 31.8954 150.005 31.5109 149.834C31.1263 149.663 30.7823 149.413 30.5011 149.1C24.6847 142.634 16.0304 124.682 17.5714 104.034C17.6007 103.641 17.7071 103.258 17.8845 102.906C18.0619 102.554 18.3068 102.241 18.6053 101.984C18.9038 101.727 19.25 101.531 19.6241 101.408C19.9982 101.285 20.3929 101.236 20.7858 101.266C21.1786 101.295 21.5618 101.401 21.9135 101.579C22.2651 101.756 22.5785 102.001 22.8355 102.3C23.0925 102.598 23.2883 102.944 23.4115 103.318C23.5348 103.692 23.5831 104.087 23.5538 104.48C22.1007 123.965 30.6124 140.252 34.962 145.086C35.3498 145.518 35.6044 146.052 35.695 146.624C35.7856 147.197 35.7082 147.784 35.4724 148.313C35.2365 148.843 34.8522 149.293 34.3659 149.609C33.8797 149.925 33.3123 150.093 32.7325 150.093V150.093Z" fill="black"/>
<path d="M140.056 103.504C140.052 103.446 140.045 103.389 140.036 103.332C139.828 101.903 139.256 100.551 138.373 99.4069C148.756 88.8026 142.294 70.3983 138.736 63.0818C134.971 55.3404 127.475 43.8295 119.847 40.197C112.219 36.5645 93.6932 27.12 69.3553 37.291C45.0175 47.462 36.4413 80.7258 36.0625 81.854C34.8138 86.0761 33.9152 90.3938 33.3757 94.7635C32.5743 98.6319 32.3469 102.597 32.701 106.532C32.7056 113.792 34.2566 120.967 37.2507 127.581C43.3117 140.187 51.9186 147.873 67.6122 149.229C67.6122 149.229 68.1747 161.523 66.5401 163.157C67.6299 168.061 78.7998 169.968 78.7998 169.968C81.4997 170.22 84.2192 169.777 86.6992 168.68C89.1791 167.583 91.3368 165.869 92.9666 163.702V149.808C92.9666 149.808 103.961 144.752 110.382 137.78C115.048 133.275 118.33 125.923 119.068 124.18C120.251 124.346 121.443 124.429 122.637 124.427C126.144 124.427 131.061 123.715 134.847 120.374C138.92 116.781 140.672 111.106 140.056 103.504Z" fill="white"/>
<path d="M56.9796 104.909C59.774 104.909 62.0393 102.644 62.0393 99.8492C62.0393 97.0548 59.774 94.7896 56.9796 94.7896C54.1852 94.7896 51.9199 97.0548 51.9199 99.8492C51.9199 102.644 54.1852 104.909 56.9796 104.909Z" fill="black"/>
<path d="M92.544 111.675C95.3384 111.675 97.6037 109.41 97.6037 106.615C97.6037 103.821 95.3384 101.556 92.544 101.556C89.7497 101.556 87.4844 103.821 87.4844 106.615C87.4844 109.41 89.7497 111.675 92.544 111.675Z" fill="black"/>
<path d="M67.287 166.183C66.7518 166.183 66.2265 166.039 65.7655 165.767C65.3046 165.495 64.9248 165.105 64.6654 164.637C64.4061 164.169 64.2768 163.64 64.2907 163.105C64.3047 162.57 64.4615 162.048 64.745 161.594C65.4598 160.228 65.6922 154.71 65.2313 152.433C64.7977 152.32 64.2498 152.192 63.7703 152.08C57.7791 150.676 43.7498 147.389 36.3895 131.708C36.053 130.988 36.0161 130.164 36.2867 129.417C36.5573 128.669 37.1134 128.06 37.8328 127.722C38.5523 127.385 39.3763 127.346 40.1241 127.615C40.8719 127.885 41.4822 128.44 41.8211 129.159C47.9471 142.21 59.5584 144.93 65.1385 146.238C67.7928 146.859 69.2547 147.202 70.1532 148.635C72.1717 151.936 71.66 161.899 69.8221 164.792C69.5512 165.219 69.1766 165.57 68.7334 165.813C68.2902 166.057 67.7926 166.184 67.287 166.183Z" fill="black"/>
<path d="M47.9219 41.8502C44.9219 58.8502 55.9239 89.8594 105.924 81.8594C107.618 86.151 110.212 90.0302 113.53 93.2362C119.924 98.8594 125.618 95.1466 125.924 94.8594C127.924 93.8594 134.844 92.8385 138.319 103.646C156.525 93.0543 152.922 76.8502 151.922 69.8502C150.922 62.8502 111.922 -4.14983 47.9219 41.8502Z" fill="#2D8C3C"/>
<path d="M67.9224 50.8503C45.9224 52.8503 38.8681 89.309 36.8681 104.309C20.9239 98.6817 35.9224 44.8503 68.9224 33.8503C101.922 22.8503 67.9224 50.8503 67.9224 50.8503Z" fill="#2D8C3C"/>
<path d="M105.729 143.78C105.121 143.781 104.527 143.596 104.026 143.251C103.526 142.906 103.142 142.417 102.925 141.848C102.709 141.28 102.67 140.659 102.814 140.068C102.959 139.477 103.279 138.944 103.733 138.54C112.36 130.858 113.577 122.416 113.589 122.331C113.641 121.935 113.772 121.554 113.973 121.209C114.175 120.864 114.442 120.563 114.761 120.322C115.08 120.082 115.443 119.907 115.83 119.808C116.217 119.709 116.619 119.688 117.014 119.746C117.102 119.759 126.53 121.08 131.774 116.166C134.559 113.557 135.758 109.469 135.339 104.011C134.31 98.0265 129.776 96.54 126.171 97.0922C125.385 97.2104 124.585 97.0124 123.946 96.5416C123.306 96.0708 122.879 95.3657 122.759 94.5807C122.638 93.7958 122.834 92.9951 123.303 92.3542C123.772 91.7133 124.476 91.2844 125.261 91.1617C131.876 90.147 139.704 93.4705 141.28 103.164C141.293 103.244 141.303 103.323 141.309 103.404C141.913 110.854 140.075 116.63 135.848 120.571C130.551 125.51 122.961 126.032 118.91 125.903C116.86 132.545 112.983 138.476 107.723 143.021C107.175 143.511 106.465 143.781 105.729 143.78Z" fill="black"/>
<path d="M114.915 95.85C114.596 95.8497 114.279 95.7982 113.976 95.6974C113.698 95.605 107.637 93.5034 103.988 85.1787C92.2323 86.718 63.3563 87.6729 49.3241 63.3493C48.9272 62.6601 48.8202 61.8416 49.0266 61.0735C49.233 60.3055 49.7359 59.6509 50.4247 59.2535C51.1136 58.8561 51.932 58.7485 52.7002 58.9542C53.4684 59.16 54.1234 59.6624 54.5214 60.351C58.7987 67.7662 72.326 84.4177 105.431 78.9001C106.135 78.7835 106.858 78.9218 107.47 79.2903C108.082 79.6587 108.543 80.2332 108.769 80.9106C111.204 88.2128 115.72 89.9476 115.91 90.0178C116.652 90.2894 117.258 90.8408 117.598 91.5538C117.938 92.2668 117.986 93.0847 117.73 93.8323C117.528 94.4191 117.149 94.9286 116.644 95.2902C116.14 95.6517 115.536 95.8473 114.915 95.85Z" fill="black"/>
<path d="M39.1083 133.434C38.5381 133.434 37.9797 133.272 37.4983 132.966C37.017 132.661 36.6327 132.224 36.3905 131.708C29.6649 117.379 31.3837 104.502 32.6385 95.0998L32.7323 94.3944C32.7835 94.0033 32.9113 93.6262 33.1084 93.2846C33.3056 92.943 33.5681 92.6436 33.8811 92.4036C34.194 92.1636 34.5512 91.9877 34.9323 91.8858C35.3133 91.784 35.7107 91.7584 36.1016 91.8103C36.4926 91.8622 36.8695 91.9907 37.2107 92.1885C37.5519 92.3862 37.8508 92.6493 38.0903 92.9627C38.3297 93.2761 38.505 93.6337 38.6061 94.0149C38.7072 94.3961 38.7322 94.7935 38.6795 95.1844L38.5858 95.8935C37.4286 104.558 35.8455 116.425 41.8221 129.159C42.0363 129.616 42.1318 130.119 42.0997 130.623C42.0675 131.127 41.9089 131.615 41.6383 132.041C41.3678 132.467 40.9941 132.818 40.5518 133.062C40.1096 133.305 39.6131 133.433 39.1082 133.434L39.1083 133.434Z" fill="black"/>
</svg>
