<svg width="180" height="171" viewBox="0 0 180 171" fill="none" xmlns="http://www.w3.org/2000/svg">
<path d="M104.672 133.617C104.672 133.617 108.21 146.895 103.439 154.825C111.612 152.898 129.043 150.18 120.218 120.605C111.394 91.0305 102.158 126.475 104.672 133.617H104.672Z" fill="black"/>
<path d="M139.957 103.452C139.953 103.394 139.946 103.337 139.938 103.28C139.604 101.221 139.16 100.836 138.276 99.3498C148.647 88.7329 142.193 70.3066 138.639 62.9814C134.878 55.2307 127.391 43.7061 119.771 40.0692C112.151 36.4324 93.6464 26.9766 69.336 37.1598C45.0257 47.3429 36.4592 80.6464 36.0807 81.776C36.042 81.8905 34.3725 87.1555 33.397 94.7009C32.5895 98.4636 32.3884 102.447 32.723 106.483C32.8636 113.375 34.0355 120.818 37.2676 127.557C43.3218 140.178 63.288 147.432 67.595 149.231C67.595 149.231 68.1568 161.54 66.524 163.176C67.6125 168.086 78.7699 169.995 78.7699 169.995C88.439 170.633 92.9207 163.722 92.9207 163.722V149.811C92.9207 149.811 103.902 144.749 110.317 137.769C114.977 133.259 118.256 125.898 118.993 124.153C119.774 124.265 121.03 124.4 122.558 124.4C126.061 124.4 130.972 123.687 134.754 120.342C138.822 116.745 140.572 111.062 139.957 103.452L139.957 103.452Z" fill="white"/>
<path d="M38.4171 86.6723C35.9482 94.9802 30.4699 90.511 28.8759 85.4394C22.4918 65.1265 34.8137 42.4239 42.1763 34.5159C55.6789 20.0132 78.94 17.4479 81.8293 21.1076C82.8794 22.4375 80.8799 30.2271 79.4474 31.6357C77.5835 33.4687 82.7714 49.2392 76.1192 49.315C63.8906 49.4543 50.1114 61.432 46.2591 66.5258C38.5085 76.7742 39.5901 82.7255 38.4171 86.6723Z" fill="black"/>
<path d="M56.9739 104.858C59.7651 104.858 62.0278 102.59 62.0278 99.7928C62.0278 96.995 59.7651 94.7271 56.9739 94.7271C54.1827 94.7271 51.9199 96.995 51.9199 99.7928C51.9199 102.59 54.1827 104.858 56.9739 104.858Z" fill="black"/>
<path d="M92.4973 111.633C95.2885 111.633 97.5513 109.365 97.5513 106.567C97.5513 103.769 95.2885 101.501 92.4973 101.501C89.7061 101.501 87.4434 103.769 87.4434 106.567C87.4434 109.365 89.7061 111.633 92.4973 111.633Z" fill="black"/>
<path d="M67.272 166.203C66.7231 166.203 66.1675 166.052 65.6694 165.737C64.2768 164.854 63.8579 163.014 64.728 161.617C65.4428 160.247 65.6753 154.717 65.2134 152.435C64.7807 152.323 64.2348 152.194 63.7563 152.082C57.7719 150.677 43.7563 147.386 36.4048 131.686C26.9302 111.454 33.0639 82.7523 33.1362 82.4826C33.56 80.8807 35.2046 79.9272 36.8042 80.3512C38.3755 80.7675 39.3227 82.3554 38.9585 83.9274C38.8208 84.5835 33.4399 111.207 41.8384 129.141C47.9575 142.209 59.5552 144.932 65.1284 146.241C67.7798 146.864 69.2407 147.207 70.1391 148.641C72.1528 151.943 71.6421 161.913 69.8091 164.807C69.2388 165.709 68.2661 166.203 67.272 166.203Z" fill="black"/>
<path d="M119.874 125.891C117.696 125.891 116.209 125.675 116.039 125.649C114.401 125.4 113.276 123.87 113.525 122.232C113.774 120.596 115.303 119.472 116.935 119.717C117.03 119.73 126.428 121.051 131.668 116.144C134.458 113.532 135.661 109.432 135.241 103.959C134.214 97.9658 129.68 96.4766 126.088 97.0291C124.458 97.2795 122.918 96.1585 122.667 94.5201C122.415 92.8825 123.538 91.3508 125.176 91.0989C131.784 90.0834 139.608 93.409 141.182 103.114C141.196 103.193 141.204 103.273 141.211 103.353C141.815 110.819 139.974 116.606 135.741 120.551C130.874 125.085 124.083 125.891 119.874 125.891H119.874Z" fill="black"/>
<path d="M39.1236 133.415C37.9956 133.415 36.9146 132.775 36.4048 131.686C29.6402 117.243 30.8521 98.3087 32.1773 88.308C32.3941 86.6649 33.9058 85.5109 35.5445 85.7279C37.187 85.9454 38.3423 87.4533 38.1245 89.0958C37.1275 96.6235 35.4937 115.595 41.8384 129.141C42.5415 130.642 41.8941 132.428 40.3941 133.131C39.9829 133.323 39.5493 133.415 39.1236 133.415V133.415Z" fill="black"/>
<path d="M66.0459 26.3938C90.8258 6.65124 126.83 20.716 139.829 41.0917C153.439 62.4244 151.214 82.1521 150.713 88.2506C148.799 111.526 155.844 122.054 157.994 129.043C161.916 141.797 155.44 149.58 142.983 151.26C137.647 151.98 131.048 157.593 120.251 162.251C105.106 168.784 99.1057 156.979 105.899 150.64C130.103 128.051 110.421 104.799 101.861 98.0479C90.8258 89.3457 66.7786 74.4069 62.5028 51.2532C61.5755 46.2317 62.8484 28.9413 66.0459 26.3938L66.0459 26.3938Z" fill="black"/>
<path d="M114.793 130.018C114.524 130.018 114.251 129.981 113.979 129.905C112.385 129.457 111.455 127.801 111.903 126.205C115.634 112.928 102.676 99.7948 89.3057 91.9318C73.2568 82.4929 60.8086 62.6113 60.8086 51.8062C60.8086 50.1493 62.1514 48.8062 63.8086 48.8062C65.4658 48.8062 66.8086 50.1493 66.8086 51.8062C66.8086 59.833 77.5322 78.0468 92.3467 86.7599C107.644 95.7559 122.332 111.269 117.679 127.828C117.308 129.152 116.104 130.018 114.793 130.018Z" fill="black"/>
</svg>
