<svg width="180" height="170" viewBox="0 0 180 170" fill="none" xmlns="http://www.w3.org/2000/svg">
<path d="M104.705 133.44C104.705 133.44 108.243 146.633 103.473 154.513C111.645 152.598 129.076 149.897 120.251 120.512C111.427 91.1266 102.191 126.344 104.705 133.44Z" fill="#2D8C3C"/>
<path d="M139.992 103.469C139.988 103.411 139.98 103.354 139.972 103.298C139.764 101.875 139.191 100.53 138.31 99.393C148.682 88.8441 142.227 70.536 138.673 63.2577C134.912 55.5567 127.425 44.1059 119.805 40.4924C112.186 36.8789 93.6808 27.4837 69.3704 37.6016C45.0601 47.7195 36.4936 80.8095 36.1151 81.9318C34.8681 86.1312 33.9704 90.4265 33.4314 94.7738C32.6309 98.6216 32.4038 102.567 32.7574 106.481C32.7625 113.704 34.312 120.844 37.302 127.419C43.3562 139.96 63.3224 147.167 67.6293 148.955C67.6293 148.955 68.1912 161.184 66.5584 162.81C67.6469 167.689 78.8043 169.586 78.8043 169.586C81.4987 169.839 84.2131 169.399 86.6897 168.308C89.1664 167.217 91.3231 165.511 92.9551 163.352V149.531C92.9551 149.531 103.937 144.501 110.351 137.566C115.011 133.085 118.29 125.771 119.027 124.037C120.209 124.202 121.4 124.284 122.593 124.283C126.095 124.283 131.007 123.574 134.788 120.251C138.857 116.677 140.607 111.031 139.992 103.469Z" fill="white"/>
<path d="M38.0083 86.8559C36.6706 95.3653 30.505 90.6107 28.9111 85.5717C22.5269 65.389 34.8488 42.8319 42.2115 34.9746C55.714 20.5649 78.9751 18.016 81.8645 21.6522C82.9146 22.9735 80.915 30.7133 79.4826 32.1129C77.6187 33.9341 82.8066 49.6035 76.1544 49.6789C63.9258 49.8172 50.1465 61.7182 46.2943 66.7793C38.5437 76.962 38.5955 83.1215 38.0083 86.8559Z" fill="#2D8C3C"/>
<path d="M57.0071 104.866C59.7983 104.866 62.061 102.613 62.061 99.833C62.061 97.0533 59.7983 94.7998 57.0071 94.7998C54.2159 94.7998 51.9531 97.0533 51.9531 99.833C51.9531 102.613 54.2159 104.866 57.0071 104.866Z" fill="black"/>
<path d="M92.5305 111.597C95.3218 111.597 97.5845 109.344 97.5845 106.564C97.5845 103.784 95.3218 101.531 92.5305 101.531C89.7393 101.531 87.4766 103.784 87.4766 106.564C87.4766 109.344 89.7393 111.597 92.5305 111.597Z" fill="black"/>
<path d="M67.3037 165.836C66.7682 165.836 66.2427 165.692 65.7816 165.419C65.3205 165.147 64.9407 164.756 64.6816 164.288C64.4225 163.819 64.2936 163.289 64.3082 162.754C64.3228 162.219 64.4804 161.697 64.7647 161.243C65.4727 159.889 65.7051 154.421 65.249 152.157C64.8164 152.045 64.2715 151.918 63.793 151.807C57.8087 150.41 43.794 147.141 36.4405 131.536C26.961 111.424 33.0987 82.8921 33.17 82.6241C33.3728 81.8633 33.8666 81.2128 34.5448 80.8128C35.223 80.4129 36.0312 80.2956 36.7951 80.4863C37.559 80.677 38.2173 81.1603 38.628 81.8321C39.0387 82.5038 39.1688 83.3101 38.9903 84.0769C38.8546 84.7224 33.4747 111.171 41.8682 128.978C47.9845 141.957 59.5831 144.663 65.1563 145.963C67.8067 146.582 69.2667 146.922 70.1671 148.349C72.1866 151.64 71.6739 161.567 69.836 164.449C69.5648 164.875 69.1905 165.225 68.7478 165.467C68.3052 165.71 67.8085 165.837 67.3037 165.836Z" fill="black"/>
<path d="M119.908 125.783C118.626 125.792 117.346 125.712 116.076 125.543C115.686 125.484 115.312 125.35 114.974 125.146C114.637 124.943 114.343 124.676 114.109 124.359C113.636 123.719 113.437 122.917 113.555 122.13C113.673 121.344 114.099 120.636 114.739 120.163C115.379 119.69 116.18 119.491 116.967 119.609C117.098 119.628 126.513 120.931 131.74 116.031C134.502 113.44 135.692 109.385 135.275 103.977C134.25 98.0336 129.721 96.5571 126.12 97.1063C125.73 97.1663 125.332 97.1489 124.949 97.0551C124.566 96.9613 124.206 96.793 123.888 96.5597C123.57 96.3264 123.301 96.0327 123.097 95.6955C122.893 95.3583 122.757 94.9841 122.697 94.5943C122.638 94.2046 122.656 93.8069 122.75 93.4241C122.844 93.0413 123.013 92.6808 123.247 92.3632C123.48 92.0456 123.774 91.7773 124.112 91.5734C124.449 91.3695 124.824 91.2342 125.213 91.1751C131.805 90.1666 139.641 93.4744 141.216 103.126C141.229 103.206 141.239 103.286 141.246 103.367C141.847 110.768 140.02 116.51 135.816 120.434C130.947 124.978 124.128 125.783 119.908 125.783Z" fill="black"/>
<path d="M39.1569 133.258C38.5875 133.258 38.0298 133.097 37.5489 132.792C37.068 132.487 36.6838 132.052 36.441 131.537C29.6725 117.178 30.8854 98.3572 32.2106 88.4165C32.3157 87.6279 32.7298 86.9133 33.3618 86.43C33.9939 85.9466 34.792 85.7342 35.5806 85.8393C36.3693 85.9444 37.0839 86.3586 37.5672 86.9906C38.0505 87.6226 38.263 88.4207 38.1578 89.2094C37.1617 96.6855 35.528 115.527 41.8688 128.978C42.084 129.436 42.1803 129.94 42.1488 130.444C42.1173 130.948 41.959 131.436 41.6885 131.863C41.418 132.29 41.0442 132.642 40.6017 132.886C40.1591 133.129 39.6622 133.258 39.1569 133.258L39.1569 133.258Z" fill="black"/>
<path d="M66.0791 26.9042C90.859 7.28823 126.863 21.2628 139.863 41.5079C148.821 55.3894 152.669 71.9558 150.746 88.3645C148.833 111.491 155.877 121.951 158.027 128.896C161.95 141.568 155.473 149.301 143.016 150.97C137.68 151.686 131.081 157.263 120.284 161.89C105.139 168.381 99.1389 156.653 105.932 150.354C130.137 127.91 110.455 104.807 101.894 98.099C90.8589 89.4526 66.8117 74.6095 62.536 51.6042C61.6087 46.6149 62.8816 29.4354 66.0791 26.9042Z" fill="#2D8C3C"/>
<path d="M114.826 129.883C114.362 129.883 113.905 129.776 113.49 129.569C113.075 129.362 112.713 129.062 112.433 128.693C112.153 128.323 111.963 127.893 111.877 127.438C111.791 126.982 111.812 126.513 111.937 126.066C115.663 112.891 102.71 99.8521 89.3457 92.0431C73.2929 82.6622 60.8418 62.8974 60.8418 52.1538C60.8418 51.3582 61.1579 50.5951 61.7205 50.0325C62.2831 49.4699 63.0461 49.1538 63.8418 49.1538C64.6374 49.1538 65.4005 49.4699 65.9631 50.0325C66.5257 50.5951 66.8418 51.3582 66.8418 52.1538C66.8418 60.1226 77.5625 78.2079 92.3731 86.8627C107.676 95.8046 122.368 111.228 117.711 127.699C117.533 128.327 117.155 128.88 116.635 129.275C116.114 129.669 115.479 129.883 114.826 129.883Z" fill="black"/>
<path d="M114.578 166.013C113.455 166.01 112.334 165.893 111.234 165.665C110.455 165.506 109.77 165.044 109.331 164.381C108.892 163.717 108.735 162.906 108.893 162.127C109.052 161.347 109.514 160.662 110.178 160.223C110.841 159.784 111.652 159.627 112.432 159.786C117.018 160.72 119.919 158.556 123.287 156.053C124.606 155.028 125.991 154.091 127.434 153.249C132.759 150.302 138.604 148.415 144.647 147.692C149.778 146.996 153.25 144.887 154.967 141.423C157.186 136.943 156.428 130.18 153.034 124.192C147.616 114.637 147.677 102.506 147.741 89.6619C147.794 79.0143 147.849 68.0042 144.654 58.2636C143.419 54.4957 136.293 35.2181 117.313 25.7145C104.325 19.2113 88.83 18.9201 71.2617 24.8495C70.8884 24.9754 70.494 25.0266 70.1009 25.0001C69.7078 24.9736 69.3238 24.8699 68.9708 24.695C68.6178 24.5201 68.3027 24.2774 68.0435 23.9807C67.7843 23.6841 67.5861 23.3392 67.4601 22.9659C67.3342 22.5927 67.283 22.1982 67.3095 21.8052C67.336 21.4121 67.4397 21.0281 67.6146 20.6751C67.7895 20.3221 68.0322 20.007 68.3289 19.7478C68.6256 19.4886 68.9704 19.2904 69.3437 19.1644C88.4853 12.7046 105.527 13.1034 120 20.3495C136.351 28.5367 146.401 44.3371 150.355 56.394C153.853 67.06 153.796 78.5652 153.74 89.6916C153.681 101.713 153.625 113.068 158.253 121.233C161.714 127.337 164.08 136.546 160.343 144.087C158.518 147.77 154.452 152.417 145.454 153.638C140.152 154.267 135.021 155.917 130.346 158.495C129.137 159.211 127.975 160.003 126.867 160.868C123.727 163.202 119.944 166.013 114.578 166.013Z" fill="black"/>
<path d="M33.4329 97.7742C32.9639 97.7748 32.5013 97.6653 32.0824 97.4546C31.6635 97.2438 31.2998 96.9377 31.0208 96.5608C25.1272 88.6118 22.9504 77.3914 24.8899 64.9665C26.679 53.4983 31.9543 42.5357 38.9993 35.6417C39.568 35.0852 40.3344 34.7773 41.1301 34.7858C41.9258 34.7944 42.6855 35.1187 43.2421 35.6873C43.7987 36.256 44.1066 37.0225 44.0981 37.8182C44.0895 38.6139 43.7652 39.3736 43.1965 39.9302C28.2063 54.5979 26.9153 80.9489 35.8411 92.9873C36.172 93.4336 36.3724 93.963 36.4201 94.5166C36.4678 95.0701 36.3608 95.626 36.1111 96.1224C35.8614 96.6187 35.4788 97.0359 35.0059 97.3276C34.5331 97.6192 33.9885 97.7739 33.4329 97.7742Z" fill="black"/>
</svg>
