<svg width="180" height="171" viewBox="0 0 180 171" fill="none" xmlns="http://www.w3.org/2000/svg">
<path d="M86.4893 149.54C86.4893 149.54 102.829 162.76 119.009 147.57L106.419 126.16L83.2793 137.7L86.4793 149.54H86.4893Z" fill="#82BE28"/>
<path d="M123.91 38.1602C123.91 38.1602 124.23 16.2202 140.76 20.1702C157.29 24.1202 159.92 41.7502 159.92 41.7502C159.92 41.7502 160.36 60.8402 147.27 59.5202C134.18 58.2002 123.91 38.1602 123.91 38.1602Z" fill="#82BE28"/>
<path d="M143.3 63.2303C138.13 63.2303 133.99 60.3903 131.12 58.4303L130.34 57.9003C130.05 57.7103 129.88 57.6503 129.83 57.6503C129.69 57.7303 129.3 58.2903 129.2 58.5103C128.55 60.0403 126.79 60.7503 125.27 60.1003C123.75 59.4503 123.03 57.6903 123.68 56.1703C123.92 55.6103 125.26 52.7603 128.2 51.8903C129.46 51.5203 131.43 51.4003 133.7 52.9303L134.51 53.4803C138.66 56.3203 142.95 59.2603 149.04 55.2903C156.71 50.3003 157.16 40.1803 153.69 33.1803C150.12 26.2903 141.7 20.6703 133.13 23.9103C126.32 26.4903 126.16 31.6803 126 36.7103L125.97 37.6903C125.86 40.4303 124.6 41.9503 123.56 42.7403C121.12 44.6003 118.03 44.0003 117.44 43.8603C115.83 43.4803 114.83 41.8703 115.2 40.2503C115.58 38.6403 117.2 37.6403 118.81 38.0203C119.17 38.0903 119.76 38.0703 119.93 37.9703C119.89 37.9903 119.96 37.8103 119.97 37.4703L120 36.5303C120.17 31.2103 120.45 22.3103 131 18.3103C141.36 14.3803 153.41 19.6203 159.04 30.4803C164.5 41.4803 161.6 54.2903 152.31 60.3303C149.04 62.4503 146.03 63.2403 143.3 63.2403V63.2303Z" fill="black"/>
<path d="M139.86 103.62C139.86 103.56 139.85 103.51 139.84 103.45C139.51 101.39 139.06 101.01 138.18 99.5203C148.56 88.9203 142.1 70.5103 138.54 63.1903C134.78 55.4503 127.28 43.9403 119.65 40.3103C112.02 36.6803 93.5 27.2303 69.16 37.4003C44.82 47.5703 36.25 80.8303 35.87 81.9603C35.83 82.0703 34.16 87.3303 33.18 94.8703C32.37 98.6303 32.17 102.61 32.51 106.64C32.65 113.52 33.82 120.96 37.06 127.69C43.12 140.3 63.11 147.54 67.42 149.34C67.42 149.34 67.98 161.63 66.35 163.27C67.44 168.17 78.61 170.08 78.61 170.08C88.29 170.72 92.78 163.81 92.78 163.81V149.92C92.78 149.92 103.77 144.86 110.2 137.89C114.87 133.39 118.15 126.03 118.89 124.29C119.67 124.4 120.93 124.54 122.46 124.54C125.97 124.54 130.88 123.83 134.67 120.49C138.74 116.9 140.5 111.22 139.88 103.62H139.86Z" fill="white"/>
<path d="M155.879 132.35C153.769 124.87 151.099 105.02 151.099 105.02C151.099 105.02 146.269 70.1704 146.019 69.5204C145.919 69.2604 143.349 63.0904 137.539 55.8904C137.929 55.0304 137.989 54.1804 137.609 53.3504C134.419 46.4404 122.719 26.3704 82.3794 25.7304C42.0594 25.1104 27.6894 67.1104 24.8494 70.9004C22.0194 74.6904 20.6194 106.73 20.6194 106.73C20.6194 106.73 20.2094 118.93 15.1394 134.81C10.0694 150.69 32.3394 150.27 32.3394 150.27C40.9094 161.91 51.7094 155.4 51.7094 155.4C61.8894 161.32 68.2594 154.22 68.2594 154.22L66.0394 148.79C37.0694 146.32 37.5794 122.45 34.5094 114.09C31.4394 105.74 37.3694 76.8004 37.3694 76.8004C37.3694 76.8004 41.1294 68.5404 47.9494 61.5504C54.7694 54.5604 63.3594 52.1204 63.3594 52.1204C64.4894 51.6404 63.5194 84.1804 112.709 80.4204C112.709 80.4204 115.699 93.5704 126.259 94.0904C136.819 94.6104 138.929 101.54 138.209 106.72C137.489 111.9 135.049 123.8 119.859 123.02L116.349 122.81C116.349 122.81 116.849 136.2 105.509 140.88C105.509 140.88 112.729 156.23 122.819 155.34C132.909 154.45 135.759 148.14 135.759 148.14C135.759 148.14 146.039 152.7 152.959 148.76C159.879 144.82 157.969 139.82 155.859 132.34L155.879 132.35Z" fill="#82BE28"/>
<path d="M56.7787 105.031C59.5733 105.031 61.8387 102.765 61.8387 99.9706C61.8387 97.1761 59.5733 94.9106 56.7787 94.9106C53.9842 94.9106 51.7188 97.1761 51.7188 99.9706C51.7188 102.765 53.9842 105.031 56.7787 105.031Z" fill="black"/>
<path d="M92.3393 111.79C95.1339 111.79 97.3993 109.525 97.3993 106.73C97.3993 103.936 95.1339 101.67 92.3393 101.67C89.5447 101.67 87.2793 103.936 87.2793 106.73C87.2793 109.525 89.5447 111.79 92.3393 111.79Z" fill="black"/>
<path d="M67.0892 166.3C66.5392 166.3 65.9792 166.15 65.4792 165.83C64.0892 164.95 63.6692 163.11 64.5392 161.71C65.2492 160.34 65.4892 154.83 65.0292 152.55C64.5992 152.44 64.0492 152.31 63.5692 152.2C57.5792 150.8 43.5492 147.51 36.1892 131.83C26.8192 111.86 32.8492 82.9402 32.9192 82.6702C33.3792 80.9302 33.8992 79.0302 34.4692 77.0602C34.9292 75.4702 36.5992 74.5602 38.1892 75.0202C39.7792 75.4802 40.6892 77.1502 40.2292 78.7402C39.6792 80.6302 39.1892 82.4602 38.7292 84.1602C38.4892 85.3102 33.2892 111.53 41.6192 129.29C47.7492 142.34 59.3592 145.06 64.9392 146.37C67.5892 146.99 69.0592 147.33 69.9492 148.77C71.9692 152.07 71.4592 162.04 69.6192 164.93C69.0492 165.83 68.0792 166.32 67.0792 166.32L67.0892 166.3Z" fill="black"/>
<path d="M105.529 143.9C104.699 143.9 103.879 143.56 103.289 142.9C102.189 141.66 102.299 139.77 103.539 138.66C112.169 130.98 113.379 122.54 113.389 122.45C113.499 121.65 113.919 120.92 114.559 120.44C115.199 119.96 116.009 119.74 116.809 119.87C116.899 119.88 126.319 121.2 131.569 116.29C134.359 113.68 135.549 109.59 135.129 104.14C134.099 98.1603 129.569 96.6703 125.959 97.2203C124.309 97.4703 122.789 96.3503 122.539 94.7103C122.289 93.0703 123.409 91.5403 125.049 91.2903C131.659 90.2803 139.489 93.6003 141.069 103.29C141.079 103.37 141.089 103.45 141.099 103.53C141.699 110.98 139.869 116.76 135.639 120.7C130.339 125.64 122.749 126.16 118.699 126.03C117.609 129.79 114.749 136.71 107.509 143.15C106.939 143.66 106.229 143.91 105.519 143.91L105.529 143.9Z" fill="black"/>
<path d="M38.9093 133.551C37.7793 133.551 36.6993 132.911 36.1893 131.821C29.4193 117.391 30.6293 98.4806 31.9593 88.4906C32.1793 86.8506 33.6893 85.6906 35.3293 85.9106C36.9693 86.1306 38.1293 87.6406 37.9093 89.2806C36.9093 96.8006 35.2793 115.741 41.6293 129.271C42.3293 130.771 41.6893 132.561 40.1893 133.261C39.7793 133.451 39.3393 133.551 38.9193 133.551H38.9093Z" fill="black"/>
<path d="M123.819 158.41C121.179 158.41 118.499 157.69 115.809 156.25C114.349 155.47 113.799 153.65 114.579 152.19C115.359 150.73 117.179 150.18 118.639 150.96C127.959 155.95 133.529 146.29 134.139 145.18C134.539 144.44 135.229 143.9 136.039 143.69C136.849 143.48 137.719 143.62 138.419 144.08C145.089 148.43 150.169 147.58 152.679 145.33C155.309 142.99 155.769 139 153.859 135.18C149.189 125.84 147.809 101.17 147.759 100.13C147.669 98.4803 148.939 97.0603 150.589 96.9703C152.229 96.8803 153.659 98.1503 153.749 99.8003C154.119 106.58 155.809 125.66 159.229 132.49C162.339 138.71 161.309 145.67 156.679 149.8C152.889 153.18 146.059 154.96 137.709 150.6C135.889 153 132.649 156.37 128.089 157.76C126.689 158.19 125.259 158.4 123.829 158.4L123.819 158.41Z" fill="black"/>
<path d="M111.659 116.26C111.109 116.26 110.539 116.11 110.039 115.78C108.649 114.89 108.239 113.03 109.129 111.63C117.449 98.6601 108.309 76.9501 108.209 76.7301C107.559 75.2101 108.259 73.4401 109.779 72.7901C111.299 72.1401 113.059 72.8401 113.719 74.3601C114.149 75.3701 124.219 99.2101 114.169 114.87C113.599 115.76 112.629 116.25 111.639 116.25L111.659 116.26Z" fill="black"/>
<path d="M101.219 84.9803C66.4391 84.9803 59.7791 54.2803 59.7091 53.9703C59.3791 52.3503 60.4291 50.7603 62.0491 50.4303C63.6691 50.1003 65.2591 51.1503 65.5891 52.7703C65.8091 53.8303 71.4191 78.9803 101.219 78.9803C102.879 78.9803 104.219 80.3203 104.219 81.9803C104.219 83.6403 102.879 84.9803 101.219 84.9803Z" fill="black"/>
<path d="M44.8497 160.06C38.7297 160.06 33.9297 156.71 31.2097 153.66C26.1397 154.61 20.9897 152.88 17.0797 148.82C12.3697 143.92 10.7597 137.04 12.9797 131.29C18.3697 117.32 17.6397 107.07 17.6397 106.97C17.5097 105.32 18.7397 103.88 20.3897 103.74C22.0497 103.61 23.4797 104.83 23.6197 106.48C23.6597 106.95 24.4997 118.11 18.5797 133.45C17.2197 136.98 18.3597 141.48 21.4097 144.66C22.7497 146.05 26.3997 149.12 31.3797 147.42C32.6597 146.99 34.0697 147.46 34.8297 148.58C35.4397 149.46 41.1097 157.12 50.4297 152.69C51.9297 151.98 53.7197 152.61 54.4297 154.11C55.1397 155.61 54.5097 157.4 53.0097 158.11C50.0997 159.49 47.3697 160.06 44.8497 160.06Z" fill="black"/>
<path d="M148.209 87.3502C146.629 87.3502 145.309 86.1102 145.219 84.5202C145.219 84.3802 144.309 70.2002 136.449 56.3102C126.079 37.9802 108.969 28.6902 85.599 28.6902C62.229 28.6902 44.799 37.9702 34.249 56.2802C26.309 70.0602 25.329 83.9302 25.319 84.0702C25.209 85.7202 23.799 86.9802 22.129 86.8702C20.479 86.7602 19.219 85.3402 19.329 83.6802C19.369 83.0602 20.419 68.2702 29.049 53.2902C37.089 39.3402 53.429 22.7002 85.599 22.7002C117.719 22.7002 133.879 39.4802 141.789 53.5702C150.269 68.6702 151.179 83.5802 151.219 84.2102C151.309 85.8602 150.049 87.2802 148.389 87.3702C148.329 87.3702 148.279 87.3702 148.219 87.3702L148.209 87.3502Z" fill="black"/>
<path d="M123.38 86.2304C123.38 86.2304 123.33 86.2304 123.31 86.2304C121.65 86.2004 120.34 84.8304 120.37 83.1804C120.4 81.5404 121.73 80.2404 123.36 80.2304C123.57 80.2204 128.31 79.9004 135.25 73.3704C136.46 72.2304 138.36 72.2904 139.49 73.5004C140.62 74.7104 140.57 76.6104 139.36 77.7404C130.69 85.9004 124.35 86.2304 123.37 86.2304H123.38Z" fill="black"/>
</svg>
