<svg width="182" height="219" viewBox="0 0 182 219" fill="none" xmlns="http://www.w3.org/2000/svg">
<path d="M97.3895 163.101C101.63 169.411 116.5 169.331 123.33 176.661C137.05 153.591 129.78 122.311 129.78 122.311L91.8994 143.021C91.8994 143.021 94.4794 158.771 97.3795 163.091L97.3895 163.101Z" fill="#82BE28"/>
<path d="M28.1683 170.662C29.7283 165.211 31.0883 186.522 34.3883 180.332C42.3884 165.331 70.0987 168.471 71.1187 163.061C71.8987 158.931 72.0387 148.621 72.0387 148.621C59.0486 147.541 44.4784 133.431 44.4784 133.431L28.1783 170.652L28.1683 170.662Z" fill="#82BE28"/>
<path d="M144.479 102.901C144.479 102.841 144.469 102.791 144.459 102.731C144.129 100.671 143.679 100.291 142.799 98.8007C153.179 88.2006 146.719 69.7904 143.159 62.4703C139.399 54.7302 131.899 43.2201 124.269 39.59C116.638 35.96 98.1182 26.5099 73.778 36.68C49.4377 46.8501 40.8676 80.1105 40.4876 81.2405C40.4476 81.3505 38.7776 86.6106 37.7976 94.1506C36.9876 97.9107 36.7876 101.891 37.1276 105.921C37.2676 112.801 38.4376 120.241 41.6776 126.971C47.7377 139.581 67.7279 146.821 72.038 148.621C72.038 148.621 72.598 160.911 70.9679 162.551C72.058 167.451 83.2281 169.361 83.2281 169.361C92.9082 170.001 97.3982 163.091 97.3982 163.091V149.201C97.3982 149.201 108.388 144.141 114.818 137.171C119.488 132.671 122.769 125.311 123.509 123.571C124.289 123.681 125.549 123.821 127.079 123.821C130.589 123.821 135.499 123.111 139.289 119.771C143.359 116.181 145.119 110.501 144.499 102.901H144.479Z" fill="white"/>
<path d="M61.3986 104.311C64.1931 104.311 66.4586 102.046 66.4586 99.251C66.4586 96.4564 64.1931 94.191 61.3986 94.191C58.604 94.191 56.3385 96.4564 56.3385 99.251C56.3385 102.046 58.604 104.311 61.3986 104.311Z" fill="black"/>
<path d="M96.9692 111.081C99.7638 111.081 102.029 108.816 102.029 106.021C102.029 103.227 99.7638 100.961 96.9692 100.961C94.1747 100.961 91.9092 103.227 91.9092 106.021C91.9092 108.816 94.1747 111.081 96.9692 111.081Z" fill="black"/>
<path d="M71.708 165.582C71.158 165.582 70.598 165.432 70.098 165.112C68.708 164.232 68.288 162.382 69.158 160.992C69.868 159.622 70.108 154.112 69.648 151.832C69.218 151.722 68.668 151.592 68.188 151.482C62.1979 150.082 48.1678 146.791 40.8077 131.111C31.3276 110.911 37.4677 82.2308 37.5377 81.9608C41.7777 66.0506 50.5978 32.9403 90.0182 29.0102C91.6782 28.8502 93.1383 30.0502 93.2983 31.7003C93.4583 33.3503 92.2583 34.8203 90.6082 34.9803C55.3679 38.5003 47.5378 67.6906 43.3477 83.4408C43.1077 84.6008 37.9177 110.841 46.2378 128.571C52.3678 141.621 63.9779 144.341 69.558 145.651C72.208 146.271 73.6781 146.611 74.5681 148.052C76.5881 151.352 76.0781 161.312 74.2381 164.212C73.668 165.112 72.698 165.602 71.698 165.602L71.708 165.582Z" fill="black"/>
<path d="M124.38 125.321C122.2 125.321 120.71 125.101 120.54 125.081C118.9 124.831 117.78 123.301 118.02 121.661C118.27 120.021 119.8 118.901 121.43 119.141C121.55 119.161 130.96 120.471 136.2 115.561C138.99 112.951 140.18 108.861 139.76 103.411C138.73 97.4309 134.19 95.9408 130.59 96.4908C128.95 96.7409 127.42 95.6208 127.17 93.9808C126.92 92.3408 128.04 90.8108 129.68 90.5608C136.28 89.5508 144.12 92.8708 145.7 102.561C145.71 102.641 145.72 102.721 145.73 102.801C146.33 110.251 144.5 116.031 140.27 119.971C135.4 124.511 128.59 125.321 124.37 125.321H124.38Z" fill="black"/>
<path d="M43.5289 132.831C42.3989 132.831 41.3189 132.191 40.8089 131.101C34.0388 116.671 35.2488 97.7609 36.5788 87.7708C36.7989 86.1308 38.2989 84.9708 39.9489 85.1908C41.5889 85.4108 42.7489 86.9208 42.5289 88.5608C41.5289 96.0809 39.8989 115.021 46.249 128.551C46.949 130.051 46.309 131.841 44.8089 132.541C44.3989 132.731 43.9589 132.831 43.5389 132.831H43.5289Z" fill="black"/>
<path d="M51.4973 85.0005C51.4973 85.0005 48.9173 87.6205 76.8276 89.6706C104.738 91.7206 108.618 96.5606 114.528 107.861C123.388 124.811 112.618 198.452 109.938 207.062C110.378 223.502 143.468 212.982 149.938 206.172C156.738 199.572 181.569 203.642 178.159 184.172C175.059 166.421 157.808 140.751 154.748 100.961C151.688 61.1703 144.368 18.8698 96.9678 14.3098C49.5673 9.7497 22.957 55.5802 22.797 90.1106C22.637 124.641 13.5469 161.261 2.99682 172.501C-7.55329 183.742 27.5371 205.112 41.4972 205.452C30.3871 189.892 41.0572 160.561 44.6073 114.781C45.9373 101.451 46.6073 94.5606 51.4973 85.0005Z" fill="#82BE28"/>
<path d="M41.5084 208.442C40.5084 208.442 39.5284 207.942 38.9583 207.032C32.8083 197.192 32.9483 179.062 39.4384 144.441C41.8884 131.391 41.7284 116.731 41.6384 115.151C41.4484 113.691 42.3584 112.271 43.8284 111.871C45.4184 111.431 47.0784 112.381 47.5084 113.981C47.7984 115.031 48.0084 131.301 45.3384 145.541C41.0284 168.502 37.5083 193.392 44.0484 203.842C44.9284 205.252 44.4984 207.102 43.0984 207.972C42.6084 208.282 42.0584 208.432 41.5084 208.432V208.442Z" fill="black"/>
<path d="M2.99772 175.501C2.25771 175.501 1.52771 175.231 0.9477 174.691C-0.262313 173.561 -0.322314 171.661 0.817699 170.451C12.0078 158.541 19.6679 119.291 19.8079 90.1006C19.8879 71.9404 26.478 52.5302 37.4181 38.16C38.4181 36.84 40.3081 36.59 41.6281 37.59C42.9481 38.59 43.1982 40.48 42.1981 41.79C32.018 55.1502 25.888 73.2204 25.818 90.1206C25.648 125.341 16.5979 162.421 5.20775 174.551C4.61774 175.181 3.81773 175.501 3.01772 175.501H2.99772Z" fill="black"/>
<path d="M23.2784 202.222C22.9984 202.222 22.7184 202.182 22.4284 202.102C12.8483 199.282 5.61818 193.082 3.09815 185.502C2.57814 183.932 3.42815 182.232 4.99817 181.712C6.57819 181.192 8.2682 182.042 8.78821 183.612C11.6082 192.072 21.2383 195.502 24.1184 196.352C25.7084 196.822 26.6184 198.492 26.1484 200.072C25.7684 201.382 24.5684 202.222 23.2684 202.222H23.2784Z" fill="black"/>
<path d="M162.84 206.002C161.79 206.002 160.76 205.442 160.22 204.462C159.42 203.012 159.94 201.192 161.39 200.382L162.08 200.002C172.8 194.052 176.44 191.642 175.22 184.692C174.16 178.652 171.28 171.362 167.93 162.932C161.62 147.021 153.77 127.221 151.77 101.201C150.27 81.7507 147.79 61.5705 139.82 45.7903C131.13 28.5801 117.02 19.27 96.6895 17.32C80.4793 15.76 65.3492 20.34 52.9491 30.5801C51.669 31.6401 49.779 31.4501 48.729 30.1801C47.679 28.9001 47.859 27.0101 49.129 25.9601C62.7692 14.6599 79.4093 9.60989 97.2595 11.3299C119.81 13.4999 135.48 23.88 145.17 43.0703C153.61 59.7904 156.21 80.6607 157.75 100.731C159.68 125.851 167.35 145.181 173.5 160.712C176.97 169.452 179.96 177.002 181.12 183.652C183.13 195.162 175.12 199.612 164.98 205.242L164.29 205.622C163.83 205.882 163.33 206.002 162.84 206.002Z" fill="black"/>
<path d="M114.529 110.851C113.299 110.851 112.149 110.091 111.709 108.871C107.539 97.2911 90.3189 93.661 76.6187 92.661C47.7384 90.551 42.5783 80.6609 42.0883 79.5409L47.5784 77.1209L47.5284 77.0208C47.5684 77.1008 52.0085 84.8409 77.0487 86.671C99.249 88.291 113.189 95.271 117.349 106.831C117.909 108.391 117.099 110.111 115.539 110.671C115.199 110.791 114.859 110.851 114.519 110.851H114.529Z" fill="black"/>
<path d="M97.7285 78.0907C94.6885 76.9807 93.1185 73.6207 94.2285 70.5707C95.3385 67.5206 98.6985 65.9606 101.749 67.0706C104.799 68.1806 106.359 71.5407 105.249 74.5907C104.139 77.6407 100.769 79.2007 97.7285 78.0907Z" fill="white"/>
<path d="M75.9588 76.3104C72.9187 75.2004 71.3487 71.8404 72.4587 68.7904C73.5687 65.7403 76.9288 64.1803 79.9788 65.2903C83.0288 66.4003 84.5889 69.7604 83.4788 72.8104C82.3688 75.8604 78.9988 77.4205 75.9588 76.3104Z" fill="white"/>
<path d="M56.398 71.4203C53.358 70.3102 51.788 66.9502 52.898 63.9002C54.008 60.8501 57.368 59.2901 60.418 60.4001C63.4681 61.5102 65.0281 64.8702 63.9181 67.9202C62.8081 70.9702 59.438 72.5303 56.398 71.4203Z" fill="white"/>
<path d="M40.7279 63.4202C37.6879 62.3102 36.1179 58.9501 37.2279 55.9001C38.3379 52.8501 41.6979 51.29 44.748 52.4001C47.798 53.5101 49.358 56.8701 48.248 59.9201C47.138 62.9702 43.7679 64.5302 40.7279 63.4202Z" fill="white"/>
<path d="M117.069 77.7504C114.029 76.6404 112.459 73.2804 113.569 70.2303C114.679 67.1803 118.039 65.6203 121.089 66.7303C124.139 67.8403 125.699 71.2003 124.589 74.2504C123.479 77.3004 120.109 78.8604 117.069 77.7504Z" fill="white"/>
<path d="M135.729 72.7504C132.689 71.6403 131.119 68.2803 132.229 65.2303C133.339 62.1802 136.699 60.6202 139.749 61.7302C142.799 62.8402 144.359 66.2003 143.249 69.2503C142.139 72.3003 138.769 73.8604 135.729 72.7504Z" fill="white"/>
<path d="M108.268 213.862C107.668 213.862 107.068 213.682 106.538 213.312C105.278 212.412 104.908 210.722 105.658 209.402C107.598 204.362 120.659 131.371 111.748 108.971C111.138 107.431 111.888 105.691 113.428 105.071C114.969 104.461 116.709 105.211 117.329 106.751C122.499 119.751 120.859 146.971 118.579 167.521C116.559 185.682 112.548 210.052 110.738 212.602C110.158 213.432 109.228 213.872 108.288 213.872L108.268 213.862Z" fill="black"/>
<path d="M151.5 190.672C150.01 190.672 148.72 189.562 148.529 188.042C148.269 185.992 147.989 183.862 147.699 181.672C146.489 172.522 145.109 162.152 145.169 153.872C145.179 152.212 146.559 150.852 148.189 150.892C149.85 150.902 151.18 152.252 151.17 153.912C151.12 161.782 152.46 171.932 153.65 180.882C153.94 183.082 154.23 185.232 154.48 187.292C154.69 188.932 153.52 190.432 151.88 190.642C151.75 190.662 151.63 190.662 151.5 190.662V190.672Z" fill="black"/>
<path d="M119.279 218.502C117.719 218.502 116.399 217.292 116.289 215.712C116.179 214.062 117.419 212.622 119.079 212.512C131.379 211.662 144.11 210.782 150.43 204.062C151.56 202.852 153.46 202.802 154.67 203.932C155.88 205.072 155.93 206.962 154.8 208.172C146.86 216.612 132.949 217.572 119.489 218.492C119.419 218.492 119.349 218.492 119.279 218.492V218.502Z" fill="black"/>
</svg>
