<svg width="180" height="185" viewBox="0 0 180 185" fill="none" xmlns="http://www.w3.org/2000/svg">
<path d="M140.08 118.386C140.076 118.328 140.068 118.271 140.06 118.214C139.852 116.784 139.279 115.432 138.396 114.289C148.779 103.684 142.318 85.2802 138.76 77.9636C134.995 70.2222 127.499 58.7113 119.871 55.0788C112.242 51.4463 93.7166 42.0018 69.3788 52.1728C45.041 62.3438 36.4648 95.6077 36.0859 96.7359C34.8373 100.958 33.9387 105.276 33.3991 109.645C32.5977 113.514 32.3704 117.479 32.7244 121.414C32.7291 128.673 34.2801 135.849 37.2741 142.462C43.3351 155.069 63.3238 162.313 67.6357 164.111C67.6357 164.111 68.1982 176.405 66.5635 178.039C67.6533 182.943 78.8232 184.85 78.8232 184.85C81.5232 185.102 84.2427 184.659 86.7226 183.562C89.2025 182.465 91.3602 180.751 92.99 178.584V164.69C92.99 164.69 103.984 159.634 110.406 152.662C115.071 148.157 118.354 140.805 119.092 139.062C120.274 139.228 121.467 139.31 122.661 139.309C126.168 139.309 131.085 138.597 134.87 135.256C138.943 131.663 140.696 125.987 140.08 118.386Z" fill="white"/>
<path d="M57.0011 119.791C59.7955 119.791 62.0607 117.525 62.0607 114.731C62.0607 111.937 59.7955 109.671 57.0011 109.671C54.2067 109.671 51.9414 111.937 51.9414 114.731C51.9414 117.525 54.2067 119.791 57.0011 119.791Z" fill="black"/>
<path d="M92.5655 126.557C95.3599 126.557 97.6252 124.292 97.6252 121.497C97.6252 118.703 95.3599 116.438 92.5655 116.438C89.7712 116.438 87.5059 118.703 87.5059 121.497C87.5059 124.292 89.7712 126.557 92.5655 126.557Z" fill="black"/>
<path d="M67.3108 181.065C66.7757 181.064 66.2505 180.921 65.7897 180.649C65.3288 180.377 64.949 179.987 64.6897 179.519C64.4304 179.051 64.301 178.522 64.3149 177.987C64.3288 177.452 64.4855 176.931 64.7688 176.477C65.4827 175.111 65.7151 169.592 65.2542 167.315C64.8206 167.202 64.2727 167.074 63.7932 166.961C57.802 165.558 43.7727 162.271 36.4124 146.59C26.9319 126.391 33.0686 97.7091 33.1399 97.4397C37.3802 81.5266 46.2034 48.4209 85.6223 44.4867C86.0148 44.4466 86.4114 44.4844 86.7893 44.5978C87.1671 44.7112 87.5189 44.898 87.8245 45.1476C88.1301 45.3972 88.3834 45.7045 88.5701 46.0522C88.7567 46.3998 88.8729 46.7808 88.9121 47.1733C88.9512 47.5659 88.9126 47.9624 88.7983 48.34C88.6841 48.7176 88.4965 49.069 88.2462 49.374C87.996 49.679 87.688 49.9317 87.34 50.1175C86.992 50.3034 86.6107 50.4187 86.218 50.457C50.9817 53.9739 43.1516 83.1706 38.9563 98.914C38.7171 100.077 33.5237 126.314 41.844 144.041C47.97 157.092 59.5813 159.812 65.1614 161.12C67.8157 161.741 69.2776 162.084 70.1761 163.517C72.1936 166.817 71.6829 176.78 69.846 179.673C69.5751 180.1 69.2007 180.451 68.7574 180.695C68.3141 180.938 67.8165 181.066 67.3108 181.065Z" fill="black"/>
<path d="M57.0011 119.403C59.5938 119.403 61.6956 117.301 61.6956 114.708C61.6956 112.115 59.5938 110.014 57.0011 110.014C54.4084 110.014 52.3066 112.115 52.3066 114.708C52.3066 117.301 54.4084 119.403 57.0011 119.403Z" fill="black"/>
<path d="M92.5304 126.192C95.1231 126.192 97.2249 124.09 97.2249 121.497C97.2249 118.905 95.1231 116.803 92.5304 116.803C89.9377 116.803 87.8359 118.905 87.8359 121.497C87.8359 124.09 89.9377 126.192 92.5304 126.192Z" fill="black"/>
<path d="M105.751 158.662C105.143 158.663 104.549 158.478 104.048 158.133C103.547 157.788 103.163 157.299 102.946 156.73C102.73 156.162 102.691 155.541 102.836 154.95C102.98 154.36 103.301 153.827 103.755 153.422C112.486 145.646 113.597 137.313 113.607 137.23C113.656 136.831 113.784 136.447 113.984 136.099C114.184 135.751 114.452 135.447 114.771 135.204C115.091 134.962 115.456 134.786 115.845 134.687C116.234 134.588 116.638 134.568 117.035 134.628C117.123 134.641 126.551 135.961 131.795 131.048C134.58 128.439 135.778 124.35 135.359 118.893C134.332 112.909 129.791 111.421 126.191 111.974C125.405 112.095 124.603 111.898 123.961 111.428C123.32 110.957 122.892 110.25 122.771 109.464C122.65 108.678 122.847 107.875 123.318 107.234C123.788 106.592 124.495 106.164 125.281 106.044C131.888 105.031 139.725 108.351 141.301 118.046C141.313 118.126 141.323 118.205 141.33 118.286C141.933 125.736 140.096 131.512 135.869 135.453C130.572 140.392 122.988 140.915 118.931 140.785C116.88 147.427 113.004 153.358 107.745 157.903C107.196 158.393 106.486 158.663 105.751 158.662Z" fill="black"/>
<path d="M39.1302 148.316C38.5599 148.316 38.0015 148.154 37.5201 147.848C37.0388 147.543 36.6546 147.106 36.4124 146.59C29.6399 132.159 30.8538 113.247 32.1809 103.258C32.2322 102.867 32.36 102.49 32.5571 102.148C32.7542 101.807 33.0168 101.507 33.3297 101.267C33.6427 101.027 33.9999 100.851 34.3809 100.75C34.762 100.648 35.1593 100.622 35.5503 100.674C35.9412 100.726 36.3181 100.855 36.6594 101.052C37.0006 101.25 37.2995 101.513 37.5389 101.827C37.7784 102.14 37.9537 102.497 38.0548 102.879C38.1559 103.26 38.1808 103.657 38.1282 104.048C37.1302 111.565 35.4934 130.509 41.844 144.041C42.0583 144.498 42.1537 145.002 42.1216 145.505C42.0895 146.009 41.9308 146.497 41.6603 146.923C41.3897 147.349 41.016 147.7 40.5738 147.944C40.1315 148.187 39.635 148.315 39.1302 148.316V148.316Z" fill="black"/>
<path d="M124.029 50.2967C116.555 45.2437 105.331 40.126 94.7737 38.9847C63.3491 35.5872 20.6099 59.1765 25.2162 93.4263C25.9 98.5105 26.4212 102.411 42.6961 102.411C48.5168 102.411 61.1647 98.9218 63.1851 97.892C89.7319 84.3615 90.9344 80.8079 101.21 84.7183C109.515 87.8783 116.72 100.441 127.9 102.057C130.198 102.389 125.587 105.662 128.377 105.852C138.404 106.537 138.519 115.33 141.688 111.077C143.398 108.782 146.823 90.4718 142.125 75.48C135.948 55.7675 126.746 52.817 124.029 50.2967Z" fill="black"/>
<path d="M138.391 117.289C137.85 117.288 137.318 117.141 136.854 116.862C136.389 116.584 136.008 116.185 135.752 115.708C135.496 115.231 135.373 114.693 135.398 114.152C135.422 113.611 135.593 113.087 135.891 112.634C136.669 111.451 154.347 83.7035 126.056 55.9238C117.277 48.0225 106.204 43.1326 94.45 41.9673C76.3885 40.0145 56.451 46.2873 43.6561 57.9483C38.6572 62.3735 34.6853 67.8373 32.0181 73.9576C29.3509 80.0779 28.0529 86.7069 28.2147 93.3812C28.2266 94.1768 27.9219 94.9446 27.3677 95.5156C26.8135 96.0866 26.0552 96.4141 25.2596 96.426L25.2137 96.4264C24.4261 96.426 23.6701 96.116 23.1091 95.5631C22.548 95.0103 22.2268 94.2591 22.2147 93.4715C22.0304 85.9459 23.4922 78.4709 26.4977 71.5691C29.5032 64.6673 33.98 58.5052 39.6151 53.5138C53.8387 40.5498 75.0965 33.8404 95.0946 36.0019C108.159 37.3154 120.46 42.7754 130.198 51.5831C162.165 82.9709 141.11 115.621 140.894 115.947C140.621 116.36 140.249 116.699 139.812 116.933C139.375 117.167 138.887 117.289 138.391 117.289Z" fill="black"/>
<path d="M160.891 44.9438C168.153 32.6487 162.886 17.4387 151.951 9.1438C140.881 1.03083 124.8 0.322843 115.089 10.7918C105.781 20.8256 110.913 30.1506 113.939 36.882C116.479 42.5314 109.983 44.0533 109.983 44.0533C108.237 44.9158 107.667 48.412 117.083 55.433C126.499 62.4541 130.132 61.3024 130.469 59.3283C130.469 59.3283 130.074 52.6683 136.213 53.4903C143.528 54.47 153.93 56.7279 160.891 44.9438Z" fill="black"/>
<path d="M130.469 59.3283C130.469 59.3283 130.074 52.6683 136.213 53.4903C143.528 54.47 153.93 56.7278 160.89 44.9438C168.153 32.6486 162.885 17.4386 151.951 9.14377C140.881 1.03084 124.8 0.322848 115.088 10.7918C105.781 20.8256 110.913 30.1506 113.939 36.882C116.479 42.5314 109.983 44.0533 109.983 44.0533" fill="black"/>
<path d="M130.464 62.3138C129.702 62.316 128.967 62.0265 128.411 61.5044C127.855 60.9824 127.52 60.2675 127.474 59.5062C127.447 59.0437 127.286 54.9121 130.081 52.3159C130.96 51.5364 132.005 50.9689 133.137 50.657C134.269 50.3451 135.458 50.2971 136.612 50.5168L137.948 50.7019C144.896 51.6797 152.774 52.7887 158.308 43.4181C165.113 31.8962 159.178 18.3911 150.138 11.5339C141.027 4.85642 126.389 3.02305 117.287 12.8321C109.886 20.8109 113.197 28.044 116.118 34.4258L116.676 35.6516C117.216 36.6944 117.51 37.8472 117.534 39.0213C117.558 40.1954 117.312 41.3593 116.815 42.4233C115.124 45.8429 111.119 46.8685 110.668 46.9742C110.285 47.0641 109.887 47.0776 109.498 47.0139C109.11 46.9501 108.737 46.8104 108.402 46.6028C108.068 46.3951 107.777 46.1235 107.547 45.8036C107.317 45.4836 107.153 45.1215 107.063 44.7379C106.973 44.3543 106.959 43.9568 107.023 43.568C107.087 43.1792 107.227 42.8068 107.434 42.472C107.642 42.1372 107.914 41.8466 108.234 41.6167C108.553 41.3869 108.916 41.2223 109.299 41.1324C110.151 40.937 110.908 40.4504 111.44 39.7566C111.577 39.1984 111.492 38.6089 111.203 38.1119L110.662 36.9229C107.517 30.0511 102.764 19.6665 112.889 8.75154C122.949 -2.09292 140.505 -2.9634 153.725 6.724C166.823 16.6591 170.996 33.7331 163.474 46.4695C155.904 59.287 144.594 57.6964 137.112 56.6434L135.815 56.4638C135.256 56.3287 134.667 56.4156 134.171 56.7064C133.654 57.422 133.405 58.296 133.465 59.1766C133.498 59.9683 133.218 60.741 132.685 61.3275C132.152 61.914 131.41 62.2669 130.618 62.3099C130.567 62.3125 130.515 62.3138 130.464 62.3138Z" fill="black"/>
<path d="M41.3309 107.758C37.3264 107.883 33.3533 107.013 29.7675 105.226C27.6418 104.106 25.8353 102.465 24.5172 100.456C23.1991 98.4469 22.4126 96.1363 22.2313 93.7404C22.1481 92.9492 22.3825 92.1573 22.8831 91.5389C23.3838 90.9205 24.1095 90.5263 24.9008 90.4431C25.692 90.3598 26.4839 90.5942 27.1023 91.0949C27.7207 91.5955 28.1149 92.3212 28.1981 93.1125C28.2782 94.5396 28.729 95.9211 29.5062 97.1207C30.2834 98.3203 31.36 99.2965 32.6298 99.9528C39.3485 103.6 52.6649 101.563 65.7684 94.8847C72.3801 91.5385 78.8079 87.8408 85.0243 83.8074C92.247 79.188 94.6786 77.6326 102.618 80.6539C107.467 82.499 110.434 86.3421 113.054 89.7327C116.824 94.6151 119.802 98.4712 127.54 97.5413C128.329 97.449 129.122 97.673 129.745 98.1643C130.369 98.6557 130.773 99.3742 130.867 100.163C130.962 100.951 130.741 101.745 130.251 102.37C129.762 102.995 129.045 103.401 128.257 103.498C117.135 104.836 112.24 98.4951 108.306 93.4003C105.964 90.3687 103.752 87.5052 100.483 86.2615C95.3671 84.3143 95.0975 84.4852 88.2577 88.8616C81.8771 93.0013 75.2794 96.7963 68.493 100.23C58.7743 105.184 49.2186 107.758 41.3309 107.758Z" fill="black"/>
</svg>
