<svg width="180" height="185" viewBox="0 0 180 185" fill="none" xmlns="http://www.w3.org/2000/svg">
<path d="M140.08 118.385C140.076 118.327 140.068 118.27 140.06 118.214C139.852 116.784 139.279 115.432 138.396 114.288C148.779 103.684 142.318 85.2797 138.76 77.9631C134.995 70.2217 127.499 58.7109 119.871 55.0784C112.242 51.4459 93.7166 42.0014 69.3788 52.1724C45.041 62.3434 36.4648 95.6072 36.0859 96.7354C34.8373 100.957 33.9387 105.275 33.3991 109.645C32.5977 113.513 32.3704 117.479 32.7244 121.413C32.7291 128.673 34.2801 135.848 37.2741 142.462C43.3351 155.068 63.3238 162.313 67.6357 164.11C67.6357 164.11 68.1982 176.404 66.5635 178.039C67.6533 182.943 78.8232 184.85 78.8232 184.85C81.5232 185.102 84.2427 184.658 86.7226 183.561C89.2025 182.465 91.3602 180.751 92.99 178.584V164.689C92.99 164.689 103.984 159.633 110.406 152.662C115.071 148.157 118.354 140.804 119.092 139.062C120.274 139.227 121.467 139.31 122.661 139.309C126.168 139.309 131.085 138.596 134.87 135.256C138.943 131.663 140.696 125.987 140.08 118.385Z" fill="white"/>
<path d="M57.0011 119.791C59.7955 119.791 62.0607 117.526 62.0607 114.732C62.0607 111.937 59.7955 109.672 57.0011 109.672C54.2067 109.672 51.9414 111.937 51.9414 114.732C51.9414 117.526 54.2067 119.791 57.0011 119.791Z" fill="black"/>
<path d="M92.5655 126.557C95.3599 126.557 97.6252 124.292 97.6252 121.497C97.6252 118.703 95.3599 116.438 92.5655 116.438C89.7712 116.438 87.5059 118.703 87.5059 121.497C87.5059 124.292 89.7712 126.557 92.5655 126.557Z" fill="white"/>
<path d="M67.3108 181.065C66.7757 181.064 66.2505 180.92 65.7897 180.648C65.3288 180.377 64.949 179.986 64.6897 179.518C64.4304 179.05 64.301 178.521 64.3149 177.986C64.3288 177.452 64.4855 176.93 64.7688 176.476C65.4827 175.11 65.7151 169.592 65.2542 167.314C64.8206 167.202 64.2727 167.073 63.7932 166.961C57.802 165.557 43.7727 162.271 36.4124 146.589C26.9319 126.39 33.0686 97.7087 33.1399 97.4392C37.3802 81.5261 46.2034 48.4204 85.6223 44.4862C86.0148 44.4461 86.4114 44.4839 86.7893 44.5973C87.1671 44.7107 87.5189 44.8976 87.8245 45.1471C88.1301 45.3967 88.3834 45.7041 88.5701 46.0517C88.7567 46.3993 88.8729 46.7803 88.9121 47.1729C88.9512 47.5654 88.9126 47.9619 88.7983 48.3395C88.6841 48.7171 88.4965 49.0685 88.2462 49.3735C87.996 49.6786 87.688 49.9312 87.34 50.1171C86.992 50.3029 86.6107 50.4183 86.218 50.4565C50.9817 53.9734 43.1516 83.1702 38.9563 98.9135C38.7171 100.077 33.5237 126.313 41.844 144.04C47.97 157.092 59.5813 159.812 65.1614 161.119C67.8157 161.741 69.2776 162.083 70.1761 163.516C72.1936 166.816 71.6829 176.78 69.846 179.672C69.5751 180.099 69.2007 180.451 68.7574 180.694C68.3141 180.938 67.8165 181.065 67.3108 181.065Z" fill="black"/>
<path d="M57.0011 119.403C59.5938 119.403 61.6956 117.301 61.6956 114.708C61.6956 112.115 59.5938 110.014 57.0011 110.014C54.4084 110.014 52.3066 112.115 52.3066 114.708C52.3066 117.301 54.4084 119.403 57.0011 119.403Z" fill="black"/>
<path d="M92.5304 126.192C95.1231 126.192 97.2249 124.09 97.2249 121.497C97.2249 118.905 95.1231 116.803 92.5304 116.803C89.9377 116.803 87.8359 118.905 87.8359 121.497C87.8359 124.09 89.9377 126.192 92.5304 126.192Z" fill="black"/>
<path d="M105.751 158.662C105.143 158.663 104.549 158.478 104.048 158.133C103.547 157.788 103.163 157.299 102.946 156.73C102.73 156.162 102.691 155.541 102.836 154.95C102.98 154.36 103.301 153.827 103.755 153.422C112.486 145.646 113.597 137.313 113.607 137.23C113.656 136.831 113.784 136.447 113.984 136.099C114.184 135.751 114.452 135.447 114.771 135.204C115.091 134.962 115.456 134.786 115.845 134.687C116.234 134.588 116.638 134.568 117.035 134.628C117.123 134.641 126.551 135.961 131.795 131.048C134.58 128.439 135.778 124.35 135.359 118.893C134.332 112.909 129.791 111.421 126.191 111.974C125.405 112.095 124.603 111.898 123.961 111.428C123.32 110.957 122.892 110.25 122.771 109.464C122.65 108.678 122.847 107.875 123.318 107.234C123.788 106.592 124.495 106.164 125.281 106.044C131.888 105.031 139.725 108.351 141.301 118.046C141.313 118.126 141.323 118.205 141.33 118.286C141.933 125.736 140.096 131.512 135.869 135.453C130.572 140.392 122.988 140.915 118.931 140.785C116.88 147.427 113.004 153.358 107.745 157.903C107.196 158.393 106.486 158.663 105.751 158.662Z" fill="black"/>
<path d="M39.1302 148.316C38.5599 148.317 38.0015 148.154 37.5201 147.849C37.0388 147.543 36.6546 147.107 36.4124 146.59C29.6399 132.159 30.8538 113.247 32.1809 103.259C32.2322 102.868 32.36 102.49 32.5571 102.149C32.7542 101.807 33.0168 101.508 33.3297 101.268C33.6427 101.028 33.9999 100.852 34.3809 100.75C34.762 100.648 35.1593 100.623 35.5503 100.675C35.9412 100.726 36.3181 100.855 36.6594 101.053C37.0006 101.251 37.2995 101.514 37.5389 101.827C37.7784 102.14 37.9537 102.498 38.0548 102.879C38.1559 103.26 38.1808 103.658 38.1282 104.049C37.1302 111.565 35.4934 130.51 41.844 144.041C42.0583 144.498 42.1537 145.002 42.1216 145.506C42.0895 146.01 41.9308 146.497 41.6603 146.924C41.3897 147.35 41.016 147.701 40.5738 147.944C40.1315 148.188 39.635 148.316 39.1302 148.316V148.316Z" fill="black"/>
<path d="M124.029 50.2971C116.555 45.2441 105.331 40.1265 94.7737 38.9851C63.3491 35.5877 20.6099 59.177 25.2162 93.4268C25.9 98.511 26.4212 102.412 42.6961 102.412C48.5168 102.412 61.1647 98.9223 63.1851 97.8925C89.7319 84.362 90.9344 80.8084 101.21 84.7188C109.515 87.8788 116.72 100.442 127.9 102.057C130.198 102.39 125.587 105.662 128.377 105.853C138.404 106.537 138.519 115.331 141.688 111.078C143.398 108.783 146.823 90.4723 142.125 75.4805C135.948 55.768 126.746 52.8175 124.029 50.2971Z" fill="black"/>
<path d="M138.391 117.288C137.85 117.288 137.318 117.14 136.854 116.862C136.389 116.584 136.008 116.185 135.752 115.708C135.496 115.23 135.373 114.693 135.398 114.152C135.422 113.61 135.593 113.086 135.891 112.634C136.669 111.45 154.347 83.703 126.056 55.9233C117.277 48.022 106.204 43.1322 94.45 41.9668C76.3885 40.014 56.451 46.2868 43.6561 57.9478C38.6572 62.373 34.6853 67.8368 32.0181 73.9571C29.3509 80.0774 28.0529 86.7065 28.2147 93.3807C28.2266 94.1763 27.9219 94.9441 27.3677 95.5151C26.8135 96.0861 26.0552 96.4136 25.2596 96.4255L25.2137 96.4259C24.4261 96.4255 23.6701 96.1155 23.1091 95.5627C22.548 95.0099 22.2268 94.2586 22.2147 93.471C22.0304 85.9455 23.4922 78.4704 26.4977 71.5686C29.5032 64.6668 33.98 58.5047 39.6151 53.5133C53.8387 40.5493 75.0965 33.8399 95.0946 36.0014C108.159 37.3149 120.46 42.7749 130.198 51.5826C162.165 82.9704 141.11 115.621 140.894 115.947C140.621 116.36 140.249 116.698 139.812 116.933C139.375 117.167 138.887 117.289 138.391 117.288Z" fill="black"/>
<path d="M160.891 44.9448C168.153 32.6497 162.886 17.4397 151.951 9.14478C140.881 1.03181 124.8 0.323819 115.089 10.7928C105.781 20.8266 110.913 30.1516 113.939 36.883C116.479 42.5324 109.983 44.0543 109.983 44.0543C108.237 44.9168 107.667 48.4129 117.083 55.434C126.499 62.4551 130.132 61.3034 130.469 59.3292C130.469 59.3292 130.074 52.6692 136.213 53.4912C143.528 54.471 153.93 56.7288 160.891 44.9448Z" fill="black"/>
<path d="M130.469 59.3292C130.469 59.3292 130.074 52.6692 136.213 53.4912C143.528 54.471 153.93 56.7288 160.89 44.9447C168.153 32.6496 162.885 17.4396 151.951 9.14475C140.881 1.03182 124.8 0.323825 115.088 10.7928C105.781 20.8266 110.913 30.1516 113.939 36.883C116.479 42.5324 109.983 44.0543 109.983 44.0543" fill="black"/>
<path d="M130.464 62.3138C129.702 62.316 128.967 62.0265 128.411 61.5044C127.855 60.9824 127.52 60.2675 127.474 59.5062C127.447 59.0437 127.286 54.9121 130.081 52.3159C130.96 51.5364 132.005 50.9689 133.137 50.657C134.269 50.3451 135.458 50.2971 136.612 50.5168L137.948 50.7019C144.896 51.6797 152.774 52.7887 158.308 43.4181C165.113 31.8962 159.178 18.3911 150.138 11.5339C141.027 4.85642 126.389 3.02305 117.287 12.8321C109.886 20.8109 113.197 28.044 116.118 34.4258L116.676 35.6516C117.216 36.6944 117.51 37.8472 117.534 39.0213C117.558 40.1954 117.312 41.3593 116.815 42.4233C115.124 45.8429 111.119 46.8685 110.668 46.9742C110.285 47.0641 109.887 47.0776 109.498 47.0139C109.11 46.9501 108.737 46.8104 108.402 46.6028C108.068 46.3951 107.777 46.1235 107.547 45.8036C107.317 45.4836 107.153 45.1215 107.063 44.7379C106.973 44.3543 106.959 43.9568 107.023 43.568C107.087 43.1792 107.227 42.8068 107.434 42.472C107.642 42.1372 107.914 41.8466 108.234 41.6167C108.553 41.3869 108.916 41.2223 109.299 41.1324C110.151 40.937 110.908 40.4504 111.44 39.7566C111.577 39.1984 111.492 38.6089 111.203 38.1119L110.662 36.9229C107.517 30.0511 102.764 19.6665 112.889 8.75154C122.949 -2.09292 140.505 -2.9634 153.725 6.724C166.823 16.6591 170.996 33.7331 163.474 46.4695C155.904 59.287 144.594 57.6964 137.112 56.6434L135.815 56.4638C135.256 56.3287 134.667 56.4156 134.171 56.7064C133.654 57.422 133.405 58.296 133.465 59.1766C133.498 59.9683 133.218 60.741 132.685 61.3275C132.152 61.914 131.41 62.2669 130.618 62.3099C130.567 62.3125 130.515 62.3138 130.464 62.3138Z" fill="black"/>
<path d="M41.3309 107.759C37.3264 107.884 33.3533 107.014 29.7675 105.227C27.6418 104.107 25.8353 102.466 24.5172 100.457C23.1991 98.4479 22.4126 96.1373 22.2313 93.7414C22.1481 92.9501 22.3825 92.1582 22.8831 91.5399C23.3838 90.9215 24.1095 90.5273 24.9008 90.444C25.692 90.3608 26.4839 90.5952 27.1023 91.0958C27.7207 91.5965 28.1149 92.3222 28.1981 93.1135C28.2782 94.5406 28.729 95.9221 29.5062 97.1217C30.2834 98.3213 31.36 99.2975 32.6298 99.9538C39.3485 103.601 52.6649 101.564 65.7684 94.8857C72.3801 91.5395 78.8079 87.8418 85.0243 83.8084C92.247 79.189 94.6786 77.6336 102.618 80.6548C107.467 82.4999 110.434 86.3431 113.054 89.7337C116.824 94.616 119.802 98.4722 127.54 97.5423C128.329 97.4499 129.122 97.674 129.745 98.1653C130.369 98.6567 130.773 99.3752 130.867 100.164C130.962 100.952 130.741 101.746 130.251 102.371C129.762 102.996 129.045 103.402 128.257 103.499C117.135 104.837 112.24 98.4961 108.306 93.4013C105.964 90.3697 103.752 87.5062 100.483 86.2625C95.3671 84.3152 95.0975 84.4861 88.2577 88.8626C81.8771 93.0022 75.2794 96.7973 68.493 100.231C58.7743 105.185 49.2186 107.759 41.3309 107.759Z" fill="black"/>
</svg>
