<svg width="388" height="236" viewBox="0 0 388 236" fill="none" xmlns="http://www.w3.org/2000/svg">
<path d="M384.008 232.804C392.61 187.909 345.315 70.272 249.205 24.5275C153.094 -21.217 28.3749 14.0442 3.00681 55.1472C3.00681 55.1472 52.5125 70.5821 81.6217 121.388C123.095 118.587 165.338 149.427 180.813 171.204C215.434 166.683 267.111 188.77 288.457 216.839C319.737 211.297 356.279 210.436 384.008 232.824V232.804Z" fill="#2D8C3C"/>
<path d="M384.007 235.805C383.327 235.805 382.667 235.575 382.127 235.135C360.35 217.559 329.89 212.527 288.987 219.77C287.367 220.06 285.796 218.969 285.506 217.339C285.216 215.708 286.306 214.148 287.937 213.858C328.159 206.736 358.919 211.137 381.746 227.322C383.957 203.575 372.914 165.623 353.257 130.441C327.209 83.8166 289.797 47.165 247.914 27.2287C203.79 6.23201 158.286 4.50146 127.866 6.75218C90.4841 9.51305 54.7627 19.7563 29.8548 34.8511C28.4344 35.7114 26.5938 35.2612 25.7335 33.8408C24.8733 32.4203 25.3234 30.5797 26.7438 29.7195C52.432 14.1445 89.1336 3.59118 127.426 0.760278C158.556 -1.53045 205.18 0.250117 250.495 21.817C293.488 42.2834 331.841 79.8254 358.499 127.52C380.206 166.373 391.65 208.916 386.958 233.364C386.758 234.404 386.038 235.255 385.047 235.615C384.707 235.735 384.357 235.795 384.017 235.795L384.007 235.805Z" fill="black"/>
<path d="M274.333 206.085C273.392 206.085 272.462 205.645 271.882 204.825C269.841 201.944 262.779 196.862 255.817 193.261C255.777 193.241 255.727 193.211 255.687 193.191C243.603 186.139 230.179 180.617 216.874 177.236C199.739 172.475 181.293 174.175 181.103 174.185C180.033 174.275 178.992 173.815 178.372 172.935C163.307 151.748 122.204 121.649 81.8315 124.38C80.6811 124.47 79.6008 123.879 79.0206 122.879C50.8817 73.7534 2.59637 58.1585 2.10622 58.0085C0.525716 57.5083 -0.354563 55.8278 0.135592 54.2473C0.625748 52.6668 2.30628 51.7865 3.89679 52.2766C5.93743 52.9168 53.8426 68.3217 83.292 118.278C124.455 116.447 165.878 146.206 182.253 168.073C187.415 167.743 203.17 167.193 218.415 171.424C232.169 174.926 246.094 180.647 258.648 187.96C265.24 191.381 273.702 197.013 276.773 201.344C277.734 202.694 277.414 204.565 276.063 205.525C275.533 205.895 274.933 206.075 274.333 206.075V206.085Z" fill="black"/>
<path d="M249.206 27.5287C248.786 27.5287 248.345 27.4387 247.935 27.2487C246.435 26.5484 245.785 24.7579 246.485 23.2574L253.447 8.32265C254.147 6.82217 255.928 6.17197 257.438 6.87219C258.939 7.57241 259.589 9.36298 258.889 10.8635L251.927 25.7982C251.416 26.8885 250.336 27.5287 249.206 27.5287Z" fill="black"/>
<path d="M97.3773 99.9318C96.7371 99.9318 96.0969 99.7318 95.5467 99.3116C94.2363 98.3013 93.9862 96.4207 94.9966 95.1003C113.522 71.0027 154.095 29.4895 217.615 22.1872C219.256 21.9871 220.746 23.1775 220.937 24.828C221.127 26.4785 219.946 27.959 218.296 28.1491C156.976 35.2013 117.704 75.4141 99.7581 98.7615C99.1679 99.5317 98.2776 99.9318 97.3773 99.9318Z" fill="black"/>
<path d="M294.02 188.77C293.92 188.77 293.82 188.77 293.72 188.76C292.069 188.6 290.869 187.129 291.029 185.479C294.86 146.436 287.768 109.335 279.145 94.2397C278.325 92.7993 278.825 90.9687 280.265 90.1484C281.706 89.3282 283.536 89.8283 284.357 91.2688C289.278 99.8815 293.319 113.756 295.74 130.321C298.371 148.377 298.811 167.653 297.001 186.059C296.851 187.609 295.54 188.77 294.02 188.77Z" fill="black"/>
</svg>
