<svg width="574" height="549" viewBox="0 0 574 549" fill="none" xmlns="http://www.w3.org/2000/svg">
<path d="M145.401 168.468L138.464 188.069L101.223 180.985V166.474H135.341L145.401 168.468Z" fill="white"/>
<path d="M316.994 399.395C335.687 399.395 354.901 409.987 359.63 423.369C364.359 436.752 352.811 448.243 334.118 448.243C315.426 448.243 297.429 436.482 292.7 423.1C287.971 409.718 298.301 399.395 316.994 399.395Z" fill="white"/>
<path d="M334.118 451.245C314.684 451.245 295.248 439.322 289.87 424.1C287.627 417.754 288.3 411.56 291.765 406.661C296.38 400.136 305.575 396.393 316.994 396.393C337.342 396.393 357.313 407.803 362.461 422.371C363.571 425.279 363.948 428.416 363.559 431.505C363.169 434.594 362.024 437.539 360.226 440.08C355.208 447.176 345.692 451.245 334.118 451.245ZM316.994 402.397C307.55 402.397 300.141 405.215 296.666 410.128C294.325 413.438 293.932 417.578 295.53 422.101C300.039 434.86 317.35 445.242 334.118 445.242C343.576 445.242 351.503 442.016 355.324 436.614C356.57 434.857 357.357 432.817 357.615 430.679C357.873 428.541 357.593 426.372 356.8 424.37C352.519 412.254 334.662 402.397 316.994 402.397Z" fill="black"/>
<path d="M348.432 347.385C354.205 356.074 357.597 358.6 365.997 365.348C374.396 372.096 382.031 376.45 379.116 391.731C376.201 407.013 355.678 413.103 350.366 416.34C345.054 419.576 324.97 433.984 319.99 436.1C315.009 438.215 292.508 445.19 289.091 433.512C285.675 421.835 296.673 408.835 303.939 399.487C306.994 395.556 316.891 388.332 313.883 369.865C312.355 360.486 343.829 340.457 348.432 347.385Z" fill="white"/>
<path d="M370.581 154.52L299.679 178.951C288.187 185.883 280.126 199.614 274.477 215.056C261.055 251.75 263.533 292.387 280.398 327.631L299.679 367.923C301.215 375.407 307.124 377.251 315.212 376.661C329.48 375.62 344.209 369.73 352.589 358.134C365.412 347.005 358.726 334.252 352.361 314.065C341.675 291.801 329.415 290.172 334.775 263.383C344.184 250.878 366.062 241.457 376.345 225.085L370.581 154.52Z" fill="#82BE28"/>
<path d="M312.749 379.756C303.804 379.757 298.453 376.113 296.819 368.901L277.691 328.927C260.38 292.751 258.181 250.87 271.658 214.025C278.41 195.569 287.315 182.903 298.129 176.382C298.309 176.272 298.501 176.183 298.701 176.114L369.603 151.682C370.035 151.533 370.496 151.485 370.951 151.541C371.405 151.597 371.84 151.757 372.223 152.007C372.606 152.257 372.927 152.592 373.161 152.985C373.395 153.378 373.536 153.82 373.573 154.276L379.338 224.841C379.39 225.487 379.233 226.133 378.888 226.682C372.858 236.283 363.426 243.321 354.304 250.128C347.737 255.029 341.521 259.668 337.585 264.654C334.401 281.246 338.37 286.855 344.888 296.065C348.779 301.313 352.186 306.903 355.068 312.767C355.129 312.895 355.182 313.027 355.225 313.163C356.037 315.74 356.856 318.196 357.637 320.542C362.968 336.547 367.186 349.212 354.819 360.172C346.603 371.332 332.271 378.427 315.43 379.655C314.504 379.723 313.61 379.756 312.749 379.756ZM300.964 181.684C291.47 187.535 283.508 199.107 277.296 216.087C264.371 251.425 266.489 291.609 283.106 326.336L302.386 366.627C302.492 366.847 302.57 367.08 302.619 367.319C303.381 371.029 305.401 374.374 314.994 373.668C329.977 372.575 343.122 366.111 350.156 356.377C350.291 356.19 350.448 356.019 350.622 355.868C359.872 347.839 357.575 339.352 351.941 322.44C351.171 320.127 350.365 317.709 349.564 315.175C346.841 309.688 343.637 304.454 339.989 299.533C333.234 289.991 327.899 282.453 331.832 262.794C331.92 262.353 332.107 261.937 332.377 261.578C336.8 255.701 343.558 250.657 350.714 245.316C359.116 239.046 367.795 232.569 373.271 224.315L367.904 158.617L300.964 181.684Z" fill="black"/>
<path d="M303.207 443.283C300.768 443.277 298.335 443.055 295.936 442.619C293.593 442.206 291.414 441.142 289.648 439.549C287.881 437.956 286.598 435.898 285.946 433.611C281.805 420.054 296.854 402.851 306.193 393.805C306.476 393.53 306.81 393.314 307.177 393.168C307.543 393.023 307.935 392.951 308.33 392.957C308.724 392.963 309.113 393.046 309.475 393.203C309.837 393.359 310.165 393.586 310.44 393.869C310.714 394.152 310.93 394.487 311.075 394.854C311.22 395.221 311.292 395.613 311.285 396.007C311.279 396.401 311.194 396.791 311.037 397.153C310.88 397.514 310.654 397.842 310.37 398.116C290.18 417.675 290.579 428.228 291.688 431.857C292.018 433.086 292.693 434.196 293.632 435.055C294.571 435.915 295.736 436.489 296.99 436.709C311.904 439.368 322.067 432.101 333.835 423.684C340.453 418.951 347.296 414.057 355.733 410.216C368.128 404.574 376.103 395.96 377.065 387.176C377.693 381.442 375.138 376.101 369.87 372.135C358.306 363.426 355.888 360.514 355.385 359.666L360.548 356.604C360.518 356.546 360.483 356.491 360.442 356.44C360.52 356.543 362.426 359.013 373.482 367.339C380.509 372.629 383.9 379.907 383.033 387.829C381.838 398.74 372.562 409.152 358.221 415.68C350.314 419.28 343.712 424.001 337.328 428.568C326.792 436.102 316.752 443.282 303.207 443.283Z" fill="black"/>
<path d="M314.908 380.55C307.61 380.55 301.743 378.075 298.094 373.368C297.853 373.056 297.675 372.7 297.571 372.32C297.467 371.94 297.439 371.543 297.489 371.152C297.538 370.761 297.664 370.384 297.86 370.041C298.055 369.699 298.316 369.398 298.627 369.157C298.939 368.915 299.295 368.738 299.675 368.634C300.055 368.53 300.452 368.502 300.843 368.551C301.234 368.601 301.612 368.727 301.954 368.922C302.296 369.118 302.597 369.378 302.838 369.69C306.993 375.047 314.811 374.842 319.102 374.241C332.544 372.361 349.972 361.634 355.872 346.937C359.65 337.527 353.604 321.306 339.284 302.432C338.803 301.798 338.594 300.998 338.702 300.209C338.81 299.421 339.227 298.707 339.861 298.226C340.496 297.745 341.295 297.535 342.084 297.643C342.873 297.751 343.586 298.169 344.068 298.803C353.25 310.906 367.717 333.544 361.444 349.173C354.48 366.521 334.859 378.099 319.933 380.186C318.269 380.424 316.589 380.545 314.908 380.55Z" fill="black"/>
<path d="M338.521 293.795C337.941 293.795 337.374 293.627 336.887 293.312C336.401 292.996 336.016 292.547 335.779 292.017C324.764 267.388 336.293 256.091 345.924 249.735C354.535 244.052 370.509 231.944 380.738 214.713C390.605 198.095 392.577 181.134 386.601 164.3C386.468 163.929 386.41 163.535 386.43 163.141C386.45 162.746 386.548 162.36 386.717 162.004C386.886 161.647 387.124 161.328 387.417 161.064C387.71 160.799 388.052 160.595 388.424 160.463C388.796 160.331 389.19 160.274 389.584 160.294C389.978 160.315 390.364 160.413 390.72 160.582C391.076 160.752 391.395 160.99 391.659 161.284C391.923 161.577 392.127 161.919 392.259 162.291C398.86 180.885 396.721 199.554 385.901 217.778C375.058 236.041 358.272 248.779 349.23 254.746C336.318 263.267 334.009 273.355 341.26 289.567C341.464 290.024 341.55 290.524 341.512 291.023C341.473 291.522 341.31 292.004 341.038 292.424C340.766 292.844 340.393 293.189 339.954 293.429C339.514 293.668 339.022 293.794 338.521 293.795V293.795Z" fill="black"/>
<path d="M345.075 439.969C344.266 439.97 343.465 439.807 342.721 439.49C341.977 439.173 341.304 438.709 340.745 438.125L296.443 392.014C295.896 391.446 295.467 390.776 295.179 390.041C294.892 389.307 294.752 388.523 294.767 387.734C294.783 386.945 294.953 386.168 295.27 385.445C295.586 384.723 296.041 384.069 296.61 383.523C297.179 382.976 297.85 382.547 298.584 382.26C299.319 381.973 300.103 381.834 300.892 381.85C301.68 381.866 302.458 382.037 303.18 382.353C303.903 382.67 304.556 383.126 305.102 383.695L349.403 429.806C350.219 430.654 350.767 431.724 350.979 432.882C351.192 434.04 351.059 435.235 350.598 436.318C350.136 437.401 349.367 438.324 348.385 438.973C347.403 439.623 346.252 439.969 345.075 439.969V439.969Z" fill="black"/>
<path d="M491.174 203.915H491.17C483.552 203.959 475.997 205.302 468.831 207.885C447.177 215.537 427.253 233.752 412.726 259.175C398.802 283.644 391.395 311.278 391.212 339.43C391.212 363.973 397.234 385.479 408.627 401.622C421.147 419.363 439.134 429.133 459.275 429.133C466.893 429.089 474.448 427.746 481.615 425.162C503.268 417.511 523.193 399.296 537.719 373.873C551.643 349.404 559.051 321.77 559.233 293.618C559.233 269.076 553.212 247.571 541.82 231.427C529.3 213.685 511.313 203.915 491.173 203.915L491.174 203.915Z" fill="white"/>
<path d="M455.481 251.645C472.098 233.614 499.011 221.726 532.246 220.402C521.201 209.804 506.48 203.895 491.173 203.915H491.17C483.552 203.959 475.997 205.302 468.831 207.886C447.177 215.537 427.253 233.752 412.726 259.175C398.802 283.644 391.395 311.278 391.212 339.43C391.212 363.973 397.234 385.479 408.627 401.622C419.679 417.284 434.996 426.721 452.29 428.721C418.004 392.717 406.353 316.86 455.481 251.645Z" fill="#82BE28"/>
<path d="M502.895 227.364C530.986 227.363 551.771 255.558 551.771 297.881C551.771 347.889 522.748 398.685 486.947 411.336C481.833 413.195 476.44 414.167 470.999 414.21C442.908 414.21 422.122 386.016 422.122 343.694C422.122 293.685 451.145 242.889 486.947 230.239C492.06 228.38 497.454 227.408 502.895 227.364ZM502.897 208.178H502.894C495.276 208.222 487.721 209.565 480.554 212.149C458.901 219.8 438.976 238.015 424.45 263.439C410.526 287.907 403.118 315.541 402.936 343.694C402.936 368.236 408.958 389.742 420.351 405.886C432.871 423.626 450.858 433.396 470.999 433.396C478.617 433.352 486.172 432.009 493.339 429.426C514.992 421.775 534.917 403.559 549.443 378.136C563.367 353.667 570.775 326.033 570.957 297.881C570.957 273.339 564.936 251.834 553.543 235.69C541.024 217.949 523.037 208.178 502.897 208.178L502.897 208.178Z" fill="#82BE28"/>
<path d="M472.308 436.54C457.344 436.54 444.294 431.97 434.747 427.197C434.034 426.841 433.493 426.216 433.241 425.461C432.989 424.705 433.048 423.881 433.404 423.169C433.76 422.457 434.384 421.915 435.14 421.663C435.895 421.412 436.72 421.47 437.432 421.826C456.905 431.563 476.123 433.204 494.559 426.708C516.907 417.667 533.612 402.265 548.716 376.774C560.584 356.747 567.956 326.517 567.956 297.881C567.956 273.963 562.125 253.056 551.092 237.421C550.865 237.099 550.703 236.735 550.616 236.351C550.53 235.966 550.52 235.568 550.587 235.18C550.654 234.792 550.797 234.42 551.007 234.087C551.218 233.754 551.492 233.465 551.814 233.238C552.136 233.011 552.5 232.849 552.884 232.762C553.269 232.676 553.667 232.666 554.055 232.733C554.444 232.8 554.815 232.943 555.148 233.153C555.481 233.364 555.77 233.638 555.997 233.96C567.749 250.614 573.96 272.718 573.96 297.881C573.96 327.533 566.266 358.935 553.882 379.834C538.262 406.195 520.106 422.866 496.745 432.3C496.704 432.316 496.662 432.332 496.621 432.346C488.816 435.122 480.592 436.541 472.308 436.54Z" fill="black"/>
<path d="M471 417.212C440.455 417.212 419.122 386.98 419.122 343.694C419.122 292.595 449.1 240.43 485.948 227.409C491.383 225.438 497.114 224.408 502.896 224.363C528.624 224.362 548.497 246.328 553.526 280.324L553.527 280.334C554.37 286.145 554.787 292.009 554.774 297.881C555.352 324.16 548.838 350.443 536.43 371.825C524.117 393.044 506.87 408.092 487.866 414.195C482.456 416.15 476.753 417.17 471 417.212ZM502.896 230.366C497.796 230.412 492.741 231.326 487.948 233.069C453.307 245.311 425.125 294.936 425.125 343.694C425.125 383.446 443.989 411.209 471 411.209C476.1 411.163 481.155 410.25 485.948 408.507C522.922 396.631 549.895 349.113 548.771 297.947C548.785 292.347 548.39 286.753 547.588 281.211L547.587 281.203C543.018 250.32 525.476 230.365 502.896 230.366Z" fill="black"/>
<path d="M488.687 358.044C484.905 358.033 481.222 356.837 478.155 354.625C471.016 349.575 466.754 339.747 466.754 328.333C466.754 309.509 478.468 290.055 492.866 284.968C495.743 283.853 498.85 283.463 501.913 283.832C504.976 284.202 507.901 285.32 510.43 287.088C517.107 291.81 520.936 300.797 520.936 311.746C520.936 320.258 517.373 328.206 513.723 335.618C513.55 335.974 513.308 336.291 513.012 336.553C512.716 336.815 512.371 337.016 511.997 337.144C511.623 337.272 511.227 337.325 510.832 337.3C510.438 337.275 510.052 337.172 509.698 336.997C509.343 336.823 509.026 336.58 508.766 336.282C508.505 335.985 508.306 335.639 508.179 335.264C508.053 334.89 508.002 334.494 508.029 334.1C508.056 333.705 508.16 333.32 508.337 332.966C511.674 326.189 514.933 318.967 514.933 311.746C514.933 302.772 512.028 295.572 506.963 291.989C503.486 289.53 499.303 289.06 494.867 290.628C482.675 294.936 472.757 311.85 472.757 328.333C472.757 337.659 476.154 345.856 481.622 349.723C483.26 350.915 485.169 351.678 487.176 351.945C489.183 352.212 491.225 351.972 493.117 351.25C493.489 351.118 493.883 351.061 494.277 351.081C494.67 351.102 495.056 351.2 495.412 351.37C495.768 351.539 496.087 351.778 496.351 352.071C496.615 352.364 496.818 352.706 496.95 353.078C497.081 353.45 497.138 353.844 497.117 354.238C497.096 354.632 496.998 355.018 496.827 355.374C496.657 355.729 496.419 356.048 496.125 356.312C495.832 356.575 495.489 356.778 495.117 356.909C493.054 357.651 490.879 358.034 488.687 358.044Z" fill="black"/>
<path d="M393.03 370.524C392.364 370.523 391.718 370.302 391.192 369.894C390.667 369.487 390.291 368.916 390.125 368.272C387.689 358.838 385.143 343.549 385.979 331.505C387.853 304.511 393.431 284.882 406.559 259.079C424.557 223.702 450.148 211.304 467.831 205.055C475.319 202.358 483.212 200.957 491.17 200.913C491.966 200.913 492.73 201.228 493.293 201.791C493.857 202.354 494.173 203.117 494.174 203.913C494.174 204.709 493.858 205.473 493.296 206.036C492.733 206.599 491.97 206.916 491.174 206.917H491.17C483.893 206.961 476.677 208.246 469.831 210.716C451.706 217.121 428.742 228.715 411.909 261.801C399.022 287.132 393.804 305.48 391.968 331.921C391.232 342.521 393.432 357.062 395.938 366.771C396.052 367.215 396.063 367.679 395.97 368.127C395.877 368.576 395.683 368.997 395.402 369.359C395.121 369.721 394.762 370.014 394.351 370.216C393.94 370.418 393.488 370.524 393.03 370.524Z" fill="black"/>
<path d="M105.357 316.376H105.353C97.7353 316.42 90.1807 317.763 83.0141 320.346C61.3609 327.997 41.436 346.213 26.91 371.636C12.986 396.105 5.57805 423.739 5.3958 451.891C5.3958 476.434 11.4176 497.939 22.8103 514.083C35.3302 531.824 53.3175 541.594 73.4585 541.594C81.0768 541.55 88.6317 540.207 95.7986 537.623C117.452 529.972 137.377 511.757 151.903 486.333C165.827 461.865 173.235 434.231 173.417 406.078C173.417 381.537 167.395 360.032 156.003 343.887C143.483 326.146 125.497 316.376 105.357 316.376L105.357 316.376Z" fill="white"/>
<path d="M69.6649 364.106C86.2818 346.075 113.195 334.187 146.43 332.863C135.384 322.265 120.664 316.356 105.357 316.376H105.353C97.7353 316.42 90.1807 317.763 83.0141 320.346C61.3609 327.998 41.4361 346.213 26.9099 371.636C12.986 396.105 5.57808 423.739 5.3958 451.891C5.3958 476.434 11.4176 497.94 22.8103 514.083C33.8629 529.745 49.1792 539.182 66.4736 541.182C32.1876 505.178 20.536 429.321 69.6649 364.106Z" fill="#82BE28"/>
<path d="M117.08 339.825C145.171 339.823 165.956 368.019 165.956 410.342C165.956 460.35 136.934 511.146 101.132 523.797C96.0185 525.655 90.625 526.627 85.1843 526.671C57.093 526.671 36.3077 498.477 36.3077 456.154C36.3077 406.146 65.3305 355.35 101.132 342.7C106.246 340.841 111.639 339.869 117.08 339.825ZM117.083 320.639H117.079C109.461 320.683 101.906 322.026 94.7398 324.61C73.0866 332.261 53.1617 350.476 38.6357 375.899C24.7117 400.368 17.3038 428.002 17.1216 456.154C17.1216 480.697 23.1434 502.203 34.536 518.346C47.056 536.087 65.0433 545.857 85.1843 545.857C92.8025 545.813 100.357 544.47 107.524 541.887C129.178 534.235 149.102 516.02 163.629 490.597C177.553 466.128 184.96 438.494 185.143 410.342C185.143 385.8 179.121 364.295 167.729 348.151C155.209 330.409 137.222 320.639 117.082 320.639L117.083 320.639Z" fill="#82BE28"/>
<path d="M86.4902 549C71.5256 549 58.4768 544.43 48.9301 539.657C48.2185 539.301 47.6776 538.677 47.4261 537.921C47.1747 537.166 47.2334 536.342 47.5893 535.631C47.9453 534.919 48.5693 534.377 49.3242 534.125C50.0791 533.873 50.9032 533.932 51.6153 534.287C71.0845 544.022 90.303 545.662 108.742 539.169C131.091 530.128 147.796 514.726 162.9 489.235C174.768 469.207 182.14 438.977 182.14 410.342C182.14 386.423 176.308 365.516 165.276 349.882C165.048 349.56 164.887 349.196 164.8 348.812C164.713 348.427 164.703 348.029 164.77 347.641C164.837 347.252 164.98 346.881 165.191 346.548C165.401 346.214 165.676 345.926 165.998 345.699C166.32 345.471 166.683 345.31 167.068 345.223C167.452 345.136 167.85 345.126 168.239 345.193C168.627 345.26 168.999 345.403 169.332 345.614C169.665 345.825 169.954 346.099 170.181 346.421C181.932 363.073 188.144 385.177 188.144 410.342C188.144 439.992 180.45 471.395 168.065 492.295C152.446 518.656 134.29 535.327 110.929 544.761L110.805 544.808C102.998 547.583 94.7748 549 86.4902 549Z" fill="black"/>
<path d="M85.1837 529.673C54.6381 529.673 33.3051 499.441 33.3051 456.154C33.3051 405.056 63.283 352.891 100.131 339.87C105.566 337.899 111.298 336.869 117.079 336.823C131.812 336.822 145.103 344.159 154.504 357.481C163.96 370.88 168.957 389.158 168.957 410.342C169.536 436.62 163.022 462.904 150.614 484.285C138.301 505.504 121.053 520.551 102.049 526.655C96.6393 528.61 90.9361 529.631 85.1837 529.673ZM117.079 342.827C111.979 342.873 106.924 343.787 102.131 345.53C67.491 357.771 39.3087 407.397 39.3087 456.154C39.3087 495.907 58.1729 523.669 85.1837 523.669C90.2835 523.623 95.3382 522.709 100.131 520.967C137.106 509.09 164.079 461.573 162.955 410.408C162.954 390.405 158.336 373.323 149.599 360.943C141.355 349.26 129.806 342.827 117.079 342.827L117.079 342.827Z" fill="black"/>
<path d="M102.291 469.503C98.8198 469.521 95.4309 468.449 92.6017 466.438C86.0036 461.772 82.2191 452.425 82.2191 440.794C82.2191 421.038 92.8861 402.371 107.031 397.373C113.179 395.199 119.257 395.906 124.143 399.361C130.716 404.01 134.486 413.066 134.486 424.206C134.486 431.501 132.418 439.098 127.978 448.113C127.805 448.469 127.563 448.786 127.267 449.048C126.971 449.31 126.626 449.511 126.252 449.639C125.878 449.768 125.482 449.821 125.088 449.795C124.693 449.77 124.307 449.667 123.953 449.493C123.598 449.318 123.281 449.075 123.021 448.778C122.76 448.48 122.561 448.134 122.434 447.76C122.308 447.385 122.257 446.989 122.284 446.595C122.311 446.2 122.416 445.815 122.592 445.461C126.61 437.301 128.482 430.547 128.482 424.206C128.482 415.041 125.637 407.772 120.676 404.263C117.38 401.932 113.352 401.505 109.031 403.032C97.3629 407.156 88.2227 423.743 88.2227 440.794C88.2227 450.308 91.1556 458.062 96.0682 461.536C99.1691 463.731 102.824 464.107 106.929 462.656C107.301 462.524 107.695 462.467 108.089 462.487C108.483 462.508 108.869 462.606 109.225 462.776C109.58 462.946 109.899 463.184 110.163 463.477C110.427 463.77 110.63 464.113 110.762 464.485C110.893 464.856 110.95 465.251 110.929 465.644C110.908 466.038 110.81 466.424 110.64 466.78C110.469 467.136 110.231 467.454 109.937 467.718C109.644 467.981 109.301 468.185 108.929 468.316C106.8 469.085 104.555 469.487 102.291 469.503Z" fill="black"/>
<path d="M7.21302 482.985C6.5478 482.984 5.90165 482.763 5.37596 482.355C4.85027 481.947 4.47479 481.377 4.30844 480.733C1.87291 471.299 -0.674023 456.01 0.162417 443.966C2.03659 416.972 7.61413 397.343 20.7421 371.539C38.7402 336.163 64.3311 323.765 82.0146 317.516C89.5022 314.818 97.3951 313.417 105.354 313.374C106.15 313.373 106.914 313.689 107.477 314.252C108.04 314.814 108.357 315.578 108.357 316.374C108.358 317.17 108.042 317.934 107.479 318.497C106.917 319.06 106.153 319.377 105.357 319.377H105.354C98.0766 319.421 90.8604 320.706 84.0153 323.177C65.8897 329.582 42.9258 341.176 26.093 374.262C13.2059 399.592 7.9874 417.941 6.15135 444.382C5.41556 454.982 7.61511 469.523 10.1215 479.232C10.2352 479.675 10.246 480.139 10.1532 480.588C10.0603 481.036 9.86612 481.458 9.58553 481.82C9.30494 482.182 8.94533 482.475 8.53415 482.677C8.12297 482.879 7.6711 482.984 7.21302 482.985V482.985Z" fill="black"/>
<path d="M186.061 300.794L360.863 249.493L471.067 321.382L296.265 372.684L186.14 302.731L186.061 300.794ZM147.916 290.935C141.467 292.828 138.554 302.663 143.517 305.789L285.794 395.414C286.45 395.804 287.183 396.048 287.942 396.13C288.701 396.212 289.469 396.13 290.193 395.889L484.722 338.799C499.105 334.578 505.601 312.648 494.533 305.676L370.321 227.431C369.665 227.041 368.933 226.796 368.174 226.714C367.415 226.632 366.647 226.714 365.922 226.956L147.916 290.935Z" fill="#2D8C3C"/>
<path d="M288.43 399.154C286.933 399.165 285.464 398.748 284.194 397.953L141.917 308.329C138.991 306.485 137.575 303.002 138.131 299.012C138.844 293.897 142.52 289.39 147.071 288.055L365.078 224.075C366.21 223.712 367.408 223.597 368.588 223.738C369.769 223.879 370.906 224.272 371.922 224.891L390.184 236.396C390.249 236.437 390.312 236.48 390.374 236.525C390.443 236.562 390.512 236.601 390.58 236.644L496.134 303.136C501.395 306.45 503.92 312.859 502.888 320.276C501.746 328.471 495.839 338.665 485.568 341.68L291.039 398.769C290.192 399.021 289.314 399.151 288.43 399.154ZM367.684 229.694C367.374 229.698 367.066 229.745 366.769 229.835L148.762 293.816C146.13 294.588 144.413 297.431 144.077 299.841C143.971 300.602 143.86 302.458 145.117 303.249L287.394 392.874C287.693 393.031 288.021 393.124 288.357 393.147C288.693 393.171 289.031 393.123 289.348 393.008L483.877 335.918C491.249 333.756 496.029 325.995 496.941 319.448C497.276 317.041 497.557 311.128 492.933 308.215L387.38 241.723C387.315 241.682 387.252 241.639 387.19 241.594C387.121 241.557 387.052 241.518 386.984 241.475L368.722 229.97C368.409 229.781 368.049 229.686 367.684 229.694Z" fill="black"/>
<path d="M298.205 378.253C296.937 378.261 295.693 377.907 294.62 377.233L187.441 309.718C184.983 308.17 183.79 305.275 184.25 301.972C184.736 298.478 187.17 294.383 191.51 293.108L355.737 244.913H355.736C356.69 244.608 357.698 244.513 358.692 244.633C359.686 244.753 360.642 245.086 361.496 245.609L468.677 313.126C469.912 313.96 470.874 315.14 471.441 316.518C472.009 317.895 472.157 319.41 471.868 320.872C471.381 324.366 468.948 328.463 464.608 329.736L300.38 377.934C299.674 378.143 298.941 378.251 298.205 378.253ZM357.906 250.597C357.744 250.6 357.584 250.625 357.429 250.672L357.428 250.673L193.2 298.87C192.395 299.199 191.692 299.736 191.164 300.427C190.636 301.118 190.302 301.938 190.196 302.801C190.163 303.039 190.028 304.253 190.641 304.639L297.821 372.155C297.957 372.216 298.105 372.249 298.254 372.252C298.404 372.255 298.552 372.228 298.691 372.172L462.917 323.975C463.722 323.646 464.425 323.108 464.953 322.417C465.481 321.727 465.815 320.907 465.921 320.044C465.955 319.805 466.09 318.591 465.477 318.205L358.297 250.69C358.178 250.623 358.042 250.591 357.906 250.597L357.906 250.597Z" fill="black"/>
<path d="M381.141 244.55L329.727 369.834L310.613 371.288L354.35 264.732L360.476 249.806" fill="#2D8C3C"/>
<path d="M310.611 374.291C310.116 374.29 309.629 374.167 309.193 373.933C308.757 373.698 308.386 373.36 308.113 372.948C307.839 372.535 307.672 372.062 307.625 371.569C307.578 371.077 307.654 370.58 307.846 370.124L360.513 244.981C360.822 244.247 361.41 243.666 362.147 243.366C362.884 243.066 363.71 243.071 364.444 243.38C365.178 243.688 365.758 244.276 366.059 245.013C366.359 245.75 366.355 246.576 366.046 247.31L313.379 372.453C313.15 372.998 312.765 373.463 312.272 373.79C311.78 374.117 311.202 374.291 310.611 374.291Z" fill="black"/>
<path d="M329.726 372.836C329.232 372.836 328.745 372.713 328.309 372.479C327.873 372.244 327.501 371.906 327.228 371.494C326.954 371.081 326.786 370.608 326.74 370.115C326.693 369.623 326.769 369.126 326.961 368.67L373.727 257.441C374.035 256.707 374.623 256.126 375.36 255.825C376.097 255.525 376.924 255.529 377.658 255.838C378.392 256.146 378.973 256.734 379.274 257.471C379.574 258.208 379.57 259.035 379.261 259.769L332.495 370.997C332.266 371.542 331.881 372.008 331.388 372.335C330.896 372.662 330.318 372.836 329.726 372.836Z" fill="black"/>
<path d="M416.507 197.714C412.001 185.335 390.205 180.594 367.824 187.126C345.443 193.658 311.006 214.809 315.512 227.188L319.527 238.22C324.033 250.599 365.775 249.519 388.156 242.987C410.537 236.456 425.028 221.125 420.522 208.746L416.507 197.714Z" fill="black"/>
<path d="M169.288 198.284L100.092 435.282C98.5225 440.301 98.8141 446.167 104.374 445.749C111.475 446.649 115.301 442.357 117.848 436.038L187.886 198.804" fill="#2D8C3C"/>
<path d="M117.85 439.041C117.382 439.04 116.921 438.931 116.504 438.721C116.086 438.511 115.723 438.206 115.444 437.832C115.164 437.457 114.976 437.022 114.894 436.562C114.813 436.102 114.839 435.629 114.972 435.181L184.545 201.599C184.772 200.836 185.293 200.194 185.993 199.816C186.694 199.437 187.516 199.352 188.279 199.579C189.041 199.806 189.683 200.327 190.062 201.028C190.44 201.728 190.526 202.55 190.298 203.313L120.725 436.895C120.541 437.514 120.161 438.058 119.643 438.444C119.125 438.831 118.496 439.04 117.85 439.041Z" fill="black"/>
<path d="M103.816 448.772C102.72 448.819 101.628 448.607 100.629 448.155C99.6299 447.702 98.7511 447.021 98.0633 446.166C95.1358 442.482 96.5023 436.701 97.2259 434.386L139.68 286.971C139.902 286.206 140.417 285.561 141.113 285.177C141.81 284.792 142.63 284.7 143.395 284.92C144.159 285.14 144.805 285.655 145.19 286.351C145.575 287.047 145.669 287.867 145.45 288.632L102.975 436.113C101.999 439.238 102.135 441.64 102.764 442.432C102.843 442.532 103.088 442.833 104.148 442.756C104.542 442.726 104.937 442.774 105.312 442.896C105.687 443.019 106.034 443.215 106.334 443.472C106.633 443.729 106.879 444.042 107.057 444.395C107.235 444.747 107.342 445.131 107.371 445.524C107.401 445.917 107.352 446.313 107.229 446.688C107.106 447.062 106.909 447.409 106.652 447.708C106.394 448.007 106.08 448.252 105.728 448.43C105.375 448.607 104.991 448.713 104.598 448.742C104.328 448.763 104.068 448.773 103.816 448.772Z" fill="black"/>
<path d="M154.565 249.147C154.107 249.147 153.655 249.042 153.243 248.84C152.832 248.639 152.472 248.346 152.191 247.984C151.911 247.621 151.716 247.2 151.624 246.751C151.531 246.303 151.542 245.839 151.656 245.395L164.784 194.464C164.882 194.082 165.055 193.724 165.292 193.409C165.529 193.094 165.826 192.828 166.165 192.628C166.505 192.428 166.88 192.296 167.271 192.241C167.661 192.186 168.059 192.208 168.44 192.307C168.822 192.405 169.181 192.578 169.496 192.815C169.811 193.052 170.076 193.348 170.276 193.688C170.477 194.028 170.608 194.403 170.663 194.794C170.718 195.184 170.696 195.581 170.598 195.963L157.47 246.894C157.303 247.538 156.928 248.109 156.402 248.517C155.876 248.925 155.23 249.146 154.565 249.147Z" fill="black"/>
<path d="M336.965 384.065C336.965 402.758 325.219 422.154 311.836 426.883C298.454 431.611 286.529 419.882 286.529 401.189C286.529 382.497 298.378 363.705 311.761 358.976C325.143 354.247 336.965 365.372 336.965 384.065Z" fill="white"/>
<path d="M305.939 430.932C301.98 430.928 298.121 429.682 294.907 427.37C287.781 422.33 283.527 412.543 283.527 401.19C283.527 381.658 295.744 361.451 310.761 356.145C313.738 355.007 316.949 354.62 320.111 355.018C323.274 355.416 326.289 356.587 328.891 358.428C335.93 363.405 339.967 372.75 339.967 384.065C339.967 403.611 327.543 424.516 312.837 429.712C310.624 430.509 308.291 430.921 305.939 430.932ZM317.863 360.886C316.123 360.9 314.397 361.211 312.761 361.806C300.169 366.255 289.53 384.291 289.53 401.189C289.53 410.597 292.837 418.552 298.374 422.469C300.155 423.75 302.228 424.566 304.404 424.842C306.581 425.119 308.792 424.847 310.837 424.052C323.157 419.699 333.964 401.013 333.964 384.065C333.964 374.862 330.771 367.11 325.424 363.329C323.224 361.74 320.578 360.885 317.863 360.886Z" fill="black"/>
<path d="M285.18 69.1294C276.404 75.9439 210.188 124.012 202.151 130.524C195.934 135.56 175.346 147.105 164.271 156.952C162.828 163.96 162.059 166.185 159.324 168.289C153.885 172.474 145.388 161.621 137.268 170.763C134.031 174.408 132.553 184.147 122.813 184.101C113.803 184.058 106.466 176.902 105.418 167.953C104.952 164.901 105.14 161.785 105.969 158.811C107.744 153.993 114.067 136.669 138.236 136.237C148.54 136.053 159.249 126.414 165.876 121.023C172.095 115.962 263.971 36.8472 284.237 31.8325" fill="white"/>
<path d="M122.882 187.103H122.798C112.439 187.054 103.685 178.972 102.435 168.302C101.95 164.162 102.211 160.324 103.151 157.773C110.481 137.873 126.245 133.449 138.181 133.235C146.531 133.086 155.916 125.342 162.125 120.218C162.773 119.683 163.392 119.172 163.98 118.694C164.669 118.134 166.422 116.653 169.019 114.459C233.493 60.0099 270.945 32.0294 283.514 28.9186C284.287 28.7274 285.104 28.851 285.786 29.2622C286.468 29.6735 286.958 30.3387 287.149 31.1116C287.341 31.8844 287.217 32.7016 286.806 33.3834C286.395 34.0651 285.729 34.5556 284.957 34.7468C277.056 36.7011 251.2 52.9139 172.892 119.046C170.252 121.276 168.47 122.781 167.769 123.352C167.191 123.822 166.583 124.323 165.946 124.848C159.092 130.504 148.734 139.051 138.288 139.239C116.231 139.633 110.636 154.822 108.797 159.814C108.135 162.356 107.999 165.007 108.397 167.605C109.295 175.263 115.498 181.065 122.826 181.1H122.881C127.756 181.1 129.727 178.027 132.172 173.344C132.936 171.711 133.893 170.175 135.022 168.769C141.053 161.981 147.699 164.015 152.096 165.364C154.804 166.194 156.513 166.663 157.491 165.91C159.263 164.548 159.871 163.43 161.329 156.347C161.459 155.713 161.791 155.138 162.275 154.708C169.296 148.466 179.916 141.641 188.45 136.157C193.582 132.859 198.014 130.011 200.259 128.191C204.823 124.495 226.968 108.257 248.385 92.5528C264.394 80.8144 279.515 69.7267 283.338 66.7591C283.649 66.5173 284.005 66.3393 284.385 66.235C284.765 66.1308 285.162 66.1025 285.553 66.1517C285.944 66.2008 286.322 66.3266 286.664 66.5217C287.007 66.7168 287.308 66.9774 287.549 67.2887C287.791 67.6 287.969 67.9559 288.073 68.336C288.178 68.7161 288.206 69.1131 288.157 69.5041C288.108 69.8952 287.982 70.2728 287.787 70.6153C287.592 70.9578 287.331 71.2585 287.02 71.5002C283.132 74.5196 267.978 85.6307 251.935 97.3946C231.571 112.326 208.489 129.251 204.039 132.856C201.537 134.883 196.976 137.813 191.696 141.208C183.64 146.384 173.686 152.78 167.003 158.547C165.643 164.995 164.609 168.009 161.152 170.669C157.667 173.349 153.773 172.157 150.337 171.104C145.776 169.705 142.813 169.039 139.511 172.756C138.725 173.806 138.049 174.934 137.494 176.122C135.209 180.498 131.759 187.103 122.882 187.103Z" fill="black"/>
<path d="M310.157 405.223C309.348 405.224 308.548 405.061 307.804 404.744C307.059 404.427 306.387 403.963 305.827 403.379L261.526 357.268C260.979 356.7 260.55 356.029 260.262 355.295C259.974 354.56 259.834 353.776 259.85 352.988C259.865 352.199 260.036 351.421 260.352 350.699C260.669 349.976 261.124 349.323 261.693 348.777C262.262 348.23 262.932 347.801 263.667 347.514C264.402 347.227 265.186 347.087 265.974 347.103C266.763 347.119 267.54 347.29 268.263 347.607C268.985 347.924 269.638 348.38 270.184 348.949L314.486 395.059C315.301 395.908 315.849 396.978 316.062 398.136C316.274 399.294 316.141 400.488 315.68 401.571C315.219 402.654 314.45 403.578 313.468 404.227C312.486 404.876 311.335 405.222 310.157 405.223Z" fill="black"/>
<path d="M252.085 330.159C270.778 330.159 288.926 340.022 293.655 353.404C298.384 366.787 287.903 376.079 269.21 376.079C250.517 376.079 232.812 366.037 228.083 352.655C223.354 339.273 233.393 330.159 252.085 330.159Z" fill="white"/>
<path d="M269.21 379.081C249.272 379.081 230.374 368.151 225.253 353.655C223.023 347.347 223.585 341.553 226.876 336.9C231.319 330.618 240.272 327.157 252.086 327.157C272.312 327.157 291.4 338.012 296.485 352.405C298.689 358.642 298.102 364.415 294.788 369.101C290.237 375.537 281.153 379.081 269.21 379.081ZM252.086 333.161C242.418 333.161 235.016 335.788 231.778 340.367C229.63 343.403 229.339 347.201 230.913 351.655C235.229 363.868 251.693 373.077 269.21 373.077C279.005 373.077 286.542 370.365 289.887 365.635C292.058 362.565 292.373 358.787 290.825 354.404C286.616 342.493 269.6 333.161 252.086 333.161Z" fill="black"/>
<path d="M293.3 17.5624C264.916 20.1549 239.658 50.2435 239.633 50.2777C239.53 50.4203 210.579 70.5246 191.806 85.5155C188.391 88.2418 189.545 99.1637 192.4 102.471C200.189 111.496 211.878 119.251 226.328 129.244C228.759 130.925 237.576 136.974 248.138 122.025C258.7 107.077 295.396 89.2697 301.373 79.2504C320.486 47.2145 295.572 17.3549 293.3 17.5624Z" fill="#2D8C3C"/>
<path d="M219.181 128.776C218.589 128.777 218.01 128.601 217.518 128.271C203.835 119.141 192.455 108.475 187.077 99.7403C186.181 98.2554 185.589 96.6074 185.336 94.892C185.082 93.1766 185.171 91.4279 185.599 89.7473C186.026 88.0667 186.783 86.4877 187.825 85.1018C188.867 83.7159 190.174 82.5507 191.67 81.6739C214.268 67.9909 228.493 55.3984 241.043 44.2882C244.375 41.3392 247.522 38.5534 250.661 35.8945C265.025 23.734 283.153 15.8391 292.917 14.5849C293.308 14.5347 293.705 14.562 294.086 14.6652C294.466 14.7684 294.823 14.9455 295.135 15.1865C295.447 15.4274 295.708 15.7275 295.904 16.0695C296.1 16.4115 296.227 16.7888 296.277 17.1797C296.327 17.5707 296.3 17.9678 296.197 18.3483C296.094 18.7287 295.917 19.0851 295.676 19.3971C295.435 19.7091 295.135 19.9706 294.793 20.1666C294.451 20.3627 294.073 20.4894 293.682 20.5397C286.049 21.5197 268.859 28.3534 254.54 40.4774C251.451 43.0922 248.328 45.8566 245.022 48.7841C232.281 60.0623 217.841 72.8463 194.78 86.8098C193.961 87.2765 193.244 87.9015 192.67 88.6481C192.096 89.3947 191.676 90.2482 191.435 91.1587C191.194 92.0692 191.136 93.0186 191.266 93.9516C191.395 94.8846 191.709 95.7825 192.189 96.5929C197.136 104.627 207.851 114.604 220.85 123.278C221.386 123.635 221.793 124.156 222.01 124.763C222.228 125.369 222.244 126.03 222.057 126.647C221.869 127.263 221.489 127.803 220.971 128.187C220.453 128.57 219.826 128.777 219.181 128.776L219.181 128.776Z" fill="black"/>
<path d="M310.739 206.77C309.974 206.769 309.238 206.477 308.681 205.951C308.125 205.426 307.79 204.708 307.745 203.944C306.122 176.232 301.916 118.995 297.619 100.718C294.45 87.2359 292.781 69.8212 292.067 60.6409C292.036 60.2475 292.082 59.8518 292.204 59.4765C292.326 59.1011 292.521 58.7535 292.777 58.4534C293.033 58.1534 293.346 57.9069 293.698 57.7279C294.05 57.5489 294.433 57.4411 294.827 57.4105C295.22 57.3799 295.616 57.4272 295.991 57.5497C296.366 57.6722 296.714 57.8674 297.013 58.1243C297.313 58.3811 297.559 58.6945 297.737 59.0466C297.916 59.3986 298.023 59.7823 298.053 60.1758C298.752 69.1851 300.386 86.2529 303.464 99.3438C307.855 118.02 312.105 175.702 313.739 203.593C313.785 204.387 313.514 205.168 312.985 205.763C312.456 206.358 311.712 206.719 310.917 206.765C310.858 206.768 310.798 206.77 310.739 206.77Z" fill="black"/>
<path d="M412.416 196.488C411.721 196.486 411.049 196.245 410.512 195.803C409.976 195.362 409.609 194.748 409.475 194.067C407.86 185.903 406.259 183.66 404.564 181.285C402.886 178.934 400.984 176.27 399.201 169.251C395.634 155.2 388.329 103.974 388.701 88.5402C388.72 87.7571 389.044 87.0124 389.604 86.465C390.165 85.9177 390.917 85.6111 391.7 85.6107C391.725 85.6107 391.749 85.6107 391.774 85.6117C392.57 85.631 393.326 85.9655 393.875 86.5418C394.424 87.1181 394.722 87.889 394.703 88.6848C394.348 103.397 401.608 154.331 405.02 167.773C406.525 173.7 407.946 175.69 409.45 177.798C411.44 180.585 413.498 183.469 415.364 192.902C415.518 193.683 415.356 194.494 414.913 195.155C414.47 195.817 413.783 196.275 413.002 196.43C412.809 196.468 412.613 196.487 412.416 196.488Z" fill="black"/>
<path d="M413.534 104.345C393.89 33.8631 376.94 12.4567 376.94 12.4567C374.928 8.82601 371.933 5.8369 368.298 3.83326C364.709 1.89043 360.646 0.995396 356.573 1.25026C340.713 2.01112 335.866 19.9621 326.046 19.8963C319.646 19.8534 316.342 15.0674 312.705 10.8359C312.105 10.1261 311.364 9.54777 310.53 9.1369C309.696 8.72604 308.787 8.4915 307.858 8.44793C306.929 8.40436 306.002 8.5527 305.133 8.88369C304.264 9.21468 303.473 9.7212 302.809 10.3716C290.537 22.0541 281.023 51.5321 284.256 68.3602C288.147 88.6126 294.55 128.191 294.819 129.262C303.101 162.189 293.268 175.766 292.966 198.667C292.81 210.543 373.405 206.984 421.807 192.405C425.991 191.144 429.941 189.041 428.877 184.803C423.943 165.147 425.313 146.605 413.534 104.345Z" fill="#2D8C3C"/>
<path d="M340.288 209.968C327.583 210.019 314.898 208.961 302.377 206.807C300.561 206.487 291.339 204.616 288.002 199.09C287.402 198.127 287.022 197.043 286.888 195.916C286.754 194.789 286.871 193.646 287.229 192.569C295.975 165.273 294.609 127.551 283.168 80.4492C283.075 80.0662 283.058 79.6686 283.119 79.2791C283.18 78.8896 283.316 78.5159 283.521 78.1793C283.727 77.8426 283.996 77.5497 284.314 77.3172C284.632 77.0846 284.993 76.9171 285.376 76.824C285.759 76.731 286.157 76.7143 286.547 76.7749C286.936 76.8356 287.31 76.9723 287.646 77.1774C287.983 77.3825 288.276 77.6518 288.508 77.9701C288.741 78.2884 288.909 78.6493 289.002 79.0324C300.707 127.222 302.034 166.038 292.946 194.4C292.85 194.661 292.817 194.941 292.851 195.217C292.885 195.493 292.984 195.757 293.141 195.987C294.355 197.997 298.676 200.061 303.416 200.893C328.459 205.296 356.242 204.968 388.352 199.896C388.742 199.834 389.14 199.849 389.523 199.941C389.907 200.033 390.268 200.2 390.587 200.432C390.907 200.663 391.177 200.956 391.383 201.292C391.589 201.628 391.726 202.002 391.788 202.391C391.85 202.781 391.834 203.179 391.742 203.562C391.649 203.946 391.482 204.307 391.25 204.626C391.018 204.945 390.726 205.215 390.389 205.421C390.053 205.626 389.679 205.764 389.29 205.825C373.089 208.484 356.705 209.869 340.288 209.968Z" fill="black"/>
<path d="M413.505 197.666C412.746 197.665 412.016 197.377 411.462 196.86C410.907 196.343 410.569 195.635 410.515 194.878C410.461 194.122 410.695 193.373 411.171 192.782C411.646 192.191 412.328 191.803 413.078 191.694C420.876 190.563 425.867 186.524 425.875 184.787C426.023 155.585 416.489 115.256 397.537 64.9178C397.398 64.5487 397.332 64.1557 397.344 63.7612C397.357 63.3668 397.447 62.9787 397.609 62.619C397.772 62.2594 398.004 61.9354 398.292 61.6655C398.58 61.3956 398.918 61.1851 399.287 61.0461C399.657 60.9071 400.05 60.8423 400.444 60.8554C400.839 60.8685 401.227 60.9593 401.586 61.1225C401.945 61.2857 402.269 61.5181 402.538 61.8066C402.808 62.095 403.018 62.4337 403.156 62.8033C422.366 113.828 432.03 154.88 431.879 184.818C431.846 191.218 422.732 196.361 413.939 197.635C413.795 197.656 413.65 197.666 413.505 197.666Z" fill="black"/>
<path d="M299.823 280.739C303.144 290.628 305.765 293.947 312.126 302.643C318.487 311.34 324.731 317.525 317.951 331.527C311.171 345.529 289.77 346.086 283.8 347.833C277.83 349.581 254.696 358.285 249.338 359.036C243.979 359.786 220.439 360.684 220.169 348.52C219.899 336.356 233.893 326.655 243.335 319.512C247.306 316.509 258.739 312.099 260.625 293.485C261.582 284.03 297.175 272.853 299.823 280.739Z" fill="white"/>
<path d="M393.287 151.385C359.595 146.872 269.104 165.916 250.102 174.612C234.918 181.562 226.662 187.195 223.869 198.708C219.69 215.928 237.987 249.332 243.818 287.737C246.671 306.528 286.442 311.469 306.073 295.587C315.676 287.818 303.371 253.406 300.237 231.189L318.451 229.384C322.969 229.195 329.308 229.802 339.757 231.483C364.274 235.427 376.576 238.722 383.632 237.94C385.965 237.682 424.334 233.044 431.321 191.777C429.548 171.056 418.026 156.822 393.287 151.385Z" fill="#82BE28"/>
<path d="M318.62 227.39C311.658 227.68 309.034 229.865 302.452 232.955L318.62 227.39Z" fill="black"/>
<path d="M241.044 362.902C235.285 362.896 229.602 361.593 224.415 359.092C222.26 358.084 220.432 356.491 219.139 354.494C217.847 352.497 217.142 350.177 217.106 347.799C216.624 333.631 235.62 320.923 246.987 314.609C247.331 314.417 247.71 314.295 248.102 314.249C248.494 314.204 248.891 314.236 249.27 314.344C249.65 314.452 250.004 314.634 250.313 314.879C250.622 315.124 250.88 315.428 251.071 315.773C251.263 316.118 251.385 316.497 251.43 316.889C251.475 317.281 251.442 317.678 251.333 318.057C251.225 318.436 251.042 318.79 250.797 319.099C250.551 319.408 250.248 319.665 249.902 319.856C225.33 333.507 222.977 343.802 223.106 347.594C223.106 348.868 223.469 350.115 224.153 351.188C224.837 352.262 225.813 353.119 226.967 353.657C240.676 360.096 252.379 355.713 265.929 350.637C273.548 347.784 281.427 344.832 290.573 343.313C304.007 341.079 313.943 334.829 317.152 326.596C319.246 321.221 318.164 315.398 314.106 310.202C305.197 298.793 303.617 295.352 303.351 294.403L309.132 292.784C309.119 292.721 309.099 292.658 309.073 292.599C309.12 292.719 310.321 295.6 318.838 306.506C324.252 313.44 325.639 321.348 322.745 328.775C318.761 339.001 307.101 346.651 291.557 349.234C282.987 350.659 275.386 353.506 268.035 356.26C259.009 359.641 250.299 362.902 241.044 362.902Z" fill="black"/>
<path d="M276.104 306.116C269.511 306.184 262.961 305.056 256.77 302.787C247.704 299.271 242.111 293.378 241.02 286.193C238.448 269.257 233.404 253.259 228.954 239.143C223.176 220.816 218.613 206.342 221.121 196.007C223.65 185.585 230.611 177.872 242.404 172.426C261.323 163.688 359.305 141.791 393.854 146.415C394.245 146.467 394.622 146.596 394.963 146.794C395.305 146.992 395.604 147.255 395.843 147.568C396.083 147.882 396.258 148.239 396.359 148.62C396.461 149.001 396.486 149.399 396.433 149.79C396.381 150.181 396.252 150.557 396.054 150.898C395.856 151.24 395.593 151.538 395.279 151.778C394.966 152.017 394.608 152.192 394.227 152.293C393.845 152.394 393.448 152.419 393.057 152.366C360.165 147.958 262.959 169.546 244.921 177.877C234.761 182.568 229.052 188.779 226.955 197.421C224.841 206.132 229.401 220.593 234.68 237.338C239.196 251.661 244.314 267.896 246.955 285.292C247.973 291.995 254.901 295.624 258.94 297.19C271.594 302.098 292.041 301.22 304.354 291.26C309.746 286.898 305.295 267.066 301.719 251.13C300.064 243.754 298.352 236.125 297.433 229.614C297.322 228.825 297.528 228.025 298.007 227.389C298.486 226.753 299.198 226.333 299.986 226.222C300.775 226.111 301.575 226.317 302.211 226.796C302.847 227.275 303.267 227.987 303.378 228.775C304.263 235.047 305.873 242.221 307.577 249.816C312.124 270.08 316.419 289.22 308.13 295.927C299.244 303.115 287.275 306.115 276.104 306.116Z" fill="black"/>
<path d="M379.168 238.453C372.294 238.453 364.339 237.128 351.705 235.022C348.24 234.445 344.42 233.809 340.175 233.126C316.811 229.365 314.38 230.54 306.328 234.429C305.52 234.82 304.661 235.235 303.728 235.673C303.008 236.01 302.183 236.047 301.435 235.776C300.687 235.506 300.077 234.949 299.739 234.229C299.401 233.509 299.362 232.685 299.632 231.936C299.902 231.188 300.457 230.577 301.177 230.238C302.088 229.81 302.928 229.405 303.717 229.023C313.374 224.36 316.901 223.301 341.129 227.198C345.386 227.883 349.216 228.521 352.692 229.101C369.064 231.829 377.283 233.197 385.159 232.019C385.543 231.962 423.615 225.857 428.516 189.384C428.622 188.595 429.037 187.88 429.669 187.397C430.302 186.914 431.101 186.702 431.89 186.808C432.679 186.914 433.394 187.329 433.877 187.962C434.36 188.595 434.571 189.394 434.465 190.183C433.534 197.471 431.092 204.484 427.295 210.774C423.498 217.063 418.43 222.491 412.416 226.711C402.985 233.512 392.317 237.02 386.046 237.957C383.769 238.294 381.47 238.46 379.168 238.453Z" fill="black"/>
<path d="M183.906 206.131C183.871 206.131 183.837 206.13 183.801 206.129C182.67 206.085 181.563 205.792 180.559 205.27C179.555 204.748 178.679 204.01 177.994 203.109C175.807 200.338 175.054 195.964 175.979 191.41C177.501 183.914 182.995 178.17 188.423 178.377C189.219 178.404 189.971 178.746 190.514 179.328C191.058 179.91 191.348 180.684 191.321 181.479C191.293 182.275 190.951 183.027 190.369 183.57C189.788 184.114 189.014 184.404 188.218 184.376C188.195 184.375 188.172 184.375 188.148 184.375C185.955 184.375 182.827 187.855 181.862 192.604C181.181 195.959 181.892 198.357 182.707 199.391C182.85 199.608 183.043 199.788 183.269 199.916C183.495 200.045 183.748 200.117 184.008 200.129C184.794 200.156 185.538 200.491 186.08 201.062C186.621 201.632 186.918 202.393 186.904 203.179C186.891 203.966 186.57 204.716 186.009 205.268C185.448 205.82 184.693 206.13 183.906 206.131L183.906 206.131Z" fill="black"/>
<path d="M193.658 203.601C192.604 203.604 191.562 203.375 190.606 202.931C189.649 202.488 188.802 201.84 188.123 201.034C185.81 198.362 185.03 194.093 185.982 189.32C187.501 181.706 192.739 175.746 198.166 175.458C198.961 175.415 199.741 175.691 200.333 176.223C200.925 176.755 201.281 177.501 201.324 178.296C201.366 179.091 201.09 179.871 200.558 180.463C200.026 181.055 199.28 181.411 198.485 181.454C196.454 181.561 192.955 185.052 191.87 190.494C191.188 193.91 191.87 196.19 192.662 197.103C192.785 197.272 192.95 197.406 193.141 197.492C193.331 197.578 193.541 197.614 193.749 197.595C194.544 197.554 195.322 197.829 195.913 198.361C196.505 198.893 196.861 199.638 196.903 200.433C196.946 201.227 196.671 202.006 196.14 202.598C195.609 203.19 194.864 203.547 194.07 203.591C193.932 203.598 193.795 203.601 193.658 203.601Z" fill="black"/>
<path d="M238.266 188.645L234.528 206.949L199.381 199.737L207.358 192.758L228.206 186.651L238.266 188.645Z" fill="white"/>
<path d="M147.31 169.254L140.566 176.656L140.369 189.529L163.239 193.506L169.197 173.89L147.31 169.254Z" fill="#2D8C3C"/>
<path d="M228.205 184.628C228.418 184.615 237.086 186.427 237.292 186.443C240.91 186.715 243.285 191.276 242.671 197.042C242.022 203.137 238.28 208.271 234.313 208.509" fill="white"/>
<path d="M234.309 211.511C233.529 211.51 232.78 211.206 232.22 210.662C231.661 210.118 231.335 209.378 231.312 208.598C231.289 207.818 231.57 207.06 232.097 206.484C232.623 205.908 233.353 205.56 234.132 205.513C236.326 205.381 239.167 201.595 239.686 196.725C240.028 193.512 239.221 191.254 238.352 190.211C238.207 189.996 238.017 189.815 237.795 189.681C237.572 189.547 237.323 189.463 237.065 189.435C236.796 189.415 236.791 189.415 233.381 188.717C231.535 188.34 228.486 187.716 227.881 187.613C227.132 187.532 226.442 187.172 225.946 186.606C225.451 186.039 225.186 185.307 225.204 184.555C225.222 183.803 225.522 183.084 226.045 182.543C226.568 182.001 227.275 181.676 228.026 181.631C228.546 181.601 228.547 181.6 234.584 182.836C236.022 183.13 237.276 183.387 237.677 183.463C238.707 183.571 239.706 183.884 240.614 184.383C241.522 184.881 242.321 185.556 242.964 186.368C245.141 188.979 246.121 192.985 245.655 197.36C244.845 204.965 239.942 211.178 234.493 211.505C234.431 211.509 234.37 211.511 234.309 211.511Z" fill="black"/>
<path d="M101.22 184.854C100.54 184.855 99.8807 184.624 99.3499 184.199C96.4131 181.857 95.0021 177.328 95.5752 172.085C96.116 167.135 98.4006 162.329 101.537 159.542C101.832 159.279 102.175 159.077 102.548 158.948C102.92 158.818 103.315 158.763 103.709 158.785C104.103 158.808 104.489 158.909 104.844 159.081C105.199 159.253 105.517 159.493 105.779 159.788C106.041 160.083 106.242 160.427 106.371 160.8C106.501 161.173 106.555 161.567 106.531 161.961C106.508 162.355 106.407 162.741 106.234 163.095C106.061 163.45 105.82 163.768 105.525 164.029C103.486 165.842 101.923 169.259 101.544 172.737C101.161 176.234 102.079 178.696 103.093 179.505C103.58 179.893 103.934 180.423 104.106 181.022C104.279 181.62 104.261 182.257 104.055 182.845C103.849 183.432 103.466 183.941 102.958 184.301C102.45 184.661 101.842 184.855 101.22 184.854Z" fill="black"/>
<path d="M146.081 194.399C145.027 194.402 143.985 194.173 143.029 193.729C142.072 193.286 141.225 192.638 140.545 191.831C138.233 189.161 137.453 184.891 138.405 180.117C139.924 172.504 145.162 166.544 150.59 166.256C151.384 166.215 152.162 166.491 152.753 167.023C153.344 167.555 153.699 168.3 153.742 169.095C153.784 169.889 153.509 170.667 152.978 171.259C152.447 171.851 151.702 172.208 150.908 172.251C148.877 172.359 145.378 175.85 144.292 181.292C143.611 184.708 144.293 186.988 145.084 187.901C145.207 188.07 145.373 188.204 145.563 188.29C145.754 188.376 145.964 188.412 146.172 188.393C146.967 188.35 147.746 188.626 148.339 189.158C148.931 189.69 149.288 190.435 149.33 191.231C149.373 192.026 149.097 192.805 148.565 193.397C148.033 193.99 147.287 194.346 146.492 194.389C146.355 194.395 146.217 194.399 146.081 194.399Z" fill="black"/>
<path d="M232.474 211.512C232.276 211.511 232.08 211.492 231.887 211.453L100.639 185.452C99.858 185.298 99.1706 184.839 98.7279 184.177C98.2852 183.516 98.1233 182.706 98.2781 181.925C98.4328 181.144 98.8913 180.457 99.5529 180.014C100.214 179.571 101.025 179.409 101.806 179.564L233.053 205.565C233.784 205.71 234.435 206.121 234.88 206.719C235.324 207.317 235.53 208.059 235.458 208.801C235.385 209.543 235.04 210.231 234.488 210.732C233.937 211.233 233.219 211.511 232.473 211.512H232.474Z" fill="black"/>
<path d="M237.5 189.207C237.303 189.207 237.106 189.187 236.913 189.149L146.727 171.283C146.34 171.206 145.973 171.054 145.645 170.835C145.317 170.617 145.035 170.335 144.816 170.008C144.597 169.68 144.444 169.313 144.367 168.926C144.29 168.54 144.29 168.142 144.366 167.755C144.443 167.368 144.595 167.001 144.813 166.673C145.032 166.345 145.313 166.063 145.641 165.844C145.968 165.625 146.336 165.472 146.723 165.395C147.109 165.318 147.507 165.318 147.894 165.394L238.08 183.26C238.811 183.405 239.462 183.817 239.906 184.415C240.35 185.013 240.556 185.755 240.484 186.497C240.412 187.238 240.066 187.926 239.515 188.427C238.963 188.928 238.245 189.206 237.5 189.207H237.5Z" fill="black"/>
<path d="M343.217 94.1459C327.659 97.2278 268.225 149.028 260.187 155.54C251.403 162.657 232.727 180.02 223.372 187.219C217.933 191.404 208.27 188.072 200.15 197.214C196.913 200.859 190.59 209.164 180.85 209.118C171.84 209.075 164.503 201.919 163.454 192.97C162.989 189.918 163.177 186.801 164.005 183.827C165.78 179.009 172.104 161.686 196.273 161.254C206.576 161.069 217.286 151.431 223.912 146.039C230.132 140.979 317.236 58.7196 337.502 53.7049" fill="white"/>
<path d="M180.934 212.12H180.836C170.477 212.07 161.724 203.988 160.474 193.319C159.988 189.18 160.249 185.342 161.189 182.79C168.521 162.89 184.284 158.467 196.219 158.253C204.57 158.103 213.956 150.357 220.167 145.232C220.813 144.699 221.432 144.188 222.018 143.711C223.044 142.876 226.73 139.517 231.832 134.866C272.57 97.733 321.315 54.6193 336.781 50.7919C337.165 50.6949 337.563 50.6746 337.955 50.7323C338.346 50.7899 338.722 50.9243 339.061 51.1277C339.4 51.3311 339.696 51.5996 339.931 51.9176C340.166 52.2356 340.336 52.597 340.431 52.9809C340.526 53.3648 340.544 53.7637 340.485 54.1547C340.425 54.5456 340.289 54.921 340.084 55.2591C339.879 55.5972 339.609 55.8915 339.289 56.125C338.97 56.3584 338.608 56.5265 338.224 56.6196C322.251 60.5721 257.24 119.83 235.876 139.303C230.509 144.195 226.963 147.427 225.807 148.368C225.231 148.837 224.623 149.338 223.988 149.863C217.133 155.519 206.774 164.069 196.327 164.255C174.27 164.65 168.674 179.839 166.835 184.83C166.173 187.373 166.037 190.024 166.436 192.621C167.334 200.28 173.536 206.081 180.864 206.116C188.435 206.128 193.807 199.944 197.022 196.234C197.339 195.87 197.633 195.53 197.906 195.222C203.532 188.888 209.802 187.8 214.84 186.926C217.605 186.447 219.992 186.033 221.542 184.84C226.717 180.858 234.778 173.726 242.574 166.829C248.655 161.449 254.399 156.368 258.298 153.208C259.407 152.31 261.519 150.527 264.443 148.06C294.27 122.891 330.113 93.6817 342.634 91.2017C343.02 91.1251 343.418 91.1254 343.805 91.2026C344.191 91.2798 344.559 91.4323 344.886 91.6515C345.214 91.8708 345.495 92.1524 345.714 92.4802C345.933 92.8081 346.085 93.1759 346.161 93.5625C346.238 93.9491 346.238 94.3471 346.16 94.7336C346.083 95.1201 345.931 95.4876 345.711 95.8152C345.492 96.1427 345.211 96.4239 344.883 96.6426C344.555 96.8614 344.187 97.0134 343.8 97.09C331.194 99.5876 283.867 139.525 268.315 152.649C265.364 155.138 263.233 156.937 262.077 157.873C258.279 160.95 252.583 165.99 246.552 171.326C238.681 178.29 230.541 185.49 225.203 189.598C222.478 191.694 219.117 192.278 215.866 192.842C211.323 193.629 206.627 194.444 202.395 199.209C202.137 199.5 201.858 199.821 201.559 200.166C197.935 204.348 191.198 212.12 180.934 212.12Z" fill="black"/>
<path d="M316.482 130.145C317.962 130.874 331.314 132.249 341.198 120.981C354.29 106.057 374.781 83.5354 380.299 70.6522C384.477 60.8977 383.923 6.23478 355.86 15.3484C328.637 24.1894 329.359 42.2914 313.087 51.009C282.311 67.4963 265.952 87.9078 281.196 88.7985C303.396 90.0956 308.221 126.08 316.482 130.145Z" fill="#2D8C3C"/>
<path d="M319.797 133.931C319.685 133.931 319.574 133.93 319.462 133.928C315.67 133.869 312.674 132.776 311.027 130.849C309.555 129.127 308.451 126.051 306.467 120.309C300.853 104.06 294.336 88.4721 281.955 91.7015C281.184 91.9029 280.366 91.7901 279.679 91.3878C278.992 90.9856 278.493 90.3269 278.291 89.5567C278.09 88.7865 278.203 87.9678 278.605 87.2808C279.007 86.5938 279.666 86.0947 280.436 85.8934C299.231 80.9803 307.312 104.373 312.142 118.349C313.383 121.94 314.789 126.01 315.59 126.948C315.849 127.251 317.159 127.888 319.555 127.925C321.838 127.941 324.099 127.487 326.199 126.592C328.299 125.696 330.191 124.377 331.759 122.718C332.164 122.273 332.679 121.674 333.308 120.944C340.251 112.674 348.108 105.217 356.728 98.7145C357.044 98.4783 357.403 98.3066 357.785 98.2093C358.167 98.1119 358.564 98.0907 358.955 98.1469C359.345 98.2031 359.72 98.3356 360.059 98.5369C360.398 98.7381 360.694 99.0042 360.93 99.3198C361.167 99.6355 361.338 99.9946 361.436 100.377C361.533 100.759 361.554 101.156 361.498 101.546C361.442 101.937 361.309 102.312 361.108 102.651C360.907 102.99 360.641 103.286 360.325 103.522C352.056 109.765 344.519 116.923 337.858 124.86C337.185 125.643 336.632 126.283 336.198 126.76C334.103 129.016 331.565 130.818 328.743 132.051C325.922 133.285 322.876 133.925 319.797 133.931Z" fill="black"/>
<path d="M280.045 91.1737C279.487 91.174 278.941 91.0183 278.468 90.7242C274.522 88.2823 273.752 85.2023 273.801 83.0497C274.011 73.7414 290.704 63.879 294.323 61.8495C299.585 58.3836 316.712 46.6949 322.781 37.6417C330.497 26.1328 349.198 10.2024 362.841 11.4849C363.634 11.5598 364.364 11.9465 364.872 12.5599C365.379 13.1734 365.622 13.9633 365.547 14.7559C365.472 15.5485 365.086 16.279 364.472 16.7865C363.859 17.294 363.069 17.537 362.276 17.4621C351.682 16.4498 334.49 30.957 327.768 40.9855C321.221 50.7501 304.442 62.3781 297.532 66.9238C297.472 66.9639 297.409 67.002 297.346 67.0372C290.329 70.9594 279.9 78.805 279.803 83.1855C279.795 83.5373 279.774 84.4724 281.627 85.6196C282.182 85.9633 282.611 86.4788 282.847 87.0879C283.082 87.6969 283.113 88.3664 282.934 88.9945C282.755 89.6227 282.376 90.1754 281.855 90.5686C281.333 90.9619 280.698 91.1743 280.045 91.1737H280.045Z" fill="black"/>
<path d="M400.345 66.8626C399.707 66.862 399.086 66.6583 398.571 66.2809C398.057 65.9035 397.676 65.3721 397.484 64.7637C394.258 54.9323 390.449 45.3018 386.078 35.9232C377.5 17.7878 368.967 7.14671 362.051 5.96046C361.267 5.82529 360.568 5.38427 360.109 4.73434C359.65 4.08441 359.467 3.27874 359.602 2.49442C359.736 1.71009 360.177 1.01128 360.827 0.551581C361.476 0.0918772 362.282 -0.0911052 363.066 0.04285C383.909 3.61921 401.295 56.8937 403.209 62.9559C403.35 63.4058 403.383 63.8826 403.306 64.3477C403.229 64.8129 403.044 65.2535 402.765 65.6338C402.487 66.014 402.122 66.3234 401.702 66.5369C401.281 66.7504 400.817 66.8619 400.345 66.8626V66.8626Z" fill="black"/>
</svg>
