<svg width="300" height="250" viewBox="0 0 300 250" fill="none" xmlns="http://www.w3.org/2000/svg">
<path d="M123.731 4.12733C123.731 4.12733 131.731 2.12733 147.731 1.12733C163.731 0.127332 183.216 5.19322 188.474 10.1603C193.731 15.1273 146.731 25.1273 134.731 20.1273C122.731 15.1273 123.731 4.12733 123.731 4.12733Z" fill="white"/>
<path d="M126.028 8.83691C117.462 13.8719 111.096 23.3195 104.43 37.2343C94.5869 58.1426 86.3302 79.7614 79.7295 101.908C73.3333 123.326 55.1455 167.689 46.702 174.404C37.8553 181.44 24.327 184.169 20.1649 184.788C16.4515 185.341 7.1363 186.215 4.66496 193C2.19362 199.784 7.00833 205.933 13.5067 207.974C18.0784 209.41 29.0415 211.371 36.2318 205.269C43.4222 199.166 48.7683 196.791 52.0989 200.568C55.6086 204.548 53.7011 209.378 59.8271 213.367C61.1576 214.246 62.6947 214.762 64.2861 214.864C65.8775 214.967 67.468 214.651 68.9001 213.95C70.3322 213.249 71.5563 212.185 72.4511 210.865C73.3459 209.545 73.8804 208.015 74.0016 206.425L78.5415 196.337C79.8566 192.165 80.616 182.861 79.8809 176.916C78.4739 165.535 85.9112 147.984 98.5557 118.78L126.028 8.83691Z" fill="white"/>
<path d="M64.9056 217.908C62.5178 217.899 60.1845 217.194 58.1908 215.88C53.6368 212.915 52.5772 209.411 51.7257 206.597C51.411 205.125 50.7698 203.743 49.8495 202.553C48.2071 200.688 44.2787 202.373 38.1739 207.556C28.9171 215.413 15.2538 211.666 12.6087 210.836C10.4299 210.196 8.40199 209.125 6.64582 207.685C4.88964 206.246 3.44107 204.467 2.38632 202.456C1.57631 200.841 1.11014 199.076 1.01727 197.271C0.924399 195.467 1.20685 193.663 1.84677 191.973C4.77719 183.928 14.3648 182.577 18.9725 181.929L19.7237 181.821C21.3397 181.58 35.7711 179.265 44.8351 172.056C52.1491 166.24 70.1461 123.516 76.8556 101.049C83.4896 78.7489 91.8032 56.9832 101.725 35.9388C109.341 20.0394 116.155 11.1615 124.509 6.2513C124.848 6.05117 125.224 5.91993 125.614 5.8651C126.005 5.81027 126.402 5.83291 126.784 5.93174C127.165 6.03056 127.524 6.20363 127.838 6.44104C128.153 6.67846 128.418 6.97557 128.618 7.31539C128.817 7.6552 128.948 8.03107 129.003 8.42148C129.057 8.8119 129.034 9.20922 128.935 9.59072C128.836 9.97222 128.662 10.3304 128.424 10.6448C128.187 10.9593 127.889 11.2238 127.549 11.4232C120.303 15.6829 114.198 23.7894 107.136 38.5306C97.3493 59.2925 89.1487 80.7656 82.6046 102.766C76.9916 121.561 58.3126 169.003 48.5697 176.751C38.4947 184.765 23.5087 187.325 20.6068 187.756L19.8092 187.87C16.0951 188.393 9.18176 189.367 7.4845 194.026C7.12399 194.954 6.96279 195.948 7.01137 196.943C7.05995 197.938 7.31723 198.911 7.7665 199.8C8.46855 201.079 9.4166 202.207 10.5561 203.119C11.6957 204.03 13.0042 204.708 14.4064 205.112C15.7047 205.519 27.2912 208.922 34.2914 202.982C38.035 199.804 47.9804 191.36 54.3497 198.584C55.8561 200.41 56.9232 202.557 57.4689 204.86C58.2103 207.311 58.746 209.082 61.465 210.853C62.3283 211.458 63.3381 211.822 64.3894 211.905C65.4407 211.988 66.495 211.788 67.4428 211.325C68.437 210.845 69.2892 210.114 69.9156 209.205C70.5421 208.296 70.9213 207.239 71.016 206.139C71.0916 205.347 71.4788 204.617 72.0923 204.111C72.7058 203.604 73.4955 203.362 74.2875 203.438C75.0795 203.513 75.8091 203.901 76.3156 204.514C76.8222 205.128 77.0643 205.917 76.9887 206.709C76.7849 208.834 76.0398 210.87 74.8247 212.624C73.6096 214.379 71.965 215.792 70.048 216.73C68.4444 217.505 66.6866 217.908 64.9056 217.908Z" fill="black"/>
<path d="M127.134 3.1416C109.134 7.1416 92.1337 26.0086 83.4079 47.7025C74.6821 69.3964 58.6821 116.396 29.7554 156.306C25.5574 162.098 27.6131 170.007 31.3132 172.325C41.4087 178.652 60.1546 190.842 66.8054 197.493C73.4562 204.144 109.343 131.867 115.031 114.482C120.72 97.096 138.793 46.0317 141.554 34.703C131.603 16.6653 139.144 14.7113 127.134 3.1416Z" fill="white"/>
<path d="M66.8076 202.493C66.3414 202.494 65.8815 202.386 65.4645 202.178C65.0474 201.969 64.6848 201.666 64.4055 201.293C56.4827 190.73 44.8784 184.418 36.4055 179.81C32.4656 177.667 29.3535 175.974 27.4263 174.284C26.1338 173.13 25.0835 171.73 24.3363 170.166C23.589 168.602 23.1596 166.906 23.073 165.175C22.9864 163.444 23.2443 161.713 23.8318 160.082C24.4193 158.452 25.3246 156.954 26.4953 155.676C26.529 155.638 26.5639 155.601 26.5998 155.565C41.7422 140.206 57.1157 103.916 69.4685 74.7569C75.4389 60.6632 80.5955 48.4913 84.7727 40.9307C91.5239 28.712 103.505 14.4718 113.26 7.0704C113.574 6.83144 113.932 6.65668 114.313 6.55614C114.695 6.4556 115.092 6.43125 115.483 6.48448C115.874 6.53771 116.25 6.66748 116.591 6.86636C116.931 7.06524 117.229 7.32933 117.468 7.64351C117.706 7.95769 117.88 8.3158 117.98 8.69734C118.08 9.07888 118.104 9.47635 118.05 9.86703C117.996 10.2577 117.865 10.6339 117.666 10.9741C117.466 11.3143 117.202 11.6119 116.887 11.8497C107.717 18.8067 96.42 32.2579 90.0242 43.8331C85.9983 51.1192 80.8982 63.1583 74.9932 77.0977C62.4563 106.691 46.8577 143.512 30.9307 159.718C30.2971 160.406 29.806 161.213 29.4855 162.092C29.1651 162.971 29.0218 163.905 29.0637 164.839C29.1057 165.774 29.3321 166.691 29.73 167.537C30.1279 168.384 30.6894 169.144 31.3821 169.773C33.871 171.584 36.5108 173.179 39.2722 174.539C47.7246 179.136 60.4981 186.083 69.2053 197.693C69.5396 198.139 69.7433 198.669 69.7935 199.223C69.8436 199.778 69.7384 200.336 69.4895 200.834C69.2406 201.332 68.8578 201.752 68.3842 202.045C67.9105 202.338 67.3646 202.493 66.8076 202.493H66.8076Z" fill="black"/>
<path d="M208.702 31.3368C192.702 1.33678 180.731 3.58508 180.731 3.58508C169.059 15.2576 136.985 13.7475 128.375 5.13689C128.375 5.13689 121.921 7.04552 115.702 15.3368C109.129 24.1005 100.564 41.7357 99.1332 56.5363C97.702 71.3368 86.8012 128.253 86.6537 129.347C77.0927 200.266 64.7406 214.921 77.2091 226.698C102.033 250.147 147.712 249.635 163.221 243.496C195.145 230.859 220.925 237.732 228.985 240.614C237.045 243.496 220.421 53.31 208.702 31.3368Z" fill="white"/>
<path d="M92.9193 241.436C92.507 241.436 92.0991 241.351 91.7213 241.185C74.4936 233.671 66.6737 224.218 68.4786 213.087C72.7128 186.976 82.4911 148.305 83.1325 145.78L83.7521 142.019C87.1229 121.6 90.6088 100.485 88.9379 84.8914C88.8936 84.4985 88.9275 84.1008 89.0375 83.7211C89.1474 83.3413 89.3314 82.987 89.5788 82.6786C89.8261 82.3702 90.132 82.1137 90.4788 81.924C90.8257 81.7342 91.2066 81.6148 91.5997 81.5727C91.9928 81.5306 92.3904 81.5667 92.7695 81.6787C93.1486 81.7908 93.5019 81.9767 93.8089 82.2258C94.116 82.4748 94.3707 82.7821 94.5586 83.13C94.7465 83.4779 94.8638 83.8594 94.9037 84.2527C96.6615 100.658 93.1083 122.181 89.672 142.997L89.0321 146.881C89.018 146.967 88.9999 147.052 88.9784 147.137C88.8764 147.537 78.7147 187.447 74.4015 214.048C73.0912 222.127 79.7255 229.407 94.1203 235.685C94.7521 235.961 95.2697 236.446 95.5861 237.059C95.9024 237.671 95.9982 238.374 95.8572 239.049C95.7163 239.724 95.3473 240.33 94.8123 240.764C94.2772 241.199 93.6088 241.436 92.9193 241.436Z" fill="black"/>
<path d="M134.038 249.936C126.62 249.965 119.218 249.268 111.937 247.854C111.157 247.698 110.47 247.238 110.029 246.576C109.588 245.914 109.428 245.104 109.584 244.324C109.74 243.544 110.199 242.858 110.861 242.416C111.523 241.975 112.333 241.815 113.113 241.971C128.351 245.018 146.356 244.512 162.512 240.581C185.481 234.993 209.42 230.145 227.518 237.386C227.885 237.532 228.219 237.749 228.501 238.024C228.784 238.299 229.009 238.627 229.164 238.989C229.32 239.351 229.403 239.741 229.408 240.135C229.412 240.529 229.34 240.921 229.193 241.287C229.047 241.653 228.83 241.986 228.554 242.269C228.279 242.551 227.95 242.776 227.588 242.931C227.225 243.086 226.836 243.168 226.441 243.172C226.047 243.177 225.656 243.103 225.29 242.956C208.836 236.373 185.956 241.053 163.93 246.411C154.14 248.759 144.106 249.942 134.038 249.936Z" fill="black"/>
<path d="M150.628 15.5545C150.165 15.5545 149.703 15.5477 149.241 15.535C140.014 15.2732 131.665 12.285 126.334 7.33477C125.753 6.79301 125.41 6.04253 125.381 5.24815C125.352 4.45377 125.64 3.68044 126.181 3.09797C126.722 2.51551 127.472 2.17154 128.266 2.1416C129.06 2.11166 129.834 2.3982 130.417 2.93829C138.897 10.8123 158.004 13.1238 176.713 1.89921C177.051 1.69652 177.426 1.56235 177.815 1.50436C178.205 1.44637 178.602 1.4657 178.984 1.56123C179.367 1.65676 179.726 1.82664 180.043 2.06115C180.359 2.29567 180.626 2.59023 180.829 2.92802C181.032 3.26582 181.166 3.64023 181.224 4.02987C181.282 4.41952 181.263 4.81678 181.167 5.19896C181.072 5.58114 180.902 5.94076 180.667 6.25729C180.433 6.57382 180.138 6.84105 179.8 7.04374C171.027 12.4706 160.944 15.4123 150.628 15.5545Z" fill="black"/>
<path d="M198.477 92.876C209.281 121.005 219.496 152.958 221.703 162.744C225.627 180.147 227.7 186.446 223.492 201.806L221.262 215.824C221.001 217.397 221.155 219.011 221.71 220.506C222.264 222.001 223.2 223.326 224.423 224.348C225.647 225.371 227.117 226.056 228.687 226.335C230.257 226.615 231.872 226.48 233.374 225.943C240.274 223.529 239.572 218.384 243.929 215.355C248.064 212.481 257.645 216.694 263.174 224.334C268.703 231.974 279.817 232.682 284.599 232.377C291.397 231.943 297.538 227.118 296.755 219.941C295.971 212.763 287.133 209.694 283.658 208.272C279.763 206.679 267.275 200.805 260.36 191.864C253.76 183.33 241.653 136.76 235.543 113.226C219.008 53.9405 212.184 44.4852 208.289 35.7217L198.477 92.876Z" fill="white"/>
<path d="M282.817 235.429C277.901 235.429 266.785 234.442 260.743 226.093C255.612 219.002 247.664 216.417 245.642 217.819C244.465 218.756 243.512 219.945 242.856 221.299C241.358 223.83 239.494 226.981 234.365 228.776C232.405 229.486 230.295 229.676 228.241 229.325C226.186 228.974 224.259 228.095 222.646 226.775C221.008 225.407 219.748 223.642 218.986 221.649C218.224 219.656 217.985 217.5 218.293 215.389C218.35 214.998 218.482 214.623 218.684 214.283C218.885 213.944 219.152 213.648 219.468 213.412C219.784 213.176 220.144 213.004 220.527 212.908C220.909 212.811 221.307 212.79 221.698 212.847C222.088 212.905 222.463 213.038 222.802 213.241C223.141 213.443 223.436 213.71 223.672 214.027C223.907 214.344 224.077 214.704 224.173 215.087C224.269 215.47 224.288 215.868 224.23 216.258C224.06 217.349 224.177 218.465 224.568 219.498C224.96 220.53 225.613 221.443 226.464 222.147C227.274 222.823 228.251 223.269 229.292 223.438C230.333 223.608 231.401 223.495 232.383 223.111C235.446 222.04 236.388 220.448 237.692 218.244C238.771 216.138 240.319 214.307 242.217 212.893C247.36 209.315 258.455 212.696 265.604 222.575C270.986 230.013 283.049 229.469 284.409 229.383C285.867 229.325 287.299 228.979 288.623 228.365C289.946 227.751 291.136 226.882 292.122 225.807C292.771 225.05 293.252 224.166 293.537 223.212C293.821 222.257 293.901 221.253 293.772 220.266C293.234 215.335 286.75 212.742 283.267 211.349L282.522 211.049C279.806 209.938 265.86 203.879 257.986 193.698C251.836 185.747 242.169 150.686 232.639 113.981C218.677 63.9201 211.725 49.7003 207.571 41.2043C206.812 39.6496 206.155 38.3068 205.548 36.9406C205.225 36.2135 205.203 35.3878 205.489 34.6451C205.774 33.9024 206.343 33.3036 207.07 32.9804C207.798 32.6571 208.623 32.636 209.366 32.9215C210.109 33.2071 210.707 33.776 211.031 34.5031C211.594 35.7707 212.228 37.0675 212.962 38.5685C217.206 47.2492 224.309 61.7785 238.432 112.421C243.845 133.264 256.487 181.953 262.733 190.028C269.816 199.187 283.282 204.877 284.794 205.496L285.494 205.778C289.816 207.506 298.808 211.102 299.737 219.615C299.956 221.409 299.8 223.228 299.28 224.959C298.76 226.689 297.886 228.293 296.715 229.668C295.211 231.37 293.381 232.752 291.332 233.732C289.284 234.712 287.059 235.269 284.79 235.371C284.372 235.398 283.693 235.429 282.817 235.429Z" fill="black"/>
<path d="M223.494 204.807C223.032 204.807 222.577 204.7 222.163 204.496C221.749 204.291 221.388 203.993 221.108 203.626C220.828 203.259 220.637 202.833 220.548 202.379C220.46 201.926 220.477 201.459 220.599 201.014C224.288 187.545 222.927 181.586 219.638 167.191C219.362 165.987 219.075 164.727 218.776 163.404C216.702 154.209 206.672 122.582 195.676 93.951C195.535 93.5832 195.467 93.1913 195.478 92.7975C195.488 92.4036 195.576 92.0157 195.736 91.6558C195.896 91.2959 196.126 90.9711 196.411 90.6999C196.697 90.4287 197.033 90.2165 197.401 90.0753C197.769 89.9341 198.161 89.8667 198.555 89.877C198.949 89.8873 199.337 89.975 199.696 90.1353C200.056 90.2955 200.381 90.525 200.652 90.8107C200.923 91.0965 201.136 91.4329 201.277 91.8006C212.369 120.679 222.516 152.716 224.629 162.084C224.926 163.401 225.213 164.655 225.487 165.854C228.91 180.838 230.473 187.677 226.385 202.599C226.212 203.233 225.835 203.793 225.312 204.191C224.79 204.59 224.151 204.807 223.494 204.807Z" fill="black"/>
<path d="M273.525 183.556C274.998 182.231 278.254 178.069 276.795 176.729C256.687 158.273 224.551 46.796 216.681 33.3965C200.276 5.4631 190.516 5.81199 181.516 6.81199C162.578 8.91624 176.997 50.5093 182.681 70.3965C185.73 81.0648 206.681 130.809 206.681 177.397C206.681 201.397 207.681 214.397 215.681 209.397C235.681 188.397 253.104 201.942 273.525 183.556Z" fill="white"/>
<path d="M215.87 212.478C215.336 212.478 214.812 212.335 214.353 212.065C213.893 211.794 213.513 211.406 213.253 210.94C212.993 210.475 212.862 209.948 212.873 209.415C212.885 208.881 213.038 208.361 213.318 207.906C219.727 197.491 231.794 195.27 243.463 193.122C253.135 191.342 263.136 189.5 270.615 183.22C274.902 179.62 273.343 175.517 271.28 172.708C260.894 158.564 248.568 124.404 236.647 91.3691C227.511 66.0507 218.882 42.1376 212.058 29.8535C207.256 21.2099 201.612 15.7138 193.185 11.4785C192.475 11.1207 191.936 10.4955 191.687 9.74048C191.437 8.98542 191.498 8.16218 191.855 7.45167C192.212 6.74115 192.836 6.20147 193.591 5.95124C194.346 5.701 195.169 5.76068 195.88 6.11715C205.337 10.871 211.944 17.2929 217.303 26.9394C224.362 39.6464 233.071 63.7802 242.291 89.332C254.067 121.967 266.244 155.712 276.116 169.157C280.958 175.749 280.328 182.898 274.473 187.815C265.781 195.114 254.988 197.102 244.55 199.022C233.221 201.108 223.438 202.909 218.427 211.051C218.159 211.488 217.783 211.848 217.335 212.098C216.887 212.348 216.382 212.479 215.87 212.478Z" fill="black"/>
<path d="M208.68 201.397C208.029 201.397 207.395 201.184 206.875 200.791C206.355 200.399 205.977 199.847 205.797 199.221C195.828 164.327 192.72 123.028 192.69 122.615C192.661 122.222 192.709 121.827 192.833 121.452C192.956 121.078 193.152 120.731 193.41 120.432C193.667 120.134 193.981 119.889 194.333 119.712C194.686 119.534 195.07 119.428 195.463 119.4C195.856 119.371 196.251 119.42 196.626 119.544C197 119.668 197.346 119.865 197.644 120.123C197.943 120.381 198.187 120.695 198.364 121.048C198.54 121.4 198.646 121.784 198.674 122.178C198.704 122.585 201.77 163.285 211.566 197.572C211.694 198.019 211.716 198.489 211.63 198.945C211.545 199.402 211.355 199.832 211.076 200.203C210.796 200.574 210.434 200.875 210.019 201.082C209.603 201.289 209.145 201.397 208.68 201.397H208.68Z" fill="black"/>
</svg>
