<svg width="300" height="251" viewBox="0 0 300 251" fill="none" xmlns="http://www.w3.org/2000/svg">
<path d="M104.404 224.182C104.33 224.182 104.256 224.179 104.181 224.174C103.388 224.116 102.65 223.745 102.13 223.143C101.61 222.541 101.35 221.757 101.408 220.963C101.563 218.847 101.756 216.262 101.977 213.295C104.167 183.949 109.296 115.227 107.533 97.5338C106.16 83.7623 106.788 66.2887 107.285 57.0992C107.305 56.7051 107.403 56.3188 107.573 55.9625C107.743 55.6062 107.981 55.2869 108.274 55.0229C108.568 54.7589 108.91 54.5554 109.283 54.424C109.655 54.2926 110.049 54.236 110.443 54.2573C110.837 54.2786 111.223 54.3775 111.579 54.5483C111.935 54.7191 112.254 54.9584 112.517 55.2525C112.78 55.5466 112.983 55.8898 113.113 56.2623C113.243 56.6348 113.299 57.0294 113.276 57.4235C112.789 66.441 112.17 83.566 113.503 96.9381C115.318 115.152 110.163 184.24 107.961 213.741C107.74 216.706 107.547 219.288 107.392 221.401C107.337 222.156 106.998 222.863 106.444 223.378C105.89 223.894 105.161 224.181 104.404 224.182Z" fill="black"/>
<path d="M206.484 227.323C205.722 227.323 204.989 227.032 204.433 226.51C203.878 225.989 203.541 225.275 203.493 224.515C202.363 206.798 200.684 191.44 199.192 178.752C197.499 164.365 196.977 112.656 199.369 97.4113C199.492 96.6252 199.922 95.9203 200.566 95.4516C201.209 94.983 202.011 94.7889 202.797 94.9122C203.583 95.0355 204.288 95.466 204.757 96.109C205.226 96.752 205.42 97.5549 205.296 98.3409C203.017 112.872 203.532 164.287 205.151 178.051C206.653 190.817 208.342 206.276 209.481 224.132C209.506 224.525 209.453 224.92 209.326 225.292C209.199 225.665 208.999 226.01 208.739 226.305C208.479 226.601 208.163 226.843 207.809 227.016C207.455 227.19 207.071 227.292 206.678 227.318C206.613 227.321 206.548 227.323 206.484 227.323Z" fill="black"/>
<path d="M126.03 9.03011C126.03 9.03011 136.003 4.04199 151.968 4.04199C173.916 4.04199 195.863 12.023 189.545 19.6714C183.227 27.3198 102.752 34.9683 126.03 9.03011Z" fill="white"/>
<path d="M132.376 7.62707C120.603 2.99982 110.768 0.854078 97.9443 15.5103C85.1211 30.1665 71.8867 60.8963 58.8432 67.0245C45.7996 73.1527 41.489 82.5986 51.1322 87.7843C60.7754 92.97 79.9565 109.004 98.037 107.956C116.117 106.908 132.376 7.62707 132.376 7.62707Z" fill="#82BE28"/>
<path d="M208.768 31.9696C192.768 1.9696 180.797 4.21789 180.797 4.21789C169.125 15.8904 137.052 14.3803 128.441 5.76971C128.441 5.76971 121.987 7.67834 115.768 15.9696C109.196 24.7333 100.631 42.3685 99.1996 57.1691C97.7685 71.9696 86.8676 128.886 86.7201 129.98C77.1591 200.898 64.807 215.554 77.2755 227.331C102.1 250.779 147.778 250.268 163.287 244.129C195.211 231.492 220.991 238.365 229.051 241.247C231.011 241.947 241.612 232.143 241.079 215.211C234.079 159.211 217.638 48.6006 208.768 31.9696Z" fill="#82BE28"/>
<path d="M150.695 18.1873C150.231 18.1873 149.77 18.1805 149.307 18.1678C140.08 17.9061 131.731 14.9178 126.401 9.96758C125.819 9.42581 125.476 8.67532 125.447 7.88094C125.418 7.08656 125.706 6.31322 126.247 5.73076C126.788 5.1483 127.538 4.80434 128.332 4.7744C129.127 4.74446 129.9 5.031 130.484 5.57109C138.963 13.4451 158.07 15.7566 176.78 4.53203C177.462 4.12268 178.279 4.00111 179.051 4.19405C179.823 4.38699 180.486 4.87863 180.896 5.56084C181.305 6.24305 181.426 7.05993 181.233 7.83178C181.041 8.60362 180.549 9.26721 179.867 9.67656C171.093 15.1034 161.01 18.045 150.695 18.1873Z" fill="black"/>
<path d="M92.9857 242.069C92.5734 242.069 92.1655 241.983 91.7877 241.818C74.5599 234.303 66.7401 224.85 68.5451 213.719C72.7792 187.609 82.5575 148.937 83.1989 146.413L83.8185 142.652C87.1893 122.233 90.6752 101.118 89.0043 85.5242C88.96 85.1313 88.9939 84.7336 89.1039 84.3538C89.2139 83.9741 89.3979 83.6198 89.6452 83.3114C89.8926 83.003 90.1985 82.7466 90.5453 82.5568C90.8921 82.367 91.273 82.2476 91.6661 82.2055C92.0592 82.1634 92.4567 82.1995 92.8359 82.3115C93.215 82.4236 93.5683 82.6095 93.8753 82.8586C94.1823 83.1076 94.4371 83.4149 94.625 83.7627C94.8129 84.1106 94.9302 84.4921 94.9701 84.8855C96.7279 101.291 93.1747 122.814 89.7384 143.63L89.0985 147.513C89.0844 147.599 89.0663 147.684 89.0448 147.769C88.9428 148.17 78.7811 188.08 74.4679 214.68C73.1576 222.76 79.7919 230.04 94.1867 236.318C94.8185 236.594 95.3361 237.079 95.6524 237.691C95.9688 238.304 96.0645 239.007 95.9236 239.682C95.7827 240.357 95.4137 240.962 94.8786 241.397C94.3436 241.832 93.6752 242.069 92.9857 242.069Z" fill="black"/>
<path d="M261.161 113.906C262.469 112.418 259.671 101.286 256.767 98.3122C239.434 80.5609 240.745 46.7706 231.593 31.4722C230.677 29.94 226.652 23.1012 225.87 21.9223C213.146 2.73759 194.476 5.13361 185.51 6.39806C183.463 7.31997 180.798 34.6782 182.458 45.3198C185.45 64.5043 175.763 115.888 199.252 120.162C225.966 102.128 243.463 134.038 261.161 113.906Z" fill="#82BE28"/>
<path d="M247.513 121.858C245.249 145.772 224.028 162.606 211.398 161.008C202.249 159.85 177.057 152.712 156.549 141.814C138.051 131.983 117.801 131.49 107.38 127.179C96.959 122.867 107.545 106.496 118.293 104.538C127.155 103.087 136.235 103.77 144.781 106.532C144.781 106.532 152.527 93.908 162.445 96.0917C172.364 98.2754 164.737 111.457 170.511 119.136C170.511 119.136 191.08 124.886 200.204 123.581C207.411 122.549 211.563 119.959 212.773 116.018C226.296 109.709 247.513 121.858 247.513 121.858Z" fill="white"/>
<path d="M214.352 162.19C213.274 162.19 212.197 162.122 211.127 161.988C200.413 160.631 178.388 154.6 155.35 144.564C144.265 139.735 133.209 137.122 123.454 134.818C116.625 133.204 110.728 131.811 106.233 129.951C104.273 129.251 102.608 127.909 101.506 126.143C100.405 124.378 99.9313 122.292 100.163 120.224C100.794 112.588 109.276 103.544 117.616 101.615C130.252 98.6917 139.531 101.167 143.746 102.789C146.763 98.849 153.974 91.1546 163.09 93.1624C171.075 94.9202 171.052 101.099 171.036 105.611C171.024 108.799 171.013 111.812 172.909 114.333C173.145 114.648 173.318 115.007 173.416 115.388C173.514 115.77 173.536 116.167 173.481 116.557C173.426 116.947 173.294 117.322 173.094 117.662C172.894 118.001 172.628 118.297 172.314 118.534C171.999 118.771 171.64 118.943 171.259 119.041C170.877 119.14 170.48 119.162 170.09 119.106C169.7 119.051 169.324 118.92 168.985 118.719C168.646 118.519 168.35 118.254 168.113 117.939C165.005 113.806 165.022 109.249 165.036 105.588C165.054 100.698 164.796 99.6819 161.8 99.0218C154.179 97.3518 147.404 107.992 147.337 108.101C146.931 108.763 146.285 109.241 145.534 109.436C144.782 109.631 143.985 109.527 143.309 109.146C143.228 109.102 133.767 104.037 118.969 107.46C112.64 108.925 106.524 116.094 106.143 120.718C106.015 121.519 106.188 122.338 106.628 123.019C107.068 123.7 107.744 124.194 108.527 124.407C112.576 126.082 118.256 127.424 124.834 128.978C134.339 131.224 146.169 134.02 157.747 139.064C183.645 150.346 204.481 155.098 211.88 156.034C221.477 157.25 238.946 151.311 243.549 121.35C243.67 120.563 244.098 119.857 244.739 119.386C245.381 118.916 246.183 118.719 246.969 118.84C247.756 118.96 248.462 119.389 248.933 120.03C249.404 120.671 249.6 121.474 249.48 122.26C247.315 136.348 241.964 147.475 234.004 154.44C228.604 159.311 221.623 162.063 214.352 162.19Z" fill="black"/>
<path d="M249.659 123.777C245.481 123.777 241.239 122.409 236.445 120.863C235.685 120.618 234.9 120.367 234.09 120.109C225.935 117.527 216.458 115.056 207.195 118.428C206.447 118.7 205.622 118.664 204.901 118.327C204.18 117.991 203.622 117.382 203.35 116.634C203.078 115.886 203.114 115.061 203.45 114.34C203.786 113.619 204.395 113.061 205.143 112.789C216.176 108.773 226.804 111.51 235.901 114.388C236.722 114.648 237.516 114.905 238.286 115.153C247.442 118.103 251.373 119.152 256.775 115.341C260.025 113.05 257.571 107.388 254.536 101.292C254.309 100.836 254.09 100.396 253.885 99.9764C245.96 83.7557 243.266 74.8817 239.855 63.6463C237.72 56.616 235.301 48.6473 231.097 37.3133C222.146 13.1785 202.294 5.14631 186.586 7.90022C186.198 7.96815 185.8 7.95899 185.415 7.87325C185.031 7.78751 184.667 7.62687 184.345 7.40051C184.022 7.17414 183.747 6.88649 183.536 6.55396C183.325 6.22144 183.181 5.85055 183.113 5.46249C183.045 5.07442 183.055 4.67677 183.14 4.29224C183.226 3.90772 183.387 3.54384 183.613 3.2214C183.839 2.89895 184.127 2.62426 184.46 2.41299C184.792 2.20171 185.163 2.05801 185.551 1.99007C191.029 1.00965 196.649 1.13908 202.076 2.37069C207.503 3.6023 212.628 5.91102 217.147 9.16C226.143 15.685 232.965 24.7688 236.723 35.2274C240.99 46.7313 243.437 54.7918 245.596 61.9041C249.032 74.1205 253.612 85.9855 259.276 97.3416C259.475 97.7489 259.687 98.1756 259.907 98.618C262.919 104.669 267.96 114.795 260.233 120.244C257.181 122.531 253.472 123.77 249.659 123.777Z" fill="black"/>
<path d="M92.4775 26.5448C91.9419 26.5443 91.4162 26.4005 90.9551 26.1282C90.4939 25.8559 90.1141 25.4651 89.8549 24.9964C89.5958 24.5277 89.4669 23.9982 89.4816 23.4629C89.4963 22.9275 89.654 22.4059 89.9384 21.9521C96.392 11.6542 108.31 0.875897 120.388 0.00772667C121.181 -0.0493174 121.965 0.211223 122.567 0.732031C123.168 1.25284 123.538 1.99125 123.595 2.78483C123.652 3.5784 123.392 4.36213 122.871 4.96361C122.35 5.56509 121.612 5.93506 120.818 5.9921C110.892 6.70597 100.488 16.4169 95.0224 25.1376C94.7525 25.5689 94.3773 25.9244 93.932 26.1706C93.4868 26.4168 92.9862 26.5456 92.4775 26.5448Z" fill="black"/>
<path d="M52.9912 92.8139C52.6285 92.8139 52.2689 92.7477 51.9299 92.6186C46.3838 90.52 41.0637 84.143 42.1397 77.4985C42.6182 74.5434 45.6065 72.4321 50.5574 68.935C58.3521 63.4282 71.3977 54.2114 80.0115 36.7241C80.1852 36.3701 80.427 36.0539 80.723 35.7935C81.019 35.533 81.3634 35.3335 81.7366 35.2063C82.1098 35.0791 82.5044 35.0267 82.8979 35.0521C83.2913 35.0776 83.6759 35.1803 84.0296 35.3545C84.3833 35.5287 84.6992 35.7709 84.9593 36.0672C85.2193 36.3636 85.4184 36.7083 85.5451 37.0817C85.6718 37.455 85.7236 37.8497 85.6977 38.2431C85.6717 38.6365 85.5685 39.021 85.3938 39.3745C76.1062 58.2319 62.28 67.9995 54.0193 73.8354C51.5928 75.5493 48.5872 77.6733 48.0427 78.5922C47.6121 81.8989 50.8828 85.8071 54.0535 87.0072C54.7101 87.2558 55.2587 87.7268 55.6039 88.3382C55.949 88.9496 56.0689 89.6627 55.9425 90.3533C55.8162 91.0439 55.4517 91.6684 54.9124 92.118C54.3731 92.5675 53.6933 92.8138 52.9912 92.8139V92.8139Z" fill="black"/>
<path d="M110.17 72.4755C110.17 72.4755 94.0658 113.435 78.0456 121.394C58.7131 130.999 35.1472 81.2851 59.1218 91.346C72.1446 82.379 95.213 55.4375 95.213 55.4375C95.213 55.4375 90.0469 39.4162 100.282 28.4503C113.317 14.4833 130.299 21.5264 136.284 27.5417C142.269 33.5569 144.246 42.5619 143.228 49.5594C142.21 56.5568 137.195 62.5441 133.2 60.534C130.17 72.5263 119.964 74.3376 110.17 72.4755Z" fill="white"/>
<path d="M69.1439 85.3716C68.5594 85.3715 67.9877 85.2006 67.499 84.88C67.0102 84.5594 66.6258 84.1031 66.3929 83.567C66.16 83.0309 66.0889 82.4384 66.1881 81.8624C66.2873 81.2864 66.5527 80.7519 66.9515 80.3246C77.4781 69.0463 88.1153 58.3051 91.7701 54.6381C90.6068 50.5493 89.151 40.8871 96.8758 30.642C106.294 18.1508 120.747 14.6616 132.842 21.9604C145.583 29.6489 148.539 45.6772 144.903 52.9057C144.726 53.2576 144.481 53.5712 144.183 53.8286C143.885 54.086 143.538 54.2821 143.164 54.4057C142.79 54.5293 142.396 54.578 142.003 54.5491C141.61 54.5202 141.226 54.4141 140.874 54.237C140.522 54.0599 140.209 53.8152 139.951 53.5169C139.694 53.2186 139.498 52.8725 139.374 52.4984C139.251 52.1244 139.202 51.7296 139.231 51.3367C139.26 50.9437 139.366 50.5604 139.543 50.2084C140.537 48.2328 140.825 44.0824 139.227 39.266C137.599 34.2182 134.239 29.9082 129.742 27.0971C120.272 21.3813 109.252 24.1928 101.667 34.2534C93.7979 44.6909 97.9048 54.1088 97.9471 54.2026C98.1984 54.7592 98.2739 55.3792 98.1634 55.9799C98.0529 56.5805 97.7618 57.1331 97.3289 57.5639C97.1991 57.6928 84.1834 70.6547 71.3377 84.4184C71.0573 84.7196 70.7177 84.9597 70.3402 85.1237C69.9627 85.2877 69.5555 85.3721 69.1439 85.3716Z" fill="black"/>
<path d="M70.3068 126.288C64.082 126.288 57.9853 123.228 52.9926 117.354C45.8664 108.972 41.9389 94.9854 48.696 85.5762C49.1605 84.9309 49.8622 84.4965 50.6468 84.3682C51.4315 84.24 52.2349 84.4285 52.8807 84.8922C53.5265 85.356 53.9618 86.0572 54.0909 86.8417C54.2201 87.6262 54.0326 88.4299 53.5695 89.0762C48.7707 95.7588 51.832 106.726 57.5639 113.468C60.215 116.586 67.3886 123.337 76.7114 118.708C88.9951 112.605 103.014 82.4727 107.379 71.3779C107.66 70.6617 108.206 70.0809 108.904 69.7559C109.601 69.4309 110.397 69.3865 111.127 69.6319C113.673 70.509 116.403 70.7063 119.049 70.2043C121.695 69.7023 124.163 68.5183 126.211 66.7696C128.723 64.5147 129.841 61.7471 129.276 59.1758C129.191 58.791 129.183 58.3933 129.253 58.0055C129.322 57.6176 129.467 57.2472 129.679 56.9153C129.891 56.5835 130.167 56.2967 130.49 56.0714C130.813 55.8461 131.178 55.6866 131.562 55.6021C131.947 55.5176 132.345 55.5097 132.733 55.5788C133.121 55.648 133.491 55.7929 133.823 56.0052C134.155 56.2176 134.442 56.4932 134.667 56.8163C134.892 57.1395 135.052 57.5039 135.136 57.8887C136.162 62.5615 134.324 67.5508 130.218 71.2354C127.742 73.3777 124.809 74.9247 121.643 75.7578C118.477 76.591 115.162 76.6882 111.952 76.042C110.386 79.7783 107.102 87.2764 102.759 95.3692C94.4589 110.838 86.5935 120.498 79.381 124.081C76.5689 125.512 73.462 126.268 70.3068 126.288Z" fill="black"/>
<path d="M134.104 250.568C126.687 250.598 119.284 249.901 112.003 248.486C111.617 248.409 111.25 248.257 110.922 248.037C110.595 247.818 110.314 247.537 110.096 247.209C109.877 246.881 109.725 246.513 109.649 246.127C109.572 245.741 109.573 245.343 109.65 244.957C109.727 244.57 109.88 244.203 110.099 243.876C110.318 243.548 110.6 243.268 110.928 243.049C111.255 242.831 111.623 242.679 112.009 242.602C112.396 242.526 112.794 242.526 113.18 242.604C128.417 245.65 146.423 245.145 162.579 241.214C184.487 235.885 214.176 232.614 227.592 238.022C228.355 238.4 229.213 238.546 230.058 238.442C230.904 238.337 231.7 237.987 232.348 237.434C237.392 233.452 239.978 220.094 238.112 207.657C235.163 187.993 228.222 157.182 228.153 156.873C228.066 156.489 228.056 156.091 228.122 155.703C228.189 155.315 228.332 154.943 228.542 154.61C228.753 154.277 229.027 153.989 229.348 153.761C229.67 153.534 230.034 153.372 230.418 153.286C230.802 153.199 231.2 153.189 231.588 153.255C231.976 153.322 232.348 153.465 232.681 153.675C233.014 153.886 233.302 154.16 233.53 154.481C233.757 154.803 233.918 155.167 234.005 155.551C234.076 155.862 241.064 186.889 244.046 206.767C245.936 219.37 243.782 236.052 236.066 242.144C234.584 243.344 232.8 244.114 230.91 244.368C229.019 244.622 227.096 244.352 225.349 243.586C215.07 239.443 189.268 240.897 163.997 247.044C154.206 249.391 144.172 250.574 134.104 250.568Z" fill="black"/>
</svg>
