<svg width="301" height="250" viewBox="0 0 301 250" fill="none" xmlns="http://www.w3.org/2000/svg">
<path d="M104.43 34.7539C94.587 55.6621 86.3301 77.281 79.7295 99.4275C73.3333 120.845 55.1455 165.209 46.702 171.924C37.8553 178.959 24.327 181.689 20.1649 182.308C16.4515 182.86 7.13629 183.735 4.66496 190.519C2.19363 197.304 7.00832 203.453 13.5067 205.493C18.0784 206.929 29.0415 208.891 36.2318 202.788C43.4222 196.685 48.7683 194.311 52.0989 198.088C55.6087 202.068 53.7011 206.897 59.8271 210.886C61.1576 211.765 62.6947 212.282 64.2861 212.384C65.8775 212.486 67.468 212.171 68.9001 211.47C70.3322 210.768 71.5563 209.705 72.4511 208.385C73.3459 207.065 73.8804 205.534 74.0016 203.944L78.5415 193.856C79.8566 189.685 80.616 180.381 79.8809 174.436C78.4739 163.055 85.9112 145.503 98.5557 116.299L104.43 34.7539Z" fill="white"/>
<path d="M64.9058 215.428C62.5181 215.419 60.1847 214.715 58.1909 213.401C53.6372 210.435 52.5767 206.932 51.7251 204.117C51.4106 202.645 50.7695 201.263 49.8491 200.072C48.2075 198.21 44.2798 199.894 38.1733 205.076C28.9184 212.933 15.2534 209.187 12.6079 208.356C10.4291 207.716 8.4013 206.645 6.64524 205.205C4.88917 203.765 3.44076 201.987 2.38623 199.976C1.57618 198.361 1.11002 196.595 1.01724 194.791C0.924447 192.987 1.20704 191.183 1.84716 189.493C4.77783 181.447 14.3667 180.097 18.9742 179.448L19.7242 179.341C21.3394 179.101 35.771 176.785 44.8355 169.576C52.1489 163.76 70.146 121.037 76.855 98.5698C77.0827 97.8073 77.6039 97.1664 78.3041 96.7882C79.0042 96.4101 79.8259 96.3255 80.5884 96.5532C81.3509 96.7808 81.9917 97.302 82.3699 98.0022C82.7481 98.7023 82.8327 99.5241 82.605 100.287C76.9917 119.082 58.312 166.525 48.5698 174.272C38.4946 182.285 23.5083 184.844 20.607 185.276L19.8111 185.39C16.0962 185.913 9.18215 186.886 7.48391 191.547C7.12362 192.475 6.96256 193.469 7.01118 194.463C7.0598 195.458 7.31702 196.431 7.76614 197.32C8.46821 198.599 9.41624 199.727 10.5557 200.639C11.6952 201.55 13.0036 202.228 14.4058 202.632C15.7046 203.039 27.2915 206.443 34.2905 200.502C38.0357 197.323 47.9839 188.883 54.3491 196.104C55.8554 197.93 56.9225 200.077 57.4683 202.38C58.2105 204.831 58.7456 206.602 61.4644 208.373C62.3278 208.979 63.3377 209.342 64.3891 209.425C65.4406 209.508 66.4951 209.308 67.4429 208.846C68.437 208.365 69.2891 207.634 69.9155 206.725C70.542 205.816 70.9212 204.759 71.0161 203.659C71.0959 202.87 71.4847 202.145 72.0975 201.642C72.7104 201.139 73.4974 200.899 74.2866 200.975C75.0758 201.05 75.803 201.435 76.3093 202.045C76.8157 202.655 77.06 203.441 76.9888 204.23C76.7846 206.355 76.0393 208.391 74.8241 210.145C73.6089 211.899 71.9643 213.313 70.0474 214.251C68.4441 215.025 66.6865 215.428 64.9058 215.428Z" fill="black"/>
<path d="M123.061 7.38284C96.7145 18.2128 81.4458 54.3838 81.4322 54.4238C81.3762 54.5902 61.0874 79.9266 47.5693 99.7694C45.1108 103.378 46.733 110.563 50.4331 112.882C60.5286 119.208 76.1678 125.708 88.9192 140.614C98.7208 152.072 108.712 139.716 114.4 122.33C120.088 104.945 122.278 62.8871 125.039 51.5585C133.865 15.3365 125.169 6.51612 123.061 7.38284Z" fill="white"/>
<path d="M80.1581 136.023C79.3961 136.024 78.6625 135.734 78.1073 135.212C73.1883 130.601 68.076 127.926 63.1317 125.34C57.6717 122.483 52.5135 119.785 48.1815 114.863C41.6913 107.489 49.0282 93.3653 58.0585 82.6067C64.2607 75.2173 73.3544 60.5398 80.662 48.7464C83.2265 44.6075 85.6483 40.698 87.7333 37.4407C92.7358 29.708 98.6918 22.6357 105.461 16.3907C106.046 15.8518 106.82 15.5671 107.615 15.5991C108.41 15.6312 109.159 15.9774 109.698 16.5617C110.238 17.146 110.523 17.9205 110.492 18.7152C110.461 19.5098 110.115 20.2595 109.531 20.7994C103.138 26.6959 97.5118 33.3736 92.786 40.6751C90.7254 43.8953 88.3143 47.7866 85.7616 51.9065C77.9676 64.4861 69.1337 78.7441 62.6542 86.4641C51.3817 99.8938 50.5165 108.435 52.6854 110.899C56.2821 114.985 60.745 117.32 65.9129 120.023C70.9667 122.667 76.6952 125.663 82.2108 130.834C82.6497 131.246 82.9548 131.78 83.0863 132.367C83.2179 132.954 83.1699 133.567 82.9485 134.127C82.7272 134.686 82.3428 135.166 81.8451 135.504C81.3475 135.842 80.7597 136.023 80.1581 136.023V136.023Z" fill="black"/>
<path d="M105.075 223.481C105.002 223.481 104.928 223.478 104.854 223.472C104.461 223.444 104.077 223.338 103.725 223.161C103.373 222.984 103.059 222.74 102.802 222.441C102.544 222.143 102.348 221.797 102.224 221.423C102.1 221.049 102.052 220.654 102.08 220.261C102.236 218.145 102.429 215.557 102.65 212.587C104.84 183.243 109.968 114.524 108.204 96.8323C106.832 83.0554 107.461 65.5854 107.957 56.3979C108.001 55.6041 108.358 54.8601 108.951 54.3295C109.543 53.7988 110.321 53.5249 111.115 53.5679C111.909 53.6108 112.654 53.9671 113.185 54.5586C113.716 55.15 113.991 55.9282 113.949 56.7222C113.461 65.7375 112.842 82.8596 114.175 96.2373C115.99 114.449 110.835 183.533 108.633 213.034C108.412 216.001 108.219 218.585 108.065 220.699C108.009 221.455 107.67 222.161 107.116 222.677C106.562 223.193 105.833 223.48 105.075 223.481Z" fill="black"/>
<path d="M207.155 226.621C206.393 226.621 205.66 226.33 205.105 225.808C204.549 225.286 204.213 224.573 204.164 223.812C203.034 206.091 201.356 190.734 199.863 178.05C198.171 163.665 197.65 111.956 200.04 96.7091C200.163 95.923 200.594 95.2181 201.237 94.7495C201.88 94.2808 202.683 94.0868 203.469 94.2101C204.255 94.3334 204.96 94.7639 205.429 95.4069C205.897 96.0499 206.091 96.8527 205.968 97.6388C203.689 112.172 204.203 163.587 205.822 177.349C207.324 190.112 209.013 205.568 210.152 223.431C210.203 224.225 209.936 225.006 209.411 225.603C208.885 226.201 208.144 226.565 207.35 226.615C207.284 226.62 207.22 226.621 207.155 226.621Z" fill="black"/>
<path d="M126.702 8.32795C126.702 8.32795 136.674 3.33984 152.64 3.33984C174.588 3.33984 196.535 11.3208 190.217 18.9693C183.899 26.6177 103.424 34.2662 126.702 8.32795Z" fill="white"/>
<path d="M219.375 111.462C209.151 39.055 195.53 12.5769 195.53 12.5769C175.918 -8.2993 154.76 21.0554 138.944 19.9591C129.239 19.2864 127.97 10.3154 126.64 6.65745C125.284 2.92865 124.195 5.31994 120.987 7.65507C113.338 29.6028 93.2684 46.5332 91.2327 63.5374C88.7792 84.0327 87.5394 128.184 87.3919 129.278C77.831 200.196 65.479 214.852 77.9474 226.629C102.772 250.077 148.45 249.566 163.959 243.427C195.883 230.79 221.663 237.663 229.723 240.545C237.783 243.427 225.504 154.875 219.375 111.462Z" fill="white"/>
<path d="M144.241 51.2198C144.33 48.6055 142.355 46.4162 139.83 46.3298C137.305 46.2435 135.185 48.2928 135.095 50.907C135.006 53.5213 136.981 55.7106 139.506 55.797C142.032 55.8834 144.151 53.8341 144.241 51.2198Z" fill="black"/>
<path d="M140.784 80.8918C140.873 78.2775 138.898 76.0882 136.373 76.0019C133.848 75.9155 131.728 77.9648 131.638 80.579C131.549 83.1932 133.524 85.3825 136.049 85.4689C138.574 85.5552 140.694 83.506 140.784 80.8918Z" fill="black"/>
<path d="M93.6573 241.367C93.2452 241.367 92.8375 241.281 92.4601 241.116C75.2315 233.601 67.4122 224.147 69.2169 213.017C73.4503 186.908 83.2296 148.235 83.8702 145.71L84.4884 141.962C87.8604 121.538 91.3468 100.419 89.6759 84.8223C89.5921 84.0316 89.8257 83.24 90.3252 82.6213C90.8248 82.0027 91.5495 81.6076 92.3401 81.5229C93.1307 81.4382 93.9226 81.6708 94.5419 82.1696C95.1611 82.6684 95.557 83.3926 95.6427 84.1831C97.3995 100.591 93.8458 122.119 90.4083 142.939L89.7696 146.811C89.756 146.897 89.7384 146.982 89.7169 147.067C89.6143 147.467 79.4532 187.378 75.1388 213.978C73.8292 222.057 80.464 229.337 94.8585 235.616C95.4905 235.892 96.0083 236.377 96.3247 236.989C96.6411 237.602 96.7369 238.305 96.5959 238.98C96.4549 239.655 96.0858 240.261 95.5506 240.695C95.0154 241.13 94.3468 241.367 93.6573 241.367V241.367Z" fill="black"/>
<path d="M134.775 249.866C127.358 249.896 119.956 249.199 112.675 247.785C111.895 247.628 111.209 247.169 110.768 246.507C110.326 245.845 110.166 245.035 110.322 244.255C110.478 243.475 110.937 242.789 111.599 242.347C112.261 241.906 113.071 241.746 113.851 241.901C129.091 244.949 147.095 244.442 163.25 240.512C186.218 234.926 210.157 230.077 228.257 237.316C228.996 237.612 229.587 238.189 229.9 238.92C230.213 239.651 230.224 240.477 229.928 241.216C229.632 241.955 229.056 242.546 228.324 242.859C227.593 243.173 226.767 243.183 226.028 242.887C209.574 236.305 186.693 240.985 164.668 246.342C154.877 248.69 144.844 249.872 134.775 249.866Z" fill="black"/>
<path d="M199.477 94.3965C210.281 122.525 220.496 154.478 222.703 164.265C226.627 181.667 228.7 187.966 224.492 203.327L222.262 217.344C222.001 218.917 222.155 220.531 222.71 222.026C223.264 223.522 224.2 224.846 225.423 225.869C226.647 226.891 228.117 227.576 229.687 227.856C231.257 228.136 232.872 228.001 234.374 227.464C241.274 225.05 240.572 219.905 244.929 216.876C249.064 214.001 258.645 218.214 264.174 225.854C269.703 233.495 280.817 234.202 285.599 233.897C292.397 233.463 298.538 228.639 297.755 221.461C296.971 214.283 288.133 211.214 284.658 209.793C280.763 208.2 268.275 202.325 261.36 193.384C254.76 184.851 242.653 138.28 236.543 114.747L199.477 94.3965Z" fill="white"/>
<path d="M283.815 236.949C278.899 236.949 267.784 235.961 261.742 227.613C256.611 220.523 248.662 217.933 246.641 219.339C245.464 220.276 244.512 221.465 243.855 222.819C242.357 225.35 240.494 228.5 235.365 230.295C233.406 231.007 231.295 231.196 229.24 230.845C227.186 230.495 225.258 229.616 223.645 228.294C222.007 226.927 220.747 225.162 219.985 223.169C219.223 221.176 218.985 219.021 219.293 216.909C219.409 216.123 219.832 215.414 220.47 214.94C221.108 214.465 221.909 214.263 222.696 214.378C223.482 214.494 224.191 214.916 224.666 215.554C225.142 216.191 225.344 216.991 225.23 217.778C225.06 218.869 225.176 219.986 225.568 221.018C225.959 222.05 226.613 222.963 227.464 223.666C228.274 224.341 229.25 224.787 230.291 224.957C231.332 225.127 232.4 225.014 233.383 224.632C236.445 223.561 237.387 221.968 238.691 219.764C239.77 217.657 241.318 215.827 243.216 214.412C248.366 210.835 259.456 214.218 266.603 224.095C271.988 231.535 284.047 230.989 285.408 230.903C286.866 230.844 288.298 230.498 289.622 229.885C290.946 229.271 292.135 228.401 293.122 227.326C293.77 226.57 294.252 225.686 294.536 224.732C294.82 223.777 294.9 222.774 294.771 221.787C294.233 216.856 287.751 214.263 284.267 212.87L283.521 212.569C280.805 211.458 266.862 205.402 258.986 195.219C252.836 187.267 243.169 152.205 233.638 115.5C219.676 65.4424 212.725 51.2214 208.571 42.7248C207.811 41.1701 207.155 39.8274 206.548 38.4602C206.388 38.1002 206.3 37.7122 206.29 37.3184C206.28 36.9246 206.348 36.5327 206.489 36.165C206.63 35.7974 206.843 35.4611 207.114 35.1756C207.386 34.89 207.711 34.6607 208.071 34.5007C208.431 34.3407 208.818 34.2532 209.212 34.2432C209.606 34.2331 209.998 34.3007 210.366 34.4421C210.733 34.5836 211.07 34.796 211.355 35.0674C211.641 35.3387 211.87 35.6637 212.03 36.0237C212.593 37.2907 213.227 38.5879 213.962 40.0896C218.206 48.771 225.308 63.301 239.431 113.94C244.843 134.784 257.486 183.473 263.732 191.548C270.817 200.709 284.281 206.397 285.793 207.016L286.496 207.299C290.816 209.027 299.807 212.623 300.736 221.135C300.955 222.929 300.799 224.748 300.279 226.478C299.759 228.208 298.886 229.812 297.715 231.188C296.211 232.889 294.38 234.271 292.332 235.251C290.283 236.231 288.058 236.788 285.79 236.891C285.371 236.917 284.691 236.949 283.815 236.949Z" fill="black"/>
<path d="M224.494 206.328C224.033 206.327 223.577 206.221 223.164 206.016C222.75 205.811 222.389 205.514 222.109 205.147C221.829 204.78 221.637 204.353 221.548 203.9C221.46 203.447 221.477 202.98 221.599 202.534C225.288 189.066 223.927 183.108 220.638 168.713C220.363 167.508 220.074 166.249 219.776 164.925C217.702 155.73 207.673 124.103 196.676 95.4724C196.391 94.7296 196.412 93.9039 196.736 93.1769C197.059 92.4499 197.658 91.8812 198.401 91.5959C199.144 91.3107 199.97 91.3321 200.697 91.6557C201.424 91.9792 201.992 92.5782 202.278 93.321C213.369 122.2 223.516 154.237 225.629 163.605C225.926 164.923 226.213 166.177 226.487 167.376C229.91 182.36 231.474 189.198 227.386 204.12C227.212 204.754 226.835 205.313 226.313 205.712C225.791 206.111 225.152 206.327 224.494 206.328Z" fill="black"/>
<path d="M261.896 123.405C263.432 122.153 266.434 116.1 265.165 114.578C248.819 94.962 229.951 58.1966 222.487 44.567C216.264 33.2033 201.438 21.0337 197.837 16.2401C193.78 10.8395 193.706 9.1777 189.88 8.82994C170.903 7.10516 170.87 29.2895 176.554 49.1768C181.075 64.9935 176.521 143.356 199.874 148.32C221.822 127.037 253.325 130.392 261.896 123.405Z" fill="white"/>
<path d="M159.086 40.2361C153.041 40.2366 148.034 35.939 144.237 32.6804C142.806 31.4534 140.646 29.5994 139.863 29.4566C137.505 29.1839 135.038 30.8045 132.428 32.521C131.571 33.0847 130.685 33.6675 129.785 34.1909C125.547 36.6541 121.143 37.0449 117.703 35.2674C116.382 34.592 115.256 33.5883 114.435 32.3527C113.613 31.1171 113.123 29.6911 113.011 28.2115C112.502 22.6026 115.209 8.83963 121.991 3.6221C122.303 3.3819 122.66 3.20555 123.04 3.10314C123.42 3.00072 123.817 2.97424 124.208 3.02521C124.599 3.07617 124.975 3.20358 125.317 3.40016C125.658 3.59675 125.958 3.85865 126.198 4.17093C126.438 4.4832 126.614 4.83973 126.717 5.22015C126.819 5.60058 126.846 5.99745 126.795 6.38811C126.744 6.77877 126.616 7.15556 126.42 7.49698C126.223 7.8384 125.961 8.13776 125.649 8.37796C121.105 11.8738 118.575 23.1363 118.986 27.6685C119.01 28.1426 119.158 28.6019 119.416 29.0002C119.675 29.3985 120.034 29.7215 120.457 29.9366C122.019 30.7429 124.378 30.3938 126.769 29.0042C127.526 28.564 128.305 28.0513 129.13 27.5083C132.364 25.3821 136.03 22.972 140.565 23.4981C143.091 23.7915 145.433 25.8006 148.144 28.1272C151.946 31.3894 156.248 35.0896 160.669 34.0496C162.8 33.5479 164.877 30.0581 167.28 26.0176C169.966 21.5003 173.31 15.8782 178.605 11.2737C179.206 10.7525 179.989 10.4911 180.782 10.5468C181.575 10.6025 182.314 10.9709 182.835 11.5709C183.357 12.1709 183.619 12.9535 183.565 13.7468C183.51 14.5401 183.142 15.2791 182.543 15.8015C177.974 19.7734 175.032 24.7202 172.436 29.0845C169.335 34.3003 166.655 38.8047 162.044 39.8899C161.075 40.1194 160.082 40.2355 159.086 40.2361Z" fill="black"/>
<path d="M199.874 151.32C199.267 151.32 198.674 151.136 198.174 150.792C197.673 150.448 197.289 149.96 197.072 149.393C196.855 148.826 196.815 148.206 196.957 147.616C197.1 147.025 197.418 146.492 197.871 146.087C212.278 133.168 232.698 129.083 246.209 126.379C251.966 125.227 257.404 124.139 259.215 122.894C259.936 122.45 260.552 121.854 261.021 121.149C261.489 120.443 261.799 119.645 261.929 118.808C262.008 117.699 261.857 116.586 261.487 115.538C261.116 114.489 260.534 113.529 259.776 112.716C255.544 107.698 241.084 89.8029 232.675 70.1877C220.735 42.3327 205.684 23.8334 195.58 15.809C195.27 15.5643 195.012 15.261 194.821 14.9166C194.629 14.5721 194.507 14.1931 194.461 13.8014C194.416 13.4097 194.448 13.0129 194.557 12.6337C194.665 12.2545 194.847 11.9004 195.092 11.5916C195.337 11.2827 195.641 11.0253 195.985 10.8339C196.33 10.6426 196.709 10.5211 197.101 10.4764C197.493 10.4317 197.89 10.4646 198.269 10.5734C198.648 10.6822 199.002 10.8646 199.31 11.1103C204.492 15.2253 222.61 31.4763 238.191 67.8239C244.612 82.8044 255.92 98.8378 264.362 108.848C265.672 110.293 266.661 111.999 267.267 113.853C267.872 115.708 268.08 117.669 267.875 119.609C267.639 121.278 267.046 122.876 266.139 124.295C265.231 125.715 264.029 126.924 262.614 127.839C259.789 129.781 254.586 130.822 247.386 132.263C233.746 134.992 215.063 138.73 201.876 150.554C201.327 151.048 200.614 151.321 199.874 151.32Z" fill="black"/>
</svg>
