<svg width="300" height="294" viewBox="0 0 300 294" fill="none" xmlns="http://www.w3.org/2000/svg">
<path d="M45.0023 93.8451C43.4742 112.036 26.3842 156.72 45.391 171.341C67.9898 188.725 88.843 156.709 88.3997 144.738C88.1961 139.243 84.9004 136.958 84.2699 133.339C72.0852 127.333 69.4865 107.906 71.1087 94.2187C71.3082 80.2763 45.2018 79.9027 45.0023 93.8451Z" fill="white"/>
<path d="M119.88 54.7305C89.7299 59.1644 94.3855 76.4565 72.8811 80.447C72.8811 80.447 64.9001 123.953 68.0039 132.821C71.1076 141.689 79.532 146.955 91.5035 157.153C101.305 168.611 107.642 183.245 113.331 165.859C119.019 148.473 121.209 106.416 123.969 95.087C132.795 58.865 119.88 54.7305 119.88 54.7305Z" fill="white"/>
<path d="M92.8368 71.4753C92.1891 71.4759 91.5587 71.2669 91.0397 70.8796C90.5207 70.4922 90.141 69.9473 89.9573 69.3263C89.7735 68.7053 89.7957 68.0416 90.0204 67.4342C90.2451 66.8268 90.6603 66.3084 91.2039 65.9565C93.9315 64.1914 96.3797 62.4626 98.7469 60.7908C106.257 55.4873 112.207 51.2852 119.666 51.2852C119.75 51.2852 119.833 51.2859 119.918 51.2869C120.312 51.2919 120.701 51.3744 121.063 51.5298C121.425 51.6852 121.753 51.9103 122.028 52.1924C122.303 52.4745 122.52 52.808 122.666 53.1739C122.812 53.5397 122.885 53.9308 122.88 54.3247C122.875 54.7186 122.792 55.1077 122.637 55.4698C122.481 55.8318 122.256 56.1597 121.974 56.4347C121.692 56.7097 121.358 56.9265 120.993 57.0726C120.627 57.2187 120.236 57.2914 119.842 57.2864C119.786 57.2856 119.73 57.2854 119.676 57.2854C114.111 57.2854 109.107 60.8191 102.208 65.6919C99.792 67.3982 97.2939 69.1626 94.4638 70.9936C93.9795 71.3083 93.4143 71.4756 92.8368 71.4753Z" fill="black"/>
<path d="M63.0721 2.9895L33.7618 0.0385915C29.2897 -0.411648 26.3092 3.13041 27.1385 7.90984L38.0317 70.6891C38.861 75.4685 43.1986 79.7473 47.6707 80.1976L76.981 83.1485C81.4531 83.5987 84.4336 80.0567 83.6043 75.2772L72.7111 12.498C71.8818 7.71856 67.5442 3.43974 63.0721 2.9895Z" fill="black"/>
<path d="M48.059 18.1869L38.9835 17.2731C37.9381 17.0909 36.9732 16.5939 36.2178 15.8487C35.4623 15.1035 34.9523 14.1455 34.7558 13.1027L34.5139 11.7085C34.1501 9.61226 35.4574 8.05871 37.4189 8.25618L46.4944 9.16989C47.5398 9.35217 48.5047 9.84911 49.2601 10.5943C50.0156 11.3395 50.5256 12.2975 50.7221 13.3403L50.964 14.7345C51.3277 16.8308 50.0205 18.3843 48.059 18.1869Z" fill="#82BE28"/>
<path d="M71.1087 94.219C71.3067 92.5026 71.5918 90.7974 71.963 89.11C84.4887 64.6344 64.2037 38.359 45.8031 39.9113C35.0441 40.8186 33.8316 57.6467 34.275 66.071C34.7184 74.4954 37.0462 82.0373 45.0271 93.5651C45.0204 93.6562 45.01 93.7529 45.0023 93.8454C53.6284 95.3657 62.4426 95.4918 71.1087 94.219Z" fill="white"/>
<path d="M58.9726 179.166C56.7743 179.168 54.5873 178.852 52.4794 178.228C47.4589 176.739 38.5585 171.986 35.3623 156.888C32.748 144.547 36.3447 125.816 39.2343 110.766C40.5673 103.825 42.2197 95.2169 41.7587 93.1864C37.496 86.8812 32.5009 78.1564 31.291 66.378C30.1816 55.5902 32.751 46.2115 38.163 41.2904C41.8369 37.9484 46.6757 36.7598 52.1552 37.8565C57.3575 38.9401 62.2339 41.2266 66.3939 44.533C70.554 47.8393 73.8822 52.0736 76.1122 56.897C81.0478 67.4586 80.496 79.7232 74.5966 90.5464C73.9091 92.0664 71.8232 102.877 71.0644 114.798C70.0712 130.393 71.9804 137.646 74.0976 139.234C74.4128 139.471 74.6783 139.767 74.8791 140.106C75.0799 140.445 75.2119 140.82 75.2676 141.21C75.3234 141.6 75.3017 141.997 75.204 142.379C75.1063 142.76 74.9343 143.119 74.6979 143.434C74.4616 143.75 74.1655 144.015 73.8265 144.216C73.4875 144.417 73.1123 144.549 72.7223 144.604C72.3323 144.66 71.9351 144.638 71.5535 144.541C71.1718 144.443 70.8132 144.271 70.498 144.035C65.7597 140.481 63.996 130.649 65.1054 113.976C65.8271 103.116 67.8798 90.3343 69.3281 87.6753C74.3046 78.5445 74.7958 68.2525 70.6767 59.4375C68.8708 55.4484 66.1434 51.9451 62.719 49.216C59.2946 46.4869 55.271 44.61 50.9795 43.7398C47.3437 43.0125 44.4716 43.6629 42.1992 45.7296C38.3105 49.2654 36.372 57.1297 37.2597 65.7645C38.3378 76.2608 42.7099 83.9041 46.8447 89.9967C48.6328 92.6319 47.8896 97.5057 45.1269 111.897C42.4863 125.652 38.8691 144.489 41.2314 155.645C43.6572 167.099 49.6152 171.12 54.1855 172.475C60.456 174.336 66.3555 172.092 68.543 169.905C69.1056 169.343 69.8686 169.027 70.6642 169.027C71.4598 169.027 72.2228 169.343 72.7854 169.905C73.3479 170.468 73.6639 171.231 73.6639 172.027C73.6639 172.822 73.3478 173.585 72.7851 174.148C69.9462 176.987 64.7705 179.166 58.9726 179.166Z" fill="black"/>
<path d="M104.005 267.009C103.932 267.009 103.858 267.006 103.783 267.001C103.39 266.972 103.007 266.866 102.655 266.689C102.303 266.512 101.989 266.268 101.732 265.97C101.474 265.671 101.278 265.326 101.154 264.951C101.03 264.577 100.981 264.183 101.01 263.79C101.165 261.673 101.359 259.086 101.579 256.116C103.77 226.771 108.898 158.052 107.134 140.361C105.762 126.584 106.391 109.114 106.887 99.9263C106.931 99.1324 107.288 98.3884 107.88 97.8578C108.472 97.3271 109.251 97.0532 110.045 97.0962C110.839 97.1391 111.583 97.4955 112.115 98.0869C112.646 98.6783 112.921 99.4565 112.879 100.25C112.391 109.266 111.772 126.388 113.105 139.766C114.92 157.977 109.765 227.062 107.563 256.562C107.342 259.529 107.149 262.113 106.994 264.228C106.939 264.983 106.6 265.689 106.046 266.205C105.491 266.721 104.762 267.008 104.005 267.009Z" fill="black"/>
<path d="M206.086 270.149C205.323 270.149 204.59 269.858 204.035 269.336C203.479 268.814 203.143 268.101 203.094 267.34C201.964 249.619 200.286 234.262 198.794 221.578C197.101 207.19 196.579 155.48 198.97 140.237C199.094 139.451 199.525 138.747 200.168 138.279C200.811 137.811 201.613 137.617 202.399 137.74C203.184 137.864 203.889 138.294 204.358 138.936C204.826 139.579 205.021 140.381 204.898 141.167C202.619 155.696 203.133 207.112 204.752 220.877C206.254 233.64 207.943 249.096 209.083 266.958C209.133 267.752 208.866 268.534 208.341 269.131C207.815 269.729 207.074 270.093 206.28 270.143C206.214 270.147 206.15 270.149 206.086 270.149Z" fill="black"/>
<path d="M125.631 51.8563C125.631 51.8563 135.604 46.8682 151.57 46.8682C173.517 46.8682 195.465 54.8492 189.147 62.4976C182.828 70.146 102.353 77.7945 125.631 51.8563Z" fill="white"/>
<path d="M218.304 154.99C208.081 82.5834 194.459 56.1052 194.459 56.1052C174.847 35.229 153.69 64.5837 137.873 63.4874C128.168 62.8147 126.9 53.8437 125.569 50.1858C124.213 46.457 123.124 48.8483 119.916 51.1834C112.268 73.1311 92.3789 93.3207 93.2764 110.619C94.1739 127.917 88.1033 168.939 87.9558 170.033C78.3949 240.951 64.4082 258.38 76.8766 270.158C101.701 293.606 147.379 293.094 162.888 286.955C194.812 274.318 220.592 281.191 228.652 284.073C236.712 286.955 224.433 198.404 218.304 154.99Z" fill="white"/>
<path d="M143.17 94.7491C143.26 92.1348 141.285 89.9455 138.76 89.8592C136.234 89.7728 134.115 91.8221 134.025 94.4364C133.936 97.0506 135.91 99.2399 138.436 99.3263C140.961 99.4126 143.081 97.3634 143.17 94.7491Z" fill="black"/>
<path d="M139.711 124.421C139.801 121.807 137.826 119.618 135.301 119.531C132.775 119.445 130.656 121.494 130.566 124.108C130.477 126.723 132.452 128.912 134.977 128.998C137.502 129.085 139.622 127.035 139.711 124.421Z" fill="black"/>
<path d="M92.587 284.896C92.1749 284.896 91.7672 284.81 91.3897 284.645C74.1612 277.131 66.3419 267.677 68.1466 256.547C72.38 230.437 82.1593 191.764 82.7999 189.239L83.418 185.491C86.7901 165.067 90.2764 143.948 88.6055 128.352C88.5218 127.561 88.7554 126.769 89.2549 126.151C89.7545 125.532 90.4791 125.137 91.2698 125.052C92.0604 124.968 92.8523 125.2 93.4715 125.699C94.0908 126.198 94.4867 126.922 94.5723 127.712C96.3292 144.12 92.7755 165.649 89.338 186.469L88.6993 190.34C88.6856 190.426 88.6681 190.511 88.6466 190.596C88.544 190.996 78.3829 230.907 74.0684 257.507C72.7589 265.586 79.3936 272.867 93.7882 279.146C94.4202 279.421 94.9379 279.906 95.2544 280.519C95.5708 281.131 95.6666 281.834 95.5256 282.509C95.3846 283.184 95.0155 283.79 94.4803 284.225C93.9451 284.659 93.2765 284.896 92.587 284.896V284.896Z" fill="black"/>
<path d="M133.705 293.395C126.288 293.425 118.886 292.728 111.605 291.313C110.825 291.157 110.138 290.697 109.697 290.036C109.256 289.374 109.096 288.564 109.252 287.784C109.407 287.004 109.867 286.317 110.528 285.876C111.19 285.435 112 285.274 112.78 285.43C128.021 288.478 146.025 287.971 162.18 284.041C185.146 278.454 209.084 273.605 227.186 280.845C227.551 280.991 227.885 281.208 228.167 281.483C228.449 281.758 228.674 282.086 228.829 282.449C228.984 282.811 229.066 283.2 229.071 283.594C229.076 283.988 229.003 284.379 228.857 284.744C228.71 285.11 228.493 285.444 228.218 285.726C227.943 286.008 227.615 286.232 227.253 286.388C226.891 286.543 226.502 286.625 226.108 286.63C225.714 286.635 225.323 286.562 224.957 286.416C208.501 279.833 185.622 284.513 163.598 289.871C153.807 292.218 143.773 293.401 133.705 293.395Z" fill="black"/>
<path d="M198.404 137.925C209.209 166.054 219.424 198.006 221.631 207.793C225.555 225.196 227.628 231.494 223.42 246.855L221.19 260.872C220.929 262.446 221.083 264.06 221.637 265.555C222.192 267.05 223.127 268.374 224.351 269.397C225.575 270.419 227.044 271.104 228.614 271.384C230.184 271.664 231.8 271.529 233.302 270.992C240.202 268.578 239.5 263.433 243.857 260.404C247.992 257.53 257.572 261.742 263.101 269.383C268.63 277.023 279.745 277.73 284.527 277.425C291.325 276.992 297.466 272.167 296.682 264.989C295.899 257.812 287.06 254.742 283.586 253.321C279.691 251.728 267.203 245.853 260.287 236.912C253.687 228.379 241.581 181.808 235.47 158.275L198.404 137.925Z" fill="white"/>
<path d="M282.745 280.477C277.829 280.477 266.714 279.489 260.672 271.141C255.543 264.053 247.59 261.459 245.571 262.867C244.393 263.804 243.441 264.994 242.784 266.348C241.287 268.879 239.423 272.029 234.294 273.824C232.335 274.535 230.224 274.725 228.17 274.374C226.115 274.023 224.187 273.144 222.575 271.823C220.937 270.455 219.677 268.691 218.915 266.698C218.153 264.704 217.914 262.549 218.222 260.437C218.338 259.651 218.762 258.942 219.4 258.468C220.038 257.993 220.838 257.792 221.625 257.907C222.412 258.022 223.121 258.445 223.596 259.082C224.071 259.72 224.274 260.52 224.16 261.307C223.99 262.398 224.106 263.514 224.497 264.546C224.889 265.579 225.542 266.491 226.393 267.195C227.203 267.87 228.18 268.315 229.221 268.485C230.261 268.655 231.329 268.543 232.311 268.16C235.374 267.089 236.316 265.496 237.621 263.292C238.7 261.185 240.248 259.354 242.146 257.94C247.294 254.364 258.385 257.747 265.533 267.624C270.918 275.063 282.978 274.518 284.338 274.431C285.796 274.373 287.228 274.027 288.551 273.413C289.875 272.799 291.065 271.93 292.051 270.855C292.7 270.099 293.181 269.215 293.465 268.26C293.75 267.306 293.83 266.302 293.701 265.314C293.163 260.384 286.68 257.791 283.197 256.398L282.451 256.097C279.735 254.987 265.792 248.93 257.916 238.748C251.765 230.795 242.098 195.733 232.568 159.029C218.606 108.971 211.655 94.7497 207.501 86.2532C206.741 84.6985 206.085 83.3557 205.477 81.9885C205.317 81.6285 205.23 81.2406 205.22 80.8468C205.21 80.453 205.277 80.061 205.419 79.6934C205.56 79.3257 205.773 78.9895 206.044 78.7039C206.315 78.4183 206.64 78.189 207 78.029C207.36 77.869 207.748 77.7815 208.142 77.7715C208.536 77.7614 208.928 77.829 209.295 77.9705C209.663 78.1119 209.999 78.3243 210.285 78.5957C210.57 78.8671 210.8 79.192 210.96 79.552C211.523 80.8191 212.157 82.1162 212.891 83.6179C217.135 92.2993 224.238 106.829 238.361 157.469C243.773 178.312 256.416 227.001 262.662 235.077C269.747 244.238 283.211 249.926 284.722 250.544L285.426 250.827C289.746 252.555 298.737 256.151 299.666 264.664C299.885 266.457 299.729 268.277 299.209 270.007C298.689 271.738 297.815 273.341 296.643 274.717C295.14 276.418 293.309 277.8 291.261 278.78C289.212 279.759 286.988 280.317 284.719 280.419C284.3 280.446 283.621 280.477 282.745 280.477Z" fill="black"/>
<path d="M223.423 249.856C222.962 249.856 222.506 249.749 222.092 249.544C221.679 249.339 221.318 249.042 221.038 248.675C220.757 248.308 220.566 247.881 220.477 247.428C220.389 246.975 220.406 246.508 220.528 246.062C224.217 232.595 222.856 226.637 219.568 212.243C219.292 211.038 219.004 209.777 218.705 208.453C216.632 199.257 206.602 167.629 195.605 139.001C195.32 138.258 195.342 137.433 195.666 136.706C195.99 135.98 196.588 135.411 197.331 135.126C198.073 134.841 198.899 134.862 199.625 135.185C200.352 135.509 200.921 136.107 201.206 136.849C212.298 165.725 222.446 197.763 224.559 207.133C224.856 208.452 225.143 209.707 225.416 210.906C228.84 225.889 230.402 232.727 226.315 247.648C226.141 248.282 225.764 248.841 225.242 249.24C224.719 249.639 224.081 249.855 223.423 249.856Z" fill="black"/>
<path d="M260.826 166.933C262.362 165.681 265.364 159.628 264.095 158.106C247.749 138.49 228.88 101.725 221.417 88.0953C215.194 76.7316 200.368 64.5621 196.767 59.7685C192.709 54.3678 192.636 52.706 188.809 52.3583C169.833 50.6335 169.8 72.8179 175.484 92.7051C180.005 108.522 175.45 186.884 198.804 191.848C220.751 170.566 252.254 173.92 260.826 166.933Z" fill="white"/>
<path d="M158.016 83.7644C151.97 83.7649 146.964 79.4673 143.167 76.2087C141.736 74.9817 139.576 73.1277 138.793 72.9849C136.43 72.7124 133.97 74.3323 131.358 76.0489C130.501 76.6129 129.614 77.1959 128.714 77.7195C124.479 80.1812 120.077 80.574 116.633 78.7959C115.311 78.1205 114.186 77.1168 113.364 75.8812C112.543 74.6455 112.053 73.2194 111.941 71.7398C111.43 66.1307 114.138 52.367 120.921 47.1504C121.551 46.6653 122.349 46.4506 123.138 46.5535C123.927 46.6565 124.643 47.0686 125.128 47.6993C125.613 48.3299 125.828 49.1275 125.725 49.9164C125.622 50.7054 125.21 51.4212 124.579 51.9063C120.034 55.4016 117.504 66.6643 117.916 71.1968C117.94 71.6708 118.088 72.1303 118.346 72.5285C118.605 72.9268 118.963 73.2498 119.387 73.4648C120.947 74.2707 123.305 73.9226 125.698 72.5325C126.456 72.092 127.236 71.5789 128.061 71.0359C131.293 68.9102 134.953 66.498 139.495 67.0264C142.021 67.3198 144.363 69.3289 147.074 71.6555C150.876 74.9177 155.184 78.6179 159.598 77.5779C161.73 77.0762 163.806 73.5864 166.21 69.5459C168.896 65.0285 172.24 59.4065 177.535 54.802C178.136 54.2808 178.918 54.0194 179.712 54.0751C180.505 54.1308 181.243 54.4992 181.765 55.0992C182.287 55.6992 182.549 56.4818 182.494 57.2751C182.44 58.0684 182.072 58.8074 181.472 59.3298C176.904 63.3017 173.962 68.2485 171.366 72.6128C168.264 77.8286 165.585 82.333 160.973 83.4182C160.004 83.6476 159.012 83.7638 158.016 83.7644Z" fill="black"/>
<path d="M198.804 194.849C198.196 194.849 197.603 194.665 197.103 194.321C196.602 193.976 196.218 193.488 196.001 192.921C195.784 192.354 195.744 191.734 195.887 191.144C196.029 190.554 196.348 190.02 196.8 189.615C211.206 176.697 231.626 172.611 245.139 169.908C250.896 168.756 256.333 167.668 258.145 166.423C258.866 165.978 259.482 165.383 259.95 164.677C260.419 163.971 260.728 163.172 260.858 162.335C260.937 161.227 260.786 160.114 260.416 159.066C260.045 158.018 259.463 157.057 258.705 156.244C254.474 151.227 240.014 133.331 231.605 113.716C219.664 85.8611 204.613 67.3618 194.509 59.3374C194.2 59.0926 193.943 58.7893 193.751 58.4449C193.56 58.1004 193.438 57.7217 193.393 57.3302C193.348 56.9387 193.38 56.5422 193.488 56.1633C193.597 55.7843 193.778 55.4305 194.023 55.1218C194.268 54.8132 194.572 54.5559 194.916 54.3646C195.261 54.1732 195.64 54.0517 196.031 54.0068C196.423 53.9619 196.819 53.9947 197.198 54.1031C197.577 54.2115 197.931 54.3935 198.239 54.6387C203.421 58.7537 221.539 75.0047 237.12 111.352C243.541 126.333 254.85 142.366 263.291 152.376C264.601 153.822 265.591 155.527 266.196 157.381C266.802 159.236 267.009 161.197 266.805 163.137C266.568 164.805 265.976 166.404 265.068 167.823C264.16 169.243 262.958 170.452 261.543 171.367C258.718 173.31 253.516 174.351 246.315 175.791C232.674 178.521 213.991 182.259 200.806 194.082C200.256 194.576 199.543 194.849 198.804 194.849Z" fill="black"/>
</svg>
