<svg width="302" height="282" viewBox="0 0 302 282" fill="none" xmlns="http://www.w3.org/2000/svg">
<path d="M103.375 66.4421C93.5371 87.3789 85.285 109.027 78.688 131.204C72.2954 152.651 54.1177 197.075 45.6789 203.799C36.8371 210.844 23.3164 213.577 19.1566 214.197C15.4453 214.751 6.13526 215.627 3.6653 222.42C1.19533 229.214 6.00736 235.371 12.5021 237.415C17.0713 238.852 28.0282 240.817 35.2146 234.706C42.4009 228.595 47.7441 226.217 51.0728 229.999C54.5806 233.985 52.6741 238.82 58.7967 242.815C60.1265 243.695 61.6627 244.212 63.2532 244.314C64.8437 244.417 66.4333 244.101 67.8646 243.399C69.296 242.697 70.5194 241.632 71.4137 240.31C72.308 238.988 72.8422 237.455 72.9633 235.863L77.5007 225.762C78.8151 221.584 79.574 212.268 78.8394 206.315C77.4331 194.918 84.8662 177.343 97.5037 148.099L103.375 66.4421Z" fill="white"/>
<path d="M63.8703 247.363C61.484 247.354 59.152 246.648 57.1592 245.333C52.607 242.363 51.549 238.855 50.6979 236.036C50.3831 234.563 49.7424 233.179 48.823 231.986C47.1823 230.122 43.2548 231.808 37.1537 236.996C27.903 244.862 14.2466 241.113 11.6025 240.281C9.42495 239.641 7.39827 238.568 5.64317 237.127C3.88808 235.685 2.44047 233.904 1.38654 231.891C0.57664 230.273 0.110418 228.505 0.0173493 226.698C-0.0757189 224.891 0.206391 223.085 0.845846 221.392C3.77585 213.336 13.3584 211.984 17.9642 211.334L18.7138 211.227C20.3281 210.986 34.7517 208.667 43.8111 201.448C51.1215 195.623 69.1086 152.841 75.8128 130.345C76.0404 129.581 76.5613 128.94 77.2611 128.561C77.9608 128.182 78.7821 128.098 79.5442 128.326C80.3062 128.554 80.9467 129.076 81.3247 129.777C81.7026 130.478 81.7872 131.301 81.5596 132.064C75.9504 150.884 57.2822 198.39 47.5434 206.15C37.4739 214.175 22.4959 216.737 19.5961 217.169L18.8007 217.284C15.0879 217.807 8.1777 218.782 6.48039 223.449C6.12047 224.379 5.95967 225.374 6.00844 226.37C6.0572 227.366 6.31444 228.341 6.76346 229.231C7.46509 230.512 8.41247 231.641 9.55113 232.554C10.6898 233.466 11.9973 234.145 13.3984 234.549C14.6965 234.957 26.278 238.366 33.2731 232.416C37.0151 229.234 46.9539 220.781 53.3205 228.012C54.8259 229.841 55.8924 231.991 56.4379 234.297C57.1787 236.752 57.7136 238.525 60.4308 240.298C61.2938 240.905 62.3034 241.269 63.3544 241.352C64.4055 241.435 65.4595 241.235 66.4069 240.771C67.4004 240.29 68.2519 239.558 68.8779 238.648C69.5038 237.737 69.8827 236.68 69.9772 235.578C70.0146 235.185 70.1289 234.804 70.3135 234.455C70.4981 234.107 70.7493 233.798 71.0529 233.547C71.3565 233.296 71.7066 233.107 72.083 232.992C72.4595 232.876 72.8549 232.836 73.2469 232.873C73.6388 232.911 74.0196 233.025 74.3674 233.21C74.7152 233.395 75.0232 233.647 75.2739 233.951C75.5246 234.255 75.713 234.606 75.8284 234.983C75.9438 235.36 75.984 235.756 75.9466 236.149C75.7428 238.276 74.9983 240.315 73.7841 242.072C72.5699 243.829 70.9266 245.244 69.011 246.183C67.4081 246.96 65.6507 247.363 63.8703 247.363Z" fill="black"/>
<path d="M124.8 17.345C98.4684 28.1897 98.6749 47.6308 90.0336 54.9567C81.3924 62.2826 62.1158 133.543 26.9853 165.176C18.8315 172.517 26.4104 188.661 30.1084 190.983C40.1983 197.319 51.4653 204.499 68.1975 209.797C71.0124 210.688 87.1068 212.554 92.7917 195.145C98.4767 177.736 140.067 52.8396 142.825 41.4955C132.88 23.4332 136.803 28.9305 124.8 17.345Z" fill="#2D8C3C"/>
<path d="M66.103 209.806C50.1363 209.806 33.3517 198.88 27.9133 193.03C19.8104 184.313 16.1855 171.192 24.9345 162.982C47.3956 141.906 60.9447 110.324 71.8322 84.9466C77.5926 71.5192 82.5674 59.9228 87.6339 53.1538C88.1113 52.517 88.8215 52.0962 89.6084 51.9839C90.3954 51.8715 91.1946 52.0768 91.8305 52.5546C92.4665 53.0324 92.8871 53.7436 92.9998 54.532C93.1126 55.3203 92.9084 56.1213 92.432 56.7588C87.794 62.9542 82.95 74.2453 77.3408 87.3193C66.2337 113.211 52.4104 145.433 29.0338 167.368C24.7168 171.418 23.8989 179.895 32.3015 188.936C36.9688 193.956 52.1527 203.798 66.1029 203.798C66.8981 203.798 67.6608 204.114 68.2231 204.678C68.7854 205.241 69.1013 206.005 69.1013 206.802C69.1013 207.599 68.7854 208.363 68.2231 208.926C67.6608 209.49 66.8981 209.806 66.1029 209.806H66.103Z" fill="black"/>
<path d="M102.199 55.2513C96.6607 56.8381 93.0133 76.5986 96.016 88.9218C99.0186 101.245 89.0462 131.11 85.3806 142.201C75.9656 170.689 66.7686 208.134 64.1098 220.122C61.451 232.11 84.8745 245.987 100.004 246.761C103.059 246.918 100.004 224.784 100.004 224.784C100.004 224.784 129.285 232.357 130.943 230.746C138.285 223.607 126.093 215.641 120.299 188.938C115.589 166.261 112.174 143.333 110.07 120.266C108.741 105.408 102.495 55.1664 102.199 55.2513Z" fill="#2D8C3C"/>
<path d="M167.848 22.538C166.067 21.4147 200.075 29.0952 193.164 30.6457C190.744 31.1886 184.349 0.436816 152.616 0.0101948C109.904 -0.564048 108.745 23.3198 129.167 21.3405C131.632 21.1016 125.641 24.6843 125.242 25.5908C113.262 52.7785 125.979 30.6472 115.155 68.3835C107.656 94.5295 108.694 100.308 107.16 114.446C106.276 122.595 104.395 136.524 102.162 166.517C100.529 188.467 92.3745 232.696 100.164 239.617C107.002 245.693 101.473 240.379 106.89 241.519C127.267 245.808 138.456 245.875 148.597 246.291C169.839 247.161 190.207 240.87 190.409 240.845L190.411 240.845C191.011 240.73 191.567 240.448 192.014 240.031C192.414 239.643 193.309 237.985 192.889 235.184C190.253 217.632 183.983 209.283 183.983 209.283C174.738 196.618 171.516 169.855 165.072 116.329C160.644 79.5473 158.43 61.1561 162.879 47.7366C165.262 40.5472 171.554 24.8765 167.848 22.538Z" fill="white"/>
<path d="M94.5644 95.4684C91.0193 88.8084 85.7016 43.9652 89.2467 39.9692C92.7919 35.9733 110.83 26.9473 110.83 26.9473C110.83 26.9473 107.859 19.1016 110.518 13.7736C113.176 8.44571 140.477 -1.89448 135.16 6.0974C129.842 14.0893 110.337 59.2282 94.5644 95.4684Z" fill="#2D8C3C"/>
<path d="M140.774 249.1C140.746 249.1 140.718 249.1 140.69 249.099C122.582 248.602 108.467 246.043 98.7359 241.493C98.3782 241.326 98.0568 241.091 97.79 240.8C97.5232 240.509 97.3163 240.169 97.1811 239.797C97.0459 239.426 96.9851 239.032 97.0022 238.637C97.0193 238.243 97.1139 237.855 97.2806 237.497C97.4474 237.139 97.683 236.818 97.9739 236.551C98.2648 236.284 98.6054 236.078 98.9761 235.943C99.3468 235.809 99.7404 235.749 100.134 235.767C100.528 235.785 100.915 235.88 101.272 236.048C110.128 240.189 123.816 242.626 140.854 243.093C141.642 243.115 142.389 243.446 142.935 244.016C143.481 244.585 143.781 245.347 143.77 246.136C143.76 246.926 143.439 247.679 142.879 248.234C142.318 248.788 141.562 249.1 140.774 249.1L140.774 249.1Z" fill="black"/>
<path d="M97.4287 251.259C91.5785 251.26 82.3795 247.129 76.8767 243.836C70.962 240.295 61.1355 232.999 61.7836 223.904C62.9314 207.803 69.254 187.59 75.9475 166.189C81.2229 149.322 86.6789 131.881 90.4238 114.27C90.5902 113.491 91.0583 112.81 91.7253 112.377C92.3924 111.944 93.2037 111.794 93.9811 111.96C94.7585 112.126 95.4383 112.594 95.8712 113.262C96.3041 113.93 96.4546 114.743 96.2897 115.522C92.4852 133.409 86.9873 150.986 81.6699 167.986C75.0838 189.042 68.8626 208.931 67.7646 224.332C67.544 227.428 69.9167 231.165 74.4445 234.856C82.2224 241.195 92.8522 244.937 96.8616 245.273C93.388 202.163 105.853 52.8966 129.324 12.8112C129.523 12.4709 129.787 12.1733 130.101 11.9353C130.416 11.6973 130.773 11.5236 131.154 11.4241C131.535 11.3246 131.932 11.3013 132.322 11.3555C132.712 11.4097 133.088 11.5403 133.428 11.74C133.767 11.9396 134.064 12.2043 134.302 12.519C134.54 12.8336 134.713 13.1921 134.812 13.5739C134.911 13.9557 134.935 14.3533 134.881 14.7441C134.827 15.1349 134.696 15.5112 134.497 15.8515C111.703 54.7791 99.1612 207.491 102.988 246.468C103.074 247.238 102.94 248.017 102.602 248.715C102.264 249.412 101.735 249.999 101.078 250.408C99.9649 251.028 98.7007 251.323 97.4287 251.259Z" fill="black"/>
<path d="M95.8968 101.581C95.7925 101.581 95.6883 101.576 95.5845 101.565C94.7935 101.483 94.0674 101.089 93.5659 100.471C93.0644 99.8526 92.8285 99.06 92.9102 98.2674C94.1098 86.6688 91.1231 72.7607 88.7231 61.5853C86.2128 49.8953 84.3994 41.4492 87.1468 37.0455C89.1038 33.9075 94.0912 32.2039 99.8653 30.2318C102.796 29.2304 107.668 27.5668 108.597 26.4596C108.832 25.5206 108.365 23.6464 107.953 21.9852C107.03 18.2805 105.768 13.2066 109.912 9.7026C113.111 6.99676 122.185 2.21559 123.209 1.67922C123.913 1.31504 124.733 1.24503 125.488 1.4845C126.244 1.72398 126.874 2.25345 127.241 2.95716C127.608 3.66088 127.682 4.4816 127.447 5.2399C127.212 5.9982 126.687 6.6324 125.987 7.00385C123.366 8.37658 116.064 12.3622 113.78 14.2938C112.67 15.2328 112.868 16.9021 113.771 20.5323C114.431 23.189 115.116 25.9361 114.241 28.5068C113.024 32.0847 108.071 33.7767 101.8 35.9185C98.5301 37.0353 93.0586 38.9042 92.2319 40.2298C90.7737 42.5677 92.799 51.9997 94.5861 60.3214C97.0749 71.9126 100.173 86.3383 98.8757 98.8864C98.7992 99.6249 98.4525 100.309 97.9024 100.807C97.3524 101.304 96.6379 101.58 95.8968 101.581Z" fill="black"/>
<path d="M150.032 32.7616C146.101 32.7852 142.185 32.2615 138.398 31.2056C138.017 31.0991 137.661 30.9182 137.351 30.6733C137.04 30.4285 136.781 30.1245 136.588 29.7789C136.395 29.4333 136.272 29.0529 136.226 28.6595C136.181 28.2662 136.213 27.8676 136.322 27.4868C136.43 27.1061 136.613 26.7506 136.859 26.4408C137.105 26.131 137.41 25.8731 137.756 25.6818C138.102 25.4905 138.483 25.3697 138.876 25.3262C139.269 25.2828 139.666 25.3176 140.045 25.4287C148.92 27.9698 159.312 26.4777 165.672 23.8716C166.408 23.57 167.233 23.5737 167.967 23.8818C168.7 24.19 169.281 24.7774 169.582 25.5148C169.883 26.2522 169.879 27.0792 169.572 27.8139C169.264 28.5486 168.678 29.1308 167.942 29.4325C162.23 31.648 156.157 32.777 150.032 32.7616Z" fill="black"/>
<path d="M178.44 5.6733C202.369 16.3291 215.845 51.1583 215.838 55.143C215.827 61.1124 210.459 61.6885 206.243 67.0225C201.743 72.7159 201.435 79.2242 206.773 108.582C210.25 127.708 214.341 138.886 219.311 155.116C231.451 194.765 239.815 230.569 233.832 243.654C225.123 262.702 156.504 260.525 156.282 251.645C155.967 238.994 155.175 177.943 157.612 149.971C158.604 138.588 157.502 118.908 157.833 94.2499C158.075 72.2246 160.977 50.3096 166.475 28.983C169.475 17.3265 173.122 7.67126 178.44 5.6733Z" fill="#2D8C3C"/>
<path d="M172.111 261.719C160.521 261.719 154.266 259.099 153.13 253.834C153.114 253.762 153.101 253.688 153.091 253.615C147.405 212.86 156.567 54.9009 166.898 15.5646C167.101 14.7941 167.6 14.1356 168.287 13.7341C168.974 13.3327 169.792 13.221 170.561 13.4238C171.33 13.6265 171.987 14.127 172.388 14.8153C172.789 15.5035 172.9 16.323 172.698 17.0936C162.485 55.9781 153.428 211.953 159.004 252.598C159.232 253.099 162.758 258.943 196.882 253.124C217.241 249.651 231.679 244.917 242.32 238.223C242.654 238.013 243.025 237.871 243.413 237.805C243.802 237.739 244.199 237.75 244.583 237.838C244.967 237.926 245.33 238.089 245.651 238.317C245.972 238.546 246.246 238.835 246.455 239.17C246.664 239.504 246.806 239.876 246.872 240.265C246.937 240.654 246.926 241.053 246.838 241.437C246.75 241.822 246.587 242.186 246.359 242.507C246.131 242.829 245.841 243.102 245.508 243.312C234.18 250.438 219.048 255.438 197.888 259.047C189.382 260.636 180.761 261.53 172.111 261.719Z" fill="black"/>
<path d="M202.947 279.191L281.823 249.629C288.91 246.972 294.745 240.29 292.166 233.162L274.019 180.496C272.955 177.554 264.497 169.072 261.569 170.159L174.875 202.371C173.481 202.889 172.348 203.939 171.724 205.291C171.101 206.644 171.037 208.188 171.547 209.588L195.692 275.846C195.947 276.544 196.337 277.186 196.84 277.733C197.343 278.28 197.95 278.721 198.624 279.032C199.298 279.343 200.028 279.518 200.77 279.545C201.512 279.572 202.252 279.452 202.947 279.191Z" fill="#82BE28"/>
<path d="M202.47 281.999C200.26 282.032 198.086 281.439 196.198 280.289C194.309 279.139 192.783 277.478 191.794 275.498C186.968 265.777 171.271 224.29 168.873 214.044C167.311 207.371 169.686 201.918 175.561 198.692C183.336 194.421 255.092 169.127 259.095 167.966C265.113 166.22 270.567 168.8 273.673 174.872C278.094 183.517 288.538 213.575 288.981 214.85C289.11 215.223 289.165 215.618 289.142 216.012C289.119 216.405 289.019 216.791 288.848 217.146C288.676 217.501 288.436 217.819 288.142 218.081C287.848 218.344 287.505 218.545 287.133 218.675C286.761 218.804 286.368 218.859 285.974 218.836C285.581 218.813 285.196 218.713 284.842 218.541C284.488 218.369 284.17 218.129 283.909 217.834C283.647 217.54 283.446 217.196 283.316 216.823C283.21 216.515 272.568 185.887 268.336 177.612C266.541 174.103 263.991 172.801 260.762 173.737C257.07 174.808 185.325 200.181 178.444 203.96C174.955 205.877 173.769 208.645 174.712 212.672C176.984 222.383 192.56 263.55 197.163 272.823C197.854 274.098 198.975 275.087 200.326 275.612C201.676 276.137 203.169 276.164 204.538 275.689C215.529 272.51 278.754 248.359 287.039 244.175C288.061 243.684 288.905 242.886 289.455 241.892C290.004 240.899 290.231 239.758 290.104 238.629C289.986 237.84 289.696 236.651 289.299 235.057C289.204 234.674 289.185 234.276 289.243 233.886C289.301 233.496 289.435 233.121 289.637 232.783C289.84 232.445 290.107 232.15 290.423 231.915C290.74 231.68 291.099 231.51 291.481 231.415C291.863 231.319 292.26 231.3 292.649 231.358C293.039 231.416 293.413 231.55 293.751 231.753C294.088 231.956 294.383 232.224 294.617 232.541C294.851 232.858 295.021 233.218 295.116 233.601C295.569 235.415 295.878 236.683 296.035 237.739C296.339 240.118 295.896 242.532 294.768 244.647C293.64 246.762 291.882 248.472 289.738 249.54C281.337 253.783 217.318 278.246 206.201 281.462C204.989 281.816 203.733 281.996 202.47 281.999Z" fill="black"/>
<path d="M228.958 218.79C216.229 219.792 217.051 224.47 215.763 234.439C211.676 266.076 226.665 263.386 230.952 249.426C233.611 240.768 237.702 243.949 238.264 246.096C241.082 256.865 239.41 252.038 240.639 263.525C241.968 275.957 255.709 281.679 267.483 257.349C278.119 235.371 270.04 211.795 269.333 209.474C269.333 209.474 241.687 217.789 228.958 218.79Z" fill="white"/>
<path d="M249.203 276.929C248.453 276.931 247.705 276.85 246.973 276.69C241.879 275.566 238.396 270.764 237.657 263.846C237.178 259.378 237.126 257.249 237.092 255.841C237.041 253.786 237.026 253.224 235.398 246.992C234.665 248.001 234.126 249.137 233.806 250.343C231.69 256.955 226.616 262.987 220.039 261.562C214.741 260.413 210 254.047 211.356 242.418C211.835 238.817 212.609 235.261 213.669 231.787C213.897 231.025 214.417 230.384 215.116 230.006C215.815 229.628 216.635 229.543 217.396 229.769C218.157 229.996 218.797 230.516 219.176 231.215C219.555 231.914 219.642 232.735 219.418 233.499C218.45 236.64 217.746 239.856 217.311 243.115C216.438 250.612 218.66 255.116 221.307 255.69C223.326 256.125 226.316 254.068 228.097 248.509C230.192 241.958 233.383 240.666 235.608 240.719C236.898 240.815 238.126 241.31 239.121 242.137C240.117 242.965 240.831 244.082 241.163 245.334C242.931 252.09 243.021 253.058 243.086 255.692C243.12 257.081 243.167 258.983 243.619 263.205C244.064 267.37 245.843 270.289 248.263 270.822C251.355 271.506 256.837 268.619 262.918 258.467C270.179 246.343 272.193 221.01 266.7 210.912C266.319 210.213 266.232 209.39 266.456 208.626C266.681 207.862 267.199 207.218 267.897 206.837C268.595 206.456 269.416 206.368 270.179 206.593C270.942 206.818 271.584 207.337 271.965 208.037C278.476 220.006 276.469 247.517 268.06 261.558C260.427 274.303 253.561 276.929 249.203 276.929Z" fill="black"/>
<path d="M215.542 46.6291C220.705 54.8939 243.258 99.2814 251.152 118.225C259.046 137.169 273.087 172.837 283.723 191.484C293.467 208.569 235.199 222.12 215.5 218.784C208.343 217.573 203.037 207.224 203.144 199.985C203.25 192.746 198.743 153.6 198.899 146.139C199.055 138.678 198.892 120.782 198.892 120.782C198.521 110.223 192.664 98.4555 189.646 92.1657C186.628 85.8758 196.497 61.5194 199.196 54.8577C201.895 48.196 193.985 20.3089 200.032 25.7614C204.463 29.7573 215.542 46.6291 215.542 46.6291Z" fill="#2D8C3C"/>
<path d="M170.788 110.017C170.352 110.018 169.921 109.923 169.526 109.739C169.13 109.555 168.779 109.288 168.497 108.954C168.215 108.621 168.009 108.23 167.894 107.809C167.778 107.388 167.755 106.947 167.827 106.516C170.684 89.4535 179.784 76.3069 186.429 66.7076C190.543 60.7645 194.095 55.632 194.385 52.1522C194.076 50.8931 189.285 48.1406 186.713 46.6618C181.298 43.5501 176.183 40.6108 176.098 36.1178C176.009 31.52 180.012 27.7524 183.545 24.4283C185.315 22.7623 187.519 20.6889 187.854 19.5709C188.045 18.8797 188.087 18.1557 187.979 17.4468C187.87 16.7378 187.613 16.06 187.224 15.4579C185.389 12.2267 180.859 9.37611 177.713 8.58817C176.945 8.39151 176.286 7.89833 175.88 7.21644C175.474 6.53455 175.355 5.7194 175.547 4.94915C175.739 4.1789 176.228 3.51619 176.906 3.10588C177.584 2.69556 178.397 2.571 179.167 2.75942C183.655 3.88354 189.653 7.5858 192.436 12.4873C193.227 13.7956 193.738 15.2541 193.938 16.7705C194.138 18.2868 194.021 19.8283 193.597 21.2974C192.799 23.9624 190.298 26.3159 187.65 28.8078C185.289 31.0296 182.055 34.0726 182.092 36.002C182.421 37.2693 187.154 39.9889 189.696 41.4501C195.388 44.7206 200.763 47.8098 200.36 52.6506C199.938 57.734 196.151 63.205 191.357 70.1315C184.683 79.7735 176.376 91.773 173.741 107.51C173.624 108.21 173.263 108.846 172.723 109.305C172.182 109.764 171.497 110.016 170.788 110.017Z" fill="black"/>
<path d="M265.452 158.56C264.892 158.56 264.343 158.403 263.867 158.107C263.392 157.811 263.008 157.387 262.761 156.884C255.21 141.552 249.581 128.661 245.07 118.073C243.754 114.985 242.289 111.371 240.591 107.186C231.572 84.9424 217.942 51.328 199.972 30.3842C199.454 29.7799 199.197 28.9941 199.257 28.1995C199.316 27.405 199.689 26.6669 200.292 26.1475C200.895 25.6281 201.68 25.3701 202.473 25.4302C203.266 25.4902 204.002 25.8635 204.521 26.4678C223.129 48.1565 236.981 82.3185 246.147 104.925C247.833 109.083 249.29 112.674 250.585 115.714C255.064 126.227 260.653 139.024 268.139 154.226C268.364 154.684 268.469 155.191 268.444 155.701C268.419 156.211 268.265 156.706 267.996 157.14C267.727 157.574 267.352 157.932 266.907 158.18C266.462 158.428 265.961 158.559 265.452 158.56V158.56Z" fill="black"/>
<path d="M221.812 223.228C219.8 223.29 217.787 223.103 215.82 222.672C207.787 220.458 202.928 214.691 200.529 204.522C198.642 196.522 195.243 168.717 195.894 120.741C195.905 119.952 196.225 119.198 196.786 118.644C197.347 118.089 198.104 117.778 198.892 117.778L198.934 117.778C199.729 117.789 200.487 118.116 201.041 118.687C201.596 119.258 201.902 120.026 201.891 120.823C201.223 169.97 204.895 196.908 206.366 203.14C208.256 211.158 211.559 215.267 217.411 216.879C223.998 218.695 266.475 213.161 277.665 198.957C280.629 195.196 280.874 191.377 278.437 186.938C275.727 182.001 273.09 177.084 270.603 172.325C270.234 171.619 270.159 170.795 270.397 170.035C270.634 169.274 271.163 168.64 271.867 168.27C272.571 167.9 273.393 167.826 274.152 168.064C274.911 168.301 275.545 168.831 275.914 169.537C278.383 174.26 281 179.141 283.692 184.043C287.282 190.583 286.826 197.027 282.372 202.68C271.415 216.589 237.262 223.228 221.812 223.228Z" fill="black"/>
</svg>
