<svg width="300" height="250" viewBox="0 0 300 250" fill="none" xmlns="http://www.w3.org/2000/svg">
<path d="M123.53 3.62733C123.53 3.62733 131.53 1.62733 147.53 0.627332C163.53 -0.372668 183.015 4.69321 188.272 9.66027C193.53 14.6273 146.53 24.6273 134.53 19.6273C122.53 14.6273 123.53 3.62733 123.53 3.62733Z" fill="white"/>
<path d="M125.827 8.33691C117.261 13.3719 110.895 22.8195 104.229 36.7343C94.3858 57.6426 86.129 79.2614 79.5283 101.408C73.1321 122.826 54.9443 167.189 46.5008 173.904C37.6541 180.94 24.1258 183.669 19.9637 184.288C16.2504 184.841 6.93511 185.715 4.46378 192.5C1.99245 199.284 6.80714 205.433 13.3055 207.474C17.8773 208.91 28.8403 210.871 36.0307 204.769C43.221 198.666 48.5672 196.291 51.8977 200.068C55.4075 204.048 53.4999 208.878 59.6259 212.867C60.9565 213.746 62.4935 214.262 64.0849 214.364C65.6763 214.467 67.2668 214.151 68.6989 213.45C70.1311 212.749 71.3551 211.685 72.2499 210.365C73.1447 209.045 73.6792 207.515 73.8005 205.925L78.3404 195.837C79.6555 191.665 80.4148 182.361 79.6798 176.416C78.2727 165.035 85.71 147.484 98.3545 118.28L125.827 8.33691Z" fill="white"/>
<path d="M64.7046 217.408C62.3169 217.399 59.9836 216.695 57.9898 215.381C53.4361 212.415 52.3755 208.912 51.5239 206.097C51.2094 204.625 50.5683 203.243 49.6479 202.052C48.0063 200.191 44.0767 201.874 37.9722 207.056C28.7153 214.914 15.0513 211.167 12.4077 210.336C10.2286 209.697 8.20059 208.625 6.44433 207.185C4.68808 205.746 3.23956 203.967 2.18505 201.956C1.37501 200.341 0.908852 198.575 0.816064 196.771C0.723275 194.966 1.00587 193.162 1.64598 191.473C4.57665 183.426 14.1665 182.077 18.7749 181.428L19.5229 181.321C21.1381 181.081 35.5707 178.764 44.6342 171.556C51.9477 165.74 69.9448 123.017 76.6537 100.55C83.288 78.2491 91.6016 56.4831 101.523 35.4382C109.14 19.539 115.954 10.6606 124.307 5.75046C124.993 5.3486 125.81 5.23538 126.58 5.43565C127.349 5.63593 128.007 6.13333 128.41 6.81863C128.813 7.50394 128.928 8.32111 128.728 9.09072C128.529 9.86032 128.033 10.5194 127.348 10.9233C120.101 15.1826 113.997 23.2895 106.934 38.0305C97.148 58.7927 88.9478 80.266 82.4038 102.266C76.7905 121.062 58.1108 168.504 48.3687 176.252C38.2945 184.264 23.3081 186.824 20.4058 187.256L19.6109 187.37C15.896 187.893 8.98097 188.866 7.28273 193.527C6.92244 194.455 6.76138 195.449 6.81001 196.443C6.85863 197.438 7.11585 198.411 7.56496 199.3C8.26711 200.579 9.21527 201.707 10.3549 202.619C11.4946 203.531 12.8032 204.208 14.2056 204.612C15.5025 205.019 27.0904 208.424 34.0894 202.481C37.8345 199.303 47.7808 190.863 54.148 198.084C55.6542 199.91 56.7213 202.057 57.2671 204.36C58.0093 206.811 58.5445 208.582 61.2632 210.353C62.1266 210.959 63.1366 211.322 64.188 211.405C65.2394 211.488 66.2939 211.288 67.2417 210.826C68.2359 210.345 69.088 209.614 69.7144 208.705C70.3409 207.796 70.7201 206.739 70.815 205.639C70.8948 204.85 71.2836 204.125 71.8964 203.622C72.5092 203.119 73.2962 202.879 74.0854 202.954C74.8746 203.03 75.6018 203.415 76.1081 204.025C76.6145 204.635 76.8588 205.421 76.7876 206.21C76.5835 208.334 75.8382 210.371 74.623 212.125C73.4078 213.879 71.7632 215.293 69.8462 216.231C68.243 217.006 66.4853 217.408 64.7046 217.408Z" fill="black"/>
<path d="M126.931 2.6416C108.931 6.6416 91.9306 25.5085 83.2048 47.2024C74.479 68.8964 58.479 115.896 29.5523 155.806C25.3543 161.598 27.41 169.507 31.11 171.825C41.2056 178.152 59.9514 190.342 66.6023 196.993C73.2531 203.644 109.14 131.367 114.828 113.982C120.516 96.596 138.59 45.5316 141.351 34.203C131.4 16.1653 138.941 14.2112 126.931 2.6416Z" fill="#2D8C3C"/>
<path d="M66.6049 201.994C66.1387 201.994 65.6787 201.886 65.2617 201.678C64.8446 201.469 64.482 201.167 64.2025 200.793C56.2806 190.23 44.6761 183.919 36.2035 179.31C32.2631 177.167 29.1508 175.474 27.223 173.784C25.9306 172.629 24.8802 171.229 24.1329 169.666C23.3856 168.102 22.9563 166.405 22.8698 164.674C22.7833 162.943 23.0414 161.213 23.6291 159.582C24.2168 157.952 25.1224 156.454 26.2934 155.177C26.3266 155.139 26.3617 155.102 26.3969 155.065C41.5385 139.706 56.9115 103.418 69.264 74.26C75.2357 60.1648 80.392 47.9917 84.5697 40.4309C91.3217 28.2115 103.302 13.9709 113.057 6.57009C113.691 6.08912 114.49 5.87967 115.278 5.98781C115.669 6.04135 116.045 6.17126 116.385 6.37011C116.725 6.56895 117.022 6.83285 117.261 7.14673C117.499 7.4606 117.673 7.81832 117.773 8.19944C117.873 8.58056 117.896 8.97763 117.843 9.36797C117.789 9.75831 117.659 10.1343 117.461 10.4744C117.262 10.8146 116.998 11.1122 116.684 11.3504C107.514 18.3064 96.2172 31.7569 89.8217 43.3328C85.7953 50.6199 80.6947 62.6597 74.7885 76.6004C62.2523 106.193 46.6537 143.013 30.7279 159.219C30.0944 159.907 29.6034 160.714 29.283 161.593C28.9627 162.471 28.8193 163.405 28.8613 164.34C28.9032 165.274 29.1296 166.191 29.5274 167.038C29.9252 167.884 30.4865 168.644 31.1791 169.273C33.6686 171.084 36.3088 172.679 39.0707 174.04C47.5228 178.637 60.2953 185.584 69.0033 197.193C69.3373 197.639 69.5407 198.169 69.5907 198.724C69.6407 199.278 69.5353 199.836 69.2864 200.334C69.0374 200.832 68.6548 201.251 68.1812 201.545C67.7076 201.838 67.1618 201.993 66.6049 201.994H66.6049Z" fill="black"/>
<path d="M208.501 30.8368C192.501 0.836784 180.53 3.08508 180.53 3.08508C168.857 14.7576 136.784 13.2475 128.173 4.6369C128.173 4.6369 121.719 6.54553 115.501 14.8368C108.928 23.6005 100.363 41.2357 98.932 56.0362C97.5009 70.8368 86.6 127.753 86.4525 128.847C76.8916 199.766 64.5395 214.421 77.008 226.198C101.832 249.647 147.51 249.135 163.02 242.996C194.944 230.359 220.724 237.232 228.784 240.114C236.844 242.996 220.22 52.81 208.501 30.8368Z" fill="#2D8C3C"/>
<path d="M92.7169 240.937C92.3047 240.937 91.8971 240.851 91.5196 240.686C74.2921 233.171 66.4727 223.717 68.2774 212.588C72.5108 186.477 82.2901 147.805 82.9307 145.28L83.5509 141.52C86.921 121.1 90.4063 99.9856 88.7354 84.3923C88.6935 84.0005 88.7291 83.6043 88.8402 83.2263C88.9514 82.8483 89.1359 82.4958 89.3833 82.1891C89.6306 81.8824 89.936 81.6274 90.2819 81.4387C90.6278 81.25 91.0075 81.1313 91.3993 81.0893C91.791 81.0474 92.1873 81.083 92.5653 81.1941C92.9433 81.3053 93.2957 81.4898 93.6024 81.7372C93.9091 81.9845 94.1641 82.2899 94.3528 82.6358C94.5415 82.9817 94.6603 83.3614 94.7022 83.7531C96.4591 100.158 92.9063 121.682 89.4708 142.497L88.8302 146.381C88.8165 146.467 88.7989 146.552 88.7774 146.637C88.6749 147.037 78.5138 186.948 74.1993 213.548C72.8897 221.627 79.5235 228.907 93.9181 235.186C94.55 235.462 95.0678 235.947 95.3842 236.56C95.7007 237.172 95.7964 237.875 95.6555 238.55C95.5145 239.225 95.1453 239.831 94.6102 240.266C94.075 240.7 93.4064 240.937 92.7169 240.937V240.937Z" fill="black"/>
<path d="M133.837 249.435C126.419 249.465 119.017 248.768 111.735 247.353C111.349 247.276 110.982 247.123 110.654 246.904C110.327 246.685 110.046 246.403 109.828 246.075C109.609 245.747 109.458 245.38 109.381 244.993C109.305 244.607 109.305 244.209 109.383 243.823C109.46 243.436 109.613 243.069 109.832 242.742C110.051 242.414 110.333 242.134 110.661 241.915C110.988 241.697 111.356 241.545 111.743 241.468C112.129 241.392 112.527 241.393 112.913 241.47C128.149 244.517 146.153 244.011 162.312 240.081C185.279 234.494 209.218 229.645 227.317 236.885C228.056 237.181 228.647 237.758 228.961 238.489C229.274 239.22 229.284 240.046 228.989 240.785C228.693 241.524 228.116 242.115 227.385 242.428C226.653 242.741 225.828 242.751 225.089 242.456C208.633 235.874 185.754 240.553 163.73 245.911C153.939 248.258 143.905 249.441 133.837 249.435Z" fill="black"/>
<path d="M150.426 15.0546C149.962 15.0546 149.501 15.048 149.038 15.0351C139.811 14.7739 131.462 11.7853 126.132 6.83561C125.55 6.29399 125.207 5.54359 125.178 4.74922C125.149 3.95485 125.436 3.18145 125.977 2.5989C126.518 2.01634 127.268 1.67224 128.062 1.64219C128.857 1.61214 129.63 1.89858 130.214 2.43861C138.694 10.3126 157.8 12.6246 176.511 1.39955C176.849 1.19585 177.224 1.06079 177.614 1.00212C178.004 0.943438 178.402 0.96229 178.785 1.05759C179.168 1.15289 179.528 1.32278 179.845 1.55751C180.162 1.79224 180.43 2.08721 180.633 2.42554C180.836 2.76386 180.97 3.13889 181.028 3.52915C181.086 3.9194 181.066 4.31723 180.97 4.69984C180.873 5.08245 180.703 5.44233 180.467 5.75887C180.232 6.07541 179.936 6.3424 179.597 6.54455C170.824 11.9711 160.741 14.9126 150.426 15.0546Z" fill="black"/>
<path d="M198.273 92.376C209.078 120.505 219.293 152.458 221.5 162.244C225.424 179.647 227.497 185.946 223.289 201.306L221.059 215.324C220.798 216.897 220.952 218.511 221.507 220.006C222.061 221.501 222.997 222.826 224.22 223.848C225.444 224.87 226.914 225.556 228.484 225.835C230.053 226.115 231.669 225.98 233.171 225.443C240.071 223.029 239.369 217.884 243.726 214.855C247.861 211.981 257.441 216.194 262.97 223.834C268.499 231.474 279.614 232.181 284.396 231.877C291.194 231.443 297.335 226.618 296.552 219.441C295.768 212.263 286.93 209.194 283.455 207.772C279.56 206.179 267.072 200.305 260.157 191.364C253.556 182.83 241.45 136.26 235.34 112.726C218.805 53.4405 211.981 43.9852 208.086 35.2217L198.273 92.376Z" fill="white"/>
<path d="M282.614 234.928C277.698 234.928 266.583 233.941 260.541 225.592C255.41 218.502 247.462 215.913 245.44 217.318C244.263 218.255 243.311 219.445 242.654 220.799C241.157 223.33 239.293 226.48 234.164 228.275C232.205 228.986 230.094 229.176 228.039 228.825C225.984 228.475 224.056 227.595 222.444 226.274C220.806 224.907 219.546 223.142 218.784 221.149C218.022 219.156 217.784 217 218.092 214.889C218.208 214.102 218.631 213.394 219.269 212.919C219.907 212.445 220.708 212.243 221.494 212.358C222.281 212.473 222.99 212.896 223.465 213.534C223.94 214.171 224.143 214.971 224.029 215.758C223.859 216.849 223.975 217.965 224.367 218.998C224.758 220.03 225.412 220.943 226.262 221.646C227.073 222.321 228.049 222.767 229.09 222.937C230.131 223.107 231.199 222.994 232.181 222.612C235.244 221.54 236.186 219.947 237.49 217.743C238.569 215.637 240.117 213.806 242.014 212.392C247.157 208.815 258.254 212.196 265.402 222.075C270.787 229.514 282.848 228.969 284.207 228.883C285.665 228.824 287.097 228.478 288.421 227.864C289.745 227.251 290.934 226.381 291.921 225.306C292.569 224.55 293.05 223.666 293.335 222.712C293.619 221.757 293.699 220.754 293.57 219.766C293.032 214.835 286.55 212.242 283.066 210.849L282.32 210.549C279.604 209.438 265.66 203.38 257.785 193.199C251.634 185.247 241.967 150.185 232.437 113.48C218.476 63.4226 211.524 49.2014 207.37 40.7046C206.61 39.1499 205.954 37.8071 205.346 36.4397C205.023 35.7127 205.002 34.8871 205.288 34.1445C205.573 33.402 206.142 32.8033 206.869 32.4802C207.596 32.1571 208.422 32.136 209.165 32.4216C209.907 32.7073 210.506 33.2761 210.829 34.0032C211.392 35.2705 212.026 36.5676 212.76 38.0696C217.005 46.7512 224.107 61.2812 238.23 111.92C243.642 132.763 256.285 181.453 262.531 189.528C269.615 198.688 283.08 204.377 284.592 204.996L285.295 205.279C289.615 207.007 298.606 210.603 299.535 219.115C299.754 220.908 299.598 222.728 299.078 224.458C298.558 226.188 297.685 227.792 296.513 229.167C295.01 230.869 293.179 232.251 291.131 233.231C289.082 234.211 286.857 234.768 284.589 234.87C284.17 234.897 283.49 234.928 282.614 234.928Z" fill="black"/>
<path d="M223.291 204.307C222.83 204.307 222.374 204.2 221.96 203.996C221.547 203.791 221.186 203.493 220.906 203.126C220.625 202.759 220.434 202.333 220.345 201.88C220.257 201.426 220.274 200.959 220.396 200.514C224.085 187.046 222.724 181.087 219.435 166.692C219.159 165.488 218.871 164.228 218.573 162.904C216.499 153.709 206.47 122.083 195.473 93.4519C195.188 92.7091 195.209 91.8834 195.533 91.1564C195.856 90.4294 196.455 89.8607 197.198 89.5754C197.941 89.2901 198.767 89.3116 199.494 89.6352C200.22 89.9587 200.789 90.5577 201.074 91.3005C212.166 120.179 222.313 152.216 224.426 161.584C224.723 162.902 225.01 164.156 225.283 165.355C228.707 180.339 230.271 187.178 226.183 202.099C226.009 202.733 225.632 203.292 225.11 203.691C224.587 204.09 223.949 204.306 223.291 204.307Z" fill="black"/>
<path d="M273.324 183.056C274.797 181.731 278.053 177.569 276.594 176.229C256.486 157.773 224.35 46.296 216.48 32.8966C200.075 4.96313 190.315 5.31199 181.315 6.31199C162.377 8.41624 176.796 50.0093 182.48 69.8966C185.529 80.5648 206.48 130.309 206.48 176.897C206.48 200.897 207.48 213.897 215.48 208.897C235.48 187.897 252.902 201.442 273.324 183.056Z" fill="#2D8C3C"/>
<path d="M215.669 211.979C215.135 211.979 214.611 211.836 214.152 211.565C213.692 211.295 213.312 210.907 213.052 210.441C212.792 209.975 212.661 209.448 212.673 208.915C212.684 208.382 212.837 207.861 213.117 207.407C219.526 196.992 231.592 194.77 243.262 192.622C252.934 190.841 262.935 189 270.413 182.72C274.7 179.121 273.141 175.017 271.08 172.208C260.693 158.065 248.367 123.904 236.446 90.869C227.31 65.5512 218.681 41.6374 211.857 29.3534C207.054 20.7096 201.411 15.2143 192.984 10.9782C192.632 10.8015 192.317 10.5571 192.059 10.2589C191.801 9.96067 191.605 9.61453 191.481 9.24026C191.356 8.86599 191.307 8.47093 191.336 8.07767C191.365 7.68441 191.471 7.30067 191.648 6.94838C191.825 6.5961 192.07 6.28218 192.368 6.02459C192.667 5.767 193.013 5.57078 193.388 5.44716C193.762 5.32354 194.157 5.27494 194.55 5.30414C194.944 5.33334 195.327 5.43977 195.679 5.61734C205.135 10.3715 211.743 16.7931 217.101 26.4393C224.161 39.1459 232.87 63.2807 242.09 88.8324C253.866 121.467 266.043 155.212 275.916 168.657C280.756 175.25 280.127 182.399 274.271 187.315C265.58 194.614 254.787 196.601 244.349 198.523C233.02 200.608 223.237 202.41 218.226 210.551C217.958 210.988 217.582 211.349 217.134 211.599C216.686 211.849 216.181 211.98 215.669 211.979Z" fill="black"/>
<path d="M208.477 200.897C207.825 200.897 207.191 200.684 206.671 200.291C206.151 199.899 205.773 199.347 205.594 198.721C195.624 163.827 192.517 122.529 192.487 122.116C192.428 121.322 192.688 120.538 193.208 119.936C193.728 119.334 194.466 118.963 195.26 118.904C196.053 118.846 196.837 119.106 197.44 119.626C198.042 120.146 198.413 120.884 198.471 121.678C198.5 122.085 201.567 162.785 211.363 197.072C211.491 197.519 211.513 197.989 211.427 198.446C211.342 198.902 211.152 199.333 210.872 199.704C210.593 200.074 210.231 200.375 209.815 200.582C209.399 200.789 208.941 200.897 208.477 200.897V200.897Z" fill="black"/>
</svg>
