<svg width="300" height="301" viewBox="0 0 300 301" fill="none" xmlns="http://www.w3.org/2000/svg">
<path d="M127.081 46.8773C127.081 46.8773 135.081 44.8773 151.081 43.8773C167.081 42.8773 186.565 47.9432 191.823 52.9103C197.081 57.8773 150.081 67.8773 138.081 62.8773C126.081 57.8773 127.081 46.8773 127.081 46.8773Z" fill="white"/>
<path d="M45.1293 93.8451C43.6012 112.036 26.5111 156.72 45.518 171.341C68.1167 188.725 88.97 156.709 88.5266 144.738C88.3231 139.243 85.0273 136.958 84.3968 133.339C72.2121 127.333 69.6134 107.906 71.2357 94.2187C71.4351 80.2763 45.3288 79.9027 45.1293 93.8451Z" fill="white"/>
<path d="M126.213 47.9531C104.213 47.9531 94.5124 76.4565 73.0081 80.447C73.0081 80.447 65.0271 123.953 68.1308 132.821C71.2346 141.689 74.2411 167.755 86.2126 177.953C96.0142 189.411 107.769 183.245 113.458 165.859C119.146 148.473 121.336 106.416 124.096 95.087C132.922 58.865 126.213 47.9531 126.213 47.9531Z" fill="#82BE28"/>
<path d="M90.7197 72.6273C90.1465 72.6271 89.5854 72.4627 89.1027 72.1535C88.62 71.8443 88.236 71.4033 87.9961 70.8827C87.7562 70.3621 87.6704 69.7837 87.749 69.2159C87.8276 68.6481 88.0672 68.1147 88.4395 67.6788C97.9297 56.5682 114.83 47.5511 115.545 47.1727C116.248 46.8052 117.067 46.7308 117.825 46.9659C118.582 47.201 119.215 47.7264 119.587 48.4272C119.958 49.1281 120.036 49.9473 119.805 50.7059C119.574 51.4644 119.051 52.1006 118.353 52.4752C118.188 52.5626 101.74 61.3448 93.002 71.5758C92.7205 71.9059 92.3706 72.1709 91.9765 72.3525C91.5824 72.5341 91.1536 72.6278 90.7197 72.6273Z" fill="black"/>
<path d="M63.1991 2.9895L33.8888 0.0385915C29.4167 -0.411648 26.4362 3.13041 27.2655 7.90984L38.1587 70.6891C38.988 75.4685 43.3255 79.7473 47.7976 80.1976L77.1079 83.1485C81.58 83.5987 84.5605 80.0567 83.7312 75.2772L72.838 12.498C72.0087 7.71856 67.6712 3.43974 63.1991 2.9895Z" fill="black"/>
<path d="M48.1879 18.1869L39.1124 17.2731C38.067 17.0909 37.1021 16.5939 36.3467 15.8487C35.5912 15.1035 35.0812 14.1455 34.8847 13.1027L34.6428 11.7085C34.2791 9.61226 35.5863 8.05871 37.5478 8.25618L46.6233 9.16989C47.6687 9.35217 48.6336 9.84911 49.389 10.5943C50.1445 11.3395 50.6545 12.2975 50.851 13.3403L51.0929 14.7345C51.4566 16.8308 50.1494 18.3843 48.1879 18.1869Z" fill="#82BE28"/>
<path d="M71.2356 94.219C71.4336 92.5026 71.7188 90.7974 72.0899 89.11C84.6156 64.6344 64.3307 38.359 45.93 39.9113C35.171 40.8185 33.9586 57.6467 34.402 66.071C34.8453 74.4953 37.1731 82.0373 45.1541 93.5651C45.1473 93.6562 45.137 93.7529 45.1292 93.8454C53.7554 95.3657 62.5695 95.4918 71.2356 94.219Z" fill="white"/>
<path d="M59.0992 179.166C56.9009 179.167 54.7138 178.851 52.606 178.227C47.5855 176.738 38.6861 171.985 35.4898 156.887C32.8755 144.547 36.4722 125.816 39.3619 110.765C40.6949 103.824 42.3472 95.2164 41.8863 93.1859C37.6236 86.8812 32.6285 78.1568 31.4175 66.3778C30.3091 55.589 32.8785 46.2103 38.2905 41.2897C41.9673 37.9474 46.8091 36.7607 52.2827 37.8561C57.4851 38.9397 62.3615 41.2262 66.5216 44.5326C70.6817 47.8389 74.0099 52.0734 76.2398 56.8968C81.1754 67.4584 80.6236 79.7228 74.7242 90.546C74.0357 92.0663 71.9508 102.877 71.191 114.798C70.1988 130.392 72.107 137.646 74.2252 139.234C74.5407 139.47 74.8066 139.766 75.0077 140.105C75.2088 140.444 75.341 140.82 75.397 141.21C75.4529 141.6 75.4314 141.997 75.3337 142.379C75.236 142.761 75.064 143.12 74.8275 143.435C74.591 143.751 74.2947 144.016 73.9555 144.217C73.6163 144.418 73.2409 144.55 72.8506 144.606C72.4604 144.661 72.063 144.639 71.6813 144.541C71.2995 144.443 70.9407 144.271 70.6256 144.034C65.8873 140.481 64.1236 130.649 65.232 113.976C65.9547 103.115 68.0074 90.3326 69.4566 87.6744C74.4322 78.5443 74.9234 68.2521 70.8043 59.4371C68.9984 55.4479 66.271 51.9446 62.8466 49.2155C59.4221 46.4864 55.3986 44.6096 51.107 43.7394C47.4712 43.0124 44.5992 43.663 42.3267 45.7289C38.438 49.2645 36.4986 57.129 37.3863 65.7643C38.4654 76.2609 42.8375 83.9039 46.9722 89.9962C48.7603 92.6315 48.0171 97.5052 45.2545 111.897C42.6138 125.651 38.9966 144.489 41.3589 155.644C43.7847 167.098 49.7418 171.119 54.3121 172.475C60.5787 174.334 66.482 172.092 68.6705 169.905C69.2331 169.342 69.9961 169.026 70.7917 169.026C71.5873 169.026 72.3503 169.342 72.9129 169.905C73.4754 170.467 73.7915 171.231 73.7914 172.026C73.7914 172.822 73.4753 173.585 72.9127 174.147C70.0738 176.986 64.897 179.165 59.0992 179.166Z" fill="black"/>
<path d="M84.137 102.818C63.6807 109.297 32.2338 82.3878 24.7148 92.1558L22.6855 99.8297C23.1949 118.878 28.7002 160.954 44.2145 175.695C59.7289 190.436 80.6088 192.679 94.2159 168.997L84.137 102.818Z" fill="#82BE28"/>
<path d="M62.778 187.827C62.7018 187.827 62.6257 187.824 62.5485 187.818C50.1657 186.881 39.3044 178.033 31.9655 162.904C25.5446 149.665 19.6872 125.471 20.9138 104.847C20.9627 104.054 21.3243 103.312 21.9191 102.786C22.514 102.259 23.2935 101.989 24.0867 102.037C24.8799 102.084 25.622 102.444 26.1502 103.037C26.6783 103.631 26.9494 104.41 26.904 105.203C25.7497 124.592 31.4313 148.054 37.364 160.286C43.7312 173.413 52.8367 181.066 63.0017 181.835C63.7752 181.894 64.4959 182.25 65.0126 182.828C65.5293 183.407 65.8017 184.163 65.7728 184.938C65.7439 185.714 65.4158 186.447 64.8574 186.986C64.299 187.524 63.5538 187.826 62.7781 187.827H62.778Z" fill="black"/>
<path d="M74.3652 104.991C65.0878 104.991 55.6025 100.948 47.5117 97.5003C36.5243 92.8179 29.6425 90.1822 26.7021 94.7166C26.269 95.3841 25.5885 95.8521 24.8104 96.0179C24.0322 96.1836 23.2201 96.0334 22.5526 95.6004C21.8852 95.1673 21.4171 94.4869 21.2514 93.7087C21.0856 92.9306 21.2358 92.1184 21.6689 91.451C27.5058 82.4524 38.3671 87.0811 49.8642 91.9805C60.7616 96.6241 73.1122 101.887 83.1728 97.1238C83.5292 96.9527 83.9159 96.8538 84.3106 96.8326C84.7054 96.8115 85.1004 96.8686 85.4731 97.0006C85.8457 97.1326 86.1885 97.337 86.4819 97.602C86.7753 97.867 87.0134 98.1873 87.1826 98.5446C87.3517 98.9019 87.4486 99.2891 87.4676 99.684C87.4866 100.079 87.4274 100.474 87.2934 100.846C87.1594 101.217 86.9531 101.559 86.6866 101.851C86.42 102.143 86.0984 102.379 85.7402 102.547C82.1793 104.203 78.292 105.038 74.3652 104.991Z" fill="black"/>
<path d="M125.476 297.856C102.401 295.758 84.0347 287.403 75.0293 283.353C69.4763 280.856 61.4763 275.856 61.954 270.092C62.3594 265.201 63.1105 252.016 71.2377 230.586C90.4763 179.856 92.7993 150.403 96.4763 119.856C97.8292 108.617 101.246 80.5754 115.213 61.9531C118.782 57.1291 122.897 52.7341 127.476 48.8559C139.167 56.2729 163.476 56.8559 182.635 46.4219C194.476 46.8559 199.785 60.2281 215.476 125.856C229.513 184.566 234.841 193.699 242.476 235.856C243.996 244.248 253.476 276.856 243.476 283.856C238.699 287.2 225.476 270.856 189.476 282.856C172.374 288.557 158.476 300.856 125.476 297.856Z" fill="#82BE28"/>
<path d="M131.897 300.398C119.29 300.366 106.793 298.056 95.0074 293.581C94.6375 293.444 94.2981 293.236 94.0087 292.968C93.7193 292.7 93.4856 292.378 93.3209 292.02C93.1563 291.661 93.0639 291.274 93.049 290.88C93.0341 290.486 93.0971 290.093 93.2344 289.723C93.3716 289.353 93.5804 289.014 93.8488 288.725C94.1172 288.436 94.4399 288.203 94.7985 288.039C95.1571 287.875 95.5445 287.783 95.9386 287.769C96.3327 287.755 96.7258 287.818 97.0953 287.956C130.871 300.492 157.588 292.001 181.165 284.51C192.716 280.839 203.628 277.371 214.251 276.742C222.28 276.268 230.715 278.682 235.035 280.163C236.621 280.707 240.537 281.744 242.654 279.641C244.128 278.177 246.899 272.814 240.817 254.663C240.564 253.909 240.621 253.085 240.976 252.373C241.331 251.66 241.954 251.118 242.709 250.865C243.463 250.613 244.287 250.67 244.999 251.025C245.711 251.379 246.254 252.003 246.506 252.757C251.838 268.668 251.961 278.854 246.882 283.898C243.709 287.049 238.679 287.756 233.088 285.839C226.448 283.561 219.712 282.429 214.606 282.731C204.731 283.317 194.167 286.674 182.982 290.228C167.623 295.109 150.978 300.398 131.897 300.398Z" fill="black"/>
<path d="M79.4751 287.856C79.0936 287.856 78.7157 287.783 78.3618 287.641C61.3481 280.836 58.601 272.376 58.477 267.939C58.3003 261.539 63.5366 246.577 69.8794 229.132C70.4526 227.557 71.0024 226.044 71.517 224.617C85.0376 183.991 86.2055 161.047 86.2153 160.82C86.2543 160.028 86.6052 159.284 87.1913 158.75C87.7774 158.216 88.551 157.936 89.3431 157.971C90.1352 158.005 90.8814 158.352 91.4185 158.936C91.9556 159.519 92.24 160.291 92.2094 161.083C92.1684 162.04 91.0317 184.981 77.186 226.583C76.645 228.084 76.0932 229.603 75.518 231.183C71.0571 243.452 64.3149 261.994 64.475 267.773C64.5268 269.635 65.8422 276.171 80.5902 282.07C81.2375 282.329 81.7744 282.806 82.1086 283.418C82.4428 284.03 82.5534 284.739 82.4214 285.424C82.2894 286.108 81.9231 286.726 81.3855 287.17C80.8478 287.614 80.1723 287.856 79.475 287.856H79.4751Z" fill="black"/>
<path d="M150.422 59.0136C149.959 59.0136 149.496 59.0071 149.034 58.9941C139.807 58.7328 131.458 55.7443 126.128 50.7946C125.546 50.253 125.203 49.5026 125.174 48.7082C125.145 47.9138 125.432 47.1404 125.973 46.5579C126.514 45.9753 127.264 45.6312 128.058 45.6012C128.853 45.5711 129.626 45.8576 130.21 46.3976C138.69 54.2716 157.797 56.5836 176.508 45.3585C176.845 45.1548 177.22 45.0198 177.61 44.9611C178 44.9024 178.398 44.9213 178.781 45.0166C179.164 45.1119 179.524 45.2818 179.841 45.5165C180.158 45.7512 180.426 46.0462 180.629 46.3845C180.832 46.7228 180.966 47.0979 181.024 47.4881C181.082 47.8784 181.062 48.2762 180.966 48.6588C180.87 49.0414 180.699 49.4013 180.463 49.7179C180.228 50.0344 179.932 50.3014 179.594 50.5035C170.82 55.9301 160.737 58.8715 150.422 59.0136Z" fill="black"/>
<path d="M198.271 136.335C209.076 164.464 219.291 196.417 221.498 206.203C225.422 223.606 227.495 229.905 223.287 245.265L221.057 259.283C220.796 260.856 220.95 262.47 221.505 263.965C222.059 265.46 222.995 266.785 224.218 267.807C225.442 268.829 226.912 269.515 228.482 269.794C230.052 270.074 231.667 269.939 233.169 269.402C240.069 266.988 239.367 261.843 243.724 258.814C247.859 255.94 257.44 260.153 262.969 267.793C268.497 275.433 279.612 276.14 284.394 275.836C291.192 275.402 297.333 270.577 296.55 263.4C295.766 256.222 286.928 253.153 283.453 251.731C279.558 250.138 267.07 244.264 260.155 235.323C253.554 226.789 241.448 180.219 235.338 156.685C218.803 97.3995 211.979 87.9442 208.084 79.1807L198.271 136.335Z" fill="white"/>
<path d="M282.611 278.887C277.694 278.888 266.579 277.9 260.537 269.551C255.406 262.461 247.455 259.872 245.436 261.277C244.259 262.214 243.307 263.404 242.65 264.758C241.153 267.289 239.289 270.439 234.16 272.234C232.201 272.945 230.09 273.135 228.035 272.784C225.981 272.433 224.052 271.554 222.44 270.233C220.802 268.866 219.542 267.101 218.78 265.108C218.018 263.115 217.78 260.959 218.088 258.848C218.204 258.061 218.627 257.353 219.265 256.878C219.903 256.404 220.704 256.202 221.49 256.317C222.277 256.432 222.986 256.855 223.461 257.493C223.937 258.13 224.139 258.93 224.025 259.717C223.855 260.808 223.971 261.924 224.363 262.957C224.754 263.989 225.408 264.901 226.259 265.605C227.069 266.28 228.045 266.726 229.086 266.896C230.127 267.066 231.195 266.953 232.177 266.571C235.24 265.499 236.182 263.906 237.486 261.702C238.565 259.596 240.113 257.765 242.01 256.351C247.156 252.774 258.249 256.155 265.398 266.034C270.782 273.473 282.843 272.928 284.204 272.842C285.662 272.783 287.094 272.437 288.418 271.823C289.741 271.209 290.931 270.34 291.918 269.265C292.566 268.509 293.047 267.625 293.331 266.67C293.615 265.716 293.696 264.712 293.567 263.725C293.028 258.794 286.545 256.201 283.061 254.808L282.316 254.508C279.6 253.397 265.656 247.339 257.781 237.158C251.634 229.209 241.966 194.146 232.433 157.439C218.471 107.382 211.52 93.1604 207.366 84.6635C206.606 83.1089 205.95 81.7661 205.343 80.3987C205.019 79.6716 204.998 78.8461 205.284 78.1035C205.57 77.361 206.138 76.7623 206.865 76.4392C207.592 76.1161 208.418 76.095 209.161 76.3806C209.903 76.6662 210.502 77.2351 210.825 77.9621C211.388 79.2295 212.022 80.5266 212.757 82.0285C217.001 90.7102 224.103 105.24 238.226 155.879C243.64 176.723 256.285 225.416 262.527 233.487C269.611 242.647 283.076 248.336 284.588 248.955L285.289 249.237C289.61 250.965 298.601 254.561 299.532 263.073C299.751 264.867 299.595 266.687 299.075 268.417C298.555 270.148 297.681 271.751 296.509 273.127C295.006 274.829 293.176 276.21 291.127 277.19C289.079 278.17 286.854 278.727 284.586 278.829C284.167 278.856 283.487 278.887 282.611 278.887Z" fill="black"/>
<path d="M223.289 248.266C222.828 248.266 222.372 248.159 221.958 247.955C221.545 247.75 221.184 247.452 220.904 247.085C220.623 246.718 220.432 246.292 220.343 245.839C220.255 245.385 220.272 244.918 220.394 244.473C224.083 231.005 222.722 225.046 219.433 210.651C219.157 209.447 218.869 208.187 218.571 206.863C216.499 197.674 206.471 166.05 195.471 137.411C195.186 136.668 195.207 135.842 195.531 135.115C195.854 134.388 196.453 133.82 197.196 133.534C197.939 133.249 198.765 133.271 199.492 133.594C200.219 133.918 200.787 134.517 201.073 135.26C212.167 164.147 222.314 196.181 224.424 205.544C224.721 206.861 225.008 208.115 225.281 209.314C228.705 224.298 230.269 231.137 226.181 246.058C226.007 246.692 225.63 247.251 225.108 247.65C224.585 248.049 223.947 248.265 223.289 248.266Z" fill="black"/>
<path d="M273.32 227.015C274.793 225.69 278.049 221.528 276.59 220.188C256.482 201.732 224.346 90.2549 216.476 76.8555C200.071 48.9221 190.311 49.271 181.311 50.271C162.373 52.3752 176.792 93.9683 182.476 113.856C185.525 124.524 206.476 174.268 206.476 220.856C206.476 244.856 207.476 257.856 215.476 252.856C235.476 231.856 252.898 245.401 273.32 227.015Z" fill="#82BE28"/>
<path d="M215.667 255.938C215.133 255.938 214.61 255.795 214.15 255.524C213.69 255.254 213.31 254.866 213.05 254.4C212.79 253.934 212.659 253.407 212.671 252.874C212.682 252.341 212.835 251.82 213.115 251.366C219.524 240.951 231.591 238.729 243.26 236.581C252.932 234.8 262.934 232.959 270.412 226.679C274.698 223.079 273.139 218.976 271.078 216.167C260.691 202.024 248.365 167.863 236.444 134.828C227.308 109.51 218.679 85.5963 211.855 73.3124C207.052 64.6686 201.409 59.1732 192.982 54.9372C192.63 54.7605 192.315 54.5161 192.057 54.2179C191.799 53.9197 191.603 53.5735 191.479 53.1992C191.355 52.825 191.305 52.4299 191.334 52.0367C191.363 51.6434 191.469 51.2597 191.646 50.9074C191.823 50.5551 192.068 50.2412 192.366 49.9836C192.665 49.726 193.011 49.5298 193.386 49.4061C193.76 49.2825 194.155 49.2339 194.548 49.2631C194.942 49.2923 195.325 49.3988 195.677 49.5763C205.133 54.3305 211.741 60.7521 217.099 70.3983C224.159 83.1049 232.868 107.24 242.088 132.791C253.864 165.426 266.041 199.171 275.914 212.616C280.755 219.208 280.125 226.358 274.271 231.274C265.579 238.573 254.785 240.56 244.347 242.482C233.018 244.567 223.235 246.369 218.224 254.51C217.956 254.947 217.58 255.308 217.132 255.558C216.684 255.808 216.18 255.939 215.667 255.938Z" fill="black"/>
<path d="M208.475 244.857C207.823 244.856 207.189 244.643 206.669 244.25C206.149 243.858 205.771 243.307 205.592 242.68C195.622 207.786 192.515 166.488 192.484 166.075C192.427 165.282 192.687 164.498 193.207 163.897C193.727 163.295 194.465 162.924 195.258 162.866C196.051 162.808 196.835 163.068 197.437 163.587C198.039 164.107 198.41 164.844 198.469 165.637C198.498 166.044 201.564 206.744 211.361 241.032C211.489 241.478 211.51 241.948 211.425 242.405C211.34 242.861 211.15 243.292 210.87 243.663C210.59 244.033 210.228 244.334 209.813 244.541C209.397 244.748 208.939 244.856 208.475 244.857V244.857Z" fill="black"/>
<path d="M95.2161 130.954C94.7834 130.954 94.3557 130.86 93.9625 130.68C93.5693 130.499 93.2197 130.235 92.9378 129.907C92.6559 129.579 92.4482 129.194 92.329 128.778C92.2098 128.362 92.182 127.925 92.2473 127.497C95.0599 110.426 99.8292 93.7362 106.461 77.7568C106.778 77.0272 107.372 76.4535 108.113 76.1619C108.853 75.8703 109.679 75.8847 110.408 76.2019C111.138 76.5191 111.712 77.1131 112.003 77.8534C112.295 78.5936 112.28 79.4193 111.963 80.1489C111.866 80.3755 102.068 103.12 98.177 128.409C98.0683 129.117 97.71 129.762 97.167 130.229C96.624 130.695 95.932 130.953 95.2161 130.954Z" fill="black"/>
</svg>
