<svg width="300" height="258" viewBox="0 0 300 258" fill="none" xmlns="http://www.w3.org/2000/svg">
<path d="M126.278 3.75313C126.278 3.75313 133.273 1.12733 149.273 0.127332C165.273 -0.872668 184.757 4.19321 190.015 9.16027C195.273 14.1273 148.273 24.1273 136.273 19.1273C124.273 14.1273 126.278 3.75313 126.278 3.75313Z" fill="white"/>
<path d="M125.457 254.881C102.381 252.783 84.0152 244.428 75.0098 240.378C69.4568 237.881 61.4568 232.881 61.9345 227.117C62.3399 222.227 63.091 209.041 71.2182 187.611C90.4568 136.881 92.7797 107.428 96.4568 76.8813C97.8097 65.6419 98.2214 33.5556 112.188 14.9333C115.876 10.0109 121.368 6.75483 127.457 5.88127C139.147 13.2983 163.457 13.8813 182.615 3.44727C194.457 3.88127 199.766 17.2535 215.457 82.8813C229.494 141.591 234.822 150.725 242.457 192.881C243.977 201.273 253.457 233.881 243.457 240.881C238.68 244.225 225.457 227.881 189.457 239.881C172.354 245.582 158.457 257.881 125.457 254.881Z" fill="#82BE28"/>
<path d="M131.876 257.423C119.27 257.391 106.772 255.082 94.9868 250.606C94.242 250.329 93.638 249.767 93.3072 249.044C92.9765 248.321 92.9461 247.497 93.2227 246.752C93.4992 246.006 94.0602 245.401 94.7824 245.07C95.5047 244.738 96.3291 244.706 97.0746 244.981C130.851 257.517 157.57 249.027 181.143 241.535C192.695 237.864 203.606 234.397 214.229 233.767C222.25 233.292 230.694 235.707 235.013 237.188C237.881 238.172 241.733 238.444 243.937 236.257C245.924 234.284 248.419 228.467 242.796 211.689C242.544 210.934 242.601 210.11 242.956 209.398C243.31 208.686 243.933 208.144 244.688 207.891C245.442 207.638 246.266 207.695 246.979 208.05C247.691 208.405 248.233 209.028 248.486 209.782C253.56 224.925 253.452 235.265 248.164 240.515C244.636 244.018 238.995 244.896 233.067 242.864C226.426 240.587 219.692 239.452 214.584 239.757C204.709 240.342 194.145 243.699 182.96 247.253C167.602 252.134 150.956 257.423 131.876 257.423Z" fill="black"/>
<path d="M79.4556 244.882C79.0741 244.882 78.6962 244.809 78.3423 244.666C61.3286 237.861 58.5815 229.402 58.4575 224.964C58.2798 218.565 63.5151 203.607 69.8569 186.165C70.4312 184.588 70.9819 183.071 71.4976 181.643C76.314 168.296 92.2026 120.832 94.479 70.4525C94.5149 69.6577 94.8652 68.9096 95.4526 68.373C96.0401 67.8363 96.8167 67.555 97.6116 67.591C98.4064 67.6269 99.1545 67.9771 99.6911 68.5646C100.228 69.1521 100.509 69.9287 100.473 70.7235C98.1587 121.946 82.0298 170.131 77.1421 183.679C76.6246 185.112 76.0718 186.633 75.4957 188.216C71.0357 200.483 64.2945 219.02 64.4557 224.798C64.5074 226.66 65.8228 233.196 80.5709 239.096C81.2182 239.355 81.7551 239.831 82.0893 240.443C82.4234 241.055 82.534 241.764 82.4021 242.449C82.2701 243.134 81.9038 243.751 81.3661 244.195C80.8284 244.639 80.1529 244.882 79.4557 244.882H79.4556Z" fill="black"/>
<path d="M241.943 193.289C241.279 193.289 240.633 193.067 240.108 192.66C239.583 192.253 239.207 191.683 239.041 191.04L227.553 146.632C227.353 145.862 227.468 145.044 227.872 144.359C228.276 143.673 228.935 143.176 229.706 142.977C230.476 142.777 231.294 142.892 231.979 143.296C232.665 143.7 233.162 144.359 233.361 145.129L244.85 189.537C244.964 189.981 244.975 190.444 244.883 190.893C244.79 191.342 244.596 191.763 244.316 192.125C244.035 192.487 243.676 192.78 243.264 192.982C242.853 193.184 242.401 193.289 241.943 193.289H241.943Z" fill="black"/>
<path d="M133.75 124.671C140.097 121.332 147.457 125.881 147.457 125.881C147.457 125.881 184.197 149.673 187.868 150.451C195.214 152.007 215.423 153.85 222.457 150.881C229.371 147.962 238.634 134.73 242.457 131.881C258.26 93.8729 237.638 63.1534 230.457 51.8809C223.553 41.1534 224.75 10.6709 182.457 3.88086C121.457 30.8809 130.75 -8.32914 100.75 12.6709C91.4209 22.9659 77.1968 50.3909 74.7495 54.6709C65.8067 70.3111 44.7578 86.1896 61.7495 111.671C65.7998 117.744 83.5547 127.671 94.7495 127.671C94.6924 128.332 130.419 126.423 133.75 124.671Z" fill="#82BE28"/>
<path d="M150.404 16.0394C149.94 16.0394 149.477 16.0328 149.016 16.0198C139.788 15.7586 131.44 12.7701 126.11 7.82012C125.82 7.55244 125.585 7.23016 125.42 6.87174C125.255 6.51333 125.162 6.12583 125.147 5.73145C125.132 5.33707 125.194 4.94356 125.331 4.57348C125.469 4.20339 125.677 3.86401 125.946 3.57478C126.214 3.28555 126.537 3.05216 126.896 2.88798C127.255 2.7238 127.643 2.63206 128.037 2.61802C128.432 2.60398 128.825 2.66791 129.195 2.80616C129.565 2.9444 129.903 3.15424 130.192 3.42364C138.672 11.2981 157.78 13.6099 176.488 2.38433C177.17 1.97634 177.986 1.85575 178.757 2.04905C179.528 2.24235 180.191 2.73373 180.6 3.4153C181.009 4.09687 181.131 4.91292 180.939 5.68426C180.747 6.45561 180.256 7.1192 179.576 7.52933C170.802 12.9559 160.719 15.8973 150.404 16.0394Z" fill="black"/>
<path d="M165.645 75.9232C165.645 75.9232 191.515 65.3771 208.223 70.2278C222.884 74.4841 225.69 91.8158 213.025 94.2371C209.194 94.7816 205.324 94.9971 201.456 94.8812C201.456 94.8812 185.279 85.6155 182.749 82.6712C177.928 77.0614 165.645 75.9232 165.645 75.9232Z" fill="white"/>
<path d="M212.771 96.6052C210.371 96.5674 207.987 96.2122 205.681 95.549C205.3 95.4458 204.944 95.2687 204.633 95.0278C204.321 94.7869 204.06 94.487 203.864 94.1451C203.668 93.8033 203.541 93.4262 203.491 93.0354C203.441 92.6446 203.468 92.2478 203.572 91.8676C203.675 91.4874 203.852 91.1312 204.093 90.8195C204.334 90.5077 204.634 90.2465 204.975 90.0506C205.317 89.8547 205.694 89.7281 206.085 89.678C206.476 89.6279 206.873 89.6552 207.253 89.7585C212.087 91.071 215.76 90.8444 217.33 89.1396C218.577 87.7878 218.703 85.267 217.669 82.3971C215.996 77.7573 211.143 72.3525 204.438 71.4501C195.088 70.1909 177.975 74.9946 177.803 75.0429C177.424 75.1504 177.027 75.1822 176.636 75.1364C176.245 75.0906 175.866 74.9683 175.522 74.7762C174.827 74.3884 174.315 73.7405 174.098 72.9751C173.881 72.2096 173.977 71.3892 174.365 70.6945C174.753 69.9997 175.401 69.4875 176.166 69.2705C176.916 69.0578 194.65 64.0795 205.239 65.5039C214.472 66.7465 220.97 73.8617 223.313 80.362C225.148 85.4518 224.575 90.1337 221.741 93.207C220.162 94.9191 217.425 96.6052 212.771 96.6052Z" fill="black"/>
<path d="M210.516 151.295C197.424 151.295 179.315 147.391 160.236 136.262C157.235 134.511 153.29 131.804 148.722 128.67C136.736 120.446 120.319 109.183 105.584 104.54C103.739 103.957 102.053 102.959 100.656 101.621C99.2583 100.283 98.1873 98.6418 97.5255 96.824C95.7169 91.9544 96.7443 86.0012 100.42 80.0611C106.466 70.2864 117.226 64.8208 130.715 64.6709C144.268 64.5147 162.083 69.9287 183.775 80.7444C186.634 82.1702 189.318 83.4563 191.913 84.7002C197.354 87.3071 202.051 89.5584 206.289 92.0969C206.97 92.5068 207.459 93.1696 207.652 93.9402C207.844 94.7107 207.723 95.5261 207.315 96.2075C206.907 96.8888 206.245 97.3806 205.475 97.575C204.705 97.7694 203.89 97.6505 203.207 97.2444C199.207 94.8489 194.625 92.6533 189.321 90.1111C186.704 88.8572 183.998 87.5606 181.097 86.114C160.538 75.863 143.78 70.6677 131.277 70.6677C131.111 70.6677 130.946 70.6687 130.781 70.6704C119.42 70.7966 110.449 75.2527 105.523 83.2178C102.843 87.5488 102 91.6387 103.151 94.7344C103.496 95.6942 104.058 96.5616 104.793 97.2695C105.527 97.9774 106.415 98.5069 107.387 98.8169C122.976 103.729 139.818 115.285 152.116 123.722C156.587 126.79 160.448 129.439 163.26 131.079C192.191 147.956 214.148 145.396 218.255 144.711C228.967 142.926 241.898 134.473 245.886 121.772C251.686 103.302 242.083 82.7864 233.61 64.6861C232.365 62.0274 231.15 59.428 230.013 56.9019C228.83 54.2752 227.693 51.5791 226.49 48.7249C218.898 30.7169 210.291 10.3062 189.252 8.8738C188.459 8.81837 187.721 8.4506 187.199 7.85121C186.677 7.25183 186.414 6.46983 186.468 5.67688C186.522 4.88394 186.889 4.14485 187.487 3.62187C188.086 3.09889 188.867 2.83476 189.66 2.88747C214.385 4.57082 224.162 27.7605 232.019 46.3938C233.208 49.2141 234.331 51.8782 235.483 54.4395C236.608 56.9395 237.813 59.5115 239.044 62.1424C247.981 81.2337 258.109 102.872 251.61 123.569C246.678 139.277 231.374 148.608 219.241 150.63C216.356 151.09 213.438 151.312 210.516 151.295Z" fill="black"/>
<path d="M94.8564 128.011C88.131 128.11 81.4241 127.283 74.9237 125.555C63.7861 122.373 56.6698 116.499 53.7753 108.097C47.6943 90.4517 62.622 67.119 69.3222 57.9065C74.2089 51.1861 77.6572 44.17 80.9911 37.3851C88.3105 22.4898 95.2245 8.42045 115.202 4.72098C115.589 4.6493 115.987 4.65461 116.373 4.73663C116.758 4.81865 117.123 4.97576 117.448 5.199C117.773 5.42223 118.05 5.70722 118.264 6.03769C118.479 6.36817 118.626 6.73765 118.698 7.12504C118.77 7.51243 118.764 7.91015 118.682 8.29549C118.6 8.68083 118.443 9.04624 118.22 9.37086C117.997 9.69548 117.712 9.97295 117.381 10.1874C117.051 10.4019 116.681 10.5492 116.294 10.6209C99.2802 13.7715 93.5859 25.3599 86.3759 40.031C82.9296 47.0445 79.3661 54.2967 74.1737 61.4353C55.203 87.5203 58.1064 102.249 59.4472 106.142C61.6669 112.584 67.4286 117.174 76.5722 119.786C89.8388 123.576 106.538 121.842 118.211 119.719C118.994 119.577 119.801 119.751 120.455 120.204C121.11 120.657 121.557 121.351 121.7 122.134C121.842 122.917 121.668 123.724 121.215 124.378C120.762 125.032 120.068 125.48 119.285 125.623C111.228 127.135 103.054 127.934 94.8564 128.011Z" fill="black"/>
</svg>
