<svg width="300" height="305" viewBox="0 0 300 305" fill="none" xmlns="http://www.w3.org/2000/svg">
<path d="M52.7013 93.8459C51.1732 112.036 40.7175 144.529 59.7243 159.149C73.8485 170.014 91.3181 165.976 97.9834 153.225C113.28 123.962 137.871 60.5519 115.058 66.4805C88.4551 73.3941 94.6718 139.391 80.7051 125.827C78.7098 118.511 77.1855 107.907 78.8077 94.2194C79.0072 80.2771 52.9008 79.9035 52.7014 93.8459L52.7013 93.8459Z" fill="white"/>
<path d="M70.7713 2.9895L41.461 0.0385915C36.9889 -0.411648 34.0084 3.13041 34.8378 7.90984L45.7309 70.6891C46.5603 75.4685 50.8978 79.7473 55.3699 80.1976L84.6802 83.1485C89.1523 83.5987 92.1328 80.0566 91.3035 75.2772L80.4103 12.498C79.581 7.71856 75.2435 3.43974 70.7713 2.9895Z" fill="black"/>
<path d="M55.7602 18.1868L46.6846 17.2731C44.7232 17.0756 42.8207 15.1989 42.457 13.1027L42.2151 11.7085C41.8513 9.61226 43.1586 8.05871 45.1201 8.25618L54.1956 9.16989C56.1571 9.36737 58.0595 11.2441 58.4233 13.3403L58.6652 14.7345C59.0289 16.8308 57.7217 18.3843 55.7602 18.1868Z" fill="#82BE28"/>
<path d="M78.8079 94.2189C79.0233 92.4011 79.3103 90.6804 79.6622 89.11C92.1879 64.6344 71.9029 38.3591 53.5023 39.9113C42.7433 40.8185 41.5309 57.6466 41.9742 66.071C42.4176 74.4953 44.7454 82.0373 52.7264 93.5651C52.7196 93.6562 52.7093 93.7529 52.7015 93.8454C61.0909 95.3278 70.1687 95.5265 78.8079 94.2189Z" fill="white"/>
<path d="M77.1259 166.755C64.6748 166.755 52.8486 163.633 48.7158 144.117C46.1982 132.226 47.7441 117.778 48.873 107.228C49.4677 101.674 50.208 94.7621 49.5312 93.2853C45.291 87.047 40.2119 78.269 38.9902 66.3781C37.8808 55.5903 40.4501 46.2116 45.8623 41.2904C49.5371 37.9486 54.375 36.7597 59.8544 37.8566C70.2558 39.9367 79.2119 47.0548 83.8115 56.8971C88.747 67.4586 88.1953 79.7233 82.2959 90.5465C80.9697 93.4069 78.5546 114.081 82.4902 122.791C83.2119 124.389 84.0439 125.337 84.9648 125.609C86.5537 126.078 87.4609 127.747 86.9912 129.336C86.5224 130.924 84.8564 131.833 83.2636 131.362C80.4453 130.529 78.2656 128.291 76.7832 124.71C72.3476 113.987 75.0459 91.3119 77.0273 87.6754C82.0039 78.5446 82.4951 68.2526 78.3759 59.4376C74.5234 51.1947 67.3437 45.4733 58.6787 43.7399C55.04 43.0128 52.1709 43.663 49.8984 45.7296C46.0097 49.2655 44.0712 57.1298 44.9589 65.7646C46.0371 76.2609 50.4091 83.9042 54.5439 89.9967C56.3701 92.6879 55.9277 97.696 54.8388 107.866C53.7529 118.016 52.2656 131.916 54.5849 142.874C57.8144 158.117 65.7959 160.969 78.4755 160.743L78.5302 160.742C80.1621 160.742 81.5 162.05 81.5292 163.689C81.5585 165.345 80.2392 166.712 78.583 166.742C78.0966 166.75 77.6103 166.755 77.1259 166.755L77.1259 166.755Z" fill="black"/>
<path d="M123.617 55.8164C128.617 69.8164 135.646 79.7032 147.617 78.8164C159.589 77.9296 173.007 55.3012 174.963 56.502C179.913 57.3788 190.107 54.9005 194.028 57.8321C205.613 66.4921 212.161 65.8155 214.822 76.4568C217.482 87.0981 198.638 106.496 194.204 108.713C189.77 110.93 203.515 156.378 203.515 156.378C203.515 156.378 214.875 185.315 224.355 194.066C237.324 206.037 227.015 226.433 212.383 227.763C203.515 233.749 195.076 233.667 189.262 228.647C160.507 203.82 160.95 235.744 137.894 232.197C126.466 230.439 118.828 218.895 118.828 218.895C118.828 218.895 109.074 211.801 99.3192 216.235C92.1534 219.492 83.8006 226.433 76.263 219.782C68.7254 213.131 64.7349 200.384 74.046 191.405C90.8948 172.339 95.3287 156.821 95.3287 156.821C95.3287 156.821 104.086 136.979 102.09 126.338C100.095 115.697 97.9814 84.2081 100.428 75.4592C102.874 66.7102 114.617 57.8164 123.617 55.8164L123.617 55.8164Z" fill="white"/>
<path d="M178.879 110.64C189.683 138.769 211.168 198.672 213.375 208.459C217.299 225.861 219.372 232.16 215.164 247.521L212.934 261.538C211.955 268.227 218.146 274.072 225.046 271.658C231.946 269.244 231.244 264.099 235.601 261.07C239.736 258.195 249.316 262.408 254.845 270.048C260.374 277.689 271.489 278.396 276.271 278.091C283.069 277.657 289.21 272.833 288.426 265.655C287.643 258.477 278.804 255.408 275.33 253.987C271.435 252.394 258.947 246.519 252.031 237.578C245.431 229.045 218.119 118.621 204.485 91.3525L178.879 110.64V110.64Z" fill="white"/>
<path d="M243.296 219.419C242.031 219.419 240.855 218.611 240.444 217.342C234.577 199.235 228.151 174.483 224.311 159.694C210.349 109.636 203.398 95.4152 199.244 86.9186C198.484 85.3639 197.828 84.0211 197.22 82.6539C196.547 81.14 197.229 79.3671 198.743 78.6942C200.261 78.0201 202.03 78.7042 202.703 80.2174C203.266 81.4845 203.9 82.7816 204.634 84.2833C208.878 92.9647 215.981 107.495 230.104 158.134C233.941 172.911 240.339 197.555 246.151 215.493C246.662 217.069 245.798 218.761 244.222 219.272C243.915 219.371 243.603 219.419 243.296 219.419H243.296Z" fill="black"/>
<path d="M274.489 281.143C269.573 281.143 258.458 280.156 252.416 271.807C247.286 264.719 239.338 262.125 237.315 263.533C236.081 264.391 235.395 265.549 234.528 267.014C233.031 269.545 231.167 272.695 226.038 274.49C221.949 275.919 217.57 275.171 214.319 272.489C211.006 269.756 209.339 265.393 209.966 261.104C210.208 259.464 211.735 258.329 213.37 258.57C215.009 258.81 216.143 260.333 215.904 261.973C215.573 264.233 216.408 266.434 218.137 267.861C219.102 268.657 221.158 269.84 224.055 268.826C227.118 267.755 228.06 266.162 229.365 263.958C230.404 262.202 231.583 260.211 233.89 258.607C239.033 255.032 250.129 258.411 257.277 268.29C262.662 275.729 274.725 275.184 276.082 275.097C279.195 274.899 282.079 273.562 283.796 271.521C285.12 269.947 285.674 268.082 285.445 265.981C284.907 261.05 278.424 258.457 274.941 257.064L274.195 256.764C271.479 255.653 257.535 249.595 249.66 239.414C248.646 238.103 248.887 236.219 250.198 235.205C251.507 234.192 253.392 234.432 254.406 235.743C261.49 244.903 274.955 250.592 276.466 251.21L277.17 251.493C281.49 253.221 290.481 256.817 291.41 265.33C291.818 269.07 290.773 272.546 288.387 275.383C285.596 278.701 281.251 280.78 276.464 281.085C276.045 281.112 275.365 281.143 274.489 281.143Z" fill="black"/>
<path d="M215.166 250.521C214.903 250.521 214.637 250.487 214.371 250.414C212.773 249.976 211.833 248.326 212.27 246.728C215.96 233.26 214.599 227.302 211.31 212.908C211.035 211.703 210.747 210.443 210.448 209.118C208.314 199.655 192.821 153.555 181.731 124.685C181.138 123.138 181.91 121.403 183.456 120.808C185.005 120.215 186.738 120.987 187.333 122.533C197.694 149.509 213.938 197.321 216.302 207.799C216.599 209.117 216.886 210.372 217.159 211.572C220.583 226.554 222.144 233.393 218.058 248.313C217.692 249.646 216.484 250.521 215.166 250.521Z" fill="black"/>
<path d="M228.623 233.188C220.613 233.188 212.462 231.677 207.949 228.284C206.625 227.289 206.359 225.408 207.354 224.083C208.349 222.758 210.233 222.493 211.555 223.488C216.117 226.919 228.749 228.222 238.593 226.275C244.191 225.168 248.215 223.162 249.633 220.772C250.479 219.348 252.319 218.877 253.744 219.723C255.169 220.569 255.639 222.41 254.793 223.834C251.818 228.847 244.975 231.129 239.758 232.161C236.368 232.832 232.512 233.188 228.623 233.188V233.188Z" fill="black"/>
<path d="M214.156 78.7849C213.491 64.8182 205.612 66.4924 194.028 57.8324C190.106 54.9008 179.839 54.7288 174.962 59.606C170.085 64.4833 160.261 128.982 170.261 135.982C172.887 137.952 173.909 134.387 181.567 131.326C188.837 108.827 214.821 92.7517 214.156 78.785L214.156 78.7849Z" fill="white"/>
<path d="M181.57 134.327C181.337 134.327 181.1 134.3 180.863 134.243C179.253 133.854 178.263 132.233 178.651 130.623C181.644 118.228 189.825 109.647 197.044 102.077C201.713 97.1798 206.123 92.5546 208.839 87.3695C213.273 78.9054 211.639 75.694 209.456 73.6688C200.079 64.9696 191.218 56.745 184.078 57.1681C181.218 57.3344 178.547 58.9142 175.914 61.9977C174.838 63.2582 172.943 63.4056 171.685 62.3312C170.425 61.2553 170.275 59.3617 171.352 58.1017C175.05 53.7702 179.214 51.4408 183.73 51.1781C193.462 50.6183 202.746 59.2599 213.536 69.2699C221.315 76.485 215.925 86.7728 214.153 90.1537C211.047 96.0851 206.355 101.006 201.386 106.217C194.361 113.584 187.098 121.203 184.483 132.031C184.152 133.405 182.924 134.328 181.57 134.328L181.57 134.327Z" fill="black"/>
<path d="M144.292 81.8387C143.216 81.8387 142.102 81.7791 140.944 81.6539C132.11 80.699 127.387 71.8751 124.849 67.1343L124.546 66.5701C123.761 65.1114 124.307 63.2921 125.765 62.5064C127.228 61.7195 129.043 62.2672 129.83 63.7254L130.139 64.3028C132.295 68.3314 135.905 75.0743 141.588 75.6885C152.508 76.869 158.53 70.711 164.907 64.1912C167.075 61.9749 169.317 59.6832 171.746 57.7171C173.033 56.6749 174.922 56.8734 175.965 58.1614C177.007 59.449 176.809 61.3382 175.521 62.3807C173.363 64.1278 171.338 66.1968 169.196 68.387C162.996 74.7254 156.036 81.8387 144.292 81.8387L144.292 81.8387Z" fill="black"/>
<path d="M194.316 235.392C194.161 235.392 194.004 235.379 193.846 235.354C189.636 234.691 185.351 231.857 180.745 226.688C178.273 223.913 175.325 222.429 171.987 222.278C167.921 222.094 163.336 223.98 159.762 227.326C153.793 232.916 145.41 235.73 137.36 234.854C129.945 234.049 123.525 230.204 119.283 224.028C115.31 218.245 106.316 215.478 95.1729 222.335C87.8702 226.829 77.6309 224.6 71.3546 217.155C62.4962 206.646 67.0098 194.215 73.5665 186.764C89.5704 168.576 100.87 134.936 99.7667 122.615C98.0704 103.67 96.5723 81.2217 97.4571 75.0352C98.6749 66.51 107.124 61.2327 114.579 56.5764C116.701 55.2507 118.706 53.9988 120.44 52.7429C121.779 51.7698 123.657 52.0713 124.629 53.4121C125.601 54.7539 125.301 56.6296 123.959 57.6018C122.06 58.9783 119.97 60.2837 117.757 61.6653C111.102 65.8223 104.22 70.1209 103.397 75.884C102.738 80.4902 103.681 99.0552 105.743 122.08C106.932 135.363 95.585 170.825 78.0704 190.727C68.0499 202.116 73.9083 210.874 75.9425 213.287C80.3214 218.48 87.2335 220.175 92.0284 217.225C98.5841 213.192 105.244 211.584 111.29 212.574C116.67 213.456 121.265 216.317 124.229 220.631C128.377 226.67 134.012 228.455 138.008 228.889C144.349 229.577 150.951 227.356 155.661 222.946C160.462 218.452 166.511 216.024 172.259 216.284C177.202 216.508 181.686 218.725 185.225 222.697C188.769 226.674 192.072 229.001 194.779 229.428C196.416 229.686 197.534 231.221 197.276 232.858C197.043 234.336 195.768 235.392 194.317 235.392L194.316 235.392Z" fill="black"/>
</svg>
