<svg width="300" height="256" viewBox="0 0 300 256" fill="none" xmlns="http://www.w3.org/2000/svg">
<path d="M106.809 28.461C94.7291 29.5586 88.5045 71.7167 82.1084 93.1347C75.7122 114.553 57.5243 158.916 49.0809 165.631C40.2342 172.666 26.7059 175.396 22.5438 176.015C18.8304 176.568 9.51519 177.442 7.04386 184.226C4.57253 191.011 9.38723 197.16 15.8856 199.201C20.4574 200.636 31.4204 202.598 38.6107 196.495C45.8011 190.392 51.1472 188.018 54.4778 191.795C57.9876 195.775 56.08 200.604 62.206 204.593C68.332 208.582 74.7178 203.97 77.1044 200.817C79.491 197.665 81.76 191.839 82.7576 186.518C83.5916 182.07 82.9949 174.088 82.2598 168.143C80.8528 156.762 88.2901 139.21 100.935 110.007C100.935 110.007 118.889 27.3634 106.809 28.461H106.809Z" fill="white"/>
<path d="M67.535 209.276C65.1434 209.276 62.7802 208.546 60.5702 207.107C56.0165 204.142 54.9559 200.639 54.1044 197.823C53.6122 196.194 53.2225 194.906 52.2284 193.779C50.5878 191.917 46.6591 193.6 40.5526 198.783C31.2968 206.639 17.6327 202.893 14.9872 202.063C10.411 200.626 6.68445 197.571 4.7655 193.683C3.12488 190.36 2.93835 186.734 4.22644 183.2C7.1571 175.154 16.746 173.804 21.3534 173.155L22.1034 173.048C23.7186 172.807 38.1503 170.491 47.2147 163.283C54.4081 157.562 76.1639 108.08 84.9042 69.4662C90.9891 42.578 95.7587 24.619 106.184 20.1505C107.707 19.4982 109.471 20.2028 110.124 21.7259C110.776 23.2489 110.071 25.0126 108.548 25.6652C100.155 29.2626 95.161 51.3253 90.7557 70.7906C82.6415 106.64 60.6923 160.23 50.9491 167.979C40.8739 175.992 25.8876 178.551 22.9862 178.982L22.1903 179.096C18.4755 179.619 11.5614 180.593 9.86315 185.253C9.13952 187.24 9.23424 189.182 10.1454 191.027C11.326 193.418 13.8075 195.403 16.785 196.338C18.0848 196.746 29.6718 200.15 36.6698 194.208C40.4159 191.03 50.3651 182.589 56.7284 189.811C58.5868 191.918 59.2567 194.133 59.8475 196.086C60.5897 198.538 61.1249 200.309 63.8436 202.079C65.5848 203.213 67.3729 203.542 69.1571 203.052C71.5848 202.385 73.9227 200.184 75.411 197.163C80.9696 185.884 81.4618 174.257 80.8329 170.685C78.7899 159.078 85.952 142.562 97.8182 115.199L99.7089 110.837C100.368 109.317 102.135 108.617 103.654 109.276C105.175 109.934 105.873 111.7 105.215 113.221L103.323 117.586C92.2958 143.014 85.0116 159.812 86.7421 169.645C87.7167 175.182 86.5155 188.203 80.7938 199.815C78.5253 204.419 74.8622 207.708 70.745 208.838C69.6776 209.131 68.6034 209.276 67.535 209.276H67.535Z" fill="black"/>
<path d="M125.618 5.79364C132.291 23.5871 129.32 28.4739 141.291 27.5871C153.263 26.7004 173.321 4.14947 175.277 5.35025C180.227 6.22707 190.421 3.74879 194.343 6.68041C205.927 15.3404 212.476 14.6638 215.136 25.3051C217.797 35.9464 198.953 55.3446 194.519 57.5616C190.085 59.7785 203.83 105.226 203.83 105.226C203.83 105.226 215.189 134.163 224.669 142.914C237.638 154.885 227.329 175.281 212.698 176.611C203.83 182.597 195.391 182.516 189.576 177.496C160.821 152.668 161.265 184.592 138.208 181.045C126.781 179.287 119.143 167.743 119.143 167.743C119.143 167.743 109.388 160.649 99.6336 165.083C92.4679 168.34 84.115 175.281 76.5774 168.63C69.0398 161.979 65.0494 149.232 74.3605 140.253C91.2092 121.188 95.6431 105.669 95.6431 105.669C95.6431 105.669 102.072 88.8204 100.077 78.1791C98.0818 67.5378 98.2959 33.0564 100.742 24.3074C103.188 15.5585 114.681 3.62082 125.618 5.79364Z" fill="white"/>
<path d="M179.195 59.4876C190 87.6164 211.484 147.52 213.691 157.306C217.615 174.709 219.688 181.008 215.48 196.368L213.25 210.386C212.271 217.075 218.462 222.92 225.362 220.506C232.262 218.091 231.56 212.947 235.918 209.917C240.052 207.043 249.633 211.256 255.162 218.896C260.691 226.536 271.805 227.244 276.588 226.939C283.385 226.505 289.526 221.68 288.743 214.503C287.959 207.325 279.121 204.256 275.646 202.834C271.751 201.241 259.263 195.367 252.348 186.426C245.748 177.892 218.435 67.4686 204.801 40.2002L179.195 59.4876V59.4876Z" fill="white"/>
<path d="M243.612 168.267C242.346 168.267 241.17 167.46 240.759 166.191C234.892 148.083 228.466 123.331 224.627 108.542C210.664 58.4794 203.711 44.2602 199.558 35.7643C198.798 34.2106 198.142 32.8688 197.535 31.5024C196.862 29.9885 197.544 28.2155 199.057 27.5424C200.574 26.8698 202.344 27.5512 203.017 29.0654C203.581 30.3317 204.214 31.6281 204.948 33.1291C209.192 41.8095 216.295 56.3381 230.419 106.982C234.256 121.759 240.655 146.403 246.466 164.341C246.977 165.918 246.114 167.609 244.538 168.12C244.23 168.219 243.919 168.267 243.612 168.267Z" fill="black"/>
<path d="M274.804 229.991C269.887 229.991 258.772 229.003 252.731 220.654C247.602 213.566 239.647 210.973 237.63 212.381C236.396 213.239 235.71 214.396 234.843 215.861C233.346 218.393 231.482 221.542 226.353 223.337C222.262 224.767 217.886 224.018 214.634 221.337C211.322 218.604 209.654 214.241 210.281 209.951C210.521 208.312 212.046 207.178 213.684 207.417C215.323 207.657 216.457 209.181 216.218 210.82C215.887 213.08 216.723 215.281 218.452 216.709C219.417 217.505 221.47 218.689 224.37 217.674C227.433 216.602 228.375 215.01 229.68 212.806C230.719 211.049 231.898 209.058 234.205 207.454C239.348 203.88 250.442 207.258 257.592 217.137C262.975 224.577 275.035 224.032 276.397 223.945C279.51 223.746 282.394 222.409 284.111 220.369C285.435 218.794 285.99 216.93 285.76 214.828C285.222 209.898 278.739 207.305 275.256 205.912L274.51 205.611C271.794 204.5 257.85 198.443 249.974 188.261C248.96 186.951 249.2 185.067 250.511 184.053C251.823 183.04 253.707 183.279 254.72 184.59C261.805 193.75 275.27 199.439 276.782 200.058L277.484 200.341C281.804 202.069 290.795 205.664 291.725 214.177C292.133 217.917 291.088 221.394 288.702 224.23C285.911 227.549 281.566 229.627 276.779 229.933C276.36 229.959 275.68 229.991 274.804 229.991Z" fill="black"/>
<path d="M215.48 199.369C215.218 199.369 214.951 199.334 214.685 199.261C213.088 198.824 212.147 197.174 212.585 195.575C216.274 182.108 214.913 176.15 211.625 161.756C211.35 160.551 211.061 159.29 210.763 157.966C208.629 148.503 193.136 102.403 182.046 73.5322C181.452 71.9856 182.225 70.2502 183.77 69.656C185.322 69.0627 187.052 69.8344 187.647 71.3808C198.009 98.3564 214.253 146.169 216.616 156.646C216.913 157.965 217.2 159.22 217.474 160.419C220.897 175.402 222.459 182.24 218.372 197.161C218.007 198.493 216.799 199.369 215.48 199.369Z" fill="black"/>
<path d="M228.938 182.036C220.927 182.036 212.777 180.524 208.264 177.132C206.94 176.136 206.673 174.256 207.668 172.931C208.665 171.606 210.545 171.341 211.869 172.336C216.434 175.767 229.068 177.07 238.909 175.123C244.505 174.016 248.529 172.01 249.947 169.62C250.793 168.195 252.633 167.725 254.058 168.571C255.483 169.417 255.952 171.257 255.107 172.682C252.132 177.694 245.289 179.977 240.073 181.009C236.684 181.679 232.826 182.036 228.938 182.036L228.938 182.036Z" fill="black"/>
<path d="M214.472 27.6326C213.807 13.6659 205.929 15.3401 194.344 6.68006C190.423 3.74842 180.156 3.57643 175.279 8.45369C170.401 13.3309 160.577 77.8297 170.577 84.8297C173.203 86.7994 174.225 83.2351 181.883 80.1741C189.153 57.6745 215.138 41.5993 214.472 27.6326L214.472 27.6326Z" fill="white"/>
<path d="M181.885 83.175C181.651 83.175 181.414 83.1477 181.178 83.0906C179.567 82.7016 178.577 81.0808 178.966 79.4702C181.958 67.0757 190.14 58.4949 197.358 50.9241C202.027 46.0273 206.438 41.4021 209.153 36.217C213.587 27.7522 211.953 24.541 209.771 22.5164C200.394 13.8171 191.538 5.59179 184.392 6.01562C181.531 6.18188 178.861 7.76171 176.229 10.8452C175.152 12.1057 173.259 12.2539 171.999 11.1787C170.739 10.103 170.59 8.20947 171.666 6.94922C175.363 2.61792 179.528 0.288333 184.043 0.0256429C193.749 -0.532707 203.061 8.10718 213.851 18.1174C221.628 25.3316 216.239 35.6199 214.468 39.0007C211.361 44.9326 206.669 49.854 201.7 55.0645C194.676 62.4319 187.412 70.0501 184.798 80.8784C184.467 82.2522 183.238 83.175 181.885 83.175V83.175Z" fill="black"/>
<path d="M144.606 30.6873C143.531 30.6873 142.417 30.6278 141.258 30.5025C132.424 29.5477 127.702 20.7237 125.164 15.983L124.861 15.4188C124.076 13.96 124.622 12.1407 126.08 11.355C127.542 10.5684 129.359 11.1158 130.144 12.574L130.454 13.1514C132.61 17.18 136.219 23.9229 141.903 24.5372C152.823 25.7176 158.844 19.5596 165.221 13.0399C167.389 10.8236 169.631 8.5318 172.06 6.56574C173.346 5.5235 175.236 5.72199 176.28 7.01008C177.322 8.29768 177.124 10.1868 175.835 11.2293C173.677 12.9764 171.653 15.0455 169.51 17.2357C163.31 23.5741 156.35 30.6873 144.606 30.6873L144.606 30.6873Z" fill="black"/>
<path d="M194.634 184.239C194.478 184.239 194.321 184.227 194.163 184.202C189.953 183.539 185.668 180.704 181.062 175.536C178.59 172.761 175.642 171.277 172.304 171.126C168.236 170.944 163.653 172.829 160.079 176.174C154.11 181.763 145.741 184.576 137.677 183.702C130.262 182.896 123.842 179.052 119.599 172.876C115.627 167.093 106.631 164.327 95.4891 171.183C88.1883 175.677 77.948 173.448 71.6717 166.002C62.8123 155.493 67.326 143.063 73.8836 135.611C89.7371 117.594 99.7156 87.5805 99.74 74.5124C95.9578 56.6701 96.9461 29.6774 97.7742 23.883C98.992 15.3581 107.44 10.081 114.894 5.42497C117.017 4.09904 119.022 2.84685 120.755 1.59099C122.098 0.617106 123.973 0.919106 124.945 2.25994C125.917 3.60149 125.617 5.47723 124.276 6.44939C122.376 7.82634 120.286 9.13176 118.073 10.5138C111.419 14.6706 104.537 18.9689 103.714 24.7319C103.012 29.6457 101.958 56.4001 105.671 73.5539C105.715 73.7528 105.737 73.9555 105.739 74.1591C105.879 88.3366 95.5408 120.082 78.3875 139.575C68.366 150.964 74.2244 159.722 76.2586 162.135C80.6365 167.329 87.5545 169.022 92.3445 166.073C98.8992 162.04 105.559 160.431 111.607 161.422C116.987 162.303 121.582 165.165 124.545 169.479C128.693 175.518 134.328 177.303 138.324 177.737C144.669 178.424 151.267 176.204 155.978 171.794C160.778 167.3 166.832 164.871 172.576 165.132C177.519 165.356 182.003 167.573 185.542 171.545C189.086 175.522 192.389 177.849 195.096 178.276C196.733 178.533 197.851 180.069 197.594 181.706C197.36 183.184 196.085 184.239 194.634 184.239L194.634 184.239Z" fill="black"/>
</svg>
