<svg width="389" height="252" viewBox="0 0 389 252" fill="none" xmlns="http://www.w3.org/2000/svg">
<path d="M110.839 70.4094C103.808 75.5998 100.288 81.6601 89.3874 79.07C78.4867 76.4698 58.7955 60.8888 44.3746 57.8587C29.9537 54.8285 16.9429 56.9886 9.56243 66.5192C2.18197 76.0398 0.0718404 89.8906 7.80232 90.7607C15.5328 91.6308 29.2537 81.6701 34.524 82.5402C39.7943 83.4102 40.8544 87.7305 38.0442 91.2007C35.234 94.6709 28.1936 105.922 34.884 108.952C41.5744 111.982 46.4847 102.021 54.9252 96.8311C63.3658 91.6408 76.0265 102.021 87.2772 107.652C98.5279 113.282 119.979 103.321 123.85 100.291C127.72 97.2611 110.839 70.4294 110.839 70.4294V70.4094Z" fill="white"/>
<path d="M94.0681 82.611C85.7976 82.611 76.847 78.4007 58.5559 68.08C57.1158 67.27 56.6057 65.4399 57.4158 63.9898C58.2258 62.5497 60.056 62.0397 61.506 62.8497C83.4574 75.2405 90.2778 77.7406 98.0083 76.2006C99.6384 75.8705 101.209 76.9306 101.539 78.5607C101.869 80.1908 100.808 81.7609 99.1784 82.0909C97.4583 82.4309 95.7782 82.611 94.0781 82.611H94.0681Z" fill="black"/>
<path d="M38.0745 111.912C36.0143 111.912 34.0542 111.352 32.4241 110.192C29.4839 108.102 27.4238 103.721 30.434 97.7011C31.394 95.7709 32.2641 94.2409 32.9641 93.0008C34.4342 90.3806 35.0443 89.2605 35.1543 87.6804C35.3243 85.3603 34.8543 85.2803 34.3642 85.1903C31.4641 84.7003 26.6138 87.0404 22.3535 89.1205C15.9131 92.2507 9.26268 95.4909 4.7624 91.4207C1.76221 88.7005 0.0721085 84.8803 0.00210417 80.66C-0.0879014 74.9697 2.71227 69.0893 7.88259 64.079C15.9131 56.3085 39.9546 48.008 61.7259 62.9989C63.086 63.939 63.436 65.8091 62.496 67.1692C61.5559 68.5293 59.6958 68.8793 58.3257 67.9392C39.4245 54.9284 18.8633 61.8088 12.0629 68.3892C8.09261 72.2295 5.94247 76.5498 6.01248 80.56C6.05248 83.1402 7.01254 85.3603 8.80265 86.9704C10.2927 88.3205 15.7531 85.6603 19.7333 83.7202C25.0537 81.13 30.544 78.4499 35.3743 79.2699C37.2844 79.5899 41.6647 81.1 41.1547 88.1105C40.9346 91.0907 39.7846 93.1208 38.2045 95.941C37.5044 97.181 36.7144 98.5811 35.8143 100.381C35.2743 101.451 34.2142 104.081 35.9143 105.292C37.3644 106.322 40.7846 106.342 43.8848 103.171L44.7649 102.261C50.4152 96.461 50.6352 96.241 53.3554 94.7309L53.9955 94.3709C59.5758 91.2407 66.5962 91.2807 84.3673 101.121C96.7381 107.972 103.699 105.202 112.519 101.701C115.689 100.441 118.959 99.1411 122.68 98.2311C124.29 97.8411 125.91 98.8211 126.31 100.431C126.71 102.041 125.72 103.661 124.11 104.061C120.79 104.882 117.709 106.102 114.729 107.282C105.669 110.872 96.3081 114.592 81.4572 106.372C63.046 96.171 59.0658 98.4011 56.9256 99.6112L56.2556 99.9812C54.9622 100.701 52.562 102.858 49.0551 106.452L48.1751 107.362C45.2849 110.322 41.5547 111.902 38.0845 111.902L38.0745 111.912Z" fill="black"/>
<path d="M314.342 102.222C327.763 113.042 344.474 130.573 349.244 167.366C348.814 181.216 348.394 186.827 343.204 190.287C338.013 193.747 321.092 206.868 326.282 212.488C331.473 218.109 339.833 211.728 345.894 206.968C351.954 202.208 353.154 206.118 353.584 209.578C354.014 213.038 354.004 213.238 347.944 220.159C341.883 227.089 332.583 239.2 341.673 241.79C350.764 244.39 365.885 241.79 378.926 219.329C384.696 209.378 400.317 144.834 346.214 87.7006C332.793 86.4005 314.342 102.202 314.342 102.202V102.222Z" fill="white"/>
<path d="M274.63 17.9555C275.87 30.2562 244.038 44.4671 220.476 46.8473C196.915 49.2274 177.684 44.7571 176.433 32.4564C175.193 20.1556 197.455 4.99468 221.016 2.61453C244.568 0.234386 273.379 5.65472 274.63 17.9555Z" fill="white"/>
<path d="M247.757 2.76533C241.527 16.0061 201.384 30.9671 198.494 8.57569C173.033 14.6561 109.499 60.2289 106.568 66.6793C104.188 71.9096 113.309 101.041 142.251 117.602C148.931 121.423 153.291 129.023 165.592 100.911C166.182 124.923 160.912 189.927 158.562 201.638C156.222 213.348 159.732 228.579 167.932 227.989C176.133 227.399 203.654 198.127 295.01 198.707C315.511 196.947 313.161 185.237 309.061 176.456C304.961 167.676 292.47 148.254 293.06 116.632C294.49 113.782 302.201 131.643 306.891 124.033C313.671 113.012 315.891 109.682 324.292 105.012C334.833 99.1513 364.834 85.3904 361.314 75.4398C352.084 65.9392 327.902 48.4582 309.391 33.9073C286.27 15.7161 266.058 -0.354867 247.757 2.76533Z" fill="#2D8C3C"/>
<path d="M167.563 229.05C165.253 229.05 163.473 228.33 162.193 227.49C156.953 224.08 154.703 215.549 155.683 202.818C155.813 201.168 157.223 199.928 158.903 200.058C160.553 200.188 161.793 201.628 161.663 203.278C160.893 213.239 162.323 220.409 165.463 222.46C167.003 223.46 169.254 223.19 172.134 221.63C185.915 214.209 236.458 194.198 277.26 195.368C290.301 195.738 305.662 195.558 308.652 190.748C310.852 187.227 307.082 178.957 302.682 170.556C296.981 159.686 292.101 143.065 289.281 124.954C288.271 118.473 285.291 96.8718 289.321 90.8315C290.241 89.4514 292.101 89.0813 293.481 90.0014C294.861 90.9215 295.231 92.7816 294.311 94.1617C291.011 99.112 295.381 143.695 308.002 167.776C314.533 180.247 317.383 188.107 313.753 193.938C309.952 200.018 300.022 202.028 277.09 201.378C237.518 200.248 188.385 219.709 174.974 226.93C172.074 228.49 169.604 229.06 167.553 229.06L167.563 229.05Z" fill="black"/>
<path d="M164.782 170.906C164.672 170.906 164.572 170.906 164.462 170.886C162.812 170.716 161.622 169.236 161.792 167.586C165.212 135.034 160.012 82.3805 156.012 67.3596C155.582 65.7595 156.532 64.1194 158.132 63.6894C159.732 63.2593 161.382 64.2094 161.802 65.8195C166.012 81.6105 171.303 134.464 167.752 168.216C167.592 169.756 166.292 170.906 164.772 170.906H164.782Z" fill="black"/>
<path d="M142.61 119.252C142.26 119.252 141.89 119.192 141.54 119.052C124.399 112.522 110.378 94.0808 105.398 79.2299C103.778 74.4096 102.418 67.7492 105.128 63.4089C107.338 59.8787 115.049 53.5283 128.07 44.5377C139.02 36.9773 152.581 28.3767 164.352 21.5463C165.782 20.7163 167.622 21.1963 168.452 22.6364C169.282 24.0665 168.802 25.9066 167.362 26.7366C141.34 41.8476 113.569 61.2188 110.208 66.5891C109.348 67.9692 109.128 71.5094 111.078 77.3198C115.509 90.5006 128.43 107.642 143.67 113.442C145.221 114.032 146.001 115.762 145.411 117.312C144.951 118.512 143.81 119.242 142.61 119.242V119.252Z" fill="black"/>
<path d="M347.804 246.451C343.484 246.451 339.293 245.241 336.663 242.211C334.973 240.271 332.663 235.92 336.143 228.69C338.433 223.93 343.614 218.359 347.044 214.669C347.684 213.989 348.234 213.389 348.664 212.909C350.324 211.049 350.504 209.799 350.344 209.339C350.224 208.999 349.874 208.919 349.764 208.899C349.524 208.859 349.174 208.899 348.864 209.269C342.164 217.629 335.363 217.399 332.093 217.289L331.493 217.269C328.333 217.209 324.533 215.049 323.372 211.059C322.152 206.868 323.482 200.028 336.733 191.257C344.344 186.217 348.624 180.917 348.014 168.686C347.524 158.865 339.783 129.224 327.663 118.773C326.413 117.693 326.263 115.793 327.353 114.543C328.433 113.283 330.333 113.153 331.583 114.233C345.854 126.533 353.514 158.375 354.014 168.396C354.804 184.247 347.774 191.167 340.053 196.278C330.953 202.298 328.453 207.008 329.143 209.399C329.513 210.669 330.813 211.269 331.623 211.289L332.313 211.309C335.303 211.409 339.383 211.549 344.204 205.528C345.824 203.508 348.284 202.558 350.804 202.988C353.234 203.408 355.244 205.088 356.034 207.368C356.625 209.069 357.035 212.569 353.154 216.909C352.704 217.419 352.114 218.039 351.454 218.759C348.464 221.979 343.454 227.36 341.564 231.3C340.524 233.47 339.603 236.44 341.204 238.29C343.234 240.621 348.614 241.161 353.714 239.53C363.145 236.53 378.626 219.779 381.926 193.358C385.336 166.116 367.455 113.293 348.374 94.2015C347.204 93.0314 347.204 91.1313 348.374 89.9612C349.544 88.7911 351.444 88.7911 352.614 89.9612C373.076 110.422 391.527 164.926 387.886 194.098C384.216 223.439 366.765 241.671 355.534 245.241C353.134 246.001 350.454 246.461 347.814 246.461L347.804 246.451Z" fill="black"/>
<path d="M308.572 123.653C307.942 123.653 307.302 123.453 306.762 123.043C305.442 122.043 305.182 120.163 306.182 118.843C319.322 101.542 334.273 94.0312 345.184 88.5508C353.525 84.3606 357.865 82.0204 357.695 78.6402C357.345 71.6498 347.414 64.9894 334.833 56.5388C326.373 50.8585 316.772 44.4081 307.392 36.1476C282.75 14.4362 270.159 7.6758 251.258 6.0157C249.558 5.86569 248.048 6.29572 247.218 7.15577C235.207 19.5265 219.456 22.6467 208.716 21.4467C201.395 20.6266 195.715 17.7364 193.135 13.5262C192.275 12.1161 192.715 10.266 194.135 9.40591C195.545 8.54586 197.395 8.98589 198.255 10.406C199.835 12.9961 203.995 14.8963 209.376 15.4963C218.276 16.4864 232.397 13.8062 242.918 2.98551C245.028 0.815379 248.248 -0.264687 251.788 0.0553323C274.31 2.04546 288.371 11.416 311.362 31.6673C320.443 39.6678 329.863 45.9982 338.184 51.5785C352.154 60.9591 363.185 68.3696 363.685 78.3602C364.055 85.8007 356.915 89.3909 347.874 93.9312C337.484 99.1515 323.253 106.302 310.952 122.493C310.362 123.273 309.462 123.683 308.562 123.683L308.572 123.653Z" fill="black"/>
</svg>
