<svg width="324" height="525" viewBox="0 0 324 525" fill="none" xmlns="http://www.w3.org/2000/svg">
<path d="M292.601 305.078C294.851 327.039 295.981 346.189 283.031 356.889C270.081 367.589 245.301 365.339 228.97 358.019C230.1 330.989 250.931 313.529 250.931 313.529L292.601 305.078Z" fill="black"/>
<path d="M261.702 367.929C254.462 367.929 246.952 366.389 239.932 364.579C238.332 364.169 237.362 362.529 237.772 360.929C238.182 359.329 239.812 358.359 241.422 358.769C259.232 363.349 270.152 362.949 277.942 357.429C286.572 351.309 291.642 338.249 293.432 317.499C293.572 315.849 295.012 314.619 296.682 314.769C298.332 314.909 299.552 316.369 299.412 318.019C297.462 340.639 291.572 355.129 281.412 362.329C275.582 366.459 268.772 367.929 261.702 367.929Z" fill="black"/>
<path d="M302.902 317.51C298.872 298.8 265.632 193.019 273.972 158.149C273.972 158.149 239.922 36.4277 228.592 4.73751C222.292 2.1575 197.411 -0.292523 191.251 15.7176C191.251 15.7176 215.962 103.818 235.792 166.749C268.132 213.089 282.752 291.22 292.192 317.35C292.192 317.35 292.302 320.16 283.502 326.13C272.942 345.12 310.722 330.74 318.392 324.82C326.062 318.9 316.972 316.98 302.902 317.51Z" fill="white"/>
<path d="M294.331 324.028C293.031 324.028 291.831 323.178 291.451 321.868C260.881 216.697 250.901 200.037 242.881 186.647C237.041 176.897 232 168.477 221.29 131.637C215.04 110.146 213.52 104.866 206.57 80.8061L200.86 61.036C200.4 59.446 201.32 57.786 202.91 57.326C204.51 56.866 206.16 57.786 206.62 59.376L212.33 79.1461C219.28 103.206 220.8 108.476 227.05 129.967C237.541 166.067 242.401 174.177 248.031 183.567C256.231 197.257 266.431 214.287 297.221 320.198C297.681 321.788 296.771 323.458 295.181 323.918C294.901 323.998 294.621 324.038 294.341 324.038L294.331 324.028Z" fill="black"/>
<path d="M304.072 321.219C302.772 321.219 301.572 320.369 301.192 319.059C270.492 213.458 270.162 193.268 269.892 177.037C269.712 165.957 269.552 156.377 259.172 120.697C250.602 91.2068 240.182 55.1266 232.582 28.7864L226.772 8.67621C226.242 6.8462 223.282 6.27619 221.572 6.09619C218.162 5.74619 213.601 6.29619 209.071 7.6062C200.361 10.1162 193.761 14.8563 194.661 17.9463L197.241 26.8663C197.701 28.4564 196.781 30.1164 195.191 30.5764C193.591 31.0364 191.931 30.1164 191.481 28.5264L188.901 19.6063C186.611 11.6862 196.551 4.97618 207.411 1.83616C218.272 -1.30386 230.262 -0.923862 232.542 6.9962L238.352 27.1063C245.952 53.4465 256.372 89.5268 264.942 119.007C275.542 155.467 275.702 165.407 275.892 176.927C276.152 192.798 276.482 212.548 306.952 317.379C307.412 318.969 306.502 320.639 304.912 321.099C304.632 321.179 304.352 321.219 304.072 321.219Z" fill="black"/>
<path d="M289.433 340.329C286.913 340.329 284.882 339.899 283.272 339.039C280.092 337.339 279.242 334.409 278.842 332.999C277.092 326.959 288.553 320.339 293.103 318.289C294.613 317.609 296.393 318.289 297.063 319.799C297.743 321.309 297.063 323.089 295.553 323.759C289.683 326.389 285.383 330.229 284.712 331.689C285.053 332.769 285.373 333.349 286.103 333.739C287.483 334.479 291.453 335.179 302.613 331.619C317.883 326.749 318.233 323.619 317.883 322.079C316.553 321.189 310.883 320.239 304.503 321.179C302.873 321.419 301.343 320.289 301.103 318.649C300.863 317.009 301.993 315.489 303.633 315.249C308.573 314.519 321.793 313.979 323.553 320.079C325.673 327.429 320.313 332.269 304.433 337.339C298.173 339.339 293.243 340.329 289.433 340.329Z" fill="black"/>
<path d="M181.291 283.117C166.651 270.727 124.41 279.177 116.53 284.247C130.04 312.408 198.181 306.208 181.291 283.117Z" fill="white"/>
<path d="M128.361 280.308C123.841 277.978 117.661 282.558 111.471 286.498C105.28 290.438 65.8602 310.148 76.5603 376.038C78.2503 420.529 72.6202 441.359 68.6802 446.989C82.7603 476.839 103.03 480.209 129.501 477.959C155.971 475.709 173.421 463.319 179.621 452.619C188.631 433.469 203.271 375.468 203.831 373.778C221.291 378.278 230.301 379.968 234.241 377.158C238.181 374.338 252.262 323.098 241.561 304.518C205.201 282.478 174.551 279.738 174.551 279.738C173.991 294.378 165.541 295.508 155.401 295.508C145.261 295.508 133.451 287.698 128.371 280.308H128.361Z" fill="#82BE28"/>
<path d="M227.821 380.779C218.801 380.779 205.141 378.379 196.701 370.979C195.451 369.889 195.331 367.989 196.421 366.749C197.511 365.499 199.411 365.379 200.651 366.469C209.801 374.489 227.881 375.829 233.401 374.269C234.991 373.819 236.651 374.749 237.101 376.339C237.551 377.929 236.621 379.589 235.031 380.039C233.421 380.489 230.891 380.769 227.821 380.769V380.779Z" fill="black"/>
<path d="M122.691 481.509C104.431 481.509 84.3704 474.019 73.4603 462.569C67.6803 456.499 65.2202 449.949 66.3603 443.639C66.6503 442.009 68.2203 440.929 69.8403 441.219C71.4703 441.509 72.5503 443.069 72.2603 444.699C71.2703 450.199 74.7303 455.199 77.8003 458.429C87.5504 468.669 109.661 477.679 129.811 475.059C158.591 471.309 171.771 463.709 178.441 447.049C185.751 428.759 195.651 391.759 195.751 391.388C196.181 389.788 197.811 388.838 199.421 389.258C201.021 389.688 201.971 391.328 201.541 392.928C201.131 394.459 191.451 430.659 184.001 449.279C175.301 471.029 157.111 477.549 130.581 481.009C128.011 481.349 125.361 481.509 122.681 481.509H122.691Z" fill="black"/>
<path d="M68.9998 449.589C68.8398 449.589 68.6698 449.579 68.4998 449.549C66.8698 449.279 65.7598 447.729 66.0398 446.099C66.1698 445.299 69.3598 426.349 72.6799 415.269C73.1599 413.679 74.8199 412.779 76.4199 413.259C78.0099 413.739 78.9099 415.409 78.4299 416.999C75.2099 427.729 71.9899 446.899 71.9599 447.099C71.7099 448.569 70.4399 449.609 68.9998 449.609V449.589Z" fill="black"/>
<path d="M75.4093 398.958C73.8293 398.958 72.5093 397.728 72.4193 396.128C72.1493 391.308 71.7893 386.138 71.3793 380.138C71.1693 377.078 70.9493 373.848 70.7193 370.438C68.1993 332.698 74.7993 303.287 115.14 282.467C116.61 281.707 118.42 282.287 119.18 283.757C119.94 285.227 119.36 287.037 117.89 287.797C80.3193 307.187 74.2693 333.638 76.6993 370.038C76.9293 373.448 77.1493 376.668 77.3593 379.728C77.7793 385.748 78.1293 390.938 78.4093 395.788C78.4993 397.438 77.2393 398.858 75.5793 398.948C75.5193 398.948 75.4693 398.948 75.4093 398.948V398.958Z" fill="black"/>
<path d="M155.97 298.669C147.5 298.669 137.6 295.799 128.51 288.889C127.19 287.889 126.93 286.009 127.94 284.689C128.94 283.369 130.82 283.109 132.14 284.119C145.02 293.909 160.37 294.649 167.76 289.709C171.15 287.439 172.36 284.349 171.35 280.509C170.93 278.909 171.89 277.269 173.49 276.839C175.1 276.419 176.73 277.379 177.16 278.979C178.82 285.279 176.61 291.009 171.1 294.689C167.34 297.199 162.03 298.669 155.98 298.669H155.97Z" fill="black"/>
<path d="M243.561 307.789C242.931 307.789 242.301 307.589 241.761 307.189C232.4 300.169 189.04 280.979 175.47 280.979C173.81 280.979 172.47 279.639 172.47 277.979C172.47 276.319 173.81 274.979 175.47 274.979C190.66 274.979 235.04 294.649 245.361 302.389C246.691 303.379 246.951 305.259 245.961 306.589C245.371 307.379 244.471 307.789 243.561 307.789Z" fill="black"/>
<path d="M301.232 271.296C302.362 253.276 297.292 227.376 286.032 223.996C274.772 220.616 255.622 222.306 251.682 239.766C247.742 257.226 259.002 271.296 264.072 279.186C277.582 266.236 292.802 264.616 301.242 271.306L301.232 271.296Z" fill="white"/>
<path d="M303.602 278.759C301.182 264.659 288.672 262.429 274.852 270.089L255.881 286.719C246.381 299.029 238.901 317.429 224.081 323.669C208.031 330.429 185.221 342.249 174.531 341.129C181.851 346.2 178.471 348.45 173.971 354.64C169.471 360.83 158.771 382.23 158.771 386.74C187.491 381.67 218.461 363.65 238.171 352.39C257.881 341.129 298.422 311.849 302.372 303.959C306.322 296.069 311.262 292.369 303.612 278.759H303.602Z" fill="white"/>
<path d="M159.2 388.328C157.64 388.328 156.33 387.128 156.21 385.548C156.09 383.898 157.33 382.458 158.98 382.338C180.371 380.758 208.511 367.137 227.701 354.927C231.031 352.807 234.151 350.837 237.171 348.927C250.881 340.277 262.721 332.797 282.471 318.697C283.671 317.837 284.841 317.017 285.971 316.217C301.641 305.157 308.791 300.117 301.191 278.997C298.951 272.787 295.601 269.117 291.221 268.097C284.301 266.477 274.591 271.247 263.881 281.537C262.691 282.687 260.791 282.647 259.641 281.457C258.491 280.267 258.531 278.367 259.721 277.217C272.121 265.307 283.481 260.137 292.581 262.267C297.041 263.307 303.131 266.707 306.821 276.977C315.972 302.387 305.401 309.847 289.411 321.127C288.291 321.917 287.131 322.737 285.941 323.587C266.051 337.787 254.151 345.307 240.361 354.007C237.341 355.907 234.231 357.877 230.901 359.997C221.291 366.117 187.721 386.238 159.4 388.338C159.32 388.338 159.25 388.338 159.18 388.338L159.2 388.328Z" fill="black"/>
<path d="M263.332 279.708C262.952 279.708 262.552 279.638 262.182 279.478C254.901 276.438 246.601 257.038 246.601 243.048C246.601 237.468 249.291 232.218 254.371 227.858C261.342 221.877 272.332 218.247 279.912 219.417C293.472 221.507 299.362 230.858 303.252 256.498C303.502 258.138 302.372 259.668 300.732 259.918C299.092 260.168 297.562 259.038 297.312 257.398C293.112 229.678 286.802 226.558 278.992 225.347C273.902 224.567 264.532 227.038 258.272 232.418C255.682 234.638 252.591 238.288 252.591 243.058C252.591 256.458 260.772 272.408 264.482 273.958C266.012 274.598 266.732 276.348 266.092 277.878C265.612 279.028 264.502 279.728 263.322 279.728L263.332 279.708Z" fill="black"/>
<path d="M142.41 408.889C142.29 408.889 142.16 408.889 142.04 408.889C124.19 408.539 94.5099 382.639 91.2098 370.559C90.7698 368.959 91.7198 367.309 93.3199 366.879C94.9099 366.439 96.5699 367.389 96.9999 368.989C99.4199 377.879 126.52 402.589 142.16 402.899C146.24 402.969 148.54 401.309 149.74 397.499C156.25 376.879 167.69 359.409 172.31 352.859C172.81 352.139 173.37 351.419 173.94 350.689C177.4 346.229 177.72 345.039 175.95 343.189C175.2 342.409 172.74 341.599 170.13 340.739C161.87 338.028 148.04 333.478 135.46 315.238C134.52 313.878 134.86 312.008 136.23 311.068C137.59 310.128 139.46 310.468 140.4 311.838C151.83 328.418 163.97 332.398 172 335.038C175.63 336.228 178.5 337.168 180.281 339.039C185.961 344.979 181.401 350.859 178.67 354.369C178.16 355.019 177.66 355.669 177.21 356.309C172.76 362.629 161.72 379.479 155.46 399.299C153.5 405.499 148.88 408.899 142.41 408.899V408.889Z" fill="black"/>
<path d="M253.721 339.509C262.571 329.919 258.891 314.419 243.391 309.259C243.391 309.259 242.441 309.179 240.831 309.059C236.201 315.319 230.931 320.789 224.091 323.669C208.041 330.429 185.231 342.249 174.541 341.129C181.861 346.199 178.481 348.449 173.981 354.639C169.481 360.829 158.78 382.229 158.78 386.74C186.681 381.819 216.711 364.669 236.471 353.369C245.081 346.959 251.591 341.849 253.741 339.519L253.721 339.509Z" fill="black"/>
<path d="M191.34 343.768C190.05 343.768 188.86 342.928 188.47 341.628C187.99 340.038 188.89 338.368 190.48 337.888C212.121 331.398 238.911 311.448 247.801 295.188C248.591 293.738 250.421 293.198 251.871 293.998C253.321 294.798 253.861 296.618 253.061 298.068C243.371 315.778 215.501 336.638 192.2 343.628C191.91 343.718 191.62 343.758 191.34 343.758V343.768Z" fill="black"/>
</svg>
