<svg width="300" height="264" viewBox="0 0 300 264" fill="none" xmlns="http://www.w3.org/2000/svg">
<path d="M127.72 45.4103C126.48 45.4203 125.73 44.4003 124.84 43.3003C123.95 42.2003 119.96 39.8703 117.14 42.8703C110.26 50.2003 121.7 64.6803 124.98 66.1703C128.54 67.7903 132.07 65.9803 135.44 61.9703C136.64 61.5303 135.23 53.4003 127.73 45.4103H127.72Z" fill="white"/>
<path d="M168.079 73.6295C165.599 73.5095 161.249 77.9895 160.779 81.3095C160.309 84.6295 163.209 87.7895 170.279 87.7395C177.349 87.6895 178.899 87.7895 180.499 86.9495C182.089 86.1095 184.739 83.8495 184.929 79.7895C185.119 75.7295 169.699 73.1495 168.089 73.6295H168.079Z" fill="white"/>
<path d="M190.209 3.28866C180.289 -4.95134 141.959 2.91866 141.599 19.9187C141.229 36.9187 140.539 35.3687 139.569 38.3487C139.099 39.7987 134.219 41.3287 132.189 42.3487C119.579 40.6887 127.579 48.0087 128.489 49.2787C135.719 59.4187 134.899 64.5087 138.769 64.2387C142.089 64.0087 147.849 62.0487 151.749 62.2587C153.329 61.2787 161.079 66.3887 170.639 65.1687C169.939 68.0787 168.049 71.8387 168.049 71.8387C166.109 74.8787 169.399 73.0787 175.179 74.7487C180.979 76.4287 183.769 79.8787 184.929 79.7887C186.089 79.6987 189.909 64.0887 189.909 64.0887C196.419 64.4887 207.229 61.4787 207.229 61.4787C210.939 72.9387 214.109 72.8687 223.209 73.7087C229.599 73.0587 230.899 68.8687 233.729 70.0887C237.129 71.5487 243.629 71.6887 245.569 70.0887C249.439 66.8887 247.419 60.8387 245.569 56.6087C243.719 52.3787 239.909 49.8287 237.039 51.8287C236.269 46.2787 237.289 48.0387 237.929 45.9287C238.569 43.8187 242.269 26.8287 230.899 17.7987C219.749 8.94866 218.729 12.3187 212.249 11.7287C205.769 11.1387 197.489 9.83866 190.219 3.28866H190.209Z" fill="white"/>
<path d="M141.601 19.9104C141.401 29.3304 141.791 30.9704 141.681 34.1504C141.891 34.2504 141.951 35.5904 141.951 35.5904C143.621 42.9404 147.411 44.6604 151.421 46.2504C155.431 47.8404 164.591 48.7804 172.941 42.4004C181.281 36.0204 183.151 29.7704 183.231 25.1104C183.291 21.5704 182.541 2.37038 180.831 0.210376C180.831 0.200376 180.821 0.190376 180.811 0.180376C165.861 -1.22962 141.881 6.50038 141.591 19.9304L141.601 19.9104Z" fill="#2D8C3C"/>
<path d="M185.52 81.9396C185.15 81.9396 184.78 81.8696 184.42 81.7296C182.88 81.1196 182.12 79.3796 182.73 77.8396C184.74 72.7496 187.22 67.3096 187.94 65.7596C189.71 61.9096 195.74 59.6396 199.75 60.2596C201.39 60.5096 202.51 62.0396 202.26 63.6796C202.01 65.3196 200.48 66.4396 198.84 66.1896C197.03 65.9096 193.85 67.2596 193.39 68.2696C192.69 69.7796 190.27 75.0896 188.31 80.0396C187.84 81.2196 186.71 81.9396 185.52 81.9396Z" fill="black"/>
<path d="M238.999 44.8113C238.749 44.8113 238.499 44.7813 238.249 44.7113C236.649 44.3013 235.679 42.6613 236.089 41.0613C238.199 32.8713 235.329 25.5813 227.299 18.7813C222.579 14.7813 217.109 14.7013 211.329 14.6313C207.879 14.5813 204.309 14.5413 200.969 13.5713L200.719 13.5013C193.359 11.4113 191.279 10.2613 190.289 9.49129C188.979 8.47129 188.749 6.59129 189.769 5.28129C190.789 3.97129 192.679 3.74129 193.979 4.76129C194.109 4.86129 195.459 5.78129 202.349 7.73129L202.629 7.81129C205.189 8.55129 208.209 8.59129 211.399 8.63129C217.679 8.71129 224.799 8.8113 231.169 14.2013C240.989 22.5313 244.599 32.0713 241.889 42.5613C241.539 43.9113 240.319 44.8113 238.989 44.8113H238.999Z" fill="black"/>
<path d="M223.27 75.7694C221.69 75.7694 219.92 75.5594 217.93 75.0494C206.57 72.0994 205.1 59.1294 205.16 46.8394C205.16 45.1894 206.51 43.8594 208.16 43.8594H208.18C209.84 43.8594 211.17 45.2194 211.16 46.8794C211.09 61.2294 213.48 67.7094 219.43 69.2594C224.61 70.5994 227.39 69.0894 229.63 67.8794C231.36 66.9394 233.96 65.5294 236.53 67.3994C238.12 68.5594 239.82 69.1294 240.75 68.7994C241.58 68.5094 242.07 67.3094 242.34 66.3494C243.65 61.6494 241.46 55.8694 239.4 54.4094C239 54.1294 238.94 54.1694 238.74 54.3094C237.38 55.2594 235.51 54.9294 234.56 53.5694C233.61 52.2094 233.94 50.3394 235.3 49.3894C237.63 47.7594 240.45 47.8094 242.86 49.5094C247.48 52.7794 249.94 61.3994 248.11 67.9594C246.93 72.1894 244.52 73.8294 242.71 74.4594C239.98 75.4094 236.66 74.7294 233.5 72.6094C233.2 72.7594 232.8 72.9694 232.47 73.1494C230.52 74.2094 227.6 75.7894 223.24 75.7894L223.27 75.7694Z" fill="black"/>
<path d="M127.719 69.8087C125.579 69.8087 123.639 68.9887 121.869 68.0087C118.619 66.1887 113.119 57.2387 112.159 50.9087C111.199 44.5487 114.729 39.6587 118.709 38.1087C122.699 36.5587 126.819 38.0387 129.449 41.9687C130.369 43.3487 129.999 45.2087 128.619 46.1287C127.239 47.0487 125.379 46.6787 124.459 45.2987C123.739 44.2187 122.529 43.0587 120.879 43.6987C119.119 44.3787 117.599 46.7687 118.089 49.9987C118.829 54.8987 123.329 61.8087 124.809 62.7687C126.969 63.9687 128.539 64.8487 131.989 60.9187C133.079 59.6787 134.979 59.5487 136.219 60.6487C137.459 61.7387 137.589 63.6387 136.489 64.8787C133.249 68.5587 130.329 69.7987 127.699 69.7987L127.719 69.8087Z" fill="black"/>
<path d="M172.61 90.7713C171.27 90.7713 169.77 90.7513 168.06 90.7113C166 90.6613 159.71 90.5113 157.88 83.7413C156.33 78.0113 160.91 72.9413 166.22 70.8913C167.77 70.2913 169.5 71.0613 170.1 72.6113C170.7 74.1613 169.93 75.8913 168.38 76.4913C166.03 77.4013 163.02 79.7613 163.67 82.1813C164.11 83.8013 164.93 84.6413 168.2 84.7113C175.62 84.8913 178.16 84.6313 178.96 84.3813C180.28 83.5913 182 83.9113 182.93 85.1813C183.91 86.5213 183.62 88.3913 182.28 89.3713C180.91 90.3713 178.38 90.7813 172.61 90.7813V90.7713Z" fill="black"/>
<path d="M126.95 46.6298C125.39 46.6298 124.07 45.4198 123.96 43.8398C123.85 42.1898 125.09 40.7498 126.75 40.6398C130.4 40.3898 131.79 39.5198 134.1 38.0798C135.51 37.1998 137.36 37.6298 138.23 39.0398C139.11 40.4498 138.68 42.2998 137.27 43.1698C134.27 45.0498 131.94 46.2998 127.15 46.6298C127.08 46.6298 127.01 46.6298 126.94 46.6298H126.95Z" fill="black"/>
<path d="M176.92 78.7515C176.46 78.7515 175.99 78.6415 175.54 78.4115C172.11 76.6415 170.13 76.6115 168.95 76.6015C168 76.5915 166.42 76.5715 165.4 75.0915C164.32 73.5315 164.91 71.9415 165.6 70.1115C167.27 65.6315 167.44 62.8615 167.71 58.6715C167.77 57.7115 167.84 56.6915 167.92 55.5915C168.05 53.9415 169.49 52.7115 171.15 52.8415C172.8 52.9715 174.03 54.4215 173.9 56.0715C173.81 57.1415 173.75 58.1215 173.69 59.0615C173.44 63.0515 173.23 66.2715 171.71 70.8115C173.36 71.0715 175.55 71.6715 178.29 73.0915C179.76 73.8515 180.34 75.6615 179.58 77.1315C179.05 78.1615 178 78.7515 176.91 78.7515H176.92Z" fill="black"/>
<path d="M167.12 66.5997C166.97 66.5997 166.82 66.5897 166.67 66.5697C166.53 66.5497 163.26 66.0397 155.75 63.7897C151.91 62.6397 146.41 63.1697 141.75 65.1397C136.06 67.5497 132.87 61.2997 130.97 57.5697C130.42 56.4897 129.66 55.0097 129.26 54.6097C128.09 53.4397 128.09 51.5397 129.26 50.3697C130.43 49.1997 132.33 49.1997 133.5 50.3697C134.56 51.4297 135.37 53.0097 136.31 54.8397C137.03 56.2597 138.52 59.1597 139.41 59.6097C145.42 57.0897 152.31 56.4897 157.47 58.0397C164.49 60.1397 167.55 60.6297 167.58 60.6297C169.21 60.8797 170.34 62.4197 170.09 64.0497C169.86 65.5297 168.59 66.5897 167.13 66.5897L167.12 66.5997Z" fill="black"/>
<path d="M158.141 50.2896C157.501 50.2896 156.861 50.2696 156.231 50.2196C150.881 49.8296 147.441 47.8796 146.211 47.0696C139.621 42.6896 137.431 36.1696 138.401 23.8096C138.531 22.1596 139.981 20.9196 141.631 21.0596C143.281 21.1896 144.511 22.6396 144.381 24.2896C143.481 35.7096 145.581 39.4596 149.521 42.0696C150.381 42.6396 158.251 47.4496 170.101 40.9296C172.411 39.6596 177.201 34.9896 177.791 31.4796C178.061 29.8496 179.611 28.7396 181.241 29.0096C182.871 29.2796 183.981 30.8296 183.711 32.4596C182.711 38.4696 176.131 44.4596 173.001 46.1796C168.031 48.9096 163.041 50.2896 158.141 50.2896Z" fill="black"/>
</svg>
