<svg width="300" height="250" viewBox="0 0 300 250" fill="none" xmlns="http://www.w3.org/2000/svg">
<path d="M140.809 12.4098C134.479 13.6198 126.759 23.4898 125.269 25.6898C123.779 27.8898 111.629 41.5698 116.369 56.8398C111.639 60.1698 111.039 61.1998 106.219 58.0698C99.7794 53.4298 91.7994 58.8298 94.6894 66.8798C97.5694 74.9398 107.659 83.5398 111.169 85.3398C114.679 87.1398 118.799 88.0698 125.279 85.4798C131.759 82.8898 138.169 79.8298 150.629 84.1598C162.179 88.1598 168.929 96.3298 172.289 98.7398C176.099 101.46 181.309 102.98 190.309 98.7398C199.309 94.4998 202.789 87.1798 202.659 85.1698C202.529 83.1598 207.859 72.1898 198.009 71.9098C197.919 64.0598 192.079 59.0098 190.159 59.4798C196.689 51.5198 193.939 25.3298 175.959 10.2898C166.449 3.11982 144.349 9.43982 140.799 12.3998L140.809 12.4098Z" fill="#2D8C3C"/>
<path d="M132.561 46.0586C128.861 49.1686 120.751 50.0786 119.721 54.8486C120.981 61.5886 128.231 66.8686 133.871 62.0686C139.511 57.2686 135.331 50.8786 132.551 46.0586H132.561Z" fill="white"/>
<path d="M162.75 51.6797C166.42 52.8797 168.08 66.3797 172.92 67.8197C167.3 72.6197 143.76 69.0597 162.75 51.6797Z" fill="white"/>
<path d="M171.689 32.7289C172.819 23.2889 176.599 16.2589 177.629 10.7989C177.609 10.7889 175.979 10.3089 175.969 10.2989C166.459 3.12891 143.829 9.45891 140.279 12.4189C120.119 20.6189 130.359 35.7789 141.049 39.9389C151.269 43.9289 164.689 44.6389 171.689 32.7189V32.7289Z" fill="white"/>
<path d="M188.711 65.0292C188.061 65.0292 187.411 64.8192 186.861 64.3892C185.561 63.3592 185.341 61.4792 186.361 60.1792C190.781 54.5692 190.781 47.0792 189.991 41.7892C188.151 29.2892 180.481 16.9892 174.431 12.7592C173.071 11.8092 172.741 9.93921 173.691 8.57921C174.641 7.21921 176.511 6.88921 177.871 7.83921C186.111 13.5992 194.041 28.1292 195.931 40.9092C197.301 50.1792 195.621 58.1292 191.071 63.8892C190.481 64.6392 189.601 65.0292 188.711 65.0292Z" fill="black"/>
<path d="M119.289 60.1804C118.439 60.1804 117.589 59.8204 116.999 59.1203C113.349 54.8204 111.869 49.6104 112.599 43.6203C114.129 31.0303 124.769 19.4904 129.379 16.1604C130.719 15.1904 132.599 15.4904 133.569 16.8404C134.539 18.1804 134.239 20.0604 132.889 21.0304C128.629 24.1004 119.759 34.4203 118.549 44.3503C118.019 48.6703 119.009 52.2304 121.569 55.2404C122.639 56.5004 122.489 58.4004 121.219 59.4704C120.659 59.9504 119.969 60.1804 119.279 60.1804H119.289Z" fill="black"/>
<path d="M131.811 65.6594C130.921 65.6594 130.001 65.5094 129.061 65.1994C127.491 64.6794 126.641 62.9794 127.161 61.4094C127.681 59.8394 129.381 58.9894 130.951 59.5094C131.921 59.8394 132.541 59.6494 133.091 58.8694C134.511 56.8394 134.641 51.6094 130.471 46.3394C129.441 45.0394 129.661 43.1494 130.961 42.1294C132.261 41.0994 134.151 41.3194 135.171 42.6194C140.961 49.9394 140.971 58.0694 138.001 62.3094C136.471 64.4994 134.251 65.6594 131.801 65.6594H131.811Z" fill="black"/>
<path d="M152.849 46.7109C151.529 46.7109 150.179 46.6209 148.799 46.4509C140.269 45.3709 132.979 41.2509 130.239 35.9509C129.479 34.4809 130.049 32.6709 131.519 31.9109C132.989 31.1509 134.799 31.7209 135.559 33.1909C137.339 36.6209 143.219 39.6909 149.549 40.5009C155.909 41.3109 161.289 39.8309 164.309 36.4609C167.209 33.2209 167.689 31.2709 168.559 27.7309C169.009 25.9209 169.559 23.6709 170.569 20.8809C171.129 19.3209 172.859 18.5209 174.409 19.0809C175.969 19.6409 176.769 21.3709 176.209 22.9209C175.309 25.4109 174.819 27.4009 174.379 29.1609C173.459 32.8809 172.669 36.1009 168.769 40.4609C165.129 44.5209 159.459 46.7109 152.829 46.7109H152.849Z" fill="black"/>
<path d="M164.74 74C164.15 74 163.52 73.97 162.86 73.92C154.67 73.29 152.3 68.22 151.75 64.07C150.74 56.46 156.3 50.05 166.28 47.36C167.88 46.93 169.53 47.87 169.96 49.47C170.39 51.07 169.45 52.72 167.85 53.15C162.49 54.6 157 58.02 157.7 63.28C158.05 65.91 159.11 67.61 163.32 67.93C167.05 68.22 168.44 67.57 173.88 64.14C175.28 63.26 177.13 63.68 178.02 65.08C178.9 66.48 178.48 68.33 177.08 69.22C171.74 72.58 169.07 73.99 164.74 73.99V74Z" fill="black"/>
<path d="M99.6897 80.5006C98.7097 80.5006 97.7397 80.0206 97.1697 79.1306C87.7897 64.6106 93.6497 57.4406 95.6697 55.5906C99.3597 52.2106 105.03 51.8906 108.85 54.8606C110.81 56.3806 112.07 56.7106 114.35 54.6306C115.57 53.5106 117.47 53.6006 118.59 54.8206C119.71 56.0406 119.62 57.9406 118.4 59.0606C115.48 61.7306 110.82 63.9906 105.17 59.6006C103.65 58.4206 101.26 58.6006 99.7197 60.0106C97.3597 62.1706 96.7797 67.4706 102.21 75.8706C103.11 77.2606 102.71 79.1206 101.32 80.0206C100.82 80.3506 100.25 80.5006 99.6997 80.5006H99.6897Z" fill="black"/>
<path d="M180.58 102.77C176.43 102.77 172 101.81 168.31 99.1503C164.96 96.7303 161.93 94.9803 157.73 92.5603C155.41 91.2203 152.78 89.7003 149.57 87.7703C141.8 83.0903 137.49 84.0703 128.8 87.6403C123.43 89.8403 117.32 90.5603 112.01 89.6103C105.3 88.4103 100.12 84.7103 97.0397 78.9103C96.2597 77.4503 96.8197 75.6303 98.2797 74.8503C99.7397 74.0703 101.56 74.6303 102.34 76.0903C107.83 86.4203 120.56 84.5203 126.53 82.0803C135.6 78.3603 142.32 76.3903 152.67 82.6203C155.83 84.5203 158.44 86.0303 160.73 87.3503C165.08 89.8603 168.23 91.6803 171.82 94.2803C177.1 98.0903 184.96 96.8603 188.67 95.1903C190.18 94.5103 191.96 95.1903 192.64 96.6903C193.32 98.2003 192.64 99.9803 191.14 100.66C188.58 101.81 184.72 102.76 180.58 102.77Z" fill="black"/>
<path d="M197.481 95.2996C196.751 95.2996 196.021 95.0396 195.451 94.5096C194.231 93.3896 194.161 91.4896 195.281 90.2696C198.771 86.4796 200.311 82.7196 199.611 79.6696C199.191 77.8396 197.921 76.3496 196.221 75.6796C192.051 74.0396 187.181 75.7796 185.261 78.4396C184.291 79.7796 182.411 80.0796 181.071 79.1096C179.731 78.1396 179.431 76.2596 180.401 74.9196C183.701 70.3796 191.341 67.3296 198.411 70.0996C201.951 71.4896 204.591 74.5696 205.451 78.3296C206.121 81.2496 206.271 87.2096 199.691 94.3496C199.101 94.9896 198.291 95.3196 197.481 95.3196V95.2996Z" fill="black"/>
<path d="M196.239 74.4597C196.239 74.4597 196.139 74.4597 196.089 74.4597C194.439 74.3797 193.159 72.9697 193.239 71.3197C193.419 67.7097 191.909 63.1697 190.929 61.8697C189.689 61.7397 188.619 60.8497 188.319 59.5697C187.939 57.9597 188.939 56.3397 190.559 55.9597C191.929 55.6397 193.349 56.0097 194.549 57.0097C197.769 59.6897 199.449 67.3197 199.239 71.6097C199.159 73.2097 197.829 74.4597 196.249 74.4597H196.239Z" fill="black"/>
</svg>
