<svg width="307" height="259" viewBox="0 0 307 259" fill="none" xmlns="http://www.w3.org/2000/svg">
<path d="M113.272 15.8805C116.034 9.43543 132.492 -0.0528979 155.457 0.000222073C172.198 0.0389421 194.458 4.73723 208.899 20.6562C182.974 46.2403 137.113 57.8017 124.453 39.6838C111.794 21.5658 113.272 15.8805 113.272 15.8805H113.272Z" fill="white"/>
<path d="M111.817 22.7542C99.2511 23.8959 90.0903 54.6762 83.4368 76.9558C76.7834 99.2354 56.2029 171.083 47.4198 178.068C38.2171 185.387 24.1445 188.226 19.815 188.87C15.9523 189.445 6.26223 190.355 3.69147 197.412C1.12071 204.469 6.12912 210.866 12.889 212.988C17.6446 214.482 30.7656 218.729 38.2452 212.38C45.7249 206.032 52.099 202.005 55.5635 205.934C59.2145 210.074 56.7522 215.516 63.1247 219.665C69.4971 223.815 74.0882 217.949 76.5708 214.67C79.0534 211.391 78.8721 205.279 79.9099 199.745C80.7774 195.118 82.1227 183.359 83.1691 177.216C85.3604 164.353 91.4788 148.746 104.632 118.367C104.632 118.367 124.383 21.6124 111.817 22.7542L111.817 22.7542Z" fill="white"/>
<path d="M67.6133 223.975C65.5322 223.975 63.4658 223.387 61.5615 222.226C57.749 219.9 56.583 216.11 55.6464 213.065C55.04 211.091 54.4668 209.226 53.3125 207.918C52.2998 206.769 50.6045 204.846 41.5556 212.047C33.7304 218.274 23.7832 219.554 11.9892 215.85C7.25973 214.365 3.41012 211.21 1.4277 207.196C-0.26371 203.769 -0.456091 200.03 0.871059 196.384C3.89645 188.082 13.8232 186.685 18.5937 186.014L19.373 185.902C19.6894 185.855 20.0625 185.803 20.4853 185.745C25.417 185.061 38.5156 183.245 45.2207 176.026C52.4775 168.214 77.4824 86.8881 86.8955 56.2724L88.1035 52.3459C88.5898 50.7627 90.2695 49.874 91.8525 50.3608C93.4365 50.8481 94.3252 52.5268 93.8378 54.1106L92.6308 58.0359C74.5449 116.858 56.8164 172.359 49.6171 180.109C41.457 188.894 26.8193 190.924 21.3095 191.688C20.9091 191.743 20.5556 191.792 20.2558 191.837L19.4296 191.955C15.54 192.503 8.30074 193.521 6.50875 198.438C5.74508 200.537 5.84566 202.59 6.80855 204.539C8.04976 207.055 10.6591 209.144 13.7861 210.125C23.5644 213.197 31.6484 212.263 37.8193 207.352C42.205 203.862 51.332 196.598 57.8124 203.949C59.8212 206.227 60.6503 208.923 61.3818 211.301C62.2705 214.191 62.9052 216.017 64.6865 217.103C66.2265 218.044 67.8925 218.224 69.5029 217.622C71.8115 216.759 73.7724 214.411 74.748 211.339C76.4228 206.073 76.914 200.002 77.3886 194.131C77.7939 189.131 78.1757 184.408 79.2558 180.282C83.5839 163.759 87.3789 150.714 100.194 121.117C100.853 119.597 102.619 118.897 104.14 119.556C105.66 120.214 106.358 121.98 105.7 123.501C93.0234 152.779 89.4453 165.059 85.0605 181.802C84.1132 185.418 83.7519 189.885 83.3691 194.615C82.8671 200.821 82.3486 207.239 80.4668 213.157C78.914 218.041 75.6836 221.717 71.6035 223.243C70.2939 223.732 68.9511 223.975 67.6133 223.975V223.975Z" fill="black"/>
<path d="M119.123 14.6563C126.272 21.106 137.272 35.5352 145.136 35.3868C162.049 35.0676 178.279 18.9468 189.079 14.6563C203.803 8.8067 201.2 41.6975 201.2 63.0731C201.2 68.5033 226.956 122.412 226.956 139.16C226.956 156.943 213.474 154.686 195.624 152.311C183.495 150.698 176.663 148.201 159.417 151.55C138.074 155.694 109.601 155.882 105.2 151.282C101.472 147.386 85.4835 143.347 98.2484 115.734C101.957 107.712 110.466 73.9915 109.156 62.2042C106.656 39.7314 85.6938 34.9778 93.6856 20.3642C98.4605 11.6332 104.225 1.21656 119.123 14.6563Z" fill="white"/>
<path d="M199.594 59.747C210.833 89.0075 233.182 151.321 235.477 161.501C239.559 179.604 240.948 187.28 237.339 202.135C234.994 211.784 282.883 201.093 275.689 191.792C268.824 182.915 240.412 68.0491 226.23 39.6836L199.594 59.747Z" fill="white"/>
<path d="M239.197 180.477C240.373 200.751 233.16 211.93 227.486 220.696C218.442 234.672 240.696 242.397 243.644 229.698C245.772 220.532 249.042 219.389 251.161 220.299C255.995 222.374 256.694 230.095 260.273 241.55C264.146 253.947 285.6 258.056 291.791 230.657C296.043 211.841 273.558 190.278 269.469 175.903C267.375 168.541 238.428 167.211 239.197 180.477Z" fill="white"/>
<path d="M266.603 172.782C265.337 172.782 264.161 171.975 263.75 170.706C257.657 151.9 250.967 126.138 246.97 110.745C230.39 51.298 223.96 41.6591 218.794 33.9142L218.34 33.2324C217.422 31.8525 217.798 29.9904 219.178 29.0732C220.554 28.1559 222.42 28.5312 223.336 29.9111L223.785 30.5847C229.189 38.6843 235.912 48.7646 252.763 109.185C256.758 124.565 263.42 150.22 269.457 168.857C269.968 170.433 269.105 172.124 267.529 172.635C267.221 172.735 266.909 172.782 266.603 172.782Z" fill="black"/>
<path d="M237.34 205.136C237.077 205.136 236.81 205.101 236.545 205.028C234.947 204.59 234.007 202.94 234.444 201.342C238.291 187.304 236.873 181.098 233.447 166.105C233.16 164.851 232.861 163.54 232.55 162.161C230.329 152.313 214.21 104.349 202.673 74.3136C202.079 72.767 202.851 71.0317 204.397 70.4374C205.947 69.8437 207.679 70.6159 208.274 72.1623C219.051 100.219 235.946 149.946 238.403 160.841C238.713 162.214 239.011 163.52 239.296 164.769C242.852 180.333 244.475 187.437 240.231 202.928C239.866 204.26 238.657 205.136 237.34 205.136Z" fill="black"/>
<path d="M251.328 187.106C243.024 187.106 234.577 185.541 229.905 182.028C228.58 181.033 228.314 179.152 229.309 177.828C230.306 176.502 232.187 176.237 233.51 177.232C238.281 180.819 251.467 182.184 261.734 180.153C267.589 178.995 271.803 176.887 273.296 174.372C274.142 172.947 275.984 172.477 277.407 173.323C278.832 174.168 279.302 176.009 278.456 177.434C275.385 182.61 268.3 184.97 262.898 186.039C259.375 186.736 255.368 187.106 251.328 187.106Z" fill="black"/>
<path d="M272.378 253.444C272.301 253.444 272.227 253.443 272.151 253.442C264.685 253.346 258.732 248.814 257.337 242.165C255.085 231.418 254.194 228.964 252.557 225.561C251.902 224.199 250.013 222.765 249.26 222.862C249.155 222.875 248.481 223.458 248.038 225.713C246.225 234.927 239.922 240.49 232.726 239.244C229.55 238.695 226.43 236.536 224.583 233.611C223.261 231.519 221.953 228.068 223.226 223.51C224.327 219.572 226.394 216.245 228.583 212.723C230.726 209.271 232.944 205.701 234.501 201.162C235.038 199.595 236.743 198.76 238.311 199.297C239.879 199.834 240.713 201.54 240.176 203.108C238.399 208.29 235.891 212.327 233.678 215.889C231.638 219.174 229.876 222.011 229.005 225.125C228.459 227.081 228.677 228.858 229.655 230.406C230.742 232.126 232.495 233.115 233.75 233.332C237.615 234.001 240.987 230.474 242.151 224.555C243.35 218.456 246.644 217.148 248.5 216.91C252.717 216.37 256.636 220.203 257.963 222.96C259.962 227.112 260.946 230.133 263.211 240.934C264.027 244.828 267.567 247.383 272.229 247.443C277.992 247.522 285.758 243.361 288.59 231.403C291.181 220.462 283.099 207.028 276.606 196.235C272.872 190.028 269.647 184.667 268.837 180.46C268.522 178.833 269.587 177.26 271.214 176.946C272.841 176.63 274.414 177.698 274.727 179.324C275.337 182.486 278.451 187.662 281.748 193.142C288.802 204.869 297.583 219.465 294.428 232.786C290.814 248.051 280.346 253.443 272.378 253.444Z" fill="black"/>
<path d="M227.43 37.2711C240.632 28.2163 228.023 15.7594 213.567 9.27588C204.367 5.15004 186.309 14.6113 180.966 19.954C175.623 25.2967 172.725 71.402 183.679 79.07C186.556 81.2277 187.675 77.3232 196.064 73.9701C203.435 54.4981 214.799 45.9346 227.43 37.2711L227.43 37.2711Z" fill="white"/>
<path d="M197.514 77.6514C196.012 77.6514 194.716 76.5262 194.538 74.9983C192.96 61.4529 207.426 45.0144 222.323 36.9473C227.015 34.4065 230.112 31.3201 230.612 28.6907C230.757 27.9219 230.8 26.7217 229.5 25.1788C226.398 21.4942 221.156 16.9769 221.104 16.9317C219.847 15.8516 219.704 13.9576 220.783 12.7012C221.863 11.4458 223.755 11.3001 225.014 12.3807C225.243 12.5779 230.672 17.2552 234.09 21.3138C236.239 23.8665 237.075 26.8038 236.506 29.8077C235.651 34.3218 231.629 38.7312 225.181 42.2232C208.668 51.1651 199.511 65.8377 200.497 74.304C200.69 75.9498 199.511 77.4393 197.865 77.6309C197.747 77.6448 197.63 77.6514 197.514 77.6514H197.514Z" fill="black"/>
<path d="M147.478 38.5501C146.559 38.5501 145.64 38.4881 144.718 38.3582C137.453 37.3352 132.226 31.8055 127.169 26.4578C125.622 24.8216 124.023 23.1297 122.402 21.6094C121.193 20.4763 121.131 18.5777 122.265 17.3692C123.398 16.1607 125.294 16.0984 126.505 17.2325C128.259 18.8763 129.921 20.635 131.53 22.3357C136.075 27.1446 140.37 31.6868 145.554 32.4168C152.816 33.4385 161.104 28.2159 170.706 22.1692C179.151 16.8526 188.72 10.8264 200.28 7.10379C201.856 6.59451 203.547 7.46243 204.055 9.03958C204.563 10.6167 203.696 12.3069 202.119 12.8147C191.279 16.3062 182.048 22.1184 173.904 27.2466C164.34 33.2683 155.952 38.5501 147.478 38.5501H147.478Z" fill="black"/>
<path d="M122.982 158.513C112.45 158.513 99.7953 154.625 93.7533 145.592C90.4965 140.722 87.8598 132.247 93.7914 119.524C101.267 103.492 106.438 82.0693 106.367 67.4274C106.33 59.6616 105.655 54.0195 96.6186 41.1772C96.1459 40.5068 95.5649 39.7753 94.9496 39.0007C92.2123 35.5564 88.4633 30.8388 89.2407 24.561C89.9272 19.0197 94.0024 13.4641 101.7 7.57613C103.016 6.56978 104.899 6.82051 105.905 8.13619C106.912 9.45235 106.661 11.3352 105.344 12.3418C99.0815 17.1328 95.6664 21.4919 95.1957 25.2981C94.728 29.0771 97.2289 32.2243 99.6469 35.268C100.319 36.1128 100.953 36.9108 101.525 37.7243C110.742 50.8234 112.319 57.4653 112.367 67.3984C112.442 82.8322 107.039 105.31 99.2289 122.06C95.4145 130.242 95.2504 137.037 98.7407 142.257C103.814 149.842 115.681 152.869 124.56 152.478C135.172 152.007 143.093 150.848 150.753 149.728C164.22 147.758 175.846 146.058 196.104 149.351C197.74 149.617 198.849 151.158 198.583 152.793C198.318 154.429 196.77 155.537 195.141 155.273C175.799 152.128 165.128 153.689 151.622 155.665C144.178 156.753 135.741 157.987 124.826 158.472C124.22 158.499 123.604 158.513 122.982 158.513V158.513Z" fill="black"/>
<path d="M154.766 84.4557C153.9 84.456 153.043 84.0841 152.45 83.3651C145.692 75.1767 143.387 61.8927 146.25 47.7533C146.16 47.7948 146.062 47.8527 145.957 47.9323C139.43 52.9333 134.76 59.1593 132.076 66.4374C130.059 71.9096 129.981 75.965 129.981 76.0055C129.958 77.6584 128.637 79.0114 126.95 78.9699C125.298 78.9533 123.97 77.6088 123.981 75.9562C123.985 75.1869 124.31 56.9601 142.309 43.1693C144.608 41.4079 147.637 41.1588 149.849 42.5512C151.822 43.7939 152.73 46.0819 152.217 48.5224C150.182 58.2065 150.39 71.4416 157.077 79.5463C158.132 80.8241 157.951 82.715 156.673 83.7697C156.114 84.2309 155.438 84.4557 154.766 84.4557L154.766 84.4557Z" fill="black"/>
</svg>
