<svg width="301" height="251" viewBox="0 0 301 251" fill="none" xmlns="http://www.w3.org/2000/svg">
<path d="M104.131 35.0369C94.5823 54.9698 85.7824 78.3976 79.3708 99.8675C72.9591 121.337 54.7271 165.808 46.2632 172.539C37.395 179.592 23.8339 182.328 19.6617 182.949C15.9393 183.503 6.60148 184.38 4.12416 191.18C1.64683 197.981 6.47321 204.145 12.9874 206.191C17.5702 207.63 28.5598 209.596 35.7676 203.479C42.9754 197.361 48.3345 194.981 51.6732 198.767C55.1914 202.757 53.2793 207.598 59.4201 211.597C65.561 215.595 72.9844 211.384 73.6291 204.638L78.18 194.525C79.4983 190.344 80.2594 181.017 79.5226 175.058C78.1121 163.649 85.5675 146.055 98.2427 116.78L104.131 35.0369H104.131Z" fill="white"/>
<path d="M64.5115 216.149C62.1836 216.149 59.8508 215.466 57.7804 214.117C53.2156 211.144 52.1525 207.632 51.2988 204.81C50.8055 203.177 50.4149 201.886 49.4183 200.756C47.7727 198.89 43.8345 200.577 37.7142 205.772C28.4359 213.647 14.7397 209.893 12.0867 209.06C7.49948 207.619 3.76388 204.558 1.84027 200.66C0.19567 197.329 0.0086873 193.695 1.2999 190.151C4.2367 182.086 13.8479 180.733 18.4674 180.082L19.2193 179.975C20.8384 179.734 35.3051 177.412 44.3915 170.186C51.7227 164.356 69.7644 121.529 76.4897 99.0071C76.9655 97.4159 78.6434 96.5104 80.2322 96.9861C81.8239 97.4614 82.7284 99.1369 82.2537 100.728C76.6258 119.569 57.9017 167.127 48.1349 174.893C38.0353 182.926 23.0126 185.491 20.1042 185.924L19.3064 186.038C15.5825 186.562 8.65169 187.538 6.95128 192.21C6.22491 194.201 6.31987 196.148 7.23321 197.997C8.41674 200.394 10.9042 202.385 13.889 203.322C15.191 203.731 26.806 207.142 33.822 201.186C37.5752 198.001 47.5437 189.539 53.9292 196.778C55.7922 198.891 56.4637 201.111 57.056 203.069C57.7999 205.526 58.3364 207.302 61.0617 209.077C63.6432 210.758 65.9241 210.095 67.0548 209.55C69.0792 208.574 70.4184 206.631 70.6357 204.352C70.7943 202.698 72.2725 201.487 73.9151 201.644C75.5685 201.802 76.7804 203.27 76.6228 204.924C76.2097 209.25 73.5441 213.099 69.6665 214.968C68.0278 215.758 66.2706 216.149 64.5115 216.149L64.5115 216.149Z" fill="black"/>
<path d="M124.02 3.27844C107.13 9.05647 91.1292 39.9468 83.7956 47.9471C76.4619 55.9474 56.869 84.6154 47.0542 94.6637C42.0437 99.7934 48.9164 108.398 52.6254 110.722C62.7454 117.064 81.5368 129.284 88.2037 135.951C94.8707 142.618 109.794 132.316 115.496 114.888C121.198 97.4605 139.316 46.2723 142.083 34.9162C132.108 16.8347 136.059 14.8762 124.02 3.27845L124.02 3.27844Z" fill="white"/>
<path d="M88.2058 138.959C87.2915 138.959 86.3889 138.543 85.7976 137.755C77.8644 127.178 65.3429 120.403 56.2006 115.456C51.9883 113.177 48.6618 111.377 46.7236 109.677C44.1705 107.438 42.5827 104.154 42.3673 100.667C42.151 97.1723 43.3668 93.7482 45.7916 91.0253C59.9382 76.1527 72.1885 59.1031 80.2941 47.8212C82.2931 45.039 84.0199 42.6363 85.3894 40.8091C86.7776 38.9586 88.2283 36.977 89.729 34.9276C97.0691 24.9012 105.389 13.5368 113.721 7.21605C115.046 6.21313 116.931 6.47108 117.935 7.7946C118.938 9.11787 118.679 11.0043 117.356 12.0079C109.723 17.798 101.679 28.7861 94.5816 38.4807C93.0672 40.5494 91.6027 42.5499 90.2019 44.4179C88.8676 46.1956 87.1584 48.5754 85.179 51.3306C77.4748 62.0529 64.5813 79.9984 50.2164 95.0979C48.5532 96.9684 48.2879 98.964 48.3701 100.296C48.4856 102.167 49.353 103.983 50.6892 105.155C52.1194 106.409 55.3372 108.15 59.063 110.166C68.1514 115.084 81.8858 122.515 90.6101 134.147C91.6066 135.475 91.3374 137.36 90.008 138.357C89.4677 138.762 88.8343 138.958 88.2058 138.958L88.2058 138.959Z" fill="black"/>
<path d="M104.776 224.221C104.703 224.221 104.629 224.218 104.554 224.213C102.898 224.092 101.653 222.651 101.774 220.994C101.93 218.875 102.123 216.285 102.345 213.313C104.539 183.895 109.681 115.002 107.913 97.2652C106.537 83.4706 107.167 65.9497 107.664 56.7335C107.754 55.0747 109.148 53.8036 110.83 53.8926C112.488 53.9822 113.76 55.3992 113.671 57.0575C113.182 66.1016 112.563 83.2738 113.898 96.6688C115.717 114.927 110.549 184.186 108.343 213.761C108.12 216.73 107.928 219.316 107.773 221.433C107.657 223.015 106.338 224.221 104.776 224.221L104.776 224.221Z" fill="black"/>
<path d="M207.106 227.369C205.533 227.369 204.21 226.145 204.108 224.553C202.975 206.788 201.292 191.395 199.797 178.68C198.1 164.257 197.576 112.421 199.974 97.141C200.232 95.4993 201.773 94.3768 203.411 94.6364C205.052 94.8936 206.173 96.4325 205.916 98.0734C203.631 112.638 204.147 164.178 205.77 177.977C207.276 190.771 208.968 206.264 210.111 224.17C210.216 225.827 208.958 227.257 207.301 227.363C207.236 227.367 207.171 227.369 207.106 227.369V227.369Z" fill="black"/>
<path d="M126.457 8.54591C126.457 8.54591 136.454 3.54569 152.458 3.54569C174.459 3.54569 196.46 11.546 190.126 19.213C183.793 26.88 103.123 34.547 126.457 8.54591Z" fill="white"/>
<path d="M209.394 31.542C193.356 1.46925 181.355 3.72299 181.355 3.72299C169.655 15.4238 137.504 13.9101 128.872 5.27858C128.872 5.27858 122.402 7.19184 116.169 15.5032C109.58 24.2881 100.994 41.9662 99.5597 56.8026C98.1251 71.6391 87.1978 128.694 87.05 129.79C77.4657 200.881 65.0837 215.572 77.5825 227.378C102.467 250.883 148.256 250.37 163.803 244.216C195.804 231.549 221.647 238.438 229.726 241.327C237.806 244.216 221.142 53.5686 209.394 31.542L209.394 31.542Z" fill="white"/>
<path d="M151.179 15.7204C150.715 15.7204 150.252 15.7138 149.788 15.7008C140.539 15.439 132.17 12.4432 126.827 7.48122C125.609 6.35105 125.538 4.44825 126.669 3.23119C127.799 2.01511 129.702 1.94291 130.919 3.07407C139.418 10.9672 158.571 13.2853 177.328 2.03224C178.749 1.17812 180.598 1.63993 181.453 3.06378C182.308 4.48788 181.846 6.33513 180.421 7.18974C171.097 12.7843 161.016 15.7204 151.179 15.7204L151.179 15.7204Z" fill="black"/>
<path d="M93.3295 242.151C92.9281 242.151 92.5209 242.07 92.1293 241.9C74.86 234.366 67.0217 224.89 68.8307 213.733C73.0744 187.56 82.8774 148.793 83.5196 146.262L84.1422 142.483C87.5205 122.017 91.0143 100.855 89.3394 85.2269C89.1622 83.5754 90.3574 82.0931 92.0089 81.9161C93.6447 81.7372 95.1425 82.9337 95.3187 84.5857C97.0817 101.028 93.5204 122.6 90.0765 143.463L89.4333 147.365C89.4196 147.451 89.402 147.537 89.3805 147.622C89.2777 148.023 79.0919 188.031 74.767 214.696C73.4542 222.794 80.1041 230.092 94.5336 236.387C96.0558 237.051 96.7518 238.823 96.0881 240.345C95.5947 241.476 94.4895 242.151 93.3295 242.151L93.3295 242.151Z" fill="black"/>
<path d="M134.55 250.67C126.886 250.67 119.369 249.978 112.395 248.583C110.766 248.258 109.71 246.673 110.036 245.045C110.361 243.417 111.941 242.357 113.574 242.686C128.851 245.741 146.9 245.233 163.093 241.293C186.117 235.693 210.114 230.833 228.257 238.09C229.799 238.707 230.549 240.457 229.932 241.999C229.316 243.541 227.562 244.291 226.023 243.674C209.53 237.076 186.594 241.767 164.515 247.137C154.866 249.484 144.582 250.67 134.55 250.67V250.67Z" fill="black"/>
<path d="M199.406 94.8233C210.237 123.02 220.477 155.051 222.689 164.861C226.623 182.306 228.701 188.62 224.483 204.018L222.247 218.069C221.266 224.775 227.472 230.634 234.389 228.214C241.305 225.793 240.602 220.636 244.97 217.6C249.114 214.718 258.718 218.941 264.26 226.6C269.803 234.259 280.945 234.968 285.738 234.662C292.552 234.228 298.708 229.391 297.923 222.196C297.138 215.001 288.278 211.924 284.794 210.5C280.89 208.903 268.372 203.014 261.44 194.051C254.824 185.497 242.688 138.813 236.562 115.223L199.406 94.8233V94.8233Z" fill="white"/>
<path d="M283.951 237.722C279.023 237.722 267.881 236.732 261.825 228.364C256.682 221.258 248.711 218.659 246.687 220.069C245.45 220.93 244.763 222.09 243.894 223.558C242.393 226.096 240.524 229.254 235.383 231.053C231.284 232.486 226.894 231.736 223.636 229.048C220.315 226.308 218.643 221.935 219.271 217.634C219.513 215.991 221.042 214.855 222.683 215.094C224.326 215.334 225.463 216.861 225.223 218.505C224.892 220.771 225.729 222.977 227.463 224.408C228.43 225.206 230.488 226.393 233.396 225.375C236.465 224.302 237.41 222.705 238.718 220.496C239.76 218.735 240.941 216.739 243.254 215.131C248.41 211.548 259.531 214.935 266.698 224.838C272.095 232.295 284.182 231.748 285.548 231.662C288.669 231.462 291.56 230.122 293.281 228.077C294.608 226.498 295.164 224.63 294.934 222.523C294.395 217.58 287.897 214.981 284.405 213.585L283.657 213.283C280.935 212.17 266.957 206.099 259.061 195.891C252.896 187.92 243.206 152.773 233.653 115.979C219.656 65.7948 212.687 51.5411 208.524 43.0246C207.762 41.4674 207.104 40.1221 206.495 38.7523C205.821 37.2347 206.504 35.4575 208.022 34.7827C209.542 34.1088 211.318 34.7916 211.991 36.3094C212.556 37.5788 213.191 38.8783 213.926 40.383C218.181 49.0844 225.302 63.6483 239.46 114.415C244.885 135.309 257.558 184.117 263.819 192.212C270.922 201.395 284.418 207.097 285.934 207.717L286.639 208C290.969 209.733 299.982 213.337 300.913 221.87C301.323 225.62 300.275 229.104 297.884 231.948C295.086 235.274 290.73 237.358 285.931 237.664C285.511 237.691 284.83 237.722 283.951 237.722V237.722Z" fill="black"/>
<path d="M224.484 207.025C224.22 207.025 223.953 206.991 223.687 206.918C222.085 206.479 221.143 204.825 221.581 203.223C225.28 189.723 223.915 183.75 220.619 169.321C220.343 168.113 220.054 166.85 219.754 165.522C217.676 156.304 207.622 124.599 196.598 95.9012C196.003 94.3508 196.777 92.6113 198.327 92.0156C199.881 91.4204 201.616 92.1945 202.213 93.7446C213.332 122.691 223.504 154.806 225.622 164.199C225.92 165.521 226.208 166.779 226.482 167.981C229.914 183 231.479 189.855 227.382 204.812C227.016 206.148 225.805 207.025 224.484 207.025V207.025Z" fill="black"/>
<path d="M263.349 115.965C264.825 114.636 268.089 108.459 266.626 107.116C246.47 88.6147 223.69 52.7111 215.802 39.2792C199.357 11.278 191.351 7.48293 182.329 8.48536C163.345 10.5947 172.102 24.7325 177.8 44.668C182.332 60.5231 181.244 132.974 204.654 137.95C222.432 119.727 242.878 134.394 263.349 115.965Z" fill="white"/>
<path d="M199.539 144.958C199.001 144.958 198.457 144.814 197.966 144.512C196.551 143.641 196.111 141.789 196.981 140.374C203.402 129.94 217.144 127.718 230.434 125.569C241.49 123.782 252.923 121.934 260.431 115.628C262.298 114.061 263.372 112.141 263.456 110.22C263.532 108.517 262.818 106.862 261.394 105.435C247.903 91.9133 237.056 74.5143 226.567 57.6879C219.405 46.1989 212.641 35.347 205.828 27.2091L205.145 26.3915C201.548 22.0905 197.073 16.7382 193.165 13.1742C191.937 12.055 191.85 10.1529 192.969 8.92584C194.088 7.69899 195.99 7.61089 197.218 8.7303C201.426 12.5682 206.047 18.0935 209.759 22.5332L210.441 23.3484C217.522 31.8086 224.395 42.8338 231.671 54.5061C241.982 71.0467 252.644 88.1503 265.652 101.187C268.26 103.801 269.614 107.103 269.465 110.485C269.305 114.109 267.471 117.571 264.299 120.234C255.52 127.607 243.255 129.589 231.394 131.507C218.89 133.528 207.08 135.438 202.103 143.527C201.535 144.45 200.549 144.958 199.539 144.958L199.539 144.958Z" fill="black"/>
</svg>
