<svg width="300" height="294" viewBox="0 0 300 294" fill="none" xmlns="http://www.w3.org/2000/svg">
<path d="M45.0023 93.8451C43.4742 112.036 26.3842 156.72 45.391 171.341C67.9898 188.725 88.843 156.709 88.3997 144.738C88.1961 139.243 84.9003 136.958 84.2698 133.339C72.0852 127.333 69.4865 107.906 71.1087 94.2187C71.3082 80.2763 45.2018 79.9028 45.0023 93.8451V93.8451Z" fill="white"/>
<path d="M128.37 48.7959C98.2197 53.2298 94.3855 76.4558 72.8811 80.4463C72.8811 80.4463 64.9002 123.953 68.0039 132.821C71.1076 141.688 79.532 146.955 91.5034 157.152C101.305 168.611 107.642 183.244 113.331 165.858C119.019 148.473 121.209 106.415 123.969 95.0864C132.795 58.8643 128.37 48.7959 128.37 48.7959H128.37Z" fill="#2D8C3C"/>
<path d="M92.8353 71.4756C91.8519 71.4756 90.888 70.9925 90.3138 70.105C89.4134 68.7141 89.8118 66.8567 91.2025 65.9566C95.2933 63.3101 98.6136 60.8948 101.544 58.7639C106.841 54.9114 111.025 51.8687 116.736 49.5134C118.27 48.8819 120.021 49.6116 120.653 51.1431C121.285 52.6748 120.555 54.4285 119.023 55.0603C113.975 57.1424 110.046 59.9993 105.073 63.6162C102.081 65.7923 98.6898 68.2586 94.4622 70.9942C93.9583 71.3201 93.3939 71.4756 92.8353 71.4756H92.8353Z" fill="black"/>
<path d="M63.0721 2.9895L33.7618 0.0385915C29.2897 -0.411648 26.3092 3.13041 27.1385 7.90984L38.0317 70.6891C38.861 75.4685 43.1986 79.7473 47.6707 80.1976L76.981 83.1485C81.4531 83.5987 84.4336 80.0566 83.6043 75.2772L72.7111 12.498C71.8818 7.71856 67.5442 3.43974 63.0721 2.9895Z" fill="black"/>
<path d="M48.059 18.1868L38.9835 17.2731C37.022 17.0756 35.1195 15.1989 34.7558 13.1027L34.5139 11.7085C34.1501 9.61226 35.4574 8.05871 37.4189 8.25618L46.4944 9.16989C48.4559 9.36737 50.3584 11.2441 50.7221 13.3403L50.964 14.7345C51.3277 16.8308 50.0205 18.3843 48.059 18.1868Z" fill="#82BE28"/>
<path d="M71.1087 94.2189C71.3241 92.4011 71.6111 90.6804 71.963 89.11C84.4887 64.6344 64.2037 38.3591 45.8031 39.9113C35.0441 40.8185 33.8316 57.6466 34.275 66.071C34.7184 74.4953 37.0462 82.0373 45.0271 93.5651C45.0204 93.6562 45.01 93.7529 45.0023 93.8454C53.3917 95.3278 62.4695 95.5265 71.1087 94.2189Z" fill="white"/>
<path d="M58.9732 179.165C56.8638 179.166 54.6714 178.877 52.48 178.227C47.4595 176.738 38.5591 171.985 35.3629 156.887C32.7486 144.546 36.3453 125.815 39.2349 110.765C40.5679 103.824 42.2203 95.2161 41.7593 93.1856C37.4966 86.8809 32.5015 78.1566 31.2906 66.3775C30.1822 55.5889 32.7515 46.2103 38.1636 41.2891C41.8394 37.9476 46.6773 36.7586 52.1558 37.8558C62.5572 39.9358 71.5132 47.054 76.1129 56.8965C81.0484 67.4581 80.4966 79.7225 74.5972 90.5457C73.9087 92.066 71.8238 102.877 71.064 114.797C70.0718 130.392 71.98 137.646 74.0982 139.234C75.4234 140.228 75.6929 142.108 74.6988 143.434C73.7047 144.76 71.8248 145.028 70.4986 144.034C65.7603 140.481 63.9967 130.648 65.105 113.975C65.8277 103.114 67.8804 90.3323 69.3297 87.6741C74.3053 78.544 74.7965 68.2518 70.6773 59.4368C66.8248 51.1939 59.6451 45.4722 50.9801 43.7391C47.3443 43.0123 44.4713 43.6624 42.2007 45.7286C38.3111 49.2645 36.3716 57.1287 37.2593 65.764C38.3384 76.2606 42.7105 83.9036 46.8453 89.9959C48.6334 92.6312 47.8902 97.5049 45.1275 111.896C42.4869 125.651 38.8697 144.488 41.232 155.644C43.6578 167.098 49.6158 171.119 54.1861 172.475C60.4547 174.334 66.356 172.092 68.5435 169.904C69.7134 168.733 71.6138 168.732 72.7857 169.904C73.9576 171.076 73.9576 172.975 72.7857 174.147C69.9468 176.986 64.7711 179.165 58.9732 179.165H58.9732Z" fill="black"/>
<path d="M104.005 267.01C103.932 267.01 103.858 267.007 103.784 267.001C102.131 266.88 100.889 265.443 101.01 263.79C101.165 261.676 101.358 259.093 101.579 256.128C103.769 226.781 108.898 158.055 107.134 140.361C105.762 126.6 106.39 109.121 106.886 99.9272C106.976 98.2725 108.371 97.0044 110.044 97.0933C111.699 97.1826 112.967 98.5962 112.878 100.25C112.391 109.273 111.773 126.403 113.105 139.766C114.919 157.98 109.764 227.071 107.563 256.574C107.341 259.536 107.149 262.116 106.994 264.228C106.879 265.806 105.563 267.01 104.005 267.01H104.005Z" fill="black"/>
<path d="M206.085 270.15C204.516 270.15 203.196 268.929 203.094 267.34C201.964 249.619 200.286 234.263 198.793 221.578C197.101 207.19 196.579 155.48 198.97 140.237C199.227 138.599 200.769 137.479 202.399 137.738C204.036 137.995 205.155 139.53 204.898 141.167C202.619 155.696 203.133 207.112 204.752 220.877C206.254 233.64 207.943 249.096 209.083 266.959C209.188 268.612 207.933 270.038 206.28 270.143C206.214 270.148 206.15 270.15 206.085 270.15V270.15Z" fill="black"/>
<path d="M125.631 51.8563C125.631 51.8563 135.604 46.8682 151.57 46.8682C173.517 46.8682 195.465 54.8491 189.147 62.4976C182.828 70.146 102.353 77.7945 125.631 51.8563Z" fill="white"/>
<path d="M208.37 74.7967C192.37 44.7967 180.399 47.045 180.399 47.045C168.726 58.7175 136.653 57.2074 128.043 48.5969C128.043 48.5969 109.37 66.7967 98.8012 99.9962C97.37 114.797 86.4692 171.713 86.3217 172.807C76.7607 243.725 64.4086 258.381 76.8771 270.158C101.701 293.607 147.38 293.095 162.889 286.956C194.813 274.319 220.593 281.192 228.653 284.074C236.713 286.956 220.089 96.77 208.37 74.7967L208.37 74.7967Z" fill="#2D8C3C"/>
<path d="M150.294 59.0134C149.83 59.0134 149.369 59.0068 148.906 58.9939C139.68 58.7326 131.33 55.7441 126 50.7944C124.785 49.667 124.715 47.7688 125.843 46.5547C126.969 45.3413 128.868 45.2695 130.082 46.3974C138.563 54.2715 157.668 56.5837 176.38 45.3584C177.799 44.5063 179.643 44.967 180.495 46.3874C181.348 47.8081 180.887 49.6509 179.466 50.5034C170.164 56.0844 160.108 59.0134 150.294 59.0134H150.294Z" fill="black"/>
<path d="M92.586 284.896C92.1856 284.896 91.7794 284.816 91.3888 284.645C74.1612 277.13 66.3419 267.676 68.1466 256.547C72.38 230.437 82.1593 191.764 82.7999 189.239L83.421 185.469C86.7911 165.053 90.2764 143.942 88.6055 128.352C88.4288 126.704 89.6212 125.225 91.2686 125.049C92.8956 124.87 94.3946 126.064 94.5704 127.712C96.3292 144.114 92.7764 165.635 89.3409 186.446L88.6993 190.34C88.6856 190.426 88.6681 190.511 88.6466 190.596C88.544 190.996 78.3829 230.907 74.0685 257.507C72.7589 265.586 79.3927 272.866 93.7872 279.146C95.3058 279.808 96.0001 281.576 95.338 283.095C94.8458 284.223 93.7433 284.896 92.586 284.896L92.586 284.896Z" fill="black"/>
<path d="M133.704 293.394C126.059 293.395 118.561 292.704 111.604 291.313C109.979 290.988 108.925 289.407 109.25 287.783C109.576 286.159 111.148 285.102 112.78 285.429C128.02 288.477 146.024 287.97 162.179 284.04C185.147 278.454 209.085 273.605 227.185 280.845C228.723 281.46 229.471 283.206 228.856 284.744C228.241 286.283 226.493 287.031 224.956 286.415C208.503 279.834 185.622 284.513 163.597 289.87C153.972 292.211 143.712 293.394 133.704 293.394H133.704Z" fill="black"/>
<path d="M198.404 137.925C209.209 166.054 219.424 198.006 221.631 207.793C225.555 225.196 227.628 231.494 223.42 246.855L221.19 260.872C220.211 267.562 226.402 273.407 233.302 270.992C240.202 268.578 239.5 263.433 243.857 260.404C247.992 257.53 257.572 261.742 263.101 269.383C268.63 277.023 279.745 277.73 284.527 277.425C291.325 276.992 297.466 272.167 296.682 264.989C295.899 257.812 287.06 254.742 283.586 253.321C279.691 251.728 267.203 245.853 260.287 236.912C253.687 228.379 241.581 181.808 235.47 158.275L198.404 137.925V137.925Z" fill="white"/>
<path d="M282.745 280.478C277.829 280.478 266.713 279.49 260.671 271.142C255.542 264.053 247.593 261.461 245.571 262.868C244.336 263.726 243.651 264.883 242.784 266.348C241.287 268.88 239.422 272.03 234.294 273.825C230.205 275.254 225.827 274.506 222.575 271.824C219.262 269.092 217.594 264.729 218.221 260.439C218.461 258.799 219.987 257.666 221.625 257.904C223.263 258.144 224.398 259.668 224.159 261.307C223.828 263.567 224.664 265.769 226.393 267.196C227.358 267.992 229.411 269.176 232.311 268.161C235.374 267.09 236.316 265.497 237.621 263.293C238.66 261.536 239.838 259.545 242.146 257.941C247.287 254.367 258.383 257.746 265.533 267.625C270.917 275.064 282.979 274.519 284.337 274.432C287.451 274.233 290.335 272.897 292.051 270.856C293.376 269.281 293.93 267.417 293.701 265.315C293.163 260.385 286.68 257.792 283.197 256.399L282.451 256.098C279.736 254.988 265.792 248.931 257.915 238.748C251.764 230.796 242.098 195.734 232.568 159.029C218.605 108.967 211.653 94.7474 207.5 86.2515C206.74 84.6981 206.084 83.356 205.476 81.9896C204.803 80.4757 205.485 78.7027 206.999 78.0296C208.517 77.3573 210.286 78.0384 210.959 79.5526C211.522 80.8189 212.156 82.1153 212.889 83.6163C217.133 92.2967 224.237 106.825 238.361 157.47C243.773 178.313 256.416 227.002 262.661 235.078C269.747 244.239 283.21 249.927 284.722 250.545L285.425 250.828C289.746 252.556 298.737 256.152 299.666 264.664C300.074 268.405 299.029 271.881 296.643 274.718C293.852 278.036 289.506 280.114 284.719 280.42C284.3 280.446 283.621 280.478 282.745 280.478L282.745 280.478Z" fill="black"/>
<path d="M223.423 249.855C223.16 249.855 222.893 249.821 222.628 249.748C221.03 249.31 220.09 247.66 220.527 246.062C224.217 232.594 222.855 226.636 219.567 212.242C219.292 211.037 219.004 209.777 218.705 208.453C216.632 199.256 206.601 167.628 195.604 139C195.011 137.454 195.783 135.718 197.329 135.124C198.88 134.53 200.611 135.302 201.206 136.849C212.298 165.725 222.445 197.763 224.558 207.133C224.855 208.452 225.142 209.706 225.416 210.906C228.84 225.889 230.401 232.727 226.314 247.647C225.949 248.98 224.741 249.855 223.423 249.855V249.855Z" fill="black"/>
<path d="M262.194 159.015C263.667 157.689 266.923 151.528 265.463 150.188C245.356 131.731 222.631 95.9146 214.762 82.5152C198.356 54.5817 190.37 50.7959 181.37 51.7959C162.432 53.9001 171.168 68.0037 176.852 87.8909C181.373 103.708 180.287 175.983 203.641 180.947C221.376 162.768 241.772 177.4 262.194 159.015H262.194Z" fill="#2D8C3C"/>
<path d="M198.538 187.938C198.002 187.938 197.459 187.795 196.969 187.493C195.558 186.624 195.118 184.777 195.986 183.366C202.392 172.956 216.101 170.74 229.359 168.597C240.388 166.814 251.793 164.97 259.283 158.679C261.146 157.116 262.217 155.2 262.301 153.285C262.376 151.586 261.664 149.935 260.243 148.511C246.785 135.022 235.965 117.665 225.501 100.879C218.357 89.4182 211.609 78.5925 204.813 70.4743L204.131 69.6586C200.543 65.3681 196.078 60.0288 192.18 56.4733C190.955 55.3569 190.868 53.4594 191.985 52.2353C193.101 51.0114 194.998 50.9235 196.223 52.0402C200.421 55.8688 205.03 61.3808 208.734 65.8098L209.414 66.623C216.478 75.0627 223.334 86.0612 230.593 97.7053C240.879 114.206 251.515 131.268 264.491 144.273C267.093 146.881 268.443 150.175 268.295 153.549C268.136 157.164 266.306 160.618 263.142 163.274C254.384 170.629 242.149 172.607 230.317 174.52C217.843 176.536 206.062 178.441 201.096 186.51C200.529 187.431 199.546 187.938 198.538 187.938L198.538 187.938Z" fill="black"/>
</svg>
