<svg width="300" height="251" viewBox="0 0 300 251" fill="none" xmlns="http://www.w3.org/2000/svg">
<path d="M123.56 3.66993C87.0002 15.7144 88.3161 30.7334 81.0002 38.7144C73.6843 46.6954 59.7913 67.6903 50.0002 77.7144C45.0019 82.8316 54.0002 89.7144 61.0002 92.7144C68.0002 95.7144 99.7285 103.865 108.729 100.865C117.729 97.8651 125.04 86.2506 130.729 68.8651C136.417 51.4795 138.819 46.5597 141.579 35.2311C131.629 17.1933 126.729 7.86509 123.56 3.66992V3.66993Z" fill="#2D8C3C"/>
<path d="M48.9986 85.7157C48.5806 85.7157 48.1568 85.628 47.7515 85.4425C46.2447 84.7528 45.5836 82.9723 46.273 81.4659C50.5553 72.1153 61.8883 58.5907 67.9771 51.3246C69.6588 49.3182 70.9869 47.7335 71.6002 46.9149C71.6392 46.8629 71.6803 46.8121 71.7232 46.7625C74.9781 42.9647 77.4156 38.2899 79.9957 33.3407C86.5357 20.7977 93.9478 6.58138 117.261 2.90218C118.893 2.64461 120.435 3.76107 120.692 5.39779C120.951 7.03451 119.834 8.57064 118.197 8.82894C97.8697 12.0367 91.772 23.7323 85.316 36.1146C82.7076 41.1173 80.0113 46.2894 76.3404 50.5946C75.6177 51.5492 74.3336 53.0806 72.5757 55.1783C66.6685 62.2276 55.6734 75.3492 51.7281 83.9639C51.2242 85.0655 50.1363 85.7157 48.9986 85.7157L48.9986 85.7157Z" fill="black"/>
<path d="M104.365 224.078C104.291 224.078 104.217 224.075 104.143 224.07C102.491 223.949 101.248 222.511 101.369 220.859C101.525 218.742 101.718 216.155 101.939 213.185C104.129 183.84 109.257 115.121 107.494 97.4295C106.121 83.6526 106.75 66.1826 107.246 56.9951C107.336 55.3406 108.726 54.0728 110.405 54.1616C112.059 54.251 113.327 55.6648 113.239 57.3193C112.75 66.3347 112.131 83.4568 113.464 96.8345C115.28 115.046 110.124 184.131 107.922 213.631C107.702 216.598 107.508 219.182 107.354 221.297C107.239 222.875 105.922 224.078 104.365 224.078Z" fill="black"/>
<path d="M206.445 227.219C204.876 227.219 203.555 225.998 203.454 224.41C202.324 206.688 200.645 191.332 199.153 178.648C197.46 164.259 196.938 112.549 199.33 97.3063C199.586 95.6686 201.129 94.5487 202.758 94.8077C204.395 95.0643 205.514 96.5995 205.257 98.2365C202.978 112.766 203.493 164.181 205.112 177.946C206.614 190.709 208.302 206.165 209.442 224.028C209.547 225.681 208.293 227.107 206.639 227.213C206.574 227.217 206.509 227.219 206.445 227.219V227.219Z" fill="black"/>
<path d="M125.991 8.92562C125.991 8.92562 135.964 3.9375 151.929 3.9375C173.877 3.9375 195.824 11.9185 189.506 19.5669C183.188 27.2154 102.713 34.8638 125.991 8.92562Z" fill="white"/>
<path d="M208.729 31.8651C192.729 1.8651 180.758 4.1134 180.758 4.1134C169.086 15.7859 137.013 14.2758 128.402 5.66522C128.402 5.66522 121.948 7.57384 115.729 15.8651C109.157 24.6288 100.592 42.264 99.1606 57.0646C97.7294 71.8651 86.8285 128.781 86.6811 129.876C77.12 200.794 64.768 215.449 77.2365 227.227C102.061 250.675 147.739 250.163 163.248 244.024C195.172 231.388 220.952 238.26 229.012 241.142C251.53 257.797 215.53 61.7972 208.729 31.8651L208.729 31.8651Z" fill="#2D8C3C"/>
<path d="M150.656 16.0827C150.192 16.0827 149.73 16.0762 149.268 16.0632C140.04 15.802 131.692 12.8135 126.362 7.86351C125.147 6.73607 125.076 4.83788 126.204 3.62376C127.331 2.41063 129.23 2.3386 130.444 3.46702C138.925 11.3415 158.031 13.6531 176.74 2.42771C178.162 1.57566 180.003 2.03635 180.856 3.45676C181.708 4.87741 181.247 6.72019 179.827 7.57273C170.526 13.1538 160.469 16.0827 150.656 16.0827L150.656 16.0827Z" fill="black"/>
<path d="M92.9464 241.965C92.546 241.965 92.1397 241.884 91.7491 241.714C74.5206 234.199 66.7013 224.745 68.5059 213.615C72.6964 187.771 82.3194 149.618 83.1368 146.396C84.13 136.833 85.462 129.497 86.6378 123.018C88.0977 114.973 89.3595 108.025 89.7315 98.7446C89.7979 97.0896 91.1456 95.7917 92.8497 95.8674C94.5059 95.9338 95.794 97.3298 95.7276 98.9853C95.338 108.685 93.9796 116.167 92.5411 124.09C91.3184 130.825 90.0548 137.789 89.0831 147.229C89.0675 147.376 89.0421 147.521 89.0059 147.664C88.9034 148.064 78.7423 187.976 74.4278 214.576C73.1183 222.655 79.753 229.935 94.1476 236.214C95.6661 236.876 96.3604 238.645 95.6983 240.163C95.2061 241.291 94.1036 241.965 92.9464 241.965H92.9464Z" fill="black"/>
<path d="M134.064 250.463C126.418 250.463 118.921 249.773 111.963 248.381C110.338 248.056 109.285 246.476 109.61 244.851C109.934 243.228 111.51 242.17 113.139 242.498C128.377 245.546 146.382 245.039 162.538 241.109C185.079 235.626 215.074 232.303 227.66 237.963C229.045 238.586 230.065 238.683 230.695 238.256C234.553 235.629 233.785 219.303 233.533 213.938C233.283 208.632 231.951 199.006 230.409 187.86C228.834 176.473 227.049 163.566 225.65 150.164C225.477 148.516 226.673 147.041 228.322 146.869C229.962 146.698 231.445 147.893 231.617 149.541C233.006 162.843 234.784 175.697 236.353 187.038C237.979 198.794 239.264 208.078 239.527 213.656C240.254 229.117 239.595 239.455 234.071 243.216C232.372 244.372 229.456 245.348 225.2 243.435C215.673 239.151 189.917 240.625 163.956 246.939C154.332 249.28 144.072 250.463 134.064 250.463V250.463Z" fill="black"/>
<path d="M123.807 98.9742C113.012 86.3448 81.4582 90.1892 81.4582 90.1892C75.6346 99.2122 55.4258 94.3152 55.4258 94.3152C55.4258 94.3152 59.9733 120.741 63.3542 122.788C74.8539 129.752 88.1793 128.873 101.246 125.837C114.312 122.801 143 114.714 143 114.714C143 114.714 134.603 111.604 123.807 98.9742L123.807 98.9742Z" fill="white"/>
<path d="M86.6143 130.215C75.7823 130.215 64.9962 127.611 59.1622 123.085C50.4464 116.322 45.5216 101.827 52.3673 89.2779C53.1612 87.8236 54.9835 87.287 56.4376 88.0811C57.8926 88.8746 58.4278 90.6969 57.6348 92.1515C52.3897 101.766 56.253 113.233 62.8399 118.345C69.6553 123.632 86.3829 125.773 98.6417 122.925C111.484 119.941 128.056 115.237 128.222 115.19C129.815 114.737 131.475 115.66 131.928 117.255C132.381 118.848 131.456 120.508 129.862 120.961C129.695 121.008 112.986 125.752 99.9991 128.769C95.7764 129.75 91.1915 130.215 86.6143 130.215V130.215Z" fill="black"/>
<path d="M247.001 124.714C253.001 120.714 259.001 116.714 254.001 93.7141C249.001 70.7141 242.18 73.8923 233.18 40.8923C224.525 9.15755 195.18 3.89228 186.18 4.89228C177.18 15.8923 171.527 25.0727 177.211 44.9599C181.732 60.7766 199.001 89.7142 211.001 94.7142C228.001 91.7142 241.001 125.714 247.001 124.714V124.714Z" fill="#2D8C3C"/>
<path d="M147.764 78.316C147.764 78.316 181.735 63.9324 200 69.7142C216.027 74.7874 219.43 79.0936 219 84.7142C219.238 95.8217 186.649 95.8564 177.87 96.9249C169.091 97.9934 147.764 78.316 147.764 78.316H147.764Z" fill="white"/>
<path d="M212.003 95.7155C210.961 95.7155 209.95 95.1725 209.396 94.2035C208.574 92.7648 209.074 90.9323 210.512 90.1103C214.975 87.56 214.543 85.0392 214.402 84.2108C213.634 79.7289 206.128 73.0602 198.463 71.6666C182.924 69.2299 151.755 81.0482 151.443 81.1681C149.895 81.7611 148.161 80.9843 147.57 79.4371C146.978 77.8895 147.752 76.1554 149.3 75.5636C150.639 75.0519 182.297 63.0573 199.465 65.7511C208.206 67.3395 218.933 75.1303 220.316 83.1979C220.794 85.9945 220.544 91.288 213.489 95.3197C213.019 95.588 212.508 95.7155 212.003 95.7155Z" fill="black"/>
<path d="M209.516 92.3418C199.086 107.818 174.234 88.1257 154.884 79.0633C148.196 75.9312 135.635 73.5595 124.541 69.1103C113.069 60.2229 106.029 58.5393 96.4298 62.9162C76.2545 72.115 75.6817 91.7874 77.1205 94.7943C78.5593 97.8012 81.2741 93.677 98.3948 92.1708C121.024 90.1799 123.45 98.952 140.002 111.715C157.071 124.877 192.176 141.911 209.002 140.715C230.176 139.21 237.163 120.098 237.163 120.098C237.163 120.098 225.033 95.372 209.516 92.3418H209.516Z" fill="white"/>
<path d="M203.435 143.819C195.183 143.819 184.271 141.106 172.923 136.18C159.471 130.341 147.04 122.131 137.92 113.063C123.034 98.2623 110.789 88.285 88.6872 94.7526C87.0905 95.2189 85.4303 94.3051 84.9655 92.7155C84.4997 91.1254 85.4118 89.4591 87.0016 88.9938C112.169 81.6305 126.867 93.6112 142.15 108.808C160.904 127.456 190.721 139.013 205.744 137.726C227.287 135.879 235.209 119.599 235.287 119.434C235.994 117.937 237.782 117.296 239.28 118.002C240.778 118.709 241.42 120.497 240.713 121.995C240.336 122.793 231.202 141.565 206.256 143.704C205.356 143.781 204.414 143.819 203.435 143.819Z" fill="black"/>
<path d="M70.7389 96.9266C58.5162 96.9266 48.3883 88.5565 46.276 83.97C45.5826 82.4652 46.2408 80.6834 47.7457 79.9901C49.2496 79.2969 51.0309 79.9547 51.7252 81.4598C52.8717 83.9503 62.3111 92.2332 73.4596 90.744C73.3482 85.2469 74.107 72.8441 82.3424 64.7203C88.4537 58.6922 97.2652 56.3465 108.525 57.7445C110.169 57.9486 111.337 59.4471 111.132 61.0914C110.927 62.7359 109.425 63.9007 107.785 63.6986C98.4488 62.5389 91.3131 64.3133 86.5758 68.9722C78.0289 77.3775 79.5631 92.701 79.5797 92.8548C79.7379 94.3331 78.7906 95.7088 77.3522 96.0831C75.1051 96.6673 72.8893 96.9266 70.7389 96.9266L70.7389 96.9266Z" fill="black"/>
<path d="M198.035 98.8592C182.073 98.8592 164.185 89.6954 152.263 83.5877C150.107 82.4835 148.071 81.4403 146.312 80.587C139.08 77.0789 123.874 74.1212 123.721 74.0919C122.095 73.7782 121.03 72.2049 121.344 70.5782C121.658 68.951 123.229 67.8868 124.857 68.2003C125.512 68.3265 140.99 71.3363 148.931 75.1886C150.748 76.0706 152.813 77.128 154.998 78.2476C169.968 85.9168 195.023 98.7501 210.624 89.8445C212.065 89.0223 213.897 89.5237 214.717 90.9625C215.538 92.4012 215.038 94.2337 213.599 95.055C208.861 97.7601 203.563 98.8592 198.035 98.8592H198.035Z" fill="black"/>
<path d="M245.12 125.768C244.661 125.768 244.195 125.746 243.723 125.702C238.822 125.245 236.148 120.538 233.052 115.087C228.572 107.2 223.495 98.2609 210.871 97.7118C209.216 97.64 207.931 96.2396 208.004 94.5844C208.076 92.9293 209.497 91.6483 211.131 91.7177C227.073 92.4108 233.544 103.804 238.269 112.124C240.347 115.78 242.494 119.561 244.279 119.728C246.523 119.937 248.313 119.345 249.745 117.915C252.348 115.318 253.57 110.111 253.014 103.986C252.184 94.8754 245.829 80.7389 240.722 69.3803C239.942 67.6476 239.182 65.9576 238.462 64.3297C236.088 58.9757 234.148 53.4088 232.272 48.0255C230.038 41.6117 227.727 34.9794 224.716 28.8622C219.437 18.1412 204.408 12.8373 193.562 9.78016C191.968 9.3307 191.039 7.67347 191.488 6.07874C191.937 4.48401 193.602 3.5575 195.189 4.00525C207.14 7.37366 223.762 13.3407 230.098 26.2123C233.272 32.6586 235.644 39.4669 237.938 46.0512C239.774 51.3204 241.673 56.7692 243.946 61.8986C244.664 63.517 245.42 65.1971 246.194 66.9196C251.761 79.2997 258.069 93.3312 258.988 103.443C259.716 111.44 257.891 118.263 253.983 122.163C251.604 124.536 248.562 125.768 245.12 125.768Z" fill="black"/>
</svg>
