<svg width="305" height="266" viewBox="0 0 305 266" fill="none" xmlns="http://www.w3.org/2000/svg">
<path d="M103.472 66.3801C93.9426 86.2732 85.1602 109.654 78.7613 131.082C72.3624 152.509 54.1667 196.891 45.7197 203.609C36.8692 210.647 23.335 213.378 19.1711 213.998C15.4562 214.55 6.13697 215.425 3.66458 222.212C1.19218 229 6.00895 235.151 12.5101 237.193C17.0838 238.629 28.0516 240.592 35.245 234.486C42.4385 228.381 47.7869 226.006 51.1189 229.784C54.6302 233.766 52.7218 238.597 58.8504 242.588C64.9791 246.579 72.3877 242.376 73.0311 235.643L77.5729 225.551C78.8886 221.378 79.6482 212.07 78.9129 206.122C77.5052 194.736 84.9457 177.177 97.5956 147.961L103.473 66.3801H103.472Z" fill="white"/>
<path d="M63.9317 247.132C61.6085 247.132 59.2813 246.449 57.214 245.104C52.6573 242.137 51.5983 238.632 50.7464 235.815C50.253 234.185 49.8642 232.897 48.8696 231.769C47.2292 229.907 43.2979 231.591 37.1888 236.775C27.928 244.635 14.2571 240.887 11.6124 240.057C7.03326 238.619 3.30608 235.563 1.38631 231.674C-0.255998 228.349 -0.442598 224.722 0.845055 221.186C3.77795 213.136 13.37 211.786 17.9803 211.137L18.7307 211.029C20.3466 210.789 34.7844 208.472 43.8528 201.26C51.1694 195.441 69.1752 152.699 75.8871 130.223C76.3609 128.635 78.0354 127.731 79.6221 128.206C81.2106 128.68 82.1134 130.352 81.6395 131.941C76.0238 150.744 57.3361 198.206 47.5888 205.958C37.5092 213.974 22.5165 216.534 19.6139 216.966L18.8176 217.081C15.1012 217.604 8.18415 218.578 6.48518 223.24C5.76221 225.227 5.85698 227.171 6.7685 229.016C7.9487 231.408 10.4322 233.395 13.41 234.33C14.7084 234.738 26.3023 238.142 33.3043 232.198C37.051 229.02 46.9967 220.575 53.3715 227.799C55.2307 229.908 55.9009 232.123 56.492 234.078C57.2335 236.53 57.7689 238.302 60.4888 240.073C63.0651 241.752 65.3435 241.089 66.4709 240.546C68.4913 239.572 69.8278 237.632 70.0447 235.358C70.202 233.707 71.6753 232.496 73.3176 232.656C74.9677 232.813 76.1772 234.278 76.0199 235.929C75.6076 240.246 72.9473 244.087 69.0775 245.953C67.442 246.742 65.6883 247.132 63.9317 247.132V247.132Z" fill="black"/>
<path d="M124.92 17.3287C98.5627 28.1633 98.7694 47.5862 90.1196 54.9053C81.4698 62.2243 62.1741 133.419 27.009 165.021C18.8471 172.356 26.4335 188.485 30.1352 190.805C40.235 197.134 51.5131 204.308 68.2618 209.601C71.0796 210.491 87.1899 212.356 92.8804 194.963C98.571 177.57 140.202 52.7902 142.963 41.4567C133.009 23.4112 136.935 28.9034 124.92 17.3287L124.92 17.3287Z" fill="white"/>
<path d="M66.1653 209.61C50.1819 209.61 33.3807 198.695 27.938 192.851C19.8271 184.142 16.1985 171.034 24.9562 162.831C47.4395 141.774 61.002 110.221 71.9002 84.8677C77.6664 71.4527 82.646 59.8672 87.7176 53.1045C88.7141 51.7785 90.5977 51.5103 91.9196 52.5044C93.2453 53.499 93.515 55.3802 92.5204 56.7062C87.8778 62.8958 83.029 74.1763 77.4143 87.2381C66.2963 113.105 52.4593 145.298 29.0596 167.212C24.7384 171.259 23.9197 179.728 32.3305 188.759C37.0024 193.775 52.2013 203.608 66.1653 203.608C67.8233 203.608 69.1666 204.951 69.1666 206.609C69.1666 208.267 67.8233 209.61 66.1653 209.61L66.1653 209.61Z" fill="black"/>
<path d="M102.296 55.2006C96.7525 56.7858 93.1014 76.5279 96.107 88.8396C99.1127 101.151 89.1303 130.988 85.4611 142.069C76.0369 170.53 66.8308 207.94 64.1694 219.917C61.5079 231.894 84.9546 245.758 100.099 246.532C103.157 246.688 100.099 224.575 100.099 224.575C100.099 224.575 129.409 232.141 131.068 230.531C138.418 223.399 126.214 215.44 120.414 188.762C116.901 172.599 112.486 145.946 110.175 120.154C108.845 105.31 102.593 55.1158 102.296 55.2006H102.296Z" fill="white"/>
<path d="M188.151 244.868C182.027 230.04 170.552 160.325 165.232 116.221C160.8 79.473 158.583 61.099 163.037 47.692C165.423 40.5093 171.72 24.8532 168.011 22.517C166.704 21.6941 184.653 25.5991 191.598 28.3522C187.913 21.3347 178.979 0.361967 152.764 0.0101863C110.01 -0.56355 108.85 23.298 129.291 21.3206C131.759 21.0819 125.762 24.6613 125.363 25.5669C113.371 52.7292 116.156 31.4869 105.321 69.188C97.8146 95.3095 93.1077 102.827 91.5724 116.952C90.6875 125.093 86.152 132.114 83.9172 162.079C83.1396 172.507 82.4045 221.306 82.3576 234.888C121.322 246.212 158.036 252.67 188.151 244.868H188.151Z" fill="white"/>
<path d="M163.037 47.6918C164.145 44.356 166.096 39.1931 167.497 34.3852C156.487 33.3499 135.729 32.6334 124.941 31.2849C105.316 98.9897 96.4373 169.158 100.448 239.805C132.638 247.883 162.743 251.451 188.151 244.868C182.027 230.04 170.552 160.325 165.232 116.22C160.799 79.4728 158.583 61.0988 163.037 47.6918Z" fill="#82BE28"/>
<path d="M97.6609 93.1649C94.1122 86.5111 86.817 39.3839 93.0033 24.632C101.653 4.00557 140.613 -1.89187 135.291 6.09254C129.968 14.077 113.449 56.9585 97.6609 93.1649Z" fill="white"/>
<path d="M140.911 248.868C140.883 248.868 140.855 248.868 140.827 248.867C122.701 248.37 108.572 245.813 98.8313 241.267C97.3287 240.566 96.68 238.78 97.3805 237.278C98.0829 235.776 99.8698 235.127 101.369 235.828C110.235 239.965 123.936 242.399 140.991 242.867C142.648 242.912 143.954 244.292 143.909 245.949C143.864 247.578 142.53 248.868 140.911 248.868L140.911 248.868Z" fill="black"/>
<path d="M97.5226 251.025C91.6666 251.025 82.4585 246.898 76.9503 243.608C71.0298 240.071 61.1935 232.781 61.8423 223.695C62.9912 207.609 69.3201 187.414 76.0202 166.034C81.3008 149.183 86.7621 131.758 90.5108 114.163C90.8567 112.542 92.4501 111.507 94.0719 111.853C95.6937 112.199 96.7274 113.793 96.3825 115.414C92.5742 133.284 87.0699 150.846 81.7483 167.829C75.1556 188.866 68.9283 208.736 67.8292 224.123C67.6084 227.216 69.9834 230.95 74.5157 234.637C82.3022 240.97 92.9425 244.709 96.956 245.043C93.5893 202.963 106.157 56.9463 129.466 17.2142C130.305 15.7848 132.148 15.3059 133.573 16.1441C135.004 16.9829 135.482 18.8218 134.644 20.2516C124.789 37.0491 115.405 77.9742 108.899 132.533C103.502 177.783 101.057 225.603 103.087 246.238C103.246 247.844 102.531 249.315 101.176 250.174C100.241 250.767 98.9861 251.025 97.5226 251.025H97.5226Z" fill="black"/>
<path d="M95.9885 101.486C95.885 101.486 95.7804 101.481 95.6759 101.47C94.0268 101.299 92.829 99.8244 92.999 98.1755C93.9271 89.2166 92.3766 77.2449 90.8779 65.6674C88.4785 47.1331 86.2119 29.6266 92.4577 19.7056C104.57 0.469264 124.061 1.29652 124.88 1.34073C126.535 1.43037 127.804 2.8448 127.714 4.50005C127.625 6.15506 126.188 7.42342 124.556 7.33451C123.882 7.30398 107.719 6.73514 97.538 22.9037C92.4421 30.9973 94.6735 48.2307 96.8307 64.8966C98.3743 76.8153 99.9697 89.1394 98.9703 98.794C98.8101 100.338 97.5068 101.486 95.9885 101.486V101.486Z" fill="black"/>
<path d="M177.259 8.57009C201.212 19.216 215.758 42.6053 215.751 46.5863C215.741 52.5502 210.664 61.6315 206.444 66.9605C201.939 72.6487 201.631 79.1508 206.974 108.481C210.455 127.589 214.55 138.757 219.525 154.972C231.676 194.583 240.049 230.354 234.06 243.427C225.343 262.457 156.656 260.283 156.434 251.411C156.118 238.771 149.517 177.777 151.957 149.832C152.949 138.459 151.846 118.798 152.178 94.1625C152.401 77.6305 154.02 55.3609 160.828 28.9565C163.831 17.3109 171.936 10.5662 177.259 8.57009H177.259Z" fill="white"/>
<path d="M172.279 261.475C160.677 261.475 154.415 258.858 153.278 253.597C153.263 253.525 153.25 253.452 153.24 253.379C147.484 212.2 145.104 67.0044 155.323 28.1713C155.745 26.5683 157.391 25.6106 158.99 26.0326C160.593 26.4545 161.55 28.0958 161.128 29.6988C151.302 67.0388 153.621 212.352 159.159 252.362C159.384 252.86 162.908 258.704 197.073 252.888C217.452 249.419 231.905 244.689 242.557 238.001C243.961 237.12 245.811 237.543 246.694 238.947C247.576 240.351 247.152 242.203 245.748 243.085C234.408 250.205 219.262 255.2 198.08 258.805C187.636 260.583 179.047 261.475 172.279 261.475V261.475Z" fill="black"/>
<path d="M204.785 93.8301C204.785 93.8301 224.567 183.494 226.774 193.285C230.7 210.695 232.774 216.996 228.565 232.364L226.333 246.387C225.354 253.079 231.548 258.927 238.451 256.511C245.354 254.096 244.652 248.949 249.011 245.918C253.147 243.043 262.732 247.257 268.263 254.901C273.794 262.545 284.914 263.252 289.698 262.947C296.498 262.513 302.642 257.687 301.858 250.506C301.075 243.325 292.232 240.254 288.756 238.832C284.86 237.239 272.366 231.362 265.448 222.417C258.845 213.88 231.521 103.408 217.881 76.1284L204.785 93.8301V93.8301Z" fill="white"/>
<path d="M256.708 204.25C255.442 204.25 254.266 203.443 253.855 202.173C247.985 184.057 241.555 159.295 237.715 144.5C223.746 94.4155 216.791 80.1902 212.636 71.6907C211.876 70.1363 211.219 68.7939 210.612 67.4269C209.938 65.9123 210.62 64.1386 212.135 63.4652C213.652 62.7923 215.424 63.4738 216.096 64.9888C216.66 66.2557 217.294 67.5527 218.028 69.0543C222.274 77.7384 229.38 92.2733 243.51 142.939C247.349 157.722 253.75 182.376 259.564 200.323C260.075 201.9 259.211 203.593 257.635 204.104C257.327 204.203 257.015 204.25 256.708 204.25V204.25Z" fill="black"/>
<path d="M287.914 266C282.996 266 271.876 265.012 265.831 256.661C260.699 249.569 252.744 246.975 250.724 248.383C249.489 249.241 248.803 250.399 247.936 251.865C246.438 254.397 244.573 257.549 239.442 259.344C235.354 260.774 230.972 260.027 227.718 257.343C224.404 254.609 222.736 250.245 223.363 245.953C223.603 244.313 225.128 243.178 226.768 243.417C228.407 243.658 229.542 245.182 229.303 246.822C228.972 249.083 229.808 251.285 231.538 252.713C232.503 253.509 234.558 254.694 237.459 253.678C240.523 252.606 241.465 251.013 242.771 248.808C243.81 247.051 244.989 245.059 247.298 243.454C252.446 239.877 263.543 243.261 270.695 253.142C276.08 260.584 288.149 260.038 289.507 259.952C292.623 259.753 295.507 258.416 297.225 256.374C298.549 254.799 299.104 252.934 298.875 250.832C298.336 245.899 291.85 243.305 288.366 241.911L287.62 241.61C284.904 240.499 270.954 234.44 263.073 224.253C262.059 222.942 262.299 221.057 263.611 220.043C264.922 219.03 266.807 219.268 267.821 220.581C274.91 229.746 288.38 235.436 289.892 236.055L290.595 236.338C294.918 238.067 303.913 241.664 304.842 250.18C305.251 253.922 304.205 257.4 301.818 260.238C299.026 263.557 294.679 265.637 289.889 265.942C289.47 265.969 288.79 266 287.914 266Z" fill="black"/>
<path d="M228.566 235.365C228.303 235.365 228.036 235.33 227.771 235.258C226.172 234.82 225.231 233.169 225.669 231.57C229.36 218.097 227.998 212.136 224.709 197.736C224.433 196.53 224.145 195.27 223.846 193.944C222.692 188.827 217.345 172.081 210.541 152.274C210.002 150.706 210.837 148.999 212.405 148.46C213.976 147.92 215.679 148.756 216.218 150.324C223.192 170.628 228.486 187.232 229.702 192.624C229.999 193.943 230.286 195.199 230.56 196.399C233.985 211.388 235.547 218.229 231.459 233.156C231.093 234.489 229.885 235.365 228.566 235.365V235.365Z" fill="black"/>
<path d="M215.752 46.5858C220.921 54.8429 243.496 99.189 251.398 118.115C259.299 137.041 273.355 172.675 284.001 191.306C293.754 208.375 235.429 221.913 215.711 218.58C208.547 217.37 203.235 207.03 203.342 199.798C203.449 192.566 198.937 153.457 199.093 146.003C199.249 138.548 199.086 120.669 199.086 120.669C182.163 144.398 169.88 136.043 166.859 129.759C163.838 123.475 196.689 61.4622 199.39 54.8067C202.092 48.1512 194.174 20.2902 200.227 25.7376C204.663 29.7298 215.752 46.5858 215.752 46.5858H215.752Z" fill="white"/>
<path d="M171.096 115.928C170.837 115.928 170.573 115.895 170.311 115.824C168.711 115.392 167.764 113.744 168.196 112.144C170.567 103.363 175.66 92.5925 181.053 81.1902C188.96 64.4723 197.921 45.524 195.97 35.6501C192.241 16.7726 176.495 11.4764 176.336 11.4251C174.759 10.9151 173.894 9.22298 174.404 7.64588C174.915 6.06782 176.611 5.20539 178.183 5.71365C178.967 5.96742 197.454 12.1852 201.859 34.4868C204.193 46.3014 195.188 65.3425 186.479 83.7565C181.205 94.9097 176.222 105.444 173.992 113.709C173.63 115.047 172.419 115.928 171.096 115.928Z" fill="black"/>
<path d="M265.712 158.412C264.606 158.412 263.541 157.797 263.019 156.738C255.461 141.42 249.825 128.541 245.311 117.963C243.068 112.711 240.926 106.387 238.446 99.0639C231.754 79.3022 223.425 54.7082 207.832 36.569C206.751 35.3121 206.895 33.4173 208.151 32.3367C209.408 31.2565 211.304 31.3986 212.384 32.6562C228.736 51.6788 237.273 76.8849 244.132 97.1385C246.572 104.344 248.679 110.567 250.831 115.607C255.314 126.11 260.908 138.894 268.402 154.082C269.135 155.568 268.525 157.368 267.038 158.101C266.611 158.312 266.159 158.412 265.712 158.412Z" fill="black"/>
<path d="M222.028 223.021C219.437 223.021 217.371 222.834 216.029 222.465C207.988 220.253 203.125 214.491 200.724 204.332C198.834 196.34 195.432 168.56 196.084 120.629C196.106 118.986 197.446 117.669 199.084 117.669L199.126 117.669C200.783 117.691 202.109 119.053 202.086 120.711C201.418 169.812 205.094 196.724 206.566 202.951C208.458 210.961 211.764 215.066 217.621 216.678C224.211 218.492 266.733 212.963 277.936 198.773C280.903 195.015 281.148 191.199 278.708 186.765C275.994 181.83 273.355 176.918 270.866 172.165C270.096 170.696 270.664 168.882 272.132 168.113C273.603 167.343 275.415 167.912 276.183 169.379C278.654 174.097 281.274 178.973 283.968 183.872C287.562 190.406 287.105 196.844 282.647 202.492C271.679 216.388 237.492 223.021 222.028 223.021L222.028 223.021Z" fill="black"/>
<path d="M142.558 25.9378C141.669 26.3526 140.924 26.7967 140.318 27.2691L140.399 25.5777C140.399 25.5777 124.674 6.00684 121.325 18.9241C118.22 30.9007 114.671 44.6516 127.091 40.6594C139.512 36.6672 140.244 38.161 140.244 38.161C140.244 38.161 139.799 36.7152 150.252 44.5214C160.704 52.3278 162.867 36.8303 164.641 25.2972C166.67 12.1082 142.558 25.9378 142.558 25.9378Z" fill="#2D8C3C"/>
<path d="M156.081 49.8883C153.799 49.8883 151.269 48.9143 148.519 46.972C143.596 43.494 140.527 41.2923 138.968 40.1669C137.172 40.7518 133.673 41.8578 127.935 43.5389C121.82 45.3302 118.578 43.5308 116.93 41.7073C112.302 36.5828 115.254 25.8734 118.544 17.7915C120.365 13.3206 123.245 12.0693 125.338 11.8068C131.465 11.0386 138.116 18.0138 141.257 21.8113C146.297 19.4609 157.099 15.2159 162.873 18.8459C164.622 19.9455 166.676 22.205 166.531 26.7241C166.21 36.67 165.125 46.2662 159.404 49.1133C158.364 49.6304 157.255 49.8883 156.081 49.8883H156.081ZM139.48 33.8311C140.11 33.8311 140.733 34.029 141.254 34.4105C141.285 34.4332 144.436 36.7379 151.984 42.0695C154.111 43.5731 155.841 44.181 156.73 43.7392C157.962 43.1259 160.094 40.0745 160.532 26.5306C160.597 24.5054 159.929 24.086 159.678 23.928C156.702 22.0548 147.241 25.3939 141.786 28.2384C140.478 28.9201 138.865 28.5488 137.985 27.3616C134.834 23.1063 128.919 17.3983 126.085 17.763C125.352 17.855 124.686 18.6264 124.103 20.0554C120.124 29.8289 119.904 36.0447 121.385 37.6841C122.328 38.7283 124.835 38.1919 126.247 37.7786C134.932 35.2338 138.458 34.0104 138.492 33.9984C138.815 33.8861 139.149 33.8311 139.48 33.8311H139.48Z" fill="black"/>
</svg>
