<svg width="300" height="254" viewBox="0 0 300 254" fill="none" xmlns="http://www.w3.org/2000/svg">
<path d="M113.437 23.9977C121.495 7.81407 144.726 3.02817 160.671 3.84257C202.808 5.99477 187.257 36.1555 176.688 39.9174C147.964 50.141 97.8779 55.247 113.437 23.9977V23.9977Z" fill="white"/>
<path d="M126.026 12.8203C117.46 17.8655 111.094 27.3322 104.428 41.2753C94.9021 61.2001 86.1235 84.6186 79.7274 106.08C73.3312 127.541 55.1434 171.994 46.6999 178.723C37.8532 185.773 24.325 188.508 20.1629 189.128C16.4496 189.682 7.13433 190.558 4.663 197.356C2.19168 204.154 7.00637 210.316 13.5047 212.361C18.0765 213.799 29.0395 215.765 36.2298 209.65C43.4201 203.535 48.7663 201.155 52.0969 204.94C55.6066 208.928 53.6991 213.767 59.825 217.764C65.951 221.762 73.3565 217.552 73.9996 210.808L78.5395 200.7C79.8545 196.52 80.6139 187.197 79.8789 181.24C78.4718 169.836 85.9091 152.249 98.5536 122.986L126.026 12.8203Z" fill="white"/>
<path d="M64.9041 222.314C62.5818 222.314 60.2547 221.631 58.1892 220.283C53.6346 217.311 52.575 213.801 51.7234 210.98C51.2312 209.347 50.8416 208.057 49.8475 206.927C48.2049 205.061 44.2762 206.748 38.1717 211.941C28.9149 219.813 15.2508 216.06 12.6073 215.228C8.03014 213.788 4.30359 210.727 2.38464 206.831C0.744025 203.501 0.557495 199.869 1.84558 196.326C4.77527 188.265 14.3631 186.912 18.9715 186.262L19.7215 186.154C21.3368 185.913 35.7684 183.593 44.8328 176.369C52.1463 170.542 70.1443 127.732 76.8533 105.219C83.6003 82.5807 92.4323 59.4101 101.722 39.9755C102.438 38.4781 104.231 37.8462 105.724 38.5632C107.218 39.2805 107.85 41.0756 107.134 42.573C97.9743 61.7331 89.2624 84.5923 82.6033 106.939C76.989 125.773 58.3094 173.312 48.5672 181.075C38.492 189.104 23.5057 191.668 20.6043 192.101L19.8085 192.215C16.0936 192.739 9.17956 193.715 7.48327 198.384C6.75866 200.375 6.85339 202.321 7.76452 204.17C8.94518 206.565 11.4266 208.555 14.4042 209.492C15.703 209.9 27.2889 213.31 34.2889 207.357C38.033 204.173 47.9774 195.715 54.3475 202.951C56.2058 205.063 56.8758 207.282 57.4666 209.239C58.2088 211.696 58.7439 213.471 61.4627 215.245C64.0379 216.925 66.3132 216.262 67.4412 215.718C69.4607 214.742 70.7966 212.8 71.0134 210.521C71.1716 208.868 72.6492 207.659 74.2849 207.815C75.9343 207.973 77.1433 209.44 76.9861 211.093C76.574 215.418 73.9148 219.265 70.0466 221.134C68.4119 221.923 66.659 222.314 64.9041 222.314L64.9041 222.314Z" fill="black"/>
<path d="M97.6001 33.1582C85.2566 41.9557 73.9777 54.2109 65.602 75.2195C58.8052 92.2679 39.6021 128.327 36.6021 142.355C33.6021 156.384 29.0758 177.244 33.7393 181.788C40.3088 188.189 58.3688 193.571 65.7126 193.469C65.7126 193.469 82.1707 194.446 88.3425 179.784C94.5142 165.121 97.6001 33.1582 97.6001 33.1582L97.6001 33.1582Z" fill="white"/>
<path d="M56.6047 194.46C56.3967 194.46 56.1848 194.438 55.9729 194.393C40.4075 191.051 35.1164 185.522 32.5745 182.866C27.7317 177.807 31.7014 150.426 36.7414 134.435C39.6291 125.27 47.1379 107.42 55.424 90.0176C59.9104 80.5975 71.1193 57.7676 78.3107 49.2521C79.3791 47.9849 81.2726 47.8261 82.5382 48.8988C83.8039 49.9713 83.9611 51.8682 82.8908 53.1354C78.1457 58.7547 70.1086 73.1412 60.8391 92.6068C52.6604 109.782 45.2756 127.319 42.4621 136.245C36.4006 155.482 35.5159 175.859 37.0041 178.808C39.3215 181.227 43.6614 185.601 57.2307 188.514C58.8508 188.862 59.882 190.46 59.5354 192.084C59.2336 193.495 57.9885 194.46 56.6047 194.46V194.46Z" fill="black"/>
<path d="M236.923 136.277C230.601 81.2547 226.607 48.884 226.607 48.884C237.012 40.1791 230.461 31.1451 224.343 27.3466C216.072 22.2122 216.457 -0.261674 186.045 3.42617C182.106 3.90382 162.58 4.5729 136.131 35.3492C131.937 30.326 125.275 20.0117 123.058 16.111C115.555 2.91241 105.371 7.74046 99.4453 18.9513C96.7517 24.0472 92.0638 30.7776 93.9595 37.1782C89.6015 59.2101 83.6015 109.311 78.6016 144.382C75.5784 179.418 57.1332 213.745 69.6016 225.546C94.4257 249.042 128.942 248.98 145.405 246.291C172.488 241.866 203.36 243.014 211.42 245.902C214.842 247.128 247.731 249.703 245.574 213.509C243.859 184.731 240.45 161.309 236.923 136.277V136.277Z" fill="white"/>
<path d="M81.2591 234.958C80.9017 234.958 80.5375 234.893 80.184 234.757C73.0131 231.994 64.5668 227.154 62.8891 214.132C62.0707 207.781 65.2523 192.723 69.1771 175.156C69.8881 171.973 70.5307 169.1 71.016 166.785C73.9271 152.9 75.3666 140.787 76.7592 129.073C78.9017 111.045 80.9252 94.0173 87.9896 73.394C88.5277 71.8235 90.2367 70.988 91.8011 71.527C93.3685 72.0659 94.2025 73.7759 93.6654 75.3462C86.807 95.364 84.8207 112.083 82.7172 129.784C81.309 141.628 79.8539 153.876 76.8871 168.021C76.3978 170.357 75.7504 173.257 75.0326 176.469C72.268 188.843 68.0902 207.544 68.8402 213.362C70.101 223.149 76.0717 226.731 82.3363 229.145C83.8832 229.741 84.6546 231.48 84.0599 233.029C83.6019 234.224 82.4652 234.957 81.2591 234.957V234.958Z" fill="black"/>
<path d="M130.141 250.1C118.712 250.1 107.684 248.179 97.5484 244.371C95.9976 243.788 95.2115 242.055 95.7935 240.5C96.3756 238.945 98.106 238.159 99.6558 238.741C114.731 244.406 131.982 245.596 149.534 242.186C173.02 237.623 190.969 240.022 208.329 242.342C210.131 242.583 211.927 242.823 213.721 243.054C230.337 245.192 239.358 238.984 242.128 223.518C243.615 215.224 241.575 189.183 236.382 150.191C236.163 148.546 237.317 147.033 238.959 146.814C240.594 146.594 242.111 147.751 242.329 149.396C246.059 177.405 250.076 213.185 248.034 224.58C244.716 243.094 232.582 251.544 212.957 249.017C211.153 248.785 209.347 248.544 207.536 248.301C190.656 246.045 173.201 243.712 150.676 248.088C143.76 249.432 136.88 250.1 130.141 250.1V250.1Z" fill="black"/>
<path d="M198.473 97.0299C209.277 125.216 219.492 157.233 221.699 167.04C225.623 184.478 227.696 190.789 223.488 206.181L221.258 220.227C220.279 226.929 226.47 232.786 233.37 230.367C240.27 227.948 239.568 222.793 243.925 219.757C248.06 216.877 257.641 221.098 263.17 228.754C268.699 236.41 279.813 237.119 284.595 236.813C291.393 236.379 297.534 231.544 296.751 224.352C295.967 217.16 287.129 214.084 283.654 212.66C279.759 211.064 267.271 205.177 260.356 196.218C253.756 187.667 241.649 141.002 235.539 117.421C219.004 58.0155 212.18 48.5411 208.285 39.7598L198.473 97.0299V97.0299Z" fill="white"/>
<path d="M282.813 239.871C277.897 239.871 266.782 238.881 260.74 230.516C255.61 223.413 247.659 220.815 245.639 222.225C244.405 223.085 243.719 224.245 242.852 225.713C241.355 228.249 239.491 231.406 234.362 233.204C230.273 234.636 225.893 233.886 222.643 231.2C219.331 228.461 217.663 224.09 218.29 219.791C218.53 218.149 220.056 217.013 221.693 217.252C223.332 217.492 224.466 219.019 224.227 220.661C223.896 222.926 224.732 225.132 226.461 226.562C227.426 227.36 229.479 228.547 232.379 227.529C235.442 226.456 236.384 224.86 237.689 222.651C238.728 220.891 239.907 218.896 242.214 217.289C247.355 213.707 258.452 217.093 265.601 226.991C270.986 234.446 283.045 233.9 284.406 233.813C287.519 233.614 290.403 232.274 292.119 230.23C293.444 228.652 293.998 226.784 293.769 224.678C293.231 219.737 286.748 217.139 283.265 215.743L282.519 215.442C279.803 214.329 265.859 208.259 257.983 198.057C251.832 190.089 242.166 154.956 232.636 118.176C218.673 68.0122 211.721 53.7642 207.568 45.2511C206.808 43.6945 206.152 42.3498 205.544 40.9805C204.872 39.4636 205.553 37.687 207.067 37.0126C208.583 36.3388 210.354 37.0214 211.027 38.5386C211.59 39.8075 212.224 41.1065 212.958 42.6105C217.202 51.3086 224.305 65.8666 238.429 116.613C243.841 137.499 256.484 186.287 262.729 194.379C269.814 203.557 283.279 209.258 284.79 209.877L285.494 210.161C289.814 211.893 298.805 215.496 299.734 224.025C300.142 227.773 299.097 231.257 296.711 234.099C293.92 237.424 289.575 239.507 284.787 239.813C284.369 239.839 283.689 239.871 282.813 239.871V239.871Z" fill="black"/>
<path d="M223.491 209.187C223.228 209.187 222.962 209.152 222.696 209.079C221.098 208.641 220.158 206.987 220.596 205.386C224.285 191.891 222.924 185.921 219.636 171.498C219.36 170.29 219.072 169.027 218.773 167.7C216.7 158.485 206.67 126.793 195.673 98.1071C195.079 96.5573 195.851 94.8184 197.397 94.223C198.948 93.628 200.68 94.4018 201.274 95.9513C212.366 124.886 222.514 156.989 224.627 166.378C224.924 167.699 225.211 168.956 225.484 170.159C228.908 185.172 230.47 192.024 226.383 206.974C226.017 208.31 224.809 209.187 223.491 209.187Z" fill="black"/>
<path d="M226.726 30.8984C231.492 41.0326 244.573 65.6923 248.603 84.2372C252.632 102.782 273.603 157.385 271.603 183.438C270.777 194.193 268.224 201.195 268.224 201.195C268.224 201.195 241.784 211.659 217.802 210.732C216.622 210.77 208.875 202.139 204.603 186.444C198.603 164.399 196.406 142.813 194.062 125.596C193.398 116.859 194.27 87.4594 194.27 87.4594L196.415 38.5194L226.726 30.8984Z" fill="white"/>
<path d="M224.149 215.085C222.275 215.085 220.542 214.959 218.995 214.684C213.761 213.753 206.785 200.591 202.518 188.755C197.693 175.367 192.054 152.962 192.601 122.261C192.631 120.619 193.969 119.308 195.6 119.308L195.655 119.309C197.311 119.338 198.631 120.708 198.601 122.368C197.637 176.433 216.133 206.421 220.236 208.797C233.029 210.915 263.759 200.556 268.792 197.07C270.124 195.403 270.902 187.712 267.16 160.72C266.936 159.106 266.749 157.752 266.625 156.756C266.089 152.461 262.985 140.616 259.984 129.161C257.555 119.891 255.044 110.306 253.669 103.909C251.862 95.5044 246.522 74.1514 235.985 57.4315C235.101 56.0276 235.519 54.171 236.921 53.2847C238.321 52.3991 240.174 52.8175 241.059 54.2214C252.108 71.7552 257.66 93.9248 259.534 102.643C260.881 108.909 263.376 118.428 265.788 127.635C268.979 139.815 271.993 151.32 272.578 156.01C272.7 156.986 272.883 158.312 273.103 159.893C276.966 187.763 276.767 198.76 272.341 201.919C267.179 205.604 240.417 215.084 224.149 215.085H224.149Z" fill="black"/>
<path d="M103.401 45.8095C107.601 49.4451 112.548 52.245 117.795 54.0462C122.972 55.8234 128.424 56.6622 133.885 56.8107C139.493 56.9631 144.927 56.1061 150.353 54.7444C155.679 53.4078 160.953 51.8803 166.409 51.1592C172.514 50.3525 178.692 50.3998 184.833 50.6329C190.757 50.8578 196.693 51.3773 202.624 51.3265C207.342 51.2861 212.049 50.8287 216.659 49.8054C221.18 48.8017 225.544 47.2797 229.817 45.5135C235.325 37.9372 229.671 30.6555 224.342 27.3466C216.072 22.2122 216.457 -0.261698 186.045 3.42618C182.106 3.90382 162.58 4.57291 136.13 35.3492C131.936 30.326 125.274 20.0117 123.057 16.111C115.555 2.91238 105.37 7.74044 99.4446 18.9513C96.8626 23.8362 92.4641 30.2226 93.7732 36.3812C97.0391 39.4643 100.001 42.8666 103.401 45.8095L103.401 45.8095Z" fill="white"/>
<path d="M151.787 57.3172C150.693 57.3172 149.637 56.7141 149.109 55.6681C148.361 54.1868 148.952 52.3782 150.431 51.6284C166.646 43.4031 179.492 45.3721 193.09 47.4574C194.555 47.682 196.031 47.9085 197.528 48.124C208.612 49.7212 216.695 50.0305 222.737 46.6418C225.417 45.1387 227.367 41.7204 227.479 38.3291C227.558 35.937 226.793 32.5275 222.707 29.8679C219.596 27.843 215.337 25.0701 214.207 17.8944C212.786 8.86422 204.11 6.50422 197.08 6.11427C175.52 4.91972 158.54 13.9595 138.4 37.3151C137.835 37.9702 137.016 38.3494 136.152 38.3557C135.313 38.3499 134.463 37.9942 133.889 37.3478C133.595 37.0166 126.627 29.141 121.168 20.5688C120.278 19.169 120.687 17.3105 122.084 16.4176C123.482 15.5244 125.336 15.9354 126.227 17.3347C129.606 22.6408 133.698 27.788 136.165 30.7593C156.475 8.05962 174.929 -1.13794 197.412 0.111414C215.028 1.08849 219.209 11.0855 220.134 16.9577C220.847 21.4874 223.224 23.0347 225.976 24.8262C230.995 28.093 233.658 32.9588 233.476 38.527C233.293 44.0863 230.228 49.3311 225.667 51.8882C218.149 56.1055 208.999 55.8516 196.674 54.075C195.159 53.8568 193.664 53.6276 192.183 53.4003C179.013 51.3811 167.641 49.6376 153.14 56.9923C152.706 57.2127 152.243 57.3169 151.787 57.3172L151.787 57.3172Z" fill="black"/>
<path d="M126.794 55.69C126.741 55.69 126.688 55.6888 126.634 55.6858C101.429 54.3712 93.1159 45.5486 90.5797 38.3791C88.0846 31.327 94.0104 19.2687 100.852 11.503C101.949 10.2576 103.846 10.1409 105.087 11.2388C106.329 12.3374 106.447 14.2373 105.35 15.4817C99.1871 22.4776 94.8424 32.4337 96.235 36.3704C98.9557 44.0635 109.863 48.7908 126.947 49.682C128.601 49.7681 129.873 51.1821 129.787 52.8402C129.703 54.4448 128.378 55.69 126.794 55.69V55.69Z" fill="black"/>
</svg>
