<svg width="300" height="304" viewBox="0 0 300 304" fill="none" xmlns="http://www.w3.org/2000/svg">
<path d="M113.651 74.8896C121.682 58.7697 144.834 54.0027 160.724 54.8139C202.718 56.9576 187.22 86.9995 176.687 90.7465C148.061 100.93 98.1456 106.016 113.651 74.8896Z" fill="white"/>
<path d="M52.876 191.047C58.8556 197.036 68.7443 199.128 78.7874 202.026C82.747 203.169 96.9068 191.987 101.709 187.055C106.511 182.123 97.869 84.0127 97.869 84.0127C85.5674 92.7756 76.4874 106.901 68.1404 127.827C62.675 141.528 36.2055 151.07 38.9238 163.101C41.642 175.132 46.8965 185.059 52.876 191.047Z" fill="#82BE28"/>
<path d="M70.5761 2.98375L41.3657 0.0385172C36.9089 -0.410856 33.9385 3.12439 34.765 7.89461L45.6211 70.553C46.4475 75.3232 50.7703 79.5938 55.2271 80.0432L84.4375 82.9884C88.8943 83.4378 91.8647 79.9025 91.0382 75.1323L80.1821 12.4739C79.3556 7.7037 75.0329 3.43312 70.5761 2.98375Z" fill="black"/>
<path d="M55.9716 18.113L46.927 17.201C44.9722 17.0039 43.0762 15.1309 42.7138 13.0386L42.4727 11.6472C42.1102 9.55493 43.413 8.00437 45.3678 8.20146L54.4123 9.11341C56.3671 9.31051 58.2631 11.1836 58.6256 13.2758L58.8667 14.6673C59.2292 16.7595 57.9264 18.3101 55.9716 18.113Z" fill="#82BE28"/>
<path d="M107.165 133.081C79.3272 139.187 75.5713 106.218 79.4377 88.9384C91.9207 64.5096 71.7049 38.285 53.367 39.834C42.6447 40.7395 41.4364 57.5352 41.8783 65.9436C42.3201 74.3517 44.64 81.879 52.5937 93.3849C50.7158 118.52 38.8956 170.386 97.2232 169.722C98.5122 158.009 106.807 144.863 107.165 133.081H107.165Z" fill="white"/>
<path d="M75.5734 168.956C75.3515 168.956 75.1257 168.931 74.9009 168.879C43.8422 161.729 47.1667 124.757 48.9516 104.894C49.3701 100.248 49.8888 94.4783 49.3964 93.0979C45.1356 86.7964 40.1156 78.061 38.903 66.2503C37.7984 55.4823 40.359 46.1214 45.7526 41.21C49.4149 37.8754 54.2363 36.6889 59.6961 37.7835C70.063 39.8596 78.9885 46.964 83.5724 56.7878C88.4911 67.3288 87.9413 79.5698 82.062 90.372C80.5155 93.7744 79.1277 120.195 86.2011 125.508C87.5228 126.5 87.7904 128.377 86.7997 129.7C85.807 131.023 83.9315 131.289 82.6138 130.298C76.897 126.004 75.2727 115.453 74.9175 107.358C74.5973 100.073 75.2308 90.4117 76.8123 87.5059C81.771 78.3934 82.2605 68.1212 78.1554 59.3232C74.316 51.0962 67.1608 45.3855 58.5243 43.6555C54.901 42.9308 52.0397 43.5787 49.775 45.6409C45.8996 49.1697 43.9667 57.0191 44.8514 65.638C45.9268 76.1121 50.284 83.7417 54.4037 89.8237C56.0192 92.2076 55.7253 96.3312 54.9078 105.431C53.1716 124.742 50.2655 157.063 76.2401 163.043C77.8498 163.413 78.8542 165.02 78.4844 166.632C78.1661 168.018 76.935 168.956 75.5734 168.956V168.956Z" fill="black"/>
<path d="M78.7197 201.775C58.8555 203.025 41.6134 191.332 32.9442 170.088C24.275 148.845 33.6406 100.507 42.9101 95.2326C52.1795 89.9583 65.8317 95.2326 83.7703 98.2268C91.2488 106.133 93.7362 150.127 93.7362 150.127C93.7362 150.127 91.7896 202.477 78.7197 201.775Z" fill="#82BE28"/>
<path d="M236.717 186.727C230.417 131.921 226.436 99.6777 226.436 99.6777C236.806 91.0072 230.277 82.0088 224.179 78.2253C215.938 73.1111 216.321 50.7259 186.013 54.3992C182.087 54.8749 162.628 55.5414 136.268 86.1963C132.089 81.193 125.45 70.9193 123.24 67.034C115.763 53.8874 105.613 58.6964 99.7079 69.8631C97.0235 74.9389 92.3515 81.6427 94.2408 88.0181C89.8977 109.963 83.9181 159.867 78.9352 194.8C75.9224 229.697 57.54 263.889 69.9659 275.644C94.7054 299.047 129.104 298.985 145.511 296.306C172.501 291.899 203.268 293.042 211.301 295.919C214.711 297.14 247.488 299.705 245.339 263.653C243.63 234.989 240.232 211.66 236.717 186.727V186.727Z" fill="#82BE28"/>
<path d="M81.5825 285.018C81.2263 285.018 80.8633 284.953 80.511 284.817C73.3646 282.066 64.948 277.244 63.2751 264.274C62.4605 257.948 65.6313 242.95 69.5427 225.453C70.2512 222.282 70.8916 219.42 71.3753 217.114C74.2755 203.285 75.71 191.221 77.0979 179.554C79.2332 161.596 81.2497 144.634 88.291 124.091C88.8273 122.527 90.5275 121.695 92.0896 122.231C93.6516 122.768 94.4827 124.471 93.9475 126.036C87.1124 145.976 85.1319 162.63 83.0356 180.262C81.6322 192.059 80.1821 204.257 77.2263 218.345C76.7388 220.672 76.0925 223.561 75.3772 226.762C72.622 239.087 68.4585 257.713 69.2059 263.507C70.4634 273.256 76.4137 276.824 82.656 279.228C84.1976 279.821 84.9665 281.554 84.3738 283.097C83.9173 284.287 82.7845 285.018 81.5825 285.018Z" fill="black"/>
<path d="M130.299 300.1C118.909 300.1 107.918 298.186 97.8172 294.393C96.2717 293.812 95.4882 292.086 96.0683 290.538C96.6483 288.989 98.3709 288.206 99.9174 288.786C114.941 294.428 132.132 295.614 149.625 292.217C173.03 287.672 190.92 290.062 208.219 292.372C210.015 292.612 211.805 292.851 213.594 293.082C230.153 295.21 239.142 289.027 241.904 273.622C243.385 265.361 241.352 239.423 236.178 200.585C235.96 198.946 237.109 197.44 238.746 197.221C240.372 197.002 241.886 198.154 242.105 199.793C245.821 227.692 249.825 263.33 247.79 274.681C244.483 293.121 232.387 301.537 212.833 299.021C211.033 298.79 209.234 298.55 207.428 298.308C190.606 296.061 173.211 293.738 150.764 298.096C143.871 299.434 137.015 300.1 130.299 300.1L130.299 300.1Z" fill="black"/>
<path d="M198.398 147.633C209.166 175.708 219.346 207.599 221.545 217.367C225.456 234.736 227.522 241.023 223.329 256.354L221.106 270.344C220.13 277.02 226.3 282.854 233.177 280.444C240.053 278.035 239.354 272.9 243.696 269.877C247.817 267.008 257.365 271.212 262.875 278.838C268.385 286.464 279.462 287.17 284.228 286.865C291.002 286.432 297.122 281.617 296.341 274.453C295.561 267.289 286.752 264.226 283.289 262.807C279.408 261.217 266.962 255.354 260.071 246.43C253.493 237.913 241.428 191.432 235.338 167.944C218.86 108.773 212.059 99.3355 208.178 90.5889L198.398 147.633V147.633Z" fill="white"/>
<path d="M282.451 289.911C277.551 289.911 266.473 288.925 260.453 280.593C255.338 273.515 247.414 270.931 245.404 272.335C244.174 273.191 243.491 274.346 242.626 275.809C241.134 278.335 239.276 281.479 234.165 283.27C230.091 284.697 225.726 283.95 222.486 281.274C219.185 278.546 217.523 274.192 218.148 269.91C218.387 268.274 219.901 267.143 221.539 267.381C223.172 267.62 224.303 269.141 224.065 270.777C223.735 273.033 224.568 275.23 226.292 276.654C227.253 277.449 229.3 278.631 232.189 277.618C235.241 276.548 236.181 274.959 237.481 272.759C238.516 271.006 239.691 269.019 241.991 267.418C247.115 263.849 258.173 267.222 265.298 277.082C270.661 284.507 282.685 283.964 284.038 283.877C287.141 283.678 290.015 282.344 291.726 280.307C293.045 278.735 293.598 276.875 293.37 274.777C292.833 269.857 286.372 267.268 282.902 265.878L282.158 265.578C279.452 264.47 265.557 258.426 257.706 248.262C251.576 240.325 241.943 205.33 232.445 168.696C218.529 118.729 211.601 104.537 207.462 96.058C206.704 94.5075 206.051 93.1685 205.446 91.8047C204.775 90.2937 205.455 88.5242 206.963 87.8524C208.474 87.1813 210.239 87.8611 210.91 89.3724C211.471 90.6363 212.102 91.9297 212.834 93.4278C217.062 102.091 224.142 116.591 238.219 167.139C243.612 187.943 256.212 236.538 262.435 244.598C269.498 253.742 282.915 259.418 284.422 260.035L285.122 260.318C289.428 262.043 298.388 265.632 299.314 274.127C299.721 277.861 298.68 281.33 296.302 284.161C293.521 287.474 289.19 289.548 284.419 289.853C284.001 289.879 283.324 289.911 282.451 289.911V289.911Z" fill="black"/>
<path d="M223.331 259.349C223.069 259.349 222.804 259.314 222.539 259.242C220.947 258.805 220.009 257.158 220.445 255.563C224.122 242.121 222.766 236.175 219.489 221.808C219.214 220.606 218.927 219.348 218.629 218.026C216.564 208.851 206.568 177.286 195.608 148.707C195.016 147.164 195.786 145.431 197.327 144.838C198.871 144.246 200.598 145.017 201.19 146.56C212.245 175.387 222.358 207.361 224.463 216.709C224.759 218.025 225.045 219.277 225.317 220.474C228.73 235.428 230.286 242.253 226.213 257.145C225.849 258.475 224.645 259.349 223.331 259.349H223.331Z" fill="black"/>
<path d="M226.555 81.7627C231.305 91.8569 244.341 116.419 248.357 134.891C252.373 153.363 273.272 207.751 271.279 233.701C270.456 244.414 267.911 251.388 267.911 251.388C267.911 251.388 241.562 261.811 217.662 260.887C216.486 260.925 208.765 252.328 204.507 236.695C198.528 214.737 196.338 193.236 194.002 176.086C193.341 167.385 194.21 138.101 194.21 138.101L196.348 89.3536L226.555 81.7627Z" fill="#82BE28"/>
<path d="M223.987 265.223C222.119 265.223 220.392 265.098 218.85 264.824C213.635 263.897 206.682 250.786 202.43 238.997C197.621 225.662 192.002 203.346 192.547 172.765C192.576 171.111 193.956 169.806 195.59 169.825C197.24 169.854 198.555 171.218 198.526 172.872C197.565 226.723 215.998 256.593 220.087 258.96C232.84 261.07 263.461 250.752 268.477 247.28C269.805 245.619 270.58 237.959 266.851 211.073C266.628 209.465 266.441 208.117 266.318 207.124C265.783 202.846 262.69 191.048 259.7 179.639C257.279 170.405 254.776 160.857 253.406 154.486C251.605 146.115 246.284 124.848 235.782 108.191C234.902 106.793 235.318 104.944 236.715 104.061C238.111 103.179 239.958 103.596 240.839 104.994C251.85 122.462 257.383 144.542 259.251 153.224C260.594 159.466 263.08 168.948 265.483 178.118C268.664 190.25 271.667 201.709 272.25 206.382C272.372 207.353 272.555 208.674 272.774 210.249C276.624 238.009 276.426 248.963 272.015 252.109C266.87 255.779 240.199 265.222 223.987 265.223L223.987 265.223Z" fill="black"/>
<path d="M103.65 96.6154C107.837 100.237 112.767 103.025 117.996 104.82C123.155 106.59 128.588 107.425 134.03 107.573C139.62 107.725 145.035 106.871 150.443 105.515C155.75 104.184 161.006 102.662 166.444 101.944C172.528 101.141 178.684 101.188 184.805 101.42C190.709 101.644 196.625 102.161 202.535 102.111C207.237 102.07 211.929 101.615 216.522 100.595C221.028 99.5958 225.377 98.0798 229.636 96.3205C235.125 88.7742 229.491 81.5211 224.179 78.2253C215.937 73.1111 216.321 50.7258 186.012 54.3992C182.087 54.8749 162.628 55.5414 136.268 86.1963C132.089 81.193 125.449 70.9193 123.24 67.034C115.763 53.8874 105.613 58.6964 99.7077 69.8631C97.1344 74.7287 92.751 81.0899 94.0556 87.2243C97.3103 90.2952 100.262 93.6841 103.65 96.6154L103.65 96.6154Z" fill="#82BE28"/>
<path d="M151.872 108.077C150.781 108.077 149.729 107.476 149.202 106.435C148.457 104.959 149.047 103.158 150.52 102.411C166.681 94.2179 179.482 96.1792 193.034 98.2562C194.494 98.4799 195.965 98.7056 197.456 98.9202C208.503 100.511 216.559 100.819 222.58 97.4438C225.251 95.9467 227.194 92.5419 227.305 89.1639C227.384 86.7813 226.622 83.3852 222.55 80.7361C219.449 78.7192 215.205 75.9572 214.079 68.8098C212.663 59.8152 204.016 57.4645 197.01 57.0761C175.535 55.8863 158.603 64.8904 138.529 88.1541C137.966 88.8064 137.15 89.1841 136.289 89.1904H136.267C135.414 89.1904 134.601 88.8252 134.034 88.1863C133.741 87.8566 126.798 80.0121 121.356 71.4736C120.469 70.0799 120.876 68.2284 122.268 67.339C123.661 66.4492 125.51 66.8585 126.398 68.2523C129.765 73.5375 133.844 78.6644 136.302 81.624C156.544 59.0128 174.952 49.8549 197.341 51.0969C214.897 52.0702 219.064 62.0277 219.986 67.8768C220.696 72.3886 223.065 73.9298 225.807 75.7142C230.81 78.9682 233.464 83.8148 233.282 89.361C233.1 94.8984 230.045 100.123 225.5 102.67C218.007 106.87 208.888 106.617 196.606 104.848C195.096 104.63 193.606 104.402 192.13 104.176C179.005 102.164 167.671 100.428 153.22 107.754C152.788 107.973 152.326 108.077 151.872 108.077L151.872 108.077Z" fill="black"/>
<path d="M126.963 106.456C126.91 106.456 126.858 106.455 126.804 106.452C101.686 105.143 93.4002 96.3548 90.8727 89.2136C88.3861 82.1883 94.2916 70.1775 101.11 62.4432C102.203 61.2031 104.093 61.0862 105.33 62.1805C106.568 63.2748 106.686 65.1672 105.593 66.4067C99.4507 73.374 95.1199 83.2909 96.5087 87.2128C99.2201 94.8755 110.09 99.5842 127.116 100.472C128.764 100.558 130.032 101.966 129.946 103.618C129.862 105.216 128.543 106.456 126.963 106.456V106.456Z" fill="black"/>
<path d="M74.8058 205.021C74.6647 205.021 74.5226 205.011 74.3796 204.991C44.1519 200.666 35.4074 188.78 29.0775 166.93C22.4596 144.09 33.316 100.891 38.4683 93.516C40.3232 90.8592 44.9841 88.1859 64.6891 91.1124C74.911 92.6307 84.3824 94.9368 84.7805 95.0343C86.3844 95.4269 87.3673 97.047 86.9751 98.6535C86.5829 100.26 84.9683 101.243 83.3615 100.852C83.2691 100.829 73.964 98.5641 64.1499 97.0867C45.8921 94.3379 43.3802 96.9357 43.3578 96.9622C38.8809 103.37 28.8985 144.823 34.8196 165.262C40.6765 185.476 47.8999 195.153 75.2243 199.063C76.8594 199.296 77.9951 200.813 77.7616 202.45C77.5484 203.943 76.2696 205.021 74.8059 205.021L74.8058 205.021Z" fill="black"/>
</svg>
