<svg width="300" height="254" viewBox="0 0 300 254" fill="none" xmlns="http://www.w3.org/2000/svg">
<path d="M113.496 24.0029C121.566 7.81588 144.833 3.029 160.802 3.84356C203.002 5.99621 187.428 36.1632 176.843 39.9258C148.076 50.1515 97.9134 55.2585 113.496 24.0029L113.496 24.0029Z" fill="white"/>
<path d="M237.169 136.306C258.125 88.1542 226.837 48.8944 226.837 48.8944C237.258 40.1877 230.697 31.1519 224.569 27.3526C216.287 22.2171 216.672 -0.261372 186.214 3.42723C182.269 3.90498 162.713 4.5742 136.224 35.3568C132.023 30.3326 125.351 20.0162 123.131 16.1147C115.617 2.91337 105.417 7.7424 99.4824 18.9556C96.7848 24.0525 92.0897 30.7843 93.9882 37.1862C80.7678 46.2763 72.3969 67.6309 69.398 72.8793C60.4415 88.5544 39.703 110.768 56.7207 136.306C60.777 142.393 72.5836 145.57 83.7955 145.57C80.7678 180.613 50.9572 208.304 63.4445 220.108C88.3064 243.608 129.024 249.032 145.512 246.342C172.636 241.916 203.555 243.064 211.627 245.953C215.054 247.179 247.993 249.754 245.833 213.553C244.116 184.769 240.701 161.343 237.169 136.306V136.306Z" fill="#2D8C3C"/>
<path d="M167.008 80.5755C167.008 80.5755 192.918 70.0058 209.651 74.8674C224.334 79.1332 227.145 96.5036 214.46 98.9302C209.98 99.7873 206.722 94.3215 202.087 93.5611C193.599 92.1684 184.355 94.0564 181.822 91.1055C176.994 85.4832 167.008 80.5755 167.008 80.5755Z" fill="white"/>
<path d="M74.1956 233.292C73.7066 233.292 73.2117 233.172 72.752 232.92C66.0084 229.215 58.2799 223.277 58.3679 210.144C58.4041 204.638 61.5094 198.628 64.7966 192.265C66.8906 188.211 69.056 184.02 70.6336 179.653C77.3645 161.026 80.8238 145.096 80.8581 144.937C81.2082 143.314 82.8063 142.28 84.427 142.631C86.0495 142.98 87.0814 144.579 86.7322 146.202C86.698 146.365 83.1604 162.669 76.2847 181.698C74.5732 186.433 72.3168 190.802 70.1338 195.026C67.187 200.731 64.4044 206.119 64.377 210.185C64.3105 220.055 69.7533 224.412 75.6451 227.649C77.0994 228.449 77.6305 230.277 76.8324 231.732C76.2857 232.729 75.2568 233.292 74.1956 233.292L74.1956 233.292Z" fill="black"/>
<path d="M132.351 249.8C117.592 249.8 101.08 246.858 88.0135 239.471C86.569 238.654 86.0594 236.82 86.8751 235.374C87.6927 233.929 89.5285 233.419 90.9692 234.235C108.603 244.205 133.149 245.436 149.647 242.235C173.168 237.671 191.142 240.071 208.529 242.391C210.335 242.632 212.133 242.872 213.932 243.103C230.57 245.243 239.607 239.033 242.382 223.563C243.871 215.268 241.828 189.221 236.627 150.222C236.408 148.576 237.563 147.063 239.208 146.844C240.853 146.622 242.365 147.781 242.584 149.426C246.319 177.441 250.343 213.228 248.297 224.626C244.975 243.143 232.825 251.597 213.167 249.068C211.359 248.835 209.549 248.594 207.734 248.352C190.829 246.096 173.346 243.762 150.791 248.138C145.322 249.2 139.014 249.8 132.351 249.8L132.351 249.8Z" fill="black"/>
<path d="M200.243 161.546C188.711 161.547 174.645 157.699 162.312 147.928C136.233 127.265 114.404 113.531 100.846 109.256C97.1035 108.076 94.1625 105.258 92.7756 101.524C90.9633 96.6439 91.9922 90.677 95.6726 84.7231C101.291 75.6359 112.065 70.7464 126.829 70.5822C139.638 70.4486 160.164 76.9394 183.162 88.4146C185.373 89.5179 188.521 89.2901 191.854 89.0488C199.267 88.514 209.424 87.777 212.929 103.596C213.288 105.217 212.266 106.823 210.647 107.182C209.028 107.542 207.422 106.519 207.063 104.898C204.683 94.1505 199.75 94.5078 192.288 95.0466C188.294 95.3353 184.164 95.6341 180.48 93.7962C158.634 82.8952 138.575 76.4749 126.896 76.5951C118.108 76.693 106.444 78.7312 100.783 87.8868C98.1001 92.2275 97.257 96.327 98.4082 99.4296C99.1447 101.411 100.691 102.902 102.652 103.521C120.901 109.276 147.197 128.282 166.042 143.213C183.005 156.654 202.503 156.953 211.465 153.875C225.42 149.083 233.717 140.339 238.365 125.524C244.772 105.106 239.048 78.9472 232.201 62.7503C231.554 61.221 232.269 59.4566 233.797 58.8096C235.327 58.1627 237.087 58.8781 237.735 60.4072C244.979 77.5432 250.993 105.351 244.099 127.325C238.892 143.918 229.142 154.162 213.415 159.563C209.726 160.829 205.219 161.546 200.243 161.546L200.243 161.546Z" fill="black"/>
<path d="M151.904 57.3291C150.808 57.3291 149.75 56.7259 149.221 55.6796C148.472 54.1981 149.065 52.3891 150.546 51.6391C166.787 43.4109 179.652 45.3823 193.27 47.4672C194.737 47.6919 196.216 47.9185 197.714 48.134C208.814 49.7316 216.909 50.0413 222.962 46.6515C225.646 45.1481 227.599 41.7291 227.71 38.337C227.79 35.9445 227.024 32.5343 222.932 29.8741C219.816 27.8488 215.55 25.0753 214.419 17.8982C212.996 8.86613 204.306 6.5054 197.266 6.11537C175.698 4.92376 158.668 13.9615 138.495 37.3228C137.93 37.9778 137.109 38.3571 136.244 38.3635C135.37 38.3637 134.552 38.0018 133.977 37.3551C133.683 37.0241 126.706 29.1469 121.237 20.5734C120.345 19.1735 120.755 17.3146 122.154 16.4213C123.552 15.5275 125.411 15.939 126.304 17.3381C129.688 22.6454 133.787 27.7935 136.257 30.7655C156.599 8.06137 175.086 -1.13735 197.598 0.11128C215.241 1.0888 219.428 11.0879 220.354 16.9613C221.068 21.4919 223.449 23.0395 226.205 24.8314C231.232 28.0989 233.899 32.9657 233.716 38.535C233.534 44.0955 230.464 49.3413 225.896 51.899C218.366 56.1171 209.203 55.8629 196.859 54.0862C195.343 53.868 193.846 53.6387 192.362 53.4116C179.172 51.3918 167.782 49.6474 153.259 57.0041C152.824 57.2246 152.361 57.3288 151.904 57.3291H151.904Z" fill="black"/>
<path d="M126.871 55.7014C126.818 55.7014 126.765 55.7002 126.711 55.6973C101.469 54.3826 93.1421 45.558 90.6021 38.387C88.1032 31.3325 94.038 19.2717 100.89 11.5048C101.989 10.2596 103.888 10.1427 105.131 11.2408C106.375 12.34 106.493 14.2399 105.395 15.4849C99.2226 22.4814 94.8703 32.4397 96.266 36.3779C98.9908 44.0725 109.915 48.8008 127.024 49.6922C128.681 49.7783 129.955 51.1926 129.869 52.8511C129.785 54.456 128.458 55.7014 126.871 55.7014Z" fill="black"/>
<path d="M86.3395 148.184C84.5301 148.184 82.7814 148.138 81.1148 148.043C60.7959 146.876 52.5745 133.845 49.9826 128.297C41.3377 109.787 53.5838 92.8307 60.1631 83.7215C63.6342 78.9161 65.9962 73.2764 68.2799 67.8221C71.0302 61.2555 73.8743 54.4652 78.6765 49.1032C79.7846 47.8675 81.685 47.7625 82.9193 48.8712C84.1555 49.9794 84.2592 51.8803 83.152 53.117C79.0247 57.7242 76.4974 63.7581 73.8225 70.1464C71.4067 75.9143 68.9088 81.8783 65.0338 87.244C56.9268 98.4685 48.8305 111.626 55.4264 125.751C58.0789 131.428 64.9868 141.093 81.459 142.039C96.7136 142.914 115.984 139.612 125.804 135.911C127.359 135.327 129.09 136.111 129.675 137.666C130.26 139.22 129.474 140.954 127.922 141.539C117.427 145.493 100.141 148.184 86.3395 148.184H86.3395Z" fill="black"/>
<path d="M214.203 101.303C212.208 101.303 209.861 100.994 207.103 100.245C205.502 99.8098 204.556 98.1582 204.99 96.5555C205.427 94.9523 207.08 94.0093 208.677 94.4414C213.519 95.7571 217.197 95.5298 218.771 93.8211C220.019 92.4661 220.146 89.9399 219.109 87.0637C217.434 82.4134 212.573 76.9966 205.86 76.0922C196.49 74.8294 179.354 79.6443 179.183 79.693C177.591 80.1459 175.927 79.2188 175.472 77.6205C175.02 76.023 175.947 74.3606 177.543 73.9076C178.294 73.6945 196.057 68.7042 206.662 70.1326C215.908 71.3783 222.415 78.5092 224.762 85.024C226.6 90.1252 226.027 94.8173 223.189 97.8976C221.607 99.6138 218.866 101.303 214.203 101.303L214.203 101.303Z" fill="black"/>
</svg>
