<svg width="300" height="448" viewBox="0 0 300 448" fill="none" xmlns="http://www.w3.org/2000/svg">
<path d="M127.514 41.0195C127.514 41.0195 137.437 49.3118 147.455 47.1623C157.473 45.0129 173.803 38.0933 194.244 46.104L154.38 101.003L108.881 92.0824L127.514 41.0195Z" fill="white"/>
<path d="M239.543 416.928C237.984 355.058 233.332 312.019 218.969 249.279C218.969 249.279 222.363 233.22 219.983 230.768C216.825 216.354 211.149 205.869 214.026 202.186C223.194 198.465 222.479 158.096 223.282 145.326C226.419 95.4454 222.681 64.2842 203.502 50.9323C184.322 37.5802 173.578 42.5781 170.438 54.1141C160.544 90.4617 139.886 75.8532 128.571 74.1568C122.13 73.1912 130.959 48.3693 128.304 45.326C119.298 35.0018 101.688 56.3846 98.9885 66.3075C94.7651 81.8347 79.5336 94.1008 72.0148 110.105C51.3502 154.091 40.4298 175.534 44.1515 211.659C45.4749 224.503 47.8525 235.844 50.5996 245.304C52.7657 252.763 55.9309 268.855 58.2206 273.791C61.7229 281.34 60.3042 346.49 49.7895 392.842C49.2273 395.32 48.6613 397.997 49.6765 400.328C50.2815 401.717 54.0433 409.747 55.1633 410.771C69.9455 424.292 91.8858 433.111 116.144 437.857C121.961 438.994 146.487 443.465 152.402 443.089C172.872 441.789 170.928 444.585 196.854 442.622C205.001 442.005 221.072 439.499 228.434 435.971C236.48 432.115 239.931 430.129 239.543 416.928Z" fill="white"/>
<path d="M209.277 195.007C200.048 208.132 194.515 210.761 179.07 225.346C163.624 239.932 126.46 248.767 107.609 241.511C104.28 240.229 101.01 238.557 98.7504 235.965C96.4911 233.373 95.4211 229.7 96.8162 226.634C98.5385 222.849 103.189 221.133 107.305 219.566C111.421 217.998 115.946 215.618 116.666 211.567C117.038 209.473 116.276 207.371 115.833 205.288C115.282 202.7 115.239 199.94 116.328 197.501C117.417 195.061 119.798 193.009 122.64 192.691C125.838 192.335 128.788 194.107 131.639 195.489C136.787 197.985 142.554 199.389 148.368 199.56C148.368 199.56 173.717 195.283 184.48 175.555L202.571 170.698L209.277 195.007Z" fill="white"/>
<path d="M122.965 247.633C117.062 247.633 111.461 246.815 106.521 244.914C103.62 243.797 99.4231 241.922 96.4716 238.535C93.2364 234.823 92.2931 229.902 94.0688 225.999C96.2733 221.155 101.675 219.098 106.015 217.446L106.226 217.366C110.82 215.617 113.332 213.693 113.696 211.648C113.876 210.631 113.558 209.335 113.223 207.964C113.103 207.479 112.985 206.996 112.883 206.513C112.108 202.882 112.34 199.642 113.572 196.885C115.169 193.306 118.596 190.726 122.303 190.312C125.972 189.904 129.101 191.469 131.864 192.852C132.23 193.036 132.595 193.218 132.957 193.394C138.233 195.951 146.632 198.786 158.645 193.907C160.187 193.282 161.947 194.017 162.576 195.553C163.205 197.087 162.465 198.839 160.924 199.465C145.026 205.923 133.955 200.555 130.317 198.791C129.931 198.604 129.544 198.41 129.155 198.215C126.946 197.11 124.855 196.066 122.974 196.278C121.133 196.483 119.693 197.955 119.083 199.322C118.379 200.9 118.277 202.9 118.782 205.269C118.872 205.693 118.976 206.116 119.08 206.54C119.528 208.364 120.035 210.433 119.634 212.693C118.61 218.456 112.722 221.32 108.382 222.972L108.17 223.053C104.688 224.378 100.743 225.88 99.5615 228.476C98.6437 230.493 99.6361 233.006 101.027 234.602C102.602 236.41 105.039 237.908 108.696 239.315C125.706 245.863 155.794 237.388 173.916 225.781C186.371 217.804 197.744 206.776 206.805 193.889C207.761 192.532 209.639 192.2 211.006 193.151C212.37 194.102 212.702 195.973 211.747 197.331C202.239 210.851 190.286 222.434 177.179 230.829C164.4 239.014 142.118 247.631 122.965 247.633L122.965 247.633Z" fill="black"/>
<path d="M237.747 396.548C236.175 396.548 234.85 395.335 234.742 393.75C232.59 362.195 228.01 330.126 223.969 301.831C221.041 281.333 218.276 261.972 216.977 246.361C216.841 244.709 218.074 243.259 219.734 243.122C221.388 242.983 222.851 244.214 222.988 245.866C224.271 261.301 227.024 280.578 229.939 300.986C233.995 329.383 238.592 361.568 240.759 393.344C240.872 394.998 239.616 396.429 237.955 396.542C237.885 396.546 237.816 396.548 237.747 396.548Z" fill="black"/>
<path d="M169.601 447.6C160.142 447.6 150.151 447.096 139.956 446.075C101.424 442.216 86.9432 434.661 72.9386 427.355L72.2869 427.015C63.2076 422.281 51.4311 413.715 48.1213 405.151C45.7244 398.948 46.4341 394.014 46.8503 392.18C54.8027 357.118 56.5165 329.649 56.702 296.694C56.7618 286.178 56.5695 280.466 55.2728 274.417C54.9254 272.795 55.9638 271.201 57.5922 270.855C59.2216 270.505 60.8215 271.543 61.1699 273.164C62.5843 279.757 62.7944 285.762 62.7325 296.728C62.5441 330.086 60.8058 357.91 52.7326 393.502C52.4372 394.802 51.9464 398.328 53.7495 402.996C56.2691 409.516 66.5753 417.261 75.0842 421.698L75.7379 422.038C89.2341 429.079 103.189 436.36 140.561 440.103C167.66 442.817 193.176 441.817 210.566 437.358C212.128 436.958 213.606 436.585 215.004 436.231C224.299 433.885 229.91 432.468 232.769 430.023C234.865 428.229 236.043 425.522 235.854 416.995C235.816 415.337 237.136 413.964 238.801 413.927C240.484 413.898 241.846 415.205 241.882 416.862C242.297 435.533 235.794 437.176 216.487 442.05C215.095 442.402 213.624 442.773 212.07 443.171C200.644 446.101 185.915 447.6 169.601 447.6V447.6Z" fill="black"/>
<path d="M44.887 190.585C44.7584 190.585 44.6288 190.577 44.4973 190.56C42.8463 190.348 41.6793 188.843 41.8923 187.199C46.1188 154.55 53.5039 141.072 67.4594 124.824C68.544 123.563 70.4462 123.416 71.7105 124.493C72.9766 125.57 73.1249 127.464 72.0432 128.724C60.6672 141.97 52.274 153.973 47.8738 187.966C47.6775 189.48 46.3808 190.585 44.8869 190.585H44.887Z" fill="black"/>
<path d="M58.2178 276.793C56.822 276.793 55.5696 275.823 55.2702 274.41C53.7184 267.085 51.6473 261.249 49.645 255.606C46.1321 245.71 42.8145 236.363 42.8145 220.933C42.8145 219.276 44.1641 217.932 45.8297 217.932C47.4954 217.932 48.845 219.276 48.845 220.933C48.845 235.334 51.8505 243.801 55.331 253.606C57.3991 259.433 59.5379 265.458 61.1712 273.171C61.5147 274.793 60.4724 276.386 58.843 276.728C58.6329 276.772 58.4239 276.793 58.2178 276.793H58.2178Z" fill="black"/>
<path d="M145.228 82.914C143.738 82.914 142.242 82.8126 140.761 82.6062C133.734 81.6282 127.699 78.3897 123.768 73.4876C119.825 68.5704 121.925 61.422 123.778 55.1149C124.878 51.3679 126.249 46.7047 125.263 44.9807C125.165 44.81 124.906 44.3564 123.722 44.0533C122.109 43.6402 121.138 42.0039 121.553 40.3984C121.968 38.7936 123.615 37.8246 125.224 38.2396C127.652 38.8612 129.429 40.1307 130.505 42.0122C132.753 45.9475 131.205 51.219 129.566 56.7996C128.125 61.7039 126.493 67.2624 128.482 69.7426C134.941 77.7989 148.003 78.6645 156.143 74.42C161.953 71.3918 165.236 65.3473 167.477 53.5565C167.785 51.9283 169.362 50.8562 171 51.165C172.636 51.473 173.712 53.0431 173.402 54.6718C171.574 64.2924 168.427 74.7937 158.941 79.738C154.957 81.8148 150.13 82.914 145.228 82.914H145.228Z" fill="black"/>
<path d="M219.981 249.115C218.369 249.115 217.032 247.846 216.97 246.229C216.045 222.25 211.156 203.126 211.106 202.936C210.691 201.331 211.66 199.694 213.273 199.28C214.884 198.864 216.529 199.831 216.945 201.436C217.153 202.237 222.045 221.341 222.996 245.998C223.06 247.655 221.762 249.049 220.099 249.113C220.059 249.114 220.02 249.115 219.981 249.115H219.981Z" fill="black"/>
<path d="M214.027 202.186C216.801 198.024 225.319 190.428 227.103 185.37C245.93 131.973 222.9 69.9429 205.786 53.42C193.485 41.5425 183.233 48.5281 181.483 58.1908C178.256 64.0054 182.47 95.9023 184.094 105.754C194.344 157.457 174.006 160.781 173.983 166.482C173.923 181.203 193.11 202.075 214.027 202.186Z" fill="white"/>
<path d="M229.864 180.744C229.588 180.744 229.307 180.706 229.028 180.626C227.428 180.167 226.504 178.503 226.966 176.911C236.649 143.471 222.662 94.911 218.144 80.8244C207.993 49.1726 190.319 48.3699 189.572 48.3511C187.918 48.3099 186.592 46.9498 186.618 45.3035C186.643 43.6633 187.972 42.3486 189.618 42.3486H189.637C190.557 42.3543 212.312 42.9024 223.889 78.9988C226.778 88.0081 232.023 106.133 234.685 126.293C237.432 147.088 236.784 164.678 232.761 178.573C232.38 179.888 231.174 180.744 229.864 180.744Z" fill="black"/>
<path d="M208.956 205.188C207.701 205.188 206.411 205.065 205.084 204.818C190.105 202.028 174.199 183.915 170.787 173.066C169.28 168.276 170.526 165.695 171.838 164.373C180.03 156.112 184.628 127.319 181.12 106.244C180.848 104.609 181.959 103.064 183.602 102.792C185.244 102.523 186.798 103.627 187.07 105.263C188.766 115.453 188.689 128.643 186.864 140.547C185.698 148.153 182.752 161.911 176.129 168.59C174.826 171.364 183.775 186.82 197.076 195.098C206.221 200.79 213.345 200.573 218.249 194.454C219.287 193.159 221.186 192.946 222.486 193.98C223.788 195.014 224.001 196.902 222.962 198.198C219.264 202.813 214.474 205.188 208.956 205.188V205.188Z" fill="black"/>
<path d="M81.0739 99.1651C80.3171 99.1651 79.5603 98.8835 78.9743 98.3178C77.7788 97.1634 77.7504 95.2633 78.9096 94.0735C86.9052 85.8702 90.4358 77.9097 93.5502 70.8859C94.4621 68.8299 95.3239 66.8858 96.2504 65.0451C101.518 52.743 107.749 44.4887 114.769 40.5104C120.494 37.2659 124.701 38.1173 125.16 38.2241C126.781 38.6027 127.787 40.2178 127.407 41.8316C127.032 43.4247 125.444 44.421 123.848 44.083C123.494 44.0309 112.383 42.6218 101.763 67.4821C101.737 67.5412 101.711 67.5993 101.681 67.6567C100.807 69.3878 99.9616 71.2931 99.0674 73.3102C95.9128 80.4243 91.9866 89.2784 83.2382 98.2538C82.6463 98.8603 81.8601 99.1651 81.0739 99.1651V99.1651Z" fill="black"/>
<path d="M37.7602 166.488C37.7602 166.488 17.6734 164.04 18.225 137.565C18.7766 111.091 17.501 102.628 18.138 93.2283C19.0609 79.6096 61.0021 81.3203 70.5946 91.0819C76.0993 96.6837 74.849 103.17 73.1479 112.624C71.4468 122.079 65.7601 168.961 37.7602 166.488H37.7602Z" fill="white"/>
<path d="M43.6733 169.378C42.516 169.378 41.4834 169.252 40.6324 169.053C31.4865 168.147 14.7316 160.46 15.2106 137.503C15.4294 126.967 14.9053 119.311 14.4842 113.159C13.8335 103.637 13.4026 97.3472 16.1784 89.2409C16.7163 87.672 18.433 86.8335 20.0054 87.3684C21.5817 87.9033 22.4239 89.6088 21.887 91.1779C19.5019 98.1426 19.8778 103.641 20.5011 112.751C20.931 119.021 21.4649 126.825 21.2392 137.628C20.7553 160.88 40.5687 163.017 41.4128 163.097C41.5767 163.112 41.7504 163.142 41.9104 163.184C42.2206 163.259 50.3144 165.08 55.8924 154.901C56.6914 153.446 58.523 152.909 59.9835 153.704C61.446 154.497 61.9839 156.321 61.1869 157.776C56.1427 166.981 48.7213 169.378 43.6733 169.378L43.6733 169.378Z" fill="black"/>
<path d="M58.538 159.34C57.9844 159.34 57.4249 159.189 56.9234 158.871C55.5188 157.983 55.1036 156.128 55.9948 154.729C56.0969 154.569 66.2588 138.451 70.2831 116.813C70.5864 115.183 72.151 114.104 73.797 114.408C75.4352 114.71 76.5168 116.276 76.2136 117.905C71.9664 140.74 61.5258 157.258 61.0841 157.95C60.5089 158.849 59.5343 159.34 58.538 159.34Z" fill="black"/>
<path d="M62.7093 2.20805L33.1823 0.0213316C28.6772 -0.312315 25.7753 3.30806 26.7339 8.06661L39.3242 70.5716C40.2827 75.3302 44.753 79.4965 49.2581 79.8302L78.7851 82.0169C83.2903 82.3505 86.1921 78.7301 85.2336 73.9716L72.6433 11.4666C71.6848 6.70803 67.2145 2.5417 62.7093 2.20805Z" fill="black"/>
<path d="M46.2932 15.9706L37.1505 15.2935C35.1746 15.1472 33.2139 13.3198 32.7935 11.2327L32.5139 9.84468C32.0935 7.75756 33.3662 6.16966 35.3422 6.316L44.4849 6.99308C46.4608 7.13942 48.4215 8.96679 48.8419 11.0539L49.1215 12.4419C49.5419 14.5291 48.2692 16.117 46.2932 15.9706Z" fill="#82BE28"/>
<path d="M45.7104 103.019C30.9445 96.9622 25.9013 84.9469 22.6404 72.3356C22.3154 71.0787 17.3266 44.3788 33.7639 38.0186C33.7639 38.0186 36.9052 46.8204 36.998 53.1519C40.7665 51.553 45.274 50.6804 50.2849 51.7024C65.0468 54.7133 76.9985 74.5852 78.1171 77.5035C90.6514 110.204 60.179 108.953 45.7104 103.019H45.7104Z" fill="white"/>
<path d="M62.5134 109.334C55.9459 109.334 49.2596 107.72 44.562 105.793C28.4539 99.1865 23.1036 86.1678 19.7202 73.0832C19.4307 71.964 18.1282 64.6307 18.9153 56.7914C20.0274 45.7314 24.784 38.2721 32.6706 35.2206C33.4294 34.9267 34.2764 34.9511 35.0185 35.289C35.7596 35.6268 36.3318 36.2487 36.6047 37.0132C36.7136 37.3193 38.8121 43.248 39.6622 49.0749C43.3861 48.1054 47.1454 47.9979 50.89 48.7615C67.5202 52.1533 79.8699 73.657 80.9339 76.4325C85.6875 88.8347 85.0976 98.0324 79.1789 103.77C74.9622 107.858 68.7923 109.334 62.5134 109.334L62.5134 109.334ZM31.9777 42.3525C28.0446 45.1342 25.6801 50.1147 24.9351 57.2105C24.1411 64.767 25.5496 71.5416 25.5643 71.6039C29.0183 84.9622 33.9643 94.9539 46.8588 100.243C54.8289 103.512 68.8198 105.433 74.9711 99.4701C79.9956 94.5985 77.9235 85.4172 75.2999 78.5727C74.1456 75.5627 62.6007 57.2777 49.6788 54.6424C45.8704 53.8654 41.9992 54.2921 38.179 55.9125C37.2564 56.3043 36.1963 56.213 35.3532 55.6675C34.511 55.1221 33.9967 54.1949 33.982 53.1948C33.9319 49.7202 32.8424 45.3206 31.9777 42.3525V42.3525Z" fill="black"/>
</svg>
