<svg width="300" height="461" viewBox="0 0 300 461" fill="none" xmlns="http://www.w3.org/2000/svg">
<path d="M128.365 55.2002C128.365 55.2002 134.465 59.7537 148.636 61.9096C155.27 62.9188 162.79 59.7646 170.357 58.2884C182.456 55.9278 188.316 60.1 188.316 60.1L173.895 92.8552L132.347 100.186L117.957 79.2249L128.365 55.2002V55.2002Z" fill="white"/>
<path d="M239.348 429.924C237.791 368.044 233.148 324.998 218.808 262.248C218.808 262.248 222.197 246.187 219.821 243.735C216.668 229.318 211.001 218.831 213.874 215.148C223.026 211.426 222.312 171.051 223.114 158.279C226.246 108.391 222.514 77.2247 203.367 63.8708C184.219 50.5166 171.82 59.3499 170.358 64.27C158.899 102.821 139.856 88.7955 128.56 87.0988C122.13 86.1331 130.944 61.3073 128.294 58.2636C119.303 47.9377 118.066 66.2158 115.371 76.1402C111.155 91.6699 96.2335 111.599 83.1422 126.472C51.0162 162.972 40.5657 188.492 44.2812 224.622C45.6023 237.469 47.976 248.811 50.7186 258.272C52.881 265.733 56.041 281.827 58.3269 286.764C61.8234 294.314 60.4071 359.474 49.9098 405.833C49.3485 408.312 48.7835 410.99 49.797 413.321C50.401 414.71 54.1565 422.741 55.2747 423.766C70.0323 437.289 91.9361 446.109 116.154 450.855C121.961 451.993 146.446 456.465 152.352 456.089C172.788 454.788 170.847 457.584 196.73 455.621C204.864 455.004 220.908 452.498 228.257 448.969C236.29 445.112 239.735 443.126 239.348 429.924Z" fill="white"/>
<path d="M209.132 207.968C199.919 221.094 194.395 223.724 178.975 238.312C163.555 252.9 126.453 261.736 107.633 254.479C104.309 253.197 101.045 251.525 98.7892 248.932C96.5335 246.34 95.4654 242.666 96.8581 239.6C98.5775 235.814 103.221 234.098 107.33 232.53C111.439 230.962 115.956 228.582 116.675 224.531C117.047 222.436 116.286 220.334 115.844 218.251C115.294 215.662 115.25 212.902 116.338 210.462C117.425 208.022 119.802 205.969 122.639 205.652C125.831 205.295 128.777 207.068 131.623 208.45C136.762 210.947 142.52 212.35 148.324 212.522C148.324 212.522 173.631 208.244 184.377 188.512L202.437 183.655L209.132 207.968H209.132Z" fill="white"/>
<path d="M122.963 260.602C117.07 260.602 111.475 259.783 106.545 257.882C103.65 256.765 99.4595 254.889 96.5139 251.503C93.2832 247.79 92.3415 242.869 94.1141 238.965C96.315 234.12 101.706 232.064 106.04 230.411L106.252 230.33C110.837 228.58 113.347 226.656 113.709 224.611C113.89 223.593 113.572 222.296 113.235 220.924C113.117 220.441 112.999 219.958 112.897 219.477C112.125 215.841 112.356 212.601 113.585 209.846C115.18 206.266 118.602 203.686 122.302 203.272C125.949 202.86 129.091 204.43 131.848 205.813C132.214 205.997 132.577 206.179 132.939 206.355C138.204 208.912 146.591 211.747 158.585 206.868C160.117 206.242 161.881 206.978 162.509 208.513C163.137 210.048 162.398 211.801 160.859 212.427C144.988 218.884 133.935 213.516 130.303 211.752C129.918 211.565 129.532 211.372 129.144 211.177C126.94 210.072 124.865 209.029 122.972 209.238C121.381 209.416 119.819 210.641 119.086 212.285C118.384 213.86 118.284 215.861 118.786 218.232C118.876 218.652 118.98 219.075 119.084 219.498C119.532 221.324 120.039 223.394 119.638 225.657C118.615 231.419 112.736 234.284 108.404 235.937L108.19 236.019C104.716 237.344 100.778 238.846 99.5977 241.442C98.6815 243.459 99.6722 245.972 101.061 247.568C102.634 249.377 105.068 250.875 108.717 252.282C125.701 258.832 155.737 250.355 173.83 238.746C186.264 230.768 197.618 219.738 206.664 206.849C207.618 205.492 209.493 205.16 210.857 206.111C212.22 207.062 212.551 208.934 211.597 210.292C202.106 223.814 190.173 235.399 177.087 243.796C164.328 251.982 142.085 260.602 122.963 260.602Z" fill="black"/>
<path d="M237.557 409.541C235.987 409.541 234.664 408.327 234.556 406.742C232.407 375.186 227.836 343.116 223.802 314.82C220.879 294.315 218.117 274.946 216.821 259.33C216.685 257.677 217.916 256.227 219.573 256.09C221.253 255.947 222.685 257.183 222.822 258.835C224.103 274.275 226.852 293.559 229.762 313.975C233.81 342.373 238.399 374.559 240.563 406.335C240.676 407.989 239.422 409.421 237.763 409.534C237.694 409.538 237.625 409.541 237.557 409.541Z" fill="black"/>
<path d="M169.521 460.6C160.078 460.6 150.104 460.096 139.926 459.075C101.459 455.215 87.0013 447.66 73.0209 440.353L72.3683 440.012C63.3032 435.277 51.5462 426.708 48.2439 418.144C45.852 411.942 46.5585 407.007 46.973 405.172C54.9132 370.108 56.6241 342.634 56.8093 309.67C56.8691 299.149 56.677 293.436 55.3835 287.389C55.0367 285.768 56.0734 284.173 57.6991 283.827C59.3208 283.479 60.923 284.515 61.2708 286.136C62.6819 292.727 62.8916 298.733 62.8299 309.704C62.6417 343.07 60.9063 370.9 52.8466 406.494C52.5526 407.793 52.0626 411.321 53.8627 415.988C56.3782 422.509 66.6662 430.256 75.161 434.693L75.8147 435.035C89.2884 442.077 103.221 449.358 140.53 453.101C167.583 455.815 193.057 454.815 210.418 450.356C211.977 449.956 213.453 449.583 214.848 449.229C224.129 446.882 229.73 445.465 232.583 443.02C234.677 441.226 235.852 438.519 235.663 429.989C235.626 428.332 236.944 426.958 238.606 426.922C240.278 426.886 241.645 428.199 241.682 429.856C242.097 448.531 235.603 450.174 216.329 455.049C214.939 455.4 213.47 455.772 211.919 456.171C200.513 459.1 185.809 460.6 169.521 460.6L169.521 460.6Z" fill="black"/>
<path d="M45.0147 203.544C44.8864 203.544 44.757 203.536 44.6257 203.519C42.9775 203.308 41.8124 201.803 42.025 200.159C46.5601 165.064 57.925 151.808 69.9564 137.773C99.1684 103.698 104.273 84.0951 106.453 75.7244C106.791 74.4237 107.059 73.3964 107.355 72.5162L107.58 71.8429C111.022 61.5691 115.308 48.7817 124.403 50.9462C126.02 51.331 127.018 52.9502 126.632 54.5628C126.247 56.1767 124.621 57.1702 123.006 56.786C119.252 55.8972 115.527 67.07 113.29 73.7458L113.064 74.4213C112.834 75.1056 112.589 76.0446 112.28 77.2334C109.995 86.0053 104.647 106.547 74.5325 141.675C63.0999 155.01 52.3023 167.606 47.9966 200.926C47.8006 202.44 46.5062 203.544 45.0147 203.544H45.0147Z" fill="black"/>
<path d="M58.324 289.766C56.9306 289.766 55.6802 288.796 55.3813 287.383C53.8321 280.057 51.7645 274.221 49.7645 268.577C46.2574 258.68 42.9453 249.331 42.9453 233.897C42.9453 232.24 44.2927 230.896 45.9556 230.896C47.6185 230.896 48.9659 232.24 48.9659 233.897C48.9659 248.301 51.9663 256.77 55.4411 266.577C57.5058 272.404 59.641 278.43 61.2725 286.144C61.6155 287.766 60.5748 289.359 58.9482 289.701C58.7385 289.745 58.5298 289.766 58.324 289.766L58.324 289.766Z" fill="black"/>
<path d="M145.187 95.8563C143.701 95.8563 142.207 95.7549 140.728 95.5485C133.713 94.5706 127.688 91.3316 123.763 86.4285C119.827 81.5105 121.924 74.3611 123.773 68.053C124.873 64.3054 126.24 59.6415 125.256 57.9172C125.159 57.7464 124.9 57.293 123.718 56.9898C122.107 56.5767 121.138 54.9401 121.553 53.3344C121.967 51.7291 123.613 50.7599 125.218 51.1752C127.642 51.797 129.416 53.0664 130.489 54.9482C132.735 58.8841 131.188 64.1564 129.552 69.7379C128.114 74.643 126.484 80.2025 128.469 82.6832C134.919 90.7397 147.957 91.6065 156.086 87.361C161.885 84.3332 165.163 78.2875 167.4 66.4943C167.707 64.8656 169.278 63.7921 170.917 64.1024C172.55 64.4105 173.624 65.9808 173.315 67.6098C171.49 77.2323 168.348 87.7355 158.879 92.6799C154.9 94.757 150.081 95.8563 145.187 95.8563Z" fill="black"/>
<path d="M219.818 262.084C218.209 262.084 216.874 260.815 216.812 259.197C215.887 235.175 211.008 216.088 210.958 215.898C210.542 214.292 211.51 212.655 213.12 212.241C214.73 211.826 216.372 212.792 216.788 214.397C216.995 215.199 221.878 234.305 222.828 258.967C222.892 260.623 221.596 262.018 219.935 262.082C219.896 262.083 219.857 262.084 219.818 262.084Z" fill="black"/>
<path d="M213.874 215.148C216.644 210.985 225.148 203.388 226.928 198.329C245.724 144.923 222.732 82.8839 205.648 66.3584C193.366 54.4791 183.131 61.4659 181.384 71.13C178.163 76.9456 182.37 108.847 183.991 118.701C194.224 170.411 173.92 173.736 173.897 179.438C173.837 194.161 192.992 215.037 213.874 215.148Z" fill="white"/>
<path d="M213.874 215.148C216.644 210.985 225.148 203.388 226.928 198.329C245.724 144.923 222.732 82.8839 205.648 66.3584C193.366 54.4791 183.131 61.4659 181.384 71.13C178.163 76.9456 182.37 108.847 183.991 118.701C194.224 170.411 173.92 173.736 173.897 179.438C173.837 194.161 192.992 215.037 213.874 215.148Z" fill="white"/>
<path d="M61.9577 142.502C61.9577 142.502 43.4888 134.199 56.0285 103.561C68.5681 72.9239 81.7348 66.6713 80.4809 51.04C79.2269 35.4087 121.507 56.6496 120.179 69.4756C120.179 69.4756 119.534 79.6884 113.59 90.2211C107.646 100.754 80.9585 153.205 61.9577 142.502H61.9577Z" fill="white"/>
<path d="M92.2646 48.0035C92.2646 48.0035 82.965 40.0285 82.1852 21.754C81.6845 10.02 83.1631 2.25517 88.5393 1.66166C92.3036 1.2461 93.2538 6.07462 94.8218 12.3043C96.9425 20.7295 100.701 29.5179 104.562 33.017C118.589 45.7317 124.176 40.8864 122.94 47.5875C120.585 58.6023 115.668 63.3288 110.032 63.1081C104.197 62.8796 97.5926 57.3486 92.2646 48.0035V48.0035Z" fill="white"/>
<path d="M69.0891 146.908C66.4934 146.908 64.7736 146.08 64.0005 145.605C62.3797 144.876 55.1303 141.207 51.3812 132.397C47.8614 124.127 48.4875 114.043 53.242 102.427C58.9118 88.5744 64.705 79.7129 69.3606 72.5925C74.9137 64.0982 78.266 58.9711 77.4869 51.3448C77.3184 49.6952 78.5227 48.2219 80.1768 48.0538C81.8191 47.8857 83.3076 49.0867 83.4761 50.736C84.4717 60.473 80.2483 66.9321 74.4041 75.8715C69.8887 82.7782 64.2689 91.3736 58.8158 104.696C47.637 132.008 65.7878 139.851 66.5658 140.171C66.8961 140.307 67.0166 140.334 67.2547 140.553C67.5448 140.706 68.8285 141.253 71.2714 140.58C77.1018 138.975 89.825 130.446 109.522 91.3651C110.27 89.8834 112.08 89.2866 113.564 90.0309C115.05 90.7753 115.648 92.58 114.902 94.0612C98.9205 125.769 84.0974 143.928 72.0347 146.575C70.9539 146.812 69.971 146.908 69.0891 146.908H69.0891Z" fill="black"/>
<path d="M87.8846 48.2495C86.9165 48.2495 85.967 47.7854 85.3859 46.9249C77.3849 35.0864 75.5202 19.4223 80.5177 6.04565C81.135 4.39247 81.9239 2.68578 83.5054 1.41103C85.8053 -0.443454 89.0586 -0.473013 91.0723 1.34042C92.307 2.45126 92.404 4.34947 91.2898 5.58026C90.2668 6.71088 88.5774 6.88507 87.3506 6.04345C87.3281 6.05445 87.3065 6.06714 87.2898 6.08058C86.8352 6.44728 86.4638 7.32774 86.16 8.14077C81.8278 19.7345 83.4447 33.3096 90.3775 43.5697C91.3075 44.9444 90.9429 46.8101 89.5642 47.7367C89.0478 48.0834 88.4628 48.2495 87.8846 48.2495ZM87.039 5.79696L87.04 5.79818L87.039 5.79696Z" fill="black"/>
<path d="M112.209 65.4571C110.613 65.4571 109.282 64.2073 109.205 62.6008C109.124 60.9449 110.404 59.5373 112.065 59.4566C117.842 59.1769 120.3 46.8906 120.706 42.6085C120.862 40.9597 122.323 39.7406 123.984 39.9009C125.639 40.0553 126.855 41.5159 126.701 43.166C126.682 43.3753 126.203 48.3549 124.448 53.4674C121.16 63.0493 116.058 65.2744 112.357 65.4537C112.307 65.4559 112.258 65.4571 112.209 65.4571L112.209 65.4571Z" fill="black"/>
<path d="M229.684 193.703C229.409 193.703 229.127 193.665 228.849 193.585C227.252 193.126 226.33 191.462 226.79 189.869C236.456 156.426 222.492 107.857 217.982 93.7678C207.849 62.1111 190.203 61.3084 189.458 61.2896C187.807 61.2483 186.483 59.888 186.508 58.2414C186.534 56.6012 187.86 55.2861 189.504 55.2861H189.522C190.442 55.2918 212.161 55.84 223.718 91.942C226.602 100.953 231.839 119.081 234.496 139.244C237.239 160.042 236.592 177.635 232.576 191.532C232.195 192.847 230.991 193.703 229.684 193.703V193.703Z" fill="black"/>
<path d="M208.811 218.15C207.558 218.15 206.268 218.027 204.945 217.78C189.99 214.989 174.111 196.873 170.705 186.022C169.201 181.232 170.446 178.651 171.755 177.329C179.933 169.067 184.523 140.269 181.021 119.191C180.749 117.555 181.859 116.01 183.499 115.739C185.135 115.469 186.69 116.574 186.961 118.21C188.654 128.401 188.577 141.593 186.755 153.499C185.591 161.106 182.651 174.867 176.039 181.547C174.738 184.32 183.67 199.777 196.947 208.057C206.079 213.751 213.19 213.535 218.089 207.415C219.126 206.119 221.02 205.906 222.319 206.94C223.618 207.974 223.831 209.863 222.794 211.159C219.102 215.775 214.32 218.15 208.811 218.15V218.15Z" fill="black"/>
</svg>
