<svg width="302" height="292" viewBox="0 0 302 292" fill="none" xmlns="http://www.w3.org/2000/svg">
<path d="M103.331 29.3594C93.8139 49.244 85.0436 72.6151 78.6536 94.033C72.2635 115.451 54.0929 159.814 45.6575 166.529C36.8192 173.565 23.3037 176.294 19.1456 176.913C15.4358 177.466 6.1294 178.341 3.66042 185.125C1.19144 191.909 6.00156 198.058 12.4938 200.099C17.0612 201.535 28.0138 203.496 35.1973 197.394C42.3808 191.291 47.7219 188.916 51.0493 192.693C54.5557 196.673 52.65 201.503 58.7701 205.492C64.8903 209.481 72.2887 205.279 72.9312 198.55L77.4668 188.462C78.7806 184.29 79.5393 174.986 78.8049 169.041C77.3992 157.66 84.8294 140.109 97.4619 110.905L103.331 29.3594H103.331Z" fill="white"/>
<path d="M63.8434 210.033C61.5234 210.033 59.1984 209.351 57.135 208.006C52.5856 205.04 51.5261 201.537 50.6753 198.722C50.1836 197.092 49.7943 195.805 48.8011 194.678C47.162 192.816 43.2361 194.499 37.1364 199.681C27.8894 207.537 14.2383 203.792 11.5953 202.961C7.02347 201.524 3.30045 198.47 1.38333 194.582C-0.255732 191.258 -0.442085 187.633 0.844781 184.098C3.77169 176.052 13.3524 174.702 17.9564 174.053L18.7047 173.946C20.3184 173.706 34.7364 171.39 43.7922 164.181C50.9602 158.475 74.0417 108.087 81.4283 70.4491C81.7463 68.8236 83.3191 67.7633 84.9464 68.0834C86.5708 68.4027 87.6284 69.9796 87.3094 71.6053C83.9766 88.5895 77.0116 110.379 68.1996 131.388C61.7975 146.651 53.0032 164.515 47.523 168.877C37.4574 176.89 22.4853 179.449 19.5867 179.881L18.7916 179.995C15.0803 180.518 8.17179 181.491 6.47711 186.151C5.75319 188.138 5.84783 190.081 6.7581 191.925C7.93763 194.316 10.4167 196.302 13.3914 197.237C14.69 197.645 26.2659 201.048 33.2573 195.106C36.9989 191.928 46.9396 183.487 53.2968 190.71C55.1535 192.817 55.8227 195.031 56.413 196.985C57.1545 199.436 57.6891 201.207 60.4053 202.978C62.9781 204.655 65.2513 203.994 66.3781 203.451C68.3957 202.477 69.7304 200.538 69.947 198.265C70.1041 196.615 71.5734 195.407 73.2154 195.563C74.8632 195.721 76.0711 197.185 75.914 198.835C75.5023 203.151 72.8456 206.99 68.9811 208.855C67.3479 209.643 65.5966 210.033 63.8434 210.033Z" fill="black"/>
<path d="M77.4641 191.462C76.8143 191.462 76.1606 191.252 75.6114 190.818C74.3108 189.793 74.0874 187.907 75.1118 186.605C77.1412 184.027 78.1051 177.504 77.3548 171.432C75.8816 159.505 82.8164 142.76 96.2363 111.735C96.8948 110.216 98.6578 109.516 100.178 110.174C101.697 110.833 102.394 112.599 101.737 114.119C90.2566 140.659 81.9627 159.834 83.3042 170.695C84.1121 177.233 83.3481 185.836 79.8202 190.318C79.229 191.07 78.3509 191.462 77.4641 191.462Z" fill="black"/>
<path d="M202.623 133.614C214.887 170.858 233.841 188.622 253.425 198.127C275.352 208.768 274.023 228.72 257.412 239.362C251.444 243.185 243.898 248.025 245.194 253.994C248.516 269.291 230.576 287.913 202.005 271.951C194.031 267.295 175.427 270.621 160.809 281.927C144.183 294.787 118.284 286.583 113.633 270.621C109.928 257.906 103.913 243.2 77.2379 251.852C39.8789 263.97 32.3602 214.235 62.7281 200.122C81.3327 191.476 103.924 156.227 110.568 130.288C111.31 109.709 203.365 113.034 202.623 133.614Z" fill="white"/>
<path d="M57.8143 255.212C57.5714 255.212 57.3245 255.182 57.0787 255.12C48.2853 252.897 42.1846 244.715 41.1573 233.765C39.9914 221.339 45.8491 204.659 61.4661 197.401C77.9748 189.729 100.858 156.117 107.665 129.543C108.076 127.939 109.706 126.97 111.313 127.382C112.916 127.794 113.883 129.428 113.472 131.033C110.122 144.11 102.888 159.538 93.623 173.361C83.7603 188.076 73.2361 198.546 63.991 202.843C51.0112 208.875 46.1496 222.81 47.1252 233.204C47.9204 241.678 52.1898 247.696 58.546 249.303C60.1509 249.708 61.1236 251.339 60.7187 252.946C60.3753 254.306 59.1548 255.212 57.8143 255.212H57.8143Z" fill="black"/>
<path d="M143.15 291.226C140.713 291.226 138.241 290.967 135.801 290.431C124.103 287.861 115.006 279.805 110.186 267.744C104.698 254.011 89.688 251.375 78.0702 254.734C76.474 255.194 74.8164 254.276 74.3589 252.685C73.8993 251.093 74.8155 249.43 76.4057 248.97C84.0176 246.769 91.9954 246.894 98.8687 249.322C106.799 252.123 112.637 257.723 115.751 265.516C121.228 279.221 131.47 283.337 137.086 284.57C145.261 286.366 153.765 284.474 158.747 279.749C167.056 271.872 190.185 262.082 206.702 270.615C217.243 276.061 228.626 276.401 235.699 271.479C240.884 267.87 243.139 261.949 242.219 254.355C241.085 244.995 246.564 238.286 256.877 236.41C263.034 235.289 267.03 231.247 267.839 225.319C268.879 217.702 264.403 206.788 252.117 200.826C227.676 188.964 210.555 167.286 199.777 134.553C199.259 132.979 200.113 131.283 201.685 130.764C203.261 130.247 204.951 131.101 205.47 132.675C215.714 163.784 231.827 184.311 254.732 195.427C265.229 200.521 275.665 212.302 273.779 226.131C272.613 234.672 266.694 240.722 257.949 242.313C252.971 243.219 247.235 245.918 248.17 253.632C249.356 263.431 246.143 271.519 239.12 276.405C230.11 282.675 216.635 282.498 203.952 275.947C190.15 268.816 169.87 277.466 162.87 284.105C158.035 288.689 150.765 291.226 143.15 291.226H143.15Z" fill="black"/>
<path d="M186.012 7.13471C194.428 10.2384 202.125 10.3807 208.477 23.0967C214.829 35.8127 219.551 43.0491 219.551 43.0491C226.638 51.9169 242.585 60.7847 242.142 65.2186C241.699 69.6524 230.433 77.2165 220.609 81.0721C214.765 83.3655 203.333 85.0625 203.333 85.0625C203.333 85.0625 225.26 131.618 217.286 132.948C209.313 134.279 197.353 136.939 180.077 140.929C165.018 144.408 142.204 153.566 118.283 144.255C96.1796 135.651 89.712 132.948 93.0342 114.991C99.0143 104.35 101.672 89.7181 101.672 89.7181C95.692 74.4212 60.4762 67.7704 71.9534 50.0399C79.0207 45.4949 93.7484 33.2946 93.7484 33.2946C93.7484 33.2946 112.082 8.13472 124.042 6.36116C151.949 -4.28015 177.641 0.153727 186.012 7.13471Z" fill="white"/>
<path d="M101.674 92.7183C100.495 92.7183 99.3781 92.0181 98.901 90.8596C96.8443 85.8591 92.5076 83.2454 87.0168 79.9363C81.6566 76.7058 75.5823 73.0444 70.2622 66.2459C66.305 61.1897 63.8484 53.3286 69.9441 47.8137C74.3003 43.8728 78.5726 40.5837 82.3415 37.6816C86.3797 34.5728 89.8666 31.888 91.9476 29.533L92.1837 29.2659C95.1428 25.9131 101.302 18.9365 110.421 11.5645C111.709 10.5242 113.595 10.7241 114.636 12.0132C115.676 13.302 115.475 15.1909 114.187 16.2319C105.461 23.2874 99.5273 30.0088 96.6755 33.239L96.4375 33.5078C93.9769 36.2932 90.2783 39.1406 85.9962 42.4375C82.3152 45.2715 78.1434 48.4837 73.9637 52.2649C70.1461 55.719 73.7774 61.0076 74.9813 62.5462C79.6195 68.4744 84.9523 71.6882 90.1085 74.7962C96.0355 78.3679 101.633 81.7417 104.444 88.5754C105.075 90.1074 104.344 91.8608 102.814 92.4917C102.441 92.6455 102.054 92.7183 101.674 92.7183H101.674Z" fill="black"/>
<path d="M148.642 84.7997C147.398 84.7999 146.235 84.0187 145.808 82.775C140.961 68.6761 142.483 47.8356 145.31 33.9349C145.295 33.9449 145.281 33.9554 145.267 33.9664C129.935 45.7242 123.783 68.5663 123.723 68.7958C123.301 70.3968 121.663 71.3561 120.063 70.9342C118.463 70.5135 117.506 68.8754 117.924 67.2733C118.191 66.2569 124.634 42.2311 141.622 29.2037C143.867 27.4806 146.831 27.2399 148.994 28.6034C150.932 29.8246 151.823 32.0709 151.32 34.4657C148.342 48.6503 147.234 68.485 151.476 80.8229C152.015 82.3895 151.183 84.0965 149.618 84.6356C149.295 84.7469 148.965 84.7997 148.642 84.7997L148.642 84.7997Z" fill="black"/>
<path d="M196.662 81.6676C207.456 109.796 219.95 148.417 222.155 158.204C226.075 175.607 228.147 181.905 223.943 197.266L221.715 211.283C220.736 217.972 226.922 223.817 233.815 221.403C240.709 218.989 240.007 213.844 244.36 210.815C248.491 207.94 258.063 212.153 263.586 219.793C269.11 227.434 280.214 228.141 284.992 227.836C291.783 227.403 297.918 222.578 297.135 215.4C296.353 208.222 287.523 205.153 284.051 203.732C280.16 202.139 267.684 196.264 260.775 187.323C254.181 178.79 231.338 95.2248 225.233 71.6914L196.662 81.6676V81.6676Z" fill="white"/>
<path d="M283.209 230.889C278.298 230.889 267.193 229.901 261.157 221.553C256.033 214.464 248.086 211.871 246.071 213.279C244.837 214.137 244.152 215.294 243.286 216.759C241.79 219.291 239.928 222.44 234.804 224.235C230.718 225.665 226.344 224.917 223.096 222.235C219.787 219.502 218.121 215.139 218.748 210.849C218.988 209.21 220.51 208.074 222.148 208.316C223.786 208.556 224.919 210.079 224.68 211.719C224.349 213.979 225.183 216.18 226.911 217.607C227.875 218.403 229.925 219.588 232.823 218.572C235.883 217.501 236.825 215.908 238.128 213.704C239.166 211.947 240.344 209.956 242.649 208.352C247.792 204.777 258.873 208.159 266.014 218.035C271.391 225.474 283.439 224.929 284.8 224.843C287.911 224.644 290.792 223.307 292.507 221.267C293.83 219.692 294.384 217.828 294.155 215.726C293.617 210.796 287.14 208.203 283.661 206.81L282.915 206.509C280.202 205.398 266.272 199.342 258.404 189.159C252.259 181.207 242.601 146.145 233.08 109.44C219.131 59.3824 212.187 45.1614 208.036 36.6648C207.277 35.1101 206.622 33.7674 206.015 32.4002C205.343 30.8863 206.024 29.1133 207.536 28.4405C209.051 27.7661 210.82 28.4502 211.492 29.9636C212.055 31.2307 212.688 32.5279 213.422 34.0296C217.662 42.711 224.758 57.241 238.867 107.88C244.274 128.724 256.905 177.413 263.145 185.488C270.223 194.649 283.674 200.337 285.185 200.956L285.886 201.239C290.203 202.967 299.186 206.563 300.114 215.075C300.522 218.815 299.478 222.292 297.094 225.128C294.306 228.447 289.964 230.525 285.182 230.831C284.763 230.857 284.084 230.889 283.209 230.889Z" fill="black"/>
<path d="M223.943 200.267C223.681 200.267 223.414 200.232 223.149 200.159C221.553 199.722 220.613 198.071 221.05 196.473C224.736 183.006 223.376 177.048 220.091 162.654C219.816 161.449 219.528 160.188 219.23 158.864C217.158 149.668 207.138 118.04 196.151 89.4115C195.558 87.8649 196.33 86.1295 197.874 85.5353C199.423 84.9411 201.152 85.7135 201.747 87.2602C212.829 116.137 222.966 148.174 225.078 157.544C225.374 158.863 225.661 160.118 225.934 161.317C229.355 176.3 230.915 183.138 226.832 198.059C226.467 199.391 225.26 200.267 223.943 200.267V200.267Z" fill="black"/>
<path d="M219.551 43.0493C219.551 43.0493 216.155 35.0575 208.477 23.0969C200.011 9.90851 194.695 5.91802 186.012 7.13501C183.716 6.28833 180.401 4.88074 176.441 3.4502C167.627 28.7302 161.842 54.502 168.674 79.8062C171.943 93.7112 185 101.355 190.044 94.3739C195.089 87.393 205.327 84.3977 205.327 84.3977C205.327 84.3977 221.409 82.7007 227.253 80.4072C237.078 76.5516 241.7 69.6526 242.143 65.2188C242.585 60.7849 226.639 51.9171 219.551 43.0493V43.0493Z" fill="white"/>
<path d="M163.654 30.104C157.199 30.104 151.75 26.678 148.82 24.3772C147.846 23.6121 146.692 23.5034 145.656 24.0784C137.59 28.5518 130.146 27.8069 124.695 21.9819C122.14 19.2505 120.009 13.126 121.094 7.15504C121.389 5.52418 122.951 4.44386 124.579 4.74C126.208 5.03639 127.288 6.59815 126.991 8.22828C126.264 12.2346 127.759 16.4785 129.07 17.8806C131.327 20.2925 135.202 23.0169 142.75 18.8301C145.902 17.0828 149.642 17.3992 152.52 19.6563C154.661 21.3379 160.277 25.1121 166.17 23.8362C170.945 22.8025 173.014 19.6409 175.632 15.6379C177.528 12.7393 179.612 9.55371 182.968 7.12451C181.23 6.58764 179.233 6.14453 177.912 6.14453C176.257 6.14453 174.915 4.80127 174.915 3.14453C174.915 1.48779 176.257 0.144531 177.912 0.144531C179.139 0.144531 190.786 1.57568 191.716 6.3418C191.976 7.67334 191.48 9.55323 189.229 10.4688C185.073 12.1587 182.923 15.4451 180.647 18.9243C177.82 23.2473 174.615 28.1472 167.436 29.7007C166.146 29.98 164.882 30.104 163.654 30.104V30.104Z" fill="black"/>
<path d="M190.043 99.3695C189.608 99.3695 189.166 99.2743 188.748 99.0734C187.255 98.3563 186.626 96.5641 187.343 95.0704C192.579 84.152 201.727 82.4772 211.412 80.7042C218.164 79.4682 225.818 78.0668 233.475 73.3107C236.242 71.5922 238.707 68.2138 238.859 65.9332C238.914 65.0976 238.664 64.5158 238.023 63.9882L225.685 53.7631C225.627 53.7157 225.572 53.6662 225.519 53.6146C219.844 48.153 215.471 42.3947 212.148 36.0109C211.73 35.2101 211.233 34.1766 210.661 32.9884C208.341 28.1661 204.458 20.0949 200.014 16.1408C198.777 15.0399 198.665 13.1437 199.765 11.9054C200.864 10.6669 202.758 10.5556 203.996 11.6564C209.337 16.4088 213.384 24.8195 216.062 30.3851C216.601 31.5067 217.07 32.4826 217.463 33.2384C220.466 39.0062 224.435 44.233 229.594 49.2133L241.839 59.3605C243.954 61.1024 245.023 63.5805 244.84 66.3319C244.522 71.1124 240.472 76.026 236.636 78.4088C228.014 83.7645 219.767 85.2743 212.49 86.6063C203.301 88.2887 196.661 89.5041 192.746 97.6671C192.231 98.7421 191.159 99.3695 190.043 99.3695H190.043Z" fill="black"/>
<path d="M142.955 150.875C135.339 150.875 127.463 150.006 119.484 147.813C102.938 143.267 93.5314 137.591 89.8786 129.952C87.581 125.145 87.7175 119.709 90.2874 113.795C102.321 86.0903 103.997 71.5705 105.327 50.9502C105.434 49.2963 106.878 48.0434 108.511 48.1499C110.163 48.2566 111.416 49.6833 111.309 51.3369C109.977 71.987 108.177 87.6572 95.7841 116.188C93.9128 120.495 93.7499 124.15 95.2855 127.362C98.0934 133.234 106.528 138.031 121.071 142.027C145.869 148.841 170.221 141.866 188.001 136.774C194.145 135.015 199.449 133.496 204.135 132.656C205.762 132.364 207.322 133.449 207.613 135.081C207.905 136.711 206.82 138.27 205.191 138.562C200.805 139.348 195.636 140.828 189.65 142.543C176.764 146.233 160.554 150.875 142.955 150.875H142.955Z" fill="black"/>
</svg>
