<svg width="300" height="337" viewBox="0 0 300 337" fill="none" xmlns="http://www.w3.org/2000/svg">
<path d="M200.735 179.209C213.011 216.453 231.982 234.217 251.585 243.721C273.533 254.362 272.203 274.315 255.576 284.956C249.602 288.779 242.049 293.619 243.346 299.587C246.672 314.884 228.715 333.506 200.116 317.544C192.135 312.889 173.513 316.214 158.881 327.52C142.239 340.38 116.316 332.176 111.66 316.214C107.952 303.499 101.931 288.794 75.2305 297.446C37.836 309.563 30.3101 259.829 60.7069 245.716C79.3292 237.071 101.942 201.822 108.593 175.884C109.335 155.305 201.478 158.63 200.735 179.209Z" fill="white"/>
<path d="M55.7883 300.805C55.5451 300.805 55.298 300.776 55.0519 300.713C46.2502 298.491 40.1437 290.308 39.1144 279.358C37.9475 266.932 43.8117 250.253 59.4435 242.995C75.967 235.323 98.8722 201.712 105.687 175.138C106.098 173.534 107.731 172.566 109.338 172.977C110.944 173.389 111.91 175.024 111.499 176.628C108.146 189.705 100.904 205.133 91.6301 218.955C81.758 233.67 71.2248 244.14 61.9709 248.437C48.9787 254.469 44.1125 268.403 45.089 278.797C45.8849 287.271 50.1584 293.289 56.5207 294.896C58.1271 295.302 59.1008 296.933 58.6955 298.539C58.3517 299.899 57.1301 300.805 55.7883 300.805H55.7883Z" fill="black"/>
<path d="M141.206 336.82C138.766 336.82 136.293 336.56 133.85 336.024C122.14 333.455 113.035 325.398 108.211 313.338C102.718 299.605 87.6959 296.969 76.064 300.328C74.4664 300.788 72.8082 299.87 72.3492 298.279C71.8892 296.687 72.8062 295.024 74.398 294.564C82.0182 292.363 90.0016 292.488 96.8824 294.916C104.82 297.717 110.664 303.317 113.781 311.11C119.263 324.814 129.514 328.93 135.136 330.164C143.321 331.96 151.832 330.067 156.818 325.342C165.134 317.465 188.289 307.676 204.818 316.209C215.369 321.655 226.764 321.994 233.842 317.072C239.032 313.464 241.289 307.543 240.368 299.949C239.234 290.589 244.719 283.881 255.041 282.004C261.204 280.884 265.204 276.841 266.013 270.913C267.054 263.296 262.574 252.383 250.277 246.421C225.812 234.559 208.675 212.881 197.886 180.148C197.368 178.575 198.223 176.879 199.796 176.36C201.371 175.843 203.066 176.696 203.586 178.27C213.838 209.38 229.967 229.906 252.894 241.022C263.401 246.116 273.847 257.897 271.959 271.726C270.792 280.266 264.868 286.316 256.114 287.907C251.131 288.813 245.39 291.512 246.325 299.227C247.512 309.025 244.296 317.112 237.267 321.999C228.249 328.269 214.761 328.092 202.066 321.54C188.25 314.41 167.951 323.06 160.945 329.698C156.105 334.283 148.828 336.819 141.206 336.82H141.206Z" fill="black"/>
<path d="M55.0023 93.844C53.4741 112.034 37.9263 148.771 56.9332 163.391C79.5319 180.774 98.843 156.707 98.3996 144.736C98.1961 139.241 94.9003 136.957 94.2698 133.337C82.0851 127.332 79.4864 107.905 81.1087 94.2175C81.3081 80.2754 55.2018 79.9018 55.0023 93.844L55.0023 93.844Z" fill="white"/>
<path d="M184.108 52.7323C192.532 55.8359 200.237 55.9782 206.595 68.694C212.953 81.4098 217.679 88.6461 217.679 88.6461C224.774 97.5138 240.736 106.381 240.292 110.815C239.849 115.249 228.572 122.813 218.738 126.669C212.888 128.962 201.446 130.659 201.446 130.659C201.446 130.659 223.394 177.214 215.413 178.544C207.432 179.874 195.46 182.535 178.168 186.525C163.095 190.003 140.258 199.161 116.315 189.85C94.1907 181.247 87.7169 178.544 91.0423 160.587C97.028 149.946 43.5997 126.054 71.9766 91.0865C94.808 62.9526 103.901 56.0594 122.079 51.9587C150.013 41.3176 175.729 45.7514 184.108 52.7323H184.108Z" fill="white"/>
<path d="M73.0721 2.98946L43.7618 0.038591C39.2897 -0.411643 36.3092 3.13037 37.1385 7.90973L48.0317 70.6881C48.861 75.4674 53.1986 79.7462 57.6707 80.1964L86.981 83.1473C91.4531 83.5975 94.4336 80.0555 93.6043 75.2762L82.7111 12.4978C81.8818 7.71845 77.5442 3.43969 73.0721 2.98946Z" fill="black"/>
<path d="M58.059 18.1857L48.9835 17.272C47.022 17.0745 45.1195 15.1979 44.7558 13.1016L44.5139 11.7075C44.1501 9.61127 45.4574 8.05774 47.4189 8.25521L56.4944 9.1689C58.4559 9.36638 60.3584 11.2431 60.7221 13.3393L60.964 14.7334C61.3277 16.8297 60.0205 18.3832 58.059 18.1857Z" fill="#82BE28"/>
<path d="M81.1087 94.2172C81.3241 92.3993 81.6111 90.6787 81.963 89.1084C94.4887 64.6331 74.2037 38.3581 55.8031 39.9103C45.0441 40.8175 43.8316 57.6454 44.275 66.0696C44.7184 74.4938 47.0462 82.0357 55.0271 93.5634C55.0204 93.6544 55.01 93.7511 55.0023 93.8436C63.3917 95.326 72.4695 95.5248 81.1087 94.2172Z" fill="white"/>
<path d="M70.538 170.646C66.2333 170.646 62.0097 169.449 58.4687 167.16C52.7363 163.455 48.746 156.963 46.9296 148.384C44.3144 136.036 47.4921 119.617 49.8124 107.629C50.9072 101.972 52.2656 94.953 51.7929 93.2345C47.5224 86.9255 42.5039 78.1861 41.291 66.3757C40.1816 55.588 42.7509 46.2095 48.163 41.2884C51.8378 37.9467 56.6767 36.7577 62.1552 37.8546C72.5566 39.9347 81.5126 47.0527 86.1123 56.8951C91.0478 67.4565 90.496 79.7208 84.5966 90.5438C83.9834 91.8285 82.2451 100.395 81.8681 110.332C81.4628 121.018 82.8818 128.643 85.665 130.731C86.9902 131.725 87.2597 133.605 86.2656 134.93C85.2705 136.257 83.3925 136.524 82.0654 135.531C77.4101 132.039 75.33 123.382 75.8837 109.8C76.249 100.857 77.8906 90.3102 79.3291 87.6723C84.3046 78.5423 84.7959 68.2502 80.6767 59.4354C76.8242 51.1926 69.6445 45.471 60.9794 43.7379C57.3427 43.0108 54.4707 43.661 52.1992 45.7276C48.3105 49.2634 46.372 57.1276 47.2597 65.7622C48.3378 76.2586 52.7099 83.9018 56.8447 89.9943C58.706 92.7364 57.8398 97.7317 55.7031 108.769C53.4804 120.253 50.4355 135.982 52.7988 147.141C54.2988 154.222 57.3017 159.262 61.7255 162.121C65.2929 164.427 69.8457 165.202 74.208 164.251C75.8183 163.899 77.4248 164.925 77.7783 166.544C78.1308 168.163 77.1044 169.761 75.4853 170.114C73.8466 170.47 72.1865 170.646 70.538 170.646V170.646Z" fill="black"/>
<path d="M146.702 130.396C145.457 130.396 144.293 129.615 143.865 128.371C139.013 114.27 140.537 93.4299 143.366 79.5309C143.352 79.5414 143.337 79.5521 143.322 79.5636C127.937 91.352 121.818 114.161 121.759 114.39C121.339 115.993 119.704 116.951 118.096 116.532C116.493 116.112 115.534 114.472 115.954 112.87C116.221 111.853 122.671 87.8277 139.674 74.8005C141.923 73.0774 144.89 72.8362 147.055 74.2007C148.994 75.4218 149.886 77.6679 149.383 80.0624C146.401 94.2451 145.293 114.079 149.539 126.419C150.078 127.986 149.245 129.693 147.679 130.232C147.356 130.343 147.025 130.396 146.702 130.396Z" fill="black"/>
<path d="M194.768 127.264C205.572 155.393 218.078 194.013 220.285 203.799C224.209 221.202 226.282 227.5 222.074 242.861L219.844 256.878C218.865 263.567 225.056 269.412 231.956 266.998C238.856 264.583 238.154 259.439 242.511 256.409C246.646 253.535 256.226 257.748 261.755 265.388C267.284 273.028 278.399 273.736 283.181 273.431C289.979 272.997 296.12 268.172 295.337 260.995C294.553 253.817 285.714 250.748 282.24 249.327C278.345 247.734 265.857 241.859 258.942 232.918C252.341 224.385 229.477 140.821 223.366 117.288L194.768 127.264V127.264Z" fill="white"/>
<path d="M281.399 276.483C276.483 276.483 265.368 275.495 259.326 267.147C254.196 260.059 246.246 257.465 244.225 258.873C242.991 259.731 242.305 260.889 241.438 262.354C239.941 264.885 238.077 268.035 232.948 269.83C228.863 271.259 224.482 270.512 221.229 267.83C217.917 265.097 216.249 260.734 216.876 256.444C217.117 254.805 218.633 253.671 220.279 253.91C221.918 254.15 223.052 255.673 222.813 257.313C222.482 259.573 223.318 261.774 225.047 263.201C226.012 263.997 228.065 265.182 230.965 264.167C234.028 263.095 234.97 261.503 236.275 259.298C237.314 257.542 238.493 255.551 240.8 253.947C245.948 250.371 257.04 253.753 264.187 263.63C269.57 271.069 281.628 270.523 282.992 270.437C286.105 270.238 288.989 268.902 290.706 266.861C292.03 265.287 292.585 263.422 292.355 261.321C291.817 256.391 285.334 253.797 281.851 252.404L281.105 252.104C278.39 250.993 264.446 244.937 256.569 234.754C250.419 226.802 240.752 191.741 231.222 155.036C217.259 104.974 210.307 90.7552 206.154 82.2594C205.394 80.7058 204.738 79.364 204.13 77.9975C203.458 76.4836 204.139 74.7107 205.653 74.0376C207.17 73.3648 208.941 74.0464 209.613 75.5606C210.176 76.8269 210.81 78.1233 211.543 79.6242C215.788 88.3045 222.891 102.833 237.015 153.476C242.427 174.319 255.07 223.008 261.315 231.083C268.401 240.244 281.865 245.932 283.376 246.551L284.079 246.834C288.4 248.562 297.391 252.158 298.32 260.67C298.728 264.41 297.683 267.886 295.297 270.723C292.506 274.041 288.161 276.12 283.374 276.425C282.955 276.452 282.275 276.483 281.399 276.483V276.483Z" fill="black"/>
<path d="M222.075 245.862C221.812 245.862 221.546 245.827 221.28 245.754C219.683 245.317 218.742 243.667 219.18 242.068C222.869 228.601 221.508 222.643 218.22 208.249C217.944 207.044 217.656 205.784 217.357 204.46C215.284 195.263 205.254 163.636 194.257 135.008C193.663 133.462 194.435 131.726 195.981 131.132C197.533 130.538 199.264 131.31 199.858 132.857C210.95 161.733 221.098 193.77 223.211 203.14C223.508 204.459 223.795 205.713 224.068 206.913C227.492 221.895 229.054 228.733 224.967 243.654C224.601 244.986 223.393 245.862 222.075 245.862V245.862Z" fill="black"/>
<path d="M217.681 88.6454C217.681 88.6454 214.282 80.6537 206.596 68.6933C198.122 55.5051 192.801 51.5147 184.109 52.7316C181.811 51.885 178.493 50.4774 174.529 49.0469C165.707 74.3265 159.916 100.098 166.755 125.402C170.027 139.307 183.096 146.95 188.146 139.969C193.195 132.988 203.442 129.993 203.442 129.993C203.442 129.993 219.541 128.296 225.39 126.003C235.224 122.147 239.85 115.248 240.293 110.815C240.737 106.381 224.775 97.5131 217.681 88.6455V88.6454Z" fill="white"/>
<path d="M161.729 75.7003C155.267 75.7003 149.813 72.2743 146.881 69.9736C145.905 69.2084 144.752 69.0998 143.714 69.6747C135.641 74.1476 128.187 73.4037 122.733 67.5783C120.175 64.8464 118.042 58.722 119.128 52.7516C119.424 51.1208 120.991 50.0405 122.616 50.3366C124.246 50.633 125.327 52.1947 125.03 53.8248C124.303 57.8307 125.8 62.0747 127.112 63.4771C129.373 65.8896 133.252 68.6118 140.806 64.4265C143.96 62.6792 147.706 62.9956 150.584 65.2527C152.727 66.9343 158.347 70.7084 164.247 69.4325C169.027 68.3989 171.098 65.2373 173.719 61.2344C175.616 58.3358 177.702 55.1503 181.06 52.7211C179.321 52.1842 177.323 51.7411 176.001 51.7411C174.344 51.7411 173.001 50.3979 173.001 48.7412C173.001 47.0845 174.344 45.7412 176.001 45.7412C177.228 45.7412 188.886 47.1723 189.817 51.9381C190.077 53.2697 189.582 55.1495 187.328 56.065C183.168 57.7552 181.016 61.0415 178.738 64.5207C175.908 68.8437 172.7 73.7435 165.515 75.2969C164.224 75.5762 162.958 75.7003 161.729 75.7003L161.729 75.7003Z" fill="black"/>
<path d="M188.144 144.966C187.708 144.966 187.266 144.871 186.848 144.67C185.354 143.953 184.724 142.161 185.44 140.667C190.682 129.749 199.839 128.074 209.533 126.301C216.292 125.065 223.954 123.663 231.617 118.907C234.387 117.189 236.855 113.811 237.006 111.53C237.062 110.694 236.812 110.113 236.17 109.585L223.819 99.3601C223.762 99.3128 223.707 99.2632 223.653 99.2117C217.974 93.7501 213.596 87.9919 210.27 81.6082C209.852 80.8074 209.354 79.774 208.781 78.5858C206.459 73.7636 202.572 65.6924 198.124 61.7383C196.886 60.6375 196.774 58.7413 197.875 57.503C198.976 56.2645 200.872 56.1532 202.11 57.254C207.456 62.0064 211.507 70.4169 214.188 75.9825C214.728 77.1041 215.196 78.0799 215.59 78.8358C218.596 84.6035 222.568 89.8302 227.732 94.8104L239.989 104.957C242.106 106.699 243.176 109.177 242.993 111.929C242.675 116.709 238.621 121.623 234.781 124.006C226.151 129.361 217.896 130.871 210.612 132.203C201.414 133.885 194.768 135.101 190.851 143.263C190.334 144.339 189.261 144.966 188.144 144.966H188.144Z" fill="black"/>
<path d="M141.01 196.47C133.386 196.47 125.503 195.601 117.516 193.408C100.955 188.862 91.5388 183.187 87.8826 175.547C85.5818 170.741 85.7195 165.305 88.2908 159.391C100.338 131.683 102.014 117.164 103.344 96.547C103.451 94.8933 104.867 93.6401 106.532 93.7465C108.185 93.853 109.439 95.28 109.333 96.9333C108.001 117.581 106.199 133.249 93.7927 161.783C91.9206 166.09 91.7576 169.745 93.2947 172.957C96.1052 178.83 104.548 183.627 119.104 187.622C143.924 194.436 168.3 187.462 186.097 182.37C192.247 180.61 197.557 179.091 202.248 178.251C203.871 177.96 205.437 179.044 205.729 180.676C206.021 182.307 204.935 183.866 203.304 184.158C198.915 184.944 193.74 186.424 187.748 188.138C174.849 191.828 158.624 196.47 141.01 196.47V196.47Z" fill="black"/>
<path d="M94.0182 116.897C93.0455 116.897 92.0924 116.425 91.5152 115.554C89.6959 112.811 82.9537 107.698 79.0553 105.737C77.5748 104.993 76.9781 103.189 77.7233 101.709C78.4674 100.228 80.277 99.633 81.7506 100.377C85.9723 102.501 93.8229 108.177 96.5152 112.239C97.4313 113.62 97.0543 115.481 95.6734 116.397C95.1627 116.735 94.5875 116.897 94.0182 116.897V116.897Z" fill="black"/>
<path d="M101.239 67.0404C100.519 67.0404 99.7967 66.7828 99.2225 66.2603C97.996 65.1459 97.9061 63.2484 99.0204 62.0224C103.622 56.9592 112.345 52.0882 121.368 52.6211C123.022 52.7183 124.284 54.138 124.187 55.792C124.09 57.4463 122.66 58.7072 121.016 58.6108C113.976 58.1955 106.983 62.1815 103.46 66.0584C102.868 66.7095 102.056 67.0403 101.239 67.0403L101.239 67.0404Z" fill="black"/>
</svg>
