<svg width="300" height="292" viewBox="0 0 300 292" fill="none" xmlns="http://www.w3.org/2000/svg">
<path d="M126.026 8.86523C117.46 13.9002 111.094 23.3478 104.428 37.2627C94.9022 57.1472 86.1236 80.5184 79.7275 101.936C73.3314 123.354 55.1434 167.718 46.7 174.432C37.8533 181.468 24.325 184.198 20.1629 184.817C16.4496 185.369 7.13433 186.244 4.663 193.028C2.19167 199.812 7.00637 205.961 13.5048 208.002C18.0765 209.438 29.0395 211.4 36.2299 205.297C43.4202 199.194 48.7664 196.82 52.0969 200.597C55.6067 204.577 53.6992 209.406 59.8251 213.395C65.9511 217.384 73.3566 213.183 73.9997 206.453L78.5396 196.365C79.8547 192.193 80.614 182.89 79.879 176.944C78.4719 165.564 85.9092 148.012 98.5537 118.808L126.026 8.86523Z" fill="white"/>
<path d="M64.9042 217.936C62.5819 217.936 60.2548 217.254 58.1893 215.909C53.6356 212.943 52.5751 209.44 51.7235 206.625C51.2313 204.995 50.8417 203.708 49.8475 202.58C48.2059 200.72 44.2762 202.402 38.1718 207.584C28.9159 215.439 15.2528 211.695 12.6063 210.864C8.03015 209.427 4.30359 206.372 2.38464 202.484C0.744024 199.161 0.557494 195.536 1.84558 192.001C4.77527 183.955 14.3641 182.605 18.9716 181.956L19.7216 181.849C21.3368 181.608 35.7684 179.293 44.8329 172.084C52.1464 166.268 70.1444 123.545 76.8534 101.077C83.6005 78.4842 92.4325 55.3607 101.723 35.9661C109.34 20.0667 116.154 11.188 124.507 6.27839C125.934 5.43879 127.773 5.91633 128.613 7.34455C129.453 8.77302 128.975 10.6116 127.548 11.4512C120.301 15.7103 114.196 23.817 107.135 38.5584C97.9745 57.679 89.2626 80.4918 82.6034 102.794C76.9891 121.59 58.3104 169.033 48.5673 176.78C38.4921 184.793 23.5058 187.352 20.6044 187.784L19.8085 187.898C16.0936 188.421 9.17957 189.394 7.48328 194.054C6.75867 196.041 6.8534 197.984 7.76453 199.828C8.94519 202.219 11.4266 204.205 14.4042 205.139C15.703 205.548 27.2899 208.951 34.289 203.009C38.0331 199.832 47.9774 191.39 54.3475 198.612C56.2059 200.72 56.8759 202.934 57.4667 204.888C58.2089 207.339 58.744 209.11 61.4628 210.881C64.038 212.558 66.3134 211.897 67.4413 211.353C69.4608 210.38 70.7968 208.441 71.0136 206.167C71.1718 204.518 72.6464 203.308 74.285 203.466C75.9344 203.624 77.1434 205.088 76.9862 206.738C76.5741 211.054 73.9149 214.893 70.0468 216.758C68.412 217.546 66.6591 217.936 64.9042 217.936L64.9042 217.936Z" fill="black"/>
<path d="M123.532 3.16992C106.683 8.93396 90.7212 39.7495 83.4053 47.7305C76.0894 55.7114 56.5439 84.31 46.7528 94.334C41.7545 99.4513 48.6105 108.035 52.3105 110.353C62.406 116.68 81.1519 128.87 87.8027 135.521C94.4536 142.172 109.341 131.895 115.029 114.51C120.717 97.124 138.791 46.0597 141.551 34.7311C131.601 16.6933 135.542 14.7396 123.532 3.16993L123.532 3.16992Z" fill="white"/>
<path d="M102.435 285.608C69.1111 277.462 58.9825 255.901 59.6476 251.467C60.3126 207.128 90.9064 141.95 94.123 111.974C95.7837 84.3099 98.444 33.0986 112.411 14.4763C118.629 6.18501 128.373 5.16514 128.373 5.16514C136.983 13.7757 169.056 15.2858 180.729 3.61328C180.729 3.61328 193.096 5.9804 206.445 37.3108C218.626 65.8985 225.983 112.247 217.265 113.064C208.547 113.881 223.604 124.215 223.604 124.215C224.145 174.096 242.767 222.979 245.76 263.882C246.382 272.388 235.451 273.858 229.465 271.863C223.479 269.868 211.065 267.873 196.876 271.863C182.688 275.854 142.339 295.363 102.435 285.608Z" fill="white"/>
<path d="M124.813 291.029C120.294 291.029 115.64 290.684 110.82 289.899C99.8191 288.109 89.9968 284.953 81.6277 280.52C80.1638 279.745 79.6052 277.929 80.3806 276.465C81.157 275.001 82.9734 274.442 84.4363 275.218C92.2273 279.345 101.428 282.292 111.785 283.978C133.324 287.484 151.043 281.735 169.801 275.649C182.958 271.38 196.562 266.965 211.354 266.207C220.018 265.76 229.217 268.184 233.916 269.667C235.41 270.14 240.475 271.477 242.944 268.885C247.339 264.273 242.781 250.159 240.617 244.305C240.043 242.75 240.838 241.025 242.391 240.451C243.944 239.876 245.67 240.67 246.246 242.225C251.961 257.688 252.301 267.763 247.288 273.024C243.955 276.521 238.424 277.383 232.109 275.389C224.769 273.072 217.317 271.909 211.661 272.199C197.661 272.917 185.028 277.016 171.654 281.356C156.946 286.128 141.841 291.029 124.813 291.029L124.813 291.029Z" fill="black"/>
<path d="M70.4451 272.144C69.7244 272.144 69.0008 271.886 68.4256 271.362C59.9246 263.616 56.7683 255.849 56.6482 251.551C56.3973 242.534 60.2127 219.354 71.6707 181.339C72.4842 178.638 73.324 175.889 74.1795 173.088C82.906 144.518 92.7976 112.136 94.7019 69.9964C94.7771 68.3421 96.1326 67.0587 97.8348 67.1351C99.49 67.2098 100.77 68.6121 100.696 70.2674C98.7566 113.164 88.3113 147.362 79.9178 174.841C79.0642 177.634 78.2273 180.376 77.4148 183.07C62.8904 231.261 62.5642 248.431 62.6463 251.384C62.7117 253.724 64.8475 259.985 72.4666 266.926C73.6912 268.042 73.7791 269.94 72.6639 271.164C72.0721 271.814 71.2596 272.144 70.4451 272.144L70.4451 272.144Z" fill="black"/>
<path d="M198.475 92.9043C209.279 121.033 219.494 152.986 221.701 162.773C225.625 180.175 227.698 186.474 223.49 201.834L221.26 215.852C220.281 222.541 226.472 228.386 233.372 225.972C240.272 223.557 239.57 218.413 243.927 215.384C248.062 212.509 257.643 216.722 263.172 224.362C268.701 232.003 279.815 232.71 284.597 232.405C291.395 231.971 297.536 227.147 296.753 219.969C295.969 212.791 287.131 209.722 283.656 208.301C279.761 206.707 267.273 200.833 260.358 191.892C253.758 183.358 241.651 136.788 235.541 113.254C219.006 53.9688 212.182 44.5135 208.287 35.75L198.475 92.9043V92.9043Z" fill="white"/>
<path d="M282.814 235.456C277.899 235.456 266.782 234.469 260.74 226.12C255.61 219.032 247.659 216.439 245.639 217.847C244.405 218.704 243.719 219.862 242.852 221.327C241.355 223.858 239.491 227.008 234.362 228.803C230.273 230.233 225.894 229.485 222.643 226.803C219.331 224.07 217.663 219.707 218.29 215.417C218.531 213.778 220.056 212.644 221.693 212.883C223.332 213.123 224.466 214.646 224.227 216.286C223.896 218.546 224.732 220.747 226.461 222.174C227.427 222.971 229.478 224.154 232.38 223.14C235.442 222.068 236.384 220.476 237.689 218.272C238.728 216.515 239.907 214.524 242.213 212.92C247.363 209.344 258.453 212.726 265.601 222.603C270.984 230.041 283.049 229.496 284.406 229.411C287.519 229.212 290.403 227.875 292.12 225.835C293.444 224.26 293.999 222.396 293.769 220.294C293.231 215.363 286.748 212.77 283.264 211.377L282.519 211.077C279.803 209.966 265.859 203.909 257.983 193.727C251.834 185.775 242.167 150.713 232.636 114.008C218.673 63.9462 211.721 49.7265 207.568 41.2306C206.808 39.6767 206.152 38.3349 205.544 36.9682C204.872 35.4542 205.553 33.6813 207.067 33.0082C208.583 32.3356 210.354 33.0172 211.027 34.5312C211.59 35.7978 212.224 37.0941 212.958 38.5951C217.202 47.2758 224.305 61.8046 238.429 112.448C243.841 133.292 256.484 181.981 262.729 190.056C269.814 199.216 283.279 204.905 284.791 205.524L285.493 205.806C289.813 207.534 298.805 211.13 299.734 219.643C300.142 223.384 299.097 226.86 296.711 229.696C293.92 233.015 289.575 235.093 284.788 235.399C284.369 235.425 283.69 235.456 282.814 235.456Z" fill="black"/>
<path d="M223.491 204.836C223.228 204.836 222.962 204.801 222.696 204.728C221.099 204.29 220.158 202.64 220.596 201.042C224.285 187.575 222.924 181.617 219.636 167.223C219.36 166.018 219.072 164.758 218.773 163.433C216.7 154.237 206.67 122.609 195.673 93.9804C195.079 92.4338 195.851 90.6985 197.397 90.1042C198.948 89.511 200.679 90.2827 201.274 91.8291C212.366 120.706 222.514 152.744 224.627 162.113C224.924 163.432 225.211 164.687 225.484 165.886C228.908 180.869 230.47 187.707 226.383 202.628C226.017 203.96 224.809 204.836 223.491 204.836Z" fill="black"/>
<path d="M262.523 115.585C263.996 114.259 267.252 108.098 265.792 106.758C245.684 88.3009 222.96 52.4842 215.091 39.0848C198.685 11.1513 186.514 0.840185 177.514 1.84019C158.575 3.94443 171.497 24.5733 177.181 44.4605C181.702 60.2772 180.616 132.553 203.97 137.517C221.705 119.338 242.101 133.97 262.523 115.585Z" fill="white"/>
<path d="M198.867 144.508C198.331 144.508 197.788 144.364 197.298 144.063C195.887 143.194 195.447 141.346 196.316 139.935C202.721 129.526 216.43 127.31 229.688 125.166C240.717 123.383 252.122 121.54 259.612 115.249C261.475 113.686 262.546 111.77 262.63 109.854C262.705 108.155 261.993 106.504 260.572 105.08C247.114 91.5916 236.294 74.2344 225.83 57.4488C218.686 45.9876 211.938 35.1619 205.142 27.0438L204.456 26.2244C200.87 21.9354 196.406 16.5972 192.51 13.0428C191.285 11.9263 191.198 10.0289 192.315 8.80474C193.431 7.58062 195.329 7.49273 196.553 8.61016C200.749 12.4375 205.357 17.9478 209.06 22.3755L209.743 23.1924C216.807 31.6321 223.663 42.6304 230.922 54.2747C241.208 70.7752 251.844 87.8374 264.82 100.843C267.422 103.45 268.773 106.744 268.624 110.118C268.465 113.733 266.635 117.187 263.472 119.844C254.713 127.199 242.478 129.177 230.646 131.089C218.172 133.106 206.391 135.011 201.425 143.08C200.859 144.001 199.875 144.508 198.867 144.508L198.867 144.508Z" fill="black"/>
<path d="M87.8048 138.522C86.8927 138.522 85.9923 138.107 85.4025 137.322C77.4884 126.769 64.9972 120.011 55.8761 115.076C51.6749 112.802 48.3566 111.007 46.423 109.311C43.8761 107.078 42.2921 103.801 42.0773 100.323C41.8615 96.8366 43.0744 93.4209 45.4933 90.7046C59.6105 75.8633 72.3234 58.1679 79.9201 47.5952C81.9103 44.8239 83.63 42.4306 84.9953 40.6101C86.38 38.7646 87.8263 36.7885 89.3224 34.7451C96.6456 24.7419 104.946 13.404 113.258 7.09812C114.578 6.09739 116.461 6.35496 117.461 7.67502C118.463 8.99509 118.204 10.8769 116.885 11.8784C109.27 17.655 101.244 28.6174 94.1632 38.2893C92.6535 40.3523 91.1925 42.3471 89.796 44.2099C88.4669 45.9812 86.7638 48.3515 84.7921 51.0962C77.1066 61.7942 64.2423 79.6997 49.9074 94.7673C48.2482 96.6333 47.9835 98.624 48.0656 99.9526C48.1808 101.819 49.046 103.631 50.379 104.8C51.8048 106.051 55.0148 107.788 58.7316 109.799C67.798 114.704 81.5001 122.118 90.2033 133.721C91.1974 135.047 90.9279 136.927 89.6027 137.921C89.0636 138.326 88.4318 138.522 87.8048 138.522L87.8048 138.522Z" fill="black"/>
<path d="M150.626 15.583C150.162 15.583 149.7 15.5764 149.239 15.5632C140.011 15.3022 131.662 12.3135 126.332 7.36378C125.117 6.23634 125.047 4.33815 126.175 3.12403C127.302 1.91041 129.2 1.83912 130.414 2.96729C138.896 10.8418 158.001 13.1528 176.71 1.92798C178.131 1.07544 179.974 1.53638 180.826 2.95703C181.679 4.37768 181.218 6.22046 179.798 7.073C170.496 12.6541 160.44 15.583 150.626 15.583V15.583Z" fill="black"/>
<path d="M191.554 129.433C190.282 129.433 189.101 128.618 188.696 127.342C185.651 117.772 183.732 102.772 183.238 92.8848C183.155 91.23 184.43 89.8213 186.085 89.7385C187.73 89.6633 189.147 90.9299 189.23 92.585C189.706 102.098 191.531 116.463 194.413 125.523C194.916 127.102 194.043 128.789 192.464 129.291C192.162 129.387 191.855 129.433 191.554 129.433Z" fill="black"/>
</svg>
