<svg width="300" height="343" viewBox="0 0 300 343" fill="none" xmlns="http://www.w3.org/2000/svg">
<path d="M47.8031 93.8451C46.275 112.036 29.185 156.72 48.1918 171.341C70.7905 188.725 91.6438 156.709 91.2004 144.738C90.9969 139.243 87.7011 136.958 87.0706 133.339C74.8859 127.333 72.2872 107.906 73.9095 94.2187C74.109 80.2763 48.0026 79.9028 47.8031 93.8451V93.8451Z" fill="white"/>
<path d="M128.35 56.1719C104.846 61.9696 104.482 89.3187 91.8457 95.9696C79.2725 121.216 61.8457 110.97 71.8457 133.97C86.8457 147.97 80.8457 179.97 61.8457 176.97C77.8457 189.97 89.8457 178.97 102.846 185.97C108.534 168.584 138.768 97.0663 141.529 85.7377C131.578 67.7 140.36 67.7415 128.35 56.1719Z" fill="#2D8C3C"/>
<path d="M65.8729 2.9895L36.5626 0.0385915C32.0905 -0.411648 29.11 3.13041 29.9393 7.90984L40.8325 70.6891C41.6618 75.4685 45.9993 79.7473 50.4715 80.1976L79.7818 83.1485C84.2539 83.5987 87.2344 80.0566 86.405 75.2772L75.5119 12.498C74.6825 7.71856 70.345 3.43974 65.8729 2.9895Z" fill="black"/>
<path d="M50.8598 18.1868L41.7842 17.2731C39.8228 17.0756 37.9203 15.1989 37.5566 13.1027L37.3147 11.7085C36.9509 9.61226 38.2582 8.05871 40.2197 8.25618L49.2952 9.16989C51.2567 9.36737 53.1591 11.2441 53.5229 13.3403L53.7648 14.7345C54.1285 16.8308 52.8213 18.3843 50.8598 18.1868Z" fill="#82BE28"/>
<path d="M73.9095 94.2189C74.1249 92.4011 74.4119 90.6804 74.7638 89.11C87.2895 64.6344 67.0045 38.3591 48.6039 39.9113C37.8449 40.8185 36.6324 57.6466 37.0758 66.071C37.5191 74.4953 39.847 82.0373 47.8279 93.5651C47.8211 93.6562 47.8108 93.7529 47.8031 93.8454C56.1925 95.3278 65.2703 95.5265 73.9095 94.2189Z" fill="white"/>
<path d="M61.773 179.165C59.6627 179.165 57.4712 178.877 55.2789 178.227C50.2593 176.737 41.3599 171.984 38.1636 156.887C35.5494 144.546 39.1461 125.815 42.0347 110.765C43.3677 103.824 45.0201 95.2161 44.5591 93.1856C40.2964 86.879 35.3023 78.1534 34.0914 66.3772C32.983 55.5884 35.5523 46.2098 40.9644 41.2891C44.6382 37.9476 49.4761 36.7586 54.9556 37.8558C65.357 39.9358 74.314 47.054 78.9136 56.8965C83.8492 67.4578 83.2974 79.7225 77.398 90.5457C76.7095 92.066 74.6246 102.877 73.8648 114.797C72.8717 130.392 74.7808 137.646 76.898 139.234C78.2242 140.228 78.4927 142.108 77.4986 143.434C76.5035 144.76 74.6207 145.027 73.2984 144.034C68.5611 140.481 66.7965 130.648 67.9058 113.975C68.6285 103.114 70.6812 90.3318 72.1304 87.6739C77.106 78.5437 77.5972 68.2518 73.4781 59.4371C69.6256 51.1939 62.4459 45.4725 53.7799 43.7391C50.1451 43.0115 47.273 43.6619 45.0006 45.7283C41.1119 49.264 39.1724 57.1282 40.0601 65.7637C41.1392 76.2581 45.5113 83.9024 49.6451 89.9961C51.4332 92.6311 50.69 97.5049 47.9273 111.896C45.2867 125.651 41.6705 144.488 44.0328 155.644C46.4586 167.098 52.4156 171.118 56.9859 172.474C63.2545 174.335 69.1568 172.091 71.3443 169.904C72.5162 168.733 74.4146 168.733 75.5865 169.905C76.7584 171.076 76.7584 172.976 75.5865 174.147C72.7476 176.986 67.5709 179.165 61.773 179.165H61.773Z" fill="black"/>
<path d="M102.413 336.615C69.0896 328.469 58.961 306.908 59.6261 302.474C60.2912 258.135 90.8849 192.957 94.1015 162.981C95.7622 135.317 95.9839 81.9974 112.389 65.4831C120.847 56.9697 128.351 56.172 128.351 56.172C135.847 64.9697 160.847 64.9697 180.707 54.6201C180.707 54.6201 193.074 56.9872 206.424 88.3176C218.605 116.905 225.961 163.254 217.243 164.071C208.525 164.888 223.582 175.222 223.582 175.222C224.123 225.103 242.745 273.986 245.738 314.889C246.361 323.395 235.429 324.865 229.444 322.87C223.458 320.875 211.043 318.879 196.855 322.87C182.666 326.86 142.318 346.369 102.413 336.615V336.615Z" fill="#2D8C3C"/>
<path d="M93.1231 101.676C92.8194 101.676 92.5108 101.63 92.2061 101.533C90.6289 101.027 89.7598 99.3393 90.2647 97.7619C90.626 96.6345 99.2969 70.0432 116.145 60.9306C117.603 60.1413 119.422 60.685 120.211 62.142C120.999 63.5993 120.457 65.4199 119 66.208C104.284 74.1677 96.0606 99.3391 95.9785 99.5922C95.5703 100.865 94.3916 101.676 93.1231 101.676V101.676Z" fill="black"/>
<path d="M124.792 342.036C120.272 342.036 115.619 341.69 110.799 340.906C99.7986 339.115 89.9763 335.959 81.6062 331.527C80.1423 330.751 79.5837 328.935 80.3591 327.471C81.1355 326.008 82.95 325.45 84.4148 326.224C92.2068 330.351 101.408 333.298 111.763 334.984C133.304 338.49 151.022 332.742 169.781 326.655C182.937 322.386 196.542 317.972 211.334 317.213C220.022 316.766 229.195 319.19 233.894 320.674C235.389 321.145 240.454 322.483 242.923 319.891C247.318 315.279 242.76 301.165 240.596 295.311C240.022 293.757 240.817 292.031 242.371 291.457C243.924 290.881 245.65 291.677 246.225 293.231C251.939 308.695 252.28 318.769 247.266 324.03C243.934 327.528 238.398 328.388 232.088 326.395C224.75 324.078 217.3 322.914 211.64 323.205C197.639 323.923 185.007 328.022 171.633 332.362C156.925 337.134 141.819 342.036 124.792 342.036V342.036Z" fill="black"/>
<path d="M198.453 143.91C209.257 172.039 219.472 203.992 221.679 213.778C225.604 231.181 227.677 237.48 223.469 252.84L221.239 266.858C220.259 273.547 226.451 279.392 233.351 276.978C240.251 274.563 239.549 269.419 243.906 266.389C248.041 263.515 257.621 267.728 263.15 275.368C268.679 283.008 279.794 283.716 284.576 283.411C291.373 282.977 297.515 278.152 296.731 270.975C295.948 263.797 287.109 260.728 283.634 259.306C279.74 257.713 267.252 251.839 260.336 242.898C253.736 234.364 241.63 187.794 235.519 164.26C218.985 104.975 212.161 95.5194 208.266 86.7559L198.453 143.91Z" fill="white"/>
<path d="M282.794 286.463C277.878 286.463 266.761 285.475 260.719 277.127C255.589 270.038 247.639 267.446 245.619 268.853C244.384 269.711 243.699 270.868 242.832 272.333C241.335 274.865 239.47 278.014 234.341 279.809C230.252 281.24 225.874 280.491 222.623 277.809C219.31 275.075 217.642 270.713 218.27 266.423C218.51 264.783 220.034 263.653 221.673 263.889C223.313 264.129 224.447 265.653 224.208 267.292C223.877 269.552 224.711 271.753 226.441 273.18C227.406 273.977 229.458 275.161 232.359 274.146C235.421 273.075 236.364 271.482 237.669 269.278C238.708 267.521 239.886 265.531 242.193 263.926C247.34 260.35 258.433 263.733 265.581 273.609C270.963 281.048 283.025 280.504 284.385 280.417C287.5 280.219 290.383 278.881 292.099 276.841C293.423 275.266 293.978 273.402 293.749 271.301C293.211 266.37 286.727 263.777 283.245 262.384L282.499 262.083C279.783 260.972 265.839 254.916 257.963 244.733C251.813 236.781 242.146 201.719 232.616 165.014C218.654 114.956 211.703 100.735 207.548 92.2388C206.789 90.6841 206.132 89.3414 205.525 87.9742C204.852 86.4603 205.534 84.6873 207.047 84.0145C208.567 83.3406 210.334 84.0242 211.007 85.5377C211.571 86.8047 212.205 88.1019 212.939 89.6036C217.183 98.285 224.286 112.815 238.409 163.454C243.821 184.298 256.463 232.987 262.71 241.062C269.794 250.223 283.258 255.911 284.77 256.53L285.472 256.813C289.794 258.541 298.785 262.137 299.713 270.65C300.122 274.389 299.077 277.865 296.692 280.702C293.901 284.021 289.554 286.099 284.767 286.405C284.348 286.431 283.669 286.463 282.794 286.463H282.794Z" fill="black"/>
<path d="M223.47 255.842C223.207 255.842 222.94 255.807 222.675 255.734C221.077 255.296 220.137 253.646 220.574 252.048C224.265 238.578 222.902 232.619 219.612 218.222C219.338 217.019 219.051 215.761 218.752 214.439C216.679 205.242 206.648 173.614 195.651 144.986C195.058 143.44 195.83 141.704 197.376 141.11C198.928 140.517 200.658 141.289 201.253 142.835C212.345 171.711 222.492 203.749 224.605 213.119C224.902 214.435 225.188 215.687 225.462 216.885C228.887 231.871 230.449 238.711 226.361 253.634C225.996 254.966 224.788 255.842 223.47 255.842Z" fill="black"/>
<path d="M262.502 166.591C263.974 165.265 267.231 159.104 265.771 157.764C245.663 139.307 222.939 103.491 215.069 90.0912C198.664 62.1578 194.846 55.9697 179.846 53.9697C163.2 65.0928 171.476 75.5797 177.16 95.467C181.68 111.284 180.595 183.559 203.948 188.523C221.684 170.344 242.08 184.976 262.502 166.591Z" fill="#2D8C3C"/>
<path d="M198.847 195.514C198.311 195.514 197.768 195.37 197.277 195.068C195.866 194.2 195.427 192.352 196.295 190.941C202.7 180.532 216.409 178.315 229.667 176.172C240.696 174.389 252.101 172.545 259.591 166.255C261.453 164.692 262.525 162.776 262.609 160.86C262.684 159.161 261.972 157.51 260.551 156.086C247.093 142.597 236.273 125.24 225.809 108.455C218.664 96.9933 211.916 86.1676 205.12 78.0494L204.432 77.226C200.847 72.9381 196.384 67.6019 192.488 64.0487C191.264 62.9322 191.177 61.0348 192.293 59.8107C193.409 58.5865 195.308 58.4987 196.531 59.6156C200.727 63.442 205.333 68.9506 209.034 73.3771L209.722 74.1981C216.785 82.6378 223.642 93.6363 230.901 105.281C241.187 121.781 251.822 138.843 264.799 151.848C267.401 154.456 268.751 157.75 268.603 161.124C268.443 164.739 266.613 168.193 263.449 170.849C254.692 178.204 242.457 180.182 230.624 182.095C218.152 184.112 206.37 186.016 201.404 194.086C200.838 195.006 199.855 195.514 198.847 195.514L198.847 195.514Z" fill="black"/>
<path d="M150.603 66.5897C150.14 66.5897 149.678 66.5832 149.215 66.57C139.989 66.309 131.639 63.3205 126.309 58.3707C125.094 57.2433 125.024 55.3451 126.152 54.131C127.278 52.9176 129.177 52.8458 130.391 53.9738C138.872 61.8478 157.98 64.1603 176.687 52.9347C178.109 52.0824 179.95 52.5431 180.803 53.9638C181.656 55.3844 181.195 57.2272 179.775 58.0797C170.473 63.6608 160.416 66.5897 150.603 66.5897L150.603 66.5897Z" fill="black"/>
<path d="M191.532 180.439C190.261 180.439 189.08 179.625 188.675 178.348C185.63 168.778 183.711 153.778 183.217 143.891C183.134 142.236 184.408 140.827 186.063 140.745C187.716 140.667 189.127 141.936 189.209 143.591C189.685 153.104 191.51 167.469 194.392 176.529C194.894 178.108 194.021 179.795 192.442 180.297C192.141 180.394 191.834 180.439 191.532 180.439Z" fill="black"/>
<path d="M70.4236 323.149C69.7029 323.149 68.9793 322.891 68.4041 322.367C59.9012 314.621 56.7459 306.854 56.6268 302.556C56.3758 293.54 60.1902 270.36 71.6482 232.345C72.4627 229.642 73.3025 226.892 74.159 224.09C82.8855 195.521 92.7762 163.139 94.6795 121.002C94.7527 119.393 96.0799 118.138 97.6746 118.138C97.7195 118.138 97.7654 118.139 97.8123 118.141C99.4676 118.216 100.748 119.618 100.674 121.273C98.7351 164.167 88.2898 198.364 79.8973 225.842C79.0428 228.637 78.2049 231.38 77.3924 234.076C62.8689 282.267 62.5428 299.437 62.6248 302.39C62.6893 304.731 64.825 310.99 72.4451 317.931C73.6697 319.047 73.7586 320.945 72.6424 322.17C72.0506 322.819 71.2381 323.149 70.4236 323.149L70.4236 323.149Z" fill="black"/>
</svg>
