<svg width="300" height="259" viewBox="0 0 300 259" fill="none" xmlns="http://www.w3.org/2000/svg">
<path d="M112.128 199.92C108.267 207.911 93.4527 206.564 88.8984 216.913C86.3114 222.791 90.041 227.841 100.991 229.025C116.601 230.712 130.7 228.662 139.778 224.356C145.561 221.612 146.082 213.26 145.931 209.821C145.781 206.382 145.435 207.909 143.766 200.3C142.448 194.294 142.007 189.293 144.427 171.886C146.047 160.228 146.376 159.507 147.303 154.868L112.128 199.92L112.128 199.92Z" fill="white"/>
<path d="M111.879 232.621C108.227 232.621 104.472 232.419 100.668 232.008C91.6225 231.03 87.8891 227.651 86.3491 224.988C84.7583 222.237 84.6899 219.027 86.1518 215.705C89.0776 209.057 95.2192 206.555 100.637 204.348C104.66 202.709 108.133 201.294 109.427 198.616C109.52 198.424 109.632 198.243 109.764 198.075L144.939 153.023C145.796 151.926 147.292 151.564 148.554 152.142C149.818 152.722 150.518 154.094 150.245 155.457C150.076 156.305 149.925 157.024 149.785 157.701C149.162 160.69 148.711 162.85 147.398 172.3C144.972 189.747 145.515 194.275 146.697 199.658C147.452 203.1 147.914 204.564 148.219 205.533C148.644 206.878 148.835 207.561 148.928 209.691C149.21 216.153 147.293 224.112 141.064 227.067C133.398 230.704 123.128 232.621 111.879 232.621H111.879ZM114.675 201.534C112.319 206.068 107.533 208.017 102.901 209.904C98.1128 211.855 93.5913 213.697 91.644 218.122C90.6352 220.414 91.3188 221.596 91.5434 221.985C92.7202 224.02 96.2807 225.499 101.313 226.043C115.549 227.581 129.446 225.938 138.492 221.646C143.208 219.409 142.976 210.914 142.934 209.953C142.872 208.524 142.815 208.343 142.498 207.339C142.16 206.268 141.648 204.649 140.835 200.944C139.334 194.103 139.088 188.496 141.455 171.474C141.737 169.442 141.981 167.738 142.196 166.286L114.675 201.534L114.675 201.534Z" fill="black"/>
<path d="M192.306 226.675C191.229 222.365 191.849 213.582 192.514 207.264C193.18 200.946 160.591 204.604 159.26 217.24C157.93 229.877 146.336 234.576 143.97 242.506C142.549 247.269 143.004 253.317 152.606 255.12C167.525 257.921 194.102 252.892 194.102 239.245C194.102 235.636 193.384 230.985 192.306 226.675L192.306 226.675Z" fill="white"/>
<path d="M192.306 226.675C193.743 231.703 194.102 235.636 194.102 239.245C194.102 252.893 167.525 257.921 152.605 255.12C143.004 253.318 142.059 247.095 143.97 242.506C148.952 230.542 156.932 232.87 159.26 216.243" fill="white"/>
<path d="M161.479 258.872C158.101 258.872 154.887 258.601 152.051 258.068C145.559 256.849 142.683 253.793 141.413 251.443C139.828 248.509 139.751 244.831 141.199 241.353C143.493 235.844 146.404 233.007 148.974 230.504C152.376 227.189 155.064 224.57 156.288 215.827C156.517 214.186 158.029 213.046 159.675 213.272C161.315 213.501 162.46 215.018 162.229 216.659C160.722 227.435 156.878 231.18 153.16 234.802C150.795 237.107 148.559 239.285 146.738 243.659C146.298 244.717 145.706 246.765 146.692 248.591C147.623 250.314 149.858 251.552 153.158 252.171C163.446 254.102 180.105 251.955 187.545 245.782C189.937 243.797 191.101 241.659 191.101 239.245C191.101 236.515 190.909 232.712 189.42 227.499C188.965 225.906 189.888 224.246 191.48 223.79C193.068 223.336 194.733 224.256 195.189 225.851C196.511 230.477 197.101 234.608 197.101 239.245C197.101 243.436 195.121 247.293 191.377 250.4C184.435 256.159 172.153 258.872 161.479 258.872L161.479 258.872Z" fill="black"/>
<path d="M110.889 43.8065C107.606 42.227 104.324 40.6454 101.038 39.0732C99.1849 43.5063 97.4346 47.9273 95.8516 52.2369C90.539 66.7003 76.1367 96.4481 70.0416 100.708C63.6554 105.172 54.2316 106.474 51.3417 106.723C48.7634 106.945 42.3172 107.15 40.328 111.713C38.3388 116.275 41.3896 120.711 45.7736 122.391C48.8579 123.574 56.317 125.39 61.5239 121.498C66.7307 117.605 70.51 116.199 72.6407 118.939C74.886 121.827 73.3679 125.069 77.4128 128.074C81.4577 131.079 86.7315 128.504 87.4606 123.901L91.0136 117.154C92.096 114.34 93.0146 107.971 92.762 103.85C92.2785 95.9595 98.1428 84.2006 108.086 64.6465L110.889 43.8065H110.889Z" fill="white"/>
<path d="M82.3922 132.776C80.0475 132.776 77.6959 132.021 75.6237 130.481C72.3434 128.044 71.694 125.293 71.2203 123.285C70.942 122.105 70.7604 121.407 70.2731 120.78C69.652 119.981 66.9215 121.207 63.32 123.9C56.2252 129.203 46.5641 125.907 44.6998 125.192C41.3756 123.918 38.7506 121.472 37.4977 118.482C36.4088 115.885 36.4371 113.129 37.5778 110.513C40.1608 104.589 47.4557 104.018 50.5709 103.775L51.0846 103.733C52.1803 103.639 61.9801 102.683 68.3229 98.2491C73.4137 94.69 91.2194 61.3077 97.8649 35.8924C98.2828 34.2899 99.9225 33.3287 101.526 33.7491C103.13 34.1683 104.089 35.8075 103.67 37.4105C97.0895 62.5726 79.0338 98.0824 71.7604 103.167C64.2936 108.386 53.6559 109.534 51.5992 109.712L51.0387 109.757C48.8258 109.93 44.2203 110.29 43.0777 112.911C42.6012 114.004 42.5856 115.098 43.0309 116.163C43.6451 117.628 45.0719 118.909 46.8473 119.589C47.6734 119.906 55.0572 122.586 59.7281 119.094C62.6383 116.918 70.3736 111.135 75.0094 117.097C76.3229 118.787 76.7311 120.516 77.0592 121.906C77.4459 123.545 77.6803 124.534 79.2018 125.665C82.0455 127.777 84.8629 126.616 86.5533 124.826C89.8014 121.386 91.2857 114.518 90.732 105.489C90.2106 96.9774 95.7379 85.6637 106.377 64.7423C107.128 63.265 108.935 62.6773 110.41 63.4281C111.887 64.179 112.475 65.9852 111.724 67.462C102.755 85.1004 96.275 97.8446 96.7203 105.122C97.3873 115.98 95.3795 124.218 90.9156 128.946C88.524 131.477 85.4654 132.776 82.3922 132.776L82.3922 132.776Z" fill="black"/>
<path d="M120.207 13.2929C116.14 11.3978 113.036 11.8412 105.055 18.0486C97.0739 24.256 78.0736 44.1099 78.8949 50.4159C79.5781 55.6613 85.43 60.5926 88.1764 62.462C91.913 65.0054 99.3118 68.4973 102.395 67.708C107.413 66.4232 107.669 54.0543 109.398 44.7238C111.752 32.0116 125.26 15.647 120.207 13.2929V13.2929Z" fill="white"/>
<path d="M211.575 199.079C204.795 196.229 202.551 190.01 200.102 182.452C197.816 175.394 197.397 169.268 199.054 160.82C216.79 141.754 213.686 127.122 211.026 114.707C209.274 106.53 203.456 88.1624 203.456 88.1624L197.281 74.3589L196.401 66.1544L191.131 69.2286C191.515 65.9714 191.506 62.1543 189.136 55.9834C183.733 41.9085 180.599 37.4766 182.144 30.011C184.399 19.1154 188.424 18.8054 186.231 14.2096C184.507 10.5993 180.725 7.55367 176.423 9.03328C173.436 10.0605 172.436 9.98805 170.424 12.3296C165.593 17.9514 159.723 19.9835 153.75 22.4588C145.812 25.7481 141.843 27.3927 137.699 26.043C133.1 24.5453 127.554 19.6133 125.856 13.5762C125.18 11.1762 126.928 9.85817 125.114 8.86537C122.894 7.65004 120.19 11.4362 119.461 11.8582C113.208 15.4805 112.288 24.4553 110.674 33.4619C109.077 42.376 103.866 48.928 102.319 58.5262C99.0245 78.984 90.1688 83.2179 91.5277 99.6491C91.7379 102.191 89.1678 114.416 89.5325 115.611C90.1258 117.555 91.1614 119.313 92.5518 120.907C92.5372 121.301 92.5199 121.692 92.5118 122.095C92.1304 141.177 93.2654 146.801 91.5692 162.456C91.3365 164.603 83.0479 180.124 81.5516 187.107C80.055 194.091 87.2945 201.984 92.0128 200.587C104.663 196.841 111.87 199.736 119.503 203.691C126.317 207.222 131.628 210.27 140.957 209.031C142.616 217.405 155.891 229.407 172.709 218.323C184.21 210.743 188.814 213.661 196.652 216.992C214.388 224.53 216.616 201.197 211.575 199.079L211.575 199.079Z" fill="#2D8C3C"/>
<path d="M158.846 225.836C153.187 225.837 147.706 223.618 143.863 220.25C137.479 214.657 136.021 206.827 140.122 200.262C140.283 199.942 140.45 199.615 140.622 199.281C142.257 196.095 144.111 192.484 144.485 186.053C145.016 176.913 143.978 170.296 142.762 166.816C137.342 165.531 126.679 162.355 120.678 152.661C119.806 151.252 120.241 149.403 121.65 148.531C123.059 147.659 124.907 148.093 125.78 149.502C130.483 157.1 138.842 159.803 145.599 161.309C146.497 161.509 147.254 162.11 147.652 162.94C149.99 167.817 151.045 176.587 150.475 186.401C150.028 194.096 147.677 198.676 145.96 202.021C145.775 202.383 145.593 202.735 145.421 203.08C145.374 203.174 145.323 203.265 145.266 203.353C141.41 209.392 146.243 214.359 147.817 215.738C152.847 220.144 161.668 221.899 168.116 216.47C177.634 208.455 187.97 207.083 195.765 212.799C199.366 215.438 202.75 215.41 205.294 212.718C208.074 209.78 209.08 204.187 205.863 200.276C201.13 194.523 200.399 192.489 198.445 187.056L198.112 186.13C196.038 180.391 193.172 164.662 194.85 159.07C195.025 158.486 195.373 157.97 195.849 157.59C197.869 155.973 200.214 153.416 202.28 150.575C203.254 149.235 205.127 148.937 206.471 149.913C207.811 150.887 208.107 152.763 207.132 154.103C205.035 156.987 202.641 159.653 200.439 161.571C199.863 165.839 201.625 178.197 203.754 184.092L204.09 185.025C205.93 190.139 206.424 191.514 210.495 196.464C215.863 202.987 214.282 211.947 209.654 216.841C205.987 220.718 199.479 222.963 192.216 217.638C186.723 213.608 179.346 214.856 171.981 221.06C167.985 224.425 163.359 225.836 158.846 225.836L158.846 225.836Z" fill="black"/>
<path d="M98.8504 71.5954C98.6267 71.5954 98.4002 71.5703 98.1726 71.5178C91.155 69.8986 83.7254 64.029 79.4949 59.4944C72.824 52.3435 77.4724 45.4904 82.3533 39.6284C87.4676 33.486 95.0525 24.6911 101.85 19.2531C103.144 18.2182 105.032 18.4279 106.067 19.7216C107.102 21.0154 106.892 22.9033 105.598 23.9382C99.2263 29.0363 91.9119 37.5256 86.9646 43.4677C80.9217 50.7251 81.4197 52.7627 83.8816 55.4016C87.824 59.6267 94.1883 64.4409 99.5222 65.6716C101.136 66.0439 102.143 67.6548 101.77 69.2693C101.451 70.6567 100.216 71.5954 98.8504 71.5954H98.8504Z" fill="black"/>
<path d="M181.701 46.4171C190.352 65.3008 200.628 91.3289 202.57 97.9662C206.024 109.769 205.992 120.273 204.788 123.561C203.585 126.85 203.126 130.877 203.791 135.699C204.251 139.033 208.694 142.899 213.336 140.939C217.979 138.98 217.273 135.471 220.14 133.198C222.86 131.042 229.633 133.525 233.768 138.542C237.902 143.559 245.579 143.564 248.856 143.147C253.514 142.554 257.53 138.969 256.68 134.065C255.83 129.161 249.617 127.432 247.165 126.605C244.416 125.678 235.57 122.177 230.426 116.325C225.516 110.74 206.167 54.2409 200.944 38.3154L181.701 46.4171V46.4171Z" fill="white"/>
<path d="M246.116 146.305C242.122 146.305 235.574 145.451 231.452 140.449C227.843 136.068 222.845 134.94 222.002 135.549C221.381 136.042 221.039 136.677 220.489 137.756C219.552 139.595 218.268 142.114 214.504 143.703C211.451 144.991 208.066 144.628 205.445 142.73C202.786 140.803 201.302 137.555 201.575 134.254C201.712 132.604 203.149 131.371 204.812 131.511C206.464 131.648 207.691 133.097 207.555 134.748C207.453 135.99 207.979 137.157 208.966 137.871C209.504 138.262 210.64 138.821 212.17 138.175C213.917 137.438 214.379 136.532 215.143 135.032C215.792 133.76 216.598 132.177 218.275 130.847C222.786 127.268 231.398 130.949 236.083 136.634C239.792 141.132 247.601 140.283 248.477 140.17C250.364 139.93 252.053 139.024 252.998 137.746C253.683 136.818 253.928 135.752 253.724 134.577C253.236 131.759 248.847 130.317 246.738 129.623L246.206 129.447C243.052 128.383 235.961 124.32 230.358 117.947C225.437 112.349 216.898 87.1013 209.282 63.8757C208.765 62.3015 209.624 60.6067 211.198 60.0903C212.77 59.575 214.467 60.4309 214.983 62.0061C219.58 76.0213 230.343 108.842 234.864 113.985C239.823 119.626 246.047 123.061 248.124 123.762L248.612 123.923C251.581 124.899 258.532 127.185 259.636 133.552C260.124 136.364 259.497 139.047 257.824 141.312C255.897 143.92 252.766 145.673 249.235 146.123C248.703 146.19 247.581 146.305 246.116 146.305V146.305Z" fill="black"/>
<path d="M205.624 125.397C205.418 125.397 205.21 125.376 205 125.332C203.378 124.989 202.342 123.397 202.686 121.776C204.257 114.346 203.246 110.905 200.244 100.69L199.692 98.8084C197.877 92.6041 189.63 71.3453 180.839 52.1544C180.15 50.648 180.811 48.8675 182.318 48.1773C183.825 47.4876 185.605 48.1497 186.295 49.6554C195.33 69.379 203.541 90.5955 205.45 97.1236L206.001 98.9981C209.049 109.372 210.441 114.107 208.555 123.018C208.257 124.429 207.011 125.397 205.624 125.397Z" fill="black"/>
<path d="M187.578 20.0444C187.112 19.49 186.197 18.4339 184.957 18.4107C181.321 18.343 177.323 24.6379 176.313 27.7698C172.57 39.3699 182.919 75.3999 190.312 77.0805C200.842 79.9703 210.19 71.4665 211.693 70.0455C213.639 68.2058 226.468 65.324 225.831 60.7246C225.554 58.7304 222.183 51.5094 221.666 50.8592C220.087 48.8753 211.024 38.8877 203.93 29.5766C196.836 20.2654 195.506 22.039 187.578 20.0444V20.0444Z" fill="white"/>
<path d="M126.884 11.3057C139.08 3.21145 162.69 4.20907 169.883 11.4845C172.115 13.7426 166.353 18.6587 163.383 20.3305C153.59 25.8448 148.273 28.7331 141.584 27.3563C134.837 25.9675 130.923 21.1093 130.034 20.006C128.625 18.2576 122.088 14.4885 126.884 11.3057Z" fill="white"/>
<path d="M192.602 82.0686C188.322 82.0689 184.76 80.1941 182.797 76.803C181.587 74.7149 176.722 65.2893 175.031 57.3335C174.686 55.7129 175.722 54.1199 177.342 53.7754C178.963 53.4314 180.555 54.4649 180.9 56.086C182.411 63.1951 186.946 71.9978 187.988 73.7957C189.067 75.658 191.278 76.4158 194.217 75.9302C197.908 75.3201 215.259 68.2471 220.882 62.6272C223.58 59.9317 223.118 56.6744 219.511 52.9454C217.574 50.9436 215.384 48.2913 212.847 45.22C205.116 35.8619 194.53 23.0452 184.466 21.3699C182.831 21.0979 181.726 19.5525 181.999 17.9183C182.271 16.2832 183.83 15.179 185.45 15.4515C197.727 17.4949 209.139 31.3108 217.472 41.399C219.929 44.3728 222.051 46.941 223.823 48.7735C229.709 54.8572 230.207 61.7918 225.123 66.8711C218.43 73.5611 200.241 81.0159 195.195 81.8499C194.307 81.9964 193.441 82.0684 192.602 82.0686L192.602 82.0686Z" fill="black"/>
<path d="M175.663 43.6117C174.16 43.6117 172.863 42.4845 172.686 40.9555C171.564 31.2282 172.959 24.0446 176.833 19.6037C180.307 15.6213 184.434 15.4208 184.893 15.4111C186.575 15.3708 187.922 16.6901 187.956 18.3466C187.991 20.0031 186.676 21.3744 185.02 21.4096C184.999 21.413 183.003 21.5678 181.239 23.6828C179.433 25.8488 177.518 30.4841 178.647 40.2675C178.837 41.9135 177.657 43.4018 176.01 43.5917C175.894 43.6052 175.778 43.6117 175.663 43.6117H175.663Z" fill="black"/>
<path d="M124.246 210.534C123.979 210.534 123.709 210.498 123.44 210.423C119.129 209.225 116.252 206.712 113.712 204.496C110.047 201.297 107.401 198.987 101.097 200.409C93.0806 202.219 86.3316 200.591 82.5787 195.941C80.2808 193.094 77.234 186.581 82.6402 174.937C89.4918 160.178 91.9722 149.711 90.0113 143.828C81.064 116.987 92.2027 83.1955 96.9595 68.766C97.5777 66.8901 98.067 65.4081 98.3463 64.424C100.259 57.705 102.135 53.3632 104.122 48.7665C105.963 44.5038 107.869 40.0961 110.182 33.0871C110.984 30.6584 111.309 27.579 111.625 24.601C112.083 20.2619 112.557 15.7751 114.535 12.3525C118.096 6.18865 126.445 5.2531 126.798 5.21624C127.618 5.13128 128.437 5.38616 129.061 5.92229C129.687 6.45842 130.064 7.22795 130.105 8.05046C130.123 8.40398 130.136 8.79069 130.15 9.20525C130.278 12.9391 130.471 18.582 134.997 21.9706C145.495 29.8307 159.446 21.3434 168.202 11.6865C171.641 7.89373 177.594 7.08074 183.37 9.61492C188.066 11.6762 190.896 15.2631 190.579 18.7534C190.43 20.3879 189.003 21.5588 187.362 21.4338C185.725 21.3068 184.498 19.8488 184.604 18.2106C184.63 17.7927 183.507 16.187 180.817 15.0483C178.296 13.9804 174.642 13.5158 172.647 15.7167C165.538 23.5563 157.797 28.6127 150.261 30.3393C143.295 31.9348 136.601 30.6674 131.401 26.7734C125.776 22.5612 124.6 16.4101 124.278 11.9797C122.562 12.6223 120.691 13.6911 119.73 15.3542C118.39 17.6735 117.984 21.5158 117.591 25.2319C117.243 28.5241 116.883 31.9287 115.879 34.968C113.482 42.2307 111.435 46.9675 109.629 51.1464C107.64 55.7495 105.922 59.7248 104.118 66.0664C103.803 67.1691 103.298 68.7028 102.658 70.6445C98.0875 84.5087 87.3853 116.976 95.7027 141.931C98.234 149.523 95.8121 160.813 88.0816 177.464C85.0894 183.909 84.7935 189.132 87.2467 192.172C89.5103 194.975 94.0787 195.843 99.775 194.557C109.053 192.463 113.623 196.454 117.658 199.976C119.916 201.947 122.049 203.809 125.047 204.643C126.644 205.086 127.578 206.74 127.134 208.336C126.765 209.664 125.559 210.533 124.246 210.534H124.246Z" fill="black"/>
<path d="M139.725 96.5724C138.901 96.5726 138.062 96.5424 137.199 96.4799C113.557 94.767 109.834 73.5683 109.256 67.112C108.747 61.4174 112.11 56.4452 117.079 55.546C118.195 55.3441 119.491 55.2186 121.041 55.1625C122.735 55.1134 124.088 56.3969 124.147 58.0519C124.207 59.7077 122.914 61.0985 121.258 61.1586C119.997 61.2042 118.98 61.2997 118.147 61.4501C116.516 61.7455 114.979 63.744 115.232 66.5773C115.836 73.3246 119.228 89.162 137.633 90.4955C157.864 91.9628 163.299 71.7428 163.352 71.5385C164.064 68.7589 163.059 66.8998 160.362 66.0133C154.641 64.1325 145.338 61.7946 133.511 61.3378C131.855 61.2738 130.565 59.8798 130.629 58.2242C130.693 56.5687 132.088 55.2875 133.743 55.3422C146.266 55.8258 156.149 58.3126 162.235 60.3136C167.943 62.1898 170.663 67.1808 169.164 73.0284C167.017 81.4042 158.154 96.5707 139.725 96.5724V96.5724Z" fill="black"/>
</svg>
