<svg width="300" height="296" viewBox="0 0 300 296" fill="none" xmlns="http://www.w3.org/2000/svg">
<path d="M112.191 236.552C108.33 244.543 93.5152 243.196 88.9609 253.545C86.3739 259.423 90.1035 264.473 101.053 265.656C116.663 267.344 130.762 265.294 139.841 260.988C145.624 258.244 146.144 249.892 145.994 246.453C145.844 243.013 145.498 244.541 143.829 236.932C142.511 230.925 142.069 225.925 144.489 208.518C146.11 196.86 146.438 196.139 147.366 191.5L112.191 236.552H112.191Z" fill="white"/>
<path d="M111.943 269.252C108.29 269.252 104.536 269.05 100.731 268.638C91.685 267.661 87.9516 264.282 86.4116 261.619C84.8208 258.868 84.7524 255.658 86.2143 252.335C89.1401 245.688 95.2807 243.186 100.699 240.979C104.721 239.34 108.196 237.924 109.49 235.246C109.582 235.054 109.695 234.873 109.827 234.705L145.001 189.653C145.859 188.557 147.356 188.195 148.617 188.773C149.88 189.352 150.581 190.725 150.307 192.088C150.138 192.934 149.989 193.65 149.848 194.327C149.225 197.315 148.775 199.475 147.46 208.931C145.036 226.38 145.578 230.907 146.759 236.289C147.513 239.729 147.976 241.194 148.282 242.163C148.707 243.507 148.898 244.191 148.991 246.322C149.273 252.784 147.356 260.742 141.126 263.698C133.461 267.334 123.191 269.252 111.943 269.252H111.943ZM114.738 238.164C112.381 242.698 107.595 244.648 102.962 246.535C98.1753 248.486 93.6538 250.328 91.7065 254.752C90.6977 257.044 91.3813 258.227 91.6059 258.616C92.7827 260.65 96.3432 262.129 101.375 262.673C115.613 264.211 129.508 262.569 138.554 258.277C143.271 256.039 143.039 247.544 142.997 246.583C142.934 245.153 142.877 244.973 142.561 243.97C142.222 242.898 141.71 241.279 140.898 237.574C139.397 230.735 139.152 225.129 141.517 208.104C141.8 206.072 142.043 204.368 142.258 202.915L114.738 238.164L114.738 238.164Z" fill="black"/>
<path d="M192.369 263.306C191.291 258.996 191.912 250.213 192.577 243.895C193.242 237.577 160.653 241.235 159.323 253.871C157.993 266.508 146.398 271.207 144.032 279.137C142.611 283.9 143.066 289.948 152.668 291.75C167.588 294.551 194.164 289.523 194.164 275.876C194.164 272.266 193.446 267.616 192.369 263.306H192.369Z" fill="white"/>
<path d="M192.369 263.306C193.805 268.334 194.164 272.267 194.164 275.876C194.164 289.524 167.588 294.552 152.668 291.751C143.066 289.948 142.121 283.726 144.032 279.137C149.014 267.173 156.995 269.501 159.323 252.874" fill="white"/>
<path d="M161.542 295.503C158.164 295.503 154.949 295.231 152.113 294.699C145.621 293.48 142.745 290.423 141.475 288.074C139.891 285.14 139.813 281.462 141.261 277.983C143.555 272.475 146.466 269.638 149.036 267.135C152.438 263.819 155.127 261.201 156.35 252.458C156.581 250.817 158.093 249.677 159.737 249.902C161.378 250.132 162.522 251.648 162.292 253.29C160.784 264.065 156.94 267.811 153.222 271.433C150.857 273.738 148.622 275.916 146.8 280.29C146.36 281.348 145.768 283.396 146.754 285.222C147.685 286.945 149.92 288.183 153.22 288.802C163.512 290.734 180.169 288.586 187.607 282.414C190 280.429 191.163 278.29 191.163 275.876C191.163 273.146 190.971 269.343 189.482 264.13C189.027 262.537 189.95 260.876 191.543 260.421C193.133 259.968 194.795 260.888 195.252 262.482C196.573 267.108 197.163 271.239 197.163 275.876C197.163 280.067 195.183 283.924 191.439 287.031C184.499 292.79 172.216 295.502 161.542 295.503L161.542 295.503Z" fill="black"/>
<path d="M120.27 52.5839C116.202 50.6888 113.098 51.1322 105.117 57.3396C97.1362 63.547 74.1454 80.4975 74.9668 86.8035C75.6499 92.0489 86.4088 97.4814 89.1552 99.3509C92.8917 101.894 99.3741 107.788 102.457 106.999C107.475 105.714 109.596 95.7291 111.325 86.3986C113.679 73.6864 125.322 54.938 120.27 52.5839L120.27 52.5839Z" fill="white"/>
<path d="M77.4432 1.9781L48.0501 0.017199C43.5653 -0.281991 40.706 3.35855 41.696 8.1073L54.6998 70.4835C55.6898 75.2323 60.1692 79.3624 64.6539 79.6616L94.0471 81.6225C98.5318 81.9217 101.391 78.2812 100.401 73.5324L87.3973 11.1562C86.4073 6.40741 81.928 2.27728 77.4432 1.97809V1.9781Z" fill="black"/>
<path d="M117.533 96.1149C117.533 96.1149 89.9233 99.5484 85.7815 85.1208C98.3965 61.3952 75.2187 41.8017 60.6923 44.9141C52.1986 46.734 52.9449 60.287 54.1567 66.9649C55.3685 73.6427 56.7787 79.9412 67.3214 89.8141C69.8685 109.084 78.5146 124.163 93.1464 126.158C107.778 128.153 117.533 96.1149 117.533 96.1149H117.533Z" fill="white"/>
<path d="M81.8362 125.168C81.3382 125.168 80.8333 125.044 80.3685 124.782C71.5608 119.827 68.8382 108.331 66.8509 99.9362C66.1614 97.0246 65.5101 94.2746 64.7796 92.6178C64.0433 90.9513 62.8704 89.5626 61.3841 87.8048C58.2513 84.0978 53.9603 79.0207 51.2386 67.6637C49.1712 59.0392 50.2933 51.111 54.2386 46.4557C56.9671 43.237 60.8948 41.7096 65.5921 42.0417C74.7747 42.6901 83.8821 49.3835 88.7943 59.0939C93.5931 68.5817 93.4192 78.652 88.3167 86.7238C87.431 88.1237 85.5784 88.5436 84.178 87.6564C82.7767 86.7712 82.3597 84.9181 83.2444 83.5177C87.1917 77.2746 87.263 69.3595 83.4398 61.8024C79.4612 53.9367 72.2903 48.5295 65.1702 48.027C62.3821 47.8273 60.2982 48.5846 58.8157 50.3351C56.1829 53.4421 55.4984 59.695 57.0726 66.2653C59.4622 76.236 62.9183 80.3249 65.9671 83.9318C67.6214 85.8893 69.1839 87.738 70.2679 90.195C71.222 92.3561 71.9017 95.2282 72.6898 98.5534C74.5179 106.276 76.7933 115.887 83.3099 119.552C84.7542 120.365 85.2659 122.194 84.4534 123.638C83.9036 124.617 82.8851 125.168 81.8362 125.168L81.8362 125.168Z" fill="black"/>
<path d="M63.3067 17.6216L54.2055 17.0144C52.2384 16.8832 50.2738 15.0717 49.8396 12.9889L49.5508 11.6037C49.1166 9.52093 50.3707 7.92417 52.3377 8.05539L61.4389 8.66256C63.4059 8.79379 65.3706 10.6053 65.8048 12.6881L66.0936 14.0733C66.5278 16.1561 65.2737 17.7528 63.3067 17.6216H63.3067Z" fill="#82BE28"/>
<path d="M211.638 235.71C204.857 232.86 202.613 226.641 200.165 219.083C197.879 212.025 197.46 205.899 199.117 197.45C216.852 178.385 213.749 163.753 211.088 151.338C209.336 143.161 203.519 124.793 203.519 124.793L197.343 110.99L196.464 102.785L191.194 105.86C191.578 102.602 191.568 98.7852 189.199 92.6143C183.795 78.5393 180.661 74.1074 182.206 66.6419C184.462 55.7462 188.487 55.4363 186.293 50.8405C184.569 47.2301 180.788 44.1845 176.485 45.6641C173.498 46.6914 172.499 46.6189 170.486 48.9605C165.656 54.5823 159.785 56.6144 153.812 59.0896C145.875 62.3789 141.906 64.0236 137.761 62.6738C133.162 61.1762 127.616 56.2442 125.918 50.2071C125.243 47.807 126.991 46.489 125.177 45.4962C122.957 44.2809 120.252 48.0671 119.524 48.4891C113.271 52.1114 112.35 61.0861 110.737 70.0927C109.14 79.0069 103.928 85.5589 102.382 95.1571C99.087 115.615 90.2313 119.849 91.5902 136.28C91.8004 138.822 89.2303 151.047 89.595 152.242C90.1883 154.186 91.2239 155.944 92.6143 157.538C92.5997 157.932 92.5824 158.323 92.5743 158.726C92.1929 177.808 93.3279 183.432 91.6317 199.087C91.399 201.234 83.1104 216.755 81.6141 223.738C80.1175 230.722 87.357 238.615 92.0753 237.218C104.725 233.472 111.932 236.367 119.565 240.322C126.379 243.852 131.691 246.901 141.02 245.662C142.679 254.035 155.954 266.038 172.772 254.953C184.272 247.374 188.876 250.292 196.715 253.623C214.45 261.161 216.678 237.828 211.637 235.71L211.638 235.71Z" fill="white"/>
<path d="M158.91 262.468C153.251 262.468 147.77 260.249 143.926 256.882C137.542 251.288 136.084 243.459 140.186 236.893C140.347 236.572 140.515 236.244 140.687 235.909C142.322 232.723 144.174 229.112 144.547 222.684C145.08 213.546 144.042 206.928 142.826 203.447C137.406 202.162 126.743 198.987 120.741 189.292C119.869 187.883 120.303 186.034 121.712 185.162C123.123 184.291 124.971 184.725 125.842 186.134C130.545 193.731 138.906 196.434 145.663 197.94C146.561 198.14 147.318 198.742 147.715 199.572C150.053 204.451 151.109 213.221 150.538 223.032C150.091 230.724 147.742 235.304 146.026 238.648C145.839 239.011 145.658 239.364 145.485 239.711C145.438 239.805 145.386 239.896 145.33 239.984C141.474 246.024 146.308 250.99 147.88 252.369C152.911 256.776 161.733 258.53 168.178 253.102C177.697 245.087 188.033 243.715 195.828 249.43C199.429 252.07 202.812 252.04 205.357 249.35C208.136 246.411 209.144 240.819 205.926 236.906C201.193 231.154 200.461 229.121 198.507 223.687L198.174 222.761C196.101 217.019 193.236 201.289 194.914 195.701C195.088 195.118 195.437 194.602 195.913 194.221C197.932 192.605 200.276 190.048 202.342 187.206C203.317 185.866 205.19 185.569 206.534 186.544C207.874 187.519 208.169 189.395 207.195 190.735C205.098 193.619 202.704 196.285 200.502 198.202C199.925 202.468 201.688 214.827 203.817 220.724L204.153 221.656C205.992 226.77 206.487 228.145 210.559 233.094C215.926 239.618 214.345 248.579 209.716 253.473C206.049 257.35 199.542 259.594 192.28 254.269C186.787 250.238 179.409 251.488 172.043 257.692C168.047 261.056 163.421 262.467 158.91 262.468V262.468Z" fill="black"/>
<path d="M181.764 83.048C190.415 101.932 200.691 127.96 202.633 134.597C206.086 146.4 206.054 156.903 204.851 160.192C203.648 163.48 203.188 167.508 203.853 172.33C204.313 175.664 208.756 179.53 213.399 177.57C218.041 175.611 217.336 172.102 220.202 169.829C222.922 167.672 229.696 170.156 233.83 175.173C237.965 180.189 245.642 180.195 248.919 179.778C253.576 179.185 257.592 175.6 256.742 170.696C255.893 165.792 249.679 164.063 247.227 163.236C244.479 162.308 235.633 158.808 230.488 152.956C225.578 147.371 206.229 90.8718 201.006 74.9463L181.764 83.048V83.048Z" fill="white"/>
<path d="M246.178 182.937C242.185 182.937 235.638 182.082 231.516 177.08C227.906 172.699 222.906 171.57 222.067 172.181C221.444 172.674 221.102 173.309 220.552 174.389C219.615 176.227 218.331 178.745 214.567 180.334C211.516 181.623 208.129 181.26 205.51 179.362C202.85 177.435 201.367 174.187 201.639 170.886C201.776 169.236 203.217 168.01 204.877 168.143C206.528 168.279 207.756 169.729 207.62 171.38C207.517 172.622 208.044 173.789 209.03 174.502C209.568 174.894 210.705 175.452 212.233 174.807C213.98 174.069 214.442 173.164 215.207 171.663C215.855 170.391 216.663 168.808 218.341 167.478C222.856 163.899 231.463 167.582 236.147 173.264C239.855 177.764 247.665 176.915 248.541 176.802C250.427 176.562 252.118 175.656 253.061 174.378C253.747 173.45 253.992 172.383 253.788 171.208C253.3 168.391 248.911 166.948 246.802 166.255L246.269 166.079C243.115 165.014 236.025 160.95 230.422 154.578C225.505 148.986 216.965 123.736 209.345 100.507C208.829 98.9331 209.686 97.2383 211.261 96.7217C212.827 96.2051 214.529 97.062 215.047 98.6372C219.644 112.654 230.411 145.479 234.927 150.616C239.887 156.256 246.11 159.692 248.188 160.394L248.675 160.555C251.643 161.531 258.596 163.815 259.7 170.184C260.187 172.996 259.56 175.679 257.887 177.944C255.961 180.551 252.83 182.304 249.299 182.754C248.766 182.821 247.644 182.937 246.178 182.937L246.178 182.937Z" fill="black"/>
<path d="M205.687 162.029C205.481 162.029 205.272 162.008 205.063 161.963C203.441 161.62 202.405 160.028 202.749 158.407C204.32 150.978 203.31 147.537 200.309 137.323L199.756 135.44C197.938 129.229 189.689 107.966 180.902 88.7859C180.212 87.2795 180.874 85.4993 182.38 84.8088C183.889 84.1179 185.667 84.7805 186.357 86.2869C195.389 105.999 203.602 127.219 205.514 133.755L206.064 135.632C209.112 146.005 210.504 150.739 208.618 159.649C208.32 161.061 207.074 162.029 205.687 162.029V162.029Z" fill="black"/>
<path d="M187.641 56.6753C187.174 56.1209 186.26 55.0647 185.02 55.0416C181.384 54.9738 177.386 61.2688 176.375 64.4007C172.633 76.0008 182.981 112.031 190.374 113.711C200.904 116.601 210.252 108.097 211.755 106.676C213.701 104.837 226.531 101.955 225.893 97.3554C225.617 95.3613 222.245 88.1403 221.728 87.4901C220.15 85.5062 211.087 75.5186 203.993 66.2074C196.898 56.8963 195.568 58.6698 187.641 56.6753V56.6753Z" fill="white"/>
<path d="M126.946 47.9376C139.142 39.8433 162.753 40.8409 169.945 48.1163C172.178 50.3744 166.415 55.2906 163.446 56.9623C153.652 62.4766 148.336 65.3649 141.647 63.9881C134.9 62.5993 130.986 57.7411 130.097 56.6379C128.688 54.8895 122.151 51.1203 126.946 47.9376Z" fill="white"/>
<path d="M192.666 118.699C188.386 118.699 184.823 116.825 182.858 113.434C181.648 111.345 176.784 101.919 175.094 93.9637C174.749 92.3431 175.784 90.7498 177.405 90.4056C179.027 90.0628 180.619 91.0965 180.963 92.7166C182.472 99.8255 187.008 108.628 188.05 110.426C189.13 112.288 191.342 113.047 194.279 112.56C197.971 111.95 215.321 104.877 220.944 99.2571C223.641 96.5618 223.18 93.3045 219.572 89.5755C217.636 87.5735 215.445 84.9212 212.908 81.8499C205.178 72.492 194.592 59.6756 184.528 58.0008C182.893 57.7288 181.789 56.1834 182.061 54.5486C182.334 52.9144 183.89 51.8152 185.513 52.0818C197.789 54.1248 209.201 67.9407 217.534 78.0291C219.99 81.0027 222.111 83.5711 223.885 85.4036C229.769 91.4871 230.268 98.4212 225.186 103.501C218.492 110.191 200.304 117.646 195.258 118.48C194.371 118.627 193.505 118.699 192.666 118.699Z" fill="black"/>
<path d="M175.725 80.2429C174.222 80.2429 172.925 79.1155 172.749 77.5862C171.626 67.8591 173.022 60.675 176.896 56.2341C180.371 52.2522 184.498 52.0515 184.957 52.0417C186.589 52.0061 187.985 53.321 188.019 54.9778C188.054 56.634 186.74 58.0056 185.084 58.0408C185.062 58.0437 183.066 58.1985 181.302 60.3137C179.497 62.4797 177.581 67.115 178.709 76.8987C178.899 78.5447 177.718 80.0329 176.073 80.2229C175.957 80.2361 175.84 80.2429 175.725 80.2429V80.2429Z" fill="black"/>
<path d="M124.308 247.165C124.042 247.165 123.771 247.129 123.503 247.054C119.192 245.856 116.314 243.343 113.774 241.127C110.11 237.929 107.462 235.617 101.16 237.041C93.1461 238.851 86.3941 237.223 82.6412 232.572C80.3433 229.726 77.2965 223.213 82.7027 211.569C89.5553 196.81 92.0357 186.343 90.0738 180.459C81.1275 153.621 92.2652 119.831 97.0211 105.402C97.6402 103.524 98.1285 102.041 98.4088 101.056C100.322 94.3356 102.198 89.9933 104.185 85.3961C106.027 81.1339 107.932 76.7262 110.246 69.7184C111.047 67.2897 111.373 64.2101 111.688 61.2321C112.146 56.8932 112.621 52.4064 114.598 48.9835C118.16 42.8195 126.507 41.8844 126.861 41.8478C127.682 41.7638 128.499 42.0177 129.124 42.5538C129.75 43.09 130.127 43.8595 130.168 44.6823C130.185 45.0353 130.199 45.4215 130.213 45.8356C130.341 49.5695 130.535 55.2125 135.06 58.6017C145.554 66.4625 159.507 57.9752 168.264 48.3175C171.704 44.525 177.657 43.7111 183.432 46.2462C188.13 48.3077 190.96 51.8947 190.642 55.3849C190.494 57.0192 189.051 58.191 187.426 58.0651C185.79 57.9381 184.562 56.4801 184.668 54.8424C184.694 54.424 183.57 52.8175 180.879 51.6788C178.357 50.6115 174.705 50.1471 172.71 52.3478C165.6 60.1876 157.86 65.2438 150.324 66.9708C143.359 68.5661 136.664 67.299 131.463 63.4044C125.839 59.192 124.663 53.0416 124.341 48.6115C122.625 49.2536 120.755 50.3224 119.794 51.9855C118.454 54.3043 118.047 58.1471 117.655 61.8629C117.306 65.1554 116.947 68.5602 115.943 71.5993C113.546 78.8615 111.499 83.5973 109.693 87.7765C107.704 92.3795 105.985 96.3556 104.18 102.698C103.866 103.801 103.36 105.337 102.719 107.28C98.15 121.144 87.4488 153.611 95.7652 178.562C98.2975 186.154 95.8756 197.445 88.1442 214.095C85.152 220.54 84.8561 225.763 87.3102 228.803C89.5719 231.606 94.1412 232.475 99.8375 231.188C109.115 229.094 113.685 233.085 117.72 236.607C119.978 238.578 122.111 240.44 125.11 241.274C126.706 241.717 127.64 243.371 127.197 244.967C126.828 246.295 125.622 247.164 124.308 247.165H124.308Z" fill="black"/>
<path d="M139.787 133.203C138.964 133.203 138.123 133.173 137.262 133.111C113.617 131.397 109.896 110.198 109.319 103.742C108.808 98.0486 112.171 93.0759 117.141 92.1765C118.257 91.9749 119.552 91.8494 121.103 91.7932C122.727 91.7302 124.15 93.0261 124.209 94.6829C124.269 96.3386 122.976 97.7293 121.32 97.7893C120.058 97.8352 119.04 97.9304 118.209 98.0808C116.578 98.3762 115.041 100.374 115.295 103.207C115.898 109.955 119.288 125.792 137.696 127.126C157.929 128.598 163.361 108.374 163.413 108.169C164.126 105.389 163.121 103.53 160.423 102.644C154.703 100.763 145.401 98.4251 133.573 97.968C131.917 97.9041 130.627 96.5105 130.691 94.8547C130.755 93.1995 132.129 91.8982 133.805 91.9729C146.329 92.4563 156.211 94.9431 162.297 96.9436C168.005 98.8206 170.725 103.811 169.226 109.659C167.078 118.035 158.218 133.203 139.787 133.203Z" fill="black"/>
</svg>
