<svg width="300" height="429" viewBox="0 0 300 429" fill="none" xmlns="http://www.w3.org/2000/svg">
<path d="M207.738 222.821C207.041 222.821 206.362 222.579 205.82 222.128C205.294 221.691 192.903 211.29 189.383 199.52C187.764 194.106 190.986 187.149 194.9 183.808C197.507 181.583 200.4 180.976 202.828 182.146C203.202 182.325 203.534 182.58 203.804 182.894C204.152 183.299 212.343 192.89 215.011 200.986C217.95 209.905 210.54 221.031 210.224 221.5C209.749 222.202 209 222.671 208.161 222.791C208.02 222.811 207.878 222.821 207.738 222.821V222.821ZM199.943 187.636C199.514 187.799 198.713 188.276 197.724 189.475C195.633 192.012 194.493 195.669 195.131 197.802C197.222 204.793 203.412 211.58 207.001 215.076C208.727 211.616 210.528 206.553 209.312 202.864C207.422 197.126 201.892 190.028 199.943 187.636Z" fill="black"/>
<path d="M88.4316 74.562C88.4316 74.562 101.048 32.9171 123.03 41.7292L98.824 89.2057L88.4317 74.5619L88.4316 74.562Z" fill="white"/>
<path d="M126.263 38.793C126.263 38.793 142.598 50.7038 158.273 47.4935C182.446 42.5424 198.758 46.7259 198.758 46.7259L170.442 86.1998L113.465 84.3563L113.963 50.1895L126.263 38.793Z" fill="white"/>
<path d="M49.3574 407.983C61.2527 377.304 72.3508 237.366 75.0388 214.169C79.2167 178.114 90.8608 133.946 96.4902 112.636C102.6 89.5074 103.539 72.9521 108.823 55.4156C109.854 51.9919 114.224 43.4168 116.586 41.8842C121.012 39.0126 124.397 42.1804 128.338 46.5817C131.025 49.5826 120.697 72.6486 126.695 75.1025C135.679 78.7775 147.668 82.272 154.35 78.8434C158.676 76.6242 159.683 63.6178 164.485 57.1236C169.296 50.6162 184.175 36.0665 203.258 49.4119C222.34 62.7572 230.597 103.72 227.475 153.575C226.676 166.339 189.91 154.543 180.789 158.263C178.017 166.775 185.909 208.351 195.739 206.206C216.226 201.733 212.248 218.009 213.629 224.474C227.239 277.085 240.252 404.611 231.834 408.187C150.175 442.879 49.3574 407.983 49.3574 407.983V407.983Z" fill="#82BE28"/>
<path d="M146.718 82.3666C139.588 82.3666 133.041 80.9388 125.56 77.8783C119.372 75.347 121.917 64.3837 124.611 52.7762C125.407 49.3446 126.495 44.659 126.375 43.4364C125.956 41.8883 126.834 40.2738 128.378 39.7921C129.966 39.2989 131.641 40.1808 132.136 41.7626C132.79 43.8595 132.052 47.2574 130.455 54.1327C129.341 58.9369 126.755 70.077 128.039 72.4095C137.198 76.1263 144.483 77.0956 153.966 75.868C155.604 75.6527 157.113 76.8139 157.327 78.4574C157.54 80.1005 156.38 81.6054 154.737 81.8182C151.941 82.1805 149.291 82.3666 146.718 82.3666V82.3666ZM126.39 43.493C126.396 43.5128 126.402 43.5314 126.407 43.5492C126.401 43.5306 126.396 43.5118 126.39 43.493Z" fill="black"/>
<path d="M234.666 390.833H234.658C233.001 390.829 231.661 389.482 231.666 387.825C231.695 377.079 230.693 361.568 228.688 341.722C228.239 337.286 227.727 332.501 227.163 327.501C221.841 280.309 213.584 228.684 213.501 228.168L210.867 213.043C206.09 217.651 198.152 223.762 190.907 222.119C185.792 220.957 182.216 216.369 180.277 208.481C173.602 181.32 185.983 116.77 186.513 114.036C186.828 112.409 188.401 111.347 190.029 111.662C191.655 111.977 192.719 113.551 192.403 115.178C192.276 115.835 179.742 181.164 186.104 207.05C187.032 210.829 188.85 215.496 192.234 216.267C198.229 217.628 207.641 208.124 210.472 204.688C211.218 203.783 212.419 203.395 213.555 203.694C214.688 203.993 215.544 204.924 215.744 206.079L219.418 227.178C219.508 227.735 227.788 279.499 233.126 326.829C233.692 331.853 234.207 336.661 234.656 341.119C236.683 361.17 237.695 376.889 237.666 387.841C237.661 389.495 236.319 390.833 234.666 390.833Z" fill="black"/>
<path d="M151.838 428.138C148.497 428.138 145.105 428.086 141.671 427.982C103.319 426.824 66.7507 419.614 52.7438 410.449C45.4977 405.708 45.3825 401.107 46.5622 398.084C59.8083 364.116 66.1159 274.692 66.1774 273.793C67.193 261.572 68.2575 249.881 69.3444 239.001C69.5085 237.352 70.9977 236.155 72.6276 236.314C74.277 236.479 75.4791 237.949 75.3151 239.598C74.2311 250.444 73.1696 262.103 72.1598 274.249C71.9069 277.916 65.7311 365.445 52.152 400.263C51.4421 402.085 54.276 404.281 56.029 405.428C68.9938 413.911 105.089 420.875 141.852 421.985C184.215 423.266 217.077 416.508 229.715 403.908C230.889 402.737 232.787 402.741 233.959 403.914C235.128 405.087 235.125 406.987 233.952 408.157C226.368 415.717 213.457 421.242 195.576 424.578C182.986 426.927 168.023 428.138 151.838 428.138H151.838Z" fill="black"/>
<path d="M76.5436 204.813C76.4176 204.813 76.2907 204.804 76.1627 204.788C74.5192 204.58 73.3551 203.079 73.5631 201.435C78.9938 158.564 84.1735 136.92 88.5241 121.402C88.9713 119.806 90.6305 118.879 92.2223 119.323C93.818 119.77 94.7487 121.426 94.3014 123.022C90.0094 138.329 84.8971 159.705 79.5162 202.189C79.3239 203.705 78.0319 204.813 76.5436 204.813L76.5436 204.813Z" fill="black"/>
<path d="M47.526 2.20695L18.1487 0.0213209C13.6664 -0.312159 10.7793 3.30641 11.7329 8.06259L24.2594 70.5364C25.213 75.2926 29.6607 79.4569 34.143 79.7904L63.5203 81.976C68.0026 82.3095 70.8897 78.6909 69.9361 73.9347L57.4096 11.4609C56.456 6.70469 52.0083 2.54043 47.526 2.20695Z" fill="black"/>
<path d="M33.2698 17.7422L24.1735 17.0654C22.2075 16.9192 20.2568 15.0927 19.8385 13.0066L19.5604 11.6193C19.1421 9.53321 20.4084 7.9461 22.3743 8.09236L31.4706 8.76911C33.4366 8.91537 35.3873 10.7418 35.8056 12.8279L36.0838 14.2153C36.502 16.3013 35.2358 17.8884 33.2698 17.7422Z" fill="#82BE28"/>
<path d="M61.1367 184.562C61.1367 184.562 48.3741 188.601 35.2136 158.263C25.7449 136.435 27.3373 118.106 23.5933 110.635C16.572 96.625 63.2036 93.017 68.7305 104.657C68.7305 104.657 73.4833 113.712 73.8888 125.784C74.2942 137.855 82.8737 183.866 61.1367 184.562H61.1367Z" fill="white"/>
<path d="M29.9929 104.08C19.7934 98.6024 9.29784 83.1588 6.05353 70.5538C5.73018 69.2976 0.766606 42.611 17.1205 36.2539C17.1205 36.2539 20.246 45.0514 20.3383 51.3797C24.0877 49.7816 28.5723 48.9094 33.5578 49.9309C48.2449 52.9403 60.1359 72.8023 61.2489 75.7192C73.7197 108.403 45.0942 112.19 29.9929 104.08H29.9929Z" fill="white"/>
<path d="M65.4831 193.01C58.6325 193.01 46.9606 189.357 35.9831 168.582C31.9499 160.949 30.0798 150.02 28.2722 139.45C26.5144 129.173 24.696 118.547 20.9958 112.135C20.1677 110.7 20.6599 108.865 22.0954 108.037C23.53 107.209 25.3659 107.701 26.1931 109.136C30.4294 116.478 32.3395 127.642 34.1862 138.438C35.9147 148.543 37.7018 158.993 41.2878 165.778C55.0768 191.872 68.4987 186.685 69.0612 186.451C69.7272 186.176 70.4743 186.146 71.1501 186.353C71.7067 185.55 72.9772 182.969 73.7058 175.557C74.7155 165.275 74.3747 149.476 72.6911 128.601C72.5583 126.95 73.7888 125.503 75.4401 125.37C77.1032 125.233 78.5378 126.468 78.6716 128.119C83.402 186.775 76.3845 190.532 73.7419 191.947C72.5085 192.607 71.2292 192.673 70.1423 192.403C69.1022 192.692 67.5017 193.01 65.4831 193.01L65.4831 193.01Z" fill="black"/>
<path d="M34.086 106.961C33.6934 106.961 33.294 106.883 32.9102 106.719C15.793 99.4215 6.17971 83.0792 3.14846 71.3014C2.86037 70.1828 1.56448 62.8537 2.34768 55.0177C3.45413 43.9633 8.18655 36.508 16.0332 33.4577C16.7881 33.1642 17.6309 33.1884 18.3692 33.526C19.1065 33.8637 19.6758 34.4853 19.9473 35.2494C20.0557 35.5553 22.1436 41.4811 22.9893 47.3051C26.6934 46.3361 30.4336 46.2287 34.1602 46.9918C43.3457 48.8742 50.8154 55.8703 55.4639 61.4074C60.8633 67.84 65.0694 75.4586 66.4405 81.2897C66.8203 82.9025 65.8203 84.5172 64.207 84.8966C62.5957 85.2755 60.9795 84.2765 60.6006 82.6627C58.499 73.7257 46.4063 55.6256 32.9551 52.8698C29.166 52.0934 25.3145 52.5197 21.5137 54.1393C20.5967 54.5304 19.54 54.4401 18.7022 53.8942C17.8643 53.3493 17.3525 52.4225 17.3379 51.423C17.2881 47.9594 16.2031 43.5573 15.3428 40.587C11.4307 43.3676 9.07813 48.3453 8.33692 55.4367C7.54688 62.9894 8.94825 69.7609 8.9629 69.8229C11.8623 81.0885 21.1221 95.171 35.2637 101.2C36.7871 101.85 37.4961 103.612 36.8467 105.136C36.3604 106.276 35.252 106.961 34.0859 106.961L34.086 106.961Z" fill="black"/>
<path d="M58.405 148.479C58.3862 148.442 58.3698 148.405 58.354 148.367C57.8005 146.994 57.9288 146.596 57.9211 145.367C47.7005 142.737 44.857 129.161 44.3286 123.4C43.7695 117.304 44.0929 107.541 47.3968 102.523C50.7008 97.5053 58.4955 84.9397 77.0469 82.1689C95.5983 79.3982 113.341 95.1754 113.986 95.7223C114.052 95.7776 125.672 103.366 127.198 120.187C128.723 137.007 118.656 141.853 116.694 144.534C116.694 144.534 110.688 151.795 101.481 154.22C92.2745 156.644 92.9314 155.191 86.4581 153.313C81.9612 152.289 79.8761 154.122 78.7856 153.333C78.351 153.689 77.6356 154.234 76.705 154.797C74.5715 156.088 71.3176 157.465 67.7848 156.826C63.9841 156.139 60.8287 153.331 58.405 148.479Z" fill="white"/>
<path d="M117.064 148.143C115.899 148.143 114.79 147.46 114.304 146.32C113.654 144.796 114.362 143.034 115.885 142.383C118.127 141.426 126.914 134.729 125.662 121.65C124.601 110.56 119.118 104.818 116.483 102.059C115.339 100.861 115.382 98.9619 116.58 97.8178C117.779 96.6733 119.677 96.7172 120.823 97.9155C123.681 100.909 130.375 107.919 131.635 121.078C133.102 136.399 123.245 145.766 118.241 147.902C117.857 148.066 117.457 148.144 117.064 148.144L117.064 148.143Z" fill="black"/>
<path d="M110.389 114.42C112.376 114.42 113.987 112.81 113.987 110.823C113.987 108.835 112.376 107.225 110.389 107.225C108.402 107.225 106.791 108.835 106.791 110.823C106.791 112.81 108.402 114.42 110.389 114.42Z" fill="black"/>
<path d="M91.2425 131.628C93.2296 131.628 94.8404 130.018 94.8404 128.031C94.8404 126.043 93.2296 124.433 91.2425 124.433C89.2554 124.433 87.6445 126.043 87.6445 128.031C87.6445 130.018 89.2554 131.628 91.2425 131.628Z" fill="black"/>
<path d="M45.6197 105.574C48.3071 99.7489 53.2519 92.5036 59.2551 87.9229C77.1235 74.2883 100.935 70.166 110.741 92.6996C111.357 94.1156 106.217 100.973 98.946 99.2253C85.7661 96.0565 76.7001 96.5188 75.3631 107.224C71.7101 136.475 61.738 129.89 61.0148 137.925C60.3741 145.043 60.7434 150.475 57.2496 149.054C55.3645 148.288 46.5408 138.408 43.8804 127.557C40.3823 113.29 44.8945 108.108 45.6197 105.574H45.6197Z" fill="#82BE28"/>
<path d="M60.4295 152.797C60.0018 152.797 59.5672 152.705 59.1541 152.509C58.8963 152.388 33.4295 139.963 41.4842 108.472C44.0369 99.5606 49.6941 91.4449 57.4354 85.5381C67.8182 77.6153 82.2107 74.5006 94.9949 77.4112C103.631 79.3765 110.345 83.9576 113.414 89.9796C114.166 91.4556 113.58 93.2623 112.103 94.0147C110.628 94.7652 108.822 94.1812 108.068 92.7042C105.809 88.2725 100.559 84.8306 93.6639 83.2613C82.5662 80.7369 70.0818 83.4356 61.076 90.3077C54.3533 95.4376 49.452 102.446 47.2742 110.043C40.4939 136.556 60.8533 146.67 61.7234 147.087C63.2137 147.803 63.8494 149.591 63.1385 151.084C62.6248 152.164 61.5506 152.797 60.4295 152.797Z" fill="black"/>
<path d="M107.28 138.454C131.571 131.01 154.167 142.077 165.384 151.716C186.837 170.151 178.939 189.182 178.939 189.182L135.334 205.336L77.8203 163.384C77.8203 163.384 90.9644 143.455 107.28 138.454Z" fill="#2D8C3C"/>
<path d="M91.4095 152.277C90.7679 152.277 90.1204 152.072 89.5745 151.648C88.2679 150.634 88.0257 148.756 89.0374 147.447C89.5491 146.784 101.814 131.22 122.901 131.22H122.925C138.814 131.229 152.504 141.23 153.079 141.656C154.411 142.642 154.691 144.521 153.705 145.853C152.718 147.186 150.839 147.463 149.509 146.479C149.386 146.388 136.795 137.228 122.921 137.22H122.902C104.828 137.22 93.8899 150.981 93.7815 151.12C93.1897 151.879 92.304 152.277 91.4095 152.277Z" fill="black"/>
<path d="M211.224 179.171C207.46 169.344 186.301 178.522 167.191 184.562C163.518 185.722 159.705 186.589 156.165 187.23C151.082 188.152 147.48 182.374 150.543 178.214C158.927 166.822 168.545 148.57 178.03 119.332C185.314 96.8802 189.583 68.2559 189.184 56.057C189.062 52.3392 190.894 40.9588 184.611 41.629C178.792 42.2498 174.189 46.3365 172.858 51.5613C171.947 55.1341 171.973 57.7069 171.239 62.3021C167.669 84.6495 160.969 101.455 154.688 115.319C142.873 141.402 129.126 157.232 119.157 166.196C116.897 168.227 113.432 168.07 111.387 165.822C100.948 154.352 89.9233 142.718 76.0621 141.474C47.9474 138.95 32.4019 159.69 50.4359 197.987C63.5203 225.772 87.5152 235.972 110.791 240.048C157.807 248.281 196.807 228.213 211.224 214.551C222.042 204.3 213.043 183.918 211.224 179.171H211.224Z" fill="black"/>
<path d="M209.003 182.93C199.82 196.048 194.315 198.677 178.948 213.255C163.581 227.833 126.605 236.664 107.85 229.411C104.538 228.13 101.284 226.459 99.0363 223.868C96.7884 221.277 95.7239 217.606 97.1119 214.542C98.8254 210.759 103.453 209.044 107.548 207.477C111.643 205.91 116.145 203.531 116.861 199.483C117.231 197.389 116.473 195.288 116.033 193.207C115.484 190.619 115.441 187.861 116.525 185.423C117.609 182.985 119.977 180.933 122.805 180.616C125.986 180.259 128.922 182.031 131.758 183.412C136.88 185.907 142.618 187.31 148.402 187.481C148.402 187.481 173.622 183.206 184.331 163.488L202.33 158.634L209.003 182.93L209.003 182.93Z" fill="white"/>
<path d="M123.129 234.928C117.256 234.928 111.682 234.11 106.767 232.209C103.883 231.094 99.7068 229.22 96.7703 225.835C93.5506 222.124 92.6121 217.206 94.3787 213.305C96.572 208.462 101.947 206.407 106.266 204.756L106.475 204.676C111.045 202.927 113.545 201.004 113.907 198.96C114.087 197.943 113.77 196.647 113.434 195.275C113.316 194.793 113.199 194.311 113.097 193.83C112.328 190.196 112.558 186.958 113.783 184.205C115.373 180.627 118.783 178.049 122.47 177.635C126.112 177.227 129.234 178.793 131.984 180.175C132.348 180.358 132.711 180.54 133.071 180.716C138.317 183.272 146.673 186.106 158.63 181.229C160.158 180.604 161.915 181.339 162.54 182.873C163.166 184.408 162.429 186.159 160.895 186.785C145.079 193.238 134.063 187.873 130.444 186.11C130.061 185.924 129.677 185.73 129.289 185.536C127.093 184.431 125.022 183.386 123.138 183.598C121.553 183.776 119.996 184.999 119.265 186.642C118.565 188.216 118.466 190.216 118.967 192.586C119.056 193.006 119.16 193.428 119.262 193.85C119.71 195.675 120.216 197.744 119.815 200.006C118.796 205.765 112.937 208.627 108.62 210.279L108.409 210.36C104.945 211.684 101.019 213.185 99.8435 215.78C98.9304 217.796 99.9177 220.308 101.302 221.902C102.871 223.71 105.295 225.207 108.931 226.613C125.854 233.159 155.791 224.689 173.821 213.087C186.214 205.113 197.529 194.091 206.545 181.21C207.494 179.853 209.363 179.522 210.723 180.473C212.081 181.423 212.411 183.293 211.461 184.651C202.002 198.163 190.109 209.742 177.067 218.133C164.353 226.313 142.184 234.926 123.129 234.928L123.129 234.928Z" fill="black"/>
<path d="M213.728 189.206C216.488 185.348 224.963 178.308 226.738 173.619C245.469 124.124 220.84 68.4955 203.813 53.1802C191.574 42.1707 182.256 46.6659 179.782 56.0518C177.309 65.4377 182.793 90.6202 183.947 99.8216C188.064 132.643 173.91 150.827 173.887 156.111C173.827 169.757 192.917 189.103 213.728 189.206V189.206Z" fill="white"/>
<path d="M209.525 191.742C209.431 191.742 209.336 191.741 209.24 191.74C197.818 191.571 184.372 181.209 176.114 171.015C175.071 169.728 175.27 167.839 176.557 166.796C177.844 165.752 179.734 165.951 180.776 167.239C187.916 176.052 199.897 185.601 209.329 185.74C209.399 185.741 209.467 185.742 209.534 185.742C212.958 185.742 215.729 184.457 217.998 181.819C222.617 176.45 223.685 173.492 225.811 167.598C226.202 166.515 226.624 165.344 227.106 164.054C227.686 162.503 229.413 161.715 230.965 162.293C232.518 162.872 233.306 164.601 232.727 166.153C232.254 167.419 231.839 168.57 231.455 169.635C229.23 175.802 227.886 179.526 222.547 185.732C219.16 189.668 214.663 191.742 209.526 191.742H209.525Z" fill="black"/>
<path d="M232.867 148.135C232.829 148.135 232.792 148.135 232.753 148.133C231.097 148.071 229.805 146.679 229.867 145.023C230.087 139.149 229.84 132.755 229.136 126.019C226.985 105.453 221.139 86.3842 217.845 76.8481C206.301 43.4235 185.02 47.5593 184.806 47.6044C183.181 47.9496 181.591 46.9189 181.245 45.2983C180.898 43.6782 181.93 42.0837 183.55 41.7372C183.835 41.6769 190.574 40.2975 198.914 43.894C206.364 47.1066 216.679 55.0917 223.517 74.8891C226.894 84.6684 232.89 104.233 235.103 125.395C235.838 132.412 236.092 139.091 235.863 145.247C235.802 146.865 234.472 148.135 232.867 148.135L232.867 148.135Z" fill="black"/>
<path d="M89.611 74.3965C89.2321 74.3965 88.8463 74.3243 88.4733 74.1714C86.941 73.5425 86.2077 71.7901 86.8366 70.2574C91.5153 58.8467 100.094 44.3243 114.392 39.9383C123.245 37.2232 130.052 39.7437 130.339 39.8523C131.887 40.4419 132.665 42.1749 132.075 43.7234C131.486 45.2662 129.763 46.0433 128.219 45.4656C127.306 45.1331 106.541 38.0223 92.3873 72.5338C91.9117 73.6944 90.7916 74.396 89.611 74.3965H89.611Z" fill="black"/>
<path d="M66.7798 132.64C65.6558 132.64 64.5786 132.006 64.0659 130.922C63.3579 129.425 63.9975 127.636 65.4946 126.927C66.5532 126.427 67.4673 125.274 68.146 124.324C72.2397 118.598 74.1099 111.304 73.2778 104.314C73.0815 102.669 74.2563 101.176 75.9018 100.98C77.5425 100.785 79.0386 101.96 79.2349 103.604C80.2427 112.062 77.98 120.886 73.0268 127.814C71.9263 129.353 70.3677 131.26 68.061 132.351C67.646 132.547 67.2095 132.64 66.7798 132.64Z" fill="black"/>
</svg>
