<svg width="322" height="494" viewBox="0 0 322 494" fill="none" xmlns="http://www.w3.org/2000/svg">
<path d="M92.4397 128.499C92.7962 139.763 95.5166 169.635 82.2068 172.962C80.8758 170.966 70.208 165.08 62.4926 158.113C49.0962 146.016 28.4064 171.202 28.847 181.97C28.847 181.97 33.1785 180.337 33.844 188.726C42.3383 192.119 44.5935 205.048 49.1895 211.166C81.3613 253.992 121.193 226.701 116.581 188.058L92.4397 128.499V128.499Z" fill="#82BE28"/>
<path d="M78.1891 232.031C68.7623 232.031 60.1232 225.33 55.7465 221.935C48.4451 216.273 44.167 208.298 40.3922 201.263C36.2911 193.619 32.7498 187.018 26.5692 185.061C24.9882 184.56 24.1126 182.873 24.6129 181.293C25.1142 179.713 26.8067 178.835 28.3809 179.337C36.8871 182.03 41.1593 189.993 45.6826 198.424C49.345 205.251 53.1325 212.31 59.4265 217.191C65.7966 222.132 73.2602 227.025 80.3222 225.854C84.4722 225.166 88.0663 222.438 91.3085 217.513C92.2202 216.128 94.0807 215.745 95.4673 216.657C96.852 217.569 97.235 219.43 96.3233 220.815C92.1674 227.126 87.1145 230.814 81.3052 231.777C80.2606 231.95 79.219 232.031 78.189 232.031H78.1891Z" fill="black"/>
<path d="M34.5499 78.3966L5.3352 82.3179C0.877671 82.9163 -1.20253 87.0549 0.712539 91.515L25.8675 150.1C27.7825 154.56 32.9965 157.719 37.454 157.121L66.6687 153.2C71.1263 152.601 73.2064 148.463 71.2914 144.003L46.1364 85.418C44.2214 80.9579 39.0074 77.7983 34.5499 78.3966V78.3966Z" fill="black"/>
<path d="M86.6271 183.6C85.6265 183.6 84.6483 183.1 84.0787 182.189C80.9429 177.171 66.7681 164.116 63.8181 163.036C62.239 162.675 61.2266 161.12 61.5461 159.521C61.8715 157.896 63.4604 156.843 65.0776 157.166C69.9713 158.145 86.0818 174.066 89.1697 179.007C90.0482 180.413 89.6211 182.265 88.215 183.143C87.7206 183.453 87.1704 183.6 86.6271 183.6ZM63.8611 163.046L63.9011 163.054L63.8611 163.046Z" fill="black"/>
<path d="M23.7974 96.5497L14.7514 97.7639C12.7963 98.0263 10.5095 96.6405 9.66955 94.6843L9.11093 93.3833C8.27098 91.4271 9.18336 89.6119 11.1384 89.3494L20.1844 88.1352C22.1395 87.8728 24.4263 89.2586 25.2663 91.2148L25.8249 92.5158C26.6648 94.472 25.7525 96.2873 23.7974 96.5497Z" fill="#82BE28"/>
<path d="M63.3102 164.243C66.4267 136.908 38.1775 119.438 21.4887 127.369C11.7306 132.006 16.5186 148.195 19.8994 155.93C23.2801 163.664 28.0939 167.99 39.6274 175.978C55.5805 179.879 64.2419 178.036 63.3102 164.243Z" fill="white"/>
<path d="M48.6962 182.869C46.4478 182.869 44.0801 182.531 41.6929 181.843C30.9382 178.744 21.9737 169.691 17.0976 157.006C14.0176 148.995 11.2532 137.867 15.5713 130.339C17.8021 126.451 21.5515 124.052 26.7149 123.207C37.195 121.494 48.0826 125.01 55.856 132.608C64.1971 140.763 67.9973 152.446 66.2823 164.66C66.0527 166.301 64.543 167.447 62.8925 167.215C61.2509 166.984 60.1066 165.467 60.3372 163.825C61.7844 153.521 58.6213 143.707 51.659 136.901C45.1501 130.537 36.4103 127.708 27.6842 129.132C24.3433 129.678 22.0851 131.051 20.7796 133.327C18.3259 137.602 19.0089 145.247 22.7007 154.851C28.6594 170.351 39.1298 174.856 43.3551 176.073C48.0279 177.421 52.5688 177.03 55.2091 175.054C56.5351 174.061 58.4181 174.33 59.4109 175.658C60.4047 176.985 60.134 178.867 58.807 179.86C56.1559 181.845 52.6078 182.869 48.6962 182.869Z" fill="black"/>
<path d="M128.724 210.719C128.461 210.719 128.194 210.684 127.928 210.611C126.329 210.172 125.388 208.52 125.828 206.921C132.384 183.043 130.554 166.743 119.896 154.068C118.828 152.799 118.992 150.906 120.261 149.839C121.531 148.771 123.425 148.936 124.49 150.205C140.123 168.794 136.044 192.384 131.617 208.511C131.251 209.844 130.042 210.719 128.724 210.719Z" fill="black"/>
<path d="M37.2346 493.379C34.7878 493.379 32.6498 491.583 32.2892 489.091C22.9748 424.7 31.9394 379.5 39.143 343.181C45.6109 310.57 50.2847 287.008 39.3609 263.632C36.4656 257.435 32.3928 254.103 27.5822 253.997C22.9406 253.878 18.1603 256.899 15.7692 261.478C14.3621 264.173 12.697 269.646 17.3542 276.03C18.9831 278.262 18.4935 281.392 16.2617 283.02C14.0279 284.649 10.899 284.16 9.27103 281.928C3.54093 274.074 2.67711 264.932 6.89944 256.846C10.94 249.11 19.1209 243.988 27.3652 243.988C27.5118 243.988 27.6574 243.989 27.803 243.993C32.8696 244.105 42.2856 246.254 48.4271 259.396C60.7374 285.74 55.5389 311.948 48.9577 345.128C41.9035 380.697 33.1227 424.965 42.1918 487.659C42.5875 490.393 40.6918 492.931 37.9567 493.326C37.7134 493.361 37.473 493.378 37.2346 493.378L37.2346 493.379Z" fill="black"/>
<path d="M132.591 208.849C139.881 193.462 135.262 170.654 129.015 148.539C121.073 120.424 120.594 126.127 112.855 112.265C108.439 104.354 103.669 102.63 98.54 105.871C95.9981 107.477 92.6921 109.909 90.6484 114.198C83.5659 129.06 100.457 166.578 103.309 179.124C105.527 188.884 108.189 203.525 110.851 208.849C113.513 214.173 132.591 208.849 132.591 208.849Z" fill="#82BE28"/>
<path d="M166.594 90.1348C164.394 81.0704 147.884 72.2047 127.108 82.5925C112.911 89.6911 106.919 100.249 108.031 110.987C110.151 131.475 170.917 107.946 166.594 90.1348H166.594Z" fill="white"/>
<path d="M154.589 74.0456C145.618 73.8547 151.098 109.982 122.482 111.313C117.452 111.547 111.168 109.982 107.841 106.322C105.603 103.86 104.846 109.65 105.59 115.645C107.237 128.92 112.73 138.798 110.961 165.749C110.704 169.674 110.025 174.425 111.32 181.165C111.486 182.031 112.772 195.533 118.489 203.151C129.259 217.505 150.129 214.896 173.163 215.94C191.413 218.68 217.702 214.819 222.72 208.569C249.533 90.9048 175.441 74.4893 154.589 74.0456Z" fill="#82BE28"/>
<path d="M227.87 173.877C227.805 173.877 227.74 173.875 227.674 173.871C226.02 173.765 224.765 172.337 224.871 170.683C226.394 146.971 223.156 127.347 215.248 112.356C204.139 91.3007 183.649 79.4181 154.345 77.0382C152.692 76.9038 151.462 75.4554 151.596 73.803C151.731 72.1511 153.159 70.9194 154.831 71.054C208.493 75.4124 234.785 109.996 230.863 171.068C230.76 172.657 229.44 173.877 227.87 173.877Z" fill="black"/>
<path d="M196.154 221.545C194.589 221.545 193.271 220.333 193.162 218.75C193.048 217.096 194.296 215.662 195.951 215.549C209.876 214.588 221.568 209.362 221.965 205.675C222.11 204.317 222.268 202.894 222.432 201.412C222.809 198.01 223.236 194.155 223.625 190.13C223.784 188.48 225.256 187.275 226.901 187.43C228.552 187.59 229.761 189.057 229.601 190.707C229.209 194.774 228.779 198.652 228.399 202.073C228.236 203.549 228.079 204.965 227.933 206.317C226.904 215.891 208.024 220.734 196.363 221.538C196.293 221.543 196.223 221.545 196.154 221.545H196.154Z" fill="black"/>
<path d="M138.212 138.237C137.137 138.237 136.257 137.972 135.603 137.667C134.935 137.357 133.235 136.568 124.043 123.617C116.897 130.623 112.023 134.245 109.538 134.392C108.761 134.441 107.287 134.253 106.018 132.512C103.248 128.712 100.298 114.03 103.422 105.978C104.021 104.433 105.757 103.664 107.306 104.265C108.852 104.864 109.619 106.603 109.019 108.149C106.896 113.62 108.738 123.855 110.225 127.697C112.901 125.856 118.127 121.109 122.307 116.866C122.934 116.231 123.809 115.905 124.697 115.982C125.587 116.057 126.396 116.523 126.907 117.255C131.242 123.464 136.648 130.727 138.248 132.233C138.377 132.227 138.612 132.179 138.971 132.017C145.52 129.053 157.854 106.724 161.938 92.8375C162.406 91.2474 164.07 90.3376 165.665 90.8045C167.255 91.2723 168.166 92.9408 167.698 94.5314C163.981 107.169 151.19 133.077 141.445 137.487C140.231 138.036 139.148 138.237 138.212 138.237V138.237Z" fill="black"/>
<path d="M170.143 200.828C160.826 232.107 124.446 260.057 109.361 264.05C94.2766 268.043 76.5301 270.705 67.5972 263.073C67.5972 263.073 56.9329 265.021 50.9411 264.377C44.9493 263.733 20.9939 256.391 24.9868 245.078C28.9798 233.764 45.485 225.089 55.5996 225.113C64.7466 225.134 88.8472 237.527 93.5327 237.757C120.152 235.095 143.462 214.07 147.516 184.191L170.143 200.829V200.828Z" fill="white"/>
<path d="M95.2888 239.848C93.698 239.848 92.2019 239.682 90.8183 239.341C87.2731 238.469 83.2062 236.772 78.9008 234.976C65.4364 229.359 50.1779 222.992 37.722 233.76C36.4673 234.844 34.5735 234.707 33.4879 233.452C32.4032 232.198 32.541 230.302 33.7957 229.218C49.062 216.02 67.6428 223.774 81.2127 229.435C85.2983 231.14 89.1571 232.75 92.2528 233.511C98.1627 234.964 108.122 231.62 117.643 224.995C132.739 214.491 142.791 199.11 144.533 183.85C144.722 182.202 146.22 181.023 147.856 181.208C149.503 181.397 150.686 182.884 150.498 184.531C148.563 201.48 137.563 218.448 121.073 229.923C111.867 236.329 102.594 239.848 95.2888 239.848L95.2888 239.848Z" fill="black"/>
<path d="M55.4252 267.593C52.0725 267.593 48.6417 267.31 45.334 266.737C36.4369 265.194 29.5234 261.811 25.8659 257.212C23.1582 253.808 20.855 248.075 25.2571 240.096C26.0574 238.644 27.8838 238.116 29.3358 238.917C30.7869 239.718 31.3146 241.544 30.5143 242.996C28.2316 247.134 28.2482 250.561 30.5651 253.475C36.5063 260.945 55.4418 263.41 66.776 260.186C68.3668 259.736 70.0309 260.656 70.4843 262.252C70.9377 263.847 70.0123 265.507 68.4176 265.961C64.6125 267.043 60.096 267.593 55.4252 267.593H55.4252Z" fill="black"/>
<path d="M86.1206 270.438H86.1118C78.3873 270.416 72.4314 269.008 66.2 265.73C64.7323 264.958 64.1685 263.143 64.9405 261.676C65.7124 260.208 67.527 259.644 68.9947 260.416C74.3838 263.251 79.3478 264.415 86.1294 264.435C87.7876 264.44 89.1273 265.788 89.1224 267.445C89.1175 269.1 87.7749 270.438 86.1206 270.438V270.438Z" fill="black"/>
<path d="M150.694 140.732C139.69 188.307 126.38 206.94 88.2248 220.455C78.8625 223.771 76.0605 231.768 88.003 234.874C99.9454 237.98 100.499 255.019 99.5747 264.378C98.0963 279.351 130.205 264.237 150.152 248.849C165.68 236.871 177.473 198.217 178.954 182.983C183.612 135.067 155.162 121.412 150.694 140.732Z" fill="#82BE28"/>
<path d="M105.621 272.509C103.416 272.51 101.524 272.147 100.057 271.349C97.4454 269.927 96.1849 267.248 96.5982 263.998C97.9301 253.512 96.0119 241.078 90.5887 239.275C86.7132 237.985 83.7758 236.781 80.4496 235.118C79.7626 234.774 79.234 234.181 78.9711 233.459C77.8102 230.266 77.9255 226.952 79.2975 224.128C80.772 221.092 83.5345 218.836 87.2878 217.603C132.608 202.703 142.593 171.275 148.396 142.986C148.728 141.363 150.313 140.316 151.939 140.649C153.563 140.982 154.61 142.568 154.277 144.193C149.841 165.818 141.585 206.072 89.162 223.306C86.9897 224.021 85.4458 225.212 84.6983 226.751C84.1784 227.821 84.0465 229.039 84.3055 230.321C86.9037 231.563 89.3613 232.539 92.4844 233.578C103.134 237.12 103.728 255.52 102.553 264.755C102.421 265.8 102.69 265.946 102.927 266.075C108.363 269.036 133.152 259.256 148.218 246.554C169.045 228.993 172.698 199.307 174.88 181.569L175.151 179.382C175.356 177.737 176.856 176.572 178.501 176.775C180.147 176.981 181.314 178.482 181.108 180.127L180.839 182.302C178.548 200.914 174.716 232.065 152.088 251.143C140.404 260.995 118.054 272.508 105.621 272.509V272.509Z" fill="black"/>
<path d="M82.2106 175.965C81.1386 175.965 80.1018 175.39 79.5615 174.379C78.7788 172.918 79.3289 171.099 80.7907 170.316C93.3454 163.594 91.2474 147.282 89.3957 132.89C88.1293 123.043 87.0358 114.54 90.7256 109.551C91.7135 108.217 93.5926 107.939 94.9245 108.922C96.2573 109.908 96.5388 111.788 95.5528 113.121C93.2985 116.169 94.3421 124.28 95.3505 132.124C97.3449 147.633 99.8279 166.933 83.6245 175.609C83.1731 175.85 82.6884 175.965 82.2106 175.965Z" fill="black"/>
</svg>
