<svg width="334" height="494" viewBox="0 0 334 494" fill="none" xmlns="http://www.w3.org/2000/svg">
<path d="M34.4007 71.8493L5.2292 76.3316C0.778269 77.0155 -1.22531 81.1983 0.776816 85.6267L27.0753 143.795C29.0774 148.223 34.3572 151.287 38.8081 150.603L67.9796 146.121C72.4305 145.437 74.4341 141.254 72.432 136.826L46.1335 78.6574C44.1314 74.229 38.8516 71.1653 34.4007 71.8493Z" fill="black"/>
<path d="M23.9813 90.2268L14.9488 91.6147C12.9966 91.9147 10.6808 90.5709 9.80271 88.6286L9.2187 87.3369C8.34056 85.3946 9.21934 83.56 11.1715 83.2601L20.2041 81.8722C22.1563 81.5722 24.472 82.9159 25.3501 84.8582L25.9342 86.15C26.8123 88.0923 25.9335 89.9269 23.9813 90.2268Z" fill="#82BE28"/>
<path d="M87.4023 163.76C86.0696 181.085 68.3007 187.304 58.0095 154.261C64.0265 127.379 37.7651 106.975 20.3048 113.091C10.0955 116.667 13.1363 133.295 15.6775 141.356C18.2186 149.417 24.8534 159.836 35.4841 169.019C61.6374 231.726 100.703 220.638 113.167 175.31C111.481 163.602 87.4023 163.76 87.4023 163.76Z" fill="white"/>
<path d="M77.99 215.446C67.6376 215.447 57.4769 209.999 50.3297 200.468C42.5084 190.037 37.3327 179.854 33.9073 173.115C32.3497 170.053 30.5847 166.581 29.8871 165.922C24.1498 160.872 17.0241 153.63 12.8591 142.402C9.08048 132.214 9.22235 122.473 13.2387 116.343C15.9665 112.18 20.3634 109.816 25.952 109.506C36.548 108.925 47.0335 113.578 53.9625 121.974C61.3964 130.982 63.9344 143.017 60.9238 154.994C60.5579 157.719 66.8999 171.107 73.2507 174.851C74.6801 175.694 75.1566 177.536 74.3142 178.966C73.4718 180.396 71.6304 180.873 70.1981 180.029C64.9235 176.92 60.7037 169.967 59.1343 167.122C57.5943 164.33 54.1171 157.416 55.0945 153.528C57.6335 143.425 55.5309 133.318 49.3259 125.8C43.524 118.769 35.1186 115.016 26.2846 115.508C22.5755 115.714 19.9534 117.065 18.2666 119.638C15.3804 124.042 15.4704 132.157 18.4946 140.311C22.1714 150.222 28.3275 156.541 33.8652 161.415C35.3191 162.696 36.5715 165.092 39.266 170.392C42.5965 176.945 47.6313 186.848 55.1395 196.861C61.7007 205.612 71.1403 210.265 80.3881 209.312C88.2104 208.504 94.6316 203.904 98.0071 196.691C98.7105 195.188 100.498 194.539 102.003 195.243C103.507 195.946 104.155 197.735 103.451 199.239C99.2232 208.276 90.8325 214.277 81.0054 215.291C80.0006 215.395 78.9939 215.446 77.99 215.446L77.99 215.446Z" fill="black"/>
<path d="M48.8384 494C46.3885 494 44.2477 492.202 43.8867 489.707C34.5606 425.235 43.5364 379.978 50.7492 343.613C57.2252 310.961 61.9049 287.369 50.9674 263.964C48.0684 257.759 43.9904 254.423 39.1738 254.316C34.542 254.198 29.74 257.223 27.3459 261.808C25.937 264.505 24.2698 269.986 28.9329 276.377C30.5638 278.613 30.0737 281.746 27.839 283.377C25.6014 285.008 22.4696 284.518 20.8395 282.283C15.1022 274.42 14.2373 265.266 18.465 257.17C22.5107 249.423 30.7018 244.295 38.9565 244.295C39.1033 244.295 39.2491 244.297 39.3949 244.3C44.4679 244.412 53.8957 246.565 60.0449 259.723C72.3708 286.1 67.1657 312.341 60.5762 345.563C53.5131 381.177 44.7213 425.5 53.8018 488.273C54.198 491.011 52.2999 493.552 49.5614 493.948C49.3178 493.983 49.0771 494 48.8384 494L48.8384 494Z" fill="black"/>
<path d="M65.6757 251.932C63.8207 251.932 61.81 251.678 59.6194 251.114C58.0109 250.7 57.0433 249.062 57.4572 247.454C57.871 245.847 59.5137 244.878 61.1164 245.292C71.4218 247.942 75.8677 241.557 81.0228 234.164C81.4944 233.488 81.9621 232.818 82.4298 232.163C83.3915 230.813 85.2701 230.497 86.6222 231.463C87.9734 232.427 88.2865 234.304 87.3218 235.656C86.8668 236.294 86.4119 236.945 85.953 237.603C81.426 244.095 75.9577 251.932 65.6757 251.932V251.932Z" fill="black"/>
<path d="M140.735 148.726C145.131 119.806 132.303 126.286 124.555 112.407C117.942 100.56 110.652 102.65 102.32 114.342C87.4024 135.276 90.7332 143.88 84.9262 151.853C78.518 160.651 80.2949 168.647 86.0698 172.201C91.8447 175.755 106.504 193.079 115.388 192.191C127.382 191.302 136.068 179.433 140.735 148.726V148.726Z" fill="#82BE28"/>
<path d="M179.692 92.4693C177.489 83.3935 175.297 76.7824 159.846 79.4697C136.857 83.4677 116.534 96.7943 116.201 111.12C115.721 131.739 184.02 110.303 179.692 92.4693V92.4693Z" fill="white"/>
<path d="M166.34 74.1389C157.358 73.9478 162.844 110.121 134.192 111.453C129.156 111.688 122.864 110.121 119.533 106.456C117.292 103.991 116.534 109.788 117.279 115.791C118.928 129.082 123.095 138.973 121.324 165.958C121.067 169.888 114.557 172.288 115.831 181.529C117.608 194.411 126.937 205.517 133.6 210.847C147.631 222.072 161.874 215.166 184.937 216.212C200.048 220.732 229.532 215.089 234.557 208.831C261.403 91.0193 187.218 74.5831 166.34 74.1389Z" fill="#82BE28"/>
<path d="M114.905 193.513C102.729 193.513 95.8067 185.94 89.6516 179.21C87.4874 176.842 85.4425 174.607 83.2255 172.706C81.9653 171.626 81.8185 169.728 82.8997 168.468C83.9788 167.207 85.8789 167.063 87.1371 168.142C89.632 170.281 91.897 172.758 94.0876 175.153C100.267 181.911 106.095 188.295 116.922 187.418C118.558 187.278 120.027 188.517 120.161 190.171C120.295 191.825 119.062 193.276 117.408 193.41C116.551 193.479 115.715 193.513 114.905 193.513H114.905Z" fill="black"/>
<path d="M84.9237 154.859C84.5216 154.859 84.1136 154.778 83.7212 154.606C82.2008 153.942 81.5071 152.169 82.1714 150.648C84.1997 146.011 85.0205 143.294 86.2054 135.331C87.9724 123.464 91.2108 117.878 100.643 110.428C101.946 109.399 103.833 109.62 104.864 110.923C105.893 112.226 105.672 114.116 104.368 115.145C96.098 121.678 93.6999 125.814 92.1521 136.217C90.8753 144.795 89.9155 147.945 87.6798 153.057C87.1857 154.186 86.0821 154.859 84.9237 154.859H84.9237Z" fill="black"/>
<path d="M239.714 174.096C239.649 174.096 239.583 174.094 239.518 174.09C237.861 173.984 236.605 172.554 236.711 170.898C238.236 147.156 234.994 127.508 227.076 112.497C215.953 91.4157 195.437 79.5181 166.096 77.1352C164.442 77.0007 163.21 75.5505 163.344 73.896C163.479 72.242 164.908 71.0087 166.583 71.1435C220.313 75.5074 246.638 110.135 242.71 171.283C242.608 172.874 241.286 174.096 239.714 174.096H239.714Z" fill="black"/>
<path d="M207.958 221.824C206.391 221.824 205.072 220.611 204.962 219.025C204.848 217.369 206.098 215.934 207.754 215.82C221.697 214.858 233.404 209.626 233.801 205.934C233.947 204.574 234.105 203.149 234.269 201.666C234.647 198.26 235.074 194.399 235.464 190.369C235.624 188.717 237.102 187.511 238.744 187.666C240.397 187.826 241.607 189.295 241.447 190.947C241.054 195.019 240.624 198.902 240.244 202.328C240.081 203.805 239.923 205.223 239.777 206.577C238.747 216.163 219.842 221.012 208.167 221.817C208.097 221.822 208.027 221.824 207.958 221.824H207.958Z" fill="black"/>
<path d="M149.943 138.411C148.866 138.411 147.986 138.146 147.33 137.841C146.662 137.53 144.96 136.74 135.755 123.772C128.6 130.788 123.72 134.415 121.231 134.561C120.463 134.608 118.979 134.424 117.708 132.679C114.934 128.874 111.981 114.174 115.109 106.111C115.709 104.564 117.448 103.795 118.998 104.396C120.546 104.996 121.314 106.738 120.713 108.285C118.588 113.762 120.432 124.011 121.919 127.858C124.6 126.015 129.832 121.261 134.017 117.014C134.642 116.377 135.526 116.051 136.41 116.128C137.301 116.203 138.111 116.67 138.622 117.402C142.964 123.619 148.377 130.891 149.979 132.399C150.108 132.393 150.343 132.346 150.702 132.183C157.259 129.216 169.609 106.858 173.699 92.9544C174.168 91.3623 175.834 90.4514 177.431 90.9188C179.022 91.3872 179.934 93.0579 179.466 94.6505C175.745 107.304 162.938 133.245 153.18 137.66C151.965 138.21 150.879 138.411 149.943 138.411V138.411Z" fill="black"/>
<path d="M181.914 201.081C172.585 232.399 136.159 260.385 121.056 264.383C105.952 268.381 88.1834 271.046 79.2392 263.404C79.2392 263.404 68.5615 265.355 62.5621 264.71C56.5627 264.065 32.5772 256.714 36.5751 245.386C40.5731 234.059 57.0991 225.373 67.2264 225.396C76.385 225.418 100.516 237.826 105.207 238.057C131.861 235.391 155.2 214.339 159.259 184.423L181.914 201.081V201.081Z" fill="white"/>
<path d="M67.8875 267.579C64.5306 267.579 61.0954 267.295 57.7826 266.721C48.8753 265.176 41.9521 261.789 38.29 257.184C35.5798 253.776 33.2737 248.036 37.6814 240.047C38.4837 238.594 40.3104 238.064 41.7652 238.868C43.2191 239.669 43.7465 241.497 42.9452 242.951C40.6587 247.094 40.6753 250.526 42.9951 253.443C48.9418 260.922 67.9012 263.39 79.2525 260.162C80.8464 259.712 82.5116 260.633 82.9656 262.231C83.4195 263.827 82.493 265.49 80.8963 265.944C77.0864 267.028 72.5642 267.579 67.8875 267.579L67.8875 267.579Z" fill="black"/>
<path d="M98.6205 270.427H98.6117C90.8774 270.405 84.9151 268.995 78.6758 265.712C77.2063 264.939 76.6417 263.122 77.4147 261.653C78.1876 260.184 80.0025 259.617 81.474 260.393C86.8689 263.231 91.8392 264.397 98.6293 264.416C100.289 264.421 101.631 265.77 101.626 267.43C101.621 269.087 100.277 270.427 98.6205 270.427Z" fill="black"/>
<path d="M106.966 240.15C105.373 240.15 103.875 239.984 102.49 239.643C98.9399 238.769 94.8678 237.07 90.557 235.272C77.0776 229.648 61.7979 223.273 49.3263 234.055C48.071 235.14 46.1739 235.003 45.0869 233.746C44.0009 232.491 44.1388 230.592 45.3951 229.507C60.6806 216.292 79.2849 224.056 92.8719 229.724C96.9626 231.431 100.826 233.043 103.926 233.806C109.845 235.26 119.816 231.912 129.349 225.278C144.463 214.761 154.528 199.361 156.272 184.082C156.461 182.432 157.953 181.251 159.6 181.437C161.248 181.625 162.433 183.115 162.244 184.764C160.307 201.734 149.293 218.724 132.783 230.212C123.565 236.626 114.28 240.15 106.966 240.15L106.966 240.15Z" fill="black"/>
<path d="M111.33 269.612C109.89 269.612 108.618 268.574 108.371 267.106C108.094 265.469 109.198 263.919 110.834 263.642C144.71 257.922 172.208 223.136 179.034 200.224C179.507 198.633 181.18 197.725 182.772 198.202C184.363 198.675 185.269 200.349 184.794 201.94C177.798 225.427 149.771 263.164 111.834 269.569C111.665 269.598 111.497 269.612 111.33 269.612Z" fill="black"/>
<path d="M164.588 137.336C159.258 153.772 142.6 183.091 135.936 190.42C129.273 197.75 174.183 234.96 185.245 224.403C189.882 219.978 199.238 193.752 201.459 175.983" fill="#82BE28"/>
<path d="M179.823 229.29C168.105 229.292 150.734 216.317 142.467 208.248C135.989 201.925 129.212 193.35 133.713 188.398C139.93 181.56 156.436 152.732 161.73 136.409C162.243 134.83 163.941 133.964 165.517 134.477C167.096 134.989 167.961 136.684 167.448 138.263C161.875 155.448 145.021 184.786 138.263 192.329C137.891 195.699 150.691 210.065 166.385 218.674C174.417 223.081 180.847 224.445 183.171 222.229C186.935 218.636 196.27 193.273 198.478 175.61C198.684 173.963 200.186 172.796 201.833 173C203.481 173.206 204.649 174.709 204.442 176.356C202.241 193.973 192.96 221.196 187.321 226.578C185.329 228.479 182.751 229.29 179.823 229.29Z" fill="black"/>
</svg>
