<svg width="318" height="494" viewBox="0 0 318 494" fill="none" xmlns="http://www.w3.org/2000/svg">
<path d="M124.573 210.887C124.309 210.887 124.042 210.851 123.776 210.779C122.176 210.339 121.234 208.686 121.674 207.086C128.233 183.188 126.402 166.875 115.737 154.191C114.669 152.921 114.832 151.026 116.103 149.958C117.374 148.889 119.27 149.055 120.335 150.324C135.979 168.927 131.898 192.536 127.467 208.676C127.101 210.01 125.892 210.887 124.573 210.887Z" fill="black"/>
<path d="M89.2064 173.238C82.653 197.91 72.2683 214.189 58.0468 221.518L70.1138 237.62C85.9826 228.125 101.013 217.578 109.631 198.991L89.2064 173.238H89.2064Z" fill="white"/>
<path d="M33.007 493.771C30.5583 493.771 28.4185 491.974 28.0577 489.48C18.7359 425.037 27.7076 379.801 34.917 343.453C41.39 310.816 46.0665 287.235 35.1351 263.841C32.2374 257.639 28.1604 254.304 23.3469 254.198C23.2687 254.196 23.1904 254.195 23.1132 254.195C18.51 254.195 13.8775 257.18 11.5236 261.686C10.1153 264.383 8.44892 269.86 13.1098 276.249C14.74 278.483 14.2501 281.615 12.0165 283.245C9.78185 284.875 6.65047 284.385 5.02024 282.151C-0.714421 274.292 -1.57892 265.143 2.64775 257.05C6.76196 249.171 15.1253 243.986 23.5679 244.186C28.6376 244.298 38.062 246.45 44.2084 259.602C56.5276 285.967 51.3259 312.195 44.7394 345.402C37.6787 380.999 28.8918 425.302 37.9681 488.046C38.3642 490.783 36.467 493.323 33.7297 493.718C33.4862 493.753 33.2457 493.771 33.007 493.771H33.007Z" fill="black"/>
<path d="M62.0446 221.074C56.9937 216.994 44.284 213.082 33.1836 217.522C22.0832 221.962 3.12285 221.734 3.26517 245.939C3.31514 254.438 17.6469 259.248 32.1521 254.936C42.2102 251.947 39.324 248.583 49.1941 249.421C67.5973 250.982 71.5418 231.393 71.5418 231.393L62.0446 221.074V221.074Z" fill="white"/>
<path d="M124.862 148.657C116.915 120.519 116.434 126.227 108.69 112.355C104.27 104.437 99.4966 102.711 94.363 105.955C91.8193 107.562 88.5107 109.996 86.4653 114.288C79.3771 129.163 104.02 186.663 58.9889 206.866C53.8783 209.158 49.5724 212.638 51.2932 216.967C56.1773 218.077 60.7649 225.07 61.209 228.178C111.827 247.271 139.8 201.537 124.862 148.657L124.862 148.657Z" fill="#2D8C3C"/>
<path d="M14.9494 258.092C8.85389 258.093 4.10499 255.341 1.67381 250.159C-2.15972 241.986 0.986322 228.308 12.7559 220.462C28.2113 210.157 40.8532 210.746 51.1793 212.682C52.8105 212.988 53.8843 214.558 53.5782 216.189C53.2741 217.819 51.7074 218.897 50.0723 218.588C40.4757 216.788 29.7164 216.376 16.0887 225.461C7.26472 231.344 4.32404 241.661 7.11412 247.607C9.12184 251.888 13.8639 253.164 20.466 251.198C22.0591 250.726 23.7284 251.631 24.2017 253.221C24.6751 254.811 23.7695 256.484 22.1794 256.957C19.6201 257.719 17.1928 258.092 14.9494 258.092V258.092Z" fill="black"/>
<path d="M49.8358 251.815C47.9816 251.815 45.9719 251.561 43.7823 250.997C42.1746 250.584 41.2074 248.946 41.6211 247.339C42.0347 245.732 43.6757 244.764 45.2786 245.178C55.5744 247.827 60.023 241.445 65.1768 234.055C65.6482 233.38 66.1156 232.71 66.5831 232.055C67.5454 230.705 69.4201 230.39 70.7736 231.356C72.1241 232.32 72.437 234.196 71.4728 235.546C71.0181 236.184 70.5633 236.835 70.1046 237.492C65.5797 243.981 60.114 251.815 49.8358 251.815L49.8358 251.815Z" fill="black"/>
<path d="M166.022 200.988C156.698 232.291 120.289 260.264 105.192 264.26C90.0956 268.256 72.3349 270.921 63.395 263.282C63.395 263.282 52.7222 265.232 46.7256 264.587C40.729 263.943 16.7546 256.595 20.7507 245.273C24.7468 233.95 41.2652 225.268 51.3878 225.292C60.542 225.313 84.6618 237.716 89.3511 237.946C115.992 235.282 139.32 214.24 143.377 184.338L166.022 200.988V200.988Z" fill="white"/>
<path d="M91.1086 240.039C89.5165 240.039 88.0183 239.872 86.6345 239.531C83.0865 238.659 79.0163 236.96 74.7075 235.162C61.2314 229.542 45.9598 223.169 33.4959 233.946C32.2412 235.03 30.345 234.894 29.2585 233.638C28.173 232.383 28.3109 230.485 29.5666 229.4C44.843 216.195 63.4425 223.952 77.0213 229.618C81.1101 231.324 84.972 232.935 88.0701 233.697C93.9749 235.15 103.951 231.805 113.481 225.174C128.588 214.662 138.648 199.268 140.392 183.996C140.581 182.347 142.08 181.167 143.718 181.353C145.366 181.541 146.55 183.03 146.361 184.678C144.425 201.64 133.415 218.622 116.913 230.106C107.699 236.516 98.4187 240.038 91.1086 240.039Z" fill="black"/>
<path d="M47.0036 268.559C43.3999 268.559 39.8852 268.239 36.6081 267.59C27.0232 265.693 20.5854 261.237 18.4799 255.044C17.945 253.474 18.786 251.767 20.3566 251.233C21.9291 250.698 23.6337 251.539 24.1676 253.11C27.0692 261.641 45.7333 265.181 62.5735 260.392C64.1636 259.942 65.831 260.863 66.2847 262.46C66.7385 264.056 65.8124 265.718 64.2164 266.172C58.6538 267.753 52.7177 268.559 47.0036 268.559H47.0036Z" fill="black"/>
<path d="M81.933 270.653H81.9242C74.1936 270.631 68.233 269.222 61.9967 265.941C60.5278 265.169 59.9635 263.352 60.7361 261.884C61.5077 260.415 63.3218 259.85 64.7936 260.623C70.1869 263.46 75.1549 264.625 81.9418 264.645C83.6014 264.65 84.9422 265.999 84.9373 267.658C84.9324 269.314 83.5887 270.653 81.933 270.653V270.653Z" fill="black"/>
<path d="M162.47 90.2064C160.269 81.1349 143.745 72.2621 122.953 82.6582C108.745 89.7624 102.748 100.329 103.86 111.075C105.983 131.58 166.797 108.032 162.47 90.2064H162.47Z" fill="white"/>
<path d="M58.9884 209.871C57.7395 209.871 56.5738 209.087 56.1465 207.84C55.6086 206.27 56.4447 204.561 58.0143 204.024C86.053 194.418 83.9201 169.872 81.8566 146.135C80.5931 131.598 79.5027 119.044 85.9689 111.452C87.0456 110.188 88.9438 110.039 90.2043 111.113C91.4678 112.189 91.6194 114.085 90.5437 115.348C85.7058 121.027 86.7444 132.97 87.8426 145.614C89.8933 169.212 92.4458 198.579 59.9624 209.708C59.6397 209.818 59.3111 209.871 58.9884 209.871L58.9884 209.871Z" fill="black"/>
<path d="M150.456 74.1045C141.478 73.9134 146.962 110.07 118.323 111.402C113.289 111.636 107.001 110.07 103.671 106.407C101.431 103.942 100.674 109.737 101.418 115.737C103.066 129.022 108.563 138.908 106.794 165.881C106.536 169.809 105.856 174.564 107.152 181.309C107.319 182.176 108.606 195.688 114.327 203.313C125.106 217.678 145.992 215.067 169.045 216.112C187.309 218.853 213.619 214.989 218.641 208.735C245.475 90.9771 171.325 74.5485 150.456 74.1045Z" fill="#2D8C3C"/>
<path d="M223.797 174.015C223.732 174.015 223.667 174.013 223.601 174.009C221.946 173.903 220.69 172.475 220.796 170.818C222.319 147.088 219.078 127.448 211.164 112.445C200.046 91.3733 179.54 79.4812 150.213 77.0994C148.56 76.965 147.328 75.5154 147.462 73.8617C147.597 72.2085 149.026 70.9758 150.7 71.1105C204.404 75.4721 230.716 110.084 226.792 171.204C226.69 172.794 225.368 174.015 223.797 174.015Z" fill="black"/>
<path d="M192.052 221.721C190.486 221.721 189.167 220.509 189.057 218.924C188.944 217.269 190.193 215.834 191.848 215.72C205.785 214.759 217.487 209.529 217.884 205.839C218.033 204.451 218.194 202.994 218.362 201.476C218.736 198.099 219.16 194.272 219.546 190.281C219.706 188.629 221.18 187.424 222.825 187.579C224.477 187.739 225.686 189.207 225.527 190.859C225.137 194.891 224.71 198.741 224.335 202.138C224.167 203.649 224.006 205.098 223.858 206.481C222.828 216.062 203.931 220.909 192.261 221.714C192.191 221.719 192.121 221.721 192.052 221.721V221.721Z" fill="black"/>
<path d="M134.066 138.347C132.99 138.347 132.11 138.082 131.455 137.777C130.787 137.466 129.086 136.676 119.885 123.715C112.733 130.727 107.855 134.352 105.368 134.499C104.609 134.546 103.117 134.362 101.847 132.618C99.0744 128.815 96.121 114.122 99.2475 106.062C99.848 104.516 101.587 103.747 103.135 104.347C104.682 104.947 105.45 106.688 104.849 108.235C102.726 113.71 104.569 123.953 106.056 127.798C108.736 125.956 113.965 121.205 118.148 116.959C118.773 116.323 119.655 115.998 120.54 116.074C121.43 116.149 122.24 116.616 122.751 117.348C127.091 123.562 132.502 130.831 134.102 132.338C134.232 132.332 134.466 132.284 134.825 132.122C141.378 129.157 153.723 106.809 157.812 92.911C158.281 91.3197 159.951 90.4095 161.542 90.8767C163.134 91.3451 164.044 93.0149 163.576 94.6068C159.855 107.255 147.053 133.184 137.301 137.596C136.087 138.146 135.002 138.347 134.066 138.347H134.066Z" fill="black"/>
<path d="M170.352 112.178C167.422 112.139 165.3 113.852 161.774 116.701C158.765 119.132 151.759 125.541 146.559 140.844C142.215 153.624 144.676 156.29 139.973 165.353C138.861 167.495 135.692 168.033 128.805 179.487C122.953 189.221 117.625 200.322 117.625 200.322C117.625 200.322 85.4244 210.616 77.1934 216.189C68.9624 221.762 71.8652 231.952 83.8171 235.06C95.7691 238.168 96.3229 255.221 95.3981 264.587C93.9185 279.572 126.053 264.447 146.016 249.046C161.556 237.058 165.108 223.738 170.517 196.485C176.21 167.806 192.022 157.967 189.705 142.249C187.728 128.833 179.348 112.297 170.352 112.178L170.352 112.178Z" fill="#2D8C3C"/>
<path d="M101.449 272.726C99.2418 272.727 97.3495 272.364 95.8816 271.565C93.2666 270.143 92.005 267.461 92.4187 264.208C93.7516 253.714 91.8329 241.271 86.4053 239.465C82.5297 238.176 79.59 236.971 76.2572 235.306C75.5697 234.962 75.0406 234.367 74.7776 233.645C73.6158 230.45 73.7321 227.133 75.1042 224.307C76.5799 221.269 79.3455 219.011 83.1018 217.776C128.455 202.865 138.451 171.412 144.259 143.1C144.592 141.475 146.191 140.43 147.805 140.761C149.43 141.094 150.477 142.683 150.144 144.308C145.704 165.951 137.439 206.236 84.9775 223.484C82.8026 224.199 81.2574 225.392 80.5093 226.932C79.989 228.003 79.857 229.222 80.1162 230.504C82.7194 231.749 85.179 232.725 88.3016 233.764C98.9592 237.309 99.5538 255.724 98.3783 264.966C98.2463 266.012 98.5152 266.158 98.7528 266.287C104.197 269.251 129.003 259.463 144.08 246.75C164.922 229.178 168.578 199.47 170.763 181.72L171.035 179.525C171.24 177.879 172.745 176.714 174.388 176.916C176.035 177.123 177.203 178.624 176.996 180.27L176.726 182.454C174.434 201.079 170.597 232.251 147.952 251.343C136.259 261.203 113.891 272.725 101.449 272.726V272.726Z" fill="black"/>
</svg>
