<svg width="318" height="494" viewBox="0 0 318 494" fill="none" xmlns="http://www.w3.org/2000/svg">
<path d="M33.0012 493.695C30.5528 493.695 28.4134 491.898 28.0526 489.405C18.7322 424.972 27.7025 379.743 34.9108 343.401C41.3828 310.769 46.0596 287.192 35.1289 263.801C32.2317 257.6 28.1562 254.265 23.3425 254.159C18.7029 254.041 13.9147 257.064 11.522 261.646C10.114 264.342 8.44782 269.819 13.108 276.207C14.738 278.44 14.2481 281.572 12.0148 283.202C9.77956 284.832 6.64866 284.342 5.01966 282.109C-0.714118 274.25 -1.57849 265.102 2.64655 257.011C6.68973 249.269 14.8758 244.144 23.1255 244.144C23.2721 244.144 23.4178 244.146 23.5635 244.149C28.6334 244.261 38.0554 246.412 44.2008 259.562C56.5191 285.923 51.3172 312.148 44.7318 345.349C37.6731 380.942 28.8866 425.237 37.9615 487.971C38.3575 490.708 36.4606 493.247 33.7238 493.643C33.4803 493.678 33.2398 493.695 33.0012 493.695L33.0012 493.695Z" fill="black"/>
<path d="M89.1927 173.211C82.6403 197.88 72.2572 214.156 58.0379 221.484L70.103 237.584C85.9694 228.09 100.998 217.545 109.614 198.96L89.1927 173.211H89.1927Z" fill="white"/>
<path d="M62.0329 221.04C56.9828 216.96 44.275 213.049 33.1763 217.489C22.0776 221.928 3.95549 221.7 4.09779 245.901C4.14775 254.399 17.6419 259.208 32.1449 254.897C42.2015 251.908 39.3158 248.545 49.1843 249.382C67.5847 250.944 71.5286 231.358 71.5286 231.358L62.0329 221.04V221.04Z" fill="white"/>
<path d="M70.1048 242.363C69.173 242.363 68.2558 241.932 67.6681 241.12C66.6962 239.775 66.9974 237.897 68.3418 236.926C81.5812 227.349 95.2713 217.447 105.658 198.829C106.466 197.381 108.293 196.86 109.746 197.669C111.194 198.477 111.713 200.307 110.905 201.755C99.8698 221.536 84.9907 232.298 71.8619 241.793C71.33 242.178 70.714 242.363 70.1048 242.363Z" fill="black"/>
<path d="M14.945 258.052C8.8504 258.052 4.10223 255.301 1.67143 250.12C-2.16152 241.948 0.985017 228.272 12.7528 220.427C25.0466 212.231 38.7953 210.244 54.7891 214.357C69.7396 218.2 80.7485 194.88 87.7251 177.002C88.3284 175.457 90.0689 174.693 91.6157 175.296C93.1606 175.899 93.9253 177.641 93.322 179.186C88.3479 191.932 75.137 225.792 53.2931 220.175C39.0505 216.514 26.8789 218.23 16.0851 225.426C7.26245 231.307 4.32125 241.623 7.11089 247.568C9.11733 251.849 13.8606 253.125 20.4607 251.159C22.0555 250.687 23.7236 251.592 24.1959 253.181C24.6691 254.771 23.7637 256.444 22.1738 256.917C19.6149 257.679 17.188 258.052 14.945 258.052H14.945Z" fill="black"/>
<path d="M49.8281 251.777C47.9742 251.777 45.9658 251.523 43.7756 250.959C42.1681 250.546 41.201 248.908 41.6147 247.302C42.0292 245.695 43.667 244.727 45.2716 245.141C55.5639 247.789 60.0138 241.408 65.1668 234.019C65.6371 233.344 66.1045 232.675 66.5719 232.02C67.533 230.671 69.4084 230.356 70.7617 231.32C72.112 232.284 72.4249 234.16 71.4608 235.51C71.0062 236.147 70.5524 236.798 70.0948 237.455C65.5696 243.944 60.1057 251.777 49.8281 251.777V251.777Z" fill="black"/>
<path d="M124.842 148.634C129.235 119.732 116.415 126.208 108.672 112.337C102.063 100.498 94.6638 102.506 86.4508 114.271C73.4405 132.907 79.7916 158 62.9216 175.98C59.0882 180.065 72.1066 188.543 72.0225 188.632C82.6582 201.565 99.3735 203.248 116.762 204.459C116.81 204.367 116.859 204.278 116.908 204.186C121.697 195.043 120.177 179.322 124.842 148.634H124.842Z" fill="white"/>
<path d="M163.776 92.4121C161.575 83.342 159.384 76.735 143.942 79.4206C120.968 83.4161 100.657 96.7345 100.324 111.052C99.8449 131.657 168.102 110.235 163.776 92.4122V92.4121Z" fill="white"/>
<path d="M110.429 207.498H110.373C94.6452 207.455 63.0664 188.75 59.341 180.845C58.1725 178.367 59.2109 176.682 59.7106 176.072C70.4966 162.926 72.0904 150.824 73.6305 139.119C75.0062 128.669 76.3057 118.799 84.5114 110.593C85.6847 109.42 87.5855 109.42 88.7589 110.593C89.9322 111.766 89.9322 113.668 88.7589 114.841C81.9955 121.605 80.8798 130.085 79.5872 139.903C78.0481 151.592 76.3096 164.805 65.1383 178.911C68.9253 184.166 95.6738 200.898 109.778 201.477C112.582 201.593 114.315 201.018 114.911 199.77C117.283 194.807 123.384 149.374 119.304 132.597C118.912 130.985 119.902 129.361 121.513 128.968C123.128 128.575 124.75 129.566 125.142 131.177C129.401 148.694 123.629 195.462 120.332 202.361C119.21 204.707 116.581 207.498 110.429 207.498L110.429 207.498Z" fill="black"/>
<path d="M150.431 74.0931C141.455 73.9021 146.938 110.053 118.303 111.385C113.27 111.619 106.982 110.053 103.653 106.39C101.413 103.927 100.656 109.72 101.401 115.719C103.049 129.002 108.545 138.887 106.775 165.855C106.518 169.783 105.838 174.537 107.134 181.281C107.301 182.148 108.587 195.658 114.307 203.282C125.085 217.645 145.968 215.034 169.017 216.079C184.118 220.596 213.584 214.956 218.606 208.702C245.435 90.9631 171.296 74.537 150.431 74.0931Z" fill="white"/>
<path d="M223.76 173.989C223.696 173.989 223.63 173.987 223.565 173.982C221.909 173.876 220.654 172.448 220.76 170.792C222.284 147.066 219.044 127.429 211.13 112.428C200.015 91.3592 179.511 79.469 150.188 77.0876C148.535 76.9531 147.304 75.5038 147.438 73.8504C147.573 72.1974 149.002 70.9649 150.675 71.0996C204.372 75.4608 230.68 110.067 226.755 171.177C226.653 172.767 225.332 173.989 223.76 173.989Z" fill="black"/>
<path d="M192.022 221.687C190.457 221.687 189.138 220.475 189.028 218.89C188.915 217.235 190.164 215.801 191.819 215.687C205.754 214.726 217.454 209.496 217.85 205.808C217.995 204.448 218.153 203.024 218.317 201.541C218.695 198.137 219.122 194.279 219.511 190.251C219.67 188.6 221.142 187.395 222.79 187.55C224.441 187.71 225.651 189.178 225.491 190.829C225.098 194.898 224.668 198.779 224.289 202.203C224.125 203.679 223.968 205.096 223.822 206.45C222.794 216.029 203.9 220.875 192.232 221.68C192.161 221.685 192.092 221.687 192.022 221.687H192.022Z" fill="black"/>
<path d="M134.045 138.325C132.969 138.325 132.089 138.06 131.434 137.756C130.766 137.445 129.065 136.655 119.867 123.696C112.716 130.707 107.839 134.331 105.352 134.478C104.576 134.528 103.101 134.339 101.83 132.597C99.0584 128.794 96.1065 114.103 99.2325 106.046C99.8319 104.499 101.571 103.73 103.119 104.332C104.666 104.931 105.434 106.672 104.833 108.219C102.71 113.693 104.553 123.935 106.04 127.779C108.718 125.937 113.947 121.187 118.13 116.941C118.756 116.305 119.636 115.98 120.522 116.057C121.412 116.132 122.221 116.598 122.733 117.33C127.071 123.543 132.48 130.81 134.081 132.318C134.21 132.311 134.446 132.264 134.805 132.102C141.358 129.136 153.699 106.792 157.787 92.897C158.254 91.3059 159.922 90.3955 161.516 90.8627C163.107 91.3308 164.018 93.0004 163.55 94.592C159.831 107.238 147.032 133.162 137.28 137.575C136.066 138.125 134.982 138.325 134.045 138.325V138.325Z" fill="black"/>
<path d="M165.995 200.957C156.672 232.256 120.268 260.224 105.174 264.22C90.0798 268.215 72.3219 270.879 63.3833 263.241L66.053 260.422C66.053 260.422 52.7121 265.191 46.7164 264.547C40.7208 263.902 16.75 256.556 20.7455 245.235C24.7411 233.914 41.2569 225.234 51.3779 225.257C60.5308 225.279 84.6468 237.679 89.3354 237.91C115.972 235.246 139.297 214.207 143.353 184.309L165.995 200.957L165.995 200.957Z" fill="white"/>
<path d="M91.0926 240.002C89.5008 240.002 88.0038 239.835 86.6192 239.495C83.0718 238.622 79.0022 236.924 74.694 235.126C61.222 229.506 45.9518 223.135 33.4888 233.91C32.2333 234.994 30.3374 234.857 29.252 233.602C28.1667 232.347 28.3046 230.45 29.5601 229.365C44.8361 216.159 63.4289 223.917 77.0075 229.582C81.0957 231.288 84.957 232.899 88.0546 233.661C93.9683 235.115 103.934 231.769 113.462 225.139C128.567 214.629 138.625 199.238 140.369 183.968C140.558 182.319 142.05 181.139 143.694 181.325C145.342 181.513 146.526 183.002 146.337 184.65C144.401 201.609 133.394 218.588 116.894 230.07C107.682 236.48 98.4026 240.002 91.0926 240.002L91.0926 240.002Z" fill="black"/>
<path d="M46.9954 268.518C43.3923 268.518 39.8781 268.198 36.6005 267.549C27.0181 265.652 20.5803 261.197 18.4751 255.005C17.9403 253.435 18.7812 251.728 20.3515 251.194C21.9209 250.659 23.6281 251.5 24.162 253.071C27.0631 261.601 45.7243 265.141 62.5629 260.352C64.1576 259.902 65.8199 260.823 66.2736 262.42C66.7273 264.015 65.8013 265.677 64.2056 266.131C58.6439 267.712 52.7087 268.518 46.9954 268.518H46.9954Z" fill="black"/>
<path d="M95.4546 269.445C94.0153 269.445 92.7442 268.408 92.4968 266.941C92.2201 265.305 93.3231 263.756 94.9589 263.479C128.814 257.763 156.295 222.998 163.116 200.1C163.59 198.511 165.258 197.603 166.852 198.079C168.442 198.552 169.347 200.225 168.873 201.815C161.881 225.288 133.871 263.001 95.9582 269.403C95.789 269.432 95.6209 269.445 95.4546 269.445Z" fill="black"/>
<path d="M82.7544 270.261C82.7124 270.261 82.6713 270.26 82.6283 270.258C75.7906 269.976 68.9587 268.561 62.3215 266.052C60.7697 265.465 59.9875 263.732 60.5732 262.18C61.1608 260.628 62.8993 259.844 64.4452 260.432C70.4811 262.713 76.6813 264 82.8766 264.255C84.534 264.324 85.8218 265.723 85.7533 267.381C85.6868 268.996 84.356 270.261 82.7544 270.261V270.261Z" fill="black"/>
<path d="M148.682 137.251C143.354 153.677 126.706 182.978 120.047 190.303C113.388 197.628 158.27 234.815 169.325 224.265C173.959 219.842 183.31 193.632 185.529 175.874" fill="white"/>
<path d="M163.904 229.148C152.192 229.15 134.831 216.182 126.569 208.117C120.097 201.8 113.326 193.23 117.824 188.282C124.036 181.448 140.532 152.637 145.823 136.325C146.334 134.746 148.029 133.881 149.607 134.394C151.185 134.905 152.049 136.6 151.537 138.177C145.967 155.351 129.124 184.673 122.37 192.21C121.998 195.578 134.789 209.934 150.472 218.538C158.501 222.943 164.928 224.304 167.25 222.092C171.012 218.501 180.341 193.154 182.548 175.502C182.753 173.856 184.247 172.69 185.9 172.894C187.547 173.099 188.715 174.601 188.508 176.247C186.308 193.853 177.033 221.06 171.398 226.438C169.407 228.337 166.831 229.148 163.904 229.148Z" fill="black"/>
</svg>
