<svg width="363" height="282" viewBox="0 0 363 282" fill="none" xmlns="http://www.w3.org/2000/svg">
<path d="M160.285 42.1729C175.62 30.6225 210.94 27.4229 234.36 42.4734C210.833 59.3094 175.022 59.5091 160.285 42.1729Z" fill="white"/>
<path d="M122.369 131.498C104.246 132.252 71.1287 88.5947 71.8891 77.6043C72.6495 66.6139 114.93 56.6621 132.981 42.5513C138.961 37.8769 157.018 31.5346 167.489 41.0538L122.369 131.498Z" fill="white"/>
<path d="M100.917 125.522C87.7429 142.664 61.8351 124.439 57.8121 119.425C41.0498 98.5336 29.238 82.2728 21.6631 61.403C1.98863 45.3641 -0.18909 25.7678 2.44928 21.2798C9.59905 9.11743 30.9801 -3.89197 43.8814 9.23925C48.2073 13.6422 47.4664 19.6365 49.4913 23.8773C70.3051 16.8598 56.3713 44.5162 56.2158 47.6812C55.7959 56.2319 58.6118 70.8206 71.5454 88.9593C72.9544 90.9354 100.917 125.522 100.917 125.522V125.522Z" fill="white"/>
<path d="M67.9913 84.4261C66.9907 84.4261 66.0127 83.9268 65.4425 83.0167C59.2789 73.1825 54.773 61.1971 52.4101 48.3564C52.3015 47.7671 52.3719 47.1593 52.6116 46.6101C53.0859 45.524 53.5573 44.4917 54.0121 43.4965C56.6528 37.7202 58.3977 33.9039 56.9267 27.9603C56.5276 26.3495 57.5106 24.7206 59.1214 24.322C60.7401 23.922 62.3617 24.9069 62.7597 26.5167C64.7334 34.4956 62.2981 39.8245 59.4774 45.9949C59.1556 46.6996 58.8241 47.4234 58.4896 48.173C60.7586 59.9305 64.9143 70.8582 70.5342 79.8254C71.4154 81.2313 70.9899 83.0857 69.5835 83.9669C69.0876 84.2779 68.536 84.4261 67.9913 84.4261L67.9913 84.4261Z" fill="black"/>
<path d="M82.406 135.55C81.9777 135.55 81.5493 135.542 81.117 135.527C71.2749 135.184 62.0628 131.146 55.8424 124.447C46.4904 114.376 31.1752 87.9645 21.6032 65.4245C20.587 64.2015 16.9653 60.7769 14.2757 58.2335C10.3889 54.5575 7.95947 52.2445 7.04305 51.0527C1.31662 43.6084 -1.03557 34.7444 0.420735 26.0936C1.90148 17.2922 7.18682 9.32802 14.9212 4.2427C23.0379 -1.09349 32.5719 -1.41478 40.4265 3.38495C48.3467 8.22528 52.8115 17.3856 51.7992 26.7215C51.6212 28.3715 50.1356 29.571 48.4885 29.3847C46.8386 29.2062 45.6463 27.7235 45.8253 26.074C46.599 18.9309 43.3303 12.2015 37.2929 8.51234C31.3885 4.90288 24.4375 5.17721 18.223 9.26396C11.8804 13.4343 7.55164 19.932 6.34668 27.0907C5.15445 34.1766 7.04208 41.1955 11.8061 47.389C12.48 48.2648 15.7652 51.3711 18.404 53.8675C22.902 58.1205 25.7031 60.8009 26.6674 62.1564C26.7946 62.3349 26.9012 62.5266 26.9873 62.7286C37.4435 87.4628 52.3929 111.901 60.2456 120.358C65.3108 125.813 73.1909 129.238 81.3263 129.522C88.3467 129.766 94.7597 127.654 98.9515 123.727C100.161 122.593 102.064 122.655 103.198 123.866C104.333 125.077 104.27 126.978 103.059 128.113C97.9784 132.873 90.5071 135.55 82.406 135.55Z" fill="black"/>
<path d="M117.461 133.74C113.01 133.74 107.636 131.165 101.436 126.052C85.7417 113.108 67.244 85.7277 67.8885 76.3952C68.4646 68.0829 81.2584 63.5022 97.4547 57.7034C107.952 53.9453 118.805 50.059 126.306 45.0588C145.151 32.4959 156.147 34.5072 156.604 34.5972C158.231 34.9229 159.286 36.5058 158.961 38.1328C158.635 39.7603 157.05 40.8131 155.426 40.4899C155.374 40.4801 146.126 39.0663 129.639 50.0585C121.525 55.4676 110.319 59.48 99.4802 63.3604C88.2122 67.3953 74.1881 72.4161 73.8839 76.8099C73.4555 83.0068 89.4162 108.35 105.259 121.416C110.927 126.089 115.785 128.341 118.589 127.593C120.198 127.167 121.839 128.119 122.267 129.722C122.694 131.326 121.741 132.972 120.138 133.4C119.287 133.627 118.394 133.74 117.461 133.74L117.461 133.74Z" fill="black"/>
<path d="M181.124 260.079C158.206 256.438 124.934 263.183 117.313 269.421C113.651 272.419 105.413 270.853 103.941 261.521C101.618 246.797 113.348 237.07 117.309 214.46C125.735 166.366 130.426 136.947 131.585 106.155C132.011 94.8255 138.625 62.8996 153.011 44.5541C159.945 35.7113 174.569 46.5413 194.236 46.3106C210.923 46.1148 227.514 29.7446 232.424 34.064C232.424 34.064 267.724 79.6675 270.482 103.168C271.483 161.256 276.55 188.566 290.814 230.521C293.563 238.608 305.678 256.735 290.223 267.401C285.023 270.99 267.202 278.986 245.606 272.174C231.528 267.733 221.757 266.534 181.124 260.079Z" fill="white"/>
<path d="M260.105 276.566C243.541 276.566 225.904 272.601 203.753 267.105C173.006 259.475 149.252 262.566 137.828 265.089C136.207 265.445 134.604 264.422 134.247 262.803C133.889 261.182 134.913 259.579 136.534 259.221C148.47 256.586 173.263 253.348 205.201 261.272C235.846 268.876 257.564 273.482 279.388 268.413C286.96 266.655 291.806 263.613 293.794 259.372C295.958 254.755 294.976 248.281 290.876 240.131C274.342 207.266 269.308 140.255 267.413 115.028C267.082 110.624 266.797 106.821 266.642 106.037C266.324 104.409 267.385 102.83 269.013 102.51C270.643 102.195 272.221 103.253 272.54 104.88C272.753 105.968 272.96 108.64 273.406 114.578C275.277 139.48 280.245 205.628 296.244 237.43C301.214 247.311 302.221 255.551 299.236 261.922C296.426 267.917 290.206 272.07 280.748 274.267C273.887 275.86 267.09 276.566 260.105 276.566Z" fill="black"/>
<path d="M114.615 273.106C109.345 273.106 106.268 270.999 104.568 269.11C102.534 266.847 100.427 262.603 101.943 255.234C102.671 251.699 104.167 247.223 106.062 241.557C109.764 230.486 114.833 215.325 118.359 194.913C124.817 157.514 128.687 113.172 128.58 106.201C128.555 104.542 129.88 103.177 131.539 103.151C133.231 103.09 134.564 104.45 134.589 106.109C134.712 114.091 130.735 158.555 124.28 195.936C120.677 216.798 115.523 232.209 111.761 243.462C109.93 248.938 108.484 253.263 107.829 256.445C107.029 260.334 107.447 263.323 109.037 265.091C110.827 267.082 113.882 267.239 116.131 267.02C117.76 266.859 119.25 268.067 119.412 269.719C119.573 271.371 118.364 272.84 116.712 273.001C115.977 273.072 115.279 273.106 114.615 273.106H114.615Z" fill="black"/>
<path d="M188.971 50.9479C181.156 50.9479 173.398 49.3787 166.445 46.1472C164.941 45.4474 164.287 43.6605 164.987 42.1558C165.687 40.6516 167.473 39.9988 168.978 40.6976C182.681 47.0671 204.769 46.9072 220.475 34.2777C221.768 33.2376 223.659 33.4429 224.699 34.7364C225.739 36.0294 225.533 37.9209 224.24 38.9606C214.468 46.8196 201.645 50.9479 188.971 50.9479Z" fill="black"/>
<path d="M325.654 69.5352C346.909 65.5824 358.53 96.8973 358.174 103.316C356.688 130.059 354.613 150.05 346.306 170.639C350.229 195.718 338.757 211.754 333.795 213.33C320.349 217.603 295.749 212.998 294.923 194.608C294.646 188.442 299.202 184.477 300.528 179.968C280.353 171.284 309.198 160.015 311.429 157.764C317.454 151.682 325.106 138.946 327.601 116.809C327.873 114.397 325.654 69.5352 325.654 69.5352V69.5352Z" fill="white"/>
<path d="M295.067 173.556C294.591 173.556 294.107 173.443 293.659 173.204C292.193 172.424 291.638 170.604 292.417 169.139C296.28 161.884 301.652 159.546 307.873 156.839C308.582 156.531 309.31 156.215 310.057 155.882C315.622 146.479 324.706 125.682 325.679 103.325C325.751 101.668 327.187 100.384 328.81 100.454C330.468 100.526 331.754 101.929 331.682 103.587C330.628 127.813 320.517 150.323 314.71 159.804C314.397 160.315 313.938 160.721 313.392 160.969C312.315 161.461 311.274 161.914 310.272 162.35C304.446 164.884 300.599 166.558 297.722 171.963C297.181 172.978 296.142 173.556 295.067 173.556Z" fill="black"/>
<path d="M318.23 218.057C316.536 218.057 314.832 217.931 313.131 217.674C303.526 216.221 296.217 210.09 293.58 201.271C290.921 192.378 293.719 182.58 300.71 176.309C301.944 175.202 303.844 175.305 304.952 176.54C306.061 177.775 305.957 179.675 304.722 180.783C299.374 185.58 297.31 192.771 299.338 199.55C301.32 206.18 306.675 210.62 314.029 211.732C321.532 212.866 329.095 210.924 334.775 206.403C340.397 201.928 343.682 195.443 344.276 187.651C344.359 186.55 343.99 182.044 343.694 178.423C343.189 172.254 342.896 168.389 343.083 166.736C343.108 166.518 343.156 166.303 343.227 166.096C351.972 140.707 357.177 112.536 356.984 100.995C356.86 93.5524 353.284 85.7378 347.421 80.0916C342.368 75.2278 336.169 72.4971 330.436 72.6291C328.76 72.6766 327.404 71.3479 327.369 69.6886C327.334 68.0294 328.65 66.6562 330.309 66.621C337.671 66.4587 345.394 69.7987 351.588 75.7633C358.683 82.5944 362.84 91.7542 362.993 100.895C363.222 114.637 356.972 144.521 349.035 167.686C348.974 169.276 349.381 174.244 349.683 177.933C350.119 183.265 350.381 186.608 350.267 188.107C349.554 197.473 345.381 205.64 338.518 211.104C332.834 215.629 325.644 218.057 318.23 218.057Z" fill="black"/>
<path d="M347.708 63.3955C347.924 61.4227 328.68 56.3849 321.669 53.3804C314.658 50.3758 292.294 36.3263 275.987 29.0573C274.354 28.3293 267.118 25.0417 265.799 24.5258C244.327 16.1287 228.365 28.195 228.161 34.2836C227.957 40.3721 247.098 77.8904 263.581 90.4364C276.691 100.414 283.494 142.908 293.627 135.505C327.678 113.471 344.795 90.082 347.708 63.3955Z" fill="white"/>
<path d="M293.67 138.318C290.55 138.318 287.531 136.688 284.458 133.347C277.413 125.687 272.501 113.705 268.167 103.132C266.85 99.9176 265.605 96.8812 264.372 94.1388C263.692 92.6253 264.367 90.8472 265.881 90.167C267.397 89.4863 269.173 90.1621 269.853 91.6761C271.127 94.5095 272.39 97.5908 273.727 100.853C277.869 110.958 282.565 122.412 288.881 129.278C290.714 131.272 292.319 132.29 293.655 132.308C296.7 131.252 311.855 119.616 321.243 106.697C323.786 103.198 326.238 100.149 328.611 97.1996C335.382 88.7806 341.23 81.5098 344.815 68.6007C345.304 66.6617 340.11 61.6923 323.726 56.2309C319.738 54.9017 313.17 51.6517 302.288 46.2666C296.098 43.2039 288.395 39.392 279.086 34.9076C247.421 19.6546 231.407 30.6776 224.679 38.6056C223.609 39.8707 221.712 40.0267 220.445 38.9528C219.18 37.8789 219.024 35.983 220.098 34.7179C233.454 18.9758 255.905 17.0711 281.693 29.4942C291.032 33.9922 298.75 37.8119 304.953 40.881C315.237 45.9698 322.032 49.3318 325.625 50.5299C344.214 56.7258 352.39 63.1403 350.624 70.1401C346.688 84.311 340.481 92.0292 333.293 100.966C330.966 103.859 328.56 106.85 326.104 110.23C316.659 123.227 298.985 138.058 294.132 138.306C293.978 138.314 293.824 138.318 293.67 138.318Z" fill="black"/>
</svg>
