<svg width="354" height="263" viewBox="0 0 354 263" fill="none" xmlns="http://www.w3.org/2000/svg">
<path d="M65.7384 134.897C71.0767 138.046 82.0274 139.437 88.0886 138.143C104.1 119.187 113.237 102.827 102.094 94.1259C93.0905 93.1256 64.0795 63.1141 48.0734 91.1248C43.1838 108.582 41.0418 125.308 65.7384 134.897Z" fill="white"/>
<path d="M102.098 97.1273C101.986 97.1273 101.875 97.121 101.763 97.1083C98.832 96.783 95.0971 94.5639 90.3698 91.7552C82.2456 86.9286 71.1261 80.3172 62.0025 82.721C57.5106 83.9055 53.806 87.1411 50.6789 92.6134C49.8553 94.0529 48.0255 94.5536 46.5845 93.7301C45.1455 92.908 44.6453 91.0747 45.4679 89.6357C49.3795 82.7899 54.4283 78.5109 60.4726 76.917C72.0268 73.8709 84.3987 81.2258 93.4354 86.595C97.0481 88.7413 100.783 90.9604 102.425 91.1431C104.072 91.3258 105.26 92.8098 105.077 94.4569C104.907 95.9917 103.606 97.1269 102.098 97.1273V97.1273Z" fill="black"/>
<path d="M82.7517 141.614C76.4954 141.614 68.849 140.217 64.2134 137.482C62.7861 136.64 62.3113 134.8 63.1534 133.372C63.9965 131.945 65.8371 131.471 67.2634 132.312C71.7065 134.934 81.9018 136.395 87.4605 135.208C89.0901 134.857 90.6766 135.895 91.0224 137.516C91.3693 139.137 90.3357 140.731 88.7149 141.077C87.0375 141.436 84.983 141.614 82.7517 141.614Z" fill="black"/>
<path d="M135.106 172.155C135.106 172.155 101.093 161.701 94.0905 160.656C87.0878 159.61 73.7291 154.507 80.0852 142.883C88.0882 128.247 103.094 106.031 98.092 85.1223C98.092 85.1223 113.098 88.8985 126.103 94.1257C130.104 90.9893 142.109 61.1131 142.109 61.1131C162.833 86.5237 159.486 128.576 135.106 172.155V172.155Z" fill="#2D8C3C"/>
<path d="M130.101 88.1235C129.49 88.1235 128.872 87.937 128.339 87.5496C126.999 86.5746 126.703 84.6979 127.677 83.3571C135.153 73.0783 138.115 54.8252 138.144 54.6421C138.404 53.0047 139.94 51.8866 141.577 52.1474C143.214 52.4063 144.331 53.9421 144.072 55.5789C143.945 56.3844 140.863 75.4312 132.531 86.8877C131.944 87.6952 131.029 88.1236 130.101 88.1236V88.1235Z" fill="black"/>
<path d="M123.1 174.112C122.722 174.112 122.337 174.039 121.965 173.887C115.649 171.304 98.2349 164.423 93.5749 163.612C92.2365 163.379 80.3912 161.108 76.6036 153.248C75.4059 150.761 74.5794 146.694 77.4516 141.442C78.581 139.376 79.8334 137.206 81.1601 134.909C89.1973 120.985 99.2001 103.657 95.1722 86.8201C94.7873 85.2082 95.7809 83.5889 97.3928 83.2035C99.0008 82.8181 100.624 83.8112 101.01 85.4241C105.594 104.587 94.4757 123.847 86.3583 137.91C85.0502 140.176 83.8144 142.316 82.7173 144.323C81.376 146.777 81.1444 148.844 82.012 150.643C83.8877 154.537 90.5709 156.996 94.6046 157.698C100.75 158.769 121.851 167.356 124.237 168.332C125.771 168.959 126.506 170.711 125.878 172.245C125.403 173.408 124.282 174.112 123.1 174.112Z" fill="black"/>
<path d="M61.0087 130.886L60.6397 81.8183H3.00114L3.04791 130.496C3.05338 136.193 6.61452 141.262 11.9579 143.238C22.0634 148.147 40.0703 148.147 51.5745 143.922C57.2438 142.141 61.0534 136.828 61.0087 130.886Z" fill="white"/>
<path d="M32.1705 150.002C24.1557 150.002 16.3217 148.654 10.7766 145.999C4.36006 143.56 0.0537327 137.35 0.0469001 130.498L2.27057e-06 81.8202C-0.000978103 81.0235 0.315552 80.2596 0.878267 79.6963C1.44098 79.1327 2.20494 78.8161 3.00114 78.8161H60.6393C62.2884 78.8161 63.6277 80.1462 63.6404 81.7948L64.0097 130.862C64.0654 138.177 59.4601 144.557 52.5434 146.761C46.6037 148.932 39.3148 150.002 32.1705 150.002V150.002ZM6.00522 84.8184L6.04919 130.492C6.05407 134.896 8.84615 138.887 12.9981 140.422C13.0909 140.456 13.1808 140.494 13.2687 140.537C22.3269 144.938 39.3949 145.197 50.5398 141.104C50.5847 141.087 50.6296 141.071 50.6756 141.057C55.0962 139.669 58.0426 135.59 58.0074 130.907L57.6606 84.8184H6.00522V84.8184Z" fill="black"/>
<path d="M31.8204 90.518C47.7369 90.518 60.6397 86.6228 60.6397 81.8178C60.6397 77.0129 47.7369 73.1177 31.8204 73.1177C15.904 73.1177 3.00114 77.0129 3.00114 81.8178C3.00114 86.6228 15.904 90.518 31.8204 90.518Z" fill="white"/>
<path d="M9.81819 87.1115C13.2657 90.3449 21.8134 92.6354 31.8199 92.6354C41.8264 92.6354 50.374 90.3449 53.8216 87.1115C50.374 83.878 41.8263 81.5877 31.8199 81.5877C21.8134 81.5877 13.2657 83.878 9.81819 87.1115Z" fill="black"/>
<path d="M31.8207 93.519C23.8372 93.519 16.2923 92.5684 10.5753 90.8427C3.55799 88.7247 0 85.6879 0 81.8178C0 77.9476 3.55799 74.9108 10.5753 72.7928C16.2923 71.0671 23.8372 70.1165 31.8207 70.1165C39.8042 70.1165 47.3491 71.0671 53.0661 72.7928C60.0824 74.9108 63.6404 77.9476 63.6404 81.8178C63.6404 85.6879 60.0824 88.7247 53.0661 90.8427C47.3491 92.5684 39.8042 93.519 31.8207 93.519H31.8207ZM6.01987 81.8178C6.74183 83.502 15.1825 87.5167 31.8207 87.5167C48.4589 87.5167 56.8986 83.502 57.6206 81.8178C56.8986 80.1335 48.4589 76.1188 31.8207 76.1188C15.1825 76.1188 6.74183 80.1335 6.01987 81.8178Z" fill="black"/>
<path d="M62.9751 135.625L60.4781 126.975C61.7208 126.497 67.3909 122.689 72.257 117.115C75.2884 113.643 80.0832 106.994 78.142 101.472C75.8912 95.0696 62.8628 97.743 62.7319 97.7728L60.7213 88.997C68.4821 87.2189 82.674 87.2165 86.6355 98.4864C88.3969 103.495 87.7775 108.969 84.795 114.757C79.3085 125.405 66.9474 134.478 62.9751 135.625V135.625Z" fill="black"/>
<path d="M84.7426 93.245C77.5713 92.8746 70.6779 98.9365 70.1286 106.096C69.5794 113.256 79.499 114.66 86.643 115.387C98.086 115.042 97.2307 94.212 84.7426 93.245H84.7426Z" fill="white"/>
<path d="M86.6472 118.389C86.5456 118.389 86.443 118.384 86.3395 118.373C80.3528 117.763 66.3328 116.335 67.1368 105.866C67.809 97.0929 76.065 89.7918 84.8985 90.248C86.5534 90.3335 87.8254 91.7447 87.7404 93.4001C87.6544 95.056 86.2144 96.3109 84.5878 96.2425C79.0193 95.9552 73.5475 100.76 73.1215 106.326C72.8724 109.572 77.0068 111.389 86.9471 112.402C88.5962 112.57 89.7968 114.043 89.6288 115.692C89.4715 117.237 88.1673 118.389 86.6472 118.389L86.6472 118.389Z" fill="black"/>
<path d="M153.004 55.1943C147.46 56.7794 143.809 76.5206 146.815 88.8316C149.82 101.143 139.839 130.978 136.17 142.058C126.746 170.518 117.54 207.927 114.879 219.903C112.218 231.879 135.663 245.742 150.807 246.516C153.864 246.672 150.503 235.95 150.807 224.56C148.11 163.152 160.115 100.128 163.116 84.1214C166.117 68.1153 153.3 55.1095 153.004 55.1943V55.1943Z" fill="#2D8C3C"/>
<path d="M218.714 22.5135C216.932 21.3913 250.971 29.0642 244.053 30.6132C241.631 31.1555 235.23 0.433994 203.468 0.00779184C160.716 -0.565887 176.806 30.6147 165.972 68.3139C158.465 94.4342 159.504 100.207 157.969 114.331C157.084 122.472 155.201 136.388 152.967 166.351C151.331 188.279 143.17 232.465 150.966 239.379C157.811 245.45 152.277 240.141 157.699 241.28C178.095 245.564 189.295 245.631 199.445 246.046C220.707 246.916 241.094 240.631 241.297 240.606L241.298 240.606C241.972 240.459 242.501 240.181 242.903 239.793C243.303 239.405 244.199 237.748 243.778 234.95C241.14 217.415 234.864 209.075 234.864 209.075C225.61 196.422 222.385 169.686 215.935 116.213C211.503 79.4667 209.287 61.0936 213.74 47.6873C216.126 40.5049 222.423 24.8496 218.714 22.5135H218.714Z" fill="white"/>
<path d="M146.111 96.1263C144.857 70.8707 136.492 43.9194 140.041 39.9274C143.589 35.9354 161.644 26.9183 161.644 26.9183C161.644 26.9183 158.67 19.0802 161.331 13.7576C163.993 8.43488 192.449 -4.89312 187.126 3.0909C183.373 8.72079 169.12 44.1065 163.117 81.1206C158.272 92.1623 147.364 121.382 146.111 96.1263Z" fill="#2D8C3C"/>
<path d="M191.617 248.852C191.589 248.852 191.562 248.851 191.533 248.851C173.41 248.354 159.281 245.798 149.539 241.252C148.037 240.551 147.388 238.765 148.088 237.263C148.789 235.761 150.576 235.111 152.077 235.812C160.944 239.95 174.644 242.384 191.698 242.851C193.354 242.896 194.661 244.276 194.616 245.933C194.571 247.562 193.236 248.852 191.617 248.852H191.617Z" fill="black"/>
<path d="M148.231 251.01C142.374 251.01 133.167 246.883 127.659 243.593C121.738 240.056 111.902 232.767 112.552 223.681C113.701 207.595 120.029 187.4 126.73 166.02C132.011 149.17 137.471 131.747 141.219 114.154C141.565 112.533 143.157 111.499 144.78 111.845C146.402 112.19 147.435 113.784 147.091 115.406C143.282 133.273 137.779 150.833 132.457 167.814C125.865 188.851 119.638 208.722 118.539 224.109C118.318 227.201 120.692 230.934 125.223 234.621C133.008 240.954 143.648 244.694 147.662 245.029C144.186 201.96 156.663 52.8402 180.155 12.7957C180.993 11.3664 182.836 10.8872 184.262 11.7259C185.692 12.5646 186.171 14.4032 185.333 15.833C162.518 54.7208 149.965 207.284 153.794 246.223C153.952 247.828 153.237 249.3 151.882 250.159C150.948 250.752 149.693 251.009 148.231 251.01V251.01Z" fill="black"/>
<path d="M146.697 101.478C146.594 101.478 146.489 101.473 146.385 101.462C144.735 101.291 143.538 99.816 143.708 98.1674C144.908 86.58 141.919 72.685 139.517 61.5201C137.005 49.8424 135.19 41.4051 137.939 37.0059C139.899 33.871 144.89 32.1696 150.668 30.1991C153.603 29.1988 158.479 27.537 159.409 26.4311C159.644 25.4918 159.177 23.6195 158.764 21.9597C157.842 18.259 156.579 13.1907 160.725 9.68987C163.928 6.98669 173.011 2.21046 174.036 1.67461C175.507 0.906244 177.318 1.47629 178.086 2.94413C178.853 4.41295 178.285 6.22614 176.816 6.99401C174.193 8.36514 166.884 12.3466 164.597 14.2766C163.486 15.2144 163.684 16.8821 164.588 20.5084C165.249 23.1628 165.934 25.9075 165.059 28.4753C163.841 32.0504 158.883 33.7405 152.606 35.8805C149.333 36.9962 143.856 38.8631 143.029 40.1873C141.569 42.5222 143.596 51.9447 145.385 60.2579C147.876 71.838 150.977 86.2498 149.679 98.7858C149.518 100.329 148.215 101.478 146.697 101.478H146.697Z" fill="black"/>
<path d="M200.884 32.7264C197.068 32.7264 193.102 32.2755 189.239 31.1721C187.646 30.7163 186.722 29.0556 187.178 27.4617C187.633 25.8678 189.301 24.9471 190.888 25.4004C199.773 27.9389 210.173 26.4491 216.538 23.8451C218.075 23.2184 219.825 23.953 220.452 25.4868C221.08 27.0211 220.345 28.7732 218.811 29.4009C214.415 31.1989 207.905 32.7264 200.884 32.7264Z" fill="black"/>
<path d="M229.317 5.66524C253.269 16.3106 266.757 51.1055 266.75 55.0864C266.739 61.0499 261.366 61.6254 257.146 66.9542C252.641 72.642 252.334 79.1439 257.676 108.473C261.157 127.58 286.325 134.661 291.3 150.876C303.451 190.485 308.306 244.911 301.303 250.914C272.292 265.919 207.36 260.267 207.139 251.396C206.823 238.756 206.03 177.765 208.469 149.821C209.462 138.449 208.359 118.789 208.691 94.1548C208.914 77.6237 210.532 55.3551 217.34 28.952C220.343 17.307 223.994 7.66124 229.317 5.66524Z" fill="#2D8C3C"/>
<path d="M251.867 262.19C243.877 262.19 235.069 261.782 227.097 261.009C205.13 258.876 204.414 255.562 203.985 253.582C203.969 253.51 203.957 253.437 203.947 253.364C198.254 212.648 207.425 54.8436 217.767 15.5459C218.19 13.9433 219.832 12.9854 221.433 13.4074C223.036 13.8294 223.994 15.4707 223.572 17.0738C213.401 55.7204 204.377 210.148 209.781 251.716C214.41 254.405 242.142 257.073 262.118 255.92C278.565 254.971 300.176 248.123 300.393 248.054C301.972 247.551 303.66 248.422 304.164 250C304.668 251.58 303.797 253.268 302.219 253.772C301.306 254.063 279.678 260.919 262.463 261.913C259.231 262.099 255.639 262.19 251.867 262.19H251.867Z" fill="black"/>
<path d="M252.614 107.754C263.422 135.893 273.641 167.858 275.849 177.649C279.775 195.058 281.848 201.359 277.639 216.726L275.408 230.748C274.428 237.44 280.622 243.287 287.525 240.872C294.427 238.457 293.725 233.31 298.084 230.28C302.22 227.404 311.804 231.619 317.335 239.262C322.866 246.905 333.985 247.613 338.769 247.308C345.569 246.874 351.713 242.047 350.929 234.867C350.145 227.686 341.304 224.616 337.828 223.194C333.931 221.6 321.438 215.724 314.52 206.779C307.918 198.243 295.807 151.654 289.694 128.112C273.153 68.8036 266.327 59.3447 262.43 50.5778L252.614 107.754V107.754Z" fill="white"/>
<path d="M336.984 250.36C332.065 250.36 320.947 249.372 314.905 241.021C309.771 233.927 301.818 231.339 299.797 232.744C298.562 233.602 297.878 234.759 297.011 236.225C295.512 238.757 293.647 241.909 288.516 243.704C284.43 245.134 280.048 244.387 276.793 241.704C273.48 238.97 271.811 234.605 272.438 230.314C272.679 228.674 274.206 227.542 275.843 227.779C277.482 228.018 278.617 229.543 278.378 231.182C278.047 233.443 278.883 235.646 280.613 237.073C281.577 237.87 283.631 239.054 286.533 238.039C289.598 236.967 290.54 235.374 291.845 233.169C292.884 231.412 294.063 229.42 296.37 227.815C301.516 224.238 312.616 227.62 319.768 237.502C325.153 244.944 337.222 244.401 338.579 244.312C341.694 244.113 344.579 242.776 346.296 240.734C347.62 239.159 348.176 237.294 347.946 235.192C347.408 230.26 340.922 227.666 337.439 226.272L336.692 225.972C333.975 224.861 320.026 218.802 312.147 208.615C305.997 200.663 296.324 165.586 286.789 128.866C272.821 78.783 265.866 64.5583 261.711 56.0595C260.951 54.5057 260.296 53.1634 259.688 51.7966C259.015 50.2819 259.697 48.5083 261.211 47.8352C262.73 47.162 264.5 47.8439 265.173 49.3582C265.736 50.6253 266.371 51.9222 267.104 53.4232C271.349 62.1072 278.455 76.6406 292.585 127.305C298 148.157 310.649 196.867 316.895 204.943C323.983 214.108 337.452 219.798 338.965 220.416L339.668 220.699C343.99 222.428 352.984 226.025 353.914 234.541C354.322 238.282 353.277 241.76 350.89 244.598C348.098 247.917 343.751 249.997 338.962 250.302C338.542 250.329 337.862 250.361 336.984 250.361L336.984 250.36Z" fill="black"/>
<path d="M275.641 214.726C275.378 214.726 275.111 214.691 274.846 214.619C273.247 214.18 272.307 212.529 272.744 210.931C276.435 197.458 275.073 191.497 271.782 177.096C271.508 175.891 271.219 174.631 270.92 173.307C268.848 164.115 258.816 132.478 247.812 103.828C247.218 102.281 247.991 100.545 249.538 99.9509C251.087 99.355 252.822 100.129 253.416 101.676C264.515 130.574 274.665 162.621 276.776 171.987C277.073 173.305 277.36 174.559 277.634 175.759C281.059 190.749 282.623 197.59 278.534 212.517C278.168 213.85 276.96 214.726 275.641 214.726Z" fill="black"/>
<path d="M266.455 46.5806C271.623 54.8373 294.197 99.1812 302.098 118.107C309.999 137.032 324.054 172.664 334.699 191.293C344.453 208.362 286.13 221.899 266.413 218.567C259.249 217.356 253.938 207.017 254.045 199.786C254.152 192.554 249.64 153.447 249.796 145.993C249.952 138.539 249.789 120.661 249.789 120.661C249.418 110.112 243.556 98.3561 240.535 92.0725C237.514 85.7888 247.392 61.4563 250.093 54.8011C252.795 48.146 244.878 20.2863 250.93 25.7334C255.366 29.7254 266.455 46.5806 266.455 46.5806Z" fill="#2D8C3C"/>
<path d="M221.657 109.906C221.492 109.906 221.325 109.892 221.157 109.864C219.522 109.59 218.42 108.042 218.693 106.407C221.553 89.3622 230.662 76.2288 237.313 66.6392C241.43 60.7019 244.986 55.5739 245.277 52.0975C244.967 50.8392 240.172 48.0896 237.597 46.612C232.177 43.5034 227.058 40.5673 226.972 36.0787C226.883 31.4857 230.89 27.722 234.427 24.4014C236.199 22.7367 238.405 20.6651 238.74 19.5485C239.137 18.2262 238.93 16.882 238.109 15.439C236.273 12.2112 231.737 9.36349 228.589 8.57657C226.981 8.17455 226.003 6.54503 226.405 4.937C226.807 3.32946 228.429 2.34911 230.044 2.75306C234.536 3.87605 240.541 7.57471 243.327 12.4716C244.955 15.3345 245.357 18.3781 244.488 21.2733C243.69 23.9354 241.186 26.2869 238.536 28.7766C236.173 30.9962 232.935 34.036 232.972 35.9635C233.301 37.2291 238.039 39.9459 240.583 41.4055C246.28 44.6733 251.661 47.7594 251.257 52.5962C250.834 57.6739 247.044 63.1398 242.245 70.0599C235.564 79.692 227.25 91.6795 224.613 107.401C224.367 108.867 223.096 109.906 221.657 109.906H221.657Z" fill="black"/>
<path d="M316.412 158.4C315.306 158.4 314.241 157.786 313.718 156.726C306.168 141.42 300.53 128.537 296.011 117.955C294.695 114.871 293.229 111.262 291.531 107.084C282.503 84.8606 268.86 51.276 250.871 30.351C249.791 29.0942 249.934 27.1994 251.191 26.119C252.448 25.0385 254.342 25.1811 255.424 26.4384C274.052 48.1078 287.918 82.2395 297.092 104.825C298.779 108.977 300.236 112.563 301.531 115.598C306.018 126.106 311.614 138.894 319.101 154.071C319.835 155.557 319.224 157.357 317.737 158.09C317.311 158.301 316.858 158.4 316.412 158.4V158.4Z" fill="black"/>
<path d="M272.73 223.006C270.14 223.006 268.074 222.82 266.732 222.451C258.692 220.24 253.829 214.478 251.426 204.319C249.537 196.322 246.135 168.539 246.787 120.62C246.809 118.977 248.149 117.66 249.787 117.66L249.829 117.661C251.486 117.683 252.812 119.045 252.789 120.702C252.122 169.791 255.796 196.709 257.268 202.938C259.162 210.948 262.469 215.053 268.324 216.664C274.919 218.475 317.436 212.949 328.636 198.76C331.601 195.002 331.847 191.187 329.407 186.752C326.687 181.807 324.05 176.894 321.566 172.153C320.797 170.685 321.364 168.871 322.833 168.102C324.301 167.333 326.113 167.9 326.883 169.368C329.348 174.074 331.967 178.949 334.667 183.86C338.26 190.393 337.804 196.832 333.346 202.478C322.378 216.374 288.194 223.006 272.73 223.006V223.006Z" fill="black"/>
</svg>
