<svg width="300" height="262" viewBox="0 0 300 262" fill="none" xmlns="http://www.w3.org/2000/svg">
<path d="M46.0371 88.0928C48.0371 85.0928 81.0371 55.0928 81.0371 55.0928L102.037 102.093L90.0371 145.093L46.0371 88.0928Z" fill="white"/>
<path d="M81.3703 156.761C70.0018 158.418 44.9743 152.763 38.0384 142.092C25.0384 122.092 32.0384 93.0921 39.0384 83.0921C46.0384 73.0921 55.1437 83.1963 64.1437 90.1963C73.1437 97.1963 76.9486 107.868 92.0384 115.092L81.3703 156.761Z" fill="white"/>
<path d="M69.4164 159.644C57.3598 159.644 43.432 153.952 36.6371 144.893C27.0629 132.127 28.9623 107.87 29.0482 106.844C29.185 105.192 30.6254 103.971 32.2855 104.104C33.9359 104.241 35.1635 105.69 35.0277 107.34C35.0082 107.569 33.2357 130.357 41.4379 141.293C48.4848 150.69 68.6459 157.436 79.601 151.459C81.057 150.667 82.8783 151.202 83.6713 152.656C84.4643 154.111 83.9281 155.933 82.474 156.727C78.8168 158.722 74.267 159.644 69.4164 159.644V159.644Z" fill="black"/>
<path d="M100.93 55.1759C95.3889 56.7605 91.7393 76.4941 94.7437 88.8005C97.7481 101.107 87.77 130.931 84.1024 142.007C74.6822 170.456 65.4801 207.85 62.8198 219.822C60.1594 231.793 76.0056 244.423 91.1438 245.196C94.2001 245.352 98.7342 224.477 98.7342 224.477C98.7342 224.477 128.032 232.041 129.69 230.431C137.037 223.302 124.838 215.347 119.041 188.68C115.529 172.524 111.116 145.882 108.806 120.102C107.476 105.264 101.227 55.0911 100.93 55.1759H100.93Z" fill="white"/>
<path d="M166.614 22.5073C164.832 21.3855 198.859 29.0555 191.944 30.604C189.523 31.146 183.124 0.436231 151.374 0.0101808C108.638 -0.563279 107.478 23.2881 127.911 21.3115C130.378 21.0728 124.384 24.6507 123.984 25.556C111.998 52.7065 124.722 30.6055 113.892 68.2903C106.388 94.4007 104.677 95.0773 103.143 109.197C102.258 117.335 98.3763 135.245 96.1426 165.197C94.5078 187.117 89.1426 235.197 89.1426 235.197C89.1426 235.197 100.202 240.052 105.623 241.19C126.011 245.473 137.206 245.54 147.353 245.955C168.607 246.824 188.986 240.542 189.188 240.517L189.189 240.517C189.863 240.369 190.392 240.092 190.794 239.704C191.194 239.316 192.09 237.66 191.669 234.863C189.032 217.335 182.758 208.998 182.758 208.998C173.508 196.35 170.284 169.624 163.836 116.171C159.406 79.4389 157.191 61.0728 161.642 47.6716C164.027 40.4919 170.322 24.8426 166.614 22.5073L166.614 22.5073Z" fill="white"/>
<path d="M96.0375 97.0922C94.0375 70.0922 84.4225 43.9052 87.9696 39.9147C91.5167 35.9242 109.565 26.9105 109.565 26.9105C109.565 26.9105 105.572 18.4282 109.252 13.7548C119.143 1.19642 139.229 -1.89195 133.908 6.08903C132.143 14.1964 120.037 39.0922 106.037 100.092C102.124 109.798 100.026 87.9463 96.0375 97.0922H96.0375Z" fill="white"/>
<path d="M139.527 248.76C139.499 248.76 139.471 248.76 139.443 248.759C123.673 248.327 102.778 244.003 91.8748 238.915C90.3728 238.214 89.7244 236.429 90.4246 234.928C91.1257 233.426 92.9119 232.777 94.4119 233.477C103.22 237.588 123.005 242.307 139.607 242.761C141.263 242.807 142.569 244.186 142.524 245.842C142.479 247.471 141.145 248.76 139.527 248.76H139.527Z" fill="black"/>
<path d="M88.9346 249.792C83.962 249.793 77.2002 245.936 75.6241 244.995C65.6182 239.019 59.961 231.02 60.4913 223.599C61.6397 207.519 67.9659 187.332 74.6641 165.959C79.9424 149.116 85.4004 131.7 89.1475 114.114C89.4932 112.493 91.084 111.459 92.7071 111.805C94.3282 112.15 95.3614 113.744 95.0166 115.365C91.21 133.225 85.709 150.779 80.3887 167.753C73.7989 188.782 67.5743 208.645 66.4756 224.027C66.1192 229.024 70.5723 233.642 73.2579 235.95C78.7627 240.679 85.1153 243.249 88.0049 243.734C86.4131 222.761 90.3594 176.121 97.7813 128.835C101.931 102.394 113.189 38.158 128.069 12.7937C128.908 11.365 130.747 10.886 132.176 11.7244C133.605 12.5628 134.083 14.4007 133.245 15.8299C123.281 32.8123 112.24 75.4046 103.708 129.765C96.1417 177.975 92.2022 225.322 94.128 244.903C94.293 246.582 93.5684 248.108 92.1895 248.983C91.2842 249.556 90.1641 249.792 88.9346 249.792H88.9346Z" fill="black"/>
<path d="M94.6244 101.442C94.5208 101.442 94.4164 101.437 94.3119 101.426C92.6634 101.256 91.4662 99.7809 91.6361 98.133C92.8363 86.5504 89.848 72.6613 87.4466 61.5011C84.9349 49.8268 83.1205 41.3922 85.8695 36.9943C87.8275 33.861 92.8168 32.1598 98.5941 30.1906C101.528 29.1906 106.402 27.5289 107.331 26.4235C107.567 25.4855 107.1 23.6139 106.687 21.9547C105.764 18.255 104.501 13.1886 108.648 9.68911C111.848 6.98696 120.927 2.21255 121.952 1.6769C123.421 0.908829 125.233 1.47866 125.999 2.94594C126.767 4.4142 126.2 6.2267 124.731 6.99428C122.109 8.36489 114.803 12.3449 112.518 14.2741C111.407 15.2121 111.605 16.8786 112.508 20.5036C113.169 23.1569 113.854 25.9005 112.979 28.4674C111.761 32.0412 106.805 33.7306 100.531 35.8698C97.2591 36.9845 91.7845 38.8512 90.9574 40.1745C89.4984 42.5094 91.5248 51.9284 93.3128 60.2389C95.8031 71.8141 98.9027 86.2204 97.6048 98.7511C97.4447 100.294 96.1419 101.442 94.6244 101.442Z" fill="black"/>
<path d="M148.791 32.7169C144.976 32.7169 141.011 32.2662 137.149 31.1632C135.557 30.7081 134.634 29.0475 135.089 27.4542C135.544 25.861 137.211 24.9406 138.798 25.3937C147.679 27.9313 158.076 26.442 164.438 23.839C165.975 23.2125 167.724 23.9464 168.351 25.4801C168.978 27.0133 168.243 28.7653 166.71 29.3927C162.315 31.1901 155.809 32.7169 148.791 32.7169H148.791Z" fill="black"/>
<path d="M177.214 5.66602C201.157 16.3073 214.64 51.089 214.633 55.0683C214.622 61.0296 209.251 61.6049 205.032 66.9316C200.53 72.6173 223.066 136.884 228.038 153.093C240.185 192.687 255.024 222.026 249.038 235.093C240.324 254.115 155.266 260.171 155.044 251.303C154.728 238.668 153.936 177.701 156.374 149.767C157.367 138.399 156.264 118.747 156.596 94.1219C156.819 77.5971 158.437 55.337 165.242 28.9439C168.244 17.3033 171.893 7.66127 177.214 5.66603V5.66602Z" fill="white"/>
<path d="M170.881 261.362C159.284 261.363 153.026 258.746 151.889 253.488C151.874 253.416 151.861 253.343 151.851 253.27C146.162 212.567 155.329 54.8232 165.666 15.5429C166.089 13.9409 167.73 12.9834 169.331 13.4052C170.933 13.8271 171.89 15.4677 171.468 17.0703C161.25 55.8989 152.187 211.661 157.767 252.254C157.995 252.755 161.524 258.591 195.664 252.779C216.036 249.311 230.482 244.583 241.128 237.899C242.532 237.017 244.383 237.441 245.264 238.844C246.145 240.247 245.721 242.099 244.319 242.98C232.985 250.097 217.844 255.09 196.671 258.694C186.231 260.471 177.646 261.362 170.881 261.362Z" fill="black"/>
<path d="M250.035 225.092C248.633 225.092 247.38 224.105 247.096 222.678C242.311 198.668 232.608 172.47 223.225 147.134C222.649 145.58 223.442 143.854 224.996 143.279C226.546 142.705 228.275 143.496 228.851 145.05C238.316 170.605 248.102 197.029 252.98 221.506C253.304 223.131 252.249 224.71 250.624 225.034C250.427 225.073 250.229 225.092 250.035 225.092V225.092Z" fill="black"/>
<path d="M199.075 18.958C237.037 49.0927 246.969 93.8986 235.037 129.093C226.798 147.998 217.019 180.977 203.541 182.203C190.062 183.43 161.716 174.912 149.621 162.9L136.694 153.005C131.271 148.467 121.206 139.061 121.626 135.059C122.046 131.056 129.147 124.561 135.943 121.95C142.738 119.338 157.832 110.784 169.124 99.9266L199.075 18.958L199.075 18.958Z" fill="white"/>
<path d="M86.1434 109.197C86.1434 109.197 96.1434 101.197 99.1434 96.1969C102.143 91.1969 104.143 88.1969 108.143 83.1969C112.143 78.1969 117.143 74.1969 117.143 69.1969C117.143 64.1969 115.143 61.1969 105.143 62.1969C104.765 54.0502 102.143 44.1969 98.1434 38.1969C88.1434 24.1969 75.3593 19.6865 68.1434 23.1969C60.9275 26.7074 58.9043 38.1813 58.1434 48.1969C57.3826 58.2125 63.1434 71.1969 72.1434 83.1969L63.1434 92.1969C72.5851 102.9 76.1607 108.2 86.1434 109.197Z" fill="white"/>
<path d="M72.1459 86.1964C71.1908 86.1964 70.2524 85.7419 69.6713 84.8957C62.9223 75.0793 57.7055 64.0636 55.3578 54.6735C52.0951 41.6237 54.0541 31.0426 61.0219 24.0749C64.7601 20.3361 69.5697 18.4933 74.9477 18.7326C82.3998 19.0705 89.1068 23.2667 92.4477 27.2755C93.5082 28.548 93.3363 30.4401 92.0639 31.5006C90.7885 32.5622 88.8998 32.3883 87.8383 31.1164C85.3451 28.1247 80.0228 24.9689 74.6752 24.7262C70.9808 24.5612 67.8148 25.7667 65.264 28.317C57.8256 35.7555 55.8119 54.1461 74.6146 81.4962C75.5541 82.8615 75.2074 84.7296 73.8422 85.6681C73.3236 86.0251 72.7318 86.1964 72.1459 86.1964H72.1459Z" fill="black"/>
<path d="M87.1409 113.196C86.514 113.196 85.8821 113.001 85.3431 112.596C84.0179 111.602 83.7483 109.721 84.7425 108.396C84.803 108.316 90.847 100.265 95.8382 94.2757C97.4602 92.3294 99.6145 89.9163 101.698 87.5828C104.439 84.512 107.274 81.3362 108.751 79.3855C110.602 76.9402 116.235 69.5003 115.429 66.9016C115.326 66.5706 114.911 66.281 114.194 66.0418C110.516 64.8162 105.425 65.1839 105.372 65.1873C103.768 65.3113 102.365 64.155 102.166 62.5696C102.157 62.492 101.159 54.7322 98.2972 46.1448C97.7728 44.573 98.6224 42.8738 100.195 42.3499C101.769 41.8264 103.465 42.6755 103.989 44.2473C106.024 50.3523 107.16 55.9636 107.706 59.136C109.974 59.1653 113.246 59.4011 116.092 60.3499C119.401 61.4534 120.674 63.5564 121.16 65.1258C122.744 70.2385 118.262 76.763 113.534 83.0071C111.911 85.1511 109.124 88.2732 106.173 91.5789C104.123 93.8748 102.004 96.2488 100.448 98.1165C95.5559 103.987 89.6028 111.917 89.5432 111.996C88.9534 112.782 88.053 113.196 87.1409 113.196H87.1409Z" fill="black"/>
<path d="M92.1451 116.198C91.8687 116.198 91.5865 116.159 91.3072 116.078C78.6607 112.402 70.2583 102.782 62.1333 93.4775C59.688 90.6768 57.1587 87.7808 54.5767 85.1304C52.313 82.8076 49.0455 80.1733 46.3013 80.8267C43.3326 81.5337 41.3677 85.8681 40.8609 87.4785C40.3648 89.0561 38.6822 89.9395 37.107 89.4478C35.5289 88.957 34.6431 87.2861 35.1294 85.7061C35.4136 84.7822 38.1001 76.6348 44.8804 74.9971C49.2876 73.9331 53.9937 75.9336 58.8736 80.9429C61.5708 83.7109 64.1548 86.6694 66.6529 89.5308C74.5572 98.582 82.023 107.131 92.981 110.316C94.5718 110.778 95.4869 112.443 95.0249 114.034C94.6441 115.345 93.4458 116.198 92.1451 116.198Z" fill="black"/>
<path d="M172.149 99.5969C171.832 99.5969 171.509 99.5456 171.19 99.4387C169.621 98.9089 168.777 97.2073 169.306 95.6369C173.318 83.7449 179.918 74.2282 185.221 66.5813C189.338 60.6462 192.892 55.5207 193.182 52.0456C192.873 50.7883 188.08 48.0393 185.506 46.5627C180.088 43.4553 174.971 40.5198 174.885 36.0329C174.796 31.4416 178.802 27.6789 182.336 24.3596C184.107 22.6955 186.312 20.6252 186.647 19.509C187.044 18.1872 186.838 16.8435 186.017 15.4011C184.181 12.1745 179.648 9.32786 176.501 8.54124C174.893 8.13938 173.916 6.51048 174.318 4.90306C174.72 3.29613 176.342 2.31566 177.956 2.71995C182.446 3.84251 188.448 7.53977 191.232 12.4348C192.86 15.2971 193.262 18.3391 192.393 21.2331C191.596 23.8943 189.093 26.2444 186.444 28.7326C184.081 30.9519 180.846 33.9904 180.883 35.9177C181.212 37.1828 185.947 39.8987 188.491 41.3581C194.185 44.6242 199.563 47.7092 199.161 52.5437C198.738 57.6199 194.949 63.0832 190.152 70.0007C185.064 77.3366 178.732 86.4665 174.992 97.5549C174.569 98.8069 173.401 99.5969 172.149 99.5969Z" fill="black"/>
<path d="M158.472 104.747C149.004 91.0282 150.143 90.1971 149.143 82.1971C148.143 74.1971 144.143 65.1971 144.143 65.1971L140.143 56.1971C140.143 56.1971 127.504 44.2328 119.143 40.1971C105.775 34.7527 96.4172 48.95 94.1427 61.1971C92.4799 70.15 97.202 90.1678 110.34 99.6274L131.739 118.611L143.821 116.632L158.472 104.747Z" fill="white"/>
<path d="M131.144 125.198C129.923 125.198 128.775 124.447 128.329 123.234C128.303 123.164 125.56 115.856 121.022 111.318C120.021 110.316 118.486 109.045 116.709 107.573C109.643 101.717 97.8154 91.9168 93.5791 77.1004C93.124 75.5076 94.0459 73.8469 95.6387 73.3914C97.2314 72.9344 98.8916 73.8572 99.3486 75.451C103.074 88.4817 113.583 97.1902 120.537 102.952C122.43 104.521 124.064 105.875 125.265 107.075C130.749 112.56 133.83 120.81 133.958 121.159C134.531 122.714 133.735 124.438 132.182 125.012C131.839 125.137 131.488 125.198 131.144 125.198Z" fill="black"/>
<path d="M159.144 110.197C158.322 110.197 157.505 109.862 156.913 109.204C156.52 108.767 147.31 98.4003 146.168 85.622C143.531 72.5058 139.992 63.3471 134.701 55.9404C129.287 48.3598 117.355 37.851 108.384 41.9277C101.744 44.9462 98.3096 51.1523 97.8857 60.9003C97.8144 62.5556 96.4453 63.8383 94.7578 63.7671C93.1025 63.6953 91.8193 62.2949 91.8916 60.6396C92.416 48.5864 97.1289 40.4531 105.901 36.4658C111.693 33.833 118.544 34.8027 125.708 39.271C130.743 42.4106 135.931 47.3383 139.584 52.4531C145.414 60.6152 149.27 70.5322 152.084 84.6084C152.106 84.7207 152.123 84.834 152.132 84.9477C153.038 95.8149 161.289 105.097 161.372 105.19C162.48 106.421 162.381 108.318 161.149 109.427C160.576 109.942 159.858 110.197 159.144 110.197V110.197Z" fill="black"/>
<path d="M136.693 156.005C136.014 156.005 135.332 155.776 134.769 155.306C120.878 143.681 118.332 137.708 118.643 134.745C119.246 128.997 127.678 121.912 134.868 119.149C142.59 116.181 157.527 107.896 164.734 98.3016C165.729 96.9764 167.611 96.7108 168.934 97.7044C170.26 98.6996 170.526 100.58 169.531 101.905C160.566 113.84 143.023 122.442 137.02 124.75C130.637 127.203 124.857 133.019 124.61 135.371C124.742 137.176 130.134 143.602 138.621 150.704C139.891 151.768 140.059 153.66 138.996 154.931C138.402 155.639 137.551 156.005 136.693 156.005V156.005Z" fill="black"/>
<path d="M202.045 185.225C185.294 185.225 160.289 177.723 147.507 165.028C146.331 163.86 146.325 161.961 147.492 160.785C148.661 159.61 150.561 159.603 151.735 160.771C163.797 172.751 188.007 179.68 203.451 179.205C214.174 178.884 221.337 157.762 227.093 140.79C229.181 134.634 231.153 128.816 233.221 124.045C237.744 109.463 237.035 89.6875 231.319 71.1021C224.884 50.1807 212.812 32.5274 197.324 21.3936C195.979 20.4263 195.672 18.5518 196.64 17.2066C197.605 15.8614 199.478 15.5538 200.826 16.5215C236.161 41.9248 249.04 93.6328 238.9 125.989C238.868 126.092 238.83 126.192 238.787 126.291C236.796 130.859 234.843 136.619 232.776 142.716C226.092 162.422 218.518 184.757 203.631 185.202C203.111 185.217 202.582 185.225 202.045 185.225L202.045 185.225Z" fill="black"/>
<path d="M208.348 132.893C207.591 132.893 206.833 132.609 206.25 132.038C198.054 124.019 188.011 117.754 177.206 113.919C175.645 113.365 174.828 111.649 175.383 110.088C175.938 108.526 177.651 107.71 179.214 108.265C190.832 112.389 201.632 119.126 210.445 127.749C211.63 128.908 211.65 130.807 210.492 131.992C209.904 132.592 209.126 132.893 208.348 132.893V132.893Z" fill="black"/>
</svg>
