<svg width="301" height="251" viewBox="0 0 301 251" fill="none" xmlns="http://www.w3.org/2000/svg">
<path d="M210.414 34.978C228.057 33.3551 259.75 41.2932 270.628 55.9006C281.549 70.5668 294.376 134.924 295.932 148.778C298.064 167.762 292.28 187.572 280.371 202.08C268.462 216.587 250.605 225.573 232.327 226.259C184.623 160.766 168.505 96.628 210.414 34.978H210.414Z" fill="black"/>
<path d="M228.382 52.4709C214.432 24.569 206.662 23.3403 206.588 23.3359C206.803 23.3506 207.443 23.2688 208.392 22.2344L196.572 11.3997C198.795 8.97562 203.186 6.66991 208.84 7.45969C219.666 8.97611 230.751 21.3541 242.724 45.3003L228.382 52.4709L228.382 52.4709Z" fill="black"/>
<path d="M257.418 54.7017C256.995 54.7017 256.565 54.6523 256.135 54.55C253.175 53.8444 251.346 50.8717 252.051 47.9108L254.823 36.282L254.677 35.3469L236.074 28.5682L234.899 29.5092L231.357 42.7895C230.573 45.7318 227.546 47.4782 224.611 46.6953C221.669 45.9109 219.921 42.8908 220.705 39.9495L224.714 24.9173C225.017 23.7797 225.677 22.7687 226.597 22.0333L231.607 18.0247C233.109 16.8234 235.13 16.4916 236.937 17.1503L261.507 26.1035C263.393 26.7905 264.756 28.4478 265.066 30.4306L265.882 35.6522C265.993 36.3607 265.964 37.0839 265.799 37.7812L262.776 50.466C262.172 52.9978 259.911 54.7012 257.418 54.7017V54.7017Z" fill="black"/>
<path d="M103.951 35.4282C94.4047 55.3554 85.6073 78.7765 79.1974 100.24C72.7876 121.704 54.5608 166.162 46.0993 172.892C37.2336 179.942 23.6764 182.678 19.5054 183.298C15.7841 183.852 6.44889 184.728 3.97227 191.527C1.49565 198.326 6.32065 204.488 12.833 206.533C17.4145 207.972 28.401 209.938 35.6067 203.822C42.8125 197.706 48.1701 195.327 51.5077 199.112C55.025 203.1 53.1134 207.94 59.2525 211.938C65.3916 215.935 72.8129 211.725 73.4574 204.981L78.007 194.871C79.3249 190.691 80.0859 181.367 79.3493 175.409C77.9392 164.004 85.3924 146.415 98.064 117.148L103.951 35.4282H103.951Z" fill="white"/>
<path d="M64.3424 216.489C62.0152 216.489 59.683 215.805 57.6132 214.457C53.0487 211.485 51.9869 207.974 51.1335 205.153C50.6403 203.52 50.2498 202.23 49.2535 201.1C47.6104 199.233 43.6703 200.921 37.5537 206.114C28.2771 213.989 14.5838 210.234 11.9336 209.402C7.34566 207.961 3.61209 204.899 1.68903 201.003C0.0449016 197.672 -0.142028 194.04 1.14882 190.498C4.08673 182.434 13.6961 181.081 18.3144 180.432L19.064 180.324C20.6827 180.084 35.1453 177.763 44.2291 170.538C51.5583 164.71 69.5939 121.895 76.3172 99.38C76.7918 97.7892 78.4644 96.8844 80.0586 97.3596C81.6499 97.8347 82.5541 99.5097 82.0795 101.1C76.4542 119.936 57.7345 167.48 47.9715 175.245C37.8747 183.275 22.8563 185.839 19.9487 186.272L19.1521 186.386C15.4293 186.91 8.49949 187.885 6.79761 192.556C6.07244 194.547 6.16834 196.493 7.08045 198.341C8.26364 200.738 10.7504 202.728 13.7353 203.665C15.0359 204.074 26.6476 207.485 33.6626 201.53C37.4158 198.345 47.3824 189.886 53.7632 197.123C55.6256 199.235 56.2969 201.454 56.889 203.412C57.6328 205.869 58.1691 207.644 60.8936 209.418C63.4734 211.099 65.7546 210.436 66.8849 209.892C68.9088 208.916 70.2476 206.973 70.4658 204.694C70.6244 203.041 72.1021 201.829 73.7443 201.988C75.3973 202.146 76.6098 203.614 76.4513 205.267C76.0373 209.592 73.3724 213.44 69.495 215.308C67.8577 216.098 66.101 216.489 64.3424 216.489L64.3424 216.489Z" fill="black"/>
<path d="M123.835 3.67778C106.951 9.45416 90.9545 40.3356 83.623 48.3337C76.2914 56.3318 56.7041 84.9915 46.892 95.037C41.883 100.165 48.7537 108.767 52.4616 111.091C62.5788 117.431 81.3648 129.647 88.0298 136.312C94.6949 142.978 109.614 132.679 115.314 115.256C121.014 97.833 139.127 46.6593 141.893 35.3065C131.921 17.2301 135.871 15.2722 123.835 3.67779L123.835 3.67778Z" fill="#2D8C3C"/>
<path d="M88.0299 139.319C87.1159 139.319 86.2136 138.904 85.6225 138.117C77.6924 127.542 65.1745 120.769 56.0339 115.824C51.8227 113.545 48.4973 111.746 46.5595 110.047C44.0072 107.808 42.4198 104.524 42.2045 101.038C41.9882 97.5445 43.2047 94.1221 45.6279 91.4005C59.7723 76.5299 72.0202 59.4842 80.1244 48.2042C82.1218 45.4249 83.8462 43.0242 85.2153 41.1985C86.6011 39.3504 88.0495 37.372 89.5478 35.3257C96.8877 25.2994 105.206 13.9352 113.538 7.6151C114.861 6.61246 116.748 6.87083 117.75 8.19348C118.754 9.51613 118.494 11.402 117.172 12.4056C109.54 18.1953 101.496 29.1831 94.4 38.8772C92.887 40.9431 91.4249 42.9406 90.0264 44.8059C88.6935 46.5826 86.9857 48.9602 85.0069 51.7132C77.3049 62.4329 64.4141 80.3745 50.0514 95.4717C48.3886 97.3414 48.1234 99.3359 48.2056 100.667C48.3211 102.538 49.1882 104.354 50.525 105.526C51.9539 106.78 55.1707 108.52 58.8954 110.535C67.9813 115.451 81.7127 122.881 90.4335 134.509C91.4298 135.837 91.1597 137.722 89.8316 138.718C89.2914 139.124 88.6582 139.319 88.0299 139.319Z" fill="black"/>
<path d="M104.596 224.558C104.522 224.558 104.448 224.555 104.374 224.55C102.718 224.428 101.473 222.988 101.594 221.332C101.75 219.211 101.944 216.618 102.165 213.642C104.36 184.234 109.499 115.368 107.731 97.6385C106.356 83.8322 106.987 66.3246 107.484 57.1174C107.574 55.4596 108.97 54.1859 110.649 54.2778C112.307 54.3674 113.578 55.7845 113.489 57.4423C113 66.4772 112.379 83.636 113.715 97.042C115.534 115.292 110.368 184.525 108.161 214.089C107.94 217.062 107.746 219.652 107.591 221.77C107.476 223.352 106.157 224.558 104.596 224.558Z" fill="black"/>
<path d="M206.896 227.705C205.323 227.705 204 226.482 203.899 224.89C202.766 207.131 201.084 191.741 199.589 179.03C197.893 164.614 197.37 112.794 199.766 97.5152C200.022 95.874 201.564 94.7549 203.202 95.0108C204.842 95.2682 205.964 96.8066 205.706 98.4468C203.422 113.011 203.938 164.535 205.56 178.327C207.065 191.118 208.758 206.607 209.9 224.508C210.005 226.164 208.748 227.594 207.091 227.699C207.025 227.703 206.961 227.705 206.896 227.705Z" fill="black"/>
<path d="M126.27 8.94473C126.27 8.94473 136.264 3.94593 152.264 3.94593C174.259 3.94593 196.253 11.944 189.922 19.6088C183.59 27.2736 102.943 34.9384 126.27 8.94473Z" fill="white"/>
<path d="M209.186 31.9333C193.152 1.8691 181.155 4.1222 181.155 4.1222C169.458 15.8197 137.316 14.3064 128.687 5.67734C128.687 5.67734 122.219 7.59006 115.987 15.8991C109.4 24.6815 100.817 42.3545 99.3826 57.1867C97.9484 72.0189 87.0242 129.057 86.8764 130.154C77.2949 201.224 64.9164 215.911 77.4116 227.713C102.289 251.212 148.065 250.699 163.607 244.546C195.6 231.883 221.435 238.77 229.512 241.658C237.589 244.546 220.93 53.9536 209.186 31.9333V31.9333Z" fill="#2D8C3C"/>
<path d="M150.986 16.1175C150.522 16.1175 150.059 16.1112 149.595 16.098C140.349 15.8362 131.981 12.841 126.64 7.8807C125.422 6.75134 125.352 4.84884 126.482 3.63188C127.612 2.41639 129.514 2.34397 130.731 3.4748C139.23 11.3657 158.379 13.6826 177.126 2.43352C178.551 1.57866 180.397 2.04059 181.251 3.46453C182.105 4.88847 181.643 6.73519 180.22 7.58906C170.898 13.1821 160.821 16.1175 150.986 16.1175V16.1175Z" fill="black"/>
<path d="M93.1532 242.484C92.7519 242.484 92.3448 242.403 91.9533 242.232C74.6879 234.701 66.8519 225.227 68.6604 214.074C72.9029 187.907 82.7031 149.152 83.3451 146.621L83.9646 142.866C87.3439 122.398 90.8377 101.233 89.1632 85.6033C88.987 83.9523 90.182 82.4706 91.8329 82.294C93.4644 82.1154 94.9646 83.3113 95.1427 84.9633C96.9033 101.406 93.342 122.981 89.8972 143.846L89.2571 147.725C89.2434 147.811 89.2258 147.897 89.2043 147.981C89.1015 148.382 78.9186 188.379 74.595 215.036C73.2826 223.132 79.9316 230.428 94.3569 236.721C95.8787 237.385 96.5745 239.156 95.911 240.679C95.4178 241.809 94.3129 242.484 93.1532 242.484V242.484Z" fill="black"/>
<path d="M134.361 251C126.698 251 119.186 250.309 112.213 248.914C110.584 248.589 109.528 247.005 109.854 245.377C110.179 243.75 111.76 242.694 113.391 243.018C128.664 246.072 146.707 245.565 162.897 241.626C185.915 236.028 209.905 231.168 228.042 238.423C229.583 239.04 230.333 240.79 229.717 242.332C229.1 243.873 227.35 244.622 225.809 244.007C209.32 237.41 186.39 242.1 164.318 247.468C154.673 249.815 144.39 251 134.361 251Z" fill="black"/>
<path d="M199.199 95.1975C210.026 123.387 220.263 155.408 222.475 165.215C226.408 182.655 228.485 188.967 224.268 204.361L222.033 218.408C221.052 225.112 227.256 230.969 234.171 228.55C241.086 226.13 240.383 220.975 244.749 217.939C248.892 215.058 258.494 219.28 264.034 226.937C269.575 234.594 280.714 235.302 285.506 234.997C292.318 234.562 298.473 229.727 297.687 222.534C296.902 215.341 288.045 212.265 284.563 210.841C280.66 209.244 268.145 203.357 261.215 194.397C254.6 185.845 242.468 139.175 236.344 115.591L199.199 95.1975V95.1975Z" fill="white"/>
<path d="M283.717 238.055C278.789 238.055 267.653 237.065 261.598 228.699C256.458 221.593 248.49 218.997 246.465 220.407C245.228 221.267 244.542 222.427 243.673 223.895C242.172 226.432 240.305 229.589 235.165 231.387C231.068 232.821 226.679 232.071 223.42 229.383C220.101 226.644 218.429 222.272 219.058 217.973C219.3 216.33 220.83 215.198 222.469 215.434C224.112 215.674 225.248 217.201 225.009 218.844C224.677 221.109 225.513 223.314 227.247 224.744C228.213 225.542 230.271 226.729 233.178 225.712C236.247 224.638 237.192 223.042 238.498 220.833C239.541 219.073 240.721 217.078 243.032 215.471C248.188 211.885 259.307 215.275 266.47 225.174C271.865 232.631 283.956 232.086 285.314 231.996C288.436 231.797 291.326 230.457 293.045 228.412C294.372 226.834 294.928 224.966 294.698 222.86C294.159 217.918 287.662 215.32 284.171 213.924L283.424 213.624C280.703 212.51 266.728 206.44 258.837 196.236C252.673 188.267 242.985 153.13 233.435 116.347C219.444 66.1825 212.477 51.9308 208.314 43.4161C207.552 41.8581 206.895 40.5124 206.286 39.1418C205.612 37.6244 206.295 35.8477 207.812 35.1734C209.332 34.4986 211.106 35.1832 211.78 36.7001C212.345 37.9699 212.98 39.27 213.716 40.7752C217.969 49.4754 225.088 64.0368 239.24 114.783C244.664 135.672 257.333 184.465 263.593 192.557C270.692 201.737 284.186 207.439 285.701 208.058L286.403 208.341C290.734 210.073 299.745 213.676 300.676 222.208C301.085 225.955 300.038 229.439 297.648 232.282C294.851 235.608 290.495 237.691 285.698 237.997C285.278 238.024 284.596 238.055 283.717 238.055V238.055Z" fill="black"/>
<path d="M224.271 207.368C224.008 207.368 223.74 207.334 223.474 207.261C221.873 206.822 220.931 205.168 221.369 203.567C225.067 190.07 223.702 184.099 220.406 169.673C220.13 168.466 219.842 167.204 219.542 165.877C217.464 156.663 207.414 124.968 196.393 96.2757C195.798 94.7255 196.572 92.9865 198.122 92.3915C199.671 91.7945 201.412 92.5701 202.007 94.1198C213.122 123.061 223.291 155.167 225.408 164.554C225.706 165.875 225.993 167.132 226.267 168.333C229.699 183.349 231.265 190.202 227.169 205.155C226.803 206.491 225.592 207.368 224.271 207.368V207.368Z" fill="black"/>
<path d="M263.123 116.333C264.599 115.004 267.862 108.83 266.399 107.487C246.249 88.9907 223.476 53.0974 215.59 39.6693C199.149 11.676 191.146 7.88205 182.127 8.88419C163.148 10.9929 171.903 25.1267 177.599 45.0565C182.129 60.9071 181.041 133.337 204.445 138.312C222.218 120.094 242.658 134.757 263.123 116.333H263.123Z" fill="#2D8C3C"/>
<path d="M199.333 145.318C198.796 145.318 198.252 145.174 197.76 144.872C196.346 144.001 195.906 142.15 196.776 140.735C203.195 130.304 216.933 128.083 230.219 125.935C241.272 124.148 252.701 122.3 260.207 115.996C262.073 114.43 263.147 112.51 263.231 110.59C263.307 108.887 262.593 107.233 261.169 105.805C247.683 92.2882 236.839 74.8941 226.353 58.0726C219.193 46.5866 212.43 35.7378 205.62 27.6027L204.934 26.7816C201.339 22.4834 196.867 17.134 192.961 13.5717C191.734 12.4527 191.647 10.5511 192.765 9.3244C193.884 8.09815 195.787 8.01007 197.013 9.12867C201.219 12.965 205.836 18.4875 209.546 22.9247L210.231 23.7429C217.311 32.2004 224.181 43.2225 231.455 54.8919C241.764 71.4273 252.422 88.5263 265.426 101.559C268.034 104.172 269.387 107.473 269.238 110.855C269.079 114.477 267.245 117.939 264.074 120.601C255.297 127.971 243.037 129.954 231.179 131.871C218.679 133.892 206.873 135.801 201.896 143.887C201.329 144.81 200.343 145.318 199.333 145.318H199.333Z" fill="black"/>
<path d="M93.2483 116.029C96.2548 89.9738 97.6501 74.1938 100.263 55.901C103.27 34.856 115.295 12.8089 129.325 5.79395C133.977 7.90865 118.302 -2.22317 104.272 9.80251C88.9027 24.3179 79.2184 54.8988 82.2248 76.9459C85.2312 98.993 89.2398 109.014 93.2483 116.029Z" fill="black"/>
<path d="M198.405 164.999C180.366 140.947 177.36 96.8533 185.377 62.7805C189.299 46.1111 198.59 29.8584 211.665 23.4837C216.5 25.1381 210.642 -1.5197 191.372 7.40219C178.987 14.6479 170.921 29.4182 164.827 47.8974C158.934 65.7654 156.675 110.987 166.336 133.932C174.354 152.973 187.381 189.05 226.533 199.207L227.467 189.05C226.771 189.042 210.061 180.54 198.405 164.999H198.405Z" fill="black"/>
</svg>
