<svg width="300" height="251" viewBox="0 0 300 251" fill="none" xmlns="http://www.w3.org/2000/svg">
<path d="M104.304 224.183C104.231 224.183 104.157 224.18 104.082 224.175C102.43 224.054 101.188 222.616 101.309 220.964C101.464 218.847 101.658 216.26 101.878 213.29C104.069 183.946 109.197 115.226 107.433 97.5349C106.061 83.758 106.69 66.2878 107.186 57.1003C107.276 55.4455 108.665 54.1813 110.344 54.2668C111.998 54.3561 113.267 55.7702 113.178 57.4245C112.69 66.4401 112.071 83.5622 113.404 96.9396C115.219 115.151 110.064 184.236 107.862 213.737C107.641 216.703 107.448 219.287 107.293 221.402C107.178 222.98 105.862 224.183 104.304 224.183Z" fill="black"/>
<path d="M206.384 227.322C204.815 227.322 203.495 226.102 203.393 224.513C202.263 206.792 200.585 191.435 199.092 178.751C197.4 164.363 196.877 112.653 199.269 97.4104C199.526 95.7727 201.063 94.656 202.698 94.9114C204.335 95.1682 205.454 96.7034 205.197 98.3401C202.918 112.869 203.432 164.285 205.051 178.05C206.553 190.813 208.242 206.269 209.381 224.132C209.487 225.785 208.232 227.211 206.579 227.317C206.513 227.321 206.449 227.322 206.384 227.322Z" fill="black"/>
<path d="M125.93 9.03011C125.93 9.03011 135.903 4.04199 151.868 4.04199C173.816 4.04199 195.764 12.023 189.446 19.6714C183.127 27.3199 102.652 34.9683 125.93 9.03011Z" fill="white"/>
<path d="M132.276 7.62706C120.504 2.99981 110.668 0.854094 97.8447 15.5103C85.0216 30.1665 71.7871 60.8962 58.7435 67.0245C45.7 73.1527 41.3893 82.5986 51.0326 87.7843C60.6758 92.97 79.8569 109.004 97.9374 107.956C116.018 106.908 132.276 7.62705 132.276 7.62705V7.62706Z" fill="white"/>
<path d="M208.669 31.9696C192.669 1.9696 180.698 4.21789 180.698 4.21789C169.025 15.8904 136.952 14.3803 128.341 5.76971C128.341 5.76971 121.887 7.67834 115.669 15.9696C109.096 24.7333 100.531 42.3685 99.1 57.1691C97.6689 71.9696 86.768 128.886 86.6205 129.98C77.0595 200.898 64.7074 215.554 77.1759 227.331C102 250.779 147.678 250.268 163.188 244.129C195.112 231.492 220.892 238.365 228.952 241.247C230.911 241.947 241.512 232.143 240.979 215.211C233.979 159.211 217.539 48.6006 208.669 31.9696L208.669 31.9696Z" fill="white"/>
<path d="M150.595 18.1875C150.131 18.1875 149.669 18.1811 149.207 18.168C139.98 17.9067 131.631 14.918 126.301 9.96825C125.086 8.84081 125.016 6.94286 126.144 5.7285C127.271 4.51512 129.17 4.44334 130.383 5.57176C138.864 13.4463 157.971 15.7573 176.679 4.5327C178.099 3.67967 179.943 4.1411 180.795 5.56151C181.648 6.98241 181.187 8.82518 179.767 9.67723C170.465 15.2583 160.408 18.1875 150.595 18.1875L150.595 18.1875Z" fill="black"/>
<path d="M92.8858 242.07C92.4854 242.07 92.0792 241.989 91.6886 241.819C74.46 234.304 66.6407 224.85 68.4454 213.72C72.6788 187.61 82.4581 148.937 83.0987 146.412L83.7169 142.665C87.0889 122.241 90.5753 101.121 88.9044 85.5243C88.7286 83.8769 89.921 82.3983 91.5684 82.2221C93.1973 82.0419 94.6934 83.2372 94.8712 84.8856C96.628 101.293 93.0743 122.822 89.6368 143.642L88.9981 147.513C88.9844 147.599 88.9669 147.684 88.9454 147.769C88.8428 148.169 78.6817 188.08 74.3673 214.681C73.0577 222.76 79.6925 230.04 94.087 236.319C95.6055 236.981 96.2999 238.749 95.6378 240.268C95.1456 241.396 94.043 242.07 92.8858 242.07Z" fill="black"/>
<path d="M261.061 113.907C262.37 112.419 259.571 101.287 256.667 98.3132C239.335 80.5619 240.645 46.7716 231.494 31.4732C230.577 29.941 226.553 23.1022 225.771 21.9233C213.047 2.73856 194.377 5.13459 185.41 6.39904C183.363 7.32095 180.698 34.6792 182.358 45.3208C185.351 64.5053 175.663 115.889 199.153 120.163C225.866 102.129 243.364 134.039 261.061 113.907H261.061Z" fill="white"/>
<path d="M247.412 121.858C245.147 145.772 223.927 162.606 211.297 161.008C202.147 159.85 176.955 152.712 156.447 141.814C137.949 131.983 117.7 131.49 107.278 127.179C96.8574 122.867 107.444 106.496 118.191 104.538C132.187 101.987 144.679 106.532 144.679 106.532C144.679 106.532 152.426 93.908 162.344 96.0917C172.262 98.2754 164.636 111.457 170.41 119.136C170.41 119.136 190.978 124.886 200.102 123.581C207.309 122.549 211.462 119.959 212.671 116.018C226.195 109.709 247.412 121.858 247.412 121.858Z" fill="white"/>
<path d="M214.254 162.188C213.174 162.188 212.097 162.122 211.027 161.986C200.314 160.631 178.29 154.6 155.25 144.564C144.166 139.735 133.111 137.123 123.357 134.818C116.527 133.204 110.628 131.81 106.133 129.95C101.908 128.203 99.6964 124.657 100.063 120.223C100.694 112.588 109.176 103.544 117.517 101.614C130.151 98.6925 139.431 101.167 143.646 102.789C146.663 98.8468 153.875 91.1579 162.99 93.1613C170.975 94.9196 170.952 101.098 170.936 105.61C170.924 108.799 170.912 111.811 172.808 114.333C173.804 115.657 173.537 117.538 172.213 118.533C170.891 119.528 169.008 119.263 168.013 117.938C164.905 113.805 164.922 109.249 164.936 105.588C164.953 100.696 164.695 99.6803 161.699 99.0206C154.01 97.3248 147.301 107.997 147.234 108.105C146.389 109.474 144.609 109.935 143.208 109.146C143.127 109.101 133.664 104.036 118.869 107.46C112.54 108.924 106.424 116.093 106.042 120.717C105.891 122.548 106.604 123.652 108.426 124.406C112.477 126.082 118.158 127.424 124.736 128.979C134.241 131.224 146.069 134.02 157.647 139.063C183.547 150.346 204.382 155.098 211.78 156.034C221.37 157.249 238.846 151.311 243.449 121.349C243.7 119.712 245.232 118.594 246.869 118.839C248.507 119.091 249.631 120.623 249.379 122.26C247.215 136.347 241.863 147.475 233.903 154.44C228.173 159.453 221.162 162.188 214.254 162.188V162.188Z" fill="black"/>
<path d="M249.559 123.777C245.383 123.777 241.14 122.409 236.348 120.864C235.588 120.619 234.802 120.366 233.991 120.109C225.835 117.527 216.361 115.056 207.094 118.428C205.54 118.993 203.816 118.191 203.25 116.634C202.683 115.077 203.486 113.356 205.044 112.789C216.078 108.773 226.706 111.51 235.801 114.389C236.624 114.649 237.419 114.905 238.189 115.154C247.342 118.104 251.273 119.15 256.676 115.341C259.925 113.05 257.471 107.389 254.437 101.294C254.211 100.837 253.991 100.397 253.786 99.9764C245.861 83.7562 243.167 74.8827 239.756 63.6478C237.621 56.6171 235.202 48.6483 230.998 37.3138C222.047 13.18 202.192 5.15074 186.487 7.90026C184.856 8.18932 183.299 7.09508 183.014 5.46276C182.728 3.83044 183.82 2.27575 185.452 1.9901C196.623 0.035506 207.548 2.51354 217.048 9.16002C225.676 15.1996 232.629 24.4569 236.623 35.2274C240.89 46.7313 243.338 54.7928 245.497 61.9051C248.83 72.8827 251.463 81.5541 259.176 97.3426C259.376 97.7503 259.589 98.1776 259.809 98.6205C262.82 104.67 267.86 114.796 260.133 120.244C256.469 122.828 253.037 123.777 249.559 123.777Z" fill="black"/>
<path d="M92.3783 26.5455C91.8343 26.5455 91.2836 26.3976 90.7885 26.087C89.3842 25.2071 88.9594 23.3556 89.8392 21.9518C96.2933 11.6544 108.212 0.875591 120.289 0.00742107C121.94 -0.107809 123.378 1.13242 123.496 2.78428C123.616 4.43711 122.372 5.87315 120.719 5.9918C110.793 6.70518 100.389 16.4171 94.9232 25.1383C94.3539 26.047 93.3773 26.5455 92.3783 26.5455Z" fill="black"/>
<path d="M52.8922 92.8147C52.5396 92.8147 52.1812 92.7517 51.8316 92.6199C46.2857 90.5217 40.9654 84.1443 42.0396 77.4993C42.5191 74.5437 45.5074 72.4329 50.4576 68.9353C58.2525 63.4285 71.2984 54.2122 79.9127 36.7239C80.6451 35.2376 82.4449 34.6262 83.9293 35.3582C85.4156 36.0906 86.0279 37.8889 85.2955 39.3753C76.0074 58.2327 62.1803 67.9998 53.9195 73.8357C51.4937 75.5501 48.4879 77.6736 47.943 78.593C47.5133 81.8992 50.7848 85.8084 53.9547 87.0076C55.5045 87.594 56.2857 89.3254 55.6988 90.8753C55.2447 92.0755 54.1041 92.8142 52.8922 92.8147Z" fill="black"/>
<path d="M110.07 72.4755C110.07 72.4755 93.9662 113.435 77.946 121.394C58.6135 130.999 35.0476 81.2851 59.0222 91.346C72.045 82.379 95.1134 55.4375 95.1134 55.4375C95.1134 55.4375 89.9473 39.4162 100.182 28.4503C113.217 14.4833 130.2 21.5264 136.184 27.5416C142.169 33.5569 144.146 42.5619 143.129 49.5593C142.111 56.5568 137.096 62.5441 133.101 60.5339C130.07 72.5263 119.864 74.3376 110.07 72.4755Z" fill="white"/>
<path d="M69.0437 85.3722C68.3112 85.3722 67.5759 85.1051 66.9978 84.5656C65.7868 83.4352 65.7214 81.5367 66.8513 80.3253C77.3777 69.046 88.0154 58.3058 91.6697 54.6388C90.5066 50.5499 89.0515 40.8878 96.7761 30.6422C106.192 18.1525 120.645 14.6627 132.742 21.9606C145.484 29.6505 148.439 45.6788 144.802 52.9059C144.057 54.3864 142.253 54.9811 140.774 54.2369C139.294 53.4923 138.698 51.6886 139.443 50.2086C140.437 48.233 140.725 44.0836 139.127 39.2672C138.129 36.2574 135.568 30.6739 129.642 27.0978C120.171 21.3849 109.152 24.193 101.567 34.2545C93.7898 44.569 97.6853 53.8322 97.8552 54.2213C98.3493 55.3546 98.1052 56.693 97.2292 57.5651C97.0993 57.694 84.0827 70.6554 71.238 84.4191C70.6472 85.0519 69.8464 85.3722 69.0437 85.3722Z" fill="black"/>
<path d="M70.2075 126.287C63.9819 126.288 57.8862 123.227 52.893 117.353C45.767 108.971 41.8393 94.9848 48.5961 85.5757C49.5629 84.2304 51.434 83.9218 52.7826 84.8886C54.1283 85.8554 54.436 87.73 53.4692 89.0757C48.6713 95.7578 51.7319 106.725 57.4643 113.467C60.1147 116.585 67.2924 123.339 76.6117 118.707C88.8949 112.605 102.914 82.4726 107.279 71.3774C107.865 69.8906 109.515 69.1225 111.027 69.6318C117.414 71.7797 123.145 69.4306 126.112 66.7685C128.623 64.5141 129.741 61.7465 129.175 59.1748C128.821 57.5566 129.844 55.9565 131.462 55.601C133.081 55.2446 134.68 56.27 135.037 57.8876C136.062 62.561 134.224 67.5503 130.119 71.2338C125.31 75.5498 118.387 77.3164 111.852 76.042C110.287 79.7783 107.002 87.2758 102.66 95.3686C94.3588 110.837 86.4936 120.498 79.2817 124.081C76.3022 125.561 73.2387 126.287 70.2075 126.287V126.287Z" fill="black"/>
<path d="M134.003 250.568C126.357 250.568 118.861 249.878 111.903 248.486C110.278 248.161 109.224 246.58 109.549 244.956C109.873 243.332 111.451 242.276 113.078 242.602C128.32 245.651 146.323 245.144 162.478 241.213C184.385 235.885 214.073 232.612 227.491 238.021C229.327 238.76 230.793 238.58 232.247 237.433C237.291 233.45 239.877 220.093 238.011 207.657C235.062 187.992 228.121 157.181 228.051 156.872C227.687 155.256 228.701 153.65 230.317 153.285C231.934 152.921 233.538 153.934 233.905 155.551C233.974 155.862 240.963 186.887 243.945 206.766C245.835 219.369 243.682 236.05 235.965 242.142C232.848 244.603 229.041 245.115 225.248 243.585C214.968 239.442 189.165 240.896 163.896 247.043C154.272 249.385 144.011 250.568 134.003 250.568H134.003Z" fill="black"/>
</svg>
