<svg width="302" height="391" viewBox="0 0 302 391" fill="none" xmlns="http://www.w3.org/2000/svg">
<path d="M115.535 150.106C73.9428 147.358 54.7571 128.397 47.7706 121.722C37.714 112.113 73.6911 70.9916 85.3305 69.3098C89.3977 68.7221 101.054 71.3433 109.871 69.2783C115.543 66.4724 112.492 51.7449 112.08 48.7719C111.668 45.7989 128.927 27.8013 130.144 26.0683C141.071 10.5057 122.639 -6.22239 100.366 7.97426C84.4807 17.2457 83.3227 23.4663 69.2811 35.9803C52.4272 49.4851 -14.669 103.618 6.868 136.533C16.5007 151.255 67.4878 173.702 113.321 182.587C128.145 185.46 131.591 151.167 115.535 150.106Z" fill="white"/>
<path d="M136.258 164.062C132.882 152.883 130.447 147.41 127.541 147.105C108.532 145.104 85.7543 135.803 65.6328 122.226C58.0748 117.126 45.4285 112.237 47.4501 124.903C50.995 147.113 12.9525 164.209 18.9671 180.618C22.2057 189.453 75.4627 210.675 100.277 208.516C118.509 206.93 158.545 189.093 136.258 164.062H136.258Z" fill="#82BE28"/>
<path d="M21.3576 154.012C20.7489 154.012 20.1343 153.827 19.6028 153.444C19.1427 153.111 8.28808 145.224 4.39371 138.445C-1.89531 127.496 -1.43123 115.278 5.7752 102.13C21.8334 72.8357 52.3317 46.3436 62.7281 38.6081C64.0578 37.6188 65.9376 37.8944 66.9283 39.2241C67.917 40.5543 67.6415 42.4345 66.3118 43.4238C56.2075 50.9423 26.5807 76.6631 11.0393 105.016C4.90762 116.203 4.42302 126.444 9.59923 135.456C12.3026 140.162 20.274 146.524 23.1181 148.578C24.4615 149.549 24.7644 151.425 23.7932 152.768C23.207 153.58 22.2886 154.012 21.3576 154.012Z" fill="black"/>
<path d="M65.8244 203.546C65.6828 203.546 65.5401 203.536 65.3965 203.516C52.2293 201.635 19.8307 188.863 16.1493 181.945C10.7249 171.752 19.3617 163.244 27.7142 155.016C34.5874 148.246 42.3772 140.573 44.1201 131.151C44.6839 128.107 43.9072 125.083 43.1568 122.158C42.4221 119.295 41.7274 116.591 42.3303 113.97C45.2486 101.276 55.7251 89.1375 61.7102 83.0312C69.0466 75.5473 79.101 67.6125 85.0295 66.7561C86.5166 66.5417 88.7002 66.8079 91.723 67.1758C97.3584 67.8616 107.848 69.1396 109.852 65.4084C111.158 62.9795 110.53 59.5429 109.867 55.9045C108.911 50.656 107.72 44.1232 113.425 39.8698C123.372 32.4552 128.985 24.1653 128.826 17.1254C128.741 13.3732 126.981 10.3088 123.596 8.01726C120.292 5.78039 114.985 5.39496 109.038 6.95671C99.6867 9.41243 87.1213 17.2051 79.8963 31.7112C79.1567 33.1963 77.3522 33.7976 75.871 33.06C74.3879 32.3209 73.7841 30.5188 74.5227 29.0352C82.6437 12.7313 96.8885 3.94116 107.513 1.15082C115.249 -0.880877 122.156 -0.206257 126.961 3.04622C131.906 6.39394 134.699 11.3454 134.827 16.9891C135.032 25.9977 128.539 36.0917 117.013 44.6825C114.55 46.5183 114.743 49.1841 115.773 54.8278C116.554 59.113 117.44 63.9697 115.14 68.2495C111.193 75.5947 99.0389 74.1145 90.9971 73.1345C89.0304 72.8952 86.584 72.5996 85.8874 72.6973C79.4225 73.6314 52.7383 95.4925 48.1806 115.316C47.9051 116.513 48.4229 118.53 48.971 120.666C49.7975 123.887 50.8273 127.897 50.0232 132.244C47.9363 143.523 39.4315 151.901 31.927 159.293C23.3714 167.72 18.288 173.187 21.4486 179.126C22.1843 180.299 27.762 184.056 39.5438 189.052C49.8698 193.431 60.1011 196.696 66.2446 197.574C67.8859 197.808 69.0261 199.328 68.7916 200.969C68.5777 202.466 67.2939 203.546 65.8244 203.546L65.8244 203.546Z" fill="black"/>
<path d="M116.219 150.313C115.894 150.313 115.562 150.26 115.237 150.147C98.9317 144.502 86.9731 140.016 69.9946 129.504C68.5847 128.632 68.15 126.782 69.0224 125.373C69.8939 123.963 71.7434 123.528 73.1542 124.4C89.6061 134.586 101.276 138.961 117.201 144.475C118.767 145.017 119.597 146.726 119.055 148.293C118.625 149.534 117.463 150.313 116.219 150.313Z" fill="black"/>
<path d="M106.163 363.917C106.09 363.917 106.016 363.914 105.942 363.909C104.288 363.788 103.046 362.35 103.167 360.697C103.322 358.579 103.516 355.99 103.736 353.019C105.928 323.661 111.058 254.91 109.294 237.211C107.921 223.427 108.55 205.949 109.047 196.757C109.136 195.102 110.545 193.832 112.206 193.923C113.861 194.012 115.13 195.427 115.041 197.082C114.553 206.102 113.934 223.232 115.267 236.615C117.083 254.835 111.926 323.952 109.723 353.466C109.502 356.433 109.308 359.019 109.154 361.134C109.039 362.713 107.722 363.917 106.163 363.917Z" fill="black"/>
<path d="M208.292 367.059C206.722 367.059 205.401 365.838 205.299 364.249C204.169 346.519 202.49 331.155 200.997 318.465C199.304 304.073 198.782 252.341 201.174 237.087C201.431 235.448 202.969 234.333 204.604 234.587C206.241 234.844 207.361 236.38 207.104 238.017C204.824 252.557 205.339 303.995 206.958 317.764C208.461 330.533 210.15 345.996 211.291 363.867C211.396 365.521 210.141 366.948 208.487 367.053C208.421 367.057 208.357 367.059 208.292 367.059Z" fill="black"/>
<path d="M127.801 148.665C127.801 148.665 137.779 143.674 153.751 143.674C175.709 143.674 197.667 151.659 191.346 159.311C185.025 166.963 104.513 174.615 127.801 148.665Z" fill="white"/>
<path d="M210.577 171.616C194.57 141.602 182.593 143.851 182.593 143.851C170.916 155.529 138.828 154.018 130.213 145.404C130.213 145.404 120.065 146.229 113.843 154.524C107.267 163.291 92.2645 193.741 90.8327 208.549C89.4009 223.356 86.9784 261.479 86.8308 262.573C77.2654 333.524 56.3483 359.841 68.8226 371.623C93.6582 395.082 149.559 390.014 165.075 383.872C197.014 371.23 222.806 378.106 230.869 380.989C238.933 383.872 222.302 193.599 210.577 171.616L210.577 171.616Z" fill="#82BE28"/>
<path d="M152.476 157.827C152.012 157.827 151.55 157.821 151.087 157.808C141.856 157.546 133.503 154.556 128.17 149.604C126.955 148.477 126.885 146.578 128.013 145.363C129.14 144.149 131.04 144.077 132.254 145.206C140.739 153.083 159.856 155.397 178.571 144.166C179.994 143.313 181.838 143.774 182.69 145.196C183.543 146.617 183.081 148.461 181.661 149.313C172.355 154.897 162.294 157.827 152.476 157.827L152.476 157.827Z" fill="black"/>
<path d="M135.878 390.315C128.228 390.315 120.729 389.624 113.767 388.232C112.142 387.907 111.087 386.326 111.413 384.7C111.738 383.076 113.319 382.02 114.944 382.346C130.191 385.395 148.205 384.888 164.367 380.956C187.345 375.367 211.294 370.515 229.403 377.759C230.941 378.375 231.69 380.121 231.074 381.66C230.46 383.2 228.712 383.947 227.173 383.332C210.711 376.747 187.821 381.428 165.785 386.789C156.156 389.131 145.891 390.315 135.878 390.315Z" fill="black"/>
<path d="M200.608 234.773C211.417 262.915 221.637 294.882 223.845 304.673C227.771 322.084 229.845 328.385 225.635 343.753L223.404 357.777C222.424 364.469 228.618 370.317 235.521 367.901C242.424 365.486 241.722 360.339 246.081 357.308C250.218 354.433 259.803 358.647 265.334 366.291C270.866 373.935 281.986 374.643 286.77 374.337C293.571 373.904 299.715 369.077 298.931 361.896C298.147 354.715 289.305 351.644 285.828 350.222C281.932 348.628 269.438 342.751 262.519 333.806C255.916 325.269 243.804 278.677 237.691 255.132L200.608 234.773Z" fill="white"/>
<path d="M284.984 377.391C280.066 377.391 268.947 376.402 262.903 368.051C257.77 360.957 249.817 358.363 247.795 359.773C246.56 360.631 245.875 361.789 245.008 363.255C243.509 365.787 241.645 368.939 236.513 370.734C232.426 372.165 228.042 371.417 224.788 368.733C221.474 365.999 219.806 361.634 220.434 357.342C220.674 355.702 222.198 354.57 223.839 354.808C225.479 355.047 226.613 356.572 226.374 358.212C226.043 360.473 226.878 362.675 228.608 364.102C229.574 364.899 231.626 366.083 234.53 365.069C237.594 363.996 238.537 362.403 239.841 360.198C240.882 358.441 242.06 356.449 244.368 354.844C249.518 351.265 260.615 354.649 267.766 364.532C273.152 371.975 285.224 371.432 286.578 371.342C289.695 371.144 292.58 369.806 294.297 367.764C295.622 366.189 296.177 364.324 295.947 362.222C295.409 357.288 288.922 354.694 285.437 353.3L284.692 353.001C281.975 351.889 268.023 345.829 260.145 335.642C253.992 327.687 244.321 292.609 234.786 255.887C220.819 205.807 213.863 191.579 209.707 183.078C208.947 181.523 208.291 180.18 207.683 178.811C207.01 177.296 207.692 175.523 209.206 174.849C210.723 174.176 212.496 174.859 213.168 176.374C213.731 177.641 214.366 178.939 215.1 180.442C219.346 189.127 226.453 203.664 240.582 254.326C245.996 275.179 258.645 323.891 264.894 331.969C271.981 341.134 285.452 346.826 286.964 347.444L287.666 347.727C291.989 349.455 300.985 353.053 301.915 361.57C302.323 365.311 301.278 368.789 298.892 371.627C296.099 374.948 291.751 377.027 286.961 377.333C286.542 377.359 285.861 377.391 284.984 377.391V377.391Z" fill="black"/>
<path d="M225.638 346.756C225.375 346.756 225.108 346.721 224.842 346.648C223.244 346.21 222.303 344.559 222.741 342.96C226.432 329.486 225.07 323.525 221.779 309.123C221.504 307.919 221.216 306.658 220.917 305.334C218.843 296.135 208.809 264.494 197.807 235.849C197.213 234.302 197.985 232.566 199.533 231.972C201.081 231.376 202.817 232.15 203.411 233.697C214.508 262.59 224.66 294.641 226.773 304.013C227.07 305.332 227.357 306.586 227.631 307.786C231.056 322.776 232.62 329.618 228.531 344.546C228.165 345.88 226.957 346.756 225.638 346.756V346.756Z" fill="black"/>
<path d="M257.909 257.571C264.912 253.569 267.373 241.904 265.912 240.563C245.795 222.098 233.767 182.936 225.894 169.53C209.481 141.584 191.257 145.688 183.564 148.605C175.871 151.522 178.215 177.893 179.044 184.717C179.873 191.541 177.518 269.612 200.882 274.579C215.889 262.573 250.905 261.573 257.909 257.571Z" fill="#82BE28"/>
<path d="M199.741 280.809C199.205 280.809 198.662 280.665 198.171 280.363C196.759 279.494 196.32 277.646 197.188 276.234C203.596 265.82 217.312 263.602 230.576 261.458C241.61 259.674 253.019 257.829 260.513 251.536C262.375 249.972 263.448 248.055 263.532 246.139C263.607 244.439 262.895 242.787 261.474 241.362C247.332 227.189 237.467 204.681 229.541 186.595C224.637 175.407 220.402 165.743 216.648 161.52C209.305 153.259 199.183 148.521 188.878 148.521C187.22 148.521 185.876 147.177 185.876 145.52C185.876 143.862 187.22 142.519 188.878 142.519C200.896 142.519 212.653 147.991 221.135 157.532C225.519 162.464 229.72 172.05 235.039 184.186C242.764 201.811 252.378 223.747 265.724 237.123C268.326 239.732 269.678 243.028 269.529 246.403C269.37 250.02 267.539 253.475 264.373 256.133C255.612 263.491 243.372 265.47 231.533 267.384C219.055 269.402 207.268 271.307 202.3 279.38C201.733 280.301 200.749 280.809 199.741 280.809H199.741Z" fill="black"/>
<path d="M94.8377 386.63C94.7606 386.63 94.6834 386.627 94.6042 386.621C83.9363 385.8 70.4564 378.76 64.5563 370.927C61.8968 367.397 60.8534 363.775 61.5363 360.453C62.2632 356.922 63.758 352.452 65.6505 346.791C69.3475 335.732 74.4124 320.587 77.9335 300.196C80.7307 284 82.3955 263.172 84.0056 243.03C86.0427 217.559 87.9655 193.5 92.0181 182.499C92.5916 180.944 94.3209 180.149 95.8724 180.72C97.4278 181.293 98.2241 183.019 97.6515 184.574C93.8832 194.801 91.9917 218.46 89.9898 243.508C88.369 263.785 86.6924 284.752 83.8483 301.218C80.25 322.058 75.1021 337.453 71.3436 348.695C69.5146 354.164 68.0696 358.484 67.416 361.663C67.0037 363.665 68.2406 365.842 69.3515 367.316C74.1818 373.729 86.1981 379.954 95.0654 380.636C96.7175 380.763 97.9544 382.206 97.8274 383.859C97.7063 385.433 96.3912 386.63 94.8378 386.63L94.8377 386.63Z" fill="black"/>
</svg>
