<svg width="300" height="285" viewBox="0 0 300 285" fill="none" xmlns="http://www.w3.org/2000/svg">
<path d="M214.359 60.9824C217.662 59.0007 237.479 51.7347 240.121 64.9457C242.763 78.1566 242.102 101.276 242.102 101.276L214.359 99.2942V60.9824Z" fill="white"/>
<path d="M201.899 146.683C214.688 164.714 240.068 161.841 244.864 133.549C249.659 105.257 253.076 87.8883 258.618 86.1105C288.781 75.3055 298.728 57.4552 291.28 38.9261C283.832 20.397 271.05 24.9804 250.962 44.6361C234.631 47.3427 240.926 34.427 233.981 32.1409C227.036 29.8548 218.046 31.1823 230.518 71.2201C234.475 78.6402 230.126 95.0945 225.571 98.4272C221.017 101.76 200.992 95.7225 200.992 95.7225L201.899 146.683V146.683Z" fill="white"/>
<path d="M90.5133 124.702C66.4013 147.603 45.9007 144.112 43.1922 125.693C39.059 97.5863 42.3142 69.5263 36.3061 67.6604C13.3224 57.159 0.852262 8.74811 30.7046 3.18661C47.7813 0.0052073 53.4062 17.061 58.3905 31.8736C64.7131 34.5353 68.1155 31.3319 75.6533 29.2388C83.191 27.1458 82.6034 41.207 64.6083 55.4005C61.4152 67.397 67.8459 86.0089 72.7802 89.3797C77.7144 92.7506 96.3466 71.5898 96.3466 71.5898L90.5133 124.702H90.5133Z" fill="white"/>
<path d="M40.8346 116.084C39.401 116.084 38.1334 115.053 37.8815 113.592C37.1598 109.393 36.9528 103.685 36.734 97.643C36.3326 86.599 35.8356 72.8935 31.8483 68.6103C15.2682 57.394 7.34436 32.6093 11.8463 19.4174C14.943 10.3422 20.6783 3.68498 27.5807 1.15275C33.1158 -0.877521 38.941 -0.216881 44.4293 3.06291C49.5367 6.11516 52.2067 12.4706 54.7887 18.6166C57.0026 23.8866 59.2916 29.3324 62.2076 29.3324C62.2418 29.3324 62.275 29.3319 62.3082 29.3305C62.8004 29.182 64.1227 28.4892 65.0983 27.9784C69.8551 25.4872 78.7125 20.8481 83.2975 27.6903C87.154 33.4408 81.3229 41.2514 79.4069 43.8183C78.4127 45.1459 76.5338 45.4174 75.2077 44.4272C73.8805 43.436 73.6071 41.5561 74.5983 40.2284C78.4371 35.0868 79.0348 32.1069 78.3151 31.0321C76.8463 28.8442 72.1588 31.0536 67.8825 33.2939C65.6998 34.4369 64.2575 35.1918 62.8942 35.3041C55.5573 35.9052 52.2057 27.9569 49.2575 20.9403C47.0504 15.6874 44.7682 10.2553 41.3512 8.2133C37.4713 5.89396 33.4235 5.39934 29.6481 6.78557C24.4528 8.69133 20.0338 14.0019 17.5241 21.3549C13.778 32.3329 21.4606 54.5141 35.4352 63.7914C35.5934 63.8964 35.7418 64.0165 35.8766 64.1493C41.7311 69.893 42.2389 83.8896 42.7301 97.4252C42.9411 103.261 43.1413 108.773 43.7956 112.575C44.0758 114.208 42.9801 115.759 41.3463 116.04C41.1745 116.07 41.0036 116.084 40.8346 116.084L40.8346 116.084Z" fill="black"/>
<path d="M223.866 160.856C216.768 160.856 210.188 156.597 203.538 151.814C202.193 150.847 201.886 148.972 202.854 147.627C203.821 146.282 205.695 145.975 207.041 146.943C213.58 151.646 219.946 155.773 225.961 154.664C230.249 153.871 234.318 150.471 238.4 144.267C242.555 137.95 245.212 124.37 247.556 112.388C250.518 97.2467 252.537 87.7721 256.545 83.9415C256.852 83.6476 257.218 83.423 257.62 83.2814C268.438 79.4655 290.693 66.2936 290.435 49.9366C290.294 40.9674 287.931 34.5988 283.78 32.0035C280.527 29.9694 277.015 30.8639 274.644 31.9733C270.894 33.7281 267.464 36.6813 264.148 39.5377C259.702 43.3668 255.104 47.3263 249.379 48.8312C243.797 50.3009 239.876 44.6998 236.414 39.7604C235.122 37.9171 232.088 33.6456 230.96 33.6232C228.14 34.046 225.475 34.4454 227.063 47.1022C227.78 52.8111 229.129 58.9117 230.966 64.7443C231.464 66.3248 230.586 68.0094 229.006 68.507C227.43 69.007 225.742 68.1276 225.244 66.547C223.272 60.2877 221.881 53.9972 221.11 47.8492C219.989 38.9132 219.664 29.2491 230.073 27.6896C234.778 26.9835 238.111 31.7277 241.327 36.316C243.193 38.9772 246.301 43.4293 247.854 43.0284C252.239 41.8756 256.122 38.5319 260.233 34.9913C263.857 31.8702 267.604 28.6432 272.101 26.5387C277.361 24.0782 282.639 24.2125 286.96 26.9161C292.896 30.6266 296.26 38.7687 296.435 49.8419C296.727 68.4508 274.741 83.3707 260.324 88.6842C257.653 92.027 255.422 103.429 253.444 113.54C250.874 126.677 248.217 140.26 243.412 147.565C238.384 155.207 233.033 159.459 227.052 160.564C225.977 160.762 224.915 160.856 223.866 160.856L223.866 160.856Z" fill="black"/>
<path d="M203.195 53.1864C188.195 44.1864 153.195 30.1864 117.195 46.1864C131.195 90.1864 203.195 53.1864 203.195 53.1864Z" fill="white"/>
<path d="M72.3313 50.2903C64.9597 59.3269 49.8885 70.488 31.6582 63.8055C26.7098 63.0887 30.9275 75.8249 31.2004 80.9166C31.4733 86.0083 36.5837 148.385 69.9597 148.168C134.364 155.331 129.275 45.6118 129.275 45.6118C123.351 37.6806 111.044 38.9293 93.3322 56.5723C85.5305 68.5779 81.4836 70.8144 81.4836 70.8144C81.4836 70.8144 79.9758 46.3455 72.3313 50.2903H72.3313Z" fill="#82BE28"/>
<path d="M173.146 47.56C182.131 41.6205 206.446 41.8752 217.889 52.7867C225.787 61.3668 225.274 72.535 225.274 72.535C231.447 87.5978 243.838 93.2081 264.574 84.842C278.86 79.8501 278.178 101.49 276.453 107.972C270.874 125.462 271.714 149.05 249.423 159.779C219.468 168.007 207.856 141.482 206.845 136.585C205.834 131.688 173.146 47.56 173.146 47.56L173.146 47.56Z" fill="#82BE28"/>
<path d="M127.821 261.015C105.313 255.513 81.4717 258.56 71.262 262.063C66.7924 263.596 60.887 260.209 60.1867 250.802C59.0819 235.959 65.6748 232.47 71.4704 210.295C83.7983 163.127 83.3212 139.823 86.9982 109.276C88.3512 98.0364 98.4736 66.2398 112.44 47.6175C118.659 39.3262 126.581 43.8236 126.581 43.8236C138.271 51.2406 150.307 62.9075 180.196 41.1865C180.196 41.1865 221.228 83.7808 224.4 107.193C232.504 167.012 231.763 198.437 239.398 240.594C240.918 248.986 252.041 267.898 235.787 277.245C230.317 280.39 211.928 286.887 190.996 278.337C177.351 272.764 167.726 270.77 127.821 261.015Z" fill="#82BE28"/>
<path d="M212.999 284.229C194.027 284.23 174.839 278.322 149.762 269.861C121.718 260.398 106.906 259.746 92.092 261.758C90.4465 261.979 88.9377 260.832 88.7151 259.19C88.4924 257.548 89.6418 256.036 91.2834 255.813C106.522 253.742 122.624 254.372 151.68 264.176C181.554 274.255 202.788 280.62 224.92 277.363C229.625 276.671 233.219 274.447 235.603 270.753C239.761 264.306 240.084 253.889 236.512 241.419C228.535 213.576 226.758 195.826 226.131 170.901C226.089 169.244 227.399 167.868 229.055 167.826C230.71 167.783 232.088 169.093 232.129 170.75C232.743 195.167 234.482 212.545 242.28 239.767C246.335 253.924 245.754 266.084 240.645 274.005C237.329 279.145 232.194 282.358 225.793 283.3C221.498 283.931 217.252 284.229 212.999 284.229Z" fill="black"/>
<path d="M70.9607 265.065C64.5945 265.065 61.24 262.429 59.5408 260.194C57.701 257.776 55.9529 253.38 58.0652 246.171C58.9295 243.225 60.1824 240.114 61.6346 236.512C65.2273 227.598 70.1473 215.391 74.2498 193.613C81.6668 154.236 84.3562 114.931 84.4676 113.278C84.5779 111.624 86.034 110.367 87.6609 110.485C89.3142 110.596 90.5652 112.026 90.4539 113.679C90.3426 115.347 87.6287 154.998 80.1463 194.723C75.9344 217.084 70.8855 229.61 67.2 238.755C65.8064 242.211 64.6043 245.195 63.823 247.859C62.7078 251.662 62.8787 254.672 64.3162 256.562C65.9344 258.689 68.9617 259.096 71.2176 259.063C72.8592 259.026 74.2361 260.362 74.2615 262.018C74.2859 263.675 72.9627 265.037 71.3055 265.062C71.1902 265.064 71.075 265.065 70.9607 265.065Z" fill="black"/>
<path d="M87.4624 116.479C87.3842 116.479 87.3051 116.476 87.226 116.469C85.5737 116.34 84.3393 114.897 84.4682 113.245C86.2006 91.0695 91.1176 79.382 91.3256 78.8952C91.978 77.3717 93.7407 76.6657 95.2641 77.3185C96.7856 77.9704 97.4917 79.7311 96.8432 81.2531C96.7954 81.3644 92.0971 92.6335 90.4506 113.713C90.3276 115.285 89.0131 116.479 87.4624 116.479V116.479Z" fill="black"/>
<path d="M273.548 111.518C273.156 111.518 272.758 111.44 272.375 111.277C270.85 110.629 270.139 108.868 270.788 107.343C273.703 100.484 273.965 91.3149 271.336 88.106C270.783 87.4307 269.971 86.7915 268.121 87.1733C266.859 87.4341 265.377 87.8481 263.807 88.2866C253.651 91.1245 236.654 95.8721 219.41 75.3423C218.345 74.0737 218.509 72.1811 219.777 71.1157C221.048 70.0483 222.94 70.2148 224.004 71.4829C238.764 89.0547 252.305 85.27 262.193 82.5078C263.865 82.041 265.444 81.5996 266.908 81.2974C270.548 80.5459 273.772 81.6118 275.977 84.3042C280.561 89.8999 279.746 101.606 276.309 109.69C275.824 110.832 274.715 111.517 273.548 111.518V111.518Z" fill="black"/>
<path d="M236.829 165.775C235.391 165.775 233.955 165.66 232.533 165.426C221.217 163.564 212.008 154.594 206.602 140.172C206.021 138.62 206.807 136.891 208.358 136.31C209.907 135.729 211.638 136.514 212.221 138.066C216.841 150.393 224.4 158.007 233.508 159.506C241.804 160.874 250.811 157.002 257.011 149.409C258.822 147.191 261.039 142.159 262.506 138.83C263.092 137.5 263.598 136.352 264.013 135.51C264.748 134.024 266.549 133.415 268.031 134.149C269.517 134.882 270.127 136.681 269.394 138.167C269.036 138.891 268.555 139.984 267.997 141.249C266.304 145.092 263.984 150.356 261.657 153.205C255.134 161.193 245.923 165.775 236.829 165.775L236.829 165.775Z" fill="black"/>
<path d="M211.72 110.882C211.648 110.882 211.576 110.88 211.503 110.874C209.851 110.756 208.606 109.321 208.725 107.668C209.673 94.3874 212.558 71.8917 221.214 70.4533C222.847 70.1813 224.395 71.2858 224.665 72.921C224.936 74.55 223.84 76.0905 222.214 76.3693C220.015 77.1481 216.082 88.8756 214.709 108.096C214.597 109.675 213.279 110.882 211.72 110.882Z" fill="black"/>
<path d="M81.4799 73.8143C79.9184 73.8143 78.601 72.6058 78.4907 71.0247C78.4516 70.4774 78.4165 69.8065 78.3774 69.0438C77.7397 56.7269 76.0571 53.6033 74.7573 53.1522C74.6792 53.1219 72.7319 52.5365 67.644 58.3363C60.5952 66.368 38.8462 73.369 30.0942 68.557C28.6421 67.7586 28.1128 65.9349 28.9106 64.4827C29.7085 63.0311 31.5307 62.5003 32.9848 63.2991C38.7583 66.473 57.351 60.9691 63.1342 54.3792C65.0659 52.1771 70.9497 45.4788 76.726 47.4842C82.8745 49.6195 83.895 59.5721 84.3696 68.7337C84.4067 69.4534 84.4389 70.0867 84.4751 70.6038C84.5913 72.2567 83.3462 73.6908 81.6938 73.807C81.6215 73.8118 81.5503 73.8143 81.4799 73.8143V73.8143Z" fill="black"/>
<path d="M76.8323 152.981C36.7747 152.981 31.3528 104.281 28.6995 80.4778C28.4876 78.574 28.2903 76.804 28.093 75.2014C27.8909 73.5569 29.0598 72.0598 30.7044 71.8577C32.3469 71.6555 33.846 72.8245 34.0481 74.469C34.2473 76.0921 34.4475 77.8846 34.6624 79.8133C37.3899 104.275 42.4973 149.802 80.4661 146.836C82.1165 146.706 83.5618 147.941 83.6907 149.593C83.8196 151.244 82.5852 152.688 80.9329 152.817C79.5296 152.927 78.1585 152.981 76.8323 152.981Z" fill="black"/>
<path d="M91.1927 65.1869C90.6058 65.1869 90.012 65.0145 89.4925 64.6561C88.1282 63.7152 87.7855 61.847 88.7259 60.4833C109.963 29.6893 127.788 38.1293 128.537 38.5033C129.117 38.7933 129.588 39.264 129.879 39.8446C131.541 43.1698 136.98 46.2592 143.734 47.7157C152.28 49.559 164.531 48.9867 173.304 41.8583C173.423 41.7606 173.551 41.6727 173.684 41.5951C180.265 37.7567 188.794 36.5839 197.08 38.3793C205.863 40.2821 213.518 45.2767 218.637 52.4428C219.6 53.7909 219.287 55.6644 217.94 56.6278C216.589 57.5907 214.718 57.2777 213.754 55.9301C204.533 43.0194 187.32 40.7387 176.896 46.6688C168.052 53.7431 155.202 56.328 142.469 53.5809C134.375 51.8353 128.012 48.1522 125.122 43.6049C122.02 42.6718 109.571 40.827 93.6653 63.8895C93.0833 64.7333 92.1458 65.1869 91.1927 65.1869L91.1927 65.1869Z" fill="black"/>
</svg>
