<svg width="366" height="300" viewBox="0 0 366 300" fill="none" xmlns="http://www.w3.org/2000/svg">
<path d="M282.888 178.025C285.798 191.077 290.033 219.779 285.607 223.867C281.181 227.955 268.702 224.907 264.428 225.238L265.583 182.879L282.888 178.025Z" fill="white"/>
<path d="M277.217 229.028C274.619 229.028 271.947 228.769 269.507 228.532C267.515 228.338 265.63 228.153 264.66 228.231C262.993 228.351 261.561 227.122 261.434 225.47C261.306 223.817 262.543 222.373 264.196 222.244C265.695 222.13 267.73 222.326 270.088 222.555C274.326 222.966 281.413 223.655 283.569 221.662C285.811 218.82 283.977 196.702 279.958 178.678C279.596 177.06 280.616 175.455 282.234 175.094C283.847 174.736 285.457 175.752 285.818 177.371C287.153 183.357 289.046 193.929 289.987 204.028C291.501 220.25 289.53 224.33 287.645 226.072C285.126 228.398 281.262 229.028 277.217 229.028V229.028Z" fill="black"/>
<path d="M112.918 120.803C112.918 120.803 101.302 122.432 92.9702 117.485C84.6379 112.537 70.3137 102.296 68.5553 85.1583L62.6817 77.9488C35.8815 69.2498 31.4921 51.3835 36.5374 39.3181C43.0733 23.6876 69.3542 29.373 77.1454 39.717C89.1454 55.6487 85.2686 66.6109 91.4014 76.8438C99.7141 90.7138 110.687 90.718 110.687 90.718L112.918 120.803H112.918Z" fill="white"/>
<path d="M110.69 93.7199C110.597 93.7199 110.504 93.716 110.41 93.7072C101.114 92.8457 93.3336 86.8131 87.9083 76.2612C85.6106 71.8807 85.1483 67.0238 84.6587 61.8816C83.7771 52.6051 82.8643 43.013 70.3524 34.9836C68.9567 34.0879 68.5511 32.2305 69.4473 30.8353C70.3416 29.4392 72.2015 29.035 73.5952 29.9298C88.5651 39.5366 89.7145 51.6112 90.6371 61.3127C91.0691 65.8505 91.4766 70.1367 93.2368 73.4938C97.7521 82.2743 103.712 87.0559 110.963 87.7279C112.615 87.8808 113.828 89.3434 113.676 90.9946C113.531 92.5515 112.223 93.7199 110.69 93.7199Z" fill="black"/>
<path d="M43.6108 70.6262C42.827 70.6262 42.0432 70.3208 41.4548 69.7129C36.2212 64.3121 33.0321 57.6696 32.2297 50.5037C31.4684 43.7004 33.3576 37.4166 37.5484 32.8099C42.0774 27.8318 48.8025 25.1715 56.4482 25.2927C62.5185 25.3963 68.5653 27.0177 73.4765 29.8578C74.9122 30.6881 75.4028 32.525 74.5721 33.9602C73.7423 35.3955 71.9059 35.8861 70.4702 35.0563C66.4279 32.7185 61.4122 31.383 56.3456 31.2965C50.4698 31.1944 45.3408 33.1686 41.9904 36.8507C38.9343 40.2098 37.6227 44.7002 38.1974 49.8362C38.8502 55.6685 41.4675 61.0971 45.7669 65.5347C46.9211 66.7256 46.8908 68.6261 45.7004 69.7803C45.1169 70.3452 44.3634 70.6262 43.6109 70.6262L43.6108 70.6262Z" fill="black"/>
<path d="M62.6833 80.9521C62.48 80.9521 62.2738 80.9316 62.0666 80.8881C58.469 80.1365 54.9907 78.9119 51.7283 77.249C50.2506 76.4959 49.6642 74.6878 50.4167 73.2106C51.1693 71.7324 52.9773 71.1459 54.4551 71.899C57.2444 73.3205 60.2185 74.3673 63.2942 75.0104C64.9175 75.3495 65.9584 76.9401 65.6193 78.5635C65.3231 79.9792 64.0751 80.9521 62.6833 80.9521Z" fill="black"/>
<path d="M109.199 125.167C104.75 125.167 97.3807 124.538 91.3622 120.964C84.2696 116.752 67.558 104.862 65.5682 85.4648C65.3991 83.8156 66.5993 82.3408 68.248 82.1717C69.889 82.0001 71.3726 83.2018 71.5417 84.852C73.253 101.535 88.1164 112.053 94.4281 115.801C101.763 120.156 112.374 119.028 112.48 119.016C114.113 118.828 115.612 120.015 115.799 121.662C115.985 123.308 114.806 124.794 113.16 124.983C112.986 125.003 111.474 125.167 109.199 125.167H109.199Z" fill="black"/>
<path d="M20.1083 100.077C19.2101 100.077 18.307 99.7768 17.5603 99.1605C15.8558 97.7527 15.6154 95.2292 17.0238 93.5247L93.0776 1.45373C94.4859 -0.251734 97.0085 -0.490205 98.7139 0.916678C100.418 2.32454 100.659 4.84803 99.2505 6.55252L23.1967 98.6235C22.405 99.5818 21.2605 100.077 20.1083 100.077Z" fill="black"/>
<path d="M28.98 102.965C27.9626 102.965 26.9461 102.579 26.1652 101.808C24.5937 100.254 24.579 97.7191 26.133 96.1471L110.09 11.219C111.645 9.64643 114.179 9.63324 115.751 11.1862C117.323 12.7407 117.338 15.2754 115.784 16.8475L31.827 101.776C31.0441 102.568 30.012 102.965 28.98 102.965H28.98Z" fill="black"/>
<path d="M168.315 105.256L189.233 27.3205C179.876 17.435 160.584 44.1748 160.584 44.1748L154.161 57.0372C150.799 64.1004 142.368 71.4511 130.432 74.6636C125.625 75.9574 114.04 77.3716 111.408 80.6185C107.633 85.275 112.444 95.6738 112.731 97.5333C114.488 108.879 112.199 119.364 113.195 128.08C114.128 136.239 135.124 133.044 146.514 121.186L146.513 121.188L148.992 123.364C149.769 122.555 157.037 115.862 157.715 114.973L168.315 105.256H168.315Z" fill="white"/>
<path d="M188.22 25.5259C191.752 23.8168 198.442 22.6724 206.844 24.3814C212.068 25.4441 215.702 26.8177 228.971 24.1386C242.239 21.4594 253.937 23.2713 253.937 23.2713L239.553 56.0312L198.114 63.3632L183.762 42.3989C183.762 42.3989 184.689 27.2348 188.22 25.5258V25.5259Z" fill="white"/>
<path d="M197.776 27.2671C197.776 27.2671 204.992 41.3285 222.062 39.0942C239.132 36.86 246.38 25.8487 246.38 25.8487L236.105 63.8597L179.082 62.0148L180.159 35.7868L197.776 27.2671V27.2671Z" fill="white"/>
<path d="M128.843 273.516C126.199 267.786 137.817 229.803 146.211 196.666C159.298 153.723 154.351 105.999 159.984 84.6725C166.099 61.5255 167.402 56.587 175.183 38.8226C176.619 35.5448 181.495 27.3149 185.025 24.1384C186.231 22.4515 194.562 23.629 196.445 25.5257C199.134 28.529 186.64 53.277 192.643 55.7329C201.634 59.4108 213.312 59.9288 220 56.4974C224.329 54.2765 229.288 47.5909 232.63 34.8525C233.932 29.888 249.849 13.6863 268.946 27.0424C288.043 40.3984 299.638 89.4503 296.515 139.346C295.715 152.119 255.588 132.257 246.459 135.98C243.685 144.499 247.729 171.131 257.566 168.983C266.181 167.103 282.245 157.971 282.245 157.971C282.245 157.971 287.871 171.984 288.673 175.736C283.166 180.433 269.301 185.182 267.065 189.431C258.068 227.953 280.766 284.597 262.252 290.274C184.879 313.999 131.487 279.245 128.843 273.516Z" fill="white"/>
<path d="M208.423 61.7895C202.851 61.7895 196.825 60.6885 191.506 58.5125C185.238 55.9479 188.007 46.3411 190.685 37.05C191.525 34.14 192.669 30.1676 192.579 29.03C192.16 27.4804 193.039 25.8639 194.584 25.3821C196.171 24.8875 197.85 25.771 198.345 27.3538C199.033 29.5597 198.17 32.7659 196.456 38.7135C195.381 42.4416 192.886 51.093 193.914 53.0091C202.316 56.4034 212.914 56.7581 218.63 53.8271C220.105 53.0672 221.914 53.6536 222.671 55.1275C223.428 56.6028 222.846 58.4123 221.37 59.1692C217.955 60.9221 213.368 61.7895 208.423 61.7895ZM192.597 29.092L192.612 29.1424L192.597 29.092Z" fill="black"/>
<path d="M285.977 63.8105C284.809 63.8105 283.697 63.1239 283.212 61.9804C271.825 35.1641 260.154 22.142 249.462 24.3171C247.834 24.6489 246.252 23.5987 245.921 21.9734C245.59 20.3486 246.64 18.7633 248.264 18.4325C262.3 15.585 275.917 29.4369 288.74 59.6338C289.388 61.1599 288.675 62.9226 287.149 63.5705C286.766 63.7333 286.369 63.8105 285.977 63.8105H285.977Z" fill="black"/>
<path d="M244.77 298.213C244.23 298.213 243.739 298.205 243.302 298.191C241.644 298.142 240.341 296.758 240.39 295.101C240.439 293.474 241.774 292.188 243.39 292.188C243.421 292.188 243.451 292.189 243.482 292.19C252.448 292.459 260.14 290.19 264.063 286.122C266.409 283.687 267.436 280.645 267.202 276.823C266.167 269.001 264.326 248.431 263.629 228.752C262.259 190.097 266.304 185.685 267.825 184.024C267.991 183.843 268.177 183.684 268.38 183.549C272.428 180.868 275.706 179.501 278.598 178.294C280.546 177.481 282.391 176.711 284.26 175.617C285.162 174.515 283.184 169.125 279.497 163.754C278.616 163.709 277.703 163.424 276.816 162.898C266.519 156.793 246.494 105.338 252.193 77.0664C252.52 75.441 254.097 74.3909 255.729 74.7163C257.354 75.0442 258.407 76.6275 258.078 78.2529C252.54 105.734 273.153 153.577 279.62 157.604C280.085 157.412 280.599 157.339 281.105 157.396C281.925 157.488 282.67 157.915 283.166 158.573C283.277 158.721 285.929 162.257 287.974 166.375C291.273 173.011 291.257 177.726 287.927 180.39C287.823 180.475 287.712 180.551 287.597 180.62C285.268 182.018 283.052 182.942 280.91 183.836C278.236 184.951 275.476 186.103 272.083 188.302C271.181 189.664 268.494 196.47 269.63 228.54C270.323 248.106 272.151 268.506 273.167 276.132C273.176 276.198 273.183 276.263 273.187 276.329C273.558 281.902 271.943 286.599 268.385 290.29C261.693 297.232 250.532 298.213 244.77 298.213Z" fill="black"/>
<path d="M210.599 300C160.85 300 134.604 285.399 126.82 276.504C126.77 276.447 126.723 276.389 126.677 276.328C123.787 272.474 124.338 268.62 124.779 265.524C124.933 264.456 125.077 263.448 125.077 262.517C125.077 262.327 125.094 262.137 125.13 261.95C127.381 250.25 131.932 232.941 136.749 214.616C142.667 192.109 148.785 168.835 150.98 154.57C152.423 143.742 152.952 132.789 153.464 122.197C154.353 103.815 155.272 84.8076 161.088 66.0666C161.1 66.0265 161.113 65.9865 161.128 65.9469C166.485 50.9461 172.127 36.4585 182.192 24.102C183.239 22.8163 185.13 22.6238 186.416 23.67C187.703 24.7172 187.895 26.6084 186.848 27.8941C177.398 39.4961 171.972 53.4398 166.804 67.9069C161.23 85.8993 160.371 103.672 159.462 122.487C158.944 133.204 158.409 144.285 156.923 155.424C154.672 170.058 148.513 193.486 142.556 216.143C137.802 234.229 133.309 251.319 131.078 262.82C131.054 264.064 130.887 265.236 130.725 266.373C130.322 269.193 130.154 270.892 131.418 272.639C138.391 280.49 164.774 294.927 215.496 293.948L215.555 293.947C217.186 293.947 218.524 295.253 218.555 296.892C218.588 298.549 217.269 299.92 215.612 299.951C213.917 299.984 212.243 300 210.599 300V300Z" fill="black"/>
<path d="M213.218 42.0975C208.444 42.0975 202.104 39.4631 201.396 39.1625C199.87 38.5145 199.159 36.7534 199.807 35.2273C200.453 33.7016 202.212 32.9857 203.742 33.6352C205.356 34.3188 210.206 36.0927 213.218 36.0927H213.219C220.516 36.0917 224.996 33.7696 232.394 26.1556C233.551 24.9666 235.452 24.9393 236.64 26.095C237.829 27.2502 237.857 29.1511 236.701 30.3405C229.292 37.9643 223.357 42.096 213.22 42.0975H213.218H213.218Z" fill="black"/>
<path d="M118.868 169.739C118.868 159.229 94.4757 150.709 64.3873 150.709C34.2988 150.709 9.90634 159.229 9.90634 169.739C9.90634 170.267 9.98452 170.789 10.1052 171.306H10.0886L14.8268 191.618H14.8424C16.9261 200.541 38.304 207.557 64.3873 207.557C90.4706 207.557 111.848 200.541 113.932 191.618H113.947L118.686 171.306H118.669C118.79 170.789 118.868 170.267 118.868 169.739Z" fill="#2D8C3C"/>
<path d="M64.3889 188.769C94.4777 188.769 118.87 180.249 118.87 169.739C118.87 159.229 94.4777 150.709 64.3889 150.709C34.3001 150.709 9.90829 159.229 9.90829 169.739C9.90829 180.249 34.3001 188.769 64.3889 188.769Z" fill="white"/>
<path d="M93.9834 178.64C87.8148 187.425 74.5104 185.197 74.0976 182.22C72.6889 172.06 80.2118 161.879 87.3708 160.245C91.632 159.272 100.152 169.855 93.9834 178.64H93.9834Z" fill="white"/>
<path d="M81.191 187.871C79.6517 187.871 78.172 187.695 76.8252 187.369C72.2835 186.271 71.3042 183.93 71.1244 182.632C69.4786 170.755 78.1476 159.272 86.7032 157.318C89.8337 156.605 93.5759 158.733 96.2636 162.735C99.2328 167.153 100.838 174.105 96.4415 180.366C92.6758 185.729 86.5674 187.871 81.191 187.871ZM76.9924 181.116C77.87 181.54 80.1218 182.097 83.005 181.739C85.1062 181.477 89.0078 180.502 91.5274 176.915C94.2043 173.102 92.9875 169.294 92.0239 167.362C90.5833 164.475 88.5211 163.204 87.9435 163.185C82.8828 164.349 76.1675 172.315 76.9923 181.116L76.9924 181.116Z" fill="black"/>
<path d="M74.8781 185.119L73.3163 179.321C73.3652 179.308 79.1158 177.682 82.3127 173.455C86.9903 167.272 84.7483 161.215 84.6505 160.96L90.2302 158.74C90.3826 159.119 93.8845 168.113 87.1017 177.078C82.6421 182.974 75.1928 185.034 74.8781 185.119Z" fill="black"/>
<path d="M25.3766 139.099C13.5548 133.801 13.1488 117.527 16.5819 116.356C28.2987 112.361 42.0839 118.944 45.6596 127.052C47.788 131.879 37.1983 144.397 25.3766 139.099Z" fill="white"/>
<path d="M31.1963 143.386C28.9406 143.386 26.5676 142.923 24.1487 141.839C15.1298 137.797 11.3866 128.096 11.7257 120.794C11.9065 116.892 13.2875 114.307 15.6126 113.514C29.0031 108.947 44.238 116.391 48.4063 125.841C49.8596 129.136 48.2509 133.799 44.3083 137.718C41.2092 140.799 36.5287 143.386 31.1963 143.386ZM26.6038 136.359C33.0464 139.247 38.2273 135.172 39.6611 133.855C42.4289 131.314 43.1062 128.821 42.9088 128.258C40.2211 122.161 28.6943 115.733 18.0608 119.032C17.6973 119.981 17.3865 122.764 18.3921 126.306C19.1662 129.033 21.2616 133.965 26.6038 136.359H26.6038Z" fill="black"/>
<path d="M36.4949 132.563C33.3674 132.563 29.7679 131.918 25.9269 130.03C18.1092 126.189 14.0532 118.019 13.8841 117.673L19.281 115.039C19.3103 115.099 22.6362 121.723 28.5755 124.641C37.3071 128.932 44.2286 124.702 44.5189 124.52L47.7607 129.575C47.489 129.75 43.0245 132.563 36.4949 132.563Z" fill="black"/>
<path d="M59.6933 170.621C55.8914 169.688 51.8389 172.087 49.1392 174.922C47.946 176.175 47.7918 181.196 49.3624 183.604C50.9331 186.012 65.255 188.47 69.0842 186.791C72.9133 185.112 71.2039 173.443 59.6933 170.621H59.6933Z" fill="white"/>
<path d="M64.8465 190.278C58.3139 190.278 48.9187 188.419 46.8477 185.244C44.6272 181.843 44.6898 175.24 46.964 172.852C51.0464 168.565 56.0748 166.643 60.4074 167.705H60.4083C69.0461 169.823 73.3982 176.376 73.8791 181.932C74.1899 185.517 72.8147 188.433 70.2893 189.541C69.1507 190.041 67.1813 190.278 64.8465 190.278ZM51.7686 181.778C53.9921 183.299 64.8924 185.103 67.7267 184.101C67.9163 183.719 68.1342 182.453 67.4833 180.598C66.9086 178.961 64.9276 174.996 58.9785 173.537C56.4169 172.911 53.3646 174.897 51.4539 176.847C51.1099 177.729 51.0835 180.467 51.7686 181.778V181.778Z" fill="black"/>
<path d="M64.3872 210.559C40.6641 210.559 15.2141 204.408 12.0065 192.646C11.9655 192.533 11.9312 192.418 11.9029 192.3L7.16475 171.987C6.78847 170.372 7.7922 168.757 9.40677 168.381C11.0204 168.002 12.6359 169.008 13.0132 170.623L17.6839 190.646C17.7161 190.74 17.7435 190.836 17.767 190.935C19.1 196.645 36.0432 204.555 64.3871 204.555C92.731 204.555 109.675 196.644 111.009 190.934C111.032 190.839 111.058 190.744 111.089 190.652L115.762 170.623C116.139 169.007 117.76 168.004 119.368 168.381C120.983 168.758 121.987 170.372 121.611 171.987L116.871 192.3C116.844 192.416 116.811 192.529 116.771 192.639C113.57 204.406 88.1141 210.559 64.3871 210.559H64.3872Z" fill="black"/>
<path d="M64.3883 191.772C36.5223 191.772 6.9059 184.05 6.9059 169.739C6.9059 155.428 36.5223 147.707 64.3883 147.707C92.2542 147.707 121.872 155.429 121.872 169.739C121.872 184.049 92.2552 191.772 64.3883 191.772ZM64.3883 153.711C50.165 153.711 36.835 155.631 26.8554 159.117C18.2538 162.121 12.9107 166.192 12.9107 169.739C12.9107 173.286 18.2538 177.356 26.8554 180.361C36.835 183.847 50.164 185.767 64.3883 185.767C78.6125 185.767 91.9425 183.847 101.922 180.361C110.524 177.356 115.867 173.286 115.867 169.739C115.867 166.192 110.524 162.121 101.922 159.117C91.9425 155.631 78.6125 153.711 64.3883 153.711Z" fill="black"/>
<path d="M56.8782 145.435C63.0491 141.364 76.272 146.63 76.0595 149.371C75.847 152.111 60.844 163.706 56.6847 164.134C52.5253 164.561 50.7073 149.506 56.8782 145.435Z" fill="white"/>
<path d="M56.5255 167.144C55.0947 167.144 52.4803 166.492 50.9332 162.158C48.9971 156.734 49.4115 146.766 55.2257 142.93V142.929C61.0076 139.117 70.4272 141.42 75.269 144.273C77.9322 145.843 79.2067 147.636 79.0542 149.603C78.9809 150.538 78.7884 153.019 69.6796 160.002C67.0466 162.021 60.5395 166.756 56.9927 167.121C56.8578 167.134 56.7005 167.144 56.5255 167.144H56.5255ZM58.533 147.942C57.1452 148.858 56.1756 151.172 55.9401 154.135C55.687 157.331 56.374 159.978 56.9536 160.997C60.2473 159.847 69.6434 152.894 72.4885 149.581C69.7783 147.878 62.112 145.578 58.533 147.942Z" fill="black"/>
<path d="M194.619 185.728L114.4 184.373L119.974 172.818L194.619 174.173V185.728Z" fill="black"/>
<path d="M194.073 170.597H154.789C153.39 170.597 152.256 171.731 152.256 173.13V185.416C152.256 186.815 153.39 187.948 154.789 187.948H194.073C195.471 187.948 196.605 186.815 196.605 185.416V173.13C196.605 171.731 195.471 170.597 194.073 170.597Z" fill="white"/>
<path d="M194.072 190.952H154.788C151.736 190.952 149.254 188.469 149.254 185.416V173.13C149.254 170.078 151.736 167.596 154.788 167.596H194.072C197.124 167.596 199.607 170.079 199.607 173.13V185.416C199.607 188.469 197.124 190.952 194.072 190.952ZM155.259 184.947H193.603V173.6H155.259V184.947Z" fill="black"/>
<path d="M250.005 141.21C239.288 160.944 214.047 165.223 214.047 165.223C208.258 165.051 202.516 163.648 197.39 161.151C194.552 159.768 191.613 157.995 188.43 158.352C185.6 158.669 183.229 160.723 182.145 163.163C181.06 165.603 181.104 168.363 181.652 170.953C182.093 173.036 182.852 175.139 182.481 177.234C181.764 181.285 177.259 183.666 173.161 185.234C169.062 186.803 164.431 188.519 162.716 192.305C161.327 195.372 162.392 199.046 164.642 201.639C166.892 204.232 170.148 205.904 173.463 207.186C192.233 214.445 220.594 208.406 235.974 193.817C251.353 179.227 265.507 173.797 274.696 160.668" fill="white"/>
<path d="M191.591 213.284C184.757 213.284 178.168 212.224 172.38 209.986C169.492 208.869 165.313 206.992 162.375 203.606C159.153 199.893 158.212 194.971 159.981 191.066C162.176 186.22 167.556 184.163 171.878 182.511L172.088 182.43C176.661 180.68 179.163 178.756 179.525 176.71C179.705 175.692 179.388 174.395 179.052 173.023C178.935 172.54 178.817 172.057 178.715 171.576C177.945 167.939 178.176 164.698 179.401 161.943C180.992 158.362 184.405 155.782 188.096 155.368C191.749 154.96 194.867 156.526 197.616 157.909C197.981 158.093 198.344 158.275 198.705 158.451C203.348 160.713 208.567 162.01 213.817 162.211C216.49 161.679 238.069 156.897 247.366 139.777C248.158 138.321 249.979 137.78 251.438 138.572C252.895 139.363 253.435 141.186 252.644 142.643C241.359 163.421 215.639 167.998 214.549 168.183C214.356 168.215 214.159 168.229 213.959 168.223C207.757 168.04 201.572 166.527 196.076 163.85C195.691 163.663 195.306 163.469 194.918 163.274C192.72 162.169 190.65 161.125 188.764 161.335C187.177 161.513 185.619 162.738 184.888 164.382C184.187 165.958 184.087 167.959 184.589 170.33C184.679 170.751 184.782 171.173 184.886 171.597C185.333 173.423 185.838 175.493 185.438 177.756C184.418 183.52 178.555 186.384 174.234 188.038L174.022 188.119C170.556 189.445 166.627 190.947 165.451 193.544C164.537 195.561 165.525 198.075 166.91 199.67C168.479 201.479 170.906 202.978 174.546 204.385C192.234 211.225 219.415 205.386 233.907 191.638C240.563 185.323 247.067 180.635 252.804 176.499C260.544 170.92 267.229 166.101 272.237 158.946C273.189 157.588 275.058 157.257 276.419 158.208C277.777 159.159 278.108 161.031 277.157 162.39C271.564 170.378 264.158 175.717 256.316 181.37C250.46 185.592 244.403 189.958 238.04 195.994C226.497 206.944 208.308 213.284 191.592 213.284H191.591Z" fill="black"/>
<path d="M279.426 166.949C282.187 163.088 290.67 156.042 292.445 151.349C311.192 101.815 288.26 44.2723 271.22 28.9447C258.971 17.9264 248.763 24.4068 247.021 33.3704C243.808 38.7644 245.394 67.3146 246.55 76.5234C250.67 109.371 239.576 128.539 239.553 133.827C239.493 147.484 258.598 166.846 279.426 166.949Z" fill="white"/>
<path d="M274.186 170.116C268.952 170.117 263.144 168.064 257.1 163.953C244.905 155.657 233.186 139.481 236.895 132.43C242.8 121.205 249.946 103.344 243.863 77.944C243.476 76.3314 244.471 74.711 246.082 74.3249C247.695 73.9379 249.316 74.9323 249.702 76.5454C254.692 97.376 252.311 116.022 242.21 135.225C241.025 137.898 249.241 151.909 261.675 159.774C268.123 163.853 277.182 167.129 283.699 159.555C302.662 137.514 296.053 90.8337 283.545 54.4981C273.46 25.1993 255.825 24.4781 255.079 24.4614C253.43 24.4253 252.108 23.0668 252.13 21.418C252.153 19.7697 253.536 18.4508 255.138 18.4571C256.051 18.4625 277.667 18.9717 289.223 52.5434C295.556 70.9404 314.201 133.308 288.252 163.471C284.442 167.899 279.625 170.116 274.186 170.116H274.186Z" fill="black"/>
<path d="M246.548 79.5266C245.286 79.5266 244.111 78.7232 243.697 77.458C239.352 64.1974 240.554 43.7754 244.16 32.4588C244.662 30.8784 246.35 30.0037 247.931 30.5094C249.512 31.0128 250.385 32.7016 249.881 34.2815C246.985 43.3718 245.209 62.7837 249.402 75.5884C249.919 77.1643 249.06 78.86 247.484 79.3766C247.174 79.4782 246.858 79.5266 246.548 79.5266L246.548 79.5266Z" fill="black"/>
<path d="M122.141 135.111C120.887 135.112 119.699 135.036 118.595 134.886C111.839 133.963 110.443 130.439 110.212 128.422C109.747 124.352 109.949 120.054 110.164 115.503C110.428 109.875 110.703 104.055 109.764 97.9926C109.742 97.8538 109.707 97.6554 109.663 97.4047C108.532 90.9914 107.56 81.9544 112.145 77.5398C116.78 73.0762 121.838 72.117 127.193 71.1015C129.623 70.6407 132.136 70.1638 134.871 69.3359C143.939 66.5891 150.073 56.89 156.005 47.5099C157.372 45.3466 158.786 43.11 160.209 41.0077C161.138 39.635 163.003 39.2724 164.379 40.2038C165.752 41.1328 166.111 42.9995 165.182 44.3727C163.812 46.3982 162.485 48.4971 161.079 50.7191C154.561 61.0281 147.821 71.6884 136.61 75.0827C133.57 76.0039 130.777 76.5336 128.312 77.0012C123.287 77.9542 119.656 78.6427 116.31 81.8655C115.465 82.6791 113.701 85.7211 115.577 96.3624C115.63 96.6663 115.672 96.9072 115.698 97.0749C116.729 103.733 116.428 110.137 116.161 115.786C115.959 120.087 115.768 124.151 116.178 127.739C116.19 127.84 116.851 128.587 119.408 128.936C128.388 130.163 148.924 124.216 154.196 111.216C154.818 109.68 156.568 108.94 158.106 109.561C159.643 110.184 160.383 111.935 159.761 113.472C154.078 127.484 134.799 135.111 122.141 135.111V135.111Z" fill="black"/>
<path d="M37.1474 148.95C33.7316 147.038 29.1863 148.269 25.8286 150.281C24.3446 151.171 22.8572 155.969 23.7289 158.709C24.6006 161.449 37.7489 167.636 41.8872 167.039C46.0255 166.441 47.4889 154.739 37.1474 148.95V148.95Z" fill="white"/>
<path d="M41.5224 170.06C36.1284 170.061 22.3479 164.271 20.8672 159.619C19.6348 155.748 21.4556 149.401 24.283 147.706C29.3623 144.663 34.7162 144.149 38.6138 146.329C46.3739 150.674 48.8212 158.15 47.8047 163.633C47.148 167.172 45.0447 169.615 42.315 170.009C42.0775 170.044 41.8117 170.06 41.5224 170.06L41.5224 170.06ZM26.5339 157.589C28.2716 159.648 38.2903 164.28 41.2956 164.083C41.581 163.765 42.1283 162.603 41.9954 160.643C41.8781 158.911 41.0269 154.562 35.6798 151.569C33.386 150.285 29.9086 151.383 27.5454 152.753C26.9785 153.511 26.224 156.143 26.5339 157.589Z" fill="black"/>
<path d="M56.5451 123.35C51.3026 123.35 47.0375 119.085 47.0375 113.843C47.0375 108.6 51.3026 104.335 56.5451 104.335C61.7876 104.335 66.0527 108.6 66.0527 113.843C66.0527 119.085 61.7876 123.35 56.5451 123.35ZM56.5451 110.34C54.6139 110.34 53.0423 111.912 53.0423 113.843C53.0423 115.774 54.6139 117.346 56.5451 117.346C58.4763 117.346 60.0479 115.774 60.0479 113.843C60.0479 111.912 58.4763 110.34 56.5451 110.34Z" fill="black"/>
<path d="M9.50758 158.378C4.26512 158.378 0 154.113 0 148.871C0 143.628 4.26512 139.363 9.50758 139.363C14.75 139.363 19.0152 143.628 19.0152 148.871C19.0152 154.113 14.75 158.378 9.50758 158.378ZM9.50758 145.368C7.57635 145.368 6.00479 146.939 6.00479 148.871C6.00479 150.802 7.57635 152.373 9.50758 152.373C11.4388 152.373 13.0104 150.802 13.0104 148.871C13.0104 146.939 11.4388 145.368 9.50758 145.368Z" fill="black"/>
</svg>
