<svg width="365" height="293" viewBox="0 0 365 293" fill="none" xmlns="http://www.w3.org/2000/svg">
<path d="M111.911 19.773C99.3341 20.9162 90.1661 51.7245 83.5075 74.0244C76.8488 96.3244 56.2524 168.237 47.4616 175.229C38.251 182.555 24.1658 185.397 19.8324 186.042C15.9662 186.617 6.26748 187.528 3.69466 194.592C1.12184 201.656 6.135 208.058 12.901 210.182C17.661 211.677 30.794 215.927 38.2801 209.573C45.7662 203.218 52.1459 199.187 55.6138 203.12C59.2682 207.264 56.8038 212.71 63.1822 216.863C69.5605 221.016 74.1556 215.145 76.6403 211.863C79.125 208.581 78.9433 202.464 79.9818 196.924C80.8499 192.293 82.196 180.524 83.2432 174.375C85.4359 161.5 91.5593 145.879 104.723 115.472C104.723 115.472 124.488 18.6297 111.911 19.7729V19.773Z" fill="white"/>
<path d="M67.6739 221.177C65.591 221.177 63.5227 220.588 61.6167 219.426C57.8007 217.099 56.6337 213.305 55.6963 210.257C55.0893 208.281 54.5156 206.416 53.3602 205.106C52.3456 203.956 50.6508 202.03 41.5928 209.239C33.7615 215.472 23.8033 216.753 12.0007 213.047C7.26699 211.561 3.41391 208.404 1.42971 204.385C-0.264198 200.955 -0.456761 197.213 0.872565 193.564C3.89873 185.255 13.8334 183.856 18.6083 183.184L19.3892 183.072C19.7059 183.025 20.0793 182.973 20.5025 182.914C25.4386 182.229 38.549 180.411 45.2602 173.185C52.5255 165.364 77.5548 83.944 86.9774 53.2928L88.1767 49.3924C88.6644 47.8079 90.3408 46.915 91.9291 47.4057C93.5145 47.893 94.404 49.5732 93.9162 51.1586L92.7179 55.0571C74.6147 113.948 56.8683 169.513 49.6606 177.273C41.4931 186.065 26.8432 188.097 21.3285 188.863C20.9267 188.918 20.5729 188.967 20.2728 189.012L19.4449 189.13C15.5528 189.678 8.30697 190.699 6.51532 195.619C5.74998 197.72 5.85066 199.775 6.81442 201.726C8.05773 204.244 10.6685 206.334 13.7992 207.317C23.5873 210.39 31.6776 209.456 37.8531 204.541C42.2428 201.047 51.377 193.776 57.8643 201.133C59.8749 203.413 60.7047 206.112 61.4368 208.493C62.3263 211.385 62.9616 213.213 64.7435 214.3C66.2889 215.241 67.9515 215.421 69.5652 214.819C71.8759 213.955 73.8386 211.604 74.8151 208.53C76.4904 203.259 76.9821 197.184 77.4571 191.308C77.8618 186.302 78.2449 181.574 79.326 177.444C83.659 160.903 87.4573 147.845 100.28 118.225C100.939 116.703 102.709 116.002 104.228 116.662C105.75 117.321 106.45 119.089 105.791 120.611C93.1069 149.912 89.5256 162.203 85.1359 178.965C84.1878 182.585 83.8261 187.057 83.443 191.792C82.9406 198.003 82.4215 204.426 80.539 210.349C78.9849 215.238 75.7515 218.917 71.6677 220.444C70.357 220.934 69.012 221.177 67.6739 221.177Z" fill="black"/>
<path d="M214.085 20.6729C199.63 4.74012 177.349 0.0384586 160.593 0.000214152C137.608 -0.0519728 121.135 9.44545 118.371 15.8964C118.371 15.8964 112.978 17.4151 114.332 21.3634C107.328 27.1228 140.695 75.3485 147.325 48.5239C166.501 48.2084 197.08 37.4555 214.085 20.6729H214.085Z" fill="white"/>
<path d="M119.887 6.96685C127.786 13.7242 137.388 32.5658 145.259 32.417C162.187 32.097 178.432 15.961 189.241 11.6663C203.978 5.81085 201.374 38.7314 201.375 60.1262C201.375 65.5614 229.218 119.593 229.219 136.356C229.22 154.155 213.663 151.821 195.797 149.445C183.657 147.83 176.819 145.332 159.558 148.684C138.195 152.833 109.696 153.022 105.291 148.418C101.56 144.519 85.557 140.477 98.3324 112.838C102.044 104.809 110.56 71.0578 109.247 59.2599C106.745 36.7669 85.7635 32.0098 93.762 17.3828C98.5408 8.64371 104.975 -6.48446 119.887 6.96686V6.96685Z" fill="#2D8C3C"/>
<path d="M123.089 155.654C112.549 155.654 99.883 151.763 93.8366 142.723C90.5768 137.849 87.9367 129.365 93.8737 116.632C101.354 100.585 106.53 79.1421 106.458 64.4873C106.421 56.7142 105.745 51.067 96.7005 38.2136C96.2274 37.5421 95.6458 36.81 95.03 36.0349C92.2903 32.5875 88.5379 27.8659 89.3149 21.5824C90.0011 16.0364 94.08 10.4758 101.783 4.58228C103.101 3.57502 104.985 3.82574 105.993 5.14284C107.001 6.45995 106.75 8.34445 105.433 9.3522C99.1636 14.1475 95.7465 18.5103 95.2754 22.3199C94.8072 26.1021 97.3104 29.2524 99.7315 32.2986C100.403 33.1441 101.038 33.9432 101.611 34.7574C110.837 47.8678 112.416 54.5159 112.464 64.4579C112.539 79.9059 107.133 102.404 99.3161 119.169C95.4982 127.359 95.334 134.16 98.8284 139.384C103.905 146.976 115.764 150.01 124.671 149.614C135.293 149.142 143.221 147.981 150.888 146.86C164.366 144.888 176 143.185 196.279 146.481C197.916 146.747 199.027 148.289 198.761 149.926C198.495 151.563 196.947 152.677 195.316 152.408C175.956 149.262 165.277 150.824 151.758 152.802C144.307 153.892 135.863 155.127 124.937 155.613C124.331 155.64 123.713 155.654 123.089 155.654L123.089 155.654Z" fill="black"/>
<path d="M225.85 20.1187L238.652 34.3493L238.654 91.2091L220.849 120.209C217.683 118.815 214.483 114.636 211.266 109.144C202.301 90.0822 201.596 72.9166 202.1 55.599L203.166 38.7703L225.85 20.1187V20.1187Z" fill="white"/>
<path d="M361.539 252.894C362.122 255.95 360.117 258.9 357.061 259.483L199.402 291.299C192.834 295.567 168.38 288.684 169.139 284.22C163.102 235.649 160.013 190.007 161.777 149.187C161.194 146.131 163.198 143.181 166.255 142.598L324.838 113.58C327.894 112.997 330.844 115.002 331.427 118.058C347.829 166.999 365.122 224.248 361.539 252.894Z" fill="white"/>
<path d="M181.369 291.83C181.285 291.83 181.2 291.827 181.115 291.82C179.806 291.71 168.262 290.52 166.086 282.666C166.066 282.596 166.05 282.526 166.035 282.455C159.713 250.916 158.79 215.209 157.815 177.405C157.588 168.62 157.353 159.536 157.047 150.486C156.991 148.828 158.29 147.439 159.947 147.383C161.566 147.312 162.992 148.626 163.049 150.283C163.356 159.357 163.59 168.453 163.818 177.25C164.786 214.737 165.7 250.147 171.898 281.148C172.828 284.125 178.832 285.591 181.623 285.836C183.272 285.98 184.497 287.434 184.355 289.084C184.221 290.649 182.912 291.83 181.369 291.83Z" fill="black"/>
<path d="M196.841 293C193.992 293 191.436 290.979 190.869 288.085C190.189 284.603 189.245 279.031 188.052 271.976C182.532 239.344 172.258 178.604 159.059 150.463C158.953 150.236 158.875 149.997 158.827 149.751C158.395 147.485 158.871 145.186 160.168 143.278C161.464 141.371 163.426 140.081 165.692 139.649L324.298 110.627C328.891 109.752 333.361 112.735 334.339 117.305C344.537 149.647 356.706 193.344 360.334 219.183C360.565 220.825 359.42 222.343 357.778 222.573C356.127 222.809 354.617 221.66 354.387 220.017C350.804 194.505 338.698 151.087 328.564 118.962C328.529 118.85 328.501 118.736 328.479 118.622C328.207 117.196 326.82 116.258 325.401 116.53L166.796 145.552C166.128 145.68 165.53 146.072 165.135 146.654C164.798 147.15 164.642 147.733 164.686 148.323C178.14 177.371 188.432 238.215 193.973 270.975C195.16 277.987 196.096 283.526 196.763 286.931C196.772 286.975 196.817 287.001 196.854 286.993L356.498 256.534C357.923 256.262 358.861 254.881 358.589 253.456C358.571 253.356 358.556 253.253 358.547 253.151L357.206 237.523C357.064 235.871 358.289 234.417 359.941 234.275C361.611 234.134 363.048 235.358 363.19 237.01L364.519 252.5C365.306 257.117 362.245 261.551 357.624 262.433L197.98 292.892C197.598 292.964 197.216 293 196.841 293H196.841Z" fill="black"/>
<path d="M210.478 147.623C208.834 147.623 207.493 146.298 207.477 144.65L207.013 98.2664C206.837 80.4667 214.713 64.8721 227.078 58.5378C233.454 55.2727 240.388 54.7566 247.141 57.0458C255.675 59.9385 262.972 66.9961 267.689 76.9181C267.71 76.9621 267.729 77.0061 267.748 77.0506L290.065 130.518C290.703 132.049 289.981 133.807 288.45 134.446C286.924 135.085 285.162 134.363 284.523 132.832L262.234 79.4321C258.221 71.0237 252.178 65.094 245.214 62.733C240.033 60.978 234.711 61.3748 229.817 63.8825C219.617 69.1074 212.866 82.9011 213.019 98.2068L213.482 144.59C213.499 146.249 212.167 147.606 210.51 147.623H210.478L210.478 147.623Z" fill="black"/>
<path d="M227.629 34.299C240.842 25.2356 230.472 7.92764 212.661 3.29425C203.453 -0.834964 186.469 11.6203 181.122 16.968C175.775 22.3157 172.875 68.4626 183.84 76.1371C186.72 78.2967 187.839 74.3886 196.236 71.0322C203.613 51.5424 214.986 42.9708 227.629 34.299H227.629Z" fill="#2D8C3C"/>
<path d="M197.688 74.7174C196.185 74.7174 194.887 73.5909 194.71 72.0617C193.13 58.5046 207.608 42.0503 222.518 33.9752C227.213 31.4324 230.315 28.3432 230.813 25.7114C230.959 24.9422 231.002 23.7404 229.701 22.196C226.59 18.5008 221.35 13.9875 221.297 13.942C220.039 12.8615 219.895 10.9657 220.976 9.70775C222.056 8.44978 223.953 8.30708 225.211 9.38715C225.44 9.58411 230.874 14.2656 234.295 18.3278C236.446 20.8828 237.283 23.8225 236.713 26.8291C235.858 31.3473 231.832 35.761 225.378 39.2563C208.851 48.2068 199.687 62.8933 200.674 71.3668C200.866 73.0137 199.687 74.5048 198.04 74.6969C197.921 74.7106 197.804 74.7174 197.688 74.7174Z" fill="black"/>
<path d="M147.603 35.5821C146.683 35.5821 145.763 35.5201 144.841 35.3901C137.571 34.3667 132.338 28.8329 127.279 23.4814C125.73 21.8432 124.128 20.1493 122.504 18.6274C121.294 17.4931 121.232 15.593 122.367 14.3829C123.499 13.1733 125.399 13.1107 126.611 14.2455C128.367 15.8916 130.032 17.6524 131.642 19.3551C136.192 24.1676 140.49 28.7132 145.677 29.4433C152.937 30.4662 161.24 25.2393 170.853 19.1855C179.304 13.8639 188.882 7.83206 200.452 4.10555C202.03 3.59582 203.724 4.46428 204.231 6.04285C204.739 7.62142 203.872 9.31337 202.294 9.82164C191.443 13.3165 182.204 19.1342 174.053 24.2673C164.48 30.2956 156.085 35.5821 147.603 35.5821H147.603Z" fill="black"/>
<path d="M154.902 81.5295C154.037 81.5295 153.178 81.1575 152.585 80.4381C145.82 72.2433 143.511 58.9457 146.376 44.7947C146.287 44.8363 146.188 44.8939 146.084 44.9736C139.55 49.9796 134.876 56.2113 132.191 63.4956C130.172 68.9732 130.094 73.0321 130.094 73.0726C130.071 74.7269 128.672 76.0519 127.061 76.0401C125.407 76.0235 124.078 74.6776 124.088 73.0238C124.093 72.2535 124.417 54.0106 142.432 40.2066C144.733 38.4438 147.766 38.1941 149.979 39.5874C151.954 40.8317 152.862 43.1214 152.349 45.564C150.312 55.2568 150.52 68.5036 157.216 76.6154C158.271 77.8943 158.091 79.7867 156.812 80.8423C156.252 81.3041 155.575 81.5294 154.902 81.5294V81.5295Z" fill="black"/>
<path d="M263.283 56.4818C259.537 74.3646 263.922 114.051 241.505 122.626C214.851 132.822 211.987 102.537 215.842 91.183C217.612 85.9717 217.837 89.8992 219.479 86.6088C232.885 84.3406 235.774 62.9515 238.14 49.36C241.944 35.9319 267.087 43.0538 263.283 56.4819V56.4818Z" fill="white"/>
<path d="M236.349 51.6011C236.664 49.796 236.881 48.0636 236.994 46.4568C231.994 19.3955 258.977 0.00919645 276.178 6.77005C286.236 10.7228 282.577 27.2086 279.738 35.1606C276.9 43.1126 272.506 49.6785 261.549 58.4471C261.53 58.5364 261.512 58.632 261.493 58.723C253.022 57.7409 244.26 55.3305 236.349 51.6011V51.6011Z" fill="white"/>
<path d="M231.137 128.891C227.314 128.892 223.454 127.91 219.995 126C218.544 125.198 218.018 123.371 218.819 121.919C219.621 120.469 221.449 119.941 222.9 120.743C226.816 122.907 231.404 123.466 235.482 122.277C240.543 120.803 244.867 116.829 248.335 110.468C253.797 100.444 255.386 84.4876 256.544 72.837C257.658 61.6394 258.259 56.6007 260.829 54.5041C266.54 49.8456 272.923 43.7683 276.965 34.0115C280.29 25.9843 280.684 17.8871 277.967 13.3816C276.381 10.7499 273.813 9.30274 270.119 8.9582C261.308 8.14009 252.787 11.5675 246.73 18.369C240.254 25.6422 237.776 35.6531 239.931 45.8351C240.555 48.7777 239.107 59.3625 236.894 68.0426C233.534 81.2273 229.059 88.934 223.595 90.9485C222.037 91.5208 220.313 90.7256 219.739 89.1695C219.166 87.6135 219.962 85.8873 221.517 85.3135C224.785 84.1093 228.331 77.2027 231.003 66.8384C233.489 57.2008 234.277 48.4874 234.051 47.0501C231.501 35.0095 234.485 23.0896 242.245 14.3752C249.477 6.2541 260.113 2.00076 270.676 2.97869C276.243 3.49771 280.544 6.02293 283.111 10.2812C286.891 16.5515 286.668 26.2814 282.513 36.31C277.965 47.2881 270.648 54.2314 264.746 59.0589C263.799 60.5715 263.091 67.6927 262.52 73.4313C261.31 85.5931 259.653 102.25 253.608 113.342C249.408 121.048 243.721 126.132 237.162 128.042C235.21 128.611 233.179 128.891 231.137 128.891L231.137 128.891Z" fill="black"/>
</svg>
