<svg width="315" height="280" viewBox="0 0 315 280" fill="none" xmlns="http://www.w3.org/2000/svg">
<path d="M120.364 41.0935C90.1825 45.5319 89.5325 67.4685 68.0063 71.4631C68.0063 71.4631 65.3276 110.387 68.4345 119.264C71.5413 128.14 79.9743 133.412 91.9579 143.62C101.769 155.09 108.113 169.738 113.807 152.335C119.501 134.932 121.693 92.8312 124.457 81.491C133.291 45.2322 120.364 41.0935 120.364 41.0935L120.364 41.0935Z" fill="#2D8C3C"/>
<path d="M93.2932 57.8556C92.3088 57.8556 91.344 57.3717 90.7692 56.4836C89.8679 55.0911 90.2667 53.2318 91.6588 52.3309C94.3891 50.564 96.8398 48.8337 99.2094 47.1602C106.727 41.8511 112.683 37.6447 120.15 37.6447C120.234 37.6447 120.317 37.6451 120.402 37.6461C122.06 37.6671 123.387 39.0289 123.367 40.6873C123.345 42.3325 122.005 43.6522 120.365 43.6522C120.296 43.6522 120.227 43.6507 120.159 43.6507C114.589 43.6507 109.58 47.188 102.674 52.066C100.255 53.7738 97.7548 55.5403 94.9218 57.3732C94.4174 57.6997 93.8524 57.8556 93.2932 57.8556L93.2932 57.8556Z" fill="black"/>
<path d="M104.473 253.588C104.399 253.588 104.325 253.586 104.251 253.581C102.597 253.459 101.353 252.02 101.474 250.366C101.63 248.247 101.823 245.656 102.045 242.682C104.237 213.308 109.37 144.521 107.605 126.811C106.23 113.027 106.86 95.5355 107.357 86.3357C107.447 84.6797 108.858 83.4099 110.519 83.4993C112.175 83.5888 113.445 85.0043 113.356 86.6603C112.867 95.688 112.247 112.831 113.581 126.215C115.399 144.445 110.238 213.599 108.035 243.129C107.813 246.1 107.619 248.688 107.465 250.804C107.35 252.384 106.032 253.588 104.473 253.588L104.473 253.588Z" fill="black"/>
<path d="M206.657 256.732C205.086 256.732 203.764 255.51 203.662 253.92C202.531 236.18 200.851 220.808 199.357 208.111C197.663 193.708 197.14 141.946 199.534 126.687C199.791 125.048 201.332 123.93 202.966 124.186C204.605 124.443 205.725 125.98 205.468 127.618C203.186 142.162 203.701 193.63 205.322 207.409C206.826 220.185 208.516 235.656 209.657 253.538C209.762 255.193 208.506 256.621 206.851 256.726C206.786 256.73 206.721 256.732 206.657 256.732Z" fill="black"/>
<path d="M126.121 36.2143C126.121 36.2143 132.866 29.8096 148.848 29.8096C170.818 29.8096 196.025 39.2102 189.701 46.8665C183.376 54.5227 102.819 62.1789 126.121 36.2143Z" fill="white"/>
<path d="M218.887 141.456C208.654 68.9756 195.018 42.4706 195.018 42.4706C181.328 26.8058 163.569 45.7976 147.736 44.7002C138.021 44.0267 130.128 40.2068 128.796 36.5451C127.439 32.8125 123.611 35.2063 120.4 37.5438C112.743 59.5138 92.8345 79.7239 93.7329 97.0396C94.6313 114.355 88.5545 155.419 88.4068 156.514C78.8363 227.504 64.8354 244.951 77.3164 256.74C102.166 280.212 147.89 279.7 163.416 273.555C195.372 260.905 221.178 267.785 229.246 270.67C237.315 273.555 225.023 184.914 218.887 141.456V141.456Z" fill="#2D8C3C"/>
<path d="M93.0418 271.493C92.641 271.493 92.2343 271.412 91.8433 271.241C74.5983 263.718 66.771 254.255 68.5775 243.115C72.8152 216.977 82.6044 178.266 83.2457 175.738L83.8684 171.963C87.241 151.527 90.7299 130.395 89.0573 114.789C88.8813 113.14 90.0749 111.66 91.724 111.483C93.3517 111.306 94.8532 112.5 95.0301 114.149C96.7887 130.567 93.2324 152.109 89.7943 172.941L89.1511 176.84C89.1374 176.926 89.1198 177.012 89.0983 177.097C88.9957 177.497 78.8242 217.449 74.5054 244.076C73.1945 252.163 79.835 259.45 94.2442 265.736C95.7643 266.399 96.4593 268.169 95.7965 269.69C95.3038 270.819 94.2002 271.493 93.0418 271.493H93.0418Z" fill="black"/>
<path d="M227.713 273.312C227.244 273.312 226.743 273.275 226.211 273.194C224.571 272.944 223.444 271.412 223.694 269.773C223.945 268.133 225.475 267.009 227.116 267.257C228.18 267.418 228.451 267.148 228.541 267.059C228.862 266.735 230.387 264.641 228.859 255.216C226.935 243.357 225.044 221.367 223.043 198.087C220.461 168.049 217.791 136.989 214.886 125.804C214.468 124.199 215.431 122.56 217.037 122.142C218.64 121.727 220.282 122.688 220.698 124.294C223.732 135.969 226.424 167.286 229.027 197.572C231.019 220.737 232.9 242.618 234.787 254.255C236.235 263.189 235.626 268.442 232.808 271.286C231.844 272.259 230.221 273.312 227.713 273.312H227.713Z" fill="black"/>
<path d="M134.202 280C126.549 280 119.043 279.309 112.079 277.916C110.452 277.591 109.397 276.009 109.723 274.382C110.049 272.757 111.63 271.702 113.256 272.026C128.512 275.077 146.533 274.57 162.705 270.636C185.696 265.044 209.66 260.191 227.777 267.437C229.317 268.053 230.066 269.801 229.45 271.341C228.835 272.881 227.083 273.63 225.547 273.014C209.075 266.425 186.173 271.11 164.125 276.472C154.49 278.816 144.22 280 134.202 280H134.202Z" fill="black"/>
<path d="M151.073 46.9725C150.608 46.9725 150.146 46.9661 149.683 46.9529C140.446 46.6914 132.089 43.6996 126.754 38.7449C125.538 37.6163 125.467 35.7164 126.596 34.5008C127.724 33.2862 129.625 33.2144 130.84 34.3439C139.33 42.2264 158.456 44.5393 177.183 33.3038C178.605 32.4499 180.451 32.9118 181.303 34.3337C182.157 35.756 181.695 37.6006 180.274 38.4536C170.963 44.0403 160.896 46.9725 151.073 46.9725L151.073 46.9725Z" fill="black"/>
<path d="M243.101 135.008C235.277 125.618 248.499 121.871 241.045 109.041C232.909 95.0385 225.902 81.6127 222.003 74.4932C215.774 63.1179 207.392 51.8065 203.788 47.0081C199.726 41.6019 193.193 39.0679 189.363 38.7198C170.367 36.9933 170.334 59.2002 176.024 79.1077C180.549 94.9404 198.618 158.775 221.995 163.744C243.965 142.44 244.371 136.531 243.101 135.008Z" fill="#2D8C3C"/>
<path d="M226.105 83.7876C224.941 83.7876 223.832 83.1053 223.344 81.9669C211.751 54.9209 205.166 50.3704 195.699 46.0902C194.188 45.4069 193.517 43.6282 194.201 42.1169C194.884 40.6056 196.663 39.9326 198.174 40.6179C208.649 45.3536 216.444 50.6261 228.865 79.6003C229.518 81.1248 228.812 82.8902 227.287 83.5437C226.902 83.7089 226.5 83.7876 226.105 83.7876V83.7876Z" fill="black"/>
<path d="M258.051 101.287C261.091 93.2281 263.863 88.5692 266.758 87.9663C282.607 79.0234 314.045 66.4097 311.409 58.8793C305.94 39.6516 279.905 38.6246 263.491 45.8749C246.949 46.8546 254.572 34.658 247.898 31.653C241.225 28.6479 232.136 29.0256 240.348 70.1926C243.508 77.9947 237.451 93.9182 232.567 96.7576C227.683 99.5971 255.101 109.106 258.051 101.287V101.287Z" fill="white"/>
<path d="M259.282 106.014C258.965 106.014 258.644 105.963 258.327 105.857C256.754 105.329 255.907 103.627 256.435 102.055C259.622 92.5538 262.081 87.7833 264.921 85.5892C265.014 85.5183 265.11 85.4523 265.21 85.3922C273.483 80.4194 282.861 74.7833 300.334 67.6994C300.375 67.6828 300.417 67.6672 300.458 67.6525C304.034 66.3832 308.257 64.0742 308.068 60.2837C307.815 55.2307 300.522 48.7192 293.062 46.8849C280.519 43.8021 270.824 44.6345 262.542 49.5057C261.148 50.3254 259.625 50.5394 258.134 50.123C254.558 49.1259 252.203 44.765 249.708 40.148C248.385 37.7007 245.925 33.1448 244.661 32.8066C241.883 32.9366 239.188 33.0544 239.441 45.8203C239.659 56.8662 241.852 66.1578 243.141 70.7137L243.229 71.0295C243.652 72.6322 242.697 74.2725 241.095 74.6973C239.491 75.1259 237.849 74.166 237.422 72.5647L237.361 72.3482C235.995 67.5147 233.667 57.6565 233.436 45.9391C233.258 36.926 233.949 27.2712 244.475 26.8118C249.208 26.5957 252.153 32.0378 254.992 37.2931C256.191 39.5121 258.38 43.5626 259.6 44.267C269.192 38.6822 280.6 37.6357 294.495 41.0528C303.601 43.2914 313.639 51.4324 314.066 59.9836C314.235 63.3567 312.958 69.5651 302.531 73.2896C285.653 80.1364 276.512 85.6068 268.48 90.4349C266.8 91.8577 264.664 96.4073 262.129 103.965C261.708 105.22 260.537 106.014 259.282 106.014Z" fill="black"/>
<path d="M270.919 105.621C258.936 124.593 246.546 155.072 228.727 159.663C206.475 165.398 195.281 126.542 200.401 115.699C202.752 110.722 206.684 109.916 208.689 106.834C220.343 90.5888 228.774 60.7782 236.202 76.0092C241.565 104.077 276.224 92.7103 270.919 105.621Z" fill="#2D8C3C"/>
<path d="M261.473 124.741C260.794 124.741 260.111 124.511 259.549 124.042C258.276 122.978 258.107 121.084 259.171 119.811L260.248 118.53C266.408 111.218 269.914 106.438 266.674 101.736C265.107 99.4616 262.12 98.8584 257.377 98.0627C248.798 96.6233 237.049 94.652 231.425 75.2925C230.963 73.7001 231.879 72.0339 233.471 71.571C235.066 71.1066 236.73 72.0251 237.193 73.617C241.765 89.3532 250.207 90.7697 258.371 92.1397C263.366 92.9775 268.529 93.8436 271.62 98.3286C277.694 107.143 270.567 115.602 264.842 122.399L263.779 123.664C263.185 124.374 262.332 124.741 261.473 124.741L261.473 124.741Z" fill="black"/>
<path d="M211.804 106.596C211.466 106.596 211.124 106.539 210.789 106.419C209.228 105.858 208.416 104.139 208.978 102.578C210.769 97.5855 220.197 72.5313 229.809 69.5898C232.021 68.9119 234.178 69.2765 236.043 70.6427C237.381 71.6227 237.672 73.502 236.691 74.8403C235.712 76.179 233.832 76.4669 232.495 75.4884C232.165 75.2474 231.955 75.2132 231.567 75.333C228.572 76.249 221.338 85.937 214.63 104.608C214.19 105.833 213.034 106.596 211.804 106.596V106.596Z" fill="black"/>
<path d="M226.511 164.367C225.68 164.367 224.888 164.316 224.141 164.229C214.007 163.05 205.467 154.576 203.196 148.913C202.579 147.373 203.327 145.625 204.866 145.008C206.41 144.392 208.155 145.14 208.772 146.678C210.237 150.336 216.859 157.335 224.835 158.263C230.718 158.948 235.966 156.073 240.434 149.72C246.106 141.652 249.053 135.991 251.42 131.442C253.862 126.749 255.791 123.043 259.391 119.575C260.586 118.425 262.485 118.459 263.637 119.654C264.788 120.849 264.752 122.75 263.558 123.901C260.666 126.687 259.107 129.682 256.748 134.214C254.298 138.921 251.249 144.78 245.347 153.175C239.042 162.142 231.972 164.367 226.511 164.367H226.511Z" fill="black"/>
<path d="M301.464 73.487C300.228 73.487 299.071 72.7186 298.634 71.4874C298.078 69.9243 298.897 68.2077 300.459 67.653C304.231 66.3137 308.691 63.9016 308.514 60.0143C308.285 54.978 301.197 48.9626 293.037 46.8789C280.827 43.761 270.851 44.6193 262.543 49.5061C261.112 50.3463 259.271 49.8688 258.433 48.4401C257.592 47.0104 258.069 45.1697 259.499 44.329C269.241 38.5995 280.696 37.5286 294.523 41.0596C304.042 43.4902 314.122 51.1425 314.514 59.7411C314.669 63.1577 313.312 69.4639 302.469 73.313C302.136 73.4308 301.797 73.487 301.464 73.487V73.487Z" fill="black"/>
<path d="M67.5075 166.574C67.5075 166.574 47.5023 164.125 48.0517 137.637C48.6011 111.149 47.3306 102.682 47.965 93.277C48.8842 79.6513 90.6551 81.3629 100.209 91.1295C105.691 96.7342 104.446 103.224 102.752 112.683C101.057 122.143 95.3938 169.049 67.5075 166.574H67.5075Z" fill="#2D8C3C"/>
<path d="M73.3969 169.465C72.2434 169.466 71.215 169.339 70.3674 169.14C61.2586 168.234 44.5727 160.543 45.0497 137.574C45.2677 127.032 44.7457 119.371 44.3264 113.216C43.6773 103.69 43.2481 97.3974 46.0126 89.2876C46.5483 87.7176 48.2591 86.8789 49.8241 87.4141C51.3941 87.9493 52.2328 89.6556 51.6981 91.2256C49.3226 98.1931 49.697 103.694 50.3188 112.808C50.746 119.081 51.2787 126.89 51.0539 137.699C50.572 160.963 70.3039 163.101 71.1446 163.18C71.3078 163.196 71.4809 163.226 71.6402 163.268C71.952 163.344 80.01 165.165 85.5655 154.981C86.3593 153.525 88.1824 152.989 89.6399 153.783C91.0965 154.577 91.6322 156.401 90.8384 157.857C85.8148 167.067 78.4235 169.465 73.3969 169.465Z" fill="black"/>
<path d="M88.2001 159.423C87.6488 159.423 87.0916 159.272 86.592 158.954C85.1932 158.065 84.7797 156.209 85.6673 154.809C85.7689 154.649 95.8896 138.523 99.8975 116.874C100.199 115.243 101.759 114.165 103.397 114.468C105.029 114.769 106.106 116.336 105.804 117.967C101.574 140.813 91.1758 157.34 90.7359 158.032C90.1631 158.931 89.1923 159.423 88.2001 159.423Z" fill="black"/>
<path d="M92.3541 2.20919L62.947 0.0213426C58.4601 -0.312476 55.57 3.30977 56.5247 8.07078L69.0639 70.6081C70.0185 75.3691 74.4706 79.5376 78.9575 79.8714L108.365 82.0593C112.852 82.3931 115.742 78.7708 114.787 74.0098L102.248 11.4725C101.293 6.7115 96.841 2.54301 92.3541 2.20919Z" fill="black"/>
<path d="M76.0051 15.9791L66.8996 15.3017C64.9316 15.1553 62.9789 13.3269 62.5602 11.2387L62.2818 9.84998C61.8631 7.76179 63.1307 6.17307 65.0986 6.31948L74.2041 6.99691C76.1721 7.14332 78.1248 8.97164 78.5435 11.0598L78.822 12.4486C79.2407 14.5368 77.9731 16.1255 76.0051 15.9791Z" fill="#82BE28"/>
<path d="M75.4268 103.071C60.7208 97.0117 55.6981 84.9902 52.4505 72.3724C52.1268 71.1148 47.1582 44.4012 63.5288 38.0376C63.5288 38.0376 66.6574 46.8441 66.7498 53.1788C70.503 51.5791 74.9922 50.706 79.9828 51.7286C94.6847 54.741 106.588 74.6231 107.702 77.543C120.185 110.26 89.8367 109.009 75.4268 103.071H75.4268Z" fill="white"/>
<path d="M92.1624 109.39C85.6226 109.391 78.9615 107.775 74.283 105.848C58.2403 99.2381 52.9117 86.2122 49.542 73.1208C49.2537 72.001 47.9564 64.6644 48.7414 56.8205C49.848 45.7551 54.5862 38.292 62.4409 35.2386C63.1965 34.9448 64.0402 34.9688 64.7792 35.3075C65.5172 35.6452 66.0872 36.2675 66.3589 37.0324C66.4674 37.3389 68.5574 43.2702 69.404 49.0998C73.1148 48.1301 76.8608 48.023 80.5853 48.7865C97.149 52.1801 109.448 73.6951 110.507 76.4723C115.242 88.8809 114.654 98.0836 108.759 103.824C104.561 107.914 98.4159 109.39 92.1624 109.39ZM61.7507 42.3747C57.8327 45.1578 55.4777 50.1404 54.7358 57.2404C53.9449 64.8003 55.3477 71.5787 55.3624 71.6408C58.8024 85.0064 63.7283 95.0029 76.5704 100.294C84.5101 103.566 98.4452 105.488 104.569 99.5216C109.573 94.648 107.509 85.4619 104.896 78.6137C103.746 75.6018 92.2485 57.3074 79.379 54.6704C75.5851 53.8932 71.7316 54.3204 67.9279 55.9412C67.0061 56.3327 65.9513 56.2418 65.1125 55.6963C64.2738 55.1509 63.7616 54.2232 63.7469 53.2226C63.6961 49.746 62.6119 45.344 61.7507 42.3747H61.7507Z" fill="black"/>
</svg>
