<svg width="342" height="301" viewBox="0 0 342 301" fill="none" xmlns="http://www.w3.org/2000/svg">
<path d="M246.498 148.024C259.289 166.057 284.672 163.184 289.468 134.888C294.264 106.593 297.682 89.2214 303.225 87.4435C333.392 76.637 343.34 58.7843 335.891 40.2528C328.442 21.7212 315.659 26.3052 295.568 45.9635C279.234 48.6705 285.53 35.7531 278.584 33.4666C271.638 31.1802 262.647 32.5079 275.121 72.5511C279.079 79.9722 274.729 96.4286 270.174 99.7618C265.618 103.095 245.591 97.0567 245.591 97.0567L246.498 148.024L246.498 148.024Z" fill="white"/>
<path d="M89.8456 124.718C65.7304 147.622 45.2271 144.131 42.5182 125.71C38.3844 97.5993 41.6401 69.5356 35.6312 67.6694C12.6444 57.1666 0.1726 8.74927 30.0289 3.18703C47.1079 0.00521586 52.7335 17.0633 57.7185 31.8778C64.0419 34.5399 67.4448 31.336 74.9835 29.2427C82.5223 27.1494 81.9346 41.2125 63.9371 55.4079C60.7436 67.4059 67.1752 86.0203 72.11 89.3916C77.0449 92.7629 95.6796 71.5993 95.6796 71.5993L89.8456 124.718H89.8456Z" fill="white"/>
<path d="M120.569 58.8098C148.669 42.4849 202.24 46.3477 224.726 77.7038C176.856 125.478 124.764 100.231 120.569 58.8098Z" fill="white"/>
<path d="M264.713 96.3197C258.389 108.214 251.669 128.794 248.309 158.614C228.989 166.174 217.884 145.448 217.884 145.448C209.646 217.53 245.995 275.416 233.815 284.643C195.098 314.599 141.28 269.432 104.989 273.432C70.9442 277.185 68.1205 288.558 62.1843 265.406C59.9128 229.013 97.8547 136.101 97.8547 136.101C78.8826 144.212 69.4322 150.401 69.4322 150.401C51.6604 131.381 56.7742 87.5431 71.5869 77.4888C93.5509 79.2611 112.798 41.767 127.509 56.6654C135.958 65.2214 143.132 68.0285 143.132 68.0285C165.728 75.1518 162.095 58.8962 183.677 49.1146C205.259 39.3329 240.576 81.5692 249.223 88.1674C272.899 94.6446 264.713 96.3197 264.713 96.3197H264.713Z" fill="white"/>
<path d="M56.7816 142.286C54.587 142.286 52.4021 141.684 50.3882 140.496C44.069 136.769 39.6348 127.722 37.2067 113.606C36.485 109.407 36.2779 103.699 36.0591 97.6554C35.6577 86.61 35.1606 72.9026 31.1727 68.6188C14.5904 57.4015 6.66556 32.6135 11.1681 19.4194C14.2652 10.343 20.0013 3.68537 26.9046 1.15231C32.4424 -0.877245 38.2664 -0.217008 43.7555 3.06322C48.8635 6.11587 51.5338 12.4722 54.1162 18.619C56.3558 23.9498 58.6539 29.4608 61.6367 29.3343C62.13 29.1853 63.4514 28.4929 64.4272 27.9821C69.1846 25.491 78.0413 20.8512 82.6298 27.6939C87.6138 35.1261 77.1584 46.7707 67.492 56.0844C67.0369 56.5234 66.527 57.0147 66.3288 57.2198C65.4849 58.3362 63.9427 58.742 62.6359 58.1111C61.1425 57.3927 60.5145 55.5995 61.2334 54.1066C61.5244 53.5016 61.7999 53.2364 63.3284 51.7635C79.2328 36.4378 78.3079 32.0241 77.6457 31.0362C76.1787 28.8498 71.4906 31.0567 67.2117 33.2982C65.0288 34.4414 63.5862 35.1964 62.2228 35.3087C54.8868 35.9103 51.6764 28.3034 48.5842 20.943C46.3769 15.6894 44.0944 10.2565 40.6769 8.21428C36.7965 5.89464 32.7481 5.40043 28.9713 6.78636C23.7762 8.69238 19.3567 14.0031 16.8466 21.3572C13.1 32.3366 20.7837 54.5212 34.7601 63.7993C34.9183 63.9043 35.0668 64.0244 35.2016 64.1573C41.0569 69.9017 41.5647 83.9001 42.056 97.4376C42.267 103.274 42.4672 108.787 43.1216 112.589C45.8944 128.715 50.774 133.757 53.4364 135.327C55.1906 136.362 57.0014 136.566 58.82 135.934C60.3827 135.391 62.0948 136.218 62.6388 137.782C63.1838 139.347 62.3566 141.058 60.7909 141.602C59.4763 142.06 58.1265 142.286 56.7816 142.286H56.7816ZM66.6364 56.7159L66.6355 56.7183L66.6364 56.7159ZM66.6403 56.7085L66.6374 56.7139L66.6403 56.7085Z" fill="black"/>
<path d="M70.2829 281.566C70.0045 281.566 69.7222 281.527 69.441 281.445C64.619 280.038 56.8787 275.103 59.2111 257.87C63.7341 224.431 76.9166 182.298 88.548 145.125C95.8019 121.941 102.066 101.919 104.895 88.1901C105.23 86.5678 106.812 85.5228 108.439 85.8568C110.063 86.1913 111.107 87.7784 110.773 89.4012C107.883 103.424 101.576 123.579 94.2744 146.917C82.7152 183.863 69.6129 225.738 65.1572 258.675C64.2508 265.375 64.5497 273.766 71.1228 275.685C72.7129 276.149 73.6261 277.815 73.1622 279.406C72.7793 280.716 71.5819 281.566 70.2829 281.566Z" fill="black"/>
<path d="M225.617 234.525C224.251 234.525 223.015 233.585 222.696 232.196C218.569 214.254 211.761 173.846 215.525 149.338C215.776 147.701 217.312 146.58 218.946 146.828C220.583 147.08 221.708 148.612 221.456 150.25C219.87 160.573 219.312 190.705 228.544 230.851C228.916 232.466 227.908 234.076 226.293 234.448C226.067 234.5 225.84 234.525 225.617 234.525Z" fill="black"/>
<path d="M203.039 298.177C191.767 298.177 177.932 295.915 161.816 290.138C127.507 277.837 99.9598 269.37 83.5612 281.216C82.2172 282.185 80.341 281.883 79.3721 280.54C78.4013 279.197 78.7041 277.321 80.047 276.351C98.821 262.791 127.845 271.585 163.841 284.489C183.897 291.679 212.609 296.506 227.523 286.452C230.693 284.315 232.494 281.77 232.594 279.287C232.85 272.963 231.176 265.272 229.504 258.581C229.102 256.974 230.08 255.345 231.687 254.943C233.294 254.539 234.925 255.52 235.325 257.127C237.1 264.231 238.876 272.447 238.59 279.529C238.412 283.969 235.672 288.195 230.877 291.428C225.073 295.34 215.663 298.177 203.039 298.177Z" fill="black"/>
<path d="M252.765 91.9344C251.785 91.7566 248.016 90.6203 240.654 83.4567C218.42 61.8196 190.424 42.8288 178.526 54.4299C165.849 66.7948 154.994 72.4489 145.313 71.7071C138.015 71.1489 131.597 67.0649 125.693 59.2211C124.696 57.8972 124.961 56.016 126.285 55.0193C127.61 54.0231 129.489 54.2883 130.486 55.6122C135.294 61.9973 140.292 65.3049 145.771 65.7239C153.609 66.3177 162.964 61.2247 174.336 50.1344C192.669 32.2502 229.749 64.4718 244.839 79.1563C251.031 85.1815 253.953 86.0532 253.981 86.0616C253.885 86.0342 253.836 86.0303 253.836 86.0303L252.765 91.9344Z" fill="black"/>
<path d="M71.2275 153.872C70.118 153.872 69.029 153.612 67.9703 153.021C53.4586 144.915 53.1568 112.635 58.5178 92.4501C60.6968 84.2473 64.7247 74.4887 71.5469 74.4887H71.6172C71.8751 74.4916 72.1319 74.5273 72.381 74.5952C77.3367 75.9586 86.0264 70.0472 93.6934 64.8351C98.9431 61.2667 103.902 57.8967 108.339 56.205C109.887 55.6122 111.621 56.3925 112.211 57.9396C112.801 59.4882 112.025 61.2218 110.476 61.8122C106.695 63.2538 102.018 66.4325 97.0669 69.7981C88.1135 75.8834 78.8584 82.1733 71.332 80.5154C69.8279 80.8587 66.805 84.6243 64.3174 93.9903C61.737 103.704 60.7154 115.976 61.6491 126.016C62.701 137.308 65.9846 145.038 70.8964 147.782C72.338 148.592 77.6864 144.255 80.258 142.175C83.7438 139.355 87.0372 136.692 90.0796 136.056C91.7087 135.718 93.291 136.758 93.6299 138.379C93.9688 140.001 92.9286 141.591 91.3063 141.93C89.684 142.269 86.5498 144.804 84.0319 146.841C79.7423 150.31 75.3384 153.872 71.2275 153.872H71.2275Z" fill="black"/>
<path d="M242.561 165.474C242.085 165.474 241.601 165.435 241.111 165.356C227.687 163.191 221.323 155.741 215.169 148.537C211.225 143.921 207.5 139.561 201.912 136.457C200.463 135.652 199.942 133.825 200.747 132.377C201.551 130.928 203.377 130.406 204.826 131.211C211.359 134.841 215.615 139.822 219.731 144.639C225.68 151.603 230.818 157.617 242.067 159.432C242.925 159.573 243.606 159.353 244.282 158.731C246.045 157.111 247.174 153.22 246.907 149.679C246.001 137.647 244.484 117.51 266.335 92.5204C267.427 91.2722 269.324 91.1457 270.569 92.2367C271.817 93.3276 271.944 95.2229 270.854 96.4701C250.657 119.566 252.001 137.416 252.89 149.229C253.232 153.764 251.959 159.828 248.342 163.15C246.672 164.685 244.695 165.474 242.561 165.474V165.474Z" fill="black"/>
<path d="M268.469 162.199C261.37 162.199 254.789 157.939 248.137 153.156C246.792 152.188 246.485 150.314 247.453 148.968C248.419 147.623 250.294 147.316 251.641 148.284C258.181 152.988 264.551 157.118 270.565 156.006C274.853 155.214 278.921 151.812 283.004 145.608C287.161 139.29 289.817 125.707 292.161 113.723C295.124 98.5808 297.142 89.1054 301.152 85.2743C301.458 84.9803 301.826 84.7552 302.226 84.6141C313.046 80.7981 335.305 67.6255 335.047 51.2654C334.906 42.2945 332.542 35.925 328.39 33.3299C325.135 31.2945 321.625 32.1911 319.254 33.2996C315.503 35.0542 312.073 38.0083 308.756 40.8646C304.309 44.6942 299.711 48.6547 293.985 50.1598C288.401 51.6282 284.481 46.0274 281.017 41.0873C279.728 39.2491 276.715 34.9497 275.572 34.9497H275.564C272.743 35.3726 270.077 35.7721 271.666 48.4301C273.041 59.3739 276.193 68.3795 277.95 72.7731L278.073 73.0827C278.661 74.6308 277.882 76.3605 276.334 76.9495C274.784 77.5389 273.053 76.7605 272.462 75.2134L272.378 75.0015C270.514 70.3402 267.17 60.7872 265.713 49.1772C264.59 40.2405 264.265 30.5756 274.677 29.0154C279.386 28.3048 282.714 33.054 285.93 37.6425C287.797 40.3045 290.899 44.7572 292.459 44.3563C296.846 43.2033 300.729 39.8586 304.841 36.3176C308.465 33.1966 312.213 29.9691 316.71 27.8643C321.967 25.4045 327.245 25.5378 331.571 28.2413C337.507 31.9523 340.873 40.0954 341.048 51.1706C341.34 69.7835 319.35 84.7044 304.931 90.0176C302.259 93.3608 300.029 104.763 298.051 114.875C295.481 128.015 292.824 141.601 288.016 148.906C282.988 156.549 277.637 160.802 271.656 161.907C270.581 162.106 269.519 162.199 268.469 162.199H268.469Z" fill="black"/>
</svg>
