<svg width="300" height="251" viewBox="0 0 300 251" fill="none" xmlns="http://www.w3.org/2000/svg">
<path d="M126.056 9.37598C117.489 14.4109 111.123 23.8585 104.457 37.7734C94.9315 57.658 86.1529 81.0291 79.7568 102.447C73.3607 123.865 55.1728 168.228 46.7293 174.943C37.8826 181.979 24.3543 184.708 20.1922 185.327C16.4789 185.88 7.16363 186.755 4.6923 193.539C2.22097 200.323 7.03567 206.472 13.5341 208.513C18.1058 209.949 29.0688 211.91 36.2592 205.808C43.4495 199.705 48.7957 197.33 52.1262 201.107C55.636 205.088 53.7285 209.917 59.8545 213.906C65.9804 217.895 73.3859 213.693 74.029 206.964L78.5689 196.876C79.884 192.704 80.6433 183.4 79.9083 177.455C78.5012 166.074 85.9385 148.523 98.583 119.319L126.056 9.37598Z" fill="white"/>
<path d="M64.9336 218.448C62.6113 218.448 60.2846 217.766 58.2182 216.42C53.6645 213.455 52.6049 209.951 51.7534 207.136C51.2607 205.506 50.8716 204.219 49.8774 203.092C48.2348 201.228 44.3066 202.914 38.2016 208.095C28.9458 215.951 15.2817 212.205 12.6362 211.376C8.05954 209.939 4.33347 206.884 2.41403 202.996C0.773408 199.673 0.586878 196.047 1.87448 192.513C4.80661 184.465 14.3969 183.116 19.0058 182.468L19.7524 182.361C21.3676 182.12 35.7988 179.805 44.8633 172.596C52.1772 166.779 70.1743 124.056 76.8833 101.589C83.6328 78.9895 92.4648 55.8655 101.753 36.4778C109.37 20.5783 116.184 11.6999 124.537 6.79026C125.964 5.95042 127.803 6.42796 128.643 7.85667C129.482 9.28489 129.005 11.1233 127.577 11.9631C120.331 16.2219 114.226 24.3288 107.164 39.07C98.0068 58.1848 89.2949 80.9973 82.6323 103.306C77.0195 122.101 58.3413 169.543 48.5976 177.291C38.5224 185.305 23.5366 187.864 20.6347 188.296L19.8413 188.409C16.1259 188.932 9.21041 189.905 7.51217 194.567C6.78854 196.553 6.88326 198.495 7.7944 200.34C8.97458 202.731 11.457 204.717 14.434 205.652C15.7324 206.06 27.3183 209.464 34.3188 203.521C38.0634 200.342 48.0083 191.903 54.3774 199.123C56.2363 201.232 56.9057 203.446 57.4966 205.4C58.2383 207.851 58.7739 209.622 61.4926 211.393C64.0683 213.07 66.3427 212.408 67.4707 211.865C69.4907 210.892 70.8266 208.952 71.0439 206.679C71.2011 205.03 72.6626 203.808 74.3154 203.978C75.9648 204.135 77.1743 205.6 77.0166 207.249C76.6045 211.566 73.9448 215.406 70.0761 217.27C68.4414 218.058 66.6884 218.448 64.9335 218.448H64.9336Z" fill="black"/>
<path d="M128.82 4.57885C111.299 2.42253 90.7505 40.2612 83.4346 48.2422C76.1187 56.2232 56.5732 84.8217 46.7821 94.8458C41.7838 99.963 48.6398 108.546 52.3398 110.865C62.4353 117.192 81.1812 129.382 87.8321 136.033C94.4829 142.684 109.37 132.407 115.058 115.021C120.746 97.6358 138.82 46.5714 141.58 35.2428C131.63 17.2051 140.829 16.1485 128.82 4.57886L128.82 4.57885Z" fill="#2D8C3C"/>
<path d="M218.664 112.071C208.44 39.6641 194.819 13.186 194.819 13.186C175.207 -7.69026 176.493 14.3617 143.265 12.1994C133.559 11.5267 131.851 9.13719 130.52 5.47924C129.164 1.75045 123.484 5.92897 120.276 8.26411C112.628 30.2118 92.5575 47.1422 90.5218 64.1464C88.0682 84.6417 86.8284 128.793 86.6809 129.887C77.1201 200.805 64.768 215.461 77.2364 227.238C102.061 250.687 147.739 250.175 163.248 244.036C195.172 231.399 219.991 237.79 228.052 240.672C230.505 241.549 234.283 235.445 232.015 223.497C226.235 193.057 222.927 142.269 218.664 112.071Z" fill="#2D8C3C"/>
<path d="M225.231 187.818C223.706 187.818 222.4 186.66 222.25 185.109C221.268 175.041 218.181 147.59 215.728 141.559C215.104 140.024 215.842 138.274 217.377 137.649C218.913 137.025 220.662 137.764 221.286 139.299C224.513 147.231 227.852 180.733 228.221 184.527C228.382 186.176 227.176 187.644 225.526 187.804C225.428 187.814 225.329 187.818 225.231 187.818L225.231 187.818Z" fill="black"/>
<path d="M92.947 241.977C92.5466 241.977 92.1393 241.896 91.7492 241.726C74.5212 234.211 66.7009 224.758 68.506 213.627C72.7394 187.519 82.5178 148.849 83.1603 146.32L83.7785 142.568C87.1501 122.145 90.6364 101.028 88.9655 85.432C88.7892 83.7846 89.9816 82.3061 91.6291 82.1293C93.2814 81.9662 94.7551 83.1469 94.9313 84.7934C96.6891 101.2 93.1349 122.727 89.6979 143.545L89.0598 147.42C89.0456 147.506 89.0275 147.591 89.006 147.676C88.904 148.077 78.7419 187.988 74.4289 214.588C73.1183 222.667 79.7526 229.948 94.1476 236.226C95.6667 236.888 96.3605 238.657 95.6984 240.175C95.2062 241.303 94.1037 241.977 92.947 241.977H92.947Z" fill="black"/>
<path d="M134.064 250.474C126.419 250.474 118.92 249.784 111.963 248.392C110.339 248.068 109.285 246.487 109.61 244.862C109.935 243.238 111.519 242.185 113.14 242.509C128.375 245.555 146.38 245.049 162.538 241.121C184.405 235.801 206.946 231.568 223.68 236.561C225.261 237.033 226 236.659 226.467 236.28C228.422 234.693 229.497 229.422 229.025 223.747C228.486 217.288 227.885 212.174 227.879 212.124C227.685 210.478 228.861 208.987 230.507 208.793C232.154 208.608 233.644 209.775 233.838 211.421C233.844 211.472 234.456 216.681 235.003 223.249C235.257 226.287 235.663 236.543 230.249 240.938C228.669 242.221 225.947 243.5 221.964 242.311C206.599 237.724 185.002 241.831 163.956 246.951C154.331 249.292 144.071 250.474 134.064 250.474L134.064 250.474Z" fill="black"/>
<path d="M87.8345 139.033C86.9224 139.033 86.0215 138.619 85.4321 137.833C77.5186 127.281 65.0269 120.522 55.9058 115.587C51.7046 113.314 48.3858 111.519 46.4527 109.823C43.9053 107.589 42.3208 104.312 42.1065 100.833C41.8911 97.3477 43.1045 93.9317 45.5225 91.2159C59.6387 76.376 72.3516 58.6817 79.9473 48.1094C81.939 45.337 83.6597 42.9424 85.0254 41.1216C86.4087 39.2769 87.855 37.3013 89.3506 35.2583C96.6739 25.2549 104.975 13.9161 113.288 7.6099C114.608 6.60795 116.49 6.8682 117.491 8.18705C118.492 9.50687 118.234 11.3887 116.914 12.3902C109.299 18.167 101.273 29.1299 94.1919 38.8028C92.6821 40.8648 91.2222 42.8589 89.8252 44.7212C88.4961 46.4932 86.7925 48.8648 84.8198 51.6104C77.1343 62.3077 64.27 80.212 49.9365 95.2784C48.2774 97.1446 48.0127 99.1348 48.0947 100.464C48.21 102.33 49.0752 104.143 50.4087 105.312C51.8345 106.563 55.0444 108.299 58.7612 110.311C67.8281 115.216 81.5298 122.63 90.2319 134.233C91.2261 135.559 90.9575 137.439 89.6318 138.434C89.0923 138.838 88.4604 139.033 87.8345 139.033H87.8345Z" fill="black"/>
<path d="M236.885 130.132C237.118 157.323 218.847 163.029 212.65 161.356C186.831 154.383 159.105 141.091 140.706 128.725C117.353 113.029 109.017 94.6988 109.452 89.5187C110.294 79.4697 116.016 60.5942 134.152 63.5838C160.624 67.9476 160.194 95.3135 162.451 98.7454C167.148 105.887 185.288 117.091 206.399 124.099C208.699 124.862 204.24 119.002 203.575 112.921C215.332 116.776 236.885 130.132 236.885 130.132V130.132Z" fill="white"/>
<path d="M215.659 164.672C214.556 164.672 213.553 164.547 212.688 164.316C181.767 156.074 152.217 137.932 140.948 130.515C120.575 117.106 109.713 105.493 107.738 95.0134C105.645 83.8982 108.64 72.4597 115.368 65.8709C120.485 60.8611 127.194 59.0544 134.769 60.6472C151.518 64.1687 159.231 74.8152 164.567 84.7654C166.421 88.2205 166.692 91.2986 166.93 94.0144C167.396 99.3054 167.764 103.485 181.569 110.403C183.05 111.145 183.65 112.947 182.907 114.428C182.165 115.91 180.359 116.511 178.882 115.766C163.287 107.952 161.614 102.04 160.954 94.5408C160.738 92.0896 160.551 89.9724 159.28 87.6013C152.552 75.0574 145.094 68.949 133.534 66.5183C127.933 65.3425 123.235 66.5652 119.567 70.157C114.312 75.3025 111.928 84.8445 113.635 93.9021C115.269 102.577 125.568 113.209 144.247 125.504C155.272 132.76 184.162 150.503 214.233 158.519C215.997 158.989 220.351 158.518 224.54 155.261C228.898 151.871 234.058 144.765 233.885 130.167C233.866 128.51 235.193 127.151 236.85 127.132H236.886C238.526 127.132 239.866 128.452 239.885 130.096C240.087 147.156 233.655 155.773 228.223 159.998C223.935 163.333 219.27 164.672 215.659 164.672V164.672Z" fill="black"/>
<path d="M142.6 131.01C142.553 131.01 142.506 131.009 142.459 131.007C140.804 130.93 139.524 129.526 139.601 127.871C140.02 118.787 146.402 103.439 162.265 98.3925C163.838 97.8866 165.53 98.7616 166.032 100.342C166.535 101.92 165.662 103.607 164.083 104.109C151.234 108.198 145.924 121.024 145.594 128.148C145.52 129.756 144.193 131.01 142.6 131.01Z" fill="black"/>
<path d="M262.552 116.096C264.025 114.77 267.281 108.609 265.822 107.269C245.714 88.8122 222.99 52.9956 215.12 39.5962C198.715 11.6627 189.758 3.12512 180.758 4.12512C161.819 6.22937 171.526 25.0847 177.21 44.9719C181.731 60.7886 196.517 116.688 206.397 124.098C224.922 114.836 242.13 134.481 262.552 116.096Z" fill="#2D8C3C"/>
<path d="M241.436 130.054C236.986 130.054 233.039 128.857 229.148 127.678C224.183 126.173 219.492 124.753 213.399 125.493C211.757 125.703 210.259 124.523 210.058 122.879C209.857 121.234 211.027 119.738 212.672 119.538C220.024 118.639 225.796 120.391 230.889 121.935C239.599 124.578 246.482 126.66 259.657 115.747C261.508 114.215 262.577 112.319 262.668 110.409C262.749 108.693 262.035 107.027 260.602 105.592C247.144 92.1024 236.323 74.745 225.86 57.9598C218.715 46.4984 211.967 35.6732 205.171 27.555L204.485 26.7352C200.9 22.4461 196.436 17.1082 192.539 13.5536C191.315 12.4369 191.228 10.5394 192.344 9.31527C193.462 8.09164 195.358 8.00326 196.582 9.12093C200.778 12.9486 205.386 18.4588 209.089 22.8865L209.773 23.7034C216.836 32.1434 223.693 43.1414 230.951 54.786C241.237 71.286 251.873 88.3485 264.85 101.353C267.469 103.978 268.822 107.296 268.661 110.693C268.489 114.309 266.651 117.746 263.484 120.368C254.461 127.842 247.484 130.054 241.436 130.054L241.436 130.054Z" fill="black"/>
<path d="M183.547 151.798C182.056 151.798 180.764 150.687 180.574 149.17C179.918 143.917 185.643 130.08 194.222 122.326L180.474 116.454C171.972 122.177 166.355 135.87 166.767 139.164C166.973 140.807 165.807 142.307 164.163 142.512C162.524 142.719 161.019 141.552 160.814 139.908C160.05 133.801 167.698 116.689 178.754 110.47C179.566 110.011 180.545 109.959 181.403 110.326L201.402 118.869C202.453 119.317 203.157 120.324 203.219 121.465C203.281 122.605 202.69 123.682 201.694 124.243C192.539 129.392 186.093 144.949 186.527 148.426C186.733 150.07 185.566 151.569 183.923 151.774C183.797 151.79 183.671 151.798 183.547 151.798Z" fill="black"/>
<path d="M132.788 122.876C131.515 122.876 130.334 122.059 129.929 120.781C126.121 108.767 131.371 97.4354 134.839 91.7489C140.098 83.1297 147.801 76.6297 154.007 75.575C155.651 75.3055 157.191 76.3973 157.468 78.0301C157.746 79.6639 156.646 81.2127 155.013 81.4911C151.195 82.1395 144.798 86.9452 139.962 94.8739C134.964 103.067 133.392 111.848 135.649 118.969C136.149 120.548 135.275 122.234 133.695 122.734C133.394 122.83 133.088 122.876 132.788 122.876V122.876Z" fill="black"/>
<path d="M117.22 110.034C115.765 110.034 114.488 108.974 114.259 107.492C112.062 93.2645 116.03 80.2079 125.147 71.6688C131.359 65.8514 138.928 63.2342 145.4 64.6727C147.017 65.0321 148.037 66.6346 147.677 68.2518C147.318 69.87 145.713 70.8905 144.098 70.5301C139.635 69.536 133.942 71.6522 129.249 76.0487C125.631 79.4374 117.505 89.1962 120.189 106.576C120.442 108.214 119.319 109.746 117.682 109.999C117.527 110.023 117.372 110.034 117.22 110.034H117.22Z" fill="black"/>
<path d="M150.655 16.0945C150.191 16.0945 149.73 16.0881 149.268 16.075C140.04 15.8137 131.691 12.8255 126.361 7.87526C125.147 6.74782 125.077 4.84987 126.204 3.63551C127.331 2.42115 129.229 2.35084 130.444 3.47877C138.923 11.3528 158.029 13.6648 176.739 2.43971C178.161 1.58717 180.003 2.04811 180.855 3.46852C181.708 4.88942 181.247 6.73219 179.827 7.58424C170.525 13.1658 160.469 16.0945 150.655 16.0945L150.655 16.0945Z" fill="black"/>
<path d="M193.224 117.935C192.853 117.935 192.476 117.866 192.111 117.719C190.573 117.104 189.825 115.358 190.44 113.82C191.774 110.484 189.516 90.1528 183.965 76.2778C183.35 74.7397 184.098 72.9937 185.636 72.3784C187.174 71.7632 188.921 72.5112 189.536 74.0493C194.974 87.6431 198.423 110.017 196.01 116.048C195.542 117.221 194.415 117.935 193.224 117.935V117.935Z" fill="black"/>
</svg>
