<svg width="300" height="256" viewBox="0 0 300 256" fill="none" xmlns="http://www.w3.org/2000/svg">
<path d="M76.7071 141.553C90.7039 143.12 101.871 143.063 109.51 147.177C115.198 129.791 142.409 44.3532 145.17 33.0245C135.219 14.9868 139.474 19.304 127.464 7.73438C103.959 13.5321 102.119 35.7696 89.482 42.4204C76.9088 67.667 41.6125 94.8269 51.6125 117.827C57.4566 127.39 66.8851 140.454 76.7071 141.553" fill="white"/>
<path d="M93.8769 54.4575C93.5829 54.4575 93.2841 54.4141 92.9882 54.3223C91.4062 53.8325 90.5204 52.1538 91.0097 50.5713C91.3417 49.4971 99.3388 24.1504 116.201 15.0298C117.66 14.2393 119.479 14.7842 120.267 16.2412C121.056 17.6987 120.514 19.5191 119.057 20.3071C104.359 28.2564 96.8163 52.105 96.7411 52.3452C96.3427 53.6314 95.1562 54.4575 93.8769 54.4575V54.4575Z" fill="black"/>
<path d="M218.669 116.665C208.446 44.2586 194.824 17.7805 194.824 17.7805C175.213 -3.09571 176.499 18.9563 143.27 16.794C133.565 16.1212 131.856 13.7317 130.526 10.0738C129.17 6.34501 127.62 9.4002 124.412 11.7353C116.764 33.683 96.112 51.8292 94.0764 68.8334C91.6228 89.3287 87.9441 133.153 87.7966 134.247C78.2357 205.166 64.7735 220.056 77.2419 231.833C102.066 255.281 147.744 254.769 163.254 248.63C186.25 239.527 206.058 240.548 218.352 242.908C227.59 244.682 231.753 242.543 231.669 233.424C231.433 207.971 223.298 149.449 218.669 116.665V116.665Z" fill="white"/>
<path d="M225.239 192.412C223.696 192.412 222.384 191.23 222.252 189.664C222.222 189.303 219.175 153.411 216.162 138.342C215.837 136.717 216.891 135.137 218.516 134.812C220.14 134.486 221.72 135.542 222.045 137.166C225.125 152.568 228.106 187.674 228.231 189.16C228.37 190.811 227.145 192.262 225.494 192.402C225.408 192.409 225.323 192.412 225.239 192.412H225.239Z" fill="black"/>
<path d="M41.7777 85.4226C34.241 89.1667 35.8957 91.0439 39.3389 98.5041C42.7821 105.964 65.165 141.033 80.0832 135.231C95.3851 132.939 90.607 112.04 85.4422 105.727C80.2774 99.4145 52.0308 79.9849 41.7777 85.4226H41.7777Z" fill="white"/>
<path d="M92.9513 246.571C92.5509 246.571 92.1446 246.49 91.754 246.319C74.5264 238.804 66.7071 229.351 68.5118 218.221C72.7452 192.111 82.5245 153.439 83.1651 150.913L83.7852 147.154C87.1554 126.735 90.6407 105.619 88.9698 90.0256C88.794 88.3781 89.9864 86.8996 91.6339 86.7233C93.2677 86.5417 94.7598 87.7384 94.9366 89.3869C96.6934 105.792 93.1407 127.316 89.7042 148.132L89.0645 152.014C89.0509 152.1 89.0333 152.186 89.0118 152.27C88.9093 152.67 78.7481 192.582 74.4337 219.182C73.1241 227.26 79.7579 234.541 94.1524 240.82C95.671 241.483 96.3653 243.251 95.7032 244.77C95.211 245.898 94.1085 246.571 92.9513 246.571V246.571Z" fill="black"/>
<path d="M134.069 255.069C126.423 255.069 118.926 254.379 111.969 252.988C110.344 252.662 109.29 251.082 109.616 249.457C109.941 247.832 111.529 246.782 113.145 247.104C128.383 250.152 146.386 249.645 162.544 245.715C185.281 240.184 203.785 238.327 217.547 240.196C220.815 240.639 225.381 241.041 227.307 239.412C227.644 239.128 228.668 238.262 228.771 235.089C229.007 227.747 227.608 217.74 226.118 212.308C225.681 210.711 226.621 209.06 228.219 208.622C229.815 208.184 231.467 209.124 231.906 210.722C233.49 216.503 235.032 227.075 234.767 235.282C234.642 239.157 233.436 242.088 231.181 243.994C227.491 247.113 221.808 246.83 216.741 246.141C203.907 244.399 185.657 246.268 163.962 251.545C154.337 253.886 144.077 255.069 134.069 255.069H134.069Z" fill="black"/>
<path d="M148.619 20.0336C139.059 20.0336 131.236 16.9921 126.365 12.4696C125.151 11.3427 125.08 9.44422 126.208 8.22986C127.334 7.01697 129.234 6.9447 130.448 8.07312C138.52 15.5668 156.699 17.1508 175.826 5.67224C177.248 4.8197 179.09 5.28015 179.943 6.70105C180.795 8.12195 180.334 9.96472 178.914 10.8168C167.97 17.3837 157.538 20.0336 148.619 20.0336Z" fill="black"/>
<path d="M183.902 11.3652C204.194 16.7488 223.043 44.1018 231.74 63.9797C240.436 83.8576 234.375 122.254 230.554 136.873C203.031 141.547 204.227 131.106 195.116 123.238C186.005 115.37 183.902 11.3652 183.902 11.3652Z" fill="white"/>
<path d="M25.0879 16.1894L41.3647 6.39372C58.8016 5.78818 72.5059 18.0886 72.5059 18.0886C98.7585 4.96232 121.695 12.9106 132.199 20.4988C132.942 31.6481 137.907 79.7313 137.288 84.6956C136.669 89.6598 129.459 93.3073 129.459 93.3073L52.0368 51.8691L25.0879 16.1894Z" fill="white"/>
<path d="M44.262 79.8378C44.262 79.8378 23.8689 16.1541 23.5753 14.3926C23.2817 12.6311 36.1141 13.7654 44.6778 16.4902C54.5675 19.637 60.5655 27.3494 60.5655 27.3494C80.5291 23.8264 114.787 22.6741 122.653 34.9559C126.129 70.0161 128.215 96.208 128.215 96.208C100.624 90.1627 74.3639 87.292 74.3639 87.292L44.262 79.8378V79.8378Z" fill="white"/>
<path d="M41.1553 78.96C39.8555 78.96 38.6582 78.1094 38.2764 76.7988C35.5361 67.4043 19.9512 13.8955 19.9512 13.8955L25.7109 12.2178C25.7109 12.2178 41.2959 65.7246 44.0361 75.1191C44.5 76.7095 43.5869 78.375 41.9961 78.8389C41.7158 78.9209 41.4326 78.96 41.1553 78.96H41.1553Z" fill="black"/>
<path d="M76.2944 88.8718C74.9018 88.8718 73.6528 87.8967 73.3598 86.4792L61.7992 30.6115C61.4633 28.989 62.5063 27.4016 64.1293 27.0656C65.7475 26.7336 67.3393 27.7737 67.6742 29.3957L79.2348 85.2634C79.5707 86.886 78.5278 88.4734 76.9047 88.8093C76.7006 88.8513 76.4955 88.8718 76.2944 88.8718Z" fill="black"/>
<path d="M127.893 98.6561C127.582 98.6561 127.27 98.6077 126.966 98.5096C113.644 94.1834 91.4298 91.8494 81.9445 90.8524C77.799 90.4168 77.1671 90.3421 76.6115 90.1566C75.0392 89.6322 74.1906 87.9329 74.715 86.3612C75.2169 84.8568 76.7873 84.0135 78.3117 84.4061C78.7853 84.4876 80.6261 84.681 82.5714 84.8856C91.338 85.8065 110.763 87.848 124.691 91.5872C124.179 81.5628 122.719 55.6209 120.409 35.7869C107.877 29.8299 88.5246 24.5955 65.1613 31.45C63.9415 31.805 62.6271 31.3582 61.8849 30.328C56.7609 23.2347 33.5587 12.5579 23.8019 15.8953C22.2335 16.4354 20.5294 15.595 19.9923 14.0281C19.4562 12.4603 20.2921 10.7547 21.8605 10.2186C33.8995 6.09796 57.2238 16.4593 65.3703 25.158C90.6564 18.3319 111.437 24.575 124.537 31.1248C125.438 31.575 126.053 32.4476 126.174 33.4476C129.234 58.7469 130.873 95.158 130.89 95.5228C130.934 96.5057 130.492 97.4476 129.71 98.0433C129.181 98.4461 128.54 98.6561 127.893 98.6561V98.6561ZM78.3517 84.4168C78.4044 84.4315 78.4572 84.4476 78.5099 84.4652C78.4718 84.4525 78.4191 84.4339 78.3517 84.4168Z" fill="black"/>
<path d="M29.0631 14.2553C28.6217 14.2553 28.1734 14.1576 27.7506 13.9511C26.2613 13.225 25.6422 11.4291 26.3688 9.93983C26.7438 9.16981 27.1324 8.37342 38.7193 0.517466C40.0914 -0.413194 41.9576 -0.0538236 42.8863 1.31679C43.816 2.68837 43.4576 4.55361 42.0865 5.48329C37.6715 8.47694 32.4537 12.1625 31.4381 13.0912C30.8639 13.8348 29.9781 14.2553 29.0631 14.2553ZM31.7613 12.5697L31.7604 12.5722L31.7613 12.5697Z" fill="black"/>
<path d="M72.5043 21.0893C71.8774 21.0893 71.2465 20.894 70.7065 20.4892C70.4096 20.267 70.0229 19.9643 69.5532 19.5951C65.0825 16.0859 53.2055 6.76361 40.226 5.99554C38.5717 5.89788 37.31 4.47747 37.4077 2.82366C37.5053 1.16985 38.9467 -0.100654 40.5795 0.00628627C55.433 0.885196 68.3832 11.0493 73.2582 14.8754C73.685 15.2109 74.0365 15.4872 74.3061 15.6894C75.6313 16.683 75.9008 18.5634 74.9067 19.8891C74.3168 20.6752 73.4164 21.0893 72.5043 21.0893V21.0893Z" fill="black"/>
<path d="M66.972 29.3799C66.1458 29.3799 65.3226 29.0406 64.7298 28.3746C63.6283 27.1373 63.7386 25.2408 64.9759 24.1392C65.5902 23.5928 66.4984 22.5938 67.4603 21.5357C70.6009 18.0816 72.8792 15.7276 75.2093 15.1153C88.1019 9.95708 113.857 6.97221 132.694 19.7422C134.065 20.6724 134.423 22.5376 133.493 23.9092C132.565 25.2793 130.699 25.6397 129.326 24.709C112.33 13.1856 88.8685 16.0362 77.2454 20.7632C77.0853 20.8287 76.9193 20.8799 76.7494 20.9165C75.7415 21.3462 73.2464 24.0904 71.8997 25.5723C70.8285 26.7505 69.8158 27.8638 68.9662 28.6206C68.3939 29.1294 67.682 29.3799 66.972 29.3799L66.972 29.3799ZM76.6908 20.9288L76.6576 20.9351L76.6908 20.9288Z" fill="black"/>
<path d="M176.917 101.741C175.429 117.737 161.04 110.725 144.243 89.7545C138.815 82.9786 135.007 61.4689 123.171 56.0214C114.098 51.8449 85.0446 52.936 91.4751 74.4205C95.096 86.5177 108.611 97.8085 120.029 104.396C128.138 109.074 150.761 147.079 171.314 149.934C184.763 151.802 203.111 133.881 208.824 120.899C209.343 111.552 185.226 95.5094 176.917 101.741V101.741Z" fill="white"/>
<path d="M217.796 126.775C217.77 126.775 217.745 126.774 217.72 126.774C211.871 126.628 207.889 121.638 203.672 116.355C197.638 108.795 190.799 100.226 176.586 99.7433C174.93 99.6872 173.633 98.2995 173.689 96.6437C173.745 94.9875 175.15 93.6598 176.789 93.7472C193.764 94.3229 202.201 104.894 208.361 112.612C211.968 117.131 214.816 120.699 217.87 120.776C219.526 120.817 220.835 122.193 220.794 123.85C220.753 125.48 219.418 126.775 217.796 126.775L217.796 126.775Z" fill="black"/>
<path d="M219.965 140.673C214.857 140.673 211.003 139.858 210.762 139.806C209.143 139.456 208.115 137.859 208.464 136.24C208.815 134.62 210.415 133.59 212.032 133.942C212.106 133.957 219.829 135.57 227.27 133.943C228.917 133.124 232.875 124.017 234.159 106.801C235.427 89.7729 233.319 73.6703 228.518 63.7265C223.595 53.5282 210.117 28.6879 191.34 18.3114C189.89 17.5102 189.365 15.685 190.166 14.2348C190.967 12.7851 192.793 12.2592 194.243 13.06C214.527 24.2699 228.749 50.4028 233.921 61.1181C244.441 82.9081 240.542 121.379 234.434 133.929C232.752 137.385 230.828 139.307 228.551 139.805C225.572 140.456 222.601 140.673 219.965 140.673H219.965Z" fill="black"/>
<path d="M168.866 99.5923C168.619 99.5923 168.368 99.5615 168.117 99.4971C166.512 99.0845 165.546 97.4492 165.959 95.8447C168.015 87.8482 172.104 81.4776 176.059 75.3169C180.676 68.1241 185.037 61.3306 186.24 52.1856C186.457 50.542 187.975 49.3911 189.606 49.6021C191.249 49.8184 192.405 51.3252 192.189 52.9678C190.811 63.4429 185.879 71.127 181.108 78.5581C177.24 84.5845 173.586 90.2769 171.769 97.3389C171.422 98.6929 170.203 99.5923 168.866 99.5923H168.866Z" fill="black"/>
<path d="M208.069 120.243C206.895 120.243 205.781 119.549 205.299 118.399C202.721 112.225 192.885 104.176 185.444 102.151C183.361 101.584 181.634 101.546 180.476 102.026C178.246 107.739 175.296 111.216 171.48 112.64C169.932 113.219 168.201 112.43 167.622 110.877C167.043 109.324 167.832 107.597 169.384 107.018C171.605 106.19 173.621 103.407 175.213 98.9718C175.412 98.4195 175.767 97.9376 176.237 97.5856C178.093 96.1935 181.468 94.8502 187.02 96.3614C196.218 98.8653 207.57 108.267 210.837 116.086C211.475 117.615 210.753 119.372 209.224 120.01C208.846 120.169 208.455 120.243 208.069 120.243L208.069 120.243Z" fill="black"/>
<path d="M173.026 153.041C172.126 153.041 171.411 152.976 170.899 152.905C155.662 150.788 142.076 133.105 132.157 120.193C128.182 115.02 124.428 110.134 122.365 108.807C105.03 97.664 92.7087 87.6479 88.9176 74.9843C86.2467 66.0624 88.5133 58.394 95.1364 53.9457C104.281 47.8027 119.448 49.4438 129.665 57.683C137.457 63.9672 140.561 73.2817 143.055 80.766C144.432 84.8979 145.733 88.8002 147.465 90.9613C152.516 97.2695 157.003 101.82 160.799 104.486C162.155 105.438 162.482 107.309 161.53 108.665C160.578 110.021 158.707 110.348 157.35 109.396C153.03 106.361 148.264 101.559 142.781 94.7123C140.38 91.7148 138.982 87.5199 137.363 82.663C135 75.5712 132.321 67.5331 125.898 62.3534C117.752 55.7841 105.453 54.2445 98.4821 58.9267C94.0661 61.893 92.7458 66.8505 94.6657 73.2636C98.1208 84.8046 111.58 94.7411 125.609 103.76C128.551 105.651 132.059 110.218 136.915 116.538C146.202 128.627 158.923 145.184 171.725 146.962C178.496 147.909 188.472 142.344 197.139 132.801C198.252 131.574 200.149 131.483 201.378 132.598C202.603 133.712 202.695 135.609 201.581 136.835C188.687 151.03 178.02 153.041 173.026 153.041H173.026Z" fill="black"/>
<path d="M76.4319 138.9C63.3528 138.9 56.5071 129.012 49.8557 117.135C49.0461 115.689 49.5618 113.861 51.0071 113.051C52.4553 112.243 54.2815 112.758 55.0901 114.203C63.2668 128.802 69.5129 137.192 87.2834 130.647C88.8372 130.074 90.5618 130.87 91.136 132.425C91.7083 133.979 90.9124 135.704 89.3577 136.277C84.4416 138.088 80.1809 138.9 76.4319 138.9L76.4319 138.9Z" fill="black"/>
<path d="M29.5819 64.0719C32.1765 53.0992 42.4356 49.0257 47.5809 51.9929C55.615 56.6261 62.1129 64.8736 64.4249 77.0938C65.7614 84.1583 70.9904 94.7672 68.6949 103.372C67.7705 106.837 59.3099 111.723 50.2231 107.809C36.7456 102.004 23.0694 81.0715 29.5819 64.0719H29.5819Z" fill="white"/>
<path d="M44.748 106.22C44.0273 106.22 43.3037 105.962 42.7285 105.438C27.9072 91.9391 22.6601 78.1515 26.6875 63.2867C29.1348 53.7579 35.3183 48.1788 43.2617 48.4342C56.1914 48.8312 64.8232 63.2745 67.3721 76.527C68.416 81.9596 70.3681 87.8458 72.0898 93.0392C72.4502 94.1275 72.7978 95.1739 73.1191 96.1661C73.6308 97.7423 72.7666 99.4342 71.1914 99.9449C69.6152 100.458 67.9228 99.5934 67.4121 98.0167C67.0937 97.0367 66.751 96.0025 66.3945 94.9273C64.7031 89.8258 62.5976 83.4767 61.4795 77.6598C58.6015 62.6925 50.0439 54.6451 43.0781 54.4312C42.9804 54.4283 42.8828 54.4269 42.7871 54.4269C37.9326 54.4269 34.1894 58.1949 32.4883 64.8175C29.0488 77.5138 33.5898 88.9996 46.7695 101.003C47.9941 102.118 48.083 104.015 46.9668 105.24C46.375 105.89 45.5635 106.22 44.748 106.22L44.748 106.22Z" fill="black"/>
</svg>
