<svg width="300" height="281" viewBox="0 0 300 281" fill="none" xmlns="http://www.w3.org/2000/svg">
<path d="M104.911 16.383C121.888 4.30336 141.559 6.20447 153.72 13.0642C169.435 53.1916 132.761 172.322 131.265 172.858C129.77 173.395 96.7971 150.938 95.2674 149.43C93.7377 147.921 42.5534 29.1157 104.911 16.383Z" fill="white"/>
<path d="M78.4629 179.304L83.5344 260.698C91.6297 274.575 98.0922 277.946 120.11 275.022C119.888 261.733 131.454 229.643 131.454 229.643C134.894 251.562 140.091 275.824 140.091 275.824C168.27 281.489 230.38 266.945 238.187 223.868C226.423 180.096 214.175 137.354 214.175 137.354L78.4629 179.304Z" fill="#82BE28"/>
<path d="M152.628 279.438C148.397 279.438 144.115 279.231 139.799 278.809C138.499 278.682 137.431 277.729 137.157 276.452L131.997 252.36L128.486 242.023L123.071 275.501C122.867 276.758 121.891 277.75 120.638 277.975C119.642 278.154 96.1015 282.108 81.1493 262.517C80.7772 262.029 80.5634 261.439 80.537 260.825L79.2255 230.23C79.1542 228.574 80.4384 227.175 82.0936 227.104C83.7684 227.025 85.1483 228.317 85.2196 229.973L86.4901 259.605C96.9423 272.597 112.01 272.75 117.509 272.311L124.488 229.164C124.709 227.803 125.827 226.768 127.2 226.653C128.565 226.541 129.849 227.373 130.291 228.678L137.734 250.596C137.771 250.707 137.803 250.819 137.827 250.933L142.561 273.033C189.983 276.907 215.927 253.841 222.82 246.586C232.103 236.816 234.697 228.334 234.101 223.988C233.509 221.299 222.237 170.449 215.93 155.976C215.267 154.457 215.962 152.688 217.481 152.027C219.001 151.362 220.767 152.061 221.43 153.578C228.109 168.906 239.504 220.614 239.985 222.808C240 222.874 240.013 222.94 240.022 223.007C241.17 230.682 236.365 241.042 227.17 250.719C209.702 269.101 182.476 279.438 152.628 279.438Z" fill="black"/>
<path d="M96.6372 17.8251C78.8099 31.4154 60.356 44.2157 57.0341 55.5189C50.0254 86.3116 54.8684 140.178 55.0646 151.934C56.4276 158.668 50.4254 155.68 52.2512 163.513C53.5717 169.179 67.0663 204.847 68.8473 210.294C75.5989 226.047 89.0442 249.208 91.9275 250.618C102.499 252.998 124.042 237.179 126.481 233.048C135.454 229.83 132.754 233.841 132.754 233.841C131.99 248.169 143.404 270.985 165.404 267.039C189.604 244.651 228.901 178.498 232.63 161.564C233.868 116.988 216.68 62.2341 214.589 57.1563C209.906 47.0092 158.777 2.95078 147.041 8.62543C152.092 31.8835 128.351 92.6628 123.629 140.289C96.0812 88.7822 92.5608 48.1099 96.6372 17.8251V17.8251Z" fill="#82BE28"/>
<path d="M84.3954 155.029C83.0995 155.029 81.9042 154.183 81.5184 152.876L72.3026 121.608C71.8348 120.019 72.743 118.351 74.3329 117.883C75.9178 117.412 77.5887 118.324 78.0585 119.912L87.2743 151.18C87.7421 152.769 86.8339 154.437 85.244 154.906C84.9618 154.989 84.6757 155.029 84.3954 155.029L84.3954 155.029Z" fill="black"/>
<path d="M230.127 152.124C228.539 152.124 227.214 150.878 227.134 149.274C227.099 148.6 223.594 81.5841 209.654 52.0646C204.818 41.8263 173.073 25.0367 157.817 16.9684C156.352 16.194 155.793 14.3785 156.567 12.9142C157.341 11.4493 159.158 10.8888 160.622 11.6647C184.218 24.1432 209.83 38.3873 215.08 49.5025C221.17 62.3995 226.058 83.0826 229.609 110.978C232.239 131.637 233.117 148.802 233.126 148.974C233.209 150.628 231.934 152.037 230.28 152.12C230.228 152.122 230.178 152.124 230.127 152.124L230.127 152.124Z" fill="black"/>
<path d="M106.041 104.831C106.508 102.779 111.403 75.3663 111.403 75.3663C111.403 75.3663 106.98 49.9572 108.484 49.9321C109.117 49.9215 118.72 41.0225 118.72 41.0225L131.581 51.5917L122.66 74.7211L131.035 92.9928L119.726 144.206L106.041 104.831V104.831Z" fill="#2D8C3C"/>
<path d="M103.382 249.892C101.93 255.257 100.924 258.53 112.552 267.086C119.85 272.456 121.37 276.104 138.42 273.421C144.436 273.321 165.581 261.824 169.566 260.223C152.434 255.397 139.935 238.764 141.906 236.686C141.438 229.664 127.968 232 126.481 233.048C124.994 234.095 125.139 242.354 103.382 249.892Z" fill="white"/>
<path d="M97.2147 255.105C93.2528 255.105 90.1121 253.577 88.1287 250.514C88.0779 250.436 88.0301 250.356 87.9871 250.273C86.7098 247.828 84.2225 243.774 81.3426 239.08C75.6824 229.855 68.6375 218.374 66.033 211.335C65.4578 209.781 66.2518 208.055 67.8055 207.48C69.3582 206.906 71.0848 207.698 71.66 209.253C74.0604 215.738 80.9334 226.941 86.4569 235.942C89.3465 240.652 91.8485 244.729 93.2362 247.362C93.7479 248.131 95.2137 249.953 100.304 248.71C109.862 246.375 120.463 236.46 121.153 233.495C120.24 231.595 113.558 217.741 108.777 209.372C108.303 208.538 97.201 188.937 92.4295 175.305C91.8826 173.741 92.7068 172.03 94.2703 171.483C95.8318 170.936 97.5457 171.759 98.0936 173.323C102.687 186.449 113.878 206.203 113.99 206.402C119.095 215.335 126.046 229.819 126.639 231.06C129.986 237.421 117.178 246.955 111.93 250.107C106.388 253.437 101.353 255.105 97.2147 255.105L97.2147 255.105Z" fill="black"/>
<path d="M63.7325 197.791C62.4688 197.791 61.293 196.986 60.8809 195.719C59.7862 192.355 50.1768 162.613 49.8233 154.203C49.6377 149.801 49.1983 62.3251 54.753 50.2899C58.7657 41.5946 70.8819 33.4081 81.5723 26.1854C83.0167 25.2099 84.4229 24.2592 85.7647 23.3373C87.1299 22.3993 88.9981 22.745 89.9356 24.1098C90.875 25.4755 90.5284 27.3432 89.1631 28.2816C87.8096 29.2123 86.3887 30.1723 84.9317 31.1571C75.3887 37.6044 63.5118 45.6288 60.2002 52.8041C55.7022 62.5517 55.4082 144.206 55.8174 153.951C56.0879 160.373 63.6827 184.938 66.586 193.862C67.0987 195.438 66.2373 197.131 64.6621 197.643C64.3536 197.744 64.0401 197.791 63.7325 197.791L63.7325 197.791Z" fill="black"/>
<path d="M187.575 161.474C185.918 161.474 184.575 160.131 184.575 158.474C184.575 155.196 184.026 150.333 183.39 144.702C180.944 123.025 176.848 86.7455 194.555 59.0795C195.445 57.684 197.3 57.2767 198.698 58.1698C200.094 59.0629 200.501 60.9183 199.607 62.3138C183.05 88.1869 186.995 123.143 189.352 144.029C190.009 149.84 190.575 154.858 190.575 158.474C190.575 160.131 189.232 161.474 187.575 161.474Z" fill="black"/>
<path d="M146.693 238.267C141.247 236.738 130.786 239.573 133.839 245.889C136.892 252.206 142.077 251.387 140.658 255.609C139.033 260.445 126.865 261.567 125.838 265.262C123.185 274.811 145.877 280.976 161.536 274.422C164.967 272.986 175.842 268.977 178.343 252.722" fill="white"/>
<path d="M147.091 280.157C138.452 280.157 130.419 277.696 126.238 274.009C123.159 271.293 121.99 267.901 122.946 264.458C123.827 261.288 127.458 259.846 131.303 258.319C133.581 257.414 137.394 255.899 137.813 254.653C137.831 254.6 137.846 254.553 137.856 254.513C137.618 254.297 137.187 253.98 136.852 253.734C135.274 252.574 132.89 250.821 131.137 247.195C129.774 244.376 130.081 241.46 131.978 239.194C135.245 235.293 142.782 234.054 147.503 235.379C149.098 235.827 150.027 237.483 149.58 239.078C149.132 240.674 147.479 241.604 145.88 241.155C142.905 240.32 138.033 241.308 136.578 243.046C136.346 243.324 136.082 243.639 136.539 244.584C137.643 246.869 139.048 247.901 140.406 248.9C142.106 250.15 144.953 252.242 143.501 256.564C142.196 260.448 137.585 262.279 133.517 263.895C131.933 264.524 129.317 265.563 128.683 266.231C128.55 266.793 128.448 267.958 130.207 269.509C135.458 274.141 149.782 276.087 160.377 271.654L160.731 271.507C164.466 269.962 173.212 266.343 175.377 252.267C175.628 250.628 177.167 249.509 178.798 249.757C180.435 250.009 181.558 251.541 181.307 253.179C178.628 270.595 166.885 275.455 163.025 277.051L162.693 277.189C157.749 279.258 152.309 280.157 147.091 280.157L147.091 280.157Z" fill="black"/>
<path d="M108.542 138.968C107.892 138.968 107.236 138.758 106.687 138.324C96.9385 130.637 87.3272 113.655 77.3028 86.4063C76.9717 85.5074 77.0909 84.504 77.6221 83.7066C77.754 83.5084 79.9747 80.1861 82.6798 76.6187C80.2022 76.1934 77.3018 75.3541 74.5958 73.7305C73.5626 73.1104 73.0001 71.9332 73.168 70.7403C73.5499 68.0255 73.8927 65.4342 74.2218 62.9552C77.1339 40.9893 79.0577 26.4781 96.6837 14.1475C98.0411 13.1978 99.9132 13.5284 100.861 14.8858C101.812 16.2432 101.481 18.1139 100.123 19.0635C84.6592 29.8819 83.0645 41.9092 80.17 63.7437C79.9249 65.587 79.6729 67.4923 79.4024 69.4639C83.7452 71.3399 88.3565 71.0133 88.4053 71.0098C89.6221 70.9097 90.7764 71.5675 91.3233 72.6563C91.8692 73.7462 91.7061 75.0582 90.9034 75.9757C88.1016 79.1783 84.9493 83.6339 83.4688 85.7803C92.7784 110.769 101.837 126.858 110.401 133.613C111.702 134.639 111.926 136.525 110.899 137.826C110.308 138.577 109.429 138.968 108.542 138.968H108.542Z" fill="black"/>
<path d="M122.772 149.493C122.635 149.493 122.497 149.484 122.358 149.464C120.717 149.238 119.57 147.724 119.796 146.083C124.598 111.267 131.492 84.8175 137.031 63.5651C143.416 39.0705 147.634 22.8883 143.425 12.5153C142.803 10.9801 143.542 9.23063 145.077 8.60759C146.611 7.98503 148.361 8.72331 148.986 10.2595C153.942 22.4763 149.525 39.4245 142.837 65.0788C137.338 86.1784 130.493 112.437 125.739 146.902C125.532 148.404 124.246 149.493 122.772 149.493L122.772 149.493Z" fill="black"/>
<path d="M132.888 141.525C132.408 141.525 131.92 141.409 131.466 141.164C130.008 140.378 129.465 138.558 130.251 137.1L157.908 85.8353C155.592 83.6439 151.149 79.4446 146.411 74.991C145.544 74.1756 145.24 72.9236 145.638 71.8016C146.037 70.6795 147.061 69.8987 148.249 69.8128C148.331 69.8065 156.433 69.1478 165.36 64.7835C165.019 62.3548 164.785 58.805 164.47 53.7679C163.707 41.5272 162.427 21.0394 157.262 16.5902C156.007 15.5091 155.866 13.6146 156.947 12.3592C158.03 11.1048 159.924 10.9627 161.178 12.0443C167.726 17.6839 169.255 34.1077 170.459 53.3944C170.796 58.7987 171.115 63.9036 171.608 65.557C172.014 66.9149 171.415 68.3709 170.171 69.0496C164.472 72.158 158.95 73.8543 154.928 74.7684C159.884 79.4408 163.703 83.0599 163.703 83.0599C164.687 83.9925 164.924 85.4686 164.28 86.6614L135.532 139.949C134.989 140.954 133.956 141.525 132.888 141.525L132.888 141.525Z" fill="black"/>
<path d="M121.559 149.492C120.459 149.492 119.4 148.885 118.874 147.834C95.1921 100.472 87.3396 28.8658 96.3992 15.7511C97.3416 14.3878 99.2097 14.0465 100.573 14.9879C101.936 15.9298 102.278 17.798 101.337 19.1612C98.3211 23.5255 97.3816 41.8815 101.418 68.5192C105.7 96.7755 114.018 124.707 124.241 145.15C124.981 146.632 124.381 148.434 122.899 149.175C122.469 149.39 122.01 149.492 121.559 149.492Z" fill="black"/>
<path d="M116.597 43.7578C116.091 43.7578 115.585 43.6299 115.13 43.375C110.137 40.5761 103.622 25.9844 102.456 14.9868C102.282 13.3393 103.476 11.8618 105.123 11.687C106.776 11.5146 108.248 12.7065 108.423 14.354C109.419 23.7534 114.333 33.8271 117.013 37.1284C128.435 30.6704 138.759 18.8301 142.418 10.5976C143.092 9.08396 144.864 8.40134 146.378 9.07517C147.892 9.74802 148.574 11.521 147.901 13.0351C142.946 24.1831 130.074 37.25 117.96 43.4302C117.532 43.6489 117.064 43.7578 116.597 43.7578L116.597 43.7578Z" fill="black"/>
<path d="M97.9112 59.8957C97.0694 59.8957 96.2335 59.5436 95.6398 58.8566C94.5568 57.6027 94.6954 55.7082 95.9493 54.6252L114.635 38.4875C115.647 37.614 117.114 37.5144 118.234 38.2448L142.159 53.8395C143.548 54.7443 143.94 56.6027 143.035 57.9909C142.131 59.3786 140.27 59.7707 138.884 58.8659L116.849 44.5036L99.8712 59.1662C99.3038 59.656 98.6066 59.8957 97.9112 59.8957Z" fill="black"/>
<path d="M105.728 105.269C105.448 105.269 105.163 105.229 104.88 105.146C103.291 104.678 102.382 103.01 102.849 101.421L110.7 74.7595C111.046 73.5857 112.069 72.7395 113.287 72.6209L122.369 71.7351C123.78 71.5901 125.116 72.4822 125.531 73.8499L133.712 100.813C134.192 102.399 133.297 104.074 131.712 104.555C130.125 105.038 128.452 104.141 127.97 102.555L120.504 77.9456L115.884 78.3963L108.605 103.115C108.22 104.422 107.025 105.269 105.728 105.269V105.269Z" fill="black"/>
<path d="M113.623 76.4577C112.394 76.4577 111.288 75.7077 110.834 74.5627L101.916 52.0549C101.425 50.8156 101.811 49.4006 102.864 48.5817L114.329 39.6637C115.318 38.8957 116.678 38.8224 117.742 39.4758L132.033 48.2551C133.258 49.0075 133.777 50.5236 133.27 51.8693L124.776 74.4074C124.34 75.5627 123.241 76.3332 122.007 76.3488L113.662 76.4572L113.623 76.4577L113.623 76.4577ZM108.324 51.9367L115.651 70.4313L119.882 70.3761L126.782 52.071L116.372 45.6764L108.324 51.9367V51.9367Z" fill="black"/>
<path d="M109.463 265.321C108.353 265.321 107.333 264.701 106.818 263.73C106.599 263.444 106.051 262.794 105.601 262.261C100.493 256.204 98.4964 253.236 99.3548 250.534C99.8578 248.954 101.542 248.081 103.123 248.583C104.477 249.014 105.312 250.315 105.206 251.673C105.782 253.168 109.075 257.073 110.188 258.393C111.825 260.335 112.214 260.796 112.404 261.711C112.74 263.334 111.698 264.922 110.075 265.258C109.869 265.3 109.664 265.321 109.463 265.321ZM106.529 262.929L106.53 262.933L106.529 262.929ZM105.075 252.348L105.074 252.351L105.075 252.348Z" fill="black"/>
<path d="M225.2 174.875C223.082 184.676 193.685 240.356 180.843 255.339C161.784 260.741 142.005 243.901 145.002 235.925C146.005 234.514 161.093 204.647 176.71 180.881" fill="#82BE28"/>
<path d="M173.142 259.398C162.286 259.398 152.241 253.954 146.536 247.753C142.393 243.249 140.811 238.553 142.195 234.87C142.286 234.628 142.407 234.399 142.558 234.188C142.75 233.881 143.809 231.898 145.034 229.601C150.123 220.069 162.038 197.747 174.204 179.234C175.113 177.849 176.973 177.465 178.359 178.374C179.743 179.284 180.128 181.144 179.218 182.529C167.202 200.813 155.377 222.967 150.327 232.427C148.781 235.324 148.116 236.562 147.75 237.186C147.468 238.426 148.328 240.839 150.952 243.69C156.954 250.216 168.448 255.282 179.158 252.681C191.938 237.129 220.325 183.238 222.269 174.242C222.619 172.622 224.214 171.591 225.835 171.943C227.454 172.293 228.484 173.889 228.134 175.509C225.915 185.777 196.603 241.564 183.121 257.291C182.738 257.739 182.23 258.064 181.662 258.225C178.809 259.034 175.948 259.398 173.142 259.398V259.398Z" fill="black"/>
<path d="M142.982 9.12033C137.679 7.85776 131.872 6.34267 130.609 2.04992C129.346 -2.24283 105.484 -0.727745 109.019 15.6857C112.554 32.0992 139.195 13.2868 142.982 9.12033Z" fill="white"/>
</svg>
