<svg width="492" height="250" viewBox="0 0 492 250" fill="none" xmlns="http://www.w3.org/2000/svg">
<path d="M194.2 134.847C194.2 134.847 187.384 141.664 158.657 130.465C142.589 124.622 164.499 102.225 173.264 91.5134C178.151 85.5394 192.816 80.7334 197.121 94.4348C200.536 105.301 194.2 134.847 194.2 134.847Z" fill="white"/>
<path d="M201.261 106.904C180.133 114.665 148.288 86.5485 153.216 77.83C177.476 56.9814 190.458 27.1046 198.342 21.8488C206.226 16.5931 227.78 6.25977 227.78 6.25977C227.404 21.6517 250.162 21.0753 252.79 21.0753C255.418 21.0753 201.261 106.904 201.261 106.904H201.261Z" fill="#82BE28"/>
<path d="M214.443 17.7454C237.438 -0.408175 275.56 1.40719 305.211 22.5864C268.299 55.868 215.654 43.1605 214.443 17.7454Z" fill="white"/>
<path d="M325.201 112.052C314.978 39.6455 299.306 11.8823 299.306 11.8823C299.306 11.8823 292.683 10.4166 288.884 9.77318C272.417 6.98393 286.167 21.0749 252.791 21.0749C246.395 21.0749 237.216 18.7445 234.167 14.0752C231.998 10.753 231.167 7.0752 228.167 7.0752C211.234 7.0752 199.095 47.1236 197.059 64.1278C194.605 84.6231 192.584 129.245 192.584 130.349C192.584 139.556 195.102 134.785 207.167 138.075C218.167 141.075 286.085 139.388 333.2 155.906C337.322 157.351 335.74 152.078 335.242 147.739C332.931 127.617 331.33 155.466 325.201 112.052L325.201 112.052Z" fill="#82BE28"/>
<path d="M161.166 76.0421C160.423 76.0421 159.679 75.7682 159.099 75.2155C157.898 74.0734 157.851 72.1749 158.992 70.9742C164.192 65.5084 169.569 59.8566 179.989 39.7189C197.05 6.74474 226.241 3.40099 227.476 3.27502C228.363 3.18518 229.249 3.49523 229.887 4.12268C230.524 4.75061 230.847 5.63049 230.769 6.52161C230.639 9.88489 235.114 16.7306 253.018 18.0836C276.078 19.8248 279.496 10.3595 279.525 10.2638C279.987 8.67347 281.652 7.75794 283.243 8.22132C284.834 8.68421 285.749 10.3488 285.286 11.9396C285.128 12.4811 281.402 24.2911 258.32 24.2926C256.521 24.2926 254.608 24.2213 252.565 24.067C240.824 23.1793 232.602 20.0553 228.124 14.7819C226.602 12.9889 225.763 11.2272 225.306 9.75549C222.514 10.3893 217.868 11.7433 212.532 14.507C200.981 20.4913 191.824 29.9015 185.317 42.4757C174.506 63.3732 168.573 69.6085 163.34 75.11C162.75 75.7296 161.958 76.0421 161.166 76.0421H161.166Z" fill="black"/>
<path d="M195.968 124.973L195.924 124.973C194.268 124.949 192.944 123.588 192.967 121.931C193.093 113.083 193.681 105.521 194.25 98.2072C195.17 86.3889 196.038 75.2258 195.053 59.2326C194.951 57.5788 196.209 56.1555 197.863 56.0539C199.504 55.9587 200.94 57.2097 201.041 58.8635C202.053 75.2741 201.127 87.1691 200.233 98.6731C199.67 105.893 199.089 113.359 198.967 122.016C198.944 123.658 197.605 124.973 195.968 124.973Z" fill="black"/>
<path d="M336.059 154.823C334.41 154.823 333.069 153.491 333.059 151.84C332.857 117.614 318.149 85.6852 318.001 85.3663C317.3 83.8654 317.95 82.0802 319.451 81.3795C320.953 80.6793 322.737 81.3287 323.437 82.8283C324.067 84.1754 338.848 116.228 339.059 151.805C339.069 153.462 337.734 154.813 336.077 154.823H336.059H336.059Z" fill="black"/>
<path d="M178.407 136.86C147.365 142.112 80.252 175.423 80.252 175.423L217.522 204.044C217.522 204.044 298.773 172.697 328.091 156.594L178.407 136.86H178.407Z" fill="white"/>
<path d="M278.952 174.215C259.399 182.306 239.654 189.938 219.866 197.429C218.284 198.028 216.703 198.626 215.12 199.219H216.715L203.228 196.566L170.836 190.194L131.644 182.484L97.7577 175.817L86.5868 173.62C84.8315 173.275 83.0564 172.809 81.2816 172.576C81.2038 172.566 81.1261 172.546 81.0491 172.53L81.7657 178.014C90.3178 174.068 98.9587 170.305 107.623 166.614C108.579 166.207 109.535 165.802 110.492 165.397C110.618 165.344 111.175 165.108 110.666 165.323C110.923 165.215 111.18 165.107 111.437 164.999C111.956 164.78 112.475 164.562 112.994 164.345C115.044 163.486 117.096 162.634 119.152 161.788C123.457 160.018 127.774 158.277 132.106 156.575C140.798 153.16 149.55 149.883 158.408 146.922C166.628 144.174 174.998 141.542 183.558 140.082C185.156 139.809 186.052 137.842 185.653 136.391C185.189 134.7 183.566 134.023 181.963 134.296C174.437 135.58 167.067 137.798 159.815 140.148C151.007 143.002 142.313 146.206 133.682 149.552C118.263 155.529 103.023 161.976 87.913 168.695C84.8474 170.058 81.7838 171.427 78.7374 172.833C76.4363 173.895 77.0085 177.835 79.454 178.316L85.3103 179.468L100.744 182.504L122.552 186.795L147.532 191.709L172.481 196.617L194.106 200.871L209.424 203.884L213.674 204.72C214.511 204.885 215.472 205.166 216.316 205.058C218.072 204.834 219.911 203.801 221.55 203.181C225.789 201.576 230.024 199.96 234.256 198.336C246.626 193.587 258.97 188.769 271.254 183.801C274.356 182.546 277.454 181.281 280.547 180.001C282.043 179.382 283.109 178.011 282.642 176.311C282.253 174.897 280.458 173.592 278.952 174.216V174.215Z" fill="black"/>
<path d="M488.699 177.499C488.571 177.499 488.441 177.491 488.31 177.474L2.61579 114.687C0.973212 114.475 -0.186938 112.971 0.0249725 111.327C0.237862 109.685 1.74274 108.525 3.38532 108.737L489.08 171.524C490.722 171.736 491.882 173.24 491.67 174.883C491.474 176.396 490.184 177.499 488.699 177.499Z" fill="black"/>
<path d="M322.276 94.0845C322.276 94.0845 332.784 120.773 328.791 125.396C324.798 130.019 266.668 132.22 266.668 132.22L239.624 135.958C239.624 135.958 188.037 147.022 215.236 169.011C232.995 183.367 262.163 162.629 281.248 162.062C313.871 167.424 371.088 164.229 364.305 127.744C357.523 91.2595 350.016 78.292 350.016 78.292L322.276 94.0845H322.276Z" fill="white"/>
<path d="M234.734 176.109C221.936 176.109 211.648 170.483 207.61 165.097C202.848 158.743 203.369 153.591 204.647 150.388C208.715 140.182 225.639 135.299 239.119 133C240.749 132.725 242.303 133.82 242.58 135.453C242.859 137.086 241.761 138.636 240.127 138.915C223.457 141.757 212.557 146.749 210.22 152.61C209.175 155.23 209.892 158.138 212.411 161.499C216.252 166.623 230.488 173.775 247.495 167.943C269.763 160.308 277.521 158.944 277.84 158.89C278.048 158.855 278.261 158.843 278.469 158.85C300.015 159.755 324.77 160.008 345.026 155.031C348.095 154.278 351.157 152.624 353.882 150.249C357.906 146.74 360.36 140.865 360.613 134.129C360.851 127.861 359.331 121.458 357.616 114.902C355.905 108.355 354.066 101.753 352.149 95.2783C351.679 93.6895 352.585 92.0205 354.174 91.5503C355.768 91.0762 357.432 91.9873 357.902 93.5752C359.837 100.111 361.694 106.776 363.421 113.384C365.254 120.392 366.877 127.269 366.61 134.355C366.294 142.738 363.092 150.179 357.824 154.772C354.381 157.773 350.45 159.877 346.457 160.858C325.58 165.987 300.451 165.771 278.566 164.859C277.01 165.173 268.814 166.977 249.441 173.619C244.329 175.372 239.366 176.109 234.735 176.109L234.734 176.109Z" fill="black"/>
<path d="M266.279 137.638C264.673 137.638 263.343 136.366 263.283 134.748C263.223 133.092 264.516 131.701 266.172 131.64C266.417 131.631 290.873 130.721 308.287 128.774C308.349 128.768 308.411 128.763 308.474 128.759C314.672 128.456 322.581 127.169 324.022 125.809C325.228 124.671 327.125 124.727 328.263 125.931C329.4 127.135 329.346 129.034 328.141 130.171C324.404 133.7 312.565 134.562 308.86 134.748C291.228 136.712 266.638 137.627 266.391 137.636C266.354 137.638 266.316 137.638 266.279 137.638V137.638Z" fill="black"/>
<path d="M326.083 130.99C325.3 130.99 324.519 130.686 323.931 130.081C322.777 128.893 322.803 126.994 323.992 125.839C325.452 124.42 324.843 120.991 324.307 117.965C324.23 117.527 324.154 117.097 324.084 116.678C321.987 104.041 316.976 88.5633 312.554 74.9076C311.004 70.12 309.541 65.598 308.243 61.3436C307.759 59.7587 308.652 58.0819 310.237 57.5985C311.818 57.1141 313.497 58.0077 313.981 59.5926C315.264 63.7982 316.72 68.2967 318.262 73.0594C322.749 86.9144 327.833 102.618 330.003 115.695C330.069 116.093 330.141 116.502 330.215 116.918C330.932 120.964 331.915 126.505 328.173 130.141C327.59 130.708 326.836 130.99 326.083 130.99Z" fill="black"/>
<path d="M283.925 23.1369C280.875 35.3371 305.608 109.892 305.608 109.892C337.125 110.909 371.33 95.2034 365.883 86.2732C360.436 77.3429 298.667 -14.4804 283.925 23.1369Z" fill="#82BE28"/>
<path d="M318.749 113.366C313.931 113.366 308.825 112.742 303.474 111.278C302.557 111.027 301.814 110.356 301.469 109.47C301.199 108.773 294.808 92.2273 292.329 78.1858C292.041 76.5544 293.13 74.9978 294.762 74.7102C296.397 74.4226 297.95 75.5104 298.238 77.1428C300.206 88.2917 304.929 101.559 306.526 105.871C338.015 113.572 359.707 89.2072 359.92 88.9548C360.992 87.6906 362.882 87.5314 364.148 88.6027C365.413 89.673 365.571 91.5661 364.5 92.8308C364.295 93.0735 346.228 113.366 318.749 113.366H318.749Z" fill="black"/>
<path d="M348.819 70.0867C347.865 70.0867 346.929 69.6335 346.347 68.7903C343.052 64.0158 339.173 58.7082 335.421 53.5754C331.239 47.8528 326.914 41.9353 323.235 36.5407C309.912 17.008 295.789 16.9372 295.624 16.9348H295.587C293.947 16.9348 292.608 15.6154 292.588 13.9709C292.569 12.3142 293.896 10.9548 295.552 10.9348C296.246 10.9275 313.06 10.9748 328.192 33.1599C331.816 38.4739 336.112 44.3513 340.266 50.0354C344.04 55.1999 347.944 60.5407 351.284 65.3821C352.226 66.7458 351.883 68.6145 350.52 69.5554C349.999 69.9143 349.405 70.0867 348.819 70.0867H348.819Z" fill="black"/>
<path d="M186.948 131.161C186.948 138.974 177.841 141.237 170.696 141.237C163.551 141.237 159.584 137.857 159.584 130.044C159.584 122.231 168.27 113.125 175.22 114.78C183.038 116.641 186.948 123.347 186.948 131.161Z" fill="white"/>
<path d="M170.695 144.236C161.596 144.236 156.584 139.196 156.584 130.043C156.584 124.768 159.708 118.892 164.544 115.072C168.257 112.139 172.297 111 175.915 111.861C184.57 113.921 189.947 121.316 189.947 131.16C189.947 139.226 182.57 144.236 170.695 144.236ZM173.516 117.584C171.93 117.584 170.072 118.352 168.263 119.781C164.919 122.421 162.584 126.642 162.584 130.043C162.584 135.863 164.934 138.236 170.695 138.236C172.908 138.236 183.947 137.895 183.947 131.16C183.947 124.135 180.425 119.103 174.525 117.698C174.204 117.622 173.866 117.584 173.516 117.584V117.584Z" fill="black"/>
<path d="M171.829 159.241L140.979 80.9432L152.092 76.5645L182.942 154.862" fill="#2D8C3C"/>
<path d="M171.829 162.241C170.633 162.241 169.502 161.521 169.037 160.34L138.186 82.042C137.579 80.5005 138.336 78.7588 139.878 78.1514L150.991 73.7725C151.73 73.4805 152.555 73.4951 153.287 73.812C154.016 74.1294 154.59 74.7237 154.882 75.4639L185.732 153.762C186.34 155.303 185.583 157.045 184.041 157.652C182.498 158.262 180.757 157.502 180.15 155.961L150.399 80.4546L144.868 82.6338L174.619 158.141C175.226 159.682 174.47 161.424 172.928 162.031C172.566 162.174 172.194 162.241 171.829 162.241Z" fill="black"/>
<path d="M182.943 154.862L184.505 174.34L171.83 159.241" fill="white"/>
<path d="M184.505 177.339C183.637 177.339 182.789 176.962 182.206 176.268L169.531 161.169C168.465 159.901 168.63 158.008 169.9 156.943C171.167 155.878 173.062 156.043 174.126 157.312L180.763 165.216L179.951 155.101C179.819 153.45 181.05 152.004 182.701 151.871C184.373 151.73 185.8 152.97 185.932 154.622L187.494 174.099C187.599 175.4 186.85 176.619 185.643 177.114C185.274 177.266 184.887 177.339 184.505 177.339V177.339Z" fill="black"/>
<path d="M160.79 112.524C154.546 111.038 141.861 117.181 139.687 119.24C137.514 121.298 133.396 128.161 132.824 132.05C132.252 135.939 134.718 136.523 134.718 137.975C134.718 151.003 141.332 156.638 153.245 156.638C165.159 156.638 180.343 152.865 180.343 139.837C180.343 126.81 173.826 115.628 160.79 112.524L160.79 112.524Z" fill="white"/>
<path d="M153.245 159.638C139.162 159.638 131.719 152.147 131.719 137.975C131.719 136.331 131.917 134.624 132.309 132.9C132.676 131.284 134.287 130.273 135.899 130.64C137.515 131.007 138.527 132.614 138.16 134.23C137.867 135.518 137.719 136.778 137.719 137.975C137.719 148.808 142.507 153.638 153.245 153.638C157.27 153.638 177.344 152.973 177.344 139.837C177.344 127.134 170.895 118.014 160.095 115.443C155.421 114.332 149.435 117.052 144.487 122.551C143.379 123.783 141.482 123.884 140.25 122.775C139.019 121.667 138.919 119.77 140.026 118.539C146.444 111.405 154.67 107.984 161.485 109.606C174.968 112.816 183.344 124.4 183.344 139.837C183.344 149.41 175.437 159.638 153.245 159.638Z" fill="black"/>
<path d="M180.135 102.305C184.585 105.272 193.432 105.467 195.657 105.467L180.135 102.305Z" fill="white"/>
<path d="M195.657 108.466C192.143 108.466 183.434 108.109 178.471 104.8C177.092 103.881 176.72 102.019 177.639 100.64C178.557 99.2622 180.418 98.8882 181.799 99.8081C184.742 101.77 191.104 102.466 195.657 102.466C197.314 102.466 198.657 103.81 198.657 105.466C198.657 107.123 197.314 108.466 195.657 108.466V108.466Z" fill="black"/>
</svg>
