<svg width="300" height="391" viewBox="0 0 300 391" fill="none" xmlns="http://www.w3.org/2000/svg">
<path d="M135.538 371.173C112.654 367.537 79.4323 374.272 71.823 380.501C71.823 380.501 59.9414 381.931 58.4712 372.613C56.1514 357.911 67.8638 348.199 71.8192 325.623C80.2329 277.602 82.2825 248.227 83.4391 217.482C83.8647 206.169 83.9846 170.41 98.3484 152.093C105.272 143.263 106.555 139.813 148.633 155.137C165.295 154.941 181.686 143.738 186.589 148.051C186.589 148.051 221.88 186.4 224.633 209.865C232.103 273.54 230.82 299.768 245.062 341.66C247.807 349.735 260.21 362.97 244.778 373.619C239.585 377.203 221.158 385.204 199.922 383.249C185.866 378.815 176.109 377.618 135.538 371.173Z" fill="#82BE28"/>
<path d="M213.606 385.164C197.067 385.165 179.458 381.205 157.341 375.718C126.64 368.1 102.921 371.186 91.5146 373.705C89.8906 374.059 88.2958 373.039 87.9384 371.422C87.581 369.804 88.6035 368.203 90.2216 367.846C102.139 365.214 126.894 361.981 158.786 369.894C189.384 377.486 211.07 382.085 232.861 377.024C240.421 375.268 245.261 372.231 247.245 367.996C249.406 363.386 248.426 356.922 244.332 348.784C227.817 315.958 223.527 259.573 221.913 238.346C221.628 234.599 221.382 231.363 221.228 230.581C220.909 228.955 221.968 227.378 223.594 227.059C225.227 226.743 226.797 227.799 227.115 229.425C227.328 230.509 227.509 232.804 227.895 237.891C229.485 258.794 233.71 314.321 249.691 346.088C254.654 355.953 255.659 364.181 252.678 370.542C249.873 376.528 243.662 380.675 234.219 382.869C227.368 384.46 220.581 385.164 213.606 385.164Z" fill="black"/>
<path d="M68.3367 381.71C63.074 381.71 60.0007 379.607 58.3045 377.72C56.2732 375.46 54.1697 371.223 55.6843 363.865C56.4109 360.336 57.905 355.868 59.7966 350.21C63.4919 339.156 68.5544 324.018 72.074 303.637C78.5222 266.298 82.3875 222.02 82.28 215.058C82.2546 213.401 83.5779 212.038 85.2341 212.013C86.9294 211.954 88.2546 213.31 88.28 214.966C88.4021 222.939 84.4314 267.338 77.9861 304.658C74.3894 325.488 69.2439 340.876 65.4871 352.113C63.6589 357.579 62.2146 361.897 61.5613 365.075C60.7624 368.957 61.1785 371.942 62.7664 373.708C64.5535 375.695 67.6062 375.854 69.8503 375.634C71.4783 375.471 72.9646 376.68 73.1267 378.329C73.2869 379.978 72.0798 381.445 70.4304 381.605C69.697 381.677 68.9998 381.71 68.3367 381.71H68.3367Z" fill="black"/>
<path d="M145.682 156.707C136.896 156.707 128.16 154.847 120.088 151.095C118.586 150.397 117.933 148.612 118.632 147.11C119.331 145.607 121.116 144.957 122.617 145.654C138.932 153.239 158.3 152.238 174.421 142.98C175.856 142.155 177.691 142.651 178.516 144.087C179.342 145.524 178.846 147.358 177.409 148.183C167.549 153.845 156.578 156.707 145.682 156.707Z" fill="black"/>
<path d="M90.8283 148.517C50.0971 139.753 54.628 119.687 48.6894 112.07C40.1411 101.106 61.1613 60.0677 72.9161 60.0965C77.0238 60.1066 83.4911 61.9023 91.3953 57.4905C97.6046 54.0247 88.6729 47.3672 92.2152 42.5382C97.481 35.3595 111.102 32.2324 112.685 30.5603C125.754 16.7587 110.119 6.99869 105.106 5.30466C99.2443 3.32412 75.2235 2.10025 60.6062 29.7029C39.2274 47.5024 0.244389 81.3667 19.7301 126.683C26.6765 142.838 65.9791 167.187 110.012 182.636C124.255 187.633 106.553 151.901 90.8283 148.517H90.8283Z" fill="white"/>
<path d="M50.1267 154.822C49.7888 154.822 49.4451 154.765 49.1082 154.643C24.45 145.747 11.8152 129.139 11.5545 105.283C11.2068 73.4313 35.573 48.9938 43.0496 42.2629C44.2801 41.1545 46.1756 41.2531 47.2859 42.485C48.3943 43.7165 48.2947 45.6134 47.0633 46.7218C40.0603 53.0275 17.2342 75.881 17.5545 105.217C17.7879 126.608 28.7752 140.928 51.1453 149C52.7039 149.562 53.5105 151.281 52.949 152.84C52.5076 154.062 51.3552 154.822 50.1267 154.822L50.1267 154.822Z" fill="black"/>
<path d="M57.9649 121.437C57.7315 121.437 57.4951 121.41 57.2588 121.353C48.8291 119.321 43.8936 113.198 43.3613 104.112C42.3692 87.1722 57.293 62.6629 71.877 57.2815C76.5342 55.5628 80.0859 55.8665 82.9434 56.1116C85.5713 56.3367 86.791 56.3938 88.1133 55.3806C90.2793 53.722 89.9932 52.1975 88.6934 48.5765C88.5322 48.1258 88.374 47.6848 88.2334 47.2571C85.6895 39.5462 93.9033 35.3045 99.0254 33.4622L99.3389 33.3489C100.983 32.7342 109.367 29.3455 112.872 22.9646C116.199 16.9094 109.664 11.4285 103.596 7.89676C103.494 7.83865 93.0899 2.43582 81.335 10.1399C75.3731 14.0462 65.917 26.5716 62.1797 32.4095C61.2862 33.805 59.4307 34.2112 58.0362 33.3181C56.6406 32.4251 56.2334 30.5696 57.127 29.1741C59.5371 25.4094 70.1514 10.2947 78.0459 5.12137C90.666 -3.14767 102.945 0.577419 106.613 2.71073C118.282 9.50223 122.48 17.9373 118.131 25.8533C113.719 33.886 104.239 37.9231 101.439 38.9695L101.056 39.1082C97.3067 40.4563 93.0274 42.6385 93.9307 45.3782C94.0567 45.7581 94.1973 46.1497 94.3409 46.5496C95.5645 49.9588 97.6114 55.6643 91.7618 60.1443C88.5381 62.6141 85.293 62.3357 82.4307 62.0896C79.9375 61.8763 77.3565 61.6546 73.9541 62.9104C61.8536 67.3758 48.5176 89.5188 49.3516 103.761C49.7315 110.255 52.7784 114.101 58.6651 115.52C60.2754 115.908 61.2666 117.529 60.878 119.139C60.5469 120.514 59.3184 121.437 57.9649 121.437L57.9649 121.437Z" fill="black"/>
<path d="M123.63 164.462C117.627 146.569 113.13 144.123 110.699 142.505C98.2887 134.242 88.4952 129.799 71.0555 112.931C64.5048 106.595 52.9091 99.5809 52.6928 112.4C52.3136 134.877 11.8926 145.078 14.9546 162.276C16.6033 171.536 62.4509 201.846 85.0466 207.396C102.811 211.759 126.951 184.941 123.63 164.462V164.462Z" fill="#82BE28"/>
<path d="M52.4172 193.159C52.0745 193.159 51.7258 193.1 51.386 192.975C34.3831 186.748 13.4026 170.674 12.0012 162.801C9.95338 151.305 19.301 144.295 29.1965 136.873C36.5374 131.367 44.1292 125.674 48.4983 117.594C49.7424 115.294 48.6838 110.005 48.1751 107.464C47.8499 105.839 48.9026 104.258 50.5276 103.933C52.1477 103.607 53.7337 104.661 54.0579 106.286C55.0227 111.102 55.8752 116.566 53.7756 120.449C48.7805 129.685 40.2893 136.054 32.7971 141.673C22.6975 149.247 16.5754 154.269 17.9075 161.75C18.5637 165.435 35.3577 180.715 53.4485 187.341C55.0051 187.911 55.804 189.634 55.2346 191.19C54.7893 192.405 53.6399 193.159 52.4172 193.159Z" fill="black"/>
<path d="M107.152 145.505C106.609 145.505 106.061 145.358 105.565 145.049C90.9385 135.91 80.2881 128.871 66.0928 114.841C64.9141 113.676 64.9024 111.777 66.0674 110.598C67.2325 109.42 69.1329 109.409 70.3096 110.573C84.0645 124.168 94.4581 131.035 108.745 139.96C110.15 140.838 110.577 142.689 109.699 144.094C109.131 145.005 108.152 145.505 107.152 145.505Z" fill="black"/>
<path d="M172.483 160.931C213.434 153.258 242.238 134.769 248.377 127.313C257.215 116.581 237.298 74.9961 225.547 74.7111C221.441 74.6115 214.928 76.2339 207.144 71.6126C201.03 67.9823 200.198 55.8919 196.786 50.9701C191.714 43.6533 188.504 43.1697 186.966 41.4559C174.271 27.3104 189.775 20.6389 194.832 19.0794C200.744 17.256 224.581 15.848 230.522 44.548C251.418 62.9119 297.625 97.914 276.936 142.694C269.561 158.658 229.622 181.948 185.192 196.216C170.822 200.831 156.674 163.894 172.483 160.931L172.483 160.931Z" fill="white"/>
<path d="M245.879 170.013C244.621 170.013 243.449 169.214 243.032 167.954C242.511 166.381 243.364 164.684 244.937 164.163C267.515 156.693 278.881 142.67 279.685 121.294C280.675 94.9525 258.428 70.8758 248.817 61.7469C247.616 60.6058 247.567 58.7069 248.708 57.5057C249.849 56.303 251.747 56.2557 252.95 57.3963C282.472 85.4383 286.128 109.608 285.681 121.519C284.784 145.361 271.709 161.624 246.822 169.86C246.509 169.963 246.191 170.013 245.879 170.013V170.013Z" fill="black"/>
<path d="M238.934 136.431C237.549 136.431 236.303 135.465 236.003 134.055C235.658 132.435 236.692 130.841 238.312 130.496C244.235 129.235 247.383 125.471 247.936 118.99C249.15 104.775 236.411 82.2839 224.434 77.4973C220.169 75.7927 217.503 75.7302 214.68 75.6638C212.571 75.614 210.389 75.5627 207.764 74.8078C201.708 73.0661 197.116 64.3654 196.065 52.6423C195.887 50.6569 193.718 49.2409 190.164 47.1457C186.9 45.2209 183.201 43.0393 181.261 39.2736C179.118 35.1115 179.073 30.2419 181.139 25.9138C183.515 20.9362 188.284 17.3742 194.222 16.1423C198.219 15.3127 208.834 13.1115 221.884 22.1687C228.594 26.8264 234.118 35.6384 235.316 43.5974C235.562 45.2361 234.434 46.7639 232.796 47.011C231.16 47.2512 229.629 46.1291 229.383 44.4909C228.563 39.0451 224.549 31.322 218.462 27.0974C207.529 19.51 199.058 21.2668 195.441 22.0173C191.354 22.865 188.115 25.2273 186.553 28.4988C185.302 31.1198 185.318 34.0456 186.595 36.5266C187.741 38.7512 190.522 40.3913 193.212 41.9773C197.133 44.2893 201.576 46.9099 202.042 52.1067C202.927 61.9821 206.505 68.2023 209.423 69.0412C211.304 69.5827 212.934 69.6208 214.822 69.6652C217.901 69.738 221.39 69.82 226.661 71.926C241.094 77.6945 255.358 102.593 253.915 119.5C253.14 128.57 248.043 134.558 239.562 136.364C239.351 136.409 239.141 136.431 238.934 136.431L238.934 136.431Z" fill="black"/>
<path d="M155.164 168.534C167.833 154.634 177.83 142.266 180.527 141.145C194.295 135.425 209.76 133.858 227.448 125.918C235.762 122.186 248.134 116.844 245.88 129.465C241.928 151.595 278.389 170.954 272.076 187.241C268.677 196.011 224.464 216.469 199.705 213.854C181.514 211.933 144.793 185.757 155.164 168.534H155.164Z" fill="#82BE28"/>
<path d="M229.944 210.396C228.495 210.396 227.219 209.343 226.985 207.866C226.725 206.229 227.841 204.692 229.477 204.432C248.504 201.41 267.925 189.646 269.279 186.156C272.024 179.072 266.983 172.966 258.53 163.59C252.258 156.635 245.15 148.751 242.025 138.727C240.712 134.514 242.6 129.316 244.472 124.774C245.105 123.243 246.859 122.512 248.389 123.144C249.92 123.776 250.651 125.529 250.019 127.061C249.031 129.458 246.975 134.445 247.753 136.941C250.487 145.71 256.84 152.757 262.986 159.573C271.269 168.76 279.092 177.437 274.872 188.325C271.983 195.781 248.301 207.518 230.418 210.358C230.259 210.384 230.1 210.396 229.944 210.396L229.944 210.396Z" fill="black"/>
<path d="M171.966 152.623C170.939 152.623 169.938 152.095 169.378 151.145C168.562 149.759 168.987 147.985 170.319 147.113C170.459 146.975 170.758 146.619 171.001 146.328C172.605 144.412 175.59 140.847 183.106 136.403C191.635 131.36 199.676 130.135 208.19 128.839C214.013 127.952 220.034 127.035 226.452 124.776C228.017 124.227 229.727 125.047 230.278 126.61C230.828 128.173 230.006 129.886 228.444 130.436C221.494 132.882 215.19 133.842 209.093 134.771C201.171 135.977 193.688 137.117 186.161 141.568C179.53 145.488 176.975 148.54 175.602 150.179C174.88 151.041 174.31 151.722 173.486 152.208C173.008 152.489 172.484 152.623 171.966 152.623ZM170.441 147.038C170.424 147.047 170.409 147.057 170.391 147.067L170.441 147.038Z" fill="black"/>
</svg>
