<svg width="523" height="290" viewBox="0 0 523 290" fill="none" xmlns="http://www.w3.org/2000/svg">
<path d="M305.116 74.6565C338.609 62.4112 381.805 53.4949 428.016 45.6128C439.412 40.7476 464.207 64.2787 475.402 58.0321C479.931 55.4117 472.425 39.9673 476.054 37.1854C482.59 33.8664 503.353 33.6127 513.695 25.342C519.307 17.8584 524.096 4.24712 514.878 4.15179L470.973 12.528L323.089 34.5569L285.092 45.659L305.116 74.6565V74.6565Z" fill="white"/>
<path d="M222.46 87.9157C187.189 93.1765 144.987 106.001 100.633 121.175C87.8244 134.636 75.9956 145.665 64.9544 154.741C59.7235 154.606 58.9301 137.452 54.4133 136.744C47.0853 136.955 28.7286 146.66 15.6912 144.342C7.18391 140.452 -3.53088 130.788 4.51944 126.297L47.0853 112.659L187.5 61.2917L226.18 52.8732L222.46 87.9157Z" fill="white"/>
<path d="M218.856 108.696L226.896 44.2212C247.618 48.1856 273.096 42.9375 301.429 32.1612L315.175 237.604C319.148 250.029 204.924 249.673 206.561 236.378C211.021 200.179 222.262 140.76 218.856 108.696H218.856Z" fill="white"/>
<path d="M204.011 255.877C203.648 255.877 203.278 255.811 202.918 255.67C201.375 255.066 200.614 253.324 201.219 251.781C209.698 230.127 219.499 155.996 217.603 136.983C216.23 123.202 216.86 105.725 217.356 96.5348C217.446 94.88 218.836 93.6071 220.515 93.7004C222.17 93.7898 223.439 95.2043 223.35 96.8591C222.862 105.878 222.242 123.006 223.576 136.388C225.518 155.871 215.488 231.801 206.806 253.97C206.343 255.154 205.211 255.877 204.011 255.877V255.877Z" fill="black"/>
<path d="M315.382 252.161C313.882 252.161 312.585 251.037 312.406 249.51C311.952 245.659 310.878 234.895 309.498 219.528C307.621 198.592 301.647 129.313 303.607 116.817C303.864 115.179 305.409 114.06 307.037 114.317C308.674 114.574 309.793 116.11 309.537 117.747C308.063 127.138 311.64 176.204 315.477 218.992C316.844 234.219 317.933 245.122 318.367 248.809C318.56 250.455 317.383 251.947 315.737 252.14C315.618 252.154 315.499 252.161 315.382 252.161V252.161Z" fill="black"/>
<path d="M239.091 48.898C242.225 48.3503 241.885 51.171 241.179 54.2728C239.05 63.6238 234.86 83.0869 256.797 82.1357C276.499 81.2814 276.755 66.4482 278.782 46.7133C278.978 44.8092 280.32 43.2235 282.183 42.7848L290.996 39.5206C293.361 38.9637 295.558 40.4575 296.321 42.764C298.686 49.9074 303.392 65.3265 305.206 73.8727C308.417 89.0034 315.487 97.9646 313.206 116.997C310.464 139.866 278.015 146.674 231.851 140.653C214.823 138.432 214.836 128.285 211.424 114.127C206.05 91.8272 218.452 67.253 222.179 56.1549C222.698 54.6087 224.018 53.4719 225.625 53.1912L239.091 48.898V48.898Z" fill="#82BE28"/>
<path d="M256.389 145.291C246.98 145.291 237.381 144.591 228.621 143.208C214.976 141.053 211.172 126.851 207.494 113.117L207.217 112.087C201.619 91.2283 212.842 68.3329 217.635 58.5562L217.961 57.8914C218.689 56.4026 220.484 55.7857 221.975 56.5145C223.464 57.2428 224.08 59.0402 223.352 60.529L223.024 61.1982C218.529 70.3697 208 91.8477 213.014 110.531L213.291 111.564C217.319 126.602 220.424 135.837 229.557 137.279C261.179 142.273 300.945 138.126 306.836 125.099C309.169 119.937 311.79 108.104 309.446 96.6618C309.113 95.0382 310.159 93.4522 311.783 93.1196C313.409 92.7884 314.993 93.8332 315.325 95.4573C318.162 109.299 314.589 122.517 312.304 127.571C307.613 137.949 291.089 142.202 278.054 143.943C271.305 144.844 263.907 145.291 256.389 145.291Z" fill="black"/>
<path d="M256.174 85.1724C248.817 85.1724 243.32 83.0486 239.816 78.847C235.476 73.6421 234.495 65.6419 236.902 55.0685C237.237 53.5934 236.582 52.108 236.226 51.9024C236.23 51.938 231.233 52.8334 227.98 55.2732C226.658 56.2676 224.774 55.9995 223.78 54.6733C222.784 53.3472 223.053 51.4662 224.379 50.4717C228.808 47.1498 234.999 46.0591 235.261 46.0142C237.282 45.663 239.203 46.3082 240.659 47.84C242.61 49.8934 243.452 53.3336 242.754 56.401C240.813 64.9307 241.39 71.3635 244.426 75.0029C246.941 78.0186 251.389 79.4024 257.668 79.1371C272.946 78.4743 274.544 69.1479 276.457 49.807C276.567 48.6914 276.679 47.5567 276.797 46.4059C277.121 43.2569 279.359 40.6525 282.383 39.8906L289.624 37.653C289.69 37.6325 289.756 37.6149 289.822 37.5993C292.75 36.9066 296.807 37.6574 299.497 45.135C301.539 50.8142 305.702 63.546 306.838 71.0788C307.085 72.7175 305.957 74.2463 304.317 74.4935C302.677 74.7402 301.149 73.6123 300.902 71.9736C299.914 65.4138 296.142 53.5441 293.848 47.1659C293.611 46.508 292.369 43.2672 291.256 43.4308L284.069 45.6513C284.004 45.6718 283.938 45.6894 283.871 45.705C283.268 45.8471 282.836 46.3629 282.768 47.0189C282.651 48.1624 282.54 49.2892 282.429 50.398C280.635 68.5442 279.084 84.216 257.928 85.1333C257.332 85.1592 256.747 85.1724 256.174 85.1724Z" fill="black"/>
<path d="M91.2749 132.16C90.6116 132.16 89.9434 131.941 89.3876 131.49C88.1 130.447 87.9017 128.557 88.945 127.269C93.5462 121.592 99.6684 117.451 106.651 115.295C107.035 115.163 153.605 99.3961 200.202 90.0531C201.831 89.7278 203.408 90.7809 203.735 92.4054C204.061 94.0305 203.007 95.6121 201.382 95.9379C155.179 105.202 108.964 120.846 108.502 121.003C102.58 122.834 97.4577 126.298 93.6087 131.048C93.0158 131.78 92.1493 132.16 91.2749 132.16L91.2749 132.16Z" fill="black"/>
<path d="M65.8379 157.828C65.3856 157.828 64.9343 157.789 64.4859 157.706C57.2032 156.775 56.9717 150.161 56.8339 146.201C56.6571 141.139 56.1892 140.106 53.8896 139.699C49.5971 138.935 42.922 140.528 35.0962 144.177C27.9385 147.514 19.8293 147.731 12.8416 144.771C4.69335 141.318 -0.340558 135.44 0.017962 129.797C0.252421 126.097 2.78061 121.056 13.4922 118.042C13.5977 118.013 13.7052 117.989 13.8136 117.971C41.0757 113.449 85.2996 96.2011 85.7431 96.0272C85.7773 96.014 85.8114 96.0008 85.8466 95.9891C92.5627 93.6392 102.841 89.5548 114.741 84.8252C146.697 72.1251 190.462 54.732 209.131 53.6384C210.772 53.5241 212.206 54.8029 212.303 56.4587C212.4 58.1131 211.137 59.533 209.483 59.6297C191.78 60.6671 148.534 77.8536 116.958 90.4027C105.025 95.1455 94.7158 99.2426 87.8795 101.636C85.409 102.602 42.6309 119.236 14.9624 123.864C9.42249 125.448 6.16164 127.744 6.00729 130.176C5.82265 133.099 9.68137 136.913 15.1842 139.244C20.6069 141.542 26.9391 141.357 32.5602 138.737C38.8806 135.79 47.8954 132.541 54.9368 133.788C62.452 135.12 62.6894 141.925 62.8321 145.992C63.0059 150.983 63.4563 151.541 65.3075 151.76C65.3905 151.77 65.4726 151.783 65.5537 151.8C68.5078 152.399 75.0256 145.781 79.276 139.226C80.1767 137.836 82.0348 137.438 83.4259 138.339C84.816 139.24 85.2146 141.097 84.3139 142.488C82.5809 145.165 73.953 157.828 65.8379 157.828H65.8379Z" fill="black"/>
<path d="M327.647 71.5352C326.368 71.5352 325.182 70.7098 324.782 69.4237C324.291 67.8406 325.175 66.1589 326.758 65.6676C372.143 51.5696 420.579 43.1238 421.063 43.0403C428.127 41.6101 436.366 40.516 443.283 43.3646C443.407 43.4154 443.527 43.475 443.643 43.542L456.542 51.0069C457.976 51.8372 458.467 53.6733 457.636 55.1079C456.805 56.5414 454.973 57.0328 453.535 56.202L440.82 48.8426C435.374 46.689 428.002 47.7587 422.169 48.9388C421.606 49.0375 373.54 57.4206 328.538 71.399C328.242 71.4913 327.942 71.5353 327.647 71.5353V71.5352Z" fill="black"/>
<path d="M302.771 43.6844C301.645 43.6844 300.566 43.0485 300.054 41.9627C299.348 40.4636 299.989 38.6754 301.489 37.9687C318.405 29.9933 365.158 24.3186 399.295 20.1746C412.006 18.6321 422.985 17.2996 430.007 16.1478C431.645 15.8841 433.186 16.9889 433.454 18.6238C433.722 20.2591 432.613 21.8026 430.978 22.0707C423.832 23.2425 412.797 24.5823 400.019 26.1331C366.287 30.2273 320.089 35.8346 304.048 43.3972C303.635 43.5921 303.199 43.6844 302.771 43.6844Z" fill="black"/>
<path d="M471.863 62.0291C464.688 62.0296 455.764 57.4401 453.557 56.2415C452.101 55.4512 451.562 53.6303 452.351 52.1742C453.141 50.7182 454.959 50.1755 456.42 50.9663C463.29 54.6892 472.188 57.3742 474.487 55.4395C474.55 55.3857 474.616 55.335 474.684 55.2871C476.204 54.2086 476.332 53.5028 474.097 49.0369C472.275 45.399 469.227 39.31 475.188 34.5438C480.777 30.075 490.245 28.616 497.203 28.1789C503.392 27.7896 509.041 24.9204 512.704 20.3076C516.419 15.6273 517.982 10.4327 516.421 7.95478C515.12 5.89305 511.157 5.43684 505.536 6.6985C497.113 9.61452 485.857 12.4998 472.072 15.2741C470.448 15.6043 468.865 14.5493 468.537 12.9242C468.211 11.2997 469.263 9.71709 470.888 9.39032C484.493 6.65161 495.541 3.82009 503.724 0.973923C503.828 0.937781 503.933 0.907491 504.04 0.883072C514.892 -1.59872 519.521 1.61867 521.498 4.75498C524.513 9.53882 522.906 17.1083 517.404 24.0393C512.688 29.9807 505.462 33.6729 497.58 34.1692C488.963 34.7104 482.342 36.5083 478.935 39.2319C477.112 40.6899 477.196 41.8207 479.464 46.35C481.237 49.8932 484.2 55.8107 478.251 60.1144C476.549 61.4957 474.307 62.0286 471.863 62.0291L471.863 62.0291Z" fill="black"/>
</svg>
