<svg width="492" height="250" viewBox="0 0 492 250" fill="none" xmlns="http://www.w3.org/2000/svg">
<path d="M189.99 28.7891C172.728 58.7767 155.454 88.7856 139.995 119.741C137.057 125.623 134.16 131.613 132.797 138.045C131.435 144.476 131.737 151.485 134.945 157.224" fill="white"/>
<path d="M134.948 160.225C133.896 160.225 132.875 159.671 132.327 158.688C129.068 152.859 128.193 145.307 129.863 137.423C131.259 130.826 134.062 124.905 137.311 118.401C152.807 87.37 170.384 56.8349 187.382 27.3051C188.209 25.87 190.049 25.369 191.483 26.1957C192.918 27.0224 193.416 28.85 192.589 30.286L192.582 30.2987C175.627 59.7528 158.096 90.2094 142.678 121.081C139.618 127.21 136.983 132.764 135.732 138.666C134.364 145.129 135.014 151.2 137.563 155.76C138.372 157.206 137.855 159.034 136.409 159.843C135.946 160.101 135.443 160.225 134.948 160.225H134.948Z" fill="black"/>
<path d="M325.201 112.073C314.978 39.666 301.357 13.1878 301.357 13.1878C301.357 13.1878 297.038 8.70655 293.239 8.0631C276.772 5.27385 286.167 21.0954 252.792 21.0954C246.396 21.0954 237.216 18.765 234.167 14.0957C231.998 10.7735 231.167 7.0957 228.167 7.0957C211.234 7.0957 199.095 47.1441 197.06 64.1483C194.606 84.6436 193.219 128.785 193.219 129.889C193.219 139.096 195.103 134.805 207.167 138.096C218.167 141.096 288.167 143.096 335.283 159.613C339.404 161.058 337.86 157.745 337.362 153.406C335.051 133.284 331.331 155.486 325.201 112.073L325.201 112.073Z" fill="#82BE28"/>
<path d="M192.613 105.523C172.055 108.142 151.052 83.8582 146.383 79.9323C141.714 76.0064 160.07 69.9478 176.581 38.0359C193.092 6.12391 227.782 6.28029 227.782 6.28029C227.782 6.28029 226.655 19.1202 252.793 21.0958C278.93 23.0714 282.407 11.1223 282.407 11.1223" fill="#82BE28"/>
<path d="M189.479 108.719C171.674 108.719 154.738 92.1895 147.242 84.8731C146.009 83.669 145.034 82.7178 144.452 82.2285C143.018 81.022 142.679 79.6519 142.647 78.7144C142.553 75.9155 144.762 73.7891 148.771 69.9287C154.682 64.2388 164.572 54.7163 173.917 36.6572C191.078 3.48437 226.287 3.28125 227.795 3.28027C228.634 3.28418 229.433 3.63867 229.998 4.25879C230.563 4.87842 230.843 5.70654 230.77 6.54248C230.64 9.90527 235.115 16.751 253.019 18.104C271.366 19.4937 278.396 13.5518 279.547 10.2168C280.009 8.62548 281.662 7.74316 283.255 8.208C284.846 8.67089 285.75 10.3691 285.287 11.96C285.166 12.374 283.969 16.0972 279.058 19.3506C272.998 23.3642 264.089 24.956 252.565 24.0874C240.825 23.1997 232.602 20.0757 228.125 14.8022C226.472 12.8555 225.625 10.9463 225.197 9.40428C217.123 10.0571 192.328 14.1284 179.245 39.4141C169.446 58.352 159.109 68.3047 152.933 74.251C151.438 75.6899 149.787 77.2798 149.012 78.2539C149.659 78.8481 150.448 79.6182 151.434 80.5791C158.8 87.77 176.055 104.608 192.233 102.546C193.872 102.338 195.38 103.5 195.588 105.144C195.798 106.787 194.635 108.289 192.991 108.499C191.819 108.648 190.647 108.719 189.479 108.719L189.479 108.719Z" fill="black"/>
<path d="M204.357 174.412C204.058 174.412 203.753 174.367 203.454 174.272C195.781 171.852 190.639 166.282 190.037 159.737C188.721 145.453 190.593 131.019 192.575 115.737C194.87 98.0341 197.244 79.7289 195.063 59.3881C194.887 57.7407 196.079 56.2621 197.727 56.0854C199.366 55.9106 200.853 57.1005 201.03 58.7485C203.285 79.7958 200.865 98.4594 198.525 116.508C196.587 131.451 194.757 145.564 196.012 159.186C196.578 165.347 203.233 167.911 205.258 168.55C206.838 169.048 207.715 170.733 207.217 172.313C206.813 173.593 205.631 174.412 204.357 174.412H204.357Z" fill="black"/>
<path d="M337.705 164.779C336.055 164.779 334.715 163.447 334.705 161.797C334.502 127.455 318.097 85.6408 317.931 85.2224C317.32 83.6818 318.074 81.9387 319.615 81.3283C321.153 80.717 322.898 81.4724 323.509 83.0119C324.202 84.7619 340.495 126.276 340.705 161.761C340.715 163.418 339.38 164.769 337.722 164.779H337.705Z" fill="black"/>
<path d="M488.7 177.52C488.572 177.52 488.442 177.511 488.311 177.494L2.61579 114.708C0.973212 114.495 -0.186938 112.991 0.0249725 111.348C0.237862 109.705 1.74177 108.541 3.38532 108.757L489.081 171.544C490.723 171.756 491.883 173.26 491.671 174.904C491.475 176.417 490.185 177.52 488.7 177.52Z" fill="black"/>
<path d="M58.9052 183.837C54.3055 182.933 50.8826 178.885 51.0196 174.199C51.1004 171.435 51.9389 168.807 54.5354 167.799C78.7667 158.386 146.662 146.879 162.399 150.455L262.924 163.428C272.78 165.358 276.346 169.057 276.545 177.935C276.644 182.351 276.95 184.1 267.677 187.889C260.018 191.019 211.727 203.748 195.144 208.085C191.47 209.046 187.635 209.162 183.909 208.429L58.9052 183.837Z" fill="white"/>
<path d="M59.7016 180.945C56.9884 180.361 54.939 178.654 54.2372 176.117C53.8946 174.878 53.9403 173.489 54.3127 172.225C54.4971 171.599 54.637 171.332 54.9647 171.014C55.2712 170.717 55.0448 170.929 55.4103 170.688C55.4927 170.634 56.0268 170.404 55.5081 170.624C55.6249 170.574 55.746 170.53 55.8654 170.487C59.891 169.036 63.9509 167.737 68.0746 166.59C78.8989 163.578 89.9127 161.229 100.953 159.167C106.876 158.06 112.818 157.051 118.777 156.151C120.229 155.932 121.682 155.719 123.136 155.513C123.801 155.419 124.467 155.326 125.133 155.235C125.262 155.217 126.169 155.094 125.706 155.156C126.109 155.102 126.513 155.049 126.916 154.996C129.644 154.64 132.376 154.311 135.112 154.016C143.308 153.134 151.819 152.193 160.058 153.073C160.185 153.087 160.368 153.078 160.487 153.125C160.164 152.997 159.801 153.02 160.304 153.105C160.62 153.158 160.935 153.215 161.251 153.273C161.659 153.348 162.067 153.412 162.479 153.466C162.827 153.511 163.175 153.556 163.524 153.601L168.844 154.287L189.012 156.89L215.877 160.357L241.871 163.712L259.491 165.986C260.583 166.127 261.74 166.175 262.816 166.415C262.844 166.421 262.874 166.421 262.902 166.426L262.921 166.428C262.042 166.273 263.064 166.514 263.382 166.585C264.855 166.916 266.315 167.323 267.72 167.878C268.048 168.007 267.723 167.876 267.667 167.851C267.837 167.925 268.006 168.003 268.174 168.083C268.417 168.2 268.658 168.322 268.895 168.451C269.161 168.595 269.423 168.748 269.679 168.91C269.844 169.014 270.519 169.489 270.294 169.317C270.027 169.111 270.656 169.632 270.73 169.7C270.903 169.86 271.072 170.026 271.234 170.198C271.338 170.308 271.817 170.874 271.606 170.605C271.405 170.35 271.877 171.008 271.974 171.164C272.12 171.399 272.25 171.641 272.382 171.885C272.496 172.096 272.685 172.534 272.484 172.049C272.728 172.639 272.918 173.252 273.072 173.871C273.217 174.453 273.334 175.045 273.413 175.64C273.34 175.09 273.441 176.028 273.454 176.177C273.489 176.598 273.512 177.02 273.529 177.442C273.565 178.402 273.578 179.36 273.548 180.319C273.537 180.679 273.308 180.989 273.577 180.266C273.523 180.412 273.529 180.586 273.483 180.737C273.435 180.894 273.328 181.104 273.319 181.266C273.323 181.191 273.628 180.715 273.27 181.278C273.123 181.509 272.739 181.837 273.281 181.309C273.144 181.442 273.025 181.596 272.889 181.73C272.791 181.827 272.266 182.291 272.544 182.061C272.803 181.845 272.065 182.393 271.943 182.473C270.593 183.35 269.116 184.04 267.641 184.677C266.479 185.178 265.29 185.596 264.089 185.992C255.401 188.858 246.525 191.198 237.706 193.617C226.885 196.585 216.045 199.478 205.196 202.341C200.866 203.484 196.458 204.98 192.031 205.683C189.27 206.121 186.486 205.886 183.764 205.351L172.017 203.04L150.541 198.815L124.042 193.602L97.2273 188.327L74.805 183.916L61.4822 181.295L59.7016 180.945C58.1134 180.633 56.463 181.396 56.0112 183.04C55.6063 184.514 56.509 186.416 58.1065 186.731L65.6694 188.218L84.9018 192.002L110.961 197.128L138.638 202.573L163.163 207.398L179.387 210.589C180.527 210.813 181.666 211.04 182.806 211.262C187.833 212.241 192.592 211.855 197.516 210.566C207.518 207.946 217.512 205.3 227.494 202.61C238.036 199.771 248.581 196.924 259.05 193.826C262.065 192.933 265.12 192.077 268.057 190.947C272.939 189.068 278.934 186.654 279.513 180.739C280.004 175.734 279.081 169.961 275.635 166.127C272.494 162.633 267.306 161.003 262.787 160.411C259.042 159.921 255.295 159.444 251.549 158.961L228.036 155.926L200.031 152.312L175.718 149.174C171.437 148.622 167.154 148.075 162.873 147.517C162.742 147.5 162.61 147.485 162.479 147.466C162.285 147.438 163.572 147.63 162.603 147.44C161.017 147.129 159.387 146.975 157.774 146.884C153.764 146.657 149.729 146.829 145.724 147.085C134.469 147.805 123.255 149.358 112.126 151.156C100.204 153.082 88.329 155.38 76.5847 158.2C71.6175 159.393 66.6691 160.68 61.7818 162.17C59.76 162.786 57.7481 163.437 55.7588 164.152C54.5869 164.573 53.3021 164.952 52.2367 165.595C50.4997 166.644 49.3669 168.27 48.6857 170.152C46.1067 177.279 50.8389 185.167 58.1065 186.731C59.6891 187.071 61.3505 186.26 61.7969 184.635C62.2079 183.139 61.2927 181.287 59.7016 180.945H59.7016Z" fill="black"/>
<path d="M54.8477 171.597C54.8477 171.597 143.98 135.375 163.648 139.845L262.235 159.062C271.984 160.971 275.978 162.693 276.547 167.025C277.116 171.357 276.948 173.123 267.776 176.87C258.604 180.618 190.514 198.285 190.514 198.285L54.8477 171.597Z" fill="white"/>
<path d="M55.6447 174.49C61.8414 171.972 68.0863 169.568 74.3405 167.198C87.7328 162.123 101.218 157.27 114.85 152.878C127.51 148.799 140.427 144.776 153.627 142.885C152.611 143.031 153.759 142.871 153.992 142.843C154.281 142.808 154.57 142.774 154.86 142.743C155.442 142.681 156.024 142.627 156.607 142.583C157.659 142.503 158.714 142.456 159.769 142.464C160.216 142.467 160.663 142.48 161.108 142.507C161.338 142.521 161.568 142.538 161.797 142.56C161.897 142.57 161.998 142.583 162.098 142.591C162.653 142.635 161.898 142.606 161.768 142.542C162.082 142.696 162.592 142.686 162.947 142.757C165.102 143.189 167.262 143.598 169.42 144.019L202.753 150.516L241.849 158.137C248.371 159.408 254.896 160.671 261.417 161.951C263.499 162.36 265.581 162.797 267.625 163.372C268.606 163.648 269.574 163.962 270.523 164.335C269.969 164.117 271.04 164.58 271.213 164.67C271.618 164.88 271.987 165.145 272.384 165.368C272.975 165.701 271.984 164.928 272.432 165.404C272.52 165.498 272.631 165.581 272.723 165.671C272.859 165.804 272.978 165.957 273.115 166.088C273.051 166.027 272.757 165.505 272.987 165.923C273.132 166.187 273.291 166.454 273.442 166.715C273.005 165.959 273.474 166.935 273.553 167.239C273.766 168.06 273.53 166.767 273.624 167.646C273.658 167.966 273.695 168.286 273.714 168.607C273.731 168.902 273.733 169.194 273.73 169.489C273.728 169.656 273.699 169.82 273.693 169.986C273.705 169.659 273.849 169.336 273.684 169.821C273.653 169.914 273.563 170.104 273.567 170.202C273.577 170.48 273.956 169.595 273.642 170.004C273.473 170.224 272.922 170.816 273.519 170.259C273.278 170.484 273.034 170.733 272.802 170.969C272.3 171.482 273.322 170.65 272.671 171.073C272.449 171.216 272.235 171.37 272.011 171.51C270.329 172.564 268.477 173.402 266.628 174.117C265.083 174.714 263.494 175.206 261.913 175.699C249.431 179.591 236.759 182.907 224.135 186.298C213.274 189.216 202.401 192.088 191.519 194.923C190.918 195.08 190.317 195.237 189.716 195.393H191.311L177.823 192.739L145.431 186.367L106.24 178.657L72.3534 171.991C66.8633 170.911 61.3819 169.754 55.8773 168.75C55.7996 168.736 55.7222 168.719 55.6447 168.704C54.0565 168.392 52.4061 169.155 51.9544 170.799C51.5495 172.273 52.4522 174.175 54.0497 174.49L62.4799 176.148L83.8699 180.356L112.592 186.006L143.135 192.015L169.61 197.223L186.511 200.548C187.546 200.751 188.579 200.975 189.617 201.159C191.044 201.412 192.383 200.9 193.755 200.542C201.479 198.528 209.198 196.494 216.912 194.441C227.462 191.634 238.005 188.799 248.517 185.852C252.791 184.654 257.061 183.442 261.31 182.159C263.975 181.354 266.66 180.563 269.232 179.491C272.485 178.135 276.185 176.694 278.348 173.752C279.736 171.866 279.864 169.583 279.587 167.34C279.219 164.368 278.047 162.085 275.585 160.31C273.051 158.483 269.752 157.657 266.757 156.959C262.319 155.924 257.808 155.151 253.337 154.28L228.023 149.345L197.694 143.433L172.944 138.609C169.307 137.9 165.614 136.946 161.918 136.572C158.481 136.224 154.974 136.678 151.574 137.164C147.202 137.788 142.875 138.728 138.586 139.773C127.922 142.373 117.426 145.665 107.018 149.139C96.7964 152.551 86.6519 156.193 76.5613 159.974C69.9637 162.447 63.3873 164.977 56.8415 167.584C55.91 167.955 54.9786 168.327 54.0497 168.704C52.5497 169.313 51.489 170.701 51.9544 172.394C52.3452 173.816 54.1347 175.103 55.6447 174.49H55.6447Z" fill="black"/>
<path d="M94.0215 170.567C94.0215 170.567 141.63 150.641 155.231 153.732L223.409 167.022C230.151 168.341 232.913 169.532 233.306 172.528C233.7 175.524 233.584 176.745 227.241 179.337C220.898 181.929 187.841 189.023 187.841 189.023L94.0215 170.567V170.567Z" fill="black"/>
<path d="M317.763 99.9097C317.763 99.9097 328.27 126.598 324.278 131.221C320.285 135.844 264.508 141.308 264.508 141.308C264.508 141.308 251.205 132.58 236.018 133.57C214.145 134.994 218.765 149.335 218.765 149.335C218.765 149.335 188.645 156.095 215.844 178.083C233.603 192.44 244.112 162.524 276.735 167.887C309.358 173.25 366.574 170.055 359.792 133.57C353.009 97.0847 345.503 84.1172 345.503 84.1172L317.763 99.9097V99.9097Z" fill="white"/>
<path d="M224.189 182.723C217.193 182.723 209.734 179.776 203.097 170.923C200.063 166.875 199.182 162.831 200.478 158.902C202.983 151.306 213.4 145.139 234.251 138.908C235.844 138.433 237.51 139.336 237.985 140.924C238.459 142.511 237.557 144.183 235.97 144.657C229.254 146.664 208.818 152.771 206.176 160.781C205.522 162.765 206.084 164.905 207.898 167.324C215.281 177.175 224.392 179.263 235.749 173.707C256.817 163.401 272.463 164.53 274.038 164.679C295.564 165.581 320.281 165.827 340.512 160.857C343.583 160.103 346.646 158.449 349.367 156.075C353.394 152.565 355.848 146.69 356.101 139.955C356.337 133.69 354.818 127.284 353.104 120.727C347.282 98.4631 340.167 76.2697 331.954 54.7629C331.363 53.215 332.139 51.4811 333.687 50.8898C335.238 50.3005 336.97 51.0749 337.56 52.6222C345.85 74.3322 353.032 96.735 358.908 119.209C360.74 126.219 362.363 133.097 362.097 140.181C361.781 148.563 358.578 156.005 353.311 160.597C349.87 163.597 345.94 165.702 341.943 166.684C320.955 171.841 295.668 171.591 273.703 170.671C273.639 170.668 273.575 170.663 273.511 170.656C273.374 170.643 258.471 169.271 238.386 179.097C234.254 181.118 229.348 182.723 224.189 182.723V182.723Z" fill="black"/>
<path d="M219.542 150.513C219.057 150.513 218.566 150.396 218.111 150.148C214.857 148.378 214.953 142.875 215.719 140.458C217.014 136.38 220.702 131.233 230.92 129.859C242.013 128.367 257.643 132.206 263.085 137.412C294.975 136.191 316.716 133.532 319.52 131.62C320.923 130.176 320.323 126.787 319.793 123.793C319.715 123.354 319.639 122.923 319.569 122.503C317.472 109.868 312.462 94.3912 308.04 80.7365C306.49 75.9479 305.025 71.4244 303.727 67.1696C303.244 65.5846 304.136 63.9078 305.721 63.4244C307.299 62.9406 308.982 63.8341 309.465 65.4186C310.749 69.6251 312.206 74.1246 313.749 78.8883C318.234 92.7423 323.319 108.444 325.489 121.521C325.554 121.92 325.628 122.33 325.701 122.747C326.418 126.792 327.398 132.332 323.658 135.967C322.437 137.153 319.897 139.622 290.104 141.869C275.858 142.943 262.015 143.457 261.877 143.462C260.82 143.503 259.823 142.98 259.25 142.094C257.34 139.147 243.092 134.278 231.719 135.806C226.016 136.572 222.557 138.748 221.438 142.274C221.154 143.169 221.244 144.597 221.451 145.195C222.542 146.09 222.879 147.661 222.18 148.946C221.635 149.946 220.605 150.513 219.542 150.513Z" fill="black"/>
<path d="M295.59 9.04693C295.59 9.04693 311.32 8.85784 325.714 29.9625C340.351 51.4214 359.274 81.189 364.457 83.2502C369.64 85.3114 353.151 109.117 304.197 103.14C304.197 103.14 300.866 102.832 298.409 88.9185C295.952 75.0054 291.43 48.2098 291.43 48.2098" fill="#82BE28"/>
<path d="M319.094 107.081C314.351 107.082 309.267 106.781 303.834 106.118C301.361 105.891 297.814 102.803 295.456 89.4406C293.025 75.6755 288.517 48.9777 288.472 48.7092C288.196 47.0759 289.297 45.5275 290.931 45.2521C292.564 44.9738 294.113 46.0773 294.388 47.7106C294.433 47.9787 298.937 74.6545 301.364 88.3976C302.871 96.9299 304.63 99.5807 305.189 100.237C314.607 101.318 342.609 103.217 358.108 90.193C360.682 88.0295 361.775 86.3019 362.173 85.3923C357.409 82.1515 348.791 69.7341 332.833 45.9016C329.621 41.1047 326.299 36.1447 323.236 31.6535C310.046 12.3161 296.187 12.0495 295.604 12.0475C293.956 12.0422 292.609 10.7087 292.602 9.06072C292.594 7.41277 293.907 6.06756 295.554 6.04754C296.272 6.03192 313.074 6.10613 328.193 28.2726C331.27 32.7849 334.599 37.7556 337.818 42.5632C347.466 56.9724 362.047 78.7477 365.593 80.4748C367.285 81.1462 368.994 83.1125 368.153 86.405C366.091 94.4802 349.821 107.08 319.094 107.081V107.081ZM304.474 100.153C304.528 100.16 304.583 100.166 304.638 100.173C304.586 100.165 304.532 100.158 304.474 100.153Z" fill="black"/>
<path d="M185.861 198.135L60.4029 174.808C51.572 173.166 43 164.857 41.3541 156.344L25.2314 76.4739C23.5855 67.9605 29.4641 62.3384 38.295 63.9803L163.753 87.3075C172.584 88.9495 181.156 97.2585 182.802 105.772L198.924 185.642C200.57 194.155 194.692 199.777 185.861 198.135Z" fill="white"/>
<path d="M186.658 195.243L176.198 193.298L150.435 188.508L117.918 182.462L86.8063 176.677L65.6874 172.75C64.2675 172.486 62.8468 172.226 61.4276 171.958C55.6251 170.863 50.3512 167.161 47.0733 162.199C45.2633 159.459 44.4696 156.652 43.8283 153.475L41.9908 144.372L35.8884 114.142L29.952 84.7336L28.3532 76.8137C28.2768 76.4352 28.1955 76.0573 28.124 75.6779C28.0006 75.0234 27.9527 74.5626 27.9556 73.6622C27.957 73.25 27.9777 72.8393 28.0198 72.4292C28.0718 71.9236 27.9358 72.8301 28.0388 72.3435C28.0888 72.1071 28.1327 71.8699 28.1925 71.6355C28.2392 71.4523 28.291 71.2695 28.3479 71.089C28.3357 71.1278 28.6446 70.2684 28.4846 70.6636C28.4148 70.8359 28.7827 70.0718 28.87 69.9201C28.9594 69.7648 29.0561 69.6147 29.1514 69.463C29.1944 69.3948 29.5234 68.9436 29.3061 69.2259C29.0894 69.5074 29.4388 69.0767 29.4942 69.0175C29.6454 68.856 29.7952 68.6937 29.9553 68.5406C30.0589 68.4415 30.8513 67.8366 30.3783 68.1626C30.7167 67.9294 31.0634 67.7261 31.4219 67.5265C31.4885 67.4895 32.0042 67.2354 31.6898 67.3801C31.3731 67.5258 31.9117 67.2939 31.9848 67.2685C32.3968 67.1253 32.8124 66.9996 33.2377 66.9019C33.3391 66.8786 34.4436 66.7107 33.9385 66.7643C34.4154 66.7137 34.8964 66.6949 35.3757 66.6968C36.1521 66.7 36.9856 66.7832 37.4977 66.8738C37.7518 66.9187 38.0052 66.9681 38.2589 67.0153L43.6921 68.0255L66.5158 72.2693L98.2608 78.1719L130.392 84.1463L154.683 88.6627C159.104 89.4848 164.236 89.9338 168.203 92.0073C173.983 95.0284 178.66 100.41 179.947 106.763C180.338 108.693 180.727 110.624 181.116 112.554L186.664 140.038L193.003 171.441C194.012 176.439 195.088 181.429 196.031 186.44C196.152 187.083 196.136 186.949 196.167 187.49C196.191 187.917 196.206 188.341 196.194 188.768C196.189 188.974 196.176 189.179 196.162 189.385C196.157 189.459 196.077 190.081 196.131 189.733C196.184 189.391 196.076 189.986 196.059 190.059C196.016 190.246 195.975 190.433 195.925 190.619C195.887 190.761 195.495 191.864 195.716 191.35C195.574 191.681 195.402 192.003 195.218 192.313C195.119 192.478 194.572 193.222 194.921 192.798C194.696 193.071 194.455 193.331 194.2 193.576C194.058 193.712 193.337 194.258 193.776 193.954C193.479 194.16 193.173 194.353 192.855 194.526C192.693 194.614 192.528 194.694 192.363 194.776C192.812 194.554 192.405 194.765 192.304 194.8C191.941 194.928 191.577 195.049 191.204 195.145C189.898 195.481 188.09 195.494 186.658 195.243C185.064 194.963 183.425 195.672 182.967 197.338C182.57 198.786 183.458 200.747 185.063 201.029C189.043 201.728 193.379 201.52 196.805 199.135C200.049 196.876 201.797 193.433 202.15 189.537C202.383 186.981 201.734 184.434 201.231 181.942L196.194 156.989L189.591 124.281C188.313 117.951 187.039 111.621 185.758 105.292C183.593 94.5916 173.987 86.1699 163.46 84.2125L147.023 81.1562L117.637 75.6923L83.9856 69.4353L55.1426 64.0724L39.7706 61.2141C35.4707 60.4146 30.8152 60.4389 27.1329 63.1397C22.3895 66.6188 21.3295 72.2751 22.4418 77.7854L26.4305 97.5447L33.0502 130.338L37.9527 154.624C38.5748 157.706 39.2919 160.631 40.8241 163.451C44.6145 170.426 51.7899 176.187 59.6511 177.71C63.6335 178.482 67.6285 179.193 71.6166 179.935L98.7832 184.986L132.125 191.186L162.915 196.911L182.351 200.524L185.063 201.029C186.654 201.325 188.298 200.589 188.753 198.933C189.154 197.473 188.259 195.541 186.658 195.243L186.658 195.243Z" fill="black"/>
<path d="M100.719 141.138C87.0531 147.051 83.4481 136.84 86.77 127.177C90.092 117.514 94.9428 112.816 102.195 114.121C112.513 115.978 126.076 138.382 122.533 145.25C118.547 152.977 106.349 138.703 100.719 141.138H100.719Z" fill="#2D8C3C"/>
</svg>
