<svg width="398" height="370" viewBox="0 0 398 370" fill="none" xmlns="http://www.w3.org/2000/svg">
<path d="M91.2166 225.988C71.612 241.607 60.5074 256.717 55.1838 265.272C51.9888 270.406 51.89 276.906 54.9856 282.101C59.3362 289.402 63.3676 295.365 59.2638 298.694C51.5098 304.985 45.8682 295.19 42.3724 290.092C32.1542 290.284 36.0438 329.794 14.9962 317.468C-5.15317 305.667 1.92776 277.32 22.5823 261.77C34.1757 244.932 51.7927 216.044 76.7523 197.056" fill="white"/>
<path d="M22.2747 322.848C19.5942 322.848 16.6508 321.916 13.4797 320.059C5.35823 315.303 0.589766 307.567 0.0521152 298.275C-0.725037 284.845 7.24294 269.741 20.3812 259.671C21.7966 257.61 23.3001 255.373 24.8955 253.001C36.6749 235.487 52.8073 211.499 74.9341 194.665C76.2528 193.663 78.1365 193.916 79.1424 195.237C80.1464 196.557 79.8902 198.441 78.5706 199.446C57.2356 215.676 41.4248 239.187 29.88 256.353C28.1683 258.897 26.5622 261.287 25.0558 263.473C24.873 263.74 24.6472 263.975 24.3891 264.17C12.5754 273.063 5.3768 286.314 6.04837 297.928C6.47164 305.254 10.0905 311.115 16.514 314.876C19.6187 316.695 22.1163 317.255 23.9375 316.542C27.6961 315.071 29.8018 308.125 31.6601 301.997C33.9661 294.39 36.1441 287.205 42.3163 287.089C43.3378 287.057 44.2782 287.561 44.8501 288.393C45.1082 288.77 45.378 289.173 45.6595 289.591C47.7065 292.64 50.7994 297.248 53.7888 297.696C54.1896 297.756 55.4232 297.942 57.3725 296.362C59.0441 295.006 56.8456 291.036 53.3029 285.134L52.4065 283.638C48.729 277.467 48.816 269.822 52.6343 263.685C57.611 255.688 68.9984 239.85 89.346 223.639C90.6423 222.606 92.5318 222.82 93.5661 224.117C94.5994 225.414 94.3853 227.303 93.0881 228.336C73.4453 243.986 62.5055 259.189 57.7332 266.858C55.1075 271.079 55.043 276.331 57.566 280.564L58.4517 282.043C62.6551 289.044 67.0023 296.284 61.1556 301.026C58.4986 303.183 55.7126 304.06 52.8972 303.636C47.6987 302.856 44.0319 297.903 41.3006 293.871C39.8314 295.743 38.3641 300.585 37.4071 303.739C35.1538 311.174 32.5985 319.601 26.1281 322.135C24.914 322.61 23.6276 322.848 22.2746 322.848L22.2747 322.848Z" fill="black"/>
<path d="M159.48 281.531C148.026 310.984 114.482 342.073 114.482 342.073L182.388 366.617L247.839 352.709C247.839 352.709 269.11 329.801 268.292 280.713L232.294 253.715C232.294 253.715 188.933 240.624 159.48 281.531H159.48Z" fill="white"/>
<path d="M182.387 369.621C182.041 369.621 181.695 369.561 181.367 369.442L113.462 344.898C112.476 344.542 111.748 343.698 111.54 342.672C111.331 341.645 111.673 340.584 112.44 339.871C112.771 339.565 145.615 308.898 156.681 280.443C156.773 280.206 156.894 279.982 157.043 279.777C172.889 257.769 192.713 251.058 206.554 249.304C221.532 247.404 232.695 250.699 233.162 250.84C233.498 250.942 233.815 251.101 234.096 251.313L270.094 278.311C270.836 278.868 271.28 279.736 271.295 280.664C272.123 330.388 250.942 353.781 250.039 354.753C249.619 355.206 249.068 355.518 248.464 355.647L183.012 369.555C182.806 369.599 182.597 369.621 182.387 369.621ZM120.031 340.886L182.601 363.503L246.212 349.985C249.488 345.943 265.622 323.886 265.308 282.229L230.95 256.461C228.751 255.893 219.178 253.712 207.064 255.294C188.874 257.669 173.761 266.984 162.137 282.982C157.228 295.424 148.088 309.492 134.966 324.802C128.895 331.884 123.413 337.532 120.031 340.886L120.031 340.886Z" fill="black"/>
<path d="M300.408 89.9802C321.397 76.2783 333.877 62.283 339.983 54.2679C343.648 49.4577 344.359 42.9954 341.767 37.532C338.124 29.8539 334.672 23.5368 339.072 20.6093C347.384 15.0779 352.077 25.3608 355.077 30.7657C365.268 31.5375 365.12 -8.163 384.912 6.09239C403.859 19.7394 394.138 47.2932 372.109 60.8266C358.98 76.4972 338.719 103.596 312.08 120.147" fill="white"/>
<path d="M312.084 123.151C311.08 123.151 310.099 122.648 309.53 121.732C308.655 120.323 309.088 118.472 310.496 117.596C333.267 103.448 351.225 81.5316 364.337 65.5286C366.279 63.1586 368.103 60.9322 369.807 58.8979C370.015 58.6501 370.261 58.437 370.537 58.2679C383.136 50.5282 391.552 38.0146 391.979 26.3882C392.247 19.0551 389.197 12.8795 383.157 8.52892C380.236 6.4267 377.802 5.63586 375.923 6.17058C372.044 7.28205 369.292 13.9983 366.864 19.9242C363.852 27.2797 360.956 34.2193 354.85 33.7599C353.844 33.6836 352.942 33.1064 352.452 32.2232C352.23 31.8234 351.999 31.3976 351.758 30.9538C350.008 27.726 347.361 22.847 344.429 22.1188C344.032 22.0205 342.825 21.7194 340.736 23.1095C338.943 24.3021 340.757 28.4621 343.73 34.6729L344.48 36.2448C347.559 42.7367 346.751 50.3395 342.372 56.088C336.663 63.5809 323.833 78.2749 302.049 92.4952C300.66 93.4004 298.8 93.0109 297.894 91.6223C296.987 90.2332 297.378 88.3724 298.767 87.4658C319.796 73.7381 332.12 59.6336 337.594 52.4481C340.607 48.4944 341.166 43.2719 339.053 38.8192L338.312 37.2654C334.786 29.8981 331.14 22.2796 337.408 18.1094C340.256 16.2144 343.106 15.6029 345.876 16.2897C350.978 17.5566 354.161 22.8334 356.502 27.1047C358.14 25.3799 360.058 20.6974 361.307 17.6475C364.252 10.4586 367.59 2.31027 374.269 0.396723C378.009 -0.673203 382.18 0.423611 386.667 3.65537C394.303 9.15603 398.322 17.3078 397.981 26.6082C397.487 40.0528 388.132 54.3377 374.102 63.1239C372.5 65.0418 370.793 67.1255 368.983 69.3352C355.604 85.6627 337.282 108.024 313.665 122.698C313.173 123.004 312.624 123.151 312.084 123.151V123.151Z" fill="black"/>
<path d="M321.016 122.903C320.652 91.996 314.653 80.5421 291.927 64.7248C282.79 61.293 279.25 72.6086 276.427 77.7277C260.015 107.487 206.113 107.268 206.113 107.268C206.113 107.268 165.206 121.176 133.299 139.993C101.392 158.811 72.9528 182.594 69.4844 193.99C65.6664 206.535 88.9424 247.802 108.755 253.26C117.669 255.716 147.362 207.626 161.934 205.444C161.934 205.444 179.933 231.442 158.164 272.005C155.822 276.37 159.934 281.435 164.69 280.049C170.661 278.308 180.242 277.418 197.932 279.895C238.839 285.622 256.023 304.13 290.382 303.621C329.179 303.046 367.848 278.949 363.415 254.496C362.726 250.693 361.916 246.941 358.222 245.806C346.831 242.307 328.343 239.048 313.289 222.625C295.29 202.99 298.203 197.358 266.569 149.724C284.022 144.997 312.471 138.357 321.016 122.903V122.903Z" fill="white"/>
<path d="M108.756 256.263C101.176 256.263 93.0338 248.382 87.539 241.771C75.7508 227.587 64.3673 205.076 66.5325 193.441C67.9832 185.643 81.2866 172.909 106.072 155.592C127.051 140.935 148.681 128.379 159.29 123.501C161.714 122.128 191.145 105.715 216.769 103.549C218.444 103.412 219.875 104.637 220.014 106.289C220.154 107.941 218.927 109.394 217.275 109.534C192.436 111.633 162.451 128.613 162.151 128.784C162.073 128.829 161.993 128.87 161.912 128.907C151.844 133.517 130.057 146.161 109.512 160.515C76.7225 183.424 72.8445 192.35 72.4369 194.54C70.8728 202.949 80.2719 223.631 92.1579 237.932C98.5726 245.65 104.777 250.257 108.756 250.257C114.189 250.257 118.915 244.282 125.457 236.011C134.039 225.161 145.793 210.302 167.121 199.494C168.599 198.744 170.409 199.336 171.157 200.815C171.907 202.294 171.316 204.102 169.837 204.851C149.685 215.063 138.863 228.744 130.168 239.737C122.865 248.97 117.096 256.263 108.756 256.263H108.756Z" fill="black"/>
<path d="M265.563 152.728C264.109 152.728 262.83 151.668 262.6 150.185C262.345 148.546 263.468 147.012 265.106 146.757C277.36 144.851 310.435 136.824 316.237 122.759C318.337 117.671 320.738 106.845 313.229 91.4977C306.971 78.7124 296.62 69.8793 292.584 68.5268C287.328 66.7633 285.347 69.389 280.4 77.246C274.289 86.9506 265.054 101.617 239.353 106.095C237.724 106.382 236.165 105.286 235.88 103.652C235.595 102.019 236.689 100.463 238.323 100.178C261.394 96.1581 269.441 83.3777 275.317 74.046C280.035 66.5546 284.491 59.4831 294.492 62.8316C299.989 64.6738 311.459 74.2191 318.623 88.8573C327.168 106.32 324.275 119.028 321.79 125.05C313.513 145.108 267.962 152.391 266.028 152.692C265.871 152.716 265.717 152.728 265.563 152.728Z" fill="black"/>
<path d="M290.794 306.52C280.092 306.52 269.368 304.573 259.057 300.706C219.06 285.708 189.573 277.506 166.185 282.956C162.742 283.757 159.31 282.494 157.232 279.657C155.184 276.86 155.015 273.264 156.793 270.272C170.494 247.194 167.267 222.825 160.339 208.97C159.598 207.486 160.199 205.682 161.682 204.941C163.166 204.199 164.969 204.8 165.712 206.283C173.315 221.492 176.894 248.179 161.957 273.338C161.186 274.636 161.785 275.708 162.078 276.109C162.319 276.437 163.236 277.477 164.822 277.106C189.684 271.313 220.118 279.69 261.166 295.083C297.323 308.642 330.063 294.463 347.113 278.203C348.313 277.059 350.213 277.103 351.358 278.304C352.503 279.504 352.458 281.404 351.258 282.549C340.396 292.908 326.111 300.581 311.033 304.156C304.375 305.735 297.588 306.52 290.794 306.52H290.794Z" fill="black"/>
<path d="M359.254 272.227C358.827 272.227 358.394 272.135 357.982 271.942C356.48 271.238 355.833 269.45 356.538 267.948C357.554 265.778 360.052 259.039 360.195 255.238C360.383 250.223 359.314 249.587 345.893 246.734C343.767 246.282 341.41 245.781 338.804 245.189C317.144 240.266 300.698 216.541 281.186 179.856C261.355 142.576 237.354 125.44 237.114 125.271C235.758 124.318 235.43 122.446 236.381 121.089C237.332 119.732 239.201 119.401 240.561 120.353C241.587 121.071 265.932 138.391 286.488 177.036C304.685 211.245 320.771 234.931 340.136 239.332C342.711 239.917 345.041 240.413 347.142 240.859C359.682 243.525 366.589 244.993 366.197 255.463C365.995 260.853 362.764 268.816 361.975 270.498C361.465 271.587 360.383 272.227 359.254 272.227Z" fill="black"/>
</svg>
