<svg width="432" height="392" viewBox="0 0 432 392" fill="none" xmlns="http://www.w3.org/2000/svg">
<path d="M183.648 145.801C178.009 141.034 170.792 136.434 163.685 128.35C156.567 120.253 138.149 102.431 133.827 82.837C132.293 75.8778 121.538 75.811 121.165 89.1196C120.836 100.844 103.005 114.502 85.03 120.325C76.2621 123.166 69.4399 134.116 83.0794 145.924C96.7189 157.731 129.897 179.878 138.426 206.487C158.396 204.049 168.774 152.58 183.648 145.801Z" fill="#2D8C3C"/>
<path d="M121.165 89.1196C100.446 67.2402 101.286 67.5584 95.5117 59.3539C85.2444 44.7644 80.925 39.7331 78.9541 23.9286L75.6675 10.1203C74.0204 3.56331 66.0674 0.522465 60.6103 5.38687C55.1532 10.2513 57.7649 14.7392 54.893 19.2016C52.1678 23.4363 41.7043 23.1974 33.6784 18.2443C25.6524 13.2912 15.1084 16.8781 10.8042 18.9846C4.68618 21.9788 0.850114 28.7818 4.31295 35.1178C7.77579 41.4537 17.1169 40.9187 20.8712 40.9068C25.0792 40.8935 38.8643 41.5592 48.6681 47.1856C58.0249 52.5555 78.1938 87.1192 101.312 113.133C124.697 106.298 121.165 89.1196 121.165 89.1196L121.165 89.1196Z" fill="white"/>
<path d="M101.314 116.133C100.404 116.134 99.5056 115.721 98.9158 114.938C95.7682 110.758 91.9361 105.525 87.8784 99.9852C74.3781 81.5497 53.9753 53.6897 47.1763 49.7878C37.2845 44.1109 22.958 43.9068 20.9648 43.9068H20.8818L20.1269 43.9131C15.4676 43.9678 5.78964 44.0713 1.68115 36.557C-0.122603 33.2552 -0.482962 29.6433 0.639134 26.111C1.95264 21.9786 5.17733 18.3989 9.48699 16.2899C11.9763 15.0721 24.9209 9.31468 35.2552 15.6908C42.7026 20.2871 51.0377 19.6489 52.3718 17.5781C53.1853 16.3139 53.3767 14.9828 53.6189 13.2977C54.0378 10.3865 54.5583 6.76337 58.6151 3.14757C61.8476 0.26664 66.1816 -0.712382 70.21 0.525436C74.3156 1.78768 77.5217 5.18423 78.5784 9.38941C78.9827 10.9964 78.0071 12.6263 76.4006 13.0301C74.7863 13.4369 73.1632 12.4578 72.7599 10.8514C72.2033 8.63597 70.5909 6.92011 68.4473 6.26092C67.25 5.89226 64.9023 5.5817 62.6073 7.62618C60.1854 9.78492 59.9227 11.6165 59.5575 14.1512C59.2674 16.1718 58.9383 18.4619 57.4168 20.8252C54.0251 26.0934 42.4799 27.2013 32.1047 20.7969C24.2872 15.975 13.3465 21.0816 12.1248 21.6792C9.321 23.0513 7.16568 25.3873 6.35804 27.9284C5.73401 29.8889 5.93225 31.824 6.94693 33.679C9.32589 38.0316 16.3026 37.954 20.0605 37.9135L20.8623 37.9066C23.7735 37.892 38.9975 38.1757 50.1627 44.5836C57.4832 48.7848 73.0851 69.6281 92.7194 96.4402C96.7644 101.964 100.585 107.181 103.709 111.328C104.706 112.652 104.44 114.533 103.117 115.529C102.577 115.937 101.943 116.133 101.314 116.133L101.314 116.133Z" fill="black"/>
<path d="M121.167 92.1198C120.371 92.1198 119.576 91.8049 118.986 91.1813C118.253 90.4059 100.956 72.094 95.1252 63.8071C94.2335 62.54 93.3712 61.3252 92.5392 60.1518C83.7059 47.7018 77.8709 39.4775 75.9782 24.2999C75.7732 22.6558 76.9392 21.1568 78.5838 20.9517C80.2254 20.7461 81.7274 21.9131 81.9315 23.5577C83.6376 37.2367 88.8301 44.5553 97.4318 56.6795C98.2688 57.8593 99.136 59.0805 100.032 60.354C105.615 68.2872 123.169 86.8716 123.346 87.0582C124.484 88.2618 124.431 90.1608 123.227 91.2995C122.647 91.8478 121.906 92.1198 121.167 92.1198H121.167Z" fill="black"/>
<path d="M163.863 363.931C141.354 358.429 129.262 363.362 121.166 368.946C117.276 371.629 107.545 375.953 106.845 366.546C105.74 351.703 108.603 339.839 115.272 317.91C127.251 278.521 138.913 233.037 138.427 206.487C138.221 195.168 149.903 163.45 163.87 144.827C170.089 136.536 178.011 141.033 178.011 141.033C189.701 148.45 208.91 159.563 238.799 137.841C238.799 137.841 272.661 180.991 275.833 204.404C283.936 264.224 281.166 320.576 292.83 351.962C295.801 359.956 307.765 374.757 286.426 385.078C280.746 387.825 251.883 391.973 230.95 383.423C217.305 377.85 203.768 373.686 163.863 363.931Z" fill="#2D8C3C"/>
<path d="M268.456 391.043C245.49 391.043 215.06 381.755 201.193 377.077C149.756 359.721 130.412 364.254 123.238 371.114C122.042 372.259 120.142 372.218 118.997 371.02C117.851 369.822 117.894 367.923 119.091 366.778C131.434 354.971 158.917 356.48 203.111 371.391C237.522 383.001 266.716 387.575 281.202 383.624C288.592 381.608 293.024 378.696 294.751 374.723C296.595 370.48 295.529 364.529 291.585 357.038C277.409 330.119 277.245 277.386 277.166 252.044C277.146 245.477 277.126 239.271 276.829 238C276.307 236.465 277.101 234.785 278.63 234.22C280.184 233.644 281.91 234.44 282.485 235.994C283.091 237.636 283.133 241.396 283.166 252.025C283.244 276.889 283.405 328.627 296.893 354.242C301.797 363.553 302.895 371.035 300.254 377.114C297.755 382.864 292.04 386.887 282.78 389.412C278.591 390.554 273.718 391.042 268.456 391.043ZM276.841 238.033C276.846 238.047 276.852 238.061 276.856 238.074L276.841 238.033Z" fill="black"/>
<path d="M266.105 115.067C251.533 131.629 245.783 132.84 231.065 143.255C214.181 155.203 275.663 239.742 277.895 220.818C279.837 204.355 285.556 193.23 290.923 185.567C294.78 180.06 304.757 166.348 330.271 156.651C332.123 155.947 344.327 148.55 335.6 142.341C307.106 122.067 297.446 116.419 292.106 103.067C290.106 98.0666 286.111 94.8704 279.105 101.067C271.339 107.935 267.989 112.925 266.105 115.067Z" fill="#2D8C3C"/>
<path d="M294.077 100.373C306.747 87.7113 329.798 67.1704 334.683 58.9402C343.788 43.5986 350.578 40.364 353.627 24.7316L357.851 11.1807C359.943 4.75183 368.085 2.26259 373.197 7.48919C378.308 12.7158 375.395 17.0143 377.955 21.663C380.384 26.0742 390.839 26.5522 399.185 22.1602C407.531 17.7682 417.805 22.0686 421.955 24.4648C427.854 27.8708 431.215 34.9205 427.327 41.0045C423.438 47.0886 414.156 45.9152 410.411 45.6464C406.214 45.345 392.415 45.0654 382.249 50.0074C372.547 54.7241 335.95 101.698 311.105 126.067C288.243 117.648 294.077 100.373 294.077 100.373Z" fill="white"/>
<path d="M310.223 130.501C309.527 130.501 308.827 130.26 308.259 129.768C307.007 128.683 306.871 126.788 307.956 125.536C309.421 123.847 311.143 121.852 313.071 119.619C343.455 84.4276 372.707 51.3107 380.938 47.3091C392.515 41.6811 407.7 42.4428 410.626 42.6542L411.427 42.7158C415.165 43.0141 422.127 43.5698 424.798 39.3895C425.937 37.6077 426.268 35.6912 425.779 33.6921C425.149 31.1017 423.157 28.6236 420.455 27.0631C419.277 26.3824 408.707 20.5409 400.582 24.815C389.79 30.4948 378.349 28.5987 375.327 23.1098C373.972 20.6483 373.8 18.3412 373.648 16.306C373.458 13.7517 373.32 11.9065 371.052 9.58658C368.903 7.38975 366.536 7.53868 365.32 7.82482C363.136 8.33557 361.411 9.93716 360.704 12.1091C360.191 13.6848 358.5 14.5481 356.922 14.0335C355.347 13.5212 354.486 11.8283 354.998 10.2526C356.339 6.12996 359.771 2.96095 363.953 1.9824C368.059 1.02291 372.315 2.29637 375.342 5.39166C379.141 9.277 379.413 12.927 379.632 15.8602C379.758 17.5579 379.858 18.8993 380.583 20.2157C381.772 22.375 390.045 23.5806 397.788 19.5053C408.535 13.8518 421.054 20.4804 423.455 21.8666C427.61 24.2661 430.582 28.0582 431.61 32.2707C432.488 35.8714 431.88 39.4505 429.854 42.6205C425.243 49.8351 415.594 49.066 410.95 48.6973L410.196 48.6387C408.565 48.523 393.977 47.6426 383.561 52.7057C375.307 56.7185 334.877 103.544 317.613 123.54C315.682 125.776 313.958 127.773 312.492 129.466C311.898 130.15 311.063 130.501 310.223 130.501H310.223Z" fill="black"/>
<path d="M304.048 93.2972C303.255 93.2972 302.464 92.9847 301.874 92.3645C300.732 91.1643 300.779 89.2653 301.981 88.1232C302.199 87.9147 323.978 67.1794 330.106 59.6284C331.087 58.4204 332.034 57.2622 332.949 56.1435C342.362 44.6349 348.044 37.689 350.683 24.1569C351.001 22.5309 352.573 21.4669 354.201 21.7868C355.827 22.1037 356.889 23.6789 356.572 25.3054C353.645 40.3189 347.259 48.1257 337.594 59.9424C336.682 61.0552 335.74 62.2076 334.765 63.4098C328.395 71.2591 307.023 91.6086 306.115 92.471C305.535 93.0232 304.791 93.2972 304.048 93.2972Z" fill="black"/>
<path d="M277.898 223.819C277.83 223.819 277.76 223.816 277.691 223.812C276.038 223.699 274.79 222.267 274.902 220.614C276.804 192.723 294.509 169.468 323.475 156.814C334.106 152.17 333.121 149.103 331.979 145.552C329.633 138.248 322.719 135.595 314.714 132.523C303.619 128.266 289.811 122.967 288.017 102.303C287.874 100.652 289.096 99.198 290.746 99.0544C292.415 98.906 293.853 100.133 293.994 101.784C295.465 118.71 305.859 122.699 316.864 126.921C325.517 130.242 334.466 133.676 337.692 143.716C340.417 152.194 337.104 157.408 325.878 162.312C299.03 174.04 282.633 195.439 280.888 221.023C280.78 222.606 279.462 223.818 277.898 223.818V223.819Z" fill="black"/>
<path d="M166.432 134.216C165.652 134.216 164.873 133.913 164.284 133.31C154.285 123.055 139.959 106.778 131.034 83.9279C130.43 82.3849 131.193 80.6451 132.736 80.042C134.281 79.4371 136.02 80.2022 136.622 81.7452C145.151 103.579 158.946 119.24 168.581 129.121C169.737 130.307 169.713 132.207 168.527 133.364C167.943 133.932 167.187 134.216 166.432 134.216Z" fill="black"/>
<path d="M204.158 153.726C199.858 153.726 196.23 153.199 193.517 152.608C185.223 150.801 178.139 146.883 175.469 142.627C174.588 141.224 175.012 139.372 176.416 138.491C177.821 137.611 179.671 138.034 180.551 139.438C181.78 141.396 186.586 144.957 194.794 146.745C202.008 148.315 216.535 149.36 232.753 138.698C244.953 130.678 252.282 124.41 262.424 115.736C264.804 113.7 267.348 111.524 270.155 109.154C271.421 108.084 273.313 108.245 274.383 109.51C275.452 110.776 275.292 112.668 274.026 113.738C271.23 116.099 268.696 118.267 266.324 120.296C256.014 129.113 248.566 135.484 236.05 143.712C224.019 151.621 212.747 153.726 204.158 153.726V153.726Z" fill="black"/>
<path d="M106.842 369.547C105.582 369.547 104.408 368.746 103.993 367.483C99.7245 354.502 104.425 340.608 112.212 317.589C114.11 311.978 116.261 305.619 118.497 298.631C128.769 266.535 134.897 225.387 135.895 210.489C136.782 197.269 104.14 163.844 83.1695 149.858C78.6039 146.812 72.9475 141.809 71.9329 135.269C71.3098 131.25 72.511 127.316 75.5042 123.574C78.7641 119.5 84.1792 117.277 90.4499 114.705C101.445 110.193 113.908 105.079 118.261 88.3632C118.679 86.7601 120.321 85.7982 121.92 86.2157C123.524 86.6331 124.485 88.2718 124.068 89.8749C118.959 109.493 103.798 115.713 92.7273 120.256C87.2281 122.512 82.479 124.461 80.1899 127.323C78.2631 129.73 77.5023 132.029 77.8617 134.349C78.5785 138.965 83.5806 142.92 86.4996 144.866C106.683 158.328 143.04 193.62 141.882 210.89C140.867 226.043 134.641 267.871 124.212 300.46C121.96 307.495 119.801 313.879 117.896 319.512C110.508 341.349 106.049 354.529 109.693 365.609C110.21 367.183 109.354 368.878 107.78 369.396C107.469 369.498 107.153 369.547 106.842 369.547H106.842Z" fill="black"/>
<path d="M138.893 213.69C138.815 213.69 138.736 213.687 138.657 213.68C137.005 213.551 135.77 212.108 135.899 210.456C137.644 188.127 146.186 172.425 146.549 171.768C147.349 170.317 149.176 169.788 150.625 170.59C152.075 171.391 152.603 173.215 151.803 174.666C151.67 174.908 143.514 190.018 141.882 210.923C141.759 212.496 140.444 213.69 138.893 213.69H138.893Z" fill="black"/>
</svg>
