<svg width="304" height="364" viewBox="0 0 304 364" fill="none" xmlns="http://www.w3.org/2000/svg">
<path d="M61.3333 25.6247C64.5758 23.4711 75.9283 17.1051 81.0867 14.5596C96.2351 7.08433 122.376 -1.16688 133.974 4.30038C153.432 13.4727 135.772 30.2236 129.922 31.155C124.071 32.0865 119.078 33.4539 114.593 34.1909C110.108 34.9279 107.011 38.3576 108.098 44.4617C109.185 50.5659 100.435 50.607 93.5529 48.7079C86.6709 46.8088 84.343 46.1748 71.2731 52.4064C58.2033 58.638 36.9608 82.6717 54.7333 97.9242C54.7333 97.9242 51.8078 117.496 39.5987 126.896C-6.15431 90.021 25.3771 49.5056 61.3333 25.6247Z" fill="white"/>
<path d="M153.912 164.53C155.302 146.524 133.941 119.438 106.027 107.361C91.9259 101.26 74.1723 88.5242 66.0824 83.2122C62.4295 80.8137 57.3347 80.8828 55.961 91.5258C53.5761 110.004 41.0094 127.696 31.199 135.059C19.1295 144.116 25.6491 152.551 43.1425 157.946C60.6359 163.342 63.3004 165.019 74.1116 169.41C85.1203 173.882 94.2984 187.899 90.8183 207.895C87.3519 227.813 148.777 231.054 153.912 164.53H153.912Z" fill="#82BE28"/>
<path d="M108.1 337.079C108.027 337.079 107.953 337.077 107.878 337.071C106.225 336.95 104.982 335.512 105.103 333.858C105.258 331.742 105.451 329.157 105.673 326.189C107.864 296.82 112.997 228.041 111.232 210.333C109.858 196.561 110.487 179.069 110.983 169.868C111.073 168.212 112.481 166.949 114.144 167.032C115.8 167.122 117.069 168.536 116.98 170.192C116.492 179.221 115.874 196.365 117.207 209.737C119.023 227.966 113.864 297.11 111.661 326.636C111.439 329.6 111.246 332.183 111.092 334.296C110.977 335.875 109.659 337.079 108.1 337.079L108.1 337.079Z" fill="black"/>
<path d="M210.261 340.222C208.691 340.222 207.369 339 207.268 337.41C206.137 319.675 204.457 304.307 202.964 291.613C201.27 277.214 200.747 225.464 203.141 210.209C203.398 208.57 204.938 207.452 206.572 207.708C208.21 207.965 209.33 209.502 209.073 211.14C206.792 225.68 207.307 277.135 208.927 290.911C210.43 303.684 212.12 319.152 213.261 337.028C213.366 338.683 212.11 340.11 210.456 340.216C210.39 340.22 210.326 340.222 210.261 340.222Z" fill="black"/>
<path d="M128.819 119.813C134.565 116.244 142.566 115.458 158.544 115.458C180.509 115.458 192.482 123.207 186.159 130.862C183.262 134.368 155.649 140.057 139.303 139.249C119.972 138.293 112.765 129.785 128.819 119.813H128.819Z" fill="white"/>
<path d="M222.488 224.974C212.257 152.511 198.625 126.013 198.625 126.013C178.998 105.12 157.824 134.498 141.996 133.4C132.283 132.727 131.013 123.749 129.682 120.089C128.325 116.357 121.264 116.538 114.593 123.846C98.9115 141.026 91.1522 164.503 91.1522 194.378C91.1522 234.828 68.4739 328.444 80.9519 340.23C105.795 363.696 151.509 363.184 167.03 357.041C198.979 344.394 224.778 351.272 232.845 354.156C240.911 357.041 228.623 268.421 222.488 224.974L222.488 224.974Z" fill="#82BE28"/>
<path d="M147.296 164.687C147.385 162.07 145.409 159.879 142.881 159.793C140.354 159.706 138.233 161.757 138.143 164.374C138.054 166.99 140.03 169.181 142.557 169.267C145.085 169.354 147.206 167.303 147.296 164.687Z" fill="black"/>
<path d="M143.836 194.381C143.925 191.765 141.949 189.574 139.422 189.488C136.894 189.401 134.773 191.452 134.684 194.068C134.594 196.685 136.57 198.876 139.098 198.962C141.625 199.049 143.746 196.998 143.836 194.381Z" fill="black"/>
<path d="M96.6735 354.98C96.2728 354.98 95.8662 354.899 95.4753 354.728C78.2344 347.207 70.4091 337.746 72.2152 326.608C76.7929 298.38 89.6045 211.098 88.162 194.64C86.7723 178.786 79.2821 175.277 70.6094 171.215C63.0215 167.66 49.4984 163.048 42.2595 160.815C31.0291 157.351 24.4371 152.225 23.193 145.991C22.5538 142.787 23.0914 137.889 29.2826 132.748C41.3642 122.718 48.9159 110.811 51.7961 97.2983C52.1421 95.6765 53.737 94.6405 55.3584 94.988C56.9808 95.3334 58.0148 96.9284 57.6688 98.5503C54.5003 113.415 46.2635 126.456 33.187 137.311C30.9568 139.163 28.5027 141.911 29.0813 144.816C29.8338 148.586 35.4212 152.422 44.0284 155.077C51.4286 157.359 65.2919 162.092 73.1563 165.777C82.2014 170.014 92.4524 174.816 94.1432 194.117C95.7782 212.77 81.0999 309.331 78.1416 327.57C76.831 335.654 83.4709 342.94 97.8756 349.224C99.3953 349.888 100.09 351.657 99.4275 353.177C98.935 354.306 97.8316 354.98 96.6735 354.98L96.6735 354.98Z" fill="black"/>
<path d="M106.027 110.365C105.629 110.365 105.225 110.285 104.836 110.117C92.5181 104.787 80.0573 96.3015 71.8117 90.6868C70.4112 89.733 69.1221 88.8548 67.9621 88.0793C66.5831 87.1577 66.2127 85.2935 67.1343 83.915C68.0559 82.536 69.9216 82.1651 71.2986 83.0872C72.4714 83.8715 73.7761 84.7594 75.1913 85.7235C83.2492 91.2107 95.4266 99.5027 107.221 104.606C108.743 105.264 109.442 107.031 108.784 108.554C108.294 109.687 107.188 110.365 106.027 110.365Z" fill="black"/>
<path d="M137.823 363.485C130.172 363.485 122.669 362.795 115.707 361.402C114.08 361.077 113.026 359.495 113.351 357.869C113.676 356.245 115.255 355.189 116.883 355.514C132.134 358.564 150.152 358.057 166.321 354.124C189.307 348.533 213.263 343.681 231.377 350.925C232.916 351.542 233.665 353.289 233.049 354.828C232.434 356.368 230.684 357.116 229.147 356.501C212.684 349.914 189.782 354.597 167.74 359.958C158.109 362.301 147.839 363.485 137.823 363.485Z" fill="black"/>
<path d="M216.253 246.205C216.253 246.205 223.61 268.024 225.818 277.818C229.746 295.234 231.82 301.538 227.609 316.91L225.377 330.938C224.397 337.633 230.593 343.482 237.499 341.066C244.404 338.65 243.702 333.501 248.062 330.47C252.2 327.593 261.788 331.809 267.321 339.455C272.854 347.101 283.978 347.809 288.764 347.504C295.566 347.07 301.712 342.242 300.928 335.058C300.144 327.875 291.299 324.804 287.821 323.381C283.924 321.787 271.426 315.908 264.505 306.96C257.9 298.42 247.076 256.784 240.961 233.233L216.253 246.205Z" fill="white"/>
<path d="M286.978 350.558C282.058 350.558 270.936 349.569 264.889 341.215C259.754 334.119 251.798 331.527 249.777 332.935C248.542 333.793 247.856 334.951 246.988 336.418C245.49 338.951 243.624 342.103 238.49 343.899C234.4 345.33 230.017 344.581 226.763 341.898C223.448 339.163 221.779 334.797 222.406 330.504C222.647 328.863 224.167 327.727 225.812 327.967C227.452 328.207 228.588 329.732 228.348 331.372C228.017 333.634 228.854 335.838 230.585 337.266C231.55 338.063 233.603 339.247 236.507 338.232C239.572 337.16 240.515 335.566 241.821 333.36C242.861 331.602 244.04 329.609 246.35 328.004C251.497 324.427 262.599 327.809 269.754 337.695C275.142 345.14 287.218 344.596 288.573 344.507C291.689 344.309 294.575 342.971 296.293 340.929C297.619 339.353 298.174 337.487 297.944 335.383C297.406 330.45 290.918 327.854 287.432 326.46L286.685 326.16C283.968 325.048 270.012 318.986 262.13 308.796C255.975 300.838 246.301 265.749 236.764 229.016C222.79 178.915 215.833 164.685 211.676 156.182C210.916 154.627 210.259 153.284 209.651 151.917C208.978 150.401 209.66 148.627 211.175 147.954C212.694 147.28 214.466 147.963 215.138 149.477C215.702 150.745 216.336 152.043 217.07 153.545C221.318 162.232 228.427 176.772 242.562 227.454C247.978 248.314 260.629 297.04 266.88 305.123C273.971 314.289 287.446 319.983 288.959 320.602L289.662 320.885C293.986 322.615 302.984 326.214 303.914 334.732C304.322 338.475 303.276 341.954 300.889 344.793C298.096 348.114 293.747 350.194 288.956 350.5C288.536 350.526 287.855 350.558 286.978 350.558L286.978 350.558Z" fill="black"/>
<path d="M227.61 319.912C227.347 319.912 227.08 319.878 226.814 319.805C225.216 319.367 224.274 317.715 224.712 316.116C228.404 302.638 227.042 296.675 223.752 282.27C223.476 281.064 223.188 279.803 222.889 278.477C220.814 269.274 210.776 237.622 199.77 208.971C199.176 207.423 199.949 205.687 201.496 205.093C203.049 204.496 204.781 205.27 205.376 206.818C216.476 235.718 226.632 267.78 228.747 277.156C229.044 278.476 229.331 279.732 229.605 280.933C233.031 295.927 234.594 302.77 230.504 317.702C230.138 319.036 228.929 319.912 227.61 319.912Z" fill="black"/>
<path d="M265.042 236.926C266.579 235.673 269.583 229.616 268.314 228.092C251.955 208.462 233.072 171.668 225.602 158.028C219.374 146.655 204.537 134.476 200.933 129.679C196.873 124.274 196.799 122.611 192.97 122.263C173.979 120.537 173.946 142.738 179.634 162.641C184.158 178.47 179.601 256.893 202.972 261.861C224.937 240.562 256.464 243.918 265.042 236.926Z" fill="#82BE28"/>
<path d="M162.153 153.694C156.103 153.694 151.092 149.394 147.291 146.133C145.86 144.905 143.698 143.049 142.914 142.906C140.557 142.635 138.086 144.255 135.474 145.972C134.616 146.537 133.729 147.12 132.828 147.644C128.589 150.109 124.182 150.501 120.738 148.722C118.034 147.325 116.323 144.751 116.042 141.66C115.531 136.046 118.241 122.272 125.029 117.051C126.342 116.041 128.228 116.286 129.239 117.6C130.25 118.915 130.004 120.8 128.69 121.811C124.142 125.309 121.61 136.58 122.022 141.117C122.116 142.153 122.625 142.938 123.493 143.386C125.055 144.193 127.415 143.844 129.81 142.453C130.568 142.012 131.348 141.499 132.175 140.956C135.41 138.828 139.085 136.416 143.616 136.943C146.145 137.237 148.488 139.248 151.201 141.576C155.007 144.841 159.322 148.543 163.736 147.502C165.871 147 167.948 143.508 170.353 139.464C173.041 134.943 176.388 129.317 181.686 124.709C182.937 123.62 184.833 123.752 185.921 125.004C187.009 126.256 186.877 128.152 185.626 129.24C181.055 133.215 178.111 138.165 175.514 142.533C172.409 147.753 169.727 152.261 165.112 153.347C164.1 153.585 163.113 153.694 162.153 153.694V153.694Z" fill="black"/>
<path d="M202.972 264.863C202.148 264.863 201.329 264.526 200.736 263.865C199.629 262.63 199.732 260.732 200.967 259.626C215.385 246.697 235.822 242.608 249.344 239.902C255.105 238.75 260.547 237.661 262.36 236.415C263.943 235.327 264.857 233.951 265.076 232.325C265.337 230.385 264.552 228.163 262.921 226.229C258.685 221.207 244.213 203.296 235.798 183.668C223.849 155.79 208.786 137.277 198.675 129.247C197.376 128.216 197.159 126.327 198.19 125.029C199.222 123.731 201.109 123.513 202.408 124.545C207.594 128.663 225.724 144.925 241.318 181.302C247.744 196.293 259.061 212.339 267.51 222.358C270.272 225.632 271.521 229.457 271.027 233.127C270.578 236.455 268.757 239.303 265.761 241.364C262.933 243.307 257.727 244.349 250.522 245.79C236.869 248.522 218.172 252.263 204.976 264.096C204.402 264.61 203.686 264.863 202.972 264.863H202.972Z" fill="black"/>
<path d="M37.1416 130.395C36.5044 130.395 35.8623 130.193 35.3179 129.776C14.4923 113.819 7.47224 94.1509 14.4522 71.3179C23.7709 40.832 54.4157 24.9056 63.5858 20.7506C65.0958 20.065 66.8755 20.7354 67.5596 22.2459C68.2437 23.7563 67.5742 25.5355 66.0643 26.2196C57.4737 30.1123 28.7777 44.9944 20.1949 73.0731C13.9362 93.5455 20.0777 110.534 38.9692 125.01C40.2856 126.018 40.5348 127.903 39.5263 129.219C38.936 129.99 38.0437 130.395 37.1416 130.395V130.395Z" fill="black"/>
<path d="M54.7297 100.927C54.2 100.927 53.6644 100.787 53.1787 100.493C45.7541 96.0008 42.9013 88.6651 45.1471 79.837C49.333 63.3795 70.9932 44.5241 86.5326 43.8092C91.51 43.5908 94.7938 44.9483 97.4433 46.0468C99.8808 47.0578 101.024 47.4825 102.596 46.9161C105.165 45.9901 105.354 44.4484 105.211 40.5992C105.193 40.1218 105.176 39.6542 105.171 39.2046C105.081 31.0772 114.201 29.5204 119.646 29.3161L119.978 29.3029C122.928 29.1549 131.905 28.7053 135.741 23.8187C138.523 20.2755 139.634 16.6125 138.871 13.5041C138.202 10.7813 136.082 8.54473 132.739 7.03723C130.379 5.97196 124.286 4.78207 109.985 8.77783L109.31 8.96646C101.768 11.0726 90.3705 14.2557 84.3141 17.4886C82.8491 18.2695 81.0322 17.7169 80.2514 16.2538C79.4705 14.7912 80.0236 12.9725 81.4857 12.1916C88.1217 8.64931 99.9003 5.35967 107.694 3.18319L108.369 2.99505C120.665 -0.441676 129.694 -0.923497 135.208 1.56377C140.295 3.85753 143.578 7.49168 144.702 12.0724C145.915 17.0117 144.41 22.4998 140.464 27.5267C135.512 33.8357 126.572 34.9846 120.278 35.2997L119.872 35.3168C115.887 35.4664 111.143 36.2507 111.176 39.1377C111.18 39.5369 111.196 39.9522 111.212 40.3769C111.346 43.9998 111.57 50.0641 104.632 52.565C100.811 53.942 97.8001 52.695 95.1427 51.5936C92.8275 50.6329 90.4311 49.637 86.8082 49.808C73.9145 50.4007 54.4864 67.4808 50.9661 81.3171C49.3614 87.6267 51.102 92.2186 56.2866 95.3553C57.7057 96.2139 58.1601 98.0595 57.3011 99.4786C56.7372 100.411 55.7462 100.927 54.7297 100.927L54.7297 100.927Z" fill="black"/>
</svg>
