<svg width="395" height="253" viewBox="0 0 395 253" fill="none" xmlns="http://www.w3.org/2000/svg">
<path d="M58.2146 99.6837L123.768 71.2331L138.97 100.895L51.8893 132.234L58.2146 99.6837Z" fill="white"/>
<path d="M54.6087 102.687C50.7143 102.687 47.0086 101.553 42.9803 99.1322C41.5586 98.2782 41.0981 96.4327 41.9527 95.011C42.8072 93.5889 44.6532 93.1284 46.0739 93.9834C49.2144 95.87 51.9863 96.7392 54.8502 96.6781C67.7477 96.4571 118.294 67.8471 151.741 48.9154C164.406 41.7465 175.344 35.5554 183.259 31.377C184.728 30.6026 186.545 31.1638 187.318 32.6309C188.092 34.0976 187.531 35.9147 186.063 36.6891C178.227 40.8264 167.325 46.9975 154.7 54.1434C108.019 80.5657 68.2923 102.456 54.9528 102.684C54.8375 102.686 54.7231 102.687 54.6087 102.687H54.6087Z" fill="black"/>
<path d="M71.0276 111.592C68.927 105.317 64.9405 96.9485 61.0249 93.747C54.9234 88.7582 49.3867 93.5535 49.3627 97.2112C49.3232 103.216 46.1925 96.5404 43.4311 91.9921C39 84.6939 27.0079 76.3115 16.3838 79.4999C5.59805 82.7368 -0.672603 93.2734 5.37149 105.877C9.46842 114.42 20.8327 130.478 37.86 140.295C49.2824 146.881 52.273 145.753 54.8247 145.901C78.106 147.253 77.9314 123.886 88.1541 119.041C97.5078 114.608 151.454 96.304 180.442 71.2331" fill="white"/>
<path d="M56.7092 148.961C56.0414 148.961 55.357 148.941 54.652 148.9C54.3606 148.883 54.0663 148.89 53.7417 148.893C51.0196 148.927 46.8974 148.972 36.3612 142.898C18.2865 132.477 6.67567 115.54 2.66493 107.175C-1.35168 98.7995 -0.091355 92.2794 1.67349 88.2843C4.10321 82.7854 9.15036 78.5351 15.5214 76.6231C27.7198 72.9644 41.0573 82.2926 45.9999 90.4334C46.479 91.2224 46.9688 92.0736 47.4528 92.9139C47.4939 92.9863 47.5369 93.0606 47.5809 93.1364C48.5195 91.6135 49.948 90.3126 51.6865 89.4957C55.2709 87.8096 59.3677 88.5111 62.9277 91.4219C67.5173 95.174 71.6942 104.119 73.8775 110.638C74.4045 112.211 73.5558 113.914 71.9826 114.44C70.4075 114.968 68.7081 114.119 68.1811 112.546C66.1034 106.34 62.3254 98.689 59.1252 96.0726C57.3799 94.6455 55.6913 94.252 54.2423 94.932C53.025 95.504 52.3719 96.6343 52.368 97.2302C52.3592 98.4666 52.3377 101.749 49.5237 102.491C46.4887 103.29 44.8021 100.353 42.2463 95.9103C41.7858 95.1114 41.3204 94.3019 40.8647 93.5514C34.8261 83.6057 23.0657 80.6295 17.2481 82.3772C12.4923 83.8042 8.91277 86.7644 7.16847 90.712C5.3694 94.7854 5.68521 99.5798 8.08169 104.578C11.7942 112.319 22.5602 128.006 39.3609 137.693C48.4716 142.946 51.5731 142.911 53.6723 142.886C54.1406 142.88 54.5777 142.878 55.0001 142.902C68.0824 143.671 72.4168 136.006 77.0073 127.902C79.7548 123.051 82.3507 118.468 86.8689 116.327C88.7071 115.456 91.9875 114.153 96.5262 112.35C115.603 104.774 155.299 89.0088 178.478 68.9615C179.734 67.8762 181.63 68.0135 182.716 69.2685C183.8 70.5229 183.663 72.4198 182.409 73.5051C158.461 94.2168 118.127 110.235 98.7437 117.933C94.4758 119.628 91.1046 120.967 89.4424 121.755C86.6411 123.082 84.5986 126.688 82.2344 130.863C77.8795 138.551 71.9817 148.96 56.7092 148.961L56.7092 148.961Z" fill="black"/>
<path d="M223.535 13.1285C195.085 11.132 165.307 36.7938 165.277 36.8237C165.153 36.948 133.331 52.156 112.383 63.9478C108.573 66.0923 107.959 77.0646 110.248 80.7897C116.492 90.9534 126.792 100.489 139.458 112.679C141.589 114.729 151.834 125.468 164.665 112.4C177.497 99.3314 217.792 58.7713 225.304 49.8353C249.324 21.2635 225.812 13.2883 223.535 13.1285V13.1285Z" fill="#82BE28"/>
<path d="M132.958 111.109C132.226 111.109 131.492 110.843 130.913 110.304C118.865 99.0895 109.339 86.7282 105.429 77.2372C104.136 74.1001 104.173 70.4565 105.526 67.2402C106.883 64.017 109.49 61.4925 112.866 60.1314C137.385 50.2449 153.456 40.0904 167.636 31.1318C171.399 28.7544 174.952 26.509 178.479 24.3887C194.617 14.6836 213.774 9.81142 223.635 10.1263C225.292 10.182 226.592 11.5709 226.536 13.2287C226.48 14.8874 225.097 16.1658 223.434 16.1306C215.731 15.8661 197.662 19.8627 181.574 29.5366C178.105 31.6231 174.578 33.8514 170.844 36.2102C156.45 45.3048 140.134 55.6132 115.113 65.7026C112.702 66.6745 111.58 68.3426 111.063 69.5706C110.336 71.2964 110.307 73.3071 110.984 74.9492C114.58 83.6796 123.56 95.2527 135.006 105.907C136.22 107.037 136.289 108.937 135.158 110.152C134.567 110.787 133.763 111.109 132.958 111.109V111.109Z" fill="black"/>
<path d="M227.359 225.702C225.781 225.702 224.457 224.47 224.363 222.874C224.239 220.752 224.091 218.158 223.921 215.181C222.24 185.767 218.306 116.886 214.232 99.5577C211.06 86.0657 209.389 68.6417 208.675 59.4567C208.547 57.8028 209.783 56.3577 211.437 56.2292C213.1 56.1065 214.537 57.3374 214.665 58.9913C215.365 68.0047 217 85.0821 220.08 98.183C224.273 116.021 228.229 185.268 229.919 214.838C230.088 217.812 230.236 220.403 230.361 222.523C230.457 224.179 229.193 225.6 227.538 225.697C227.478 225.7 227.419 225.702 227.359 225.702V225.702Z" fill="black"/>
<path d="M329.099 215.412C327.694 215.412 326.439 214.421 326.155 212.991C322.708 195.553 319.025 180.53 315.877 168.134C312.308 154.079 304.999 102.824 305.369 87.3744C305.409 85.7161 306.795 84.4392 308.444 84.4435C310.103 84.4831 311.415 85.8598 311.375 87.5181C311.022 102.245 318.285 153.209 321.699 166.655C324.867 179.128 328.573 194.249 332.049 211.826C332.371 213.453 331.312 215.033 329.685 215.355C329.489 215.394 329.292 215.412 329.099 215.412Z" fill="black"/>
<path d="M327.714 103.913C308.057 33.3877 293.604 11.243 293.604 11.243C293.604 11.243 287.783 -0.668874 273.224 0.0295554C257.354 0.790891 252.504 18.753 242.678 18.6871C236.274 18.6442 232.968 13.8553 229.329 9.62115C226.739 6.60857 222.304 6.41754 219.427 9.15661C207.147 20.8463 192.802 51.5945 193.014 68.7396C193.271 89.4048 200.985 132.231 201.255 133.303C209.542 166.25 209.88 194.679 209.578 217.594C209.421 229.478 297.076 229.921 345.507 215.333C349.694 214.072 353.646 211.968 352.581 207.727C347.645 188.058 339.5 146.199 327.714 103.913Z" fill="#82BE28"/>
<path d="M256.929 228.903C243.579 228.903 230.992 227.848 218.992 225.739C217.176 225.419 207.947 223.546 204.608 218.018C203.384 215.99 203.117 213.733 203.836 211.491C214.372 178.609 199.615 117.854 190.798 81.5539C190.406 79.9421 191.396 78.318 193.008 77.9264C194.625 77.5314 196.244 78.5248 196.635 80.1362C205.601 117.05 220.609 178.833 209.555 213.325C209.368 213.912 209.424 214.372 209.751 214.912C210.965 216.924 215.289 218.988 220.032 219.822C245.091 224.226 272.891 223.9 305.021 218.823C306.644 218.564 308.197 219.682 308.456 221.322C308.715 222.96 307.597 224.498 305.958 224.757C288.461 227.522 272.197 228.903 256.929 228.903Z" fill="black"/>
<path d="M234.028 54.1153C236.536 53.7834 238.291 51.4096 237.947 48.8133C237.603 46.2169 235.292 44.3812 232.784 44.713C230.276 45.0449 228.521 47.4187 228.865 50.015C229.208 52.6114 231.52 54.4471 234.028 54.1153Z" fill="black"/>
<path d="M229.444 76.8322C231.952 76.5003 233.707 74.1266 233.363 71.5303C233.02 68.9339 230.708 67.0982 228.2 67.4301C225.692 67.762 223.937 70.1357 224.281 72.732C224.624 75.3284 226.936 77.1641 229.444 76.8322Z" fill="black"/>
<path d="M222.428 35.9903C221.211 35.9903 220.023 35.7444 218.948 35.2486C216.764 34.243 215.266 32.3535 214.729 29.9287C214.401 28.4498 214.451 26.0299 214.571 22.2206C214.624 20.5633 214.679 18.8493 214.649 17.6726C214.607 16.0143 215.917 14.6357 217.575 14.5936C217.601 14.5931 217.627 14.5926 217.652 14.5926C219.276 14.5926 220.613 15.8877 220.654 17.52C220.688 18.8684 220.633 20.5887 220.576 22.4108C220.508 24.5491 220.406 27.7806 220.594 28.6302C220.722 29.2095 220.998 29.5791 221.462 29.7928C222.191 30.1291 223.231 30.0245 224.176 29.521C225.694 28.7124 226.952 27.6412 228.169 26.6053C230.385 24.7187 232.895 22.5799 236.721 22.5193C239.187 22.4841 241.556 23.8808 244.316 25.5024C248.19 27.7801 252.586 30.3633 256.948 28.708C260.186 27.4789 261.159 23.6926 262.376 17.6022C262.668 16.1375 262.971 14.6225 263.344 13.1329C263.745 11.5235 265.377 10.5457 266.987 10.9486C268.596 11.3514 269.574 12.9828 269.171 14.5917C268.834 15.941 268.545 17.3836 268.267 18.7789C267.044 24.8952 265.66 31.827 259.08 34.3242C252.021 37.0003 245.809 33.3479 241.272 30.6816C239.722 29.7708 237.603 28.5256 236.829 28.5256H236.817C235.222 28.551 234.09 29.453 232.063 31.1792C230.671 32.3648 229.093 33.7087 227 34.8233C225.545 35.5982 223.964 35.9903 222.428 35.9903Z" fill="black"/>
<path d="M337.201 220.598C335.808 220.598 334.559 219.624 334.264 218.208C333.924 216.584 334.966 214.992 336.59 214.654C347.168 212.444 349.502 211.076 350.005 210.528C349.997 210.29 349.905 209.812 349.834 209.451C349.753 209.034 349.67 208.598 349.606 208.138C344.852 173.765 311.937 73.0453 311.605 72.0318C311.089 70.4557 311.947 68.7588 313.524 68.2426C315.097 67.7263 316.798 68.5858 317.313 70.1619C318.676 74.3208 350.729 172.409 355.557 207.315C355.605 207.663 355.67 207.992 355.732 208.307C357.095 215.338 352.684 217.429 337.818 220.534C337.61 220.577 337.404 220.598 337.201 220.598Z" fill="black"/>
<path d="M270.939 108.445C255.29 111.09 194.387 161.232 186.165 167.52C177.178 174.391 169.463 183.004 159.903 189.941C150.801 196.545 144.642 199.719 133.209 197.873C118.278 195.462 104.985 187.973 98.4149 177.289C95.6693 172.824 94.3683 166.663 99.3809 164.247C102.903 162.55 107.112 169.914 105.309 167.877C94.3683 155.519 83.4937 132.634 107.493 130.612C119.025 129.641 125.776 134.233 134.683 143.387C137.988 146.784 143.89 150.812 149.249 146.951C155.759 142.26 249.306 74.8903 269.717 70.4441" fill="white"/>
<path d="M139.136 201.385C137.158 201.385 135.036 201.21 132.731 200.838C116.491 198.216 102.706 190.001 95.856 178.863C94.6416 176.888 91.9694 171.775 93.3803 166.966C93.9806 164.916 95.2468 163.253 97.0694 162.1C89.8526 151.133 89.1329 142.063 91.1364 137.062C93.3617 131.509 98.7794 128.332 107.241 127.62C119.895 126.554 127.408 131.603 136.836 141.292C138.711 143.22 143.501 147.392 147.494 144.514C164.273 132.422 248.995 71.8842 269.078 67.5098C270.691 67.1573 272.3 68.1834 272.653 69.805C273.006 71.4261 271.978 73.0262 270.357 73.3792C254.663 76.7974 187.951 122.765 151.006 149.388C145.604 153.281 138.697 151.82 132.53 145.482C124.023 136.738 118.138 132.733 107.745 133.606C101.735 134.112 98.0227 136.026 96.7135 139.296C94.4431 144.961 98.8088 154.691 104.856 162.6C106.23 163.617 107.368 164.963 108.102 166.185C109.736 168.906 107.74 170.484 107.506 170.655C107.273 170.825 105.173 172.252 103.061 169.869C102.221 168.92 101.43 167.982 100.685 167.053C100.644 167.036 100.605 167.021 100.569 167.011C99.8022 167.407 99.3602 167.919 99.1442 168.656C98.6514 170.336 99.37 173.108 100.974 175.716C106.92 185.386 119.15 192.56 133.689 194.908C143.731 196.526 149.12 194.055 158.14 187.51C163.131 183.887 167.718 179.694 172.154 175.638C176.046 172.078 180.071 168.398 184.341 165.133C185.477 164.265 187.642 162.539 190.64 160.15C221.178 135.816 257.847 107.612 270.438 105.484C272.076 105.204 273.625 106.309 273.901 107.945C274.177 109.58 273.075 111.13 271.44 111.407C258.762 113.55 210.307 152.161 194.384 164.848C191.359 167.259 189.173 169.001 187.99 169.906C183.93 173.01 180.179 176.44 176.208 180.071C171.648 184.24 166.935 188.55 161.667 192.372C154.52 197.558 148.406 201.385 139.136 201.385L139.136 201.385Z" fill="black"/>
<path d="M262.884 129.065C264.487 129.459 284.621 116.274 285.07 114.799C290.85 95.7939 321.066 79.6674 318.378 57.2511C317.159 47.0865 308.36 22.9114 288.018 30.1811C275.521 34.6472 202.489 103.413 219.517 96.2368C237.504 88.6556 253.936 126.867 262.884 129.065Z" fill="#82BE28"/>
<path d="M263.377 132.092C261.698 132.092 260.067 131.872 258.578 131.382C255.592 130.401 253.16 126.698 248.767 119.689C240.007 105.71 231.28 93.6019 220.884 98.9121C219.411 99.6679 217.598 99.0807 216.843 97.6028C216.088 96.1254 216.675 94.3161 218.152 93.5618C234.32 85.3086 246.075 104.08 253.857 116.498C256.124 120.115 259.228 125.067 260.51 125.697C264.432 126.983 271.055 124.972 273.887 122.436C276.94 119.703 293.055 104.457 310.863 72.3055C311.287 71.272 314.967 61.7335 311.872 50.1912C308.811 38.7764 292.51 15.0581 292.346 14.8195C291.404 13.4541 291.747 11.5837 293.113 10.6416C294.478 9.69905 296.35 10.0432 297.291 11.4091C297.985 12.4162 314.346 36.2225 317.674 48.6356C321.512 62.9445 316.524 74.3695 316.309 74.8491C316.274 74.9268 316.236 75.0031 316.195 75.0774C297.889 108.169 281.077 124.062 277.894 126.912C274.64 129.825 268.762 132.092 263.377 132.092Z" fill="black"/>
<path d="M138.97 147.366C138.97 147.366 150.153 161.824 154.608 163.538L138.97 147.366Z" fill="white"/>
<path d="M154.607 166.542C154.249 166.542 153.884 166.477 153.53 166.341C148.668 164.471 139.338 152.751 136.594 149.203C135.579 147.891 135.821 146.005 137.132 144.99C138.444 143.976 140.329 144.215 141.346 145.528C146.478 152.163 153.421 159.863 155.686 160.734C157.234 161.329 158.007 163.067 157.411 164.616C156.953 165.809 155.815 166.542 154.607 166.542Z" fill="black"/>
</svg>
