<svg width="395" height="250" viewBox="0 0 395 250" fill="none" xmlns="http://www.w3.org/2000/svg">
<path d="M58.1438 97.3154L123.617 68.8994L138.801 98.5248L51.8262 129.826L58.1438 97.3154Z" fill="white"/>
<path d="M54.5422 100.315C50.6526 100.315 46.9514 99.1823 42.928 96.7643C41.5081 95.9113 41.0481 94.068 41.9016 92.6481C42.7551 91.2277 44.5989 90.7677 46.0178 91.6217C49.1546 93.5065 51.9485 94.3654 54.7834 94.3132C67.6653 94.0925 118.151 65.5173 151.557 46.6081C164.207 39.4479 175.132 33.2643 183.037 29.091C184.505 28.3171 186.318 28.8781 187.091 30.3429C187.865 31.8083 187.304 33.6232 185.838 34.3966C178.011 38.529 167.121 44.693 154.512 51.8298C107.888 78.2204 68.2092 100.084 54.886 100.312C54.7708 100.314 54.6565 100.315 54.5422 100.315H54.5422Z" fill="black"/>
<path d="M70.9432 109.209C68.8451 102.941 64.8635 94.5835 60.9527 91.3859C54.8586 86.4032 49.3286 91.1927 49.3046 94.8459C49.2652 100.844 46.1383 94.1759 43.3802 89.6332C38.9546 82.3439 26.977 73.9716 16.3658 77.1561C5.5932 80.389 -0.669832 90.9129 5.36691 103.501C9.45886 112.033 20.8093 128.072 37.8159 137.878C49.2244 144.456 52.2114 143.329 54.7599 143.477C78.0129 144.827 77.8386 121.488 88.0488 116.649C97.3912 112.221 151.272 93.9398 180.224 68.8994" fill="white"/>
<path d="M56.6402 146.533C55.9732 146.533 55.2896 146.513 54.5855 146.472C54.2955 146.455 54.0006 146.461 53.6754 146.465C50.9556 146.497 46.8384 146.543 36.317 140.477C18.2642 130.068 6.66755 113.153 2.66169 104.798C-1.35003 96.4325 -0.0912439 89.9198 1.67146 85.9295C4.09822 80.4373 9.14021 76.1922 15.5035 74.2826C27.6802 70.6268 41.0074 79.9452 45.9439 88.076C46.4224 88.8636 46.9117 89.7137 47.3941 90.5526L47.523 90.7762C48.4605 89.2552 49.8883 87.9554 51.6236 87.1395C55.2027 85.4569 59.2955 86.1571 62.8512 89.0638C67.4342 92.8114 71.607 101.745 73.7877 108.256C74.314 109.827 73.4664 111.528 71.8951 112.054C70.3248 112.579 68.6236 111.732 68.0982 110.161C66.023 103.964 62.2496 96.3221 59.0533 93.7088C57.3092 92.283 55.6226 91.89 54.1763 92.5692C52.9605 93.1409 52.3082 94.2698 52.3043 94.8651C52.2955 96.0999 52.274 99.3783 49.4635 100.119C46.4312 100.918 44.7467 97.9837 42.1939 93.5453C41.7349 92.7474 41.2701 91.9393 40.815 91.1903C34.7828 81.2552 23.0367 78.2865 17.2281 80.0296C12.4781 81.4549 8.90194 84.4115 7.15975 88.3543C5.36287 92.4227 5.67733 97.2118 8.07186 102.203C11.7799 109.936 22.5328 125.603 39.3131 135.279C48.4146 140.526 51.5504 140.486 53.606 140.465C54.0758 140.459 54.5094 140.457 54.9342 140.482C67.9664 141.247 72.3277 133.595 76.9137 125.499C79.6578 120.654 82.2506 116.077 86.7633 113.938C88.5992 113.068 91.8726 111.768 96.4039 109.969C115.459 102.401 155.108 86.6551 178.261 66.6307C179.514 65.5462 181.409 65.6839 182.494 66.9373C183.577 68.1903 183.44 70.0848 182.187 71.1688C158.265 91.8568 117.979 107.856 98.6187 115.545C94.358 117.237 90.9927 118.573 89.3326 119.36C86.5357 120.685 84.4957 124.286 82.1343 128.456C77.7847 136.135 71.8941 146.532 56.6402 146.533V146.533Z" fill="black"/>
<path d="M223.263 10.8655C194.847 8.87138 165.106 34.502 165.076 34.5318C164.952 34.656 133.169 49.8455 112.246 61.6229C108.441 63.7648 107.828 74.7238 110.113 78.4443C116.14 88.2534 125.948 97.477 138.017 109.072C138.438 109.476 138.862 109.884 139.289 110.295C141.417 112.343 151.649 123.068 164.465 110.016C168.779 105.622 176.202 98.1167 184.437 89.7521C200.667 73.2686 220.053 53.4483 225.03 47.5276C249.021 18.9906 225.537 11.0251 223.263 10.8655Z" fill="#2D8C3C"/>
<path d="M132.797 108.727C132.065 108.727 131.332 108.461 130.754 107.923C118.721 96.7219 109.206 84.3757 105.301 74.8962C104.01 71.7629 104.046 68.1238 105.397 64.9109C106.753 61.6921 109.356 59.1706 112.728 57.8113C137.216 47.9372 153.267 37.7961 167.429 28.8484C171.188 26.4734 174.738 24.2302 178.262 22.112C194.381 12.4187 213.505 7.54563 223.363 7.86643C225.018 7.92209 226.316 9.3093 226.261 10.9651C226.206 12.6213 224.788 13.9011 223.162 13.8635C215.461 13.6062 197.422 17.591 181.353 27.2536C177.888 29.3381 174.364 31.5642 170.634 33.9211C156.257 43.0041 139.962 53.2995 114.973 63.3757C112.565 64.3464 111.444 66.0124 110.928 67.239C110.202 68.9626 110.173 70.9709 110.849 72.6111C114.44 81.3308 123.41 92.8899 134.842 103.531C136.055 104.66 136.123 106.558 134.994 107.771C134.403 108.406 133.6 108.727 132.797 108.727V108.727Z" fill="black"/>
<path d="M227.082 223.18C225.506 223.18 224.184 221.95 224.09 220.355C223.966 218.236 223.819 215.645 223.649 212.671C221.97 183.294 218.04 114.496 213.971 97.1891C210.803 83.7135 209.134 66.3107 208.421 57.1368C208.293 55.485 209.528 54.0416 211.18 53.9132C212.829 53.7946 214.276 55.0206 214.404 56.672C215.103 65.6744 216.736 82.7311 219.812 95.816C224 113.631 227.951 182.795 229.639 212.329C229.808 215.299 229.956 217.887 230.08 220.005C230.177 221.658 228.914 223.078 227.261 223.174C227.201 223.178 227.142 223.18 227.082 223.18Z" fill="black"/>
<path d="M328.699 212.903C327.296 212.903 326.042 211.913 325.759 210.484C322.315 193.068 318.637 178.062 315.493 165.681C311.928 151.64 304.628 100.446 304.998 85.0202C305.038 83.3645 306.459 82.0735 308.069 82.093C309.725 82.1325 311.036 83.5075 310.996 85.1638C310.643 99.8674 317.897 150.771 321.308 164.205C324.472 176.662 328.174 191.765 331.645 209.32C331.967 210.946 330.909 212.524 329.284 212.845C329.088 212.884 328.891 212.903 328.699 212.903Z" fill="black"/>
<path d="M327.315 101.54C307.682 31.1001 293.246 8.98231 293.246 8.98231C293.246 8.98231 290.526 2.20282 280.798 0.659494C275.845 -0.126416 273.348 4.53716 270.798 4.65949C254.948 5.4199 252.197 16.4832 242.383 16.4174C235.987 16.3745 228.433 14.8885 224.798 10.6595C222.212 7.65057 222.033 4.16277 219.16 6.8985C206.895 18.574 192.567 49.2847 192.78 66.409C193.036 87.0491 200.741 129.823 201.01 130.894C209.287 163.801 209.625 192.195 209.323 215.082C209.166 226.952 296.714 227.395 345.087 212.824C349.269 211.564 353.216 209.463 352.153 205.227C347.222 185.582 339.087 143.775 327.315 101.54Z" fill="#2D8C3C"/>
<path d="M256.618 226.377C243.284 226.377 230.711 225.323 218.725 223.216C216.912 222.898 207.695 221.028 204.359 215.506C203.136 213.48 202.87 211.226 203.588 208.986C214.113 176.14 199.373 115.462 190.566 79.2077C190.175 77.5978 191.163 75.9757 192.773 75.5846C194.378 75.1901 196.006 76.1818 196.396 77.7916C205.352 114.659 220.342 176.364 209.3 210.818C209.113 211.404 209.17 211.863 209.496 212.403C210.709 214.412 215.027 216.475 219.764 217.307C244.791 221.705 272.557 221.38 304.65 216.31C306.276 216.052 307.821 217.168 308.081 218.805C308.34 220.442 307.222 221.978 305.586 222.236C288.111 224.998 271.867 226.377 256.618 226.377Z" fill="black"/>
<path d="M336.791 218.083C335.4 218.083 334.152 217.111 333.857 215.696C333.518 214.074 334.558 212.484 336.18 212.146C346.746 209.939 349.077 208.573 349.58 208.026C349.571 207.788 349.479 207.31 349.409 206.95C349.328 206.534 349.245 206.098 349.181 205.638C344.432 171.308 311.557 70.7094 311.226 69.6972C310.71 68.123 311.568 66.4282 313.143 65.9125C314.714 65.3969 316.412 66.2548 316.927 67.83C318.289 71.9833 350.302 169.953 355.124 204.816C355.172 205.163 355.238 205.493 355.299 205.808C356.661 212.83 352.255 214.918 337.407 218.019C337.2 218.062 336.994 218.083 336.791 218.083Z" fill="black"/>
<path d="M241.377 17.8125C233.37 17.8125 226.038 15.6655 220.914 11.7578C219.596 10.7534 219.342 8.87059 220.347 7.55321C221.353 6.23534 223.236 5.98339 224.552 6.98729C233.752 14.0049 252.996 14.457 270.531 1.47704C271.863 0.491196 273.74 0.770496 274.727 2.10302C275.713 3.43505 275.432 5.31347 274.101 6.29931C264.97 13.0581 254.737 17.0019 244.505 17.7046C243.455 17.7768 242.411 17.8125 241.377 17.8125Z" fill="black"/>
<path d="M270.609 106.066C254.98 108.708 194.151 158.789 185.938 165.069C176.963 171.932 169.256 180.534 159.708 187.463C150.618 194.059 144.466 197.229 133.047 195.385C118.134 192.977 104.857 185.497 98.2952 174.826C95.553 170.367 94.2535 164.213 99.26 161.801C102.778 160.106 106.982 167.46 105.181 165.426C94.2535 153.083 83.3922 130.225 107.362 128.207C118.88 127.236 125.623 131.822 134.519 140.965C137.82 144.358 143.715 148.382 149.068 144.525C155.57 139.84 249.003 72.5521 269.389 68.1113" fill="white"/>
<path d="M138.967 198.893C136.991 198.893 134.872 198.719 132.569 198.347C116.349 195.728 102.581 187.522 95.7403 176.398C94.5275 174.427 91.8575 169.321 93.2667 164.517C93.8663 162.47 95.131 160.808 96.9513 159.656C89.7433 148.703 89.0245 139.644 91.0255 134.648C93.2482 129.102 98.6593 125.929 107.11 125.218C119.755 124.154 127.253 129.196 136.67 138.873C138.542 140.799 143.328 144.963 147.315 142.091C164.073 130.014 248.692 69.55 268.751 65.1804C270.361 64.8289 271.968 65.8533 272.321 67.4729C272.674 69.092 271.648 70.6902 270.028 71.0427C254.354 74.4573 187.723 120.369 150.822 146.959C145.422 150.848 138.526 149.386 132.369 143.057C123.872 134.325 118.003 130.326 107.614 131.196C101.611 131.702 97.9034 133.614 96.5958 136.88C94.3282 142.538 98.6886 152.257 104.729 160.156C106.101 161.171 107.237 162.515 107.97 163.736C109.603 166.454 107.609 168.03 107.375 168.2C107.144 168.371 105.043 169.797 102.936 167.415C102.097 166.468 101.307 165.531 100.563 164.603C100.522 164.585 100.484 164.572 100.447 164.561C99.6808 164.957 99.2394 165.468 99.0236 166.204C98.5323 167.883 99.2491 170.65 100.851 173.255C106.79 182.913 119.005 190.079 133.526 192.424C143.556 194.041 148.939 191.572 157.947 185.035C162.933 181.417 167.514 177.228 171.944 173.177C175.832 169.622 179.852 165.947 184.116 162.686C185.251 161.819 187.414 160.094 190.408 157.709C220.909 133.405 257.533 105.235 270.11 103.109C271.745 102.832 273.292 103.933 273.568 105.567C273.844 107.2 272.743 108.749 271.11 109.025C258.447 111.165 210.051 149.729 194.148 162.401C191.126 164.809 188.942 166.549 187.761 167.452C183.706 170.552 179.96 173.978 175.993 177.605C171.44 181.769 166.732 186.073 161.471 189.891C154.332 195.071 148.226 198.893 138.967 198.893L138.967 198.893Z" fill="black"/>
<path d="M262.564 126.661C264.165 127.054 284.275 113.886 284.723 112.413C290.496 93.4303 320.676 77.3235 317.991 54.9344C316.773 44.7821 307.985 20.6364 287.668 27.8974C275.186 32.358 202.243 101.041 219.25 93.8726C237.216 86.3007 253.628 124.465 262.564 126.661V126.661Z" fill="#2D8C3C"/>
<path d="M262.98 129.676C261.291 129.676 259.65 129.454 258.154 128.959C255.173 127.974 252.752 124.271 248.377 117.262C239.652 103.286 230.961 91.1776 220.563 96.4603C219.09 97.2108 217.281 96.6234 216.529 95.1454C215.779 93.6683 216.368 91.8622 217.844 91.1117C234.004 82.8983 245.715 101.667 253.466 114.085C255.723 117.701 258.814 122.653 260.093 123.284C264.006 124.577 270.627 122.579 273.46 120.052C276.514 117.328 292.633 102.133 310.482 70.0492C310.907 69.016 314.599 59.4964 311.529 47.9637C308.491 36.5497 292.255 12.8377 292.09 12.5995C291.152 11.2342 291.499 9.36656 292.864 8.42808C294.231 7.48912 296.097 7.83726 297.036 9.20201C297.728 10.2093 314.025 34.016 317.328 46.4198C321.133 60.7181 316.131 72.1205 315.917 72.599C315.882 72.6766 315.844 72.7528 315.802 72.827C297.455 105.848 280.638 121.689 277.454 124.529C274.205 127.427 268.349 129.676 262.98 129.676Z" fill="black"/>
<path d="M138.801 144.939C138.801 144.939 149.97 159.38 154.42 161.092L138.801 144.939Z" fill="white"/>
<path d="M154.419 164.092C154.062 164.092 153.697 164.027 153.343 163.892C148.487 162.024 139.168 150.318 136.428 146.775C135.414 145.464 135.655 143.581 136.965 142.566C138.276 141.554 140.16 141.793 141.174 143.104C146.3 149.731 153.234 157.421 155.497 158.291C157.043 158.886 157.814 160.622 157.22 162.168C156.762 163.36 155.625 164.092 154.419 164.092Z" fill="black"/>
<path d="M216.913 95.9637C215.646 95.9637 214.468 95.1541 214.059 93.8826C212.712 89.7015 213.732 85.1053 216.721 81.887C216.874 81.7225 217.045 81.5755 217.231 81.449C231.152 71.9715 241.373 61.9031 248.48 50.6687C249.364 49.2679 251.217 48.8504 252.618 49.7371C254.019 50.6228 254.436 52.4759 253.55 53.8758C246.05 65.7337 235.371 76.3099 220.916 86.1981C219.56 87.8118 219.119 90.0228 219.77 92.0428C220.278 93.6199 219.411 95.3099 217.834 95.8182C217.529 95.9168 217.218 95.9637 216.913 95.9637V95.9637Z" fill="black"/>
<path d="M150.259 117.483C144.615 117.483 138.253 114.844 130.764 107.932C129.547 106.808 129.471 104.91 130.595 103.693C131.718 102.476 133.616 102.399 134.834 103.523C150.511 117.993 157.834 110.804 169.964 98.8885C172.583 96.3162 175.291 93.6561 178.263 91.0877C179.515 90.0047 181.411 90.1419 182.494 91.3953C183.578 92.6492 183.439 94.5433 182.186 95.6268C179.359 98.0706 176.721 100.662 174.169 103.169C166.96 110.251 159.596 117.483 150.259 117.483H150.259Z" fill="black"/>
</svg>
