<svg width="432" height="392" viewBox="0 0 432 392" fill="none" xmlns="http://www.w3.org/2000/svg">
<path d="M294.078 100.375C306.748 87.7133 329.799 67.1724 334.684 58.9422C343.789 43.6005 350.579 40.366 353.628 24.7335L357.852 11.1826C359.944 4.75379 368.087 2.26454 373.198 7.49114C378.309 12.7177 375.396 17.0163 377.956 21.6649C380.385 26.0762 390.84 26.5542 399.186 22.1622C407.533 17.7702 417.806 22.0705 421.956 24.4667C427.855 27.8728 431.216 34.9224 427.328 41.0065C423.439 47.0905 414.157 45.9172 410.412 45.6483C406.215 45.347 392.416 45.0673 382.251 50.0094C372.548 54.7261 339.001 97.1168 314.157 121.487C291.294 113.067 294.078 100.375 294.078 100.375L294.078 100.375Z" fill="white"/>
<path d="M310.223 130.502C309.527 130.502 308.827 130.261 308.259 129.769C307.007 128.684 306.871 126.79 307.956 125.537C309.421 123.848 311.143 121.853 313.071 119.62C343.455 84.4291 372.707 51.3121 380.938 47.3106C392.514 41.6835 407.7 42.4447 410.626 42.6557L411.427 42.7172C415.166 43.0165 422.127 43.5698 424.799 39.3905C425.937 37.6092 426.268 35.6926 425.779 33.6935C425.149 31.1032 423.157 28.6251 420.455 27.0645C419.277 26.3843 408.708 20.5429 400.583 24.8169C389.792 30.4938 378.35 28.5992 375.326 23.1118C373.972 20.6498 373.8 18.3431 373.647 16.3079C373.458 13.7536 373.32 11.9084 371.052 9.5885C368.901 7.39021 366.536 7.54061 365.32 7.82625C363.136 8.337 361.41 9.9386 360.703 12.111C360.191 13.6872 358.493 14.5496 356.921 14.0349C355.346 13.5222 354.485 11.8293 354.998 10.2536C356.339 6.13041 359.771 2.96189 363.953 1.98335C368.063 1.02337 372.315 2.29928 375.341 5.3931C379.141 9.27893 379.413 12.9294 379.631 15.8626C379.758 17.5604 379.857 18.9012 380.582 20.2177C381.771 22.3759 390.045 23.5825 397.788 19.5072C408.53 13.8523 421.054 20.4818 423.455 21.8681C427.61 24.2675 430.582 28.0596 431.61 32.2721C432.488 35.8728 431.88 39.452 429.854 42.622C425.243 49.838 415.59 49.0684 410.95 48.6988L410.196 48.6402C408.565 48.524 393.977 47.6436 383.561 52.7072C375.307 56.7199 334.877 103.546 317.613 123.541C315.682 125.777 313.958 127.775 312.492 129.467C311.898 130.152 311.063 130.502 310.223 130.502V130.502Z" fill="black"/>
<path d="M121.165 89.1206C100.446 67.2412 101.286 67.5594 95.5117 59.3549C85.2444 44.7654 80.925 39.734 78.9541 23.9296L75.6675 10.1213C74.0204 3.56429 66.0674 0.523441 60.6103 5.38785C55.1532 10.2523 57.7649 14.7401 54.893 19.2026C52.1678 23.4373 41.7043 23.1983 33.6784 18.2453C25.6524 13.2922 15.1084 16.8791 10.8042 18.9855C4.68618 21.9798 0.850114 28.7828 4.31295 35.1188C7.77579 41.4547 17.1169 40.9196 20.8712 40.9078C25.0792 40.8945 38.8643 41.5602 48.6681 47.1865C58.0249 52.5565 78.1938 87.1202 101.312 113.134C124.697 106.299 121.165 89.1206 121.165 89.1206L121.165 89.1206Z" fill="white"/>
<path d="M64.1669 66.1473C63.1318 66.1473 62.1249 65.6111 61.5683 64.6512C61.5126 64.5545 55.6951 54.6783 47.1753 49.789C37.1282 44.0233 22.4678 43.8934 20.8818 43.908L20.1259 43.9144C15.4695 43.9705 5.78867 44.0726 1.68115 36.5582C-0.122603 33.2564 -0.482962 29.6445 0.639134 26.1122C1.95264 21.9798 5.17733 18.4001 9.48699 16.2912C11.9763 15.0734 24.9239 9.31642 35.2542 15.693C42.7045 20.2888 51.0397 19.6511 52.3718 17.5793C53.1843 16.3156 53.3757 14.9845 53.6179 13.2994C54.0368 10.3882 54.5583 6.76509 58.6151 3.1488C61.8456 0.268361 66.1787 -0.714571 70.211 0.527157C74.3156 1.7894 77.5217 5.18595 78.5774 9.39113C78.9817 10.9981 78.0061 12.628 76.3987 13.0314C74.7844 13.4352 73.1623 12.4581 72.7589 10.8521C72.2023 8.63721 70.5909 6.92135 68.4473 6.26216C67.251 5.89545 64.9023 5.58343 62.6073 7.62742C60.1854 9.78665 59.9217 11.6182 59.5575 14.1534C59.2664 16.1735 58.9373 18.4631 57.4168 20.826C54.0261 26.0956 42.4799 27.2001 32.1037 20.7991C24.2901 15.9757 13.3465 21.0823 12.1248 21.6805C9.32098 23.0526 7.16566 25.3886 6.35802 27.9296C5.73399 29.8901 5.93223 31.8252 6.94691 33.6802C9.32684 38.0339 16.3182 37.9582 20.0595 37.9147L20.8623 37.9079H20.9921C24.2197 37.9079 39.1537 38.2668 50.1617 44.5848C60.1034 50.29 66.4922 61.1814 66.7598 61.6423C67.5908 63.0759 67.1016 64.9114 65.668 65.7425C65.1953 66.0169 64.6777 66.1473 64.1669 66.1473V66.1473Z" fill="black"/>
<path d="M85.3779 46.0062C84.3573 46.0062 83.3632 45.4856 82.8007 44.5462C78.7264 37.7389 77.1687 33.8589 75.9782 24.3006C75.7732 22.6565 76.9392 21.1575 78.5838 20.9524C80.2274 20.7483 81.7274 21.9138 81.9315 23.5584C83.0057 32.1753 84.245 35.2764 87.9492 41.4651C88.7998 42.8865 88.3369 44.7288 86.916 45.5799C86.4336 45.8685 85.9023 46.0062 85.3779 46.0062V46.0062Z" fill="black"/>
<path d="M183.648 145.515C178.009 140.748 170.792 136.148 163.685 128.064C156.568 119.967 108.146 54.6332 103.825 35.0397C102.29 28.0805 85.7474 29.4102 85.3739 42.7187C85.0449 54.4432 73.6313 62.8593 60.385 63.6712C51.1857 64.235 44.7949 77.4617 58.4344 89.2693C72.0739 101.077 129.897 179.593 138.426 206.201C158.396 203.763 168.774 152.294 183.648 145.515L183.648 145.515Z" fill="white"/>
<path d="M179.251 368.232C156.742 362.73 132.901 365.777 122.691 369.279C118.221 370.813 112.315 367.425 111.615 358.018C110.51 343.175 117.103 339.686 122.899 317.511C135.227 270.341 134.75 237.036 138.427 206.489C139.78 195.249 149.903 163.452 163.87 144.829C170.088 136.538 178.011 141.035 178.011 141.035C189.701 148.452 208.909 159.564 238.799 137.843C238.799 137.843 272.66 180.993 275.832 204.406C283.936 264.226 283.195 305.653 290.83 347.81C292.35 356.202 303.473 375.115 287.219 384.462C281.749 387.608 263.36 394.104 242.427 385.554C228.782 379.981 219.156 377.987 179.251 368.232Z" fill="white"/>
<path d="M264.434 391.447C245.459 391.447 226.272 385.539 201.194 377.079C173.149 367.616 158.334 366.962 143.523 368.976C141.869 369.196 140.368 368.049 140.146 366.408C139.923 364.765 141.073 363.254 142.715 363.031C157.951 360.958 174.053 361.589 203.112 371.393C232.984 381.472 254.219 387.837 276.354 384.581C281.06 383.889 284.653 381.665 287.037 377.97C291.196 371.523 291.519 361.106 287.946 348.636C278.884 317 278.118 283.463 277.558 258.975C277.348 249.76 277.166 241.802 276.555 236.234C276.374 234.587 277.562 233.105 279.21 232.925C280.849 232.74 282.338 233.932 282.519 235.579C283.159 241.406 283.344 249.484 283.557 258.838C284.108 283 284.864 316.091 293.714 346.984C297.77 361.141 297.189 373.301 292.079 381.223C288.764 386.362 283.628 389.577 277.227 390.518C272.932 391.149 268.687 391.446 264.434 391.447L264.434 391.447Z" fill="black"/>
<path d="M275.036 107.027C260.464 123.589 245.783 132.841 231.065 143.257C214.181 155.205 275.663 239.744 277.895 220.82C279.837 204.356 285.556 193.232 290.923 185.569C294.78 180.061 345.251 102.575 371.456 94.9381C383.315 91.482 396.925 76.7988 379.864 68.5941C357.532 57.8551 355.577 56.525 349.306 39.8342C347.682 35.5099 341.012 28.2678 332.258 41.913C329.948 45.5146 276.92 104.886 275.036 107.027L275.036 107.027Z" fill="white"/>
<path d="M278.367 220.414C278.298 220.414 278.229 220.412 278.16 220.407C276.506 220.294 275.258 218.863 275.371 217.21C276.25 204.326 289.173 179.047 308.295 152.807C329.29 123.997 351.8 101.938 370.052 92.2862C379.362 87.3627 384.166 81.4817 382.588 76.9372C380.461 70.8096 375.476 69.3413 369.166 67.4829C359.806 64.726 348.158 61.2952 346.317 40.0941C346.173 38.4431 347.395 36.989 349.045 36.8455C350.676 36.7009 352.15 37.9226 352.293 39.5745C353.782 56.6965 361.696 59.0276 370.86 61.7269C377.543 63.6952 385.117 65.9262 388.256 74.9694C389.533 78.6472 390.589 88.2138 372.857 97.59C355.641 106.694 333.318 128.657 313.144 156.341C294.926 181.34 282.152 205.965 281.357 217.618C281.249 219.202 279.93 220.414 278.367 220.414H278.367Z" fill="black"/>
<path d="M349.306 42.8359C348.994 42.8359 348.677 42.7865 348.364 42.6835C346.791 42.1635 345.937 40.4667 346.457 38.8934C348.708 32.0807 350.051 27.399 350.683 24.1602C351 22.5341 352.577 21.475 354.201 21.789C355.827 22.1064 356.889 23.6816 356.571 25.3076C355.891 28.8019 354.487 33.717 352.154 40.7762C351.737 42.037 350.565 42.8359 349.306 42.8359Z" fill="black"/>
<path d="M166.431 134.217C165.651 134.217 164.871 133.915 164.283 133.312C152.373 121.096 116.961 75.7209 105.311 46.9893C104.689 45.4536 105.428 43.704 106.964 43.0815C108.501 42.4599 110.249 43.1996 110.871 44.7343C122.235 72.7574 156.909 117.152 168.58 129.123C169.736 130.31 169.712 132.208 168.525 133.365C167.942 133.934 167.186 134.217 166.431 134.217V134.217Z" fill="black"/>
<path d="M204.158 153.728C199.859 153.728 196.233 153.201 193.52 152.61C185.226 150.804 178.14 146.886 175.469 142.63C174.588 141.226 175.012 139.375 176.416 138.494C177.818 137.613 179.671 138.036 180.551 139.44C181.78 141.398 186.588 144.96 194.797 146.747C202.01 148.319 216.539 149.362 232.754 138.7C247.589 128.947 291.95 86.9647 320.496 51.166C321.529 49.8711 323.416 49.6577 324.712 50.6904C326.008 51.7236 326.221 53.6109 325.187 54.9068C295.82 91.7358 251.558 133.518 236.051 143.714C224.02 151.622 212.747 153.728 204.158 153.728Z" fill="black"/>
<path d="M122.39 372.282C116.023 372.282 112.669 369.645 110.968 367.411C109.129 364.993 107.381 360.597 109.494 353.388C109.973 351.753 110.583 349.775 111.293 347.472C114.866 335.876 120.848 316.469 125.678 290.828C133.096 251.451 135.785 212.145 135.897 210.491C136.755 197.686 77.4364 115.711 57.3197 92.9702L56.222 91.7348C50.3146 85.1077 42.9629 76.86 48.7824 67.8891C51.7434 63.324 56.8763 62.3147 61.8393 61.3386C69.9547 59.7424 78.3465 58.0925 82.4716 42.2503C82.8886 40.6472 84.5264 39.6868 86.1309 40.1028C87.7345 40.5203 88.6954 42.159 88.2784 43.7621C83.2031 63.2522 71.5241 65.5492 62.9976 67.226C58.2836 68.1527 55.3177 68.8388 53.8157 71.1543C50.7121 75.9395 54.346 80.6135 60.7006 87.7425L61.814 88.9945C75.9324 104.955 143.053 193.443 141.883 210.892C141.772 212.561 139.058 252.214 131.574 291.939C126.682 317.913 120.638 337.522 117.026 349.239C116.326 351.512 115.724 353.463 115.252 355.076C114.136 358.88 114.307 361.889 115.745 363.779C117.363 365.906 120.401 366.316 122.646 366.28L122.691 366.279C124.328 366.279 125.666 367.593 125.69 369.235C125.715 370.892 124.392 372.254 122.734 372.279C122.619 372.281 122.504 372.282 122.39 372.282H122.39Z" fill="black"/>
<path d="M138.893 213.692C138.815 213.692 138.736 213.689 138.657 213.682C137.005 213.554 135.77 212.11 135.899 210.458C137.631 188.282 142.549 176.594 142.757 176.107C143.409 174.584 145.176 173.877 146.695 174.531C148.217 175.183 148.923 176.943 148.274 178.465C148.226 178.577 143.528 189.846 141.882 210.926C141.759 212.498 140.444 213.692 138.893 213.692V213.692Z" fill="black"/>
</svg>
