<svg width="349" height="348" viewBox="0 0 349 348" fill="none" xmlns="http://www.w3.org/2000/svg">
<path d="M124.802 112.151C84.7161 123.773 55.7297 118.445 46.8734 114.548C34.1254 108.94 53.9405 57.9451 64.3212 52.386C67.9487 50.4434 81.4246 54.7258 89.0187 49.77C93.002 47.1706 97.0396 39.9739 98.0465 36.2491C103.015 17.8683 84.8131 6.95235 71.7876 6.08264C66.5918 5.73572 50.0898 6.37075 37.8295 26.498C26.5795 44.9665 -18.0808 118.838 13.4344 142.462C27.53 153.028 83.1886 156.738 129.363 149.443C144.298 147.084 140.278 107.665 124.802 112.151L124.802 112.151Z" fill="white"/>
<path d="M143.416 100.637C118.634 100.168 105.611 110.186 59.5949 108.579C50.4709 108.26 37.0835 110.174 45.24 120.094C59.5424 137.489 35.3254 171.513 48.8259 182.646C56.0951 188.64 114.651 188.445 134.998 174.022C149.948 163.425 175.339 110.985 143.416 100.637L143.416 100.637Z" fill="#2D8C3C"/>
<path d="M79.5401 112.86C75.7503 112.86 71.6777 112.773 67.0484 112.659C65.3893 112.619 64.0764 111.241 64.1175 109.581C64.1576 107.923 65.5233 106.626 67.1952 106.651C86.9584 107.135 95.7747 107.131 115.837 102.101C117.447 101.698 119.079 102.676 119.483 104.285C119.886 105.895 118.909 107.527 117.299 107.931C101.371 111.925 91.9849 112.86 79.5401 112.86H79.5401Z" fill="black"/>
<path d="M162.013 327.417C139.29 322.681 105.725 327.826 97.8119 333.694C94.0096 336.513 85.8545 334.554 84.8305 325.16C83.2147 310.337 91.9026 302.01 96.9437 279.611C107.667 231.964 109.69 197.598 112.322 166.889C113.291 155.59 121.01 125.371 134.353 106.247C140.294 97.7329 146.459 99.6748 146.459 99.6748C159.84 113.055 189.141 97.1628 209.793 97.1628C221.991 97.1628 222.489 96.1922 234.248 102.822C234.248 102.822 292.582 186.365 269.013 184.211C257.583 183.167 251.313 194.016 251.664 198.773C255.601 252.102 261.782 264.029 273.02 303.141C275.379 311.352 286.615 330.043 270.663 339.959C265.295 343.296 247.108 350.431 225.857 342.59C212.005 337.479 202.3 335.813 162.013 327.417V327.417Z" fill="#2D8C3C"/>
<path d="M244.89 347.788C226.898 347.788 208.258 342.703 184.286 335.52C153.931 326.424 130.05 328.374 118.517 330.347C116.881 330.626 115.327 329.527 115.048 327.891C114.769 326.255 115.868 324.702 117.504 324.422C129.554 322.361 154.481 320.314 186.012 329.762C216.265 338.828 237.748 344.47 259.79 340.451C267.439 339.057 272.427 336.249 274.616 332.107C276.999 327.598 276.329 321.083 272.623 312.744C262.151 289.179 254.261 252.451 249.173 203.579C248.946 201.401 248.782 199.827 248.691 199.21C248.45 197.568 249.585 196.041 251.227 195.799C252.858 195.559 254.396 196.693 254.637 198.335C254.747 199.078 254.907 200.621 255.151 202.957C260.173 251.2 267.9 287.316 278.115 310.303C282.608 320.412 283.219 328.694 279.931 334.916C276.837 340.77 270.423 344.622 260.868 346.364C255.519 347.339 250.232 347.788 244.89 347.788V347.788Z" fill="black"/>
<path d="M231.242 107.49C270.907 120.477 297.262 119.147 303.229 119.214C313.01 119.323 307.278 59.6411 297.094 53.7299C293.535 51.6643 283.215 52.7841 276.568 46.6157C274.253 44.4677 265.074 41.4902 264.417 30.2112C263.346 11.8295 276.692 1.67506 289.74 1.25165C294.945 1.08275 309.632 3.67321 323.164 28.4C332.572 45.5906 359.743 128.094 333.462 149.03C319.683 160.006 275.786 171.8 234.635 151.837C230.879 150.015 215.929 102.477 231.242 107.49H231.242Z" fill="white"/>
<path d="M226.319 99.4472C249.454 105.626 274.003 106.828 293.979 106.143C303.103 105.83 309.932 111.821 301.872 121.82C287.741 139.355 309.975 170.824 296.583 182.089C291.522 186.347 285.702 184.868 269.013 184.211C260.701 183.884 235.2 180.744 229.094 176.505C214.042 166.054 194.498 110.107 226.319 99.4472Z" fill="#2D8C3C"/>
<path d="M251.662 201.777C250.106 201.777 248.79 200.579 248.668 199.003C248.305 194.283 249.939 189.939 253.269 186.771C258.052 182.221 265.734 180.36 274.916 181.529C290.502 183.519 297.79 178.842 298.884 176.269C300.713 171.973 298.829 165.14 296.834 157.906C293.605 146.197 289.586 131.626 299.584 119.873C304.579 114 306.043 94.0719 302.845 75.4503C300.882 64.0127 297.784 57.605 295.585 56.3288C294.205 55.5281 291.457 54.7283 288.275 53.8019C284.535 52.7136 279.88 51.3591 275.356 49.3654C267.838 46.0524 262.18 36.8957 261.588 32.0479C260.415 22.4529 262.214 14.7954 266.932 9.28813C273.138 2.04395 282.968 0.246855 290.121 0.0149974C303.607 -0.426699 315.915 8.89583 325.8 26.9574C331.044 36.5401 340.926 63.1249 345.837 88.1142C352.428 121.646 348.673 143.607 334.98 151.623C325.684 157.065 317.373 160.262 317.023 160.396C315.474 160.991 313.738 160.212 313.144 158.662C312.551 157.112 313.328 155.375 314.877 154.782C314.959 154.751 323.096 151.615 331.943 146.436C358.399 130.949 330.284 47.67 320.527 29.8428C314.444 18.7266 304.296 5.56332 290.317 6.02262C284.371 6.21534 276.278 7.61674 271.496 13.1988C267.921 17.3717 266.595 23.4683 267.554 31.319C267.871 33.9149 272.063 41.3464 277.78 43.8655C281.941 45.6988 286.198 46.9378 289.954 48.031C293.661 49.1096 296.589 49.9616 298.602 51.1307C304.263 54.4158 307.256 65.6161 308.769 74.4329C311.291 89.1218 312.145 114.382 304.162 123.767C296.226 133.096 299.481 144.896 302.628 156.308C304.91 164.582 307.065 172.398 304.416 178.623C301.941 184.436 291.414 189.692 274.156 187.492C266.906 186.566 260.81 187.894 257.411 191.127C255.358 193.08 254.432 195.574 254.661 198.541C254.788 200.196 253.55 201.641 251.896 201.768C251.817 201.774 251.739 201.777 251.662 201.777H251.662Z" fill="black"/>
<path d="M271.297 110.048C263.838 110.048 256.396 109.325 245.461 106.697C243.847 106.309 242.854 104.686 243.242 103.072C243.63 101.458 245.256 100.465 246.866 100.853C262.758 104.672 270.53 104.273 283.405 103.61C286.484 103.452 289.972 103.272 293.877 103.139C295.536 103.081 296.927 104.38 296.983 106.039C297.04 107.698 295.742 109.089 294.083 109.146C290.229 109.278 286.768 109.456 283.714 109.613C279.222 109.845 275.256 110.049 271.297 110.049V110.048Z" fill="black"/>
<path d="M169.085 109.249C162.528 109.249 157.578 107.828 153.058 106.53C149.776 105.588 146.942 104.774 143.845 104.595C142.188 104.499 140.923 103.077 141.019 101.42C141.114 99.7637 142.53 98.5017 144.193 98.5942C147.957 98.8128 151.241 99.7554 154.716 100.753C160.681 102.465 166.848 104.237 176.672 102.563C179.299 102.116 182.286 101.164 185.747 100.062C196.617 96.6004 211.504 91.8592 232.099 97.7108C233.696 98.1642 234.622 99.8263 234.169 101.423C233.716 103.019 232.05 103.948 230.456 103.492C211.607 98.1373 198.278 102.381 187.57 105.789C184.048 106.911 180.722 107.971 177.682 108.489C174.518 109.028 171.676 109.249 169.085 109.249Z" fill="black"/>
<path d="M95.9301 337.269C90.0428 337.269 86.8008 334.861 85.0946 332.772C83.1703 330.413 81.2686 326.073 83.1371 318.783C86.9054 304.073 107.856 214.322 109.928 170.938C110.008 169.281 111.382 167.993 113.074 168.08C114.732 168.159 116.011 169.567 115.932 171.225C113.594 220.172 89.2034 319.322 88.9598 320.274C87.9737 324.121 88.2476 327.128 89.7513 328.971C91.4447 331.046 94.4979 331.35 96.746 331.238C98.4041 331.153 99.8148 332.434 99.895 334.092C99.9762 335.75 98.6986 337.16 97.0414 337.241C96.6609 337.26 96.2901 337.269 95.9301 337.269L95.9301 337.269Z" fill="black"/>
<path d="M32.023 154.144C31.751 154.144 31.4741 154.106 31.1992 154.028C30.6524 153.872 17.741 150.157 11.7598 145.106C2.09831 136.949 -1.63775 125.29 0.654359 110.454C5.76196 77.3921 25.4176 42.0409 32.56 31.2093C33.4747 29.8246 35.3384 29.4406 36.7236 30.3548C38.1098 31.2685 38.4923 33.1322 37.5786 34.5179C30.6367 45.0452 11.5377 79.3731 6.59449 111.372C4.64379 123.995 7.68625 133.8 15.6377 140.514C19.7807 144.013 29.4638 147.282 32.8457 148.247C34.4413 148.702 35.3667 150.365 34.9118 151.961C34.5352 153.282 33.3319 154.144 32.023 154.144H32.023Z" fill="black"/>
<path d="M77.2281 188.987C61.0111 188.987 49.2962 186.197 45.6002 182.864C36.9121 175.033 39.9917 163.74 43.2533 151.785C45.6726 142.917 48.1741 133.746 46.6607 124.67C46.151 121.612 44.3871 119.031 42.681 116.535C41.0111 114.091 39.4341 111.783 39.1064 109.111C36.5149 88.0037 54.1748 54.901 63.1672 50.085C65.5131 48.8293 68.4646 49.205 71.8788 49.6403C75.8731 50.149 80.3967 50.7262 84.4458 48.8611C93.1555 44.8502 96.5432 37.4338 94.5143 26.8185C93.0381 19.0984 86.7233 12.7684 78.0322 10.2982C69.6425 7.91221 57.3288 9.00887 47.9383 19.2368C46.8152 20.4596 44.9144 20.5404 43.6916 19.4183C42.4697 18.2957 42.3885 16.3944 43.5106 15.172C52.9138 4.9309 66.7712 0.849511 79.6757 4.51659C90.565 7.61187 98.5125 15.7248 100.417 25.69C102.96 38.9859 98.1799 49.1536 86.96 54.3209C81.3457 56.906 75.4339 56.1532 71.1187 55.6025C69.3421 55.376 66.6577 55.0341 66.0042 55.3833C60.2392 58.4713 42.591 88.1641 45.0719 108.378C45.2216 109.6 46.3985 111.321 47.6438 113.144C49.5231 115.893 51.8612 119.316 52.589 123.682C54.3186 134.057 51.5208 144.316 49.0516 153.367C45.7244 165.568 43.9714 173.304 49.6249 178.4C53.0195 181.46 76.7702 186.413 110.138 179.428C111.766 179.093 113.357 180.131 113.695 181.754C114.035 183.379 112.994 184.972 111.369 185.312C98.8363 187.935 87.183 188.987 77.2281 188.987V188.987Z" fill="black"/>
</svg>
