<svg width="319" height="337" viewBox="0 0 319 337" fill="none" xmlns="http://www.w3.org/2000/svg">
<path d="M132.561 97.7591C147.881 86.2196 183.168 83.0231 206.566 98.0593C183.061 114.879 147.284 115.079 132.561 97.7591Z" fill="white"/>
<path d="M153.38 315.458C130.484 311.821 97.2431 318.559 89.6295 324.792C85.971 327.787 77.7412 326.222 76.2702 316.899C73.9491 302.188 85.6681 292.471 89.6257 269.883C98.0441 221.834 102.731 192.443 103.888 161.68C104.314 150.361 107.098 115.496 121.47 97.1678C128.397 88.3334 146.832 102.123 166.48 101.892C183.151 101.697 196.934 92.1021 201.839 96.4174C201.839 96.4174 237.785 131.816 240.539 155.295C248.014 219.005 248.716 244.013 262.966 285.928C265.713 294.008 277.816 312.118 262.376 322.773C257.18 326.359 239.377 334.348 217.801 327.542C203.737 323.105 193.974 321.907 153.38 315.458Z" fill="#82BE28"/>
<path d="M232.287 331.93C215.739 331.93 198.118 327.968 175.988 322.477C145.27 314.855 121.538 317.943 110.126 320.463C108.501 320.819 106.905 319.797 106.547 318.179C106.19 316.56 107.213 314.958 108.832 314.601C120.757 311.968 145.527 308.734 177.434 316.651C208.049 324.246 229.751 328.849 251.551 323.785C259.116 322.028 263.958 318.989 265.943 314.752C268.106 310.139 267.125 303.672 263.028 295.529C246.504 262.681 242.212 206.261 240.597 185.022C240.312 181.275 240.066 178.041 239.912 177.258C239.593 175.631 240.654 174.054 242.279 173.735C243.912 173.419 245.484 174.477 245.804 176.102C246.016 177.186 246.196 179.48 246.583 184.566C248.173 205.482 252.399 261.043 268.391 292.831C273.357 302.702 274.362 310.934 271.38 317.3C268.573 323.289 262.358 327.438 252.909 329.633C246.055 331.225 239.266 331.929 232.287 331.93H232.287Z" fill="black"/>
<path d="M122.851 99.796C85.0096 117.284 55.5869 116.369 46.2571 113.849C32.8276 110.222 44.7478 56.8945 54.165 49.8483C57.4557 47.3861 71.4052 49.5942 78.1611 43.5616C81.7048 40.3973 84.6127 32.6853 85.0485 28.8561C87.1987 9.9602 67.5874 1.91037 54.5945 3.00479C49.4117 3.44135 33.2114 6.543 24.1227 28.2569C15.783 48.1813 -17.2409 127.826 17.4224 146.428C32.926 154.748 88.4444 150.065 132.947 135.938C147.341 131.368 137.46 93.0453 122.851 99.796V99.796Z" fill="white"/>
<path d="M141.382 95.9528C132.021 88.9686 119.619 93.434 116.77 94.0841C102.226 97.4026 83.9655 103.25 59.7115 104.293C50.6012 104.684 37.5244 108.271 46.6801 117.255C62.7346 133.01 42.3031 169.375 56.8951 178.996C64.7521 184.176 120.199 169.582 138.872 153.094C152.592 140.98 174.186 102.834 141.382 95.9528V95.9528Z" fill="#82BE28"/>
<path d="M37.0798 155.21C36.9527 155.21 36.8257 155.202 36.6967 155.186C36.1329 155.114 22.8266 153.381 16.1627 149.291C5.39877 142.684 -0.0388729 131.732 0.000209175 116.737C0.0852172 83.3244 14.1938 45.4675 19.6236 33.7002C20.3183 32.1949 22.1016 31.5383 23.6063 32.232C25.112 32.9268 25.7687 34.71 25.0739 36.2153C19.7975 47.6519 6.08666 84.4144 6.0036 116.753C5.97038 129.511 10.4446 138.737 19.3031 144.175C23.9297 147.014 33.9755 148.787 37.455 149.23C39.0994 149.44 40.2632 150.943 40.0531 152.587C39.8606 154.103 38.5689 155.21 37.0798 155.21Z" fill="black"/>
<path d="M64.7018 183.29C60.465 183.29 57.1018 182.728 55.2434 181.502C45.4888 175.071 46.8372 163.459 48.2648 151.164C49.324 142.044 50.4184 132.613 47.5632 123.878C46.6008 120.935 44.4726 118.65 42.4138 116.441C40.3981 114.278 38.4946 112.236 37.7706 109.645C32.0467 89.1909 44.5205 53.8545 52.6784 47.751C54.8066 46.1583 57.776 46.0874 61.2145 46.0048C65.2334 45.9091 69.7887 45.7997 73.5076 43.351C81.5072 38.0839 83.7409 30.2523 80.1441 20.0742C77.5294 12.6725 70.3437 7.36877 61.3914 6.23238C52.7517 5.13606 40.7547 8.06399 33.014 19.5724C32.0887 20.9468 30.2263 21.3146 28.8485 20.3878C27.4728 19.463 27.1073 17.5977 28.0327 16.2219C35.7822 4.69929 48.853 -1.41012 62.1476 0.276868C73.3649 1.70052 82.4296 8.51981 85.8055 18.074C90.3091 30.8229 87.1139 41.5805 76.8083 48.3656C71.652 51.7605 65.7024 51.9027 61.3581 52.0068C59.57 52.0493 56.8673 52.1143 56.2742 52.5574C51.0447 56.4712 38.0696 88.438 43.5512 108.028C43.8824 109.211 45.3022 110.735 46.806 112.348C49.0738 114.782 51.8957 117.811 53.2696 122.013C56.5341 131.999 55.3088 142.549 54.2281 151.857C52.7713 164.404 52.2006 172.306 58.5479 176.491C59.4987 177.118 64.7575 177.905 74.9469 176.345C84.5724 174.871 94.2869 171.945 101.599 168.316C103.085 167.58 104.885 168.185 105.622 169.67C106.359 171.156 105.752 172.956 104.268 173.694C92.5545 179.506 75.6904 183.29 64.7018 183.29L64.7018 183.29Z" fill="black"/>
<path d="M67.2973 107.564C65.7505 107.564 64.4383 106.377 64.3083 104.808C64.1725 103.156 65.4017 101.706 67.054 101.57C86.3374 99.9821 98.3246 96.5637 114.412 91.5296C115.992 91.0337 117.677 91.9155 118.173 93.498C118.667 95.0804 117.787 96.764 116.204 97.2594C99.7336 102.413 87.4474 105.915 67.5465 107.553C67.4624 107.56 67.3794 107.564 67.2973 107.564H67.2973Z" fill="black"/>
<path d="M86.9321 328.473C81.6674 328.473 78.5934 326.368 76.8952 324.48C74.8628 322.22 72.7581 317.98 74.2726 310.618C74.9996 307.086 76.4946 302.615 78.3873 296.953C82.0856 285.894 87.15 270.746 90.6725 250.355C97.1244 212.99 100.991 168.69 100.884 161.726C100.859 160.069 102.183 158.705 103.84 158.679C105.492 158.623 106.862 159.977 106.888 161.635C107.01 169.609 103.037 214.03 96.588 251.377C92.9883 272.218 87.8399 287.615 84.0809 298.857C82.2517 304.327 80.8066 308.649 80.1529 311.828C79.3536 315.713 79.7708 318.7 81.3596 320.466C83.1468 322.454 86.2003 322.612 88.4467 322.393C90.0814 322.223 91.5636 323.439 91.7249 325.09C91.8851 326.74 90.6774 328.208 89.0271 328.368C88.2932 328.439 87.5956 328.473 86.9321 328.473H86.9321Z" fill="black"/>
<path d="M283.887 191.056C285.115 189.5 283.749 182.775 280.69 179.957C262.436 163.134 253.941 129.055 243.991 114.253C242.994 112.77 238.612 106.149 237.768 105.013C224.042 86.5151 205.514 89.8942 196.622 91.6307C177.91 95.2848 178.361 106.871 185.662 126.235C191.47 141.636 198.664 201.544 222.359 204.576C248.099 185.147 267.266 212.105 283.887 191.056V191.056Z" fill="#82BE28"/>
<path d="M269.834 199.934C279.383 225.411 264.168 237.044 257.769 237.597C231.109 239.902 200.489 236.923 178.953 231.613C151.618 224.873 143.694 213.403 142.325 208.385C139.669 198.651 141.776 176.921 159.848 173.508C186.226 168.527 185.806 193.523 189.105 195.974C195.97 201.075 206.306 204.201 228.552 203.545C230.976 203.473 235.332 200.675 232.621 195.187C244.994 194.776 269.834 199.934 269.834 199.934Z" fill="white"/>
<path d="M242.92 241.046C216.249 241.046 190.758 235.804 179.794 233.212C158.391 228.154 146.725 221.731 140.785 211.736C136.336 204.25 136.1 194.716 140.155 186.232C144.358 177.442 152.52 171.381 161.988 170.019C174.627 168.199 183.324 172.803 187.122 183.329C187.635 184.751 188.031 186.053 188.414 187.311C190.609 194.524 191.71 198.144 211.073 200.371C212.721 200.561 213.902 202.049 213.713 203.696C213.524 205.343 212.04 206.524 210.388 206.335C188.193 203.783 185.507 198.383 182.671 189.059C182.309 187.872 181.936 186.645 181.475 185.367C179.696 180.435 175.832 174.096 162.842 175.961C155.252 177.053 148.957 181.74 145.573 188.821C142.384 195.491 142.524 202.911 145.946 208.669C150.973 217.13 161.509 222.723 181.176 227.37C194.028 230.408 227.269 237.169 258.284 234.387C260.101 234.224 264.034 232.288 266.853 227.789C269.786 223.107 272.198 214.658 267.026 200.996C266.439 199.446 267.22 197.713 268.77 197.126C270.324 196.539 272.055 197.321 272.64 198.871C278.685 214.836 275.596 225.142 271.941 230.976C268.174 236.987 262.638 240.023 258.821 240.366C253.544 240.84 248.208 241.046 242.92 241.046V241.046Z" fill="black"/>
<path d="M228.032 202.662C226.94 202.662 225.885 202.063 225.356 201.022C224.603 199.545 225.191 197.737 226.668 196.985C237.136 191.651 248.024 193.073 257.408 194.823C258.256 194.981 259.077 195.138 259.872 195.291C269.326 197.107 273.357 197.664 278.255 193.223C281.204 190.55 278.075 185.227 274.317 179.543C274.037 179.118 273.766 178.709 273.511 178.317C263.662 163.174 259.905 154.689 255.147 143.947C252.17 137.226 248.796 129.607 243.239 118.864C231.405 95.9885 210.71 90.4336 195.448 95.0818C193.859 95.563 192.184 94.6699 191.702 93.0841C191.219 91.4982 192.113 89.821 193.699 89.3383C204.556 86.0342 215.707 87.1627 225.952 92.6062C235.257 97.5514 243.291 105.897 248.572 116.106C254.211 127.01 257.625 134.716 260.636 141.516C265.285 152.013 268.957 160.303 278.543 175.043C278.79 175.423 279.053 175.82 279.325 176.232C283.054 181.874 289.297 191.317 282.286 197.671C274.971 204.303 267.809 202.928 258.741 201.187C257.955 201.036 257.145 200.88 256.308 200.724C247.896 199.156 238.183 197.857 229.392 202.334C228.956 202.557 228.491 202.662 228.032 202.662L228.032 202.662Z" fill="black"/>
<path d="M164.324 103.342C155.533 103.342 146.792 101.481 138.715 97.7274C137.212 97.0283 136.559 95.2431 137.258 93.7398C137.958 92.236 139.745 91.5853 141.246 92.2829C157.571 99.8717 176.948 98.8706 193.079 89.6076C194.516 88.7824 196.352 89.2783 197.177 90.7157C198.002 92.1535 197.506 93.988 196.069 94.8137C186.203 100.479 175.226 103.342 164.324 103.342Z" fill="black"/>
</svg>
