<svg width="579" height="533" viewBox="0 0 579 533" fill="none" xmlns="http://www.w3.org/2000/svg">
<path d="M388.779 19.2606C376.209 20.4006 363.579 46.6206 356.919 68.9007C350.269 91.1808 329.689 163.031 320.899 170.011C311.699 177.331 308.039 175.411 303.709 176.051C299.849 176.621 296.349 187.721 295.179 195.141C293.229 207.441 312.959 220.211 319.399 219.631C324.359 219.181 344.269 208.711 346.749 205.431C349.229 202.151 352.349 197.221 353.389 191.691C354.259 187.061 355.599 175.301 356.649 169.161C358.839 156.301 364.959 140.691 378.109 110.311C378.109 110.311 401.339 18.1205 388.769 19.2606H388.779Z" fill="white"/>
<path d="M320.899 173.01C320.169 173.01 319.439 172.74 318.859 172.21C317.649 171.08 317.579 169.18 318.699 167.97C321.429 165.04 328.589 149.2 347.239 90.4401C347.739 88.8601 349.429 87.9901 351.009 88.4901C352.589 88.9901 353.459 90.6801 352.959 92.2601C332.369 157.14 326.059 168.87 323.099 172.06C322.509 172.7 321.709 173.02 320.899 173.02V173.01Z" fill="black"/>
<path d="M349.52 203.991C349.09 203.991 348.66 203.901 348.25 203.701C346.75 203.001 346.11 201.211 346.81 199.711C349.51 193.971 350.25 188.171 350.97 182.561C351.41 179.151 351.86 175.621 352.75 172.221C357.08 155.701 360.87 142.661 373.69 113.061C374.35 111.541 376.11 110.841 377.64 111.501C379.16 112.161 379.86 113.921 379.2 115.441C366.52 144.721 362.95 157.001 358.56 173.741C357.77 176.761 357.36 179.951 356.93 183.321C356.15 189.391 355.35 195.671 352.25 202.261C351.74 203.351 350.66 203.981 349.53 203.981L349.52 203.991Z" fill="black"/>
<path d="M320.969 221.64C310.719 221.64 301.609 216.88 296.779 208.86C289.809 197.28 290.779 186.11 299.509 177.4C303.779 173.14 309.199 171.44 313.569 170.08C315.579 169.45 318.079 168.67 318.659 168.02C319.759 166.78 321.659 166.67 322.899 167.77C324.139 168.87 324.249 170.77 323.149 172.01C321.459 173.91 318.639 174.79 315.369 175.82C311.439 177.05 306.979 178.44 303.759 181.66C296.979 188.42 296.369 196.54 301.929 205.78C305.969 212.5 314.079 216.25 323.069 215.57C331.749 214.91 342.909 209.64 348.179 196.82C348.809 195.29 350.559 194.56 352.099 195.19C353.629 195.82 354.359 197.57 353.729 199.11C348.449 211.95 336.879 220.55 323.529 221.56C322.679 221.62 321.829 221.66 320.979 221.66L320.969 221.64Z" fill="black"/>
<path d="M356.72 183.781C355.58 183.781 354.5 183.131 353.99 182.031C351.5 176.611 340.54 169.141 330.55 166.041C324.85 164.271 320.14 164.131 317.63 165.631C316.21 166.481 314.37 166.021 313.51 164.601C312.66 163.181 313.12 161.341 314.54 160.481C319.7 157.391 327.06 158.681 332.32 160.311C342.8 163.551 355.81 171.631 359.44 179.521C360.13 181.031 359.47 182.811 357.97 183.501C357.56 183.691 357.14 183.771 356.72 183.771V183.781Z" fill="black"/>
<path d="M400.449 9.40018C374.099 20.2302 360.729 55.0503 360.719 55.0903C360.659 55.2603 340.379 80.5904 326.859 100.44C324.399 104.05 326.019 111.231 329.719 113.551C339.819 119.881 355.449 126.381 368.209 141.281C378.009 152.741 387.999 140.381 393.689 123.001C399.379 105.611 401.569 63.5604 404.329 52.2303C413.159 16.0102 402.559 8.54017 400.459 9.41018L400.449 9.40018Z" fill="white"/>
<path d="M359.439 136.68C358.699 136.68 357.969 136.41 357.389 135.87C352.469 131.26 347.359 128.58 342.409 126C336.949 123.14 331.789 120.45 327.459 115.52C320.969 108.14 328.309 94.0202 337.339 83.2602C343.539 75.8702 352.639 61.1901 359.939 49.4001C362.499 45.2601 364.929 41.3501 367.009 38.0901C373.069 28.63 379.989 21.42 384.739 17.04C385.959 15.92 387.86 15.99 388.98 17.21C390.1 18.43 390.029 20.33 388.809 21.45C384.319 25.59 377.779 32.4 372.059 41.3301C369.999 44.5501 367.589 48.4401 365.039 52.5601C357.249 65.1401 348.409 79.4002 341.929 87.1202C330.659 100.55 329.789 109.09 331.959 111.56C335.559 115.65 340.019 117.98 345.189 120.68C350.239 123.32 355.969 126.32 361.489 131.49C362.699 132.62 362.759 134.52 361.629 135.73C361.039 136.36 360.239 136.68 359.439 136.68Z" fill="black"/>
<path d="M384.359 224.141C384.289 224.141 384.209 224.141 384.139 224.141C382.489 224.021 381.249 222.581 381.369 220.931C381.529 218.811 381.719 216.231 381.939 213.261C384.129 183.92 389.259 115.2 387.489 97.5002C386.119 83.7201 386.749 66.2501 387.239 57.07C387.329 55.42 388.739 54.15 390.399 54.24C392.049 54.33 393.319 55.74 393.229 57.4C392.739 66.4201 392.119 83.5401 393.459 96.9202C395.279 115.13 390.119 184.22 387.919 213.721C387.699 216.691 387.509 219.271 387.349 221.391C387.229 222.971 385.919 224.171 384.359 224.171V224.141Z" fill="black"/>
<path d="M486.439 227.28C484.869 227.28 483.549 226.06 483.449 224.47C482.319 206.75 480.639 191.39 479.149 178.71C477.459 164.32 476.939 112.62 479.329 97.3699C479.589 95.7298 481.129 94.6098 482.759 94.8698C484.399 95.1298 485.519 96.6598 485.259 98.2999C482.979 112.83 483.499 164.25 485.109 178.01C486.609 190.77 488.299 206.23 489.439 224.09C489.549 225.74 488.289 227.17 486.639 227.28C486.569 227.28 486.509 227.28 486.449 227.28H486.439Z" fill="black"/>
<path d="M405.99 8.99003C405.99 8.99003 415.96 4.00001 431.93 4.00001C453.88 4.00001 475.83 11.98 469.51 19.6301C463.19 27.2801 382.72 34.9301 405.99 8.99003Z" fill="white"/>
<path d="M498.66 112.12C488.44 39.7101 474.82 13.24 474.82 13.24C458.7 -3.69007 439.309 27.67 418.229 20.62C408.999 17.54 405.579 14.78 404.249 11.12C402.919 7.45997 397.409 11.05 394.199 13.38C386.549 35.3301 372.549 47.1901 370.519 64.1902C368.069 84.6902 366.829 128.84 366.679 129.93C357.119 200.851 344.769 215.501 357.239 227.281C382.059 250.731 427.739 250.221 443.249 244.081C475.17 231.441 500.95 238.321 509.01 241.201C517.07 244.081 504.79 155.53 498.66 112.12Z" fill="white"/>
<path d="M473.08 51.6896C484.32 80.9497 506.67 143.26 508.96 153.44C513.04 171.54 514.43 179.22 510.82 194.07C508.48 203.72 556.36 193.03 549.17 183.73C544.77 178.04 531.5 128.75 518.81 86.6497C511.71 63.0997 473.07 51.6896 473.07 51.6896H473.08Z" fill="white"/>
<path d="M512.681 172.42C513.861 192.69 506.641 203.87 500.971 212.64C491.931 226.62 514.181 234.34 517.131 221.64C519.261 212.47 522.531 211.33 524.651 212.24C529.481 214.32 530.181 222.04 533.761 233.49C537.631 245.89 559.091 250 565.281 222.6C569.531 203.78 547.051 182.22 542.961 167.85C540.871 160.49 511.921 159.16 512.691 172.42H512.681Z" fill="white"/>
<path d="M540.089 164.72C538.819 164.72 537.649 163.91 537.239 162.64C531.139 143.81 524.449 118.06 520.459 102.68C520.039 101.08 521.009 99.4402 522.609 99.0202C524.219 98.6002 525.849 99.5702 526.269 101.17C530.249 116.49 536.899 142.13 542.949 160.79C543.459 162.37 542.599 164.06 541.019 164.57C540.709 164.67 540.399 164.72 540.089 164.72Z" fill="black"/>
<path d="M510.829 197.081C510.569 197.081 510.299 197.051 510.039 196.971C508.439 196.531 507.499 194.881 507.939 193.281C511.789 179.241 510.369 173.031 506.939 158.041C506.649 156.791 506.349 155.481 506.039 154.101C503.819 144.261 487.699 96.3008 476.159 66.2507C475.569 64.7007 476.339 62.9707 477.879 62.3707C479.429 61.7707 481.159 62.5507 481.759 64.0907C492.539 92.1508 509.429 141.881 511.889 152.771C512.199 154.141 512.499 155.441 512.779 156.691C516.339 172.261 517.959 179.361 513.719 194.861C513.349 196.191 512.149 197.071 510.829 197.071V197.081Z" fill="black"/>
<path d="M545.86 245.381C545.78 245.381 545.71 245.381 545.63 245.381C538.16 245.281 532.21 240.751 530.82 234.101C528.57 223.351 527.68 220.901 526.04 217.501C525.38 216.141 523.47 214.701 522.74 214.801C522.63 214.811 521.96 215.401 521.52 217.651C519.71 226.861 513.42 232.431 506.21 231.181C503.03 230.631 499.91 228.471 498.07 225.551C496.75 223.461 495.44 220.011 496.71 215.451C497.81 211.511 499.88 208.181 502.07 204.661C504.21 201.211 506.43 197.641 507.99 193.101C508.53 191.531 510.23 190.701 511.8 191.241C513.37 191.781 514.2 193.481 513.66 195.051C511.88 200.231 509.37 204.271 507.16 207.831C505.12 211.121 503.36 213.951 502.49 217.071C501.94 219.031 502.16 220.801 503.14 222.351C504.23 224.071 505.98 225.061 507.23 225.281C511.1 225.951 514.47 222.421 515.63 216.501C516.83 210.401 520.12 209.091 521.98 208.861C526.21 208.321 530.12 212.151 531.44 214.911C533.44 219.061 534.42 222.081 536.69 232.881C537.51 236.771 541.05 239.331 545.71 239.391C545.76 239.391 545.81 239.391 545.86 239.391C551.62 239.391 559.26 235.201 562.07 223.351C564.66 212.411 556.58 198.981 550.09 188.181C546.36 181.971 543.13 176.611 542.32 172.401C542.01 170.771 543.07 169.201 544.7 168.891C546.33 168.571 547.9 169.641 548.21 171.271C548.82 174.431 551.93 179.611 555.23 185.091C562.28 196.821 571.06 211.411 567.91 224.731C564.3 240.001 553.83 245.391 545.86 245.391V245.381Z" fill="black"/>
<path d="M372.939 242.031C372.539 242.031 372.129 241.951 371.739 241.781C354.509 234.261 346.689 224.811 348.499 213.681C352.729 187.571 362.509 148.9 363.149 146.37L363.769 142.62C367.139 122.2 370.629 101.08 368.959 85.4803C368.779 83.8303 369.979 82.3503 371.619 82.1803C373.279 82.0003 374.749 83.2003 374.919 84.8403C376.679 101.25 373.119 122.78 369.689 143.6L369.049 147.47C369.039 147.56 369.019 147.64 368.999 147.73C368.899 148.13 358.739 188.041 354.419 214.641C353.109 222.721 359.749 230.001 374.139 236.281C375.659 236.941 376.349 238.711 375.689 240.231C375.199 241.361 374.099 242.031 372.939 242.031Z" fill="black"/>
<path d="M414.06 250.531C406.41 250.531 398.92 249.841 391.96 248.451C390.34 248.121 389.28 246.541 389.61 244.921C389.93 243.3 391.51 242.241 393.14 242.571C408.38 245.621 426.391 245.11 442.541 241.18C465.511 235.59 489.451 230.75 507.551 237.98C509.091 238.6 509.841 240.34 509.221 241.88C508.611 243.421 506.861 244.171 505.321 243.551C488.871 236.97 465.991 241.65 443.961 247.001C434.341 249.341 424.081 250.521 414.07 250.521L414.06 250.531Z" fill="black"/>
<path d="M137.128 441.092C135.848 441.092 134.658 440.262 134.258 438.972C133.768 437.392 134.658 435.712 136.248 435.222C170.848 424.582 216.028 391.312 257.098 346.231C299.449 299.751 329.429 249.971 339.359 209.671C339.759 208.061 341.379 207.081 342.989 207.471C344.599 207.871 345.579 209.491 345.189 211.101C335.029 252.341 304.539 303.061 261.539 350.261C219.778 396.102 173.598 430.002 138.018 440.942C137.728 441.032 137.428 441.072 137.138 441.072L137.128 441.092Z" fill="black"/>
<path d="M169.229 441.381C188.339 436.081 187.699 420.911 190.189 417.761C197.699 408.251 207.289 429.781 200.199 445.941C197.029 453.171 191.049 458.401 182.929 461.051C166.209 466.501 161.769 443.441 169.229 441.381Z" fill="white"/>
<path d="M188.55 425.401C185.44 433.361 197.71 436.701 201.25 431.871C205.1 426.621 196.91 411.901 193.59 414.101C190.28 416.301 191.66 417.431 188.54 425.401H188.55Z" fill="#82BE28"/>
<path d="M182.929 464.052C181.339 464.052 180.019 462.802 179.939 461.202C179.859 459.552 181.129 458.142 182.789 458.052C183.069 458.032 190.789 457.252 197.559 444.532C202.959 434.392 199.039 421.422 195.029 418.802C194.459 418.432 193.819 418.012 192.559 419.622C192.319 419.992 191.869 421.532 191.499 422.772C189.489 429.622 185.759 442.362 169.609 444.362C167.969 444.562 166.469 443.402 166.259 441.752C166.059 440.112 167.219 438.612 168.869 438.402C181.109 436.892 183.889 427.372 185.739 421.082C186.419 418.762 186.909 417.082 187.849 415.902C190.729 412.262 194.739 411.442 198.309 413.782C205.639 418.572 209.249 435.342 202.859 447.352C194.369 463.312 183.549 464.032 183.099 464.052C183.049 464.052 182.999 464.052 182.949 464.052H182.929Z" fill="black"/>
<path d="M97.8288 448.451C94.9188 449.361 90.1188 450.871 85.7688 460.151C80.2988 471.821 63.2187 484.271 52.2387 486.761C51.2187 486.991 41.4486 486.601 40.8386 494.461C40.6386 497.081 47.1387 506.091 49.4987 507.621C52.1387 509.331 56.1087 508.031 58.9387 507.621C62.3687 507.111 62.0087 502.981 66.8587 499.911C68.6887 498.761 79.3088 493.821 84.2288 494.691C87.0088 495.181 94.4388 495.591 95.1288 496.291C98.5988 499.851 92.1988 506.981 90.4488 508.911C86.3188 513.481 81.9688 513.931 81.3488 515.231C76.0688 526.431 99.0188 534.171 103.829 526.931C106.619 522.731 108.519 512.551 117.579 507.561C130.829 500.251 126.389 487.911 126.399 486.801C126.429 464.121 107.779 445.341 97.8288 448.451Z" fill="white"/>
<path d="M103.828 465.332C110.998 456.382 118.318 451.082 123.328 448.052C128.898 444.672 147.978 433.102 168.119 439.882C172.249 441.272 177.849 443.152 182.079 448.742C190.739 460.182 188.569 480.402 179.859 486.432C175.009 489.792 175.759 492.052 161.899 493.752C155.218 494.572 143.968 493.362 135.728 496.652C125.018 500.932 122.778 507.632 117.578 507.562C109.968 507.462 107.408 491.822 105.198 481.692C103.788 475.182 103.638 469.502 103.828 465.322V465.332Z" fill="white"/>
<path d="M173.249 493.831C180.809 495.221 185.309 496.301 187.619 503.821C188.829 507.761 197.979 514.551 201.099 513.491C204.679 512.271 206.479 510.021 207.029 508.691C210.169 501.161 215.959 491.571 205.169 485.991C200.579 483.621 199.149 483.861 194.049 480.911C185.899 476.191 185.679 470.071 179.739 469.491C175.069 469.041 169.659 474.391 167.019 478.421C163.079 484.421 160.479 491.481 173.249 493.831Z" fill="white"/>
<path d="M171.259 457.101C172.269 468.511 158.889 472.251 152.109 467.731C136.719 457.481 121.469 471.721 119.098 457.871C117.658 449.431 130.789 438.281 149.419 440.751C157.309 441.801 170.209 445.321 171.259 457.101Z" fill="#2D8C3C"/>
<path d="M54.8186 511.851C52.5186 511.851 50.7986 510.951 49.1986 510.121C48.5885 509.801 47.9585 509.481 47.2685 509.181C46.7085 508.941 38.2385 503.161 37.1585 497.511C36.3885 493.471 36.9985 490.241 38.9785 487.901C40.9085 485.631 44.0285 484.431 47.7685 484.521C51.1886 484.591 57.8186 481.651 63.2086 477.651C64.5386 476.661 66.4186 476.941 67.4086 478.271C68.3986 479.601 68.1186 481.481 66.7886 482.471C61.3486 486.511 53.4486 490.531 47.8985 490.531C47.8085 490.531 47.7185 490.531 47.6285 490.531C46.7485 490.511 44.5785 490.591 43.5585 491.791C42.6185 492.891 42.7685 494.901 43.0485 496.391C43.4685 498.581 48.2185 502.701 49.8286 503.761C50.6386 504.121 51.3386 504.481 51.9586 504.801C54.1086 505.921 54.7586 506.251 56.9686 505.291C58.0186 504.841 60.2786 502.361 61.6286 500.871C63.0286 499.341 64.1386 498.131 65.1286 497.441L65.3886 497.261C68.4086 495.171 75.4686 490.261 83.7187 491.731C85.3487 492.021 86.4387 493.581 86.1487 495.211C85.8587 496.841 84.2987 497.931 82.6687 497.641C76.8586 496.601 71.4186 500.381 68.8086 502.191L68.5386 502.381C68.1086 502.681 66.9186 503.981 66.0586 504.921C63.4286 507.791 61.4186 509.901 59.3486 510.791C57.5986 511.551 56.1086 511.841 54.7986 511.841L54.8186 511.851ZM49.6386 503.671C49.6386 503.671 49.6886 503.691 49.7186 503.711C49.6886 503.691 49.6586 503.681 49.6386 503.671Z" fill="black"/>
<path d="M175.779 445.761C175.049 445.761 174.329 445.501 173.749 444.971C169.949 441.471 160.368 439.101 148.328 442.161C146.718 442.571 145.088 441.601 144.678 439.991C144.268 438.381 145.238 436.751 146.848 436.341C159.218 433.201 171.659 434.891 177.809 440.551C179.029 441.671 179.109 443.571 177.989 444.791C177.399 445.431 176.589 445.761 175.779 445.761Z" fill="black"/>
<path d="M97.3283 532.762C94.5383 532.762 91.2383 531.982 87.4983 530.432C87.4283 530.402 80.7383 527.582 78.4583 522.492C76.9383 519.632 77.1883 517.292 77.6683 515.822C78.9783 511.862 83.1883 509.912 85.4583 508.872C85.7783 508.722 86.0383 508.612 86.2183 508.512C90.1683 505.662 92.5583 502.102 93.1283 498.202C93.6683 494.502 92.5183 490.592 89.8983 487.192C88.8883 485.882 89.1283 483.992 90.4383 482.982C91.7483 481.972 93.6383 482.212 94.6483 483.522C98.2783 488.222 99.8483 493.742 99.0683 499.072C98.2483 504.632 94.9983 509.602 89.6583 513.432C89.2083 513.752 88.6883 513.992 87.9683 514.322C86.6383 514.942 83.8583 516.222 83.3683 517.702C83.3083 517.892 83.1083 518.482 83.7883 519.732C83.8383 519.812 83.8783 519.902 83.9083 519.992C84.8483 522.172 88.3483 524.272 89.7983 524.902C94.6683 526.922 98.5883 527.352 100.018 526.012C100.858 525.182 102.398 520.932 103.138 518.882C104.038 516.402 104.578 514.952 105.168 514.012C108.748 508.382 118.628 499.722 134.678 493.832C146.858 489.362 165.529 486.962 176.149 491.292L176.859 491.582C182.369 493.822 189.919 496.882 193.489 506.062C194.319 508.192 195.799 510.782 198.179 510.972C200.149 511.142 202.529 509.572 203.949 507.162C211.759 493.962 206.479 490.152 203.639 488.102C201.949 486.882 199.589 485.882 197.079 484.832C190.759 482.162 182.899 478.852 182.949 469.711C182.949 469.371 182.999 469.081 183.089 468.561C183.419 466.651 184.419 460.841 182.129 455.351C181.489 453.821 182.209 452.061 183.739 451.431C185.269 450.791 187.029 451.511 187.659 453.041C190.629 460.141 189.399 467.241 188.999 469.581C188.979 469.701 188.959 469.812 188.949 469.892C189.009 474.572 192.949 476.582 199.409 479.302C202.109 480.442 204.909 481.622 207.149 483.232C218.409 491.352 213.659 502.522 209.109 510.212C206.479 514.652 201.989 517.292 197.679 516.942C195.209 516.742 190.649 515.332 187.889 508.222C185.259 501.452 179.599 499.162 174.599 497.132L173.879 496.842C167.989 494.432 152.569 493.652 136.748 499.462C123.048 504.492 113.558 512.012 110.228 517.232C109.948 517.682 109.268 519.552 108.778 520.922C107.138 525.452 105.838 528.782 104.108 530.392C102.418 531.972 100.128 532.762 97.3183 532.762H97.3283Z" fill="black"/>
<path d="M63.0081 371.902C63.0081 371.902 33.148 380.612 8.06787 383.152C0.0978483 383.962 8.08787 420.932 39.028 402.302L63.0081 371.902Z" fill="#2D8C3C"/>
<path d="M21.3682 410.502C21.3682 410.502 21.2782 410.502 21.2382 410.502C14.8982 410.222 9.19817 407.432 5.17816 402.642C1.78815 398.612 -0.141858 393.492 0.00814231 388.952C0.188143 383.592 3.45815 380.042 8.13817 380.162C32.4683 380.702 61.6183 369.242 61.9084 369.122C63.4484 368.512 65.1884 369.262 65.8084 370.802C66.4184 372.342 65.6684 374.082 64.1284 374.702C62.8884 375.192 33.4983 386.752 8.00817 386.162C7.48817 386.162 6.10816 386.122 6.00816 389.152C5.83816 394.102 10.3482 404.022 21.5082 404.512C23.1682 404.582 24.4482 405.982 24.3782 407.642C24.3082 409.252 22.9782 410.512 21.3782 410.512L21.3682 410.502Z" fill="black"/>
<path d="M137.779 416.871C140.589 445.331 131.469 470.081 90.3588 471.341C60.1287 472.271 19.3786 464.521 29.5286 426.451C37.9186 394.991 51.6687 367.771 81.9088 367.771C112.149 367.771 135.239 391.131 137.779 416.871Z" fill="white"/>
<path d="M117.099 430.761C119.839 441.361 113.119 450.681 102.099 451.571C91.0691 452.471 79.909 444.601 77.159 434.011C74.419 423.411 81.139 414.091 92.1591 413.201C103.179 412.311 114.349 420.171 117.099 430.761Z" fill="#82BE28"/>
<path d="M44.5086 386.671C43.7786 386.671 43.0486 386.411 42.4786 385.881C41.2586 384.761 41.1886 382.861 42.3086 381.641C56.2987 366.481 71.5987 361.041 90.4588 364.531C92.0888 364.831 93.1688 366.401 92.8588 368.031C92.5588 369.661 90.9888 370.741 89.3588 370.431C72.7187 367.351 59.1687 372.201 46.7186 385.711C46.1286 386.351 45.3186 386.681 44.5086 386.681V386.671Z" fill="black"/>
<path d="M114.369 469.792C113.199 469.792 112.089 469.102 111.599 467.952C110.959 466.422 111.669 464.662 113.199 464.022C125.529 458.831 132.579 449.971 134.139 437.701C136.579 418.621 134.149 392.661 108.769 377.331C107.169 376.361 105.439 375.481 103.629 374.691C102.109 374.031 101.409 372.271 102.069 370.751C102.729 369.231 104.489 368.531 106.009 369.191C108.069 370.081 110.039 371.091 111.879 372.201C134.149 385.661 143.909 408.581 140.089 438.471C138.259 452.811 129.759 463.562 115.519 469.562C115.139 469.722 114.749 469.802 114.359 469.802L114.369 469.792Z" fill="black"/>
<path d="M107.238 380.232C107.238 380.232 135.188 388.132 170.468 392.262C184.748 393.932 162.968 439.972 116.568 404.032C94.878 387.232 107.228 380.232 107.228 380.232H107.238Z" fill="#2D8C3C"/>
<path d="M147.889 420.702C140.889 420.702 132.539 418.552 123.509 411.822C122.179 410.832 121.909 408.952 122.889 407.622C123.879 406.292 125.759 406.022 127.089 407.012C131.659 410.412 147.809 420.682 163.749 409.902C169.799 405.812 172.609 400.302 171.829 397.342C171.229 395.092 168.379 394.402 166.089 394.222C130.509 391.432 107.219 383.402 106.239 383.062C104.679 382.512 103.849 380.802 104.399 379.242C104.949 377.682 106.659 376.852 108.219 377.402C108.449 377.482 131.809 385.522 166.559 388.252C174.619 388.882 176.959 393.262 177.629 395.822C179.209 401.792 174.879 409.632 167.109 414.882C164.319 416.772 157.349 420.702 147.889 420.712V420.702Z" fill="black"/>
<path d="M83.2281 474.992C65.398 474.992 49.468 471.002 39.1179 463.722C27.7079 455.692 14.1479 442.162 28.1579 417.422C29.5479 414.952 29.9179 412.672 30.3779 409.792C30.7779 407.302 31.2279 404.492 32.4479 401.211C33.0279 399.661 34.7579 398.872 36.3079 399.452C37.8579 400.032 38.6479 401.762 38.0679 403.312C37.0479 406.032 36.6679 408.422 36.2979 410.742C35.8079 413.812 35.2979 416.982 33.3779 420.382C21.9679 440.532 31.6279 451.122 42.568 458.822C54.168 466.982 73.8681 470.552 95.2781 468.372C96.9181 468.202 98.3982 469.402 98.5682 471.052C98.7381 472.702 97.5381 474.172 95.8881 474.342C91.5981 474.782 87.3581 474.992 83.2281 474.992Z" fill="black"/>
<path d="M69.6372 443.911C69.2372 446.261 65.8972 448.701 62.3872 448.101C58.8772 447.501 56.5372 444.101 56.9372 441.751C57.3372 439.401 60.3272 438.991 63.8372 439.591C67.3472 440.191 70.0372 441.561 69.6372 443.911Z" fill="black"/>
<path d="M54.9578 430.192C57.548 430.192 59.6478 428.092 59.6478 425.502C59.6478 422.912 57.548 420.812 54.9578 420.812C52.3675 420.812 50.2677 422.912 50.2677 425.502C50.2677 428.092 52.3675 430.192 54.9578 430.192Z" fill="black"/>
<path d="M90.4891 437.981C93.0794 437.981 95.1791 435.881 95.1791 433.291C95.1791 430.701 93.0794 428.601 90.4891 428.601C87.8989 428.601 85.7991 430.701 85.7991 433.291C85.7991 435.881 87.8989 437.981 90.4891 437.981Z" fill="black"/>
<path d="M541.179 124.071C542.719 122.821 545.719 116.771 544.449 115.241C528.099 95.6209 509.239 58.8608 501.769 45.2307C495.549 33.8707 480.719 21.7007 477.119 16.9006C473.059 11.5006 472.989 9.84061 469.159 9.49061C450.179 7.77061 450.149 29.9507 455.829 49.8407C460.349 65.6608 455.799 144.021 479.149 148.981C501.099 127.701 532.599 131.051 541.169 124.061L541.179 124.071Z" fill="white"/>
<path d="M479.161 151.981C478.341 151.981 477.521 151.641 476.931 150.981C475.821 149.751 475.931 147.851 477.161 146.741C491.571 133.821 511.991 129.741 525.501 127.031C531.261 125.881 536.701 124.791 538.511 123.541C540.091 122.451 541.011 121.081 541.221 119.451C541.481 117.511 540.701 115.291 539.071 113.361C534.841 108.341 520.381 90.4509 511.971 70.8308C500.031 42.9807 484.981 24.4807 474.871 16.4506C473.571 15.4206 473.361 13.5306 474.391 12.2406C475.421 10.9406 477.311 10.7206 478.601 11.7606C483.781 15.8706 501.901 32.1307 517.481 68.4708C523.901 83.4509 535.211 99.4809 543.651 109.491C546.411 112.761 547.661 116.581 547.161 120.251C546.711 123.581 544.891 126.421 541.901 128.481C539.071 130.421 533.871 131.461 526.671 132.901C513.031 135.631 494.351 139.371 481.161 151.191C480.591 151.701 479.871 151.961 479.161 151.961V151.981Z" fill="black"/>
<path d="M423.08 25.7898C422.88 25.7898 422.69 25.7898 422.5 25.7898C402.97 25.4598 401.33 13.4898 401.27 12.9798C401.08 11.3298 402.25 9.83975 403.9 9.64975C405.52 9.45975 407 10.6098 407.22 12.2298C407.29 12.6298 408.68 19.5598 422.6 19.7998C435.52 20.0098 447.69 11.0898 451.25 8.21975C458.91 0.979725 469.37 6.25974 469.82 6.47974C471.29 7.23975 471.87 9.04975 471.11 10.5198C470.35 11.9898 468.54 12.5698 467.07 11.8098C466.79 11.6698 459.87 8.24975 455.32 12.6298C455.26 12.6898 455.2 12.7398 455.13 12.7998C450.28 16.7398 437.54 25.7998 423.09 25.7998L423.08 25.7898Z" fill="black"/>
</svg>
