<svg width="457" height="495" viewBox="0 0 457 495" fill="none" xmlns="http://www.w3.org/2000/svg">
<path d="M405.992 488.933C410.765 492.071 417.954 492.619 422.758 486.671C428.994 478.949 427.509 467.835 422.661 461.585C417.812 455.336 415.685 454.161 411.234 454.157C406.784 454.154 397.917 465.144 396.508 471.117C395.099 477.091 401.219 485.794 405.992 488.933Z" fill="#2D8C3C"/>
<path d="M413.55 494.246C410.212 494.246 406.957 493.157 404.344 491.44C398.664 487.704 391.825 477.905 393.588 470.428C395.179 463.686 404.868 451.155 411.235 451.155H411.238C416.839 451.16 419.805 453.007 425.033 459.745C430.652 466.987 432.21 479.744 425.093 488.555C421.803 492.628 417.615 494.246 413.55 494.246H413.55ZM407.642 486.425C410.421 488.252 416.242 489.962 420.424 484.785C425.673 478.287 424.478 468.821 420.291 463.424C415.667 457.464 414.352 457.16 411.233 457.157C408.847 457.312 400.716 466.354 399.429 471.806C398.39 476.211 403.655 483.804 407.642 486.425H407.642Z" fill="black"/>
<path d="M322.616 480.346C327.389 483.484 334.577 484.032 339.381 478.084C345.618 470.363 344.133 459.248 339.284 452.999C334.436 446.749 332.309 445.574 327.858 445.571C323.407 445.567 314.541 456.558 313.131 462.531C311.722 468.504 317.843 477.208 322.616 480.346Z" fill="#2D8C3C"/>
<path d="M330.174 485.661C326.836 485.661 323.581 484.572 320.968 482.854C315.287 479.119 308.447 469.318 310.212 461.841C311.803 455.1 321.491 442.57 327.857 442.57H327.86C333.464 442.575 336.428 444.421 341.655 451.159C347.274 458.402 348.834 471.159 341.717 479.97C338.427 484.042 334.239 485.661 330.174 485.661ZM324.266 477.839C327.045 479.667 332.866 481.377 337.048 476.199C342.296 469.701 341.101 460.235 336.914 454.838C332.242 448.816 330.843 448.575 327.855 448.572C325.471 448.726 317.34 457.769 316.053 463.221C315.014 467.625 320.279 475.217 324.266 477.839Z" fill="black"/>
<path d="M433.135 445.503C437.908 448.641 445.096 449.189 449.901 443.241C456.137 435.519 454.652 424.405 449.804 418.155C444.955 411.906 442.828 410.731 438.377 410.727C433.927 410.724 425.06 421.714 423.651 427.687C422.242 433.661 428.362 442.364 433.135 445.503Z" fill="#2D8C3C"/>
<path d="M440.693 450.817C437.356 450.817 434.099 449.727 431.487 448.01C425.807 444.275 418.967 434.476 420.731 426.998C422.32 420.258 432.009 407.726 438.377 407.726H438.38C443.982 407.73 446.948 409.577 452.175 416.316C457.794 423.557 459.354 436.313 452.236 445.126C448.946 449.2 444.759 450.817 440.693 450.817ZM438.376 413.728C435.989 413.883 427.858 422.925 426.573 428.376C425.533 432.783 430.797 440.374 434.785 442.995C437.564 444.822 443.383 446.533 447.567 441.356C452.816 434.857 451.621 425.391 447.433 419.995C442.76 413.972 441.362 413.73 438.376 413.728Z" fill="black"/>
<path d="M349.138 438.721C354.441 442.208 362.428 442.817 367.766 436.207C374.695 427.628 373.045 415.279 367.658 408.335C362.271 401.391 359.907 400.085 354.962 400.082C350.017 400.078 340.165 412.289 338.599 418.926C337.034 425.563 343.834 435.234 349.138 438.721Z" fill="#2D8C3C"/>
<path d="M357.527 444.29C353.888 444.29 350.337 443.101 347.488 441.229C341.257 437.132 333.751 426.403 335.677 418.237C337.424 410.836 348.014 397.081 354.96 397.081H354.963C361.133 397.086 364.23 399.022 370.029 406.496C376.192 414.439 377.904 428.431 370.1 438.093C366.518 442.528 361.957 444.29 357.527 444.29L357.527 444.29ZM350.785 436.214C355.049 439.017 361.233 439.519 365.43 434.322C371.366 426.973 370.019 416.273 365.287 410.174C359.998 403.358 358.394 403.085 354.96 403.083H354.959C352.264 403.083 343.027 413.221 341.519 419.615C340.334 424.635 346.279 433.251 350.785 436.214Z" fill="black"/>
<path d="M355.357 421.229C351.752 428.608 359.518 434.234 363.673 428.536C367.829 422.837 360.318 411.075 355.357 421.229Z" fill="white"/>
<path d="M359.539 433.872C358.213 433.872 356.874 433.509 355.628 432.757C352.079 430.619 349.92 425.52 352.66 419.912C354.933 415.262 357.792 414.261 359.79 414.24H359.854C362.504 414.24 364.992 416.003 366.52 418.969C368.492 422.797 368.326 427.247 366.097 430.305C364.401 432.63 361.992 433.872 359.539 433.872ZM358.053 422.547C356.843 425.023 357.553 426.911 358.726 427.617C359.82 428.275 360.7 427.519 361.248 426.768C362.208 425.451 361.943 423.339 361.291 421.933C360.747 420.763 360.051 420.256 359.852 420.241C359.704 420.26 358.952 420.707 358.053 422.547Z" fill="black"/>
<path d="M282.693 265.348L254.687 300.265C248.801 307.996 246.914 318.075 249.664 327.394C265.015 379.413 284.779 423.112 307.558 461.129L416.844 472.039C420.795 472.434 424.562 470.281 426.229 466.677L449.083 417.241C440.573 373.047 419.844 328.296 395.843 278.124C357.276 269.419 320.227 265.647 282.693 265.348Z" fill="white"/>
<path d="M430.496 462.994C430.071 462.994 429.638 462.903 429.228 462.711C427.726 462.01 427.078 460.224 427.779 458.722L444.956 421.952C446.346 418.558 445.667 411.91 445.265 409.473C437.174 377.384 411.528 311.347 396.208 283.173C396.142 283.05 396.083 282.922 396.034 282.791C395.416 281.14 393.59 279.921 390.608 279.17C361.33 272.46 299.484 267.38 284.774 268.754C278.409 270.793 257.344 299.337 253.815 308.249C253.206 309.789 251.463 310.545 249.92 309.934C248.38 309.324 247.625 307.58 248.235 306.039C251.335 298.212 273.818 265.318 283.486 262.883C283.627 262.847 283.769 262.822 283.914 262.807C298.493 261.314 362.056 266.469 392.011 273.335C396.982 274.586 400.177 276.983 401.573 280.475C417.095 309.096 442.985 375.792 451.114 408.125C451.133 408.199 451.148 408.273 451.162 408.348C451.341 409.388 452.841 418.673 450.469 424.324C450.454 424.361 450.437 424.398 450.421 424.433L433.216 461.262C432.707 462.353 431.625 462.994 430.496 462.994Z" fill="black"/>
<path d="M420.049 458.649C418.778 458.649 417.597 457.834 417.191 456.558C406.69 423.613 392.395 381.005 374.922 343.635C374.221 342.133 374.869 340.347 376.37 339.645C377.87 338.944 379.656 339.59 380.36 341.093C397.977 378.773 412.353 421.618 422.909 454.736C423.412 456.315 422.54 458.003 420.961 458.506C420.659 458.603 420.351 458.649 420.049 458.649Z" fill="black"/>
<path d="M356.159 325.09C356.065 325.09 355.97 325.086 355.876 325.077L266.209 316.687C264.559 316.532 263.346 315.069 263.5 313.42C263.655 311.769 265.128 310.553 266.768 310.711L356.434 319.102C358.084 319.256 359.297 320.719 359.143 322.369C358.998 323.924 357.69 325.09 356.159 325.09Z" fill="black"/>
<path d="M421.047 475.866C420.953 475.866 420.858 475.862 420.763 475.853L311.257 465.606C310.962 465.577 310.674 465.507 310.4 465.395C310.265 465.34 310.12 465.284 309.965 465.226C308.479 464.658 305.712 463.603 303.55 460.255C303.342 459.951 278.1 422.658 254.571 355.673C254.021 354.11 254.844 352.397 256.408 351.848C257.972 351.302 259.684 352.121 260.233 353.685C283.504 419.932 308.3 456.57 308.548 456.932C309.688 458.696 310.917 459.164 312.105 459.619C312.15 459.635 312.194 459.653 312.238 459.669L421.322 469.877C422.972 470.031 424.185 471.494 424.031 473.144C423.885 474.699 422.577 475.866 421.047 475.866Z" fill="black"/>
<path d="M279.249 315.037L252.678 246.432C251.48 243.341 253.016 239.865 256.106 238.667C259.197 237.473 262.674 239.006 263.871 242.097L292.922 317.105L279.249 315.037Z" fill="black"/>
<path d="M320.577 318.76L296.945 252.34C295.834 249.217 297.466 245.785 300.588 244.673C303.713 243.564 307.144 245.193 308.255 248.316L333.757 319.993L320.577 318.76Z" fill="black"/>
<path d="M313.674 253.317C313.487 253.317 313.298 253.309 313.108 253.291L244.874 246.906C241.573 246.597 239.149 243.672 239.457 240.371C239.766 237.072 242.689 234.643 245.992 234.955L314.226 241.339C317.527 241.648 319.951 244.574 319.643 247.874C319.352 250.984 316.736 253.317 313.674 253.317Z" fill="black"/>
<path d="M116.725 36.3441C104.168 37.4838 95.0145 68.2066 88.366 90.4446C81.7175 112.683 61.1524 184.396 52.3758 191.368C43.18 198.673 39.5251 196.758 35.1988 197.401C31.339 197.974 27.8485 209.046 26.6738 216.45C24.7265 228.724 44.4449 241.473 50.8786 240.893C55.8393 240.445 75.7306 229.997 78.2114 226.724C80.6921 223.451 83.8047 218.529 84.8417 213.004C85.7085 208.386 87.0528 196.649 88.0985 190.518C90.2881 177.679 96.4019 162.1 109.545 131.778C109.545 131.778 129.281 35.2045 116.725 36.3441V36.3441Z" fill="white"/>
<path d="M52.3759 194.369C51.6443 194.369 50.9116 194.103 50.3333 193.566C49.1201 192.437 49.0507 190.538 50.179 189.325C57.4322 181.525 82.425 100.326 91.8331 69.7576L93.0278 65.878C93.5162 64.294 95.2003 63.4071 96.7789 63.8935C98.3633 64.3815 99.2513 66.0612 98.7639 67.6452L97.5701 71.5233C79.4925 130.256 61.7713 185.672 54.5749 193.412C53.9839 194.047 53.1809 194.369 52.376 194.369L52.3759 194.369Z" fill="black"/>
<path d="M80.9723 225.296C80.5444 225.296 80.1097 225.204 79.6975 225.01C78.197 224.305 77.5533 222.518 78.2586 221.018C80.9537 215.289 81.6942 209.498 82.4112 203.897C82.8478 200.489 83.2982 196.966 84.1871 193.576C88.5107 177.085 92.3028 164.065 105.109 134.52C105.769 133.001 107.534 132.3 109.057 132.96C110.577 133.619 111.275 135.386 110.617 136.907C97.9481 166.132 94.3738 178.387 89.9935 195.098C89.2023 198.113 88.7959 201.292 88.3641 204.659C87.5885 210.721 86.7865 216.988 83.6899 223.572C83.179 224.659 82.0986 225.296 80.9723 225.296V225.296Z" fill="black"/>
<path d="M52.4415 242.91C42.2002 242.91 33.092 238.16 28.2693 230.154C21.3043 218.594 22.2753 207.437 31.0005 198.74C35.2645 194.491 40.689 192.796 45.0477 191.433C47.0552 190.806 49.5539 190.025 50.1342 189.373C51.2332 188.134 53.1302 188.023 54.3708 189.125C55.6085 190.227 55.7198 192.124 54.618 193.362C52.9329 195.257 50.1088 196.14 46.8383 197.162C42.9113 198.389 38.4598 199.781 35.2381 202.992C28.4695 209.738 27.8541 217.835 33.4095 227.058C37.4527 233.768 45.5469 237.509 54.5339 236.828C63.2084 236.168 74.3534 230.906 79.6176 218.114C80.2487 216.581 82.0031 215.851 83.5348 216.48C85.0675 217.112 85.7992 218.865 85.1681 220.398C79.896 233.209 68.332 241.798 54.9892 242.813C54.1334 242.878 53.2836 242.91 52.4415 242.91Z" fill="black"/>
<path d="M125.325 17.2815C98.9987 28.0913 99.2051 47.4696 90.5655 54.7719C81.9259 62.0741 62.6529 133.105 27.5292 164.635C19.3769 171.953 26.9544 188.045 30.6517 190.36C40.7397 196.675 52.0044 203.831 68.7335 209.113C71.5479 210.001 87.6392 211.861 93.3231 194.508C99.007 177.155 140.589 52.6616 143.347 41.3542C133.404 23.3501 137.326 28.8296 125.325 17.2815V17.2815Z" fill="#2D8C3C"/>
<path d="M66.641 209.128C50.6782 209.128 33.8949 198.237 28.4567 192.406C19.7598 183.077 18.4635 171.456 25.155 162.799C54.826 124.418 80.4381 70.9589 87.8036 53.5992C88.4522 52.0729 90.2125 51.3632 91.7384 52.0089C93.2642 52.6561 93.9763 54.4179 93.3287 55.9437C85.8792 73.5017 59.9632 127.585 29.9034 166.47C24.0814 174.003 27.6059 182.693 32.8467 188.313C37.5131 193.317 52.6944 203.126 66.641 203.126C68.2987 203.126 69.6419 204.47 69.6419 206.127C69.6419 207.785 68.2987 209.128 66.641 209.128H66.641Z" fill="black"/>
<path d="M219.82 154.609C214.851 138.43 210.761 127.288 207.284 108.224C201.947 78.9608 202.255 72.4739 206.754 66.799C210.969 61.4818 216.337 60.9077 216.347 54.9579C216.354 50.9858 202.881 16.2689 178.956 5.64766C177.989 6.00978 177.078 6.63118 176.215 7.46458C170.585 3.26296 158.037 3.3878 148.057 3.25377C105.352 2.6811 85.8586 90.3629 85.8869 91.6856C86.7222 130.773 67.3058 207.455 64.6474 219.404C61.9892 231.354 83.5932 243.449 98.3368 246.915C135.008 255.538 156.346 249.012 158.837 248.933C180.445 233.158 227.097 255.672 236.725 235.235C242.841 222.255 231.957 194.129 219.82 154.609H219.82ZM168.826 22.3713C168.788 22.497 168.749 22.6213 168.71 22.7475C168.606 22.6369 168.493 22.538 168.365 22.4576C168.189 22.3464 168.374 22.3245 168.826 22.3713Z" fill="#2D8C3C"/>
<path d="M133.119 5.66786L127.667 15.1097L130.393 18.5505L143.927 13.3682L156.02 21.8267L169.406 16.0475L176.795 7.9847C162.747 -1.90404 148.52 -2.52723 133.119 5.66785V5.66786Z" fill="white"/>
<path d="M135.269 21.1387L140.74 29.0019L131.167 45.0703L126.552 67.4634L134.415 103.703L146.039 70.1984L158.346 23.19L143.304 13.4464L135.269 21.1387Z" fill="white"/>
<path d="M119.787 95.73C118.69 95.73 117.632 95.1258 117.104 94.0786C99.778 59.6831 101.717 51.2123 105.048 48.1113C106.755 45.4611 110.019 42.8104 113.466 40.0127C115.867 38.0633 119.855 34.8251 120.348 33.4677C120.241 32.5109 119.158 30.922 118.197 29.5134C116.05 26.367 113.11 22.0576 115.786 17.3418C117.909 13.6024 125.443 6.44353 126.296 5.63958C127.5 4.50203 129.401 4.55869 130.537 5.76267C131.675 6.96811 131.62 8.86759 130.414 10.0051C127.448 12.8043 122.271 18.0759 121.006 20.3046C120.292 21.5628 121.055 23.0525 123.155 26.1311C124.694 28.3871 126.286 30.7203 126.355 33.4287C126.452 37.1998 122.39 40.4972 117.249 44.6723C114.34 47.0338 111.042 49.7109 109.978 51.5498C109.69 52.048 109.336 52.3396 109.166 52.4798C109.116 52.534 105.667 58.0352 122.465 91.3786C123.211 92.8586 122.615 94.6628 121.135 95.4086C120.702 95.627 120.241 95.73 119.787 95.73V95.73Z" fill="black"/>
<path d="M158.622 24.7106C153.779 24.7111 149.849 21.3419 146.866 18.7855C145.838 17.9033 144.436 16.7023 143.86 16.4937C142.31 16.3462 140.577 17.5028 138.726 18.719C138.039 19.1713 137.358 19.6168 136.68 20.0104C133.238 22.0091 129.632 22.3148 126.787 20.8447C124.509 19.668 123.067 17.5023 122.831 14.9039C122.34 9.51852 126.94 4.36268 129.243 2.70984C130.591 1.74324 132.466 2.0534 133.431 3.39853C134.397 4.74512 134.088 6.62019 132.742 7.5863C131.022 8.82056 128.612 12.2083 128.807 14.3598C128.857 14.9059 129.097 15.2829 129.542 15.5125C130.292 15.9008 131.769 15.9223 133.665 14.8204C134.25 14.4809 134.836 14.0936 135.43 13.7029C137.869 12.1013 140.896 10.1066 144.617 10.5388C146.758 10.787 148.618 12.3822 150.773 14.2284C153.541 16.6022 156.69 19.289 159.687 18.5823C162.573 17.9038 163.797 17.0437 165.649 15.7421C166.529 15.1237 167.526 14.4228 168.803 13.6775C170.234 12.8418 172.072 13.3248 172.907 14.7559C173.743 16.187 173.26 18.025 171.829 18.8607C170.77 19.4785 169.921 20.0754 169.101 20.6522C167.031 22.1068 165.076 23.4807 161.06 24.4248C160.224 24.6212 159.41 24.7106 158.622 24.7106V24.7106Z" fill="black"/>
<path d="M86.7193 246.527C86.3198 246.527 85.9124 246.446 85.5227 246.276C68.3046 238.774 60.4898 229.335 62.294 218.222C66.5238 192.162 76.2953 153.564 76.9371 151.039L77.5574 147.278C80.9246 126.901 84.4071 105.829 82.7386 90.2683C82.5618 88.6203 83.7536 87.1414 85.4015 86.9645C87.0563 86.7863 88.5294 87.9795 88.7053 89.6284C90.4616 106.001 86.9118 127.483 83.4791 148.257L82.8383 152.141C82.8246 152.228 82.806 152.313 82.7845 152.398C82.683 152.797 72.5276 192.634 68.2177 219.184C66.9097 227.243 73.5386 234.507 87.9199 240.774C89.4399 241.436 90.1344 243.205 89.4721 244.724C88.9807 245.853 87.8779 246.527 86.7193 246.527H86.7193Z" fill="black"/>
<path d="M127.807 255.009C120.167 255.009 112.676 254.32 105.723 252.931C104.098 252.606 103.044 251.026 103.369 249.4C103.693 247.776 105.275 246.72 106.899 247.045C122.123 250.086 140.115 249.58 156.262 245.659C179.21 240.082 203.129 235.241 221.219 242.469C222.757 243.084 223.507 244.83 222.892 246.369C222.278 247.907 220.533 248.657 218.992 248.042C202.548 241.474 179.686 246.144 157.678 251.491C148.06 253.828 137.807 255.009 127.807 255.009H127.807Z" fill="black"/>
<path d="M135.235 109.662C134.935 109.662 134.629 109.617 134.328 109.521C132.747 109.02 131.873 107.333 132.374 105.753C137.645 89.1245 141.335 76.3424 144.3 66.0713C152.029 39.2937 154.921 29.2741 168.059 14.2906C169.151 13.0447 171.047 12.9211 172.293 14.0127C173.54 15.1053 173.664 17.0014 172.572 18.2479C160.316 32.2242 157.733 41.1727 150.066 67.7358C147.091 78.0402 143.39 90.8638 138.095 107.567C137.69 108.845 136.508 109.662 135.235 109.662L135.235 109.662Z" fill="black"/>
<path d="M252.826 204.506C240.108 203.411 239.972 208.092 237.266 217.739C226.49 256.151 248.818 243.261 248.135 247.763C247.424 260.205 282.678 262.18 294.423 248.76C310.459 230.437 294.486 204.338 294.166 201.94C294.166 201.94 265.545 205.601 252.826 204.506Z" fill="white"/>
<path d="M270.87 259.703C270.339 259.703 269.809 259.693 269.273 259.671C259.707 259.276 250.84 255.28 246.684 249.489C240.863 241.381 239.134 237.531 238.053 225.896C237.9 224.246 239.113 222.784 240.764 222.63C242.388 222.473 243.876 223.689 244.029 225.341C245.013 235.933 246.335 238.71 251.56 245.989C254.631 250.269 261.849 253.358 269.521 253.674C275.213 253.912 286.067 252.815 294.554 242.839C301.793 234.33 295.912 218.475 291.618 206.899C290.977 205.171 290.37 203.535 289.844 202.027C289.299 200.462 290.124 198.751 291.689 198.205C293.257 197.659 294.967 198.486 295.512 200.05C296.025 201.525 296.618 203.123 297.245 204.812C302.056 217.779 308.643 235.539 299.126 246.728C292.065 255.028 281.839 259.703 270.87 259.703H270.87Z" fill="black"/>
<path d="M245.132 248.96C239.821 248.96 235.34 247.009 232.393 243.378C228.655 238.772 227.852 231.877 230.13 223.962C231.198 220.252 232.902 216.434 234.142 213.885C234.867 212.394 236.663 211.775 238.153 212.499C239.644 213.225 240.264 215.021 239.538 216.511C237.908 219.861 236.649 223.012 235.898 225.623C234.178 231.596 234.589 236.558 237.053 239.596C239.027 242.028 242.334 243.208 246.339 242.913C247.991 242.8 249.43 244.036 249.551 245.688C249.671 247.341 248.43 248.779 246.777 248.899C246.22 248.94 245.672 248.96 245.132 248.96V248.96Z" fill="black"/>
<path d="M216.758 38.7344C222.65 46.4683 249.141 88.4761 258.723 106.562C268.306 124.648 288.199 169.782 300.484 187.324C311.74 203.397 262.219 219.388 242.302 217.87C235.067 217.318 222.892 198.919 222.34 191.724C221.788 184.529 209.759 146.446 209.236 139.025C208.713 131.605 206.924 113.856 206.924 113.856C205.594 103.408 198.693 92.2608 195.116 86.292C191.539 80.3233 199.15 55.2482 201.231 48.39C203.313 41.5318 192.901 14.5701 199.418 19.4321C204.193 22.9953 216.758 38.7344 216.758 38.7344H216.758Z" fill="#2D8C3C"/>
<path d="M137.085 106.667C136.594 106.667 136.096 106.546 135.636 106.291C134.185 105.489 133.661 103.663 134.463 102.213C142.723 87.2862 155.436 76.8377 165.651 68.4422C171.863 63.3362 177.229 58.9261 178.711 55.6288C178.831 54.3442 175.232 50.172 173.298 47.9302C169.222 43.2056 165.372 38.7429 166.783 34.4852C168.225 30.1309 173.251 27.9173 177.685 25.9646C179.907 24.9858 182.672 23.7682 183.358 22.8289C184.169 21.7192 184.421 20.3887 184.127 18.7627C183.47 15.1176 180.143 10.9347 177.438 9.14952C176.055 8.23664 175.673 6.37525 176.586 4.99202C177.5 3.6088 179.363 3.22733 180.744 4.14021C184.605 6.68833 189.036 12.1631 190.034 17.698C190.617 20.9333 189.985 23.9318 188.205 26.3685C186.568 28.6104 183.428 29.9932 180.104 31.4575C177.141 32.7621 173.084 34.5492 172.48 36.3725C172.374 37.6717 175.931 41.7945 177.843 44.01C182.126 48.9754 186.172 53.6658 184.185 58.0885C182.127 62.6699 176.538 67.2636 169.461 73.0793C159.641 81.1501 147.419 91.1951 139.714 105.119C139.166 106.108 138.142 106.667 137.085 106.667L137.085 106.667Z" fill="black"/>
<path d="M275.363 145.407C274.324 145.407 273.314 144.866 272.759 143.901C267.007 133.9 262.348 125.141 257.841 116.67C256.093 113.384 254.379 110.164 252.653 106.968C251.062 104.022 249.274 100.568 247.204 96.5691C236.203 75.3108 219.576 43.185 199.78 24.0318C198.589 22.8791 198.558 20.9791 199.71 19.7884C200.863 18.5961 202.764 18.5663 203.953 19.718C224.455 39.554 241.353 72.2049 252.535 93.8105C254.591 97.7844 256.368 101.217 257.934 104.116C259.666 107.323 261.386 110.553 263.14 113.852C267.623 122.279 272.259 130.993 277.962 140.909C278.788 142.346 278.293 144.18 276.857 145.006C276.385 145.278 275.87 145.407 275.363 145.407H275.363Z" fill="black"/>
<path d="M244.11 220.055C242.324 220.055 240.89 219.961 239.905 219.784C232.034 218.377 228.787 206.794 226.177 197.488C225.591 195.394 225.036 193.417 224.497 191.811C224.229 191.009 223.846 189.776 223.347 188.176C219.328 175.241 208.648 140.883 191.043 115.094C190.108 113.725 190.461 111.858 191.829 110.924C193.199 109.987 195.064 110.342 195.999 111.71C214.112 138.242 224.986 173.225 229.079 186.395C229.559 187.939 229.928 189.129 230.187 189.902C230.774 191.651 231.349 193.7 231.956 195.868C233.884 202.742 236.797 213.132 240.962 213.876C248.322 215.191 283.559 210.6 293.546 197.669C296.502 193.842 296.862 189.646 294.644 184.841C292.16 179.459 282.479 160.859 279.841 156.782C278.94 155.39 279.339 153.532 280.73 152.632C282.121 151.73 283.978 152.129 284.879 153.521C287.854 158.118 297.751 177.25 300.093 182.326C303.247 189.159 302.625 195.733 298.296 201.338C287.555 215.244 256.891 220.055 244.11 220.055Z" fill="black"/>
<path d="M134.663 108.931C133.446 108.931 132.3 108.184 131.851 106.976C121.302 78.6419 121.473 55.1744 132.358 37.2257C132.855 36.4061 133.481 35.5562 134.143 34.6561C135.051 33.4247 137.175 30.5401 136.988 29.6228C136.801 29.2677 136.171 28.2713 135.562 27.3077C132.416 22.3365 131.092 19.9632 131.03 18.1321C130.974 16.4753 132.271 15.0872 133.928 15.0311C135.503 14.9578 136.875 16.1833 137.017 17.7555C137.334 18.8833 139.64 22.5279 140.634 24.0987C141.437 25.3681 142.017 26.2859 142.336 26.9072C144.379 30.8791 141.256 35.1191 138.976 38.2152C138.396 39.0036 137.848 39.7484 137.49 40.3379C127.604 56.6387 127.6 78.3542 137.476 104.882C138.054 106.435 137.264 108.163 135.71 108.741C135.366 108.87 135.011 108.931 134.663 108.931Z" fill="black"/>
<path d="M154.963 44.8077C154.771 44.8077 154.577 44.7891 154.38 44.751C152.755 44.4311 151.695 42.8535 152.015 41.2275C152.363 39.4545 152.594 37.0309 150.904 30.675C150.703 29.9224 150.804 29.1213 151.183 28.4414L154.456 22.5779C155.265 21.1307 157.092 20.6115 158.539 21.4198C159.987 22.2277 160.504 24.0554 159.697 25.5026L157.009 30.318C158.515 36.3657 158.462 39.5493 157.904 42.3851C157.623 43.8157 156.368 44.8077 154.963 44.8077H154.963Z" fill="black"/>
<path d="M50.1814 220.52C45.2903 220.52 39.9948 217.461 35.9359 214.416C34.6094 213.422 34.3407 211.541 35.3361 210.215C36.3306 208.888 38.2139 208.622 39.5366 209.615C45.047 213.748 49.9108 215.424 52.2299 213.988C53.3005 213.325 53.8553 212.595 53.8778 211.819C53.914 210.543 52.6812 208.286 49.1088 205.78C47.7529 204.828 47.4247 202.956 48.3762 201.6C49.3276 200.244 51.1983 199.913 52.5571 200.867C57.3857 204.256 59.9861 208.207 59.8767 211.991C59.7956 214.829 58.2014 217.35 55.389 219.091C53.7655 220.096 52.0013 220.52 50.1814 220.52V220.52Z" fill="black"/>
<path d="M195.121 89.2935C195.012 89.2935 194.902 89.2872 194.79 89.275C193.143 89.0947 191.953 87.6124 192.134 85.9649C194.038 68.6057 199.631 57.4803 208.757 52.8989C210.236 52.1574 212.042 52.7533 212.785 54.2342C213.529 55.7156 212.931 57.5194 211.45 58.2628C204.259 61.8722 199.768 71.4132 198.101 86.6194C197.932 88.1555 196.632 89.2935 195.121 89.2935Z" fill="black"/>
<path d="M132.205 145.532C132.054 145.532 131.901 145.521 131.747 145.497C126.97 144.766 123.948 139.491 124.865 133.487C125.785 127.483 130.245 123.347 135.024 124.083C137.454 124.454 139.568 126.085 140.825 128.557C141.932 130.734 142.316 133.411 141.905 136.094C141.654 137.732 140.119 138.851 138.484 138.606C136.846 138.355 135.722 136.823 135.972 135.185C136.192 133.754 136.01 132.33 135.475 131.277C135.3 130.934 134.817 130.123 134.116 130.015C133.07 129.852 131.245 131.479 130.799 134.394C130.353 137.308 131.601 139.403 132.656 139.564C134.294 139.815 135.418 141.346 135.168 142.984C134.94 144.469 133.662 145.532 132.205 145.532L132.205 145.532Z" fill="black"/>
<path d="M129.191 195.061C129.039 195.061 128.887 195.05 128.733 195.026C123.956 194.296 120.933 189.02 121.851 183.016C122.771 177.012 127.226 172.877 132.009 173.612C136.786 174.343 139.808 179.618 138.891 185.622C138.639 187.261 137.099 188.385 135.471 188.135C133.833 187.885 132.707 186.354 132.957 184.716C133.403 181.801 132.155 179.706 131.1 179.545C130.071 179.391 128.23 181.006 127.784 183.924C127.339 186.838 128.586 188.932 129.641 189.094C131.279 189.344 132.404 190.876 132.153 192.514C131.926 193.998 130.647 195.061 129.191 195.061L129.191 195.061Z" fill="black"/>
</svg>
