<svg width="389" height="400" viewBox="0 0 389 400" fill="none" xmlns="http://www.w3.org/2000/svg">
<path d="M386 354.702C386.626 357.374 383.969 363.413 381.296 364.039L247.972 395.529C244.919 398.29 220.603 396.02 220.227 391.943C213.862 371.647 206.049 330.081 197.207 285.795C197.073 285.126 196.939 284.456 196.805 283.785C196.179 281.112 210.19 272.028 212.862 271.401L340.304 245.414C342.976 244.787 349.932 245.88 350.558 248.552C367.894 286.602 386 329.413 386 354.702Z" fill="#82BE28"/>
<path d="M231.972 399.644C226.61 399.644 219.777 396.841 216.632 388.982C213.959 383.157 198.998 329.256 194.431 285.45C194.304 284.247 194.221 283.451 200.209 277.077C203.951 273.094 206.687 270.69 208.343 269.93C209.853 269.24 211.633 269.901 212.323 271.408C213.015 272.915 212.353 274.697 210.846 275.389C209.146 276.207 202.427 283.293 200.509 285.825C205.076 328.273 219.761 381.701 222.087 386.473C222.121 386.543 222.152 386.614 222.181 386.686C224.726 393.138 230.318 393.639 231.972 393.639C233.63 393.639 234.974 394.983 234.974 396.641C234.974 398.3 233.63 399.644 231.972 399.644H231.972Z" fill="black"/>
<path d="M246.84 398.664C243.219 398.665 239.936 396.181 239.076 392.511C239.068 392.476 239.06 392.443 239.054 392.409C232.659 360.116 218.983 308.469 206.234 276.361C206.18 276.224 206.136 276.083 206.102 275.939C204.761 270.217 209.957 268.999 212.177 268.479L338.041 242.812C341.53 241.993 348.475 242.959 352.06 247.681C357.66 254.626 383.002 317.861 386.643 334.242C387.002 335.861 385.982 337.465 384.363 337.824C382.751 338.182 381.14 337.164 380.781 335.545C376.998 318.516 351.25 256.043 347.58 251.654C347.471 251.549 347.372 251.436 347.281 251.316C345.404 248.842 341.047 248.275 339.326 248.677L213.462 274.344C213.201 274.406 212.533 274.563 212.044 274.723C224.85 307.181 238.518 358.814 244.932 391.179C245.195 392.213 246.245 392.851 247.287 392.607L380.606 361.118C380.656 361.106 380.707 361.096 380.757 361.087C381.386 360.972 381.781 360.708 382.119 360.178C383.641 357.791 382.852 352.103 382.231 349.722C381.813 348.118 382.774 346.478 384.379 346.06C385.989 345.639 387.623 346.604 388.042 348.208C388.304 349.214 390.509 358.188 387.181 363.406C385.963 365.316 384.146 366.55 381.918 366.978L248.662 398.453C248.053 398.595 247.441 398.664 246.84 398.664ZM347.607 251.681L347.645 251.716L347.607 251.681Z" fill="black"/>
<path d="M229.143 303.515C227.746 303.515 226.495 302.535 226.204 301.113C225.873 299.488 226.922 297.902 228.546 297.571L349.068 272.995C350.697 272.66 352.278 273.713 352.609 275.337C352.941 276.962 351.892 278.547 350.268 278.879L229.746 303.454C229.544 303.496 229.342 303.515 229.143 303.515Z" fill="black"/>
<path d="M248.06 281.443C245.669 281.443 243.468 279.872 242.773 277.459C241.407 272.708 235.163 248.129 246.447 230.694C251.701 222.577 259.714 217.698 270.266 216.19C294.584 212.721 311.452 225.94 320.383 255.499L321.943 260.662C322.822 263.572 321.176 266.643 318.266 267.523C315.355 268.403 312.283 266.755 311.406 263.846L309.846 258.683C302.528 234.467 290.457 224.424 271.822 227.088C264.461 228.14 259.184 231.276 255.689 236.676C249.381 246.423 249.97 262.654 253.353 274.415C254.193 277.337 252.506 280.387 249.585 281.227C249.077 281.373 248.565 281.443 248.06 281.443Z" fill="black"/>
<path d="M116.801 36.8809C104.238 38.0211 95.0801 68.7582 88.4285 91.0066C81.7769 113.255 61.2023 185.002 52.4216 191.977C43.2216 199.285 39.565 197.369 35.2367 198.012C31.375 198.586 27.8829 209.663 26.7077 217.071C24.7595 229.35 44.4871 242.105 50.9237 241.525C55.8867 241.077 75.7873 230.623 78.2692 227.349C80.7511 224.074 83.8651 219.15 84.9026 213.623C85.7698 209.003 87.1147 197.261 88.1609 191.126C90.3515 178.281 96.4682 162.696 109.618 132.36C109.618 132.36 129.363 35.7408 116.801 36.8809V36.8809Z" fill="white"/>
<path d="M52.4198 194.98C51.6878 194.98 50.9548 194.714 50.3763 194.176C49.1624 193.047 49.0931 191.147 50.2218 189.933C57.4784 182.13 82.4828 100.893 91.8953 70.3102L93.0905 66.4288C93.5782 64.8441 95.264 63.9587 96.8434 64.4434C98.4286 64.9316 99.3169 66.612 98.8293 68.1967L97.635 72.0767C79.5489 130.836 61.8196 186.279 54.6197 194.022C54.0285 194.658 53.2251 194.98 52.4198 194.98L52.4198 194.98Z" fill="black"/>
<path d="M81.0294 225.922C80.6014 225.922 80.1665 225.83 79.754 225.636C78.2529 224.93 77.6089 223.142 78.3145 221.641C81.0109 215.91 81.7517 210.116 82.469 204.513C82.9059 201.103 83.3564 197.578 84.2458 194.186C88.5723 177.687 92.3662 164.66 105.178 135.103C105.837 133.583 107.603 132.883 109.127 133.542C110.648 134.202 111.347 135.97 110.688 137.491C98.0141 166.729 94.4381 178.99 90.0549 195.709C89.2633 198.725 88.8567 201.907 88.4247 205.275C87.6487 211.339 86.8464 217.61 83.7483 224.197C83.2372 225.284 82.1563 225.922 81.0294 225.922V225.922Z" fill="black"/>
<path d="M52.4868 243.544C42.2397 243.544 33.1283 238.793 28.3043 230.783C21.3361 219.217 22.3065 208.055 31.0359 199.354C35.3018 195.102 40.7288 193.406 45.0895 192.043C47.0979 191.415 49.5979 190.634 50.1784 189.982C51.2769 188.742 53.1748 188.631 54.417 189.734C55.6552 190.836 55.7666 192.733 54.6642 193.972C52.9784 195.869 50.153 196.752 46.881 197.774C42.9522 199.002 38.4986 200.394 35.2754 203.607C28.5037 210.356 27.8879 218.457 33.4469 227.684C37.49 234.397 45.5782 238.141 54.5802 237.46C63.2587 236.799 74.4088 231.535 79.6755 218.736C80.3069 217.203 82.0611 216.471 83.5945 217.102C85.1279 217.734 85.8599 219.488 85.2286 221.021C79.954 233.839 68.3847 242.432 55.0356 243.447C54.1805 243.512 53.3283 243.544 52.4868 243.544Z" fill="black"/>
<path d="M125.403 17.8095C99.0642 28.6242 99.2707 48.0116 90.6271 55.3172C81.9835 62.6229 62.7016 133.687 27.5615 165.232C19.4055 172.553 26.9865 188.652 30.6855 190.968C40.7781 197.286 52.0481 204.446 68.7849 209.73C71.6007 210.619 87.6995 212.48 93.386 195.118C99.0725 177.757 140.674 53.206 143.433 41.8933C133.486 23.8808 137.41 29.3629 125.403 17.8095V17.8095Z" fill="#2D8C3C"/>
<path d="M66.6914 209.746C50.7193 209.746 33.9301 198.849 28.4904 193.016C19.7884 183.684 18.4916 172.057 25.1861 163.396C54.8709 124.997 80.4949 71.5129 87.8638 54.1447C88.5128 52.6172 90.2749 51.9086 91.8004 52.5536C93.327 53.2011 94.0394 54.9637 93.3915 56.4902C85.9385 74.0569 60.0096 128.167 29.9368 167.068C24.112 174.604 27.6391 183.298 32.8824 188.921C37.55 193.927 52.7374 203.741 66.6914 203.741C68.3499 203.741 69.6937 205.086 69.6937 206.744C69.6937 208.402 68.3499 209.746 66.6914 209.746L66.6914 209.746Z" fill="black"/>
<path d="M219.941 155.201C214.97 139.015 210.878 127.868 207.4 108.794C202.061 79.5177 202.368 73.0278 206.87 67.3502C211.087 62.0305 216.457 61.4561 216.467 55.5036C216.474 51.5296 202.995 16.7967 179.059 6.17046C178.091 6.53275 177.18 7.15443 176.317 7.98822C170.684 3.78465 163.213 0.656715 153.227 0.522623C110.503 -0.0503045 85.918 90.925 85.9463 92.2483C86.782 131.354 67.3566 208.072 64.697 220.027C62.0376 231.981 83.6515 244.082 98.4021 247.55C135.091 256.177 156.438 249.648 158.931 249.569C180.548 233.787 227.222 256.31 236.855 235.864C242.973 222.878 232.084 194.739 219.941 155.201ZM168.924 22.9019C168.886 23.0276 168.847 23.152 168.808 23.2783C168.704 23.1676 168.59 23.0686 168.463 22.9882C168.286 22.877 168.472 22.855 168.924 22.9019Z" fill="#2D8C3C"/>
<path d="M132.62 5.67049L127.165 15.1167L129.893 18.5591L143.433 13.3744L155.532 21.8368L168.923 16.0549L176.316 7.98841C162.261 -1.90492 148.028 -2.52841 132.62 5.67048V5.67049Z" fill="white"/>
<path d="M135.352 21.6684L140.824 29.5353L131.247 45.6111L126.63 68.0146L134.497 104.271L146.126 70.7509L158.439 23.7207L143.39 13.9726L135.352 21.6684Z" fill="white"/>
<path d="M119.862 96.2944C118.765 96.2944 117.706 95.6899 117.178 94.6423C99.8439 60.2307 101.784 51.756 105.116 48.6535C106.824 46.0021 110.09 43.3507 113.537 40.5517C115.939 38.6014 119.931 35.3612 120.423 34.0032C120.318 33.0459 119.233 31.4563 118.271 30.0475C116.124 26.8996 113.182 22.5878 115.859 17.8703C117.984 14.1287 125.521 6.96645 126.374 6.16213C127.579 5.02405 129.48 5.08073 130.617 6.28527C131.756 7.49127 131.7 9.39164 130.494 10.5297C127.527 13.3302 122.347 18.6042 121.082 20.834C120.367 22.0927 121.131 23.5836 123.232 26.6631C124.771 28.9202 126.364 31.2545 126.434 33.9641C126.53 37.737 122.467 41.0364 117.322 45.2134C114.412 47.5761 111.113 50.2544 110.049 52.0937C109.761 52.5921 109.406 52.8838 109.236 53.0241C109.186 53.0783 105.736 58.582 122.542 91.941C123.288 93.4216 122.691 95.2267 121.211 95.9729C120.778 96.1913 120.317 96.2944 119.862 96.2944V96.2944Z" fill="black"/>
<path d="M158.715 25.242C153.87 25.2425 149.938 21.8718 146.954 19.3142C145.925 18.4321 144.524 17.2301 143.946 17.0214C142.424 16.8787 140.661 18.031 138.81 19.2477C138.122 19.7002 137.441 20.1459 136.763 20.5397C133.32 22.5393 129.711 22.8462 126.866 21.3743C124.586 20.1972 123.144 18.0305 122.907 15.4308C122.417 10.0444 127.017 4.88568 129.323 3.23109C130.67 2.26454 132.547 2.57336 133.512 3.9201C134.479 5.26683 134.171 7.14277 132.823 8.10982C131.102 9.34465 128.691 12.7349 128.887 14.8865C128.936 15.4328 129.177 15.81 129.622 16.0397C130.373 16.4277 131.85 16.4497 133.747 15.3473C134.332 15.0077 134.919 14.6202 135.513 14.2297C137.952 12.6264 140.98 10.6308 144.703 11.0637C146.846 11.312 148.706 12.9079 150.862 14.755C153.632 17.1294 156.782 19.8204 159.78 19.1109C162.668 18.4322 163.893 17.5716 165.746 16.2694C166.626 15.6507 167.623 14.9495 168.901 14.2038C170.332 13.3677 172.17 13.851 173.007 15.2828C173.843 16.7145 173.36 18.5533 171.928 19.3894C170.869 20.0076 170.02 20.6047 169.199 21.1818C167.128 22.637 165.172 24.0116 161.154 24.9562C160.318 25.1526 159.504 25.242 158.715 25.242Z" fill="black"/>
<path d="M86.7791 247.161C86.3794 247.161 85.9719 247.08 85.5819 246.909C68.3559 239.404 60.5374 229.96 62.3425 218.843C66.5752 192.77 76.3503 154.155 76.9924 151.628L77.613 147.866C80.9817 127.479 84.4658 106.397 82.7966 90.8294C82.6197 89.1807 83.812 87.701 85.4607 87.5241C87.1114 87.3443 88.5901 88.54 88.766 90.1893C90.5232 106.57 86.9717 128.061 83.5374 148.845L82.8963 152.731C82.8826 152.818 82.864 152.903 82.8425 152.988C82.7409 153.387 72.5818 193.243 68.2689 219.805C66.9603 227.868 73.5923 235.135 87.9802 241.405C89.5009 242.067 90.1958 243.837 89.5332 245.357C89.0416 246.486 87.9382 247.161 86.7791 247.161H86.7791Z" fill="black"/>
<path d="M127.886 255.647C120.242 255.647 112.748 254.958 105.792 253.568C104.166 253.243 103.111 251.662 103.437 250.036C103.76 248.411 105.34 247.356 106.969 247.68C122.199 250.723 140.2 250.217 156.354 246.293C179.315 240.715 203.248 235.873 221.342 243.102C222.881 243.717 223.631 245.464 223.016 247.003C222.401 248.543 220.654 249.292 219.114 248.678C202.663 242.104 179.79 246.779 157.771 252.128C148.149 254.466 137.891 255.647 127.886 255.647L127.886 255.647Z" fill="black"/>
<path d="M135.32 110.233C135.019 110.233 134.713 110.187 134.412 110.092C132.83 109.59 131.956 107.903 132.457 106.322C137.731 89.6859 141.422 76.8978 144.388 66.6219C152.122 39.8319 155.014 29.8077 168.158 14.8172C169.251 13.5712 171.148 13.4466 172.395 14.5392C173.642 15.6323 173.766 17.5293 172.673 18.7763C160.412 32.7592 157.828 41.7118 150.157 68.2872C147.181 78.5964 143.478 91.426 138.18 108.137C137.776 109.416 136.593 110.233 135.32 110.233L135.32 110.233Z" fill="black"/>
<path d="M252.965 205.121C240.241 204.026 240.105 208.708 237.398 218.36C226.616 256.79 248.955 243.894 248.272 248.398C247.561 260.846 282.831 262.822 294.581 249.396C310.625 231.064 294.644 204.953 294.324 202.554C294.324 202.554 265.689 206.216 252.965 205.121Z" fill="white"/>
<path d="M271.016 260.344C270.485 260.344 269.952 260.333 269.419 260.311C259.847 259.916 250.976 255.918 246.818 250.125C240.995 242.013 239.265 238.161 238.183 226.521C238.03 224.87 239.244 223.407 240.895 223.254C242.525 223.096 244.008 224.313 244.162 225.966C245.146 236.562 246.469 239.341 251.696 246.624C254.769 250.906 261.99 253.995 269.666 254.311C275.366 254.552 286.221 253.452 294.711 243.471C301.953 234.958 296.069 219.096 291.773 207.514C291.132 205.785 290.525 204.149 289.998 202.64C289.453 201.074 290.279 199.362 291.844 198.817C293.417 198.271 295.123 199.098 295.668 200.663C296.182 202.138 296.776 203.736 297.402 205.426C302.215 218.4 308.806 236.168 299.284 247.362C292.219 255.667 281.989 260.344 271.016 260.344Z" fill="black"/>
<path d="M245.265 249.596C239.952 249.596 235.469 247.644 232.521 244.011C228.782 239.403 227.977 232.505 230.256 224.587C231.325 220.875 233.029 217.055 234.27 214.505C234.995 213.013 236.794 212.393 238.283 213.118C239.774 213.844 240.395 215.641 239.669 217.132C238.038 220.484 236.778 223.636 236.026 226.248C234.306 232.224 234.718 237.189 237.184 240.228C239.159 242.661 242.459 243.837 246.473 243.546C248.133 243.426 249.566 244.669 249.686 246.322C249.806 247.976 248.564 249.415 246.911 249.535C246.354 249.576 245.805 249.596 245.265 249.596Z" fill="black"/>
<path d="M216.88 39.2723C222.775 47.0098 249.279 89.0371 258.865 107.131C268.452 125.225 288.355 170.381 300.645 187.931C311.906 204.011 262.362 220.01 242.436 218.491C235.197 217.939 223.017 199.531 222.465 192.333C221.912 185.134 209.878 147.034 209.355 139.61C208.831 132.186 207.041 114.429 207.041 114.429C205.711 103.976 198.806 92.8236 195.228 86.852C191.649 80.8805 199.264 55.7938 201.346 48.9324C203.428 42.071 193.012 15.0968 199.532 19.9611C204.309 23.5259 216.88 39.2723 216.88 39.2723Z" fill="#2D8C3C"/>
<path d="M137.169 107.237C136.677 107.237 136.179 107.116 135.717 106.861C134.267 106.058 133.742 104.231 134.545 102.78C142.809 87.8476 155.527 77.3943 165.747 68.9953C171.963 63.8865 177.331 59.4744 178.814 56.175C178.934 54.8894 175.332 50.7148 173.398 48.4719C169.32 43.7456 165.47 39.2817 166.88 35.0221C168.323 30.6653 173.352 28.4507 177.788 26.4971C180.011 25.5178 182.777 24.2996 183.463 23.3604C184.274 22.2497 184.526 20.9186 184.232 19.2914C183.574 15.6446 180.246 11.4602 177.54 9.67467C176.156 8.76186 175.774 6.8996 176.688 5.51525C177.601 4.13138 179.464 3.74974 180.847 4.66304C184.71 7.21137 189.143 12.6887 190.142 18.2256C190.725 21.463 190.093 24.4633 188.312 26.9017C186.674 29.1446 183.533 30.528 180.207 31.9925C177.243 33.2977 173.184 35.0857 172.579 36.9098C172.474 38.2091 176.033 42.3339 177.945 44.5499C182.23 49.5181 186.279 54.2111 184.291 58.6363C182.231 63.2194 176.639 67.8152 169.56 73.6341C159.735 81.7091 147.508 91.7583 139.799 105.688C139.25 106.678 138.225 107.237 137.169 107.237V107.237Z" fill="black"/>
<path d="M275.511 145.994C274.471 145.994 273.46 145.453 272.905 144.488C267.148 134.478 262.485 125.712 257.976 117.235C256.227 113.95 254.516 110.732 252.79 107.538C251.198 104.59 249.41 101.135 247.339 97.1337C236.332 75.8655 219.698 43.7248 199.892 24.5627C198.701 23.4095 198.67 21.5086 199.822 20.3173C200.976 19.1245 202.877 19.0952 204.068 20.2469C224.578 40.0922 241.485 72.7582 252.672 94.3738C254.729 98.3495 256.507 101.783 258.074 104.684C259.804 107.889 261.523 111.119 263.277 114.415C267.764 122.849 272.403 131.57 278.11 141.494C278.937 142.931 278.442 144.767 277.005 145.594C276.533 145.865 276.018 145.994 275.511 145.994Z" fill="black"/>
<path d="M244.244 220.677C242.457 220.677 241.021 220.583 240.036 220.407C232.162 218.999 228.914 207.413 226.304 198.104C225.716 196.008 225.161 194.028 224.622 192.421C224.352 191.618 223.969 190.385 223.471 188.784C219.449 175.843 208.764 141.469 191.151 115.668C190.216 114.299 190.569 112.431 191.938 111.496C193.308 110.56 195.176 110.913 196.11 112.282C214.231 138.827 225.11 173.826 229.205 187.002C229.685 188.546 230.055 189.737 230.314 190.511C230.902 192.261 231.477 194.312 232.086 196.483C234.014 203.36 236.927 213.751 241.093 214.496C248.455 215.811 283.71 211.217 293.702 198.282C296.659 194.453 297.019 190.255 294.8 185.448C292.315 180.063 282.63 161.454 279.99 157.375C279.089 155.983 279.488 154.124 280.88 153.223C282.271 152.322 284.129 152.721 285.031 154.113C288.007 158.711 297.908 177.853 300.252 182.932C303.408 189.767 302.785 196.345 298.454 201.952C287.707 215.865 257.03 220.677 244.244 220.677V220.677Z" fill="black"/>
<path d="M134.745 109.502C133.527 109.502 132.381 108.754 131.932 107.546C121.378 79.1986 121.549 55.7203 132.439 37.7637C132.936 36.9437 133.563 36.093 134.226 35.1924C135.133 33.96 137.258 31.0745 137.071 30.1568C136.885 29.8016 136.254 28.8042 135.643 27.8401C132.497 22.8671 131.172 20.4927 131.111 18.6612C131.054 17.0037 132.352 15.6149 134.009 15.5587C135.603 15.5016 136.958 16.7105 137.101 18.2845C137.417 19.4128 139.725 23.0586 140.719 24.6296C141.522 25.9001 142.102 26.8178 142.422 27.4399C144.466 31.4136 141.342 35.6556 139.061 38.7527C138.48 39.5419 137.931 40.2871 137.574 40.8769C127.683 57.1852 127.678 78.9108 137.559 105.451C138.137 107.004 137.347 108.733 135.793 109.312C135.448 109.44 135.093 109.502 134.745 109.502L134.745 109.502Z" fill="black"/>
<path d="M155.053 45.3485C154.862 45.3485 154.667 45.3299 154.471 45.2918C152.844 44.9717 151.784 43.3934 152.105 41.7667C152.452 39.9928 152.683 37.5681 150.993 31.2093C150.793 30.4568 150.894 29.6558 151.273 28.9756L154.546 23.1089C155.354 21.661 157.18 21.1406 158.631 21.9498C160.078 22.7575 160.597 24.5861 159.79 26.0339L157.102 30.8526C158.608 36.9036 158.554 40.0876 157.996 42.9248C157.714 44.356 156.459 45.3485 155.053 45.3485V45.3485Z" fill="black"/>
<path d="M50.2254 221.143C45.332 221.143 40.0341 218.083 35.9724 215.036C34.6452 214.041 34.3764 212.159 35.3713 210.833C36.3682 209.505 38.2514 209.239 39.5747 210.233C45.0887 214.368 49.9547 216.043 52.2739 214.608C53.346 213.944 53.9001 213.214 53.9226 212.438C53.9597 211.162 52.7254 208.904 49.1514 206.396C47.7949 205.444 47.4665 203.571 48.4184 202.214C49.3713 200.857 51.2418 200.527 52.6013 201.481C57.4331 204.872 60.0337 208.824 59.9252 212.611C59.8431 215.449 58.2481 217.972 55.4345 219.713C53.8112 220.719 52.0452 221.143 50.2254 221.143V221.143Z" fill="black"/>
<path d="M195.232 89.8548C195.122 89.8548 195.012 89.8484 194.9 89.8362C193.253 89.6559 192.062 88.1729 192.243 86.5246C194.148 69.1574 199.743 58.0268 208.874 53.4432C210.354 52.7019 212.16 53.2971 212.903 54.7792C213.648 56.2613 213.05 58.0659 211.567 58.8096C204.373 62.4208 199.881 71.9661 198.212 87.1794C198.043 88.7162 196.742 89.8548 195.232 89.8548Z" fill="black"/>
<path d="M132.287 146.12C132.136 146.12 131.984 146.109 131.829 146.085C129.399 145.713 127.284 144.081 126.026 141.609C124.919 139.43 124.535 136.753 124.945 134.068C125.355 131.385 126.522 128.944 128.231 127.197C130.171 125.213 132.674 124.287 135.108 124.661C137.539 125.033 139.653 126.664 140.911 129.137C142.019 131.315 142.403 133.993 141.992 136.677C141.74 138.316 140.209 139.44 138.57 139.19C136.931 138.94 135.806 137.407 136.056 135.768C136.276 134.337 136.094 132.912 135.559 131.859C135.384 131.515 134.901 130.703 134.199 130.596C133.509 130.491 132.794 131.119 132.524 131.394C131.699 132.239 131.1 133.545 130.881 134.976C130.661 136.409 130.843 137.834 131.379 138.887C131.553 139.231 132.035 140.042 132.738 140.15C134.377 140.4 135.502 141.932 135.252 143.571C135.024 145.056 133.745 146.12 132.287 146.12Z" fill="black"/>
<path d="M129.272 195.673C129.121 195.673 128.968 195.661 128.814 195.637C124.035 194.906 121.011 189.628 121.929 183.622C122.849 177.615 127.313 173.479 132.091 174.213C136.871 174.944 139.895 180.222 138.977 186.229C138.726 187.868 137.179 188.997 135.555 188.743C133.916 188.493 132.79 186.961 133.041 185.322C133.486 182.406 132.238 180.31 131.183 180.149C130.123 179.985 128.311 181.614 127.865 184.53C127.419 187.445 128.667 189.541 129.723 189.702C131.362 189.953 132.487 191.485 132.236 193.124C132.009 194.609 130.729 195.673 129.272 195.673V195.673Z" fill="black"/>
</svg>
