<svg width="308" height="254" viewBox="0 0 308 254" fill="none" xmlns="http://www.w3.org/2000/svg">
<path d="M212.847 238.972C212.555 238.972 212.258 238.929 211.965 238.839C210.379 238.352 209.488 236.672 209.975 235.086C217.435 210.802 207.689 167.246 195.207 154.899C194.027 153.733 194.017 151.831 195.184 150.652C196.351 149.473 198.254 149.462 199.431 150.629C206.277 157.4 212.439 171.799 215.916 189.148C219.544 207.244 219.471 224.63 215.718 236.85C215.321 238.142 214.132 238.972 212.847 238.972Z" fill="black"/>
<path d="M111.936 27.8837C99.3561 29.0272 90.186 59.8429 83.5257 82.1482C76.8654 104.454 56.2641 176.384 47.4712 183.377C38.2583 190.705 24.1697 193.548 19.8352 194.193C15.9681 194.768 6.26703 195.679 3.6936 202.745C1.12016 209.81 6.13452 216.214 12.9022 218.339C17.6633 219.834 30.7994 224.085 38.2874 217.729C45.7753 211.373 52.1566 207.341 55.6252 211.275C59.2805 215.42 56.8156 220.868 63.1955 225.022C69.5754 229.176 74.1715 223.303 76.6568 220.02C79.1421 216.737 78.9605 210.619 79.9992 205.078C80.8675 200.446 82.2139 188.673 83.2614 182.523C85.4546 169.645 91.5795 154.02 104.747 123.606C104.747 123.606 124.516 26.7401 111.936 27.8837V27.8837Z" fill="white"/>
<path d="M67.6904 229.337C65.607 229.337 63.5382 228.748 61.6318 227.586C57.8149 225.258 56.6475 221.463 55.71 218.414C55.1028 216.438 54.5289 214.572 53.3733 213.262C52.3595 212.111 50.6632 210.185 41.603 217.396C33.7699 223.631 23.8093 224.912 12.0038 221.205C7.26892 219.718 3.41491 216.56 1.43023 212.541C-0.264087 209.11 -0.456697 205.367 0.871969 201.717C3.89984 193.406 13.837 192.007 18.6129 191.334L19.3941 191.222C19.7099 191.175 20.0824 191.123 20.5057 191.065C25.442 190.38 38.5576 188.562 45.2713 181.333C52.5384 173.51 77.5738 92.0705 86.9986 61.412L88.1982 57.5105C88.6861 55.9252 90.3628 55.0346 91.9515 55.5234C93.5373 56.0108 94.427 57.6914 93.9391 59.2772L92.7405 63.1772C74.6329 122.081 56.8822 177.66 49.6728 185.422C41.5013 194.218 26.8469 196.25 21.3299 197.015C20.93 197.07 20.5771 197.119 20.2779 197.164L19.4498 197.282C15.5567 197.83 8.30915 198.851 6.51706 203.773C5.75154 205.874 5.85224 207.929 6.81623 209.881C8.05984 212.4 10.6712 214.491 13.8027 215.474C23.5922 218.547 31.6874 217.613 37.8624 212.696C42.2532 209.202 51.3886 201.93 57.8784 209.288C59.8895 211.569 60.7196 214.268 61.4518 216.649C62.3415 219.542 62.977 221.37 64.7593 222.458C66.307 223.4 67.9759 223.579 69.5822 222.977C71.8934 222.113 73.8566 219.762 74.8333 216.686C76.5091 211.415 77.0008 205.337 77.476 199.461C77.8808 194.454 78.264 189.725 79.3453 185.594C83.6784 169.049 87.4786 155.987 100.305 126.36C100.964 124.838 102.735 124.138 104.254 124.797C105.776 125.456 106.476 127.224 105.817 128.747C93.1296 158.054 89.5474 170.349 85.1566 187.115C84.2083 190.736 83.8466 195.209 83.4633 199.945C82.9608 206.157 82.4416 212.582 80.5586 218.506C79.0041 223.396 75.77 227.077 71.6852 228.604C70.3741 229.094 69.0289 229.337 67.6904 229.337H67.6904Z" fill="black"/>
<path d="M127.536 11.0447C101.16 21.887 99.661 27.9982 91.005 35.3225C82.3491 42.6467 63.0397 113.892 27.8495 145.517C19.6818 152.857 27.2736 168.997 30.9779 171.319C41.085 177.653 52.3711 184.831 69.1317 190.128C71.9515 191.02 88.0733 192.885 93.7679 175.48C99.4625 158.074 141.123 33.2059 143.887 21.8643C133.925 3.80594 133.258 9.71571 127.536 11.0447L127.536 11.0447Z" fill="#2D8C3C"/>
<path d="M67.0364 190.138C51.0425 190.138 34.2294 179.213 28.7818 173.365C20.6641 164.65 17.033 151.533 25.7979 143.324C48.2972 122.253 61.8694 90.6774 72.7754 65.3056C78.5456 51.8811 83.5288 40.2873 88.604 33.5203C89.6002 32.1926 91.4852 31.9257 92.809 32.9195C94.1357 33.9148 94.4055 35.7973 93.4103 37.124C88.7643 43.3181 83.9121 54.6069 78.2934 67.678C67.1674 93.5635 53.3206 125.779 29.9042 147.708C25.5799 151.758 24.7596 160.234 33.1775 169.271C37.8527 174.291 53.0624 184.131 67.0364 184.131C68.6955 184.131 70.0398 185.475 70.0398 187.134C70.0398 188.793 68.6955 190.138 67.0364 190.138L67.0364 190.138Z" fill="black"/>
<path d="M222.848 47.5749C221.683 47.5749 220.575 46.8924 220.086 45.7539C208.492 18.706 201.907 14.1544 192.439 9.87264C190.928 9.18924 190.257 7.40987 190.94 5.89838C191.624 4.38737 193.402 3.71522 194.915 4.3996C205.39 9.13693 213.185 14.41 225.608 43.387C226.261 44.9117 225.555 46.6773 224.03 47.3309C223.645 47.4961 223.243 47.5748 222.848 47.5748L222.848 47.5749Z" fill="black"/>
<path d="M100.425 31.3595C99.44 31.3595 98.475 30.8755 97.9001 29.9873C96.9987 28.5946 97.3976 26.7351 98.7898 25.8341C101.521 24.0665 103.973 22.3355 106.342 20.6617C113.945 15.2923 119.902 11.0419 127.537 11.1475C129.196 11.1685 130.523 12.5304 130.503 14.189C130.48 15.8467 129.144 17.1421 127.461 17.1543C127.406 17.1533 127.35 17.1529 127.295 17.1529C121.724 17.1529 116.716 20.6906 109.808 25.5687C107.389 27.2772 104.887 29.0439 102.053 30.877C101.549 31.2036 100.984 31.3595 100.425 31.3595Z" fill="black"/>
<path d="M111.607 227.117C111.534 227.117 111.46 227.114 111.385 227.109C109.731 226.988 108.487 225.548 108.609 223.894C108.764 221.777 108.957 219.19 109.179 216.221C111.371 186.841 116.505 118.037 114.74 100.323C113.366 86.5464 113.995 69.0475 114.491 59.8431C114.581 58.1864 115.994 56.9179 117.653 57.0059C119.309 57.0954 120.579 58.5106 120.49 60.1667C120.003 69.1995 119.384 86.3499 120.717 99.727C122.534 117.962 117.373 187.131 115.169 216.668C114.947 219.634 114.754 222.218 114.6 224.332C114.485 225.912 113.167 227.117 111.607 227.117L111.607 227.117Z" fill="black"/>
<path d="M213.804 230.26C212.233 230.26 210.911 229.038 210.81 227.448C209.678 209.706 207.998 194.332 206.504 181.633C204.81 167.228 204.286 115.459 206.681 100.199C206.938 98.5592 208.483 97.4432 210.113 97.6974C211.752 97.9545 212.872 99.4914 212.615 101.13C210.333 115.676 210.849 167.15 212.47 180.931C213.973 193.709 215.664 209.182 216.805 227.066C216.91 228.721 215.654 230.149 213.999 230.254C213.933 230.258 213.869 230.26 213.804 230.26Z" fill="black"/>
<path d="M133.258 9.71503C133.258 9.71503 143.242 4.72121 159.226 4.72121C181.199 4.72121 203.172 12.7113 196.846 20.3685C190.521 28.0257 109.954 35.6829 133.258 9.71503Z" fill="white"/>
<path d="M226.036 114.97C215.802 42.4805 202.164 15.9721 202.164 15.9721C188.473 0.305316 170.711 19.2995 154.876 18.2019C145.16 17.5284 134.528 13.708 133.196 10.0459C131.839 6.31281 130.748 8.70683 127.536 11.0446C119.879 33.0174 99.9677 53.2301 100.866 70.548C101.765 87.8659 95.6871 128.935 95.5395 130.03C85.9676 201.029 71.965 218.478 84.4476 230.269C109.3 253.744 155.031 253.232 170.558 247.086C202.518 234.435 228.327 241.315 236.397 244.2C244.466 247.086 232.173 158.433 226.036 114.97L226.036 114.97Z" fill="#2D8C3C"/>
<path d="M100.175 245.024C99.7741 245.024 99.3674 244.943 98.9763 244.772C81.7291 237.248 73.9008 227.784 75.7076 216.642C79.9458 190.502 89.7363 151.785 90.3777 149.257L90.9995 145.482C94.3734 125.043 97.8628 103.909 96.19 88.3005C96.013 86.6512 97.2067 85.171 98.8561 84.994C100.491 84.8185 101.986 86.0103 102.162 87.6602C103.922 104.081 100.366 125.625 96.9262 146.461L96.2838 150.359C96.2701 150.446 96.2525 150.531 96.231 150.616C96.1284 151.016 85.9556 190.973 81.6362 217.604C80.3252 225.692 86.9666 232.98 101.378 239.267C102.898 239.93 103.593 241.7 102.93 243.221C102.437 244.35 101.334 245.024 100.175 245.024H100.175Z" fill="black"/>
<path d="M141.34 253.531C133.686 253.531 126.18 252.84 119.215 251.447C117.588 251.122 116.533 249.539 116.858 247.913C117.184 246.288 118.76 245.231 120.392 245.557C135.649 248.609 153.673 248.101 169.848 244.167C192.842 238.574 216.807 233.72 234.928 240.967C236.468 241.583 237.216 243.331 236.6 244.871C235.985 246.412 234.235 247.159 232.697 246.544C216.225 239.955 193.319 244.64 171.267 250.003C161.631 252.347 151.36 253.531 141.34 253.531L141.34 253.531Z" fill="black"/>
<path d="M158.213 20.4751C157.749 20.4751 157.286 20.4687 156.824 20.4555C147.586 20.194 139.228 17.2018 133.891 12.2464C132.675 11.1177 132.605 9.21759 133.734 8.00185C134.861 6.78806 136.763 6.71522 137.978 7.84493C146.469 15.7284 165.597 18.0421 184.327 6.80468C185.749 5.95166 187.595 6.41263 188.448 7.83467C189.301 9.25719 188.84 11.1021 187.418 11.9551C178.106 17.5425 168.038 20.4751 158.213 20.4751L158.213 20.4751Z" fill="black"/>
<path d="M254.22 78.7881L232.184 28.5806C224.263 11.9139 208.638 1.50442 195.36 8.30621L195.36 8.30623C184.058 14.0954 176.758 28.7595 176.923 45.3418L177.386 91.7367L187.345 78.7491L187.007 44.9089C186.887 32.8138 192.211 22.118 200.455 17.8954L200.455 17.8954C212.033 13.9347 219.695 27.0698 225.473 39.2264L239.1 72.0082L254.22 78.7881V78.7881Z" fill="black"/>
<path d="M187.345 81.7519C185.7 81.7519 184.359 80.4271 184.342 78.7783L184.005 44.9379C183.872 31.6468 189.792 19.9826 199.087 15.2218C199.215 15.1558 199.347 15.0996 199.484 15.0532C214.811 9.80744 223.846 28.8062 228.186 37.9362C228.207 37.9817 228.228 38.0271 228.247 38.0731L241.874 70.8551C242.51 72.3867 241.785 74.1445 240.253 74.781C238.722 75.4185 236.963 74.693 236.327 73.1605L222.729 40.4479C214.954 24.1099 208.818 18.3538 201.631 20.669C194.565 24.4193 189.904 34.1106 190.012 44.8777L190.349 78.7186C190.366 80.3773 189.034 81.7352 187.376 81.7519H187.345V81.7519Z" fill="black"/>
<path d="M177.386 94.7398C175.742 94.7398 174.4 93.4151 174.384 91.7662L173.92 45.3714C173.743 27.5669 181.621 11.9686 193.991 5.63321C199.486 2.8175 205.644 2.43278 211.801 4.51964C220.962 7.62524 229.596 16.1379 234.898 27.2908L256.97 77.5811C257.637 79.0999 256.946 80.8714 255.427 81.5382C253.904 82.206 252.136 81.5133 251.47 79.995L229.435 29.7873C224.854 20.1532 217.527 12.8035 209.873 10.2088C205.226 8.63422 200.802 8.89379 196.729 10.9792C186.526 16.2049 179.775 30.0019 179.927 45.3118L180.39 91.7066C180.407 93.3652 179.075 94.7232 177.417 94.7398H177.386V94.7398Z" fill="black"/>
<path d="M279.184 67.7267C283.891 103.925 291.135 139.676 301.141 174.937C307.177 195.207 305.386 205.714 297.721 208.893L187.636 228.78L175.85 225.496C161.64 184.525 153.134 138.876 148.889 89.7339L279.184 67.7267V67.7267Z" fill="black"/>
<path d="M183.603 232.177C177.65 232.177 174.058 229.387 170.835 222.776C170.756 222.615 170.692 222.448 170.644 222.276C160.473 186.273 148.339 139.244 144.715 94.6891C143.932 90.0734 146.993 85.6426 151.612 84.7612L271.596 63.7372C273.817 63.3154 276.116 63.789 278.025 65.0864C279.934 66.3833 281.223 68.346 281.655 70.6128C281.671 70.6973 281.684 70.7829 281.693 70.8689C284.257 95.9097 291.318 123.766 298.793 153.258C300.527 160.093 302.318 167.161 304.058 174.219C304.455 175.83 303.471 177.457 301.86 177.854C300.247 178.254 298.623 177.267 298.225 175.657C296.49 168.618 294.701 161.56 292.971 154.734C285.455 125.083 278.355 97.0712 275.733 71.6339C275.583 70.9877 275.201 70.4299 274.649 70.0545C274.068 69.6595 273.368 69.5143 272.677 69.6458L152.694 90.6698C151.313 90.9333 150.376 92.3143 150.648 93.7397C150.667 93.8458 150.682 93.9529 150.691 94.0599C154.249 138.033 166.258 184.635 176.351 220.38C179.084 225.907 181.053 226.872 187.125 225.821L292.637 207.563C295.639 207.043 298.248 205.377 299.983 202.872C301.717 200.366 302.358 197.337 301.787 194.343C301.477 192.714 302.546 191.141 304.175 190.831C305.81 190.517 307.377 191.59 307.688 193.218C308.563 197.807 307.581 202.449 304.921 206.291C302.263 210.131 298.263 212.685 293.661 213.481L188.149 231.74C186.491 232.027 184.984 232.177 183.603 232.177V232.177Z" fill="black"/>
<path d="M215.525 61.5446C214.157 60.3244 212.801 59.2245 211.495 58.2804C185.867 48.2366 183.648 15.0784 198.475 4.03627C207.144 -2.42041 219.216 9.39365 224.472 16.0046C229.728 22.6156 232.985 29.815 234.648 43.7532C234.713 43.8169 234.785 43.8826 234.852 43.9468C229.545 50.6235 222.87 56.7943 215.525 61.5445L215.525 61.5446Z" fill="white"/>
<path d="M268.625 115.107C267.572 115.107 266.551 114.553 266.001 113.569C265.192 112.122 265.709 110.291 267.157 109.482C271.063 107.298 273.959 103.697 275.104 99.6034C276.524 94.5254 275.433 88.7541 271.859 82.4496C266.23 72.5159 253.513 62.741 244.229 55.604C235.305 48.7441 231.341 45.5725 230.918 42.2817C229.976 34.9696 228.183 26.3372 222.031 17.7537C216.969 10.6899 210.298 6.0792 205.036 6.00734C201.95 5.96872 199.377 7.38245 197.133 10.3394C191.786 17.3875 190.197 26.4408 192.777 35.1769C195.535 44.5196 202.731 51.9108 212.518 55.4559C216.316 56.8315 245.005 79.6001 242.213 93.1576C241.879 94.7815 240.296 95.8276 238.665 95.4938C237.041 95.1594 235.995 93.5712 236.33 91.9463C237.032 88.5351 233.038 81.8752 225.645 74.1315C218.771 66.9304 211.785 61.6597 210.446 61.0932C198.87 56.9014 190.32 48.0715 187.015 36.878C183.936 26.4462 185.929 15.1677 192.349 6.70834C195.682 2.31611 200.02 0 204.906 0C204.977 0 205.048 0.00049056 205.118 0.00098112C212.441 0.101196 220.589 5.42954 226.914 14.2546C233.835 23.9125 235.871 33.7964 236.856 41.3607C237.641 42.9631 243.316 47.326 247.89 50.8412C257.581 58.2916 270.855 68.4952 277.086 79.4882C281.414 87.1253 282.729 94.6407 280.889 101.221C279.316 106.845 275.38 111.766 270.088 114.725C269.624 114.984 269.121 115.107 268.625 115.107V115.107Z" fill="black"/>
<path d="M246.585 38.4666C258.941 57.2006 281.617 81.0459 278.463 99.1763C274.525 121.819 237.952 109.115 230.178 99.982C226.61 95.7901 224.91 95.7514 222.926 92.6544C212.92 75.3434 188.359 58.4091 205.299 57.9122C233.089 64.5836 237.003 28.3147 246.585 38.4666Z" fill="#2D8C3C"/>
<path d="M209.332 62.4737C207.294 62.4737 205.083 62.3158 202.677 61.9721C201.035 61.738 199.893 60.2172 200.128 58.5747C200.362 56.9327 201.891 55.7961 203.526 56.0259C219.758 58.341 224.518 51.2289 229.129 44.3519C231.95 40.1455 234.866 35.7958 240.226 34.8259C250.758 32.9214 255.536 42.8986 259.372 50.9151L260.087 52.4056C260.809 53.899 260.183 55.695 258.69 56.4165C257.195 57.1375 255.401 56.5118 254.679 55.0189L253.953 53.5079C249.825 44.8838 246.922 39.7192 241.295 40.737C238.576 41.2287 236.797 43.7023 234.118 47.6971C229.857 54.052 224.208 62.4737 209.332 62.4737H209.332Z" fill="black"/>
<path d="M220.389 94.5124C219.638 94.5124 218.885 94.2318 218.302 93.6672C214.489 89.9779 195.538 71.0682 196.816 61.0963C197.11 58.7998 198.33 56.9847 200.343 55.8477C201.783 55.0303 203.618 55.5402 204.436 56.9852C205.251 58.4292 204.742 60.2614 203.298 61.0773C202.944 61.2777 202.825 61.4532 202.774 61.8594C202.376 64.966 208.226 75.5493 222.48 89.3512C223.67 90.5049 223.702 92.406 222.548 93.5978C221.959 94.2064 221.174 94.5124 220.389 94.5124V94.5124Z" fill="black"/>
<path d="M258.692 118.031C258.507 118.031 258.327 118.027 258.15 118.019C256.493 117.948 255.208 116.546 255.28 114.889C255.35 113.231 256.723 111.936 258.41 112.018C258.51 112.023 258.614 112.025 258.722 112.025C262.81 112.025 271.559 108.86 275.584 102.148C278.63 97.068 278.173 91.1012 274.222 84.4134C269.206 75.9208 265.259 70.9039 262.088 66.8724C258.818 62.7143 256.234 59.4298 254.555 54.7213C253.999 53.159 254.813 51.4407 256.377 50.8839C257.937 50.3257 259.656 51.1425 260.214 52.7044C261.562 56.488 263.649 59.1419 266.809 63.1587C270.09 67.3299 274.174 72.5214 279.394 81.3582C285.817 92.2329 283.669 100.346 280.735 105.238C275.64 113.734 264.892 118.03 258.692 118.031V118.031Z" fill="black"/>
</svg>
