<svg width="300" height="327" viewBox="0 0 300 327" fill="none" xmlns="http://www.w3.org/2000/svg">
<path d="M166.606 67.7092C164.825 66.5874 198.852 74.2574 191.936 75.8058C189.515 76.3479 183.117 45.6381 151.366 45.212C108.631 44.6386 128.52 59.8673 127.904 66.5133C130.371 66.2747 123.92 69.962 123.52 70.8673C111.534 98.0178 122.35 82.1824 111.52 119.867C104.017 145.978 91.7357 147.984 90.2009 162.104C89.3164 170.241 84.7829 177.259 82.5491 207.212C80.9144 229.131 78.0852 271.146 85.8785 278.057C92.7211 284.125 100.195 285.253 105.615 286.392C126.003 290.675 137.199 290.742 147.345 291.157C168.599 292.026 188.978 285.744 189.181 285.719L189.182 285.718C189.856 285.571 190.384 285.294 190.786 284.906C191.187 284.518 192.082 282.862 191.662 280.065C189.025 262.537 182.751 254.2 182.751 254.2C173.5 241.552 170.277 214.825 163.829 161.373C159.398 124.641 157.183 106.275 161.635 92.8734C164.02 85.6938 170.315 70.0444 166.606 67.7092L166.606 67.7092Z" fill="white"/>
<path d="M71.3801 137.194C75.5708 122.904 80.9731 97.1908 93.7385 83.261C106.504 69.3311 109.488 72.1041 109.488 72.1041C109.488 72.1041 106.497 64.2759 109.145 58.9492C111.793 53.6224 139.085 43.2332 133.783 51.2265C131.132 55.2231 112.075 102.868 112.075 134.387C112.075 166.455 71.1258 168.595 71.3801 137.194Z" fill="white"/>
<path d="M70.2342 2.9895L40.9239 0.0385915C36.4518 -0.411648 33.4713 3.13041 34.3006 7.90984L45.1938 70.6891C46.0231 75.4685 50.3607 79.7473 54.8328 80.1976L84.1431 83.1485C88.6152 83.5987 91.5957 80.0566 90.7664 75.2772L79.8732 12.498C79.0439 7.71856 74.7064 3.43974 70.2342 2.9895Z" fill="black"/>
<path d="M55.5785 18.1478L46.503 17.2341C44.5415 17.0366 42.6391 15.1599 42.2753 13.0636L42.0334 11.6695C41.6697 9.5732 42.9769 8.01965 44.9384 8.21712L54.014 9.13083C55.9754 9.32831 57.8779 11.205 58.2416 13.3013L58.4835 14.6954C58.8473 16.7917 57.54 18.3452 55.5785 18.1478Z" fill="#82BE28"/>
<path d="M106.948 133.338C79.0142 139.456 75.2454 106.424 79.1251 89.1104C91.6508 64.6344 71.3658 38.3593 52.9652 39.9113C42.2062 40.8185 40.9937 57.6466 41.4371 66.0712C41.8805 74.4955 44.2083 82.0374 52.1892 93.5655C50.3049 118.749 38.4442 170.715 96.9714 170.05C98.2649 158.315 106.588 145.143 106.948 133.338H106.948Z" fill="white"/>
<path d="M75.248 169.281C75.0253 169.281 74.7988 169.256 74.5732 169.204C43.4082 162.04 46.7441 124.996 48.5361 105.095C48.955 100.439 49.4755 94.6593 48.9824 93.2763C44.706 86.964 39.6689 78.2128 38.4531 66.3771C37.3437 55.5893 39.913 46.2106 45.3251 41.2895C48.9999 37.9477 53.8388 36.7587 59.3173 37.8556C69.7187 39.9357 78.6748 47.0539 83.2744 56.8962C88.2099 67.4577 87.6582 79.7223 81.7587 90.5456C80.208 93.9543 78.8164 120.427 85.913 125.749C87.2382 126.743 87.5078 128.623 86.5136 129.949C85.5195 131.275 83.6386 131.543 82.3134 130.549C71.9404 122.77 73.9033 92.4232 76.4902 87.6745C81.4668 78.5436 81.958 68.2516 77.8388 59.4367C73.9863 51.1938 66.8066 45.4721 58.1416 43.7389C54.5058 43.0119 51.6337 43.662 49.3613 45.7287C45.4726 49.2646 43.5341 57.1288 44.4218 65.7636C45.5 76.2599 49.872 83.9032 54.0068 89.9958C55.6279 92.3847 55.333 96.5158 54.5117 105.633C52.7695 124.981 49.8535 157.365 75.9169 163.357C77.5322 163.728 78.54 165.338 78.1689 166.953C77.8496 168.341 76.6142 169.281 75.248 169.281Z" fill="black"/>
<path d="M78.4061 202.164C39.0795 202.676 26.8071 142.415 31.5168 125.764C32.957 120.672 32.3408 114.99 41.6554 107.792C49.1311 102.016 56.952 118.899 64.5207 118.867C73.3994 118.83 84.1997 121.139 91.5207 128.867C99.0248 136.788 109.223 129.073 116.521 100.867C97.5207 176.867 91.5207 202.867 78.4061 202.164H78.4061Z" fill="white"/>
<path d="M89.2506 135.41C88.441 135.41 87.6344 135.084 87.0426 134.442C79.0201 125.732 76.3541 125.122 70.5133 123.786C68.4352 123.31 66.0807 122.772 63.065 121.811C52.2789 118.372 49.2535 108.169 49.1607 103.254C49.1285 101.598 50.4459 100.229 52.1031 100.198C53.7779 100.173 55.1207 101.476 55.1588 103.128C55.1715 103.563 55.5709 113.124 64.8873 116.094C67.6637 116.979 69.8883 117.488 71.8512 117.937C78.8219 119.531 82.567 120.726 91.4566 130.377C92.5787 131.596 92.5006 133.494 91.2818 134.616C90.7057 135.147 89.9771 135.41 89.2506 135.41Z" fill="black"/>
<path d="M64.2561 200.54C64.0618 200.54 63.8635 200.521 63.6653 200.482C55.2034 198.789 47.6047 192.691 41.6897 182.845C30.4065 164.063 27.1868 135.41 33.8596 113.167C34.3362 111.58 36.0002 110.68 37.595 111.156C39.1819 111.632 40.0823 113.304 39.6057 114.891C33.4807 135.309 36.5198 162.588 46.8332 179.755C50.3342 185.584 56.301 192.89 64.8411 194.598C66.4661 194.923 67.5198 196.504 67.1946 198.128C66.9094 199.554 65.6575 200.54 64.2561 200.54V200.54Z" fill="black"/>
<path d="M93.1504 83.9973C105.916 70.0674 108.9 72.8404 108.9 72.8404C108.9 72.8404 105.909 65.0123 108.557 59.6855C111.205 54.3587 138.497 43.9696 133.195 51.9628C130.544 55.9594 111.487 103.604 111.487 135.123" fill="white"/>
<path d="M114.521 106.867C108.979 108.452 102.521 127.867 99.5208 141.867C96.8665 154.254 87.762 176.133 84.0943 187.209C74.6741 215.658 65.472 253.053 62.8117 265.024C60.1514 276.996 83.588 290.854 98.7261 291.627C101.782 291.784 98.7261 269.68 98.7261 269.68C98.7261 269.68 128.024 277.243 129.682 275.634C137.029 268.504 124.83 260.549 119.033 233.883C115.521 217.727 111.108 191.085 108.798 165.304C107.468 150.467 114.817 106.783 114.521 106.867L114.521 106.867Z" fill="white"/>
<path d="M139.52 293.962C139.492 293.962 139.465 293.962 139.436 293.961C121.318 293.464 107.195 290.909 97.4588 286.365C95.9568 285.664 95.3084 283.879 96.0086 282.377C96.7107 280.876 98.4939 280.227 99.9959 280.928C108.857 285.063 122.552 287.496 139.6 287.963C141.257 288.008 142.562 289.388 142.517 291.044C142.472 292.672 141.138 293.962 139.52 293.962L139.52 293.962Z" fill="black"/>
<path d="M91.2152 155.596C90.6027 169.683 86.0759 189.532 82.334 202.758C74.4309 230.692 64.8317 250.057 63.4776 269.015C62.4146 283.897 99.3361 297.821 98.727 291.627C94.7365 251.057 107.561 98.8723 130.651 59.5137" fill="white"/>
<path d="M96.1497 296.118C90.2961 296.118 81.093 291.994 75.5881 288.706C69.6682 285.17 59.8352 277.883 60.4837 268.801C61.3723 256.354 65.6809 243.806 70.6692 229.277C73.4456 221.193 76.5911 212.03 79.4456 201.941C83.301 188.314 87.6301 168.949 88.2171 155.465C88.2903 153.81 89.6965 152.529 91.345 152.598C93.0003 152.67 94.2835 154.07 94.2112 155.726C93.6018 169.726 89.1663 189.622 85.219 203.574C82.3196 213.823 79.1448 223.068 76.344 231.226C71.4924 245.357 67.302 257.562 66.468 269.228C66.2473 272.319 68.6213 276.051 73.1516 279.737C80.9329 286.067 91.5696 289.805 95.5813 290.14C92.1057 247.088 104.577 98.0259 128.062 57.9951C128.901 56.5662 130.739 56.0872 132.168 56.9256C133.597 57.7639 134.075 59.6021 133.238 61.0313C110.431 99.9058 97.8821 252.41 101.711 291.333C101.869 292.938 101.155 294.409 99.8001 295.268C98.8665 295.861 97.6126 296.118 96.1497 296.118H96.1497Z" fill="black"/>
<path d="M99.7252 80.6036C98.5992 80.6036 97.5202 79.9669 97.0094 78.8809C96.3034 77.3819 96.9459 75.5945 98.445 74.8887L106.48 71.105C103.392 60.0589 107.685 55.6961 108.639 54.8909C111.84 52.1885 120.92 47.4139 121.944 46.8782C123.415 46.1099 125.225 46.6797 125.992 48.1473C126.759 49.6155 126.192 51.428 124.723 52.1956C122.101 53.5665 114.796 57.5467 112.51 59.4756C110.581 61.1043 111.533 67.6258 112.962 71.7073C113.469 73.158 112.8 74.761 111.41 75.4158L101.002 80.3169C100.589 80.5115 100.153 80.6036 99.7252 80.6036L99.7252 80.6036Z" fill="black"/>
<path d="M148.782 77.9186C144.968 77.9186 141.003 77.468 137.142 76.3647C135.549 75.9096 134.626 74.2492 135.081 72.6559C135.537 71.0622 137.199 70.1403 138.79 70.5956C147.67 73.133 158.067 71.6432 164.432 69.0407C165.968 68.413 167.717 69.1479 168.344 70.6816C168.972 72.215 168.236 73.9667 166.703 74.5939C162.309 76.3918 155.802 77.9186 148.782 77.9186Z" fill="black"/>
<path d="M177.206 50.8672C201.149 61.5085 214.632 96.2902 214.625 100.269C214.614 106.231 209.243 106.806 205.024 112.133C200.522 117.818 200.214 124.318 205.555 153.635C209.034 172.735 213.127 183.898 218.1 200.107C230.246 239.701 238.615 275.456 232.629 288.523C223.915 307.546 155.258 305.372 155.036 296.504C154.721 283.87 153.928 222.902 156.367 194.968C157.359 183.6 156.256 163.948 156.588 139.323C156.811 122.798 158.429 100.538 165.234 74.1451C168.236 62.5045 171.885 52.8624 177.206 50.8672Z" fill="white"/>
<path d="M170.875 306.564C159.278 306.565 153.02 303.948 151.882 298.691C151.866 298.619 151.853 298.545 151.843 298.472C146.154 257.772 155.321 100.029 165.658 60.7458C166.081 59.1435 167.721 58.187 169.323 58.6081C170.925 59.0295 171.882 60.6704 171.461 62.2727C161.242 101.104 152.18 256.865 157.759 297.455C157.987 297.956 161.511 303.793 195.658 297.981C216.029 294.514 230.475 289.785 241.122 283.101C242.523 282.22 244.376 282.644 245.257 284.047C246.138 285.45 245.715 287.301 244.311 288.183C232.977 295.299 217.837 300.292 196.665 303.896C186.224 305.673 177.64 306.564 170.875 306.564H170.875Z" fill="black"/>
<path d="M201.727 324.013L280.647 294.491C287.739 291.838 293.577 285.165 290.996 278.047L272.839 225.452C271.774 222.514 263.312 214.043 260.382 215.13L173.64 247.297C170.736 248.374 169.247 251.595 170.31 254.504L194.468 320.672C195.54 323.608 198.8 325.108 201.727 324.013Z" fill="#82BE28"/>
<path d="M201.251 326.816C196.718 326.816 192.609 324.426 190.569 320.325C185.739 310.616 170.034 269.185 167.635 258.954C166.071 252.289 168.448 246.844 174.326 243.622C182.101 239.36 253.9 214.098 257.907 212.938C263.931 211.194 269.388 213.772 272.493 219.835C276.917 228.469 287.366 258.485 287.81 259.759C288.354 261.324 287.525 263.034 285.961 263.578C284.393 264.122 282.685 263.293 282.142 261.729C282.035 261.421 271.389 230.835 267.153 222.572C265.357 219.067 262.806 217.767 259.575 218.702C255.88 219.771 184.092 245.111 177.211 248.883C173.72 250.797 172.533 253.562 173.477 257.584C175.75 267.282 191.335 308.392 195.94 317.652C197.22 320.222 200.252 321.4 203.319 320.515C214.316 317.34 277.577 293.221 285.866 289.043C288.001 287.968 289.262 285.69 288.934 283.505C288.815 282.717 288.525 281.529 288.128 279.938C287.726 278.33 288.703 276.702 290.311 276.3C291.917 275.899 293.548 276.876 293.948 278.484C294.401 280.295 294.71 281.561 294.867 282.616C295.575 287.327 292.984 292.175 288.567 294.401C280.161 298.638 216.106 323.068 204.983 326.28C203.731 326.641 202.475 326.816 201.251 326.816L201.251 326.816Z" fill="black"/>
<path d="M227.753 263.694C215.017 264.694 215.84 269.365 214.551 279.321C210.461 310.915 225.459 308.229 229.749 294.288C232.409 285.642 236.502 288.818 237.064 290.962C239.884 301.717 238.211 296.897 239.44 308.368C240.77 320.783 254.519 326.497 266.3 302.2C276.941 280.252 268.858 256.708 268.151 254.391C268.151 254.391 240.489 262.694 227.753 263.694H227.753Z" fill="white"/>
<path d="M248.009 321.753C247.167 321.753 246.419 321.656 245.777 321.514C240.681 320.391 237.196 315.596 236.456 308.687C235.979 304.225 235.926 302.099 235.891 300.692C235.84 298.641 235.826 298.079 234.196 291.857C233.842 292.282 233.237 293.226 232.604 295.203C230.486 301.806 225.407 307.831 218.828 306.407C213.527 305.259 208.784 298.902 210.141 287.289C210.59 283.438 211.648 279.39 212.455 276.672C212.927 275.084 214.6 274.18 216.186 274.651C217.775 275.123 218.679 276.794 218.207 278.382C217.146 281.954 216.416 285.274 216.1 287.985C215.226 295.472 217.449 299.969 220.098 300.543C222.121 300.977 225.11 298.923 226.891 293.372C228.987 286.83 232.172 285.543 234.406 285.592C237.252 285.668 239.395 288.024 239.965 290.201C241.734 296.946 241.823 297.913 241.889 300.544C241.923 301.931 241.971 303.831 242.422 308.048C242.868 312.207 244.649 315.121 247.068 315.655C250.169 316.337 255.649 313.453 261.732 303.316C268.996 291.209 271.012 265.91 265.516 255.826C264.723 254.371 265.259 252.549 266.714 251.756C268.171 250.963 269.991 251.501 270.783 252.954C277.298 264.907 275.29 292.381 266.876 306.403C259.239 319.131 252.369 321.753 248.009 321.753H248.009Z" fill="black"/>
<path d="M214.328 91.7679C219.494 100.021 242.059 144.349 249.958 163.267C257.856 182.185 271.905 217.803 282.547 236.426C292.296 253.487 233.996 267.019 214.286 263.689C207.125 262.479 201.816 252.143 201.923 244.915C202.029 237.686 197.519 198.593 197.675 191.142C197.831 183.691 197.669 165.82 197.669 165.82C197.298 155.275 191.437 143.524 188.418 137.242C185.398 130.961 195.272 106.638 197.973 99.9853C200.673 93.3327 192.759 65.4836 198.809 70.9287C203.243 74.9192 214.328 91.7679 214.328 91.7679H214.328Z" fill="white"/>
<path d="M169.549 155.069C169.384 155.069 169.217 155.055 169.049 155.027C167.416 154.753 166.313 153.206 166.587 151.572C169.445 134.533 178.55 121.404 185.199 111.818C189.315 105.883 192.87 100.757 193.16 97.2823C192.85 96.025 188.057 93.2762 185.483 91.7994C180.065 88.692 174.948 85.7567 174.862 81.2698C174.773 76.6783 178.779 72.9158 182.313 69.5963C184.085 67.9324 186.29 65.8619 186.625 64.7454C187.021 63.4239 186.815 62.0802 185.995 60.638C184.159 57.4112 179.626 54.5645 176.478 53.7777C174.871 53.3758 173.893 51.7471 174.296 50.1397C174.697 48.5328 176.322 47.5538 177.933 47.9569C182.423 49.0794 188.425 52.7767 191.21 57.6715C192.838 60.5335 193.239 63.576 192.371 66.4696C191.573 69.131 189.07 71.4813 186.421 73.9698C184.058 76.1886 180.823 79.2274 180.86 81.1541C181.189 82.4198 185.924 85.1356 188.468 86.5948C194.163 89.8609 199.541 92.9459 199.138 97.7801C198.715 102.857 194.926 108.32 190.129 115.237C183.452 124.866 175.14 136.849 172.504 152.565C172.258 154.031 170.988 155.069 169.549 155.069H169.549Z" fill="black"/>
<path d="M264.266 203.545C263.16 203.545 262.096 202.931 261.574 201.872C254.019 186.561 248.386 173.688 243.873 163.114C242.556 160.03 241.089 156.42 239.391 152.24C230.367 130.027 216.731 96.4593 198.75 75.5447C197.67 74.2881 197.814 72.3941 199.07 71.314C200.326 70.2342 202.22 70.3765 203.301 71.6331C221.92 93.2918 235.78 127.407 244.95 149.981C246.638 154.135 248.095 157.722 249.391 160.758C253.872 171.257 259.464 184.036 266.954 199.217C267.688 200.703 267.077 202.502 265.591 203.235C265.164 203.445 264.712 203.545 264.266 203.545H264.266Z" fill="black"/>
<path d="M220.602 268.126C218.012 268.126 215.949 267.94 214.606 267.571C206.569 265.36 201.708 259.6 199.307 249.445C197.419 241.457 194.018 213.689 194.67 165.779C194.692 164.136 196.031 162.819 197.669 162.819C197.682 162.819 197.696 162.819 197.711 162.82C199.367 162.842 200.692 164.203 200.67 165.86C200.002 214.94 203.675 241.841 205.147 248.065C207.039 256.072 210.343 260.175 216.198 261.786C222.793 263.599 265.291 258.073 276.487 243.888C279.452 240.132 279.697 236.318 277.258 231.885C274.547 226.955 271.909 222.045 269.42 217.292C268.65 215.824 269.217 214.011 270.685 213.242C272.155 212.473 273.965 213.041 274.734 214.508C277.205 219.225 279.823 224.098 282.516 228.994C286.108 235.525 285.652 241.961 281.196 247.605C270.233 261.495 236.06 268.126 220.602 268.126L220.602 268.126Z" fill="black"/>
</svg>
