<svg width="304" height="308" viewBox="0 0 304 308" fill="none" xmlns="http://www.w3.org/2000/svg">
<path d="M132.219 21.2364C101.365 29.1938 102.371 50.7468 89.71 57.4105C65.8281 80.1245 67.482 77.9193 55.3531 83.9837C65.3399 90.9894 52.5966 147.385 91.1885 151.244C96.8877 133.825 142.658 62.2101 145.423 50.8595C135.454 32.7868 144.253 32.8284 132.219 21.2364Z" fill="white"/>
<path d="M106.232 302.223C72.8437 294.061 62.6955 272.458 63.3619 268.016C64.0283 223.591 94.6813 158.287 97.9041 128.253C99.568 100.535 99.7901 47.112 116.227 30.5657C124.701 22.0357 132.22 21.2365 132.22 21.2365C139.73 30.0512 164.779 30.0512 184.678 19.6816C184.678 19.6816 197.069 22.0533 210.444 53.4444C222.649 82.0876 230.02 128.526 221.285 129.345C212.55 130.163 227.636 140.517 227.636 140.517C228.178 190.495 246.836 239.473 249.835 280.455C250.458 288.977 239.506 290.45 233.509 288.451C227.511 286.452 215.072 284.453 200.856 288.451C186.64 292.449 146.214 311.996 106.232 302.223Z" fill="white"/>
<path d="M128.653 307.655C124.124 307.655 119.462 307.308 114.633 306.523C103.609 304.728 93.769 301.566 85.3846 297.125C83.9179 296.349 83.3582 294.529 84.1351 293.062C84.914 291.595 86.7329 291.038 88.1986 291.812C96.0038 295.946 105.222 298.899 115.599 300.589C137.182 304.101 154.934 298.343 173.729 292.244C186.911 287.967 200.542 283.544 215.363 282.784C224.057 282.343 233.261 284.765 237.967 286.252C239.465 286.725 244.538 288.062 247.014 285.467C251.417 280.846 246.85 266.705 244.683 260.839C244.107 259.283 244.903 257.554 246.46 256.977C248.012 256.405 249.745 257.198 250.322 258.755C256.048 274.249 256.389 284.343 251.366 289.614C248.025 293.119 242.482 293.981 236.157 291.984C228.805 289.663 221.344 288.496 215.67 288.788C201.643 289.507 188.985 293.614 175.585 297.962C160.849 302.744 145.713 307.655 128.653 307.655Z" fill="black"/>
<path d="M202.456 109.146C213.281 137.329 223.516 169.344 225.727 179.149C229.659 196.586 231.736 202.897 227.52 218.287L225.286 232.331C224.305 239.034 230.508 244.89 237.421 242.471C244.335 240.052 243.631 234.897 247.997 231.862C252.139 228.982 261.739 233.203 267.278 240.858C272.818 248.513 283.954 249.222 288.746 248.916C295.556 248.482 301.71 243.648 300.925 236.456C300.139 229.265 291.284 226.19 287.802 224.766C283.9 223.169 271.388 217.283 264.459 208.325C257.846 199.775 245.716 153.114 239.594 129.535C223.028 70.1347 216.19 60.6611 212.288 51.8806L202.456 109.146Z" fill="white"/>
<path d="M286.955 251.975C282.027 251.975 270.895 250.984 264.844 242.621C259.704 235.517 251.74 232.922 249.714 234.329C248.477 235.189 247.79 236.349 246.921 237.818C245.421 240.354 243.554 243.509 238.415 245.309C234.318 246.739 229.931 245.991 226.673 243.304C223.354 240.566 221.683 236.194 222.311 231.896C222.552 230.253 224.074 229.116 225.721 229.357C227.363 229.598 228.5 231.124 228.26 232.767C227.929 235.031 228.766 237.236 230.499 238.667C231.467 239.463 233.522 240.653 236.429 239.634C239.497 238.56 240.441 236.964 241.748 234.756C242.789 232.996 243.97 231.001 246.281 229.394C251.439 225.812 262.552 229.199 269.715 239.096C275.108 246.549 287.193 246.003 288.555 245.916C291.675 245.718 294.564 244.378 296.284 242.333C297.611 240.756 298.167 238.888 297.937 236.782C297.397 231.842 290.901 229.244 287.411 227.848L286.665 227.548C283.944 226.435 269.972 220.365 262.082 210.164C255.922 202.201 246.236 167.068 236.685 130.29C222.695 80.1298 215.729 65.8835 211.568 57.372C210.807 55.8152 210.15 54.4708 209.542 53.102C208.867 51.5844 209.55 49.8085 211.067 49.1343C212.586 48.4612 214.36 49.1422 215.035 50.6598C215.599 51.9288 216.234 53.2272 216.969 54.7311C221.22 63.4286 228.338 77.9851 242.489 128.728C247.914 149.613 260.583 198.4 266.837 206.486C273.936 215.663 287.426 221.364 288.941 221.984L289.643 222.266C293.972 223.998 302.981 227.601 303.913 236.13C304.322 239.877 303.276 243.361 300.885 246.202C298.089 249.528 293.735 251.61 288.938 251.916C288.517 251.943 287.835 251.975 286.955 251.975Z" fill="black"/>
<path d="M227.523 221.293C227.26 221.293 226.993 221.258 226.726 221.186C225.126 220.747 224.183 219.094 224.622 217.492C228.318 203.998 226.954 198.029 223.658 183.605C223.383 182.399 223.094 181.137 222.795 179.811C220.721 170.605 210.673 138.92 199.651 110.223C199.056 108.674 199.83 106.936 201.38 106.34C202.928 105.744 204.669 106.519 205.263 108.069C216.38 137.013 226.545 169.11 228.66 178.489C228.957 179.808 229.244 181.064 229.519 182.266C232.949 197.278 234.516 204.13 230.42 219.081C230.054 220.416 228.843 221.293 227.523 221.293Z" fill="black"/>
<path d="M266.63 131.869C268.106 130.541 271.369 124.368 269.906 123.025C249.759 104.533 226.991 68.6468 219.106 55.2215C202.669 27.2339 198.844 21.0338 183.815 19.03C167.136 30.1746 175.428 40.6818 181.123 60.6076C185.653 76.455 184.565 148.871 207.964 153.844C225.734 135.63 246.169 150.29 266.63 131.869Z" fill="white"/>
<path d="M202.852 160.848C202.315 160.848 201.771 160.705 201.28 160.402C199.866 159.532 199.426 157.681 200.296 156.267C206.713 145.838 220.449 143.618 233.732 141.47C244.783 139.683 256.21 137.836 263.715 131.533C265.581 129.967 266.654 128.048 266.739 126.128C266.814 124.425 266.101 122.772 264.677 121.345C251.193 107.83 240.353 90.4397 229.868 73.622C222.709 62.1379 215.947 51.2908 209.138 43.1569L208.456 42.3409C204.861 38.0415 200.388 32.6913 196.482 29.1298C195.255 28.0114 195.168 26.1102 196.286 24.8833C197.404 23.6573 199.306 23.5682 200.532 24.6876C204.739 28.5231 209.357 34.0465 213.067 38.4848L213.748 39.2979C220.827 47.7546 227.696 58.775 234.97 70.4421C245.275 86.974 255.933 104.069 268.933 117.099C271.54 119.711 272.893 123.012 272.744 126.392C272.585 130.014 270.751 133.475 267.581 136.137C258.806 143.506 246.547 145.488 234.692 147.404C222.194 149.425 210.39 151.333 205.415 159.418C204.847 160.341 203.862 160.848 202.852 160.848Z" fill="black"/>
<path d="M155.282 31.6655C154.836 31.6655 154.392 31.6596 153.948 31.6459C145.109 31.3788 137.254 28.4581 131.831 23.422C130.614 22.2919 130.544 20.3907 131.674 19.1745C132.802 17.9583 134.705 17.8869 135.921 19.017C144.055 26.5706 161.522 29.4688 180.651 17.9925C182.075 17.1374 183.921 17.6002 184.776 19.0228C185.63 20.4465 185.168 22.2928 183.745 23.147C174.433 28.734 164.622 31.6655 155.282 31.6655Z" fill="black"/>
<path d="M195.525 145.745C194.251 145.745 193.069 144.929 192.662 143.65C189.61 134.063 187.687 119.033 187.192 109.126C187.109 107.468 188.386 106.057 190.044 105.974C191.708 105.897 193.114 107.167 193.196 108.826C193.672 118.358 195.501 132.751 198.389 141.826C198.893 143.409 198.019 145.099 196.437 145.602C196.134 145.699 195.827 145.745 195.525 145.745Z" fill="black"/>
<path d="M74.1804 288.732C73.4583 288.732 72.7332 288.473 72.1569 287.949C63.6395 280.188 60.4771 272.405 60.3568 268.1C60.1053 259.066 63.9271 235.841 75.4073 197.752C76.2224 195.047 77.0619 192.297 77.9181 189.494C84.1948 168.948 91.3082 145.66 95.4021 118.049C95.6457 116.407 97.178 115.284 98.8169 115.517C100.459 115.76 101.593 117.289 101.349 118.931C97.1887 146.987 90.0059 170.503 83.6675 191.25C82.8142 194.045 81.9757 196.79 81.1626 199.487C66.611 247.771 66.2842 264.974 66.3664 267.932C66.432 270.277 68.5719 276.549 76.2058 283.505C77.4327 284.623 77.5208 286.524 76.4034 287.751C75.8105 288.402 74.9964 288.732 74.1804 288.732Z" fill="black"/>
<path d="M61.0242 55.4123C64.0633 51.5293 68.4529 45.4511 69.8037 39.0354C71.1542 32.6197 66.5958 30.2557 62.7126 29.4118C58.8293 28.5674 54.6085 34.8144 53.4265 36.5027C52.2448 38.191 48.0237 43.4252 42.79 37.3471C37.556 31.2689 35.0235 12.3593 33.673 7.80069C32.3222 3.24256 26.5816 1.21618 21.6855 5.26845C16.7893 9.32023 21.1791 24.6844 21.6855 27.8923C22.1921 31.1001 21.0103 34.8144 19.6596 36.8407C18.3088 38.8666 15.4385 38.6978 8.34765 43.4252C-2.45791 57.1006 5.98395 70.4389 12.906 73.1399C13.666 73.3934 16.4219 79.2533 19.5333 82.379C25.7676 108.481 29.0488 131.656 38.2627 139.115C49.8402 148.487 68.0336 145.179 68.0336 138.012C63.6382 122.262 56.81 92.1572 52.7213 72.9134C53.0391 72.4849 53.3368 72.0543 53.5953 71.6204C53.9331 65.8803 57.9852 59.2958 61.0242 55.4123Z" fill="white"/>
<path d="M58.1066 100.773C56.635 100.773 55.3493 99.6922 55.135 98.1932C55.0137 97.3429 54.5303 95.9633 53.9716 94.3645C52.3855 89.8294 49.9883 82.9743 49.5539 72.1869C49.4218 66.2349 54.0802 59.6812 59.0107 52.742C62.4 47.9731 65.9039 43.0416 66.7033 39.5466C67.3207 36.851 66.668 34.5085 64.9577 33.2796C63.5507 32.2698 61.7131 32.2346 60.1623 33.1857C59.2954 33.717 58.2406 35.0682 57.2211 36.3745C54.7759 39.5055 51.4296 43.7921 45.8827 42.6923C39.4719 41.4203 34.9103 31.3149 31.0905 9.92878C30.5817 7.07756 28.2725 5.72925 26.3371 6.07171C23.8088 6.51886 21.7951 10.0374 22.9957 16.8905L23.3254 18.7368C24.9487 27.7503 26.9692 38.9674 16.532 42.2422C8.45879 44.7755 5.47059 52.2362 6.09191 58.5081C6.6467 64.1185 10.3756 71.001 19.0564 71.9305C20.7071 72.1076 21.9018 73.589 21.7257 75.2396C21.5476 76.8913 20.0486 78.0703 18.4165 77.9089C6.93338 76.678 0.948177 67.5754 0.108663 59.1C-0.751399 50.4074 3.43639 40.0505 14.7317 36.5065C19.3656 35.0526 19.3167 30.3912 17.4087 19.8033L17.0741 17.9276C15.6935 10.0481 17.6983 1.49548 25.2892 0.152057C30.8272 -0.82542 35.9622 3.00621 37.0081 8.87205C41.6754 35.0007 46.5168 36.6895 47.053 36.7962C48.8367 37.1455 50.2956 35.4753 52.4824 32.6749C53.8317 30.947 55.227 29.1603 57.0215 28.0605C60.6731 25.8218 65.0585 25.9519 68.4655 28.3971C72.1503 31.0448 73.7207 35.8314 72.5642 40.8871C71.4977 45.5484 67.8128 50.7343 63.9117 56.2244C59.9578 61.7879 55.4765 68.094 55.5616 72C55.9589 81.8364 58.178 88.1817 59.6467 92.3802C60.3365 94.3538 60.8815 95.9115 61.086 97.342C61.3208 98.9858 60.1789 100.508 58.5361 100.743C58.3913 100.764 58.2484 100.773 58.1066 100.773Z" fill="black"/>
<path d="M53.532 148.725C49.2552 148.725 45.2973 147.686 41.7142 145.615C29.2399 138.405 19.5982 104.077 17.8624 91.6332C17.6335 89.9894 18.7802 88.4709 20.425 88.2409C22.0737 88.011 23.5874 89.1587 23.8173 90.8035C25.7713 104.817 35.4325 135.04 44.722 140.409C48.579 142.638 53.1073 143.248 58.1767 142.226C59.8068 141.892 61.39 142.95 61.7177 144.577C62.0465 146.205 60.9937 147.791 59.3665 148.118C57.3626 148.524 55.4165 148.725 53.532 148.725Z" fill="black"/>
<path d="M64.2837 83.3921C63.3483 83.3921 62.4266 82.9576 61.8395 82.1397C60.8709 80.7923 61.1791 78.9137 62.5274 77.945C71.0879 71.7945 97.1031 46.0572 98.9465 42.4545C99.649 40.9497 101.433 40.3039 102.939 41.0084C104.443 41.7099 105.09 43.5054 104.389 45.0093C102.12 49.8702 74.2415 76.9313 66.0342 82.8275C65.5039 83.2091 64.8904 83.3921 64.2837 83.3921Z" fill="black"/>
<path d="M80.1625 150.943C79.8005 150.943 79.4316 150.877 79.0735 150.738C63.334 144.617 61.3067 131.754 58.9584 116.861C58.0338 111 57.0778 104.938 55.2266 98.6116C54.7598 97.0187 55.6737 95.3485 57.2667 94.8827C58.8645 94.4121 60.5298 95.3308 60.9955 96.9228C62.9564 103.62 63.9867 110.157 64.8966 115.924C67.1246 130.056 68.7341 140.266 81.2535 145.135C82.8004 145.737 83.5665 147.479 82.9648 149.026C82.502 150.215 81.366 150.943 80.1625 150.943Z" fill="black"/>
</svg>
