<svg width="304" height="264" viewBox="0 0 304 264" fill="none" xmlns="http://www.w3.org/2000/svg">
<path d="M22.6631 84.1808C18.4502 83.6704 13.8971 73.3934 12.8864 73.0532C5.97173 70.3514 -2.454 57.0323 8.33334 43.373C15.4182 38.6498 18.2801 38.8199 19.631 36.7985C20.982 34.7771 22.1628 31.0646 21.6524 27.8624C21.1421 24.6603 16.7591 9.30981 21.6524 5.26705C26.5457 1.2243 32.2796 3.24568 33.6206 7.79878C34.9615 12.3519 37.5032 31.2347 42.7268 37.3089C47.9503 43.383 52.1732 38.1494 53.354 36.4683C54.5348 34.7871 58.7477 28.5429 62.6303 29.3835C66.5129 30.224 71.066 32.5856 69.7151 38.99C68.3642 45.3944 63.9812 51.4685 60.9492 55.3511C57.9171 59.2338 53.8643 65.8083 53.5341 71.5422C48.3105 80.3081 30.4284 88.2335 22.6731 84.1908L22.6631 84.1808Z" fill="white"/>
<path d="M127.086 21.959C150.972 16.7254 172.077 18.3265 176.64 18.7368C178.831 18.9369 188.128 23.8803 188.128 25.1812C188.128 26.4821 178.921 24.5508 163.11 56.1723C147.3 87.7938 133.28 125.93 131.459 127.221C123.163 99.7519 109.974 50.4684 124.494 24.2906C125.535 23.2499 127.086 21.959 127.086 21.959Z" fill="white"/>
<path d="M202.196 109.008C213.004 137.157 223.231 169.129 225.442 178.926C229.365 196.337 231.446 202.642 227.233 218.012L225.002 232.042C224.021 238.736 230.215 244.58 237.12 242.169C244.025 239.757 243.324 234.604 247.687 231.571C252.05 228.539 261.417 232.912 266.94 240.558C272.474 248.203 283.592 248.913 288.385 248.603C295.19 248.173 301.334 243.339 300.553 236.155C299.773 228.97 290.927 225.898 287.444 224.477C283.552 222.886 271.053 217.002 264.128 208.055C257.524 199.52 245.406 152.918 239.291 129.362L202.196 108.998V109.008Z" fill="white"/>
<path d="M226.183 224.956C225.923 224.956 225.652 224.916 225.392 224.846C223.791 224.406 222.85 222.755 223.291 221.154C227.354 206.314 226.393 196.747 222.52 179.575C220.449 170.369 210.412 138.718 199.404 110.078C198.814 108.527 199.585 106.796 201.126 106.196C202.677 105.605 204.408 106.376 205.008 107.917C216.106 136.816 226.263 168.868 228.374 178.245C232.397 196.087 233.458 206.744 229.075 222.725C228.704 224.056 227.504 224.936 226.183 224.936V224.956Z" fill="black"/>
<path d="M286.604 251.664C281.681 251.664 270.563 250.673 264.519 242.318C259.385 235.223 251.43 232.631 249.409 234.042C248.178 234.903 247.487 236.063 246.617 237.524C245.116 240.056 243.254 243.208 238.121 245.009C234.038 246.44 229.645 245.69 226.393 243.008C223.081 240.276 221.41 235.903 222.04 231.61C222.28 229.969 223.811 228.838 225.442 229.079C227.083 229.319 228.214 230.84 227.974 232.481C227.644 234.742 228.474 236.944 230.206 238.375C231.166 239.175 233.228 240.356 236.13 239.346C239.192 238.275 240.132 236.684 241.443 234.472C242.484 232.711 243.665 230.72 245.966 229.119C251.12 225.536 262.217 228.929 269.372 238.805C274.756 246.25 286.834 245.7 288.185 245.62C291.297 245.42 294.189 244.079 295.9 242.037C297.221 240.456 297.782 238.595 297.551 236.494C297.011 231.56 290.527 228.969 287.044 227.568L286.294 227.267C283.582 226.157 269.622 220.092 261.737 209.906C255.583 201.95 245.906 166.866 236.37 130.131C222.4 80.0372 215.446 65.8075 211.283 57.3017C210.522 55.7506 209.862 54.3997 209.261 53.0388C208.591 51.5278 209.261 49.7465 210.782 49.0761C212.303 48.4056 214.075 49.0761 214.745 50.5971C215.305 51.868 215.946 53.1589 216.676 54.6699C220.919 63.3558 228.034 77.8957 242.164 128.57C247.577 149.424 260.226 198.148 266.48 206.233C273.575 215.399 287.044 221.093 288.555 221.714L289.266 221.994C293.589 223.725 302.585 227.317 303.515 235.833C303.926 239.576 302.875 243.058 300.493 245.89C297.701 249.212 293.349 251.294 288.565 251.594C288.145 251.624 287.465 251.654 286.594 251.654L286.604 251.664Z" fill="black"/>
<path d="M20.8134 91.1056C19.4025 84.9114 26.8575 80.6485 32.2112 78.3969C37.5648 76.1454 52.4049 69.7711 59.4497 72.8632C66.4945 75.9653 62.3617 75.0146 64.0529 82.6198C69.6867 71.162 82.4354 66.8491 84.4067 61.2052C86.3781 55.5714 96.8252 39.2503 106.682 31.9253C116.539 24.6003 123.814 22.3988 127.086 21.9485C121.052 27.6924 116.288 70.3915 122.202 97.1597C128.116 123.928 131.419 126.64 131.419 126.64C138.804 111.8 155.085 69.1106 159.098 62.6362C163.11 56.1618 172.267 19.1866 179.221 18.6663C186.176 18.1459 200.896 27.5123 205.769 33.9867C209.242 38.6099 227.004 47.1357 236.3 84.331C245.596 121.526 259.966 172.421 262.788 178.795C265.3 187.581 268.692 192.134 267.491 195.667C266.421 198.799 262.898 198.249 260.577 199.81C254.432 203.952 235.139 207.175 225.583 207.285C224.982 209.376 224.382 218.652 224.382 218.652C219.869 231.691 162.47 236.895 129.437 209.386C126.615 207.975 125.875 212.228 119.711 215.06C94.2934 226.728 86.2179 220.324 79.9337 216.851C76.2912 214.84 79.1932 197.158 83.416 183.358C87.6389 169.549 91.6316 146.553 92.2921 123.227C70.9275 143.161 63.9628 146.283 52.9753 145.433C41.9878 144.582 28.8189 136.717 20.8134 91.0856V91.1056Z" fill="#82BE28"/>
<path d="M18.7116 77.8358C18.6015 77.8358 18.5014 77.8358 18.3913 77.8158C6.92353 76.585 0.949465 67.4988 0.108893 59.033C-0.751693 50.3471 3.43115 40.0101 14.7088 36.4677C19.2719 35.0367 19.372 30.8538 17.3807 19.7863L17.0504 17.915C15.6695 10.0397 17.6708 1.49386 25.256 0.152943C30.7598 -0.827724 35.9133 3.00488 36.964 8.85887C41.6271 34.9566 46.4604 36.6378 47.0008 36.7479C48.782 37.0981 50.243 35.427 52.4245 32.6351C53.7754 30.9139 55.1664 29.1227 56.9576 28.0219C60.6101 25.7904 64.983 25.9205 68.3854 28.3621C72.0679 31.0039 73.6389 35.7872 72.4781 40.8406C71.4074 45.4938 67.7349 50.6773 63.8323 56.1611C59.8796 61.7148 55.4065 68.0191 55.4966 71.9218C55.5366 73.5829 54.2157 74.9539 52.5646 74.9939C50.9135 75.0639 49.5325 73.713 49.4925 72.0619C49.3624 66.1679 54.0156 59.6234 58.9389 52.6987C62.3212 47.9355 65.8236 43.0121 66.6242 39.5197C67.2446 36.8279 66.5841 34.4863 64.883 33.2655C63.482 32.2548 61.6508 32.2248 60.0897 33.1754C59.2191 33.7058 58.1684 35.0567 57.1477 36.3576C54.7061 39.4797 51.3638 43.7626 45.82 42.6619C39.4156 41.391 34.8626 31.3041 31.05 9.9396C30.5396 7.08766 28.228 5.74675 26.2967 6.08698C23.775 6.53729 21.7636 10.0497 22.9645 16.8943L23.2947 18.7356C24.9158 27.7417 26.9372 38.9393 16.5101 42.2116C8.44457 44.7433 5.46254 52.1984 6.08296 58.4626C6.63333 64.0664 10.3659 70.9411 19.0318 71.8718C20.6829 72.0519 21.8737 73.5329 21.6936 75.174C21.5235 76.7151 20.2226 77.8558 18.7116 77.8558V77.8358Z" fill="black"/>
<path d="M68.7858 108.597C67.3548 108.597 66.094 107.576 65.8338 106.115L65.3535 103.403C63.6623 93.8469 63.262 91.5754 59.2393 76.9054C59.1092 76.425 59.0191 76.335 59.1192 75.9247C59.0692 75.8146 58.9491 75.7046 58.759 75.5945C57.8984 75.0941 52.5447 73.1128 31.8206 82.7594C30.3196 83.4598 28.5284 82.8094 27.8279 81.3084C27.1274 79.8074 27.7779 78.0161 29.2789 77.3157C46.4706 69.3102 57.288 67.1788 62.3614 70.7812C64.3428 72.1922 65.0733 74.1835 65.1333 75.7246C69.136 90.3045 69.5963 92.9063 71.2575 102.363L71.7378 105.065C72.028 106.696 70.9373 108.257 69.3061 108.547C69.126 108.577 68.9559 108.597 68.7758 108.597H68.7858Z" fill="black"/>
<path d="M53.4743 148.555C49.4715 148.555 45.4788 147.634 41.6662 145.432C29.2078 138.228 19.5812 103.944 17.85 91.5158C17.6199 89.8746 18.7707 88.3536 20.4118 88.1234C22.0629 87.8933 23.5739 89.0441 23.8041 90.6852C24.6146 96.4992 27.3265 107.617 31.3592 118.274C35.7422 129.872 40.6055 137.867 44.6783 140.229C62.7706 150.696 88.8283 122.177 89.0885 121.886C90.1993 120.656 92.1006 120.556 93.3314 121.666C94.5622 122.777 94.6623 124.668 93.5516 125.909C92.5609 127.01 72.8875 148.555 53.4843 148.555H53.4743Z" fill="black"/>
<path d="M145.287 48.9367C142.615 48.9367 139.963 48.6765 137.372 48.1362C129.727 46.5651 123.502 42.8226 120.74 38.1194C119.9 36.6884 120.38 34.8471 121.801 34.0066C123.232 33.166 125.073 33.6463 125.914 35.0673C127.775 38.2294 132.749 41.0514 138.583 42.2522C148.589 44.3036 159.607 41.6117 168.793 34.8571C170.124 33.8765 172.005 34.1567 172.986 35.4976C173.967 36.8385 173.686 38.7098 172.346 39.6904C164.14 45.7245 154.613 48.9267 145.287 48.9267V48.9367Z" fill="black"/>
<path d="M64.2031 83.2899C63.2725 83.2899 62.3519 82.8596 61.7614 82.039C60.7908 80.6881 61.101 78.8168 62.4519 77.8462C70.4273 72.1123 84.597 54.6504 86.2481 51.118C86.9486 49.617 88.7398 48.9665 90.2408 49.667C91.7419 50.3675 92.3923 52.1587 91.6918 53.6597C89.5404 58.2729 74.4901 76.5953 65.9543 82.7195C65.4239 83.0998 64.8135 83.2799 64.2031 83.2799V83.2899Z" fill="black"/>
<path d="M194.312 232.401C169.585 232.401 139.134 223.265 127.316 211.537C126.135 210.366 126.135 208.465 127.296 207.294C128.467 206.113 130.368 206.113 131.539 207.274C143.587 219.232 178.861 228.499 202.747 225.977C213.054 224.886 220.189 221.734 223.381 216.851C224.292 215.46 226.153 215.07 227.534 215.98C228.925 216.891 229.315 218.752 228.405 220.133C224.192 226.577 215.536 230.66 203.378 231.951C200.476 232.261 197.444 232.401 194.312 232.401Z" fill="black"/>
<path d="M95.294 224.417C91.5215 224.417 88.1292 223.776 85.1371 222.505C78.4226 219.633 76.2911 214.5 76.071 213.93C75.4005 212.168 75.6907 208.976 85.9277 158.302C86.9083 153.418 87.869 148.715 88.7196 144.432C89.6702 139.689 89.1699 126.95 88.6295 113.471C88.4594 109.258 88.2893 104.935 88.1592 100.662C88.1091 99.0013 89.41 97.6204 91.0612 97.5703C92.7623 97.5103 94.1032 98.8212 94.1533 100.472C94.2934 104.725 94.4635 109.038 94.6236 113.231C95.194 127.681 95.6943 140.169 94.6036 145.613C93.743 149.906 92.7923 154.619 91.8017 159.492C87.909 178.756 82.085 207.575 81.8349 212.118C82.3052 213.009 83.8963 215.471 87.5688 217.022C91.9518 218.863 100.237 219.774 114.807 213.659C116.338 213.019 118.1 213.739 118.74 215.27C119.38 216.801 118.66 218.563 117.129 219.203C108.833 222.686 101.528 224.427 95.274 224.427L95.294 224.417Z" fill="black"/>
<path d="M257.123 162.384C255.892 162.384 254.731 161.624 254.291 160.393C251.609 152.888 249.048 145.453 246.666 138.288C242.093 124.508 237.73 109.538 233.877 96.3392C230.515 84.8114 227.603 74.8446 225.451 68.7404C223.97 64.5576 215.755 46.4452 206.228 35.868C205.118 34.6372 205.218 32.7359 206.449 31.6252C207.679 30.5144 209.581 30.6145 210.691 31.8453C220.738 42.9929 229.294 61.5855 231.115 66.729C233.327 72.9933 236.259 83.0301 239.641 94.6481C243.484 107.807 247.827 122.717 252.37 136.396C254.731 143.521 257.283 150.916 259.955 158.371C260.515 159.932 259.705 161.654 258.134 162.204C257.803 162.324 257.463 162.384 257.123 162.384Z" fill="black"/>
<path d="M227.824 211.327C218.698 211.327 217.337 208.315 216.836 207.224C216.706 206.944 216.626 206.654 216.586 206.354C213.204 178.755 195.141 112.06 191.559 98.9706C191.119 97.3695 192.059 95.7184 193.66 95.2781C195.262 94.8478 196.913 95.7785 197.353 97.3795C200.915 110.388 218.708 176.103 222.43 204.653C226.423 206.684 248.898 204.302 260.496 196.207C264.168 193.645 265.609 191.153 264.779 188.802C264.369 187.631 263.588 185.55 262.497 182.668C261.627 180.356 260.576 177.564 259.375 174.332C258.795 172.781 259.585 171.05 261.146 170.469C262.697 169.889 264.429 170.689 265.009 172.241C266.2 175.463 267.251 178.255 268.121 180.556C269.222 183.478 270.012 185.58 270.443 186.82C271.904 191.003 271.864 199.019 255.082 205.743C248.388 208.425 240.002 210.426 232.647 211.087C230.836 211.247 229.235 211.327 227.814 211.327H227.824Z" fill="black"/>
<path d="M119.6 129.772C118.749 129.772 117.908 129.411 117.318 128.721C102.298 111.169 94.7627 81.1285 94.6927 80.8283C93.722 76.8956 98.2651 70.7214 102.778 66.5686C98.095 63.8767 95.3331 60.1442 95.183 59.9441C94.6226 59.1735 94.4625 58.1729 94.7527 57.2622C97.5746 48.4262 100.717 42.282 106.341 34.5968C107.321 33.2559 109.193 32.9657 110.533 33.9464C111.874 34.927 112.165 36.8083 111.184 38.1392C106.321 44.7837 103.469 50.1774 100.987 57.5224C102.438 59.0835 105.46 61.8554 109.433 62.9061C110.604 63.2163 111.474 64.1969 111.644 65.3978C111.814 66.5986 111.244 67.7794 110.193 68.3998C105.54 71.1417 100.727 77.6661 100.557 79.5274C101.097 81.6388 108.272 108.917 121.891 124.828C122.972 126.089 122.822 127.98 121.561 129.061C120.991 129.541 120.3 129.782 119.61 129.782L119.6 129.772Z" fill="black"/>
<path d="M131.559 133.184C130.919 133.184 130.299 132.984 129.778 132.594C128.848 131.913 126.396 130.092 123.104 116.173C121.032 107.427 119.321 96.6592 118.28 85.8419C116.679 69.2606 115.348 38.7298 124.405 20.6075C125.145 19.1265 126.946 18.5261 128.427 19.2666C129.908 20.0071 130.509 21.8083 129.768 23.2893C123.724 35.3875 121.683 57.6527 124.174 84.3709C125.886 102.833 129.068 116.783 131.399 123.528C133.121 119.225 135.402 112.78 137.904 105.715C145.759 83.5103 156.516 53.1096 168.064 35.6177C168.975 34.2368 170.836 33.8565 172.227 34.7671C173.608 35.6777 173.988 37.539 173.078 38.93C161.93 55.8014 151.313 85.8119 143.568 107.717C138.624 121.676 135.962 129.091 134.041 131.873C133.581 132.544 132.87 132.994 132.06 133.134C131.89 133.164 131.73 133.174 131.559 133.174V133.184Z" fill="black"/>
<path d="M130.378 170.29C130.228 170.29 130.078 170.28 129.918 170.26C127.486 169.89 125.375 168.258 124.114 165.787C123.003 163.605 122.623 160.933 123.033 158.242C123.954 152.238 128.437 148.115 133.19 148.835C135.622 149.205 137.733 150.837 138.994 153.308C140.105 155.49 140.485 158.162 140.075 160.853C139.825 162.495 138.284 163.615 136.653 163.365C135.012 163.115 133.891 161.584 134.141 159.943C134.361 158.512 134.181 157.091 133.641 156.03C133.471 155.69 132.98 154.869 132.28 154.769C131.229 154.599 129.408 156.23 128.957 159.152C128.737 160.583 128.917 162.014 129.458 163.065C129.628 163.405 130.118 164.216 130.819 164.326C132.46 164.576 133.581 166.107 133.33 167.748C133.1 169.229 131.819 170.3 130.368 170.3L130.378 170.29Z" fill="black"/>
<path d="M145.287 129.772C144.836 129.772 144.386 129.672 143.956 129.462C142.465 128.731 141.864 126.93 142.595 125.439C142.748 125.132 143.742 123.928 145.577 121.826C168.593 95.4484 174.597 86.012 175.827 82.6597C173.226 79.3774 167.982 72.2726 167.722 71.9224C167.152 71.1518 166.991 70.1612 167.272 69.2505C167.552 68.3399 168.262 67.6194 169.163 67.3092C175.978 64.9776 182.712 61.6054 183.563 60.0843C187.145 53.1196 183.943 32.4155 182.412 25.0305C182.072 23.4094 183.122 21.8183 184.744 21.478C186.365 21.1478 187.956 22.1885 188.296 23.8096C188.906 26.7416 194.09 52.7293 188.906 62.8262C187.125 66.2985 180.13 69.5608 174.947 71.5821C177.318 74.7643 180.351 78.777 181.341 79.9178C181.882 80.5382 182.152 81.3588 182.072 82.1794C181.561 87.6331 171.995 100.672 150.1 125.779C149.029 127.01 148.009 128.171 147.748 128.491C147.178 129.311 146.247 129.782 145.287 129.782V129.772Z" fill="black"/>
</svg>
