<svg width="300" height="258" viewBox="0 0 300 258" fill="none" xmlns="http://www.w3.org/2000/svg">
<path d="M126.929 3.80022C126.929 3.80022 133.919 1.17022 149.919 0.170219C165.919 -0.829781 185.399 4.24022 190.659 9.20022C195.919 14.1602 148.919 24.1702 136.919 19.1702C124.919 14.1702 126.929 3.80022 126.929 3.80022Z" fill="white"/>
<path d="M126.11 254.93C103.03 252.83 84.6703 244.48 75.6603 240.43C70.1103 237.93 62.1103 232.93 62.5803 227.17C62.9903 222.28 63.7403 209.09 71.8603 187.66C91.1003 136.93 93.4203 107.48 97.1003 76.9297C98.4503 65.6897 98.8603 33.5997 112.83 14.9797C119.05 6.68969 128.1 5.92969 128.1 5.92969C139.79 13.3497 162.22 17.0697 181.38 6.63969C193.22 7.06969 200.41 17.2997 216.1 82.9297C230.14 141.64 235.46 150.77 243.1 192.93C244.62 201.32 254.1 233.93 244.1 240.93C239.32 244.27 226.1 227.93 190.1 239.93C173 245.63 159.1 257.93 126.1 254.93H126.11Z" fill="#2D8C3C"/>
<path d="M132.529 257.469C121.179 257.469 108.959 255.599 95.6387 250.649C94.0887 250.069 93.2987 248.349 93.8687 246.789C94.4487 245.239 96.1787 244.439 97.7287 245.019C131.499 257.559 158.219 249.069 181.799 241.569C193.349 237.899 204.259 234.429 214.889 233.799C222.909 233.329 231.349 235.739 235.669 237.219C238.539 238.199 242.389 238.469 244.589 236.289C246.579 234.319 249.069 228.499 243.449 211.719C242.919 210.149 243.769 208.449 245.339 207.919C246.909 207.389 248.609 208.239 249.139 209.809C254.209 224.949 254.109 235.289 248.819 240.539C245.289 244.039 239.649 244.919 233.719 242.889C227.079 240.609 220.339 239.479 215.239 239.779C205.359 240.359 194.799 243.719 183.609 247.279C168.249 252.159 151.609 257.449 132.529 257.449V257.469Z" fill="black"/>
<path d="M80.1097 244.93C79.7397 244.93 79.3597 244.86 78.9997 244.71C61.9897 237.91 59.2397 229.45 59.1197 225.01C58.9397 218.61 64.1797 203.65 70.5197 186.21C71.0897 184.63 71.6397 183.12 72.1597 181.69C76.9797 168.34 92.8697 120.88 95.1397 70.4998C95.2197 68.8398 96.5997 67.5798 98.2697 67.6398C99.9297 67.7198 101.21 69.1197 101.13 70.7697C98.8197 121.99 82.6897 170.18 77.7997 183.73C77.2797 185.16 76.7297 186.68 76.1497 188.27C71.6897 200.54 64.9497 219.07 65.1097 224.85C65.1597 226.71 66.4797 233.25 81.2297 239.15C82.7697 239.77 83.5197 241.51 82.8997 243.05C82.4297 244.22 81.2997 244.94 80.1097 244.94V244.93Z" fill="black"/>
<path d="M242.599 193.339C241.289 193.339 240.079 192.469 239.709 191.139L221.039 123.699C220.599 122.099 221.529 120.449 223.129 120.009C224.719 119.569 226.379 120.499 226.819 122.099L245.489 189.539C245.929 191.139 244.999 192.789 243.399 193.229C243.129 193.299 242.859 193.339 242.599 193.339Z" fill="black"/>
<path d="M125.769 114.64C134.759 126.58 178.349 144.94 181.909 146.15C189.019 148.57 209.239 146.4 216.189 135.51C231.919 108.48 237.149 87.66 235.359 70.07C230.489 43.25 215.869 14.33 183.479 2.25C140.599 21.81 128.189 -4.52 114.799 9.29C104.309 18.4 86.8794 40.26 83.9394 44.21C73.1894 58.67 48.3594 84.21 62.1794 111.53C65.4794 118.04 76.9594 123.62 88.0694 124.96C87.9294 125.61 122.259 115.97 125.779 114.63L125.769 114.64Z" fill="#2D8C3C"/>
<path d="M149.819 14.7798C142.959 14.7798 136.489 13.6398 131.619 11.5398C127.329 9.68977 124.699 7.25978 124.019 4.51977C123.619 2.90977 124.599 1.28977 126.209 0.889775C127.819 0.489775 129.439 1.46977 129.839 3.07977C129.919 3.41977 130.869 4.68977 133.989 6.03977C141.199 9.14977 160.279 11.9798 180.859 0.389775C182.309 -0.420225 184.129 0.0897748 184.949 1.52977C185.759 2.96977 185.249 4.79977 183.809 5.61977C174.519 10.8598 164.189 13.9798 153.949 14.6498C152.569 14.7398 151.179 14.7898 149.819 14.7898V14.7798Z" fill="black"/>
<path d="M192.619 142.879C186.729 142.879 180.299 141.939 173.449 140.029C161.779 136.779 149.409 129.759 136.689 119.159C135.419 118.099 135.249 116.209 136.309 114.929C137.369 113.659 139.259 113.479 140.539 114.549C152.599 124.599 164.219 131.229 175.069 134.239C194.229 139.569 209.329 136.719 217.599 126.209C226.519 114.869 234.709 81.1795 227.219 54.1995C226.779 52.5995 227.709 50.9495 229.309 50.5095C230.899 50.0695 232.559 50.9995 232.999 52.5995C241.099 81.7895 232.229 117.309 222.309 129.919C215.569 138.489 205.339 142.869 192.629 142.879H192.619Z" fill="black"/>
<path d="M189.19 100.8C188.45 100.8 187.71 100.53 187.13 99.9797C184.66 97.6497 176.2 93.7497 172.58 92.0797C171.85 91.7497 171.24 91.4597 170.77 91.2397C169.27 90.5297 168.63 88.7397 169.34 87.2397C170.05 85.7397 171.84 85.1097 173.34 85.8097C173.79 86.0197 174.39 86.2997 175.09 86.6197C181.37 89.5097 188.31 92.8297 191.25 95.6097C192.45 96.7497 192.51 98.6497 191.37 99.8497C190.78 100.47 189.99 100.79 189.19 100.79V100.8Z" fill="black"/>
<path d="M97.1206 13.7602C86.5106 3.72017 76.1406 12.1602 76.0006 25.1002C75.8606 38.0402 78.8706 55.7302 99.5306 73.5802C103.701 76.1502 118.941 60.1002 129.671 57.2202C129.671 57.2202 103.761 20.0302 97.1206 13.7502V13.7602Z" fill="white"/>
<path d="M94.0098 70.9391C93.3498 70.9391 92.6798 70.7191 92.1298 70.2691C70.3198 52.6291 71.9998 30.8591 73.0398 24.6091C74.5498 15.4691 78.8698 8.86912 84.5898 6.94912C87.8498 5.84912 93.0298 5.75912 99.1898 11.5791C102.48 14.6891 108.55 23.5391 115.59 33.7891C120.57 41.0391 125.71 48.5391 129.98 54.1291C130.99 55.4491 130.73 57.3291 129.42 58.3391C128.11 59.3391 126.22 59.0991 125.21 57.7791C120.85 52.0791 115.66 44.5091 110.64 37.1991C104.37 28.0691 97.8898 18.6191 95.0698 15.9491C92.8698 13.8691 89.5898 11.5991 86.5098 12.6491C83.0398 13.8191 80.0798 18.8991 78.9698 25.6091C78.0698 31.0491 76.6198 50.0291 95.9098 65.6291C97.1998 66.6691 97.3998 68.5591 96.3598 69.8491C95.7698 70.5791 94.8998 70.9591 94.0298 70.9591L94.0098 70.9391Z" fill="black"/>
<path d="M141.98 57.0101C148.3 50.6701 156.84 47.7601 157.63 44.9201C167.56 29.6901 187.21 15.7401 194.55 18.8501C205.57 24.0501 200.09 38.2801 192.22 53.0001C190.26 60.9001 202.51 52.7701 205.08 59.6101C207.65 66.4501 206.28 75.3101 171.62 80.7701C165.31 77.6201 155.75 82.8901 154.67 84.3901C154.67 84.3901 144.49 74.5101 141.98 57.0101Z" fill="white"/>
<path d="M155.41 84.2598C154.89 84.2598 154.5 84.2198 154.28 84.1498C152.71 83.6298 151.86 81.9298 152.38 80.3598C152.83 79.0098 154.14 78.1898 155.5 78.3198C158.26 78.2098 180.94 74.8298 193.3 70.8998C198.98 69.0898 202.96 65.6798 203.52 63.4198C203.66 62.8798 203.61 62.3798 202.95 61.6998C202.42 61.3298 200.04 61.0698 198.61 60.9098C195.03 60.5198 191.32 60.1098 189.61 57.2798C188.97 56.2198 188.42 54.4198 189.44 51.8698C190.38 49.5198 191.5 47.2198 192.69 44.7798C195.21 39.6298 197.81 34.2998 198.36 28.6998C198.56 26.6998 198.62 23.1998 196.86 22.1898C193.97 20.5498 185.14 23.2398 171.93 32.9798C165.44 37.7698 161.43 42.0998 157.89 45.9198C156.01 47.9498 154.24 49.8598 152.25 51.7098C151.04 52.8398 149.14 52.7698 148.01 51.5498C146.88 50.3398 146.95 48.4398 148.17 47.3098C150 45.6098 151.69 43.7798 153.49 41.8398C157.21 37.8198 161.42 33.2698 168.38 28.1398C178.53 20.6598 192.23 12.6398 199.84 16.9698C203.43 19.0098 204.95 23.1498 204.35 29.2798C203.69 35.9598 200.72 42.0398 198.1 47.4098C196.96 49.7398 195.89 51.9398 195.04 54.0798C195.02 54.1198 195.01 54.1598 194.99 54.1998C195.91 54.5598 197.98 54.7898 199.28 54.9298C202.43 55.2698 205.41 55.5998 207.25 57.4798C209.28 59.5498 210.03 62.1598 209.36 64.8498C208.01 70.2698 201.25 74.6498 195.14 76.5998C186.45 79.3598 161.55 84.2498 155.44 84.2498L155.41 84.2598Z" fill="black"/>
<path d="M102.73 23.6591C102.12 23.6591 101.51 23.4791 100.98 23.0891C99.6398 22.1191 99.3298 20.2491 100.31 18.8991C105.39 11.8691 116.64 1.22906 126.81 0.809063C128.49 0.719063 129.86 2.02906 129.93 3.67906C130 5.33906 128.71 6.72906 127.06 6.79906C119.51 7.11906 109.71 16.1291 105.17 22.4191C104.58 23.2291 103.67 23.6591 102.74 23.6591H102.73Z" fill="black"/>
<path d="M86.2691 127.439C79.0991 127.439 73.1591 125.819 68.3491 122.569C60.5491 117.309 55.8891 110.839 54.4691 103.329C51.9091 89.699 60.3991 75.199 68.0891 64.089C69.0291 62.729 70.8991 62.389 72.2591 63.329C73.6191 64.269 73.9591 66.139 73.0191 67.499C66.5391 76.859 58.1791 90.639 60.3591 102.219C61.4791 108.179 65.1891 113.209 71.6991 117.599C80.6391 123.629 95.8191 122.499 116.829 114.229C117.869 113.719 127.119 109.189 135.959 103.689C153.039 93.079 152.279 89.149 152.269 89.109C151.469 85.919 149.769 83.359 147.799 80.399C144.489 75.429 140.379 69.249 139.049 57.679C138.969 57.679 138.879 57.679 138.799 57.679C134.219 57.679 118.759 66.799 109.309 72.369C101.679 76.869 94.4591 81.119 89.2991 83.379C87.7791 84.039 86.0091 83.349 85.3491 81.829C84.6891 80.309 85.3791 78.539 86.8991 77.879C91.7291 75.769 98.7891 71.599 106.269 67.199C126.699 55.159 136.899 49.769 142.119 52.389C143.749 53.209 144.769 54.729 144.989 56.689C146.129 67.029 149.529 72.149 152.819 77.089C154.999 80.369 157.059 83.469 158.109 87.659C159.519 93.259 153.659 99.779 139.109 108.819C129.499 114.789 119.769 119.489 119.359 119.689C119.289 119.719 119.229 119.749 119.159 119.779C106.179 124.899 95.2791 127.449 86.2891 127.449L86.2691 127.439Z" fill="black"/>
</svg>
