<svg width="300" height="258" viewBox="0 0 300 258" fill="none" xmlns="http://www.w3.org/2000/svg">
<path d="M126.701 3.80022C126.701 3.80022 133.691 1.17022 149.691 0.170219C165.691 -0.829781 185.171 4.24022 190.431 9.20022C195.691 14.1602 148.691 24.1702 136.691 19.1702C124.691 14.1702 126.701 3.80022 126.701 3.80022Z" fill="white"/>
<path d="M125.88 254.93C102.8 252.83 84.4399 244.48 75.4299 240.43C69.8799 237.93 61.8799 232.93 62.3499 227.17C62.7599 222.28 63.5099 209.09 71.6299 187.66C90.8699 136.93 93.1899 107.48 96.8699 76.9297C98.2199 65.6897 98.6299 33.5997 112.6 14.9797C118.82 6.68969 127.87 5.92969 127.87 5.92969C139.56 13.3497 161.99 17.0697 181.15 6.63969C192.99 7.06969 200.18 17.2997 215.87 82.9297C229.91 141.64 235.23 150.77 242.87 192.93C244.39 201.32 253.87 233.93 243.87 240.93C239.09 244.27 225.87 227.93 189.87 239.93C172.77 245.63 158.87 257.93 125.87 254.93H125.88Z" fill="#82BE28"/>
<path d="M132.3 257.469C120.95 257.469 108.73 255.599 95.4102 250.649C93.8602 250.069 93.0702 248.349 93.6402 246.789C94.2202 245.239 95.9502 244.439 97.5002 245.019C131.28 257.559 157.99 249.069 181.57 241.569C193.12 237.899 204.03 234.429 214.66 233.799C222.68 233.329 231.12 235.739 235.44 237.219C238.31 238.199 242.16 238.469 244.36 236.289C246.35 234.319 248.84 228.499 243.22 211.719C242.69 210.149 243.54 208.449 245.11 207.919C246.68 207.389 248.38 208.239 248.91 209.809C253.98 224.949 253.88 235.289 248.59 240.539C245.06 244.039 239.42 244.919 233.49 242.889C226.85 240.609 220.11 239.479 215.01 239.779C205.13 240.359 194.57 243.719 183.38 247.279C168.02 252.159 151.38 257.449 132.3 257.449V257.469Z" fill="black"/>
<path d="M242.37 193.34C241.05 193.34 239.85 192.47 239.48 191.14L224.27 136.12C223.83 134.52 224.77 132.87 226.36 132.43C227.96 131.99 229.61 132.93 230.05 134.52L245.26 189.54C245.7 191.14 244.76 192.79 243.17 193.23C242.9 193.3 242.63 193.34 242.37 193.34Z" fill="black"/>
<path d="M135.83 92.44C144.82 104.38 207.96 129.74 211.51 130.95C218.62 133.37 226.95 141.84 233.9 130.95C249.63 103.92 239.72 87.06 235.11 70.07C230.24 43.25 215.62 14.33 183.23 2.25C140.35 21.81 127.94 -4.52 114.55 9.29C104.06 18.4 86.6302 40.26 83.6902 44.21C72.9402 58.67 42.9902 91.93 56.8102 119.26C60.1102 125.77 76.6102 130.09 87.8202 124.96C87.6802 125.61 132.31 93.77 135.82 92.43L135.83 92.44Z" fill="#82BE28"/>
<path d="M118.82 87.9593C132.7 108.109 193.93 147.169 213.49 134.039C216.18 129.109 200.76 104.289 193.54 99.4693C181.96 92.4393 151.06 79.0093 145.24 74.5293C130.01 74.9793 118.82 87.9693 118.82 87.9693V87.9593Z" fill="white"/>
<path d="M149.591 14.7798C142.731 14.7798 136.261 13.6398 131.391 11.5398C127.101 9.68977 124.471 7.25978 123.791 4.51977C123.391 2.90977 124.371 1.28977 125.981 0.889775C127.591 0.489775 129.211 1.46977 129.611 3.07977C129.691 3.41977 130.641 4.68977 133.761 6.03977C140.971 9.14977 160.051 11.9798 180.631 0.389775C182.081 -0.420225 183.901 0.0897748 184.721 1.52977C185.531 2.96977 185.021 4.79977 183.581 5.61977C174.291 10.8598 163.961 13.9798 153.721 14.6498C152.341 14.7398 150.951 14.7898 149.591 14.7898V14.7798Z" fill="black"/>
<path d="M201.79 139.77C193.88 139.77 185.2 137.58 179.41 135.04C170.92 131.31 149.1 118.29 137.49 108.62C136.22 107.56 136.05 105.67 137.11 104.39C138.17 103.12 140.06 102.94 141.34 104.01C152.2 113.06 173.61 125.94 181.83 129.54C190.18 133.21 205.25 135.94 211.83 131.54C213.21 130.62 215.07 130.99 215.99 132.36C216.91 133.73 216.54 135.6 215.17 136.52C211.7 138.84 206.91 139.76 201.8 139.76L201.79 139.77Z" fill="black"/>
<path d="M193.54 102.46C192.8 102.46 192.06 102.19 191.48 101.64C189.23 99.5097 178.43 94.7397 173.82 92.7097C172.36 92.0697 171.2 91.5497 170.54 91.2397C169.04 90.5297 168.41 88.7397 169.12 87.2397C169.83 85.7397 171.62 85.1097 173.12 85.8097C173.75 86.1097 174.86 86.5997 176.25 87.2097C184.52 90.8597 192.83 94.6497 195.61 97.2697C196.81 98.4097 196.87 100.31 195.73 101.51C195.14 102.13 194.35 102.45 193.55 102.45L193.54 102.46Z" fill="black"/>
<path d="M96.8901 13.7602C86.2801 3.72017 75.9101 12.1602 75.7701 25.1002C75.6301 38.0402 78.6401 55.7302 99.3001 73.5802C103.47 76.1502 118.71 60.1002 129.44 57.2202C129.44 57.2202 103.53 20.0302 96.8901 13.7502V13.7602Z" fill="white"/>
<path d="M93.7714 70.9391C93.1114 70.9391 92.4414 70.7191 91.8914 70.2691C70.0914 52.6291 71.7714 30.8591 72.8114 24.6091C74.3214 15.4691 78.6414 8.86912 84.3614 6.94912C87.6214 5.84912 92.8014 5.75912 98.9614 11.5791C102.251 14.6891 108.321 23.5391 115.351 33.7791C120.331 41.0391 125.481 48.5391 129.751 54.1191C130.761 55.4391 130.501 57.3191 129.191 58.3291C127.881 59.3291 125.991 59.0891 124.981 57.7691C120.621 52.0591 115.431 44.4891 110.401 37.1791C104.141 28.0491 97.6614 18.6091 94.8314 15.9391C92.6314 13.8591 89.3514 11.5891 86.2714 12.6391C82.8014 13.8091 79.8414 18.8891 78.7314 25.5991C77.8314 31.0391 76.3814 50.0191 95.6714 65.6191C96.9614 66.6591 97.1614 68.5491 96.1214 69.8391C95.5314 70.5691 94.6614 70.9491 93.7914 70.9491L93.7714 70.9391Z" fill="black"/>
<path d="M86.5696 81.6901C92.8896 75.3501 156.61 47.7601 157.4 44.9201C167.33 29.6901 186.98 15.7401 194.32 18.8501C205.34 24.0501 199.86 38.2801 191.99 53.0001C190.03 60.9001 202.28 52.7701 204.85 59.6101C207.42 66.4501 206.05 75.3101 171.39 80.7701C141.65 72.2901 111.2 127.37 65.4096 110.67C51.6396 100.5 74.4796 83.4801 86.5696 81.6901Z" fill="white"/>
<path d="M80.7997 117.46C74.3397 117.46 68.3097 116.24 63.7397 113.16C62.3697 112.23 61.9997 110.37 62.9297 108.99C63.8597 107.62 65.7197 107.26 67.0997 108.18C77.7397 115.36 102.1 109.52 113.54 102.51C116.89 100.46 120.79 97.8098 124.92 95.0098C134.95 88.1998 146.31 80.4898 154.25 78.4098C154.54 78.3298 154.83 78.2898 156.96 77.9798C163.24 77.0798 182.33 74.3198 193.08 70.8998C198.76 69.0898 202.74 65.6798 203.3 63.4198C203.43 62.8798 203.39 62.3798 202.73 61.6998C202.2 61.3298 199.82 61.0698 198.39 60.9098C194.81 60.5198 191.1 60.1098 189.39 57.2798C188.75 56.2198 188.2 54.4198 189.22 51.8698C190.16 49.5198 191.28 47.2198 192.47 44.7798C194.99 39.6298 197.59 34.2998 198.14 28.6998C198.34 26.6998 198.4 23.1998 196.64 22.1898C193.74 20.5498 184.91 23.2398 171.71 32.9798C165.22 37.7698 161.21 42.0998 157.67 45.9198C155.79 47.9498 154.02 49.8598 152.03 51.7098C150.82 52.8398 148.92 52.7698 147.79 51.5498C146.66 50.3398 146.73 48.4398 147.95 47.3098C149.78 45.6098 151.47 43.7798 153.27 41.8398C156.99 37.8198 161.2 33.2698 168.16 28.1398C178.31 20.6598 192.01 12.6398 199.62 16.9698C203.21 19.0098 204.73 23.1498 204.13 29.2798C203.47 35.9598 200.5 42.0398 197.88 47.4098C196.74 49.7398 195.67 51.9398 194.82 54.0798C194.8 54.1198 194.79 54.1598 194.77 54.1998C195.69 54.5598 197.76 54.7898 199.06 54.9298C202.21 55.2698 205.19 55.5998 207.03 57.4798C209.06 59.5498 209.81 62.1598 209.14 64.8498C207.79 70.2698 201.03 74.6498 194.92 76.5998C183.7 80.1698 164.91 82.8798 157.84 83.8998C156.75 84.0598 156.01 84.1598 155.72 84.2098C148.78 86.0598 137.91 93.4398 128.32 99.9498C124.13 102.79 120.18 105.48 116.71 107.6C108.99 112.33 94.0397 117.44 80.8397 117.44L80.7997 117.46Z" fill="black"/>
<path d="M102.501 23.6591C101.891 23.6591 101.281 23.4791 100.751 23.0891C99.4113 22.1191 99.1013 20.2491 100.081 18.8991C105.161 11.8691 116.411 1.22906 126.581 0.809063C128.261 0.719063 129.631 2.02906 129.701 3.67906C129.771 5.33906 128.481 6.72906 126.831 6.79906C119.281 7.11906 109.481 16.1291 104.931 22.4191C104.341 23.2291 103.431 23.6591 102.501 23.6591Z" fill="black"/>
<path d="M87.8498 83.6303C86.6898 83.6303 85.5898 82.9603 85.0998 81.8303C84.4398 80.3103 85.1298 78.5403 86.6498 77.8803C99.2998 72.3503 129.49 57.3803 137.85 52.2603C139.26 51.3903 141.11 51.8403 141.98 53.2503C142.85 54.6603 142.4 56.5103 140.99 57.3803C132.29 62.7103 102.16 77.6503 89.0598 83.3803C88.6698 83.5503 88.2598 83.6303 87.8598 83.6303H87.8498Z" fill="black"/>
<path d="M226.55 139.78C215.26 139.78 210.8 131.55 205.7 122.15C201.23 113.91 195.66 103.65 183.84 94.3503C182.54 93.3304 182.31 91.4404 183.34 90.1404C184.36 88.8403 186.25 88.6104 187.55 89.6404C200.35 99.7003 206.24 110.56 210.97 119.29C216.8 130.03 219.76 134.73 228.99 133.63C236.59 132.72 239.57 121.68 238.36 98.8803C237.3 78.8603 228.41 47.2903 215.38 29.1203C214.42 27.7703 214.72 25.9003 216.07 24.9303C217.42 23.9603 219.29 24.2703 220.26 25.6203C234.44 45.4003 243.26 77.9604 244.35 98.5603C245.37 117.85 244.43 137.82 229.71 139.58C228.6 139.71 227.55 139.78 226.56 139.78H226.55Z" fill="black"/>
<path d="M55.3297 120.02C54.4697 120.02 53.6197 119.65 53.0197 118.94C41.9597 105.67 49.6997 77.6499 71.0197 53.7599C72.1197 52.5199 74.0197 52.4199 75.2597 53.5199C76.4997 54.6199 76.5997 56.5199 75.4997 57.7599C54.2397 81.5699 49.7197 105.61 57.6297 115.1C58.6897 116.37 58.5197 118.27 57.2497 119.33C56.6897 119.8 56.0097 120.03 55.3297 120.03V120.02Z" fill="black"/>
<path d="M79.8812 244.93C79.5112 244.93 79.1312 244.86 78.7712 244.71C61.7612 237.91 59.0112 229.45 58.8912 225.01C58.7112 218.61 63.9512 203.65 70.2912 186.21C70.8612 184.63 71.4112 183.12 71.9312 181.69C75.4512 171.94 84.2512 145.76 90.0012 113.31C90.2912 111.68 91.8412 110.59 93.4812 110.88C95.1112 111.17 96.2012 112.73 95.9112 114.36C90.0812 147.26 81.1512 173.83 77.5812 183.73C77.0612 185.16 76.5112 186.68 75.9312 188.27C71.4712 200.54 64.7312 219.07 64.8912 224.85C64.9412 226.71 66.2612 233.25 81.0112 239.15C82.5512 239.77 83.3012 241.51 82.6812 243.05C82.2112 244.22 81.0812 244.94 79.8912 244.94L79.8812 244.93Z" fill="black"/>
</svg>
