<svg width="493" height="250" viewBox="0 0 493 250" fill="none" xmlns="http://www.w3.org/2000/svg">
<path d="M230.054 8.72009C238.614 4.62009 271.294 0.410091 293.094 9.05009C262.124 33.5201 229.244 20.0401 230.054 8.72009Z" fill="white"/>
<path d="M339.544 73.5795C339.124 71.4595 339.264 17.0195 293.104 9.04953C285.634 9.57953 272.904 19.0695 262.574 20.8795C252.244 22.6895 235.934 23.3195 228.384 7.76953C219.304 8.24953 206.734 17.0095 197.304 29.8395C175.944 50.3295 172.894 73.2395 161.694 84.0995C151.164 94.3095 136.874 130.65 143.844 141.2C150.804 151.74 161.864 159.3 170.894 166.4C178.634 172.49 179.854 164.09 189.274 151C198.694 137.91 200.914 137.6 205.234 140.05C209.464 142.45 230.564 146.58 240.124 148.33C246.814 153.63 271.694 158.21 272.404 158.3C273.754 158.47 305.424 178.74 327.304 165.78C357.264 148.03 339.984 75.6895 339.564 73.5795H339.544Z" fill="#2D8C3C"/>
<path d="M179.414 163.36C183.804 150.07 200.564 131.86 204.634 134.82C209.574 138.01 231.504 144.37 236.674 147.21C241.844 150.05 249.984 164.09 249.624 172.62C249.264 181.14 243.634 188.42 227.904 186.29C212.174 184.16 210.984 182.3 197.054 171.7C187.894 165.79 179.414 163.36 179.414 163.36Z" fill="white"/>
<path d="M179.954 56.1796C179.504 56.1796 179.044 56.0796 178.614 55.8596C177.134 55.1196 176.524 53.3196 177.264 51.8396C180.714 44.9096 187.804 33.3396 196.394 23.5496C207.064 11.3796 217.074 5.11956 226.164 4.91956C230.234 4.39956 231.994 7.35956 233.294 9.53956C235.454 13.1596 238.694 18.5696 255.384 18.5696C255.804 18.5696 256.234 18.5696 256.684 18.5596C256.764 18.5596 256.844 18.5596 256.924 18.5596C262.784 18.9296 269.544 15.6096 276.104 12.3896C282.504 9.24956 288.514 6.26956 294.174 6.39956C295.834 6.42956 297.144 7.79956 297.114 9.45956C297.084 11.0896 295.744 12.3996 294.114 12.3996C294.034 12.3996 293.944 12.3996 293.854 12.3996C289.714 12.3996 284.384 15.0096 278.744 17.7796C271.524 21.3196 264.054 24.9796 256.664 24.5496C237.094 24.8696 231.694 18.5396 228.144 12.5996C227.764 11.9696 227.264 11.1196 226.974 10.8496C226.944 10.8496 226.904 10.8496 226.854 10.8596C226.714 10.8796 226.574 10.8896 226.424 10.8996C209.654 11.0996 189.674 40.3596 182.624 54.4996C182.104 55.5496 181.044 56.1596 179.934 56.1596L179.954 56.1796Z" fill="black"/>
<path d="M217.543 17.7002L188.093 18.1702C183.603 18.2402 181.053 22.1102 182.423 26.7602L200.523 87.8502C201.903 92.5002 206.703 96.2502 211.203 96.1802L240.653 95.7102C245.143 95.6402 247.693 91.7702 246.323 87.1202L228.223 26.0302C226.843 21.3802 222.043 17.6302 217.543 17.7002Z" fill="black"/>
<path d="M204.394 34.5402L195.274 34.6802C193.304 34.7102 191.194 33.0702 190.594 31.0302L190.194 29.6702C189.594 27.6302 190.704 25.9402 192.684 25.9002L201.804 25.7602C203.774 25.7302 205.884 27.3702 206.484 29.4102L206.884 30.7702C207.484 32.8102 206.374 34.5002 204.394 34.5402Z" fill="#82BE28"/>
<path d="M244.915 75.7401C237.625 74.3901 232.805 81.8501 234.935 88.0501C239.165 100.41 227.205 99.2301 219.495 93.7901C202.665 81.9201 187.785 78.9901 187.945 95.3601C188.105 111.73 231.465 126.58 237.485 129.41C243.495 132.25 257.725 98.3401 257.725 98.3401C251.195 91.7901 256.095 77.8201 244.925 75.7501L244.915 75.7401Z" fill="white"/>
<path d="M310.463 172.97C301.353 172.97 292.843 169.23 279.133 163.22C275.283 161.53 270.923 159.62 266.013 157.55C264.483 156.91 263.773 155.15 264.413 153.62C265.053 152.09 266.813 151.38 268.343 152.02C273.293 154.1 277.683 156.03 281.553 157.73C300.853 166.2 308.073 169.37 321.253 165.06C329.483 162.37 347.823 150.66 340.373 100.2C340.133 98.5603 341.263 97.0403 342.903 96.7903C344.533 96.5403 346.063 97.6803 346.313 99.3203C352.023 138.03 343.573 164.07 323.123 170.76C318.483 172.28 314.423 172.98 310.483 172.98L310.463 172.97Z" fill="black"/>
<path d="M340.055 76.7599C338.495 76.7599 337.175 75.5499 337.065 73.9699C335.245 48.5199 325.265 28.2799 309.675 18.4299C308.275 17.5399 307.855 15.6899 308.745 14.2899C309.635 12.8899 311.485 12.4699 312.885 13.3599C330.355 24.3999 341.065 45.7799 343.055 73.5499C343.175 75.1999 341.925 76.6399 340.275 76.7599C340.205 76.7599 340.125 76.7599 340.055 76.7599Z" fill="black"/>
<path d="M288.624 115.56C287.924 115.56 287.224 115.32 286.664 114.83C285.414 113.75 285.274 111.85 286.364 110.6C292.584 103.43 293.314 92.1103 293.734 75.6603C293.774 74.0003 295.154 72.6802 296.804 72.7402C298.464 72.7802 299.774 74.1602 299.724 75.8102C299.274 93.5602 298.424 105.85 290.894 114.53C290.304 115.21 289.464 115.57 288.624 115.57V115.56Z" fill="black"/>
<path d="M236.733 141.96C236.673 141.96 236.623 141.96 236.563 141.96C234.913 141.87 233.643 140.45 233.733 138.8C233.993 134.11 237.603 129.03 241.773 123.15C245.353 118.11 249.043 112.91 250.513 108.02C253.643 97.5497 257.693 91.9997 262.873 91.0797C266.933 90.3497 271.003 92.6397 274.953 97.8897C281.843 107.05 291.093 111.19 300.033 115.2C303.753 116.87 307.273 118.44 310.643 120.36C312.083 121.18 312.583 123.01 311.773 124.45C310.963 125.89 309.123 126.39 307.683 125.58C304.563 123.8 301.173 122.29 297.583 120.68C288.393 116.56 277.973 111.89 270.163 101.5C267.753 98.2997 265.533 96.6997 263.943 96.9897C262.983 97.1597 259.613 98.5897 256.273 109.75C254.523 115.59 250.353 121.46 246.683 126.64C243.353 131.33 239.903 136.18 239.743 139.15C239.653 140.75 238.333 141.98 236.753 141.98L236.733 141.96Z" fill="black"/>
<path d="M240.463 132.88C240.083 132.88 239.703 132.81 239.333 132.66C235.193 130.97 231.143 129.39 227.223 127.85C203.683 118.65 185.093 111.38 184.933 95.3904C184.853 87.2704 188.213 83.8004 191.043 82.3104C199.693 77.7704 213.663 86.0204 221.203 91.3404C225.533 94.3904 230.693 95.4104 232.243 94.2504C233.043 93.6504 232.973 91.6504 232.073 89.0304C230.623 84.7904 231.553 80.0204 234.513 76.6004C237.273 73.4104 241.253 72.0204 245.443 72.8004C254.343 74.4504 255.973 82.4804 257.163 88.3504C257.823 91.6104 258.453 94.6804 259.933 96.3504C261.033 97.5904 260.923 99.4804 259.683 100.59C258.443 101.69 256.543 101.58 255.443 100.34C252.893 97.4704 252.073 93.4404 251.283 89.5504C250.033 83.3904 249.023 79.5704 244.343 78.7004C241.563 78.1904 239.833 79.6204 239.053 80.5204C237.513 82.3104 236.993 84.8904 237.753 87.0904C240.123 94.0204 238.023 97.4204 235.843 99.0504C231.353 102.42 223.333 100.19 217.743 96.2504C205.053 87.3004 197.063 85.9304 193.823 87.6304C191.853 88.6604 190.883 91.2504 190.923 95.3404C191.043 107.28 207.963 113.9 229.393 122.28C233.333 123.82 237.403 125.41 241.583 127.12C243.113 127.75 243.853 129.5 243.223 131.03C242.753 132.19 241.623 132.9 240.443 132.9L240.463 132.88Z" fill="black"/>
<path d="M124.655 129.6C124.525 129.6 124.395 129.6 124.265 129.58L2.61456 113.84C0.974559 113.63 -0.185441 112.12 0.0245588 110.48C0.234559 108.84 1.74456 107.68 3.38456 107.89L125.035 123.62C126.675 123.83 127.835 125.34 127.625 126.98C127.425 128.49 126.135 129.6 124.655 129.6Z" fill="black"/>
<path d="M140.025 131.58C139.895 131.58 139.765 131.58 139.635 131.56L124.265 129.57C122.625 129.36 121.465 127.85 121.675 126.21C121.885 124.57 123.385 123.41 125.035 123.62L140.405 125.61C142.045 125.82 143.205 127.33 142.995 128.97C142.795 130.48 141.505 131.59 140.025 131.59V131.58Z" fill="black"/>
<path d="M489.195 177.2C489.065 177.2 488.925 177.2 488.795 177.17L338.605 157.04C336.965 156.82 335.815 155.31 336.025 153.67C336.245 152.03 337.765 150.89 339.395 151.09L489.585 171.22C491.225 171.44 492.375 172.95 492.165 174.59C491.965 176.1 490.675 177.19 489.195 177.19V177.2Z" fill="black"/>
<path d="M169.943 167.14C169.133 167.14 168.333 166.82 167.743 166.18C167.243 165.64 165.253 164.32 163.323 163.04C157.543 159.2 148.803 153.41 142.943 145.54C131.493 130.18 142.193 111.94 148.593 101.04C149.413 99.6499 150.183 98.3299 150.793 97.2099C151.563 95.7999 158.673 82.8599 170.853 62.8199C171.713 61.3999 173.563 60.9599 174.973 61.8199C176.393 62.6799 176.843 64.5299 175.973 65.9399C163.863 85.8699 156.813 98.6899 156.053 100.09C155.393 101.3 154.603 102.65 153.763 104.08C147.753 114.32 138.673 129.79 147.753 141.96C152.993 148.99 161.203 154.44 166.643 158.04C169.363 159.85 171.163 161.04 172.153 162.11C173.273 163.33 173.203 165.22 171.983 166.35C171.403 166.88 170.673 167.15 169.943 167.15V167.14Z" fill="black"/>
<path d="M181.155 111.471C180.605 111.471 180.045 111.321 179.545 111.001C171.025 105.571 164.985 103.971 162.085 106.371C160.805 107.431 158.915 107.251 157.865 105.971C156.805 104.691 156.985 102.801 158.265 101.751C166.065 95.2906 178.645 103.311 182.775 105.941C184.175 106.831 184.585 108.691 183.695 110.081C183.125 110.981 182.155 111.471 181.165 111.471H181.155Z" fill="black"/>
<path d="M173.853 168.729C171.963 168.729 170.043 167.989 168.133 166.529C166.813 165.529 166.563 163.639 167.563 162.329C168.563 161.009 170.453 160.759 171.763 161.759C172.733 162.499 173.523 162.819 174.103 162.699C176.063 162.309 178.663 157.799 181.163 153.439C186.283 144.559 193.283 132.389 207.513 128.989C209.113 128.609 210.743 129.599 211.133 131.209C211.513 132.819 210.523 134.439 208.913 134.829C197.203 137.629 191.193 148.059 186.373 156.439C182.763 162.709 179.913 167.659 175.293 168.579C174.813 168.679 174.343 168.719 173.863 168.719L173.853 168.729Z" fill="black"/>
<path d="M230.864 189.381C225.144 189.381 217.754 187.851 208.554 183.111C199.174 178.281 190.944 173.071 180.134 165.141C178.794 164.161 178.514 162.281 179.494 160.951C180.474 159.611 182.354 159.331 183.684 160.311C194.224 168.051 202.224 173.111 211.304 177.791C223.494 184.071 234.654 185.131 241.154 180.631C244.574 178.261 246.254 174.491 245.764 170.281C245.304 166.361 241.464 146.621 210.974 143.531C209.324 143.361 208.124 141.891 208.294 140.241C208.464 138.591 209.924 137.381 211.584 137.561C224.264 138.841 234.364 143.011 241.604 149.951C249.274 157.301 251.244 165.411 251.724 169.581C252.484 176.071 249.874 181.891 244.574 185.561C242.364 187.091 237.874 189.391 230.864 189.391V189.381Z" fill="black"/>
</svg>
