<svg width="493" height="250" viewBox="0 0 493 250" fill="none" xmlns="http://www.w3.org/2000/svg">
<path d="M230.054 8.72009C238.614 4.62009 271.294 0.410091 293.094 9.05009C262.124 33.5201 229.244 20.0401 230.054 8.72009Z" fill="white"/>
<path d="M339.543 73.5795C339.123 71.4595 339.263 17.0195 293.103 9.04953C285.633 9.57953 272.903 19.0695 262.573 20.8795C252.243 22.6895 235.933 23.3195 228.383 7.76953C219.303 8.24953 206.733 17.0095 197.303 29.8395C175.943 50.3295 173.883 65.8695 162.673 76.7295C152.143 86.9395 127.833 109.67 134.793 120.21C141.753 130.75 164.513 104.12 173.543 111.23C181.283 117.32 199.063 133.91 199.063 133.91L315.323 149.51C315.323 149.51 328.553 170.3 339.893 165.11C361.163 150.93 339.963 75.6995 339.543 73.5795Z" fill="white"/>
<path d="M179.413 163.359C180.603 159.749 148.373 151.689 142.823 139.589C134.793 120.209 159.803 114.849 162.203 112.179C167.453 106.339 206.253 135.039 208.283 136.519C213.223 139.709 231.513 144.379 236.683 147.219C241.853 150.059 249.993 164.099 249.633 172.629C249.273 181.149 243.643 188.429 227.913 186.299C212.183 184.169 210.993 182.309 197.063 171.709C187.903 165.799 179.423 163.369 179.423 163.369L179.413 163.359Z" fill="white"/>
<path d="M179.944 56.1794C179.494 56.1794 179.034 56.0794 178.604 55.8594C177.124 55.1194 176.524 53.3194 177.254 51.8394C180.704 44.9094 187.794 33.3394 196.384 23.5494C207.054 11.3794 217.064 5.11939 226.154 4.91939C230.224 4.39939 231.984 7.36939 233.284 9.53939C235.494 13.2494 238.804 18.8594 256.674 18.5594C256.754 18.5594 256.834 18.5594 256.914 18.5594C262.774 18.9394 269.534 15.6094 276.094 12.3894C282.494 9.24939 288.514 6.24939 294.174 6.39939C295.834 6.42939 297.144 7.79939 297.114 9.45939C297.084 11.0894 295.744 12.3994 294.114 12.3994C294.034 12.3994 293.944 12.3994 293.854 12.3994C289.714 12.3994 284.384 15.0094 278.744 17.7794C271.524 21.3194 264.054 24.9894 256.654 24.5494C237.094 24.8594 231.684 18.5394 228.134 12.5994C227.754 11.9694 227.254 11.1194 226.964 10.8494C226.934 10.8494 226.894 10.8494 226.844 10.8594C226.704 10.8794 226.564 10.8894 226.414 10.8994C209.644 11.0994 189.664 40.3594 182.614 54.4994C182.094 55.5494 181.034 56.1594 179.924 56.1594L179.944 56.1794Z" fill="black"/>
<path d="M217.533 17.7002L188.083 18.1702C183.593 18.2402 181.043 22.1102 182.413 26.7602L200.513 87.8502C201.893 92.5002 206.693 96.2502 211.193 96.1802L240.643 95.7102C245.133 95.6402 247.683 91.7702 246.313 87.1202L228.213 26.0302C226.833 21.3802 222.033 17.6302 217.533 17.7002Z" fill="black"/>
<path d="M204.394 34.5402L195.274 34.6802C193.304 34.7102 191.194 33.0702 190.594 31.0302L190.194 29.6702C189.594 27.6302 190.704 25.9402 192.684 25.9002L201.804 25.7602C203.774 25.7302 205.884 27.3702 206.484 29.4102L206.884 30.7702C207.484 32.8102 206.374 34.5002 204.394 34.5402Z" fill="white"/>
<path d="M244.915 75.7401C237.625 74.3901 232.805 81.8501 234.935 88.0501C239.165 100.41 227.205 99.2301 219.495 93.7901C202.665 81.9201 187.785 78.9901 187.945 95.3601C188.105 111.73 231.465 126.58 237.485 129.41C239.745 130.47 313.435 179.28 327.145 166.05C330.225 161 304.935 141.48 293.595 115.96C265.235 109.34 257.725 98.3401 257.725 98.3401C251.195 91.7901 256.095 77.8201 244.925 75.7501L244.915 75.7401Z" fill="white"/>
<path d="M317.624 171.57C305.974 171.57 290.524 162.07 273.034 151.3C261.754 144.36 250.094 137.19 239.304 132.64C237.774 132 237.064 130.24 237.704 128.71C238.344 127.18 240.104 126.47 241.634 127.11C252.854 131.83 264.714 139.13 276.184 146.19C293.704 156.97 311.824 168.12 321.244 165.04C323.574 164.28 325.734 163.2 327.664 161.84C329.024 160.89 330.894 161.21 331.844 162.56C332.794 163.91 332.474 165.79 331.124 166.74C328.704 168.45 326.004 169.8 323.114 170.74C321.394 171.3 319.564 171.56 317.634 171.56L317.624 171.57Z" fill="black"/>
<path d="M340.055 76.7599C338.495 76.7599 337.175 75.5499 337.065 73.9699C335.245 48.5199 325.265 28.2799 309.675 18.4299C308.275 17.5399 307.855 15.6899 308.745 14.2899C309.635 12.8899 311.485 12.4699 312.885 13.3599C330.355 24.3999 341.065 45.7799 343.055 73.5499C343.175 75.1999 341.925 76.6399 340.275 76.7599C340.205 76.7599 340.125 76.7599 340.055 76.7599Z" fill="black"/>
<path d="M293.104 100.049C292.564 100.049 292.024 99.9094 291.534 99.5994C290.124 98.7294 289.684 96.8794 290.554 95.4694C295.784 86.9794 295.784 80.6494 295.314 69.2894C295.244 67.6294 296.534 66.2394 298.184 66.1694C299.844 66.0694 301.234 67.3894 301.304 69.0394C301.794 80.8994 301.794 88.6694 295.664 98.6194C295.094 99.5394 294.114 100.049 293.104 100.049Z" fill="black"/>
<path d="M240.463 132.88C240.083 132.88 239.703 132.81 239.333 132.66C235.193 130.97 231.143 129.39 227.223 127.85C203.683 118.65 185.103 111.38 184.933 95.3904C184.853 87.2704 188.213 83.8004 191.043 82.3104C199.703 77.7604 213.653 86.0204 221.203 91.3404C225.533 94.3904 230.693 95.4104 232.243 94.2504C233.043 93.6504 232.973 91.6504 232.073 89.0304C230.623 84.7904 231.553 80.0204 234.513 76.6004C237.273 73.4104 241.253 72.0204 245.443 72.8004C254.343 74.4504 255.973 82.4804 257.163 88.3504C257.823 91.6104 258.453 94.6804 259.933 96.3504C261.033 97.5904 260.923 99.4804 259.683 100.59C258.443 101.69 256.553 101.58 255.443 100.34C252.893 97.4704 252.073 93.4404 251.283 89.5504C250.033 83.3904 249.023 79.5704 244.343 78.7004C241.563 78.1904 239.833 79.6204 239.053 80.5204C237.513 82.3104 236.993 84.8904 237.753 87.0904C240.123 94.0204 238.023 97.4204 235.843 99.0504C231.353 102.42 223.333 100.19 217.743 96.2504C205.053 87.3004 197.063 85.9204 193.823 87.6304C191.853 88.6604 190.883 91.2504 190.923 95.3404C191.043 107.28 207.963 113.9 229.393 122.28C233.333 123.82 237.403 125.41 241.583 127.12C243.113 127.75 243.853 129.5 243.223 131.03C242.753 132.19 241.623 132.9 240.443 132.9L240.463 132.88Z" fill="black"/>
<path d="M124.655 129.6C124.525 129.6 124.395 129.6 124.265 129.58L2.61456 113.84C0.974559 113.63 -0.185441 112.12 0.0245588 110.48C0.234559 108.84 1.74456 107.68 3.38456 107.89L125.035 123.62C126.675 123.83 127.835 125.34 127.625 126.98C127.425 128.49 126.135 129.6 124.655 129.6Z" fill="black"/>
<path d="M140.025 131.58C139.895 131.58 139.765 131.58 139.635 131.56L124.265 129.57C122.625 129.36 121.465 127.85 121.675 126.21C121.885 124.57 123.395 123.41 125.035 123.62L140.405 125.61C142.045 125.82 143.205 127.33 142.995 128.97C142.795 130.48 141.505 131.59 140.025 131.59V131.58Z" fill="black"/>
<path d="M489.194 177.201C489.064 177.201 488.924 177.201 488.794 177.171L345.654 157.981C344.014 157.761 342.864 156.251 343.074 154.611C343.294 152.971 344.814 151.831 346.444 152.031L489.584 171.221C491.224 171.441 492.374 172.951 492.164 174.591C491.964 176.101 490.674 177.191 489.194 177.191V177.201Z" fill="black"/>
<path d="M181.904 165.72C181.284 165.72 180.654 165.53 180.124 165.13C177.554 163.23 172.834 161.55 167.824 159.78C158.724 156.55 148.414 152.89 142.934 145.54C138.534 139.63 137.014 132.6 138.424 124.63C138.714 123 140.274 121.91 141.904 122.2C143.534 122.49 144.624 124.04 144.334 125.68C143.214 132.04 144.334 137.37 147.754 141.96C152.144 147.85 161.544 151.19 169.844 154.13C175.514 156.14 180.414 157.88 183.704 160.31C185.034 161.3 185.314 163.17 184.334 164.51C183.744 165.3 182.834 165.73 181.924 165.73L181.904 165.72Z" fill="black"/>
<path d="M204.054 137.4C203.504 137.4 202.944 137.25 202.444 136.93C200.254 135.53 197.674 133.49 194.684 131.13C186.834 124.93 176.074 116.44 166.074 115.15C164.434 114.94 163.274 113.43 163.484 111.79C163.694 110.15 165.204 108.99 166.844 109.2C178.494 110.7 190.004 119.79 198.404 126.43C201.264 128.69 203.734 130.64 205.674 131.87C207.074 132.76 207.484 134.62 206.594 136.01C206.024 136.91 205.054 137.4 204.064 137.4H204.054Z" fill="black"/>
<path d="M230.864 189.381C225.144 189.381 217.754 187.851 208.554 183.111C199.174 178.281 190.944 173.071 180.134 165.141C178.794 164.161 178.514 162.281 179.494 160.951C180.474 159.611 182.354 159.331 183.684 160.311C194.214 168.051 202.224 173.111 211.304 177.791C223.494 184.071 234.654 185.131 241.154 180.631C244.574 178.261 246.254 174.491 245.754 170.281C244.654 160.841 236.024 144.191 210.694 141.621C209.044 141.451 207.844 139.981 208.014 138.331C208.184 136.681 209.644 135.471 211.304 135.651C240.424 138.601 250.404 158.361 251.724 169.581C252.484 176.071 249.874 181.891 244.574 185.561C242.364 187.091 237.874 189.391 230.864 189.391V189.381Z" fill="black"/>
<path d="M335.815 168.98C328.795 168.98 321.845 163.46 312.895 151.29C308.865 145.81 305.945 140.33 303.115 135.03C297.635 124.76 293.295 116.62 283.555 113.72C281.415 113.51 269.875 112.09 262.695 105.39C261.485 104.26 261.415 102.36 262.545 101.15C263.675 99.9401 265.575 99.8701 266.785 101C272.995 106.8 284.235 107.75 284.345 107.76C284.545 107.78 284.745 107.81 284.935 107.87C297.305 111.4 302.695 121.51 308.395 132.2C311.125 137.31 313.935 142.59 317.715 147.73C330.055 164.51 335.475 164.01 339.925 161.95C341.475 160.56 344.585 150.24 345.305 131.11C345.975 113.24 344.115 97.2301 340.455 89.3301C339.755 87.8301 340.415 86.0401 341.915 85.3501C343.415 84.6501 345.205 85.3101 345.895 86.8101C352.125 100.25 351.565 125.19 351.255 132.51C350.845 141.96 349.175 164.26 342.555 167.35C340.255 168.42 338.015 168.98 335.795 168.98H335.815Z" fill="black"/>
<path d="M139.684 127.5C137.104 127.5 134.724 126.35 132.734 123.25C126.744 113.9 138.594 100.99 151.144 87.32C157.884 79.98 164.854 72.3801 168.564 65.8101C169.384 64.3701 171.204 63.86 172.654 64.67C174.104 65.48 174.604 67.3101 173.794 68.7601C169.744 75.9401 162.534 83.79 155.564 91.38C145.594 102.24 134.294 114.55 137.784 120.01C139.294 122.37 140.804 122.25 149.234 116.93C157.594 111.66 169.034 104.43 183.764 108.33C185.364 108.75 186.324 110.39 185.894 112C185.464 113.61 183.834 114.56 182.224 114.13C170.014 110.91 160.264 117.06 152.434 122.01C148.254 124.65 143.724 127.5 139.684 127.5Z" fill="black"/>
</svg>
