<svg width="362" height="323" viewBox="0 0 362 323" fill="none" xmlns="http://www.w3.org/2000/svg">
<path d="M81.0043 134.61L88.0531 141.749C88.4736 143.842 89.0643 145.804 89.7852 147.676C90.0656 147.416 90.3459 147.146 90.6263 146.875C97.1444 140.778 103.873 134.82 111.082 129.534C104.273 119.371 106.706 107.456 92.6188 92.0471C83.187 81.7342 54.3711 78.32 48.9543 95.7818C44.7691 109.259 51.3173 128.002 81.0043 134.6V134.61Z" fill="white"/>
<path d="M108.499 129.493C106.857 129.493 105.516 128.171 105.496 126.519C105.305 107.105 92.6697 92.1864 84.7498 87.3504C79.9138 84.3867 74.1967 82.8548 69.4808 83.2152C64.6147 83.5957 63.4533 83.6858 60.5697 86.1489C59.3081 87.2202 57.4157 87.07 56.3344 85.8084C55.2631 84.5469 55.4132 82.6445 56.6748 81.5732C61.0503 77.8585 63.7136 77.6483 69.0102 77.2277C74.9576 76.7672 82.0064 78.6295 87.8837 82.224C96.8949 87.7409 111.283 104.632 111.503 126.469C111.523 128.131 110.192 129.483 108.529 129.503H108.499V129.493Z" fill="black"/>
<path d="M79.2036 137.373C79.0234 137.373 78.8431 137.353 78.6629 137.323C50.7381 132.197 47.0836 114.755 45.7118 108.197C44.4603 102.23 45.1712 96.3222 47.7744 91.1358C48.5153 89.6539 50.3276 89.0532 51.8094 89.7941C53.2913 90.535 53.892 92.3373 53.1511 93.8291C51.1686 97.7941 50.628 102.33 51.5992 106.965C52.9609 113.474 55.8044 127.02 79.7543 131.416C81.3863 131.716 82.4677 133.278 82.1673 134.91C81.8969 136.362 80.6354 137.373 79.2136 137.373H79.2036Z" fill="black"/>
<path d="M73.2757 107.816C72.0041 107.816 70.7625 107.215 69.9815 106.094L0.715219 6.28946C-0.546354 4.4772 -0.0957921 1.97408 1.72648 0.712505C3.54875 -0.549067 6.04186 -0.0884931 7.30343 1.72377L76.5597 101.528C77.8213 103.34 77.3708 105.844 75.5485 107.105C74.8476 107.586 74.0566 107.816 73.2656 107.816H73.2757Z" fill="black"/>
<path d="M185.405 80.342C209.305 75.1055 230.421 76.7075 234.987 77.118C237.179 77.3183 246.481 82.2644 246.481 83.5661C246.481 84.8677 237.27 82.9353 221.45 114.575C205.63 146.214 191.703 187.335 189.891 188.637C181.59 161.153 168.294 108.868 182.822 82.685C183.863 81.6437 185.415 80.352 185.415 80.352L185.405 80.342Z" fill="white"/>
<path d="M260.559 167.451C271.373 195.616 281.605 227.606 283.818 237.408C287.743 254.83 289.826 261.138 285.61 276.517L283.378 290.555C282.396 297.253 288.594 303.1 295.503 300.687C302.411 298.274 301.71 293.118 306.076 290.084C310.441 287.05 319.813 291.426 325.34 299.075C330.877 306.725 342.001 307.436 346.797 307.125C353.605 306.695 359.753 301.859 358.972 294.67C358.191 287.481 349.34 284.407 345.855 282.985C341.961 281.393 329.455 275.506 322.526 266.555C315.918 258.014 303.793 211.386 297.675 187.817L260.559 167.441V167.451Z" fill="white"/>
<path d="M284.547 283.466C284.287 283.466 284.017 283.426 283.756 283.356C282.154 282.915 281.213 281.263 281.654 279.661C285.719 264.813 284.758 255.241 280.883 238.059C278.81 228.858 268.768 197.188 257.754 168.523C257.163 166.971 257.934 165.239 259.486 164.638C261.038 164.047 262.77 164.818 263.371 166.37C274.475 195.286 284.637 227.366 286.75 236.738C290.775 254.59 291.836 265.253 287.451 281.243C287.081 282.575 285.879 283.456 284.557 283.456L284.547 283.466Z" fill="black"/>
<path d="M345.003 310.178C340.077 310.178 328.953 309.187 322.905 300.827C317.769 293.728 309.809 291.135 307.787 292.546C306.555 293.407 305.864 294.569 304.993 296.031C303.491 298.564 301.629 301.718 296.492 303.52C292.397 304.952 288.012 304.201 284.758 301.518C281.444 298.784 279.772 294.409 280.402 290.113C280.643 288.471 282.165 287.34 283.807 287.58C285.449 287.82 286.58 289.342 286.34 290.984C286.009 293.247 286.84 295.45 288.573 296.882C289.534 297.683 291.596 298.864 294.5 297.843C297.564 296.772 298.505 295.18 299.817 292.967C300.858 291.205 302.039 289.212 304.342 287.61C309.489 284.026 320.603 287.41 327.761 297.302C333.148 304.752 345.223 304.201 346.585 304.121C349.699 303.921 352.592 302.589 354.304 300.536C355.626 298.964 356.187 297.092 355.957 294.989C355.416 290.053 348.928 287.46 345.433 286.058L344.693 285.758C341.969 284.647 328.012 278.579 320.122 268.386C313.964 260.426 304.282 225.323 294.74 188.567C280.763 138.444 273.794 124.207 269.639 115.696C268.878 114.144 268.217 112.792 267.616 111.431C266.946 109.919 267.616 108.137 269.138 107.466C270.66 106.795 272.432 107.466 273.103 108.988C273.664 110.259 274.305 111.551 275.036 113.053C279.281 121.743 286.4 136.292 300.537 186.995C305.954 207.861 318.61 256.612 324.868 264.702C331.957 273.873 345.443 279.57 346.955 280.191L347.656 280.471C351.982 282.203 360.983 285.798 361.914 294.329C362.324 298.073 361.273 301.558 358.89 304.391C356.097 307.715 351.741 309.798 346.955 310.098C346.535 310.128 345.854 310.158 344.973 310.158L345.003 310.178Z" fill="black"/>
<path d="M79.0619 149.528C77.6501 143.331 85.1094 139.065 90.4661 136.812C95.8228 134.56 110.671 128.182 117.72 131.276C124.769 134.379 120.634 133.428 122.326 141.038C127.963 129.573 140.719 125.258 142.691 119.611C144.664 113.974 155.117 97.6436 164.979 90.3145C174.841 82.9854 182.12 80.7826 185.394 80.3321C179.357 86.0792 174.591 128.802 180.508 155.586C186.426 182.369 189.73 185.083 189.73 185.083C197.119 170.234 213.409 127.521 217.424 121.043C221.439 114.565 230.39 73.7038 235.166 76.5473C245.399 80.0617 259.256 85.899 264.123 92.3771C267.597 97.0028 285.369 105.533 294.671 142.75C303.972 179.966 318.35 230.89 321.174 237.268C323.687 246.059 327.081 250.614 325.879 254.149C324.808 257.283 321.284 256.732 318.961 258.294C312.813 262.439 293.509 265.663 283.947 265.773C283.346 267.866 282.746 277.147 282.746 277.147C278.23 290.194 220.799 295.4 187.747 267.876C184.924 266.464 184.183 270.719 178.015 273.553C152.583 285.227 144.503 278.819 138.216 275.345C134.571 273.333 137.475 255.641 141.7 241.833C145.925 228.016 149.92 205.007 150.581 181.668C129.204 201.613 122.236 204.737 111.242 203.886C100.248 203.035 87.0719 195.165 79.0619 149.508V149.528Z" fill="#2D8C3C"/>
<path d="M127.061 167.04C125.63 167.04 124.368 166.019 124.108 164.557L123.627 161.823C121.935 152.261 121.535 149.989 117.509 135.33C117.379 134.85 117.289 134.76 117.389 134.349C117.339 134.239 117.219 134.129 117.029 134.019C116.168 133.528 110.811 131.526 90.0753 141.188C88.5634 141.888 86.7812 141.238 86.0803 139.736C85.3794 138.234 86.0303 136.442 87.5321 135.741C104.724 127.731 115.557 125.598 120.633 129.203C122.616 130.604 123.347 132.607 123.407 134.149C127.412 148.727 127.872 151.33 129.534 160.782L130.015 163.505C130.305 165.137 129.214 166.699 127.582 166.99C127.402 167.02 127.232 167.04 127.051 167.04H127.061Z" fill="black"/>
<path d="M111.743 207.02C107.738 207.02 103.743 206.099 99.9287 203.896C87.4631 196.697 77.8311 162.384 76.089 149.949C75.8587 148.307 77.0101 146.785 78.6522 146.555C80.3042 146.324 81.8161 147.476 82.0464 149.118C82.8574 154.935 85.5708 166.059 89.6058 176.722C94.0013 188.327 98.8573 196.327 102.932 198.69C121.045 209.163 147.107 180.627 147.368 180.337C148.479 179.105 150.382 179.005 151.613 180.117C152.845 181.228 152.945 183.12 151.833 184.362C150.842 185.463 131.158 207.02 111.743 207.02Z" fill="black"/>
<path d="M202.938 107.807C197.971 107.807 194.027 107.056 192.024 106.575C184.715 104.833 179.398 101.559 177.796 97.8245C177.146 96.3026 177.846 94.5304 179.368 93.8795C180.89 93.2187 182.662 93.9296 183.313 95.4515C183.844 96.683 187.058 99.2062 193.416 100.728C197.931 101.809 213.711 104.463 226.978 93.3689C228.249 92.3076 230.142 92.4778 231.213 93.7494C232.274 95.021 232.104 96.9133 230.832 97.9847C221.361 105.905 210.848 107.807 202.938 107.807Z" fill="black"/>
<path d="M122.476 141.709C121.545 141.709 120.624 141.278 120.033 140.457C119.062 139.105 119.372 137.233 120.724 136.262C128.704 130.525 142.882 113.053 144.534 109.519C145.234 108.017 147.027 107.366 148.529 108.067C150.03 108.768 150.681 110.56 149.98 112.062C147.828 116.677 132.769 135.01 124.228 141.138C123.698 141.518 123.087 141.699 122.476 141.699V141.709Z" fill="black"/>
<path d="M252.668 290.905C227.927 290.905 197.459 281.763 185.634 270.029C184.453 268.857 184.453 266.955 185.614 265.783C186.786 264.602 188.688 264.602 189.86 265.763C201.915 277.728 237.209 287 261.109 284.477C271.421 283.385 278.56 280.231 281.754 275.345C282.665 273.953 284.528 273.573 285.909 274.474C287.301 275.385 287.692 277.248 286.781 278.629C282.565 285.077 273.905 289.162 261.739 290.454C258.846 290.764 255.802 290.905 252.668 290.905Z" fill="black"/>
<path d="M153.596 282.925C149.811 282.925 146.417 282.285 143.433 281.003C136.715 278.129 134.592 272.993 134.372 272.422C133.701 270.66 133.992 267.466 144.244 216.713C145.226 211.857 146.177 207.161 147.028 202.886C147.979 198.14 147.468 185.394 146.938 171.897C146.768 167.682 146.597 163.356 146.467 159.091C146.417 157.429 147.719 156.047 149.371 155.997C149.401 155.997 149.441 155.997 149.471 155.997C151.083 155.997 152.425 157.279 152.475 158.901C152.615 163.156 152.785 167.471 152.945 171.667C153.516 186.135 154.017 198.62 152.925 204.077C152.064 208.352 151.123 213.048 150.132 217.914C146.237 237.208 140.4 266.074 140.149 270.63C140.62 271.521 142.212 273.984 145.886 275.536C150.272 277.378 158.562 278.29 173.14 272.172C174.672 271.531 176.435 272.252 177.075 273.784C177.716 275.316 176.995 277.078 175.463 277.719C167.163 281.203 159.854 282.945 153.596 282.945V282.925Z" fill="black"/>
<path d="M315.518 220.857C314.286 220.857 313.125 220.096 312.684 218.865C310.001 211.365 307.438 203.916 305.055 196.747C300.479 182.96 296.114 167.971 292.249 154.755C288.885 143.221 285.981 133.268 283.818 127.151C281.976 121.924 271.954 95.441 256.064 87.6413C254.572 86.9103 253.961 85.1081 254.692 83.6263C255.423 82.1344 257.225 81.5236 258.707 82.2545C276.249 90.8553 286.702 117.268 289.485 125.158C291.698 131.426 294.622 141.458 298.016 153.083C301.861 166.249 306.216 181.178 310.752 194.865C313.115 201.994 315.668 209.393 318.341 216.852C318.902 218.414 318.091 220.136 316.519 220.687C316.189 220.807 315.848 220.867 315.508 220.867L315.518 220.857Z" fill="black"/>
<path d="M286.201 269.829C277.07 269.829 275.698 266.815 275.207 265.724C275.077 265.443 274.997 265.153 274.957 264.852C271.573 237.248 253.5 170.505 249.916 157.409C249.475 155.807 250.417 154.155 252.019 153.714C253.611 153.273 255.273 154.215 255.713 155.817C259.278 168.833 277.08 234.595 280.804 263.15C284.799 265.183 307.287 262.8 318.892 254.7C322.566 252.137 324.008 249.644 323.177 247.291C322.767 246.109 321.976 244.007 320.874 241.103C320.013 238.81 318.962 236.017 317.77 232.813C317.19 231.261 317.981 229.528 319.543 228.948C321.095 228.367 322.827 229.158 323.407 230.72C324.599 233.914 325.64 236.697 326.501 238.99C327.613 241.934 328.414 244.067 328.844 245.308C330.306 249.493 330.266 257.513 313.475 264.242C306.777 266.925 298.386 268.928 291.027 269.588C289.215 269.749 287.613 269.829 286.201 269.829Z" fill="black"/>
<path d="M177.906 188.216C177.055 188.216 176.214 187.856 175.623 187.165C160.604 169.613 153.055 139.545 152.985 139.245C152.014 135.31 156.559 129.132 161.065 124.977C156.379 122.284 153.616 118.549 153.466 118.339C152.905 117.568 152.745 116.567 153.035 115.656C155.929 106.604 160.154 99.7758 165.621 92.3065C166.602 90.9648 168.484 90.6744 169.816 91.6557C171.158 92.6369 171.448 94.5092 170.467 95.8509C165.681 102.399 161.916 108.386 159.283 115.916C160.735 117.478 163.758 120.251 167.733 121.293C168.905 121.603 169.776 122.584 169.946 123.786C170.116 124.987 169.546 126.169 168.494 126.789C163.838 129.533 159.022 136.061 158.852 137.923C159.393 140.026 166.572 167.34 180.189 183.25C181.27 184.511 181.12 186.404 179.858 187.485C179.288 187.966 178.597 188.206 177.906 188.206V188.216Z" fill="black"/>
<path d="M189.88 191.641C189.24 191.641 188.619 191.441 188.098 191.05C187.167 190.37 184.714 188.547 181.42 174.62C179.347 165.869 177.635 155.096 176.594 144.262C174.992 127.671 173.66 97.1233 182.721 78.9907C183.462 77.5089 185.265 76.9081 186.747 77.6491C188.228 78.39 188.829 80.1922 188.088 81.6741C182.041 93.7792 179.998 116.057 182.491 142.79C184.203 161.263 187.387 175.221 189.72 181.969C191.442 177.664 193.725 171.216 196.228 164.147C204.088 141.929 214.852 111.511 226.406 94.0195C227.317 92.6377 229.179 92.2573 230.571 93.1684C231.953 94.0795 232.333 95.9419 231.422 97.3336C220.268 114.215 209.645 144.232 201.895 166.159C196.949 180.137 194.286 187.556 192.364 190.34C191.903 191.01 191.192 191.461 190.391 191.601C190.221 191.631 190.061 191.641 189.89 191.641H189.88Z" fill="black"/>
<path d="M188.699 228.757C188.549 228.757 188.398 228.747 188.238 228.727C185.805 228.356 183.692 226.724 182.431 224.251C181.32 222.068 180.939 219.395 181.35 216.702C181.76 214.018 182.932 211.575 184.634 209.823C186.576 207.84 189.089 206.919 191.512 207.29C196.288 208.021 199.322 213.297 198.401 219.315C198.151 220.957 196.609 222.078 194.977 221.828C193.335 221.578 192.213 220.046 192.463 218.404C192.914 215.49 191.662 213.387 190.601 213.227C189.89 213.107 189.199 213.748 188.929 214.028C188.098 214.869 187.507 216.181 187.287 217.613C187.067 219.044 187.247 220.466 187.788 221.528C187.958 221.868 188.448 222.689 189.149 222.789C190.791 223.039 191.913 224.571 191.662 226.213C191.432 227.695 190.151 228.767 188.699 228.767V228.757Z" fill="black"/>
<path d="M203.617 188.217C203.167 188.217 202.716 188.117 202.286 187.906C200.794 187.176 200.193 185.373 200.924 183.881C201.078 183.574 202.072 182.37 203.908 180.267C226.936 153.874 232.944 144.432 234.175 141.078C231.572 137.794 226.326 130.685 226.065 130.335C225.495 129.564 225.334 128.572 225.615 127.661C225.895 126.75 226.606 126.029 227.507 125.719C234.326 123.386 241.054 120.012 241.915 118.49C245.5 111.521 242.296 90.8054 240.764 83.4162C240.423 81.7942 241.475 80.2022 243.097 79.8618C244.719 79.5314 246.311 80.5727 246.651 82.1947C247.262 85.1283 252.448 111.131 247.262 121.233C245.48 124.708 238.481 127.972 233.294 129.994C235.667 133.178 238.701 137.193 239.692 138.335C240.233 138.955 240.503 139.776 240.423 140.597C239.913 146.054 230.341 159.101 208.433 184.212C207.362 185.443 206.341 186.605 206.08 186.925C205.51 187.746 204.579 188.217 203.617 188.217Z" fill="black"/>
<path d="M83.5585 124.317C80.5548 124.317 77.5511 123.526 75.1781 122.034C72.5048 120.352 70.7626 117.919 70.1518 114.975C68.0392 104.843 73.3859 100.707 78.5623 97.6236C79.9841 96.7725 81.8364 97.2431 82.6774 98.6649C83.5285 100.087 83.0579 101.929 81.6361 102.78C76.69 105.724 74.8176 107.896 76.0292 113.744C76.3095 115.065 77.0905 116.137 78.3621 116.938C80.4046 118.219 83.4985 118.64 86.0817 117.999C87.6937 117.588 89.3257 118.58 89.7262 120.182C90.1267 121.784 89.1455 123.426 87.5435 123.826C86.2519 124.147 84.9002 124.307 83.5585 124.307V124.317Z" fill="black"/>
</svg>
