<svg width="370" height="332" viewBox="0 0 370 332" fill="none" xmlns="http://www.w3.org/2000/svg">
<path d="M80.9042 134.444L87.9443 141.574C88.3643 143.664 88.9543 145.624 89.6743 147.494C89.9543 147.234 90.2343 146.964 90.5143 146.694C97.0244 140.604 103.744 134.654 110.945 129.374C104.144 119.224 106.574 107.324 92.5043 91.9333C83.0842 81.6332 54.3039 78.2232 48.8939 95.6634C44.7138 109.124 51.2539 127.844 80.9042 134.434V134.444Z" fill="white"/>
<path d="M146.316 112.823C140.056 117.824 126.246 136.374 122.366 137.674C120.256 134.374 124.956 126.024 108.126 130.774C91.2955 135.524 80.0754 137.674 78.3454 141.134C76.6154 144.594 77.4854 145.454 80.9354 161.844C84.3854 178.234 94.7455 204.994 112.436 203.274C130.126 201.554 148.686 183.424 150.846 182.124C153.006 180.824 158.616 106.533 146.316 112.823Z" fill="#2D8C3C"/>
<path d="M108.365 129.333C106.725 129.333 105.385 128.013 105.365 126.363C105.175 106.973 92.5552 92.073 84.6451 87.2429C79.815 84.2829 74.105 82.7429 69.3949 83.1129C64.5349 83.4929 63.3748 83.5829 60.4948 86.0429C59.2348 87.1129 57.3448 86.9629 56.2648 85.7029C55.1948 84.4429 55.3448 82.5429 56.6048 81.4729C60.9748 77.7628 63.6348 77.5528 68.9249 77.1328C74.865 76.6628 81.905 78.5328 87.7751 82.1229C96.7752 87.6329 111.145 104.503 111.355 126.313C111.375 127.973 110.045 129.323 108.385 129.343H108.355L108.365 129.333Z" fill="black"/>
<path d="M79.1057 137.204C78.9257 137.204 78.7457 137.184 78.5657 137.154C50.6754 132.034 47.0254 114.613 45.6554 108.063C44.4053 102.103 45.1153 96.2032 47.7154 91.0231C48.4554 89.5431 50.2654 88.9431 51.7454 89.6831C53.2254 90.4231 53.8254 92.2231 53.0854 93.7132C51.1054 97.6732 50.5654 102.203 51.5354 106.833C52.8954 113.333 55.7355 126.864 79.6557 131.254C81.2857 131.554 82.3657 133.114 82.0657 134.744C81.7957 136.194 80.5357 137.204 79.1157 137.204H79.1057Z" fill="black"/>
<path d="M73.1851 107.683C71.9151 107.683 70.6751 107.083 69.8951 105.963L0.714335 6.28168C-0.545678 4.47166 -0.0956737 1.97164 1.72435 0.711625C3.54436 -0.548389 6.03439 -0.0883838 7.2944 1.72164L76.4651 101.403C77.7251 103.213 77.2751 105.713 75.4551 106.973C74.7551 107.453 73.9651 107.683 73.1751 107.683H73.1851Z" fill="black"/>
<path d="M126.904 166.833C125.474 166.833 124.214 165.813 123.954 164.353L123.474 161.623C121.784 152.073 121.384 149.803 117.364 135.163C117.234 134.683 117.144 134.593 117.244 134.183C117.194 134.073 117.074 133.963 116.884 133.853C116.024 133.363 110.674 131.363 89.964 141.013C88.464 141.713 86.674 141.063 85.9739 139.563C85.2739 138.063 85.9239 136.273 87.424 135.573C104.594 127.573 115.414 125.443 120.484 129.043C122.464 130.443 123.194 132.443 123.254 133.983C127.254 148.543 127.714 151.143 129.374 160.583L129.854 163.303C130.144 164.933 129.054 166.493 127.424 166.783C127.244 166.813 127.074 166.833 126.894 166.833H126.904Z" fill="black"/>
<path d="M111.605 206.764C107.605 206.764 103.615 205.844 99.8052 203.644C87.3551 196.454 77.735 162.184 75.9949 149.763C75.7649 148.123 76.9149 146.603 78.555 146.373C80.205 146.153 81.715 147.293 81.945 148.933C82.755 154.744 85.465 165.854 89.4951 176.504C93.8851 188.094 98.7352 196.084 102.805 198.444C120.895 208.904 146.926 180.404 147.186 180.114C148.296 178.884 150.196 178.784 151.426 179.894C152.656 181.004 152.756 182.894 151.646 184.134C150.656 185.234 130.996 206.764 111.605 206.764Z" fill="black"/>
<path d="M83.4553 124.163C80.4552 124.163 77.4552 123.373 75.0852 121.883C72.4152 120.203 70.6751 117.773 70.0651 114.833C67.9551 104.713 73.2952 100.583 78.4652 97.5029C79.8952 96.6529 81.7353 97.1229 82.5753 98.5429C83.4253 99.963 82.9553 101.803 81.5353 102.653C76.5952 105.593 74.7252 107.763 75.9352 113.603C76.2152 114.923 76.9952 115.993 78.2652 116.793C80.3052 118.073 83.3953 118.493 85.9753 117.853C87.5853 117.443 89.2153 118.433 89.6153 120.033C90.0153 121.643 89.0353 123.273 87.4353 123.673C86.1453 123.993 84.7953 124.153 83.4553 124.153V124.163Z" fill="black"/>
<path d="M246.467 72.4832C245.797 72.6632 238.917 74.6332 237.147 75.7732C216.327 73.5832 197.226 77.8732 198.246 79.3333C198.176 79.0933 189.746 83.4933 183.456 86.4533C183.456 86.4533 184.646 91.3634 183.636 96.3234C182.626 101.283 175.966 179.114 195.946 199.235C196.626 179.994 227.597 119.754 253.027 82.1833C253.027 82.1833 250.887 75.2932 246.457 72.4832H246.467Z" fill="white"/>
<path d="M193.425 111.363C191.925 117.834 192.125 123.634 194.975 128.984C192.515 129.424 186.215 152.564 184.955 158.464C188.305 179.564 189.785 195.574 191.905 198.204C197.135 177.084 208.015 164.784 207.435 163.324C205.865 144.044 206.905 128.814 206.905 128.814C212.395 124.014 217.765 114.993 217.765 114.993C208.075 106.783 210.375 99.1133 204.495 102.273C198.615 105.433 193.425 111.363 193.425 111.363Z" fill="#82BE28"/>
<path d="M302.378 276.845L341.279 262.685C336.478 242.795 313.748 144.994 307.728 132.694C301.708 120.394 287.858 103.423 268.698 93.1533C254.858 84.8432 248.788 75.8231 248.788 75.8231C235.877 89.9732 203.377 161.054 195.497 198.544C173.327 166.994 188.947 85.9032 188.947 85.9032C190.937 81.1531 183.467 84.5332 177.787 89.4432C173.767 89.8332 154.287 105.463 146.336 112.823L149.386 165.274C152.347 174.894 149.826 214.905 143.676 243.615C137.516 272.325 133.996 288.725 133.966 296.815C133.936 304.905 143.396 308.306 154.787 314.476C166.177 320.646 185.377 322.816 185.377 322.816L196.477 281.645C196.477 281.645 205.807 317.396 209.147 324.106C237.547 334.326 293.048 326.556 308.868 312.796C314.388 308.956 315.578 309.456 311.848 297.005C308.128 284.555 302.408 276.845 302.408 276.845H302.378Z" fill="#2D8C3C"/>
<path d="M298.219 275.765C296.339 282.325 292.249 290.325 294.729 296.585C297.209 302.845 303.269 305.015 309.169 300.765C315.069 296.515 313.679 291.195 321.909 295.025C330.139 298.845 332.659 305.625 334.029 310.685C335.399 315.745 348.449 322.325 355.299 320.835C362.149 319.345 370.429 316.215 365.699 307.015C360.969 297.815 347.349 290.485 343.299 283.815C339.249 277.145 336.869 264.685 337.309 263.625C337.749 262.565 298.229 275.775 298.229 275.775L298.219 275.765Z" fill="white"/>
<path d="M355.03 324.026C353.83 324.026 352.61 323.906 351.4 323.666C348.68 323.126 334.889 319.876 330.519 308.546C327.369 300.376 320.339 295.836 318.039 296.686C316.629 297.196 315.669 298.146 314.459 299.336C312.369 301.396 309.759 303.966 304.339 304.396C300.009 304.726 295.979 302.886 293.519 299.466C291.019 295.976 290.519 291.336 292.219 287.346C292.869 285.816 294.639 285.116 296.159 285.766C297.679 286.416 298.389 288.176 297.739 289.706C296.839 291.806 297.089 294.146 298.389 295.966C299.119 296.986 300.779 298.656 303.859 298.416C307.089 298.166 308.409 296.866 310.239 295.066C311.689 293.636 313.339 292.006 315.979 291.046C321.869 288.906 331.729 295.006 336.109 306.386C339.409 314.956 351.21 317.516 352.55 317.776C355.61 318.386 358.74 317.826 360.92 316.286C362.6 315.106 363.61 313.446 363.93 311.356C364.67 306.456 359.07 302.286 356.05 300.046L355.41 299.566C353.07 297.796 341.139 288.376 336.129 276.516C334.749 273.235 333.869 269.905 333.439 266.335C333.239 264.685 334.419 263.195 336.059 263.005C337.699 262.805 339.199 263.985 339.389 265.625C339.869 269.625 340.909 272.425 341.649 274.175C346.16 284.846 357.72 293.786 359.02 294.766L359.63 295.216C363.37 297.996 371.14 303.766 369.86 312.236C369.3 315.956 367.4 319.046 364.37 321.186C361.74 323.036 358.46 324.006 355.02 324.006L355.03 324.026Z" fill="black"/>
<path d="M303.327 132.744C302.107 132.744 300.957 131.994 300.507 130.774C294.037 113.144 277.037 100.114 262.047 88.6234C256.067 84.0433 250.427 79.7133 246.177 75.5732C244.987 74.4132 244.967 72.5132 246.127 71.3332C247.287 70.1532 249.187 70.1232 250.367 71.2832C254.357 75.1732 259.867 79.4033 265.697 83.8633C280.567 95.2634 299.067 109.444 306.147 128.714C306.717 130.264 305.917 131.994 304.367 132.564C304.027 132.684 303.677 132.744 303.337 132.744H303.327Z" fill="black"/>
<path d="M341.317 265.515C340.217 265.515 339.157 264.904 338.627 263.854C336.107 258.794 325.617 218.614 312.166 166.603C310.656 160.763 309.216 155.183 307.886 150.063C307.466 148.463 308.436 146.823 310.036 146.403C311.636 145.983 313.276 146.953 313.696 148.553C315.026 153.673 316.466 159.253 317.976 165.093C327.367 201.404 341.557 256.274 343.997 261.174C344.737 262.654 344.127 264.454 342.647 265.194C342.217 265.404 341.757 265.515 341.317 265.515Z" fill="black"/>
<path d="M273.276 184.894C271.816 184.894 270.536 183.824 270.316 182.334C269.516 176.924 268.996 172.834 268.736 169.824C267.026 150.184 280.366 135.674 280.936 135.074C282.066 133.864 283.966 133.804 285.176 134.934C286.386 136.064 286.446 137.964 285.316 139.174C285.196 139.304 273.236 152.384 274.716 169.304C274.966 172.144 275.486 176.234 276.256 181.454C276.496 183.094 275.366 184.624 273.726 184.864C273.576 184.884 273.426 184.894 273.286 184.894H273.276Z" fill="black"/>
<path d="M295.028 280.665C293.838 280.665 292.768 280.565 291.848 280.345C291.788 280.335 291.728 280.315 291.678 280.295C285.027 278.295 283.897 268.455 282.457 255.985C282.327 254.805 282.187 253.615 282.037 252.425C281.467 247.645 279.487 236.395 277.197 223.374C275.987 216.514 274.707 209.194 273.507 202.124C273.227 200.494 274.327 198.944 275.967 198.664C277.607 198.394 279.147 199.484 279.427 201.124C280.627 208.174 281.907 215.484 283.107 222.344C285.407 235.455 287.398 246.775 287.988 251.725C288.138 252.935 288.268 254.135 288.408 255.315C289.298 263.015 290.508 273.525 293.318 274.535C299.188 275.795 317.488 270.025 340.068 259.785C341.578 259.105 343.358 259.775 344.038 261.275C344.718 262.785 344.058 264.565 342.548 265.245C331.798 270.115 307.148 280.665 295.018 280.665H295.028Z" fill="black"/>
<path d="M185.045 325.746C168.905 325.746 145.595 318.306 135.995 306.986C133.135 303.616 131.975 300.296 132.545 297.136C133.515 291.755 136.455 275.365 143.665 231.775C148.105 204.915 147.905 189.534 147.685 173.244C147.565 164.394 147.445 155.244 148.055 143.884C148.145 142.224 149.585 140.954 151.215 141.054C152.865 141.144 154.135 142.554 154.045 144.214C153.445 155.374 153.565 164.424 153.685 173.174C153.905 189.734 154.115 205.385 149.585 232.765C142.375 276.395 139.425 292.815 138.455 298.206C138.225 299.486 138.975 301.236 140.575 303.116C147.105 310.826 165.875 319.226 183.295 319.736C186.515 305.846 188.795 295.856 188.795 295.856C189.165 294.236 190.775 293.225 192.385 293.595C194.005 293.965 195.015 295.566 194.645 297.186C194.645 297.186 192.115 308.316 188.595 323.436C188.285 324.776 187.095 325.736 185.715 325.756C185.495 325.756 185.275 325.756 185.045 325.756V325.746Z" fill="black"/>
<path d="M122.327 141.534C121.397 141.534 120.477 141.104 119.887 140.284C118.917 138.933 119.227 137.063 120.577 136.093C128.557 130.363 142.707 112.913 144.357 109.383C145.057 107.883 146.847 107.233 148.347 107.933C149.847 108.633 150.497 110.423 149.797 111.923C147.647 116.533 132.617 134.843 124.077 140.964C123.547 141.344 122.937 141.524 122.327 141.524V141.534Z" fill="black"/>
<path d="M244.066 331.935C228.236 331.935 209.936 329.615 206.686 325.665C203.026 321.205 194.196 287.095 191.576 276.754C191.166 275.144 192.146 273.514 193.746 273.114C195.356 272.714 196.986 273.684 197.386 275.284C202.586 295.815 209.116 318.565 211.226 321.745C216.436 325.125 270.477 332.975 307.707 310.815C309.127 309.965 310.967 310.435 311.817 311.855C312.667 313.275 312.197 315.115 310.777 315.965C289.207 328.805 263.527 331.735 245.786 331.925C245.216 331.925 244.636 331.925 244.056 331.925L244.066 331.935Z" fill="black"/>
<path d="M192.018 202.824C190.868 202.824 189.808 202.164 189.308 201.114C188.608 199.654 172.357 164.634 182.448 100.073C182.708 98.4333 184.248 97.3233 185.878 97.5733C187.518 97.8333 188.638 99.3633 188.378 101.003C183.268 133.694 185.268 158.474 187.848 173.504C189.128 180.974 190.678 186.844 191.978 191.014C201.828 164.724 223.748 115.953 237.588 91.6832C238.408 90.2432 240.238 89.7432 241.678 90.5632C243.118 91.3832 243.618 93.2132 242.798 94.6532C227.858 120.854 202.318 178.474 194.868 200.764C194.478 201.924 193.428 202.734 192.208 202.804C192.148 202.804 192.088 202.804 192.018 202.804V202.824Z" fill="black"/>
<path d="M201.068 208.344C200.778 208.344 200.488 208.304 200.208 208.214C198.618 207.734 197.718 206.064 198.198 204.474C200.148 197.973 210.088 189.663 219.688 181.633C225.358 176.893 233.938 169.723 234.418 167.393C235.008 164.453 230.078 160.963 226.818 158.653C224.158 156.773 222.408 155.533 221.838 153.753C221.508 152.713 221.658 151.613 222.268 150.713C223.558 148.823 226.038 148.673 230.548 148.413C234.658 148.173 241.528 147.763 243.528 145.493C245.058 143.743 245.568 136.883 246.068 130.243C246.808 120.363 247.728 108.063 252.128 97.1924C252.748 95.6524 254.508 94.9224 256.038 95.5324C257.578 96.1524 258.318 97.9024 257.698 99.4424C253.648 109.443 252.768 121.223 252.058 130.693C251.388 139.693 250.898 146.193 248.058 149.443C244.468 153.553 237.158 154.043 231.198 154.393C235.678 157.593 241.598 162.253 240.328 168.593C239.488 172.773 233.708 177.773 223.568 186.253C215.478 193.013 205.408 201.434 203.978 206.214C203.588 207.514 202.398 208.354 201.108 208.354L201.068 208.344Z" fill="black"/>
<path d="M179.847 204.464C178.887 204.464 177.937 204.004 177.357 203.144C171.817 194.963 166.877 183.223 162.107 171.863C161.257 169.833 160.407 167.823 159.577 165.873C157.467 160.933 157.037 157.593 158.177 155.033C159.467 152.123 162.317 151.153 164.827 150.293C166.367 149.763 167.967 149.213 169.347 148.253C169.387 148.223 169.427 148.193 169.457 148.173C168.747 147.093 166.207 145.193 164.637 144.013C161.887 141.943 159.037 139.813 157.697 137.353C153.857 130.303 165.797 99.9825 176.087 86.8823C177.107 85.5823 178.997 85.3523 180.297 86.3723C181.597 87.3923 181.827 89.2824 180.807 90.5824C170.147 104.153 161.407 130.533 162.987 134.523C163.677 135.783 166.097 137.603 168.227 139.203C172.047 142.073 175.667 144.783 175.597 148.443C175.577 149.723 175.067 151.583 172.767 153.183C170.697 154.623 168.517 155.373 166.767 155.973C165.417 156.433 163.887 156.963 163.657 157.483C163.557 157.703 163.167 159.023 165.097 163.533C165.937 165.493 166.787 167.513 167.637 169.553C172.297 180.643 177.127 192.113 182.327 199.794C183.257 201.164 182.897 203.034 181.527 203.964C181.007 204.314 180.427 204.484 179.847 204.484V204.464Z" fill="black"/>
<path d="M207.706 100.263C206.856 100.263 206.016 100.113 205.156 99.7733C201.106 98.1633 198.606 93.0132 196.215 81.4031C195.885 79.7831 196.925 78.1931 198.546 77.8631C200.166 77.5331 201.756 78.5731 202.086 80.1931C204.486 91.8932 206.576 93.8832 207.356 94.1932C208.526 94.6532 211.736 92.4132 214.556 90.4332L215.886 89.5032C219.926 86.6932 223.276 83.7631 226.236 81.1731C230.096 77.7931 233.426 74.883 237.236 73.053C238.726 72.343 240.516 72.963 241.236 74.463C241.956 75.9531 241.326 77.7531 239.826 78.4631C236.756 79.9331 233.706 82.6031 230.176 85.6932C227.106 88.3832 223.616 91.4332 219.306 94.4332L217.996 95.3533C214.286 97.9533 210.986 100.273 207.686 100.273L207.706 100.263Z" fill="black"/>
<path d="M223.546 122.043C222.696 122.043 221.856 121.683 221.266 120.993C217.846 117.003 208.306 106.153 205.196 103.903C203.856 103.903 200.416 108.273 198.766 110.363C197.726 111.683 196.656 113.043 195.586 114.243C194.486 115.483 192.586 115.593 191.346 114.493C190.106 113.393 189.996 111.493 191.096 110.253C192.046 109.183 193.016 107.953 194.046 106.643C198.126 101.473 203.196 95.0431 208.706 99.0431C212.946 102.123 224.506 115.563 225.816 117.093C226.896 118.353 226.746 120.243 225.486 121.323C224.916 121.803 224.226 122.043 223.536 122.043H223.546Z" fill="black"/>
<path d="M207.446 130.953C206.616 130.953 205.816 130.663 205.176 130.103C204.776 129.833 203.096 129.703 201.986 129.613C200.396 129.483 198.586 129.343 196.826 128.813C192.196 127.423 190.866 120.633 192.886 108.643C193.156 107.013 194.706 105.912 196.346 106.182C197.976 106.453 199.086 108.003 198.806 109.643C197.536 117.213 198.006 122.053 198.756 123.133C199.876 123.433 201.196 123.543 202.476 123.643C204.036 123.763 205.636 123.893 207.046 124.403C208.636 122.223 211.446 116.973 213.546 112.473C214.246 110.973 216.026 110.323 217.536 111.023C219.036 111.723 219.686 113.503 218.986 115.013C211.966 130.103 209.426 130.643 208.196 130.893C207.946 130.943 207.696 130.973 207.456 130.973L207.446 130.953Z" fill="black"/>
<path d="M190.917 141.673C190.497 141.673 190.077 141.583 189.677 141.403C188.167 140.713 187.507 138.943 188.187 137.433C191.787 129.513 192.737 124.943 192.747 124.893C193.077 123.273 194.647 122.213 196.277 122.543C197.897 122.863 198.958 124.433 198.638 126.063C198.598 126.273 197.587 131.283 193.657 139.923C193.157 141.033 192.067 141.683 190.927 141.683L190.917 141.673Z" fill="black"/>
<path d="M206.858 164.843C205.198 164.843 203.858 163.493 203.858 161.843L203.908 128.803C203.908 127.143 205.248 125.803 206.908 125.803C208.568 125.803 209.908 127.153 209.908 128.803L209.858 161.843C209.858 163.503 208.518 164.843 206.858 164.843Z" fill="black"/>
</svg>
