<svg width="300" height="268" viewBox="0 0 300 268" fill="none" xmlns="http://www.w3.org/2000/svg">
<path d="M130.24 26.2605C118.9 20.6605 109.27 17.7005 95.2697 31.2405C81.2697 44.7705 65.5097 74.2905 51.9997 79.3005C38.4897 84.3105 33.3997 93.3705 42.5797 99.3405C51.7597 105.31 69.5297 122.89 87.6297 123.36C105.73 123.83 130.23 26.2605 130.23 26.2605H130.24Z" fill="#2D8C3C"/>
<path d="M89.1501 41.7802C88.5201 41.7802 87.8901 41.5802 87.3501 41.1802C86.0201 40.1902 85.7601 38.3102 86.7501 36.9802C93.9901 27.3302 106.63 17.6602 118.66 17.6602C118.75 17.6602 118.84 17.6602 118.93 17.6602C120.59 17.6802 121.91 19.0402 121.89 20.7002C121.87 22.3402 120.53 23.6602 118.89 23.6602C118.81 23.6602 118.73 23.6602 118.65 23.6602C108.75 23.6602 97.6801 32.4002 91.5401 40.5802C90.9501 41.3702 90.0501 41.7802 89.1401 41.7802H89.1501Z" fill="black"/>
<path d="M27.7711 9.72016C20.6411 16.9602 19.0911 27.0002 24.3211 32.1502L29.4011 37.1602C34.6311 42.3102 44.6511 40.6202 51.7811 33.3802C58.9111 26.1402 60.4611 16.1002 55.2311 10.9402L50.1511 5.93016C44.9211 0.780162 34.9011 2.47016 27.7711 9.71016V9.72016Z" fill="white"/>
<path d="M24.3208 35.1601C23.5608 35.1601 22.8008 34.8701 22.2108 34.3001C18.9808 31.1101 17.6408 26.4901 18.4408 21.2701C19.1908 16.4101 21.7408 11.5701 25.6308 7.62007C33.9208 -0.789925 45.8608 -2.49993 52.2608 3.80007C54.5208 6.02007 55.5308 9.05007 55.1708 12.5501C54.5108 19.0801 49.2408 26.3001 41.4108 31.4001C40.0208 32.3001 38.1608 31.9101 37.2608 30.5201C36.3608 29.1301 36.7508 27.2701 38.1408 26.3701C45.2408 21.7501 48.8108 15.8001 49.2008 11.9501C49.3708 10.3001 48.9808 9.00007 48.0508 8.08007C44.0808 4.16007 35.7708 5.88007 29.9108 11.8301C26.9008 14.8901 24.9308 18.5601 24.3808 22.1801C23.8808 25.4401 24.6108 28.2201 26.4308 30.0201C27.6108 31.1801 27.6208 33.0801 26.4608 34.2601C25.8708 34.8601 25.1008 35.1501 24.3208 35.1501V35.1601Z" fill="black"/>
<path d="M37.2404 43.1001C33.4704 43.1001 29.9904 41.8901 27.3904 39.3901C26.6804 38.8001 23.3404 35.9601 21.8704 33.8901C20.9104 32.5401 21.2304 30.6701 22.5804 29.7101C23.9304 28.7501 25.8104 29.0701 26.7604 30.4201C27.5904 31.5901 29.9904 33.7601 31.3004 34.8501C31.3704 34.9001 31.4304 34.9601 31.4904 35.0201C35.4604 38.9301 43.7704 37.2101 49.6304 31.2701C55.4904 25.3201 57.0804 16.9901 53.1104 13.0801L48.0304 8.07006C46.8504 6.91006 46.8404 5.01006 48.0004 3.83006C49.1704 2.65006 51.0604 2.64006 52.2404 3.80006L57.3204 8.81006C63.7204 15.1101 62.1804 27.0801 53.9004 35.4901C48.9904 40.4801 42.7904 43.1101 37.2204 43.1101L37.2404 43.1001Z" fill="black"/>
<path d="M51.68 70.2206C54.29 66.7406 56.31 62.8906 56.97 58.9906C56.9 38.7906 35.16 38.0306 30.56 41.1006C33.45 34.8506 32.32 26.8506 28.28 25.8906C26.45 26.0506 24.63 26.4006 22.85 27.0006C14.81 29.7306 1.00998 41.8806 7.79998 59.7306C13.13 73.7506 28.2 75.8406 28.2 75.8406C28.2 75.8406 32.38 97.4706 39.5 122.041C46.62 146.601 81.55 142.201 81.44 120.611C81.35 102.721 51.68 70.2306 51.68 70.2306V70.2206Z" fill="white"/>
<path d="M61.7288 85.2787C60.8188 85.2787 59.9288 84.8687 59.3388 84.0887C53.2988 76.1187 49.5988 72.3687 49.5588 72.3287C48.5088 71.2687 48.3888 69.5987 49.2788 68.4087C51.8488 64.9787 53.4388 61.6787 53.9888 58.5987C54.6288 49.8887 47.3488 45.3687 45.0988 44.1887C40.3588 41.7087 34.9288 41.3687 32.4688 43.3987C31.3288 44.3387 29.6688 44.3087 28.5688 43.3187C27.4688 42.3387 27.2388 40.6987 28.0388 39.4487C30.3688 35.8487 30.2388 31.8787 28.7788 30.1387C27.5488 28.6687 25.5088 29.1087 24.0088 29.7387C18.1588 32.1887 4.3388 42.1687 10.6088 58.6387C15.2288 70.7687 28.0788 72.7687 28.6188 72.8487C30.2588 73.0887 31.3988 74.5987 31.1588 76.2387C30.9288 77.8787 29.4188 79.0187 27.7788 78.7887C27.0888 78.6887 10.8888 76.2787 4.9888 60.7787C0.818799 49.8087 3.9588 41.3787 7.3288 36.2387C11.3288 30.1287 17.3688 26.0287 21.6888 24.2187C26.2988 22.2887 30.6688 23.0687 33.3788 26.2987C35.5188 28.8487 36.2688 32.4387 35.6588 36.1387C39.4388 35.8187 43.7688 36.7287 47.8788 38.8887C56.1288 43.2087 60.6488 50.8087 59.9588 59.2287C59.9588 59.3187 59.9388 59.3987 59.9288 59.4887C59.3488 62.8987 57.8788 66.4087 55.5388 69.9487C57.2688 71.8687 60.2188 75.3187 64.1188 80.4687C65.1188 81.7887 64.8588 83.6687 63.5388 84.6687C62.9988 85.0787 62.3588 85.2787 61.7288 85.2787Z" fill="black"/>
<path d="M61.4895 141.68C51.5395 141.68 40.4595 136.13 36.6195 122.86C32.4995 108.62 29.3495 95.3602 27.4395 86.7402C27.0795 85.1202 28.0995 83.5202 29.7195 83.1602C31.3395 82.8002 32.9395 83.8202 33.2995 85.4402C35.1895 93.9802 38.3095 107.11 42.3895 121.19C45.7395 132.77 55.8495 136.71 64.3595 135.47C70.8895 134.53 78.4895 130.07 78.4495 120.61C78.4395 118.2 77.7695 115.25 76.4595 111.84C75.8695 110.29 76.6395 108.56 78.1795 107.96C79.7295 107.37 81.4595 108.14 82.0595 109.68C83.6295 113.77 84.4295 117.43 84.4495 120.57C84.4895 129.55 78.5595 139.47 65.2195 141.4C64.0095 141.57 62.7595 141.66 61.4995 141.66L61.4895 141.68Z" fill="black"/>
<path d="M104.021 241.319C103.951 241.319 103.871 241.319 103.801 241.319C102.151 241.199 100.911 239.759 101.031 238.109C101.191 235.989 101.381 233.409 101.601 230.439C103.791 201.099 108.921 132.379 107.151 114.689C105.781 100.909 106.411 83.4393 106.901 74.2593C106.991 72.6093 108.401 71.3293 110.061 71.4293C111.711 71.5193 112.981 72.9293 112.891 74.5893C112.401 83.6093 111.781 100.729 113.121 114.099C114.941 132.309 109.781 201.399 107.581 230.899C107.361 233.869 107.171 236.449 107.011 238.569C106.891 240.149 105.581 241.349 104.021 241.349V241.319Z" fill="black"/>
<path d="M206.1 244.459C204.53 244.459 203.21 243.239 203.11 241.649C201.98 223.929 200.3 208.569 198.81 195.889C197.12 181.499 196.6 129.799 198.99 114.549C199.25 112.909 200.78 111.789 202.42 112.049C204.06 112.309 205.18 113.839 204.92 115.479C202.64 130.009 203.16 181.429 204.77 195.189C206.27 207.949 207.96 223.409 209.1 241.269C209.21 242.919 207.95 244.349 206.3 244.459C206.23 244.459 206.17 244.459 206.11 244.459H206.1Z" fill="black"/>
<path d="M125.65 26.1697C125.65 26.1697 135.62 21.1797 151.59 21.1797C173.54 21.1797 195.49 29.1597 189.17 36.8097C182.85 44.4597 102.38 52.1097 125.65 26.1697Z" fill="white"/>
<path d="M208.39 49.1105C192.39 19.1105 180.42 21.3605 180.42 21.3605C168.75 33.0305 136.67 31.5205 128.06 22.9105C128.06 22.9105 121.61 24.8205 115.39 33.1105C108.82 41.8705 100.25 59.5105 98.8201 74.3105C97.3901 89.1105 86.4901 146.031 86.3401 147.121C76.7801 218.041 64.4301 232.691 76.9001 244.471C101.72 267.921 147.4 267.411 162.91 261.271C194.83 248.631 220.61 255.511 228.67 258.391C230.63 259.091 241.23 249.291 240.7 232.351C233.7 176.351 217.26 65.7405 208.39 49.1105Z" fill="#2D8C3C"/>
<path d="M150.311 35.3306C149.851 35.3306 149.391 35.3306 148.921 35.3106C139.691 35.0506 131.341 32.0606 126.011 27.1106C124.801 25.9806 124.721 24.0806 125.851 22.8706C126.981 21.6606 128.881 21.5906 130.091 22.7106C138.571 30.5806 157.681 32.9006 176.391 21.6706C177.811 20.8206 179.651 21.2806 180.511 22.7006C181.361 24.1206 180.901 25.9606 179.481 26.8206C170.181 32.4006 160.121 35.3306 150.311 35.3306Z" fill="black"/>
<path d="M92.5996 259.21C92.1996 259.21 91.7896 259.13 91.3996 258.96C74.1696 251.44 66.3496 241.99 68.1596 230.86C72.3896 204.75 82.1696 166.08 82.8096 163.55L83.4296 159.8C86.7996 139.38 90.2896 118.26 88.6196 102.66C88.4396 101.01 89.6396 99.5299 91.2796 99.3599C92.9096 99.1899 94.4096 100.38 94.5796 102.02C96.3396 118.43 92.7796 139.96 89.3496 160.77L88.7096 164.64C88.6996 164.73 88.6796 164.81 88.6596 164.9C88.5596 165.3 78.3996 205.21 74.0796 231.81C72.7696 239.89 79.4096 247.17 93.7996 253.45C95.3196 254.11 96.0096 255.88 95.3496 257.4C94.8596 258.53 93.7596 259.2 92.5996 259.2V259.21Z" fill="black"/>
<path d="M104.02 60.3005C104.02 60.3005 81.6601 34.2605 84.0901 70.0005C70.9201 77.1505 69.9301 90.1705 65.5801 94.0005C61.2301 97.8305 56.2001 97.6605 54.8601 100.64C53.5201 103.62 54.3201 119.38 61.7301 122.45C69.1401 125.52 88.7301 130.51 92.6001 140.22C96.4701 149.93 101.58 154.77 112.2 152.22C117.34 150.98 117.41 137.93 132.47 138.69C147.53 139.45 142.17 152.01 145.49 152.39C148.81 152.77 160.04 154.18 163.62 150.01C167.2 145.84 163.8 143.24 173.64 128.22C183.47 113.2 196.81 46.7705 104.01 60.3105L104.02 60.3005Z" fill="white"/>
<path d="M153.33 155.941C150.67 155.941 147.94 155.701 145.39 155.401L145.15 155.371C141.76 154.981 141.32 151.541 141.05 149.481C140.55 145.671 140.09 142.071 132.32 141.681C124.21 141.291 121.61 145.381 119.08 149.351C117.5 151.841 115.86 154.411 112.9 155.131C98.6897 158.551 93.0897 149.551 89.8097 141.331C87.1697 134.711 73.9197 130.031 65.9997 127.231C63.8697 126.481 62.0397 125.831 60.5697 125.221C57.5297 123.961 55.1497 121.231 53.5197 117.101C51.0897 110.961 50.7697 102.401 52.1197 99.4106C53.3097 96.7706 55.7997 95.7506 58.1997 94.7706C60.0097 94.0306 61.8897 93.2606 63.5897 91.7606C64.5797 90.8806 65.6097 88.6606 66.6997 86.3006C69.2197 80.8606 72.6097 73.5306 80.9697 68.3406C80.4297 56.9506 82.4497 50.6906 87.2797 48.7106C94.8297 45.6306 104.43 56.2006 106.28 58.3506C107.36 59.6106 107.21 61.5006 105.96 62.5806C104.71 63.6606 102.81 63.5206 101.73 62.2606C97.8197 57.7206 91.8697 53.3106 89.5597 54.2706C87.9697 54.9206 86.3597 59.3806 87.0697 69.8106C87.1497 70.9806 86.5397 72.0906 85.5097 72.6506C77.6597 76.9106 74.6097 83.5206 72.1497 88.8206C70.7297 91.8906 69.4997 94.5506 67.5597 96.2606C65.0997 98.4306 62.5397 99.4806 60.4797 100.321C59.2797 100.811 57.7997 101.421 57.5897 101.881C56.7097 104.211 57.6597 117.531 62.8697 119.681C64.1897 120.231 65.9597 120.851 67.9997 121.571C77.4497 124.911 91.7297 129.961 95.3797 139.101C99.1597 148.581 103.38 151.251 111.5 149.301C112.1 149.161 113.21 147.411 114.02 146.141C116.81 141.751 121.01 135.101 132.63 135.691C145.4 136.341 146.48 144.691 147.01 148.711C147.04 148.971 147.08 149.281 147.13 149.561C157.44 150.641 160.47 149.101 161.36 148.061C162.29 146.981 162.49 146.141 162.93 144.301C163.7 141.061 164.88 136.161 171.15 126.571C176.13 118.971 181.93 97.1206 172.78 81.0706C164.76 67.0006 147.4 60.4506 121.21 61.6206C119.52 61.6906 118.15 60.4106 118.08 58.7606C118.01 57.1006 119.29 55.7006 120.94 55.6306C149.58 54.3606 168.77 61.9106 177.99 78.1006C188.53 96.6006 182 120.941 176.16 129.861C170.46 138.571 169.47 142.691 168.76 145.691C168.26 147.791 167.78 149.771 165.92 151.961C163.28 155.051 158.45 155.941 153.34 155.941H153.33Z" fill="black"/>
<path d="M118.18 71.4697C116.61 71.4697 115.29 70.2497 115.19 68.6597C115.08 67.0097 116.34 65.5797 117.99 65.4697C118.59 65.4297 132.79 64.5197 140.12 65.3097C141.77 65.4897 142.96 66.9697 142.78 68.6097C142.6 70.2597 141.12 71.4497 139.48 71.2697C132.67 70.5397 118.52 71.4397 118.38 71.4497C118.31 71.4497 118.25 71.4497 118.18 71.4497V71.4697Z" fill="black"/>
<path d="M81.7592 107.401C84.5538 107.401 86.8192 105.136 86.8192 102.341C86.8192 99.5467 84.5538 97.2812 81.7592 97.2812C78.9647 97.2812 76.6992 99.5467 76.6992 102.341C76.6992 105.136 78.9647 107.401 81.7592 107.401Z" fill="black"/>
<path d="M244.311 130.79C247.061 154.65 229.801 175.53 217.111 176.6C207.921 177.37 181.791 175.62 159.471 169.22C139.331 163.45 119.421 167.17 108.331 165.12C97.2408 163.07 104.201 144.85 114.301 140.7C127.461 135.3 140.621 137.15 140.621 137.15C140.621 137.15 145.581 123.19 155.731 123.27C165.891 123.34 161.161 137.82 168.411 144.14C168.411 144.14 189.721 145.49 198.381 142.32C205.221 139.81 208.741 136.42 209.101 132.31C221.021 123.33 244.301 130.8 244.301 130.8L244.311 130.79Z" fill="white"/>
<path d="M260.781 131.049C262.091 129.559 259.291 118.429 256.391 115.459C239.061 97.709 240.371 63.9189 231.221 48.6189C230.301 47.0889 226.281 40.249 225.501 39.069C212.781 19.889 194.111 22.279 185.141 23.549C183.091 24.469 180.431 51.829 182.091 62.469C185.081 81.649 180.601 136.079 198.881 137.309C225.591 119.279 243.091 151.189 260.791 131.049H260.781Z" fill="#2D8C3C"/>
<path d="M209.66 177.869C197.54 177.869 178.8 176.229 158.87 172.159C147.03 169.739 135.67 169.479 125.65 169.259C118.63 169.099 112.57 168.959 107.79 168.079C103.3 167.249 100.4 164.239 99.8297 159.829C98.8597 152.229 105.28 141.619 113.04 137.999C124.79 132.509 134.38 133.009 138.84 133.719C140.96 129.259 146.39 120.279 155.66 120.279H155.76C163.94 120.339 165.2 126.389 166.12 130.809C166.7 133.589 167.25 136.239 169.05 138.249C174.57 138.379 180.84 138.209 182.16 137.709C183.66 136.999 185.43 137.639 186.14 139.139C186.85 140.639 186.2 142.429 184.7 143.149C181.9 144.479 172.84 144.399 167.7 144.219C167.01 144.199 166.35 143.939 165.83 143.479C161.93 140.079 161 135.619 160.25 132.039C159.25 127.249 158.79 126.309 155.72 126.289H155.66C147.89 126.289 143.5 138.059 143.45 138.179C142.91 139.699 141.26 140.519 139.73 140.039C139.64 140.009 129.34 137.019 115.57 143.449C109.68 146.199 105.19 154.479 105.78 159.089C106.01 160.909 106.94 161.839 108.88 162.199C113.19 162.999 119.03 163.129 125.78 163.279C135.54 163.499 147.7 163.779 160.07 166.299C187.75 171.949 209.12 172.269 216.55 171.649C228.06 170.689 239.91 159.609 240.43 137.039C240.47 135.379 241.84 134.079 243.5 134.109C245.16 134.149 246.47 135.519 246.43 137.179C245.83 163.479 231.24 176.449 217.05 177.629C215 177.799 212.51 177.889 209.66 177.889V177.869Z" fill="black"/>
<path d="M249.28 140.92C245.1 140.92 240.86 139.55 236.07 138.01C235.31 137.76 234.53 137.51 233.72 137.26C225.56 134.68 216.09 132.21 206.82 135.58C205.27 136.14 203.54 135.34 202.98 133.79C202.42 132.24 203.22 130.51 204.77 129.95C215.8 125.93 226.43 128.67 235.53 131.55C236.35 131.81 237.15 132.07 237.91 132.31C247.07 135.26 251 136.31 256.4 132.5C259.65 130.21 257.19 124.55 254.16 118.45C253.93 117.99 253.71 117.56 253.51 117.14C245.58 100.92 242.89 92.0395 239.48 80.8095C237.35 73.7795 234.93 65.8095 230.72 54.4795C221.77 30.3495 201.91 22.3195 186.21 25.0695C184.59 25.3495 183.02 24.2695 182.74 22.6295C182.45 20.9995 183.55 19.4395 185.18 19.1595C196.35 17.2095 207.28 19.6795 216.78 26.3295C225.41 32.3695 232.36 41.6295 236.36 52.3995C240.63 63.8995 243.07 71.9595 245.23 79.0795C248.56 90.0595 251.2 98.7295 258.91 114.52C259.11 114.93 259.32 115.35 259.54 115.79C262.55 121.84 267.59 131.97 259.87 137.42C256.21 140 252.77 140.95 249.3 140.95L249.28 140.92Z" fill="black"/>
<path d="M191.531 110.61H191.451C186.541 110.59 179.521 107.93 178.631 104.97C178.231 103.64 178.741 102.23 179.891 101.47C181.271 100.55 183.131 100.93 184.051 102.31C184.091 102.38 184.141 102.45 184.171 102.52C185.651 103.46 190.191 105.34 193.801 104.33C194.371 104.17 194.891 103.94 195.371 103.64C194.521 103.44 193.701 103.17 192.931 102.82C188.061 100.63 185.841 95.9899 187.411 91.2799C188.811 87.0899 194.621 84.5599 199.351 86.0799C202.551 87.1099 205.351 90.0499 205.231 95.3499C205.951 94.6599 206.631 93.7999 207.231 92.7699C208.061 91.3399 209.891 90.8399 211.331 91.6699C212.761 92.4999 213.261 94.3299 212.431 95.7699C210.101 99.7999 206.771 102.21 203.281 103.31C200.991 108.05 196.891 110.61 191.531 110.61ZM196.401 91.6199C194.881 91.6199 193.361 92.4299 193.121 93.1699C192.331 95.5499 194.211 96.8099 195.411 97.3399C196.311 97.7499 197.521 98.0399 198.841 97.9899C199.381 95.8499 199.811 92.5099 197.541 91.7799C197.181 91.6599 196.791 91.6099 196.411 91.6099L196.401 91.6199Z" fill="black"/>
<path d="M133.721 267.71C126.071 267.71 118.581 267.02 111.621 265.63C110.001 265.31 108.941 263.72 109.271 262.1C109.601 260.48 111.181 259.42 112.801 259.75C128.041 262.8 146.041 262.29 162.201 258.36C184.111 253.03 213.801 249.76 227.211 255.17C229.051 255.91 230.511 255.73 231.971 254.58C237.011 250.6 239.601 237.24 237.731 224.8C234.781 205.14 227.841 174.32 227.771 174.02C227.411 172.4 228.421 170.8 230.041 170.43C231.661 170.07 233.261 171.08 233.631 172.7C233.701 173.01 240.691 204.04 243.671 223.92C245.561 236.52 243.411 253.21 235.691 259.3C232.571 261.76 228.771 262.27 224.971 260.74C214.691 256.6 188.891 258.05 163.621 264.2C154.001 266.54 143.731 267.72 133.731 267.72L133.721 267.71Z" fill="black"/>
</svg>
