<svg width="343" height="322" viewBox="0 0 343 322" fill="none" xmlns="http://www.w3.org/2000/svg">
<path d="M45.8229 151.944C37.1322 124.891 37.9222 99.799 31.6917 98.9489C7.28944 92.3583 -7.90194 44.7239 20.6307 34.343C36.9521 28.4025 48.9532 48.5943 56.3039 62.3855C62.9745 63.9757 61.5444 59.3853 70.1552 58.2652C77.9159 57.2551 81.0161 70.9963 63.0445 84.0975C61.8644 96.4586 76.3357 117.841 81.7562 120.351C84.5165 157.364 74.3255 187.457 45.8129 151.934L45.8229 151.944Z" fill="white"/>
<path d="M138.15 77.1769C123.809 81.0973 118.178 84.4776 105.227 95.1786C92.2758 105.88 68.8036 101.819 71.7939 106.88C76.5643 114.96 54.3823 171.226 76.9144 185.867C85.9252 184.737 99.3964 178.376 101.647 179.506C103.897 180.636 141.23 109.3 138.15 77.1769Z" fill="#82BE28"/>
<path d="M114.11 295.607C114.04 295.607 113.96 295.607 113.89 295.607C112.24 295.487 111 294.047 111.12 292.397C111.28 290.277 111.47 287.697 111.69 284.726C113.88 255.384 119.01 186.657 117.24 168.956C115.87 155.174 116.5 137.703 116.99 128.522C117.08 126.862 118.48 125.602 120.151 125.692C121.801 125.782 123.071 127.192 122.981 128.852C122.491 137.873 121.871 154.994 123.211 168.366C125.031 186.577 119.87 255.674 117.67 285.176C117.45 288.147 117.26 290.727 117.1 292.837C116.98 294.417 115.67 295.617 114.11 295.617V295.607Z" fill="black"/>
<path d="M216.198 298.748C214.627 298.748 213.307 297.528 213.207 295.938C212.077 278.216 210.397 262.855 208.907 250.174C207.217 235.782 206.697 184.068 209.087 168.826C209.347 167.186 210.877 166.066 212.517 166.326C214.157 166.586 215.278 168.116 215.018 169.756C212.737 184.288 213.257 235.712 214.868 249.474C216.368 262.235 218.058 277.696 219.198 295.558C219.308 297.208 218.048 298.638 216.398 298.748C216.328 298.748 216.268 298.748 216.208 298.748H216.198Z" fill="black"/>
<path d="M135.743 80.4368C135.743 80.4368 145.714 75.4463 161.685 75.4463C183.637 75.4463 205.589 83.427 199.269 91.0777C192.948 98.7284 112.471 106.379 135.743 80.4368Z" fill="white"/>
<path d="M218.488 103.38C202.487 73.377 190.516 75.6272 190.516 75.6272C178.844 87.2983 146.902 95.179 138.151 77.1773C138.151 77.1773 131.7 79.0875 125.48 87.3783C118.909 96.1391 110.338 113.781 108.908 128.582C107.478 143.383 96.577 200.309 96.427 201.399C86.8661 272.325 74.515 286.976 86.9861 298.757C111.808 322.21 157.493 321.7 173.004 315.559C204.927 302.918 233.459 309.118 241.52 311.999C249.581 314.879 230.209 125.352 218.498 103.38H218.488Z" fill="#82BE28"/>
<path d="M176.747 84.4766C190.828 73.2156 208.279 81.6563 224.621 95.7376C240.962 109.819 264.124 128.721 264.765 130.561C257.694 140.452 247.143 163.884 248.273 177.395C249.403 190.906 244.333 208.928 223.491 190.906C204.339 172.885 194.208 161.054 194.208 161.054L176.747 84.4666V84.4766Z" fill="#82BE28"/>
<path d="M102.689 313.498C102.289 313.498 101.879 313.418 101.489 313.248C84.2574 305.738 76.4367 296.277 78.2468 285.146C82.4772 259.033 92.2581 220.36 92.8982 217.83L93.5182 214.079C96.8885 193.657 100.379 172.535 98.7087 156.934C98.5287 155.284 99.7288 153.804 101.369 153.634C102.999 153.464 104.489 154.654 104.669 156.294C106.429 172.705 102.869 194.237 99.4288 215.059L98.7887 218.93C98.7787 219.02 98.7587 219.1 98.7387 219.19C98.6387 219.59 88.4778 259.503 84.1574 286.106C82.8472 294.186 89.4879 301.467 103.879 307.748C105.399 308.408 106.089 310.178 105.429 311.698C104.939 312.828 103.839 313.498 102.679 313.498H102.689Z" fill="black"/>
<path d="M143.812 321.999C136.162 321.999 128.671 321.309 121.71 319.919C120.09 319.599 119.03 318.009 119.36 316.389C119.69 314.768 121.27 313.708 122.89 314.038C138.132 317.089 156.133 316.579 172.295 312.648C205.308 304.618 228.32 303.497 242.631 309.218C244.172 309.838 244.922 311.578 244.302 313.118C243.691 314.658 241.941 315.409 240.401 314.789C227.29 309.538 205.478 310.748 173.715 318.479C164.094 320.819 153.833 321.999 143.822 321.999H143.812Z" fill="black"/>
<path d="M246.902 186.226C258.843 204.828 281.385 202.538 287.485 174.495C293.586 146.453 297.796 129.261 303.417 127.741C334.05 118.34 344.811 100.969 338.23 82.117C331.649 63.2652 318.668 67.2456 297.686 85.9573C281.245 87.9075 288.135 75.2963 281.295 72.6861C274.464 70.0859 265.423 70.9959 276.024 111.57C281.645 128.491 262.303 137.472 257.393 140.252C249.672 143.123 246.892 186.226 246.892 186.226H246.902Z" fill="white"/>
<path d="M64.1736 170.836C64.0436 170.836 63.9136 170.836 63.7836 170.816C52.7826 169.406 45.0519 161.245 39.4414 145.153C37.9912 140.973 36.8711 135.022 35.691 128.722C35.341 126.852 34.9809 124.941 34.6109 123.041C34.2909 121.411 35.351 119.841 36.9811 119.521C38.6113 119.201 40.1814 120.261 40.5014 121.891C40.8815 123.811 41.2415 125.742 41.5915 127.632C42.7317 133.702 43.8017 139.443 45.1019 143.193C51.3024 160.995 58.7431 164.125 64.5436 164.875C66.1838 165.085 67.3439 166.585 67.1339 168.235C66.9439 169.746 65.6437 170.856 64.1636 170.856L64.1736 170.836Z" fill="black"/>
<path d="M5.05846 63.2552C3.48832 63.2552 2.1682 62.0251 2.06819 60.4349C1.16811 45.7736 8.80881 33.4225 19.8198 31.6923C21.46 31.4423 22.9901 32.5524 23.2501 34.1925C23.5101 35.8327 22.39 37.3628 20.7499 37.6229C12.9392 38.843 7.35868 48.7039 8.05874 60.0649C8.15875 61.7151 6.89863 63.1452 5.24848 63.2452C5.18848 63.2452 5.12847 63.2452 5.05846 63.2452V63.2552Z" fill="black"/>
<path d="M68.0254 83.1482C67.1454 83.1482 66.2753 82.7581 65.6752 82.0181C64.6451 80.7279 64.8551 78.8378 66.1453 77.7977C70.1656 74.5874 73.5459 65.7366 72.0758 62.2663C71.8958 61.8262 71.5058 60.9161 69.0555 61.2362C67.4254 61.4462 65.9052 60.2861 65.6952 58.6459C65.4852 57.0058 66.6453 55.4956 68.2855 55.2856C72.7259 54.7156 76.1062 56.4057 77.5963 59.916C80.3466 66.3966 75.5761 77.9277 69.8956 82.4781C69.3456 82.9181 68.6855 83.1382 68.0254 83.1382V83.1482Z" fill="black"/>
<path d="M255.692 123.852C255.222 123.852 254.742 123.742 254.302 123.502C250.302 121.402 244.761 116.602 237.741 110.531C221.529 96.5097 197.027 75.3178 183.386 83.6486C171.685 90.7992 159.774 93.3494 149.853 90.8292C143.442 89.1991 138.272 85.4687 135.291 80.3383C134.461 78.9081 134.951 77.068 136.382 76.2379C137.812 75.4078 139.652 75.8979 140.482 77.328C142.642 81.0583 146.492 83.7886 151.323 85.0087C159.654 87.1289 169.935 84.8187 180.246 78.5181C197.627 67.8871 223.079 89.9091 241.661 105.981C248.122 111.571 253.702 116.392 257.093 118.182C258.563 118.952 259.123 120.772 258.353 122.232C257.813 123.252 256.772 123.832 255.692 123.832V123.852Z" fill="black"/>
<path d="M77.9563 188.227C75.8661 188.227 74.076 187.876 72.6259 187.066C53.7041 176.495 64.0351 142.022 71.8858 122.411C72.5058 120.87 74.246 120.12 75.7861 120.74C77.3263 121.36 78.0763 123.101 77.4563 124.641C60.2647 167.615 70.3957 178.946 75.5561 181.826C78.4264 183.436 89.2574 180.056 94.4678 178.436C97.1181 177.616 99.3983 176.905 101.038 176.555C102.669 176.215 104.249 177.256 104.589 178.876C104.929 180.496 103.889 182.086 102.269 182.426C100.908 182.706 98.7482 183.386 96.248 184.156C88.9673 186.416 82.6968 188.207 77.9563 188.207V188.227Z" fill="black"/>
<path d="M83.9166 106.289C82.9565 106.289 82.0264 106.169 81.1063 105.919C79.5062 105.479 78.5661 103.829 79.0061 102.229C79.4462 100.629 81.0963 99.6888 82.6965 100.129C87.3569 101.409 95.6677 95.0484 103.008 89.4279C108.569 85.1775 113.819 81.1571 118.55 79.3469C120.1 78.7569 121.83 79.537 122.42 81.0771C123.01 82.6272 122.23 84.3574 120.69 84.9475C116.77 86.4376 111.629 90.3779 106.649 94.1883C98.868 100.139 90.8472 106.279 83.9066 106.279L83.9166 106.289Z" fill="black"/>
<path d="M241.362 203.008C240.882 203.008 240.402 202.968 239.912 202.888C222.78 200.128 214.099 189.817 206.449 180.726C204.279 178.146 202.228 175.716 200.028 173.476C198.868 172.296 198.888 170.395 200.068 169.235C201.248 168.075 203.148 168.095 204.309 169.275C206.659 171.676 208.879 174.316 211.029 176.866C218.36 185.567 225.931 194.568 240.862 196.968C241.722 197.108 242.402 196.888 243.072 196.268C244.832 194.648 245.962 190.757 245.692 187.217C244.852 176.066 245.672 153.724 260.604 129.362C261.474 127.952 263.314 127.502 264.724 128.372C266.134 129.242 266.584 131.082 265.714 132.492C251.663 155.414 250.883 176.336 251.673 186.767C252.013 191.307 250.743 197.368 247.122 200.688C245.452 202.218 243.472 203.008 241.342 203.008H241.362Z" fill="black"/>
<path d="M265.633 201.918C263.443 201.918 261.222 201.458 258.952 200.548C257.412 199.928 256.662 198.188 257.282 196.647C257.902 195.107 259.642 194.357 261.182 194.977C269.383 198.268 275.334 192.077 280.544 184.906C284.985 178.786 288.275 165.345 291.165 153.483C294.826 138.492 297.276 129.121 301.466 125.481C301.786 125.201 302.166 124.991 302.566 124.871C313.547 121.561 336.389 109.429 336.889 93.078C337.159 84.1072 335.099 77.6366 331.069 74.8563C327.909 72.6761 324.368 73.4062 321.948 74.4063C318.118 75.9864 314.557 78.7767 311.117 81.4769C306.497 85.0973 301.726 88.8376 295.936 90.0777C290.305 91.2878 286.635 85.5073 283.404 80.4169C282.194 78.5167 279.374 74.0663 278.244 74.0363C275.404 74.3263 272.724 74.6063 273.724 87.3175C274.004 90.9278 274.774 94.9582 275.574 99.2186C277.804 111.02 280.344 124.391 272.984 133.472C271.943 134.762 270.053 134.962 268.763 133.912C267.473 132.862 267.273 130.981 268.323 129.691C273.934 122.771 271.773 111.36 269.683 100.339C268.843 95.9083 268.053 91.7279 267.743 87.7875C267.033 78.8067 267.153 69.1358 277.624 68.0657C282.394 67.5757 285.465 72.4761 288.465 77.2066C290.205 79.9568 293.115 84.5572 294.676 84.2172C299.106 83.2671 303.146 80.1068 307.417 76.7565C311.177 73.8062 315.077 70.756 319.668 68.8558C325.038 66.6456 330.299 67.0156 334.499 69.9159C340.26 73.8963 343.24 82.187 342.91 93.258C342.34 111.86 319.688 125.751 305.036 130.391C302.216 133.602 299.456 144.893 297.016 154.904C293.845 167.905 290.555 181.356 285.425 188.427C278.834 197.497 272.424 201.908 265.663 201.908L265.633 201.918Z" fill="black"/>
<path d="M243.762 301.488C242.102 301.488 240.761 300.148 240.761 298.488C240.761 290.657 235.111 219.981 229.61 200.169C229.17 198.569 230.1 196.919 231.701 196.479C233.301 196.038 234.951 196.969 235.391 198.569C241.161 219.341 246.762 290.367 246.762 298.488C246.762 300.148 245.422 301.488 243.762 301.488Z" fill="black"/>
<path d="M60.4046 46.405C61.9548 44.1348 65.6351 38.3743 70.9556 40.8545C76.2761 43.3347 81.3866 45.2049 83.7268 42.3146C86.067 39.4244 86.8571 38.7943 87.5371 34.1239C88.2172 29.4535 45.8033 9.22162 31.442 1.55092L25.8015 9.39164C22.1212 15.1522 25.0514 18.5125 31.762 20.1326C38.4727 21.7528 52.1139 32.0837 47.8935 40.0844L60.4046 46.395V46.405Z" fill="white"/>
<path d="M31.442 1.55092L25.8015 9.39164C22.1212 15.1522 25.0514 18.5125 31.762 20.1326C32.6221 20.3426 33.5922 20.6927 34.6223 21.1627C37.4226 17.0923 40.6929 12.0819 43.3531 7.69148C38.6027 5.27126 34.4023 3.14107 31.432 1.55092H31.442Z" fill="#2D8C3C"/>
<path d="M15.9299 69.126C26.8509 58.295 44.8925 41.1834 44.8925 41.1834L60.2739 48.8341C60.2739 48.8341 59.1338 94.1383 58.7138 100.419C58.2937 106.699 55.3134 110.95 50.793 113.18C46.2726 115.41 5.11888 94.5883 3.69875 92.2781C2.27862 89.9679 3.81876 82.3672 8.31917 76.9867C9.43927 75.6366 12.2895 72.7263 15.9299 69.126Z" fill="white"/>
<path d="M31.0824 54.3839C26.662 58.6342 21.8615 63.2747 17.7711 67.305C27.522 74.4557 46.8238 85.0266 59.2249 86.8668C59.4049 81.1263 59.595 74.4257 59.765 68.2451C52.4343 65.3548 37.913 59.3143 31.0824 54.3839Z" fill="#2D8C3C"/>
<path d="M10.6809 77.5674C9.91085 77.5674 9.13077 77.2674 8.55072 76.6774C7.38062 75.4973 7.40062 73.5971 8.58072 72.437C19.4417 61.706 42.5838 39.264 42.8238 39.0339C43.7339 38.1539 45.104 37.9338 46.2442 38.5039L61.6255 46.1546C63.1057 46.8947 63.7157 48.6948 62.9757 50.175C62.2356 51.6551 60.4354 52.2651 58.9553 51.5251L45.4841 44.8245C40.1336 50.0149 22.0319 67.5965 12.8111 76.7074C12.2311 77.2874 11.461 77.5774 10.7009 77.5774L10.6809 77.5674Z" fill="black"/>
<path d="M49.9928 116.341C47.2325 116.341 41.002 114.801 24.8005 107.14C21.1502 105.42 2.87849 96.6793 1.14833 93.8491C-0.681833 90.8688 -0.311799 86.3284 2.16843 81.3879C2.90849 79.9078 4.71866 79.3077 6.19879 80.0478C7.67893 80.7879 8.27898 82.588 7.53892 84.0782C5.82876 87.4985 5.85876 89.6287 6.15879 90.4888C7.91895 91.8389 16.4897 96.5693 27.1907 101.64C41.742 108.53 48.1726 110.331 49.7428 110.351C53.3831 108.45 55.3933 105.04 55.7233 100.22C56.1433 94.0791 57.2734 49.215 57.2834 48.765C57.3234 47.1048 58.7036 45.7747 60.3537 45.8447C62.0139 45.8847 63.324 47.2648 63.274 48.915C63.224 50.7652 62.1339 94.3591 61.7038 100.63C61.2238 107.65 57.8135 113.071 52.113 115.871C51.7029 116.071 51.1529 116.341 50.0028 116.341H49.9928Z" fill="black"/>
<path d="M60.4045 49.4034C59.8245 49.4034 59.2344 49.2334 58.7144 48.8834C57.3442 47.9433 56.9942 46.0831 57.9343 44.713L58.0943 44.473C59.7445 42.0527 64.7649 34.6621 72.2256 38.1324C79.1962 41.3727 80.9664 40.9626 81.4064 40.4226L81.9565 39.7525C83.6166 37.7123 84.0267 37.2223 84.4667 34.412C81.1464 30.4317 58.1243 18.8806 45.5932 12.5901C40.1127 9.83981 35.3822 7.46959 31.9819 5.64942C30.5218 4.86935 29.9717 3.04919 30.7518 1.58905C31.5319 0.128921 33.3521 -0.43113 34.8122 0.358942C38.1425 2.1391 42.8429 4.49932 48.2834 7.22957C83.6966 24.9912 91.1973 29.8416 90.5173 34.5421C89.8072 39.4525 88.8071 40.8526 86.5969 43.5429L86.0668 44.1929C81.9565 49.2734 74.2858 45.7031 69.6954 43.5729C67.6452 42.6228 65.795 43.8229 63.0548 47.8533L62.8847 48.1033C62.3047 48.9534 61.3646 49.4034 60.4045 49.4034Z" fill="black"/>
<path d="M47.8933 43.0936C47.4232 43.0936 46.9432 42.9835 46.4932 42.7435C45.023 41.9735 44.463 40.1533 45.243 38.6931C45.3931 38.4031 45.8631 37.523 44.973 35.5729C42.1428 29.2923 30.2617 21.5916 25.6313 20.4715C24.0211 20.0815 23.031 18.4613 23.4211 16.8512C23.8111 15.241 25.4212 14.2509 27.0414 14.641C32.9819 16.0811 46.6232 24.6619 50.4335 33.1026C52.1637 36.933 51.4436 39.7833 50.5435 41.4934C50.0035 42.5135 48.9634 43.0936 47.8833 43.0936H47.8933Z" fill="black"/>
<path d="M26.4018 47.5448C25.6117 47.5448 24.8316 47.2348 24.2416 46.6247C23.0915 45.4346 23.1215 43.5344 24.3116 42.3843C28.242 38.584 32.4423 31.8234 32.4423 24.2327C32.4423 22.5725 33.7825 21.2324 35.4426 21.2324C37.1028 21.2324 38.4429 22.5725 38.4429 24.2327C38.4429 36.1438 30.8122 44.4345 28.482 46.6947C27.9019 47.2548 27.1519 47.5348 26.4018 47.5348V47.5448Z" fill="black"/>
<path d="M261.344 142.073C260.064 142.073 258.834 141.733 257.664 141.033C256.243 140.183 255.783 138.333 256.633 136.913C257.483 135.492 259.334 135.032 260.754 135.882C261.964 136.612 264.964 134.772 268.134 129.932C269.045 128.542 270.895 128.152 272.285 129.062C273.675 129.972 274.065 131.832 273.155 133.212C269.385 138.983 265.184 142.063 261.344 142.063V142.073Z" fill="black"/>
<path d="M328.079 45.9341C327.349 44.394 323.519 41.9937 321.949 41.0436L301.177 28.5625C296.916 26.0023 291.386 27.3824 288.826 31.6428L261.113 75.8668C258.553 80.1272 266.513 90.2081 268.084 91.1582L293.896 106.1C298.156 108.66 303.687 107.28 306.247 103.019L330.839 61.7155C333.4 57.4551 328.089 45.9341 328.089 45.9341H328.079Z" fill="#2D8C3C"/>
<path d="M262.273 78.1782C261.803 78.1782 261.323 78.0682 260.873 77.8281C259.413 77.0481 258.853 75.2379 259.623 73.7778C260.183 72.7177 260.823 71.6876 261.443 70.6975C261.803 70.1174 262.173 69.5274 262.513 68.9373C263.933 66.5171 266.164 63.0768 268.744 59.1064C273.454 51.8558 279.325 42.835 282.915 35.8043C285.795 30.1738 289.456 26.7135 293.796 25.5034C297.447 24.4933 301.497 25.1934 305.197 27.4936C305.847 27.8936 306.567 28.3436 307.357 28.8237C312.718 32.124 320.819 37.1044 327.359 42.5849C328.629 43.645 328.799 45.5452 327.729 46.8153C326.659 48.0854 324.769 48.2455 323.499 47.1854C317.298 41.9849 309.418 37.1444 304.207 33.9342C303.407 33.4441 302.667 32.9941 302.017 32.584C300.427 31.5939 297.977 30.5638 295.396 31.2739C292.816 31.984 290.336 34.4542 288.256 38.5246C284.515 45.8352 278.565 54.9961 273.774 62.3667C271.234 66.2771 269.034 69.6474 267.694 71.9576C267.324 72.5977 266.934 73.2277 266.534 73.8578C265.944 74.8079 265.384 75.698 264.924 76.578C264.384 77.5981 263.343 78.1782 262.273 78.1782Z" fill="black"/>
<path d="M300.288 110.11C299.758 110.11 299.218 110.02 298.678 109.84L297.378 109.75C295.368 109.67 293.237 108.46 276.676 99.0691L271.635 96.2088C270.105 95.3387 268.685 94.4686 267.435 93.6286C266.055 92.7085 265.695 90.8383 266.615 89.4682C267.535 88.0881 269.405 87.728 270.775 88.6481C271.905 89.4082 273.186 90.1883 274.586 90.9883L279.636 93.8486C290.837 100.199 296.528 103.429 297.848 103.769L299.528 103.88C299.778 103.9 300.028 103.95 300.268 104.02C302.688 103.019 307.919 93.6986 310.769 88.6281C312.719 85.1578 314.559 81.8775 316.27 79.3173C321.89 70.8865 325.53 64.6359 329.221 57.0352C329.941 55.5451 331.741 54.925 333.231 55.6551C334.721 56.3752 335.341 58.1753 334.611 59.6655C330.781 67.5262 327.041 73.9768 321.25 82.6476C319.67 85.0178 317.88 88.1981 315.989 91.5684C310.459 101.419 305.579 110.1 300.268 110.1L300.288 110.11ZM297.718 103.759H297.818C297.818 103.759 297.748 103.759 297.718 103.759Z" fill="black"/>
<path d="M290.516 95.0583C290.136 95.0583 289.756 94.9883 289.386 94.8383C284.375 92.7981 279.795 89.8379 276.455 87.6777C274.664 86.5176 272.974 85.4275 272.174 85.1174C270.634 84.5174 269.874 82.7772 270.474 81.2271C271.074 79.6869 272.814 78.9269 274.364 79.5269C275.724 80.057 277.405 81.1371 279.715 82.6372C283.035 84.7774 287.166 87.4476 291.656 89.2778C293.186 89.9079 293.926 91.658 293.296 93.1882C292.826 94.3483 291.696 95.0583 290.516 95.0583Z" fill="black"/>
<path d="M300.677 91.148C300.097 91.148 299.507 90.978 298.987 90.6279C297.617 89.6878 297.267 87.8277 298.207 86.4575L299.767 84.1773C304.798 76.8367 309.148 70.4861 312.338 64.8656C313.158 63.4255 314.989 62.9154 316.429 63.7355C317.869 64.5556 318.379 66.3857 317.559 67.8259C314.239 73.6764 309.828 80.117 304.718 87.5676L303.158 89.8379C302.577 90.6879 301.637 91.148 300.677 91.148Z" fill="black"/>
</svg>
