<svg width="361" height="376" viewBox="0 0 361 376" fill="none" xmlns="http://www.w3.org/2000/svg">
<path d="M80.3496 116.859C84.6596 109.679 87.1696 102.509 86.4496 95.6887C85.7296 88.8687 90.3996 63.0287 109.06 61.5987C127.72 60.1687 141.72 72.3687 140.28 86.3587C138.56 103.089 133.82 117.579 111.57 122.959L105.11 131.569L80.3496 116.859Z" fill="white"/>
<path d="M111.57 125.958C110.22 125.958 108.99 125.038 108.66 123.658C108.27 122.048 109.26 120.428 110.87 120.038C130.46 115.298 135.51 103.518 137.3 86.0477C137.81 81.0477 135.98 76.1277 132.15 72.1877C126.75 66.6477 118.42 63.8877 109.3 64.5777C104.69 64.9277 100.69 67.1077 97.41 71.0377C90.75 79.0277 89.04 91.5077 89.44 95.3677C90.17 102.338 88.04 109.868 82.93 118.398C82.08 119.818 80.24 120.278 78.81 119.428C77.39 118.578 76.93 116.738 77.78 115.308C82.2 107.938 84.06 101.618 83.47 95.9877C82.9 90.5377 85.04 76.4977 92.79 67.1877C97.14 61.9677 102.54 59.0677 108.83 58.5877C119.74 57.7477 129.8 61.1777 136.44 67.9877C141.54 73.2177 143.96 79.8477 143.26 86.6477C141.53 103.538 136.58 119.978 112.27 125.858C112.03 125.918 111.8 125.938 111.56 125.938L111.57 125.958Z" fill="black"/>
<path d="M318.271 171.938C320.801 163.058 321.881 155.138 320.521 151.538C319.071 147.698 306.131 142.058 303.671 133.348C302.381 128.778 304.081 120.718 305.771 117.258C314.111 100.178 334.961 103.928 345.321 111.838C349.451 114.988 361.441 126.308 357.431 149.488C356.581 154.398 355.131 162.678 352.931 172.488C349.161 189.268 313.061 190.198 318.261 171.938H318.271Z" fill="white"/>
<path d="M164.541 145.488C181.571 134.738 224.581 128.908 247.881 147.728C228.611 169.678 164.541 145.488 164.541 145.488Z" fill="white"/>
<path d="M118.49 152.689C130.77 150.939 159.89 140.069 169.54 138.759C179.19 137.449 180.66 134.569 205.07 144.899C216.48 149.729 228.76 138.759 235.78 138.319C242.8 137.879 268.52 134.269 299.22 186.029C299.22 186.029 301.86 171.329 306.24 169.799C310.62 168.269 312.6 169.499 325.98 174.189C334.75 177.259 342.21 170.679 348.35 170.239C354.49 169.799 362.39 172.869 354.49 196.999C354.49 196.999 347.47 229.459 331.24 240.869C315.01 252.279 294.83 247.449 283.42 237.799C286.05 276.399 292.63 304.039 299.21 330.799C304.04 357.559 298.77 359.749 273.77 366.769C248.77 373.789 208.84 364.579 197.88 360.629C186.92 356.679 150.2 347.709 130.81 349.329C115.6 350.599 111.84 343.719 115.19 334.249C131.35 297.089 148.61 229.809 146.42 199.979C146.42 199.979 145.71 199.269 137.38 200.579C127.3 202.169 102.72 210.229 88.2503 208.479C73.7803 206.729 50.0403 197.439 50.9203 172.439C51.2303 163.629 67.5903 121.549 69.7803 118.479C71.9703 115.409 78.9903 114.969 86.4503 121.549C93.9103 128.129 116.28 139.539 122.86 136.899C125.49 141.729 118.47 152.689 118.47 152.689H118.49Z" fill="white"/>
<path d="M353.24 172.909C353.02 172.909 352.79 172.879 352.56 172.829C350.95 172.459 349.94 170.839 350.32 169.229C351.39 164.619 351.69 161.759 351.98 158.989C352.1 157.889 352.21 156.809 352.36 155.679C352.58 154.039 354.1 152.889 355.74 153.109C357.38 153.329 358.53 154.849 358.31 156.489C358.16 157.559 358.06 158.579 357.95 159.619C357.65 162.429 357.32 165.619 356.16 170.589C355.84 171.979 354.6 172.909 353.24 172.909Z" fill="black"/>
<path d="M318.56 172.908C318.33 172.908 318.1 172.878 317.86 172.828C316.25 172.448 315.25 170.828 315.63 169.218C316.94 163.708 318.53 156.008 317.28 152.688C317.02 151.998 314.78 150.488 313.29 149.488C309.68 147.068 304.75 143.748 302.22 138.118C297.18 126.868 300.27 116.078 310.91 107.758C318.89 101.518 330.19 100.638 340.41 105.468C352.52 111.188 360.25 123.358 360.59 137.238C360.63 138.898 359.32 140.268 357.66 140.308C355.98 140.338 354.63 139.038 354.59 137.378C354.25 123.518 345.72 114.608 337.84 110.888C329.69 107.038 320.78 107.648 314.6 112.478C306.1 119.128 303.78 126.928 307.69 135.658C309.51 139.718 313.29 142.258 316.62 144.498C319.47 146.418 321.94 148.068 322.88 150.558C324.33 154.408 323.92 160.208 321.46 170.588C321.13 171.968 319.9 172.898 318.54 172.898L318.56 172.908Z" fill="black"/>
<path d="M291.16 175.478C290.01 175.478 288.92 174.818 288.42 173.708C286.34 169.078 269.15 150.648 250.66 143.948C242.39 140.958 235.27 140.878 229.48 143.708C209.3 153.578 198.89 147.648 191.99 143.718C189.99 142.578 188.27 141.598 186.83 141.308C172.96 138.548 157.84 143.808 143.21 148.898C135.54 151.568 128.29 154.098 121.53 155.328C119.91 155.628 118.34 154.548 118.04 152.918C117.74 151.288 118.82 149.728 120.45 149.428C126.75 148.278 133.79 145.828 141.24 143.238C155.91 138.128 172.53 132.348 188 135.428C190.39 135.908 192.61 137.168 194.96 138.508C201.44 142.198 209.51 146.798 226.84 138.318C234.14 134.748 242.84 134.738 252.7 138.318C272.33 145.418 290.95 164.688 293.9 171.258C294.58 172.768 293.9 174.548 292.39 175.218C291.99 175.398 291.57 175.478 291.16 175.478Z" fill="black"/>
<path d="M331.051 243.558C330.031 243.558 329.031 243.038 328.471 242.088C327.621 240.668 328.091 238.818 329.521 237.978C338.031 232.928 343.681 220.298 351.131 198.768C355.131 187.208 355.911 177.478 353.051 174.578C351.841 173.348 349.561 173.258 346.281 174.318C329.431 179.788 323.821 177.468 318.241 173.858C316.001 172.408 314.231 171.268 310.611 171.258C305.281 171.258 303.061 181.848 300.701 193.068C299.771 197.498 298.811 202.078 297.571 206.488C297.121 208.088 295.461 209.008 293.871 208.558C292.281 208.108 291.351 206.448 291.801 204.858C292.991 200.648 293.931 196.168 294.841 191.838C297.711 178.168 300.421 165.258 310.611 165.258H310.631C316.021 165.258 318.931 167.148 321.511 168.818C325.341 171.298 328.961 173.628 344.441 168.608C351.441 166.338 355.321 168.318 357.341 170.368C363.751 176.908 359.761 192.198 356.801 200.728C348.701 224.118 342.731 237.108 332.591 243.138C332.111 243.428 331.581 243.558 331.061 243.558H331.051Z" fill="black"/>
<path d="M308.231 250.538C291.501 250.538 275.671 239.648 258.841 216.728C257.861 215.388 258.151 213.518 259.481 212.538C260.811 211.558 262.691 211.848 263.671 213.178C280.871 236.608 296.511 246.468 312.851 244.218C314.481 243.988 316.001 245.138 316.231 246.778C316.461 248.418 315.311 249.938 313.671 250.158C311.851 250.408 310.031 250.538 308.231 250.538Z" fill="black"/>
<path d="M249.26 371.798C233.76 371.798 217.8 369.618 204.71 365.648C166.69 354.128 153.42 352.408 145.18 353.388C143.53 353.568 142.04 352.408 141.85 350.758C141.66 349.108 142.83 347.618 144.48 347.428C153.72 346.338 167.31 348.048 206.46 359.908C236.2 368.918 277.11 367.418 292.3 356.758C295.91 354.228 297.83 351.318 297.99 348.118C298.46 339.158 295.07 325.078 291.13 308.778C285.97 287.408 280.13 263.188 280.72 241.388C280.76 239.728 282.19 238.428 283.8 238.468C285.46 238.508 286.76 239.888 286.72 241.548C286.15 262.558 291.9 286.368 296.96 307.368C301 324.128 304.49 338.598 303.98 348.428C303.71 353.558 300.94 358.008 295.74 361.658C287.41 367.508 272.87 371.078 254.82 371.698C252.98 371.758 251.12 371.788 249.27 371.788L249.26 371.798Z" fill="black"/>
<path d="M128.94 352.409C123.23 352.409 118.7 350.369 116.05 346.539C111.57 340.079 112.91 329.169 120.02 314.119C132.18 288.389 146.39 202.809 144.31 186.709C144.1 185.069 145.26 183.559 146.9 183.349C148.55 183.149 150.05 184.299 150.26 185.939C152.5 203.289 138.1 289.899 125.44 316.679C117.4 333.689 119.19 340.549 120.97 343.119C123.26 346.419 127.96 346.549 130.55 346.329C132.22 346.179 133.65 347.419 133.79 349.069C133.93 350.719 132.7 352.169 131.05 352.309C130.33 352.369 129.62 352.399 128.93 352.399L128.94 352.409Z" fill="black"/>
<path d="M93.2398 211.519C79.5298 211.519 66.8498 207.239 58.1098 199.409C50.4498 192.549 46.5898 183.679 46.9398 173.749C47.3198 163.109 58.7498 132.849 66.6898 118.869C68.1998 116.219 70.3098 114.549 72.9598 113.909C79.6198 112.299 87.7398 117.599 97.1298 123.729C105.72 129.339 115.44 135.699 121.89 134.309C123.51 133.969 125.11 134.989 125.45 136.609C125.79 138.229 124.77 139.819 123.15 140.169C114.26 142.069 103.89 135.299 93.8598 128.739C86.6698 124.049 78.5298 118.719 74.3798 119.729C73.7498 119.879 72.7998 120.269 71.9198 121.829C62.4998 138.399 53.2098 166.439 52.9398 173.959C52.6498 182.039 55.8198 189.299 62.1098 194.929C71.4598 203.309 86.8298 207.109 102.2 204.849C106.61 204.199 112.5 202.699 118.2 201.249C125.99 199.269 132.72 197.559 136.25 197.789C137.9 197.899 139.15 199.329 139.04 200.979C138.93 202.629 137.5 203.889 135.85 203.769C133.28 203.579 126.05 205.439 119.68 207.059C113.83 208.549 107.79 210.089 103.07 210.779C99.7598 211.269 96.4698 211.499 93.2398 211.499V211.519Z" fill="black"/>
<path d="M109.241 175.498C108.571 175.498 107.901 175.278 107.341 174.818C106.061 173.768 105.871 171.878 106.921 170.598C112.291 164.038 113.591 159.868 114.971 155.458C115.711 153.088 116.481 150.628 117.871 147.858C118.611 146.378 120.421 145.778 121.901 146.518C123.381 147.258 123.981 149.068 123.241 150.548C122.071 152.878 121.411 154.998 120.711 157.248C119.291 161.788 117.691 166.938 111.581 174.398C110.991 175.118 110.131 175.498 109.261 175.498H109.241Z" fill="black"/>
<path d="M134.921 114.957C138.531 115.647 146.181 105.957 142.751 100.387C126.421 85.0471 75.2607 37.6171 64.8507 32.5271C59.6707 28.4571 54.5107 23.9771 42.2807 37.0771C30.0407 50.1871 21.2107 74.5571 25.0407 85.4571C28.8707 96.3571 33.8607 96.6271 37.6707 97.3271C41.4807 98.0271 75.4307 104.847 85.6607 106.557C96.4807 108.367 134.921 114.947 134.921 114.947V114.957Z" fill="#2D8C3C"/>
<path d="M136.89 116.869C135.93 116.869 135.02 116.579 134.25 116.009C132.92 115.029 132.63 113.149 133.61 111.819C134.39 110.759 135.73 110.359 136.92 110.729C137.45 110.339 138.53 109.279 139.64 107.039C140.82 104.679 140.89 103.239 140.82 102.749C139.53 101.959 139.03 100.299 139.69 98.9088C140.4 97.4088 142.19 96.7788 143.69 97.4888C145.01 98.1188 145.97 99.2088 146.46 100.649C147.55 103.819 146.02 107.689 145 109.719C143.08 113.569 140.55 116.129 138.06 116.729C137.66 116.829 137.27 116.869 136.88 116.869H136.89Z" fill="black"/>
<path d="M24.32 80.3272C24.32 80.3272 24.23 80.3272 24.18 80.3272C22.52 80.2472 21.24 78.8472 21.32 77.1972C21.66 69.7672 24.08 61.2672 28.15 53.2472C32.51 44.6372 37.85 37.1772 43.18 32.2372C51.95 24.1072 58.6 24.6872 62.63 26.6072C68.49 29.3972 71.57 35.6672 71.29 44.2572C71.24 45.9172 69.83 47.2572 68.2 47.1572C66.54 47.1072 65.24 45.7172 65.3 44.0672C65.44 39.7772 64.64 34.2072 60.06 32.0272C52.43 28.3972 40.93 41.3172 33.51 55.9572C29.82 63.2272 27.63 70.8672 27.33 77.4672C27.26 79.0772 25.93 80.3272 24.33 80.3272H24.32Z" fill="black"/>
<path d="M34.6303 98.5582C32.4203 98.5582 30.3903 97.9182 28.6703 96.6482C27.2903 95.6382 26.0803 94.3882 25.0703 92.9482C24.1203 91.5882 24.4503 89.7182 25.8003 88.7682C27.1603 87.8182 29.0303 88.1482 29.9803 89.4982C30.6203 90.4082 31.3703 91.1782 32.2203 91.8082C33.2603 92.5682 34.5703 92.7482 36.2203 92.3482C41.3103 91.1182 50.1403 83.8982 58.2703 67.5982C59.1503 65.8282 59.9703 64.0482 60.7003 62.3182C61.3403 60.7882 63.1003 60.0682 64.6302 60.7082C66.1602 61.3482 66.8802 63.1082 66.2402 64.6382C65.4603 66.4882 64.5903 68.3882 63.6503 70.2782C55.9703 85.6682 46.2503 96.0982 37.6403 98.1782C36.6103 98.4282 35.6003 98.5482 34.6303 98.5482V98.5582Z" fill="black"/>
<path d="M142.41 103.198C141.71 103.198 141.01 102.958 140.44 102.458C136.81 99.2984 131.28 94.1984 124.28 87.7584C106.05 70.9684 78.5003 45.5984 59.5703 31.7384C58.2303 30.7584 57.9403 28.8784 58.9203 27.5484C59.9003 26.2084 61.7803 25.9284 63.1103 26.8984C82.3103 40.9584 110.01 66.4684 128.34 83.3484C135.03 89.5084 140.81 94.8284 144.38 97.9384C145.63 99.0284 145.76 100.918 144.67 102.168C144.08 102.848 143.24 103.198 142.41 103.198Z" fill="black"/>
<path d="M136.031 116.598C135.891 116.598 135.751 116.598 135.611 116.568C131.911 116.058 115.121 113.298 98.881 110.628L85.131 108.368C83.501 108.098 82.391 106.558 82.651 104.918C82.921 103.288 84.451 102.178 86.101 102.438L99.851 104.698C116.051 107.358 132.801 110.118 136.431 110.618C138.071 110.848 139.221 112.358 138.991 113.998C138.781 115.498 137.501 116.588 136.021 116.588L136.031 116.598Z" fill="black"/>
<path d="M69.5807 105.908C69.4107 105.908 69.2307 105.888 69.0507 105.858C32.5607 99.4079 29.8607 97.4879 28.7007 96.6579C27.3507 95.6979 27.0407 93.8279 28.0007 92.4779C28.9607 91.1379 30.8207 90.8179 32.1607 91.7579C32.9807 92.2579 38.1207 94.2979 70.0907 99.9479C71.7207 100.238 72.8107 101.788 72.5207 103.428C72.2607 104.878 71.0007 105.908 69.5707 105.908H69.5807Z" fill="black"/>
<path d="M38.3794 21.748C36.8694 21.748 35.5694 20.608 35.3994 19.068L33.7094 3.318C33.5294 1.668 34.7194 0.188004 36.3694 0.0180041C38.0094 -0.161996 39.4994 1.028 39.6694 2.678L41.3594 18.428C41.5394 20.078 40.3494 21.558 38.6994 21.728C38.5894 21.738 38.4794 21.748 38.3794 21.748Z" fill="black"/>
<path d="M26.2809 29.6974C25.4609 29.6974 24.6309 29.3574 24.0409 28.6974L11.9809 15.1974C10.8809 13.9574 10.9809 12.0674 12.2209 10.9574C13.4609 9.85744 15.3509 9.95744 16.4609 11.1974L28.5209 24.6974C29.6209 25.9374 29.5209 27.8274 28.2809 28.9374C27.7109 29.4474 26.9909 29.6974 26.2809 29.6974Z" fill="black"/>
<path d="M18.2797 41.7983C17.9197 41.7983 17.5497 41.7283 17.1997 41.5983L1.91967 35.6883C0.36967 35.0883 -0.39033 33.3583 0.19967 31.8083C0.78967 30.2583 2.52967 29.4983 4.07967 30.0883L19.3597 35.9983C20.9097 36.5983 21.6697 38.3283 21.0797 39.8783C20.6197 41.0683 19.4797 41.7983 18.2797 41.7983Z" fill="black"/>
</svg>
