<svg width="361" height="382" viewBox="0 0 361 382" fill="none" xmlns="http://www.w3.org/2000/svg">
<path d="M111.623 123.017C133.884 117.635 138.626 103.138 140.347 86.3998C141.787 72.393 127.781 60.1872 109.112 61.6279C90.4427 63.0686 85.7705 88.911 86.4908 95.7343C86.811 98.7657 86.4908 101.867 85.6604 105.009C72.1239 130.401 54.7656 159.985 56.4764 173.642C58.5274 190.06 63.3997 195.172 108.611 202.806C128.441 178.184 131.863 153.562 131.863 153.562C119.127 155.993 111.293 155.303 103.399 152.201C100.387 147.449 105.78 136.564 107.991 127.85L111.623 123.017Z" fill="white"/>
<path d="M316.242 176.814C318.773 167.929 321.764 153.843 320.404 150.241C318.953 146.399 306.007 140.756 303.546 132.042C302.255 127.47 303.956 119.406 305.647 115.944C313.991 98.8562 334.851 102.608 345.216 110.522C349.348 113.673 361.343 124.999 357.332 148.19C356.481 153.102 355.03 161.386 352.829 171.201C355.381 249.729 316.482 245.787 300.694 243.536C296.802 220.275 295.712 195.973 316.232 176.824L316.242 176.814Z" fill="white"/>
<path d="M164.618 145.558C181.656 134.802 224.687 128.97 247.998 147.799C228.719 169.759 164.618 145.558 164.618 145.558Z" fill="white"/>
<path d="M195.124 143.617C178.226 133.472 163.859 137.704 151.183 144.457C138.507 151.221 125.081 156.583 117.477 150.66C111.844 149.36 112.315 151.211 106.392 176.573C100.469 201.935 93.7157 231.499 110.614 234.881C145.26 226.427 162.169 217.983 162.169 217.983L195.124 143.617Z" fill="#82BE28"/>
<path d="M228.571 140.907C245.089 134.904 262.727 146.54 275.483 156.674C288.249 166.809 308.309 174.483 314.472 179.275C293.272 197.744 296.614 221.125 300.786 248.629C298.905 262.896 286.899 257.593 282.016 255.342C277.134 253.091 255.214 237.753 244.709 217.484C230.072 181.827 228.571 140.917 228.571 140.917V140.907Z" fill="#82BE28"/>
<path d="M262.686 164.816C246.678 134.802 238.544 135.742 238.544 135.742C226.869 147.418 200.566 150.049 186.159 137.293C186.159 137.293 179.706 139.204 173.483 147.498C166.91 156.262 153.483 169.749 152.053 184.556C150.622 199.363 139.777 264.574 139.627 265.665C119.897 338.74 115.415 348.765 127.891 360.55C152.723 384.012 205.508 381.911 221.026 375.768C234.672 370.365 252.591 369.455 268.108 370.015C288.888 370.765 306.487 372.576 299.944 348.855C300.664 345.973 280.344 282.403 279.524 231.959C273.361 200.423 267.038 172.97 262.686 164.806V164.816Z" fill="#82BE28"/>
<path d="M141.388 373.697C140.988 373.697 140.578 373.617 140.188 373.447C122.949 365.933 115.126 356.468 116.937 345.333C118.597 335.078 123.019 317.57 128.132 297.29C136.146 265.505 146.131 225.936 146.131 209.388C146.131 207.727 147.471 206.386 149.132 206.386C150.793 206.386 152.133 207.727 152.133 209.388C152.133 226.686 142.479 264.974 133.955 298.751C129.082 318.06 124.48 336.289 122.859 346.284C121.549 354.367 128.182 361.651 142.589 367.934C144.11 368.594 144.8 370.365 144.14 371.886C143.649 373.016 142.549 373.687 141.388 373.687V373.697Z" fill="black"/>
<path d="M189.912 382.001C182.669 382.001 175.965 381.37 169.722 380.12C168.101 379.8 167.041 378.209 167.371 376.588C167.701 374.967 169.282 373.907 170.903 374.237C184.639 376.988 200.857 376.518 220.477 372.816C247.25 367.764 264.938 365.503 281.656 368.044C283.297 368.294 284.417 369.825 284.167 371.466C283.917 373.106 282.386 374.227 280.746 373.977C264.868 371.556 247.71 373.777 221.587 378.709C209.982 380.9 199.477 382.001 189.912 382.001Z" fill="black"/>
<path d="M299.944 351.858C298.283 351.858 296.942 350.517 296.942 348.856C296.942 342.603 293.04 327.686 288.918 311.888C283.756 292.129 277.903 269.748 276.743 254.151C276.623 252.5 277.863 251.059 279.514 250.939C281.175 250.819 282.605 252.06 282.725 253.71C283.846 268.758 289.619 290.868 294.721 310.378C299.133 327.266 302.945 341.843 302.945 348.866C302.945 350.527 301.605 351.868 299.944 351.868V351.858Z" fill="black"/>
<path d="M308.158 191.05C307.408 191.05 306.657 190.77 306.077 190.21C304.887 189.059 304.857 187.158 306.007 185.968C322.505 168.909 317.503 152.922 317.443 152.762C317.182 152.071 314.941 150.561 313.451 149.56C309.839 147.139 304.907 143.817 302.375 138.185C297.333 126.929 300.424 116.134 311.07 107.81C319.053 101.567 330.359 100.687 340.584 105.519C352.7 111.242 360.433 123.417 360.773 137.304C360.813 138.965 359.503 140.336 357.842 140.376C356.211 140.406 354.811 139.105 354.771 137.444C354.43 123.578 345.896 114.663 338.012 110.941C329.859 107.09 320.944 107.7 314.761 112.532C306.257 119.185 303.926 126.989 307.848 135.723C309.669 139.785 313.451 142.327 316.782 144.568C319.634 146.489 322.105 148.139 323.045 150.631C323.115 150.821 329.648 170.12 310.309 190.12C309.719 190.73 308.938 191.04 308.148 191.04L308.158 191.05Z" fill="black"/>
<path d="M299.915 176.193C299.535 176.193 299.155 176.123 298.785 175.973C292.492 173.401 285.268 167.889 277.614 162.056C261.977 150.13 244.248 136.604 229.601 143.777C209.211 153.752 198.766 147.739 191.853 143.757C189.922 142.647 188.251 141.686 186.841 141.356C172.284 137.984 157.727 144.257 144.881 149.8C133.255 154.813 123.22 159.145 115.817 154.622C114.406 153.762 113.956 151.911 114.816 150.5C115.677 149.08 117.527 148.64 118.938 149.5C123.68 152.391 132.405 148.64 142.499 144.287C155.506 138.675 171.703 131.691 188.191 135.503C190.472 136.034 192.593 137.254 194.845 138.555C201.348 142.297 209.432 146.959 226.96 138.375C244.939 129.58 265.078 144.938 281.256 157.274C288.58 162.856 295.493 168.129 301.056 170.41C302.586 171.04 303.327 172.791 302.696 174.322C302.226 175.482 301.096 176.193 299.915 176.193Z" fill="black"/>
<path d="M318.733 245.406C317.123 245.406 315.792 244.136 315.732 242.515C315.672 240.854 316.962 239.463 318.623 239.403C337.172 238.713 347.397 226.167 351.839 159.475C351.949 157.824 353.41 156.574 355.031 156.684C356.682 156.794 357.932 158.224 357.822 159.875C353.57 223.686 344.096 244.466 318.833 245.406C318.793 245.406 318.753 245.406 318.723 245.406H318.733Z" fill="black"/>
<path d="M100.309 203.555C100.189 203.555 100.079 203.555 99.9587 203.535C82.1001 201.474 59.8694 198.913 55.2072 176.922C52.2458 162.946 62.4707 144.297 70.6947 129.319C73.6561 123.927 76.2073 119.275 77.598 115.803C78.2183 114.242 78.8686 112.731 79.4989 111.251C81.91 105.608 84.001 100.746 83.5008 96.0434C82.9305 90.5908 85.0716 76.544 92.8253 67.2395C97.1774 62.017 102.58 59.1156 108.873 58.6354C119.788 57.795 129.853 61.2266 136.496 68.0399C141.599 73.2724 144.02 79.9056 143.32 86.7089C141.619 103.257 136.836 119.365 113.835 125.558C111.284 132.051 106.352 146.288 106.942 152.791C107.092 154.441 105.872 155.902 104.221 156.052C102.59 156.202 101.109 154.992 100.959 153.331C100.069 143.586 107.933 124.077 108.833 121.886C109.203 120.995 109.964 120.335 110.904 120.105C130.503 115.363 135.556 103.577 137.347 86.0986C137.857 81.0962 136.026 76.1738 132.194 72.2319C126.792 66.6893 118.458 63.9279 109.333 64.6183C104.721 64.9684 100.719 67.1495 97.4375 71.0814C90.7743 79.0752 89.0635 91.5612 89.4637 95.4231C90.124 101.676 87.6428 107.479 85.0115 113.622C84.4012 115.053 83.7709 116.523 83.1606 118.044C81.6399 121.846 78.9986 126.658 75.9472 132.221C68.6137 145.587 58.5688 163.896 61.07 175.692C64.8418 193.46 83.861 195.651 100.639 197.592C102.29 197.782 103.47 199.273 103.28 200.914C103.1 202.445 101.81 203.575 100.299 203.575L100.309 203.555Z" fill="black"/>
<path d="M113.385 238.222C107.392 238.222 102.289 236.171 99.4478 230.269C92.1343 215.081 97.2768 200.334 101.809 187.328C104.51 179.584 107.061 172.271 106.761 165.718C106.681 164.057 107.972 162.656 109.623 162.586C111.294 162.526 112.684 163.797 112.754 165.447C113.104 173.151 110.373 181.005 107.472 189.309C103.12 201.795 98.6174 214.711 104.85 227.667C108.782 235.841 122.289 231.469 136.966 225.836C140.337 224.546 143.529 223.325 146.1 222.585C147.691 222.135 149.352 223.055 149.812 224.646C150.272 226.237 149.342 227.897 147.751 228.358C145.43 229.018 142.358 230.199 139.117 231.439C131.123 234.501 121.438 238.222 113.375 238.222H113.385Z" fill="black"/>
<path d="M134.986 115.014C138.597 115.705 146.251 106.01 142.819 100.437C126.482 85.0899 75.2969 37.6371 64.8819 32.5447C59.6994 28.4727 54.5369 23.9905 42.3011 37.0968C30.0552 50.2131 21.2209 74.5949 25.0528 85.5001C28.8846 96.4053 33.877 96.6755 37.6888 97.3758C41.5007 98.0761 75.467 104.899 85.7019 106.61C96.5271 108.421 134.986 115.004 134.986 115.004V115.014Z" fill="#2D8C3C"/>
<path d="M136.956 116.925C135.996 116.925 135.085 116.635 134.315 116.065C132.984 115.084 132.694 113.203 133.675 111.873C134.455 110.812 135.796 110.422 136.986 110.782C137.517 110.392 138.597 109.331 139.708 107.09C140.888 104.729 140.958 103.288 140.888 102.798C139.598 102.008 139.097 100.347 139.758 98.9564C140.468 97.4557 142.259 96.8254 143.76 97.5357C145.08 98.166 146.041 99.2565 146.531 100.697C147.621 103.869 146.091 107.741 145.08 109.772C143.159 113.633 140.628 116.185 138.137 116.785C137.737 116.885 137.346 116.925 136.956 116.925Z" fill="black"/>
<path d="M24.3317 80.3678C24.3317 80.3678 24.2416 80.3678 24.1916 80.3678C22.5308 80.2877 21.2502 78.8871 21.3302 77.2363C21.6704 69.8027 24.0915 61.2986 28.1635 53.2747C32.5256 44.6606 37.8682 37.197 43.2007 32.2546C51.9749 24.1207 58.6281 24.701 62.6601 26.6219C68.5229 29.4133 71.6044 35.6863 71.3242 44.2804C71.2742 45.9412 69.8735 47.2018 68.2328 47.1818C66.572 47.1318 65.2713 45.7411 65.3314 44.0903C65.4714 39.7983 64.671 34.2256 60.0888 32.0445C52.4652 28.4128 40.9496 41.339 33.5261 55.9861C29.8343 63.2595 27.6432 70.9032 27.3431 77.5064C27.2731 79.1172 25.9424 80.3678 24.3417 80.3678H24.3317Z" fill="black"/>
<path d="M34.6469 98.6056C32.4358 98.6056 30.4049 97.9653 28.684 96.6947C27.3034 95.6842 26.0928 94.4336 25.0823 92.9929C24.1319 91.6323 24.462 89.7614 25.8127 88.8109C27.1733 87.8604 29.0442 88.1906 29.9947 89.5413C30.625 90.4517 31.3853 91.2221 32.2357 91.8524C33.2762 92.6127 34.5869 92.7928 36.2477 92.3926C41.3401 91.162 50.1744 83.9386 58.3083 67.6307C59.1887 65.8599 60.0091 64.079 60.7394 62.3482C61.3798 60.8175 63.1406 60.0971 64.6713 60.7374C66.2021 61.3777 66.9224 63.1386 66.2821 64.6693C65.5017 66.5202 64.6313 68.4211 63.6909 70.312C56.0072 85.7094 46.2825 96.1444 37.6684 98.2254C36.6379 98.4756 35.6274 98.5956 34.6569 98.5956L34.6469 98.6056Z" fill="black"/>
<path d="M142.479 103.248C141.778 103.248 141.078 103.008 140.508 102.508C136.876 99.3464 131.343 94.254 124.35 87.8009C106.111 71.0028 78.5381 45.6106 59.599 31.7439C58.2583 30.7634 57.9682 28.8825 58.9487 27.5519C59.9291 26.2113 61.81 25.9311 63.1407 26.9016C82.3499 40.9683 110.073 66.5006 128.412 83.3887C135.105 89.5517 140.878 94.8743 144.45 97.9757C145.7 99.0663 145.83 100.957 144.74 102.208C144.15 102.888 143.309 103.238 142.479 103.238V103.248Z" fill="black"/>
<path d="M136.096 116.654C135.956 116.654 135.816 116.654 135.676 116.624C131.974 116.114 115.166 113.352 98.9086 110.681L85.172 108.43C83.5412 108.16 82.4307 106.619 82.6908 104.978C82.9609 103.348 84.4917 102.237 86.1424 102.497L99.8791 104.748C116.097 107.41 132.875 110.171 136.507 110.671C138.147 110.901 139.298 112.412 139.068 114.053C138.858 115.553 137.577 116.644 136.096 116.644V116.654Z" fill="black"/>
<path d="M69.6127 105.959C69.4426 105.959 69.2625 105.939 69.0824 105.909C32.5749 99.4557 29.8636 97.5348 28.713 96.7044C27.3624 95.7439 27.0422 93.873 28.0127 92.5223C28.9731 91.1817 30.834 90.8615 32.1847 91.802C32.9951 92.3022 38.1375 94.3432 70.1329 99.9959C71.7637 100.286 72.8542 101.837 72.5641 103.478C72.304 104.928 71.0433 105.959 69.6127 105.959Z" fill="black"/>
<path d="M38.3979 21.7585C36.8871 21.7585 35.5865 20.6179 35.4164 19.0772L33.7256 3.3196C33.5455 1.66881 34.7361 0.188094 36.3869 0.0180127C38.0277 -0.162074 39.5184 1.0285 39.6885 2.67929L41.3793 18.4369C41.5594 20.0877 40.3688 21.5684 38.718 21.7385C38.608 21.7485 38.4979 21.7585 38.3979 21.7585Z" fill="black"/>
<path d="M26.2935 29.7117C25.4731 29.7117 24.6427 29.3716 24.0524 28.7112L11.9866 15.2047C10.8861 13.9642 10.9862 12.0732 12.2268 10.9627C13.4674 9.86218 15.3583 9.96223 16.4688 11.2028L28.5346 24.7093C29.6351 25.9499 29.5351 27.8408 28.2945 28.9514C27.7242 29.4616 27.0039 29.7117 26.2935 29.7117Z" fill="black"/>
<path d="M18.2885 41.8172C17.9283 41.8172 17.5581 41.7472 17.2079 41.6171L1.92059 35.7043C0.369847 35.104 -0.390518 33.3732 0.199766 31.8224C0.800054 30.2817 2.53089 29.5113 4.08163 30.1016L19.369 36.0144C20.9197 36.6147 21.6801 38.3456 21.0898 39.8963C20.6296 41.0869 19.489 41.8172 18.2885 41.8172Z" fill="black"/>
<path d="M294.872 261.284C286.438 261.284 274.272 253.31 259.175 237.823C258.014 236.632 258.044 234.731 259.225 233.581C260.415 232.42 262.306 232.45 263.467 233.631C282.026 252.68 293.211 256.922 297.153 254.771C299.084 253.711 299.684 250.459 298.704 246.277C296.663 237.533 293.291 200.245 305.907 186.058C307.008 184.817 308.908 184.707 310.149 185.808C311.39 186.908 311.5 188.809 310.399 190.05C300.084 201.656 302.405 235.692 304.556 244.926C306.197 251.95 304.506 257.602 300.034 260.054C298.514 260.884 296.783 261.304 294.862 261.304L294.872 261.284Z" fill="black"/>
</svg>
