<svg width="409" height="382" viewBox="0 0 409 382" fill="none" xmlns="http://www.w3.org/2000/svg">
<path d="M117.794 125.959C102.084 143.359 112.484 158.579 118.454 161.479L114.324 175.719L151.754 182.359C151.274 165.539 161.954 171.139 166.254 148.659C170.144 128.339 137.404 104.239 117.794 125.959Z" fill="white"/>
<path d="M210.814 147.841C227.844 137.091 270.854 131.261 294.154 150.081C274.884 172.031 210.814 147.841 210.814 147.841Z" fill="white"/>
<path d="M385.094 314.441C383.214 309.181 373.834 297.171 363.324 267.891C352.814 238.611 331.414 176.661 319.774 162.021C309.784 149.461 292.144 136.041 275.474 142.501C275.474 142.581 259.724 150.791 251.344 147.251C226.934 136.921 229.084 141.051 219.434 142.371C209.784 143.691 177.744 184.641 165.464 186.391C165.464 186.391 165.384 181.271 162.754 176.441C156.174 179.071 137.844 179.181 123.864 174.631C114.404 171.551 108.574 173.971 106.374 177.041C104.174 180.111 106.804 214.261 106.494 223.071C105.614 248.071 122.644 256.801 141.954 256.031C156.524 255.451 188.994 237.641 188.994 237.641C191.184 267.471 177.644 299.431 161.494 336.591C158.144 346.061 161.904 352.941 177.114 351.671C196.504 350.051 233.214 359.031 244.184 362.971C255.154 366.921 295.074 376.131 320.074 369.111C344.704 362.201 350.174 359.951 345.724 334.311C350.544 333.021 355.954 332.141 362.224 331.331C379.494 329.081 387.004 319.691 385.124 314.441H385.094Z" fill="white"/>
<path d="M174.894 182.699C173.954 182.699 173.034 182.259 172.454 181.439C171.494 180.089 171.804 178.219 173.154 177.249C179.184 172.939 185.134 166.969 190.884 161.189C203.984 148.029 217.534 134.429 234.284 137.759C236.674 138.239 238.894 139.499 241.244 140.839C247.724 144.529 255.794 149.129 273.124 140.649C280.844 136.869 289.044 136.539 297.474 139.669C313.784 145.729 326.444 163.329 330.594 172.999C331.244 174.519 330.544 176.289 329.014 176.939C327.494 177.589 325.734 176.889 325.074 175.359C321.044 165.949 309.164 150.399 295.384 145.289C288.554 142.749 281.954 142.999 275.764 146.029C255.584 155.899 245.174 149.969 238.274 146.039C236.274 144.899 234.554 143.919 233.114 143.629C219.524 140.919 207.674 152.809 195.144 165.399C189.214 171.359 183.084 177.509 176.644 182.109C176.114 182.489 175.504 182.669 174.904 182.669L174.894 182.699Z" fill="black"/>
<path d="M295.414 374.2C280.524 374.2 264.704 372.15 250.974 367.99C212.964 356.47 199.694 354.75 191.444 355.73C189.794 355.92 188.304 354.75 188.114 353.1C187.924 351.45 189.094 349.96 190.744 349.77C199.984 348.68 213.574 350.39 252.714 362.25C280.464 370.66 318.454 370.01 335.684 360.85C337.154 360.07 338.964 360.63 339.744 362.09C340.524 363.55 339.964 365.37 338.504 366.15C328.474 371.48 312.564 374.2 295.414 374.2Z" fill="black"/>
<path d="M175.214 354.751C169.504 354.751 164.974 352.711 162.324 348.881C157.844 342.421 159.184 331.511 166.294 316.461C178.454 290.731 192.664 205.151 190.584 189.051C190.374 187.411 191.534 185.901 193.174 185.691C194.824 185.481 196.324 186.641 196.534 188.281C198.774 205.631 184.374 292.241 171.714 319.021C163.674 336.031 165.464 342.891 167.244 345.461C169.534 348.761 174.234 348.891 176.824 348.671C178.484 348.521 179.924 349.761 180.064 351.411C180.204 353.061 178.974 354.511 177.324 354.651C176.604 354.711 175.894 354.741 175.204 354.741L175.214 354.751Z" fill="black"/>
<path d="M137.284 258.59C131.444 258.59 126.124 257.57 121.694 255.52C114.544 252.2 109.624 246.41 107.094 238.3C105.294 232.54 102.514 213.86 102.514 200.84C102.514 199.18 103.854 197.84 105.514 197.84C107.174 197.84 108.514 199.18 108.514 200.84C108.514 213.71 111.314 231.67 112.824 236.51C114.834 242.94 118.674 247.5 124.224 250.08C133.244 254.27 146.994 253.25 160.994 247.36C170.944 243.18 183.314 236.34 186.114 234.09C187.404 233.06 189.294 233.26 190.334 234.56C191.374 235.85 191.164 237.74 189.864 238.78C186.024 241.85 172.624 248.98 163.314 252.89C154.324 256.67 145.314 258.6 137.284 258.6V258.59Z" fill="black"/>
<path d="M150.124 182.58C147.474 182.58 145.014 181.98 142.504 181.36C139.594 180.65 136.584 179.9 132.624 179.79C130.964 179.74 129.664 178.36 129.714 176.71C129.764 175.05 131.164 173.75 132.794 173.8C137.394 173.93 140.874 174.78 143.934 175.54C149.544 176.92 152.634 177.68 158.864 173.12C160.204 172.14 162.084 172.43 163.054 173.77C164.034 175.11 163.744 176.98 162.404 177.96C157.554 181.51 153.654 182.58 150.114 182.58H150.124Z" fill="black"/>
<path d="M163.324 214.771C163.084 214.771 162.834 214.741 162.594 214.681C160.984 214.281 160.014 212.651 160.414 211.041C162.704 201.891 162.044 184.371 158.004 176.971C157.214 175.521 157.744 173.691 159.204 172.901C160.654 172.111 162.484 172.641 163.274 174.101C168.124 183.001 168.854 202.051 166.234 212.501C165.894 213.861 164.674 214.771 163.324 214.771Z" fill="black"/>
<path d="M332.005 338.989L329.774 353.009C328.794 359.699 334.985 365.539 341.885 363.129C348.785 360.719 348.085 355.569 352.445 352.539C356.575 349.669 366.165 353.879 371.685 361.519C377.205 369.159 388.324 369.869 393.114 369.559C399.914 369.129 406.054 364.299 405.274 357.119C404.494 349.939 395.654 346.869 392.174 345.449C388.284 343.859 375.795 337.979 368.875 329.039C362.495 329.679 330.685 338.839 332.005 338.979V338.989Z" fill="white"/>
<path d="M391.325 372.61C386.405 372.61 375.295 371.62 369.255 363.27C364.125 356.18 356.175 353.59 354.155 355C352.925 355.86 352.235 357.02 351.365 358.48C349.865 361.01 348.005 364.16 342.875 365.96C338.785 367.39 334.405 366.64 331.155 363.96C327.845 361.23 326.175 356.86 326.805 352.57C327.045 350.93 328.575 349.8 330.205 350.04C331.845 350.28 332.975 351.8 332.735 353.44C332.405 355.7 333.235 357.9 334.965 359.33C335.925 360.12 337.975 361.31 340.885 360.29C343.945 359.22 344.885 357.63 346.195 355.42C347.235 353.66 348.415 351.67 350.715 350.07C355.865 346.49 366.955 349.87 374.105 359.75C379.485 367.19 391.545 366.64 392.905 366.56C396.015 366.36 398.905 365.02 400.615 362.98C401.935 361.41 402.495 359.54 402.265 357.44C401.725 352.51 395.245 349.92 391.755 348.52L391.015 348.22C388.295 347.11 374.355 341.05 366.475 330.87C365.465 329.56 365.705 327.68 367.015 326.66C368.325 325.65 370.215 325.89 371.225 327.2C378.305 336.36 391.775 342.05 393.285 342.67L393.985 342.95C398.305 344.68 407.295 348.27 408.225 356.79C408.635 360.53 407.585 364.01 405.205 366.84C402.415 370.16 398.065 372.24 393.285 372.54C392.865 372.57 392.185 372.6 391.315 372.6L391.325 372.61Z" fill="black"/>
<path d="M324.383 349.67C323.843 349.67 323.303 349.53 322.813 349.22C321.403 348.35 320.963 346.5 321.833 345.09C328.243 334.67 340.313 332.45 351.983 330.3C361.653 328.52 371.653 326.68 379.133 320.4C383.423 316.8 381.863 312.7 379.803 309.89C369.413 295.75 357.093 261.59 345.173 228.56C339.783 213.62 334.693 199.52 329.943 187.68C329.323 186.14 330.073 184.4 331.613 183.78C333.153 183.16 334.903 183.91 335.513 185.45C340.303 197.39 345.413 211.54 350.823 226.53C362.603 259.16 374.773 292.91 384.643 306.35C389.483 312.94 388.853 320.09 383.003 325.01C374.313 332.31 363.523 334.3 353.083 336.22C341.753 338.31 331.973 340.11 326.963 348.25C326.393 349.17 325.413 349.68 324.403 349.68L324.383 349.67Z" fill="black"/>
<path d="M317.193 338.58C315.893 338.58 314.683 337.72 314.313 336.4C304.343 301.51 301.233 260.21 301.203 259.79C301.083 258.14 302.323 256.7 303.973 256.58C305.633 256.48 307.063 257.7 307.183 259.35C307.213 259.76 310.283 300.46 320.073 334.74C320.533 336.33 319.603 337.99 318.013 338.45C317.733 338.53 317.463 338.57 317.183 338.57L317.193 338.58Z" fill="black"/>
<path d="M118.444 164.48C118.004 164.48 117.554 164.38 117.134 164.18C113.874 162.59 109.694 158.25 107.694 152.13C106.214 147.59 105.384 140.42 109.854 131.98C110.634 130.52 112.444 129.96 113.914 130.73C115.374 131.51 115.934 133.32 115.164 134.79C111.684 141.37 112.284 146.84 113.404 150.27C114.944 155 118.054 157.96 119.774 158.79C121.264 159.52 121.884 161.31 121.164 162.8C120.644 163.87 119.574 164.49 118.464 164.49L118.444 164.48Z" fill="black"/>
<path d="M151.995 180.95C150.375 180.95 149.045 179.66 148.995 178.04C148.735 169.03 151.415 166.23 155.235 163.25C158.075 161.03 161.305 158.52 163.295 148.09C164.375 142.45 162.125 136.02 157.115 130.45C150.995 123.64 142.285 119.82 134.415 120.48C132.755 120.62 131.315 119.39 131.175 117.74C131.035 116.09 132.265 114.64 133.915 114.5C143.635 113.7 154.225 118.27 161.575 126.44C167.845 133.42 170.615 141.72 169.185 149.22C166.765 161.87 162.225 165.4 158.915 167.98C156.255 170.05 154.795 171.19 154.985 177.86C155.035 179.52 153.725 180.9 152.075 180.94C152.045 180.94 152.015 180.94 151.985 180.94L151.995 180.95Z" fill="black"/>
<path d="M178.034 78.43C152.714 69.68 129.254 61.34 123.934 58.98C118.614 56.63 86.3339 35.42 82.2939 32.57C71.5339 30.17 63.0739 31.41 52.7939 54.83C42.5139 78.25 33.7539 110.58 56.9339 125.48C70.4239 126.15 93.8039 120.84 99.7839 120.22C104.594 119.72 112.674 118.98 116.614 118.92C117.734 118.4 145.014 121.39 150.674 122.59C162.854 125.16 166.094 126.8 171.584 121.4C177.074 116 189.124 100.37 178.034 78.43Z" fill="white"/>
<path d="M171.573 121.401C177.063 116.001 189.113 100.371 178.023 78.4313C173.223 76.7713 168.483 75.1213 163.923 73.5312C171.393 86.4812 163.223 118.341 151.783 123.241C161.803 125.451 166.503 126.381 171.563 121.401H171.573Z" fill="#2D8C3C"/>
<path d="M43.5742 110.879C42.2142 110.879 40.9742 109.939 40.6542 108.559C38.2542 98.2491 38.9542 84.8691 42.5742 71.8491C46.0242 59.4491 51.0342 48.3091 56.6842 40.4691C65.7642 27.8891 74.2542 26.8991 79.7642 28.2791C85.4542 29.7091 92.7442 34.3691 95.1042 48.4391C95.3742 50.0691 94.2742 51.6191 92.6442 51.8991C91.0142 52.1791 89.4642 51.0691 89.1842 49.4391C88.1742 43.4391 85.4742 35.8991 78.3042 34.0991C66.6142 31.1791 54.4042 51.6791 48.3442 73.4491C44.9842 85.5291 44.3142 97.8291 46.4942 107.189C46.8742 108.799 45.8642 110.419 44.2542 110.789C44.0242 110.839 43.7942 110.869 43.5742 110.869V110.879Z" fill="black"/>
<path d="M59.3128 128.9C57.5328 128.9 55.8128 128.52 54.1928 127.77C52.8828 127.16 51.6328 126.4 50.4828 125.52C49.1628 124.51 48.9128 122.63 49.9228 121.31C50.9328 119.99 52.8128 119.74 54.1328 120.75C54.9428 121.37 55.8228 121.9 56.7428 122.33C58.5828 123.19 60.7028 123.07 63.0528 121.98C71.7328 117.94 80.8028 102.57 86.1628 82.81C86.8628 80.22 89.5528 68.88 90.0528 66.42C90.3828 64.8 91.9628 63.74 93.5828 64.07C95.2028 64.4 96.2528 65.98 95.9328 67.6C95.4128 70.2 92.6928 81.64 91.9528 84.37C86.0628 106.1 75.9628 122.59 65.5828 127.41C63.4628 128.39 61.3628 128.89 59.3328 128.89L59.3128 128.9Z" fill="black"/>
<path d="M159.304 125.17C148.504 127.44 125.174 174.77 118.434 178.51C114.194 180.86 108.454 180.66 106.284 173.63C103.324 164.05 121.054 144.43 125.814 131.46C125.814 131.46 127.914 121.62 123.394 119.51C129.054 113.17 159.304 125.18 159.304 125.18V125.17Z" fill="white"/>
<path d="M162.873 128.15H162.853C161.193 128.15 159.853 126.8 159.863 125.14C159.863 123.49 161.213 122.15 162.863 122.15H162.883C168.563 122.15 176.583 113.68 178.423 102.75C180.453 90.7399 178.633 80.6599 174.283 79.8099C172.653 79.4899 171.593 77.9199 171.913 76.2899C172.233 74.6699 173.803 73.5999 175.433 73.9199C185.393 75.8599 186.463 91.1999 184.343 103.74C182.153 116.74 172.123 128.14 162.883 128.14L162.873 128.15Z" fill="black"/>
<path d="M45.9434 26.3402C44.6734 26.3402 43.4834 25.5202 43.0834 24.2402L36.6734 3.90021C36.1734 2.32021 37.0534 0.64021 38.6334 0.14021C40.2134 -0.35979 41.9034 0.52021 42.3934 2.10021L48.8034 22.4402C49.3034 24.0202 48.4234 25.7002 46.8434 26.2002C46.5434 26.2902 46.2434 26.3402 45.9434 26.3402Z" fill="black"/>
<path d="M32.0835 40.0397C31.4535 40.0397 30.8235 39.8397 30.2835 39.4397L10.7935 24.8197C9.4635 23.8297 9.20349 21.9497 10.1935 20.6197C11.1935 19.2897 13.0735 19.0297 14.3935 20.0197L33.8835 34.6397C35.2135 35.6297 35.4735 37.5097 34.4835 38.8397C33.8935 39.6297 32.9935 40.0397 32.0835 40.0397Z" fill="black"/>
<path d="M24.7335 58.1207C24.5635 58.1207 24.3935 58.1107 24.2235 58.0807L2.49354 54.3307C0.863541 54.0507 -0.236459 52.5007 0.0435406 50.8607C0.323541 49.2307 1.88354 48.1307 3.51354 48.4107L25.2435 52.1607C26.8735 52.4407 27.9735 53.9907 27.6935 55.6307C27.4435 57.0907 26.1735 58.1207 24.7435 58.1207H24.7335Z" fill="black"/>
<path d="M162.854 128.16C162.684 128.16 162.504 128.14 162.334 128.11C162.234 128.09 152.264 126.35 142.554 125.1C140.914 124.89 139.754 123.38 139.964 121.74C140.174 120.1 141.684 118.94 143.324 119.15C153.174 120.42 163.274 122.18 163.374 122.2C165.004 122.49 166.094 124.04 165.814 125.67C165.564 127.13 164.294 128.15 162.864 128.15L162.854 128.16Z" fill="black"/>
<path d="M60.7338 128.78C58.2538 128.78 56.1138 128.51 54.4038 127.86C52.8538 127.27 52.0738 125.54 52.6638 123.99C53.2538 122.44 54.9838 121.66 56.5338 122.25C60.6338 123.81 71.2138 121.76 81.4538 119.78C91.8738 117.76 102.664 115.68 111.024 116.2C114.984 116.44 119.654 116.83 124.914 117.37C126.564 117.54 127.764 119.01 127.594 120.66C127.424 122.31 125.944 123.51 124.304 123.34C119.124 122.82 114.524 122.43 110.644 122.19C103.034 121.73 92.6338 123.73 82.5838 125.68C74.1438 127.31 66.5038 128.79 60.7338 128.79V128.78Z" fill="black"/>
<path d="M174.854 79.8013C174.564 79.8013 174.264 79.7613 173.964 79.6613C173.644 79.5613 141.844 69.6613 123.034 62.2113C115.244 59.1313 106.364 52.6713 97.7844 46.4213C89.3544 40.2913 80.6343 33.9413 76.2643 33.6113C74.6143 33.4913 73.3744 32.0513 73.4944 30.3913C73.6144 28.7413 75.0644 27.5013 76.7144 27.6213C82.7944 28.0813 91.3744 34.3213 101.314 41.5613C109.594 47.5913 118.164 53.8213 125.244 56.6313C143.844 63.9913 175.424 73.8313 175.744 73.9213C177.324 74.4113 178.214 76.0913 177.714 77.6813C177.314 78.9713 176.134 79.7913 174.854 79.7913V79.8013Z" fill="black"/>
<path d="M113.583 182.85C112.263 182.85 110.983 182.61 109.793 182.14C107.693 181.3 104.893 179.29 103.413 174.51C101.163 167.25 107.443 157.22 114.083 146.59C117.633 140.92 121.293 135.05 122.993 130.42C123.563 128.86 125.293 128.07 126.843 128.64C128.403 129.21 129.193 130.93 128.623 132.49C126.713 137.71 122.873 143.84 119.163 149.78C113.793 158.37 107.703 168.11 109.143 172.75C109.773 174.78 110.743 176.07 112.033 176.59C113.373 177.13 115.223 176.87 116.983 175.9C119.053 174.74 125.333 164.75 130.383 156.72C142.853 136.87 151.563 123.75 158.683 122.25C160.303 121.91 161.893 122.95 162.233 124.57C162.573 126.19 161.533 127.78 159.913 128.12C154.743 129.21 142.673 148.43 135.453 159.91C127.683 172.27 123.133 179.34 119.873 181.15C117.813 182.29 115.643 182.87 113.563 182.87L113.583 182.85Z" fill="black"/>
<path d="M80.1141 102.08C79.8941 102.08 79.6741 102.06 79.4441 102C70.0641 99.8602 68.1541 94.4502 68.2041 90.2902C68.2641 85.2302 69.4741 79.4802 71.4241 74.9002C74.6741 67.2702 78.7141 65.6602 81.5241 65.6602C83.1841 65.6602 84.5241 67.0002 84.5241 68.6602C84.5241 70.3202 83.1841 71.6602 81.5241 71.6602C78.5941 71.6602 74.3241 81.3302 74.2041 90.3602C74.1741 92.3502 74.9041 94.8102 80.7741 96.1502C82.3941 96.5202 83.4041 98.1301 83.0341 99.7402C82.7141 101.13 81.4841 102.07 80.1141 102.07V102.08Z" fill="black"/>
<path d="M154.165 138.721C148.095 141.751 141.355 137.711 134.605 140.071C127.855 142.431 125.835 154.911 134.945 159.631L144.045 164.351" fill="white"/>
<path d="M140.324 165.41C139.864 165.41 139.384 165.3 138.944 165.07L133.564 162.28C128.394 159.6 125.444 154.33 125.854 148.52C126.234 143.18 129.284 138.75 133.614 137.23C137.464 135.88 141.204 136.27 144.494 136.61C145.384 136.7 146.274 136.79 147.144 136.85C148.794 136.95 150.054 138.38 149.954 140.03C149.854 141.68 148.434 142.94 146.774 142.84C145.814 142.78 144.844 142.68 143.874 142.58C140.944 142.28 138.174 141.99 135.594 142.9C133.584 143.6 132.034 146.09 131.834 148.95C131.714 150.6 131.924 154.68 136.324 156.96L141.704 159.75C143.174 160.51 143.744 162.32 142.984 163.79C142.454 164.82 141.404 165.41 140.314 165.41H140.324Z" fill="black"/>
</svg>
