<svg width="403" height="429" viewBox="0 0 403 429" fill="none" xmlns="http://www.w3.org/2000/svg">
<path d="M117.794 125.962C102.084 143.362 112.484 158.582 118.454 161.482L125.714 231.584L143.735 253.734L164.005 244.724L149.735 188.033C149.255 171.212 161.945 171.142 166.245 148.662C170.135 128.342 137.395 104.241 117.784 125.962H117.794Z" fill="white"/>
<path d="M148.265 254.595C144.545 254.595 140.945 253.465 137.625 251.204C125.465 242.954 118.265 220.194 118.835 191.793C118.865 190.153 120.205 188.853 121.835 188.853C121.855 188.853 121.875 188.853 121.895 188.853C123.555 188.883 124.865 190.253 124.835 191.913C124.325 217.904 130.665 239.224 141.005 246.234C144.975 248.934 149.345 249.314 153.995 247.354C163.945 243.174 176.316 236.334 179.116 234.084C180.406 233.054 182.296 233.254 183.336 234.554C184.376 235.854 184.166 237.734 182.866 238.774C179.026 241.844 165.626 248.974 156.315 252.885C153.605 254.025 150.905 254.595 148.275 254.595H148.265Z" fill="black"/>
<path d="M118.444 164.484C118.004 164.484 117.554 164.384 117.134 164.184C113.874 162.593 109.694 158.253 107.694 152.133C106.214 147.593 105.384 140.423 109.854 131.983C110.624 130.523 112.444 129.963 113.914 130.733C115.374 131.513 115.934 133.323 115.164 134.793C111.684 141.373 112.284 146.843 113.404 150.273C114.944 155.003 118.054 157.963 119.774 158.793C121.264 159.523 121.884 161.313 121.164 162.804C120.644 163.874 119.574 164.494 118.464 164.494L118.444 164.484Z" fill="black"/>
<path d="M178.035 78.4315C152.715 69.6813 129.254 61.3411 123.934 58.9811C118.614 56.631 86.3336 35.4206 82.2936 32.5706C71.5334 30.1705 63.0732 31.4106 52.793 54.831C42.5128 78.2515 33.7526 110.582 56.9331 125.482C70.4233 126.152 93.8038 120.842 99.7839 120.222C104.594 119.722 112.674 118.982 116.614 118.922C117.734 118.402 145.015 121.392 150.675 122.592C162.855 125.162 166.095 126.802 171.585 121.402C177.075 116.002 189.126 100.372 178.035 78.4315Z" fill="white"/>
<path d="M171.577 121.404C177.067 116.004 189.117 100.373 178.027 78.4328C173.227 76.7727 168.486 75.1227 163.926 73.5327C171.397 86.4829 163.226 118.344 151.786 123.244C161.806 125.454 166.506 126.384 171.567 121.404H171.577Z" fill="#82BE28"/>
<path d="M159.305 125.172C148.505 127.442 125.175 174.773 118.435 178.513C114.195 180.863 108.454 180.663 106.284 173.633C103.324 164.053 121.055 144.433 125.815 131.462C125.815 131.462 127.915 121.622 123.395 119.512C129.055 113.172 159.305 125.182 159.305 125.182V125.172Z" fill="white"/>
<path d="M43.5731 110.881C42.213 110.881 40.973 109.941 40.653 108.561C38.253 98.251 38.953 84.8708 42.573 71.8505C46.0231 59.4503 51.0332 48.3101 56.6833 40.4699C65.7635 27.8897 74.2537 26.8997 79.7638 28.2797C85.4539 29.7097 92.744 34.3698 95.1041 48.4401C95.3741 50.0701 94.274 51.6201 92.644 51.9001C91.014 52.1802 89.4639 51.0701 89.1839 49.4401C88.1739 43.44 85.4739 35.8998 78.3037 34.0998C66.6235 31.1697 54.4033 51.6701 48.3532 73.4506C44.9931 85.5308 44.3131 97.831 46.4931 107.191C46.8731 108.801 45.8631 110.421 44.2531 110.791C44.0231 110.841 43.7931 110.871 43.5731 110.871V110.881Z" fill="black"/>
<path d="M59.3139 128.902C57.5339 128.902 55.8138 128.522 54.1938 127.772C52.8838 127.162 51.6338 126.402 50.4837 125.522C49.1637 124.512 48.9137 122.632 49.9237 121.312C50.9337 119.992 52.8138 119.742 54.1338 120.752C54.9438 121.372 55.8238 121.902 56.7439 122.332C58.5839 123.192 60.7039 123.072 63.054 121.982C71.7342 117.942 80.8043 102.572 86.1644 82.8116C86.8644 80.2215 89.5545 68.8813 90.0545 66.4213C90.3845 64.8012 91.9645 63.7412 93.5846 64.0712C95.2046 64.4012 96.2546 65.9813 95.9346 67.6013C95.4146 70.2014 92.6946 81.6416 91.9545 84.3716C86.0644 106.102 75.9642 122.592 65.584 127.412C63.464 128.392 61.3639 128.892 59.3339 128.892L59.3139 128.902Z" fill="black"/>
<path d="M162.877 128.152H162.856C161.196 128.152 159.856 126.802 159.866 125.142C159.866 123.492 161.216 122.152 162.866 122.152H162.886C168.567 122.152 176.587 113.682 178.427 102.752C180.457 90.7416 178.637 80.6614 174.287 79.8114C172.657 79.4914 171.597 77.9214 171.917 76.2914C172.237 74.6713 173.807 73.6013 175.437 73.9213C185.397 75.8614 186.467 91.2017 184.347 103.742C182.157 116.742 172.127 128.142 162.886 128.142L162.877 128.152Z" fill="black"/>
<path d="M45.9424 26.3407C44.6723 26.3407 43.4823 25.5207 43.0823 24.2407L36.6722 3.90029C36.1722 2.32025 37.0522 0.640223 38.6322 0.140213C40.2122 -0.359797 41.9023 0.52022 42.3923 2.10025L48.8024 22.4406C49.3024 24.0207 48.4224 25.7007 46.8424 26.2007C46.5424 26.2907 46.2424 26.3407 45.9424 26.3407Z" fill="black"/>
<path d="M32.0841 40.0404C31.4541 40.0404 30.8241 39.8404 30.2841 39.4404L10.7937 24.8201C9.46368 23.8301 9.20367 21.9501 10.1937 20.6201C11.1937 19.29 13.0737 19.03 14.3938 20.0201L33.8842 34.6403C35.2142 35.6304 35.4742 37.5104 34.4842 38.8404C33.8942 39.6304 32.9941 40.0404 32.0841 40.0404Z" fill="black"/>
<path d="M24.734 58.1219C24.564 58.1219 24.394 58.1119 24.224 58.0819L2.49359 54.3318C0.863557 54.0518 -0.236464 52.5017 0.0435414 50.8617C0.323547 49.2317 1.88358 48.1317 3.51361 48.4117L25.244 52.1617C26.8741 52.4417 27.9741 53.9918 27.6941 55.6318C27.4441 57.0918 26.174 58.1219 24.744 58.1219H24.734Z" fill="black"/>
<path d="M162.855 128.162C162.685 128.162 162.505 128.142 162.335 128.112C162.235 128.092 152.265 126.352 142.555 125.102C140.915 124.892 139.755 123.382 139.965 121.742C140.175 120.102 141.685 118.942 143.325 119.152C153.175 120.422 163.275 122.182 163.375 122.202C165.005 122.492 166.095 124.042 165.815 125.672C165.565 127.132 164.295 128.152 162.865 128.152L162.855 128.162Z" fill="black"/>
<path d="M60.733 128.783C58.253 128.783 56.113 128.513 54.4029 127.863C52.8529 127.272 52.0729 125.542 52.6629 123.992C53.2529 122.442 54.9829 121.662 56.533 122.252C60.633 123.812 71.2133 121.762 81.4534 119.782C91.8837 117.762 102.664 115.682 111.024 116.202C114.974 116.442 119.654 116.832 124.914 117.372C126.564 117.542 127.764 119.012 127.594 120.662C127.424 122.312 125.954 123.512 124.304 123.342C119.114 122.822 114.524 122.432 110.644 122.192C103.034 121.732 92.6337 123.732 82.5835 125.682C74.1433 127.312 66.5032 128.793 60.733 128.793V128.783Z" fill="black"/>
<path d="M174.856 79.8029C174.566 79.8029 174.266 79.7629 173.966 79.6629C173.646 79.5629 141.845 69.6627 123.035 62.2125C115.245 59.1325 106.364 52.6723 97.7843 46.4222C89.3541 40.2921 80.634 33.942 76.2639 33.612C74.6138 33.492 73.3738 32.0519 73.4938 30.3919C73.6138 28.7419 75.0639 27.5018 76.7139 27.6218C82.794 28.0819 91.3742 34.322 101.314 41.5621C109.595 47.5922 118.165 53.8223 125.245 56.6324C143.845 63.9925 175.426 73.8327 175.746 73.9227C177.326 74.4127 178.216 76.0928 177.716 77.6828C177.316 78.9728 176.136 79.7929 174.856 79.7929V79.8029Z" fill="black"/>
<path d="M113.585 182.853C112.265 182.853 110.985 182.613 109.795 182.143C107.695 181.303 104.895 179.293 103.415 174.513C101.165 167.253 107.445 157.223 114.085 146.593C117.635 140.922 121.296 135.052 122.996 130.422C123.566 128.862 125.296 128.072 126.846 128.642C128.406 129.212 129.196 130.932 128.626 132.492C126.716 137.712 122.876 143.843 119.165 149.783C113.795 158.373 107.705 168.113 109.145 172.753C109.775 174.783 110.745 176.073 112.035 176.593C113.375 177.133 115.225 176.873 116.975 175.903C119.055 174.743 125.336 164.753 130.376 156.723C142.846 136.882 151.556 123.762 158.676 122.262C160.296 121.922 161.886 122.962 162.226 124.582C162.566 126.202 161.526 127.792 159.906 128.132C154.746 129.222 142.666 148.433 135.446 159.913C127.676 172.273 123.126 179.353 119.865 181.153C117.805 182.293 115.635 182.873 113.555 182.873L113.585 182.853Z" fill="black"/>
<path d="M80.1137 102.082C79.8937 102.082 79.6737 102.062 79.4437 102.002C70.0635 99.8721 68.1534 94.452 68.2034 90.2919C68.2634 85.2318 69.4735 79.4817 71.4235 74.9016C74.6736 67.2715 78.7136 65.6614 81.5237 65.6614C83.1837 65.6614 84.5238 67.0015 84.5238 68.6615C84.5238 70.3215 83.1837 71.6615 81.5237 71.6615C78.5936 71.6615 74.3236 81.3317 74.2036 90.3619C74.1736 92.3519 74.9036 94.812 80.7737 96.152C82.3937 96.522 83.4037 98.1221 83.0337 99.7421C82.7137 101.132 81.4837 102.072 80.1137 102.072V102.082Z" fill="black"/>
<path d="M154.166 138.723C148.096 141.753 141.355 137.713 134.605 140.073C127.855 142.433 125.835 154.914 134.945 159.634L144.045 164.354" fill="white"/>
<path d="M140.325 165.413C139.865 165.413 139.385 165.303 138.945 165.073L133.565 162.283C128.395 159.603 125.445 154.333 125.855 148.523C126.235 143.183 129.285 138.753 133.615 137.233C137.465 135.883 141.205 136.273 144.495 136.613C145.385 136.703 146.275 136.793 147.145 136.853C148.795 136.953 150.055 138.383 149.955 140.033C149.855 141.683 148.425 142.943 146.775 142.843C145.815 142.783 144.845 142.683 143.875 142.583C140.945 142.283 138.175 141.993 135.595 142.903C133.585 143.603 132.035 146.093 131.835 148.953C131.715 150.603 131.925 154.683 136.325 156.963L141.705 159.753C143.175 160.513 143.745 162.323 142.985 163.793C142.455 164.823 141.405 165.413 140.315 165.413H140.325Z" fill="black"/>
<path d="M229.886 142.323C199.086 150.263 200.096 171.774 187.456 178.424C163.615 201.094 163.945 193.044 151.835 199.094C165.765 207.455 150.415 268.226 188.936 272.076C194.626 254.685 240.307 183.214 243.067 171.884C233.117 153.844 241.897 153.884 229.886 142.313V142.323Z" fill="#2D8C3C"/>
<path d="M219.567 150.123C232.977 139.683 260.968 123.282 294.648 151.253C268.368 174.533 219.567 150.123 219.567 150.123Z" fill="white"/>
<path d="M203.947 422.779C170.626 414.629 160.496 393.069 161.156 388.639C161.826 344.298 192.417 279.117 195.637 249.146C197.297 221.486 197.517 168.165 213.927 151.644C222.387 143.134 229.887 142.334 229.887 142.334C237.388 151.134 262.388 151.134 282.248 140.784C282.248 140.784 294.619 143.154 307.969 174.485C320.149 203.075 327.509 249.426 318.789 250.236C310.069 251.056 325.129 261.386 325.129 261.386C325.669 311.267 344.29 360.148 347.29 401.059C347.91 409.569 336.98 411.039 330.999 409.039C325.019 407.039 312.599 405.049 298.409 409.039C284.218 413.029 243.868 432.54 203.967 422.789L203.947 422.779Z" fill="#2D8C3C"/>
<path d="M226.327 428.199C221.807 428.199 217.157 427.859 212.337 427.069C201.336 425.279 191.516 422.119 183.146 417.689C181.686 416.909 181.126 415.099 181.896 413.629C182.676 412.169 184.486 411.609 185.956 412.379C193.746 416.509 202.946 419.449 213.307 421.139C234.847 424.649 252.567 418.899 271.328 412.809C284.488 408.539 298.088 404.129 312.879 403.369C321.549 402.919 330.739 405.349 335.439 406.829C336.929 407.299 341.999 408.639 344.469 406.049C348.869 401.439 344.309 387.318 342.139 381.468C341.569 379.918 342.359 378.188 343.909 377.618C345.459 377.048 347.189 377.838 347.759 379.388C353.469 394.849 353.809 404.929 348.799 410.189C345.469 413.689 339.929 414.549 333.619 412.549C326.279 410.229 318.819 409.069 313.169 409.359C299.168 410.079 286.538 414.179 273.158 418.519C258.447 423.289 243.347 428.189 226.317 428.189L226.327 428.199Z" fill="black"/>
<path d="M299.988 230.065C310.788 258.195 321.009 290.146 323.219 299.936C327.139 317.337 329.219 323.637 325.009 338.997L322.779 353.017C321.799 359.707 327.989 365.547 334.889 363.137C341.789 360.727 341.089 355.577 345.449 352.547C349.579 349.677 359.169 353.887 364.69 361.527C370.21 369.168 381.33 369.878 386.12 369.568C392.92 369.138 399.06 364.307 398.28 357.127C397.5 349.947 388.66 346.877 385.18 345.457C381.29 343.867 368.8 337.987 361.879 329.047C355.279 320.517 343.169 273.946 337.059 250.405C320.529 191.114 313.699 181.664 309.808 172.904L299.998 230.055L299.988 230.065Z" fill="white"/>
<path d="M384.33 372.617C379.41 372.617 368.3 371.627 362.26 363.277C357.13 356.187 349.18 353.597 347.16 355.007C345.93 355.867 345.24 357.027 344.37 358.487C342.87 361.017 341.01 364.167 335.879 365.967C331.799 367.397 327.409 366.647 324.159 363.967C320.849 361.237 319.179 356.867 319.809 352.577C320.049 350.937 321.569 349.807 323.209 350.047C324.849 350.287 325.979 351.807 325.739 353.447C325.409 355.707 326.239 357.907 327.969 359.337C328.929 360.137 330.989 361.317 333.889 360.307C336.949 359.237 337.899 357.647 339.2 355.437C340.24 353.677 341.42 351.687 343.72 350.087C348.87 346.507 359.96 349.887 367.11 359.767C372.49 367.207 384.55 366.657 385.91 366.577C389.02 366.377 391.911 365.037 393.621 362.997C394.941 361.417 395.501 359.557 395.271 357.457C394.731 352.527 388.25 349.937 384.77 348.537L384.02 348.237C381.3 347.127 367.36 341.066 359.48 330.886C353.33 322.936 343.66 287.875 334.129 251.165C320.169 201.104 313.219 186.884 309.059 178.383C308.299 176.833 307.639 175.483 307.039 174.123C306.369 172.613 307.039 170.833 308.559 170.163C310.079 169.493 311.849 170.163 312.519 171.683C313.079 172.953 313.719 174.243 314.449 175.753C318.689 184.433 325.799 198.964 339.92 249.605C345.33 270.445 357.97 319.136 364.22 327.216C371.3 336.376 384.77 342.067 386.28 342.687L386.98 342.967C391.301 344.697 400.291 348.287 401.221 356.807C401.631 360.547 400.581 364.027 398.201 366.857C395.411 370.177 391.06 372.257 386.28 372.557C385.86 372.587 385.18 372.617 384.31 372.617H384.33Z" fill="black"/>
<path d="M325.009 341.996C324.749 341.996 324.479 341.956 324.219 341.886C322.619 341.446 321.679 339.796 322.119 338.196C325.809 324.726 324.449 318.765 321.159 304.365C320.879 303.165 320.599 301.905 320.299 300.585C318.229 291.385 308.199 259.754 297.198 231.134C296.608 229.584 297.378 227.854 298.918 227.254C300.468 226.664 302.198 227.434 302.798 228.974C313.889 257.854 324.039 289.885 326.149 299.255C326.449 300.575 326.729 301.825 327.009 303.025C330.429 318.015 331.999 324.846 327.909 339.776C327.539 341.106 326.339 341.986 325.019 341.986L325.009 341.996Z" fill="black"/>
<path d="M364.04 252.746C365.51 251.416 368.77 245.256 367.31 243.916C347.2 225.455 324.479 189.645 316.609 176.245C300.199 148.314 296.389 142.124 281.388 140.124C264.738 151.244 273.018 161.734 278.698 181.625C283.218 197.445 282.138 269.716 305.489 274.686C323.229 256.506 343.62 271.136 364.04 252.756V252.746Z" fill="#2D8C3C"/>
<path d="M300.388 281.675C299.848 281.675 299.308 281.535 298.818 281.225C297.408 280.355 296.968 278.505 297.838 277.095C304.248 266.685 317.948 264.465 331.208 262.324C342.239 260.544 353.639 258.694 361.129 252.404C362.989 250.844 364.059 248.924 364.149 247.004C364.219 245.304 363.509 243.654 362.089 242.234C348.629 228.744 337.809 211.393 327.348 194.603C320.208 183.143 313.458 172.313 306.658 164.193L305.978 163.373C302.388 159.082 297.928 153.742 294.028 150.192C292.808 149.072 292.718 147.182 293.828 145.952C294.948 144.722 296.838 144.642 298.068 145.752C302.268 149.582 306.868 155.092 310.578 159.522L311.258 160.342C318.318 168.783 325.178 179.783 332.439 191.423C342.729 207.923 353.359 224.984 366.339 237.994C368.939 240.604 370.289 243.894 370.139 247.264C369.979 250.884 368.149 254.334 364.989 256.994C356.229 264.345 343.999 266.325 332.169 268.245C319.698 270.265 307.918 272.165 302.948 280.235C302.378 281.155 301.398 281.665 300.388 281.665V281.675Z" fill="black"/>
<path d="M252.908 152.734C252.458 152.734 252.018 152.734 251.578 152.714C242.757 152.444 234.917 149.534 229.507 144.504C228.297 143.374 228.217 141.473 229.347 140.263C230.477 139.053 232.377 138.973 233.587 140.103C241.707 147.644 259.138 150.534 278.228 139.083C279.648 138.233 281.488 138.693 282.348 140.113C283.208 141.533 282.738 143.374 281.318 144.234C272.028 149.814 262.238 152.734 252.908 152.734Z" fill="black"/>
<path d="M293.068 266.596C291.798 266.596 290.617 265.776 290.207 264.506C287.167 254.936 285.247 239.936 284.747 230.046C284.667 228.396 285.937 226.986 287.597 226.896C289.257 226.806 290.657 228.086 290.747 229.746C291.228 239.256 293.048 253.626 295.928 262.686C296.428 264.266 295.558 265.956 293.978 266.456C293.678 266.556 293.368 266.596 293.068 266.596Z" fill="black"/>
<path d="M171.965 409.308C171.245 409.308 170.525 409.048 169.945 408.528C161.445 400.778 158.285 393.018 158.165 388.718C157.915 379.698 161.725 356.517 173.185 318.506C174.005 315.796 174.845 313.046 175.695 310.246C181.955 289.746 189.056 266.505 193.136 238.965C193.376 237.325 194.916 236.205 196.546 236.435C198.186 236.675 199.316 238.205 199.076 239.845C194.926 267.836 187.755 291.306 181.435 312.006C180.585 314.806 179.745 317.546 178.925 320.247C164.405 368.437 164.075 385.608 164.155 388.558C164.215 390.898 166.355 397.158 173.975 404.098C175.195 405.218 175.285 407.108 174.175 408.338C173.585 408.988 172.775 409.318 171.955 409.318L171.965 409.308Z" fill="black"/>
<path d="M163.605 197.765C162.465 197.765 161.365 197.105 160.865 195.995C160.185 194.485 160.865 192.705 162.365 192.025C174.225 186.685 196.626 163.604 198.326 160.064C199.036 158.574 200.826 157.934 202.316 158.634C203.806 159.344 204.456 161.104 203.756 162.604C201.386 167.685 177.565 191.755 164.815 197.495C164.415 197.675 163.995 197.765 163.585 197.765H163.605Z" fill="black"/>
<path d="M178.936 271.785C178.576 271.785 178.206 271.715 177.846 271.575C164.766 266.485 162.406 252.775 159.906 238.255C158.166 228.164 156.196 216.714 150.536 206.384C149.736 204.934 150.276 203.104 151.726 202.314C153.176 201.514 155.006 202.054 155.796 203.504C161.936 214.714 163.996 226.674 165.816 237.235C168.206 251.135 170.096 262.115 180.016 265.975C181.556 266.575 182.326 268.315 181.726 269.855C181.266 271.045 180.126 271.765 178.926 271.765L178.936 271.785Z" fill="black"/>
<path d="M153.176 207.955C152.016 207.955 150.916 207.275 150.426 206.145C145.606 195.055 146.786 181.094 148.746 174.424C149.846 170.674 151.956 168.884 153.996 167.154C157.006 164.594 160.756 161.414 163.316 148.094C164.496 141.914 161.656 134.764 155.716 128.963C154.526 127.803 154.506 125.903 155.666 124.723C156.826 123.533 158.726 123.513 159.906 124.673C167.296 131.883 170.776 141.064 169.206 149.224C166.256 164.624 161.416 168.734 157.876 171.734C156.146 173.204 155.096 174.084 154.506 176.114C152.856 181.724 151.786 194.195 155.936 203.755C156.596 205.275 155.896 207.045 154.376 207.705C153.986 207.875 153.586 207.955 153.186 207.955H153.176Z" fill="black"/>
</svg>
