<svg width="335" height="251" viewBox="0 0 335 251" fill="none" xmlns="http://www.w3.org/2000/svg">
<path d="M224.7 43.8276C242.341 42.1747 274.016 50.2387 284.894 65.0745C295.813 79.9704 308.636 145.314 310.188 159.388C312.322 178.662 306.542 198.787 294.631 213.512C282.731 228.248 264.88 237.374 246.608 238.065C165.517 234.619 182.807 106.436 224.7 43.8276Z" fill="black"/>
<path d="M214.623 15.5273C214.623 15.5273 246.338 21.1871 261.685 18.4624C277.031 15.7376 289.303 3.64663 310.62 8.83564C331.937 14.0247 341.583 69.0703 318.974 81.7523C296.365 94.4344 259.651 71.775 237.132 73.5881C232.354 62.9998 214.623 15.5173 214.623 15.5173V15.5273Z" fill="#82BE28"/>
<path d="M302.265 88.674C291.396 88.674 279.536 85.3582 267.915 82.1126C256.516 78.927 245.747 75.9218 237.382 76.593C236.12 76.7032 234.918 75.9919 234.397 74.8299C229.639 64.2716 212.539 18.5221 211.808 16.5787C211.427 15.5669 211.628 14.435 212.319 13.6035C213.01 12.7721 214.092 12.3814 215.154 12.5717C215.464 12.6318 246.518 18.1114 261.164 15.5068C266.002 14.6453 270.59 12.7621 275.439 10.7786C285.186 6.78168 296.235 2.24379 311.341 5.92018C324.173 9.04561 332.117 26.4659 334.291 42.3435C337.506 65.8142 329.252 79.4479 320.457 84.3865C314.927 87.4919 308.776 88.674 302.275 88.674H302.265ZM239.847 70.4924C248.642 70.4924 258.82 73.3373 269.538 76.3325C286.929 81.191 304.92 86.2097 317.512 79.1474C328.31 73.0869 330.094 55.9772 328.33 43.1649C326.087 26.7764 318.513 13.864 309.908 11.7703C296.706 8.55476 287.479 12.3413 277.713 16.3483C272.784 18.3718 267.685 20.4655 262.216 21.4371C250.165 23.5809 229.018 20.8361 219.261 19.3435C223.609 30.9236 234.588 59.9941 239.065 70.5124C239.326 70.5124 239.586 70.5124 239.847 70.5124V70.4924Z" fill="black"/>
<path d="M254.05 74.9307C254.891 76.3431 263.036 77.0744 263.036 77.0744C263.036 77.0744 254.35 28.3397 273.283 13.2034C269.958 9.57714 254.711 11.9012 252.207 17.7814C249.702 23.6616 241.568 54.1045 254.05 74.9207V74.9307Z" fill="black"/>
<path d="M305.77 73.2065C303.136 73.2065 300.581 72.4752 298.257 71.0327C293.91 68.318 288.52 61.9169 287.579 46.7806C287.038 38.1456 289.853 30.7027 295.703 25.2632C301.383 19.9841 308.705 17.8203 311.019 18.1308C312.662 18.3512 313.814 19.8739 313.594 21.5167C313.384 23.0895 311.971 24.2214 310.438 24.1112C309.427 24.2114 303.136 25.7841 298.438 31.0533C294.831 35.1003 293.199 40.2693 293.579 46.41C294.19 56.227 296.985 63.1591 301.433 65.9339C304.468 67.8272 307.473 67.2361 309.457 66.4147C312.412 65.1826 314.866 62.3577 316.188 58.6412C317.761 54.2135 317.531 49.3751 315.547 45.6887C315.057 44.7671 313.754 42.6935 312.352 43.2244C311.17 43.6752 309.837 45.7188 310.378 48.0528C310.749 49.6656 309.747 51.2884 308.124 51.6591C306.512 52.0297 304.899 51.028 304.518 49.4052C303.366 44.4265 305.881 39.2375 310.238 37.6047C313.374 36.4326 317.801 37.1839 320.837 42.8538C323.601 48.0128 323.972 54.6643 321.838 60.6647C319.945 65.9639 316.269 70.0911 311.751 71.9644C309.757 72.7958 307.734 73.2065 305.75 73.2065H305.77ZM310.218 24.0812C310.218 24.0812 310.318 24.0912 310.378 24.1012C310.328 24.1012 310.268 24.1012 310.218 24.0812Z" fill="black"/>
<path d="M234.519 86.9008C231.994 74.1086 222.618 31.8351 208.063 24.843C207.051 24.3621 205.628 24.0216 205.618 24.0216L198.215 9.80686C199.458 9.15573 206.129 6.13047 215.005 10.3979C230.211 17.7006 242.072 42.3935 250.246 83.7954L234.519 86.9008Z" fill="black"/>
<path d="M119.207 5.29827C102.257 11.0082 85.8787 41.5212 78.4458 49.435C71.0129 57.3387 51.0782 85.6579 41.141 95.5951C36.0722 100.664 42.8239 109.169 46.5003 111.463C56.5377 117.734 75.1601 129.805 81.7315 136.386C88.3129 142.977 103.349 132.79 109.269 115.58C115.19 98.3599 133.942 47.7921 136.847 36.5726C127.11 18.7116 131.077 16.7782 119.197 5.3183L119.207 5.29827Z" fill="#2D8C3C"/>
<path d="M81.7417 139.391C80.8201 139.391 79.9185 138.97 79.3275 138.179C71.5439 127.741 59.1224 121.049 50.0566 116.171C45.8693 113.917 42.5636 112.134 40.6503 110.451C38.1259 108.237 36.5732 105.001 36.3829 101.565C36.1925 98.0794 37.4447 94.6635 39.919 91.9488C54.1938 77.3033 67.0862 59.8931 74.0082 50.5368C75 49.2045 76.8832 48.924 78.2155 49.9057C79.5479 50.8975 79.8283 52.7707 78.8466 54.113C71.8345 63.5895 58.7918 81.2101 44.2966 96.076C42.5936 97.9392 42.3132 99.9126 42.3833 101.235C42.4835 103.048 43.3149 104.801 44.6071 105.933C46.0196 107.165 49.2051 108.888 52.9016 110.882C61.9272 115.74 75.5609 123.093 84.1458 134.593C85.1376 135.925 84.8671 137.808 83.5348 138.8C82.9938 139.201 82.3627 139.391 81.7417 139.391Z" fill="black"/>
<path d="M64.862 100.675C56.9282 101.066 57.4892 103.17 57.0384 110.553C56.5776 118.166 60.0336 159.798 76.6224 159.618C91.7086 163.144 97.8493 136.097 95.7757 128.444C93.7021 120.79 75.5906 99.8741 64.852 100.665L64.862 100.675Z" fill="white"/>
<path d="M79.7579 163.003C78.636 163.003 77.4739 162.883 76.2919 162.623C63.7802 162.422 58.1904 144.802 55.6961 129.976C55.4256 128.343 56.5276 126.791 58.1604 126.51C59.7932 126.25 61.3459 127.342 61.6264 128.974C64.5315 146.294 70.1011 156.612 76.5323 156.612C76.5624 156.612 76.6024 156.612 76.6325 156.612C76.8629 156.612 77.0933 156.642 77.3137 156.693C80.6795 157.484 83.4443 156.703 85.7383 154.318C90.8372 149.039 91.899 138.24 90.7871 134.123C90.3563 132.52 91.298 130.868 92.9008 130.437C94.5035 130.006 96.1564 130.948 96.5872 132.551C98.2801 138.801 96.6172 151.704 90.0658 158.496C87.1908 161.481 83.6747 163.003 79.7579 163.003Z" fill="black"/>
<path d="M104.069 224.569C103.999 224.569 103.919 224.569 103.849 224.569C102.196 224.449 100.954 223.006 101.074 221.353C101.235 219.23 101.425 216.645 101.645 213.67C103.839 184.279 108.978 115.439 107.205 97.7087C105.833 83.9247 106.464 66.4143 106.954 57.2083C107.045 55.5554 108.437 54.2732 110.12 54.3734C111.773 54.4635 113.045 55.876 112.955 57.5389C112.464 66.5746 111.843 83.7344 113.185 97.1177C115.008 115.359 109.839 184.57 107.636 214.121C107.415 217.096 107.225 219.681 107.065 221.794C106.944 223.377 105.632 224.579 104.069 224.579V224.569Z" fill="black"/>
<path d="M206.327 227.716C204.755 227.716 203.432 226.494 203.332 224.901C202.2 207.15 200.517 191.764 199.025 179.062C197.332 164.647 196.811 112.847 199.205 97.5801C199.466 95.9372 201.008 94.8153 202.641 95.0757C204.284 95.3362 205.406 96.8688 205.145 98.5117C202.861 113.067 203.382 164.576 204.995 178.36C206.498 191.143 208.191 206.63 209.333 224.521C209.443 226.173 208.181 227.606 206.528 227.716C206.458 227.716 206.398 227.716 206.337 227.716H206.327Z" fill="black"/>
<path d="M125.738 9.04478C125.738 9.04478 135.725 4.04609 151.723 4.04609C173.711 4.04609 195.7 12.04 189.369 19.7033C183.038 27.3666 102.428 35.0299 125.738 9.04478Z" fill="white"/>
<path d="M208.612 32.0253C192.584 1.97312 180.593 4.21702 180.593 4.21702C168.903 15.9073 136.767 14.3947 128.142 5.76971C128.142 5.76971 121.681 7.68304 115.45 15.9875C108.869 24.7627 100.284 42.4334 98.8512 57.2592C97.4187 72.0849 86.4997 129.104 86.3495 130.196C76.7728 201.239 64.4013 215.915 76.893 227.715C101.756 251.206 147.516 250.695 163.053 244.545C195.028 231.883 220.412 240.698 228.927 241.66C239.786 242.882 231.982 212.479 228.526 173.952C223.498 117.784 215.564 45.068 208.602 32.0153L208.612 32.0253Z" fill="#2D8C3C"/>
<path d="M150.441 16.2084C149.98 16.2084 149.509 16.2084 149.049 16.1883C139.803 15.9279 131.438 12.9327 126.099 7.97405C124.887 6.84209 124.807 4.93878 125.939 3.72667C127.07 2.51457 128.974 2.44445 130.186 3.56639C138.681 11.4601 157.824 13.7741 176.567 2.52458C177.989 1.67311 179.832 2.13391 180.694 3.55638C181.555 4.97885 181.084 6.82205 179.662 7.68355C170.346 13.2733 160.268 16.2084 150.441 16.2084Z" fill="black"/>
<path d="M92.6297 242.491C92.229 242.491 91.8183 242.411 91.4276 242.24C74.1676 234.717 66.334 225.241 68.1472 214.092C72.3845 187.936 82.1816 149.199 82.8227 146.664L83.4437 142.888C86.8196 122.432 90.3157 101.286 88.6328 85.6684C88.4524 84.0156 89.6545 82.533 91.2974 82.3627C92.9302 82.2024 94.4228 83.3845 94.6031 85.0273C96.3662 101.456 92.81 123.013 89.364 143.87L88.7229 147.766C88.7129 147.856 88.6929 147.937 88.6728 148.027C88.5727 148.427 78.395 188.407 74.0675 215.053C72.7552 223.147 79.3967 230.44 93.8218 236.731C95.3444 237.392 96.0356 239.165 95.3745 240.688C94.8836 241.82 93.7817 242.491 92.6197 242.491H92.6297Z" fill="black"/>
<path d="M133.821 250.996C126.158 250.996 118.655 250.304 111.682 248.912C110.06 248.591 108.998 246.999 109.328 245.376C109.659 243.743 111.242 242.691 112.864 243.022C128.131 246.077 146.162 245.566 162.35 241.629C185.36 236.03 209.342 231.171 227.474 238.424C229.016 239.045 229.768 240.788 229.146 242.331C228.525 243.873 226.782 244.624 225.24 244.003C208.761 237.412 185.841 242.1 163.773 247.469C154.136 249.814 143.858 250.996 133.831 250.996H133.821Z" fill="black"/>
<path d="M262.535 116.392C264.008 115.06 267.274 108.889 265.811 107.546C245.666 89.0543 222.907 53.182 215.023 39.7587C198.584 11.7801 190.59 7.98349 181.575 8.98523C162.602 11.0889 171.357 25.2234 177.047 45.1481C181.575 60.9956 180.493 133.391 203.883 138.37C221.654 120.158 242.08 134.814 262.535 116.402V116.392Z" fill="#2D8C3C"/>
<path d="M198.765 145.362C198.224 145.362 197.683 145.221 197.192 144.911C195.78 144.039 195.339 142.186 196.21 140.774C202.631 130.345 216.355 128.132 229.638 125.978C240.688 124.195 252.107 122.342 259.61 116.041C261.474 114.478 262.546 112.555 262.636 110.641C262.716 108.938 261.995 107.285 260.572 105.863C247.089 92.3495 236.25 74.9592 225.772 58.15C218.609 46.6701 211.857 35.8212 205.046 27.6871L204.364 26.8757C200.768 22.5782 196.29 17.2289 192.384 13.6627C191.162 12.5408 191.071 10.6475 192.183 9.41537C193.305 8.19324 195.199 8.10308 196.431 9.21502C200.638 13.0517 205.256 18.5813 208.972 23.019L209.644 23.8304C216.716 32.2851 223.588 43.3042 230.86 54.9645C241.168 71.4932 251.817 88.5829 264.819 101.616C267.424 104.23 268.776 107.526 268.626 110.912C268.466 114.538 266.633 117.994 263.467 120.659C254.692 128.021 242.441 130.005 230.58 131.928C218.088 133.952 206.288 135.855 201.309 143.939C200.738 144.861 199.756 145.372 198.745 145.372L198.765 145.362Z" fill="black"/>
<path d="M92.7221 116.082C95.7273 90.0367 97.1198 74.2593 99.7343 55.9775C102.74 34.941 114.76 12.9027 128.785 5.89049C133.433 8.00416 117.766 -2.12343 103.741 9.89745C88.3746 24.4027 78.6977 54.9758 81.703 77.0141C84.7082 99.0524 88.7152 109.07 92.7221 116.082Z" fill="black"/>
<path d="M191.553 148.479C179.222 124.508 177.849 88.8656 184.821 60.4763C188.738 44.5085 198.024 28.9315 211.097 22.8309C215.925 24.4136 210.075 -1.12073 190.812 7.42411C178.43 14.3662 170.366 28.5208 164.276 46.2215C158.385 63.3413 156.131 106.667 165.788 128.655C168.042 133.794 185.322 147.948 191.553 148.489V148.479Z" fill="black"/>
<path d="M214.624 131.678C214.624 131.678 196.131 117.013 194.418 112.244C192.706 107.476 184.692 73.5974 166.199 83.5947C144.762 95.1849 148.849 125.988 165.518 132.87C180.815 139.181 188.148 149.119 198.636 156.902C209.765 165.156 225.252 173.631 240.739 167.15C256.226 160.669 252.509 134.633 247.891 126.169C243.955 125.888 222.247 127.501 214.624 131.688V131.678Z" fill="white"/>
<path d="M229.289 172.469C219.411 172.469 208.693 168.111 196.842 159.316C193.416 156.772 190.281 153.987 187.266 151.292C180.915 145.632 174.353 139.772 164.376 135.655C155.39 131.939 149.189 122.051 148.588 110.451C147.927 97.8092 153.978 86.7901 164.777 80.9499C169.385 78.4556 173.862 78.0749 178.09 79.808C189.029 84.2958 194.348 101.766 196.622 109.219C196.892 110.101 197.103 110.792 197.253 111.223C198.094 113.567 207.14 121.811 215.445 128.473C218.199 128.002 220.964 127.591 223.659 127.2C230.911 126.148 238.414 125.057 246.769 122.462C248.352 121.971 250.035 122.853 250.526 124.446C251.016 126.038 250.135 127.711 248.542 128.202C239.737 130.937 232.003 132.059 224.52 133.151C221.305 133.621 218.259 134.062 215.164 134.623C214.313 134.773 213.441 134.563 212.76 134.022C208.262 130.456 193.446 118.425 191.593 113.236C191.413 112.745 191.172 111.964 190.872 110.962C189.019 104.892 184.1 88.7635 175.806 85.3576C173.291 84.3258 170.617 84.6063 167.631 86.2291C158.926 90.9373 154.058 99.8628 154.589 110.131C155.07 119.277 159.918 127.3 166.67 130.085C177.589 134.593 184.541 140.794 191.273 146.784C194.328 149.509 197.223 152.084 200.428 154.468C215.665 165.767 228.477 169.003 239.587 164.355C248.442 160.648 249.934 148.377 248.372 138.119C248.121 136.476 249.253 134.944 250.896 134.693C252.529 134.443 254.072 135.575 254.322 137.218C257.958 161.199 245.747 168.292 241.911 169.894C237.853 171.587 233.656 172.439 229.299 172.439L229.289 172.469Z" fill="black"/>
<path d="M226.203 140.695C219.692 140.695 213.271 134.565 212.519 133.823C211.337 132.661 211.317 130.758 212.489 129.576C213.651 128.394 215.555 128.384 216.737 129.536C218.971 131.72 223.629 135.056 226.694 134.655C228.337 134.454 229.85 135.617 230.05 137.259C230.26 138.902 229.088 140.405 227.445 140.615C227.035 140.665 226.624 140.695 226.213 140.695H226.203Z" fill="black"/>
<path d="M78.0849 72.8868C88.2526 67.9583 97.8993 73.3476 98.851 79.2278C100.334 88.4038 98.0396 98.6616 90.0156 108.188C85.3776 113.698 80.449 124.466 72.3048 128.133C69.0292 129.605 59.8833 126.129 57.1685 116.593C53.1516 102.448 60.7548 78.5867 78.0749 72.8868H78.0849Z" fill="white"/>
<path d="M76.4312 123.605C75.2191 123.605 74.0771 122.874 73.6263 121.672C73.0353 120.119 73.8066 118.386 75.3593 117.795C79.9473 116.042 82.1912 113.197 85.2966 109.26C86.0579 108.289 86.8593 107.287 87.7208 106.255C97.5278 94.5448 98.3593 82.8144 94.1219 77.2648C91.0766 73.2879 85.6973 72.6868 79.3563 75.6119C64.2801 82.3236 57.5985 96.9189 59.9926 117.825C60.1829 119.478 59.0009 120.961 57.348 121.151C55.6952 121.341 54.2126 120.159 54.0222 118.506C51.3376 95.0757 59.4517 77.8959 76.8719 70.1324C85.8175 66.0052 94.0718 67.2974 98.8902 73.6084C106.764 83.8963 101.004 99.7438 92.3288 110.102C91.5074 111.094 90.746 112.045 90.0148 112.977C86.7291 117.134 83.6337 121.061 77.503 123.395C77.1524 123.525 76.7918 123.595 76.4312 123.595V123.605Z" fill="black"/>
<path d="M75.0088 180.794C72.7749 179.552 68.0868 194.778 71.6229 198.184C75.1591 201.59 134.492 223.078 214.631 207.731C213.269 196.481 212.708 190.651 212.708 190.651C212.708 190.651 103.178 196.471 75.0188 180.784L75.0088 180.794Z" fill="black"/>
<path d="M206.359 189.56C206.359 189.56 207.521 207.561 209.835 209.695C212.71 212.36 283.042 211.749 286.027 204.135C289.012 196.522 289.583 171.879 281.319 170.868C273.084 169.856 210.345 183.53 206.359 189.56Z" fill="#82BE28"/>
<path d="M230.019 214.143C210.215 214.143 208.422 212.48 207.791 211.899C205.677 209.935 204.184 202.482 203.363 189.75C203.323 189.099 203.493 188.448 203.854 187.897C204.705 186.615 207.3 182.698 241.559 174.644C254.692 171.559 276.23 167.211 281.689 167.882C283.402 168.093 285.836 169.024 287.77 172.26C290.655 177.088 291.085 184.932 291.095 189.169C291.095 195.49 290.234 201.641 288.831 205.237C287.89 207.631 285.065 209.204 279.385 210.516C271.041 212.43 255.654 213.762 238.203 214.083C235.188 214.143 232.474 214.163 230.029 214.163L230.019 214.143ZM211.848 207.251C215.374 207.982 229.889 208.513 247.67 207.772C272.523 206.73 281.749 204.125 283.312 202.803C285.556 196.722 286.057 181.125 282.601 175.325C282.05 174.404 281.499 173.903 280.948 173.843C277.953 173.462 262.876 175.836 243.753 180.304C222.857 185.172 212.319 189.029 209.454 190.802C209.954 197.484 210.946 204.947 211.848 207.241V207.251Z" fill="black"/>
</svg>
