<svg width="303" height="317" viewBox="0 0 303 317" fill="none" xmlns="http://www.w3.org/2000/svg">
<path d="M185.699 60.8372C185.017 60.9775 183.644 61.6394 181.808 62.6522C170.798 57.9892 141.095 59.4734 142.018 61.0076C141.957 60.7569 131.749 65.3597 125.251 67.8968C125.251 67.8968 125.141 71.928 123.797 76.8217C122.453 81.7153 110.56 159.141 129.212 180.611C131.187 161.397 166.215 103.205 194.183 67.3353C194.183 67.3353 189.941 63.9458 185.709 60.8372H185.699Z" fill="white"/>
<path d="M39.2911 64.3565C42.5201 61.8896 45.5585 58.2796 46.5112 54.86C47.4638 51.4405 57.1809 11.2787 82.4011 15.9316C107.09 20.4943 90.0023 37.2009 88.8591 47.2689C88.6886 48.8232 89.5109 53.2355 91.8976 52.3932C93.7728 51.7414 103.64 46.0856 105.576 45.9352C110.509 45.5541 112.796 51.25 111.843 54.479C110.6 58.7007 90.1928 76.7009 64.9325 75.3672C61.7035 70.2429 44.997 64.918 39.2911 64.3565Z" fill="white"/>
<path d="M62.6463 39.6672C71.3807 33.5903 113.919 3.39623 113.919 3.39623C118.853 2.82464 121.701 2.06252 129.493 9.85421C137.284 17.6459 144.685 32.4572 138.227 41.9436C135.379 45.3631 113.729 55.9927 112.776 56.3738C111.823 56.7548 82.3913 72.8998 80.6866 72.8998C72.9049 76.7004 51.4451 52.5832 62.6463 39.6672Z" fill="white"/>
<path d="M138.238 41.9542C140.665 38.3842 141.136 34.0622 140.354 29.6499C139.722 29.7702 139.05 29.9507 138.338 30.1814C133.515 31.7858 117.861 34.5937 110.431 30.783C103 26.9724 95.9703 24.3551 87.3363 24.5557C86.5641 24.7462 68.3735 36.499 61.8654 40.6906C52.5394 53.8072 73.0966 76.6107 80.6878 72.9104C82.3925 72.9104 111.835 56.7654 112.787 56.3843C113.74 56.0033 135.39 45.3737 138.238 41.9542Z" fill="white"/>
<path d="M132.571 92.5141C130.636 98.8918 130.445 104.708 132.942 110.243C130.445 110.524 122.593 133.247 120.929 139.064C122.864 160.403 123.275 176.518 125.21 179.296C131.859 158.518 143.572 146.946 143.09 145.441C142.81 126.047 144.875 110.875 144.875 110.875C150.691 106.443 156.668 97.7787 156.668 97.7787C147.523 88.914 150.34 81.3931 144.244 84.1608C138.147 86.9285 132.561 92.5141 132.561 92.5141H132.571Z" fill="#82BE28"/>
<path d="M126.465 71.8557C128.772 67.2329 126.465 66.0797 118.373 69.5493C110.28 73.019 82.5528 81.6831 73.8786 81.6831C65.2045 81.6831 68.1627 82.8163 69.3159 78.1934C70.4691 73.5705 61.1733 68.3961 51.9275 66.6613C42.6818 64.9264 32.2828 61.4568 28.8131 62.0384C25.3435 62.62 21.8838 71.2841 17.261 81.1015C12.6381 90.9188 3.97396 94.9701 3.97396 106.522C3.97396 118.074 5.70879 127.902 28.8232 131.943C51.9375 135.984 82.5528 133.678 84.8692 143.495C87.1857 153.313 81.9812 193.184 73.8887 221.492C65.7961 249.801 61.1733 265.986 60.6017 274.069C60.0301 282.151 69.2658 286.203 80.2464 293.132C91.2269 300.061 110.29 303.531 110.29 303.531L124.159 263.088C124.159 263.088 131.088 299.49 133.976 306.419C161.713 318.553 217.749 314.512 234.506 301.796C240.282 298.326 241.435 298.908 238.547 286.193C235.659 273.477 230.455 265.395 230.455 265.395L270.326 253.843C266.856 233.616 250.681 134.239 245.477 121.534C240.272 108.829 227.567 90.9088 209.075 79.3566C195.788 70.1109 190.323 60.6846 190.323 60.6846C176.454 73.9716 139.17 142.914 128.772 179.897C113.168 142.342 126.465 71.8557 126.465 71.8557Z" fill="#2D8C3C"/>
<path d="M226.372 264.051C224.055 270.489 219.422 278.211 221.478 284.648C223.534 291.086 229.46 293.664 235.637 289.803C241.815 285.942 240.792 280.537 248.774 284.909C256.756 289.281 258.812 296.241 259.845 301.385C260.878 306.529 273.493 314 280.442 312.977C287.392 311.955 295.895 309.367 291.774 299.841C287.652 290.314 274.526 282.071 270.916 275.122C267.306 268.173 265.761 255.547 266.283 254.525C266.804 253.502 226.372 264.051 226.372 264.051Z" fill="white"/>
<path d="M281.184 316.188C279.59 316.188 277.965 315.977 276.361 315.546C273.673 314.824 260.096 310.652 256.485 299.02C253.888 290.636 247.149 285.633 244.793 286.314C243.349 286.736 242.326 287.618 241.032 288.731C238.796 290.657 236.018 293.053 230.563 293.113C226.241 293.123 222.3 291.048 220.074 287.458C217.808 283.797 217.617 279.114 219.593 275.244C220.345 273.759 222.16 273.178 223.644 273.93C225.128 274.682 225.71 276.497 224.958 277.981C223.915 280.027 224.005 282.383 225.188 284.289C225.84 285.342 227.394 287.107 230.413 287.107C230.443 287.107 230.473 287.107 230.503 287.107C233.752 287.066 235.166 285.863 237.112 284.189C238.666 282.855 240.421 281.341 243.128 280.558C249.165 278.814 258.621 285.582 262.242 297.265C264.969 306.059 276.612 309.409 277.925 309.76C280.954 310.572 284.112 310.221 286.399 308.837C288.164 307.764 289.287 306.17 289.738 304.104C290.811 299.25 285.476 294.708 282.618 292.261L282.007 291.74C279.78 289.814 268.479 279.586 264.257 267.382C263.094 264.012 262.432 260.623 262.252 257.013C262.171 255.358 263.445 253.934 265.099 253.854C266.754 253.764 268.168 255.047 268.258 256.702C268.469 260.743 269.321 263.611 269.943 265.406C273.734 276.387 284.704 286.104 285.948 287.177L286.529 287.668C290.079 290.697 297.47 296.994 295.624 305.377C294.812 309.058 292.706 312.026 289.527 313.961C287.101 315.435 284.203 316.198 281.194 316.198L281.184 316.188Z" fill="black"/>
<path d="M241.304 121.305C240 121.305 238.797 120.453 238.416 119.139C233.121 101.059 216.996 86.8794 202.766 74.3746C197.091 69.3907 191.736 64.6776 187.765 60.2452C186.652 59.0118 186.762 57.1065 187.995 55.9934C189.229 54.8803 191.134 54.9906 192.247 56.224C195.978 60.3856 201.212 64.9884 206.748 69.8419C220.857 82.2465 238.416 97.6795 244.202 117.434C244.673 119.029 243.751 120.704 242.156 121.165C241.875 121.245 241.585 121.285 241.314 121.285L241.304 121.305Z" fill="black"/>
<path d="M270.394 256.703C269.221 256.703 268.098 256.011 267.616 254.848C265.44 249.613 257.639 208.679 247.661 155.701C246.548 149.775 245.485 144.129 244.502 138.925C244.191 137.29 245.264 135.716 246.899 135.415C248.523 135.104 250.108 136.177 250.408 137.812C251.391 143.006 252.454 148.662 253.567 154.588C260.527 191.571 271.046 247.467 273.162 252.531C273.804 254.065 273.071 255.83 271.537 256.462C271.156 256.623 270.765 256.693 270.384 256.693L270.394 256.703Z" fill="black"/>
<path d="M207.73 171.455C206.176 171.455 204.862 170.262 204.732 168.688C204.291 163.212 204.05 159.081 203.99 156.073C203.599 136.307 217.919 122.69 218.53 122.118C219.744 120.985 221.649 121.045 222.782 122.258C223.915 123.472 223.855 125.377 222.642 126.51C222.522 126.631 209.676 138.915 210.007 155.952C210.067 158.8 210.308 162.922 210.729 168.206C210.859 169.861 209.626 171.315 207.971 171.445C207.891 171.445 207.811 171.445 207.73 171.445V171.455Z" fill="black"/>
<path d="M224.507 268.795C222.642 268.795 221.007 268.615 219.704 268.214C219.643 268.194 219.583 268.174 219.533 268.154C213.015 265.707 212.544 255.779 211.942 243.204C211.882 242.021 211.832 240.818 211.761 239.614C211.511 234.791 210.287 223.419 208.873 210.242C208.131 203.293 207.329 195.872 206.607 188.712C206.437 187.058 207.64 185.584 209.295 185.413C210.949 185.243 212.423 186.446 212.594 188.101C213.316 195.241 214.118 202.651 214.86 209.601C216.284 222.868 217.507 234.319 217.768 239.303C217.828 240.517 217.888 241.73 217.949 242.923C218.32 250.685 218.821 261.295 221.579 262.498C227.355 264.153 246.067 259.61 269.342 250.886C270.896 250.304 272.631 251.086 273.213 252.64C273.794 254.195 273.012 255.93 271.458 256.511C260.858 260.482 237.172 268.795 224.517 268.795H224.507Z" fill="black"/>
<path d="M110.621 306.501C110.571 306.501 110.51 306.501 110.46 306.501C94.2852 305.629 70.9401 296.533 61.9852 284.399C59.3479 280.83 58.4153 277.44 59.1974 274.301C60.5211 269.007 64.5524 252.892 74.7106 209.661C80.958 183.087 81.7803 167.684 82.6628 151.369C83.1441 142.504 83.6355 133.339 85.0093 122.017C85.2099 120.363 86.7141 119.189 88.3587 119.39C90.0032 119.59 91.1865 121.095 90.986 122.739C89.6322 133.87 89.1509 142.925 88.6796 151.69C87.7871 168.276 86.9447 183.95 80.577 211.035C70.4087 254.306 66.3674 270.461 65.0437 275.765C64.7228 277.029 65.3646 278.834 66.8387 280.83C72.8555 288.982 91.0662 298.649 108.465 300.324C112.626 286.646 115.564 276.798 115.564 276.798C116.036 275.204 117.71 274.301 119.305 274.783C120.899 275.254 121.802 276.939 121.32 278.523C121.32 278.523 118.041 289.494 113.509 304.385C113.118 305.659 111.944 306.521 110.631 306.521L110.621 306.501Z" fill="black"/>
<path d="M180.024 317C176.534 317 173.235 316.889 170.166 316.719C153.951 315.806 134.547 312.156 131.458 307.834C128.099 303.121 121.551 268.404 119.625 257.885C119.325 256.251 120.408 254.686 122.042 254.385C123.667 254.085 125.241 255.168 125.542 256.802C129.362 277.69 134.376 300.885 136.272 304.214C141.256 307.945 194.805 319.427 233.543 299.752C235.027 299 236.832 299.591 237.584 301.075C238.336 302.56 237.744 304.365 236.26 305.117C217.688 314.553 196.75 317 180.014 317H180.024Z" fill="black"/>
<path d="M125.22 183.949H125.2C123.977 183.949 122.874 183.197 122.423 182.053C121.821 180.549 107.912 144.419 122.342 80.5006C122.713 78.8761 124.318 77.8632 125.942 78.2242C127.567 78.5953 128.58 80.1997 128.219 81.8243C117.98 127.15 122.553 158.438 125.792 172.096C137.424 146.444 162.605 99.1525 178.078 75.8075C179 74.4237 180.865 74.0426 182.249 74.9652C183.633 75.8877 184.014 77.7529 183.092 79.1368C166.385 104.347 136.963 160.283 128.008 182.094C127.547 183.227 126.444 183.959 125.22 183.959V183.949Z" fill="black"/>
<path d="M133.906 190.077C133.555 190.077 133.194 190.017 132.853 189.886C131.298 189.305 130.506 187.57 131.098 186.016C133.485 179.638 143.984 171.997 154.132 164.606C160.129 160.244 169.194 153.646 169.816 151.349C170.608 148.451 165.905 144.62 162.796 142.093C160.269 140.038 158.595 138.674 158.143 136.849C157.883 135.786 158.113 134.693 158.775 133.84C160.199 132.035 162.696 132.065 167.209 132.095C171.34 132.126 178.239 132.186 180.385 130.04C182.03 128.395 183.002 121.556 183.945 114.948C185.349 105.11 187.094 92.8662 192.228 82.2868C192.95 80.7926 194.755 80.1609 196.249 80.8929C197.744 81.6149 198.365 83.4199 197.643 84.9141C192.92 94.6512 191.245 106.374 189.902 115.8C188.628 124.755 187.696 131.233 184.637 134.292C180.766 138.162 173.426 138.162 167.429 138.112C171.691 141.622 177.317 146.676 175.612 152.923C174.489 157.055 168.372 161.668 157.662 169.46C149.118 175.687 138.478 183.428 136.714 188.111C136.262 189.315 135.119 190.067 133.896 190.067L133.906 190.077Z" fill="black"/>
<path d="M112.936 184.762C111.903 184.762 110.89 184.23 110.338 183.268C105.355 174.714 101.203 162.64 97.1818 150.958C96.4598 148.862 95.7478 146.796 95.0459 144.781C93.2709 139.696 93.0603 136.327 94.374 133.84C95.8581 131.022 98.7762 130.23 101.343 129.538C102.928 129.117 104.552 128.676 106.006 127.803C106.046 127.773 106.087 127.753 106.127 127.733C105.495 126.61 103.078 124.534 101.584 123.241C98.9668 120.994 96.2592 118.658 95.096 116.121C91.7266 108.81 105.716 79.2782 116.887 66.8536C118 65.6201 119.895 65.5198 121.139 66.6329C122.372 67.746 122.472 69.6413 121.359 70.8848C109.787 83.7506 99.2676 109.552 100.581 113.654C101.183 114.968 103.489 116.943 105.515 118.688C109.145 121.817 112.585 124.765 112.274 128.425C112.164 129.699 111.532 131.534 109.115 132.978C106.949 134.281 104.713 134.883 102.928 135.364C101.544 135.735 99.9796 136.157 99.7088 136.658C99.5985 136.869 99.1172 138.162 100.742 142.805C101.454 144.831 102.166 146.906 102.888 149.012C106.809 160.414 110.86 172.207 115.553 180.239C116.385 181.673 115.904 183.518 114.47 184.351C113.989 184.632 113.467 184.762 112.956 184.762H112.936Z" fill="black"/>
<path d="M148.094 82.3972C147.081 82.3972 146.078 82.1866 145.096 81.7153C141.155 79.84 138.999 74.5152 137.384 62.7324C137.164 61.0878 138.317 59.5736 139.961 59.343C141.606 59.1123 143.12 60.2756 143.351 61.9201C144.965 73.7832 146.921 75.9191 147.683 76.2801C148.826 76.8216 152.185 74.786 155.144 72.991L156.538 72.1486C160.769 69.6116 164.319 66.904 167.448 64.5174C171.539 61.3987 175.069 58.7012 179 57.1268C180.544 56.5051 182.289 57.2571 182.911 58.8015C183.533 60.3458 182.781 62.0906 181.236 62.7123C178.067 63.9859 174.838 66.4427 171.098 69.3007C167.839 71.7876 164.149 74.6055 159.636 77.313L158.262 78.1453C154.572 80.3815 151.253 82.3972 148.094 82.3972Z" fill="black"/>
<path d="M162.194 105.239C161.281 105.239 160.369 104.818 159.777 104.026C156.628 99.8041 147.804 88.3121 144.845 85.8452C143.542 85.7449 139.771 89.8965 137.976 91.882C136.853 93.1255 135.68 94.4191 134.537 95.5422C133.353 96.7054 131.448 96.6954 130.285 95.5021C129.121 94.3188 129.132 92.4135 130.325 91.2502C131.348 90.2474 132.401 89.0742 133.514 87.8407C137.946 82.9471 143.451 76.8501 148.696 81.2223C152.737 84.5917 163.397 98.8113 164.6 100.426C165.593 101.76 165.322 103.645 163.989 104.638C163.447 105.039 162.815 105.239 162.194 105.239Z" fill="black"/>
<path d="M77.4772 141.941C76.8855 141.941 76.2839 141.761 75.7524 141.4C73.1652 139.585 66.7272 139.134 58.5745 138.572C49.8502 137.97 37.907 137.138 23.6272 134.21C9.89898 131.392 4.2332 124.322 1.90672 118.877C-2.06434 109.601 0.833731 99.4029 4.53404 93.4965C6.15856 90.8892 7.56247 88.7633 8.80593 86.888C12.436 81.3827 14.6322 78.0635 17.3096 70.4723C21.5113 58.5591 29.2228 58.3085 40.3137 61.7681C41.5271 62.1491 42.8407 62.5402 44.2045 62.9414C57.0202 66.772 72.9646 71.5353 70.9991 81.9844C70.1668 86.3967 67.5696 91.2502 65.0526 95.9433C62.4353 100.837 59.457 106.382 59.8581 109.541C60.0687 111.186 58.8954 112.69 57.2508 112.9C55.5962 113.101 54.1021 111.938 53.8915 110.293C53.2597 105.229 56.4085 99.3427 59.7578 93.1054C62.0542 88.8134 64.4308 84.3811 65.0927 80.8813C66.0554 75.7671 50.7227 71.1843 42.4897 68.7174C41.0959 68.2963 39.7722 67.9052 38.5287 67.5141C27.2874 64.0143 25.1615 66.3408 22.9854 72.4779C20.0573 80.761 17.5804 84.5215 13.8299 90.2073C12.6165 92.0524 11.2327 94.1483 9.63825 96.6954C6.47945 101.749 4.57415 109.832 7.44214 116.521C10.0093 122.517 15.8656 126.488 24.8406 128.333C38.7293 131.181 49.9706 131.964 58.9957 132.595C68.783 133.277 75.251 133.728 79.212 136.496C80.5758 137.449 80.9067 139.324 79.9541 140.688C79.3725 141.52 78.4399 141.971 77.4872 141.971L77.4772 141.941Z" fill="black"/>
<path d="M39.4111 67.6347C38.6389 67.6347 37.8668 67.3439 37.2752 66.7522C36.1019 65.579 36.1119 63.6737 37.2852 62.5004C42.4997 57.3059 44.3047 52.4324 46.912 43.2869C49.8702 32.9481 62.5355 10.8064 81.0471 12.3708C82.7017 12.5112 83.9351 13.9652 83.7947 15.6198C83.6543 17.2744 82.1902 18.4878 80.5457 18.3675C65.4637 17.0739 54.8541 37.4005 52.7081 44.9415C50.1209 53.9767 47.9549 60.3845 41.537 66.7723C40.9554 67.3539 40.1833 67.6447 39.4111 67.6447V67.6347Z" fill="black"/>
<path d="M78.8612 76.1783C72.8144 76.1783 65.6244 70.8736 60.8511 62.2796C54.8343 51.4595 55.2755 40.1279 61.8438 36.4778C68.4121 32.8276 78.2696 38.4432 84.2763 49.2634C86.9939 54.147 88.5081 59.3715 88.5482 63.9643C88.5883 69.2189 86.7231 73.1599 83.2936 75.0652C81.9398 75.8173 80.4456 76.1783 78.8712 76.1783H78.8612ZM66.3564 41.3614C65.7547 41.3614 65.2232 41.4817 64.762 41.7424C61.7135 43.4371 61.6433 51.3291 66.1057 59.3615C70.5681 67.3939 77.3069 71.5053 80.3554 69.8106C81.7493 69.0284 82.5415 66.9226 82.5214 64.0145C82.4913 60.4646 81.2178 56.1526 79.0116 52.1915C75.2111 45.3625 69.7659 41.3714 66.3564 41.3714V41.3614Z" fill="black"/>
<path d="M136.212 46.907C135.159 46.907 134.126 46.3454 133.585 45.3627C132.783 43.9086 133.304 42.0836 134.758 41.2713C136.633 40.2284 137.686 37.5008 137.656 33.7905C137.616 29.3681 136.102 24.2238 133.374 19.3202C130.647 14.4165 127.087 10.4053 123.346 8.03874C120.208 6.05321 117.34 5.5117 115.464 6.55461C114.01 7.36687 112.185 6.83539 111.373 5.38134C110.571 3.92729 111.092 2.10221 112.546 1.28995C116.457 -0.886113 121.441 -0.294465 126.575 2.95458C131.148 5.85265 135.43 10.6259 138.639 16.392C141.848 22.1581 143.633 28.3252 143.683 33.7303C143.733 39.7972 141.607 44.3398 137.686 46.5159C137.225 46.7766 136.724 46.897 136.232 46.897L136.212 46.907Z" fill="black"/>
<path d="M63.2979 42.1136C62.3252 42.1136 61.3725 41.6423 60.7909 40.7699C59.8684 39.386 60.2494 37.5208 61.6333 36.5982L90.8145 17.2243C92.1984 16.3017 94.0636 16.6828 94.9862 18.0666C95.9087 19.4505 95.5277 21.3157 94.1438 22.2382L64.9625 41.6122C64.4511 41.9532 63.8695 42.1136 63.2979 42.1136Z" fill="black"/>
<path d="M102.517 15.3697C101.595 15.3697 100.682 14.9485 100.09 14.1463C99.1076 12.8126 99.3984 10.9273 100.732 9.9446L112.204 1.51111C113.538 0.528373 115.423 0.819183 116.406 2.1529C117.389 3.48661 117.098 5.37186 115.764 6.3546L104.292 14.7881C103.751 15.1792 103.129 15.3697 102.517 15.3697Z" fill="black"/>
<path d="M83.2634 75.1249C82.1904 75.1249 81.1475 74.5433 80.606 73.5304C79.8238 72.0664 80.3754 70.2413 81.8495 69.4591L134.797 41.2405C136.261 40.4583 138.086 41.0199 138.868 42.484C139.65 43.9481 139.099 45.7731 137.625 46.5553L84.6774 74.7739C84.2261 75.0146 83.7448 75.1249 83.2634 75.1249Z" fill="black"/>
<path d="M130.626 34.6529C129.192 34.6529 127.929 33.63 127.668 32.166C127.377 30.5314 128.47 28.9671 130.105 28.6763C132.782 28.2049 135.069 27.493 136.904 26.5804C138.388 25.8383 140.193 26.44 140.945 27.9242C141.687 29.4083 141.085 31.2133 139.601 31.9654C137.245 33.1387 134.407 34.0312 131.158 34.6028C130.977 34.6328 130.807 34.6529 130.626 34.6529Z" fill="black"/>
<path d="M120.276 35.3347C120.276 35.3347 120.216 35.3347 120.176 35.3347C114.39 35.1542 108.784 34.1413 104.783 32.567C103.981 32.2461 103.189 31.9352 102.417 31.6243C95.8282 28.997 90.6338 26.9112 86.061 27.8538C84.4365 28.1847 82.8421 27.1318 82.5111 25.5073C82.1802 23.8828 83.2332 22.2883 84.8577 21.9574C91.1953 20.6638 97.4327 23.1608 104.653 26.0388C105.415 26.3396 106.197 26.6605 106.989 26.9714C110.369 28.3051 115.242 29.1575 120.367 29.3179C122.031 29.368 123.335 30.7619 123.275 32.4165C123.225 34.0411 121.891 35.3347 120.266 35.3347H120.276Z" fill="black"/>
<path d="M145.517 113.071C144.595 113.071 143.722 112.71 143.071 112.059C142.69 111.768 141.015 111.517 139.912 111.347C138.327 111.116 136.532 110.845 134.798 110.193C130.255 108.489 129.393 101.609 132.21 89.7464C132.591 88.1319 134.216 87.1392 135.83 87.5202C137.445 87.9013 138.448 89.5258 138.057 91.1403C136.272 98.6211 136.422 103.505 137.094 104.638C138.187 105.019 139.501 105.209 140.774 105.4C142.329 105.631 143.913 105.861 145.297 106.473C147.042 104.397 150.2 99.3331 152.597 94.971C153.399 93.5169 155.224 92.9854 156.679 93.7877C158.133 94.5899 158.664 96.415 157.862 97.869C149.829 112.49 147.242 112.861 145.999 113.041C145.828 113.061 145.658 113.081 145.487 113.081L145.517 113.071Z" fill="black"/>
<path d="M128.229 122.69C127.748 122.69 127.256 122.569 126.805 122.329C125.341 121.537 124.799 119.711 125.581 118.257C129.723 110.576 130.966 106.063 130.987 106.013C131.418 104.409 133.072 103.466 134.677 103.897C136.281 104.329 137.234 105.973 136.803 107.578C136.753 107.788 135.409 112.732 130.886 121.115C130.345 122.128 129.302 122.7 128.239 122.7L128.229 122.69Z" fill="black"/>
<path d="M142.619 146.945C142.549 146.945 142.478 146.945 142.408 146.945C140.754 146.835 139.5 145.401 139.61 143.737L141.877 110.674C141.987 109.02 143.421 107.756 145.086 107.877C146.74 107.987 147.994 109.421 147.883 111.086L145.617 144.148C145.507 145.732 144.183 146.945 142.619 146.945Z" fill="black"/>
</svg>
