<svg width="300" height="350" viewBox="0 0 300 350" fill="none" xmlns="http://www.w3.org/2000/svg">
<path d="M128.671 66.9558C116.611 66.0658 101.881 74.9958 85.8112 85.2658C69.7412 95.5358 63.4813 88.8358 58.5713 95.0858C53.6613 101.336 51.0312 142.456 51.0312 168.696C63.8813 173.516 88.3713 165.256 101.321 158.116C114.271 150.976 128.671 66.9558 128.671 66.9558Z" fill="#82BE28"/>
<path d="M37.1106 64.1773C40.3306 61.7173 43.3606 58.1173 44.3106 54.7073C45.2606 51.2973 54.9506 11.2473 80.0906 15.8873C104.711 20.4373 87.6706 37.0973 86.5306 47.1373C86.3606 48.6873 87.1806 53.0873 89.5606 52.2473C91.4306 51.5973 101.271 45.9573 103.201 45.8073C108.121 45.4273 110.401 51.1073 109.451 54.3273C108.211 58.5373 91.7906 73.1873 66.6106 71.8673C66.2706 71.3373 51.1106 114.867 52.2406 133.257C39.9306 144.397 12.0706 125.747 13.2006 115.237C6.90056 112.577 38.6906 64.3273 37.1206 64.1773H37.1106Z" fill="white"/>
<path d="M60.3996 39.5668C69.1096 33.5068 111.53 3.38677 111.53 3.38677C116.45 2.81677 119.29 2.05677 127.06 9.82677C134.83 17.5968 142.21 32.3668 135.77 41.8268C132.93 45.2368 111.34 55.8368 110.39 56.2168C109.44 56.5968 80.0896 72.6968 78.3896 72.6968C70.6296 76.4868 49.2296 52.4368 60.3996 39.5568V39.5668Z" fill="white"/>
<path d="M135.769 41.8373C138.189 38.2773 138.659 33.9673 137.879 29.5673C137.249 29.6873 136.579 29.8673 135.869 30.0973C131.059 31.6973 115.449 34.4973 108.039 30.6973C100.629 26.8973 93.6191 24.2873 85.0091 24.4873C84.2391 24.6773 66.0991 36.3973 59.6091 40.5773C50.3091 53.6573 70.8091 76.3973 78.3791 72.7073C80.0791 72.7073 109.439 56.6073 110.389 56.2273C111.339 55.8473 132.929 45.2473 135.769 41.8373Z" fill="#2D8C3C"/>
<path d="M47.8591 138.277C47.7891 138.277 47.7191 138.277 47.6491 138.277C29.2091 136.987 17.3491 131.677 12.3791 122.497C8.83908 115.947 9.26908 107.497 13.5391 99.8871C15.2591 96.8071 17.2891 93.0471 19.4491 89.0671C25.3391 78.1471 31.4391 66.8671 34.9091 62.5771C39.9191 56.3771 42.3091 51.6671 44.7291 43.1771C47.6791 32.8671 60.3491 10.7971 78.7691 12.3471C80.4191 12.4871 81.6491 13.9371 81.5091 15.5871C81.3691 17.2371 79.9091 18.4471 78.2691 18.3271C63.2191 17.0271 52.6591 37.3071 50.5091 44.8271C47.8591 54.0871 45.1091 59.5171 39.5891 66.3571C36.4691 70.2171 30.2391 81.7471 24.7491 91.9271C22.5891 95.9271 20.5491 99.7071 18.7991 102.827C17.5791 105.007 13.8991 112.647 17.6891 119.657C21.5591 126.817 32.0691 131.187 48.0991 132.307C49.7491 132.427 50.9991 133.857 50.8791 135.507C50.7691 137.087 49.4491 138.297 47.8891 138.297L47.8591 138.277Z" fill="black"/>
<path d="M76.5693 75.9662C70.5393 75.9662 63.3593 70.6762 58.6093 62.1062C52.6093 51.3162 53.0493 40.0162 59.5993 36.3762C66.1493 32.7362 75.9793 38.3362 81.9693 49.1262C84.6793 53.9962 86.1893 59.2062 86.2293 63.7862C86.2693 69.0262 84.4093 72.9562 80.9893 74.8562C79.6393 75.6062 78.1493 75.9662 76.5793 75.9662H76.5693ZM64.0893 41.2462C63.4893 41.2462 62.9493 41.3662 62.4993 41.6262C59.4593 43.3162 59.3893 51.1862 63.8393 59.1962C68.2893 67.2062 75.0193 71.2962 78.0493 69.6162C79.4393 68.8362 80.2293 66.7362 80.2093 63.8362C80.1793 60.2962 78.9093 55.9962 76.7093 52.0462C72.9193 45.2362 67.4893 41.2562 64.0893 41.2562V41.2462Z" fill="black"/>
<path d="M133.751 46.7764C132.701 46.7764 131.671 46.2164 131.131 45.2364C130.331 43.7864 130.851 41.9664 132.301 41.1564C134.171 40.1164 135.221 37.3964 135.191 33.6964C135.151 29.2864 133.641 24.1564 130.921 19.2664C128.201 14.3764 124.651 10.3764 120.921 8.01636C117.791 6.03636 114.931 5.49636 113.061 6.53636C111.611 7.34635 109.781 6.81635 108.981 5.36635C108.181 3.91635 108.701 2.09635 110.151 1.28635C114.061 -0.883645 119.021 -0.293645 124.141 2.94636C128.701 5.83636 132.971 10.5964 136.171 16.3464C139.371 22.0964 141.151 28.2464 141.201 33.6364C141.251 39.6864 139.131 44.2164 135.221 46.3864C134.761 46.6464 134.261 46.7664 133.771 46.7664L133.751 46.7764Z" fill="black"/>
<path d="M61.0494 42.0061C60.0794 42.0061 59.1294 41.5361 58.5494 40.6661C57.6294 39.2861 58.0094 37.4261 59.3894 36.5061L88.4894 17.1861C89.8694 16.2661 91.7294 16.6461 92.6494 18.0261C93.5694 19.4061 93.1894 21.2661 91.8094 22.1861L62.7094 41.5061C62.1994 41.8461 61.6194 42.0061 61.0494 42.0061Z" fill="black"/>
<path d="M100.159 15.3269C99.2393 15.3269 98.3293 14.9069 97.7393 14.1069C96.7593 12.7769 97.0493 10.8969 98.3793 9.9169L109.819 1.5069C111.149 0.526902 113.029 0.816902 114.009 2.1469C114.989 3.4769 114.699 5.3569 113.369 6.3369L101.929 14.7469C101.389 15.1369 100.769 15.3269 100.159 15.3269Z" fill="black"/>
<path d="M80.9593 74.9274C79.8893 74.9274 78.8493 74.3474 78.3093 73.3374C77.5293 71.8774 78.0793 70.0574 79.5493 69.2774L132.349 41.1374C133.809 40.3574 135.629 40.9174 136.409 42.3774C137.189 43.8374 136.639 45.6574 135.169 46.4374L82.3693 74.5774C81.9193 74.8174 81.4393 74.9274 80.9593 74.9274Z" fill="black"/>
<path d="M128.18 34.5662C126.75 34.5662 125.49 33.5462 125.23 32.0862C124.94 30.4562 126.03 28.8962 127.66 28.6062C130.33 28.1362 132.61 27.4262 134.44 26.5162C135.92 25.7762 137.72 26.3762 138.46 27.8562C139.2 29.3362 138.6 31.1362 137.12 31.8762C134.78 33.0462 131.94 33.9362 128.7 34.5062C128.52 34.5362 128.35 34.5562 128.17 34.5562L128.18 34.5662Z" fill="black"/>
<path d="M117.869 35.2365C117.869 35.2365 117.809 35.2365 117.769 35.2365C111.999 35.0565 106.409 34.0465 102.419 32.4765C101.619 32.1565 100.829 31.8465 100.059 31.5365C93.4893 28.9165 88.2993 26.8365 83.7393 27.7665C82.1193 28.0965 80.5293 27.0465 80.1993 25.4265C79.8693 23.8065 80.9193 22.2165 82.5393 21.8865C88.8593 20.5965 95.0793 23.0865 102.279 25.9565C103.039 26.2565 103.819 26.5765 104.609 26.8865C107.979 28.2165 112.839 29.0665 117.949 29.2265C119.609 29.2765 120.909 30.6665 120.849 32.3165C120.799 33.9365 119.469 35.2265 117.849 35.2265L117.869 35.2365Z" fill="black"/>
<path d="M207.3 201.336C206.03 201.336 204.85 200.516 204.44 199.246C201.4 189.676 199.48 174.676 198.98 164.786C198.9 163.136 200.17 161.726 201.83 161.636C203.49 161.536 204.89 162.826 204.98 164.486C205.46 173.996 207.28 188.366 210.16 197.426C210.66 199.006 209.79 200.696 208.21 201.196C207.91 201.296 207.6 201.336 207.3 201.336Z" fill="black"/>
<path d="M105.82 343.886C72.4999 335.736 62.3699 314.176 63.0299 309.746C63.6999 265.406 94.2899 200.226 97.5099 170.256C99.1699 142.596 99.3899 89.2765 115.8 72.7565C124.26 64.2465 131.76 63.4465 131.76 63.4465C139.26 72.2465 164.26 72.2465 184.12 61.8965C184.12 61.8965 196.49 64.2665 209.84 95.5965C222.02 124.186 229.38 170.536 220.66 171.346C211.94 172.166 227 182.496 227 182.496C227.54 232.376 246.16 281.257 249.16 322.167C249.78 330.677 238.85 332.146 232.87 330.146C226.89 328.146 214.47 326.156 200.28 330.146C186.09 334.136 145.74 353.646 105.84 343.896L105.82 343.886Z" fill="#82BE28"/>
<path d="M128.19 349.306C123.67 349.306 119.02 348.956 114.2 348.176C103.2 346.386 93.3696 343.226 85.0096 338.796C83.5496 338.016 82.9896 336.206 83.7596 334.736C84.5396 333.276 86.3496 332.716 87.8196 333.486C95.6096 337.616 104.81 340.556 115.17 342.246C136.71 345.756 154.43 340.006 173.19 333.916C186.35 329.646 199.95 325.236 214.74 324.476C223.41 324.036 232.6 326.456 237.3 327.936C238.8 328.406 243.86 329.746 246.33 327.156C250.72 322.546 246.17 308.426 244 302.576C243.43 301.026 244.22 299.296 245.77 298.726C247.32 298.156 249.05 298.946 249.62 300.496C255.33 315.956 255.68 326.036 250.66 331.296C247.33 334.796 241.8 335.656 235.48 333.656C228.14 331.336 220.69 330.166 215.03 330.466C201.03 331.186 188.4 335.286 175.02 339.626C160.31 344.396 145.21 349.296 128.18 349.296L128.19 349.306Z" fill="black"/>
<path d="M73.831 330.428C73.111 330.428 72.391 330.168 71.811 329.648C63.311 321.898 60.1509 314.138 60.0309 309.838C59.7809 300.818 63.601 277.638 75.051 239.628C81.561 218.028 93.6509 171.848 98.3909 139.888C98.631 138.248 100.161 137.128 101.801 137.358C103.441 137.598 104.571 139.128 104.331 140.768C99.541 173.048 87.361 219.598 80.801 241.358C66.281 289.538 65.9509 306.718 66.0309 309.668C66.1009 312.008 68.2309 318.268 75.8509 325.208C77.0709 326.328 77.161 328.218 76.051 329.448C75.461 330.098 74.651 330.428 73.831 330.428Z" fill="black"/>
<path d="M207.5 150.907C215.25 180.027 222.02 212.877 223.17 222.847C225.22 240.567 226.62 247.047 220.8 261.877L217.09 275.577C215.41 282.127 220.94 288.597 228.06 286.927C235.18 285.257 235.03 280.067 239.68 277.517C244.1 275.097 253.18 280.307 257.86 288.487C262.55 296.667 273.52 298.557 278.31 298.757C285.12 299.047 291.73 294.907 291.72 287.687C291.7 280.467 283.24 276.477 279.94 274.697C276.24 272.697 264.44 265.527 258.52 255.907C252.86 246.717 245.77 199.127 242.2 175.077C232.06 114.367 230.4 133.747 227.46 124.627L207.5 150.907Z" fill="white"/>
<path d="M279 301.786C278.73 301.786 278.46 301.786 278.18 301.766C275.41 301.646 261.29 300.526 255.25 289.986C250.9 282.396 243.27 278.966 241.11 280.156C239.79 280.876 238.99 281.956 237.97 283.326C236.21 285.686 234.02 288.616 228.73 289.856C224.51 290.846 220.24 289.636 217.29 286.626C214.29 283.556 213.09 279.046 214.17 274.846C214.58 273.246 216.22 272.276 217.82 272.686C219.43 273.096 220.39 274.736 219.98 276.336C219.41 278.546 220.01 280.826 221.58 282.426C222.46 283.316 224.37 284.716 227.36 284.016C230.52 283.276 231.63 281.796 233.16 279.736C234.38 278.096 235.76 276.246 238.23 274.896C243.73 271.886 254.4 276.426 260.46 287.006C265.02 294.976 277.08 295.716 278.43 295.776C281.53 295.916 284.56 294.886 286.48 293.036C287.96 291.606 288.71 289.816 288.71 287.706C288.7 282.746 282.53 279.476 279.21 277.726L278.5 277.346C275.92 275.956 262.7 268.446 255.95 257.486C250.68 248.926 244.79 213.036 239.21 175.526C234.92 149.866 232 135.456 230.52 132.726C228.89 132.046 227.98 130.776 227.12 128.086C226.61 126.506 227.48 124.816 229.06 124.306C230.63 123.796 232.33 124.666 232.84 126.246C233.01 126.766 233.14 127.106 233.24 127.316C236.19 128.406 237.89 131.146 245.15 174.586C248.32 195.886 255.71 245.636 261.07 254.336C267.14 264.196 279.92 271.286 281.36 272.056L282.03 272.416C286.14 274.596 294.7 279.126 294.72 287.686C294.72 291.446 293.32 294.796 290.65 297.356C287.7 300.186 283.49 301.776 279 301.776V301.786Z" fill="black"/>
<path d="M220.801 264.876C220.441 264.876 220.071 264.806 219.711 264.666C218.171 264.056 217.411 262.316 218.011 260.776C223.111 247.776 222.391 241.706 220.651 227.046C220.501 225.816 220.351 224.536 220.191 223.186C219.111 213.826 212.491 181.316 204.601 151.676C204.171 150.076 205.131 148.426 206.731 148.006C208.331 147.586 209.971 148.536 210.401 150.136C218.361 180.036 225.051 212.966 226.151 222.506C226.311 223.846 226.461 225.126 226.601 226.346C228.411 241.606 229.241 248.576 223.591 262.976C223.131 264.156 221.991 264.886 220.801 264.886V264.876Z" fill="black"/>
<path d="M265.9 173.866C267.37 172.536 270.63 166.376 269.17 165.036C249.06 146.576 226.34 110.766 218.47 97.3661C202.06 69.4361 198.25 63.2461 183.25 61.2461C166.6 72.3661 174.88 82.8561 180.56 102.746C185.08 118.566 184 190.836 207.35 195.806C225.09 177.626 245.48 192.256 265.9 173.876V173.866Z" fill="#82BE28"/>
<path d="M202.251 202.786C201.711 202.786 201.171 202.646 200.681 202.337C199.271 201.467 198.831 199.617 199.701 198.206C206.111 187.796 219.811 185.576 233.071 183.437C244.101 181.657 255.501 179.807 262.991 173.517C264.851 171.957 265.921 170.037 266.011 168.127C266.091 166.427 265.371 164.777 263.951 163.357C250.491 149.867 239.671 132.507 229.211 115.727C222.071 104.267 215.321 93.4365 208.521 85.3265L207.831 84.4965C204.251 80.2065 199.791 74.8765 195.891 71.3265C194.671 70.2065 194.581 68.3165 195.691 67.0865C196.811 65.8665 198.701 65.7765 199.931 66.8865C204.121 70.7065 208.731 76.2165 212.431 80.6465L213.121 81.4765C220.181 89.9165 227.041 100.917 234.301 112.557C244.591 129.057 255.221 146.117 268.201 159.127C270.801 161.737 272.151 165.027 272.001 168.407C271.841 172.027 270.011 175.477 266.851 178.137C258.091 185.487 245.861 187.467 234.031 189.387C221.561 191.407 209.781 193.306 204.811 201.376C204.241 202.296 203.261 202.807 202.251 202.807V202.786Z" fill="black"/>
<path d="M194.941 187.716C193.671 187.716 192.491 186.896 192.081 185.626C189.041 176.056 187.121 161.056 186.621 151.166C186.541 149.516 187.811 148.106 189.471 148.016C191.111 147.926 192.531 149.206 192.621 150.866C193.101 160.376 194.921 174.746 197.801 183.806C198.301 185.386 197.431 187.076 195.851 187.576C195.551 187.676 195.241 187.716 194.941 187.716Z" fill="black"/>
<path d="M154.77 72.8577C154.32 72.8577 153.88 72.8577 153.44 72.8377C144.62 72.5677 136.78 69.6577 131.37 64.6277C130.16 63.4977 130.08 61.5977 131.21 60.3877C132.34 59.1777 134.24 59.0977 135.45 60.2277C143.57 67.7677 161 70.6577 180.09 59.2077C181.51 58.3577 183.35 58.8177 184.21 60.2377C185.06 61.6577 184.6 63.4977 183.18 64.3577C173.89 69.9377 164.1 72.8577 154.77 72.8577Z" fill="black"/>
<path d="M54.7794 108.506C54.6694 108.506 54.5594 108.506 54.4494 108.486C52.7994 108.306 51.6194 106.816 51.7994 105.176C52.8694 95.5757 58.7594 80.9857 63.9194 70.5357C64.6494 69.0557 66.4494 68.4457 67.9394 69.1757C69.4294 69.9057 70.0294 71.7057 69.2994 73.1957C64.5894 82.7257 58.7394 96.9957 57.7594 105.836C57.5894 107.366 56.2894 108.506 54.7794 108.506Z" fill="black"/>
<path d="M59.7704 173.327C59.1704 173.327 58.5504 173.327 57.9304 173.307C53.2204 173.217 49.9204 171.947 47.8304 169.407C44.1204 164.887 45.3704 157.897 46.9504 149.047C48.2504 141.777 49.7304 133.537 48.8804 124.847C48.7204 123.197 49.9304 121.727 51.5804 121.567C53.2104 121.417 54.6904 122.617 54.8604 124.267C55.7804 133.777 54.1604 142.827 52.8604 150.097C51.6004 157.137 50.5104 163.207 52.4704 165.587C53.3604 166.677 55.2404 167.247 58.0504 167.297C74.0304 167.577 81.2004 163.847 86.9504 160.847C90.1604 159.167 93.2004 157.587 96.9904 157.107C98.6304 156.907 100.13 158.067 100.34 159.707C100.55 161.347 99.3804 162.847 97.7404 163.057C95.0204 163.397 92.6805 164.617 89.7304 166.157C83.9305 169.187 76.0504 173.307 59.7804 173.307L59.7704 173.327Z" fill="black"/>
</svg>
