<svg width="300" height="296" viewBox="0 0 300 296" fill="none" xmlns="http://www.w3.org/2000/svg">
<path d="M127.891 9.78344C97.0913 17.7234 98.1012 39.2334 85.4613 45.8834C57.9113 60.5734 59.2812 79.6234 59.2812 92.4034C69.2513 99.3934 68.2812 130.793 49.2812 127.793C65.2812 140.793 89.3812 132.573 102.381 139.573C108.071 122.183 138.301 50.6734 141.061 39.3434C131.111 21.3034 139.891 21.3434 127.881 9.77344L127.891 9.78344Z" fill="white"/>
<path d="M101.951 290.224C68.6308 282.074 58.5008 260.514 59.1608 256.084C59.8308 211.744 90.4208 146.564 93.6408 116.594C95.3008 88.9344 95.5208 35.6144 111.931 19.0944C120.391 10.5844 127.891 9.78438 127.891 9.78438C135.391 18.5844 160.391 18.5844 180.251 8.23438C180.251 8.23438 192.621 10.6044 205.971 41.9344C218.151 70.5244 225.511 116.874 216.791 117.684C208.071 118.504 223.131 128.834 223.131 128.834C223.671 178.714 242.291 227.594 245.291 268.504C245.911 277.014 234.981 278.484 229.001 276.484C223.021 274.484 210.601 272.494 196.411 276.484C182.221 280.474 141.871 299.984 101.971 290.234L101.951 290.224Z" fill="white"/>
<path d="M124.33 295.644C119.81 295.644 115.16 295.304 110.34 294.514C99.3403 292.724 89.5203 289.564 81.1503 285.134C79.6903 284.354 79.1303 282.544 79.9003 281.074C80.6703 279.614 82.4903 279.044 83.9603 279.824C91.7503 283.954 100.95 286.894 111.31 288.584C132.86 292.094 150.57 286.344 169.33 280.254C182.49 275.984 196.09 271.574 210.88 270.814C219.54 270.374 228.74 272.794 233.44 274.274C234.93 274.744 240 276.084 242.47 273.494C246.87 268.884 242.31 254.764 240.14 248.914C239.57 247.364 240.36 245.634 241.91 245.064C243.46 244.494 245.19 245.284 245.76 246.834C251.47 262.294 251.81 272.374 246.8 277.634C243.47 281.134 237.93 281.994 231.62 279.994C224.28 277.674 216.83 276.514 211.17 276.804C197.17 277.524 184.54 281.624 171.16 285.964C156.45 290.734 141.35 295.634 124.32 295.634L124.33 295.644Z" fill="black"/>
<path d="M197.99 97.5233C208.79 125.653 219.01 157.603 221.22 167.393C225.14 184.793 227.22 191.093 223.01 206.453L220.78 220.473C219.8 227.163 225.99 233.003 232.89 230.593C239.79 228.183 239.09 223.033 243.45 220.003C247.58 217.133 257.17 221.343 262.69 228.983C268.21 236.623 279.33 237.333 284.12 237.023C290.92 236.593 297.06 231.763 296.28 224.583C295.5 217.403 286.66 214.333 283.18 212.913C279.29 211.323 266.8 205.443 259.88 196.503C253.28 187.973 241.17 141.403 235.06 117.863C218.53 58.5733 211.7 49.1233 207.81 40.3633L198 97.5133L197.99 97.5233Z" fill="white"/>
<path d="M282.331 240.075C277.411 240.075 266.301 239.085 260.261 230.735C255.131 223.645 247.181 221.055 245.161 222.465C243.931 223.325 243.241 224.485 242.371 225.945C240.871 228.475 239.011 231.625 233.881 233.425C229.791 234.855 225.411 234.105 222.161 231.425C218.851 228.695 217.181 224.325 217.811 220.035C218.051 218.395 219.581 217.265 221.211 217.505C222.851 217.745 223.981 219.265 223.741 220.905C223.411 223.165 224.241 225.365 225.971 226.795C226.941 227.595 228.991 228.775 231.891 227.755C234.951 226.685 235.891 225.095 237.201 222.885C238.241 221.125 239.421 219.135 241.721 217.535C246.871 213.955 257.961 217.335 265.111 227.215C270.491 234.655 282.561 234.105 283.911 234.025C287.021 233.825 289.911 232.485 291.621 230.445C292.941 228.875 293.501 227.005 293.271 224.905C292.731 219.975 286.251 217.385 282.771 215.985L282.021 215.685C279.311 214.575 265.361 208.515 257.481 198.335C251.331 190.385 241.661 155.325 232.131 118.615C218.171 68.555 211.221 54.335 207.061 45.835C206.301 44.285 205.641 42.935 205.041 41.575C204.371 40.065 205.041 38.285 206.561 37.615C208.081 36.945 209.851 37.615 210.521 39.135C211.081 40.405 211.721 41.695 212.451 43.205C216.691 51.885 223.801 66.415 237.921 117.055C243.331 137.895 255.971 186.585 262.221 194.665C269.311 203.825 282.771 209.515 284.281 210.135L284.981 210.415C289.301 212.145 298.291 215.735 299.221 224.255C299.631 227.995 298.581 231.475 296.201 234.305C293.411 237.625 289.061 239.705 284.281 240.005C283.861 240.035 283.181 240.065 282.311 240.065L282.331 240.075Z" fill="black"/>
<path d="M223.001 209.454C222.741 209.454 222.471 209.414 222.211 209.344C220.611 208.904 219.671 207.254 220.111 205.654C223.801 192.184 222.441 186.234 219.151 171.834C218.871 170.624 218.591 169.364 218.291 168.044C216.221 158.844 206.191 127.214 195.191 98.5941C194.601 97.0441 195.371 95.3141 196.911 94.7141C198.461 94.1241 200.191 94.8941 200.791 96.4341C211.881 125.314 222.031 157.344 224.141 166.714C224.441 168.034 224.721 169.284 225.001 170.484C228.421 185.464 229.981 192.304 225.901 207.224C225.531 208.554 224.331 209.434 223.011 209.434L223.001 209.454Z" fill="black"/>
<path d="M262.041 120.204C263.511 118.874 266.771 112.714 265.311 111.374C245.201 92.914 222.481 57.104 214.611 43.704C198.201 15.774 194.391 9.58398 179.391 7.58398C162.741 18.704 171.021 29.194 176.701 49.084C181.221 64.904 180.141 137.174 203.491 142.144C221.231 123.964 241.621 138.594 262.041 120.214V120.204Z" fill="white"/>
<path d="M198.38 149.125C197.84 149.125 197.3 148.985 196.81 148.675C195.4 147.805 194.96 145.955 195.83 144.545C202.24 134.135 215.94 131.915 229.2 129.775C240.23 127.995 251.63 126.145 259.12 119.855C260.98 118.295 262.05 116.375 262.14 114.455C262.22 112.755 261.5 111.105 260.08 109.685C246.62 96.1946 235.8 78.8346 225.34 62.0546C218.2 50.5946 211.45 39.7646 204.65 31.6546L203.97 30.8446C200.38 26.5546 195.91 21.2146 192.01 17.6546C190.79 16.5346 190.7 14.6446 191.81 13.4146C192.93 12.1946 194.82 12.1046 196.05 13.2146C200.25 17.0446 204.86 22.5546 208.56 26.9946L209.24 27.8046C216.3 36.2446 223.16 47.2446 230.42 58.8846C240.71 75.3846 251.34 92.4446 264.32 105.455C266.92 108.065 268.27 111.355 268.12 114.735C267.96 118.355 266.13 121.805 262.97 124.465C254.21 131.815 241.98 133.795 230.14 135.715C217.67 137.735 205.89 139.635 200.92 147.705C200.35 148.625 199.37 149.135 198.36 149.135L198.38 149.125Z" fill="black"/>
<path d="M150.899 20.1936C150.449 20.1936 150.009 20.1936 149.569 20.1736C140.749 19.9036 132.909 16.9936 127.499 11.9636C126.289 10.8336 126.209 8.93364 127.339 7.72364C128.469 6.51364 130.369 6.43364 131.579 7.56364C139.699 15.1036 157.129 17.9936 176.219 6.54364C177.639 5.69364 179.479 6.15364 180.339 7.57364C181.189 8.99364 180.729 10.8336 179.309 11.6936C170.019 17.2736 160.229 20.1936 150.899 20.1936Z" fill="black"/>
<path d="M191.07 134.054C189.8 134.054 188.62 133.234 188.21 131.964C185.17 122.394 183.25 107.394 182.75 97.5041C182.67 95.8541 183.94 94.4441 185.6 94.3541C187.24 94.2641 188.66 95.5441 188.75 97.2041C189.23 106.714 191.05 121.084 193.93 130.144C194.43 131.724 193.56 133.414 191.98 133.914C191.68 134.014 191.37 134.054 191.07 134.054Z" fill="black"/>
<path d="M69.9599 276.763C69.2399 276.763 68.5199 276.503 67.9399 275.983C59.4399 268.233 56.2799 260.473 56.1599 256.173C55.9099 247.153 59.7299 223.973 71.1799 185.963C71.9999 183.253 72.8399 180.503 73.6899 177.703C79.9499 157.203 87.0499 133.963 91.1299 106.423C91.3699 104.783 92.9099 103.663 94.5399 103.893C96.1799 104.133 97.3099 105.663 97.0699 107.303C92.9199 135.293 85.7499 158.763 79.4299 179.463C78.5799 182.263 77.7399 185.003 76.9199 187.703C62.3999 235.893 62.0699 253.063 62.1499 256.013C62.2199 258.353 64.3499 264.613 71.9699 271.553C73.1899 272.673 73.2799 274.563 72.1699 275.793C71.5799 276.443 70.7699 276.773 69.9499 276.773L69.9599 276.763Z" fill="black"/>
<path d="M83.9002 87.2039C83.4902 87.2039 83.0702 87.124 82.6802 86.944C81.1702 86.264 80.4902 84.494 81.1702 82.984L117.56 1.77395C118.24 0.263953 120.01 -0.416047 121.52 0.263953C123.03 0.943953 123.71 2.71395 123.03 4.22395L86.6402 85.424C86.1402 86.534 85.0502 87.194 83.9002 87.194V87.2039Z" fill="black"/>
<path d="M104.47 53.4748C100.95 38.6448 81.5597 39.5348 67.3797 50.0248L53.9197 62.4748C33.5197 78.4848 17.7397 123.935 50.2197 129.755C62.5897 131.975 66.5497 115.445 67.5597 107.695C68.7597 98.5148 73.3797 83.3348 81.2097 83.2148C96.0697 82.5948 108.01 68.3048 104.49 53.4648L104.47 53.4748Z" fill="white"/>
<path d="M49.281 130.804C49.101 130.804 48.931 130.784 48.751 130.754C35.221 128.324 30.451 120.094 28.841 113.624C24.511 96.2345 37.601 71.4645 52.051 60.1245C53.351 59.1045 55.241 59.3245 56.261 60.6345C57.281 61.9445 57.061 63.8245 55.751 64.8445C40.011 77.2045 31.631 100.024 34.651 112.174C36.371 119.094 41.471 123.364 49.801 124.854C51.431 125.144 52.521 126.704 52.221 128.334C51.961 129.784 50.701 130.804 49.271 130.804H49.281Z" fill="black"/>
<path d="M87.3792 92.6643C88.8992 88.4043 94.2792 85.9743 88.9692 84.1543C83.4892 82.2843 73.8092 82.4843 72.7892 87.3543C71.6992 92.5343 68.3692 102.014 64.4492 101.384C59.5692 100.594 57.8792 97.8043 59.3592 93.7143C61.7892 86.9743 59.0692 84.5343 55.2292 82.8243C51.3892 81.1143 48.9392 85.8743 45.7292 94.2943C42.5192 102.714 45.5592 109.984 56.0092 114.914C70.3692 121.684 79.3892 115.084 87.3792 92.6743V92.6643Z" fill="#82BE28"/>
<path d="M64.2489 123.063C61.3389 123.063 58.2289 122.383 54.8789 121.023C46.6189 117.673 38.1189 108.553 41.3389 93.8933C42.8589 86.9533 45.7589 81.9733 49.4889 79.8733C51.7389 78.6133 54.2289 78.3833 56.6989 79.2333C58.6289 79.8933 61.3589 81.0833 62.6489 83.7833C64.1689 86.9533 63.0089 90.7833 61.5689 94.7633C61.2389 95.6633 61.2189 96.3633 61.4889 96.8233C61.9089 97.5333 63.1889 98.1333 64.9189 98.4133C66.5589 98.6733 67.6689 100.213 67.4089 101.853C67.1489 103.493 65.5889 104.603 63.9689 104.343C59.3889 103.603 57.2789 101.513 56.3189 99.8833C55.4789 98.4533 54.7289 96.0633 55.9189 92.7433C56.4789 91.1933 57.7889 87.5533 57.2289 86.3933C56.9989 85.9133 56.1189 85.3933 54.7389 84.9233C53.8889 84.6333 53.1689 84.6933 52.4189 85.1133C50.2589 86.3233 48.3089 90.0933 47.1889 95.1933C44.7789 106.193 50.7389 112.883 57.1289 115.483C61.7689 117.363 65.6189 117.563 68.9089 116.093C74.5289 113.573 79.4989 105.813 84.5389 91.6733C85.8589 87.9833 86.5889 84.9733 86.5389 84.1833C86.4389 82.5333 87.6789 81.0933 89.3289 80.9833C90.9589 80.8633 92.3989 82.0933 92.5289 83.7333C92.6989 86.0633 91.3589 90.4333 90.1989 93.6833C84.4889 109.683 78.6889 118.283 71.3689 121.563C69.1189 122.573 66.7589 123.073 64.2489 123.073V123.063Z" fill="black"/>
<path d="M68.7003 95.3341C68.4403 95.3341 68.1803 95.3041 67.9203 95.2341C66.3203 94.8041 65.3703 93.1541 65.8003 91.5541L65.8703 91.2941C67.9703 83.4741 69.7203 80.7041 81.0603 80.2341C87.4903 79.9641 93.7303 76.6441 97.7403 71.3441C101.55 66.3141 102.94 60.0541 101.54 54.1741C100.6 50.1941 98.2703 47.5041 94.6203 46.1741C87.8203 43.6941 77.5803 46.2041 69.1503 52.4441C67.8203 53.4241 65.9403 53.1441 64.9503 51.8141C63.9603 50.4841 64.2503 48.6041 65.5803 47.6141C75.7203 40.1141 87.9303 37.3341 96.6803 40.5341C102.26 42.5741 105.96 46.8141 107.38 52.7841C109.19 60.4141 107.42 68.4941 102.52 74.9641C97.3603 81.7741 89.6303 85.8841 81.3103 86.2241C73.3603 86.5541 73.2603 86.9141 71.6603 92.8541L71.5903 93.1241C71.2303 94.4641 70.0203 95.3441 68.7003 95.3441V95.3341Z" fill="black"/>
</svg>
