<svg width="361" height="256" viewBox="0 0 361 256" fill="none" xmlns="http://www.w3.org/2000/svg">
<g clip-path="url(#clip0_10670_104395)">
<path d="M111.414 107.38C111.414 107.38 100.078 108.491 91.4564 104.055C69.5561 92.7995 61.1544 64.5003 61.1544 64.5003C34.3373 55.7982 29.9512 37.9235 34.9982 25.8467C41.5373 10.2051 69.2456 13.2593 77.7775 25.0156C89.5037 41.168 83.7557 53.1546 89.8942 63.3988C98.2158 77.278 109.191 77.278 109.191 77.278L111.424 107.38H111.414Z" fill="white"/>
<path d="M88.1821 105.197C87.6413 105.197 87.0806 105.046 86.5899 104.736C71.9796 95.5632 62.2361 74.8846 58.9015 66.9236C42.619 61.446 35.6894 52.824 32.7453 46.4752C29.5308 39.5356 29.3406 31.5946 32.2246 24.6951C35.0685 17.8957 41.4974 13.5396 50.3297 12.4281C61.5852 11.0161 74.0525 15.2119 79.3098 22.1816C80.3112 23.5034 80.0408 25.386 78.719 26.3874C77.3971 27.3888 75.5145 27.1184 74.5132 25.7966C70.5877 20.5894 60.0832 17.2648 51.0807 18.3964C47.2554 18.877 40.436 20.6294 37.7723 27.0183C35.5292 32.3757 35.6894 38.5443 38.2029 43.9618C41.8079 51.7425 50.0693 57.861 62.0659 61.6563C62.9271 61.9266 63.608 62.5675 63.9485 63.3987C66.482 69.6874 75.825 90.8968 89.7943 99.6689C91.1963 100.55 91.6269 102.403 90.7456 103.815C90.1748 104.726 89.1935 105.217 88.2021 105.217L88.1821 105.197Z" fill="black"/>
<path d="M109.181 80.2803C108.661 80.2803 96.3937 80.1001 87.3112 64.9391C84.4372 60.1524 83.9365 55.1856 83.3957 49.9283C83.2055 48.0757 83.0152 46.1631 82.7048 44.2104C82.4444 42.5681 83.566 41.036 85.2082 40.7756C86.8405 40.5152 88.3826 41.6368 88.643 43.2791C88.9735 45.392 89.1838 47.3948 89.374 49.3275C89.8647 54.1041 90.2853 58.2198 92.4683 61.8648C99.7183 73.9616 108.831 74.282 109.222 74.292C110.874 74.3221 112.196 75.6739 112.186 77.3262C112.166 78.9685 110.844 80.3004 109.201 80.3004L109.181 80.2803Z" fill="black"/>
<path d="M157.548 33.8259L152.681 43.5694C149.316 50.6392 135.908 59.121 124.191 63.0765C100.278 71.1576 100.038 57.3485 96.1026 55.9165C91.0556 54.084 90.3746 54.5546 80.1404 64.4484C70.5972 73.6811 56.3475 72.2992 55.0257 77.2661C51.5008 90.5645 76.8959 114.087 111.404 117.131C126.455 118.453 160.051 109.681 166.831 91.8163C173.62 73.9415 187.759 13.8383 187.759 13.8383C178.397 3.94455 159.09 30.7016 159.09 30.7016L157.528 33.8259" fill="white"/>
<path d="M114.729 120.276C113.457 120.276 112.265 120.226 111.154 120.125C85.1075 117.832 64.8895 104.604 56.3977 92.5072C52.3521 86.7492 50.8801 81.2115 52.1318 76.495C53.1733 72.5696 57.4893 71.3078 62.4862 69.8558C67.3529 68.4338 73.4013 66.6714 78.0878 62.2653C78.7787 61.6144 79.4397 60.9835 80.0705 60.3827C86.8599 53.9438 91.7667 49.2873 97.8051 53.4531C99.1469 54.3744 100.008 55.6962 100.929 57.0981C103.483 60.9935 106.657 65.8302 123.23 60.2325C134.987 56.257 147.234 48.0356 149.977 42.2776L156.426 29.3597C157.167 27.8777 158.97 27.2768 160.452 28.0179C161.934 28.7589 162.535 30.5614 161.794 32.0434L155.365 44.9113C151.399 53.2528 136.829 61.9749 125.143 65.9204C105.786 72.4594 99.898 66.4911 95.8924 60.3827C95.3617 59.5716 94.7609 58.6503 94.3904 58.3899C92.6379 57.1782 91.216 58.0795 84.2063 64.7287C83.5654 65.3295 82.9044 65.9704 82.2035 66.6313C76.4655 72.0288 69.3557 74.1017 64.1585 75.6138C61.8553 76.2847 58.3805 77.2961 57.9198 78.0672C57.1688 80.9311 58.3705 84.8466 61.3145 89.0424C71.9293 104.163 94.861 112.645 111.674 114.127C118.023 114.678 129.609 113.276 141.155 108.85C153.232 104.223 161.353 97.7945 164.037 90.7347C168.473 79.0585 176.254 48.3961 180.5 31.1522C180.9 29.54 182.532 28.5586 184.135 28.9491C185.747 29.3497 186.728 30.9719 186.338 32.5842C181.11 53.8036 173.981 81.4919 169.665 92.8677C162.785 110.993 132.173 120.256 114.739 120.256L114.729 120.276Z" fill="black"/>
<path d="M165.438 229.377C165.368 229.377 165.288 229.377 165.218 229.377C163.566 229.256 162.324 227.814 162.444 226.162C162.604 224.039 162.794 221.446 163.015 218.471C165.208 189.091 170.345 120.275 168.572 102.561C167.201 88.7618 167.831 71.2675 168.322 62.0748C168.412 60.4125 169.824 59.1508 171.486 59.2409C173.139 59.331 174.411 60.743 174.32 62.4053C173.83 71.4378 173.209 88.5815 174.551 101.97C176.373 120.205 171.206 189.381 169.003 218.922C168.783 221.896 168.582 224.48 168.432 226.603C168.312 228.185 167 229.387 165.438 229.387V229.377Z" fill="black"/>
<path d="M267.662 232.523C266.09 232.523 264.768 231.301 264.668 229.709C263.536 211.965 261.854 196.583 260.362 183.886C258.67 169.486 258.149 117.704 260.542 102.433C260.802 100.791 262.345 99.6791 263.977 99.9294C265.619 100.19 266.741 101.722 266.48 103.364C264.197 117.914 264.718 169.406 266.33 183.185C267.832 195.962 269.525 211.444 270.666 229.329C270.776 230.981 269.515 232.413 267.862 232.523C267.792 232.523 267.732 232.523 267.672 232.523H267.662Z" fill="black"/>
<path d="M187.089 13.9292C187.089 13.9292 197.073 8.93229 213.065 8.93229C235.046 8.93229 257.026 16.9234 250.697 24.584C244.369 32.2446 163.787 39.9052 187.089 13.9292Z" fill="white"/>
<path d="M269.945 36.9011C253.923 6.85951 241.195 9.99385 241.195 9.99385C228.187 23.5727 196.103 27.5382 189.514 10.6648C189.514 10.6648 179.359 11.4859 173.131 19.7974C166.552 28.5696 151.531 59.0518 150.099 73.8723C148.667 88.6929 146.244 126.856 146.093 127.947C136.52 198.966 115.581 225.302 128.068 237.098C152.923 260.581 208.88 255.504 224.412 249.355C256.376 236.698 282.192 243.587 290.263 246.471C298.334 249.355 281.691 58.9116 269.955 36.9011H269.945Z" fill="white"/>
<path d="M211.203 24.714C200.778 24.714 191.896 20.8786 187.099 14.4598C186.108 13.1279 186.378 11.2453 187.71 10.2539C189.032 9.26255 190.925 9.53293 191.916 10.8648C199.166 20.5682 219.765 22.4208 237.71 9.55295C239.061 8.58161 240.934 8.89204 241.905 10.2439C242.867 11.5958 242.566 13.4684 241.214 14.4397C231.231 21.5996 220.596 24.714 211.213 24.714H211.203Z" fill="black"/>
<path d="M195.179 255.794C187.518 255.794 180.018 255.103 173.048 253.711C171.426 253.391 170.365 251.799 170.695 250.176C171.026 248.554 172.598 247.493 174.23 247.823C189.481 250.877 207.516 250.367 223.698 246.431C228.155 245.35 231.97 244.268 235.665 243.227C251.487 238.771 262.082 235.776 288.829 242.946C289.54 238.02 290.241 220.976 285.524 162.585C285.394 160.933 286.626 159.481 288.278 159.351C289.92 159.21 291.382 160.452 291.512 162.104C298.362 246.942 294.527 248.374 291.723 249.415C290.811 249.756 289.81 249.666 288.979 249.225C262.552 241.895 253.019 244.579 237.297 249.015C233.732 250.016 229.687 251.158 225.12 252.269C215.487 254.613 205.213 255.794 195.189 255.794H195.179Z" fill="black"/>
<path d="M154.094 252.108C154.014 252.108 153.944 252.108 153.864 252.108C143.189 251.287 129.69 244.237 123.792 236.396C121.129 232.862 120.087 229.236 120.768 225.912C121.499 222.377 122.991 217.901 124.884 212.243C128.589 201.178 133.656 186.017 137.181 165.598C139.985 149.386 141.647 128.537 143.259 108.379C144.741 89.8835 146.133 72.4093 148.296 59.962C148.577 58.3298 150.139 57.2282 151.771 57.5186C153.403 57.799 154.505 59.3612 154.214 60.9935C152.102 73.1703 150.71 90.5043 149.248 108.86C147.625 129.158 145.943 150.147 143.099 166.62C139.494 187.479 134.347 202.89 130.582 214.146C128.749 219.623 127.307 223.939 126.656 227.124C126.246 229.126 127.487 231.309 128.589 232.781C133.426 239.2 145.452 245.429 154.325 246.11C155.977 246.24 157.219 247.682 157.088 249.334C156.968 250.907 155.646 252.108 154.094 252.108Z" fill="black"/>
<path d="M97.3649 96.2119C123.141 102.891 168.674 102.891 168.674 102.891C168.674 102.891 170.396 148.324 181.762 158.839C193.128 169.353 130.26 167.26 121.308 162.354C106.988 145.791 97.3649 111.783 95.7126 95.7713C96.2534 95.9215 96.8042 96.0717 97.3749 96.2219" fill="white"/>
<path d="M157.408 169.394C156.036 169.394 154.624 169.384 153.152 169.354C140.534 169.124 124.742 167.652 119.866 164.978C119.555 164.808 119.275 164.578 119.035 164.307C103.583 146.433 94.2702 111.044 92.7181 96.0729C92.6179 95.0815 93.0085 94.1102 93.7695 93.4693C94.5306 92.8284 95.552 92.6081 96.5133 92.8785C97.0341 93.0287 97.5748 93.1689 98.1156 93.309C123.23 99.8181 168.223 99.8982 168.673 99.8982C170.286 99.8982 171.617 101.17 171.677 102.792C172.148 115.089 175.232 148.726 183.794 156.647C187.529 160.102 185.817 163.156 185.196 164.017C182.613 167.602 173.27 169.414 157.398 169.414L157.408 169.394ZM123.19 159.921C126.635 161.403 138.191 163.026 152.691 163.336C168.413 163.666 176.965 162.194 179.608 160.933C169.094 150.979 166.4 116.711 165.809 105.876C155.715 105.766 121.778 104.985 99.2671 99.768C102.001 117.182 111.164 145.621 123.19 159.921Z" fill="black"/>
<path d="M248.204 126.235C236.087 145.152 210.582 147.605 210.582 147.605C204.814 147.014 199.186 145.202 194.249 142.338C191.515 140.756 188.711 138.773 185.507 138.903C182.663 139.013 180.15 140.896 178.888 143.249C177.626 145.602 177.476 148.366 177.836 150.99C178.127 153.103 178.728 155.256 178.207 157.318C177.196 161.314 172.529 163.357 168.323 164.629C164.117 165.9 159.371 167.272 157.388 170.927C155.776 173.891 156.577 177.627 158.64 180.38C160.703 183.134 163.827 185.037 167.041 186.549C185.247 195.151 213.987 191.165 230.389 177.717C246.792 164.268 261.312 159.872 271.426 147.435" fill="white"/>
<path d="M189.652 194.129C181.05 194.129 172.729 192.557 165.769 189.272C162.965 187.95 158.929 185.777 156.246 182.182C153.302 178.247 152.711 173.26 154.764 169.495C157.307 164.818 162.825 163.156 167.251 161.814L167.471 161.744C172.158 160.332 174.801 158.589 175.302 156.577C175.552 155.575 175.332 154.253 175.092 152.862C175.012 152.371 174.922 151.88 174.862 151.389C174.361 147.704 174.821 144.49 176.243 141.826C178.086 138.371 181.681 136.038 185.396 135.888C189.071 135.758 192.065 137.53 194.709 139.112C195.059 139.323 195.41 139.533 195.76 139.733C200.237 142.327 205.344 143.999 210.571 144.58C213.275 144.24 235.155 141.025 245.67 124.612C246.561 123.21 248.423 122.81 249.815 123.701C251.217 124.592 251.618 126.455 250.727 127.847C237.969 147.764 211.963 150.478 210.861 150.588C210.661 150.608 210.471 150.608 210.271 150.588C204.092 149.958 198.034 148.005 192.736 144.931C192.366 144.72 191.995 144.49 191.625 144.27C189.512 143.008 187.539 141.796 185.626 141.896C183.784 141.966 182.242 143.338 181.541 144.66C180.73 146.182 180.479 148.175 180.81 150.578C180.87 150.999 180.94 151.43 181.01 151.86C181.32 153.713 181.681 155.816 181.12 158.049C179.688 163.727 173.63 166.16 169.194 167.502L168.973 167.572C165.418 168.643 161.393 169.865 160.031 172.369C158.969 174.321 159.781 176.895 161.042 178.587C162.474 180.51 164.788 182.172 168.322 183.844C185.476 191.946 213.024 188.08 228.486 175.413C235.586 169.595 242.415 165.379 248.433 161.664C256.565 156.657 263.574 152.331 269.092 145.551C270.143 144.27 272.026 144.069 273.318 145.121C274.61 146.162 274.8 148.055 273.748 149.347C267.59 156.917 259.809 161.714 251.578 166.791C245.429 170.586 239.07 174.502 232.281 180.069C221.176 189.172 204.943 194.149 189.622 194.149L189.652 194.129Z" fill="black"/>
<path d="M229.718 187.279C276.763 178.016 287.367 145.431 289.15 140.734C307.906 91.1758 278.295 25.565 267.911 18.2548C254.432 8.7717 245.439 13.7186 243.697 22.681C240.483 28.0784 242.075 56.648 243.226 65.8608C247.352 98.7263 252.73 117.252 217.891 136.459C212.263 139.563 211.562 142.156 215.708 156.066C219.784 169.725 217.04 187.209 229.718 187.269V187.279Z" fill="white"/>
<path d="M220.616 138.04C219.554 138.04 218.533 137.48 217.982 136.488C217.181 135.036 217.702 133.214 219.154 132.403C247.913 116.461 246.101 90.5446 240.533 67.2924C240.143 65.6802 241.144 64.0579 242.756 63.6674C244.358 63.2869 245.991 64.2783 246.381 65.8905C252.119 89.8437 254.543 119.655 222.068 137.65C221.607 137.9 221.106 138.03 220.616 138.03V138.04Z" fill="black"/>
<path d="M231.039 190.284C228.215 190.284 225.701 189.563 223.538 188.131C216.068 183.174 214.676 170.746 213.544 160.763C213.294 158.51 212.553 155.856 211.832 153.292C210.64 149.036 209.409 144.65 210.07 140.965C210.36 139.333 211.922 138.241 213.554 138.542C215.187 138.832 216.268 140.394 215.978 142.027C215.557 144.35 216.599 148.075 217.61 151.67C218.391 154.464 219.202 157.348 219.503 160.082C220.484 168.824 221.706 179.709 226.843 183.114C228.916 184.496 231.699 184.636 235.345 183.564C258.026 176.865 274.118 164.578 283.161 147.044C295.948 122.259 294.927 86.5599 280.217 43.8207C270.123 14.5001 252.478 13.7791 251.737 13.7691C250.085 13.729 248.763 12.3771 248.783 10.7249C248.803 9.08258 250.135 7.76075 251.777 7.76075H251.797C252.709 7.76075 274.339 8.27146 285.905 41.868C301.166 86.1894 302.067 123.521 288.508 149.797C278.685 168.844 261.371 182.142 237.057 189.322C234.914 189.953 232.901 190.274 231.029 190.274L231.039 190.284Z" fill="black"/>
<path d="M22.5114 6.13936L97.3651 45.4037L91.8675 56.0585L17.0138 16.7941" fill="#2D8C3C"/>
<path d="M91.8669 59.0619C91.3862 59.0619 90.9056 58.9417 90.475 58.7214L15.6113 19.457C14.1393 18.6859 13.5785 16.8734 14.3495 15.4014C15.1206 13.9294 16.9331 13.3686 18.4052 14.1396L90.5851 52.0021L93.3289 46.6847L21.1189 8.80226C19.6469 8.03119 19.0861 6.21868 19.8572 4.74664C20.6282 3.2746 22.4408 2.71382 23.9128 3.48489L98.7665 42.7493C100.228 43.5203 100.799 45.3228 100.038 46.7849L94.5406 57.4396C94.1701 58.1506 93.5392 58.6914 92.7782 58.9317C92.4878 59.0218 92.1773 59.0719 91.8769 59.0719L91.8669 59.0619Z" fill="black"/>
<path d="M17.0136 16.7933L3.00416 3.00416L22.5112 6.1385" fill="white"/>
<path d="M17.0139 19.7985C16.2528 19.7985 15.4918 19.5081 14.9009 18.9373L0.891533 5.1482C-0.0397568 4.22693 -0.270076 2.81497 0.320742 1.64335C0.911561 0.481742 2.19334 -0.16916 3.48513 0.0411314L22.9921 3.17547C24.6344 3.43583 25.746 4.97797 25.4856 6.62024C25.2252 8.26252 23.6731 9.37406 22.0408 9.1137L11.8167 7.47142L19.1168 14.6614C20.2984 15.823 20.3084 17.7256 19.1468 18.9073C18.556 19.5081 17.7849 19.7985 17.0038 19.7985H17.0139Z" fill="black"/>
</g>
<defs>
<clipPath id="clip0_10670_104395">
<rect width="297.66" height="255.44" fill="white" transform="scale(1.00139)"/>
</clipPath>
</defs>
</svg>
