<svg width="361" height="256" viewBox="0 0 361 256" fill="none" xmlns="http://www.w3.org/2000/svg">
<g clip-path="url(#clip0_10670_104398)">
<path d="M111.26 107.229C111.26 107.229 99.9397 108.339 91.3297 103.909C69.4597 92.669 61.0697 64.409 61.0697 64.409C34.2897 55.719 29.9097 37.869 34.9497 25.809C41.4797 10.189 69.1497 13.239 77.6697 24.979C89.3797 41.109 83.6397 53.079 89.7697 63.309C98.0797 77.169 109.04 77.169 109.04 77.169L111.27 107.229H111.26Z" fill="white"/>
<path d="M57.1099 66.0006C56.7499 66.0006 56.3799 65.9306 56.0199 65.7906C41.0599 59.9306 34.8499 51.4506 32.2699 45.3706C29.4299 38.6706 29.3999 31.3106 32.1799 24.6506C35.0199 17.8606 41.4399 13.5106 50.2599 12.4006C61.5099 10.9806 73.9499 15.1706 79.1999 22.1406C80.1999 23.4606 79.9299 25.3406 78.6099 26.3406C77.2899 27.3406 75.4099 27.0706 74.4099 25.7506C70.4899 20.5506 59.9899 17.2306 51.0099 18.3606C47.1899 18.8406 40.3799 20.5906 37.7199 26.9706C35.5699 32.1206 35.5899 37.8306 37.7999 43.0306C40.8499 50.2306 47.9099 56.1706 58.2099 60.2106C59.7499 60.8106 60.5099 62.5506 59.9099 64.1006C59.4499 65.2806 58.3099 66.0106 57.1199 66.0106L57.1099 66.0006Z" fill="black"/>
<path d="M88.0586 105.051C87.5186 105.051 86.9586 104.901 86.4686 104.591C71.7286 95.3309 63.5686 79.141 60.0186 70.321C59.3986 68.781 60.1486 67.041 61.6786 66.421C63.2186 65.801 64.9586 66.551 65.5786 68.081C68.8586 76.231 76.3486 91.161 89.6586 99.511C91.0586 100.391 91.4886 102.241 90.5986 103.651C90.0286 104.561 89.0586 105.051 88.0586 105.051Z" fill="black"/>
<path d="M109.03 80.1696C108.51 80.1696 96.2602 79.9896 87.1902 64.8496C84.3202 60.0596 83.8202 55.1096 83.2802 49.8596C83.0902 48.0096 82.9002 46.0996 82.5902 44.1496C82.3302 42.5096 83.4502 40.9796 85.0902 40.7196C86.7202 40.4496 88.2602 41.5796 88.5202 43.2196C88.8502 45.3296 89.0602 47.3296 89.2502 49.2596C89.7402 54.0196 90.1602 58.1396 92.3402 61.7796C99.5802 73.8596 108.68 74.1796 109.07 74.1896C110.71 74.2196 112.04 75.5796 112.02 77.2196C112 78.8696 110.68 80.1896 109.04 80.1896L109.03 80.1696Z" fill="black"/>
<path d="M166.619 91.7008C173.399 73.8508 187.519 13.8308 187.519 13.8308C178.169 3.95081 158.889 30.6708 158.889 30.6708L152.469 43.5208C149.109 50.5808 140.689 57.9208 128.759 61.1308C123.959 62.4208 112.379 63.8408 109.749 67.0808C105.979 71.7308 110.789 82.1208 111.069 83.9808C112.829 95.3208 110.539 105.791 111.529 114.501C112.459 122.651 159.829 109.541 166.609 91.6908L166.619 91.7008Z" fill="white"/>
<path d="M120.48 121.53C119.23 121.53 118.04 121.45 116.94 121.3C110.19 120.38 108.79 116.86 108.56 114.84C108.1 110.77 108.3 106.48 108.51 101.93C108.77 96.3104 109.05 90.4904 108.11 84.4304C108.09 84.2904 108.05 84.1004 108.01 83.8504C106.88 77.4404 105.9 68.4104 110.49 64.0004C115.12 59.5404 120.18 58.5804 125.53 57.5704C127.96 57.1104 130.47 56.6304 133.2 55.8104C142.26 53.0704 148.39 43.3704 154.32 34.0004C155.69 31.8404 157.1 29.6004 158.52 27.5004C159.45 26.1304 161.31 25.7704 162.69 26.7004C164.06 27.6304 164.42 29.4904 163.49 30.8704C162.12 32.8904 160.8 34.9904 159.39 37.2104C152.88 47.5104 146.14 58.1604 134.94 61.5504C131.9 62.4704 129.11 63.0004 126.65 63.4704C121.63 64.4204 118 65.1104 114.66 68.3304C113.81 69.1404 112.05 72.1804 113.93 82.8204C113.98 83.1204 114.02 83.3604 114.05 83.5304C115.08 90.1904 114.78 96.5804 114.51 102.23C114.31 106.53 114.12 110.59 114.53 114.17C114.54 114.27 115.2 115.02 117.76 115.37C126.74 116.6 147.25 110.65 152.52 97.6604C153.14 96.1204 154.89 95.3804 156.43 96.0104C157.97 96.6404 158.71 98.3804 158.08 99.9204C152.4 113.92 133.14 121.54 120.49 121.54L120.48 121.53Z" fill="black"/>
<path d="M165.209 229.059C165.139 229.059 165.059 229.059 164.989 229.059C163.339 228.939 162.099 227.499 162.219 225.849C162.379 223.739 162.569 221.149 162.789 218.189C164.979 188.839 170.109 120.119 168.339 102.419C166.969 88.6389 167.599 71.1689 168.089 61.9889C168.179 60.3289 169.589 59.0489 171.249 59.1589C172.899 59.2489 174.169 60.6589 174.079 62.3189C173.589 71.3389 172.969 88.4589 174.309 101.829C176.119 120.039 170.969 189.139 168.769 218.639C168.549 221.599 168.359 224.179 168.199 226.289C168.079 227.869 166.769 229.069 165.209 229.069V229.059Z" fill="black"/>
<path d="M267.291 232.199C265.721 232.199 264.401 230.979 264.301 229.389C263.171 211.689 261.491 196.319 260.001 183.629C258.311 169.239 257.791 117.539 260.181 102.289C260.441 100.649 261.971 99.5294 263.611 99.7894C265.251 100.049 266.371 101.579 266.111 103.219C263.831 117.749 264.351 169.169 265.961 182.929C267.461 195.699 269.151 211.169 270.291 229.009C270.401 230.659 269.141 232.089 267.491 232.189C267.431 232.189 267.361 232.189 267.301 232.189L267.291 232.199Z" fill="black"/>
<path d="M186.83 13.9099C186.83 13.9099 196.8 8.91992 212.77 8.91992C234.72 8.91992 256.67 16.8999 250.35 24.5499C244.03 32.1999 163.56 39.8499 186.83 13.9099Z" fill="white"/>
<path d="M269.571 36.85C253.571 6.85001 240.861 9.98001 240.861 9.98001C227.871 23.54 195.831 27.5 189.251 10.65C189.251 10.65 179.111 11.47 172.891 19.77C166.321 28.53 151.321 58.97 149.891 73.77C148.461 88.57 146.041 126.68 145.891 127.77C136.331 198.69 115.421 224.99 127.891 236.77C152.711 260.22 208.591 255.15 224.101 249.01C256.021 236.37 281.801 243.25 289.861 246.13C297.921 249.01 281.301 58.83 269.581 36.85H269.571Z" fill="white"/>
<path d="M210.91 24.6797C200.5 24.6797 191.62 20.8497 186.84 14.4397C185.85 13.1097 186.12 11.2297 187.45 10.2397C188.78 9.24972 190.66 9.51972 191.65 10.8497C198.9 20.5397 219.46 22.3897 237.38 9.53972C238.73 8.56972 240.6 8.87972 241.57 10.2297C242.53 11.5797 242.23 13.4497 240.88 14.4197C230.9 21.5697 220.29 24.6797 210.92 24.6797H210.91Z" fill="black"/>
<path d="M194.909 255.45C187.259 255.45 179.769 254.76 172.809 253.37C171.189 253.05 170.129 251.46 170.459 249.84C170.789 248.22 172.369 247.16 173.989 247.49C189.229 250.54 207.229 250.03 223.389 246.1C227.839 245.02 231.649 243.94 235.339 242.9C251.139 238.45 261.719 235.46 288.429 242.62C289.139 237.7 289.839 220.68 285.129 162.37C284.999 160.72 286.229 159.27 287.879 159.14C289.559 159 290.979 160.24 291.109 161.89C297.949 246.61 294.119 248.04 291.319 249.08C290.409 249.42 289.409 249.33 288.579 248.89C262.189 241.57 252.669 244.25 236.969 248.68C233.409 249.68 229.369 250.82 224.809 251.93C215.189 254.27 204.919 255.45 194.919 255.45H194.909Z" fill="black"/>
<path d="M153.881 251.759C153.801 251.759 153.731 251.759 153.651 251.759C142.991 250.939 129.511 243.899 123.621 236.069C120.961 232.539 119.921 228.919 120.601 225.599C121.331 222.069 122.821 217.599 124.711 211.939C128.411 200.889 133.471 185.749 136.991 165.369C139.781 149.179 141.451 128.369 143.061 108.229C144.541 89.7492 145.931 72.2992 148.091 59.8692C148.371 58.2392 149.931 57.1392 151.561 57.4292C153.191 57.7092 154.291 59.2692 154.001 60.8992C151.891 73.0592 150.501 90.3692 149.041 108.709C147.421 128.979 145.741 149.929 142.901 166.389C139.301 187.219 134.161 202.609 130.401 213.839C128.571 219.309 127.131 223.629 126.471 226.799C126.061 228.799 127.291 230.979 128.401 232.449C133.231 238.859 145.241 245.079 154.101 245.759C155.751 245.889 156.991 247.329 156.861 248.979C156.741 250.549 155.421 251.749 153.871 251.749L153.881 251.759Z" fill="black"/>
<path d="M97.232 96.0806C122.972 102.751 168.442 102.751 168.442 102.751C168.442 102.751 170.162 148.121 181.512 158.621C192.862 169.121 130.082 167.031 121.142 162.131C106.842 145.591 97.232 111.631 95.582 95.6406C96.122 95.7906 96.672 95.9406 97.242 96.0906" fill="white"/>
<path d="M157.19 169.16C155.82 169.16 154.41 169.15 152.94 169.12C140.34 168.89 124.56 167.42 119.7 164.75C119.39 164.58 119.11 164.35 118.87 164.08C103.44 146.23 94.1397 110.89 92.5897 95.93C92.4897 94.94 92.8797 93.97 93.6397 93.33C94.3997 92.69 95.4297 92.47 96.3797 92.74C96.8997 92.89 97.4397 93.03 97.9797 93.17C123.05 99.67 167.99 99.75 168.44 99.75C170.05 99.75 171.38 101.02 171.44 102.64C171.91 114.92 174.99 148.51 183.54 156.42C187.27 159.87 185.56 162.92 184.94 163.78C182.36 167.36 173.03 169.17 157.18 169.17L157.19 169.16ZM123.02 159.7C126.46 161.18 138 162.8 152.48 163.11C168.18 163.44 176.72 161.97 179.36 160.71C168.86 150.77 166.17 116.55 165.58 105.73C155.5 105.62 121.61 104.84 99.1297 99.63C101.86 117.01 111.01 145.42 123.02 159.7Z" fill="black"/>
<path d="M247.862 126.061C235.762 144.951 210.292 147.401 210.292 147.401C204.532 146.811 198.912 145.001 193.982 142.141C191.252 140.561 188.452 138.581 185.252 138.711C182.412 138.821 179.902 140.701 178.642 143.051C177.382 145.401 177.232 148.161 177.592 150.781C177.882 152.891 178.482 155.041 177.962 157.101C176.952 161.091 172.292 163.131 168.092 164.401C163.892 165.671 159.152 167.041 157.172 170.691C155.562 173.651 156.362 177.381 158.422 180.131C160.482 182.881 163.602 184.781 166.812 186.291C184.992 194.881 213.692 190.901 230.072 177.471C246.452 164.041 260.952 159.651 271.052 147.231" fill="white"/>
<path d="M189.391 193.86C180.801 193.86 172.491 192.29 165.541 189.01C162.741 187.69 158.711 185.52 156.031 181.93C153.091 178 152.501 173.02 154.551 169.26C157.091 164.59 162.601 162.93 167.021 161.59L167.241 161.52C171.921 160.11 174.561 158.37 175.061 156.36C175.311 155.36 175.091 154.05 174.861 152.65C174.781 152.16 174.691 151.67 174.631 151.18C174.131 147.5 174.591 144.29 176.011 141.63C177.851 138.18 181.441 135.85 185.151 135.7C188.791 135.58 191.821 137.34 194.461 138.92C194.811 139.13 195.161 139.34 195.501 139.54C199.961 142.13 205.071 143.8 210.291 144.37C212.991 144.03 234.841 140.82 245.341 124.43C246.231 123.03 248.091 122.63 249.481 123.52C250.881 124.41 251.281 126.27 250.391 127.66C237.651 147.55 211.681 150.26 210.581 150.37C210.381 150.39 210.191 150.39 209.991 150.37C203.821 149.74 197.771 147.79 192.481 144.72C192.111 144.51 191.741 144.28 191.371 144.06C189.261 142.8 187.261 141.57 185.371 141.68C183.781 141.74 182.131 142.85 181.291 144.44C180.481 145.96 180.231 147.95 180.561 150.35C180.621 150.78 180.691 151.21 180.771 151.64C181.081 153.49 181.441 155.59 180.871 157.81C179.441 163.48 173.391 165.91 168.961 167.25L168.741 167.32C165.191 168.39 161.171 169.61 159.811 172.11C158.751 174.06 159.561 176.63 160.821 178.32C162.261 180.24 164.571 181.9 168.091 183.57C185.221 191.66 212.731 187.8 228.171 175.14C235.261 169.33 242.081 165.12 248.091 161.41C256.211 156.41 263.211 152.09 268.721 145.32C269.771 144.04 271.661 143.84 272.941 144.89C274.231 145.93 274.421 147.82 273.371 149.11C267.221 156.67 259.451 161.46 251.231 166.52C245.091 170.31 238.741 174.22 231.961 179.78C220.871 188.87 204.661 193.84 189.361 193.84L189.391 193.86Z" fill="black"/>
<path d="M275.741 156.139C278.501 152.279 286.971 145.239 288.751 140.549C307.481 91.0593 277.911 25.5393 267.541 18.2393C254.081 8.76932 245.101 13.7093 243.361 22.6593C240.151 28.0493 241.741 56.5793 242.891 65.7793C247.011 98.5993 235.921 117.749 235.901 123.039C235.841 136.689 254.931 156.029 275.741 156.129V156.139Z" fill="white"/>
<path d="M270.501 159.3C265.271 159.3 259.471 157.25 253.431 153.14C241.241 144.85 229.531 128.69 233.241 121.64C239.141 110.42 246.281 92.5798 240.201 67.1998C239.811 65.5898 240.811 63.9698 242.421 63.5798C244.021 63.1898 245.651 64.1898 246.041 65.7998C251.021 86.6098 248.651 105.24 238.551 124.43C237.371 127.1 245.581 141.1 258.001 148.96C264.451 153.04 273.501 156.31 280.011 148.74C298.961 126.72 292.351 80.0698 279.861 43.7698C269.681 14.1998 251.621 13.7598 251.441 13.7598C249.781 13.7598 248.451 12.3998 248.461 10.7398C248.461 9.08977 249.811 7.75977 251.461 7.75977H251.481C252.391 7.75977 273.991 8.26976 285.541 41.8198C291.871 60.1998 310.501 122.52 284.571 152.66C280.761 157.08 275.951 159.3 270.521 159.3H270.501Z" fill="black"/>
<path d="M22.4802 6.13086L97.2302 45.3409L91.7402 55.9809L16.9902 16.7809" fill="#2D8C3C"/>
<path d="M91.7414 58.9801C91.2614 58.9801 90.7814 58.8601 90.3514 58.6401L15.6014 19.4301C14.1314 18.6601 13.5714 16.8501 14.3414 15.3801C15.1114 13.9101 16.9214 13.3501 18.3914 14.1201L90.4714 51.9301L93.2114 46.6201L21.0914 8.79007C19.6214 8.02007 19.0614 6.21007 19.8314 4.74007C20.6014 3.27007 22.4114 2.71007 23.8814 3.48007L98.6314 42.6901C100.091 43.4601 100.661 45.2601 99.9014 46.7201L94.4114 57.3601C94.0414 58.0701 93.4114 58.6101 92.6514 58.8501C92.3614 58.9401 92.0514 58.9901 91.7514 58.9901L91.7414 58.9801Z" fill="black"/>
<path d="M16.99 16.78L3 3L22.48 6.13" fill="white"/>
<path d="M16.9903 19.7791C16.2303 19.7791 15.4703 19.4891 14.8803 18.9191L0.890298 5.13912C-0.0397018 4.21912 -0.269702 2.80912 0.320298 1.63912C0.910298 0.479121 2.1903 -0.170879 3.4803 0.0391213L22.9603 3.17912C24.6003 3.43912 25.7103 4.97912 25.4503 6.61912C25.1903 8.25912 23.6403 9.36912 22.0103 9.10912L11.8003 7.46912L19.1003 14.6491C20.2803 15.8091 20.2903 17.7091 19.1303 18.8891C18.5403 19.4891 17.7703 19.7791 16.9903 19.7791Z" fill="black"/>
</g>
<defs>
<clipPath id="clip0_10670_104398">
<rect width="297.93" height="255.45" fill="white"/>
</clipPath>
</defs>
</svg>
