<svg width="300" height="250" viewBox="0 0 300 250" fill="none" xmlns="http://www.w3.org/2000/svg">
<g clip-path="url(#clip0_10670_104401)">
<path d="M103.441 35.4106C93.9106 55.2906 85.1406 78.6706 78.7406 100.081C72.3406 121.501 54.1606 165.861 45.7106 172.581C36.8606 179.621 23.3306 182.351 19.1706 182.961C15.4606 183.511 6.14061 184.391 3.67061 191.171C1.20061 197.951 6.01061 204.101 12.5106 206.141C17.0806 207.581 28.0406 209.541 35.2406 203.431C42.4306 197.331 47.7806 194.951 51.1106 198.731C54.6206 202.711 52.7106 207.541 58.8406 211.531C64.9706 215.521 72.3706 211.321 73.0106 204.591L77.5506 194.501C78.8706 190.331 79.6206 181.021 78.8906 175.081C77.4806 163.701 84.9206 146.151 97.5606 116.941L103.431 35.3906L103.441 35.4106Z" fill="white"/>
<path d="M63.9097 216.09C61.5897 216.09 59.2597 215.41 57.1997 214.06C52.6497 211.1 51.5897 207.59 50.7297 204.78C50.2397 203.15 49.8497 201.86 48.8497 200.74C47.2097 198.88 43.2797 200.56 37.1697 205.74C27.9097 213.6 14.2497 209.85 11.6097 209.02C7.0297 207.58 3.3097 204.53 1.3897 200.64C-0.2503 197.32 -0.4403 193.69 0.8497 190.16C3.7797 182.12 13.3697 180.77 17.9697 180.12L18.7197 180.01C20.3397 179.77 34.7697 177.45 43.8297 170.25C51.1397 164.43 69.1397 121.71 75.8497 99.2403C76.3197 97.6503 77.9897 96.7503 79.5797 97.2203C81.1697 97.6903 82.0697 99.3703 81.5997 100.95C75.9897 119.75 57.3097 167.19 47.5597 174.94C37.4797 182.95 22.4997 185.51 19.5997 185.94L18.7997 186.05C15.0897 186.57 8.1697 187.55 6.4797 192.21C5.7597 194.2 5.8497 196.14 6.7597 197.98C7.9397 200.37 10.4197 202.36 13.3997 203.29C14.6997 203.7 26.2897 207.1 33.2797 201.16C37.0197 197.98 46.9697 189.54 53.3397 196.76C55.1997 198.87 55.8697 201.08 56.4597 203.04C57.1997 205.49 57.7397 207.26 60.4597 209.03C63.0297 210.71 65.3097 210.05 66.4397 209.5C68.4597 208.53 69.7997 206.59 70.0097 204.31C70.1697 202.66 71.6397 201.43 73.2797 201.61C74.9297 201.77 76.1397 203.23 75.9797 204.88C75.5697 209.2 72.9097 213.04 69.0397 214.9C67.4097 215.69 65.6497 216.08 63.8997 216.08L63.9097 216.09Z" fill="black"/>
<path d="M121.62 9.05974C95.2998 19.8297 83.9798 51.5997 82.5798 56.8297C81.1798 62.0597 74.7198 86.5897 61.1798 126.9C56.8798 139.69 41.3198 158.74 42.3798 162.95C44.3998 170.99 53.2098 180.13 78.7398 188.17C93.1198 192.7 100.21 141.78 106.24 124.62C112.93 105.57 116.33 70.9997 118.07 56.2397C122.41 19.4297 123.73 8.19974 121.62 9.06974V9.05974Z" fill="white"/>
<path d="M80.5104 191.45C79.6204 191.45 78.7204 191.31 77.8304 191.03C54.8204 183.78 42.2704 174.83 39.4604 163.68C38.6504 160.47 41.2604 156.11 47.2204 146.54C51.4704 139.72 56.2904 132 58.3304 125.94C64.3204 108.11 72.8704 81.5898 79.5504 56.5298L79.6804 56.0498C79.7104 55.9398 82.7304 44.8398 90.9904 32.2198C91.9004 30.8298 93.7604 30.4498 95.1404 31.3498C96.5304 32.2598 96.9204 34.1198 96.0104 35.4998C89.5904 45.3098 86.2304 54.7698 85.4804 57.5898L85.3504 58.0698C78.6304 83.2798 70.0404 109.92 64.0204 127.84C61.7604 134.57 56.7404 142.61 52.3204 149.7C49.4604 154.29 45.5604 160.54 45.3304 162.39C47.6604 171.16 59.2004 178.86 79.6304 185.3C80.4604 185.56 81.1904 185.47 82.0004 185.01C88.8704 181.14 94.5804 157.74 98.3604 142.25C100.21 134.69 101.8 128.15 103.4 123.62C109.27 106.92 112.65 77.1998 114.47 61.2298C114.7 59.2498 114.9 57.4498 115.09 55.8798C118.01 31.1198 119.86 15.4398 119.6 11.2798C119.28 10.9898 119.02 10.6198 118.84 10.1898C118.21 8.65985 118.95 6.89985 120.48 6.27985C121.64 5.80985 122.91 5.96985 123.88 6.69985C126.58 8.74985 126.47 10.6199 121.05 56.5798C120.87 58.1498 120.66 59.9298 120.44 61.8998C118.47 79.2399 115.17 108.26 109.07 125.6C107.57 129.86 105.94 136.57 104.2 143.67C99.4604 163.08 94.0904 185.08 84.9504 190.23C83.5304 191.03 82.0304 191.43 80.5104 191.43V191.45Z" fill="black"/>
<path d="M125.71 8.99C125.71 8.99 135.68 4 151.65 4C173.6 4 192.78 10.36 189.23 19.63C185.68 28.9 169.21 55.55 141.18 55.49C109.92 55.42 113.85 22.22 125.71 8.99Z" fill="white"/>
<path d="M117.749 27.6992C117.749 27.6992 127.779 55.4792 173.239 32.8092C162.339 86.9392 141.619 129.359 133.449 129.359C125.279 129.359 107.869 48.4692 117.749 27.6992Z" fill="#2D8C3C"/>
<path d="M133.46 132.36C130.56 132.36 128.71 129.44 128.11 128.48C118.95 113.98 105.74 46.0002 115.05 26.4102C115.57 25.3202 116.68 24.6302 117.91 24.7002C119.11 24.7602 120.16 25.5302 120.58 26.6602C120.7 26.9902 123.3 33.6102 131.66 36.9002C141.42 40.7302 155.33 38.3902 171.91 30.1202C172.93 29.6102 174.16 29.7302 175.07 30.4202C175.98 31.1202 176.41 32.2702 176.19 33.3902C171.19 58.2202 163.7 82.7902 155.08 102.57C149.16 116.15 140.61 132.35 133.46 132.35V132.36ZM118.73 34.8802C116.9 45.0702 117.79 62.5902 121.32 83.1202C125.47 107.24 131.14 123.33 133.81 126.21C135.67 125.21 141.49 118.98 150.01 99.1602C157.6 81.5002 164.29 60.0002 169.07 38.0802C153.04 45.1202 139.67 46.5802 129.28 42.4202C124.35 40.4502 120.97 37.5202 118.73 34.8802Z" fill="black"/>
<path d="M95.2487 133.441C88.5587 168.381 82.4688 195.101 82.4688 201.231C82.4688 202.491 94.0288 221.951 132.979 197.781C151.849 216.501 225.309 229.451 231.469 201.871C226.989 177.511 219.639 146.781 217.889 124.591C211.759 47.3108 194.539 13.2408 194.539 13.2408C170.739 -9.18919 140.619 105.701 133.459 116.081C126.999 111.311 115.229 36.8608 125.549 10.5208C127.339 5.95081 123.699 7.51081 120.499 9.85081C104.589 23.8108 97.2888 46.6608 95.2588 63.6608C92.8088 84.1608 97.1788 123.421 95.2588 133.451L95.2487 133.441Z" fill="white"/>
<path d="M133.459 119.079C132.819 119.079 132.199 118.879 131.679 118.489C124.869 113.459 120.419 73.4091 120.229 71.7091C118.889 59.4391 116.509 30.3691 121.589 12.8891C111.729 21.9491 106.039 34.1691 102.899 43.4591C104.349 45.0191 107.369 47.7891 111.339 48.8391C112.509 49.1491 113.379 50.1291 113.549 51.3291C113.719 52.5291 113.149 53.7091 112.099 54.3291C107.449 57.0691 102.639 63.5891 102.469 65.4491C103.009 67.5491 110.179 94.8291 123.779 110.719C124.859 111.979 124.709 113.869 123.449 114.949C122.189 116.029 120.299 115.879 119.219 114.619C104.219 97.0891 96.6787 67.0591 96.6087 66.7591C95.6387 62.8291 100.179 56.6591 104.689 52.5091C100.009 49.8191 97.2487 46.0891 97.0987 45.8791C96.5387 45.1091 96.3787 44.1091 96.6687 43.1991C99.9987 32.7791 106.499 18.1291 118.529 7.57909C118.599 7.51909 118.669 7.45909 118.739 7.40909C121.269 5.56909 124.929 3.35909 127.549 5.37909C129.199 6.65909 129.479 8.74909 128.359 11.6091C124.119 22.4191 123.299 43.7391 126.109 70.1191C128.009 87.9591 131.039 102.349 133.349 109.349C135.069 105.049 137.329 98.6491 139.809 91.6391C147.659 69.4491 158.409 39.0691 169.949 21.5991C170.859 20.2191 172.719 19.8391 174.109 20.7491C175.489 21.6591 175.869 23.5191 174.959 24.9091C163.819 41.7691 153.209 71.7491 145.469 93.6491C140.529 107.599 137.869 115.019 135.949 117.799C135.489 118.469 134.779 118.919 133.979 119.059C133.809 119.089 133.649 119.099 133.479 119.099L133.459 119.079Z" fill="black"/>
<path d="M197.83 220.76C189.33 220.76 179.86 219.67 170.11 217.49C152.72 213.61 138.05 207.04 130.87 199.91C129.69 198.74 129.69 196.84 130.85 195.67C132.02 194.49 133.92 194.49 135.09 195.65C148.09 208.55 191.73 219.52 215.22 212.64C222.6 210.48 227.03 206.83 228.4 201.78C227.13 194.93 225.66 187.69 224.11 180.03C220.2 160.73 216.15 140.76 214.89 124.82C209.27 54.0004 194.12 19.4404 192.08 15.0604C190.56 13.7604 189.08 13.2004 187.54 13.3604C185.9 13.5304 184.42 12.3404 184.24 10.6904C184.06 9.04041 185.26 7.56041 186.91 7.39041C190.37 7.02041 193.63 8.25041 196.6 11.0404C196.85 11.2804 197.06 11.5604 197.22 11.8704C197.4 12.2304 201.72 20.8604 206.81 39.1204C211.47 55.8304 217.7 84.1904 220.89 124.34C222.13 139.92 226.13 159.7 230.01 178.83C231.61 186.75 233.13 194.23 234.43 201.32C234.5 201.72 234.5 202.12 234.41 202.52C232.73 210.05 226.68 215.54 216.92 218.4C211.54 219.98 205.04 220.76 197.84 220.76H197.83Z" fill="black"/>
<path d="M98.8698 212.791C95.0898 212.791 91.7098 212.151 88.7198 210.881C82.0098 208.011 79.8798 202.881 79.6598 202.311C78.9898 200.551 79.2798 197.361 89.5098 146.731C90.4998 141.851 91.4498 137.151 92.2998 132.861C93.2498 128.121 92.7498 115.391 92.2098 101.921C92.0398 97.7107 91.8698 93.3907 91.7398 89.1207C91.6898 87.4607 92.9898 86.0807 94.6398 86.0307C96.3398 85.9807 97.6798 87.2807 97.7298 88.9307C97.8698 93.1807 98.0398 97.4907 98.1998 101.681C98.7698 116.121 99.2698 128.601 98.1798 134.041C97.3198 138.331 96.3698 143.041 95.3798 147.921C91.4898 167.161 85.6698 195.961 85.4198 200.511C85.8898 201.401 87.4798 203.861 91.1498 205.411C95.5298 207.251 103.81 208.161 118.37 202.051C119.9 201.411 121.66 202.131 122.3 203.661C122.94 205.191 122.22 206.951 120.69 207.591C112.4 211.071 105.1 212.811 98.8498 212.811L98.8698 212.791Z" fill="black"/>
<path d="M132.28 156.161C132.13 156.161 131.98 156.151 131.82 156.131C129.39 155.761 127.28 154.131 126.02 151.661C124.91 149.481 124.53 146.811 124.94 144.131C125.35 141.451 126.52 139.011 128.22 137.261C130.16 135.281 132.67 134.361 135.09 134.731C139.86 135.461 142.89 140.731 141.97 146.741C141.72 148.381 140.18 149.491 138.55 149.251C136.91 149.001 135.79 147.471 136.04 145.831C136.49 142.921 135.24 140.821 134.18 140.661C133.48 140.551 132.78 141.181 132.51 141.461C131.68 142.301 131.09 143.611 130.87 145.041C130.65 146.471 130.83 147.891 131.37 148.951C131.54 149.291 132.03 150.101 132.73 150.211C134.37 150.461 135.49 151.991 135.24 153.631C135.01 155.111 133.73 156.181 132.28 156.181V156.161Z" fill="black"/>
<path d="M198.48 95.0608C209.28 123.191 219.5 155.141 221.71 164.931C225.63 182.331 227.71 188.631 223.5 203.991L221.27 218.011C220.29 224.701 226.48 230.541 233.38 228.131C240.28 225.721 239.58 220.571 243.94 217.541C248.07 214.671 257.66 218.881 263.18 226.521C268.7 234.161 279.82 234.871 284.61 234.561C291.41 234.131 297.55 229.301 296.77 222.121C295.99 214.941 287.15 211.871 283.67 210.451C279.78 208.861 267.29 202.981 260.37 194.041C253.77 185.511 241.66 138.941 235.55 115.401L198.48 95.0508V95.0608Z" fill="white"/>
<path d="M282.821 237.61C277.901 237.61 266.791 236.62 260.751 228.27C255.621 221.18 247.671 218.59 245.651 220C244.411 220.86 243.731 222.02 242.861 223.48C241.361 226.01 239.501 229.16 234.371 230.96C230.281 232.39 225.901 231.64 222.651 228.96C219.341 226.23 217.671 221.86 218.301 217.57C218.541 215.93 220.071 214.8 221.701 215.04C223.341 215.28 224.471 216.8 224.231 218.44C223.901 220.7 224.731 222.9 226.461 224.33C227.431 225.13 229.481 226.31 232.381 225.3C235.441 224.23 236.381 222.64 237.691 220.43C238.731 218.67 239.911 216.68 242.221 215.08C247.361 211.51 258.461 214.89 265.611 224.76C270.991 232.2 283.061 231.66 284.411 231.57C287.531 231.37 290.411 230.03 292.121 227.99C293.441 226.42 294.001 224.55 293.771 222.45C293.231 217.52 286.751 214.93 283.271 213.53L282.521 213.23C279.801 212.12 265.861 206.06 257.981 195.88C251.831 187.93 242.161 152.87 232.631 116.16C218.671 66.0996 211.721 51.8796 207.561 43.3896C206.801 41.8396 206.141 40.4896 205.541 39.1296C204.871 37.6196 205.541 35.8396 207.061 35.1696C208.581 34.4996 210.351 35.1696 211.021 36.6896C211.581 37.9596 212.221 39.2596 212.951 40.7596C217.191 49.4396 224.301 63.9696 238.421 114.61C243.831 135.45 256.471 184.14 262.721 192.22C269.801 201.38 283.271 207.07 284.781 207.69L285.481 207.97C289.801 209.7 298.791 213.29 299.721 221.81C300.131 225.55 299.081 229.03 296.701 231.86C293.911 235.18 289.561 237.26 284.781 237.56C284.361 237.59 283.681 237.62 282.801 237.62L282.821 237.61Z" fill="black"/>
<path d="M223.501 206.989C223.241 206.989 222.971 206.949 222.711 206.879C221.111 206.439 220.171 204.789 220.611 203.189C224.301 189.719 222.941 183.769 219.651 169.369C219.371 168.159 219.091 166.909 218.791 165.579C216.721 156.379 206.691 124.759 195.691 96.1292C195.101 94.5792 195.871 92.8492 197.411 92.2492C198.961 91.6592 200.691 92.4292 201.291 93.9692C212.381 122.849 222.531 154.889 224.641 164.249C224.941 165.569 225.221 166.819 225.501 168.019C228.921 182.999 230.491 189.839 226.401 204.759C226.031 206.089 224.831 206.969 223.511 206.969L223.501 206.989Z" fill="black"/>
<path d="M190.28 82.5105C190.28 82.5105 212.09 161.33 215.85 191.97C219.03 198.99 269.31 189.37 263.86 173.82C262.15 168.95 254.35 149.21 245.78 123.37C237.21 97.5305 229.21 66.9905 224.56 53.8105C222.21 47.1605 205.98 12.1905 191.43 11.6605C180.42 11.2605 185.11 63.7205 190.28 82.5105Z" fill="white"/>
<path d="M253.368 148.391C252.138 148.391 250.978 147.631 250.538 146.401C247.858 138.901 245.288 131.471 242.918 124.311C238.348 110.541 233.988 95.5706 230.128 82.3706C226.768 70.8506 223.868 60.9106 221.708 54.8006C218.338 45.2706 202.798 15.0706 191.298 14.6506C189.638 14.5906 188.348 13.2006 188.408 11.5406C188.468 9.88063 189.878 8.63063 191.518 8.65063C209.858 9.31063 227.208 52.3606 227.368 52.8006C229.578 59.0606 232.498 69.0806 235.888 80.6906C239.728 93.8406 244.078 108.751 248.608 122.421C250.968 129.531 253.518 136.921 256.188 144.381C256.748 145.941 255.938 147.661 254.368 148.211C254.038 148.331 253.698 148.391 253.358 148.391H253.368Z" fill="black"/>
<path d="M224.091 197.311C214.971 197.311 213.601 194.301 213.111 193.211C212.981 192.931 212.901 192.641 212.861 192.341C209.481 164.781 191.431 98.1108 187.851 85.0308C187.411 83.4308 188.351 81.7808 189.951 81.3408C191.541 80.9008 193.201 81.8408 193.641 83.4408C197.201 96.4508 214.981 162.131 218.701 190.641C222.691 192.671 245.151 190.291 256.741 182.201C260.411 179.641 261.851 177.151 261.021 174.801C260.611 173.621 259.821 171.531 258.731 168.631C257.871 166.331 256.821 163.541 255.621 160.331C255.041 158.781 255.831 157.051 257.391 156.471C258.941 155.891 260.671 156.681 261.251 158.241C262.441 161.441 263.481 164.221 264.351 166.511C265.451 169.441 266.251 171.561 266.691 172.801C268.151 176.981 268.111 184.991 251.341 191.711C244.651 194.391 236.271 196.391 228.921 197.051C227.111 197.211 225.511 197.291 224.091 197.291V197.311Z" fill="black"/>
<path d="M147.168 115.67C146.718 115.67 146.268 115.57 145.838 115.36C144.348 114.63 143.748 112.83 144.478 111.34C144.632 111.033 145.625 109.83 147.458 107.73C170.458 81.3698 176.458 71.9397 177.688 68.5897C175.088 65.3097 169.848 58.2097 169.588 57.8597C169.018 57.0897 168.858 56.0997 169.138 55.1897C169.418 54.2797 170.128 53.5597 171.028 53.2497C177.838 50.9197 184.558 47.5497 185.418 46.0297C188.998 39.0697 185.798 18.3797 184.268 10.9997C183.928 9.37975 184.978 7.78975 186.598 7.44975C188.218 7.11975 189.808 8.15975 190.148 9.77975C190.758 12.7097 195.938 38.6797 190.758 48.7697C188.978 52.2397 181.988 55.4997 176.808 57.5197C179.178 60.6997 182.208 64.7097 183.198 65.8497C183.738 66.4697 184.008 67.2897 183.928 68.1097C183.418 73.5597 173.858 86.5898 151.978 111.68C150.908 112.91 149.888 114.07 149.628 114.39C149.058 115.21 148.128 115.68 147.168 115.68V115.67Z" fill="black"/>
<path d="M147.629 233.539H147.619V233.549H147.629V233.539Z" fill="white"/>
</g>
<defs>
<clipPath id="clip0_10670_104401">
<rect width="299.82" height="233.61" fill="white" transform="translate(0.00976562 4)"/>
</clipPath>
</defs>
</svg>
