<svg width="312" height="250" viewBox="0 0 312 250" fill="none" xmlns="http://www.w3.org/2000/svg">
<g clip-path="url(#clip0_10670_104403)">
<path d="M119.451 114.71C124.221 95.3 126.861 68.91 128.321 56.5C132.661 19.69 134.051 8.65004 131.871 9.33004C113.231 15.1 98.6706 55.64 97.2806 60.86C96.2406 64.76 87.9206 75.68 80.3906 99.64C89.7706 108.87 105.671 118.7 119.451 114.71Z" fill="#82BE28"/>
<path d="M58.6207 43.1885C54.5207 45.6285 45.4607 61.5485 43.9507 70.2885C42.4407 79.0285 69.6007 146.008 103.391 130.948C120.431 120.718 91.7307 23.4585 58.6207 43.1885Z" fill="#82BE28"/>
<path d="M93.4791 136.118C86.7691 136.118 79.9791 133.538 73.4191 128.428C54.1491 113.428 39.6091 77.7983 40.9891 69.7783C41.4691 66.9883 42.7491 63.7483 44.8891 59.8583C45.6891 58.4083 47.5191 57.8783 48.9691 58.6883C50.4191 59.4883 50.9491 61.3183 50.1391 62.7683C48.3491 66.0083 47.2591 68.7083 46.8991 70.7983C46.2091 74.8183 57.6591 108.568 77.0991 123.698C85.5291 130.258 93.8991 131.808 101.969 128.298C106.569 125.168 105.229 105.888 95.8291 81.7483C95.2291 80.2083 95.9891 78.4683 97.5391 77.8683C99.0791 77.2683 100.819 78.0283 101.419 79.5783C105.919 91.1383 108.999 102.638 110.099 111.978C111.439 123.418 109.699 130.668 104.929 133.528C104.829 133.588 104.719 133.648 104.609 133.698C100.959 135.318 97.2391 136.128 93.4891 136.128L93.4791 136.118Z" fill="black"/>
<path d="M137.96 9.24977C137.96 9.24977 147.93 4.25977 163.9 4.25977C185.85 4.25977 205.03 10.6198 201.48 19.8898C197.93 29.1598 181.46 55.8098 153.43 55.7498C122.17 55.6798 126.1 22.4798 137.96 9.24977Z" fill="white"/>
<path d="M129.999 27.959C129.999 27.959 140.029 55.739 185.489 33.069C174.589 87.199 153.869 129.619 145.699 129.619C137.529 129.619 120.119 48.729 129.999 27.959Z" fill="white"/>
<path d="M145.71 132.619C142.81 132.619 140.96 129.699 140.36 128.739C131.2 114.239 117.99 46.2593 127.3 26.6693C127.82 25.5793 128.93 24.8793 130.16 24.9593C131.36 25.0193 132.41 25.7893 132.83 26.9193C132.94 27.2093 135.53 33.8693 143.91 37.1593C153.66 40.9893 167.58 38.6493 184.16 30.3793C185.18 29.8693 186.41 29.9893 187.32 30.6793C188.23 31.3793 188.66 32.5293 188.44 33.6493C183.44 58.4793 175.95 83.0493 167.33 102.829C161.41 116.409 152.86 132.609 145.71 132.609V132.619ZM130.98 35.1393C129.15 45.3293 130.04 62.8493 133.57 83.3793C137.72 107.499 143.39 123.589 146.06 126.469C147.92 125.469 153.74 119.239 162.26 99.4193C169.85 81.7593 176.54 60.2593 181.32 38.3393C165.29 45.3793 151.92 46.8393 141.53 42.6793C136.6 40.7093 133.22 37.7793 130.98 35.1393Z" fill="black"/>
<path d="M107.499 133.699C100.809 168.639 94.7188 195.359 94.7188 201.489C94.7188 202.749 106.279 222.209 145.229 198.039C164.099 216.759 237.559 229.709 243.719 202.129C239.239 177.769 231.889 147.039 230.139 124.849C224.009 47.5686 206.789 13.4986 206.789 13.4986C182.989 -8.93138 152.869 105.959 145.709 116.339C139.249 111.569 127.479 37.1186 137.799 10.7786C139.589 6.20862 135.949 7.76862 132.749 10.1086C116.839 24.0686 109.539 46.9186 107.509 63.9186C105.059 84.4186 109.429 123.679 107.509 133.709L107.499 133.699Z" fill="#82BE28"/>
<path d="M145.709 119.339C145.069 119.339 144.449 119.139 143.929 118.749C137.119 113.719 132.669 73.6691 132.479 71.9691C131.139 59.6991 128.759 30.6291 133.839 13.1491C123.979 22.2091 118.289 34.4291 115.149 43.7191C116.599 45.2791 119.619 48.0491 123.589 49.0991C125.189 49.5191 126.149 51.1591 125.729 52.7591C125.309 54.3591 123.679 55.3191 122.069 54.8991C114.319 52.8591 109.549 46.4191 109.349 46.1391C108.789 45.3691 108.629 44.3691 108.919 43.4591C112.249 33.0391 118.749 18.3891 130.779 7.83911C130.849 7.77911 130.919 7.71911 130.989 7.66911C133.519 5.82911 137.179 3.60911 139.799 5.62911C141.449 6.90911 141.729 8.99911 140.609 11.8591C136.369 22.6691 135.549 43.9891 138.359 70.3691C140.259 88.2091 143.289 102.599 145.599 109.599C147.319 105.299 149.579 98.8991 152.059 91.8891C159.909 69.6991 170.659 39.3191 182.199 21.8491C183.109 20.4691 184.969 20.0891 186.359 20.9991C187.739 21.9091 188.119 23.7691 187.209 25.1591C176.069 42.0191 165.459 71.9991 157.719 93.8991C152.779 107.849 150.119 115.269 148.199 118.049C147.739 118.719 147.029 119.169 146.229 119.309C146.059 119.339 145.899 119.349 145.729 119.349L145.709 119.339Z" fill="black"/>
<path d="M210.08 221.019C201.58 221.019 192.11 219.929 182.36 217.749C164.97 213.869 150.3 207.299 143.12 200.169C141.94 198.999 141.94 197.099 143.1 195.929C144.27 194.749 146.17 194.749 147.34 195.909C160.34 208.809 203.98 219.779 227.47 212.899C234.85 210.739 239.28 207.089 240.65 202.039C239.38 195.189 237.91 187.949 236.36 180.289C232.45 160.989 228.4 141.019 227.14 125.079C221.51 54.0994 206.37 19.6894 204.33 15.3194C202.81 14.0094 201.31 13.4594 199.79 13.6194C198.14 13.7894 196.66 12.5994 196.49 10.9494C196.31 9.29942 197.51 7.81942 199.16 7.64942C202.62 7.28942 205.88 8.50942 208.85 11.2994C209.1 11.5394 209.31 11.8194 209.47 12.1294C209.65 12.4894 213.97 21.1194 219.06 39.3794C223.72 56.0894 229.95 84.4494 233.13 124.599C234.37 140.179 238.37 159.959 242.25 179.089C243.85 187.009 245.37 194.489 246.67 201.579C246.74 201.979 246.74 202.379 246.65 202.779C244.97 210.309 238.92 215.799 229.16 218.659C223.78 220.239 217.28 221.019 210.08 221.019Z" fill="black"/>
<path d="M111.12 213.049C107.34 213.049 103.95 212.409 100.97 211.129C94.2597 208.259 92.1397 203.129 91.9197 202.559C91.2997 200.929 91.5397 199.169 94.5297 183.779C94.8397 182.149 96.4097 181.089 98.0497 181.409C99.6797 181.729 100.74 183.299 100.42 184.929C99.2097 191.169 97.7197 198.849 97.6497 200.679C98.0697 201.489 99.6297 204.059 103.42 205.659C107.8 207.499 116.08 208.409 130.64 202.299C132.17 201.659 133.93 202.379 134.57 203.909C135.21 205.439 134.49 207.199 132.96 207.839C124.67 211.319 117.37 213.059 111.12 213.059V213.049Z" fill="black"/>
<path d="M71.0202 17.1795C76.5602 22.6895 71.7502 30.7395 66.7202 35.8095C61.6902 40.8795 56.4902 41.3095 50.9502 35.8095C45.4102 30.3095 45.0602 17.7295 51.1402 13.9595C57.9702 9.71955 65.4802 11.6695 71.0302 17.1795H71.0202Z" fill="white"/>
<path d="M58.8698 42.7797C55.4498 42.7797 52.0798 41.1497 48.8398 37.9397C45.0998 34.2197 43.1298 27.8697 43.8198 21.7397C44.3598 17.0397 46.3898 13.3697 49.5498 11.4097C57.1098 6.7197 66.1498 8.1197 73.1298 15.0497C78.8498 20.7297 77.2098 29.4997 68.8398 37.9197C65.7098 41.0697 62.4298 42.6997 59.0798 42.7697C59.0098 42.7697 58.9298 42.7697 58.8598 42.7697L58.8698 42.7797ZM58.9198 14.6897C56.7998 14.6897 54.6898 15.2897 52.7198 16.5197C51.1698 17.4797 50.0998 19.6297 49.7898 22.4297C49.3098 26.6597 50.6598 31.2897 53.0698 33.6897C55.1798 35.7797 57.1798 36.8497 58.9698 36.7897C60.7098 36.7497 62.5998 35.7197 64.5998 33.7097C66.1598 32.1397 73.6898 24.0697 68.9198 19.3197C65.8398 16.2597 62.3598 14.6997 58.9298 14.6997L58.9198 14.6897Z" fill="black"/>
<path d="M80.3 47.6992L3 14.4192L7.72 3.44922L85.02 36.7292" fill="#2D8C3C"/>
<path d="M80.2988 50.6995C79.8988 50.6995 79.4988 50.6195 79.1088 50.4495L1.80879 17.1795C0.288791 16.5195 -0.411209 14.7595 0.238791 13.2395L4.96879 2.25947C5.27879 1.52947 5.87879 0.949469 6.61879 0.659469C7.35879 0.369469 8.17879 0.379469 8.91879 0.689469L86.2188 33.9695C87.7388 34.6295 88.4388 36.3895 87.7888 37.9095C87.1288 39.4295 85.3688 40.1295 83.8488 39.4795L9.28879 7.38947L6.93879 12.8495L81.4788 44.9395C82.9988 45.5995 83.6988 47.3595 83.0488 48.8795C82.5588 50.0095 81.4588 50.6895 80.2888 50.6895L80.2988 50.6995Z" fill="black"/>
<path d="M85.0208 36.7285L99.9408 49.3385L80.3008 47.6985" fill="white"/>
<path d="M99.9397 52.3399C99.8597 52.3399 99.7697 52.3399 99.6897 52.3299L80.0497 50.6899C78.3997 50.5499 77.1697 49.0999 77.3097 47.4499C77.4497 45.7999 78.8797 44.5499 80.5497 44.7099L90.8397 45.5699L83.0897 39.0199C81.8197 37.9499 81.6697 36.0599 82.7397 34.7899C83.8097 33.5299 85.6997 33.3599 86.9697 34.4399L101.89 47.0599C102.89 47.8999 103.22 49.2899 102.72 50.4999C102.25 51.6299 101.15 52.3499 99.9497 52.3499L99.9397 52.3399Z" fill="black"/>
<path d="M39.3694 22.6191C33.9194 25.9991 29.3394 39.3291 29.2694 42.3291C29.1994 45.3291 31.1694 53.0791 33.5294 56.2291C35.8894 59.3791 38.0394 58.0391 39.0694 59.0591C48.3094 68.2391 56.9694 67.5191 65.3694 59.0591C73.7694 50.5991 81.7894 37.1691 72.5394 27.9891C63.2994 18.8091 50.7694 15.5591 39.3794 22.6191H39.3694Z" fill="white"/>
<path d="M52.2595 68.6687C47.0995 68.6687 41.9495 66.1487 36.9395 61.1787C35.7695 60.0187 34.6995 58.6787 33.7495 57.1787C32.8595 55.7787 33.2795 53.9287 34.6795 53.0387C36.0795 52.1487 37.9295 52.5687 38.8195 53.9687C39.5295 55.0887 40.3195 56.0787 41.1695 56.9187C45.0095 60.7287 48.7395 62.6687 52.2595 62.6687C52.3295 62.6687 52.3895 62.6687 52.4595 62.6687C55.8995 62.5987 59.5195 60.6687 63.2195 56.9387C67.8095 52.3187 71.1795 47.2987 72.7095 42.8187C74.4995 37.5787 73.7395 33.4287 70.4095 30.1087C61.3995 21.1587 50.3795 19.3087 40.9495 25.1587C36.8595 27.6887 34.5795 33.8587 34.9995 41.2387C35.0895 42.8887 33.8295 44.3087 32.1695 44.3987C30.4995 44.4787 29.0995 43.2287 29.0095 41.5687C28.4695 31.9887 31.8395 23.7387 37.7895 20.0487C49.5695 12.7387 63.6895 14.9587 74.6395 25.8387C79.6295 30.7887 80.9295 37.3287 78.3895 44.7387C75.9395 51.9187 70.4995 58.0987 67.4795 61.1487C62.6395 66.0187 57.6295 68.5387 52.5795 68.6487C52.4695 68.6487 52.3595 68.6487 52.2495 68.6487L52.2595 68.6687Z" fill="black"/>
<path d="M151.019 71.3583C149.369 66.7783 145.889 63.7983 140.149 63.6083C129.909 63.2783 87.4488 67.4683 77.6388 69.4183C73.7688 70.1883 71.0888 73.7083 71.6688 78.3183C73.1088 89.5883 86.9588 153.948 89.6488 162.278C90.7688 165.748 93.9588 168.338 97.3488 168.708C98.2488 168.808 99.4288 168.838 101.219 168.868L120.099 167.868C120.099 167.868 151.879 165.648 160.859 163.748C165.629 162.738 168.419 159.728 167.799 154.918C167.319 151.168 153.779 79.0183 151.019 71.3483V71.3583Z" fill="#2D8C3C"/>
<path d="M101.221 171.879H101.171C99.3407 171.849 98.0707 171.819 97.0207 171.699C92.3807 171.189 88.2707 167.779 86.8007 163.209C84.7907 156.979 76.8007 120.669 72.0707 97.0792C71.7407 95.4592 72.8007 93.8692 74.4207 93.5492C76.0507 93.2192 77.6307 94.2792 77.9507 95.8992C82.5507 118.849 90.5907 155.419 92.5107 161.369C93.2507 163.649 95.4207 165.489 97.6807 165.739C98.4607 165.829 99.6207 165.849 101.181 165.879L119.961 164.889C120.221 164.869 151.581 162.669 160.261 160.829C164.881 159.849 165.091 157.209 164.851 155.319C164.381 151.669 150.821 79.6192 148.221 72.3792C146.871 68.6292 144.211 66.7492 140.071 66.6192C130.311 66.3192 87.9507 70.4392 78.2407 72.3692C75.7407 72.8692 74.3007 75.1092 74.6607 77.9492C74.8307 79.2992 75.2007 81.5292 75.7607 84.5792C76.0607 86.2092 74.9807 87.7692 73.3507 88.0692C71.7307 88.3692 70.1607 87.2892 69.8607 85.6592C69.2807 82.5092 68.8907 80.1692 68.7007 78.7092C67.9407 72.7392 71.4507 67.5992 77.0607 66.4892C87.2407 64.4592 129.911 60.2792 140.251 60.6192C146.841 60.8292 151.671 64.2792 153.851 70.3492C156.791 78.5292 170.281 150.599 170.791 154.559C171.581 160.669 168.011 165.329 161.501 166.709C152.421 168.629 121.631 170.799 120.321 170.889L101.391 171.889C101.341 171.889 101.281 171.889 101.231 171.889L101.221 171.879Z" fill="black"/>
<path d="M162.379 116.599C162.069 114.629 145.559 100.549 137.089 97.1687C111.759 85.8687 108.619 102.729 119.639 109.439C127.369 114.139 123.809 117.059 121.599 117.229C110.509 118.079 115.559 117.299 104.049 116.449C91.5994 115.539 83.5094 128.039 105.309 143.979C124.999 158.379 149.609 154.639 152.019 154.359C152.019 154.359 165.119 134.119 162.369 116.589L162.379 116.599Z" fill="white"/>
<path d="M140.32 158.41C140.25 158.41 140.18 158.41 140.11 158.41C126.28 157.48 109.5 151.2 101.08 143.81C87.7702 132.13 88.4202 124.1 89.9902 120.35C92.0102 115.54 97.3402 112.97 104.28 113.47C108.75 113.8 110.86 114.13 112.24 114.35C114.26 114.67 114.82 114.75 121.19 114.27C120.82 113.83 120 113.07 118.2 112.08C112 108.67 109.08 101.96 111.39 96.4795C113.34 91.8695 119.26 88.1195 130.04 91.4095C133.74 92.5395 137.54 94.2995 140.07 95.5895C141.55 96.3395 142.14 98.1395 141.39 99.6195C140.64 101.1 138.84 101.69 137.36 100.94C134.03 99.2495 130.9 97.9395 128.29 97.1495C122.46 95.3695 118.1 96.0095 116.92 98.8095C115.96 101.09 117.26 104.7 121.1 106.82C127.13 110.14 127.82 113.46 127.34 115.67C126.74 118.44 124.12 120.06 121.84 120.23C114.89 120.76 113.92 120.68 111.32 120.27C109.95 120.06 108.07 119.76 103.84 119.45C99.6602 119.14 96.4802 120.37 95.5302 122.66C94.3002 125.59 96.1602 131.49 105.04 139.29C112.46 145.81 128.05 151.57 140.52 152.41C142.17 152.52 143.42 153.95 143.31 155.61C143.2 157.19 141.88 158.41 140.32 158.41Z" fill="black"/>
<path d="M211.531 16.7499C192.181 4.51989 202.401 69.6499 203.041 76.3899C205.841 106.04 200.731 116.34 191.731 115.39C175.891 113.71 169.791 113.68 160.371 109.58C159.201 109.07 157.821 109.19 156.821 109.99C158.221 112.45 162.541 143.72 149.641 155.69C154.701 156.74 207.661 161.62 217.931 157.51C232.741 151.58 256.271 124.02 237.601 56.5499C237.461 56.0299 227.641 26.9399 211.531 16.7499Z" fill="#82BE28"/>
<path d="M200.231 162.099C180.271 162.099 152.671 159.369 149.031 158.619C147.851 158.369 146.941 157.449 146.701 156.269C146.461 155.089 146.951 153.889 147.941 153.209C155.491 148.019 157.681 132.079 156.501 118.589C156.361 116.939 157.581 115.479 159.231 115.339C160.901 115.189 162.341 116.419 162.481 118.069C163.551 130.259 162.211 144.819 156.011 153.489C171.061 155.089 209.011 157.849 216.821 154.719C220.091 153.409 231.241 147.699 237.481 129.149C243.621 110.899 242.661 86.0694 234.721 57.3494C234.711 57.3094 231.961 48.6394 226.421 38.9194C221.651 30.5594 213.771 19.7294 203.311 15.6494C201.771 15.0494 201.001 13.3094 201.601 11.7694C202.201 10.2294 203.941 9.45935 205.481 10.0594C229.091 19.2694 240.401 55.3894 240.501 55.7494C259.361 123.949 235.891 153.549 219.051 160.289C215.731 161.619 208.671 162.099 200.241 162.099H200.231Z" fill="black"/>
<path d="M191.73 118.379C191.62 118.379 191.52 118.379 191.41 118.359C188.44 118.049 185.76 117.789 183.28 117.549C172.52 116.519 165.41 115.849 157.32 112.329C155.8 111.669 155.1 109.899 155.77 108.379C156.43 106.859 158.19 106.159 159.72 106.829C166.93 109.969 173.3 110.569 183.85 111.579C186.34 111.819 189.05 112.079 192.04 112.389C193.69 112.559 194.88 114.039 194.71 115.689C194.55 117.229 193.25 118.369 191.73 118.369V118.379Z" fill="black"/>
<path d="M201.359 111.579C200.819 111.579 200.279 111.439 199.779 111.129C198.369 110.259 197.939 108.409 198.809 106.999C201.269 103.029 201.649 93.669 200.049 76.669C199.889 75.019 201.099 73.559 202.749 73.399C204.399 73.239 205.859 74.449 206.019 76.099C207.829 95.239 207.229 104.779 203.909 110.149C203.339 111.069 202.359 111.569 201.359 111.569V111.579Z" fill="black"/>
<path d="M174.061 100.23C173.271 100.23 172.481 99.9195 171.891 99.2995C170.751 98.0995 170.791 96.1995 171.991 95.0595C182.661 84.8995 188.701 72.9895 189.971 68.8695C187.371 65.5995 182.111 58.4595 181.851 58.1195C181.281 57.3495 181.121 56.3595 181.401 55.4495C181.681 54.5395 182.391 53.8195 183.291 53.5095C190.101 51.1795 196.821 47.8095 197.681 46.2895C201.261 39.3295 198.061 18.6395 196.531 11.2595C196.191 9.63951 197.241 8.04951 198.861 7.70951C200.481 7.37951 202.071 8.41951 202.411 10.0395C203.021 12.9695 208.201 38.9395 203.021 49.0295C201.241 52.4995 194.251 55.7595 189.071 57.7795C191.441 60.9595 194.471 64.9695 195.461 66.1095C196.001 66.7295 196.271 67.5495 196.191 68.3595C195.761 72.9295 188.491 87.6195 176.131 99.3995C175.551 99.9495 174.801 100.23 174.061 100.23Z" fill="black"/>
</g>
<defs>
<clipPath id="clip0_10670_104403">
<rect width="247.48" height="233.26" fill="white" transform="translate(0 0.449219)"/>
</clipPath>
</defs>
</svg>
