<svg width="307" height="273" viewBox="0 0 307 273" fill="none" xmlns="http://www.w3.org/2000/svg">
<g clip-path="url(#clip0_10670_104405)">
<path d="M80.869 81.7196C79.849 78.1996 84.039 44.4796 89.019 38.4596C94.009 32.4396 105.889 78.3696 106.059 80.0696C106.229 81.7696 80.869 81.7196 80.869 81.7196Z" fill="#2D8C3C"/>
<path d="M139.74 7.02916C157.93 -3.12084 177.28 0.919161 188.62 9.05916C199.86 50.6592 150.39 165.069 148.84 165.439C147.29 165.809 116.97 139.889 115.62 138.219C114.27 136.549 76.3597 12.8692 139.74 7.02916Z" fill="white"/>
<path d="M244.311 59.5403C240.761 48.9403 194.751 -0.439739 182.471 3.92026C184.921 27.3403 149.571 115.38 142.081 135.7C126.011 92.5703 124.111 36.7903 131.371 7.55026C112.161 19.1103 92.4206 29.8203 87.8906 40.6903C85.5006 47.6103 101.181 140.13 100.311 158.59C99.4406 177.05 87.6406 246.32 87.6406 246.32C92.9406 253.18 107.551 265.99 129.761 265.49C130.501 267.07 143.951 222.45 142.851 221.91C146.831 242.95 149.591 266.85 149.591 266.85C176.981 275.56 233.071 270.01 243.961 234.4C242.821 197.25 238.821 160.85 236.401 146.54C243.121 144.34 245.551 63.7803 244.331 59.5403H244.311Z" fill="#2D8C3C"/>
<path d="M178.33 272.981C168.99 272.981 159.13 271.931 148.94 269.791C147.71 269.531 146.77 268.541 146.59 267.301L141.84 235.611L132.61 266.351C132.24 267.601 131.1 268.461 129.8 268.491C129.47 268.501 121.73 268.621 112.41 266.231C99.8103 263.001 90.3503 256.651 85.0603 247.871C84.7003 247.271 84.5603 246.571 84.6603 245.891L92.0303 195.631C92.2703 193.991 93.8003 192.861 95.4303 193.101C97.0703 193.341 98.2003 194.861 97.9603 196.501L90.7503 245.661C100.14 259.971 120.8 262.121 127.52 262.431L139.95 221.041C140.35 219.691 141.66 218.831 143.04 218.911C144.44 219.011 145.58 220.071 145.79 221.461L152.21 264.321C197.17 273.171 221.17 258.011 229.47 251.001C238.39 243.471 241.37 235.791 241.19 231.121C241.17 230.511 239.6 173.201 234.84 157.911C234.35 156.331 235.23 154.651 236.81 154.161C238.39 153.661 240.07 154.551 240.56 156.131C245.56 172.211 247.11 228.531 247.18 230.921C247.49 238.771 242.31 248.001 233.34 255.581C219.8 267.021 200.54 272.971 178.33 272.971V272.981Z" fill="black"/>
<path d="M242.79 55.9591C241.54 55.9591 240.38 55.1791 239.95 53.9391C236.26 43.2291 206.54 23.0791 192.26 13.3891C190.89 12.4591 190.53 10.5991 191.46 9.21914C192.39 7.84914 194.25 7.48914 195.63 8.41914C217.72 23.3991 241.62 40.3591 245.63 51.9791C246.17 53.5491 245.34 55.2491 243.77 55.7891C243.45 55.8991 243.12 55.9491 242.79 55.9491V55.9591Z" fill="black"/>
<path d="M131.199 95.0693C131.889 93.0793 139.749 66.3693 139.749 66.3693C139.749 66.3693 138.129 40.6293 139.629 40.7693C140.259 40.8293 150.779 33.0293 150.779 33.0293L162.409 44.9393L151.019 66.9593L157.349 86.0393L140.509 135.709L131.209 95.0793L131.199 95.0693Z" fill="white"/>
<path d="M107.56 75.8996C106.88 75.8996 106.2 75.6696 105.64 75.1996C104.37 74.1396 104.2 72.2396 105.27 70.9696C105.42 70.7896 107.99 67.7296 111.07 64.4796C108.65 63.7896 105.86 62.6396 103.35 60.7296C102.39 59.9996 101.96 58.7696 102.26 57.5996C102.94 54.9396 103.56 52.3996 104.16 49.9696C109.45 28.4496 112.95 14.2396 131.82 3.90962C133.27 3.10962 135.1 3.64962 135.89 5.09962C136.68 6.54962 136.15 8.37962 134.7 9.16962C118.15 18.2296 115.25 30.0096 109.99 51.3996C109.55 53.2096 109.09 55.0696 108.6 56.9996C112.71 59.3396 117.33 59.5196 117.38 59.5196C118.6 59.5596 119.68 60.3296 120.1 61.4796C120.52 62.6196 120.22 63.9096 119.32 64.7296C115.07 68.6296 109.92 74.7596 109.87 74.8196C109.28 75.5296 108.43 75.8896 107.57 75.8896L107.56 75.8996Z" fill="black"/>
<path d="M143.281 141.31C143.041 141.31 142.791 141.28 142.551 141.22C140.941 140.82 139.971 139.19 140.371 137.58C148.951 103.5 158.691 77.9603 166.521 57.4403C175.541 33.7903 181.501 18.1603 178.451 7.39029C178.001 5.80029 178.931 4.14029 180.521 3.69029C182.121 3.24029 183.771 4.16029 184.221 5.76029C187.811 18.4503 181.571 34.8103 172.121 59.5803C164.351 79.9503 154.681 105.31 146.191 139.05C145.851 140.41 144.631 141.32 143.281 141.32V141.31Z" fill="black"/>
<path d="M154.211 134.5C153.621 134.5 153.031 134.33 152.511 133.97C151.151 133.03 150.801 131.16 151.751 129.8L184.841 81.8605C182.781 79.4305 178.821 74.7705 174.601 69.8205C173.831 68.9105 173.661 67.6405 174.181 66.5705C174.701 65.5005 175.851 64.8405 176.991 64.8805C177.071 64.8805 185.201 65.1105 194.551 61.7505C194.481 59.3005 194.631 55.7505 194.871 50.7005C195.451 38.4505 196.411 17.9505 191.771 12.9605C190.641 11.7505 190.711 9.85045 191.921 8.72045C193.131 7.59045 195.031 7.66045 196.161 8.87045C202.051 15.1905 201.781 31.6805 200.871 50.9905C200.621 56.4005 200.371 61.5105 200.681 63.2105C200.931 64.6005 200.181 65.9905 198.871 66.5205C192.871 68.9905 187.191 70.0705 183.091 70.5405C187.511 75.7305 190.911 79.7405 190.911 79.7405C191.791 80.7805 191.861 82.2705 191.091 83.3805L156.691 133.21C156.111 134.05 155.171 134.51 154.221 134.51L154.211 134.5Z" fill="black"/>
<path d="M142.071 141.181C140.851 141.181 139.701 140.431 139.261 139.221C120.891 89.5508 120.911 17.5208 131.351 5.47079C132.441 4.22079 134.331 4.08079 135.581 5.17079C136.831 6.25079 136.971 8.15079 135.881 9.40079C132.411 13.4108 129.471 31.5508 130.571 58.4708C131.741 87.0208 136.961 115.701 144.881 137.141C145.461 138.691 144.661 140.421 143.111 140.991C142.771 141.121 142.421 141.181 142.071 141.181Z" fill="black"/>
<path d="M148.689 35.5309C148.069 35.5309 147.459 35.3409 146.949 34.9709C142.289 31.6409 137.409 16.4309 137.449 5.37086C137.449 3.72086 138.799 2.38086 140.449 2.38086H140.459C142.119 2.38086 143.459 3.73086 143.449 5.39086C143.409 14.8409 147.199 25.3909 149.499 28.9709C161.559 23.8009 173.109 13.1609 177.649 5.37086C178.489 3.94086 180.319 3.45086 181.749 4.29086C183.179 5.12086 183.669 6.96086 182.829 8.39086C176.689 18.9309 162.459 30.5109 149.749 35.3309C149.409 35.4609 149.039 35.5209 148.689 35.5209V35.5309Z" fill="black"/>
<path d="M170.771 53.6504C170.101 53.6504 169.431 53.4304 168.871 52.9704L148.541 36.2904L130.061 49.0104C128.691 49.9504 126.821 49.6004 125.891 48.2404C124.951 46.8704 125.301 45.0104 126.661 44.0704L147.001 30.0704C148.101 29.3104 149.571 29.3704 150.601 30.2204L172.681 48.3404C173.961 49.3904 174.151 51.2804 173.101 52.5604C172.511 53.2804 171.651 53.6604 170.781 53.6604L170.771 53.6504Z" fill="black"/>
<path d="M156.189 97.6496C154.769 97.6496 153.509 96.6396 153.239 95.1996L148.509 69.9196L143.869 69.8596L133.939 93.6396C133.299 95.1696 131.539 95.8896 130.019 95.2496C128.489 94.6096 127.769 92.8496 128.409 91.3296L139.119 65.6896C139.589 64.5696 140.679 63.8496 141.889 63.8496H141.929L151.049 63.9596C152.479 63.9796 153.699 64.9996 153.959 66.4096L159.149 94.1096C159.449 95.7396 158.379 97.3096 156.749 97.6096C156.559 97.6396 156.379 97.6596 156.199 97.6596L156.189 97.6496Z" fill="black"/>
<path d="M150.47 68.5197C150.37 68.5197 150.28 68.5197 150.18 68.5097L141.87 67.7097C140.63 67.5897 139.6 66.7197 139.27 65.5197L132.86 42.1697C132.51 40.8797 133.05 39.5197 134.18 38.8197L146.55 31.2097C147.61 30.5497 148.97 30.6297 149.96 31.3997L163.21 41.6897C164.35 42.5697 164.7 44.1397 164.04 45.4197L153.13 66.8897C152.62 67.8997 151.58 68.5297 150.46 68.5297L150.47 68.5197ZM144.51 61.9297L148.72 62.3397L157.58 44.8997L147.93 37.4097L139.25 42.7497L144.51 61.9297Z" fill="black"/>
<path d="M92.2904 70.3096L81.0204 49.3196C72.8104 37.8496 63.5604 32.7396 55.2504 41.2596C51.3904 45.2196 25.4504 65.1096 33.5404 75.3696C42.5604 86.7996 70.3104 148.03 98.3204 140.21C109.49 134.53 103.97 98.2596 92.2804 70.3096H92.2904Z" fill="#2D8C3C"/>
<path d="M93.2791 143.9C71.1691 143.9 51.1891 110.21 38.8491 89.3997C35.6791 84.0597 32.9391 79.4397 31.1891 77.2197C22.5491 66.2697 41.2491 49.7197 50.2291 41.7697C51.4991 40.6497 52.5991 39.6697 53.0991 39.1597C56.7291 35.4397 60.7691 33.7097 65.0991 34.0397C71.1891 34.4997 77.3691 39.0497 83.4591 47.5597C84.4191 48.9097 84.1091 50.7797 82.7691 51.7497C81.4291 52.7097 79.5491 52.3997 78.5791 51.0597C73.6391 44.1597 68.8191 40.3497 64.6491 40.0297C62.1491 39.8497 59.7691 40.9297 57.3991 43.3597C56.7491 44.0297 55.6791 44.9697 54.2091 46.2697C48.4091 51.3997 30.7691 67.0197 35.8991 73.5097C37.8991 76.0397 40.5991 80.5897 44.0091 86.3397C55.6691 106 77.3391 142.49 97.1991 137.4C105.129 132.69 101.329 99.7197 89.5191 71.4597C88.8791 69.9297 89.5991 68.1697 91.1291 67.5397C92.6591 66.9097 94.4191 67.6197 95.0491 69.1497C106.049 95.4597 113.779 135.72 99.6791 142.88C99.4991 142.97 99.3191 143.04 99.1291 143.09C97.1691 143.64 95.2091 143.9 93.2691 143.9H93.2791Z" fill="black"/>
<path d="M70.3487 26.4198C75.2787 32.4798 69.6387 39.9798 64.0987 44.4898C58.5587 48.9998 53.3487 48.8798 48.4187 42.8198C43.4887 36.7598 44.4787 24.2098 50.9187 21.1098C58.1587 17.6198 65.4187 20.3598 70.3487 26.4198Z" fill="white"/>
<path d="M56.6908 50.6506C56.3808 50.6506 56.0808 50.6406 55.7708 50.6106C52.2808 50.3106 49.0308 48.3306 46.0908 44.7206C42.7608 40.6306 41.4808 34.1006 42.8208 28.0806C43.8508 23.4606 46.2608 20.0306 49.6108 18.4106C57.6208 14.5506 66.4608 16.8906 72.6708 24.5306C75.6008 28.1306 76.0208 32.6706 73.8708 37.3106C71.8508 41.6606 68.0708 45.1406 65.9908 46.8306C62.8608 49.3706 59.7408 50.6606 56.6908 50.6606V50.6506ZM57.3908 22.6006C55.6608 22.6006 53.9208 23.0006 52.2208 23.8206C50.5808 24.6106 49.2908 26.6406 48.6808 29.3906C47.7508 33.5506 48.6008 38.3006 50.7508 40.9306C52.6208 43.2306 54.4908 44.4806 56.2908 44.6306C58.0308 44.7906 60.0208 43.9506 62.2108 42.1606C65.1008 39.8106 67.3108 37.1806 68.4308 34.7706C70.0108 31.3706 68.9508 29.4506 68.0208 28.3106C64.9708 24.5606 61.2108 22.5906 57.3908 22.5906V22.6006Z" fill="black"/>
<path d="M76.34 57.7503L3 16.4803L8.86 6.07031L82.2 47.3403" fill="#82BE28"/>
<path d="M76.3402 60.7496C75.8402 60.7496 75.3403 60.6296 74.8703 60.3596L1.53025 19.0896C0.84025 18.6996 0.33025 18.0496 0.11025 17.2796C-0.09975 16.5096 -0.00975001 15.6896 0.38025 14.9996L6.24025 4.59965C7.05025 3.15965 8.88025 2.63965 10.3202 3.45965L83.6603 44.7296C85.1003 45.5396 85.6203 47.3696 84.8003 48.8096C83.9903 50.2496 82.1603 50.7696 80.7203 49.9496L10.0002 10.1496L7.08025 15.3296L77.8102 55.1296C79.2503 55.9396 79.7702 57.7696 78.9502 59.2096C78.4002 60.1896 77.3803 60.7396 76.3303 60.7396L76.3402 60.7496Z" fill="black"/>
<path d="M82.1998 47.3398L95.6998 61.4598L76.3398 57.7498" fill="white"/>
<path d="M95.6998 64.461C95.5098 64.461 95.3198 64.441 95.1298 64.411L75.7698 60.701C74.1398 60.391 73.0798 58.821 73.3898 57.191C73.6998 55.561 75.2698 54.491 76.8998 54.811L87.0398 56.751L80.0298 49.421C78.8798 48.221 78.9298 46.321 80.1198 45.181C81.3198 44.041 83.2198 44.081 84.3598 45.271L97.8598 59.391C98.7598 60.331 98.9498 61.751 98.3298 62.901C97.7998 63.881 96.7798 64.471 95.6998 64.471V64.461Z" fill="black"/>
<path d="M38.3007 28.47C32.5207 31.26 26.5507 44.03 26.1707 47C25.7907 49.97 26.9207 57.89 28.9307 61.27C30.9407 64.65 33.2207 63.54 34.1407 64.67C42.3607 74.78 51.0507 74.97 60.2907 67.46C69.5307 59.94 78.9307 47.43 70.7107 37.33C62.4907 27.23 50.3807 22.66 38.3107 28.48L38.3007 28.47Z" fill="white"/>
<path d="M47.9301 75.7203C42.2101 75.7203 36.7701 72.6603 31.8101 66.5703C30.7701 65.2903 29.8501 63.8403 29.0601 62.2603C28.3301 60.7703 28.9301 58.9803 30.4201 58.2403C31.9101 57.5103 33.7101 58.1103 34.4401 59.6003C35.0201 60.7803 35.7001 61.8503 36.4601 62.7803C43.2901 71.1803 50.0601 71.9103 58.3901 65.1303C61.5101 62.5903 76.6601 49.4103 68.3801 39.2203C60.3601 29.3703 49.6101 26.3603 39.6001 31.1803C35.2701 33.2703 32.3501 39.1603 31.9801 46.5403C31.9001 48.2003 30.4701 49.4903 28.8301 49.3903C27.1701 49.3103 25.9001 47.9003 25.9801 46.2403C26.4601 36.6603 30.6801 28.8103 36.9901 25.7703C49.4701 19.7503 63.2801 23.4503 73.0301 35.4303C79.0701 42.8603 79.3901 55.7803 62.1801 69.7803C57.3101 73.7403 52.5301 75.7103 47.9301 75.7103V75.7203Z" fill="black"/>
<path d="M140.521 82.6297C138.871 78.0497 135.391 75.0697 129.651 74.8797C119.411 74.5497 76.9507 78.7397 67.1407 80.6897C63.2707 81.4597 60.5907 84.9797 61.1707 89.5897C62.6107 100.86 76.4607 165.22 79.1507 173.55C80.2707 177.02 83.4607 179.61 86.8507 179.98C87.7507 180.08 88.9307 180.11 90.7207 180.14L109.601 179.14C109.601 179.14 141.381 176.92 150.361 175.02C155.131 174.01 157.921 171 157.301 166.19C156.821 162.44 143.281 90.2897 140.521 82.6197V82.6297Z" fill="#82BE28"/>
<path d="M90.7207 183.151H90.6707C88.8507 183.121 87.5807 183.091 86.5207 182.971C81.8807 182.461 77.7707 179.051 76.3007 174.481C74.2907 168.251 66.3007 131.941 61.5707 108.351C61.2407 106.731 62.3007 105.141 63.9207 104.821C65.5507 104.501 67.1307 105.551 67.4507 107.171C72.0507 130.121 80.0907 166.691 82.0107 172.641C82.7507 174.921 84.9207 176.761 87.1807 177.011C87.9607 177.101 89.1207 177.121 90.6707 177.151L109.451 176.161C109.711 176.141 141.071 173.941 149.751 172.101C154.371 171.121 154.581 168.481 154.341 166.591C153.871 162.941 140.311 90.8906 137.711 83.6506C136.361 79.9006 133.701 78.0206 129.561 77.8906C119.781 77.6006 77.4407 81.7106 67.7307 83.6406C65.2307 84.1406 63.7907 86.3806 64.1507 89.2206C64.3207 90.5606 64.6907 92.8006 65.2507 95.8506C65.5507 97.4806 64.4707 99.0406 62.8407 99.3406C61.2107 99.6406 59.6507 98.5606 59.3507 96.9306C58.7707 93.7706 58.3807 91.4307 58.2007 89.9806C57.4407 84.0107 60.9507 78.8706 66.5507 77.7606C76.7307 75.7306 119.411 71.5506 129.741 71.8906C136.331 72.1006 141.161 75.5506 143.341 81.6206C146.281 89.8006 159.771 161.871 160.281 165.831C161.071 171.941 157.501 176.591 150.991 177.981C141.911 179.901 111.121 182.071 109.811 182.161L90.8807 183.161C90.8307 183.161 90.7707 183.161 90.7207 183.161V183.151Z" fill="black"/>
<path d="M179.09 133.87C178.78 131.9 162.27 117.82 153.8 114.44C128.47 103.14 125.33 120 136.35 126.71C144.08 131.41 140.52 134.33 138.31 134.5C127.22 135.35 132.27 134.57 120.76 133.72C108.31 132.81 100.22 145.31 122.02 161.25C141.71 175.65 166.32 171.91 168.73 171.63C168.73 171.63 181.83 151.39 179.08 133.86L179.09 133.87Z" fill="white"/>
<path d="M157.029 175.681C156.959 175.681 156.889 175.681 156.819 175.681C142.989 174.751 126.209 168.471 117.789 161.081C104.479 149.401 105.129 141.371 106.699 137.621C108.719 132.811 114.049 130.251 120.989 130.741C125.469 131.071 127.569 131.401 128.959 131.621C130.979 131.941 131.539 132.021 137.909 131.541C137.539 131.101 136.719 130.341 134.919 129.351C128.719 125.941 125.799 119.231 128.109 113.751C130.059 109.141 135.979 105.401 146.759 108.681C150.459 109.811 154.259 111.571 156.789 112.861C158.269 113.611 158.859 115.411 158.109 116.891C157.359 118.371 155.559 118.961 154.079 118.211C150.749 116.521 147.619 115.211 145.009 114.421C139.179 112.641 134.819 113.281 133.629 116.081C132.669 118.361 133.969 121.971 137.809 124.091C143.839 127.411 144.529 130.731 144.049 132.941C143.449 135.711 140.829 137.331 138.549 137.501C131.599 138.031 130.629 137.951 128.029 137.541C126.659 137.331 124.779 137.031 120.549 136.721C116.369 136.411 113.189 137.641 112.239 139.931C111.009 142.861 112.869 148.761 121.749 156.561C129.169 163.081 144.759 168.841 157.229 169.681C158.879 169.791 160.129 171.221 160.019 172.881C159.909 174.461 158.589 175.681 157.029 175.681Z" fill="black"/>
<path d="M216.119 96.9591C205.159 126.299 211.569 136.649 202.559 135.689C186.719 134.009 182.559 130.369 173.139 126.279C171.969 125.769 170.589 125.889 169.589 126.689C173.479 129.219 178.389 170.459 162.719 176.249C167.779 177.299 220.649 185.619 230.919 181.509C245.729 175.579 260.359 102.289 242.789 52.9691C239.819 47.7591 215.479 90.2191 216.119 96.9591Z" fill="#2D8C3C"/>
<path d="M220.539 185.599C199.769 185.599 162.549 179.269 162.109 179.179C160.809 178.909 159.839 177.809 159.729 176.489C159.619 175.169 160.399 173.929 161.639 173.449C165.089 172.109 167.619 168.779 169.139 163.549C173.029 150.229 168.999 130.949 167.169 128.459C166.219 127.169 166.459 125.359 167.709 124.349C169.549 122.869 172.089 122.549 174.329 123.529C175.779 124.159 177.159 124.789 178.519 125.399C185.849 128.729 192.179 131.599 205.119 132.969C206.769 133.139 207.959 134.619 207.789 136.269C207.619 137.919 206.139 139.109 204.489 138.939C190.579 137.459 183.519 134.259 176.039 130.869C175.419 130.589 174.789 130.299 174.159 130.019C176.619 138.529 178.109 154.249 174.899 165.239C173.789 169.029 172.209 172.119 170.179 174.489C186.409 177.029 222.529 181.629 229.799 178.719C235.169 176.569 242.299 161.499 245.539 136.849C249.079 109.959 247.019 79.6793 239.899 53.7593C239.459 52.1593 240.399 50.5093 241.999 50.0693C243.589 49.6293 245.249 50.5693 245.689 52.1693C255.719 88.6693 253.629 121.379 251.499 137.629C248.889 157.459 242.409 180.139 232.039 184.289C229.699 185.229 225.609 185.599 220.539 185.599Z" fill="black"/>
<path d="M208.671 126.581C208.431 126.581 208.201 126.551 207.961 126.491C206.351 126.101 205.361 124.471 205.761 122.861C206.271 120.771 206.851 117.481 207.521 113.681C209.991 99.6907 214.121 76.2707 223.851 60.0307C224.701 58.6107 226.541 58.1507 227.971 59.0007C229.391 59.8507 229.851 61.6907 229.001 63.1207C219.841 78.4107 215.831 101.151 213.431 114.731C212.711 118.801 212.141 122.011 211.591 124.291C211.261 125.661 210.031 126.581 208.681 126.581H208.671Z" fill="black"/>
<path d="M220.54 185.601C199.77 185.601 162.55 179.271 162.11 179.181C160.83 178.911 159.87 177.851 159.74 176.551C159.61 175.251 160.33 174.011 161.54 173.491C165.12 171.951 167.69 168.081 169.2 162.011C172.44 148.971 169.2 130.971 167.28 128.591C166.25 127.301 166.44 125.411 167.72 124.371C169 123.331 170.87 123.511 171.92 124.781C175.55 129.201 178.53 149.011 175.08 163.241C173.94 167.921 172.21 171.671 169.91 174.451C186 176.991 222.5 181.651 229.81 178.721C231.35 178.101 233.1 178.851 233.71 180.391C234.33 181.931 233.58 183.671 232.04 184.291C229.7 185.231 225.61 185.601 220.54 185.601Z" fill="black"/>
</g>
<defs>
<clipPath id="clip0_10670_104405">
<rect width="253.27" height="271.98" fill="white" transform="translate(0 1)"/>
</clipPath>
</defs>
</svg>
