<svg width="300" height="278" viewBox="0 0 300 278" fill="none" xmlns="http://www.w3.org/2000/svg">
<path d="M123.559 4.59766C86.9989 16.6377 88.3189 31.6577 80.9989 39.6377C73.6789 47.6177 59.7889 68.6177 49.9989 78.6377C44.9989 83.7577 53.9989 90.6377 60.9989 93.6377C67.9989 96.6377 99.7289 104.788 108.729 101.788C117.729 98.7877 125.039 87.1777 130.729 69.7877C136.419 52.3977 138.819 47.4777 141.579 36.1577C131.629 18.1177 126.729 8.78766 123.559 4.59766Z" fill="white"/>
<path d="M48.9996 86.6483C48.5796 86.6483 48.1596 86.5583 47.7496 86.3783C46.2396 85.6883 45.5796 83.9083 46.2696 82.3983C50.5496 73.0483 61.8896 59.5183 67.9696 52.2583C69.6496 50.2483 70.9796 48.6683 71.5896 47.8483C71.6296 47.7983 71.6696 47.7483 71.7096 47.6983C74.9596 43.8983 77.3996 39.2283 79.9796 34.2783C86.5196 21.7383 93.9296 7.51827 117.25 3.83827C118.89 3.57827 120.42 4.69827 120.68 6.33827C120.94 7.97827 119.82 9.50827 118.18 9.76827C97.8496 12.9783 91.7596 24.6683 85.2996 37.0583C82.6896 42.0583 79.9996 47.2283 76.3196 51.5383C75.5996 52.4883 74.3096 54.0283 72.5596 56.1183C66.6496 63.1683 55.6596 76.2883 51.7096 84.9083C51.2096 86.0083 50.1196 86.6583 48.9796 86.6583L48.9996 86.6483Z" fill="black"/>
<path d="M104.359 225.008C104.289 225.008 104.209 225.008 104.139 225.008C102.489 224.888 101.249 223.448 101.369 221.798C101.529 219.688 101.719 217.098 101.939 214.138C104.129 184.788 109.259 116.068 107.499 98.368C106.129 84.588 106.759 67.118 107.249 57.938C107.339 56.278 108.739 55.0181 110.409 55.1081C112.059 55.1981 113.329 56.6081 113.239 58.2681C112.749 67.2881 112.129 84.4081 113.469 97.778C115.279 115.988 110.129 185.088 107.929 214.588C107.709 217.548 107.519 220.128 107.359 222.238C107.239 223.818 105.929 225.018 104.369 225.018L104.359 225.008Z" fill="black"/>
<path d="M206.44 228.147C204.87 228.147 203.55 226.927 203.45 225.337C202.32 207.637 200.64 192.267 199.15 179.577C197.46 165.187 196.94 113.477 199.33 98.2367C199.59 96.5967 201.13 95.4767 202.76 95.7367C204.4 95.9967 205.52 97.5267 205.26 99.1667C202.98 113.697 203.49 165.117 205.11 178.877C206.61 191.647 208.3 207.117 209.44 224.957C209.55 226.607 208.29 228.037 206.64 228.137C206.58 228.137 206.51 228.137 206.45 228.137L206.44 228.147Z" fill="black"/>
<path d="M125.99 9.85719C125.99 9.85719 135.96 4.86719 151.93 4.86719C173.88 4.86719 195.83 12.8472 189.51 20.4972C183.19 28.1472 102.72 35.7972 125.99 9.85719Z" fill="white"/>
<path d="M209.419 35.9172C197.609 38.6172 179.329 41.4772 159.469 41.6272C132.069 41.8372 114.149 32.9672 108.819 28.1172C104.239 37.0272 100.109 48.1272 99.1587 57.9872C97.7287 72.7872 90.8287 127.807 89.6587 132.947C73.8387 202.737 64.7587 216.367 77.2287 228.147C102.049 251.597 147.729 251.087 163.239 244.947C195.159 232.307 220.939 239.187 228.999 242.067C250.839 258.227 217.619 74.2772 209.409 35.9172H209.419Z" fill="white"/>
<path d="M134.059 251.387C126.409 251.387 118.919 250.697 111.959 249.307C110.339 248.987 109.279 247.397 109.609 245.777C109.929 244.157 111.509 243.097 113.139 243.427C128.379 246.477 146.379 245.967 162.539 242.037C185.079 236.557 215.079 233.227 227.659 238.887C229.039 239.507 230.059 239.607 230.689 239.177C234.549 236.547 233.779 220.227 233.529 214.857C233.279 209.547 231.949 199.917 230.409 188.767C228.839 177.387 227.049 164.477 225.649 151.077C225.479 149.427 226.669 147.957 228.319 147.787C229.949 147.607 231.439 148.807 231.609 150.457C232.999 163.757 234.779 176.607 236.349 187.947C237.979 199.707 239.259 208.997 239.519 214.577C240.249 230.037 239.589 240.377 234.059 244.137C232.359 245.297 229.439 246.267 225.189 244.357C215.659 240.067 189.899 241.547 163.949 247.857C154.329 250.197 144.059 251.377 134.059 251.377V251.387Z" fill="black"/>
<path d="M129.04 5.03891C129.04 5.03891 134.16 16.2389 151.22 14.0089C168.28 11.7789 182.02 3.87891 182.02 3.87891L171.75 41.8589L114.77 40.0189L115.85 13.8089L129.03 5.03891H129.04Z" fill="white"/>
<path d="M150.65 17.0083C150.19 17.0083 149.73 17.0083 149.26 16.9883C140.03 16.7283 131.68 13.7383 126.35 8.78832C125.14 7.65832 125.06 5.75832 126.19 4.54832C127.32 3.33832 129.22 3.25832 130.43 4.38832C138.91 12.2583 158.02 14.5783 176.73 3.34832C178.15 2.49832 179.99 2.95832 180.85 4.37832C181.71 5.79832 181.24 7.63832 179.82 8.49832C170.52 14.0783 160.46 17.0083 150.65 17.0083Z" fill="black"/>
<path d="M64.5793 251.348C61.9393 245.628 73.5493 207.668 81.9293 174.558C95.0093 131.648 90.0593 83.9683 95.6893 62.6583C101.799 39.5283 103.099 34.5983 110.879 16.8483C112.309 13.5683 117.189 5.34828 120.709 2.17828C121.919 0.488282 130.239 1.66828 132.119 3.56828C134.809 6.56828 122.319 31.2983 128.319 33.7483C137.299 37.4183 148.969 37.9383 155.649 34.5083C159.979 32.2883 168.189 13.8083 179.019 4.02828C182.829 0.598282 186.029 4.59828 194.359 7.81828C216.079 16.2183 235.219 67.4283 232.099 117.288C231.299 130.048 191.209 110.208 182.079 113.928C179.309 122.438 199.109 146.298 209.169 146.388C217.449 146.458 224.619 145.838 228.489 145.438C232.359 145.038 233.229 161.928 230.159 164.348C224.659 169.038 207.749 165.178 205.519 169.418C196.529 207.908 216.359 262.428 197.859 268.098C120.549 291.808 67.1993 257.078 64.5593 251.348H64.5793Z" fill="#2D8C3C"/>
<path d="M144.099 39.789C138.529 39.789 132.509 38.689 127.199 36.519C120.939 33.959 123.699 24.359 126.379 15.069C127.219 12.159 128.359 8.18899 128.269 7.05899C127.849 5.50899 128.729 3.89899 130.269 3.40899C131.859 2.91899 133.529 3.79899 134.029 5.37899C134.719 7.57899 133.859 10.789 132.139 16.729C131.069 20.459 128.569 29.099 129.599 31.009C137.989 34.399 148.579 34.759 154.299 31.829C155.779 31.069 157.579 31.659 158.339 33.129C159.099 34.599 158.509 36.409 157.039 37.169C153.629 38.919 149.039 39.789 144.099 39.789ZM128.279 7.11899C128.279 7.11899 128.279 7.14899 128.289 7.16899C128.289 7.14899 128.289 7.13899 128.279 7.11899Z" fill="black"/>
<path d="M180.42 276.026C179.88 276.026 179.39 276.026 178.95 276.006C177.29 275.956 175.99 274.576 176.04 272.916C176.09 271.286 177.42 270.006 179.04 270.006C179.07 270.006 179.1 270.006 179.13 270.006C188.09 270.276 195.77 268.006 199.69 263.946C202.04 261.506 203.07 258.456 202.82 254.616C202.41 250.916 194.65 176.446 204.23 165.986C204.56 165.626 204.98 165.346 205.45 165.186C208.22 164.216 212.04 164.096 216.1 163.966C220.64 163.816 226.28 163.636 228.3 162.006C228.81 161.596 229.18 160.576 229.31 159.196C229.71 155.266 228.21 150.276 227.3 148.406C226.29 148.466 224.49 148.636 222.97 148.786C212.22 149.816 207.01 149.926 204.53 147.866C200.24 144.306 181.6 85.9665 187.83 55.0665C188.16 53.4465 189.74 52.3865 191.36 52.7165C192.98 53.0465 194.04 54.6265 193.71 56.2465C187.98 84.6565 205.07 137.436 208.45 143.226C210.7 143.926 218.84 143.146 222.41 142.806C225.69 142.486 227.44 142.336 228.55 142.416C230.2 142.386 231.64 143.546 232.79 145.956C234.64 149.836 237.92 161.956 232.08 166.676C228.5 169.576 222.3 169.776 216.3 169.966C213.34 170.056 210.29 170.156 208.29 170.616C207.23 172.606 204.9 180.246 205.66 208.476C206.16 227.216 207.83 246.706 208.8 253.976C208.8 254.046 208.82 254.106 208.82 254.176C209.19 259.746 207.58 264.436 204.02 268.126C197.33 275.066 186.18 276.046 180.42 276.046V276.026Z" fill="black"/>
<path d="M146.269 277.808C96.5586 277.808 70.3386 263.218 62.5586 254.328C62.5086 254.268 62.4586 254.208 62.4186 254.148C59.5286 250.298 60.0786 246.448 60.5186 243.348C60.6686 242.278 60.8186 241.278 60.8186 240.348C60.8186 240.158 60.8386 239.968 60.8686 239.778C63.1186 228.088 67.6686 210.788 72.4786 192.478C78.3886 169.988 84.5086 146.728 86.6986 132.478C88.1386 121.658 88.6686 110.718 89.1786 100.128C90.0686 81.7579 90.9886 62.7679 96.7986 44.0379C96.8086 43.9979 96.8286 43.9579 96.8386 43.9179C102.189 28.9279 107.829 14.4579 117.889 2.10786C118.939 0.81786 120.829 0.62786 122.109 1.67786C123.399 2.72786 123.589 4.61786 122.539 5.89786C113.099 17.4879 107.669 31.4279 102.509 45.8779C96.9386 63.8579 96.0786 81.6179 95.1686 100.418C94.6486 111.128 94.1186 122.198 92.6286 133.328C90.3786 147.948 84.2286 171.358 78.2686 193.998C73.5186 212.068 69.0286 229.148 66.7986 240.638C66.7786 241.878 66.6086 243.058 66.4486 244.188C66.0486 247.008 65.8786 248.708 67.1386 250.448C74.1086 258.288 100.469 272.698 151.149 271.738C151.169 271.738 151.189 271.738 151.209 271.738C152.839 271.738 154.179 273.048 154.209 274.678C154.239 276.338 152.919 277.708 151.269 277.738C149.579 277.768 147.899 277.788 146.259 277.788L146.269 277.808Z" fill="black"/>
<path d="M123.81 99.8977C113.01 87.2677 81.4604 91.1077 81.4604 91.1077C75.6404 100.128 55.0004 91.6277 55.0004 91.6277C55.0004 91.6277 48.5504 116.198 63.3504 123.698C75.3404 129.778 88.1804 129.778 101.24 126.748C114.31 123.708 142.99 115.628 142.99 115.628C142.99 115.628 134.59 112.518 123.8 99.8877L123.81 99.8977Z" fill="white"/>
<path d="M86.6094 131.137C75.7794 131.137 64.9894 128.537 59.1594 124.007C50.4394 117.247 45.5194 102.747 52.3694 90.1966C53.1594 88.7466 54.9894 88.2066 56.4394 88.9966C57.8994 89.7866 58.4294 91.6166 57.6394 93.0666C52.3894 102.677 56.2594 114.147 62.8494 119.257C69.6594 124.547 86.3994 126.687 98.6494 123.837C111.499 120.857 128.059 116.147 128.229 116.097C129.819 115.647 131.479 116.567 131.939 118.167C132.389 119.757 131.469 121.417 129.869 121.877C129.699 121.927 112.989 126.667 100.009 129.687C95.7893 130.667 91.1993 131.137 86.6194 131.137H86.6094Z" fill="black"/>
<path d="M254 94.6377C249 71.6377 242.18 74.8177 233.18 41.8177C226.49 17.2877 207.45 8.57766 194.99 6.34766C187.36 17.4977 179.16 36.8277 184.4 62.9677C191.78 77.1277 202.66 92.1577 211 95.6377C228 92.6377 238 124.638 244 123.638C252.4 123.688 259 117.638 254 94.6377Z" fill="white"/>
<path d="M147.76 79.2473C147.76 79.2473 181.73 64.8673 200 70.6473C216.03 75.7173 219.43 80.0273 219 85.6473C219.24 96.7573 186.65 96.7873 177.87 97.8573C169.09 98.9273 147.76 79.2473 147.76 79.2473Z" fill="white"/>
<path d="M211.999 96.648C210.959 96.648 209.949 96.108 209.389 95.138C208.569 93.698 209.069 91.868 210.509 91.048C214.969 88.498 214.539 85.978 214.399 85.148C213.629 80.668 206.129 73.998 198.459 72.608C182.919 70.168 151.749 81.988 151.439 82.108C149.889 82.698 148.159 81.928 147.569 80.378C146.979 78.828 147.749 77.098 149.299 76.508C150.639 75.998 182.289 63.998 199.469 66.698C208.209 68.288 218.939 76.078 220.319 84.148C220.799 86.948 220.549 92.238 213.489 96.268C213.019 96.538 212.509 96.668 211.999 96.668V96.648Z" fill="black"/>
<path d="M209.509 93.2668C199.079 108.747 174.229 89.0468 154.879 79.9868C148.189 76.8568 135.629 74.4868 124.539 70.0368C113.069 61.1468 102.549 58.2968 92.9492 62.6768C72.7692 71.8768 75.6792 92.7168 77.1192 95.7268C78.5592 98.7368 81.2692 94.6068 98.3892 93.1068C121.019 91.1168 123.439 99.8868 139.999 112.647C157.069 125.807 192.169 142.847 208.999 141.647C230.169 140.137 237.159 121.027 237.159 121.027C237.159 121.027 225.029 96.2968 209.509 93.2668Z" fill="white"/>
<path d="M203.44 144.749C195.19 144.749 184.27 142.039 172.93 137.109C159.48 131.269 147.05 123.059 137.93 113.989C123.05 99.189 110.8 89.209 88.7003 95.679C87.1103 96.149 85.4403 95.229 84.9803 93.639C84.5103 92.049 85.4303 90.379 87.0203 89.919C112.19 82.559 126.89 94.539 142.17 109.729C160.92 128.379 190.72 139.929 205.76 138.649C227.16 136.819 234.98 121.019 235.31 120.349C236.03 118.859 237.81 118.229 239.31 118.939C240.8 119.649 241.44 121.429 240.74 122.919C240.36 123.719 231.23 142.489 206.28 144.629C205.38 144.709 204.44 144.749 203.46 144.749H203.44Z" fill="black"/>
<path d="M70.7392 97.8581C58.5192 97.8581 48.3892 89.4881 46.2792 84.8981C45.5892 83.3981 46.2392 81.608 47.7492 80.918C49.2492 80.218 51.0392 80.878 51.7292 82.388C52.8792 84.878 62.3192 93.168 73.4592 91.668C73.3492 86.168 74.1092 73.7681 82.3392 65.6481C88.4492 59.6181 97.2592 57.278 108.519 58.668C110.159 58.878 111.329 60.3681 111.129 62.018C110.919 63.6581 109.419 64.828 107.779 64.628C98.4392 63.468 91.3092 65.2381 86.5692 69.8981C78.0192 78.3081 79.5592 93.628 79.5692 93.778C79.7292 95.258 78.7792 96.6281 77.3392 97.0081C75.0892 97.5881 72.8792 97.848 70.7192 97.848L70.7392 97.8581Z" fill="black"/>
<path d="M198.041 99.7869C182.081 99.7869 164.191 90.6269 152.271 84.5169C150.111 83.4169 148.081 82.3669 146.321 81.5169C139.091 78.0069 123.881 75.0469 123.731 75.0169C122.101 74.7069 121.041 73.1269 121.351 71.5069C121.661 69.8769 123.241 68.8069 124.861 69.1269C125.521 69.2569 140.991 72.2669 148.931 76.1169C150.751 76.9969 152.811 78.0569 155.001 79.1769C169.971 86.8469 195.021 99.6769 210.621 90.7669C212.061 89.9469 213.891 90.4469 214.711 91.8869C215.531 93.3269 215.031 95.1569 213.591 95.9769C208.851 98.6869 203.551 99.7769 198.031 99.7769L198.041 99.7869Z" fill="black"/>
<path d="M245.12 126.699C244.66 126.699 244.2 126.679 243.72 126.629C238.82 126.169 236.15 121.469 233.05 116.009C228.57 108.119 223.49 99.179 210.87 98.629C209.21 98.559 207.93 97.159 208 95.499C208.07 93.839 209.48 92.559 211.13 92.629C227.07 93.319 233.54 104.719 238.27 113.039C240.35 116.699 242.49 120.479 244.28 120.639C246.52 120.849 248.31 120.259 249.75 118.829C252.35 116.229 253.58 111.029 253.02 104.899C252.19 95.789 245.83 81.649 240.73 70.289C239.95 68.559 239.19 66.869 238.47 65.239C236.09 59.879 234.16 54.319 232.28 48.929C230.05 42.519 227.74 35.889 224.73 29.769C219.47 19.079 204.52 13.779 193.68 10.719L180.74 8.07896C172.98 9.76896 166.84 23.469 165.1 28.719C164.58 30.289 162.89 31.149 161.31 30.629C159.74 30.109 158.88 28.419 159.4 26.839C159.47 26.609 161.27 21.229 164.57 15.549C169.27 7.46897 174.57 2.92896 180.32 2.05896C180.67 1.99896 181.02 2.01896 181.37 2.08896L194.99 4.86896C195.06 4.87896 195.13 4.89896 195.2 4.91896C207.15 8.28896 223.77 14.249 230.11 27.129C233.28 33.579 235.65 40.379 237.95 46.959C239.79 52.229 241.69 57.679 243.96 62.809C244.68 64.429 245.43 66.109 246.21 67.829C251.78 80.209 258.09 94.239 259 104.359C259.73 112.359 257.9 119.179 254 123.079C251.62 125.449 248.58 126.689 245.14 126.689L245.12 126.699Z" fill="black"/>
<path d="M183.92 64.5287C182.63 64.5287 181.44 63.6887 181.05 62.3887C174.53 40.6287 182.18 22.7087 185.78 16.0187C186.56 14.5587 188.38 14.0087 189.84 14.7987C191.3 15.5787 191.85 17.3987 191.06 18.8587C187.82 24.8887 180.92 41.0387 186.79 60.6687C187.27 62.2587 186.36 63.9287 184.78 64.3987C184.49 64.4887 184.2 64.5287 183.92 64.5287Z" fill="black"/>
</svg>
