<svg width="334" height="327" viewBox="0 0 334 327" fill="none" xmlns="http://www.w3.org/2000/svg">
<path d="M136.324 131.95L157.236 54.0343C147.881 44.1485 128.589 70.8841 128.589 70.8841L122.166 83.7417C118.804 90.8058 110.379 98.1501 98.4416 101.362C93.6388 102.653 82.0521 104.074 79.4205 107.315C75.6483 111.968 80.4611 122.364 80.7413 124.225C82.5023 135.572 80.211 146.048 81.2016 154.763C82.1321 162.918 103.124 159.726 114.511 147.869L116.992 150.05C117.773 149.24 125.037 142.546 125.718 141.666L136.314 131.95H136.324Z" fill="white"/>
<path d="M80.9423 147.498C80.9423 147.498 69.3255 149.129 61.0006 144.176C52.6657 139.233 38.3474 128.987 36.5863 111.857L30.7129 104.653C3.91722 95.9576 -0.475344 78.0972 4.57761 66.0301C11.1114 50.401 37.3868 56.0843 45.1814 66.4304C57.1784 82.3597 53.3061 93.3161 59.4297 103.552C67.7445 117.42 78.711 117.42 78.711 117.42L80.9423 147.498Z" fill="white"/>
<path d="M76.3899 150.761C71.8672 150.761 65.0833 150.101 59.47 146.759C50.4247 141.386 41.5195 130.889 32.9945 115.551C32.194 114.1 32.7144 112.279 34.1552 111.468C35.606 110.668 37.4271 111.188 38.2376 112.629C48.2034 130.559 56.9585 138.274 62.5318 141.586C69.8261 145.918 80.4223 144.527 80.5323 144.507C82.1533 144.277 83.6842 145.428 83.9143 147.069C84.1444 148.71 83.0038 150.221 81.3628 150.451C81.1627 150.481 79.2215 150.741 76.3899 150.741V150.761Z" fill="black"/>
<path d="M78.7109 120.422C78.1906 120.422 65.9334 120.242 56.8581 105.093C54.1065 100.5 53.196 95.9075 52.2454 91.0447C50.8946 84.2107 49.5038 77.1565 42.7899 68.2313C41.7893 66.9106 42.0595 65.0295 43.3802 64.0289C44.701 63.0283 46.5821 63.2984 47.5827 64.6192C55.1271 74.6451 56.728 82.7398 58.1389 89.884C59.0294 94.4066 59.7998 98.3089 62.0111 102.001C69.3654 114.268 78.6208 114.418 78.7209 114.418C80.3819 114.418 81.7227 115.759 81.7227 117.42C81.7227 119.081 80.3819 120.422 78.7209 120.422H78.7109Z" fill="black"/>
<path d="M30.7125 107.655C30.4623 107.655 30.2122 107.625 29.952 107.555C17.4847 104.303 7.97918 97.1893 3.18638 87.5237C-0.505783 80.0793 -1.01608 71.6144 1.79556 64.8704C5.37766 56.3054 16.3441 49.9717 32.7537 55.1347C34.3346 55.635 35.2151 57.316 34.7148 58.8969C34.2145 60.4779 32.5235 61.3584 30.9526 60.8581C21.7272 57.9564 10.8509 58.7769 7.3288 67.1818C5.16753 72.3448 5.6278 78.9487 8.55952 84.8621C12.5619 92.9469 20.6966 98.9404 31.4529 101.742C33.0538 102.162 34.0144 103.803 33.6042 105.404C33.254 106.755 32.0332 107.645 30.7025 107.645L30.7125 107.655Z" fill="black"/>
<path d="M62.611 49.9916C68.6946 47.4601 74.3979 42.067 77.98 34.6827C84.4838 21.3048 81.5721 6.48617 71.4862 1.5833C61.4003 -3.31956 47.9524 3.54445 41.4486 16.9223C37.8665 24.3066 37.1461 32.1212 38.9171 38.4649C38.9271 38.5149 38.9472 38.5649 38.9572 38.605C39.2974 39.8657 41.7188 49.3412 39.6376 53.6237C37.4063 58.2164 24.5788 80.1993 21.8772 83.4312C19.1756 86.6531 28.401 90.2451 28.401 90.2451C28.401 90.2451 36.926 95.2981 37.7865 91.1757C38.647 87.0533 48.0025 63.3794 50.2338 58.7868C52.315 54.5043 61.2602 50.5619 62.4609 50.0416C62.5109 50.0216 62.551 50.0016 62.601 49.9816L62.611 49.9916Z" fill="black"/>
<path d="M43.9004 79.6399C43.4001 79.2997 32.8439 71.215 29.1618 78.149C25.4796 85.0831 33.3342 92.7676 42.0593 95.4291C50.7844 98.0907 47.1223 81.8111 43.9004 79.6299V79.6399Z" fill="white"/>
<path d="M42.0595 98.4404C41.7693 98.4404 41.4792 98.4004 41.179 98.3103C34.1949 96.1791 28.3015 91.4563 26.1502 86.2733C24.7994 83.0214 24.9195 79.7294 26.5104 76.7477C27.7011 74.5064 29.5522 73.0355 31.8536 72.5052C36.3962 71.4446 41.5292 74.2462 45.0213 76.7777L45.1013 76.8378C46.4421 77.7883 46.7823 79.6494 45.8517 81.0002C44.9212 82.351 43.0801 82.7112 41.7093 81.7906L41.4992 81.6406C38.1873 79.2392 34.9354 77.9484 33.2043 78.3486C32.7841 78.4487 32.2838 78.6688 31.8035 79.5593C31.0731 80.9401 31.0331 82.381 31.6935 83.9719C33.1343 87.454 37.757 90.986 42.93 92.5669C44.511 93.0472 45.4115 94.7282 44.9212 96.3091C44.531 97.5999 43.3403 98.4404 42.0495 98.4404H42.0595Z" fill="black"/>
<path d="M90.1565 161.807C88.9058 161.807 87.7151 161.727 86.6144 161.577C79.8605 160.656 78.4597 157.134 78.2295 155.113C77.7692 151.041 77.9694 146.748 78.1795 142.195C78.4396 136.572 78.7198 130.749 77.7793 124.685C77.7592 124.545 77.7192 124.345 77.6792 124.095C76.5485 117.681 75.578 108.646 80.1606 104.233C84.7934 99.7706 89.8563 98.8101 95.2094 97.7995C97.6409 97.3392 100.152 96.8589 102.884 96.0384C111.949 93.2868 118.083 83.5912 124.016 74.2157C125.387 72.0544 126.798 69.8231 128.219 67.7119C129.149 66.3411 131.01 65.9809 132.391 66.9114C133.762 67.8419 134.122 69.703 133.192 71.0838C131.821 73.105 130.5 75.2062 129.089 77.4275C122.575 87.7336 115.832 98.3898 104.625 101.792C101.583 102.712 98.7915 103.243 96.3301 103.713C91.3072 104.663 87.675 105.354 84.3331 108.576C83.4926 109.386 81.7216 112.428 83.6027 123.074C83.6527 123.374 83.6927 123.615 83.7227 123.785C84.7533 130.439 84.4532 136.842 84.183 142.496C83.9829 146.798 83.7928 150.86 84.203 154.443C84.213 154.543 84.8734 155.293 87.4349 155.643C96.4302 156.874 116.942 150.921 122.215 137.923C122.836 136.382 124.587 135.652 126.128 136.272C127.668 136.892 128.409 138.643 127.778 140.184C122.095 154.192 102.824 161.817 90.1665 161.817L90.1565 161.807Z" fill="black"/>
<path d="M250.872 204.712C253.784 217.759 258.016 246.456 253.593 250.548C249.171 254.641 236.694 251.589 232.421 251.919L233.572 209.574L250.872 204.722V204.712Z" fill="white"/>
<path d="M245.198 255.702C242.596 255.702 239.925 255.442 237.493 255.201C235.502 255.011 233.621 254.821 232.651 254.901C231 255.021 229.559 253.791 229.429 252.14C229.299 250.489 230.539 249.048 232.19 248.918C233.681 248.808 235.722 248.998 238.084 249.228C242.316 249.638 249.41 250.329 251.562 248.337C253.803 245.496 251.972 223.383 247.95 205.362C247.589 203.741 248.61 202.14 250.221 201.78C251.832 201.42 253.443 202.441 253.803 204.051C255.134 210.035 257.035 220.601 257.975 230.707C259.486 246.927 257.515 251.009 255.634 252.75C253.113 255.081 249.25 255.702 245.208 255.702H245.198Z" fill="black"/>
<path d="M156.225 52.2431C159.757 50.5321 166.441 49.3914 174.846 51.1024C180.069 52.163 183.701 53.5338 196.969 50.8623C210.237 48.1907 221.933 49.9918 221.933 49.9918L207.555 82.7409L166.121 90.0752L151.772 69.1129C151.772 69.1129 152.703 53.9541 156.225 52.2431Z" fill="white"/>
<path d="M165.781 53.9845C165.781 53.9845 172.995 68.0428 190.065 65.8115C207.135 63.5801 214.379 52.5737 214.379 52.5737L204.103 90.5759L147.09 88.7349L148.171 62.5095L165.781 53.9945V53.9845Z" fill="white"/>
<path d="M96.8606 300.177C94.219 294.454 105.836 256.471 114.221 223.342C127.308 180.407 122.355 132.699 127.989 111.377C134.102 88.2331 135.403 83.3002 143.188 65.5398C144.618 62.2579 149.501 54.0331 153.023 50.8612C154.234 49.1702 162.559 50.3509 164.44 52.252C167.132 55.2538 154.634 79.9983 160.638 82.4497C169.623 86.1218 181.3 86.6421 187.984 83.2101C192.316 80.9888 197.269 74.3049 200.611 61.5675C201.912 56.6046 217.831 40.4051 236.922 53.7629C256.014 67.1207 267.61 116.159 264.489 166.039C263.688 178.806 223.575 158.954 214.439 162.677C211.668 171.192 215.71 197.817 225.546 195.676C234.161 193.795 250.22 184.669 250.22 184.669C250.22 184.669 255.844 198.678 256.644 202.43C251.141 207.123 237.273 211.875 235.041 216.118C226.046 254.63 248.739 311.263 230.229 316.937C152.873 340.661 99.4921 305.91 96.8506 300.177H96.8606Z" fill="white"/>
<path d="M176.427 88.495C170.854 88.495 164.83 87.3944 159.517 85.2131C153.253 82.6516 156.015 73.046 158.696 63.7606C159.537 60.8489 160.678 56.8765 160.588 55.7459C160.167 54.195 161.048 52.584 162.589 52.0937C164.17 51.6035 165.851 52.484 166.351 54.0649C167.041 56.2662 166.181 59.4781 164.46 65.4215C163.389 69.1437 160.888 77.7988 161.918 79.7099C170.313 83.1019 180.909 83.4621 186.633 80.5304C188.104 79.7699 189.915 80.3603 190.675 81.8311C191.436 83.302 190.845 85.1131 189.374 85.8735C185.962 87.6245 181.37 88.495 176.427 88.495ZM160.598 55.8059C160.598 55.8059 160.598 55.8359 160.608 55.8559C160.608 55.8359 160.608 55.8259 160.598 55.8059Z" fill="black"/>
<path d="M253.964 90.5158C252.793 90.5158 251.682 89.8254 251.202 88.6847C239.815 61.869 228.138 48.8614 217.462 51.0327C215.831 51.3629 214.25 50.3122 213.92 48.6913C213.59 47.0704 214.641 45.4794 216.261 45.1492C230.3 42.2976 243.908 56.1557 256.725 86.3433C257.376 87.8742 256.665 89.6353 255.134 90.2756C254.754 90.4357 254.354 90.5158 253.964 90.5158Z" fill="black"/>
<path d="M212.76 324.871C212.219 324.871 211.729 324.871 211.289 324.851C209.628 324.801 208.327 323.421 208.377 321.76C208.427 320.129 209.758 318.848 211.379 318.848C211.409 318.848 211.439 318.848 211.469 318.848C220.434 319.118 228.119 316.847 232.041 312.784C234.382 310.353 235.413 307.311 235.183 303.489C234.152 295.674 232.311 275.102 231.611 255.431C230.24 216.788 234.282 212.376 235.803 210.715C235.973 210.535 236.153 210.374 236.354 210.244C240.396 207.563 243.678 206.192 246.569 204.991C248.521 204.181 250.362 203.41 252.233 202.32C253.133 201.219 251.152 195.826 247.47 190.463C246.59 190.423 245.679 190.133 244.788 189.602C234.492 183.499 214.471 132.049 220.174 103.792C220.504 102.171 222.075 101.101 223.706 101.441C225.327 101.771 226.388 103.352 226.057 104.973C220.514 132.449 241.126 180.277 247.59 184.309C248.05 184.119 248.561 184.039 249.081 184.099C249.901 184.189 250.642 184.619 251.142 185.28C251.252 185.43 253.904 188.962 255.945 193.084C259.247 199.718 259.227 204.431 255.895 207.093C255.795 207.173 255.685 207.253 255.565 207.323C253.233 208.724 251.022 209.644 248.881 210.535C246.209 211.645 243.448 212.806 240.056 214.997C239.155 216.358 236.464 223.162 237.604 255.231C238.295 274.792 240.126 295.194 241.136 302.809C241.136 302.879 241.156 302.939 241.156 303.009C241.527 308.582 239.916 313.275 236.354 316.967C229.66 323.911 218.503 324.891 212.74 324.891L212.76 324.871Z" fill="black"/>
<path d="M178.6 326.653C128.861 326.653 102.625 312.055 94.8406 303.159C94.7906 303.099 94.7406 303.039 94.7005 302.979C91.8088 299.127 92.3592 295.275 92.7994 292.173C92.9495 291.102 93.0996 290.102 93.0996 289.171C93.0996 288.981 93.1196 288.791 93.1496 288.601C95.4009 276.904 99.9536 259.594 104.766 241.273C110.68 218.77 116.803 195.496 118.995 181.238C120.436 170.412 120.966 159.465 121.476 148.869C122.367 130.488 123.287 111.487 129.101 92.7464C129.111 92.7064 129.131 92.6663 129.141 92.6263C134.494 77.6276 140.137 63.1491 150.203 50.7919C151.254 49.5011 153.145 49.311 154.425 50.3616C155.716 51.4122 155.906 53.3033 154.856 54.5841C145.41 66.1809 139.977 80.129 134.814 94.5875C129.241 112.578 128.38 130.348 127.47 149.159C126.949 159.876 126.419 170.952 124.928 182.089C122.677 196.717 116.523 220.141 110.56 242.794C105.807 260.875 101.314 277.965 99.0831 289.461C99.0631 290.702 98.893 291.883 98.7329 293.014C98.3327 295.835 98.1626 297.536 99.4233 299.277C106.397 307.122 132.773 321.53 183.482 320.58C185.123 320.5 186.504 321.86 186.544 323.521C186.574 325.182 185.253 326.553 183.603 326.583C181.912 326.613 180.231 326.633 178.59 326.633L178.6 326.653Z" fill="black"/>
<path d="M181.21 68.8133C176.438 68.8133 170.104 66.1818 169.393 65.8816C167.873 65.2312 167.152 63.4702 167.803 61.9493C168.453 60.4284 170.204 59.708 171.735 60.3584C173.346 61.0388 178.199 62.8198 181.21 62.8198C188.505 62.8198 192.987 60.4984 200.382 52.884C201.542 51.6933 203.433 51.6733 204.624 52.824C205.815 53.9746 205.835 55.8757 204.684 57.0664C197.28 64.6909 191.346 68.8233 181.21 68.8233V68.8133Z" fill="black"/>
<path d="M147.32 205.252L147.14 181.278H118.974L118.994 205.062C118.994 207.843 120.735 210.325 123.346 211.285C128.289 213.687 137.084 213.687 142.708 211.616C145.479 210.745 147.34 208.154 147.32 205.242V205.252Z" fill="#2D8C3C"/>
<path d="M133.222 216.138C129.11 216.138 125.097 215.428 122.166 214.047C118.474 212.616 115.992 209.024 115.992 205.062L115.972 181.278C115.972 180.477 116.292 179.717 116.853 179.157C117.413 178.596 118.183 178.276 118.974 178.276H147.14C148.791 178.276 150.132 179.607 150.142 181.258L150.322 205.232C150.352 209.474 147.691 213.177 143.678 214.467C140.587 215.588 136.864 216.148 133.222 216.148V216.138ZM121.976 184.28L121.996 205.062C121.996 206.573 122.956 207.943 124.387 208.474C124.477 208.504 124.567 208.544 124.657 208.594C128.7 210.555 136.644 210.655 141.667 208.814C141.707 208.794 141.757 208.784 141.807 208.764C143.298 208.294 144.329 206.863 144.319 205.282L144.159 184.28H121.976Z" fill="black"/>
<path d="M90.3771 165.439C90.3771 189.182 109.628 205.812 133.372 205.812C157.116 205.812 176.367 189.182 176.367 165.439H90.3871H90.3771Z" fill="#2D8C3C"/>
<path d="M140.526 208.304C139.065 208.304 137.775 207.233 137.564 205.732C137.324 204.091 138.465 202.57 140.096 202.33C158.637 199.619 171.884 185.891 173.245 168.44H93.4987C94.7894 185.14 106.836 198.398 124.287 201.92C125.908 202.25 126.968 203.831 126.638 205.452C126.308 207.073 124.727 208.134 123.106 207.803C101.733 203.491 87.3851 186.471 87.3851 165.439C87.3851 163.778 88.7259 162.437 90.3868 162.437H176.367C178.028 162.437 179.369 163.778 179.369 165.439C179.369 187.351 163.58 204.962 140.966 208.264C140.816 208.284 140.676 208.294 140.526 208.294V208.304Z" fill="black"/>
<path d="M133.001 179.166C156.802 179.166 176.096 172.81 176.096 164.968C176.096 157.127 156.802 150.77 133.001 150.77C109.2 150.77 89.9061 157.127 89.9061 164.968C89.9061 172.81 109.2 179.166 133.001 179.166Z" fill="white"/>
<path d="M170.093 156.703C177.607 158.234 175.976 168.801 173.545 170.612C166.661 175.735 151.092 179.307 133.001 179.307C116.381 179.307 101.893 176.295 94.3086 171.832C90.7165 169.721 87.7548 159.695 96.3198 157.644C95.2191 153.061 97.0902 144.806 106.005 140.144C107.276 130.248 118.563 124.114 128.248 125.585C134.322 121.783 143.127 122.403 148.38 129.047C156.895 129.768 164.229 136.572 163.329 144.466C168.882 146.878 170.093 153.582 170.093 156.683V156.703Z" fill="white"/>
<path d="M133.002 182.31C116.222 182.31 101.193 179.358 92.7885 174.425C89.4065 172.434 87.2052 167.191 87.8656 162.728C88.476 158.676 91.2976 155.764 95.6301 154.734C97.2311 154.353 98.862 155.344 99.2423 156.955C99.6225 158.566 98.6319 160.187 97.021 160.567C94.4595 161.177 93.9592 162.598 93.8091 163.609C93.4489 166.01 94.9097 168.702 95.8303 169.242C103.235 173.595 117.483 176.306 133.002 176.306C149.602 176.306 165.121 173.074 171.685 168.261C172.255 167.551 173.045 164.539 172.235 162.118C171.765 160.717 170.894 159.937 169.493 159.646C168.093 159.366 167.092 158.136 167.092 156.705C167.092 156.405 167.032 149.36 162.139 147.239C160.618 146.579 159.918 144.818 160.578 143.287C161.239 141.766 163 141.066 164.53 141.726C169.994 144.097 172.415 149.681 172.975 154.503C175.667 155.764 177.548 158.176 178.268 161.397C179.249 165.79 177.908 171.113 175.347 173.014C167.642 178.738 151.423 182.3 133.012 182.3L133.002 182.31Z" fill="black"/>
<path d="M106.016 143.156C105.886 143.156 105.755 143.156 105.635 143.136C103.994 142.926 102.824 141.425 103.044 139.774C103.664 134.941 106.356 130.498 110.628 127.277C115.441 123.644 121.725 121.893 127.628 122.494C135.423 118.241 145.189 120.162 150.752 127.207C151.782 128.507 151.562 130.398 150.251 131.419C148.951 132.45 147.06 132.229 146.039 130.919C141.606 125.305 134.392 125.295 129.86 128.137C129.249 128.517 128.529 128.667 127.818 128.557C123.246 127.867 118.043 129.208 114.25 132.059C112.149 133.64 109.538 136.402 109.007 140.524C108.817 142.035 107.526 143.146 106.036 143.146L106.016 143.156Z" fill="black"/>
<path d="M96.3315 160.646C94.9707 160.646 93.75 159.726 93.4198 158.345C92.4792 154.413 93.3497 149.67 95.7611 145.648C96.6116 144.227 98.4527 143.757 99.8836 144.617C101.304 145.468 101.765 147.309 100.914 148.739C99.013 151.921 98.8129 155.063 99.2632 156.954C99.6534 158.565 98.6528 160.186 97.0419 160.576C96.8018 160.636 96.5716 160.656 96.3415 160.656L96.3315 160.646Z" fill="black"/>
<path d="M146.19 158.706C145.419 158.706 144.649 158.416 144.058 157.825C141.117 154.863 137.555 157.475 136.874 158.025C135.593 159.066 133.702 158.876 132.662 157.605C131.611 156.334 131.781 154.453 133.052 153.403C135.904 151.031 142.768 148.009 148.321 153.593C149.492 154.763 149.492 156.665 148.321 157.835C147.741 158.416 146.97 158.706 146.2 158.706H146.19Z" fill="black"/>
<path d="M220.775 166.119C208.717 185.06 183.243 187.571 183.243 187.571C177.479 187.001 171.846 185.2 166.913 182.358C164.181 180.787 161.37 178.806 158.168 178.946C155.326 179.066 152.815 180.947 151.564 183.309C150.313 185.67 150.163 188.422 150.533 191.043C150.834 193.154 151.444 195.306 150.924 197.367C149.923 201.359 145.27 203.42 141.068 204.701C136.865 205.982 132.133 207.373 130.162 211.025C128.561 213.987 129.371 217.729 131.432 220.47C133.493 223.212 136.625 225.103 139.847 226.614C158.068 235.159 186.775 231.107 203.124 217.619C219.474 204.131 233.972 199.698 244.048 187.241" fill="white"/>
<path d="M162.26 234.109C153.735 234.109 145.49 232.568 138.576 229.326C135.775 228.015 131.732 225.854 129.041 222.272C126.089 218.35 125.489 213.367 127.53 209.595C130.051 204.912 135.565 203.241 139.987 201.89L140.207 201.82C144.89 200.389 147.522 198.648 148.022 196.627C148.272 195.626 148.042 194.306 147.812 192.915C147.732 192.424 147.642 191.934 147.572 191.444C147.051 187.762 147.512 184.55 148.922 181.888C150.754 178.426 154.336 176.095 158.048 175.935C161.74 175.765 164.722 177.556 167.363 179.127C167.713 179.337 168.064 179.547 168.414 179.747C172.887 182.329 178 183.98 183.223 184.54C185.924 184.2 207.777 180.928 218.243 164.498C219.134 163.097 220.995 162.687 222.385 163.578C223.786 164.468 224.197 166.319 223.306 167.72C210.609 187.662 184.643 190.443 183.543 190.553C183.343 190.573 183.153 190.573 182.952 190.553C176.779 189.943 170.715 188.002 165.422 184.95C165.052 184.74 164.682 184.52 164.312 184.3C162.2 183.049 160.189 181.888 158.308 181.938C156.467 182.018 154.936 183.389 154.236 184.71C153.425 186.231 153.185 188.222 153.525 190.623C153.585 191.054 153.655 191.484 153.735 191.914C154.055 193.765 154.416 195.867 153.855 198.098C152.435 203.781 146.391 206.223 141.968 207.573L141.748 207.643C138.196 208.724 134.174 209.955 132.823 212.456C131.772 214.407 132.583 216.979 133.854 218.67C135.295 220.581 137.606 222.242 141.138 223.903C158.308 231.948 185.824 228.015 201.233 215.308C208.307 209.474 215.121 205.252 221.135 201.52C229.239 196.487 236.244 192.154 241.737 185.36C242.777 184.07 244.668 183.869 245.959 184.91C247.25 185.951 247.45 187.842 246.41 189.133C240.276 196.717 232.521 201.52 224.307 206.613C218.173 210.415 211.829 214.347 205.065 219.931C193.949 229.096 177.649 234.119 162.29 234.119L162.26 234.109Z" fill="black"/>
<path d="M247.411 193.635C250.172 189.773 258.647 182.729 260.428 178.036C279.169 128.517 256.246 70.9835 239.206 55.6545C226.959 44.6381 216.753 51.1219 215.012 60.0771C211.8 65.4703 213.391 94.017 214.541 103.222C218.664 136.062 207.567 155.223 207.547 160.516C207.487 174.174 226.588 193.525 247.411 193.625V193.635Z" fill="white"/>
<path d="M242.178 196.798C236.945 196.798 231.141 194.746 225.098 190.634C212.901 182.339 201.184 166.17 204.896 159.116C210.799 147.889 217.944 130.039 211.86 104.644C211.47 103.033 212.47 101.412 214.081 101.022C215.682 100.641 217.313 101.632 217.703 103.243C222.686 124.065 220.315 142.716 210.209 161.907C209.028 164.579 217.243 178.587 229.67 186.452C236.114 190.534 245.17 193.806 251.693 186.231C270.654 164.199 264.041 117.521 251.543 81.2001C241.357 51.6128 223.287 51.1725 223.107 51.1725C221.446 51.1725 220.115 49.8117 220.125 48.1507C220.125 46.4998 221.476 45.169 223.127 45.169H223.147C224.057 45.169 245.67 45.6793 257.227 79.2489C263.56 97.6397 282.201 159.996 256.256 190.154C252.444 194.576 247.631 196.798 242.198 196.798H242.178Z" fill="black"/>
<path d="M214.54 106.234C213.279 106.234 212.099 105.434 211.689 104.163C207.346 90.9051 208.547 70.4832 212.149 59.1765C212.649 57.5956 214.34 56.7251 215.921 57.2254C217.502 57.7257 218.372 59.4167 217.872 60.9976C214.98 70.0829 213.199 89.4943 217.392 102.292C217.912 103.863 217.052 105.564 215.471 106.074C215.161 106.174 214.85 106.224 214.54 106.224V106.234Z" fill="black"/>
</svg>
