<svg width="365" height="264" viewBox="0 0 365 264" fill="none" xmlns="http://www.w3.org/2000/svg">
<path d="M112.83 120.71C112.83 120.71 101.22 122.34 92.9003 117.39C84.5703 112.45 70.2603 102.21 68.5003 85.0903L62.6303 77.8903C35.8503 69.2003 31.4703 51.3503 36.5103 39.2903C43.0403 23.6703 69.3003 29.3503 77.0903 39.6903C89.0803 55.6103 85.2103 66.5603 91.3303 76.7903C99.6403 90.6503 110.6 90.6503 110.6 90.6503L112.83 120.71Z" fill="white"/>
<path d="M110.6 93.6495C110.51 93.6495 110.41 93.6495 110.32 93.6395C101.03 92.7795 93.2599 86.7495 87.8399 76.2095C85.5399 71.8295 85.0799 66.9795 84.5899 61.8395C83.7099 52.5695 82.7999 42.9895 70.2999 34.9595C68.9099 34.0695 68.4999 32.2095 69.3999 30.8195C70.2899 29.4295 72.1499 29.0195 73.5399 29.9195C88.4999 39.5195 89.6499 51.5795 90.5699 61.2795C90.9999 65.8095 91.4099 70.0995 93.1699 73.4495C97.6799 82.2195 103.64 86.9995 110.88 87.6695C112.53 87.8195 113.74 89.2795 113.59 90.9295C113.45 92.4895 112.14 93.6495 110.61 93.6495H110.6Z" fill="black"/>
<path d="M43.5794 70.5719C42.7994 70.5719 42.0094 70.2719 41.4294 69.6619C36.1994 64.2619 33.0094 57.6319 32.2094 50.4719C31.4494 43.6719 33.3394 37.3919 37.5294 32.7919C42.0594 27.8219 48.7994 25.1519 56.4094 25.2819C62.4694 25.3819 68.5094 27.0019 73.4194 29.8419C74.8494 30.6719 75.3394 32.5019 74.5094 33.9419C73.6794 35.3719 71.8394 35.8619 70.4094 35.0319C66.3694 32.6919 61.3594 31.3619 56.2994 31.2719C50.4194 31.1819 45.2994 33.1419 41.9594 36.8219C38.9094 40.1819 37.5894 44.6619 38.1694 49.8019C38.8194 55.6319 41.4394 61.0519 45.7294 65.4919C46.8794 66.6819 46.8494 68.5819 45.6594 69.7319C45.0794 70.2919 44.3194 70.5819 43.5694 70.5819L43.5794 70.5719Z" fill="black"/>
<path d="M62.6305 80.8912C62.4305 80.8912 62.2205 80.8712 62.0105 80.8312C58.4205 80.0812 54.9405 78.8612 51.6805 77.1912C50.2005 76.4412 49.6205 74.6312 50.3705 73.1512C51.1205 71.6712 52.9305 71.0912 54.4105 71.8412C57.2005 73.2612 60.1705 74.3112 63.2405 74.9512C64.8605 75.2912 65.9005 76.8812 65.5605 78.5012C65.2605 79.9212 64.0205 80.8912 62.6305 80.8912Z" fill="black"/>
<path d="M165.511 40.9099C152.911 65.7099 139.851 80.6899 127.321 81.3699C114.791 82.0499 106.961 79.4999 97.7708 68.4299C92.3008 66.7299 61.8808 89.5199 62.6308 95.9899C63.3908 102.47 95.7408 136.94 127.321 131.75C160.401 126.3 176.401 103.15 180.491 97.3699C184.571 91.5799 207.381 28.2699 207.381 28.2699C207.381 28.2699 178.101 16.1099 165.511 40.9099Z" fill="white"/>
<path d="M122.89 84.7097C115.43 84.7097 108.38 82.0197 101.88 76.6697C100.6 75.6197 100.41 73.7297 101.47 72.4497C102.52 71.1697 104.41 70.9797 105.69 72.0397C112.23 77.4097 119.35 79.5497 126.88 78.3997C137.94 76.7097 149.93 64.1497 161.53 42.0897C162.3 40.6197 164.11 40.0597 165.58 40.8297C167.05 41.5997 167.61 43.4197 166.84 44.8797C154.13 69.0397 140.99 82.3097 127.78 84.3297C126.13 84.5797 124.5 84.7097 122.89 84.7097Z" fill="black"/>
<path d="M120.769 135.282C103.769 135.282 88.3292 125.742 80.0892 119.522C69.3692 111.442 60.2092 101.052 59.6592 96.3423C59.4892 94.9123 58.9792 90.5423 73.4692 78.8023C80.0792 73.4423 89.1492 67.3323 94.4892 65.7723C96.0892 65.3023 97.7492 66.2223 98.2092 67.8123C98.6792 69.4023 97.7592 71.0723 96.1692 71.5323C87.2392 74.1523 66.3992 91.4023 65.6292 95.7323C66.8492 100.812 96.7892 133.752 126.839 128.802C147.729 125.362 164.909 114.272 177.909 95.8523L178.049 95.6523C178.789 94.6123 181.799 88.7123 193.789 56.6223C194.369 55.0723 196.099 54.2823 197.649 54.8623C199.199 55.4423 199.989 57.1723 199.409 58.7223C185.849 95.0023 183.669 98.0923 182.949 99.1123L182.809 99.3123C168.849 119.102 150.349 131.012 127.819 134.722C125.449 135.112 123.099 135.292 120.779 135.292L120.769 135.282Z" fill="black"/>
<path d="M20.0907 100.001C19.1907 100.001 18.2907 99.7009 17.5407 99.0809C15.8407 97.6709 15.6007 95.1508 17.0007 93.4509L93.0007 1.45085C94.4107 -0.249145 96.9307 -0.489145 98.6307 0.910855C100.331 2.32085 100.571 4.84085 99.1707 6.54085L23.1807 98.5509C22.3907 99.5109 21.2507 100.001 20.0907 100.001Z" fill="black"/>
<path d="M28.9599 102.88C27.9399 102.88 26.9299 102.5 26.1499 101.72C24.5799 100.17 24.5699 97.6304 26.1199 96.0604L110 11.2104C111.55 9.64044 114.09 9.63044 115.66 11.1804C117.23 12.7304 117.24 15.2704 115.69 16.8404L31.7999 101.7C31.0199 102.49 29.9899 102.89 28.9599 102.89V102.88Z" fill="black"/>
<path d="M181.359 28.2309C181.359 28.2309 161.969 57.6709 160.409 90.6509C158.949 121.581 154.179 158.441 152.139 173.001C150.099 187.561 140.729 203.651 148.799 210.091C156.859 216.531 193.349 220.611 237.519 218.831C281.689 217.051 286.289 213.211 286.539 206.061C286.799 198.911 277.089 144.271 275.819 129.211C274.549 114.151 280.169 36.0709 256.419 21.8709C241.179 19.2709 205.879 39.6009 181.359 28.2309Z" fill="white"/>
<path d="M188.071 25.5104C192.071 21.0704 201.001 15.3304 210.961 28.2304C215.301 24.1604 218.141 22.4704 231.401 19.7904C244.661 17.1104 253.741 23.2504 253.741 23.2504L239.371 55.9804L197.961 63.3104L183.621 42.3604C183.621 42.3604 185.451 28.4104 188.071 25.5004V25.5104Z" fill="white"/>
<path d="M237.161 98.8803C240.491 98.8803 243.191 96.1806 243.191 92.8503C243.191 89.52 240.491 86.8203 237.161 86.8203C233.831 86.8203 231.131 89.52 231.131 92.8503C231.131 96.1806 233.831 98.8803 237.161 98.8803Z" fill="#82BE28"/>
<path d="M171.389 95.8217C174.72 95.8217 177.419 93.122 177.419 89.7917C177.419 86.4614 174.72 83.7617 171.389 83.7617C168.059 83.7617 165.359 86.4614 165.359 89.7917C165.359 93.122 168.059 95.8217 171.389 95.8217Z" fill="#82BE28"/>
<path d="M171.389 141.771C174.72 141.771 177.419 139.071 177.419 135.741C177.419 132.411 174.72 129.711 171.389 129.711C168.059 129.711 165.359 132.411 165.359 135.741C165.359 139.071 168.059 141.771 171.389 141.771Z" fill="#82BE28"/>
<path d="M231.132 144.351C234.462 144.351 237.162 141.651 237.162 138.321C237.162 134.991 234.462 132.291 231.132 132.291C227.801 132.291 225.102 134.991 225.102 138.321C225.102 141.651 227.801 144.351 231.132 144.351Z" fill="#82BE28"/>
<path d="M210.96 31.2421C209.73 31.2421 208.62 30.4821 208.17 29.3321C205.78 23.2721 198.03 21.8821 197.96 21.8721C196.33 21.5921 195.23 20.0521 195.5 18.4221C195.77 16.7921 197.29 15.6921 198.94 15.9521C199.32 16.0121 206.83 17.3121 211.44 23.1121C217.39 18.6021 229.17 16.1321 233.29 17.0021C234.91 17.3421 235.95 18.9321 235.61 20.5521C235.27 22.1721 233.69 23.2121 232.06 22.8721C227.99 22.0221 214.89 26.4521 213.86 29.0421C213.52 30.2921 212.43 31.1721 211.13 31.2421C211.08 31.2421 211.02 31.2421 210.96 31.2421Z" fill="black"/>
<path d="M216.57 222.252C181.93 222.252 154.58 218.552 146.92 212.432C139.7 206.662 142.99 193.712 146.18 181.182C147.37 176.512 148.59 171.682 149.17 167.592L149.7 163.852C151.93 148.132 156.08 118.872 157.42 90.5018C157.72 84.1518 158.19 80.3718 159.37 74.9618C159.53 74.2318 159.95 73.5918 160.55 73.1618C161.06 72.8018 173.03 64.2318 180.96 61.7418C182.53 61.2418 184.22 62.1218 184.72 63.7018C185.22 65.2818 184.34 66.9618 182.76 67.4618C176.92 69.3018 167.9 75.3618 164.99 77.3818C164.07 81.8418 163.67 85.2718 163.41 90.7918C162.06 119.442 157.88 148.882 155.64 164.702L155.11 168.432C154.49 172.852 153.22 177.842 152 182.662C149.41 192.842 146.48 204.392 150.67 207.742C157.46 213.162 191.76 217.672 237.4 215.822C283.26 213.962 283.41 209.702 283.54 205.942C283.66 202.432 280.82 184.132 278.31 167.982C275.91 152.562 273.43 136.622 272.83 129.452C272.58 126.472 272.58 121.302 272.59 114.742C272.59 107.022 272.61 97.4118 272.21 87.2718C272.15 85.6118 273.44 84.2218 275.09 84.1618C276.75 84.1118 278.14 85.3918 278.2 87.0418C278.6 97.3118 278.59 106.982 278.58 114.752C278.58 121.162 278.57 126.222 278.8 128.952C279.39 135.912 281.85 151.752 284.23 167.072C287.62 188.852 289.66 202.362 289.53 206.162C289.14 217.072 278.96 220.142 237.63 221.822C230.4 222.112 223.34 222.252 216.57 222.252Z" fill="black"/>
<path d="M118.78 169.6C118.78 159.1 94.4104 150.59 64.3404 150.59C34.2704 150.59 9.90039 159.1 9.90039 169.6C9.90039 170.13 9.98039 170.65 10.1004 171.17H10.0804L14.8104 191.47H14.8304C16.9104 200.39 38.2704 207.4 64.3404 207.4C90.4104 207.4 111.76 200.39 113.85 191.47H113.87L118.6 171.17H118.58C118.7 170.65 118.78 170.13 118.78 169.6Z" fill="#82BE28"/>
<path d="M64.3404 188.61C94.4068 188.61 118.78 180.099 118.78 169.6C118.78 159.101 94.4068 150.59 64.3404 150.59C34.274 150.59 9.90039 159.101 9.90039 169.6C9.90039 180.099 34.274 188.61 64.3404 188.61Z" fill="white"/>
<path d="M93.909 178.501C87.749 187.281 74.449 185.051 74.039 182.081C72.629 171.931 80.149 161.761 87.299 160.121C91.559 159.151 100.069 169.721 93.909 178.501Z" fill="white"/>
<path d="M81.1307 187.722C79.5907 187.722 78.1107 187.542 76.7707 187.222C72.2307 186.122 71.2507 183.782 71.0707 182.492C69.4207 170.622 78.0907 159.152 86.6407 157.202C89.7707 156.492 93.5107 158.612 96.1907 162.612C99.1607 167.022 100.761 173.972 96.3707 180.232C92.6107 185.592 86.5007 187.732 81.1307 187.732V187.722ZM76.9307 180.972C77.8107 181.392 80.0607 181.952 82.9407 181.592C85.0407 181.332 88.9407 180.352 91.4607 176.772C94.1307 172.962 92.9207 169.152 91.9607 167.222C90.5207 164.332 88.4607 163.062 87.8807 163.052C82.8207 164.212 76.1107 172.172 76.9407 180.972H76.9307Z" fill="black"/>
<path d="M74.8198 184.971L73.2598 179.181C73.2598 179.181 79.0498 177.541 82.2498 173.321C86.9198 167.141 84.6798 161.091 84.5898 160.831L90.1698 158.611C90.3198 158.991 93.8198 167.981 87.0398 176.931C82.5798 182.821 75.1398 184.881 74.8298 184.971H74.8198Z" fill="black"/>
<path d="M25.3593 138.992C13.5493 133.702 13.1393 117.432 16.5693 116.262C28.2793 112.272 42.0493 118.852 45.6193 126.952C47.7493 131.772 37.1693 144.282 25.3493 138.992H25.3593Z" fill="white"/>
<path d="M31.1704 143.271C28.9204 143.271 26.5504 142.811 24.1304 141.721C15.1204 137.681 11.3804 127.991 11.7204 120.691C11.9004 116.791 13.2804 114.211 15.6004 113.411C28.9804 108.851 44.2004 116.291 48.3704 125.731C49.8204 129.021 48.2104 133.681 44.2704 137.601C41.1704 140.681 36.5004 143.261 31.1704 143.261V143.271ZM26.5804 136.251C33.0204 139.131 38.1904 135.061 39.6304 133.751C42.4004 131.211 43.0704 128.721 42.8804 128.161C39.8804 121.361 27.9504 115.891 18.0504 118.941C17.6904 119.891 17.3804 122.671 18.3804 126.211C19.1504 128.931 21.2504 133.861 26.5804 136.261V136.251Z" fill="black"/>
<path d="M36.4689 132.461C33.3489 132.461 29.7489 131.821 25.9089 129.931C18.0989 126.091 14.0489 117.931 13.8789 117.581L19.2689 114.951C19.2989 115.011 22.6189 121.631 28.5589 124.541C37.2789 128.831 44.1989 124.601 44.4889 124.421L47.7289 129.471C47.4589 129.651 42.9989 132.461 36.4689 132.461Z" fill="black"/>
<path d="M59.6509 170.493C55.8509 169.563 51.8009 171.963 49.1009 174.793C47.9109 176.043 47.7509 181.063 49.3209 183.473C50.8909 185.883 65.2009 188.333 69.0309 186.653C72.8609 184.973 71.1509 173.313 59.6509 170.493Z" fill="white"/>
<path d="M64.7998 190.131C58.2698 190.131 48.8798 188.271 46.8098 185.101C44.5898 181.701 44.6498 175.101 46.9298 172.721C51.0098 168.441 56.0298 166.521 60.3598 167.581C68.9898 169.701 73.3398 176.241 73.8198 181.801C74.1298 185.381 72.7598 188.301 70.2298 189.401C69.0898 189.901 67.1198 190.141 64.7898 190.141L64.7998 190.131ZM51.7298 181.631C53.9498 183.151 64.8398 184.961 67.6798 183.951C67.8698 183.571 68.0898 182.301 67.4398 180.451C66.8598 178.811 64.8898 174.851 58.9398 173.401C56.3898 172.771 53.3298 174.761 51.4198 176.711C51.0798 177.591 51.0498 180.331 51.7298 181.641V181.631Z" fill="black"/>
<path d="M64.3399 210.391C40.6399 210.391 15.2099 204.241 11.9999 192.491C11.9599 192.381 11.9199 192.261 11.8999 192.141L7.1699 171.841C6.7899 170.231 7.7999 168.611 9.4099 168.241C11.0299 167.871 12.6399 168.871 13.0099 170.481L17.6799 190.491C17.7099 190.581 17.7399 190.681 17.7599 190.781C19.0899 196.491 36.0199 204.391 64.3399 204.391C92.6599 204.391 109.59 196.491 110.92 190.781C110.94 190.681 110.97 190.591 111 190.501L115.67 170.491C116.05 168.881 117.67 167.881 119.27 168.251C120.88 168.631 121.89 170.241 121.51 171.851L116.77 192.151C116.74 192.271 116.71 192.381 116.67 192.491C113.47 204.251 88.0399 210.401 64.3299 210.401L64.3399 210.391Z" fill="black"/>
<path d="M64.3404 191.622C36.5004 191.622 6.90039 183.902 6.90039 169.612C6.90039 155.322 36.4904 147.602 64.3404 147.602C92.1904 147.602 121.78 155.322 121.78 169.612C121.78 183.902 92.1904 191.622 64.3404 191.622ZM64.3404 153.592C50.1304 153.592 36.8104 155.512 26.8404 158.992C18.2504 161.992 12.9104 166.062 12.9104 169.602C12.9104 173.142 18.2504 177.212 26.8404 180.212C36.8104 183.692 50.1304 185.612 64.3404 185.612C78.5504 185.612 91.8704 183.692 101.84 180.212C110.43 177.212 115.77 173.142 115.77 169.602C115.77 166.062 110.43 161.992 101.84 158.992C91.8704 155.512 78.5504 153.592 64.3404 153.592Z" fill="black"/>
<path d="M56.8303 145.321C63.0003 141.251 76.2103 146.511 76.0003 149.251C75.7903 151.991 60.8003 163.571 56.6403 164.001C52.4803 164.431 50.6703 149.381 56.8303 145.321Z" fill="white"/>
<path d="M56.4804 167.012C55.0504 167.012 52.4404 166.362 50.8904 162.032C48.9604 156.612 49.3704 146.652 55.1804 142.822C60.9604 139.012 70.3704 141.312 75.2104 144.162C77.8704 145.732 79.1404 147.522 78.9904 149.492C78.9204 150.422 78.7304 152.902 69.6204 159.882C66.9904 161.902 60.4904 166.632 56.9404 166.992C56.8004 167.002 56.6504 167.012 56.4704 167.012H56.4804ZM58.4904 147.822C57.1004 148.742 56.1304 151.052 55.9004 154.012C55.6504 157.202 56.3304 159.852 56.9104 160.872C60.2004 159.722 69.5904 152.772 72.4304 149.462C69.7204 147.762 62.0604 145.462 58.4804 147.822H58.4904Z" fill="black"/>
<path d="M194.471 185.58L114.311 184.23L119.881 172.68L194.471 174.03V185.58Z" fill="black"/>
<path d="M193.921 170.461H154.671C153.273 170.461 152.141 171.594 152.141 172.991V185.271C152.141 186.668 153.273 187.801 154.671 187.801H193.921C195.318 187.801 196.451 186.668 196.451 185.271V172.991C196.451 171.594 195.318 170.461 193.921 170.461Z" fill="white"/>
<path d="M193.921 190.801H154.671C151.621 190.801 149.141 188.321 149.141 185.271V172.991C149.141 169.941 151.621 167.461 154.671 167.461H193.921C196.971 167.461 199.451 169.941 199.451 172.991V185.271C199.451 188.321 196.971 190.801 193.921 190.801ZM155.131 184.801H193.441V173.461H155.131V184.801Z" fill="black"/>
<path d="M249.81 141.102C239.1 160.822 213.88 165.092 213.88 165.092C208.1 164.922 202.36 163.522 197.24 161.022C194.4 159.642 191.47 157.872 188.29 158.222C185.46 158.542 183.09 160.592 182.01 163.032C180.93 165.472 180.97 168.232 181.52 170.812C181.96 172.892 182.72 174.992 182.35 177.092C181.63 181.142 177.13 183.522 173.04 185.082C168.95 186.642 164.32 188.362 162.6 192.152C161.21 195.212 162.28 198.892 164.52 201.482C166.77 204.072 170.02 205.742 173.33 207.022C192.09 214.272 220.42 208.242 235.79 193.662C251.16 179.082 265.3 173.662 274.48 160.542" fill="white"/>
<path d="M191.439 213.112C184.609 213.112 178.029 212.052 172.239 209.812C169.359 208.702 165.179 206.822 162.239 203.432C159.019 199.722 158.079 194.802 159.849 190.902C162.039 186.062 167.419 184.002 171.739 182.352L171.949 182.272C176.519 180.522 179.019 178.602 179.379 176.552C179.559 175.532 179.239 174.242 178.909 172.872C178.789 172.392 178.669 171.902 178.569 171.422C177.799 167.792 178.029 164.552 179.259 161.802C180.849 158.222 184.259 155.642 187.949 155.232C191.599 154.822 194.719 156.392 197.469 157.772C197.829 157.952 198.199 158.142 198.559 158.312C203.199 160.572 208.409 161.872 213.659 162.072C216.329 161.542 237.889 156.762 247.179 139.652C247.969 138.192 249.789 137.652 251.249 138.442C252.709 139.232 253.249 141.052 252.459 142.512C241.179 163.272 215.479 167.842 214.389 168.032C214.199 168.062 214.009 168.082 213.799 168.072C207.599 167.892 201.429 166.382 195.929 163.702C195.549 163.512 195.159 163.322 194.779 163.132C192.579 162.022 190.509 160.982 188.629 161.192C186.799 161.402 185.369 162.872 184.759 164.232C184.059 165.802 183.959 167.802 184.459 170.172C184.549 170.592 184.649 171.022 184.759 171.442C185.209 173.262 185.709 175.332 185.309 177.592C184.289 183.352 178.429 186.212 174.119 187.862L173.909 187.942C170.449 189.262 166.519 190.772 165.339 193.362C164.429 195.382 165.409 197.892 166.799 199.482C168.369 201.292 170.789 202.792 174.429 204.192C192.099 211.022 219.269 205.192 233.749 191.452C240.399 185.142 246.899 180.462 252.629 176.322C260.359 170.742 267.039 165.932 272.049 158.782C272.999 157.422 274.869 157.092 276.229 158.042C277.589 158.992 277.919 160.862 276.969 162.222C271.379 170.202 263.979 175.542 256.149 181.192C250.299 185.412 244.249 189.772 237.889 195.802C226.359 206.742 208.179 213.072 191.479 213.082L191.439 213.112Z" fill="black"/>
<path d="M241.089 196.601C252.319 196.601 290.439 155.911 292.209 151.221C310.939 101.731 288.029 44.2311 270.999 28.9111C258.759 17.9011 248.559 24.3811 246.819 33.3311C243.609 38.7211 248.549 74.0811 249.989 83.2411C259.719 145.011 216.079 151.981 216.059 157.271C215.999 170.921 229.849 196.591 241.079 196.591L241.089 196.601Z" fill="white"/>
<path d="M241.09 199.6C237.28 199.6 233.29 197.54 229.25 193.48C220.59 184.78 213.03 167.86 213.07 157.27C213.08 154.4 215.75 152.9 219.78 150.63C230.34 144.69 252.31 132.32 247.3 90.7501C246.53 83.8701 247.13 75.9301 248.94 68.9601C251.25 60.0401 255.42 53.1101 260.99 48.9301C262.31 47.9401 264.2 48.2001 265.19 49.5301C266.18 50.8601 265.92 52.7401 264.59 53.7301C258.89 58.0101 251.17 71.2101 253.26 90.0601C258.75 135.59 233.5 149.8 222.72 155.86C221.4 156.6 219.81 157.5 219.08 158.05C219.4 167.21 226.11 181.83 233.5 189.24C236.3 192.05 238.99 193.6 241.09 193.6C250.03 193.6 286.56 154.75 289.65 149.67C309.39 117.19 284.86 45.4201 269 31.1501C266.81 29.1801 264.63 27.7701 262.52 26.9501C260.98 26.3501 260.21 24.6101 260.81 23.0701C261.41 21.5301 263.14 20.7601 264.69 21.3601C267.48 22.4401 270.28 24.2401 273.01 26.7001C290.33 42.2801 316.27 117.41 294.77 152.79C292.7 156.19 254.45 199.61 241.08 199.61L241.09 199.6Z" fill="black"/>
<path d="M209.771 57.66C209.281 56.88 221.861 43.41 210.961 39.15C200.071 34.89 191.241 42.8 196.591 57.66C193.601 59.75 181.511 92.43 179.811 100.26C178.111 108.09 182.531 129.03 185.091 128.86C187.651 128.69 200.581 113.16 201.771 109.86C205.681 117.62 213.341 125.79 214.881 125.96C216.421 126.13 223.941 106.5 222.881 99.24C221.201 87.78 214.371 64.98 209.771 57.66Z" fill="#2D8C3C"/>
<path d="M202.11 39.8399C200.24 38.8199 196.92 22.8599 194.45 19.1199C191.98 15.3799 178.28 19.4199 176.75 27.0799C175.22 34.7399 179.13 58.0599 205.18 52.2699C224.07 60.4399 265.95 33.5699 265.95 23.5699C265.95 19.1199 251.99 14.6499 243.31 16.6999C236.28 18.3499 228.84 34.7699 213.52 41.2199C205.35 41.7199 202.12 39.8399 202.12 39.8399H202.11Z" fill="#2D8C3C"/>
<path d="M200.981 41.0114C199.811 41.0114 198.701 40.3214 198.211 39.1714C197.361 37.1514 196.441 34.0814 195.471 30.8414C194.351 27.0814 192.951 22.4214 192.011 20.8714C190.691 19.9314 190.351 18.1114 191.261 16.7614C192.181 15.3814 194.041 15.0114 195.421 15.9314C196.041 16.3514 196.561 16.8614 196.951 17.4614C198.291 19.4914 199.511 23.4014 201.221 29.1314C202.101 32.0814 203.021 35.1414 203.741 36.8514C204.381 38.3814 203.671 40.1414 202.141 40.7814C201.761 40.9414 201.361 41.0214 200.981 41.0214V41.0114Z" fill="black"/>
<path d="M215.559 43.2704C214.459 43.2704 213.399 42.6604 212.879 41.6104C212.139 40.1304 212.739 38.3304 214.219 37.5804C215.419 36.9804 216.629 36.2804 217.819 35.5004C219.209 34.5904 221.069 34.9704 221.979 36.3604C222.889 37.7404 222.509 39.6004 221.119 40.5204C219.739 41.4304 218.319 42.2504 216.909 42.9604C216.479 43.1804 216.019 43.2804 215.569 43.2804L215.559 43.2704Z" fill="black"/>
<path d="M215.2 56.3116C214.19 56.3116 213.19 56.2716 212.19 56.1916C210.54 56.0516 209.31 54.6016 209.45 52.9516C209.59 51.3016 211.03 50.0516 212.69 50.2116C226.88 51.4016 245.45 41.8716 256.44 31.8416C261.41 27.3116 262.77 24.5216 262.92 23.7016C261.74 21.6616 251.49 17.8516 243.98 19.6116C241.86 20.1116 238.8 23.5216 235.57 27.1316C231.81 31.3316 227.12 36.5616 221.11 40.5216C219.73 41.4316 217.86 41.0516 216.95 39.6716C216.04 38.2916 216.42 36.4316 217.8 35.5116C223.16 31.9816 227.38 27.2716 231.09 23.1316C235.31 18.4216 238.64 14.7116 242.6 13.7816C250.37 11.9516 261.33 14.6816 265.95 18.3416C268.41 20.2916 268.92 22.2616 268.92 23.5716C268.92 26.8516 266.15 31.0616 260.68 36.0916C249.77 46.1216 231.32 56.3116 215.19 56.3116H215.2Z" fill="black"/>
<path d="M193.981 55.951C193.841 55.951 193.711 55.951 193.571 55.921C187.291 55.061 182.091 51.961 178.541 46.971C173.481 39.871 172.941 30.831 173.811 26.481C174.111 24.951 174.771 23.481 175.761 22.111C176.731 20.771 178.601 20.461 179.951 21.431C181.291 22.401 181.601 24.271 180.631 25.621C180.141 26.291 179.831 26.981 179.701 27.661C179.011 31.091 179.721 38.271 183.431 43.491C186.041 47.151 189.721 49.331 194.391 49.971C196.031 50.201 197.181 51.711 196.961 53.351C196.751 54.851 195.471 55.941 193.991 55.941L193.981 55.951Z" fill="black"/>
<path d="M195.33 56.1002C193.91 56.1002 192.65 55.0902 192.38 53.6402C191.26 47.4802 192.51 42.1802 195.92 38.7402C198.96 35.6702 203.29 34.4402 208.12 35.2702C209.75 35.5502 210.85 37.1002 210.57 38.7302C210.29 40.3602 208.73 41.4602 207.11 41.1802C204.26 40.6902 201.8 41.3302 200.18 42.9602C198.19 44.9702 197.51 48.3802 198.28 52.5602C198.58 54.1902 197.5 55.7502 195.87 56.0502C195.69 56.0802 195.51 56.1002 195.33 56.1002Z" fill="black"/>
<path d="M214.89 128.971C214.76 128.971 214.65 128.971 214.55 128.951C211.31 128.591 206.35 122.471 203.92 118.911C202.99 117.541 203.34 115.671 204.71 114.741C206.08 113.811 207.95 114.161 208.88 115.531C210.91 118.511 212.82 120.591 214.13 121.821C216.49 116.851 220.6 104.401 219.91 99.671C218.29 88.641 211.61 66.221 207.23 59.251C206.67 58.351 206.3 56.901 207.77 55.111C208.17 54.621 208.83 53.811 209.74 51.901C210.45 50.401 212.24 49.771 213.74 50.481C215.24 51.191 215.87 52.981 215.16 54.481C214.45 55.981 213.8 57.041 213.29 57.771C218.01 66.721 224.24 87.771 225.85 98.811C226.94 106.241 220.3 124.861 217.43 127.831C216.52 128.781 215.55 128.971 214.9 128.971H214.89Z" fill="black"/>
<path d="M185.07 131.862C184.35 131.862 183.17 131.632 182.11 130.402C178.55 126.272 175.28 107.002 176.88 99.6316C177.94 94.7716 187.88 65.3916 193.25 57.1316C192.88 55.9416 192.59 54.7716 192.39 53.6416C192.09 52.0116 193.17 50.4516 194.8 50.1516C196.42 49.8516 197.99 50.9316 198.29 52.5616C198.53 53.8616 198.91 55.2416 199.42 56.6516C199.85 57.8616 199.47 59.2016 198.48 60.0016C195.67 63.2416 184.47 92.9816 182.75 100.912C181.53 106.542 183.95 119.602 185.79 124.672C190.92 119.652 203.01 103.702 203.55 97.1316C203.57 96.9716 204.36 89.6716 203.57 83.8516C203.35 82.2116 204.5 80.7016 206.14 80.4716C207.77 80.2516 209.29 81.4016 209.52 83.0416C210.41 89.6116 209.57 97.3816 209.52 97.7116C209.02 103.772 202.65 113.212 198.9 118.292C194.41 124.372 188.41 131.652 185.29 131.862C185.22 131.862 185.15 131.862 185.07 131.862Z" fill="black"/>
<path d="M250.711 78.2915C249.811 78.2915 248.921 77.8915 248.331 77.1215C247.051 75.5815 237.781 70.8215 229.921 67.3415C228.401 66.6715 227.721 64.9015 228.391 63.3815C229.061 61.8615 230.831 61.1815 232.351 61.8515C237.731 64.2315 250.511 70.1115 253.091 73.4515C254.101 74.7615 253.861 76.6515 252.541 77.6615C252.001 78.0815 251.351 78.2815 250.711 78.2815V78.2915Z" fill="black"/>
<path d="M37.1191 148.832C33.7091 146.922 29.1691 148.152 25.8091 150.162C24.3291 151.052 22.8391 155.842 23.7091 158.582C24.5791 161.322 37.7191 167.502 41.8491 166.902C45.9791 166.302 47.4491 154.612 37.1091 148.832H37.1191Z" fill="white"/>
<path d="M41.4898 169.93C36.0998 169.93 22.3298 164.14 20.8498 159.5C19.6198 155.63 21.4398 149.29 24.2598 147.6C29.3398 144.56 34.6798 144.05 38.5798 146.22C46.3298 150.56 48.7798 158.03 47.7598 163.51C47.0998 167.05 44.9998 169.49 42.2798 169.88C42.0398 169.91 41.7798 169.93 41.4898 169.93ZM26.5098 157.46C28.2498 159.52 38.2898 164.16 41.2598 163.95C41.5498 163.63 42.0898 162.47 41.9598 160.51C41.8398 158.78 40.9898 154.43 35.6498 151.44C33.3598 150.16 29.8798 151.25 27.5198 152.62C26.9498 153.38 26.1998 156.01 26.5098 157.45V157.46Z" fill="black"/>
<path d="M56.5 120.25C60.0899 120.25 63 117.34 63 113.75C63 110.16 60.0899 107.25 56.5 107.25C52.9101 107.25 50 110.16 50 113.75C50 117.34 52.9101 120.25 56.5 120.25Z" fill="white"/>
<path d="M56.5 123.25C51.26 123.25 47 118.99 47 113.75C47 108.51 51.26 104.25 56.5 104.25C61.74 104.25 66 108.51 66 113.75C66 118.99 61.74 123.25 56.5 123.25ZM56.5 110.25C54.57 110.25 53 111.82 53 113.75C53 115.68 54.57 117.25 56.5 117.25C58.43 117.25 60 115.68 60 113.75C60 111.82 58.43 110.25 56.5 110.25Z" fill="black"/>
<path d="M9.5 155.25C13.0899 155.25 16 152.34 16 148.75C16 145.16 13.0899 142.25 9.5 142.25C5.91015 142.25 3 145.16 3 148.75C3 152.34 5.91015 155.25 9.5 155.25Z" fill="white"/>
<path d="M9.5 158.25C4.26 158.25 0 153.99 0 148.75C0 143.51 4.26 139.25 9.5 139.25C14.74 139.25 19 143.51 19 148.75C19 153.99 14.74 158.25 9.5 158.25ZM9.5 145.25C7.57 145.25 6 146.82 6 148.75C6 150.68 7.57 152.25 9.5 152.25C11.43 152.25 13 150.68 13 148.75C13 146.82 11.43 145.25 9.5 145.25Z" fill="black"/>
</svg>
