<svg width="356" height="250" viewBox="0 0 356 250" fill="none" xmlns="http://www.w3.org/2000/svg">
<path d="M178.13 7.05974C151.81 17.8297 140.49 49.5997 139.09 54.8297C137.7 60.0597 131.23 84.5897 117.69 124.9C113.39 137.69 97.8295 156.74 98.8895 160.95C100.91 168.99 109.72 178.13 135.25 186.17C149.63 190.7 156.72 139.78 162.75 122.62C169.44 103.57 172.84 68.9997 174.58 54.2397C178.92 17.4297 180.24 6.19974 178.13 7.06974V7.05974Z" fill="#2D8C3C"/>
<path d="M137.02 189.451C136.13 189.451 135.23 189.311 134.34 189.031C111.33 181.781 98.7802 172.831 95.9702 161.681C95.1602 158.471 97.7702 154.111 103.73 144.541C107.98 137.721 112.8 130.001 114.84 123.941C120.84 106.071 129.4 79.5306 136.06 54.5006L136.18 54.0506C136.21 53.9406 139.23 42.8306 147.49 30.2206C148.4 28.8406 150.26 28.4506 151.64 29.3506C153.03 30.2606 153.41 32.1206 152.51 33.5006C146.09 43.3006 142.73 52.7706 141.98 55.5906L141.86 56.0406C135.15 81.2206 126.56 107.891 120.53 125.841C118.27 132.571 113.25 140.611 108.83 147.701C105.97 152.291 102.07 158.541 101.84 160.381C104.17 169.151 115.71 176.851 136.14 183.291C136.97 183.551 137.7 183.461 138.51 183.001C145.38 179.131 151.09 155.731 154.87 140.241C156.72 132.681 158.31 126.141 159.91 121.611C165.78 104.901 169.16 75.1806 170.98 59.2106C171.2 57.2306 171.41 55.4406 171.59 53.8706C174.51 29.1106 176.36 13.4306 176.1 9.27059C175.78 8.98059 175.52 8.61059 175.34 8.19059C174.71 6.66059 175.45 4.90059 176.98 4.28059C178.13 3.81059 179.4 3.96059 180.38 4.70059C183.08 6.75059 182.97 8.62059 177.55 54.5806C177.37 56.1406 177.16 57.9306 176.94 59.9006C174.97 77.2406 171.67 106.261 165.57 123.611C164.07 127.871 162.44 134.581 160.7 141.681C155.96 161.091 150.59 183.101 141.45 188.241C140.03 189.041 138.53 189.441 137.01 189.441L137.02 189.451Z" fill="black"/>
<path d="M181.2 6.99C181.2 6.99 191.17 2 207.14 2C229.09 2 248.27 8.36 244.72 17.63C241.29 26.59 224.7 53.55 196.67 53.49C165.41 53.42 169.34 20.22 181.2 6.99Z" fill="white"/>
<path d="M174.249 25.6992C174.249 25.6992 184.279 53.4792 229.739 30.8092C218.839 84.9392 198.119 127.359 189.949 127.359C181.779 127.359 164.369 46.4692 174.249 25.6992Z" fill="white"/>
<path d="M189.96 130.359C187.06 130.359 185.21 127.439 184.61 126.479C175.45 111.979 162.24 43.999 171.55 24.409C172.07 23.319 173.18 22.639 174.41 22.699C175.61 22.759 176.66 23.529 177.08 24.659C177.2 24.989 179.8 31.609 188.16 34.899C197.91 38.729 211.83 36.389 228.41 28.119C229.43 27.609 230.66 27.719 231.57 28.419C232.48 29.119 232.91 30.269 232.69 31.389C227.69 56.219 220.2 80.789 211.58 100.569C205.66 114.149 197.11 130.349 189.96 130.349V130.359ZM175.23 32.879C173.4 43.069 174.29 60.589 177.82 81.129C181.97 105.249 187.64 121.339 190.31 124.219C192.17 123.219 197.99 116.989 206.51 97.169C214.1 79.509 220.79 58.009 225.57 36.089C209.54 43.129 196.17 44.589 185.78 40.429C180.85 38.459 177.47 35.529 175.23 32.889V32.879Z" fill="black"/>
<path d="M151.751 131.439C145.061 166.379 138.971 193.099 138.971 199.229C138.971 200.489 150.531 219.949 189.481 195.779C208.351 214.499 281.811 227.449 287.971 199.869C283.491 175.509 276.141 144.779 274.391 122.589C268.261 45.3089 251.041 11.2389 251.041 11.2389C227.241 -11.1911 197.121 103.699 189.961 114.079C183.501 109.309 171.731 34.8589 182.051 8.51886C183.841 3.94886 180.201 5.50886 177.001 7.84886C161.091 21.8089 153.791 44.6589 151.761 61.6589C149.311 82.1589 153.681 121.419 151.761 131.449L151.751 131.439Z" fill="#2D8C3C"/>
<path d="M189.961 117.079C189.321 117.079 188.701 116.879 188.181 116.489C181.371 111.459 176.921 71.4091 176.731 69.7091C175.391 57.4391 173.001 28.3691 178.081 10.8891C168.221 19.9491 162.531 32.1691 159.391 41.4491C160.841 43.0091 163.861 45.7791 167.831 46.8191C169.001 47.1291 169.871 48.1091 170.041 49.3091C170.211 50.5091 169.641 51.6891 168.591 52.3091C163.941 55.0591 159.131 61.5691 158.961 63.4291C159.501 65.5391 166.661 92.7891 180.271 108.699C181.351 109.959 181.201 111.849 179.941 112.929C178.681 114.009 176.791 113.859 175.711 112.599C160.701 95.0591 153.171 65.0391 153.101 64.7391C152.131 60.8091 156.671 54.6391 161.181 50.4891C156.501 47.7991 153.741 44.0691 153.591 43.8691C153.031 43.0991 152.871 42.0991 153.161 41.1891C156.491 30.7691 162.991 16.1191 175.021 5.56913C175.091 5.50913 175.161 5.44913 175.231 5.39913C177.761 3.55913 181.421 1.34913 184.041 3.35913C185.691 4.63913 185.971 6.72913 184.851 9.58913C180.611 20.3991 179.791 41.7191 182.601 68.0991C184.501 85.9391 187.531 100.329 189.841 107.329C191.561 103.029 193.821 96.6191 196.301 89.6091C204.151 67.4191 214.901 37.0391 226.441 19.5691C227.351 18.1891 229.211 17.7991 230.601 18.7191C231.981 19.6291 232.361 21.4891 231.451 22.8791C220.311 39.7391 209.701 69.7191 201.961 91.6191C197.021 105.579 194.361 112.989 192.441 115.769C191.981 116.439 191.271 116.889 190.471 117.029C190.301 117.059 190.141 117.069 189.971 117.069L189.961 117.079Z" fill="black"/>
<path d="M254.33 218.76C245.83 218.76 236.36 217.67 226.61 215.49C209.22 211.61 194.55 205.04 187.37 197.91C186.19 196.74 186.19 194.84 187.35 193.67C188.52 192.49 190.42 192.49 191.59 193.65C204.59 206.55 248.22 217.52 271.72 210.64C279.1 208.48 283.53 204.83 284.91 199.78C283.64 192.93 282.17 185.69 280.62 178.03C276.71 158.73 272.66 138.76 271.4 122.82C265.77 51.8402 250.63 17.4302 248.59 13.0602C247.07 11.7502 245.58 11.1902 244.05 11.3602C242.41 11.5302 240.93 10.3402 240.75 8.70017C240.57 7.05017 241.77 5.57017 243.41 5.40017C246.88 5.03017 250.14 6.26017 253.1 9.05017C253.35 9.29017 253.56 9.57017 253.72 9.88017C253.9 10.2402 258.22 18.8702 263.31 37.1302C267.97 53.8402 274.2 82.2002 277.38 122.35C278.62 137.93 282.62 157.71 286.5 176.84C288.1 184.76 289.62 192.24 290.92 199.33C290.99 199.73 290.99 200.13 290.9 200.53C289.22 208.06 283.17 213.55 273.4 216.41C268.02 217.99 261.52 218.77 254.32 218.77L254.33 218.76Z" fill="black"/>
<path d="M155.369 210.79C151.589 210.79 148.2 210.15 145.22 208.87C138.51 206 136.39 200.87 136.17 200.3C135.5 198.54 135.79 195.35 146.03 144.65C147.01 139.8 147.959 135.11 148.809 130.85C149.759 126.11 149.26 113.38 148.72 99.9095C148.55 95.6995 148.38 91.3795 148.25 87.1095C148.2 85.4495 149.499 84.0695 151.149 84.0195C151.179 84.0195 151.22 84.0195 151.25 84.0195C152.86 84.0195 154.2 85.2995 154.25 86.9195C154.39 91.1695 154.56 95.4795 154.72 99.6695C155.29 114.11 155.789 126.59 154.699 132.03C153.839 136.3 152.899 140.99 151.92 145.84C148.03 165.11 142.199 193.95 141.949 198.49C142.419 199.38 144.009 201.84 147.679 203.39C152.059 205.23 160.339 206.14 174.899 200.03C176.429 199.39 178.19 200.11 178.83 201.64C179.47 203.17 178.75 204.93 177.22 205.57C168.93 209.05 161.63 210.79 155.38 210.79H155.369Z" fill="black"/>
<path d="M188.78 154.159C188.63 154.159 188.48 154.149 188.32 154.129C183.54 153.399 180.52 148.119 181.44 142.119C181.85 139.439 183.02 136.999 184.72 135.249C186.66 133.269 189.17 132.349 191.59 132.709C196.37 133.439 199.39 138.719 198.47 144.719C198.22 146.359 196.69 147.479 195.05 147.229C193.41 146.979 192.29 145.449 192.54 143.809C192.99 140.899 191.74 138.799 190.68 138.639C189.96 138.529 189.28 139.159 189.01 139.439C188.19 140.279 187.59 141.589 187.37 143.019C186.92 145.929 188.17 148.029 189.23 148.189C190.87 148.439 191.99 149.969 191.74 151.609C191.51 153.089 190.23 154.159 188.78 154.159Z" fill="black"/>
<path d="M203.68 113.671C203.23 113.671 202.78 113.571 202.35 113.361C200.86 112.631 200.26 110.831 200.99 109.341C201.143 109.034 202.137 107.831 203.97 105.731C226.97 79.3707 232.97 69.9407 234.2 66.5907C231.6 63.3107 226.36 56.2107 226.1 55.8607C225.53 55.0907 225.37 54.1007 225.65 53.1907C225.93 52.2807 226.64 51.5607 227.54 51.2507C234.35 48.9207 241.07 45.5507 241.93 44.0307C245.51 37.0607 242.32 16.3807 240.78 9.00068C240.44 7.38068 241.49 5.79068 243.11 5.45068C244.73 5.11068 246.32 6.16068 246.66 7.78068C247.27 10.7107 252.45 36.6807 247.27 46.7707C245.49 50.2407 238.5 53.5007 233.32 55.5207C235.69 58.7007 238.72 62.7107 239.71 63.8507C240.25 64.4707 240.52 65.2907 240.44 66.1107C239.93 71.5607 230.37 84.5907 208.49 109.681C207.42 110.911 206.4 112.071 206.14 112.391C205.57 113.211 204.64 113.681 203.68 113.681V113.671Z" fill="black"/>
<path d="M36.8701 172.38C32.2701 171.75 28.8501 167.91 28.9801 163.22C29.0601 160.45 29.9001 157.77 32.5001 156.61C56.7301 145.74 124.63 130.15 140.36 132.78L240.88 139.71C250.74 141.05 254.3 144.53 254.5 153.4C254.6 157.81 254.91 159.54 245.63 163.89C237.97 167.48 189.68 183.11 173.1 188.45C169.43 189.63 165.59 189.98 161.87 189.47L36.8701 172.4V172.38Z" fill="white"/>
<path d="M37.6706 169.491C36.2406 169.271 35.0206 168.811 34.1906 168.121C33.6606 167.671 33.1606 167.081 32.9706 166.781C32.5206 166.051 32.3906 165.771 32.2106 165.121C31.8706 163.911 31.9206 162.501 32.2906 161.221C32.4506 160.661 32.6306 160.311 32.8306 160.051C33.1806 159.601 33.6806 159.351 34.3706 159.041C34.7606 158.861 35.1606 158.701 35.5506 158.531C35.9406 158.361 35.0206 158.751 35.4006 158.591C35.5006 158.551 35.5906 158.511 35.6906 158.471C35.9506 158.361 36.2106 158.261 36.4706 158.151C37.4306 157.761 38.4006 157.381 39.3806 157.011C41.5406 156.191 43.7206 155.421 45.9106 154.681C56.5806 151.061 67.4706 148.071 78.4106 145.361C89.3506 142.651 101.181 140.051 112.691 138.071C115.231 137.641 117.771 137.231 120.311 136.861C120.871 136.781 121.421 136.701 121.981 136.631C122.541 136.561 121.591 136.681 122.311 136.591C122.641 136.551 122.971 136.501 123.301 136.461C124.411 136.321 125.511 136.191 126.621 136.071C130.191 135.691 133.801 135.381 137.391 135.511C138.041 135.531 138.691 135.581 139.351 135.641C139.481 135.651 139.661 135.711 139.791 135.691C139.621 135.721 138.961 135.571 139.471 135.651C139.781 135.701 140.091 135.751 140.411 135.781C140.701 135.811 140.991 135.821 141.281 135.841L146.281 136.181C152.961 136.641 159.631 137.101 166.311 137.561C175.301 138.181 184.291 138.801 193.271 139.421C202.251 140.041 210.771 140.631 219.521 141.231L237.351 142.461C238.491 142.541 239.661 142.711 240.801 142.701C240.831 142.701 240.871 142.701 240.901 142.701C240.441 142.681 240.511 142.651 241.041 142.731C242.531 142.961 244.021 143.271 245.461 143.731C245.781 143.831 246.081 143.951 246.401 144.061C246.941 144.241 246.181 143.931 246.681 144.171C247.241 144.451 247.801 144.731 248.321 145.081C248.471 145.181 249.091 145.691 248.571 145.241C248.741 145.391 248.921 145.541 249.091 145.701C249.281 145.881 249.461 146.081 249.641 146.271C250.111 146.751 249.511 145.991 249.871 146.561C250.141 146.991 250.381 147.421 250.611 147.871C250.841 148.321 250.521 147.511 250.721 148.161C250.821 148.481 250.931 148.801 251.021 149.131C251.461 150.731 251.451 151.041 251.531 152.601C251.581 153.601 251.621 154.621 251.571 155.631C251.571 155.821 251.521 156.031 251.531 156.221C251.521 155.861 251.661 155.611 251.531 156.071C251.481 156.251 251.421 156.431 251.381 156.611C251.261 157.181 251.711 156.141 251.361 156.651C251.271 156.781 251.161 156.951 251.091 157.091C251.111 157.051 251.451 156.731 251.031 157.151C250.861 157.331 250.691 157.511 250.501 157.671C250.421 157.751 250.321 157.821 250.241 157.901C249.841 158.281 250.461 157.761 250.161 157.971C248.861 158.911 247.461 159.681 246.031 160.401C245.141 160.851 244.221 161.241 243.331 161.681C243.171 161.761 244.111 161.361 243.631 161.551C243.501 161.601 243.371 161.661 243.231 161.711C242.941 161.831 242.641 161.951 242.351 162.061C233.961 165.361 225.351 168.141 216.811 171.001C206.061 174.601 195.281 178.131 184.491 181.631C180.501 182.931 176.511 184.231 172.511 185.501C170.671 186.091 168.801 186.521 166.871 186.641C165.891 186.701 164.911 186.711 163.931 186.651C163.401 186.621 162.881 186.571 162.361 186.521C162.261 186.521 162.841 186.591 162.701 186.571C162.491 186.541 162.271 186.511 162.061 186.481C158.351 185.971 154.651 185.471 150.941 184.961C143.831 183.991 136.721 183.021 129.611 182.051C120.721 180.841 111.831 179.621 102.941 178.411L75.9106 174.721C68.3106 173.681 60.7106 172.641 53.1106 171.611C48.5806 170.991 44.0606 170.371 39.5306 169.761C38.9206 169.681 38.3206 169.591 37.7106 169.511C36.1106 169.291 34.4906 169.901 34.0206 171.611C33.6406 173.011 34.5006 175.081 36.1206 175.301C38.6706 175.651 41.2206 176.001 43.7706 176.351C50.3206 177.241 56.8606 178.141 63.4106 179.031C72.1806 180.231 80.9606 181.431 89.7306 182.621C99.0806 183.901 108.431 185.171 117.791 186.451C125.931 187.561 134.061 188.671 142.201 189.781C147.451 190.501 152.701 191.211 157.951 191.931C158.961 192.071 159.971 192.211 160.981 192.341C163.251 192.651 165.501 192.801 167.791 192.571C170.891 192.261 173.781 191.401 176.721 190.451C186.721 187.231 196.711 183.981 206.691 180.691C216.981 177.291 227.281 173.891 237.491 170.241C240.611 169.121 243.761 168.021 246.791 166.671C251.541 164.551 257.041 161.821 257.541 156.041C257.971 151.111 257.111 145.241 253.491 141.611C250.241 138.361 245.221 137.091 240.781 136.701C236.981 136.371 233.151 136.171 229.341 135.911C221.371 135.361 213.401 134.811 205.431 134.261C196.071 133.621 186.711 132.971 177.361 132.331C169.251 131.771 161.141 131.211 153.021 130.651C148.931 130.371 144.831 130.001 140.731 129.801C140.641 129.801 140.531 129.771 140.441 129.781C140.241 129.801 141.461 129.921 140.981 129.851C140.451 129.771 139.921 129.701 139.391 129.641C137.961 129.491 136.511 129.471 135.081 129.491C131.031 129.561 126.991 129.991 122.981 130.501C111.671 131.951 100.471 134.141 89.3506 136.621C77.5906 139.251 65.8906 142.231 54.3406 145.701C49.4306 147.181 44.5306 148.751 39.7106 150.511C37.7106 151.241 35.7206 152.011 33.7506 152.831C32.6006 153.311 31.2906 153.741 30.2506 154.431C28.5206 155.581 27.4006 157.181 26.7006 159.121C24.1806 166.131 28.7206 174.111 36.1206 175.261C37.7206 175.511 39.3506 174.851 39.8106 173.161C40.2006 171.741 39.3306 169.721 37.7106 169.471L37.6706 169.491Z" fill="black"/>
<path d="M32.8105 160.389C32.8105 160.389 121.941 118.809 141.611 122.099L240.201 135.389C249.951 136.709 253.941 138.189 254.511 142.489C255.081 146.789 254.911 148.559 245.741 152.859C236.571 157.159 168.481 178.919 168.481 178.919L32.8105 160.389Z" fill="white"/>
<path d="M34.33 162.979C40.35 160.169 46.41 157.469 52.49 154.799C55.39 153.529 58.29 152.259 61.2 151.009C62.78 150.329 64.36 149.649 65.95 148.979C66.38 148.799 66.8 148.619 67.23 148.439C67.37 148.379 67.9 148.159 67.33 148.399C67.53 148.319 67.72 148.229 67.92 148.149C68.79 147.779 69.67 147.419 70.54 147.049C77.54 144.119 84.58 141.279 91.67 138.549C104.3 133.689 117.19 128.819 130.47 126.009C131.68 125.749 132.9 125.519 134.13 125.329C134.4 125.289 134.67 125.249 134.94 125.209C135.75 125.089 134.27 125.279 135.09 125.189C135.64 125.129 136.18 125.059 136.73 125.019C137.66 124.939 138.59 124.899 139.52 124.919C139.91 124.919 140.29 124.959 140.68 124.979C141.71 125.049 140.02 124.879 140.84 124.989C142.73 125.249 144.62 125.499 146.5 125.749C157.56 127.239 168.61 128.729 179.67 130.219C192.98 132.009 206.28 133.809 219.59 135.599C226.2 136.489 232.81 137.369 239.42 138.269C241.74 138.589 244.06 138.929 246.34 139.479C247.28 139.709 248.2 139.999 249.11 140.319C249.88 140.589 248.76 140.149 249.2 140.349C249.38 140.429 249.55 140.509 249.72 140.609C250.1 140.809 250.46 141.039 250.81 141.279C250.09 140.789 250.92 141.469 251.07 141.579C251.54 141.939 250.81 141.159 251 141.469C251.08 141.599 251.17 141.719 251.25 141.849C251.31 141.959 251.37 142.159 251.46 142.249C251.67 142.459 251.31 141.589 251.39 142.129C251.42 142.339 251.69 143.589 251.56 142.679C251.65 143.309 251.72 143.939 251.72 144.579C251.72 144.859 251.69 145.139 251.68 145.419C251.73 144.409 251.59 145.429 251.53 145.729C251.71 144.879 251.51 145.619 251.37 145.919C251.12 146.449 251.84 145.489 251.38 145.919C251.28 146.009 251.19 146.129 251.1 146.219C250.83 146.489 250.55 146.739 250.25 146.979C250.79 146.549 250.06 147.099 250 147.139C249.75 147.309 249.5 147.469 249.24 147.629C247.49 148.719 245.63 149.629 243.75 150.479C242.8 150.909 244.38 150.229 243.51 150.579C243.12 150.739 242.73 150.899 242.34 151.049C241.39 151.419 240.44 151.779 239.49 152.129C227.03 156.739 214.37 160.819 201.76 164.969C191.01 168.499 180.24 171.989 169.47 175.449C168.89 175.639 168.3 175.829 167.72 176.009H169.32C164.8 175.389 160.27 174.769 155.75 174.159C144.97 172.689 134.19 171.219 123.42 169.739C110.35 167.949 97.28 166.169 84.21 164.379C72.92 162.839 61.62 161.289 50.33 159.749C44.85 158.999 39.38 158.249 33.9 157.509C33.82 157.499 33.74 157.489 33.66 157.479C32.06 157.259 30.44 157.869 29.97 159.579C29.59 160.979 30.45 163.049 32.07 163.269C34.93 163.659 37.79 164.049 40.66 164.439C47.94 165.429 55.23 166.429 62.51 167.419C72.26 168.749 82.01 170.079 91.76 171.409C102.02 172.809 112.28 174.209 122.54 175.609C131.33 176.809 140.12 178.009 148.91 179.209C154.35 179.949 159.79 180.699 165.23 181.439C166.07 181.549 166.91 181.669 167.74 181.779C169.45 182.009 171.1 181.219 172.71 180.699C180.7 178.129 188.68 175.549 196.66 172.939C207.08 169.539 217.49 166.109 227.86 162.559C235.08 160.089 242.58 157.859 249.4 154.399C252.13 153.019 255.28 151.339 256.81 148.549C258.03 146.329 257.88 143.669 257.4 141.259C256.08 134.629 247.89 133.449 242.39 132.639C238.34 132.049 234.28 131.539 230.23 130.989C221.46 129.809 212.69 128.629 203.92 127.439L173.24 123.299C165.29 122.229 157.33 121.159 149.38 120.079C145.8 119.599 142 118.759 138.38 118.869C130.22 119.129 122.01 121.719 114.29 124.149C103.8 127.449 93.5 131.339 83.28 135.389C73.06 139.439 63.11 143.639 53.12 147.989C46.74 150.769 40.38 153.599 34.05 156.509C33.16 156.919 32.27 157.329 31.38 157.739C29.91 158.419 29.54 160.539 30.3 161.839C31.18 163.349 32.93 163.599 34.4 162.919L34.33 162.979Z" fill="black"/>
<path d="M71.9902 156.999C71.9902 156.999 119.6 134.209 133.2 136.479L201.38 145.669C208.12 146.579 210.88 147.609 211.28 150.579C211.67 153.549 211.56 154.779 205.21 157.749C198.87 160.719 165.81 169.809 165.81 169.809L71.9902 156.989V156.999Z" fill="black"/>
<path d="M250.78 108.28C250.78 108.28 230.4 111.33 229.74 116.95C229.08 122.57 219.61 147.4 245.13 167.27C261.57 180.07 306.54 135.99 306.54 135.99C306.54 135.99 324.39 121.25 311.09 89.3401C297.75 57.3101 278.62 16.1301 246.55 9.08008C246.55 9.08008 254.42 24.3701 257.8 43.3101C262.59 70.1701 262.59 86.3701 262.59 86.3701L264.46 99.9601C264.46 99.9601 255.93 106.8 250.79 108.27L250.78 108.28Z" fill="#2D8C3C"/>
<path d="M183.51 134.08C183.51 134.08 169.33 146.27 169.97 149.83C170.61 153.39 173.73 165.42 206.86 157.85C206.86 157.85 224.04 148.94 225.92 148.13C227.8 147.32 251.73 142.23 250.93 137.85C250.13 133.47 242.21 117.13 229.38 122.23C216.55 127.34 206.34 122.54 206.34 122.54C206.34 122.54 181.95 119.83 182.19 125.32C182.43 130.82 185.35 133.3 183.52 134.08H183.51Z" fill="white"/>
<path d="M186.53 165.12C180.78 165.12 175.49 163.79 171.66 160.25C167.38 156.3 165.48 152.14 166 147.9C167 139.76 176.62 134.46 181.79 131.61C181.84 131.58 181.89 131.56 181.93 131.53C180.39 130.48 178.69 129.15 178.51 126.95C178.43 125.98 178.65 124.53 180.13 123.14C188.28 115.51 207.01 119.41 217.08 121.51C219.19 121.95 221.19 122.37 221.89 122.4C221.9 122.4 221.91 122.4 221.93 122.4C223.09 122.4 227.02 120.94 228.93 120.24C230.44 119.68 231.64 119.24 232.49 119.01C236.33 118 242.39 121.13 247.23 126.63C250.99 130.91 259.02 142.62 252.35 159.02C251.73 160.55 249.97 161.29 248.44 160.67C246.9 160.05 246.17 158.29 246.79 156.76C251.7 144.71 246.94 135.91 243.67 131.73C239.62 126.56 235.03 124.66 234 124.82C233.45 124.97 232.27 125.4 231.02 125.87C226.84 127.42 223.71 128.49 221.6 128.39C220.44 128.33 218.62 127.95 215.88 127.38C208.63 125.87 192.24 122.46 185.42 126.63C185.54 126.71 185.66 126.79 185.77 126.86C187.38 127.94 189.39 129.28 189.41 131.68C189.41 132.68 189.05 134.14 187.26 135.37C186.66 135.78 185.8 136.26 184.71 136.86C180.78 139.02 172.61 143.52 171.98 148.62C171.71 150.84 172.98 153.27 175.76 155.84C185.29 164.66 213.05 153.23 219.12 148.75C229.65 140.97 243.65 142.24 244.24 142.3C245.89 142.46 247.09 143.93 246.93 145.58C246.77 147.23 245.28 148.41 243.66 148.27C243.47 148.25 231.3 147.21 222.69 153.57C218.75 156.48 201.17 165.11 186.55 165.11L186.53 165.12Z" fill="black"/>
<path d="M163.829 179.052L38.3694 163.272C29.5394 162.162 20.9694 154.372 19.3194 145.952L3.19939 67.0416C1.54939 58.6316 7.42939 52.6516 16.2594 53.7616L141.719 69.5416C150.549 70.6516 159.119 78.4416 160.769 86.8616L176.889 165.762C178.539 174.172 172.659 180.152 163.829 179.042V179.052Z" fill="white"/>
<path d="M163.83 176.049C160.33 175.609 156.83 175.169 153.33 174.729C144.76 173.649 136.18 172.569 127.61 171.489C116.75 170.119 105.89 168.759 95.0299 167.389C84.6499 166.079 74.2599 164.779 63.8799 163.469C56.8499 162.589 49.8199 161.699 42.7899 160.819C41.3899 160.639 39.9799 160.459 38.5799 160.289C38.5099 160.289 38.4399 160.269 38.3699 160.259C39.4199 160.399 38.1399 160.209 37.9199 160.159C37.4399 160.069 36.9699 159.949 36.4999 159.819C35.6099 159.579 34.6699 159.249 33.9199 158.909C30.2899 157.249 27.0199 154.569 24.8299 151.289C23.0999 148.689 22.3999 146.069 21.7799 143.039C21.1599 140.009 20.5399 136.989 19.9299 133.969C17.8899 123.969 15.8399 113.969 13.7999 103.969C11.7599 93.9693 9.84986 84.6193 7.86986 74.9393C7.34986 72.3893 6.82987 69.8293 6.29987 67.2793C6.20987 66.8193 6.09986 66.3593 6.01987 65.8893C5.79987 64.5793 5.89987 62.9593 6.30986 61.6293C6.36986 61.4393 6.72987 60.5793 6.51987 61.0293C6.67986 60.6993 6.84986 60.3693 7.03987 60.0493C7.13986 59.8893 7.68987 59.1493 7.36986 59.5393C7.62986 59.2193 7.90986 58.9293 8.20986 58.6493C8.33986 58.5193 8.47986 58.3993 8.61986 58.2893C8.97986 57.9893 8.27986 58.5193 8.66986 58.2493C8.97987 58.0393 9.28986 57.8393 9.61986 57.6593C9.78986 57.5693 9.95986 57.4793 10.1299 57.3993C10.5699 57.1793 9.74986 57.5393 10.2099 57.3593C10.6699 57.1793 11.1499 57.0293 11.6299 56.9093C12.9499 56.5793 14.4999 56.5493 16.2499 56.7493C16.5099 56.7793 16.7699 56.8193 17.0299 56.8493L22.4399 57.5293C30.0599 58.4893 37.6899 59.4493 45.3099 60.4093C55.8699 61.7393 66.4399 63.0693 76.9999 64.3993C87.5599 65.7293 98.4599 67.0993 109.19 68.4493C117.31 69.4693 125.44 70.4893 133.56 71.5193L140.09 72.3393C140.57 72.3993 141.05 72.4593 141.53 72.5193C141.64 72.5293 141.95 72.5793 141.5 72.5193C140.91 72.4293 141.68 72.5493 141.82 72.5793C142.06 72.6193 142.3 72.6693 142.53 72.7193C143.01 72.8193 143.48 72.9393 143.95 73.0793C144.88 73.3493 145.71 73.6593 146.51 74.0493C152.19 76.7793 156.67 81.7893 157.92 87.8693C158.32 89.8093 158.71 91.7493 159.11 93.6893C160.96 102.759 162.82 111.829 164.67 120.899C166.79 131.249 168.9 141.609 171.02 151.959L173.2 162.619C173.51 164.149 173.92 165.689 174.12 167.239C174.07 166.889 174.16 167.989 174.16 168.079C174.17 168.499 174.16 168.919 174.14 169.339C174.13 169.539 174.11 169.749 174.09 169.949C174.11 169.799 174.2 169.479 174.06 170.039C173.97 170.419 173.89 170.799 173.78 171.169C173.74 171.289 173.33 172.279 173.57 171.769C173.41 172.099 173.24 172.429 173.05 172.749C172.98 172.859 172.36 173.689 172.72 173.259C172.49 173.539 172.24 173.809 171.98 174.059C171.89 174.139 171.08 174.799 171.53 174.469C171.23 174.689 170.91 174.889 170.59 175.069C170.5 175.119 169.52 175.599 170.01 175.389C169.6 175.559 169.17 175.699 168.75 175.819C168.35 175.929 167.96 176.019 167.55 176.089C167.04 176.179 167.94 176.059 167.4 176.109C167.18 176.129 166.97 176.149 166.75 176.159C165.77 176.219 164.8 176.159 163.83 176.049C162.22 175.859 160.83 177.559 160.83 179.049C160.83 180.829 162.21 181.859 163.83 182.049C167.77 182.509 171.9 181.699 175.08 179.249C178.26 176.799 179.89 173.249 180.15 169.349C180.31 166.889 179.68 164.449 179.2 162.049C177.52 153.809 175.83 145.579 174.15 137.339C171.94 126.539 169.74 115.749 167.53 104.949C166.26 98.7493 165 92.5493 163.73 86.3493C162.35 79.6093 157.74 73.8793 152.01 70.2293C148.52 68.0093 144.72 66.9093 140.67 66.4093C135.2 65.7193 129.73 65.0293 124.26 64.3493C114.45 63.1193 104.64 61.8793 94.8299 60.6493C83.6299 59.2393 72.4299 57.8293 61.2299 56.4193C51.5899 55.2093 41.9599 53.9993 32.3199 52.7793C27.1999 52.1393 22.0699 51.4893 16.9499 50.8493C12.5499 50.2993 8.11987 51.0293 4.59986 53.8893C0.239865 57.4293 -0.660135 63.1193 0.409865 68.3593C1.74987 74.9093 3.08986 81.4593 4.42986 88.0093C6.63986 98.8393 8.85986 109.679 11.0699 120.509C12.6999 128.469 14.3199 136.429 15.9499 144.389C16.5799 147.489 17.3399 150.449 18.9799 153.239C23.0699 160.229 30.3899 165.229 38.4199 166.259C42.3999 166.769 46.3799 167.259 50.3699 167.759C59.3999 168.899 68.4399 170.029 77.4699 171.169C88.5999 172.569 99.7399 173.969 110.87 175.369C121.15 176.659 131.44 177.959 141.72 179.249C148.2 180.069 154.68 180.879 161.16 181.699C162.05 181.809 162.95 181.919 163.84 182.039C165.45 182.239 166.84 180.519 166.84 179.039C166.84 177.249 165.46 176.239 163.84 176.039L163.83 176.049Z" fill="black"/>
<path d="M78.6903 127.17C65.0203 133.9 61.4203 123.91 64.7403 114.05C68.0603 104.19 72.9103 99.1999 80.1603 100.07C90.4803 101.31 104.04 122.89 100.5 129.98C96.5103 137.95 84.3203 124.41 78.6903 127.18V127.17Z" fill="#2D8C3C"/>
<path d="M247.93 170.74C246.28 170.74 244.54 170.49 242.7 169.86C233.08 166.62 227.49 156.95 224.12 149.96C223.4 148.47 224.03 146.67 225.52 145.96C227.01 145.24 228.81 145.87 229.52 147.36C232.42 153.37 237.13 161.66 244.61 164.18C248.65 165.54 251.86 164.24 256.31 162.43L257.07 162.12C290.31 148.71 308.41 134.79 310.86 120.73C311.15 119.1 312.71 118.01 314.33 118.29C315.96 118.58 317.05 120.13 316.77 121.76C312.5 146.23 272.47 162.37 259.31 167.68L258.56 167.98C255.21 169.34 251.79 170.73 247.92 170.73L247.93 170.74Z" fill="black"/>
<path d="M316.55 112.24C315.21 112.24 313.98 111.33 313.64 109.97C313.51 109.44 313.35 108.79 313.16 108.01C310.68 97.6802 303.14 66.2402 281.23 38.1002C262.69 14.2902 247.78 12.0802 247.63 12.0602C246 11.8502 244.83 10.3502 245.03 8.72016C245.23 7.09016 246.7 5.91016 248.34 6.10016C249.04 6.18016 265.68 8.36016 285.97 34.4102C308.68 63.5802 316.45 95.9702 319 106.61C319.18 107.36 319.33 108 319.46 108.51C319.86 110.12 318.89 111.75 317.28 112.15C317.03 112.21 316.79 112.24 316.55 112.24Z" fill="black"/>
<path d="M240.73 118.511C239.22 118.511 237.92 117.371 237.75 115.841C237.57 114.191 238.76 112.711 240.4 112.531C257.88 110.611 267.91 103.471 268.01 103.401C269.35 102.431 271.23 102.731 272.2 104.071C273.17 105.411 272.87 107.291 271.53 108.261C271.07 108.591 260.1 116.401 241.06 118.501C240.95 118.511 240.84 118.521 240.73 118.521V118.511Z" fill="black"/>
<path d="M275.931 103.239C275.811 103.239 275.701 103.239 275.581 103.219C273.931 103.029 272.751 101.539 272.941 99.8993C273.441 95.5693 270.351 83.4593 267.921 80.2693C266.921 78.9493 267.181 77.0693 268.501 76.0693C269.821 75.0693 271.701 75.3293 272.701 76.6493C276.041 81.0593 279.581 94.7093 278.901 100.599C278.721 102.129 277.431 103.259 275.921 103.259L275.931 103.239Z" fill="black"/>
<path d="M49.5996 172.339C49.5996 172.339 41.0696 171.929 42.5796 178.649C44.0896 185.369 59.1096 184.249 59.1096 184.249C59.1096 184.249 71.3496 192.389 83.3696 189.569C95.3896 186.749 96.6596 183.369 90.6596 182.689C84.6596 182.009 80.4396 173.299 80.4396 173.299C80.4396 173.299 71.3896 156.839 65.4896 155.879C59.5896 154.919 50.4596 152.989 49.6096 172.339H49.5996Z" fill="white"/>
<path d="M77.9996 193.14C72.9696 193.14 66.9396 191.8 59.8696 188.14C45.2696 180.57 46.9696 168.84 49.5196 160.67C51.2296 155.2 54.9696 151.87 59.7896 151.54C67.8696 150.97 76.9296 159.04 83.2996 172.57C84.0096 174.07 83.3596 175.86 81.8596 176.56C80.3596 177.27 78.5696 176.62 77.8696 175.12C71.9396 162.53 64.6896 157.21 60.1996 157.52C57.3196 157.72 55.9096 160.31 55.2396 162.45C52.0396 172.68 54.1096 178.39 62.6196 182.8C83.6896 193.72 92.5496 180.63 92.9196 180.07C93.8196 178.69 95.6696 178.28 97.0596 179.17C98.4496 180.06 98.8596 181.9 97.9796 183.29C97.8996 183.42 91.5496 193.12 77.9896 193.12L77.9996 193.14Z" fill="black"/>
<path d="M54.19 188.41C47.49 188.41 40.32 185.31 37.72 180.86C35.93 177.79 36.36 174.38 38.91 171.51C42.66 167.28 48.73 168.74 51.73 170.26C53.21 171.01 53.79 172.82 53.04 174.3C52.29 175.77 50.49 176.36 49.02 175.62C48.94 175.58 44.96 173.73 43.4 175.49C42.28 176.76 42.65 177.4 42.9 177.83C44.56 180.67 51.68 183.26 56.97 182.13C58.59 181.79 60.18 182.81 60.53 184.43C60.88 186.05 59.85 187.64 58.23 187.99C56.93 188.27 55.57 188.4 54.19 188.4V188.41Z" fill="black"/>
</svg>
