<svg width="356" height="250" viewBox="0 0 356 250" fill="none" xmlns="http://www.w3.org/2000/svg">
<path d="M178.13 8.05974C151.81 18.8297 140.49 50.5997 139.09 55.8297C137.7 61.0597 131.23 85.5897 117.69 125.9C113.39 138.69 97.8295 157.74 98.8895 161.95C100.91 169.99 109.72 179.13 135.25 187.17C149.63 191.7 156.72 140.78 162.75 123.62C169.44 104.57 172.84 69.9997 174.58 55.2397C178.92 18.4297 180.24 7.19974 178.13 8.06974V8.05974Z" fill="white"/>
<path d="M137.02 190.451C136.13 190.451 135.23 190.311 134.34 190.031C111.33 182.781 98.7802 173.831 95.9702 162.681C95.1602 159.471 97.7702 155.111 103.73 145.541C107.98 138.721 112.8 131.001 114.84 124.941C120.84 107.071 129.4 80.5306 136.06 55.5006L136.18 55.0506C136.21 54.9406 139.23 43.8306 147.49 31.2206C148.4 29.8406 150.26 29.4506 151.64 30.3506C153.03 31.2606 153.41 33.1206 152.51 34.5006C146.09 44.3006 142.73 53.7706 141.98 56.5906L141.86 57.0406C135.15 82.2206 126.56 108.891 120.53 126.841C118.27 133.571 113.25 141.611 108.83 148.701C105.97 153.291 102.07 159.541 101.84 161.381C104.17 170.151 115.71 177.851 136.14 184.291C136.97 184.551 137.7 184.461 138.51 184.001C145.38 180.131 151.09 156.731 154.87 141.241C156.72 133.681 158.31 127.141 159.91 122.611C165.78 105.901 169.16 76.1806 170.98 60.2106C171.2 58.2306 171.41 56.4406 171.59 54.8706C174.51 30.1106 176.36 14.4306 176.1 10.2706C175.78 9.98059 175.52 9.61059 175.34 9.19059C174.71 7.66059 175.45 5.90059 176.98 5.28059C178.13 4.81059 179.4 4.96059 180.38 5.70059C183.08 7.75059 182.97 9.62059 177.55 55.5806C177.37 57.1406 177.16 58.9306 176.94 60.9006C174.97 78.2406 171.67 107.261 165.57 124.611C164.07 128.871 162.44 135.581 160.7 142.681C155.96 162.091 150.59 184.101 141.45 189.241C140.03 190.041 138.53 190.441 137.01 190.441L137.02 190.451Z" fill="black"/>
<path d="M181.2 7.99C181.2 7.99 191.17 3 207.14 3C229.09 3 248.27 9.36 244.72 18.63C241.29 27.59 224.7 54.55 196.67 54.49C165.41 54.42 169.34 21.22 181.2 7.99Z" fill="white"/>
<path d="M174.249 26.6992C174.249 26.6992 184.279 54.4792 229.739 31.8092C218.839 85.9392 198.119 128.359 189.949 128.359C181.779 128.359 164.369 47.4692 174.249 26.6992Z" fill="#2D8C3C"/>
<path d="M189.96 131.359C187.06 131.359 185.21 128.439 184.61 127.479C175.45 112.979 162.24 44.999 171.55 25.409C172.07 24.319 173.18 23.639 174.41 23.699C175.61 23.759 176.66 24.529 177.08 25.659C177.2 25.989 179.8 32.609 188.16 35.899C197.91 39.729 211.83 37.389 228.41 29.119C229.43 28.609 230.66 28.719 231.57 29.419C232.48 30.119 232.91 31.269 232.69 32.389C227.69 57.219 220.2 81.789 211.58 101.569C205.66 115.149 197.11 131.349 189.96 131.349V131.359ZM175.23 33.879C173.4 44.069 174.29 61.589 177.82 82.129C181.97 106.249 187.64 122.339 190.31 125.219C192.17 124.219 197.99 117.989 206.51 98.169C214.1 80.509 220.79 59.009 225.57 37.089C209.54 44.129 196.17 45.589 185.78 41.429C180.85 39.459 177.47 36.529 175.23 33.889V33.879Z" fill="black"/>
<path d="M151.751 132.439C145.061 167.379 138.971 194.099 138.971 200.229C138.971 201.489 150.531 220.949 189.481 196.779C208.351 215.499 281.811 228.449 287.971 200.869C283.491 176.509 276.141 145.779 274.391 123.589C268.261 46.3089 251.041 12.2389 251.041 12.2389C227.241 -10.1911 197.121 104.699 189.961 115.079C183.501 110.309 171.731 35.8589 182.051 9.51886C183.841 4.94886 180.201 6.50886 177.001 8.84886C161.091 22.8089 153.791 45.6589 151.761 62.6589C149.311 83.1589 153.681 122.419 151.761 132.449L151.751 132.439Z" fill="white"/>
<path d="M189.961 118.079C189.321 118.079 188.701 117.879 188.181 117.489C181.371 112.459 176.921 72.4091 176.731 70.7091C175.391 58.4391 173.001 29.3691 178.081 11.8891C168.221 20.9491 162.531 33.1691 159.391 42.4491C160.841 44.0091 163.861 46.7791 167.831 47.8191C169.001 48.1291 169.871 49.1091 170.041 50.3091C170.211 51.5091 169.641 52.6891 168.591 53.3091C163.941 56.0591 159.131 62.5691 158.961 64.4291C159.501 66.5391 166.661 93.7891 180.271 109.699C181.351 110.959 181.201 112.849 179.941 113.929C178.681 115.009 176.791 114.859 175.711 113.599C160.701 96.0591 153.171 66.0391 153.101 65.7391C152.131 61.8091 156.671 55.6391 161.181 51.4891C156.501 48.7991 153.741 45.0691 153.591 44.8691C153.031 44.0991 152.871 43.0991 153.161 42.1891C156.491 31.7691 162.991 17.1191 175.021 6.56913C175.091 6.50913 175.161 6.44913 175.231 6.39913C177.761 4.55913 181.421 2.34913 184.041 4.35913C185.691 5.63913 185.971 7.72913 184.851 10.5891C180.611 21.3991 179.791 42.7191 182.601 69.0991C184.501 86.9391 187.531 101.329 189.841 108.329C191.561 104.029 193.821 97.6191 196.301 90.6091C204.151 68.4191 214.901 38.0391 226.441 20.5691C227.351 19.1891 229.211 18.7991 230.601 19.7191C231.981 20.6291 232.361 22.4891 231.451 23.8791C220.311 40.7391 209.701 70.7191 201.961 92.6191C197.021 106.579 194.361 113.989 192.441 116.769C191.981 117.439 191.271 117.889 190.471 118.029C190.301 118.059 190.141 118.069 189.971 118.069L189.961 118.079Z" fill="black"/>
<path d="M254.33 219.76C245.83 219.76 236.36 218.67 226.61 216.49C209.22 212.61 194.55 206.04 187.37 198.91C186.19 197.74 186.19 195.84 187.35 194.67C188.52 193.49 190.42 193.49 191.59 194.65C204.59 207.55 248.22 218.52 271.72 211.64C279.1 209.48 283.53 205.83 284.91 200.78C283.64 193.93 282.17 186.69 280.62 179.03C276.71 159.73 272.66 139.76 271.4 123.82C265.77 52.8402 250.63 18.4302 248.59 14.0602C247.07 12.7502 245.58 12.1902 244.05 12.3602C242.41 12.5302 240.93 11.3402 240.75 9.70017C240.57 8.05017 241.77 6.57017 243.41 6.40017C246.88 6.03017 250.14 7.26017 253.1 10.0502C253.35 10.2902 253.56 10.5702 253.72 10.8802C253.9 11.2402 258.22 19.8702 263.31 38.1302C267.97 54.8402 274.2 83.2002 277.38 123.35C278.62 138.93 282.62 158.71 286.5 177.84C288.1 185.76 289.62 193.24 290.92 200.33C290.99 200.73 290.99 201.13 290.9 201.53C289.22 209.06 283.17 214.55 273.4 217.41C268.02 218.99 261.52 219.77 254.32 219.77L254.33 219.76Z" fill="black"/>
<path d="M155.369 211.79C151.589 211.79 148.2 211.15 145.22 209.87C138.51 207 136.39 201.87 136.17 201.3C135.5 199.54 135.79 196.35 146.03 145.65C147.01 140.8 147.959 136.11 148.809 131.85C149.759 127.11 149.26 114.38 148.72 100.91C148.55 96.6995 148.38 92.3795 148.25 88.1095C148.2 86.4495 149.499 85.0695 151.149 85.0195C151.179 85.0195 151.22 85.0195 151.25 85.0195C152.86 85.0195 154.2 86.2995 154.25 87.9195C154.39 92.1695 154.56 96.4795 154.72 100.67C155.29 115.11 155.789 127.59 154.699 133.03C153.839 137.3 152.899 141.99 151.92 146.84C148.03 166.11 142.199 194.95 141.949 199.49C142.419 200.38 144.009 202.84 147.679 204.39C152.059 206.23 160.339 207.14 174.899 201.03C176.429 200.39 178.19 201.11 178.83 202.64C179.47 204.17 178.75 205.93 177.22 206.57C168.93 210.05 161.63 211.79 155.38 211.79H155.369Z" fill="black"/>
<path d="M188.78 155.159C188.63 155.159 188.48 155.149 188.32 155.129C183.54 154.399 180.52 149.119 181.44 143.119C181.85 140.439 183.02 137.999 184.72 136.249C186.66 134.269 189.17 133.349 191.59 133.709C196.37 134.439 199.39 139.719 198.47 145.719C198.22 147.359 196.69 148.479 195.05 148.229C193.41 147.979 192.29 146.449 192.54 144.809C192.99 141.899 191.74 139.799 190.68 139.639C189.96 139.529 189.28 140.159 189.01 140.439C188.19 141.279 187.59 142.589 187.37 144.019C186.92 146.929 188.17 149.029 189.23 149.189C190.87 149.439 191.99 150.969 191.74 152.609C191.51 154.089 190.23 155.159 188.78 155.159Z" fill="black"/>
<path d="M203.68 114.671C203.23 114.671 202.78 114.571 202.35 114.361C200.86 113.631 200.26 111.831 200.99 110.341C201.143 110.034 202.137 108.831 203.97 106.731C226.97 80.3707 232.97 70.9407 234.2 67.5907C231.6 64.3107 226.36 57.2107 226.1 56.8607C225.53 56.0907 225.37 55.1007 225.65 54.1907C225.93 53.2807 226.64 52.5607 227.54 52.2507C234.35 49.9207 241.07 46.5507 241.93 45.0307C245.51 38.0607 242.32 17.3807 240.78 10.0007C240.44 8.38068 241.49 6.79068 243.11 6.45068C244.73 6.11068 246.32 7.16068 246.66 8.78068C247.27 11.7107 252.45 37.6807 247.27 47.7707C245.49 51.2407 238.5 54.5007 233.32 56.5207C235.69 59.7007 238.72 63.7107 239.71 64.8507C240.25 65.4707 240.52 66.2907 240.44 67.1107C239.93 72.5607 230.37 85.5907 208.49 110.681C207.42 111.911 206.4 113.071 206.14 113.391C205.57 114.211 204.64 114.681 203.68 114.681V114.671Z" fill="black"/>
<path d="M36.8701 173.38C32.2701 172.75 28.8501 168.91 28.9801 164.22C29.0601 161.45 29.9001 158.77 32.5001 157.61C56.7301 146.74 124.63 131.15 140.36 133.78L240.88 140.71C250.74 142.05 254.3 145.53 254.5 154.4C254.6 158.81 254.91 160.54 245.63 164.89C237.97 168.48 189.68 184.11 173.1 189.45C169.43 190.63 165.59 190.98 161.87 190.47L36.8701 173.4V173.38Z" fill="white"/>
<path d="M37.6706 170.491C36.2406 170.271 35.0206 169.811 34.1906 169.121C33.6606 168.671 33.1606 168.081 32.9706 167.781C32.5206 167.051 32.3906 166.771 32.2106 166.121C31.8706 164.911 31.9206 163.501 32.2906 162.221C32.4506 161.661 32.6306 161.311 32.8306 161.051C33.1806 160.601 33.6806 160.351 34.3706 160.041C34.7606 159.861 35.1606 159.701 35.5506 159.531C35.9406 159.361 35.0206 159.751 35.4006 159.591C35.5006 159.551 35.5906 159.511 35.6906 159.471C35.9506 159.361 36.2106 159.261 36.4706 159.151C37.4306 158.761 38.4006 158.381 39.3806 158.011C41.5406 157.191 43.7206 156.421 45.9106 155.681C56.5806 152.061 67.4706 149.071 78.4106 146.361C89.3506 143.651 101.181 141.051 112.691 139.071C115.231 138.641 117.771 138.231 120.311 137.861C120.871 137.781 121.421 137.701 121.981 137.631C122.541 137.561 121.591 137.681 122.311 137.591C122.641 137.551 122.971 137.501 123.301 137.461C124.411 137.321 125.511 137.191 126.621 137.071C130.191 136.691 133.801 136.381 137.391 136.511C138.041 136.531 138.691 136.581 139.351 136.641C139.481 136.651 139.661 136.711 139.791 136.691C139.621 136.721 138.961 136.571 139.471 136.651C139.781 136.701 140.091 136.751 140.411 136.781C140.701 136.811 140.991 136.821 141.281 136.841L146.281 137.181C152.961 137.641 159.631 138.101 166.311 138.561C175.301 139.181 184.291 139.801 193.271 140.421C202.251 141.041 210.771 141.631 219.521 142.231L237.351 143.461C238.491 143.541 239.661 143.711 240.801 143.701C240.831 143.701 240.871 143.701 240.901 143.701C240.441 143.681 240.511 143.651 241.041 143.731C242.531 143.961 244.021 144.271 245.461 144.731C245.781 144.831 246.081 144.951 246.401 145.061C246.941 145.241 246.181 144.931 246.681 145.171C247.241 145.451 247.801 145.731 248.321 146.081C248.471 146.181 249.091 146.691 248.571 146.241C248.741 146.391 248.921 146.541 249.091 146.701C249.281 146.881 249.461 147.081 249.641 147.271C250.111 147.751 249.511 146.991 249.871 147.561C250.141 147.991 250.381 148.421 250.611 148.871C250.841 149.321 250.521 148.511 250.721 149.161C250.821 149.481 250.931 149.801 251.021 150.131C251.461 151.731 251.451 152.041 251.531 153.601C251.581 154.601 251.621 155.621 251.571 156.631C251.571 156.821 251.521 157.031 251.531 157.221C251.521 156.861 251.661 156.611 251.531 157.071C251.481 157.251 251.421 157.431 251.381 157.611C251.261 158.181 251.711 157.141 251.361 157.651C251.271 157.781 251.161 157.951 251.091 158.091C251.111 158.051 251.451 157.731 251.031 158.151C250.861 158.331 250.691 158.511 250.501 158.671C250.421 158.751 250.321 158.821 250.241 158.901C249.841 159.281 250.461 158.761 250.161 158.971C248.861 159.911 247.461 160.681 246.031 161.401C245.141 161.851 244.221 162.241 243.331 162.681C243.171 162.761 244.111 162.361 243.631 162.551C243.501 162.601 243.371 162.661 243.231 162.711C242.941 162.831 242.641 162.951 242.351 163.061C233.961 166.361 225.351 169.141 216.811 172.001C206.061 175.601 195.281 179.131 184.491 182.631C180.501 183.931 176.511 185.231 172.511 186.501C170.671 187.091 168.801 187.521 166.871 187.641C165.891 187.701 164.911 187.711 163.931 187.651C163.401 187.621 162.881 187.571 162.361 187.521C162.261 187.521 162.841 187.591 162.701 187.571C162.491 187.541 162.271 187.511 162.061 187.481C158.351 186.971 154.651 186.471 150.941 185.961C143.831 184.991 136.721 184.021 129.611 183.051C120.721 181.841 111.831 180.621 102.941 179.411L75.9106 175.721C68.3106 174.681 60.7106 173.641 53.1106 172.611C48.5806 171.991 44.0606 171.371 39.5306 170.761C38.9206 170.681 38.3206 170.591 37.7106 170.511C36.1106 170.291 34.4906 170.901 34.0206 172.611C33.6406 174.011 34.5006 176.081 36.1206 176.301C38.6706 176.651 41.2206 177.001 43.7706 177.351C50.3206 178.241 56.8606 179.141 63.4106 180.031C72.1806 181.231 80.9606 182.431 89.7306 183.621C99.0806 184.901 108.431 186.171 117.791 187.451C125.931 188.561 134.061 189.671 142.201 190.781C147.451 191.501 152.701 192.211 157.951 192.931C158.961 193.071 159.971 193.211 160.981 193.341C163.251 193.651 165.501 193.801 167.791 193.571C170.891 193.261 173.781 192.401 176.721 191.451C186.721 188.231 196.711 184.981 206.691 181.691C216.981 178.291 227.281 174.891 237.491 171.241C240.611 170.121 243.761 169.021 246.791 167.671C251.541 165.551 257.041 162.821 257.541 157.041C257.971 152.111 257.111 146.241 253.491 142.611C250.241 139.361 245.221 138.091 240.781 137.701C236.981 137.371 233.151 137.171 229.341 136.911C221.371 136.361 213.401 135.811 205.431 135.261C196.071 134.621 186.711 133.971 177.361 133.331C169.251 132.771 161.141 132.211 153.021 131.651C148.931 131.371 144.831 131.001 140.731 130.801C140.641 130.801 140.531 130.771 140.441 130.781C140.241 130.801 141.461 130.921 140.981 130.851C140.451 130.771 139.921 130.701 139.391 130.641C137.961 130.491 136.511 130.471 135.081 130.491C131.031 130.561 126.991 130.991 122.981 131.501C111.671 132.951 100.471 135.141 89.3506 137.621C77.5906 140.251 65.8906 143.231 54.3406 146.701C49.4306 148.181 44.5306 149.751 39.7106 151.511C37.7106 152.241 35.7206 153.011 33.7506 153.831C32.6006 154.311 31.2906 154.741 30.2506 155.431C28.5206 156.581 27.4006 158.181 26.7006 160.121C24.1806 167.131 28.7206 175.111 36.1206 176.261C37.7206 176.511 39.3506 175.851 39.8106 174.161C40.2006 172.741 39.3306 170.721 37.7106 170.471L37.6706 170.491Z" fill="black"/>
<path d="M32.8105 161.389C32.8105 161.389 121.941 119.809 141.611 123.099L240.201 136.389C249.951 137.709 253.941 139.189 254.511 143.489C255.081 147.789 254.911 149.559 245.741 153.859C236.571 158.159 168.481 179.919 168.481 179.919L32.8105 161.389Z" fill="white"/>
<path d="M34.33 163.979C40.35 161.169 46.41 158.469 52.49 155.799C55.39 154.529 58.29 153.259 61.2 152.009C62.78 151.329 64.36 150.649 65.95 149.979C66.38 149.799 66.8 149.619 67.23 149.439C67.37 149.379 67.9 149.159 67.33 149.399C67.53 149.319 67.72 149.229 67.92 149.149C68.79 148.779 69.67 148.419 70.54 148.049C77.54 145.119 84.58 142.279 91.67 139.549C104.3 134.689 117.19 129.819 130.47 127.009C131.68 126.749 132.9 126.519 134.13 126.329C134.4 126.289 134.67 126.249 134.94 126.209C135.75 126.089 134.27 126.279 135.09 126.189C135.64 126.129 136.18 126.059 136.73 126.019C137.66 125.939 138.59 125.899 139.52 125.919C139.91 125.919 140.29 125.959 140.68 125.979C141.71 126.049 140.02 125.879 140.84 125.989C142.73 126.249 144.62 126.499 146.5 126.749C157.56 128.239 168.61 129.729 179.67 131.219C192.98 133.009 206.28 134.809 219.59 136.599C226.2 137.489 232.81 138.369 239.42 139.269C241.74 139.589 244.06 139.929 246.34 140.479C247.28 140.709 248.2 140.999 249.11 141.319C249.88 141.589 248.76 141.149 249.2 141.349C249.38 141.429 249.55 141.509 249.72 141.609C250.1 141.809 250.46 142.039 250.81 142.279C250.09 141.789 250.92 142.469 251.07 142.579C251.54 142.939 250.81 142.159 251 142.469C251.08 142.599 251.17 142.719 251.25 142.849C251.31 142.959 251.37 143.159 251.46 143.249C251.67 143.459 251.31 142.589 251.39 143.129C251.42 143.339 251.69 144.589 251.56 143.679C251.65 144.309 251.72 144.939 251.72 145.579C251.72 145.859 251.69 146.139 251.68 146.419C251.73 145.409 251.59 146.429 251.53 146.729C251.71 145.879 251.51 146.619 251.37 146.919C251.12 147.449 251.84 146.489 251.38 146.919C251.28 147.009 251.19 147.129 251.1 147.219C250.83 147.489 250.55 147.739 250.25 147.979C250.79 147.549 250.06 148.099 250 148.139C249.75 148.309 249.5 148.469 249.24 148.629C247.49 149.719 245.63 150.629 243.75 151.479C242.8 151.909 244.38 151.229 243.51 151.579C243.12 151.739 242.73 151.899 242.34 152.049C241.39 152.419 240.44 152.779 239.49 153.129C227.03 157.739 214.37 161.819 201.76 165.969C191.01 169.499 180.24 172.989 169.47 176.449C168.89 176.639 168.3 176.829 167.72 177.009H169.32C164.8 176.389 160.27 175.769 155.75 175.159C144.97 173.689 134.19 172.219 123.42 170.739C110.35 168.949 97.28 167.169 84.21 165.379C72.92 163.839 61.62 162.289 50.33 160.749C44.85 159.999 39.38 159.249 33.9 158.509C33.82 158.499 33.74 158.489 33.66 158.479C32.06 158.259 30.44 158.869 29.97 160.579C29.59 161.979 30.45 164.049 32.07 164.269C34.93 164.659 37.79 165.049 40.66 165.439C47.94 166.429 55.23 167.429 62.51 168.419C72.26 169.749 82.01 171.079 91.76 172.409C102.02 173.809 112.28 175.209 122.54 176.609C131.33 177.809 140.12 179.009 148.91 180.209C154.35 180.949 159.79 181.699 165.23 182.439C166.07 182.549 166.91 182.669 167.74 182.779C169.45 183.009 171.1 182.219 172.71 181.699C180.7 179.129 188.68 176.549 196.66 173.939C207.08 170.539 217.49 167.109 227.86 163.559C235.08 161.089 242.58 158.859 249.4 155.399C252.13 154.019 255.28 152.339 256.81 149.549C258.03 147.329 257.88 144.669 257.4 142.259C256.08 135.629 247.89 134.449 242.39 133.639C238.34 133.049 234.28 132.539 230.23 131.989C221.46 130.809 212.69 129.629 203.92 128.439L173.24 124.299C165.29 123.229 157.33 122.159 149.38 121.079C145.8 120.599 142 119.759 138.38 119.869C130.22 120.129 122.01 122.719 114.29 125.149C103.8 128.449 93.5 132.339 83.28 136.389C73.06 140.439 63.11 144.639 53.12 148.989C46.74 151.769 40.38 154.599 34.05 157.509C33.16 157.919 32.27 158.329 31.38 158.739C29.91 159.419 29.54 161.539 30.3 162.839C31.18 164.349 32.93 164.599 34.4 163.919L34.33 163.979Z" fill="black"/>
<path d="M71.9902 157.999C71.9902 157.999 119.6 135.209 133.2 137.479L201.38 146.669C208.12 147.579 210.88 148.609 211.28 151.579C211.67 154.549 211.56 155.779 205.21 158.749C198.87 161.719 165.81 170.809 165.81 170.809L71.9902 157.989V157.999Z" fill="black"/>
<path d="M250.78 109.28C250.78 109.28 230.4 112.33 229.74 117.95C229.08 123.57 219.61 148.4 245.13 168.27C261.57 181.07 306.54 136.99 306.54 136.99C306.54 136.99 324.39 122.25 311.09 90.3401C297.75 58.3101 278.62 17.1301 246.55 10.0801C246.55 10.0801 254.42 25.3701 257.8 44.3101C262.59 71.1701 262.59 87.3701 262.59 87.3701L264.46 100.96C264.46 100.96 255.93 107.8 250.79 109.27L250.78 109.28Z" fill="white"/>
<path d="M183.51 135.08C183.51 135.08 169.33 147.27 169.97 150.83C170.61 154.39 173.73 166.42 206.86 158.85C206.86 158.85 224.04 149.94 225.92 149.13C227.8 148.32 251.73 143.23 250.93 138.85C250.13 134.47 242.21 118.13 229.38 123.23C216.55 128.34 206.34 123.54 206.34 123.54C206.34 123.54 181.95 120.83 182.19 126.32C182.43 131.82 185.35 134.3 183.52 135.08H183.51Z" fill="white"/>
<path d="M186.53 166.12C180.78 166.12 175.49 164.79 171.66 161.25C167.38 157.3 165.48 153.14 166 148.9C167 140.76 176.62 135.46 181.79 132.61C181.84 132.58 181.89 132.56 181.93 132.53C180.39 131.48 178.69 130.15 178.51 127.95C178.43 126.98 178.65 125.53 180.13 124.14C188.28 116.51 207.01 120.41 217.08 122.51C219.19 122.95 221.19 123.37 221.89 123.4C221.9 123.4 221.91 123.4 221.93 123.4C223.09 123.4 227.02 121.94 228.93 121.24C230.44 120.68 231.64 120.24 232.49 120.01C236.33 119 242.39 122.13 247.23 127.63C250.99 131.91 259.02 143.62 252.35 160.02C251.73 161.55 249.97 162.29 248.44 161.67C246.9 161.05 246.17 159.29 246.79 157.76C251.7 145.71 246.94 136.91 243.67 132.73C239.62 127.56 235.03 125.66 234 125.82C233.45 125.97 232.27 126.4 231.02 126.87C226.84 128.42 223.71 129.49 221.6 129.39C220.44 129.33 218.62 128.95 215.88 128.38C208.63 126.87 192.24 123.46 185.42 127.63C185.54 127.71 185.66 127.79 185.77 127.86C187.38 128.94 189.39 130.28 189.41 132.68C189.41 133.68 189.05 135.14 187.26 136.37C186.66 136.78 185.8 137.26 184.71 137.86C180.78 140.02 172.61 144.52 171.98 149.62C171.71 151.84 172.98 154.27 175.76 156.84C185.29 165.66 213.05 154.23 219.12 149.75C229.65 141.97 243.65 143.24 244.24 143.3C245.89 143.46 247.09 144.93 246.93 146.58C246.77 148.23 245.28 149.41 243.66 149.27C243.47 149.25 231.3 148.21 222.69 154.57C218.75 157.48 201.17 166.11 186.55 166.11L186.53 166.12Z" fill="black"/>
<path d="M163.829 180.052L38.3694 164.272C29.5394 163.162 20.9694 155.372 19.3194 146.952L3.19939 68.0416C1.54939 59.6316 7.42939 53.6516 16.2594 54.7616L141.719 70.5416C150.549 71.6516 159.119 79.4416 160.769 87.8616L176.889 166.762C178.539 175.172 172.659 181.152 163.829 180.042V180.052Z" fill="white"/>
<path d="M163.83 177.049C160.33 176.609 156.83 176.169 153.33 175.729C144.76 174.649 136.18 173.569 127.61 172.489C116.75 171.119 105.89 169.759 95.0299 168.389C84.6499 167.079 74.2599 165.779 63.8799 164.469C56.8499 163.589 49.8199 162.699 42.7899 161.819C41.3899 161.639 39.9799 161.459 38.5799 161.289C38.5099 161.289 38.4399 161.269 38.3699 161.259C39.4199 161.399 38.1399 161.209 37.9199 161.159C37.4399 161.069 36.9699 160.949 36.4999 160.819C35.6099 160.579 34.6699 160.249 33.9199 159.909C30.2899 158.249 27.0199 155.569 24.8299 152.289C23.0999 149.689 22.3999 147.069 21.7799 144.039C21.1599 141.009 20.5399 137.989 19.9299 134.969C17.8899 124.969 15.8399 114.969 13.7999 104.969C11.7599 94.9693 9.84986 85.6193 7.86986 75.9393C7.34986 73.3893 6.82987 70.8293 6.29987 68.2793C6.20987 67.8193 6.09986 67.3593 6.01987 66.8893C5.79987 65.5793 5.89987 63.9593 6.30986 62.6293C6.36986 62.4393 6.72987 61.5793 6.51987 62.0293C6.67986 61.6993 6.84986 61.3693 7.03987 61.0493C7.13986 60.8893 7.68987 60.1493 7.36986 60.5393C7.62986 60.2193 7.90986 59.9293 8.20986 59.6493C8.33986 59.5193 8.47986 59.3993 8.61986 59.2893C8.97986 58.9893 8.27986 59.5193 8.66986 59.2493C8.97987 59.0393 9.28986 58.8393 9.61986 58.6593C9.78986 58.5693 9.95986 58.4793 10.1299 58.3993C10.5699 58.1793 9.74986 58.5393 10.2099 58.3593C10.6699 58.1793 11.1499 58.0293 11.6299 57.9093C12.9499 57.5793 14.4999 57.5493 16.2499 57.7493C16.5099 57.7793 16.7699 57.8193 17.0299 57.8493L22.4399 58.5293C30.0599 59.4893 37.6899 60.4493 45.3099 61.4093C55.8699 62.7393 66.4399 64.0693 76.9999 65.3993C87.5599 66.7293 98.4599 68.0993 109.19 69.4493C117.31 70.4693 125.44 71.4893 133.56 72.5193L140.09 73.3393C140.57 73.3993 141.05 73.4593 141.53 73.5193C141.64 73.5293 141.95 73.5793 141.5 73.5193C140.91 73.4293 141.68 73.5493 141.82 73.5793C142.06 73.6193 142.3 73.6693 142.53 73.7193C143.01 73.8193 143.48 73.9393 143.95 74.0793C144.88 74.3493 145.71 74.6593 146.51 75.0493C152.19 77.7793 156.67 82.7893 157.92 88.8693C158.32 90.8093 158.71 92.7493 159.11 94.6893C160.96 103.759 162.82 112.829 164.67 121.899C166.79 132.249 168.9 142.609 171.02 152.959L173.2 163.619C173.51 165.149 173.92 166.689 174.12 168.239C174.07 167.889 174.16 168.989 174.16 169.079C174.17 169.499 174.16 169.919 174.14 170.339C174.13 170.539 174.11 170.749 174.09 170.949C174.11 170.799 174.2 170.479 174.06 171.039C173.97 171.419 173.89 171.799 173.78 172.169C173.74 172.289 173.33 173.279 173.57 172.769C173.41 173.099 173.24 173.429 173.05 173.749C172.98 173.859 172.36 174.689 172.72 174.259C172.49 174.539 172.24 174.809 171.98 175.059C171.89 175.139 171.08 175.799 171.53 175.469C171.23 175.689 170.91 175.889 170.59 176.069C170.5 176.119 169.52 176.599 170.01 176.389C169.6 176.559 169.17 176.699 168.75 176.819C168.35 176.929 167.96 177.019 167.55 177.089C167.04 177.179 167.94 177.059 167.4 177.109C167.18 177.129 166.97 177.149 166.75 177.159C165.77 177.219 164.8 177.159 163.83 177.049C162.22 176.859 160.83 178.559 160.83 180.049C160.83 181.829 162.21 182.859 163.83 183.049C167.77 183.509 171.9 182.699 175.08 180.249C178.26 177.799 179.89 174.249 180.15 170.349C180.31 167.889 179.68 165.449 179.2 163.049C177.52 154.809 175.83 146.579 174.15 138.339C171.94 127.539 169.74 116.749 167.53 105.949C166.26 99.7493 165 93.5493 163.73 87.3493C162.35 80.6093 157.74 74.8793 152.01 71.2293C148.52 69.0093 144.72 67.9093 140.67 67.4093C135.2 66.7193 129.73 66.0293 124.26 65.3493C114.45 64.1193 104.64 62.8793 94.8299 61.6493C83.6299 60.2393 72.4299 58.8293 61.2299 57.4193C51.5899 56.2093 41.9599 54.9993 32.3199 53.7793C27.1999 53.1393 22.0699 52.4893 16.9499 51.8493C12.5499 51.2993 8.11987 52.0293 4.59986 54.8893C0.239865 58.4293 -0.660135 64.1193 0.409865 69.3593C1.74987 75.9093 3.08986 82.4593 4.42986 89.0093C6.63986 99.8393 8.85986 110.679 11.0699 121.509C12.6999 129.469 14.3199 137.429 15.9499 145.389C16.5799 148.489 17.3399 151.449 18.9799 154.239C23.0699 161.229 30.3899 166.229 38.4199 167.259C42.3999 167.769 46.3799 168.259 50.3699 168.759C59.3999 169.899 68.4399 171.029 77.4699 172.169C88.5999 173.569 99.7399 174.969 110.87 176.369C121.15 177.659 131.44 178.959 141.72 180.249C148.2 181.069 154.68 181.879 161.16 182.699C162.05 182.809 162.95 182.919 163.84 183.039C165.45 183.239 166.84 181.519 166.84 180.039C166.84 178.249 165.46 177.239 163.84 177.039L163.83 177.049Z" fill="black"/>
<path d="M78.6903 128.17C65.0203 134.9 61.4203 124.91 64.7403 115.05C68.0603 105.19 72.9103 100.2 80.1603 101.07C90.4803 102.31 104.04 123.89 100.5 130.98C96.5103 138.95 84.3203 125.41 78.6903 128.18V128.17Z" fill="#2D8C3C"/>
<path d="M247.93 171.74C246.28 171.74 244.54 171.49 242.7 170.86C233.08 167.62 227.49 157.95 224.12 150.96C223.4 149.47 224.03 147.67 225.52 146.96C227.01 146.24 228.81 146.87 229.52 148.36C232.42 154.37 237.13 162.66 244.61 165.18C248.65 166.54 251.86 165.24 256.31 163.43L257.07 163.12C290.31 149.71 308.41 135.79 310.86 121.73C311.15 120.1 312.71 119.01 314.33 119.29C315.96 119.58 317.05 121.13 316.77 122.76C312.5 147.23 272.47 163.37 259.31 168.68L258.56 168.98C255.21 170.34 251.79 171.73 247.92 171.73L247.93 171.74Z" fill="black"/>
<path d="M316.55 113.24C315.21 113.24 313.98 112.33 313.64 110.97C313.51 110.44 313.35 109.79 313.16 109.01C310.68 98.6802 303.14 67.2402 281.23 39.1002C262.69 15.2902 247.78 13.0802 247.63 13.0602C246 12.8502 244.83 11.3502 245.03 9.72016C245.23 8.09016 246.7 6.91016 248.34 7.10016C249.04 7.18016 265.68 9.36016 285.97 35.4102C308.68 64.5802 316.45 96.9702 319 107.61C319.18 108.36 319.33 109 319.46 109.51C319.86 111.12 318.89 112.75 317.28 113.15C317.03 113.21 316.79 113.24 316.55 113.24Z" fill="black"/>
<path d="M240.73 119.511C239.22 119.511 237.92 118.371 237.75 116.841C237.57 115.191 238.76 113.711 240.4 113.531C257.88 111.611 267.91 104.471 268.01 104.401C269.35 103.431 271.23 103.731 272.2 105.071C273.17 106.411 272.87 108.291 271.53 109.261C271.07 109.591 260.1 117.401 241.06 119.501C240.95 119.511 240.84 119.521 240.73 119.521V119.511Z" fill="black"/>
<path d="M275.931 104.239C275.811 104.239 275.701 104.239 275.581 104.219C273.931 104.029 272.751 102.539 272.941 100.899C273.441 96.5693 270.351 84.4593 267.921 81.2693C266.921 79.9493 267.181 78.0693 268.501 77.0693C269.821 76.0693 271.701 76.3293 272.701 77.6493C276.041 82.0593 279.581 95.7093 278.901 101.599C278.721 103.129 277.431 104.259 275.921 104.259L275.931 104.239Z" fill="black"/>
<path d="M49.5996 173.339C49.5996 173.339 41.0696 172.929 42.5796 179.649C44.0896 186.369 59.1096 185.249 59.1096 185.249C59.1096 185.249 71.3496 193.389 83.3696 190.569C95.3896 187.749 96.6596 184.369 90.6596 183.689C84.6596 183.009 80.4396 174.299 80.4396 174.299C80.4396 174.299 71.3896 157.839 65.4896 156.879C59.5896 155.919 50.4596 153.989 49.6096 173.339H49.5996Z" fill="white"/>
<path d="M77.9996 194.14C72.9696 194.14 66.9396 192.8 59.8696 189.14C45.2696 181.57 46.9696 169.84 49.5196 161.67C51.2296 156.2 54.9696 152.87 59.7896 152.54C67.8696 151.97 76.9296 160.04 83.2996 173.57C84.0096 175.07 83.3596 176.86 81.8596 177.56C80.3596 178.27 78.5696 177.62 77.8696 176.12C71.9396 163.53 64.6896 158.21 60.1996 158.52C57.3196 158.72 55.9096 161.31 55.2396 163.45C52.0396 173.68 54.1096 179.39 62.6196 183.8C83.6896 194.72 92.5496 181.63 92.9196 181.07C93.8196 179.69 95.6696 179.28 97.0596 180.17C98.4496 181.06 98.8596 182.9 97.9796 184.29C97.8996 184.42 91.5496 194.12 77.9896 194.12L77.9996 194.14Z" fill="black"/>
<path d="M54.19 189.41C47.49 189.41 40.32 186.31 37.72 181.86C35.93 178.79 36.36 175.38 38.91 172.51C42.66 168.28 48.73 169.74 51.73 171.26C53.21 172.01 53.79 173.82 53.04 175.3C52.29 176.77 50.49 177.36 49.02 176.62C48.94 176.58 44.96 174.73 43.4 176.49C42.28 177.76 42.65 178.4 42.9 178.83C44.56 181.67 51.68 184.26 56.97 183.13C58.59 182.79 60.18 183.81 60.53 185.43C60.88 187.05 59.85 188.64 58.23 188.99C56.93 189.27 55.57 189.4 54.19 189.4V189.41Z" fill="black"/>
</svg>
