<svg width="300" height="278" viewBox="0 0 300 278" fill="none" xmlns="http://www.w3.org/2000/svg">
<path d="M86.5085 109.628C86.5085 109.628 60.0785 79.328 82.1385 54.328C104.199 29.318 118.679 33.198 118.679 33.198L86.5085 109.628Z" fill="white"/>
<path d="M68.0396 81.4879C67.6396 81.4879 67.2396 81.4079 66.8496 81.2379C65.3296 80.5779 64.6296 78.8179 65.2896 77.2879C80.5796 41.9979 104.42 33.7679 105.43 33.4379C107 32.9179 108.7 33.7679 109.22 35.3479C109.74 36.9179 108.89 38.6079 107.32 39.1379C107.02 39.2379 84.9096 47.0779 70.7896 79.6779C70.2996 80.8079 69.1996 81.4879 68.0396 81.4879Z" fill="black"/>
<path d="M128.439 32.9185C128.439 32.9185 131.799 29.9085 147.799 28.9085C163.799 27.9085 183.279 32.9785 188.539 37.9385C193.799 42.9085 146.799 52.9085 134.799 47.9085C122.799 42.9085 128.439 32.9185 128.439 32.9185Z" fill="white"/>
<path d="M203.879 58.4888C198.509 47.2388 197.299 40.5488 193.849 36.5588C187.129 28.7788 180.789 31.3688 180.789 31.3688C169.119 43.0388 137.039 41.5288 128.429 32.9188C128.429 32.9188 121.979 34.8288 115.759 43.1188C109.189 51.8788 100.619 69.5188 99.1892 84.3188C97.7592 99.1188 86.8592 156.039 86.7092 157.129C77.1492 228.049 64.7992 242.699 77.2692 254.479C102.089 277.929 147.769 277.419 163.279 271.279C195.199 258.639 229.259 267.599 240.159 269.389C240.909 269.509 246.519 269.339 245.799 264.359C241.709 236.339 222.829 98.2188 203.889 58.4788L203.879 58.4888Z" fill="white"/>
<path d="M243.949 253.758C242.479 253.758 241.199 252.678 240.989 251.188C235.709 214.658 218.829 129.978 218.659 129.128C218.339 127.508 219.389 125.928 221.019 125.598C222.639 125.278 224.229 126.328 224.549 127.958C224.719 128.808 241.629 213.648 246.929 250.338C247.169 251.978 246.029 253.498 244.389 253.738C244.239 253.758 244.099 253.768 243.959 253.768L243.949 253.758Z" fill="black"/>
<path d="M92.9785 269.218C92.5785 269.218 92.1685 269.138 91.7785 268.968C74.5485 261.448 66.7285 251.998 68.5385 240.868C72.7685 214.758 82.5485 176.088 83.1885 173.558L83.8085 169.808C87.1785 149.388 90.6685 128.268 88.9985 112.668C88.8185 111.018 90.0185 109.538 91.6585 109.368C93.2885 109.208 94.7785 110.388 94.9585 112.028C96.7185 128.438 93.1585 149.968 89.7285 170.778L89.0885 174.648C89.0785 174.738 89.0585 174.818 89.0385 174.908C88.9385 175.308 78.7785 215.218 74.4585 241.818C73.1485 249.898 79.7885 257.178 94.1785 263.458C95.6985 264.118 96.3885 265.888 95.7285 267.408C95.2385 268.538 94.1385 269.208 92.9785 269.208V269.218Z" fill="black"/>
<path d="M134.1 277.719C126.45 277.719 118.96 277.029 112 275.639C110.38 275.319 109.32 273.729 109.65 272.109C109.97 270.489 111.54 269.429 113.18 269.759C128.42 272.809 146.42 272.299 162.58 268.369C186.8 262.479 219.2 259.719 236.99 266.839C238.53 267.459 239.28 269.199 238.66 270.739C238.04 272.279 236.3 273.029 234.76 272.409C218.29 265.819 186.53 268.719 164 274.199C154.38 276.539 144.11 277.719 134.11 277.719H134.1Z" fill="black"/>
<path d="M150.689 43.3384C150.229 43.3384 149.759 43.3384 149.299 43.3184C140.069 43.0584 131.719 40.0684 126.389 35.1184C125.179 33.9884 125.099 32.0884 126.229 30.8784C127.359 29.6684 129.259 29.5984 130.469 30.7184C138.949 38.5884 158.059 40.9084 176.769 29.6784C178.189 28.8284 180.029 29.2884 180.889 30.7084C181.739 32.1284 181.279 33.9684 179.859 34.8284C170.559 40.4084 160.499 43.3384 150.689 43.3384Z" fill="black"/>
<path d="M182.948 31.0088C182.948 31.0088 192.158 29.0988 208.158 42.4288C229.668 60.3388 241.368 107.739 241.308 116.579C241.248 125.419 239.538 168.229 218.438 173.089C197.338 177.949 164.518 180.499 120.938 119.239C120.938 119.239 115.868 106.999 129.938 102.489C144.008 97.9688 160.108 86.9288 161.238 83.8988C162.368 80.8688 168.418 77.4488 184.128 90.8588C199.848 104.269 192.638 37.9188 182.928 31.0288L182.948 31.0088Z" fill="white"/>
<path d="M206.53 177.81C189.78 177.81 164.78 170.31 151.99 157.61C150.81 156.44 150.81 154.54 151.98 153.37C153.15 152.2 155.05 152.19 156.22 153.36C168.28 165.34 192.48 172.28 207.94 171.79C223.23 171.33 230.38 164.07 235.25 144.01C235.27 143.95 235.28 143.88 235.3 143.82C244.65 114 228.82 51.8796 193.17 37.3296C191.64 36.6996 190.9 34.9496 191.53 33.4196C192.16 31.8896 193.91 31.1496 195.44 31.7796C205.85 36.0296 225.07 48.3696 236.86 83.2696C244.31 105.34 245.96 129.76 241.05 145.52C235.52 168.19 226.28 177.24 208.11 177.78C207.59 177.8 207.06 177.8 206.52 177.8L206.53 177.81Z" fill="black"/>
<path d="M210.989 125.799C209.929 125.799 208.909 125.239 208.359 124.249C200.809 110.589 189.999 99.1186 177.109 91.0586C175.699 90.1786 175.279 88.3286 176.159 86.9286C177.039 85.5286 178.889 85.0987 180.289 85.9787C194.039 94.5687 205.569 106.809 213.609 121.349C214.409 122.799 213.889 124.629 212.439 125.429C211.979 125.679 211.479 125.809 210.989 125.809V125.799Z" fill="black"/>
<path d="M96.1794 61.3281C96.1794 61.3281 91.5094 62.2781 83.8094 66.2481C75.5194 70.5181 43.1594 94.0981 40.9994 116.548C38.8394 138.998 42.4294 144.958 50.5894 148.718C58.7494 152.478 70.8394 160.098 85.7894 143.868C100.739 127.638 109.589 105.978 109.589 105.978C109.589 105.978 87.0494 100.488 90.2594 81.8681C93.4794 63.2481 96.1694 61.3281 96.1694 61.3281H96.1794Z" fill="white"/>
<path d="M65.3488 156.979C65.3488 156.979 65.2888 156.979 65.2588 156.979C55.9688 156.689 48.2788 153.479 42.9888 147.699C38.0488 142.289 35.5788 134.889 36.0588 126.869C38.1488 91.5887 72.1888 71.8487 73.6388 71.0287C75.0788 70.2087 76.9088 70.7087 77.7288 72.1587C78.5488 73.5987 78.0388 75.4287 76.6088 76.2487C76.2788 76.4387 43.9388 95.2387 42.0488 127.229C41.6688 133.619 43.5788 139.449 47.4288 143.659C51.5888 148.219 57.8288 150.749 65.4488 150.989C67.1088 151.039 68.4088 152.429 68.3588 154.079C68.3088 155.699 66.9788 156.989 65.3588 156.989L65.3488 156.979Z" fill="black"/>
<path d="M65.8183 156.989C65.6383 156.989 65.4683 156.989 65.2883 156.989C63.6283 156.949 62.3183 155.579 62.3583 153.929C62.3983 152.299 63.7283 150.989 65.3583 150.989C65.3783 150.989 65.3983 150.989 65.4283 150.989C65.5483 150.989 65.6783 150.989 65.7983 150.989C79.3883 150.989 90.0883 135.079 96.6783 121.659C97.4083 120.169 99.2083 119.559 100.698 120.289C102.188 121.019 102.798 122.819 102.068 124.309C91.3983 145.999 79.2083 156.989 65.8183 156.989Z" fill="black"/>
<path d="M88.1092 72.3285C88.1092 72.3285 85.0792 98.8285 103.019 96.5785C103.019 96.5785 107.809 95.5285 111.009 88.5085C114.219 81.4885 121.119 70.9485 121.119 70.9485C121.119 70.9485 131.609 82.4585 136.819 95.2985C140.399 104.119 160.929 82.9085 157.089 79.1985C157.089 79.1985 140.959 65.9685 144.269 56.0785C147.579 46.1885 144.779 -1.22148 127.569 2.98852C127.569 2.98852 108.089 0.348515 104.489 26.9585C100.889 53.5685 102.409 57.7685 100.369 60.5585C98.3292 63.3585 88.0992 72.3185 88.0992 72.3185L88.1092 72.3285Z" fill="white"/>
<path d="M137.129 99.019C135.959 99.019 134.839 98.329 134.359 97.179C131.149 89.489 124.299 76.269 119.619 73.559C118.189 72.729 117.699 70.889 118.529 69.459C119.359 68.029 121.189 67.539 122.629 68.369C130.589 72.969 138.969 92.639 139.899 94.869C140.539 96.399 139.819 98.159 138.289 98.789C137.909 98.949 137.519 99.019 137.129 99.019Z" fill="black"/>
<path d="M153.368 78.7482C152.888 78.7482 152.398 78.6282 151.938 78.3782C146.778 75.5682 138.028 66.7282 141.808 53.3782C143.508 47.3782 143.308 36.0382 141.328 26.3982C139.078 15.4282 134.928 7.90816 130.218 6.30816C129.828 6.17816 129.018 5.89816 127.668 7.09816C121.228 12.7482 116.248 38.3882 119.978 56.8582C120.308 58.4782 119.258 60.0682 117.628 60.3882C116.008 60.7182 114.418 59.6682 114.098 58.0382C109.758 36.5282 115.758 9.56816 123.708 2.57816C126.268 0.328164 129.278 -0.361836 132.158 0.628164C141.518 3.82816 145.608 17.3882 147.208 25.1882C149.418 35.9882 149.568 47.9682 147.578 55.0082C144.178 67.0182 154.378 72.8582 154.818 73.1082C156.258 73.9082 156.788 75.7382 155.988 77.1782C155.438 78.1682 154.418 78.7382 153.358 78.7382L153.368 78.7482Z" fill="black"/>
<path d="M102.578 108.659C101.948 108.659 101.308 108.459 100.768 108.049C75.8085 89.0788 85.0885 71.6187 85.4985 70.8787C85.5885 70.7087 85.7085 70.5488 85.8285 70.3988C86.0185 70.1787 90.3485 65.0887 97.7485 59.0987C98.9385 55.8387 98.7885 51.9187 98.6085 47.0287C98.3385 39.8487 98.0085 30.9187 101.968 19.8887C109.978 -2.47125 125.738 0.0187468 126.408 0.138747C128.038 0.428747 129.128 1.97875 128.848 3.60875C128.558 5.22875 127.028 6.31875 125.398 6.04875C124.868 5.96875 113.828 4.54875 107.598 21.9087C104.038 31.8487 104.328 39.7887 104.588 46.7987C104.798 52.5387 104.988 57.4987 102.978 62.1287C102.778 62.5787 102.478 62.9687 102.098 63.2787C95.7385 68.3487 91.5985 72.8988 90.6185 74.0088C89.7485 75.8988 84.9785 88.5188 104.388 103.259C105.708 104.259 105.968 106.139 104.958 107.459C104.368 108.239 103.468 108.649 102.568 108.649L102.578 108.659Z" fill="black"/>
<path d="M108.849 92.7094C108.289 92.7094 107.719 92.5494 107.209 92.2194C105.819 91.3094 105.439 89.4494 106.339 88.0694L118.609 69.3194C119.519 67.9394 121.379 67.5494 122.759 68.4494C124.149 69.3594 124.529 71.2194 123.629 72.5994L111.359 91.3494C110.779 92.2294 109.829 92.7094 108.849 92.7094Z" fill="black"/>
<path d="M133.76 135.109C133.08 135.109 132.4 134.879 131.84 134.409C117.95 122.779 115.4 116.809 115.71 113.849C116.31 108.099 124.74 101.019 131.93 98.249C139.65 95.279 154.59 86.999 161.8 77.399C162.79 76.069 164.68 75.809 166 76.799C167.33 77.799 167.59 79.679 166.6 80.999C157.63 92.939 140.09 101.539 134.09 103.839C127.71 106.289 121.93 112.109 121.68 114.459C121.81 116.259 127.2 122.689 135.69 129.789C136.96 130.849 137.13 132.749 136.07 134.019C135.48 134.729 134.62 135.089 133.77 135.089L133.76 135.109Z" fill="black"/>
</svg>
