<svg width="305" height="334" viewBox="0 0 305 334" fill="none" xmlns="http://www.w3.org/2000/svg">
<path d="M106.991 102C124.021 91.2498 167.031 85.4198 190.331 104.24C171.061 126.19 106.991 102 106.991 102Z" fill="white"/>
<path d="M281.591 268.13C279.711 262.87 270.331 250.86 259.821 221.58C249.311 192.299 227.911 130.349 216.271 115.709C206.281 103.149 188.641 89.7289 171.971 96.1889C171.971 96.2689 156.221 104.479 147.841 100.939C123.431 90.6089 125.581 94.7389 115.931 96.0589C106.28 97.3789 73.9503 136.419 61.6602 138.179C61.6602 138.179 58.1002 124.239 57.0202 113.899C56.7202 110.989 54.4502 112.709 54.4602 112.469C54.5002 111.329 53.5102 111.329 52.8902 111.329C48.5601 111.309 23.08 137.619 15.27 179.779C10.7199 204.38 29.19 208.07 48.5001 207.3C63.0702 206.72 86.2004 186.739 86.2004 186.739C83.7603 217.8 74.1203 253.13 57.9702 290.29C54.6202 299.76 58.3802 306.64 73.5903 305.37C92.9804 303.75 129.691 312.73 140.661 316.67C151.631 320.62 191.551 329.83 216.551 322.81C241.181 315.9 246.651 313.65 242.201 288.01C247.021 286.72 252.431 285.84 258.701 285.03C275.971 282.78 283.482 273.39 281.602 268.14L281.591 268.13Z" fill="#2D8C3C"/>
<path d="M71.07 140.478C70.13 140.478 69.21 140.038 68.63 139.218C67.67 137.868 67.98 135.998 69.33 135.028C75.7201 130.468 82.0401 123.588 88.1401 116.927C100.9 103.027 114.09 88.6673 130.46 91.9273C132.85 92.4073 135.07 93.6673 137.42 95.0073C143.9 98.6974 151.971 103.297 169.301 94.8173C177.021 91.0373 185.221 90.7073 193.651 93.8373C209.961 99.8974 222.621 117.497 226.771 127.168C227.421 128.688 226.721 130.458 225.191 131.108C223.671 131.758 221.911 131.058 221.251 129.528C217.221 120.117 205.341 104.567 191.561 99.4574C184.731 96.9174 178.131 97.1674 171.941 100.197C151.761 110.067 141.35 104.137 134.45 100.207C132.45 99.0674 130.73 98.0874 129.29 97.7974C116.22 95.1874 104.73 107.717 92.5602 120.978C86.2401 127.858 79.7101 134.978 72.81 139.898C72.28 140.278 71.67 140.458 71.07 140.458V140.478Z" fill="black"/>
<path d="M191.591 328.36C176.701 328.36 160.881 326.31 147.151 322.15C109.14 310.63 95.8603 308.91 87.6203 309.89C85.9803 310.08 84.4802 308.91 84.2902 307.26C84.1002 305.61 85.2702 304.12 86.9203 303.93C96.1503 302.84 109.75 304.55 148.901 316.41C176.641 324.82 214.641 324.18 231.871 315.01C233.341 314.23 235.151 314.79 235.931 316.25C236.711 317.71 236.151 319.53 234.691 320.31C224.661 325.65 208.751 328.36 191.601 328.36H191.591Z" fill="black"/>
<path d="M71.3898 308.921C65.6798 308.921 61.1498 306.881 58.4997 303.061C54.0197 296.601 55.3597 285.691 62.4698 270.631C74.7498 244.65 87.0099 171.52 84.9099 155.2C84.6999 153.56 85.8599 152.05 87.4999 151.84C89.1399 151.63 90.6499 152.79 90.8599 154.43C93.0899 171.74 80.8099 245.88 67.8998 273.201C59.8598 290.211 61.6498 297.071 63.4298 299.641C65.7198 302.941 70.4198 303.071 73.0098 302.851C74.6498 302.701 76.1099 303.941 76.2499 305.591C76.3899 307.241 75.1598 308.691 73.5098 308.831C72.7898 308.891 72.0798 308.921 71.3798 308.921H71.3898Z" fill="black"/>
<path d="M228.182 293.161L225.952 307.181C224.972 313.871 231.162 319.711 238.062 317.301C244.962 314.891 244.262 309.741 248.622 306.711C252.752 303.841 262.342 308.051 267.862 315.691C273.392 323.331 284.502 324.041 289.292 323.731C296.092 323.301 302.232 318.471 301.452 311.291C300.672 304.111 291.832 301.041 288.352 299.621C284.462 298.031 271.972 292.151 265.052 283.211C258.672 283.851 226.862 293.011 228.182 293.151V293.161Z" fill="white"/>
<path d="M287.501 326.78C282.58 326.78 271.47 325.79 265.43 317.439C260.3 310.349 252.35 307.759 250.33 309.169C249.1 310.029 248.41 311.189 247.54 312.649C246.04 315.179 244.18 318.329 239.05 320.129C234.96 321.56 230.58 320.809 227.33 318.129C224.02 315.399 222.35 311.029 222.98 306.739C223.22 305.099 224.75 303.969 226.38 304.209C228.02 304.449 229.15 305.969 228.91 307.609C228.58 309.869 229.41 312.069 231.14 313.499C232.1 314.289 234.16 315.479 237.06 314.459C240.12 313.389 241.06 311.799 242.37 309.589C243.41 307.829 244.59 305.839 246.89 304.239C252.04 300.659 263.13 304.049 270.28 313.919C275.66 321.36 287.721 320.81 289.081 320.73C292.191 320.53 295.081 319.189 296.791 317.149C298.111 315.579 298.671 313.709 298.441 311.609C297.901 306.679 291.421 304.089 287.941 302.689L287.191 302.389C284.48 301.279 270.53 295.219 262.65 285.039C261.64 283.729 261.88 281.849 263.19 280.829C264.5 279.819 266.38 280.059 267.4 281.369C274.49 290.529 287.951 296.219 289.461 296.839L290.161 297.119C294.481 298.849 303.471 302.449 304.401 310.959C304.811 314.699 303.761 318.179 301.381 321.01C298.591 324.33 294.241 326.41 289.461 326.71C289.041 326.74 288.361 326.77 287.491 326.77L287.501 326.78Z" fill="black"/>
<path d="M220.56 303.83C220.02 303.83 219.48 303.69 218.99 303.38C217.58 302.51 217.14 300.66 218.01 299.25C224.42 288.83 236.491 286.61 248.161 284.46C257.831 282.68 267.831 280.84 275.311 274.56C279.601 270.96 278.041 266.86 275.981 264.05C265.591 249.91 253.271 215.75 241.351 182.709C235.961 167.779 230.871 153.669 226.12 141.829C225.5 140.289 226.25 138.549 227.79 137.929C229.331 137.319 231.071 138.059 231.691 139.599C236.481 151.539 241.591 165.689 247.001 180.679C258.781 213.31 270.951 247.06 280.821 260.5C285.661 267.09 285.031 274.24 279.181 279.16C270.491 286.46 259.701 288.45 249.261 290.37C237.931 292.45 228.151 294.26 223.14 302.4C222.57 303.32 221.59 303.83 220.58 303.83H220.56Z" fill="black"/>
<path d="M213.37 292.75C212.07 292.75 210.86 291.89 210.49 290.57C200.52 255.679 197.41 214.379 197.38 213.959C197.26 212.309 198.5 210.869 200.15 210.749C201.81 210.649 203.24 211.869 203.36 213.519C203.39 213.929 206.46 254.629 216.25 288.91C216.71 290.5 215.78 292.16 214.19 292.62C213.91 292.7 213.64 292.74 213.36 292.74L213.37 292.75Z" fill="black"/>
<path d="M102.84 25.6681C101.12 7.88795 84.09 2.02792 71.6399 4.71793C59.1899 7.40795 54.4898 19.798 54.4898 19.798C54.4898 19.798 51.6998 38.1281 54.8198 49.6682C57.9399 61.2083 72.2099 66.3483 72.2099 66.3483C72.2099 66.3483 71.8799 90.3584 72.9499 102.698C74.0199 115.049 83.39 108.749 83.39 108.749L83.66 65.4783C83.66 65.4783 87.27 65.6383 94.0401 59.2083C100.81 52.7782 104.57 43.4282 102.85 25.6481L102.84 25.6681Z" fill="#82BE28"/>
<path d="M72.8207 72.2978C72.8907 80.5178 72.9407 89.9779 73.5307 96.7479C74.6007 109.098 83.9708 102.798 83.9708 102.798L84.1808 71.7778C79.5408 72.8278 75.8308 72.6378 72.8207 72.2878V72.2978Z" fill="white"/>
<path d="M77.3169 52.725C85.8878 52.6158 92.7293 44.1735 92.598 33.8687C92.4667 23.5638 85.4123 15.2986 76.8415 15.4078C68.2706 15.517 61.4291 23.9593 61.5604 34.2642C61.6917 44.569 68.7461 52.8342 77.3169 52.725Z" fill="white"/>
<path d="M56.6907 57.2371C55.7407 57.2371 54.8107 56.7871 54.2207 55.9471C47.1606 45.767 45.5706 31.517 50.1707 19.6269C50.7707 18.0869 52.5107 17.3169 54.0507 17.9169C55.5907 18.5169 56.3607 20.2569 55.7607 21.7969C51.9207 31.717 53.2807 44.067 59.1507 52.5271C60.0907 53.8871 59.7607 55.7571 58.4007 56.6971C57.8807 57.0571 57.2807 57.2371 56.6907 57.2371Z" fill="black"/>
<path d="M79.091 113.248C78.891 113.248 78.691 113.248 78.491 113.228L77.911 113.178C73.801 112.848 67.781 109.018 67.731 103.768L67.491 67.6481C65.271 66.9581 63.591 66.2781 61.5509 64.7281C60.2309 63.7281 59.9609 61.8481 60.9609 60.5281C61.9609 59.2081 63.841 58.9381 65.161 59.9381C66.711 61.0981 67.791 61.4881 70.501 62.2881C72.271 62.8081 73.471 64.4481 73.491 66.3681L73.741 103.728C73.751 104.968 76.541 107.058 78.401 107.198L78.981 107.248C79.3711 107.268 79.711 107.158 80.021 106.868C80.5311 106.388 80.8311 105.558 80.8211 104.648L80.4311 66.3281C80.4111 64.3681 81.6511 62.6581 83.4411 62.1581C94.0911 59.1881 98.7212 46.748 98.7712 46.618C100.251 42.708 100.971 38.568 100.921 34.2579C100.821 25.2079 97.3312 16.9278 91.3511 11.5378C86.8711 7.49779 81.3511 5.56778 75.791 6.07778C71.171 6.50779 66.801 8.6478 63.141 12.2678C61.9609 13.4378 60.0609 13.4278 58.9009 12.2478C57.7309 11.0678 57.7409 9.1678 58.9209 8.0078C63.581 3.39777 69.221 0.667753 75.241 0.10775C82.4811 -0.562254 89.6311 1.90776 95.3711 7.08779C102.591 13.5978 106.801 23.4779 106.921 34.198C106.981 39.258 106.131 44.138 104.391 48.708C104.181 49.278 99.0212 63.1281 86.4411 67.4981L86.8211 104.588C86.8411 107.198 85.8611 109.628 84.1111 111.258C82.7111 112.558 80.9511 113.258 79.091 113.258V113.248Z" fill="black"/>
<path d="M71.591 81.5976C58.071 84.4276 53.9209 95.2076 56.401 108.858L55.301 118.418C55.301 118.418 51.8509 142.418 66.511 145.678L74.6011 137.388C72.9311 135.738 74.6811 136.248 76.9011 136.068C84.2211 135.458 90.4812 119.378 93.0412 112.308C95.3612 105.918 97.9312 103.608 99.2612 100.058C103.921 87.5876 86.3711 78.4975 71.591 81.5976Z" fill="white"/>
<path d="M75.1912 153.869C74.8812 153.869 74.5612 153.819 74.2412 153.719C64.0311 150.319 57.1311 144.709 53.751 137.049C48.491 125.129 53.861 112.789 54.091 112.269C54.761 110.759 56.5411 110.079 58.0511 110.749C59.5611 111.419 60.2411 113.199 59.5711 114.709C59.5311 114.809 55.061 125.219 59.2611 134.669C61.9411 140.699 67.6111 145.189 76.1312 148.029C77.7012 148.549 78.5512 150.249 78.0312 151.819C77.6112 153.079 76.4412 153.869 75.1812 153.869H75.1912Z" fill="black"/>
<path d="M39.3402 211.299C36.0702 211.299 32.8101 210.919 29.5901 210.069C22.2001 208.109 16.5301 203.709 14.4 198.279C7.96 181.819 14.3 159.399 35.6102 123.319C36.4502 121.889 38.2902 121.419 39.7202 122.259C41.1502 123.099 41.6202 124.939 40.7802 126.369C15.15 169.769 16.2101 186.429 19.9901 196.089C21.4201 199.739 25.5801 202.799 31.1201 204.259C37.8402 206.039 56.4203 207.799 83.6804 185.749C84.9705 184.709 86.8605 184.909 87.9005 186.199C88.9405 187.489 88.7405 189.379 87.4505 190.419C79.0404 197.219 59.2303 211.289 39.3302 211.299H39.3402Z" fill="black"/>
<path d="M57.7804 185.138C56.9104 185.138 56.0604 184.768 55.4604 184.048C54.4104 182.768 54.5904 180.878 55.8704 179.828C56.0004 179.728 68.5805 169.288 73.9405 159.248C74.7205 157.788 76.5405 157.228 78.0005 158.018C79.4605 158.798 80.0105 160.618 79.2305 162.078C73.3105 173.178 60.2404 184.008 59.6904 184.458C59.1304 184.918 58.4604 185.138 57.7804 185.138Z" fill="black"/>
<path d="M76.7299 140.439C75.0499 140.439 73.3299 140.119 71.5899 139.469C69.0498 138.529 66.7298 136.679 64.6998 133.959C63.7098 132.629 63.9798 130.749 65.3098 129.759C66.6398 128.769 68.5198 129.039 69.5098 130.369C70.8398 132.149 72.2399 133.319 73.6799 133.849C75.8799 134.659 77.8599 134.639 79.7399 133.769C84.5599 131.539 87.0999 124.699 87.1199 124.629C87.1399 124.559 87.1699 124.489 87.1999 124.429C92.31 112.949 86.8699 107.519 86.6399 107.289C85.4999 106.189 85.3899 104.379 86.4199 103.169C87.4399 101.959 89.22 101.749 90.49 102.689L94.28 105.519C95.59 103.989 97.06 101.249 95.77 97.4285C94.28 93.0585 90.08 87.1684 84.3699 84.5484C80.5999 82.8184 76.6799 82.7584 72.7299 84.3584C72.6999 84.3684 72.6599 84.3884 72.6299 84.3984C59.0998 89.3084 54.8598 98.4985 59.6898 112.479C60.2298 114.049 59.3998 115.749 57.8298 116.299C56.2598 116.839 54.5498 116.009 54.0097 114.439C48.1497 97.4585 54.0098 84.7884 70.5198 78.7784C75.9699 76.5884 81.6199 76.6984 86.8599 79.0984C94.23 82.4684 99.49 89.7684 101.44 95.4985C104.24 103.749 99.19 109.829 96.13 111.889C95.83 112.089 95.51 112.229 95.18 112.309C95.72 116.029 95.33 120.859 92.72 126.769C92.3 127.889 89.02 136.049 82.2899 139.179C80.4999 140.009 78.6499 140.429 76.7499 140.429L76.7299 140.439Z" fill="black"/>
</svg>
