<svg width="492" height="250" viewBox="0 0 492 250" fill="none" xmlns="http://www.w3.org/2000/svg">
<path d="M228.705 6.78653C199.375 0.376193 188.555 29.2177 183.495 37.7416C177.975 47.0231 162.285 66.6329 152.495 76.6223C147.495 81.7266 156.495 88.5856 163.495 91.5764C170.495 94.5673 202.225 102.692 211.225 99.7015C220.225 96.7107 227.535 85.1362 233.225 67.7994C238.915 50.4626 241.315 45.5576 244.075 34.2722C234.125 16.2874 230.895 11.1332 228.705 6.7965V6.78653Z" fill="#82BE28"/>
<path d="M151.494 84.598C151.074 84.598 150.654 84.5083 150.244 84.3289C148.734 83.641 148.074 81.8664 148.764 80.361C153.044 71.0396 164.384 57.551 170.464 50.3132C172.144 48.3094 173.474 46.7342 174.084 45.9167C174.124 45.8668 174.164 45.817 174.204 45.7672C177.454 41.9788 179.894 37.3231 182.474 32.3882C189.014 19.8865 196.424 5.71003 219.744 2.04128C221.384 1.78208 222.914 2.89865 223.174 4.53364C223.434 6.16862 222.314 7.69394 220.674 7.95315C200.344 11.1533 194.254 22.8076 187.794 35.1597C185.184 40.1444 182.494 45.2986 178.814 49.5954C178.094 50.5425 176.804 52.0778 175.054 54.1614C169.144 61.1898 158.154 74.2697 154.204 82.8634C153.704 83.96 152.614 84.608 151.474 84.608L151.494 84.598Z" fill="black"/>
<path d="M228.484 8.0431C228.484 8.0431 238.454 3.06836 254.424 3.06836C276.374 3.06836 298.324 11.024 292.004 18.6506C285.684 26.2772 205.214 33.9038 228.484 8.0431Z" fill="white"/>
<path d="M332.215 151.573C325.175 101.347 314.605 45.7276 311.225 30.9131C295.225 1.00483 284.135 4.81315 284.135 4.81315C277.415 25.9284 232.735 21.0733 228.705 6.78709C228.705 6.78709 224.445 6.69737 218.225 14.962C211.655 23.6952 203.085 41.2813 201.655 56.036C200.225 70.7908 189.325 127.537 189.175 128.623C188.975 130.129 188.765 131.604 188.555 133.06C222.665 137.456 292.725 146.489 332.205 151.573H332.215Z" fill="#82BE28"/>
<path d="M258.504 22.1688C246.954 22.1688 234.604 18.6397 228.854 13.326C227.644 12.1994 227.564 10.3052 228.694 9.09892C229.824 7.89262 231.724 7.82284 232.934 8.93941C237.834 13.4755 251.894 17.4334 264.234 15.8382C268.994 15.2301 275.284 13.5154 278.244 8.86963C279.134 7.47391 280.984 7.05519 282.384 7.94247C283.784 8.82975 284.194 10.6741 283.314 12.0698C279.984 17.3038 273.654 20.6535 265.004 21.7701C262.904 22.0392 260.714 22.1688 258.504 22.1688Z" fill="black"/>
<path d="M226.303 97.8173C215.503 85.2259 183.953 89.0542 183.953 89.0542C178.133 98.0466 158.843 88.5059 158.843 88.5059C158.843 88.5059 146.773 104.168 165.843 121.554C175.763 130.597 190.673 127.616 203.733 124.595C216.803 121.564 245.483 113.509 245.483 113.509C245.483 113.509 237.083 110.409 226.293 97.8173H226.303Z" fill="white"/>
<path d="M183.655 130.706C176.625 130.706 169.305 128.623 161.505 121.734C153.125 114.326 148.155 100.419 154.865 88.1567C155.655 86.7111 157.485 86.1728 158.935 86.9603C160.395 87.7479 160.925 89.5723 160.135 91.0179C154.985 100.439 159.045 111.565 165.495 117.257C177.035 127.456 186.415 125.213 198.295 122.372C199.235 122.142 200.185 121.923 201.145 121.704C213.995 118.723 230.555 114.037 230.725 113.987C232.315 113.539 233.975 114.456 234.435 116.051C234.885 117.636 233.965 119.291 232.365 119.75C232.195 119.8 215.485 124.525 202.505 127.536C201.565 127.755 200.625 127.975 199.695 128.204C194.465 129.45 189.145 130.726 183.665 130.726L183.655 130.706Z" fill="black"/>
<path d="M349.494 123.479C355.494 119.491 361.494 115.503 356.494 92.5736C351.494 69.6439 344.674 72.8142 335.674 39.9151C326.674 7.01604 293.144 3.81585 284.144 4.8128C286.424 19.1787 276.584 28.4004 282.274 48.2296C286.794 64.0012 301.504 88.5858 313.504 93.5705C330.504 90.5797 343.504 124.476 349.504 123.479H349.494Z" fill="#82BE28"/>
<path d="M250.264 77.2207C250.264 77.2207 284.234 62.8847 302.504 68.647C318.534 73.7015 321.934 77.9983 321.504 83.6011C321.744 94.6771 289.154 94.707 280.374 95.7738C271.594 96.8405 250.264 77.2207 250.264 77.2207Z" fill="white"/>
<path d="M314.505 94.5688C313.465 94.5688 312.455 94.0305 311.895 93.0634C311.075 91.6278 311.575 89.8034 313.015 88.986C317.475 86.4437 317.045 83.9315 316.905 83.104C316.135 78.6377 308.635 71.9881 300.965 70.6023C285.435 68.1798 254.255 79.9537 253.945 80.0733C252.395 80.6615 250.665 79.8938 250.075 78.3486C249.485 76.8033 250.255 75.0786 251.805 74.4904C253.145 73.982 284.795 62.0187 301.975 64.7104C310.715 66.2956 321.445 74.0617 322.825 82.107C323.305 84.8985 323.055 90.1723 315.995 94.19C315.525 94.4592 315.015 94.5888 314.505 94.5888V94.5688Z" fill="black"/>
<path d="M312.015 91.2081C301.585 106.641 276.735 87.001 257.385 77.9687C250.695 74.8483 238.135 72.4855 227.045 68.0491C215.575 59.1863 208.535 57.5114 198.935 61.878C178.755 71.0499 178.185 90.6598 179.625 93.6606C181.065 96.6614 183.775 92.544 200.895 91.0486C223.525 89.0646 225.945 97.8078 242.505 110.529C259.575 123.649 294.675 140.636 311.505 139.44C332.675 137.935 339.665 118.883 339.665 118.883C339.665 118.883 327.535 94.2288 312.015 91.2081Z" fill="white"/>
<path d="M305.934 142.52C297.684 142.52 286.774 139.818 275.424 134.903C261.974 129.081 249.544 120.896 240.424 111.854C225.544 97.0992 213.294 87.1497 191.194 93.5999C189.594 94.0685 187.934 93.1513 187.474 91.5661C187.004 89.981 187.924 88.3161 189.514 87.8575C214.684 80.5101 229.384 92.4634 244.664 107.607C263.414 126.2 293.214 137.725 308.254 136.439C329.654 134.614 337.474 118.862 337.804 118.194C338.524 116.709 340.304 116.081 341.804 116.789C343.294 117.497 343.935 119.271 343.225 120.757C342.844 121.554 333.714 140.267 308.764 142.4C307.864 142.48 306.924 142.52 305.944 142.52H305.934Z" fill="black"/>
<path d="M173.233 95.7739C161.013 95.7739 150.883 87.4295 148.773 82.8535C148.083 81.3581 148.733 79.5736 150.243 78.8857C151.743 78.1879 153.533 78.8458 154.223 80.3512C155.373 82.8336 164.813 91.0983 175.953 89.6028C175.843 84.1197 176.603 71.7576 184.833 63.6624C190.943 57.6509 199.753 55.308 211.013 56.7038C212.653 56.9131 213.823 58.3986 213.623 60.0435C213.413 61.6785 211.913 62.835 210.273 62.6455C200.933 61.4891 193.803 63.2537 189.063 67.8994C180.513 76.2837 182.053 91.5568 182.063 91.7064C182.223 93.1819 181.273 94.5477 179.833 94.9265C177.583 95.5047 175.373 95.7639 173.223 95.7639L173.233 95.7739Z" fill="black"/>
<path d="M300.535 97.6977C284.575 97.6977 266.685 88.5657 254.765 82.4744C252.605 81.3777 250.575 80.3309 248.815 79.4835C241.585 75.9843 226.375 73.0433 226.225 73.0034C224.595 72.6944 223.535 71.1192 223.845 69.5041C224.155 67.8891 225.735 66.8224 227.355 67.1314C228.015 67.261 243.485 70.2519 251.425 74.1001C253.245 74.9774 255.305 76.0341 257.495 77.1507C272.465 84.7972 297.525 97.598 313.125 88.7152C314.565 87.8977 316.395 88.3962 317.215 89.8318C318.035 91.2674 317.535 93.0918 316.095 93.9093C311.355 96.611 306.055 97.6977 300.535 97.6977Z" fill="black"/>
<path d="M347.614 124.525C347.154 124.525 346.684 124.505 346.214 124.455C341.314 123.996 338.644 119.311 335.544 113.867C331.064 106.001 325.984 97.0887 313.364 96.5404C311.704 96.4706 310.424 95.0749 310.494 93.4199C310.564 91.765 311.984 90.5089 313.624 90.5587C329.564 91.2466 336.034 102.612 340.764 110.906C342.844 114.555 344.984 118.324 346.774 118.483C349.024 118.692 350.814 118.104 352.244 116.679C354.844 114.087 356.074 108.902 355.514 102.791C354.684 93.7091 348.324 79.6123 343.224 68.287C342.444 66.5623 341.684 64.8775 340.964 63.2525C338.594 57.9188 336.654 52.3659 334.774 46.9924C332.544 40.602 330.224 33.9922 327.214 27.891C321.934 17.2037 306.904 11.9199 296.064 8.86931C294.474 8.42068 293.544 6.76576 293.994 5.18062C294.444 3.59548 296.104 2.66833 297.694 3.11695C309.644 6.47665 326.264 12.4284 332.604 25.259C335.774 31.6893 338.154 38.4685 340.444 45.0384C342.284 50.2922 344.174 55.7256 346.454 60.8399C347.174 62.4549 347.924 64.1298 348.704 65.8445C354.274 78.1867 360.584 92.1738 361.494 102.263C362.224 110.238 360.394 117.037 356.494 120.926C354.114 123.288 351.074 124.515 347.634 124.515L347.614 124.525Z" fill="black"/>
<path d="M488.695 174.732C488.565 174.732 488.435 174.732 488.305 174.712L2.61456 112.114C0.974559 111.905 -0.185441 110.4 0.0245588 108.765C0.234559 107.13 1.74456 105.983 3.38456 106.183L489.085 168.781C490.725 168.99 491.885 170.495 491.675 172.13C491.475 173.636 490.185 174.742 488.705 174.742L488.695 174.732Z" fill="black"/>
</svg>
