<svg width="492" height="253" viewBox="0 0 492 253" fill="none" xmlns="http://www.w3.org/2000/svg">
<path d="M220.295 23.9669C228.36 7.80674 251.605 3.02372 267.555 3.84424C309.721 5.9956 294.161 36.1146 283.585 39.867C254.847 50.0734 204.725 55.1766 220.295 23.9669Z" fill="white"/>
<path d="M182.06 144.723C209.798 146.394 227.849 140.37 227.849 140.37C227.849 140.37 258.348 144.823 272.287 146.394C301.476 167.967 326.351 153.408 326.351 153.408L346.834 156.05C346.004 150.006 344.703 142.221 343.842 136.087C364.776 88.0169 333.516 48.8121 333.516 48.8121C343.932 40.1167 337.368 31.101 331.254 27.3086C322.979 22.1853 323.359 -0.258825 292.93 3.4235C288.988 3.9038 269.455 4.56422 242.989 35.3036C238.796 30.2905 232.122 19.984 229.91 16.0915C222.406 2.91318 212.209 7.73622 206.285 18.9233C203.594 24.0165 198.901 30.7307 200.792 37.1248C187.584 46.2005 179.218 67.524 176.226 72.7573C167.281 88.4071 146.558 110.581 163.559 136.087C166.58 140.61 173.895 143.522 182.05 144.713L182.06 144.723Z" fill="#82BE28"/>
<path d="M273.757 80.4535C273.757 80.4535 299.643 69.8968 316.364 74.7499C331.033 79.0126 333.845 96.3535 321.167 98.7751C316.694 99.6356 313.432 94.1722 308.809 93.4117C300.324 92.0208 291.098 93.902 288.566 90.9601C283.743 85.3466 273.767 80.4435 273.767 80.4435L273.757 80.4535Z" fill="white"/>
<path d="M306.969 161.292C295.442 161.292 281.393 157.45 269.065 147.694C243.009 127.061 221.205 113.352 207.657 109.089C203.914 107.909 200.982 105.097 199.591 101.374C197.78 96.5013 198.811 90.5475 202.483 84.6038C208.097 75.5281 218.864 70.645 233.613 70.4849C233.753 70.4849 233.883 70.4849 234.023 70.4849C246.841 70.4849 267.164 76.959 289.888 88.2861C292.1 89.3868 295.242 89.1567 298.574 88.9165C305.979 88.3762 316.125 87.6457 319.627 103.436C319.987 105.057 318.967 106.658 317.346 107.018C315.725 107.378 314.124 106.358 313.764 104.737C311.382 94.0097 306.459 94.37 299.004 94.9003C295.012 95.1905 290.889 95.4907 287.207 93.6495C265.593 82.8727 245.761 76.4787 234.023 76.4787C233.903 76.4787 233.793 76.4787 233.673 76.4787C224.897 76.5787 213.24 78.61 207.587 87.7558C204.905 92.0885 204.064 96.1811 205.215 99.2831C205.945 101.264 207.496 102.745 209.458 103.366C227.699 109.109 253.966 128.091 272.788 142.991C289.738 156.409 309.221 156.709 318.166 153.637C332.105 148.854 340.4 140.119 345.043 125.33C351.447 104.947 345.724 78.8301 338.889 62.6599C338.239 61.129 338.959 59.3679 340.48 58.7275C342.011 58.0871 343.772 58.7975 344.413 60.3185C351.647 77.4293 357.661 105.187 350.767 127.131C345.564 143.701 335.827 153.928 320.108 159.321C316.425 160.582 311.922 161.302 306.949 161.302L306.969 161.292Z" fill="black"/>
<path d="M258.668 57.2378C257.577 57.2378 256.516 56.6375 255.986 55.5868C255.235 54.1059 255.826 52.3047 257.307 51.5543C273.537 43.3391 286.385 45.3103 299.994 47.3916C301.455 47.6118 302.936 47.8419 304.436 48.062C315.523 49.653 323.619 49.9632 329.662 46.5811C332.344 45.0802 334.295 41.668 334.405 38.2859C334.485 35.8944 333.725 32.4922 329.632 29.8305C326.52 27.8093 322.258 25.0375 321.127 17.873C319.706 8.8573 311.021 6.49581 303.986 6.10556C282.433 4.91481 265.422 13.9405 245.269 37.2652C244.709 37.9156 243.888 38.2959 243.018 38.3059C242.147 38.2859 241.327 37.9457 240.756 37.2952C240.466 36.965 233.492 29.1001 228.028 20.5347C227.138 19.1338 227.548 17.2826 228.949 16.3921C230.35 15.5015 232.201 15.9118 233.091 17.3126C236.474 22.606 240.566 27.7492 243.038 30.7211C263.361 8.04679 281.852 -1.13901 304.326 0.111779C321.958 1.08239 326.14 11.0687 327.061 16.9324C327.771 21.4553 330.153 22.9962 332.904 24.7874C337.928 28.0494 340.589 32.9125 340.409 38.466C340.229 44.0195 337.157 49.2528 332.594 51.8044C325.07 56.0171 315.914 55.7569 303.586 53.9858C302.075 53.7656 300.574 53.5355 299.093 53.3154C285.915 51.2941 274.538 49.553 260.028 56.8976C259.598 57.1178 259.128 57.2178 258.678 57.2178L258.668 57.2378Z" fill="black"/>
<path d="M233.662 55.6169C233.612 55.6169 233.552 55.6169 233.501 55.6169C208.286 54.3061 199.96 45.4905 197.429 38.336C194.927 31.2915 200.861 19.2539 207.705 11.4991C208.806 10.2583 210.697 10.1382 211.938 11.2389C213.179 12.3396 213.299 14.2308 212.198 15.4716C206.034 22.456 201.681 32.4022 203.072 36.3347C205.794 44.0196 216.711 48.7426 233.802 49.6331C235.453 49.7232 236.734 51.1341 236.643 52.7851C236.563 54.3861 235.233 55.6269 233.652 55.6269L233.662 55.6169Z" fill="black"/>
<path d="M193.156 147.956C191.345 147.956 189.604 147.906 187.943 147.816C167.64 146.646 159.425 133.637 156.843 128.104C148.208 109.622 160.446 92.6915 167.02 83.5958C170.492 78.8027 172.843 73.1692 175.125 67.7257C177.877 61.1716 180.708 54.3873 185.511 49.0339C186.622 47.8032 188.513 47.6931 189.754 48.8038C190.985 49.9145 191.095 51.8057 189.984 53.0465C185.862 57.6494 183.34 63.6732 180.658 70.0472C178.247 75.8008 175.745 81.7646 171.883 87.118C163.778 98.325 155.693 111.463 162.287 125.562C164.938 131.236 171.833 140.882 188.293 141.822C203.533 142.703 222.785 139.401 232.601 135.709C234.152 135.128 235.883 135.909 236.474 137.46C237.054 139.011 236.273 140.742 234.722 141.332C224.236 145.285 206.965 147.966 193.176 147.966L193.156 147.956Z" fill="black"/>
<path d="M320.918 101.145C318.927 101.145 316.586 100.835 313.824 100.084C312.223 99.654 311.282 98.003 311.713 96.402C312.153 94.8009 313.794 93.8604 315.395 94.2906C320.228 95.6015 323.91 95.3813 325.481 93.6702C326.732 92.3194 326.852 89.7978 325.821 86.926C324.15 82.2831 319.287 76.8796 312.583 75.9691C303.237 74.7083 286.106 79.5113 285.926 79.5613C284.325 80.0116 282.674 79.081 282.224 77.49C281.774 75.899 282.694 74.238 284.295 73.7877C285.046 73.5776 302.797 68.5944 313.384 70.0153C322.619 71.2561 329.124 78.3806 331.465 84.8847C333.306 89.9779 332.726 94.6609 329.894 97.7328C328.313 99.4439 325.571 101.135 320.918 101.135V101.145Z" fill="black"/>
<path d="M489.003 177.403C488.873 177.403 488.743 177.403 488.613 177.383L325.98 156.38C324.339 156.17 323.179 154.659 323.389 153.018C323.599 151.377 325.11 150.216 326.751 150.426L489.384 171.429C491.025 171.64 492.185 173.15 491.975 174.792C491.775 176.302 490.484 177.413 489.003 177.413V177.403Z" fill="black"/>
<path d="M272.307 149.395C272.177 149.395 272.046 149.395 271.916 149.375L244.179 145.793C242.538 145.583 241.377 144.072 241.587 142.431C241.797 140.79 243.308 139.639 244.949 139.839L272.687 143.422C274.328 143.632 275.489 145.143 275.278 146.784C275.078 148.295 273.788 149.405 272.307 149.405V149.395Z" fill="black"/>
<path d="M161.156 135.028C161.026 135.028 160.896 135.028 160.766 135.008L2.61621 114.555C0.975174 114.345 -0.185558 112.834 0.0245743 111.193C0.234707 109.552 1.74566 108.401 3.3867 108.601L161.547 129.044C163.188 129.254 164.348 130.765 164.138 132.406C163.938 133.917 162.647 135.028 161.166 135.028H161.156Z" fill="black"/>
</svg>
