<svg width="492" height="269" viewBox="0 0 492 269" fill="none" xmlns="http://www.w3.org/2000/svg">
<path d="M225.943 26.602C225.943 26.602 235.919 21.6089 251.899 21.6089C273.862 21.6089 295.826 29.5938 289.502 37.2485C283.178 44.9032 202.659 52.5578 225.943 26.602Z" fill="white"/>
<path d="M325.394 127.464C315.168 55.0096 301.539 28.5235 301.539 28.5235C301.539 28.5235 297.217 24.0407 293.414 23.4003C276.934 20.6086 286.34 36.4383 252.939 36.4383C246.536 36.4383 237.35 34.1069 234.308 29.434C232.137 26.112 231.306 22.4297 228.304 22.4297C211.364 22.4297 199.217 62.5042 197.175 79.5146C194.724 100.027 193.333 144.194 193.333 145.295C193.333 154.51 195.214 150.218 207.292 153.51C218.298 156.512 288.341 158.513 335.49 175.043C339.612 176.484 338.072 173.172 337.571 168.829C335.26 148.697 331.538 170.911 325.404 127.474L325.394 127.464Z" fill="#82BE28"/>
<path d="M192.723 120.91C172.151 123.531 151.138 99.2366 146.465 95.3042C141.792 91.3718 160.163 85.3181 176.683 53.3786C193.203 21.4491 227.915 21.5992 227.915 21.5992C227.915 21.5992 226.784 34.447 252.94 36.4282C279.096 38.4094 282.568 26.4521 282.568 26.4521" fill="#82BE28"/>
<path d="M170.98 66.3663C170.429 66.3663 169.879 66.2162 169.379 65.906C167.978 65.0255 167.557 63.1643 168.438 61.7635C170.389 58.6816 172.26 55.3896 174.021 52.0075C191.032 19.1274 225.813 18.6071 227.884 18.6071H227.934C228.775 18.6071 229.575 18.9673 230.136 19.5877C230.696 20.2081 230.976 21.0386 230.906 21.8691C230.776 25.2311 235.249 32.0853 253.17 33.4361C276.114 35.1672 279.676 25.6414 279.716 25.5413C280.176 23.9503 281.827 23.0698 283.428 23.5301C285.019 23.9904 285.93 25.6914 285.46 27.2824C285.299 27.8227 281.577 39.6399 258.473 39.6399C256.672 39.6399 254.761 39.5699 252.72 39.4098C240.972 38.5193 232.747 35.3973 228.265 30.1241C226.614 28.1729 225.763 26.2618 225.333 24.7208C217.248 25.3712 192.443 29.4537 179.355 54.7492C177.524 58.2913 175.562 61.7234 173.521 64.9554C172.951 65.856 171.98 66.3563 170.98 66.3563V66.3663Z" fill="black"/>
<path d="M133.347 128.704C137.309 133.597 141.952 138.56 147.385 143.513C166.277 154.41 174.462 132.036 166.397 120.109C158.332 108.192 146.775 83.0165 144.183 68.2575C142.322 57.701 115.856 48.3053 113.355 54.5891C113.355 54.5891 101.717 89.6605 133.347 128.704Z" fill="white"/>
<path d="M156.81 149.415C155.139 149.415 153.408 149.155 151.617 148.624C150.026 148.154 149.115 146.483 149.585 144.892C150.056 143.301 151.727 142.401 153.318 142.861C158.891 144.512 162.093 142.08 163.804 139.749C167.316 134.946 167.366 126.881 163.904 121.778C155.379 109.18 143.862 83.8249 141.22 68.7656C140.59 65.1935 134.967 60.6607 127.532 57.7489C121.358 55.3274 117.136 55.2974 116.105 55.8277C115.154 59.1698 107.62 89.2682 132.745 123.039C133.736 124.37 133.456 126.251 132.125 127.241C130.794 128.232 128.913 127.952 127.922 126.621C99.4448 88.3376 110.021 55.0272 110.492 53.6264C110.512 53.5664 110.532 53.5163 110.552 53.4663C111.382 51.365 113.724 49.0136 120.107 49.664C129.773 50.6546 145.473 58.3693 147.124 67.725C149.605 81.8436 160.852 106.569 168.867 118.416C173.79 125.69 173.69 136.387 168.637 143.301C165.705 147.304 161.543 149.415 156.8 149.415H156.81Z" fill="black"/>
<path d="M204.479 189.841C204.179 189.841 203.879 189.801 203.579 189.701C195.904 187.28 190.761 181.706 190.151 175.152C188.83 160.864 190.711 146.415 192.692 131.126C194.994 113.415 197.365 95.0935 195.184 74.7411C195.004 73.0901 196.204 71.6092 197.845 71.4391C199.486 71.279 200.977 72.4597 201.147 74.1007C203.399 95.1636 200.977 113.835 198.636 131.896C196.695 146.845 194.864 160.974 196.124 174.602C196.695 180.766 203.349 183.327 205.38 183.968C206.961 184.468 207.842 186.149 207.341 187.73C206.941 189.011 205.75 189.831 204.479 189.831V189.841Z" fill="black"/>
<path d="M337.902 180.206C336.251 180.206 334.91 178.875 334.9 177.224C334.7 142.863 318.28 101.017 318.12 100.607C317.509 99.0661 318.26 97.325 319.801 96.7146C321.341 96.1042 323.083 96.8547 323.693 98.3956C324.383 100.147 340.693 141.682 340.903 177.194C340.903 178.855 339.573 180.206 337.922 180.216H337.902V180.206Z" fill="black"/>
<path d="M488.994 192.953C488.863 192.953 488.733 192.953 488.603 192.933L2.61616 130.105C0.975155 129.895 -0.185555 128.384 0.0245738 126.743C0.234702 125.102 1.73562 123.941 3.38663 124.151L489.384 186.98C491.025 187.19 492.185 188.701 491.975 190.342C491.775 191.853 490.484 192.963 489.004 192.963L488.994 192.953Z" fill="black"/>
<path d="M198.415 144.985C230.91 144.985 257.251 136.307 257.251 125.603C257.251 114.899 230.91 106.221 198.415 106.221C165.921 106.221 139.579 114.899 139.579 125.603C139.579 136.307 165.921 144.985 198.415 144.985Z" fill="#2D8C3C"/>
<path d="M198.415 147.987C168.437 147.987 136.587 140.142 136.587 125.603C136.587 111.064 168.447 103.219 198.415 103.219C228.384 103.219 260.253 111.064 260.253 125.603C260.253 140.142 228.394 147.987 198.415 147.987ZM198.415 109.223C163.824 109.223 142.591 118.769 142.591 125.603C142.591 132.437 163.834 141.983 198.415 141.983C232.996 141.983 254.249 132.437 254.249 125.603C254.249 118.769 233.006 109.223 198.415 109.223Z" fill="black"/>
<path d="M241.771 142.172C250.466 143.513 248.585 152.789 245.774 154.37C237.799 158.862 219.788 161.994 198.835 161.994C179.593 161.994 162.823 159.353 154.048 155.44C149.895 153.589 146.453 144.794 156.379 142.993C155.108 138.97 157.269 131.736 167.596 127.643C169.067 118.958 182.135 113.585 193.342 114.876C200.376 111.544 210.572 112.084 216.646 117.917C226.502 118.548 234.987 124.521 233.956 131.446C240.39 133.557 241.781 139.451 241.781 142.172H241.771Z" fill="white"/>
<path d="M198.836 165.006C179.895 165.006 162.264 162.394 152.828 158.192C149.116 156.541 146.504 151.908 146.985 147.875C147.215 145.964 148.536 141.372 155.84 140.051C157.471 139.771 159.032 140.841 159.332 142.472C159.622 144.103 158.542 145.664 156.911 145.964C155.21 146.274 153.138 146.975 152.938 148.596C152.748 150.167 154.059 152.178 155.26 152.708C163.975 156.591 180.675 159.002 198.826 159.002C218.638 159.002 236.479 156.161 244.284 151.758C244.674 151.418 245.435 149.486 244.955 147.765C244.804 147.235 244.354 145.614 241.302 145.144C239.841 144.914 238.761 143.663 238.761 142.182C238.761 141.572 238.601 136.148 232.997 134.307C231.426 133.787 230.566 132.096 231.076 130.515C231.586 128.934 233.287 128.083 234.868 128.594C241.242 130.685 243.804 135.848 244.524 139.761C248.006 140.951 250.298 143.523 250.938 147.035C251.649 150.967 249.988 155.42 247.226 156.981C238.451 161.924 219.899 164.996 198.816 164.996L198.836 165.006Z" fill="black"/>
<path d="M167.597 130.646C167.427 130.646 167.267 130.636 167.097 130.606C165.466 130.326 164.365 128.785 164.636 127.144C166.457 116.387 181.396 110.473 193.683 111.894C195.334 112.084 196.515 113.575 196.325 115.216C196.135 116.857 194.644 118.058 193.003 117.858C182.567 116.647 171.66 121.65 170.559 128.144C170.309 129.605 169.038 130.646 167.607 130.646H167.597Z" fill="black"/>
<path d="M205.601 119.067C212.315 117.256 222.581 125.881 221.58 128.262C220.58 130.644 208.452 136.557 204.74 135.247C199.157 133.275 198.887 120.878 205.601 119.067Z" fill="#82BE28"/>
<path d="M170.199 140.302C170.949 139.361 178.204 131.106 183.487 133.487C188.77 135.869 193.703 144.384 191.152 144.984C188.6 145.585 168.168 142.833 170.199 140.302Z" fill="#82BE28"/>
<path d="M217.958 180.606L217.708 147.866H179.254L179.284 180.346C179.284 184.148 181.666 187.53 185.228 188.851C191.972 192.123 203.979 192.123 211.654 189.311C215.436 188.12 217.978 184.578 217.948 180.616L217.958 180.606Z" fill="#2D8C3C"/>
<path d="M257.191 126.251C256.15 136.658 230.234 144.983 198.405 144.983C168.997 144.983 144.632 137.868 140.269 128.583C141.5 159.742 167.276 181.365 198.905 181.365C230.535 181.365 257.601 158.661 257.601 126.241H257.191V126.251Z" fill="#2D8C3C"/>
<path d="M201.727 184.319C200.126 184.319 198.795 183.058 198.725 181.437C198.655 179.776 199.946 178.385 201.597 178.315C228.724 177.205 249.276 159.994 253.709 136.069C250.417 138.451 245.914 140.572 240.261 142.373C228.944 145.985 214.085 147.977 198.415 147.977C174.891 147.977 154.738 143.634 144.292 136.83C148.455 157.102 164.574 172.832 186.568 177.165C188.189 177.485 189.25 179.066 188.929 180.687C188.609 182.308 187.038 183.368 185.407 183.048C157.69 177.585 138.348 155.741 137.288 128.685C137.228 127.254 138.188 125.993 139.579 125.653C140.97 125.313 142.401 126.003 143.011 127.294C146.393 134.508 168.047 141.963 198.425 141.963C233.316 141.963 253.559 132.487 254.219 125.933C254.369 124.402 255.66 123.232 257.211 123.232H257.621C259.282 123.232 260.623 124.572 260.623 126.233C260.623 142.043 254.519 156.612 243.423 167.258C232.656 177.595 217.897 183.639 201.857 184.299C201.817 184.299 201.777 184.299 201.737 184.299L201.727 184.319Z" fill="black"/>
<path d="M317.949 115.296C317.949 115.296 328.465 142.002 324.463 146.625C320.471 151.248 264.656 156.721 264.656 156.721C264.656 156.721 251.348 147.986 236.149 148.977C214.266 150.397 218.888 164.756 218.888 164.756C218.888 164.756 188.75 171.52 215.967 193.524C233.738 207.893 244.254 177.954 276.894 183.318C309.534 188.681 366.789 185.489 360.005 148.977C353.221 112.474 345.706 99.4964 345.706 99.4964L317.949 115.296Z" fill="white"/>
<path d="M224.322 198.156C217.327 198.156 209.863 195.205 203.219 186.349C200.187 182.297 199.296 178.254 200.597 174.322C203.099 166.717 213.525 160.553 234.388 154.32C235.979 153.839 237.65 154.75 238.12 156.331C238.59 157.922 237.69 159.593 236.109 160.063C229.385 162.074 208.942 168.178 206.301 176.193C205.65 178.174 206.211 180.315 208.022 182.737C215.406 192.593 224.522 194.684 235.889 189.121C256.962 178.815 272.621 179.945 274.202 180.085C295.735 180.986 320.471 181.236 340.713 176.263C343.785 175.512 346.847 173.851 349.578 171.48C353.611 167.968 356.062 162.094 356.312 155.35C356.553 149.076 355.032 142.672 353.311 136.108C347.487 113.825 340.363 91.6212 332.148 70.108C331.557 68.5571 332.328 66.826 333.879 66.2357C335.43 65.6453 337.161 66.4258 337.751 67.9667C346.046 89.68 353.231 112.104 359.114 134.597C360.945 141.612 362.576 148.496 362.306 155.58C361.986 163.965 358.784 171.41 353.511 176.013C350.069 179.015 346.136 181.116 342.134 182.097C321.131 187.26 295.825 187.01 273.852 186.089C273.792 186.089 273.722 186.089 273.662 186.079C273.522 186.059 258.613 184.688 238.52 194.524C234.388 196.545 229.475 198.156 224.312 198.156H224.322Z" fill="black"/>
<path d="M219.669 165.927C219.189 165.927 218.689 165.807 218.238 165.557C214.976 163.786 215.076 158.272 215.847 155.861C217.138 151.778 220.83 146.635 231.056 145.254C242.153 143.763 257.803 147.606 263.246 152.809C295.155 151.588 316.909 148.927 319.72 147.015C321.121 145.565 320.521 142.182 319.991 139.181C319.91 138.74 319.84 138.31 319.77 137.89C317.669 125.242 312.656 109.753 308.233 96.0943C306.682 91.3013 305.221 86.7786 303.921 82.526C303.44 80.945 304.331 79.264 305.912 78.7837C307.493 78.3034 309.174 79.1939 309.654 80.7749C310.935 84.9775 312.396 89.4802 313.937 94.2431C318.43 108.112 323.513 123.821 325.684 136.909C325.754 137.309 325.824 137.72 325.894 138.13C326.615 142.182 327.595 147.726 323.853 151.358C322.632 152.549 320.091 155.02 290.282 157.262C276.024 158.342 262.175 158.853 262.035 158.853C261.004 158.883 259.984 158.372 259.403 157.482C257.492 154.53 243.234 149.667 231.857 151.188C226.153 151.958 222.691 154.13 221.57 157.662C221.28 158.562 221.37 159.983 221.58 160.584C222.671 161.474 223.011 163.055 222.311 164.336C221.77 165.337 220.73 165.907 219.669 165.907V165.927Z" fill="black"/>
<path d="M295.765 24.3802C295.765 24.3802 311.504 24.1901 325.903 45.313C340.552 66.7861 359.484 96.5743 364.667 98.6356C369.85 100.697 353.35 124.521 304.37 118.538C304.37 118.538 301.038 118.228 298.577 104.309C296.115 90.3906 291.592 63.5742 291.592 63.5742" fill="#82BE28"/>
<path d="M319.29 122.47C314.547 122.47 309.454 122.17 304.021 121.51C301.549 121.279 297.997 118.187 295.636 104.819C293.204 91.0509 288.691 64.3346 288.651 64.0644C288.371 62.4334 289.482 60.8825 291.113 60.6023C292.734 60.3221 294.295 61.4328 294.575 63.0638C294.615 63.334 299.128 90.0203 301.559 103.779C303.07 112.314 304.831 114.966 305.392 115.626C314.817 116.707 342.834 118.608 358.344 105.58C360.926 103.418 362.016 101.687 362.416 100.777C357.654 97.5349 349.028 85.1073 333.058 61.2627C329.847 56.4598 326.524 51.5067 323.463 47.004C310.265 27.6521 296.396 27.392 295.816 27.382C294.165 27.382 292.814 26.0412 292.814 24.3901C292.814 22.7391 294.115 21.3983 295.766 21.3783C296.456 21.3783 313.286 21.4183 328.426 43.6219C331.508 48.1347 334.84 53.1077 338.052 57.9206C347.707 72.3395 362.296 94.1328 365.849 95.8538C367.54 96.5242 369.251 98.4954 368.41 101.787C366.349 109.872 350.069 122.48 319.32 122.48L319.29 122.47ZM304.651 115.536C304.701 115.536 304.761 115.546 304.811 115.556C304.761 115.556 304.701 115.546 304.651 115.536Z" fill="black"/>
<path d="M46.6442 166.316C47.7949 168.278 49.606 169.839 51.8474 170.659C59.312 174.281 72.6001 174.281 81.0953 171.159C85.2778 169.849 88.0896 165.926 88.0595 161.533L95.274 116.376H37.6187L44.4329 156.4" fill="white"/>
<path d="M66.7756 176.433C60.7419 176.433 54.8483 175.422 50.6558 173.421C47.8941 172.36 45.5526 170.379 44.0517 167.837C43.2112 166.406 43.6915 164.565 45.1224 163.725C46.5533 162.884 48.3944 163.365 49.2349 164.795C50.0554 166.196 51.3562 167.277 52.8871 167.847C52.9772 167.877 53.0672 167.917 53.1573 167.967C59.6813 171.139 71.9988 171.309 80.0637 168.358C80.1038 168.338 80.1538 168.328 80.2038 168.308C83.1356 167.387 85.0868 164.675 85.0668 161.573C85.0668 161.403 85.0768 161.243 85.1068 161.073L91.7609 119.388H41.19L47.4138 155.9C47.694 157.531 46.5933 159.082 44.9623 159.362C43.3313 159.642 41.7803 158.542 41.5002 156.911L34.686 116.886C34.5359 116.016 34.7761 115.125 35.3464 114.445C35.9168 113.764 36.7573 113.374 37.6378 113.374H95.2931C96.1736 113.374 97.0041 113.754 97.5744 114.425C98.1448 115.095 98.395 115.976 98.2549 116.846L91.0805 161.774C91.0104 167.407 87.4283 172.29 82.085 174.001C77.6323 175.622 72.1589 176.423 66.8056 176.423L66.7756 176.433Z" fill="black"/>
<path d="M66.4463 125.082C82.3674 125.082 95.274 121.184 95.274 116.377C95.274 111.569 82.3674 107.671 66.4463 107.671C50.5253 107.671 37.6187 111.569 37.6187 116.377C37.6187 121.184 50.5253 125.082 66.4463 125.082Z" fill="white"/>
<path d="M44.4412 121.68C47.8933 124.912 56.4386 127.204 66.4447 127.204C76.4508 127.204 85.006 124.912 88.4481 121.68C84.996 118.448 76.4508 116.157 66.4447 116.157C56.4386 116.157 47.8833 118.448 44.4412 121.68Z" fill="black"/>
<path d="M66.4463 128.083C58.4614 128.083 50.9168 127.133 45.1933 125.412C38.179 123.29 34.6169 120.259 34.6169 116.386C34.6169 112.514 38.179 109.482 45.1933 107.361C50.9068 105.64 58.4614 104.689 66.4463 104.689C74.4312 104.689 81.9758 105.64 87.6993 107.361C94.7136 109.482 98.2758 112.514 98.2758 116.386C98.2758 120.259 94.7136 123.29 87.6993 125.412C81.9858 127.133 74.4312 128.083 66.4463 128.083ZM40.6405 116.376C41.361 118.057 49.8062 122.08 66.4463 122.08C83.0865 122.08 91.5317 118.067 92.2521 116.376C91.5317 114.695 83.0865 110.673 66.4463 110.673C49.8062 110.673 41.361 114.685 40.6405 116.376Z" fill="black"/>
<path d="M150.076 40.3195C155.049 46.3532 149.456 53.8978 143.932 58.4406C138.409 62.9834 133.206 62.9033 128.233 56.8696C123.26 50.836 124.18 38.2783 130.594 35.1364C137.819 31.6042 145.103 34.2958 150.076 40.3295V40.3195Z" fill="white"/>
<path d="M136.498 64.6433C136.207 64.6433 135.927 64.6333 135.647 64.6133C132.155 64.3331 128.883 62.3719 125.921 58.7797C122.569 54.7072 121.238 48.1832 122.539 42.1495C123.54 37.5267 125.931 34.0746 129.273 32.4336C137.268 28.5212 146.124 30.8126 152.387 38.4072C157.521 44.631 155.009 53.1963 145.843 60.7509C142.711 63.3325 139.57 64.6433 136.498 64.6433ZM137.148 36.5761C135.397 36.5761 133.626 36.9864 131.905 37.8269C130.274 38.6274 128.993 40.6686 128.393 43.4203C127.492 47.5828 128.373 52.3357 130.534 54.9574C132.425 57.2488 134.296 58.4895 136.097 58.6296C137.838 58.7597 139.82 57.9192 142.011 56.1281C143.722 54.7172 152.027 47.4328 147.745 42.2296C144.683 38.5173 140.94 36.5761 137.138 36.5761H137.148Z" fill="black"/>
<path d="M177.283 100.828C176.382 100.828 175.481 100.528 174.731 99.9076L82.6948 23.8611C80.9937 22.4502 80.7536 19.9287 82.1544 18.2276C83.5653 16.5266 86.0868 16.2864 87.7879 17.6873L179.834 93.7438C181.535 95.1547 181.775 97.6762 180.374 99.3772C179.584 100.338 178.443 100.828 177.283 100.828Z" fill="black"/>
<path d="M180.176 91.9613C179.155 91.9613 178.145 91.581 177.364 90.8006L92.4623 6.84924C90.8913 5.29829 90.8813 2.75673 92.4323 1.18577C93.9932 -0.385187 96.5248 -0.395193 98.0957 1.15575L182.998 85.1071C184.569 86.658 184.579 89.1996 183.028 90.7705C182.247 91.561 181.217 91.9613 180.186 91.9613H180.176Z" fill="black"/>
<path d="M118.017 42.5716C112.253 45.3933 106.36 58.2111 105.989 61.183C105.619 64.1548 106.81 72.0796 108.841 75.4417C110.872 78.8137 113.154 77.6931 114.074 78.8137C122.359 88.8699 131.055 89.02 140.26 81.4353C149.456 73.8507 158.782 61.283 150.497 51.2169C142.211 41.1607 130.064 36.668 118.017 42.5616V42.5716Z" fill="white"/>
<path d="M127.844 89.7795C122.15 89.7795 116.727 86.7577 111.754 80.724C110.713 79.4532 109.772 78.0124 108.982 76.4314C108.242 74.9505 108.832 73.1494 110.313 72.3989C111.794 71.6585 113.595 72.2488 114.345 73.7297C114.936 74.9105 115.626 75.9811 116.387 76.9017C123.281 85.2668 130.055 85.9472 138.34 79.123C141.452 76.5615 156.521 63.2733 148.166 53.1271C140.081 43.3211 129.304 40.3793 119.328 45.2623C115.006 47.3836 112.124 53.2872 111.794 60.6818C111.724 62.3428 110.343 63.6236 108.662 63.5535C107.001 63.4835 105.72 62.0826 105.79 60.4216C106.21 50.8257 110.383 42.9509 116.677 39.869C129.134 33.7653 142.973 37.3875 152.789 49.3048C158.883 56.6993 159.283 69.6272 142.142 83.7459C137.259 87.7683 132.456 89.7695 127.824 89.7695L127.844 89.7795Z" fill="black"/>
</svg>
