<svg width="492" height="250" viewBox="0 0 492 250" fill="none" xmlns="http://www.w3.org/2000/svg">
<path d="M228.705 6.79717C199.375 0.367167 188.555 29.2972 183.495 37.8472C177.975 47.1572 162.285 66.8272 152.495 76.8472C147.495 81.9672 156.495 88.8472 163.495 91.8472C170.495 94.8472 202.225 102.997 211.225 99.9972C220.225 96.9972 227.535 85.3872 233.225 67.9972C238.915 50.6072 241.315 45.6872 244.075 34.3672C234.125 16.3272 230.895 11.1572 228.705 6.80717V6.79717Z" fill="white"/>
<path d="M151.494 84.8475C151.074 84.8475 150.654 84.7575 150.244 84.5775C148.734 83.8875 148.074 82.1075 148.764 80.5975C153.044 71.2475 164.384 57.7175 170.464 50.4575C172.144 48.4475 173.474 46.8675 174.084 46.0475C174.124 45.9975 174.164 45.9475 174.204 45.8975C177.454 42.0975 179.894 37.4275 182.474 32.4775C189.014 19.9375 196.424 5.71749 219.734 2.03749C221.364 1.77749 222.904 2.89749 223.164 4.53749C223.424 6.17749 222.304 7.70749 220.664 7.96749C200.334 11.1775 194.244 22.8675 187.784 35.2575C185.174 40.2575 182.484 45.4275 178.804 49.7375C178.084 50.6875 176.794 52.2275 175.044 54.3175C169.134 61.3675 158.144 74.4875 154.194 83.1075C153.694 84.2075 152.604 84.8575 151.464 84.8575L151.494 84.8475Z" fill="black"/>
<path d="M228.484 8.05641C228.484 8.05641 238.454 3.06641 254.424 3.06641C276.374 3.06641 298.324 11.0464 292.004 18.6964C285.684 26.3464 205.214 33.9964 228.484 8.05641Z" fill="white"/>
<path d="M332.215 152.028C325.175 101.648 314.605 45.8575 311.225 30.9975C295.225 0.997538 284.135 4.81754 284.135 4.81754C277.415 25.9975 232.735 21.1275 228.705 6.79754C228.705 6.79754 224.445 6.70754 218.225 14.9975C211.655 23.7575 203.085 41.3975 201.655 56.1975C200.225 70.9975 189.325 127.918 189.175 129.008C188.975 130.518 188.765 131.998 188.555 133.458C222.665 137.868 292.725 146.928 332.205 152.028H332.215Z" fill="white"/>
<path d="M258.504 22.2276C246.954 22.2276 234.604 18.6876 228.854 13.3576C227.644 12.2276 227.564 10.3276 228.694 9.11757C229.824 7.90757 231.724 7.82757 232.934 8.95757C237.834 13.5076 251.894 17.4676 264.234 15.8776C268.994 15.2576 275.284 13.5476 278.244 8.88757C279.134 7.48757 280.984 7.06757 282.384 7.95757C283.784 8.84757 284.194 10.6976 283.314 12.0976C279.984 17.3476 273.654 20.7076 265.004 21.8276C262.904 22.0976 260.714 22.2276 258.504 22.2276Z" fill="black"/>
<path d="M226.305 98.1076C215.505 85.4776 183.955 89.3176 183.955 89.3176C178.135 98.3376 158.845 88.7676 158.845 88.7676C158.845 88.7676 146.775 104.478 165.845 121.918C175.765 130.988 190.675 127.998 203.735 124.968C216.805 121.928 245.485 113.848 245.485 113.848C245.485 113.848 237.085 110.738 226.295 98.1076H226.305Z" fill="white"/>
<path d="M183.655 131.097C176.625 131.097 169.305 129.007 161.505 122.097C153.125 114.667 148.155 100.717 154.865 88.4173C155.655 86.9673 157.475 86.4273 158.935 87.2173C160.395 88.0073 160.925 89.8373 160.135 91.2873C154.985 100.737 159.045 111.897 165.495 117.607C177.035 127.837 186.415 125.587 198.295 122.737C199.235 122.507 200.185 122.287 201.145 122.057C213.995 119.067 230.555 114.367 230.725 114.317C232.315 113.867 233.975 114.787 234.435 116.387C234.895 117.987 233.965 119.637 232.365 120.097C232.195 120.147 215.485 124.887 202.505 127.907C201.565 128.127 200.625 128.347 199.695 128.577C194.465 129.827 189.145 131.107 183.665 131.107L183.655 131.097Z" fill="black"/>
<path d="M349.494 123.847C355.494 119.847 361.494 115.847 356.494 92.8472C351.494 69.8472 344.674 73.0272 335.674 40.0272C326.674 7.02716 293.144 3.81716 284.144 4.81716C286.424 19.2272 276.584 28.4772 282.274 48.3672C286.794 64.1872 301.504 88.8472 313.504 93.8472C330.504 90.8472 343.504 124.847 349.504 123.847H349.494Z" fill="white"/>
<path d="M250.264 77.4465C250.264 77.4465 284.234 63.0665 302.504 68.8465C318.534 73.9165 321.934 78.2265 321.504 83.8465C321.744 94.9565 289.154 94.9865 280.374 96.0565C271.594 97.1265 250.264 77.4465 250.264 77.4465Z" fill="white"/>
<path d="M314.505 94.8467C313.465 94.8467 312.455 94.3067 311.895 93.3367C311.075 91.8967 311.575 90.0667 313.015 89.2467C317.475 86.6967 317.045 84.1767 316.905 83.3467C316.135 78.8667 308.635 72.1967 300.965 70.8067C285.435 68.3767 254.255 80.1867 253.945 80.3067C252.395 80.8967 250.665 80.1267 250.075 78.5767C249.485 77.0267 250.255 75.2967 251.805 74.7067C253.145 74.1967 284.795 62.2067 301.975 64.8967C310.715 66.4867 321.445 74.2767 322.825 82.3467C323.305 85.1467 323.055 90.4367 315.995 94.4667C315.525 94.7367 315.015 94.8667 314.505 94.8667V94.8467Z" fill="black"/>
<path d="M312.015 91.477C301.585 106.957 276.735 87.257 257.385 78.197C250.695 75.067 238.135 72.697 227.045 68.247C215.575 59.357 208.535 57.677 198.935 62.057C178.755 71.257 178.185 90.927 179.625 93.937C181.065 96.947 183.775 92.817 200.895 91.317C223.525 89.327 225.945 98.097 242.505 110.857C259.575 124.017 294.675 141.057 311.505 139.857C332.675 138.347 339.665 119.237 339.665 119.237C339.665 119.237 327.535 94.507 312.015 91.477Z" fill="white"/>
<path d="M305.934 142.948C297.684 142.948 286.764 140.238 275.424 135.308C261.974 129.468 249.544 121.258 240.424 112.188C225.544 97.3882 213.294 87.4182 191.194 93.8782C189.604 94.3482 187.934 93.4282 187.474 91.8382C187.004 90.2482 187.924 88.5782 189.514 88.1182C214.684 80.7582 229.384 92.7382 244.664 107.928C263.414 126.578 293.214 138.138 308.254 136.848C329.794 134.998 337.724 118.718 337.794 118.558C338.504 117.058 340.294 116.418 341.785 117.128C343.285 117.838 343.924 119.628 343.214 121.118C342.834 121.918 333.704 140.688 308.754 142.828C307.854 142.908 306.914 142.948 305.934 142.948Z" fill="black"/>
<path d="M173.235 96.0573C161.015 96.0573 150.885 87.6873 148.775 83.0973C148.085 81.5973 148.735 79.8073 150.245 79.1173C151.745 78.4173 153.535 79.0773 154.225 80.5873C155.375 83.0773 164.825 91.3673 175.955 89.8673C175.845 84.3673 176.605 71.9673 184.835 63.8473C190.945 57.8173 199.755 55.4773 211.015 56.8673C212.655 57.0773 213.825 58.5673 213.625 60.2173C213.415 61.8673 211.915 63.0273 210.275 62.8273C200.935 61.6573 193.805 63.4373 189.065 68.0973C180.515 76.5073 182.055 91.8273 182.065 91.9773C182.225 93.4573 181.275 94.8273 179.835 95.2073C177.585 95.7873 175.375 96.0473 173.225 96.0473L173.235 96.0573Z" fill="black"/>
<path d="M300.535 97.987C284.575 97.987 266.685 88.827 254.765 82.717C252.605 81.617 250.575 80.567 248.815 79.717C241.575 76.207 226.375 73.257 226.225 73.227C224.595 72.917 223.535 71.337 223.845 69.717C224.155 68.087 225.735 67.027 227.355 67.337C228.015 67.467 243.485 70.477 251.425 74.327C253.245 75.207 255.305 76.267 257.495 77.387C272.465 85.057 297.515 97.897 313.115 88.987C314.555 88.167 316.385 88.667 317.205 90.107C318.025 91.547 317.525 93.377 316.085 94.197C311.345 96.907 306.045 97.997 300.525 97.997L300.535 97.987Z" fill="black"/>
<path d="M347.614 124.898C347.154 124.898 346.684 124.878 346.214 124.828C341.314 124.368 338.634 119.668 335.544 114.208C331.064 106.318 325.984 97.378 313.364 96.828C311.704 96.758 310.424 95.358 310.494 93.698C310.564 92.038 311.975 90.748 313.625 90.828C329.564 91.518 336.034 102.918 340.764 111.238C342.844 114.898 344.984 118.678 346.774 118.838C349.024 119.048 350.814 118.458 352.244 117.028C354.844 114.428 356.074 109.228 355.514 103.098C354.684 93.988 348.324 79.848 343.214 68.478C342.434 66.748 341.674 65.058 340.954 63.438C338.584 58.088 336.644 52.518 334.764 47.128C332.534 40.718 330.224 34.088 327.204 27.968C321.924 17.248 306.894 11.948 296.054 8.88803C294.464 8.43803 293.534 6.77803 293.984 5.18803C294.434 3.58803 296.094 2.66803 297.684 3.11803C309.634 6.48803 326.255 12.448 332.595 25.328C335.765 31.778 338.134 38.578 340.434 45.168C342.274 50.438 344.165 55.888 346.445 61.018C347.165 62.638 347.914 64.308 348.684 66.028C354.254 78.408 360.564 92.448 361.484 102.558C362.214 110.558 360.384 117.378 356.484 121.278C354.104 123.648 351.064 124.878 347.625 124.878L347.614 124.898Z" fill="black"/>
<path d="M488.695 175.257C488.565 175.257 488.435 175.257 488.305 175.237L2.61456 112.447C0.974559 112.237 -0.185441 110.727 0.0245588 109.087C0.234559 107.447 1.74456 106.287 3.38456 106.497L489.085 169.287C490.725 169.497 491.885 171.007 491.675 172.647C491.475 174.157 490.185 175.267 488.705 175.267L488.695 175.257Z" fill="black"/>
<path d="M58.8936 191.908C54.2936 191.278 50.8736 187.438 51.0036 182.748C51.0836 179.978 51.9236 177.298 54.5236 176.138C78.7536 165.268 146.654 149.678 162.384 152.308L262.904 159.238C272.764 160.578 276.324 164.058 276.524 172.928C276.624 177.338 276.934 179.068 267.654 183.418C259.994 187.008 211.704 202.638 195.124 207.978C191.454 209.158 187.614 209.508 183.894 208.998L58.8936 191.928V191.908Z" fill="white"/>
<path d="M59.6941 189.018C58.2641 188.798 57.0441 188.338 56.2141 187.648C55.6841 187.198 55.1841 186.608 54.9941 186.308C54.5441 185.578 54.4141 185.298 54.2341 184.648C53.8941 183.438 53.9441 182.028 54.3141 180.748C54.4741 180.188 54.6541 179.838 54.8541 179.578C55.2041 179.128 55.7041 178.878 56.3941 178.568C56.7841 178.388 57.1841 178.228 57.5741 178.058C57.9641 177.888 57.0441 178.278 57.4241 178.118C57.5241 178.078 57.6141 178.038 57.7141 177.998C57.9741 177.888 58.2341 177.788 58.4941 177.678C59.4541 177.288 60.4241 176.908 61.4041 176.538C63.5641 175.718 65.7441 174.948 67.9341 174.208C78.6041 170.588 89.4941 167.598 100.434 164.888C111.774 162.078 123.204 159.578 134.714 157.598C137.254 157.168 139.794 156.758 142.334 156.388C142.894 156.308 143.444 156.228 144.004 156.158C144.564 156.088 143.614 156.208 144.334 156.118C144.664 156.078 144.994 156.028 145.324 155.988C146.434 155.848 147.534 155.718 148.644 155.598C152.214 155.218 155.824 154.908 159.414 155.038C160.064 155.058 160.714 155.108 161.374 155.168C161.504 155.178 161.684 155.238 161.814 155.218C161.644 155.248 160.984 155.098 161.494 155.178C161.804 155.228 162.114 155.278 162.434 155.308C162.724 155.338 163.014 155.348 163.304 155.368L168.304 155.708C174.984 156.168 181.654 156.628 188.334 157.088C197.324 157.708 206.314 158.328 215.294 158.948C224.274 159.568 232.794 160.158 241.544 160.758C247.484 161.168 253.424 161.578 259.374 161.988C260.514 162.068 261.684 162.238 262.824 162.228C262.854 162.228 262.894 162.228 262.924 162.228C262.464 162.208 262.534 162.178 263.064 162.258C264.554 162.488 266.044 162.798 267.484 163.258C267.804 163.358 268.104 163.478 268.424 163.588C268.964 163.768 268.204 163.458 268.704 163.698C269.264 163.978 269.824 164.258 270.344 164.608C270.494 164.708 271.114 165.218 270.594 164.768C270.764 164.918 270.944 165.068 271.114 165.228C271.304 165.408 271.484 165.608 271.664 165.798C272.134 166.278 271.534 165.518 271.894 166.088C272.164 166.518 272.404 166.948 272.634 167.398C272.864 167.848 272.544 167.038 272.744 167.688C272.844 168.008 272.954 168.328 273.044 168.658C273.484 170.258 273.474 170.568 273.554 172.128C273.604 173.128 273.644 174.148 273.594 175.158C273.594 175.348 273.544 175.558 273.554 175.748C273.544 175.388 273.684 175.138 273.554 175.598C273.504 175.778 273.444 175.958 273.404 176.138C273.284 176.708 273.734 175.668 273.384 176.178C273.294 176.308 273.184 176.478 273.114 176.618C273.134 176.578 273.474 176.258 273.054 176.678C272.884 176.858 272.714 177.038 272.524 177.198C272.444 177.278 272.344 177.348 272.264 177.428C271.864 177.808 272.484 177.288 272.184 177.498C270.884 178.438 269.484 179.208 268.054 179.928C267.164 180.378 266.244 180.768 265.354 181.208C265.194 181.288 266.134 180.888 265.654 181.078C265.524 181.128 265.394 181.188 265.254 181.238C264.964 181.358 264.664 181.478 264.374 181.588C255.984 184.888 247.374 187.668 238.834 190.528C228.084 194.128 217.304 197.658 206.514 201.158C202.524 202.458 198.534 203.758 194.534 205.028C192.694 205.618 190.824 206.048 188.894 206.168C187.914 206.228 186.934 206.238 185.954 206.178C185.424 206.148 184.904 206.098 184.384 206.048C184.284 206.048 184.864 206.118 184.724 206.098C184.514 206.068 184.294 206.038 184.084 206.008C180.374 205.498 176.674 204.998 172.964 204.488C165.854 203.518 158.744 202.548 151.634 201.578C142.744 200.368 133.854 199.148 124.964 197.938C116.074 196.728 106.944 195.478 97.9341 194.248C90.3341 193.208 82.7341 192.168 75.1341 191.138C70.6041 190.518 66.0841 189.898 61.5541 189.288C60.9441 189.208 60.3441 189.118 59.7341 189.038C58.1341 188.818 56.5141 189.428 56.0441 191.138C55.6641 192.538 56.5241 194.608 58.1441 194.828C60.6941 195.178 63.2441 195.528 65.7941 195.878C72.3441 196.768 78.8841 197.668 85.4341 198.558C94.2041 199.758 102.984 200.958 111.754 202.148C121.104 203.428 130.454 204.698 139.814 205.978C147.954 207.088 156.084 208.198 164.224 209.308C169.474 210.028 174.724 210.738 179.974 211.458C180.984 211.598 181.994 211.738 183.004 211.868C185.274 212.178 187.524 212.328 189.814 212.098C192.914 211.788 195.804 210.928 198.744 209.978C208.744 206.758 218.734 203.508 228.714 200.218C239.004 196.818 249.304 193.418 259.514 189.768C262.634 188.648 265.784 187.548 268.814 186.198C273.564 184.078 279.064 181.348 279.564 175.568C279.994 170.638 279.134 164.768 275.514 161.138C272.264 157.888 267.244 156.618 262.804 156.228C259.004 155.898 255.174 155.698 251.364 155.438C243.394 154.888 235.424 154.338 227.454 153.788C218.094 153.148 208.734 152.498 199.384 151.858C191.274 151.298 183.164 150.738 175.044 150.178C170.954 149.898 166.854 149.528 162.754 149.328C162.664 149.328 162.554 149.298 162.464 149.308C162.264 149.328 163.484 149.448 163.004 149.378C162.474 149.298 161.944 149.228 161.414 149.168C159.984 149.018 158.534 148.998 157.104 149.018C153.054 149.088 149.014 149.518 145.004 150.028C133.694 151.478 122.494 153.668 111.374 156.148C99.6141 158.778 87.9141 161.758 76.3641 165.228C71.4541 166.708 66.5541 168.278 61.7341 170.038C59.7341 170.768 57.7441 171.538 55.7741 172.358C54.6241 172.838 53.3141 173.268 52.2741 173.958C50.5441 175.108 49.4241 176.708 48.7241 178.648C46.2041 185.658 50.7441 193.638 58.1441 194.788C59.7441 195.038 61.3741 194.378 61.8341 192.688C62.2241 191.268 61.3541 189.248 59.7341 188.998L59.6941 189.018Z" fill="black"/>
<path d="M54.8438 179.917C54.8438 179.917 143.974 138.337 163.644 141.627L262.234 154.917C271.984 156.237 275.974 157.717 276.544 162.017C277.114 166.317 276.944 168.087 267.774 172.387C258.604 176.687 190.514 198.447 190.514 198.447L54.8438 179.917Z" fill="white"/>
<path d="M56.3554 182.507C62.3754 179.697 68.4354 176.997 74.5154 174.327C77.4154 173.057 80.3154 171.787 83.2254 170.537C84.8054 169.857 86.3854 169.177 87.9754 168.507C88.4054 168.327 88.8254 168.147 89.2554 167.967C89.3954 167.907 89.9254 167.687 89.3554 167.927C89.5554 167.847 89.7454 167.757 89.9454 167.677C90.8154 167.307 91.6954 166.947 92.5654 166.577C99.5654 163.647 106.605 160.807 113.695 158.077C126.325 153.217 139.215 148.347 152.495 145.537C153.705 145.277 154.925 145.047 156.155 144.857C156.425 144.817 156.695 144.777 156.965 144.737C157.775 144.617 156.295 144.807 157.115 144.717C157.665 144.657 158.205 144.587 158.755 144.547C159.685 144.467 160.615 144.427 161.545 144.447C161.935 144.447 162.315 144.487 162.705 144.507C163.735 144.577 162.045 144.407 162.865 144.517C164.755 144.777 166.645 145.027 168.525 145.277C179.585 146.767 190.635 148.257 201.695 149.747C215.005 151.537 228.305 153.337 241.615 155.127C248.225 156.017 254.835 156.897 261.445 157.797C263.765 158.117 266.085 158.457 268.365 159.007C269.305 159.237 270.225 159.527 271.135 159.847C271.905 160.117 270.785 159.677 271.225 159.877C271.405 159.957 271.575 160.037 271.745 160.137C272.125 160.337 272.485 160.567 272.835 160.807C272.115 160.317 272.945 160.997 273.095 161.107C273.565 161.467 272.835 160.687 273.025 160.997C273.105 161.127 273.195 161.247 273.275 161.377C273.335 161.487 273.395 161.687 273.485 161.777C273.695 161.987 273.335 161.117 273.415 161.657C273.445 161.867 273.715 163.117 273.585 162.207C273.675 162.837 273.745 163.467 273.745 164.107C273.745 164.387 273.715 164.667 273.705 164.947C273.755 163.937 273.615 164.957 273.555 165.257C273.735 164.407 273.535 165.147 273.395 165.447C273.145 165.977 273.865 165.017 273.405 165.447C273.305 165.537 273.215 165.657 273.125 165.747C272.855 166.017 272.575 166.267 272.275 166.507C272.815 166.077 272.085 166.627 272.025 166.667C271.775 166.837 271.525 166.997 271.265 167.157C269.515 168.247 267.655 169.157 265.775 170.007C264.825 170.437 266.405 169.757 265.535 170.107C265.145 170.267 264.755 170.427 264.365 170.577C263.415 170.947 262.465 171.307 261.515 171.657C249.055 176.267 236.395 180.347 223.785 184.497C213.035 188.027 202.265 191.517 191.495 194.977C190.915 195.167 190.325 195.357 189.745 195.537H191.345C186.825 194.917 182.295 194.297 177.775 193.687C166.995 192.217 156.215 190.747 145.445 189.267C132.375 187.477 119.305 185.697 106.235 183.907C94.9454 182.367 83.6454 180.817 72.3554 179.277C66.8754 178.527 61.4054 177.777 55.9254 177.037C55.8454 177.027 55.7654 177.017 55.6854 177.007C54.0854 176.787 52.4654 177.397 51.9954 179.107C51.6154 180.507 52.4754 182.577 54.0954 182.797C56.9554 183.187 59.8154 183.577 62.6854 183.967C69.9654 184.957 77.2554 185.957 84.5354 186.947C94.2854 188.277 104.035 189.607 113.785 190.937C124.045 192.337 134.305 193.737 144.565 195.137C153.355 196.337 162.145 197.537 170.935 198.737C176.375 199.477 181.815 200.227 187.255 200.967C188.095 201.077 188.935 201.197 189.765 201.307C191.475 201.537 193.125 200.747 194.735 200.227C202.725 197.657 210.705 195.077 218.685 192.467C229.105 189.067 239.515 185.637 249.885 182.087C257.105 179.617 264.605 177.387 271.425 173.927C274.155 172.547 277.305 170.867 278.835 168.077C280.055 165.857 279.905 163.197 279.425 160.787C278.105 154.157 269.915 152.977 264.415 152.167C260.365 151.577 256.305 151.067 252.255 150.517L225.945 146.967C215.715 145.587 205.485 144.207 195.265 142.827C187.315 141.757 179.355 140.687 171.405 139.607C167.825 139.127 164.025 138.287 160.405 138.397C152.245 138.657 144.035 141.247 136.315 143.677C125.825 146.977 115.525 150.867 105.305 154.917C95.1754 158.937 85.1354 163.167 75.1454 167.517C68.7654 170.297 62.4054 173.127 56.0754 176.037C55.1854 176.447 54.2954 176.857 53.4054 177.267C51.9354 177.947 51.5654 180.067 52.3254 181.367C53.2054 182.877 54.9554 183.127 56.4254 182.447L56.3554 182.507Z" fill="black"/>
<path d="M94.0156 176.527C94.0156 176.527 141.626 153.737 155.226 156.007L223.406 165.197C230.146 166.107 232.906 167.137 233.306 170.107C233.706 173.077 233.586 174.307 227.236 177.277C220.886 180.247 187.836 189.337 187.836 189.337L94.0156 176.517V176.527Z" fill="black"/>
<path d="M185.855 198.577L60.3948 182.797C51.5648 181.687 42.9948 173.897 41.3448 165.477L25.2248 86.5767C23.5748 78.1667 29.4548 72.1867 38.2848 73.2967L163.745 89.0767C172.575 90.1867 181.145 97.9767 182.795 106.397L198.915 185.297C200.565 193.707 194.685 199.687 185.855 198.577Z" fill="white"/>
<path d="M185.855 195.577C182.355 195.137 178.855 194.697 175.355 194.257C166.785 193.177 158.205 192.097 149.635 191.017C138.775 189.647 127.915 188.287 117.055 186.917C106.195 185.547 96.2853 184.307 85.9053 182.997C78.8753 182.117 71.8453 181.227 64.8153 180.347C63.4153 180.167 62.0053 179.987 60.6053 179.817C60.5353 179.817 60.4653 179.797 60.3953 179.787C61.4453 179.927 60.1653 179.737 59.9453 179.687C59.4653 179.597 58.9953 179.477 58.5253 179.347C57.6353 179.107 56.6953 178.777 55.9453 178.437C52.3153 176.777 49.0453 174.097 46.8553 170.817C45.1253 168.217 44.4253 165.597 43.8053 162.567C43.1853 159.547 42.5653 156.517 41.9553 153.497C39.9153 143.497 37.8653 133.497 35.8253 123.497C33.7853 113.497 31.8753 104.147 29.8953 94.4666C29.3753 91.9166 28.8553 89.3566 28.3253 86.8066C28.2353 86.3466 28.1253 85.8866 28.0453 85.4166C27.8253 84.1066 27.9253 82.4866 28.3353 81.1566C28.3953 80.9666 28.7553 80.1066 28.5453 80.5566C28.7053 80.2266 28.8753 79.8966 29.0653 79.5766C29.1653 79.4166 29.7153 78.6766 29.3953 79.0666C29.6553 78.7466 29.9353 78.4566 30.2353 78.1766C30.3653 78.0466 30.5053 77.9266 30.6453 77.8166C31.0053 77.5166 30.3053 78.0466 30.6953 77.7766C31.0053 77.5666 31.3153 77.3666 31.6453 77.1866C31.8153 77.0966 31.9853 77.0066 32.1553 76.9266C32.5953 76.7066 31.7753 77.0666 32.2353 76.8866C32.6953 76.7066 33.1753 76.5566 33.6553 76.4366C34.9753 76.1066 36.5253 76.0766 38.2753 76.2766C38.5353 76.3066 38.7953 76.3466 39.0553 76.3766L44.4653 77.0566C52.0853 78.0166 59.7153 78.9766 67.3353 79.9366C77.8953 81.2666 88.4653 82.5966 99.0253 83.9266C109.755 85.2766 120.485 86.6266 131.215 87.9766C139.335 88.9966 147.465 90.0166 155.585 91.0466L162.115 91.8666C162.595 91.9266 163.075 91.9866 163.555 92.0466C163.665 92.0566 163.975 92.1066 163.525 92.0466C162.935 91.9566 163.705 92.0766 163.845 92.1066C164.085 92.1466 164.325 92.1966 164.555 92.2466C165.035 92.3466 165.505 92.4666 165.975 92.6066C166.905 92.8766 167.735 93.1866 168.535 93.5766C174.215 96.3066 178.695 101.317 179.945 107.397C180.345 109.337 180.735 111.277 181.135 113.217C182.985 122.287 184.845 131.357 186.695 140.427C188.815 150.777 190.925 161.137 193.045 171.487C193.775 175.037 194.495 178.587 195.225 182.147C195.535 183.677 195.945 185.217 196.145 186.767C196.095 186.417 196.185 187.517 196.185 187.607C196.195 188.027 196.185 188.447 196.165 188.867C196.155 189.067 196.135 189.277 196.115 189.477C196.135 189.327 196.225 189.007 196.085 189.567C195.995 189.947 195.915 190.327 195.805 190.697C195.765 190.817 195.355 191.807 195.595 191.297C195.435 191.627 195.265 191.957 195.075 192.277C195.005 192.387 194.385 193.217 194.745 192.787C194.515 193.067 194.265 193.337 194.005 193.587C193.915 193.667 193.105 194.327 193.555 193.997C193.255 194.217 192.935 194.417 192.615 194.597C192.525 194.647 191.545 195.127 192.035 194.917C191.625 195.087 191.195 195.227 190.775 195.347C190.375 195.457 189.985 195.547 189.575 195.617C189.065 195.707 189.965 195.587 189.425 195.637C189.205 195.657 188.995 195.677 188.775 195.687C187.795 195.747 186.825 195.687 185.855 195.577C184.245 195.387 182.855 197.087 182.855 198.577C182.855 200.357 184.235 201.387 185.855 201.577C189.795 202.037 193.925 201.227 197.105 198.777C200.285 196.327 201.915 192.777 202.175 188.877C202.335 186.417 201.705 183.977 201.225 181.577C199.545 173.337 197.855 165.107 196.175 156.867C193.965 146.067 191.765 135.277 189.555 124.477C188.285 118.277 187.025 112.077 185.755 105.877C184.375 99.1366 179.765 93.4066 174.035 89.7566C170.545 87.5366 166.745 86.4366 162.695 85.9366C157.225 85.2466 151.755 84.5566 146.285 83.8766C136.475 82.6466 126.665 81.4066 116.855 80.1766C105.655 78.7666 94.4553 77.3566 83.2553 75.9466C73.6153 74.7366 63.9853 73.5266 54.3453 72.3066C49.2253 71.6666 44.0953 71.0166 38.9753 70.3766C34.5753 69.8266 30.1453 70.5566 26.6253 73.4166C22.2653 76.9566 21.3653 82.6466 22.4353 87.8866C23.7753 94.4366 25.1153 100.987 26.4553 107.537C28.6653 118.367 30.8853 129.207 33.0953 140.037C34.7253 147.997 36.3453 155.957 37.9753 163.917C38.6053 167.017 39.3653 169.977 41.0053 172.767C45.0953 179.757 52.4153 184.757 60.4453 185.787C64.4253 186.297 68.4053 186.787 72.3953 187.287C81.4253 188.427 90.4653 189.557 99.4953 190.697C110.625 192.097 121.765 193.497 132.895 194.897C143.175 196.187 153.465 197.487 163.745 198.777C170.225 199.597 176.705 200.407 183.185 201.227C184.075 201.337 184.975 201.447 185.865 201.567C187.475 201.767 188.865 200.047 188.865 198.567C188.865 196.777 187.485 195.767 185.865 195.567L185.855 195.577Z" fill="black"/>
<path d="M100.714 146.697C87.0437 153.427 83.4437 143.437 86.7637 133.577C90.0837 123.717 94.9337 118.727 102.184 119.597C112.504 120.837 126.064 142.417 122.524 149.507C118.534 157.477 106.344 143.937 100.714 146.707V146.697Z" fill="#2D8C3C"/>
</svg>
