<svg width="492" height="250" viewBox="0 0 492 250" fill="none" xmlns="http://www.w3.org/2000/svg">
<path d="M178.404 138.049C147.364 143.299 80.2441 176.609 80.2441 176.609L215.914 203.299C215.914 203.299 300.284 169.659 328.084 157.779L178.404 138.049Z" fill="white"/>
<path d="M296.394 167.677C283.254 173.117 270.074 178.427 256.884 183.727C245.284 188.387 233.674 193.027 222.064 197.647C219.754 198.567 217.434 199.487 215.124 200.407H216.724C212.224 199.527 207.734 198.637 203.234 197.757C192.434 195.637 181.644 193.507 170.844 191.387L131.654 183.677C120.354 181.457 109.064 179.237 97.7638 177.007C94.0438 176.277 90.3138 175.537 86.5938 174.807C84.8338 174.457 83.0638 173.997 81.2838 173.767C81.2038 173.757 81.1238 173.737 81.0538 173.717L81.7738 179.197C89.5338 175.427 97.3838 171.837 105.254 168.317C121.644 160.977 137.794 154.167 154.794 147.977C164.114 144.587 173.534 141.427 183.144 138.967C186.884 138.007 185.294 132.227 181.544 133.177C163.764 137.717 146.524 144.407 129.574 151.367C115.204 157.267 100.994 163.537 86.9238 170.117C84.1838 171.397 81.4538 172.677 78.7338 174.007C76.4738 175.107 76.9738 179.007 79.4538 179.487C81.9338 179.967 84.1838 180.417 86.5438 180.887C92.7038 182.097 98.8638 183.307 105.034 184.527C113.494 186.187 121.954 187.857 130.404 189.517C139.774 191.357 149.144 193.207 158.514 195.047C167.264 196.767 176.024 198.487 184.774 200.217C191.504 201.537 198.244 202.867 204.974 204.187C208.244 204.827 211.514 205.517 214.794 206.117C216.074 206.357 216.874 206.117 218.014 205.667C220.684 204.607 223.354 203.547 226.024 202.487C236.084 198.487 246.134 194.467 256.174 190.437C267.754 185.787 279.334 181.127 290.884 176.387C293.254 175.417 295.624 174.437 297.994 173.457C299.494 172.837 300.554 171.467 300.094 169.767C299.704 168.357 297.914 167.047 296.404 167.667L296.394 167.677Z" fill="black"/>
<path d="M228.694 169.659L144.544 170.569L144.414 158.629L228.564 157.719" fill="#2D8C3C"/>
<path d="M144.544 173.579C143.764 173.579 143.004 173.269 142.444 172.719C141.874 172.159 141.554 171.399 141.544 170.609L141.414 158.669C141.394 157.009 142.724 155.659 144.384 155.639L228.534 154.729H228.564C230.204 154.729 231.544 156.049 231.564 157.699C231.584 159.359 230.254 160.709 228.594 160.729L147.444 161.609L147.504 167.549L228.654 166.669H228.684C230.324 166.669 231.664 167.989 231.684 169.639C231.704 171.299 230.374 172.649 228.714 172.669L144.564 173.579H144.534H144.544Z" fill="black"/>
<path d="M228.564 157.719L247.314 163.199L228.694 169.659" fill="white"/>
<path d="M228.694 172.658C227.454 172.658 226.294 171.878 225.864 170.638C225.324 169.068 226.154 167.368 227.714 166.818L237.464 163.438L227.724 160.588C226.134 160.118 225.224 158.458 225.684 156.868C226.154 155.278 227.814 154.368 229.404 154.828L248.154 160.308C249.404 160.678 250.274 161.808 250.314 163.118C250.354 164.428 249.534 165.598 248.294 166.028L229.674 172.488C229.344 172.598 229.014 172.658 228.694 172.658Z" fill="black"/>
<path d="M225.664 11.0369C225.664 11.0369 235.634 6.04688 251.604 6.04688C273.554 6.04688 295.504 14.0269 289.184 21.6769C282.864 29.3269 202.394 36.9769 225.664 11.0369Z" fill="white"/>
<path d="M232.005 9.6383C220.235 5.0083 210.395 2.8683 197.575 17.5183C184.755 32.1783 171.515 62.9083 158.475 69.0283C145.435 75.1583 141.125 84.5983 150.765 89.7883C160.405 94.9783 179.585 111.008 197.665 109.958C215.745 108.908 232.005 9.6283 232.005 9.6283V9.6383Z" fill="#82BE28"/>
<path d="M332.225 155.468C324.445 102.858 314.585 45.5777 308.395 33.9777C292.395 3.97773 280.425 6.22773 280.425 6.22773C268.755 17.8977 236.675 16.3877 228.065 7.77773C228.065 7.77773 221.615 9.68773 215.395 17.9777C208.825 26.7377 200.255 44.3777 198.825 59.1777C197.395 73.9777 186.495 130.898 186.345 131.988C186.135 133.528 185.925 135.038 185.715 136.528L332.215 155.468H332.225Z" fill="#82BE28"/>
<path d="M250.324 20.1978C249.864 20.1978 249.394 20.1978 248.934 20.1778C239.704 19.9178 231.354 16.9278 226.024 11.9778C224.814 10.8478 224.734 8.94778 225.864 7.73778C226.994 6.52778 228.894 6.45778 230.104 7.57778C238.584 15.4478 257.694 17.7678 276.404 6.53778C277.824 5.68778 279.664 6.14778 280.524 7.56778C281.384 8.98778 280.914 10.8278 279.494 11.6878C270.194 17.2678 260.134 20.1978 250.324 20.1978Z" fill="black"/>
<path d="M360.795 115.918C362.105 114.428 359.305 103.298 356.405 100.328C339.075 82.5781 340.385 48.7881 331.235 33.4881C330.315 31.9581 326.295 25.1181 325.515 23.9381C312.795 4.75809 294.125 7.14809 285.155 8.41809C283.105 9.33809 280.445 36.6981 282.105 47.3381C285.095 66.5181 275.415 117.908 298.895 122.178C325.605 104.148 343.105 136.058 360.805 115.918H360.795Z" fill="#82BE28"/>
<path d="M347.146 123.867C344.886 147.777 323.666 164.617 311.036 163.017C301.886 161.857 276.696 154.717 256.186 143.827C237.686 133.997 217.436 133.507 207.016 129.187C196.596 124.867 207.186 108.507 217.926 106.547C231.926 103.997 244.416 108.537 244.416 108.537C244.416 108.537 252.166 95.9168 262.076 98.0968C271.996 100.277 264.366 113.457 270.146 121.137C270.146 121.137 290.716 126.887 299.836 125.577C307.046 124.547 311.196 121.957 312.406 118.017C325.926 111.707 347.146 123.857 347.146 123.857V123.867Z" fill="white"/>
<path d="M313.984 164.198C312.904 164.198 311.824 164.128 310.754 163.998C300.044 162.638 278.014 156.608 254.974 146.578C243.894 141.748 232.834 139.138 223.084 136.828C216.254 135.218 210.354 133.818 205.864 131.958C201.644 130.208 199.424 126.668 199.794 122.228C200.424 114.588 208.904 105.548 217.244 103.618C229.874 100.698 239.154 103.168 243.374 104.788C246.394 100.848 253.604 93.1583 262.714 95.1583C270.694 96.9183 270.674 103.098 270.664 107.608C270.654 110.798 270.644 113.808 272.534 116.328C273.534 117.648 273.264 119.538 271.944 120.528C270.624 121.528 268.734 121.258 267.744 119.938C264.634 115.808 264.654 111.248 264.664 107.588C264.684 102.698 264.424 101.678 261.424 101.018C253.714 99.3283 247.024 109.998 246.954 110.098C246.104 111.468 244.334 111.928 242.924 111.138C242.844 111.098 233.384 106.028 218.584 109.448C212.254 110.908 206.144 118.078 205.754 122.708C205.604 124.538 206.314 125.648 208.134 126.398C212.184 128.078 217.864 129.418 224.444 130.968C233.944 133.218 245.774 136.008 257.354 141.048C283.254 152.328 304.084 157.078 311.484 158.018C321.074 159.238 338.554 153.298 343.154 123.338C343.404 121.698 344.934 120.568 346.574 120.828C348.214 121.078 349.334 122.608 349.084 124.248C346.924 138.338 341.564 149.458 333.604 156.428C327.874 161.438 320.864 164.178 313.954 164.178L313.984 164.198Z" fill="black"/>
<path d="M349.293 125.787C345.113 125.787 340.873 124.417 336.083 122.877C335.323 122.627 334.543 122.377 333.733 122.127C325.573 119.547 316.103 117.077 306.833 120.447C305.283 121.017 303.553 120.207 302.993 118.657C302.423 117.097 303.233 115.377 304.783 114.817C315.813 110.797 326.443 113.537 335.543 116.417C336.363 116.677 337.163 116.937 337.923 117.177C347.083 120.127 351.013 121.177 356.413 117.367C359.663 115.077 357.203 109.417 354.173 103.317C353.943 102.857 353.723 102.427 353.523 102.007C345.593 85.7867 342.903 76.9067 339.493 65.6767C337.363 58.6467 334.943 50.6767 330.733 39.3467C321.783 15.2167 301.923 7.18673 286.223 9.93673C284.593 10.2267 283.033 9.12673 282.753 7.49673C282.463 5.86673 283.563 4.30673 285.193 4.02673C296.363 2.07673 307.293 4.54673 316.793 11.1967C325.423 17.2367 332.373 26.4967 336.373 37.2667C340.643 48.7667 343.083 56.8267 345.243 63.9467C348.573 74.9267 351.213 83.5967 358.923 99.3867C359.123 99.7967 359.333 100.217 359.553 100.657C362.563 106.707 367.603 116.837 359.883 122.287C356.223 124.867 352.783 125.817 349.313 125.817L349.293 125.787Z" fill="black"/>
<path d="M192.114 28.558C191.574 28.558 191.024 28.408 190.524 28.098C189.124 27.218 188.694 25.368 189.574 23.968C196.024 13.668 207.944 2.88802 220.024 2.00802C221.674 1.88802 223.114 3.12802 223.234 4.78802C223.354 6.43802 222.114 7.87802 220.454 7.99802C210.534 8.70802 200.124 18.428 194.664 27.148C194.094 28.058 193.114 28.558 192.124 28.558H192.114Z" fill="black"/>
<path d="M152.623 94.8269C152.273 94.8269 151.913 94.7669 151.563 94.6269C146.013 92.5269 140.693 86.1469 141.773 79.5069C142.253 76.5469 145.243 74.4369 150.193 70.9469C157.983 65.4369 171.033 56.2269 179.643 38.7369C180.373 37.2469 182.173 36.6369 183.663 37.3669C185.153 38.0969 185.763 39.8969 185.033 41.3869C175.743 60.2469 161.923 70.0169 153.653 75.8469C151.223 77.5569 148.223 79.6869 147.673 80.6069C147.243 83.9169 150.513 87.8269 153.683 89.0269C155.233 89.6169 156.013 91.3469 155.423 92.8969C154.973 94.0969 153.833 94.8369 152.613 94.8369L152.623 94.8269Z" fill="black"/>
<path d="M209.805 74.4892C209.805 74.4892 193.705 115.449 177.685 123.409C158.355 133.009 134.785 83.2992 158.765 93.3592C171.785 84.3892 194.855 57.4492 194.855 57.4492C194.855 57.4492 189.685 41.4292 199.925 30.4592C212.965 16.4892 229.945 23.5392 235.925 29.5492C241.905 35.5692 243.885 44.5692 242.865 51.5692C241.845 58.5692 236.835 64.5492 232.835 62.5392C229.805 74.5292 219.595 76.3392 209.805 74.4792V74.4892Z" fill="white"/>
<path d="M168.774 87.3782C168.044 87.3782 167.304 87.1081 166.724 86.5681C165.514 85.4381 165.444 83.5381 166.574 82.3281C177.104 71.0481 187.734 60.3081 191.394 56.6381C190.234 52.5481 188.774 42.8881 196.504 32.6381C205.924 20.1481 220.374 16.6581 232.474 23.9581C245.214 31.6481 248.174 47.6781 244.534 54.8981C243.794 56.3781 241.984 56.9781 240.504 56.2281C239.024 55.4881 238.424 53.6781 239.174 52.1981C240.164 50.2181 240.454 46.0781 238.854 41.2581C237.854 38.2481 235.294 32.6681 229.364 29.0881C219.894 23.3681 208.874 26.1881 201.284 36.2481C193.504 46.5681 197.404 55.8281 197.574 56.2181C198.064 57.3481 197.824 58.6881 196.944 59.5581C196.814 59.6881 183.794 72.6481 170.954 86.4081C170.364 87.0381 169.564 87.3581 168.764 87.3581L168.774 87.3782Z" fill="black"/>
<path d="M169.934 128.3C163.704 128.3 157.614 125.24 152.624 119.37C145.494 110.99 141.574 96.9995 148.324 87.5895C149.294 86.2395 151.164 85.9395 152.514 86.8995C153.864 87.8695 154.164 89.7395 153.204 91.0895C148.404 97.7695 151.464 108.74 157.194 115.48C159.844 118.6 167.024 125.35 176.344 120.72C188.634 114.61 202.654 84.4795 207.014 73.3895C207.604 71.8995 209.254 71.1395 210.764 71.6395C217.144 73.7895 222.884 71.4395 225.844 68.7795C228.354 66.5295 229.474 63.7595 228.904 61.1895C228.554 59.5695 229.574 57.9695 231.194 57.6195C232.804 57.2695 234.414 58.2895 234.764 59.9095C235.794 64.5795 233.954 69.5695 229.844 73.2595C225.034 77.5795 218.114 79.3395 211.574 78.0695C210.004 81.8095 206.724 89.2995 202.384 97.3995C194.084 112.87 186.214 122.53 179.004 126.11C176.024 127.59 172.964 128.32 169.934 128.32V128.3Z" fill="black"/>
<path d="M488.694 178.689C488.564 178.689 488.434 178.689 488.304 178.669L330.124 158.219C328.484 158.009 327.324 156.499 327.534 154.859C327.744 153.219 329.244 152.069 330.894 152.269L489.074 172.719C490.714 172.929 491.874 174.439 491.664 176.079C491.464 177.589 490.174 178.699 488.694 178.699V178.689Z" fill="black"/>
<path d="M260.145 149.149C260.015 149.149 259.885 149.149 259.755 149.129L2.61456 115.879C0.974559 115.669 -0.185441 114.159 0.0245588 112.519C0.234559 110.879 1.73456 109.729 3.38456 109.929L260.525 143.169C262.165 143.379 263.325 144.889 263.115 146.529C262.915 148.039 261.625 149.149 260.145 149.149Z" fill="black"/>
</svg>
