<svg width="492" height="250" viewBox="0 0 492 250" fill="none" xmlns="http://www.w3.org/2000/svg">
<path d="M225.665 10.99C225.665 10.99 235.635 6 251.605 6C273.555 6 295.505 17.52 289.185 25.17C285.855 29.2 251.995 51.57 233.525 50.7C216.895 49.92 214.635 23.27 225.665 10.98V10.99Z" fill="white"/>
<path d="M228.854 12.9287C227.074 5.13866 210.534 10.8287 201.414 21.2587C188.594 35.9187 175.174 62.8487 162.134 68.9787C149.094 75.1087 183.244 110.959 201.324 109.909C219.404 108.859 228.854 12.9187 228.854 12.9187V12.9287Z" fill="#2D8C3C"/>
<path d="M332.225 155.409C324.445 102.799 314.585 49.0588 308.395 37.4688C292.395 7.46875 278.545 12.2688 278.545 12.2688C265.585 20.8188 247.735 42.5488 238.855 41.8088C229.975 41.0687 232.315 11.9688 228.075 7.71875C228.075 7.71875 221.625 9.62875 215.405 17.9187C208.835 26.6787 200.265 44.3187 198.835 59.1187C197.405 73.9187 186.505 130.839 186.355 131.929C186.145 133.469 185.935 134.979 185.725 136.469L332.225 155.409Z" fill="#2D8C3C"/>
<path d="M187.075 43.6998C186.535 43.6998 185.985 43.5498 185.495 43.2498C184.085 42.3698 183.655 40.5198 184.535 39.1198C195.005 22.2798 206.065 11.3998 216.515 7.6598C218.075 7.0998 219.795 7.9098 220.355 9.4698C220.915 11.0298 220.105 12.7498 218.545 13.3098C209.515 16.5398 199.245 26.8398 189.635 42.2898C189.065 43.1998 188.085 43.7098 187.085 43.7098L187.075 43.6998Z" fill="black"/>
<path d="M239.415 45.4812C239.355 45.4812 239.295 45.4812 239.235 45.4812C228.375 45.2512 226.905 28.8512 225.835 16.8712C225.595 14.2012 225.385 11.8912 225.115 10.2212C224.845 8.59121 225.955 7.04121 227.585 6.77121C229.205 6.50121 230.765 7.60121 231.035 9.24121C231.345 11.1312 231.565 13.5412 231.815 16.3312C232.535 24.3812 233.875 39.3612 239.365 39.4812H239.435C245.165 39.4812 259.865 25.4712 267.785 17.9312C271.035 14.8312 273.845 12.1512 276.015 10.3112C277.275 9.24121 279.175 9.39121 280.245 10.6612C281.315 11.9212 281.165 13.8212 279.895 14.8912C277.865 16.6112 275.105 19.2412 271.925 22.2712C258.135 35.4112 246.965 45.4812 239.415 45.4812Z" fill="black"/>
<path d="M176.075 150.08C162.535 152.49 137.675 163.75 126.055 169.25C124.025 170.21 124.405 173.2 126.605 173.63L197.415 187.56C197.855 187.65 198.305 187.61 198.725 187.44C203.665 185.47 236.275 172.44 254.915 164.74C257.115 163.83 256.685 160.6 254.325 160.29L176.795 150.07C176.555 150.04 176.315 150.04 176.085 150.08H176.075Z" fill="#82BE28"/>
<path d="M488.694 178.64C488.564 178.64 488.434 178.64 488.304 178.62L330.124 158.17C328.484 157.96 327.324 156.45 327.534 154.81C327.744 153.17 329.244 152.02 330.894 152.22L489.074 172.67C490.714 172.88 491.874 174.39 491.664 176.03C491.464 177.54 490.174 178.65 488.694 178.65V178.64Z" fill="black"/>
<path d="M260.145 149.09C260.015 149.09 259.885 149.09 259.755 149.07L2.61456 115.83C0.974559 115.62 -0.185441 114.11 0.0245588 112.47C0.234559 110.83 1.73456 109.68 3.38456 109.88L260.525 143.12C262.165 143.33 263.325 144.84 263.115 146.48C262.915 147.99 261.625 149.1 260.145 149.1V149.09Z" fill="black"/>
<path d="M150.055 74.271C144.695 75.101 135.945 83.291 134.405 99.791C132.865 116.291 134.145 140.031 166.585 141.141C193.115 120.411 163.325 72.211 150.045 74.271H150.055Z" fill="#2D8C3C"/>
<path d="M166.584 144.14C166.584 144.14 166.514 144.14 166.484 144.14C154.164 143.72 144.904 140.08 138.964 133.32C130.294 123.48 130.504 109.31 131.424 99.5104C133.174 80.7404 143.494 72.2504 149.594 71.3004C156.374 70.2604 167.694 78.7104 175.374 96.4404C183.814 115.93 181.214 133.52 168.444 143.5C167.914 143.91 167.264 144.14 166.594 144.14H166.584ZM150.514 77.2404C147.024 77.7804 138.864 84.2804 137.394 100.08C136.584 108.77 136.334 121.27 143.464 129.37C148.104 134.64 155.544 137.58 165.584 138.11C180.004 125.86 172.544 105.03 169.864 98.8404C163.774 84.7704 154.334 76.6404 150.514 77.2404Z" fill="black"/>
<path d="M151.344 93.829C150.564 92.849 141.404 70.059 149.844 59.189C156.174 51.029 175.044 41.289 179.604 47.569C184.164 53.859 180.934 66.869 181.974 67.869C183.984 69.809 190.264 59.269 194.754 62.619C201.944 67.989 190.084 76.769 179.924 91.259C172.834 99.539 155.584 99.099 151.344 93.829Z" fill="white"/>
<path d="M163.226 100.65C163.056 100.65 162.876 100.65 162.706 100.65C156.536 100.56 151.416 98.7097 148.996 95.7097C148.036 94.5197 137.686 69.9397 147.466 57.3397C152.756 50.5297 166.156 42.4497 174.926 42.5497C178.896 42.6197 180.976 44.3497 182.026 45.7997C185.486 50.5697 185.266 57.9197 184.956 62.8697C187.876 60.3997 192.326 57.0597 196.546 60.2097C198.516 61.6797 199.646 63.5098 199.906 65.6297C200.486 70.4697 196.426 75.3698 190.816 82.1598C188.176 85.3498 185.196 88.9597 182.376 92.9697C182.316 93.0498 182.256 93.1297 182.196 93.1997C178.186 97.8797 171.116 100.65 163.226 100.65ZM153.796 92.0798C154.926 93.2897 158.146 94.5798 162.806 94.6497C167.676 94.7298 174.066 93.3797 177.556 89.3997C180.476 85.2497 183.516 81.5797 186.196 78.3397C190.146 73.5697 194.226 68.6297 193.946 66.3497C193.926 66.1697 193.866 65.6997 192.956 65.0197C192.256 64.4997 189.326 67.0197 188.216 67.9697C185.886 69.9697 182.696 72.7097 179.886 70.0197C178.546 68.7297 178.656 67.0197 178.886 63.6097C179.156 59.5397 179.616 52.7197 177.156 49.3197C176.716 48.7097 175.636 48.5697 174.816 48.5497C174.766 48.5497 174.726 48.5497 174.676 48.5497C168.546 48.5497 156.846 55.0197 152.196 61.0197C145.296 69.8997 152.506 89.5298 153.776 92.0798H153.796Z" fill="black"/>
<path d="M175.275 147.181C168.335 148.441 161.595 150.921 155.025 153.441C147.525 156.321 140.135 159.501 132.815 162.821C130.035 164.081 127.055 165.201 124.415 166.721C120.295 169.101 121.235 175.361 125.805 176.521C127.335 176.911 128.925 177.131 130.475 177.441C139.335 179.181 148.195 180.931 157.055 182.671C166.945 184.621 176.835 186.561 186.715 188.511C189.555 189.071 192.395 189.631 195.225 190.191C195.685 190.281 196.135 190.381 196.595 190.461C198.775 190.831 200.485 189.951 202.435 189.171C214.855 184.211 227.275 179.221 239.665 174.191C243.135 172.781 246.595 171.371 250.055 169.961C251.575 169.341 253.105 168.711 254.625 168.081C256.715 167.221 258.595 166.291 259.185 163.901C259.715 161.741 258.815 159.311 256.915 158.121C256.065 157.591 255.195 157.401 254.215 157.271C253.645 157.191 253.065 157.121 252.495 157.041C245.025 156.061 237.555 155.071 230.085 154.091C219.455 152.691 208.825 151.291 198.195 149.891C191.365 148.991 184.535 148.091 177.705 147.191C177.155 147.121 176.645 147.031 176.085 147.081C174.475 147.241 173.085 148.351 173.085 150.081C173.085 151.581 174.465 153.241 176.085 153.081C177.505 152.941 179.085 153.371 180.495 153.551L190.535 154.871C200.405 156.171 210.275 157.471 220.135 158.771C229.135 159.961 238.125 161.141 247.125 162.331L253.725 163.201C253.895 163.221 254.075 163.241 254.255 163.271C254.255 163.271 254.335 163.291 254.335 163.281C254.195 163.401 253.705 163.151 253.585 163.101C253.775 163.171 253.925 163.421 253.565 163.061C253.445 162.941 253.335 162.581 253.505 163.021C253.415 162.791 253.365 162.651 253.345 162.401C253.395 162.951 253.345 162.401 253.415 162.301C253.125 162.721 253.415 162.341 253.475 162.241C253.755 161.801 253.625 162.071 253.475 162.201C253.605 162.081 253.665 162.011 253.855 161.961C253.115 162.161 252.375 162.571 251.665 162.861C250.105 163.501 248.545 164.141 246.975 164.781C233.815 170.161 220.615 175.471 207.405 180.761C205.245 181.621 203.095 182.491 200.935 183.351C200.225 183.631 199.515 183.921 198.815 184.201C198.555 184.301 197.465 184.741 198.195 184.671C197.775 184.711 197.175 184.471 196.765 184.391L193.425 183.731C184.895 182.051 176.355 180.371 167.825 178.691C158.135 176.781 148.445 174.881 138.755 172.971C135.715 172.371 132.675 171.771 129.635 171.181C128.965 171.051 128.295 170.931 127.635 170.791C127.575 170.781 127.515 170.761 127.455 170.761C127.135 170.711 127.195 170.541 127.365 170.761C127.455 170.881 127.615 171.021 127.725 171.151C127.555 170.931 127.685 170.791 127.725 171.211C127.735 171.351 127.865 171.801 127.745 171.291C127.775 171.431 127.565 171.891 127.765 171.371C127.705 171.511 127.685 171.621 127.595 171.751C127.465 171.931 127.185 171.931 127.455 171.921C127.725 171.911 128.205 171.561 128.455 171.441C141.435 165.331 154.415 159.451 168.165 155.201C171.035 154.311 173.935 153.521 176.895 152.981C178.495 152.691 179.395 150.751 178.995 149.291C178.535 147.611 176.905 146.901 175.305 147.191L175.275 147.181Z" fill="black"/>
<path d="M231.802 153.019C247.947 132.279 244.223 102.378 223.483 86.2323C202.743 70.0869 172.842 73.8113 156.697 94.551C140.551 115.291 144.276 145.192 165.015 161.337C185.755 177.483 215.656 173.758 231.802 153.019Z" fill="white"/>
<path d="M194.244 174.36C166.344 174.36 143.654 151.66 143.654 123.77C143.654 95.8797 166.354 73.1797 194.244 73.1797C222.134 73.1797 244.834 95.8797 244.834 123.77C244.834 151.66 222.134 174.36 194.244 174.36ZM194.244 79.1697C169.654 79.1697 149.654 99.1697 149.654 123.76C149.654 148.35 169.654 168.35 194.244 168.35C218.834 168.35 238.834 148.35 238.834 123.76C238.834 99.1697 218.834 79.1697 194.244 79.1697Z" fill="black"/>
<path d="M160.615 126.769C158.955 126.769 157.615 125.429 157.615 123.769C157.615 112.049 163.295 100.939 172.805 94.0692C174.145 93.0992 176.025 93.3992 176.995 94.7392C177.965 96.0792 177.665 97.9592 176.325 98.9292C168.365 104.679 163.615 113.969 163.615 123.769C163.615 125.429 162.275 126.769 160.615 126.769Z" fill="black"/>
<path d="M184.395 94.6101C183.105 94.6101 181.925 93.7801 181.525 92.4901C181.045 90.9101 181.935 89.2301 183.515 88.7401C185.085 88.2601 186.695 87.8901 188.305 87.6201C189.945 87.3601 191.485 88.4601 191.745 90.1001C192.015 91.7401 190.905 93.2801 189.265 93.5401C187.915 93.7601 186.565 94.0701 185.255 94.4701C184.965 94.5601 184.665 94.6001 184.375 94.6001L184.395 94.6101Z" fill="black"/>
<path d="M262.714 122.039C261.024 122.039 228.074 114.689 221.524 101.079C216.604 90.8793 218.814 69.7793 229.364 70.1993C239.914 70.6193 252.664 81.4793 254.564 81.2993C258.244 80.9493 250.534 69.2693 257.634 67.8793C269.004 65.6393 270.674 80.5993 280.184 97.8693C284.694 108.749 271.844 122.069 262.714 122.039Z" fill="white"/>
<path d="M262.734 125.04H262.704C260.714 125.04 226.194 117.69 218.814 102.39C214.644 93.7496 215.164 79.8096 219.924 72.5696C222.324 68.9096 225.634 67.0696 229.474 67.2196C237.434 67.5396 246.174 72.9896 251.394 76.2496C251.614 76.3896 251.854 76.5296 252.084 76.6796C251.494 73.8196 250.904 70.3896 252.664 67.7296C253.334 66.7196 254.634 65.4296 257.044 64.9496C267.544 62.8796 271.614 72.1496 276.324 82.8796C278.124 86.9896 280.174 91.6496 282.804 96.4296C282.854 96.5296 282.904 96.6296 282.944 96.7296C285.154 102.05 284.224 108.17 280.344 113.97C275.974 120.5 268.734 125.05 262.724 125.05L262.734 125.04ZM228.984 73.1996C228.204 73.1996 226.544 73.4096 224.944 75.8496C221.384 81.2796 221.024 93.1296 224.224 99.7796C229.634 111.01 258.364 118.54 262.814 119.04C266.794 118.99 272.174 115.39 275.364 110.62C276.934 108.28 279.264 103.71 277.464 99.1596C274.744 94.1996 272.664 89.4596 270.834 85.2796C265.764 73.7296 263.504 69.7796 258.204 70.8196C257.864 70.8896 257.694 70.9796 257.664 71.0296C257.184 71.7496 257.774 74.5696 258.054 75.9196C258.584 78.4596 259.084 80.8496 257.744 82.6796C257.064 83.5996 256.034 84.1696 254.844 84.2896C253.234 84.4396 251.764 83.5296 248.224 81.3296C243.504 78.3896 235.604 73.4596 229.234 73.2096C229.164 73.2096 229.084 73.2096 228.984 73.2096V73.1996Z" fill="black"/>
<path d="M282.184 82.8698C282.544 85.2998 275.574 91.7598 277.954 102.32C280.334 112.88 264.954 123.86 255.864 130.42C246.774 136.99 249.794 154.04 256.264 155.4C262.734 156.76 288.954 151.77 306.184 155.4C323.974 159.14 332.514 159.67 337.674 140.73C341.734 125.84 331.794 65.6298 322.634 47.7998C310.604 24.3898 295.524 12.6998 281.964 12.3398C280.644 20.0798 278.434 57.3198 282.184 82.8598V82.8698Z" fill="#2D8C3C"/>
<path d="M320.984 160.33C317.444 160.33 313.644 159.75 309.684 159.15C307.434 158.81 305.114 158.46 302.684 158.17C292.364 156.97 280.824 157.67 271.544 158.23C264.134 158.68 258.774 159 255.634 158.34C251.834 157.54 248.854 153.7 247.664 148.07C246.354 141.9 247.254 132.95 254.104 128L254.434 127.77C262.304 122.08 276.944 111.5 275.034 102.99C273.174 94.7301 276.344 88.5901 277.864 85.6402C278.624 84.1702 280.434 83.5901 281.904 84.3502C283.374 85.1102 283.954 86.9202 283.194 88.3902C281.274 92.1002 279.674 96.2802 280.884 101.67C283.664 114.04 267.564 125.68 257.954 132.63L257.634 132.86C253.414 135.91 252.544 142.07 253.554 146.83C254.264 150.19 255.804 152.25 256.894 152.48C259.234 152.97 264.784 152.64 271.204 152.25C280.714 151.67 292.554 150.96 303.394 152.21C305.934 152.5 308.304 152.87 310.604 153.21C324.024 155.25 330.764 156.27 334.774 140.02C338.934 123.17 328.634 66.0302 319.974 49.1802C310.224 30.2002 295.484 18.3802 286.564 16.8902C284.934 16.6202 283.824 15.0702 284.094 13.4402C284.364 11.8102 285.914 10.7002 287.544 10.9702C301.574 13.3102 317.154 30.5802 325.304 46.4302C334.544 64.4202 345.074 123.29 340.594 141.45C336.804 156.79 329.714 160.31 320.994 160.31L320.984 160.33Z" fill="black"/>
<path d="M319.974 112.96C318.844 112.96 317.754 112.31 317.244 111.21C310.354 96.2595 295.814 83.7795 292.484 83.7695C290.834 83.7995 289.444 82.5195 289.394 80.8595C289.344 79.1995 290.644 77.8195 292.304 77.7695C292.354 77.7695 292.404 77.7695 292.464 77.7695C299.974 77.7695 315.984 94.1195 322.704 108.7C323.394 110.2 322.744 111.99 321.234 112.68C320.824 112.87 320.404 112.96 319.984 112.96H319.974Z" fill="black"/>
</svg>
