<svg width="469" height="615" viewBox="0 0 469 615" fill="none" xmlns="http://www.w3.org/2000/svg">
<path d="M132.277 277.712C116.54 307.782 38.297 486.973 38.297 486.973L171.982 539.053L255.634 316.102L132.277 277.712Z" fill="#82BE28"/>
<path d="M253.347 317.531C253.058 317.531 252.768 317.491 252.479 317.401L131.417 280.581C129.83 280.101 128.942 278.421 129.421 276.841C129.9 275.261 131.577 274.361 133.153 274.841L254.215 311.661C255.802 312.141 256.69 313.821 256.211 315.401C255.822 316.701 254.634 317.531 253.347 317.531Z" fill="black"/>
<path d="M41.8704 513.431V513.391L34.7056 509.11C34.3264 508.99 28.908 509.651 28.5088 509.571C26.8524 509.241 25.0762 509.281 23.2002 509.771C12.9819 512.441 3.97115 527.081 3.07307 542.471C2.38453 554.401 6.00681 564.061 13.2813 566.231C19.7974 568.181 25.2358 570.931 31.8617 568.961C41.9602 565.951 51.0907 551.651 51.9888 536.261C52.6674 524.531 48.4364 515.771 41.8704 513.431Z" fill="white"/>
<path d="M24.6959 572.891C19.5868 572.791 14.6772 571.191 10.566 568.211C2.7227 562.511 -0.600216 554.271 0.0883166 542.291C0.706998 531.691 5.03777 521.111 11.6836 513.991C14.9466 510.501 18.6188 508.051 22.3109 506.901C30.1941 504.451 37.8877 505.731 43.9648 510.511C51.2493 516.231 55.5701 526.411 54.9713 536.441C53.9036 554.411 45.1523 568.311 32.6689 571.851C30.0046 572.601 27.3203 572.951 24.6759 572.901L24.6959 572.891ZM16.0543 518.081C10.4163 524.121 6.59445 533.521 6.06558 542.631C5.48681 552.511 7.96153 558.901 14.0785 563.341C18.8184 566.781 25.0052 567.771 31.0523 566.061C41.051 563.231 48.096 551.461 49.004 536.071C49.4731 528.061 45.9705 519.681 40.2826 515.211C35.7323 511.631 30.1343 510.741 24.0971 512.611C21.3929 513.451 18.6088 515.341 16.0643 518.071L16.0543 518.081Z" fill="black"/>
<path d="M136.747 559.762C136.747 559.762 26.9511 523.752 18.3195 519.272C13.1506 516.592 21.4429 501.392 21.4429 501.392C40.8515 486.382 98.8778 464.152 98.8778 464.152C100.554 462.822 219.72 491.842 219.72 491.842C225.727 493.272 227.055 501.252 221.846 504.562L142.664 559.022C140.908 560.142 138.743 560.412 136.757 559.762H136.747Z" fill="#82BE28"/>
<path d="M138.911 563.113C137.874 563.113 136.826 562.953 135.808 562.623C131.308 561.153 25.6729 526.493 16.9315 521.943C15.4646 521.183 14.8958 519.373 15.6542 517.903C16.4126 516.433 18.2188 515.863 19.6856 516.623C26.3414 520.083 99.7749 544.493 137.664 556.923C138.762 557.283 139.949 557.143 140.947 556.553L203.564 509.033C203.634 508.983 203.693 508.933 203.763 508.893C205.759 507.623 208.683 501.313 209.232 495.753C209.521 492.802 208.962 491.613 208.803 491.453C207.196 491.072 206.238 489.472 206.617 487.862C207.006 486.252 208.653 485.282 210.259 485.662C211.756 486.022 214.381 487.272 215.109 491.652C216.187 498.083 212.345 510.403 207.086 513.883L144.44 561.423C144.37 561.473 144.31 561.523 144.24 561.563C142.624 562.593 140.768 563.123 138.902 563.123L138.911 563.113Z" fill="black"/>
<path d="M291.307 266.193C304.859 243.932 311.963 226.572 307.902 213.392C304.17 201.272 294.551 191.692 273.016 184.892C241.394 174.912 216.377 168.472 190.213 178.962C167.431 189.902 151.256 218.452 139.93 243.552C135.599 253.143 63.2136 430.733 63.2136 430.733L22.1212 506.464L52.2869 491.604L76.6549 437.333C76.7547 437.133 76.8445 436.933 76.9344 436.733C76.9344 436.733 160.616 245.932 166.633 234.752C173.908 221.222 186.191 199.862 196.25 196.062C217.884 185.722 233.73 196.632 264.674 206.402C277.786 210.542 282.586 213.802 284.472 219.932C286.767 227.382 283.005 242.302 273.944 253.833C251.951 281.813 190.812 449.573 186.571 460.853L129.642 577.014C127.786 580.714 133.324 600.624 134.661 597.954L157.892 551.554L215.519 516.894L233.321 552.564C234.758 555.144 249.417 548.634 247.261 544.774L228.541 497.224L253.598 343.553C269.015 306.933 284.721 276.983 291.287 266.203L291.307 266.193Z" fill="#82BE28"/>
<path d="M154.779 217.461C154.29 217.461 153.791 217.341 153.332 217.081C151.885 216.281 151.366 214.451 152.164 213.001C166.454 187.111 181.751 179.741 184.276 178.661C192.378 173.411 204.093 171.631 220.089 173.211C221.736 173.371 222.933 174.841 222.774 176.491C222.614 178.141 221.157 179.351 219.501 179.181C204.972 177.741 194.145 179.301 187.329 183.831C187.14 183.951 186.94 184.061 186.74 184.131C186.721 184.131 182.939 185.641 177.47 190.281C172.401 194.571 164.807 202.511 157.413 215.901C156.864 216.891 155.846 217.451 154.789 217.451L154.779 217.461Z" fill="black"/>
<path d="M235.995 450.831C235.835 450.831 235.666 450.821 235.506 450.791C233.88 450.521 232.772 448.981 233.041 447.341L250.714 340.24C250.754 340.01 250.813 339.78 250.913 339.56C264.674 306.88 280.061 280.1 288.334 265.71C289.351 263.93 290.259 262.36 291.028 261C303.501 239.01 308.78 226.41 305.048 214.27C302.813 207.01 298.751 202.57 290.569 198.43C289.092 197.68 288.503 195.88 289.242 194.4C289.99 192.92 291.786 192.33 293.263 193.07C302.833 197.91 308.061 203.72 310.766 212.49C315.156 226.73 309.578 240.43 296.237 263.95C295.458 265.32 294.55 266.9 293.522 268.69C285.35 282.92 270.152 309.36 256.571 341.55L238.959 448.301C238.719 449.771 237.452 450.811 236.005 450.811L235.995 450.831Z" fill="black"/>
<path d="M229.847 346.572C229.448 346.572 229.039 346.492 228.64 346.312C227.123 345.642 226.445 343.872 227.103 342.352C241.542 309.511 253.088 285.231 261.4 270.191C280.958 236.501 283.543 227.131 281.597 220.801C280.26 216.441 277.127 213.461 263.755 209.241C260.592 208.241 257.548 207.261 254.624 206.321C229.708 198.281 213.223 192.961 194.922 201.651C187.049 206.401 179.564 214.361 166.762 238.971C162.98 246.251 151.913 271.931 147.333 282.631C146.685 284.151 144.918 284.861 143.402 284.211C141.885 283.561 141.176 281.791 141.835 280.271C147.553 266.901 157.711 243.391 161.453 236.201C174.974 210.211 183.157 201.711 191.968 196.431C192.048 196.381 192.128 196.341 192.218 196.301C212.714 186.501 230.117 192.121 256.461 200.621C259.374 201.561 262.398 202.541 265.551 203.531C278.035 207.471 284.82 210.951 287.315 219.041C289.879 227.381 287.504 237.171 266.609 273.161C258.406 287.991 246.951 312.101 232.581 344.772C232.093 345.892 230.995 346.562 229.837 346.562L229.847 346.572Z" fill="black"/>
<path d="M168.708 488.552C168.259 488.552 167.8 488.452 167.371 488.232C165.894 487.492 165.295 485.692 166.034 484.212L177.968 460.272C180.293 454.102 195.261 416.742 212.864 375.362C213.513 373.842 215.269 373.132 216.796 373.782C218.312 374.432 219.021 376.192 218.372 377.722C200.62 419.462 185.392 457.552 183.526 462.542C183.487 462.642 183.447 462.732 183.407 462.832L171.402 486.912C170.873 487.962 169.826 488.572 168.718 488.572L168.708 488.552Z" fill="black"/>
<path d="M148.561 528.961C148.112 528.961 147.653 528.861 147.224 528.641C145.747 527.901 145.149 526.101 145.887 524.621L158.041 500.241C158.78 498.761 160.576 498.161 162.053 498.901C163.53 499.641 164.128 501.441 163.39 502.921L151.236 527.301C150.707 528.351 149.659 528.961 148.552 528.961H148.561Z" fill="black"/>
<path d="M151.415 567.501C150.966 567.501 150.507 567.401 150.078 567.181C148.601 566.441 148.002 564.631 148.741 563.151L155.227 550.201C155.486 549.691 155.876 549.271 156.364 548.971L213.992 514.311C214.71 513.881 215.568 513.771 216.367 514.001C217.165 514.231 217.833 514.791 218.203 515.541L235.466 550.131C238.03 549.841 243.229 547.061 244.367 545.561L225.767 498.311C225.567 497.801 225.507 497.261 225.597 496.721L228.261 480.591C228.531 478.951 230.077 477.851 231.704 478.121C233.33 478.391 234.438 479.931 234.169 481.571L231.644 496.881L250.005 543.521C250.823 545.181 251.522 549.021 244.127 553.151C242.361 554.141 233.39 558.831 230.716 554.011C230.696 553.971 230.676 553.931 230.656 553.891L214.301 521.121L160.196 553.661L154.099 565.831C153.57 566.881 152.523 567.491 151.425 567.491L151.415 567.501Z" fill="black"/>
<path d="M24.0159 502.683C23.507 502.683 22.9981 502.553 22.5291 502.283C21.0921 501.463 20.6032 499.623 21.4214 498.193L49.6512 448.833C50.4695 447.393 52.3056 446.903 53.7325 447.723C55.1695 448.543 55.6584 450.383 54.8402 451.813L26.6104 501.173C26.0615 502.143 25.0437 502.683 24.0059 502.683H24.0159Z" fill="black"/>
<path d="M57.0473 444.633C56.6682 444.633 56.289 444.563 55.9198 444.413C54.393 443.783 53.6546 442.033 54.2832 440.503C77.7233 383.063 115.273 292.153 122.658 277.133C123.386 275.643 125.182 275.033 126.669 275.763C128.156 276.493 128.764 278.293 128.036 279.783C120.722 294.663 83.2415 385.413 59.8314 442.773C59.3624 443.933 58.2348 444.643 57.0573 444.643L57.0473 444.633Z" fill="black"/>
<path d="M164.618 549.042V548.992L156.675 545.892C156.265 545.832 150.747 547.582 150.328 547.572C148.572 547.542 146.746 547.932 144.87 548.812C134.651 553.602 127.187 570.723 128.195 587.063C128.984 599.723 133.943 609.163 141.736 610.033C148.721 610.813 154.679 612.643 161.275 609.293C171.333 604.173 178.957 587.383 177.949 571.043C177.181 558.602 171.702 550.222 164.618 549.042Z" fill="white"/>
<path d="M163.051 569.564V569.544L158.351 569.074C158.202 569.054 158.052 569.034 157.902 569.034C157.274 569.034 156.615 569.164 155.937 569.484C152.254 571.204 149.57 577.374 149.929 583.264C150.209 587.824 152.005 591.224 154.809 591.534C157.324 591.814 159.469 592.474 161.844 591.264C165.466 589.414 168.21 583.374 167.851 577.484C167.572 573.004 165.596 569.984 163.051 569.564Z" fill="#82BE28"/>
<path d="M157.632 595.223C156.045 595.193 154.499 594.813 153.082 594.103C149.28 592.183 147.274 588.693 146.945 583.443C146.516 576.463 149.779 569.323 154.549 566.823C158.141 564.943 161.873 564.943 165.066 566.823C168.519 568.863 170.744 572.793 170.854 577.093C171.053 584.813 167.97 591.593 163.17 593.963C161.374 594.853 159.478 595.273 157.632 595.243V595.223ZM157.323 572.133C154.998 573.353 152.613 578.143 152.922 583.063C153.161 586.913 154.499 588.093 155.776 588.743C157.153 589.443 158.879 589.373 160.526 588.563C162.751 587.463 165.026 583.123 164.867 577.233C164.807 575.053 163.669 572.943 162.033 571.983C160.655 571.173 159.069 571.223 157.323 572.133Z" fill="black"/>
<path d="M149.68 614.973C146.058 614.903 142.545 614.053 139.332 612.433C130.481 607.953 126.001 599.953 125.212 587.253C124.514 576.083 127.637 564.223 133.545 555.533C136.428 551.293 139.861 548.053 143.483 546.163C151.337 542.043 159.479 541.943 166.405 545.853C174.587 550.483 180.285 560.293 180.934 570.853C182.091 589.773 174.896 605.913 162.593 611.973C158.382 614.053 153.961 615.053 149.68 614.963V614.973ZM138.494 558.913C133.385 566.423 130.581 577.143 131.19 586.883C132.028 600.343 137.426 604.743 142.036 607.073C147.355 609.763 153.891 609.593 159.958 606.593C167.642 602.803 176.184 591.263 174.966 571.223C174.447 562.773 169.827 554.673 163.471 551.073C158.302 548.143 152.344 548.283 146.267 551.473C143.523 552.913 140.839 555.483 138.504 558.913H138.494Z" fill="black"/>
<path d="M242.294 500.642V500.592L234.351 497.492C233.941 497.432 228.423 499.182 228.004 499.172C226.248 499.142 224.422 499.532 222.546 500.412C212.328 505.202 204.863 522.322 205.871 538.662C206.66 551.322 211.619 560.762 219.412 561.632C226.398 562.412 232.355 564.242 238.951 560.892C249.009 555.772 256.633 538.982 255.625 522.642C254.857 510.202 249.379 501.822 242.294 500.642Z" fill="white"/>
<path d="M240.735 521.153V521.133L236.035 520.663C235.886 520.643 235.736 520.623 235.586 520.623C234.958 520.623 234.299 520.753 233.62 521.073C229.938 522.793 227.254 528.963 227.613 534.853C227.893 539.413 229.689 542.813 232.493 543.123C235.007 543.403 237.153 544.063 239.528 542.853C243.15 541.003 245.894 534.963 245.535 529.073C245.256 524.593 243.28 521.573 240.735 521.153Z" fill="#82BE28"/>
<path d="M235.318 546.822C233.731 546.792 232.184 546.412 230.767 545.702C226.966 543.782 224.96 540.292 224.631 535.042C224.201 528.062 227.465 520.922 232.234 518.422C235.827 516.542 239.559 516.542 242.752 518.422C246.205 520.462 248.43 524.392 248.54 528.692C248.739 536.412 245.656 543.192 240.856 545.562C239.06 546.452 237.164 546.872 235.318 546.842V546.822ZM235.008 523.732C232.683 524.952 230.298 529.742 230.608 534.662C230.847 538.512 232.184 539.692 233.462 540.342C234.839 541.042 236.565 540.972 238.212 540.162C240.437 539.062 242.712 534.722 242.552 528.832C242.493 526.652 241.355 524.542 239.718 523.582C238.341 522.772 236.755 522.822 235.008 523.732Z" fill="black"/>
<path d="M227.364 566.563C223.742 566.493 220.229 565.643 217.016 564.023C208.165 559.543 203.685 551.543 202.896 538.843C202.198 527.672 205.321 515.812 211.228 507.122C214.112 502.882 217.545 499.642 221.167 497.752C229.021 493.632 237.163 493.532 244.088 497.442C252.271 502.072 257.969 511.882 258.617 522.442C259.775 541.362 252.58 557.503 240.277 563.563C236.066 565.643 231.645 566.643 227.364 566.553V566.563ZM233.581 500.582C230.467 500.522 227.224 501.352 223.931 503.072C221.187 504.512 218.503 507.082 216.168 510.512C211.059 518.022 208.255 528.742 208.864 538.482C209.702 551.943 215.1 556.343 219.71 558.673C225.029 561.363 231.565 561.193 237.632 558.193C245.316 554.403 253.858 542.863 252.64 522.822C252.121 514.372 247.501 506.272 241.145 502.672C238.77 501.332 236.225 500.632 233.591 500.582H233.581Z" fill="black"/>
<path d="M92.9917 447.682C105.934 439.832 117.35 422.092 123.098 415.282C128.845 408.471 143.744 414.072 147.984 418.052C152.225 422.032 159.24 438.182 160.089 461.132C160.937 484.082 141.249 520.182 125.143 526.782C112.979 530.432 102.741 522.292 105.126 511.092C105.695 504.182 95.9753 498.922 88.4913 500.812C78.9416 503.222 73.5232 511.322 66.2188 508.222C57.657 504.592 53.6855 490.022 56.4197 482.722C61.9978 467.832 70.35 479.242 73.7926 479.742C78.1733 474.492 99.2284 459.912 92.9917 447.672V447.682Z" fill="#2D8C3C"/>
<path d="M73.583 481.222C73.4432 481.222 73.3035 481.222 73.1539 481.192C72.3855 481.082 71.5174 480.812 70.3997 480.472C69.1225 480.082 67.5358 479.592 65.9592 479.322C64.3327 479.042 63.235 477.492 63.5144 475.862C63.7938 474.232 65.3405 473.132 66.9671 473.412C68.9229 473.742 70.7091 474.292 72.146 474.732C72.3057 474.782 72.4753 474.832 72.635 474.882C73.3435 474.222 74.2815 473.432 75.5188 472.382C81.5659 467.252 94.1491 456.592 90.3073 449.042C89.9281 448.292 89.8782 447.412 90.1676 446.622C90.457 445.832 91.0757 445.202 91.864 444.892C96.8334 442.902 99.817 438.852 102.701 434.942L103.369 434.042C104.357 432.712 106.233 432.442 107.561 433.432C108.888 434.422 109.157 436.302 108.169 437.632L107.521 438.512C104.886 442.082 101.703 446.402 96.7136 449.212C99.3281 460.072 86.5254 470.922 79.3806 476.972C78.0135 478.132 76.3071 479.572 75.9579 480.032C75.3891 480.782 74.491 481.222 73.563 481.222H73.583Z" fill="black"/>
<path d="M120.104 529.122C115.733 529.122 110.963 527.702 106.513 523.932C103.2 521.132 101.932 516.402 102.86 510.272C102.88 510.142 102.91 510.002 102.95 509.872C103.579 507.712 103.329 506.042 102.212 504.882C100.017 502.632 94.9274 502.162 89.2495 503.692C85.9266 504.592 83.1026 506.252 80.3584 507.862C75.6984 510.612 70.8686 513.442 65.0311 510.962C63.2549 510.212 61.5485 509.102 59.9719 507.692C59.0738 506.952 53.6354 502.182 52.8171 493.512C52.6575 491.862 53.8649 490.402 55.5114 490.242C57.1479 490.092 58.6148 491.302 58.7744 492.942C59.3931 499.502 63.5642 502.892 63.7438 503.032C63.7937 503.072 63.8636 503.132 63.9135 503.172C65.0111 504.172 66.1687 504.932 67.3561 505.432C70.2899 506.672 72.7945 505.342 77.3249 502.682C80.2586 500.952 83.5915 498.992 87.6928 497.892C95.6658 495.742 102.691 496.782 106.493 500.682C109.117 503.382 109.925 507.162 108.758 511.342C108.429 513.632 108.259 517.532 110.374 519.332C117.699 525.532 124.834 522.502 126.849 521.432C140.52 514.142 158.342 475.092 158.232 457.732C158.073 431.452 150.579 424.532 146.547 420.812L145.919 420.232C144.921 419.302 143.474 418.652 141.738 418.372C140.111 418.102 139.003 416.562 139.263 414.932C139.522 413.302 141.069 412.192 142.696 412.452C145.609 412.932 148.144 414.102 150.01 415.852L150.599 416.402C155.299 420.742 164.04 428.802 164.21 457.702C164.329 477.162 145.48 518.292 129.653 526.732C126.999 528.152 123.676 529.112 120.084 529.112L120.104 529.122Z" fill="black"/>
<path d="M110.881 526.282C110.293 526.282 109.694 526.112 109.175 525.742C105.922 523.472 103.886 520.042 103.307 515.812C102.35 508.902 105.413 501.392 107.778 498.492C113.186 491.872 119.563 490.642 126.738 494.822C128.165 495.652 128.653 497.492 127.815 498.922C126.987 500.352 125.151 500.842 123.724 500.002C119.124 497.322 115.951 497.962 112.408 502.292C110.891 504.142 108.536 509.972 109.235 514.982C109.594 517.582 110.692 519.482 112.598 520.812C113.955 521.762 114.294 523.632 113.346 524.992C112.767 525.832 111.829 526.282 110.881 526.282Z" fill="black"/>
<path d="M130.389 466.883C129.042 466.883 127.815 465.963 127.486 464.593C127.086 462.983 128.074 461.363 129.681 460.963C134.371 459.813 142.703 453.923 145.527 446.293C146.106 444.743 147.822 443.953 149.379 444.523C150.926 445.103 151.724 446.823 151.145 448.373C147.762 457.533 138.113 465.063 131.108 466.783C130.868 466.843 130.629 466.873 130.389 466.873V466.883Z" fill="black"/>
<path d="M179.167 415.132C179.167 415.132 179.187 415.052 179.197 415.012C179.477 413.552 179.267 413.192 179.038 411.982C188.527 407.412 188.677 393.542 188.078 387.792C187.44 381.702 185.234 372.192 181.023 367.912C176.812 363.632 166.744 352.821 148.054 353.712C129.364 354.602 115.583 374.752 115.054 375.412C115.004 375.482 112.609 378.592 110.135 383.392C108.688 385.712 107.59 388.322 106.832 391.092C105.255 395.732 105.814 395.472 106.343 400.752C107.331 410.652 118.906 420.342 121.351 422.592C121.351 422.592 128.635 428.542 138.125 429.132C147.605 429.722 146.687 428.422 152.654 425.322C156.855 423.442 159.25 424.832 160.168 423.852C160.667 424.112 161.465 424.512 162.493 424.882C164.828 425.732 168.281 426.452 171.614 425.142C175.196 423.732 177.74 420.362 179.177 415.132H179.167Z" fill="white"/>
<path d="M120.972 391.901C122.956 391.901 124.564 390.289 124.564 388.301C124.564 386.313 122.956 384.701 120.972 384.701C118.988 384.701 117.379 386.313 117.379 388.301C117.379 390.289 118.988 391.901 120.972 391.901Z" fill="black"/>
<path d="M143.054 405.061C145.038 405.061 146.646 403.449 146.646 401.461C146.646 399.473 145.038 397.861 143.054 397.861C141.07 397.861 139.462 399.473 139.462 401.461C139.462 403.449 141.07 405.061 143.054 405.061Z" fill="black"/>
<path d="M121.101 426.262C120.892 426.262 120.692 426.242 120.482 426.202C115.363 425.122 105.315 418.962 103.898 403.382C102.551 388.512 110.603 376.822 112.23 374.622C118.467 365.662 133.135 344.582 160.956 351.672C162.563 352.082 163.531 353.712 163.122 355.322C162.712 356.932 161.086 357.902 159.479 357.492C135.67 351.422 123.596 368.782 117.11 378.102C117.09 378.122 117.05 378.182 117.03 378.212C116.172 379.372 108.678 389.882 109.855 402.842C110.993 415.372 118.796 419.712 121.71 420.332C123.326 420.672 124.364 422.262 124.025 423.882C123.725 425.292 122.488 426.262 121.101 426.262Z" fill="black"/>
<path d="M149.401 430.183C148.034 430.183 146.797 429.233 146.487 427.843C146.128 426.223 147.136 424.623 148.752 424.263C153.682 423.153 156.686 420.203 156.715 420.173C157.653 419.233 159.11 419.013 160.278 419.653C160.328 419.683 165.946 422.653 170.237 420.803C172.462 419.843 174.078 417.613 175.046 414.153C175.675 410.553 173.53 408.793 171.284 408.343C169.668 408.023 168.61 406.443 168.929 404.813C169.249 403.193 170.825 402.133 172.452 402.453C177.671 403.493 182.251 408.263 180.904 415.373C180.894 415.453 180.874 415.533 180.854 415.603C179.377 420.993 176.583 424.603 172.552 426.323C167.562 428.443 162.134 426.903 159.32 425.783C157.524 427.153 154.341 429.143 150.05 430.113C149.83 430.163 149.611 430.183 149.391 430.183H149.401Z" fill="black"/>
<path d="M184.955 365.731C181.193 360.541 174.946 354.391 168.181 351.071C148.044 341.171 120.971 342.161 115.742 366.171C114.964 369.731 118.566 368.421 130.092 367.681C131.409 367.601 130.481 372.161 132.078 371.971C153.063 369.371 155.478 378.091 161.385 383.201C167.293 388.311 164.928 399.731 174.387 403.921C180.914 406.811 178.858 412.721 182.001 410.641C183.698 409.521 190.413 398.111 190.912 386.951C191.571 372.271 186.142 368.071 184.945 365.721L184.955 365.731Z" fill="black"/>
<path d="M171.014 369.371C160.966 358.251 145.708 352.261 130.65 358.201C124.493 360.721 115.642 362.601 113.307 368.051C113.477 369.411 115.482 375.611 117.877 375.611C120.522 375.611 123.954 370.951 126.409 369.541C129.203 367.941 131.049 369.001 130.8 371.221C130.271 375.931 133.155 382.881 137.126 384.931C141.098 386.981 152.164 381.911 156.006 384.391C159.848 386.871 156.545 394.911 160.906 397.421C163.54 398.931 169.008 395.451 172.691 395.921C172.74 395.921 172.79 395.941 172.85 395.951C177.241 387.201 177.75 376.601 171.004 369.381L171.014 369.371Z" fill="black"/>
<path d="M165.116 401.743C162.991 401.743 160.576 401.243 157.922 399.453C154.08 396.863 154.22 393.343 154.319 391.023C154.409 388.893 154.439 388.183 152.723 387.193C151.495 386.463 150.029 386.883 147.524 387.693C144.421 388.703 140.18 390.073 135.669 387.563C130.899 384.903 126.139 379.313 130.53 367.793C131.119 366.243 132.855 365.473 134.392 366.063C135.939 366.653 136.707 368.393 136.118 369.933C133.045 377.983 135.819 380.783 138.573 382.323C140.698 383.513 142.654 382.973 145.668 381.993C148.572 381.053 152.174 379.883 155.746 382.023C160.556 384.793 160.386 388.853 160.287 391.273C160.197 393.393 160.267 393.823 161.255 394.493C163.779 396.203 165.685 395.833 168.1 395.373C169.407 395.123 170.764 394.863 172.221 394.983C173.868 395.123 175.095 396.573 174.955 398.223C174.816 399.873 173.389 401.093 171.722 400.963C171.094 400.913 170.226 401.073 169.228 401.263C168.03 401.493 166.643 401.763 165.106 401.763L165.116 401.743Z" fill="black"/>
<path d="M116.42 376.831C115.821 376.831 115.212 376.651 114.683 376.271C112.288 374.561 110.891 372.251 110.632 369.591C110.083 363.931 114.883 358.691 115.442 358.111C116.579 356.911 118.475 356.861 119.673 358.001C120.87 359.141 120.92 361.041 119.782 362.241C118.874 363.211 116.34 366.531 116.589 369.031C116.649 369.611 116.869 370.481 118.156 371.391C119.503 372.351 119.822 374.221 118.864 375.571C118.286 376.391 117.358 376.831 116.42 376.831Z" fill="black"/>
<path d="M179.037 414.982C178.119 414.982 177.211 414.562 176.633 413.762C175.655 412.432 175.924 410.562 177.251 409.572C178.02 408.992 195.991 395.112 184.166 370.352C180.594 363.402 174.437 357.482 166.863 353.752C148.582 344.762 132.327 347.662 119.874 362.132C118.796 363.392 116.9 363.522 115.653 362.442C114.405 361.362 114.255 359.462 115.343 358.212C129.563 341.681 148.802 338.181 169.498 348.362C178.219 352.652 185.334 359.512 189.525 367.682C203.555 397.082 181.043 414.222 180.814 414.392C180.275 414.792 179.656 414.982 179.037 414.982Z" fill="black"/>
<path d="M159.039 502.053L42.3578 455.933C37.7177 454.173 38.1069 450.143 39.8632 445.493C41.6194 440.843 44.0642 437.333 48.7043 439.093L167.361 483.373L159.029 502.053H159.039Z" fill="#82BE28"/>
<path d="M160.716 504.582C160.357 504.582 159.998 504.522 159.639 504.382L41.281 458.732C35.7029 456.622 34.2859 451.812 37.06 444.432C39.0158 439.262 42.7978 433.652 49.7629 436.292C51.3096 436.882 52.088 438.612 51.5092 440.162C50.9205 441.712 49.2041 442.492 47.6474 441.912C46.46 441.462 44.8235 440.842 42.6581 446.562C40.5825 452.062 42.0793 452.632 43.4065 453.132L161.774 498.792C163.321 499.392 164.089 501.122 163.491 502.672C163.032 503.862 161.894 504.592 160.696 504.592L160.716 504.582Z" fill="black"/>
<path d="M168.709 488.563C168.35 488.563 167.98 488.493 167.621 488.353L66.9257 449.093C65.389 448.493 64.6206 446.753 65.2193 445.213C65.8181 443.673 67.5544 442.903 69.0911 443.503L169.786 482.763C171.323 483.363 172.092 485.103 171.493 486.643C171.034 487.833 169.896 488.553 168.699 488.553L168.709 488.563Z" fill="black"/>
<path d="M142.354 465.242C133.483 458.172 123.654 459.892 121.109 461.402C119.652 462.262 119.892 464.422 121.728 465.952C123.574 467.492 118.355 474.582 123.733 478.012C128.613 481.112 134.92 482.162 139.63 479.622C144.928 476.752 148.072 469.802 142.344 465.242H142.354Z" fill="white"/>
<path d="M86.8837 442.961C97.3913 443.291 100.604 449.961 101.552 452.762C102.091 454.362 100.515 455.852 98.1198 455.812C95.7249 455.772 94.2779 465.392 85.8958 462.412C78.0825 459.632 75.8472 454.682 76.7453 451.341C77.9627 446.861 79.5693 442.741 86.8837 442.961Z" fill="white"/>
<path d="M133.623 484.033C129.811 484.033 125.76 482.853 122.137 480.543C116.988 477.273 118.196 471.812 118.844 468.872C118.934 468.472 119.044 467.962 119.104 467.582C117.757 466.162 117.048 464.382 117.188 462.672C117.318 461.042 118.196 459.642 119.583 458.812C123.484 456.502 134.71 455.312 144.21 462.882C147.194 465.252 148.661 468.472 148.351 471.943C147.992 475.993 145.128 480.043 141.047 482.243C138.852 483.433 136.297 484.013 133.613 484.013L133.623 484.033ZM123.584 463.592C123.584 463.592 123.624 463.632 123.654 463.652C125.74 465.392 125.161 468.042 124.692 470.173C123.983 473.393 123.983 474.613 125.35 475.483C129.651 478.223 134.82 478.823 138.213 476.983C140.538 475.723 142.214 473.493 142.394 471.432C142.524 469.972 141.895 468.722 140.488 467.592C133.703 462.182 126.428 462.712 123.574 463.592H123.584Z" fill="black"/>
<path d="M88.9686 466.003C87.7512 466.003 86.4041 465.773 84.8973 465.243C75.4474 461.873 72.5436 455.443 73.8608 450.563C74.8886 446.753 76.8245 439.663 86.9829 439.973C99.2168 440.353 103.238 448.383 104.396 451.813C104.915 453.353 104.665 454.983 103.707 456.303C102.689 457.703 100.963 458.603 98.9773 458.783C98.7677 459.063 98.5083 459.453 98.2987 459.763C96.8418 461.933 94.1077 466.003 88.9686 466.003ZM86.2644 445.953C81.7939 445.953 80.7861 447.883 79.6385 452.123C79.1595 453.913 80.6863 457.373 86.903 459.583C90.0463 460.703 91.2737 459.473 93.3293 456.403C94.4769 454.703 95.7741 452.783 98.169 452.813C98.2488 452.813 98.3087 452.813 98.3686 452.813C97.0015 449.623 93.8782 446.183 86.7933 445.963C86.6136 445.963 86.434 445.963 86.2644 445.963V445.953Z" fill="black"/>
<path d="M277.238 15.8803C279.992 9.44024 296.417 -0.0498034 319.328 0.000196769C336.033 0.0401969 358.245 4.74022 372.655 20.6603C346.78 46.2404 301.017 57.8104 288.384 39.6904C275.751 21.5703 277.228 15.8903 277.228 15.8903L277.238 15.8803Z" fill="white"/>
<path d="M221.705 151.17C214.96 160.18 201.848 165.06 197.726 179.33C194.753 189.63 198.904 193.62 202.596 195.47C210.09 199.22 223.312 197.62 227.323 187.59C231.325 177.55 241.054 179.03 244.846 168.18C248.947 156.45 240.735 140.47 221.705 151.18V151.17Z" fill="white"/>
<path d="M266.629 23.7618C253.347 31.9519 253.587 40.3119 251.88 65.082C250.793 80.8221 248.627 94.3821 243.758 103.062C240.834 108.262 230.905 140.322 221.705 151.172C214.56 159.592 238.2 167.662 244.845 168.172C259.654 146.672 264.294 131.622 269.912 113.702C275.53 95.7921 286.547 31.9519 286.547 31.9519L266.629 23.7618Z" fill="white"/>
<path d="M211.079 200.32C207.587 200.32 204.134 199.59 201.26 198.15C196.441 195.74 191.421 190.37 194.854 178.49C197.748 168.46 204.673 162.68 210.79 157.59C214.033 154.88 217.107 152.32 219.312 149.37C219.352 149.32 219.392 149.27 219.422 149.23C227.854 139.29 246.414 94.93 248.899 64.8399C249.078 62.6599 249.238 60.6099 249.388 58.6799C250.944 38.6298 251.653 29.4798 265.064 21.2197C265.883 20.7197 266.89 20.6397 267.769 20.9997L287.686 29.1898C288.983 29.7198 289.742 31.0898 289.502 32.4798C289.053 35.0898 278.386 96.72 272.778 114.62C272.279 116.2 270.603 117.08 269.026 116.58C267.449 116.08 266.571 114.4 267.07 112.82C271.96 97.24 281.14 45.5398 283.196 33.8298L266.94 27.1498C257.351 33.5598 256.822 40.3898 255.365 59.1599C255.215 61.0999 255.056 63.1599 254.876 65.3499C252.381 95.6 233.931 141.32 224.052 153.07C221.427 156.55 217.965 159.44 214.622 162.23C208.904 167 202.997 171.92 200.612 180.19C198.157 188.67 201.111 191.39 203.945 192.82C207.707 194.71 213.125 194.87 217.416 193.24C219.811 192.33 222.994 190.42 224.561 186.51C226.856 180.77 230.767 178.19 234.23 175.92C237.553 173.74 240.417 171.85 242.033 167.22C242.582 165.66 244.289 164.83 245.845 165.38C247.402 165.93 248.23 167.64 247.681 169.2C245.396 175.75 241.205 178.5 237.513 180.93C234.4 182.98 231.715 184.74 230.119 188.73C228.243 193.43 224.591 196.92 219.551 198.84C216.907 199.85 213.983 200.35 211.099 200.35L211.079 200.32Z" fill="black"/>
<path d="M283.076 14.6605C290.211 21.1106 301.188 35.5406 309.031 35.3906C325.905 35.0706 342.1 18.9506 352.877 14.6605C367.566 8.81052 364.972 41.7007 364.972 63.0807C364.972 68.5108 388.861 121.051 388.861 137.801C388.861 155.581 377.216 154.701 359.404 152.321C347.299 150.711 340.484 148.211 323.271 151.561C301.976 155.701 273.556 155.891 269.166 151.291C265.444 147.391 249.488 143.351 262.231 115.741C265.933 107.721 274.425 74.0008 273.117 62.2107C270.623 39.7406 249.707 34.9806 257.68 20.3706C262.44 11.6405 268.198 1.22049 283.066 14.6605H283.076Z" fill="#2D8C3C"/>
<path d="M369.929 156.492C368.443 156.492 366.866 156.422 365.209 156.282C363.563 156.142 362.336 154.702 362.475 153.042C362.615 151.392 364.032 150.162 365.708 150.302C374.49 151.032 380.327 149.602 383.051 146.052C388.081 139.502 383.031 125.182 379.339 114.731C378.741 113.021 378.152 111.381 377.633 109.821C377.104 108.251 377.952 106.551 379.519 106.021C381.086 105.491 382.782 106.341 383.311 107.911C383.82 109.441 384.399 111.061 384.987 112.731C389.368 125.142 394.826 140.582 387.801 149.712C384.309 154.252 378.441 156.482 369.939 156.482L369.929 156.492Z" fill="black"/>
<path d="M286.928 158.51C276.42 158.51 263.787 154.62 257.76 145.59C254.507 140.72 251.883 132.24 257.8 119.52C265.264 103.49 270.423 82.0596 270.353 67.4195C270.313 59.6495 269.645 54.0095 260.624 41.1694C260.155 40.4994 259.576 39.7694 258.958 38.9894C256.223 35.5494 252.481 30.8294 253.26 24.5493C253.948 19.0093 258.01 13.4493 265.693 7.56928C267.01 6.55927 268.886 6.80927 269.894 8.12928C270.902 9.44928 270.653 11.3293 269.335 12.3393C263.089 17.1293 259.676 21.4893 259.207 25.2993C258.738 29.0794 261.233 32.2294 263.648 35.2694C264.316 36.1094 264.955 36.9094 265.524 37.7294C274.724 50.8295 276.291 57.4695 276.34 67.3995C276.42 82.8296 271.022 105.31 263.228 122.06C259.427 130.24 259.257 137.04 262.739 142.26C267.799 149.85 279.633 152.87 288.505 152.48C299.092 152.01 306.995 150.85 314.639 149.73C320.047 148.94 325.156 148.19 330.645 147.79C332.311 147.67 333.728 148.91 333.848 150.57C333.968 152.22 332.73 153.66 331.074 153.78C325.795 154.16 320.796 154.89 315.497 155.67C308.073 156.76 299.651 157.99 288.754 158.48C288.145 158.51 287.537 158.52 286.918 158.52L286.928 158.51Z" fill="black"/>
<path d="M318.638 84.4603C317.77 84.4603 316.922 84.0903 316.323 83.3703C309.577 75.1803 307.282 61.9002 310.136 47.7602C310.046 47.8002 309.946 47.8602 309.847 47.9402C294.19 59.9602 293.901 75.8403 293.901 76.0003C293.891 77.6503 292.553 78.9803 290.907 78.9803H290.887C289.231 78.9703 287.903 77.6203 287.913 75.9603C287.913 75.1903 288.243 56.9602 306.204 43.1702C308.499 41.4102 311.523 41.1602 313.728 42.5502C315.694 43.7902 316.602 46.0802 316.093 48.5202C314.058 58.2002 314.267 71.4403 320.943 79.5403C321.991 80.8203 321.811 82.7103 320.544 83.7603C319.985 84.2203 319.306 84.4503 318.638 84.4503V84.4603Z" fill="black"/>
<path d="M314.687 184.451C332.389 166.711 362.924 145.101 370.897 133.911C386.234 112.391 388.45 73.5908 383.271 33.1906C366.287 13.9105 358.094 13.2605 353.883 38.6006C356.408 90.9709 352.087 96.4209 349.423 113.011C347.776 123.261 302.772 166.001 283.284 173.601C261.909 181.931 247.6 195.441 261.051 205.791C270.621 213.151 278.434 214.801 289.151 206.351C305.546 193.421 307.113 196.381 314.687 184.441V184.451Z" fill="white"/>
<path d="M273.984 215.221C268.236 215.221 262.359 213.111 256.391 208.891C253.049 206.521 251.203 203.641 250.923 200.321C250.524 195.661 253.158 190.671 259.205 184.611C263.706 180.101 270.921 176.191 279.283 171.651C291.636 164.941 307.024 156.591 320.684 142.681C321.842 141.501 323.738 141.481 324.915 142.651C326.093 143.811 326.113 145.711 324.945 146.891C310.656 161.441 294.83 170.031 282.127 176.931C274.174 181.241 267.308 184.971 263.436 188.861C258.856 193.451 256.661 197.131 256.89 199.811C257.02 201.311 257.988 202.681 259.844 203.991C269.583 210.881 278.564 210.881 287.296 203.991C293.343 199.221 297.474 196.531 300.487 194.571C305.716 191.171 307.672 189.891 312.163 182.831C312.282 182.641 312.412 182.471 312.572 182.321C320.255 174.621 328.119 168.641 335.722 162.851C346.03 155.011 355.77 147.601 364.9 136.311C380.477 117.06 386.125 79.9803 380.427 34.4801C372.394 25.4701 366.796 21.3501 363.763 22.2101C361.807 22.7701 359.023 26.1201 356.877 38.8602C355.979 87.8204 354.722 109.31 345.801 124.631C344.973 126.061 343.137 126.541 341.71 125.711C340.283 124.881 339.804 123.041 340.632 121.611C348.415 108.24 349.952 90.0604 350.89 38.5302C350.89 38.3802 350.91 38.2402 350.93 38.0902C353.155 24.6901 356.608 18.0201 362.106 16.4401C368.014 14.7501 374.799 19.0201 385.516 31.1901C385.915 31.6401 386.165 32.2001 386.245 32.7901C394.587 97.8704 379.359 127.951 369.55 140.081C359.961 151.931 349.483 159.901 339.345 167.621C331.98 173.221 324.367 179.011 317.042 186.321C311.973 194.241 309.209 196.041 303.761 199.591C300.677 201.601 296.845 204.091 291.008 208.691C285.499 213.031 279.812 215.201 273.994 215.201L273.984 215.221Z" fill="black"/>
<path d="M387.532 39.7992C401.791 32.5792 390.965 18.5591 377.533 10.2091C368.981 4.89906 349.862 11.8791 343.875 16.4591C337.888 21.0391 328.907 66.3593 338.726 75.4094C341.29 77.9294 342.907 74.2094 351.648 71.9993C361.517 53.6793 373.891 46.6992 387.532 39.7892V39.7992Z" fill="#2D8C3C"/>
<path d="M352.996 75.8698C352.996 75.8698 352.956 75.8698 352.946 75.8698C351.289 75.8398 349.972 74.4698 350.002 72.8198C350.241 59.1897 366.726 44.8096 382.523 38.7996C387.502 36.8996 390.975 34.2596 391.813 31.7196C392.062 30.9796 392.262 29.7896 391.184 28.0896C388.61 24.0296 384.019 18.8495 383.97 18.7995C382.872 17.5595 382.982 15.6695 384.219 14.5595C385.456 13.4595 387.342 13.5695 388.45 14.7995C388.65 15.0295 393.399 20.3795 396.243 24.8596C398.03 27.6796 398.469 30.6996 397.511 33.5996C396.064 37.9596 391.504 41.7996 384.658 44.3996C367.145 51.0697 356.139 64.3997 355.999 72.9198C355.969 74.5598 354.632 75.8698 353.006 75.8698H352.996Z" fill="black"/>
<path d="M311.364 38.5492C310.446 38.5492 309.527 38.4892 308.609 38.3592C301.365 37.3392 296.146 31.8092 291.097 26.4591C289.55 24.8191 287.954 23.1291 286.337 21.6091C285.13 20.4791 285.07 18.5791 286.197 17.3691C287.325 16.1591 289.221 16.0991 290.428 17.2291C292.174 18.8691 293.841 20.6291 295.438 22.3291C299.978 27.1391 304.259 31.6792 309.428 32.4092C316.672 33.4292 324.945 28.2091 334.524 22.1591C342.946 16.8391 352.496 10.8191 364.031 7.09905C365.608 6.58905 367.294 7.45905 367.803 9.03906C368.312 10.6191 367.444 12.3091 365.867 12.8191C355.05 16.3091 345.84 22.1191 337.717 27.2491C328.178 33.2692 319.806 38.5492 311.344 38.5492H311.364Z" fill="black"/>
</svg>
