<svg width="514" height="577" viewBox="0 0 514 577" fill="none" xmlns="http://www.w3.org/2000/svg">
<path d="M342.608 8.45818L308.377 179.63C290.357 187.51 245.886 182.74 252.977 153.59C274.377 103.469 302.467 6.52816 342.608 8.45818Z" fill="#2D8C3C"/>
<path d="M337.968 7.4496C337.968 7.4496 345.968 5.44958 361.968 4.44957C377.968 3.44956 397.448 8.51961 402.708 13.4797C407.968 18.4497 360.968 28.4498 348.968 23.4498C336.968 18.4497 337.968 7.4496 337.968 7.4496Z" fill="white"/>
<path d="M422.938 34.6598C406.937 4.65943 394.967 6.90945 394.967 6.90945C383.297 18.5796 347.267 17.1396 342.207 7.00945C342.207 7.00945 336.157 10.3695 329.947 18.6696C323.377 27.4297 314.806 45.0699 313.376 59.8701C311.946 74.6702 301.046 131.591 300.896 132.681C291.336 203.602 278.986 218.252 291.456 230.032C316.276 253.482 361.957 252.972 377.467 246.832C409.387 234.192 435.168 241.072 443.228 243.952C451.288 246.832 434.668 56.65 422.948 34.6698L422.938 34.6598Z" fill="#2D8C3C"/>
<path d="M265.398 129.861C264.958 129.861 264.518 129.761 264.098 129.561C262.608 128.841 261.978 127.051 262.698 125.561C265.728 119.271 268.818 110.621 272.398 100.61C285.128 65.01 302.548 16.2595 341.308 4.13932C342.888 3.63931 344.568 4.52932 345.068 6.10934C345.558 7.68936 344.678 9.36938 343.098 9.86938C307.198 21.0995 290.348 68.22 278.048 102.63C274.408 112.801 271.268 121.591 268.098 128.171C267.578 129.241 266.508 129.871 265.398 129.871V129.861Z" fill="black"/>
<path d="M384.937 162.151C376.807 171.491 361.957 177.821 356.827 179.021C351.697 180.221 342.057 159.981 342.057 159.981L365.747 148.281L384.937 162.151Z" fill="white"/>
<path d="M430.479 47.5699C443.819 69.1202 455.949 176.221 396.148 193.162C388.398 176.871 356.198 154.401 352.928 149.731C379.938 129.741 396.728 114.721 402.368 84.9603C408.008 55.2 411.499 39.3598 430.479 47.5699Z" fill="#2D8C3C"/>
<path d="M287.446 209.883C287.266 209.883 287.076 209.863 286.886 209.833C285.256 209.523 284.186 207.953 284.496 206.333C289.186 181.442 296.806 151.322 297.366 149.112L297.986 145.362C301.356 124.942 304.846 103.821 303.176 88.2212C302.996 86.5712 304.196 85.0912 305.836 84.9212C307.466 84.7412 308.966 85.9412 309.136 87.5812C310.896 103.991 307.336 125.522 303.906 146.332L303.266 150.202C303.256 150.292 303.236 150.372 303.216 150.462C303.136 150.772 295.206 181.902 290.396 207.443C290.126 208.883 288.866 209.883 287.446 209.883Z" fill="black"/>
<path d="M349.858 253.264C348.218 253.264 346.878 251.944 346.858 250.304C346.838 248.643 348.158 247.283 349.818 247.263C358.908 247.143 368.218 245.983 376.738 243.913C399.708 238.323 423.649 233.473 441.749 240.713C443.289 241.333 444.039 243.073 443.419 244.613C442.799 246.153 441.059 246.903 439.519 246.283C423.069 239.703 400.188 244.383 378.158 249.744C369.208 251.924 359.428 253.144 349.898 253.264C349.888 253.264 349.868 253.264 349.858 253.264Z" fill="black"/>
<path d="M391.198 126.192C390.368 126.192 389.528 125.842 388.938 125.172C387.848 123.922 387.978 122.032 389.218 120.942C392.788 117.822 395.048 102.772 397.628 83.4213C398.858 74.1612 400.238 67.5211 402.098 61.8711C402.618 60.3011 404.308 59.441 405.889 59.9611C407.459 60.4811 408.319 62.1711 407.798 63.7511C406.068 69.0312 404.758 75.3412 403.578 84.2213C400.208 109.512 398.198 121.062 393.178 125.462C392.608 125.962 391.908 126.202 391.208 126.202L391.198 126.192Z" fill="black"/>
<path d="M300.837 144.22C299.457 144.22 298.227 143.27 297.907 141.87C297.857 141.66 296.397 135.96 289.367 134.09C287.767 133.66 286.817 132.02 287.247 130.42C287.677 128.82 289.307 127.87 290.917 128.29C301.548 131.13 303.678 140.18 303.768 140.57C304.128 142.19 303.108 143.79 301.487 144.15C301.267 144.2 301.047 144.22 300.827 144.22H300.837Z" fill="black"/>
<path d="M79.8152 511.095L174.946 482.724L289.498 507.335L141.786 543.645L55.4049 519.855L79.8152 511.095Z" fill="white"/>
<path d="M324.547 250.711L171.755 215.01L3.20316 267.721L29.6535 384.612L147.225 414.703L307.017 373.392L324.547 250.711Z" fill="white"/>
<path d="M174.946 482.724L174.656 420.063L188.326 415.813L188.616 484.304L174.946 482.724Z" fill="white"/>
<path d="M164.605 535.455V535.425L159.675 533.505C159.415 533.475 155.995 534.555 155.735 534.545C154.645 534.525 153.505 534.775 152.345 535.315C145.995 538.285 141.355 548.895 141.985 559.025C142.475 566.875 145.555 572.725 150.395 573.265C154.735 573.745 158.435 574.885 162.525 572.805C168.775 569.625 173.515 559.225 172.885 549.095C172.405 541.385 169.005 536.185 164.605 535.455Z" fill="black"/>
<path d="M163.636 548.164L160.716 547.864C160.626 547.854 160.536 547.834 160.436 547.834C160.046 547.834 159.636 547.914 159.216 548.114C156.926 549.184 155.256 553.004 155.486 556.654C155.666 559.485 156.776 561.585 158.516 561.785C160.076 561.955 161.416 562.365 162.886 561.614C165.136 560.474 166.846 556.724 166.616 553.074C166.446 550.294 165.216 548.424 163.636 548.164Z" fill="black"/>
<path d="M160.265 564.076C159.275 564.056 158.315 563.826 157.435 563.376C155.075 562.186 153.825 560.026 153.625 556.766C153.355 552.446 155.385 548.016 158.345 546.466C160.575 545.296 162.896 545.296 164.876 546.466C167.026 547.726 168.406 550.166 168.476 552.826C168.606 557.616 166.686 561.816 163.706 563.286C162.586 563.836 161.416 564.096 160.265 564.076ZM160.075 549.766C158.625 550.526 157.145 553.486 157.335 556.546C157.485 558.936 158.315 559.666 159.115 560.066C159.965 560.496 161.046 560.456 162.066 559.956C163.446 559.276 164.856 556.586 164.766 552.936C164.726 551.586 164.026 550.276 163.006 549.676C162.146 549.176 161.165 549.206 160.085 549.766H160.075Z" fill="black"/>
<path d="M155.325 576.314C153.075 576.274 150.895 575.744 148.895 574.734C143.395 571.964 140.615 567.004 140.125 559.124C139.695 552.194 141.625 544.844 145.305 539.464C147.095 536.833 149.235 534.823 151.475 533.653C156.355 531.103 161.416 531.033 165.716 533.463C170.796 536.333 174.336 542.414 174.746 548.964C175.466 560.694 170.996 570.694 163.356 574.454C160.736 575.744 157.995 576.364 155.335 576.304L155.325 576.314ZM148.375 541.564C145.195 546.224 143.465 552.864 143.835 558.894C144.355 567.234 147.705 569.964 150.575 571.414C153.875 573.084 157.935 572.974 161.706 571.124C166.486 568.774 171.786 561.624 171.026 549.194C170.706 543.954 167.836 538.933 163.886 536.703C160.676 534.893 156.975 534.973 153.195 536.953C151.485 537.843 149.825 539.443 148.375 541.564Z" fill="black"/>
<path d="M283.327 505.023V504.993L278.397 503.073C278.137 503.043 274.717 504.123 274.457 504.113C273.367 504.093 272.227 504.343 271.067 504.883C264.717 507.853 260.077 518.463 260.707 528.593C261.197 536.443 264.277 542.293 269.117 542.833C273.457 543.313 277.157 544.453 281.247 542.373C287.497 539.193 292.237 528.793 291.607 518.663C291.127 510.953 287.727 505.753 283.327 505.023Z" fill="black"/>
<path d="M282.356 517.744L279.436 517.444C279.346 517.434 279.256 517.414 279.156 517.414C278.766 517.414 278.356 517.494 277.936 517.694C275.646 518.764 273.976 522.584 274.206 526.234C274.386 529.064 275.496 531.164 277.236 531.364C278.796 531.534 280.136 531.944 281.606 531.194C283.856 530.054 285.566 526.304 285.336 522.654C285.166 519.874 283.936 518.004 282.356 517.744Z" fill="black"/>
<path d="M278.988 533.654C277.998 533.634 277.038 533.404 276.158 532.954C273.797 531.764 272.547 529.604 272.347 526.344C272.077 522.024 274.107 517.594 277.068 516.044C279.298 514.874 281.618 514.874 283.598 516.044C285.748 517.304 287.128 519.744 287.198 522.404C287.328 527.194 285.408 531.394 282.428 532.864C281.308 533.414 280.138 533.674 278.988 533.654ZM278.798 519.344C277.348 520.104 275.868 523.064 276.058 526.124C276.208 528.514 277.038 529.244 277.838 529.644C278.688 530.074 279.768 530.034 280.788 529.534C282.168 528.854 283.578 526.164 283.488 522.514C283.448 521.164 282.748 519.854 281.728 519.254C280.868 518.754 279.888 518.784 278.808 519.344H278.798Z" fill="black"/>
<path d="M274.057 545.896C271.807 545.856 269.627 545.326 267.627 544.316C262.127 541.546 259.347 536.586 258.857 528.705C258.427 521.775 260.357 514.425 264.037 509.045C265.827 506.415 267.967 504.405 270.207 503.235C275.087 500.685 280.147 500.615 284.447 503.045C289.527 505.915 293.068 511.995 293.478 518.545C294.198 530.275 289.727 540.276 282.087 544.036C279.467 545.326 276.727 545.946 274.067 545.886L274.057 545.896ZM267.097 511.145C263.917 515.805 262.187 522.445 262.557 528.475C263.077 536.815 266.427 539.546 269.297 540.996C272.597 542.666 276.657 542.556 280.427 540.706C285.207 538.356 290.507 531.205 289.747 518.775C289.427 513.535 286.557 508.515 282.607 506.285C279.397 504.475 275.697 504.555 271.917 506.535C270.207 507.425 268.547 509.025 267.097 511.145Z" fill="black"/>
<path d="M73.6644 508.995V508.965L68.7344 507.045C68.4744 507.015 65.0543 508.095 64.7943 508.085C63.7043 508.065 62.5643 508.315 61.4043 508.855C55.0542 511.826 50.4142 522.436 51.0442 532.566C51.5342 540.416 54.6142 546.266 59.4543 546.806C63.7943 547.286 67.4944 548.426 71.5844 546.346C77.8345 543.166 82.5745 532.766 81.9445 522.636C81.4645 514.926 78.0645 509.725 73.6644 508.995Z" fill="black"/>
<path d="M64.3947 549.855C62.1447 549.815 59.9647 549.285 57.9647 548.275C52.4646 545.505 49.6846 540.545 49.1946 532.664C48.7646 525.734 50.6946 518.384 54.3746 513.004C56.1646 510.374 58.3047 508.364 60.5447 507.194C65.4247 504.644 70.4848 504.574 74.7848 507.004C79.8649 509.874 83.4049 515.954 83.815 522.504C84.535 534.234 80.0649 544.235 72.4248 547.995C69.8048 549.285 67.0648 549.905 64.4047 549.845L64.3947 549.855ZM57.4346 515.114C54.2546 519.774 52.5246 526.414 52.8946 532.444C53.4146 540.785 56.7646 543.515 59.6347 544.965C62.9347 546.635 66.9948 546.525 70.7648 544.675C75.5449 542.325 80.8449 535.174 80.0849 522.744C79.7649 517.504 76.8949 512.484 72.9448 510.254C69.7348 508.444 66.0347 508.524 62.2547 510.504C60.5447 511.394 58.8847 512.994 57.4346 515.114Z" fill="black"/>
<path d="M315.797 243.434C315.407 243.434 315.007 243.404 314.617 243.344C310.307 242.694 307.347 238.674 307.987 234.364C311.487 211.154 325.698 197.503 339.028 189.653C311.987 183.693 269.687 174.423 245.017 169.343C217.996 174.323 195.936 196.293 195.686 208.414C195.596 212.774 191.986 216.214 187.636 216.134C183.276 216.044 179.826 212.444 179.916 208.084C180.386 185.273 211.476 158.753 243.897 153.523C244.837 153.373 245.797 153.393 246.737 153.583C284.387 161.293 366.928 179.653 367.758 179.843C371.428 180.663 374.018 183.963 373.928 187.723C373.838 191.483 371.108 194.663 367.398 195.313C365.838 195.593 328.738 202.663 323.608 236.714C323.018 240.624 319.657 243.424 315.817 243.424L315.797 243.434Z" fill="white"/>
<path d="M315.796 246.434C315.136 246.434 314.466 246.374 313.806 246.254C308.066 245.204 304.146 239.504 305.076 233.564C307.786 216.143 316.846 201.583 331.406 191.053C302.936 184.783 267.216 176.993 244.985 172.413C233.365 174.663 221.765 180.363 212.255 188.493C204.115 195.453 198.785 203.303 198.675 208.493C198.555 214.483 193.565 219.263 187.575 219.153C181.565 219.033 176.785 214.043 176.905 208.043C176.935 206.383 178.315 205.043 179.965 205.103C181.625 205.133 182.935 206.503 182.905 208.163C182.845 210.853 184.995 213.093 187.695 213.153C187.725 213.153 187.755 213.153 187.785 213.153C190.435 213.153 192.635 211.023 192.685 208.363C192.825 201.333 198.685 192.193 208.365 183.923C218.825 174.983 231.645 168.763 244.475 166.393C244.855 166.323 245.245 166.323 245.625 166.403C269.686 171.353 310.056 180.183 339.686 186.713C340.886 186.983 341.807 187.953 342.007 189.173C342.207 190.393 341.626 191.603 340.566 192.233C323.796 202.113 313.856 216.323 311.026 234.474C310.596 237.234 312.336 239.874 314.906 240.344C317.666 240.854 320.236 238.934 320.646 236.264C326.086 200.143 365.207 192.663 366.867 192.363C369.177 191.963 370.877 189.983 370.937 187.653C370.997 185.323 369.387 183.273 367.117 182.773C366.287 182.593 284.196 164.323 246.255 156.553C245.595 156.423 244.955 156.403 244.345 156.503C226.775 159.353 208.855 168.753 196.395 181.653C195.245 182.843 193.345 182.883 192.155 181.723C190.965 180.573 190.935 178.673 192.085 177.483C205.415 163.683 224.585 153.623 243.385 150.573C244.715 150.353 246.085 150.393 247.465 150.673C285.456 158.453 367.597 176.733 368.427 176.923C373.487 178.043 377.067 182.623 376.947 187.803C376.827 192.983 373.037 197.383 367.937 198.273C366.467 198.543 331.406 205.233 326.596 237.164C325.796 242.444 321.176 246.434 315.836 246.434H315.796Z" fill="black"/>
<path d="M171.756 215.012L172.886 272.803L186.546 269.193L183.016 219.752L171.756 215.012Z" fill="white"/>
<path d="M323.586 236.722L183.605 203.762L164.345 203.272L10.0628 256.472L2.80277 266.213L7.59282 287.143L132.224 319.593L327.746 268.013L334.037 245.802L323.576 236.712L323.586 236.722ZM130.894 294.053L48.5633 272.463L171.385 230.502L276.586 255.882L130.884 294.063L130.894 294.053Z" fill="white"/>
<path d="M145.915 417.816C135.595 417.816 125.215 414.916 115.325 411.836C111.305 410.586 96.3144 406.866 85.3743 404.156C79.3342 402.656 74.5642 401.476 72.6542 400.966C70.9141 400.506 69.0541 400.006 67.1041 399.496C37.9438 391.786 27.2936 388.266 25.6136 383.826C22.9036 376.675 20.5936 364.475 18.3535 352.685C17.2435 346.805 16.1835 341.255 15.1335 336.615C14.7735 334.995 15.7835 333.395 17.4035 333.025C19.0235 332.655 20.6236 333.675 20.9936 335.295C22.0636 340.035 23.1236 345.635 24.2536 351.565C26.4136 362.975 28.6536 374.775 31.1437 381.476C34.1037 384.556 57.394 390.706 68.6341 393.686C70.5941 394.206 72.4641 394.696 74.2042 395.166C76.0542 395.666 81.0443 396.896 86.8143 398.336C98.4444 401.216 112.915 404.816 117.105 406.116C129.025 409.826 141.635 413.266 153.375 411.196C186.205 405.406 281.927 376.385 299.737 370.165C301.297 369.615 303.017 370.445 303.557 372.005C304.107 373.565 303.277 375.285 301.717 375.825C283.807 382.076 187.525 411.266 154.425 417.106C151.605 417.606 148.765 417.826 145.915 417.826V417.816Z" fill="black"/>
<path d="M321.186 240.522L281.736 498.585L295.736 511.385L336.146 244.352L321.186 240.522Z" fill="white"/>
<path d="M10.4137 308.343C9.07373 308.343 7.85372 307.443 7.51371 306.083C-2.1864 268.173 -5.11643 256.733 14.9038 250.273C21.2539 248.223 30.934 245.063 40.9441 241.793C52.1342 238.143 63.7444 234.353 71.6144 231.813C97.8447 223.363 143.375 208.132 143.835 207.982C145.405 207.452 147.105 208.302 147.635 209.872C148.165 211.442 147.315 213.142 145.745 213.672C145.285 213.822 99.7248 229.073 73.4645 237.533C65.5944 240.063 53.9942 243.853 42.8141 247.503C32.794 250.773 23.1039 253.933 16.7538 255.983C2.58366 260.553 3.22367 265.053 13.3338 304.593C13.7438 306.203 12.7738 307.833 11.1738 308.243C10.9238 308.303 10.6738 308.333 10.4237 308.333L10.4137 308.343Z" fill="black"/>
<path d="M274.157 257.494C273.927 257.494 273.707 257.464 273.477 257.414L185.986 237.084C184.376 236.704 183.366 235.094 183.746 233.484C184.126 231.874 185.736 230.874 187.346 231.244L274.837 251.574C276.447 251.954 277.457 253.564 277.077 255.174C276.757 256.564 275.517 257.494 274.157 257.494Z" fill="black"/>
<path d="M186.535 270.394C184.885 270.394 183.535 269.054 183.535 267.404L183.455 234.653C183.455 232.993 184.795 231.653 186.445 231.643C188.095 231.643 189.445 232.983 189.445 234.633L189.525 267.384C189.525 269.044 188.185 270.384 186.535 270.394Z" fill="black"/>
<path d="M174.945 476.336L49.1138 510.906V526.676L174.945 492.106L294.357 514.356V498.586L174.945 476.336Z" fill="white"/>
<path d="M49.1138 510.906V526.676L144.165 551.426L294.207 514.326L294.357 498.586L144.165 535.656L49.1138 510.906Z" fill="white"/>
<path d="M303.207 466.074C302.967 466.074 302.717 466.044 302.477 465.984C300.867 465.584 299.897 463.954 300.297 462.344C300.517 461.294 302.357 448.794 304.477 434.313C309.597 399.433 317.337 346.723 320.467 330.732C326.018 302.382 331.798 251.981 331.848 251.471C331.848 251.391 331.868 251.311 331.888 251.241C333.628 242.321 323.767 239.551 310.687 236.861C307.767 236.261 305.017 235.691 302.857 235.001C294.487 232.321 280.207 229.411 266.397 226.591C254.467 224.161 243.197 221.861 235.436 219.691C226.976 217.331 217.696 215.091 209.516 213.111C199.306 210.641 190.486 208.521 186.196 206.861C178.486 203.881 172.436 203.651 165.306 206.081C163.736 206.621 162.036 205.781 161.496 204.211C160.956 202.641 161.796 200.941 163.366 200.401C171.846 197.501 179.326 197.761 188.366 201.261C192.276 202.771 200.916 204.861 210.926 207.281C219.156 209.271 228.486 211.521 237.047 213.911C244.597 216.021 255.767 218.301 267.597 220.711C281.557 223.561 296.007 226.501 304.687 229.281C306.537 229.871 309.137 230.411 311.897 230.971C323.367 233.331 340.688 236.891 337.798 252.251C337.488 254.961 331.818 303.942 326.357 331.872C323.257 347.723 315.217 402.463 310.417 435.174C307.347 456.074 306.337 462.904 306.117 463.784C305.777 465.144 304.557 466.054 303.207 466.054V466.074Z" fill="black"/>
<path d="M151.045 553.146C148.905 553.146 146.475 552.986 143.345 552.666C121.815 550.456 93.3648 542.306 70.5046 535.756C62.4445 533.446 54.8244 531.266 48.3643 529.576C46.7643 529.156 45.8043 527.516 46.2143 525.916C46.6343 524.316 48.2743 523.346 49.8743 523.766C56.4144 525.466 64.0645 527.656 72.1646 529.976C94.7949 536.466 122.965 544.536 143.965 546.686C153.156 547.626 155.416 547.076 162.926 545.226C169.006 543.736 179.046 541.456 190.666 538.826C221.906 531.746 286.897 517.006 291.987 512.306C294.247 509.646 296.487 491.986 297.437 484.446C297.847 481.226 298.197 478.435 298.497 476.615C298.767 474.985 300.317 473.875 301.947 474.145C303.577 474.415 304.687 475.965 304.417 477.596C304.137 479.296 303.787 482.026 303.387 485.186C301.457 500.476 299.717 512.476 296.497 516.246C292.267 521.196 257.987 529.696 191.996 544.656C180.406 547.286 170.396 549.556 164.366 551.036C158.796 552.396 155.596 553.106 151.065 553.106L151.045 553.146Z" fill="black"/>
<path d="M281.467 504.375C281.317 504.375 281.167 504.365 281.017 504.345C279.377 504.095 278.247 502.575 278.497 500.935L297.757 372.543C298.007 370.903 299.527 369.773 301.167 370.023C302.807 370.273 303.937 371.793 303.687 373.433L284.427 501.825C284.207 503.315 282.927 504.385 281.467 504.385V504.375Z" fill="black"/>
<path d="M304.596 350.233C304.446 350.233 304.296 350.223 304.146 350.203C302.506 349.953 301.376 348.433 301.626 346.793L312.956 271.292C313.206 269.652 314.726 268.522 316.366 268.772C318.006 269.022 319.136 270.542 318.886 272.182L307.556 347.683C307.336 349.173 306.056 350.243 304.596 350.243V350.233Z" fill="black"/>
<path d="M282.117 144.892C270.667 142.132 253.706 144.432 246.716 153.592C239.726 162.752 246.536 173.602 253.406 178.452C260.277 183.302 274.407 174.622 278.887 166.322C284.547 155.812 291.747 166.142 295.467 161.872C299.187 157.602 293.847 147.722 282.127 144.892H282.117Z" fill="white"/>
<path d="M362.067 171.81C356.827 159.36 334.237 155.67 322.107 161.33C310.657 166.67 297.956 185.181 313.357 193.081C323.817 198.451 336.137 187.961 346.247 180.681C354.757 174.55 363.617 175.47 362.077 171.81H362.067Z" fill="white"/>
<path d="M257.366 181.981C255.696 181.981 254.076 181.771 252.576 181.341C247.726 179.931 243.536 175.451 241.646 169.651C239.576 163.291 240.596 156.781 244.466 151.781C254.986 138.18 273.356 136.89 283.136 139.33C289.166 140.84 295.336 145.58 298.476 151.141C300.386 154.521 300.946 157.781 300.096 160.591C298.606 165.481 294.326 167.241 287.366 165.811L287.016 165.741C284.296 165.171 283.056 164.921 281.536 167.751C277.096 175.991 266.396 181.981 257.376 181.981H257.366ZM274.166 144.35C266.586 144.35 256.106 146.52 249.196 155.451C246.566 158.851 245.886 163.351 247.336 167.791C248.606 171.671 251.306 174.731 254.236 175.581C261.206 177.601 272.306 172.211 276.236 164.911C279.886 158.141 285.306 159.261 288.226 159.871L288.556 159.941C293.686 160.991 294.116 159.601 294.346 158.851C294.696 157.691 294.296 155.961 293.246 154.101C290.896 149.95 286.136 146.27 281.676 145.16C279.996 144.74 277.336 144.36 274.166 144.36V144.35Z" fill="black"/>
<path d="M321.957 195.762C318.907 195.762 315.707 195.291 313.037 194.401C307.897 192.691 300.477 186.981 302.487 178.951C305.617 166.411 314.817 160.921 318.627 159.141C322.797 157.191 344.948 151.971 353.858 158.031C355.228 158.961 355.588 160.831 354.648 162.201C353.718 163.571 351.848 163.931 350.478 162.991C344.668 159.041 325.757 162.431 321.157 164.571C318.127 165.981 310.807 170.361 308.297 180.401C306.977 185.701 314.837 188.681 314.917 188.701C317.827 189.671 321.687 190.011 324.767 189.571C329.887 188.841 334.607 186.161 340.087 183.071C345.648 179.931 351.948 176.361 359.698 174.471C361.308 174.071 362.928 175.061 363.328 176.671C363.718 178.281 362.738 179.901 361.128 180.301C354.178 182.001 348.518 185.201 343.048 188.301C337.297 191.561 331.857 194.632 325.617 195.522C324.447 195.692 323.207 195.772 321.937 195.772L321.957 195.762Z" fill="black"/>
<path d="M129.334 298.082C128.604 298.082 127.974 298.042 127.434 297.962C114.274 296.012 27.973 271.732 17.0829 266.292C15.6029 265.552 15.0029 263.752 15.7429 262.272C16.4829 260.792 18.2929 260.192 19.7729 260.932C29.9931 266.042 115.864 290.192 128.324 292.032C137.964 293.452 195.995 275.722 227.175 266.202C233.515 264.262 239.265 262.512 244.046 261.072C273.466 252.242 294.636 246.772 308.756 244.332C310.386 244.052 311.946 245.142 312.226 246.782C312.506 248.412 311.416 249.962 309.776 250.252C295.896 252.642 274.956 258.062 245.766 266.822C240.995 268.252 235.265 270.002 228.925 271.942C183.765 285.742 142.234 298.092 129.344 298.092L129.334 298.082Z" fill="black"/>
<path d="M172.436 272.342C170.946 272.342 169.656 271.242 169.466 269.722C169.326 268.612 169.306 266.021 169.296 261.161C169.286 254.651 169.246 240.161 168.206 235.721C159.206 236.761 114.216 252.011 101.086 257.261C99.5456 257.871 97.8056 257.131 97.1856 255.591C96.5656 254.051 97.3156 252.311 98.8556 251.691C104.846 249.291 122.106 243.181 137.296 238.241C168.956 227.941 170.486 229.221 172.106 230.571C174.586 232.641 175.236 238.931 175.286 261.141C175.286 264.591 175.306 268.152 175.406 268.942C175.616 270.582 174.456 272.092 172.816 272.302C172.686 272.322 172.556 272.332 172.426 272.332L172.436 272.342Z" fill="black"/>
<path d="M133.785 368.253C119.724 368.253 48.3636 349.263 28.5034 340.023C27.0034 339.323 26.3534 337.543 27.0434 336.033C27.7334 334.523 29.5234 333.883 31.0334 334.573C53.2637 344.903 126.915 363.213 134.235 362.223C146.065 360.623 267.696 334.933 293.716 324.173C295.246 323.543 297.006 324.263 297.636 325.793C298.266 327.323 297.546 329.083 296.016 329.713C269.676 340.613 146.965 366.553 135.045 368.173C134.705 368.223 134.285 368.243 133.795 368.243L133.785 368.253Z" fill="black"/>
<path d="M49.1044 513.904C47.7843 513.904 46.5743 513.034 46.2143 511.694C45.7743 510.094 46.7143 508.444 48.3144 508.004L124.035 487.204C129.545 485.694 134.705 484.344 139.695 483.044C149.706 480.434 158.356 478.184 164.276 475.944C171.846 473.094 171.916 471.374 171.916 471.304C171.786 445.753 171.646 422.763 171.646 422.763C171.646 421.103 172.966 419.753 174.626 419.743H174.646C176.296 419.743 177.636 421.073 177.646 422.723C177.646 422.723 177.786 445.713 177.916 471.274C177.956 479.264 164.896 482.664 141.195 488.844C136.225 490.134 131.085 491.474 125.615 492.984L49.8944 513.784C49.6244 513.854 49.3644 513.894 49.0944 513.894L49.1044 513.904Z" fill="black"/>
<path d="M280.026 498.905C279.856 498.905 279.676 498.885 279.506 498.855C279.286 498.815 257.506 494.975 235.745 490.915C190.795 482.535 189.845 481.515 188.845 480.445C187.245 478.735 186.355 475.275 186.505 424.194C186.515 420.484 186.525 417.464 186.515 415.534C186.515 413.874 187.845 412.524 189.505 412.524H189.515C191.165 412.524 192.505 413.854 192.515 415.514C192.515 417.454 192.515 420.494 192.505 424.224C192.465 436.915 192.365 469.545 193.475 476.185C201.495 478.645 250.186 487.605 280.536 492.955C282.166 493.245 283.256 494.795 282.966 496.435C282.706 497.895 281.446 498.915 280.016 498.915L280.026 498.905Z" fill="black"/>
<path d="M144.116 538.656C144.116 538.656 144.046 538.656 144.016 538.656C142.356 538.576 141.086 537.166 141.176 535.506C141.256 533.966 142.476 532.756 143.976 532.666C146.256 532.296 166.526 527.025 187.967 521.435C251.497 504.895 278.568 498.055 281.798 498.405C283.448 498.595 284.628 500.075 284.438 501.725C284.258 503.325 282.828 504.475 281.268 504.385C276.508 504.595 224.157 518.225 189.477 527.255C149.996 537.536 145.386 538.666 144.106 538.666L144.116 538.656ZM144.166 532.656C144.216 532.656 144.266 532.656 144.316 532.656C144.256 532.656 144.156 532.656 144.026 532.656C144.076 532.656 144.116 532.656 144.166 532.656ZM281.128 504.355C281.128 504.355 281.198 504.355 281.238 504.355C281.198 504.355 281.168 504.355 281.128 504.355Z" fill="black"/>
<path d="M133.365 535.265C133.115 535.265 132.865 535.235 132.605 535.165C127.185 533.754 120.105 532.234 112.595 530.624C94.9344 526.834 74.9142 522.534 64.4841 517.224C63.0041 516.474 62.4141 514.664 63.1641 513.194C63.9141 511.714 65.7241 511.124 67.1941 511.874C76.9342 516.824 96.5445 521.034 113.855 524.754C121.425 526.384 128.575 527.914 134.115 529.354C135.715 529.774 136.675 531.415 136.265 533.015C135.915 534.365 134.695 535.255 133.365 535.255V535.265Z" fill="black"/>
<path d="M96.1443 524.815C94.9843 524.815 93.8843 524.145 93.3943 523.005C92.7343 521.485 93.4343 519.715 94.9443 519.055C100.384 516.685 160.755 498.505 176.725 495.475C178.355 495.165 179.925 496.235 180.235 497.865C180.545 499.495 179.475 501.065 177.845 501.375C161.675 504.445 101.534 522.745 97.3444 524.565C96.9544 524.735 96.5444 524.815 96.1544 524.815H96.1443Z" fill="black"/>
<path d="M124.974 532.705C123.984 532.705 123.024 532.215 122.444 531.325C121.544 529.935 121.954 528.075 123.344 527.175C131.484 521.944 208.785 501.894 217.215 501.244C218.885 501.124 220.315 502.354 220.435 504.004C220.565 505.654 219.325 507.104 217.675 507.224C208.975 507.904 133.124 528.025 126.584 532.225C126.084 532.545 125.524 532.705 124.964 532.705H124.974Z" fill="black"/>
<path d="M136.336 320.014C125.906 320.014 84.8352 309.094 39.9947 296.894C29.4946 294.044 21.2045 291.784 16.8444 290.694C15.2344 290.294 14.2644 288.664 14.6644 287.053C15.0644 285.443 16.6844 284.463 18.3044 284.873C22.7245 285.973 31.0446 288.244 41.5747 291.104C72.125 299.414 129.006 314.884 136.776 313.994C149.006 312.604 277.607 277.943 318.258 264.553C319.828 264.033 321.528 264.893 322.048 266.463C322.568 268.033 321.708 269.733 320.138 270.253C282.507 282.653 151.046 318.424 137.456 319.964C137.136 320.004 136.766 320.014 136.346 320.014H136.336Z" fill="black"/>
<path d="M46.7046 379.174C45.0946 379.174 43.7645 377.904 43.7045 376.284C43.3845 367.134 31.9344 318.643 28.0344 303.533C27.6244 301.933 28.5844 300.293 30.1944 299.883C31.8044 299.473 33.4344 300.433 33.8544 302.043C36.5645 312.533 49.3246 365.284 49.7146 376.084C49.7746 377.744 48.4746 379.134 46.8246 379.184C46.7846 379.184 46.7546 379.184 46.7146 379.184L46.7046 379.174Z" fill="black"/>
<path d="M75.825 389.404C74.295 389.404 72.985 388.234 72.845 386.674C72.555 383.444 61.5748 319.573 59.3748 310.343C58.9948 308.733 59.9848 307.113 61.5948 306.733C63.2149 306.353 64.8249 307.343 65.2049 308.953C67.2849 317.683 78.395 381.624 78.805 386.134C78.955 387.784 77.735 389.244 76.085 389.394C75.995 389.394 75.905 389.404 75.805 389.404H75.825Z" fill="black"/>
<path d="M107.276 399.694C107.216 399.694 107.156 399.694 107.096 399.694C105.446 399.594 104.186 398.174 104.286 396.514C104.686 389.864 98.4856 325.553 96.9555 320.323C96.3355 318.923 96.8755 317.253 98.2456 316.493C99.6956 315.683 101.526 316.203 102.326 317.653C102.666 318.263 103.696 320.113 107.186 355.784C108.776 372.064 110.546 392.594 110.286 396.874C110.186 398.464 108.866 399.694 107.296 399.694H107.276ZM96.9655 320.373C97.0055 320.453 97.0355 320.523 97.0655 320.573C97.0255 320.513 96.9955 320.443 96.9655 320.373Z" fill="black"/>
<path d="M138.985 414.013C137.395 414.013 136.065 412.763 135.985 411.153C134.455 378.893 131.365 326.092 129.595 321.042C128.855 319.692 129.255 317.982 130.555 317.102C131.935 316.182 133.795 316.542 134.715 317.922C135.495 319.082 136.795 321.022 139.575 366.573C140.925 388.703 141.975 410.653 141.985 410.873C142.065 412.533 140.785 413.933 139.135 414.013C139.085 414.013 139.035 414.013 138.995 414.013H138.985Z" fill="black"/>
<path d="M179.816 401.694H179.776C178.116 401.674 176.796 400.314 176.806 398.664C176.856 394.544 176.676 386.974 176.466 378.224C175.936 356.043 175.206 325.663 177.286 316.093C177.636 314.473 179.236 313.453 180.856 313.803C182.476 314.153 183.506 315.753 183.146 317.373C181.216 326.243 181.966 357.443 182.456 378.084C182.666 386.894 182.846 394.514 182.796 398.744C182.776 400.394 181.436 401.714 179.796 401.714L179.816 401.694Z" fill="black"/>
<path d="M228.176 386.813C226.676 386.813 225.386 385.693 225.196 384.163C224.096 374.853 228.416 307.232 229.656 300.942C229.976 299.312 231.546 298.252 233.176 298.572C234.806 298.892 235.866 300.462 235.546 302.092C234.576 307.072 230.146 374.883 231.156 383.463C231.346 385.113 230.176 386.603 228.526 386.793C228.406 386.803 228.286 386.813 228.166 386.813H228.176Z" fill="black"/>
<path d="M268.556 374.173C267.046 374.173 265.746 373.053 265.586 371.523C264.926 365.373 275.276 298.983 278.306 289.873C278.826 288.302 280.526 287.452 282.096 287.972C283.666 288.492 284.516 290.193 283.996 291.763C281.006 300.743 271.146 366.273 271.546 370.883C271.686 372.523 270.486 373.993 268.846 374.153C268.746 374.153 268.646 374.163 268.546 374.163L268.556 374.173Z" fill="black"/>
<path d="M444.279 217.411C442.649 217.411 441.319 216.111 441.279 214.481C441.269 213.971 440.119 163.66 436.289 143.22C435.979 141.59 437.059 140.02 438.689 139.72C440.319 139.42 441.889 140.49 442.189 142.12C446.109 163.04 447.239 212.261 447.279 214.351C447.319 216.011 445.999 217.381 444.349 217.411C444.329 217.411 444.309 217.411 444.279 217.411Z" fill="black"/>
<path d="M397.549 194.142C390.298 194.142 385.688 187.382 380.848 180.282C375.228 172.032 368.228 161.762 354.908 156.322C352.978 155.532 351.788 154.022 351.638 152.182C351.398 149.152 353.518 144.612 371.058 133.952C372.478 133.092 374.318 133.542 375.178 134.962C376.038 136.382 375.588 138.222 374.168 139.082C363.848 145.352 359.438 149.322 358.078 151.142C372.508 157.392 380.178 168.642 385.808 176.902C391.308 184.972 394.409 189.132 399.299 187.902C411.229 184.922 424.029 172.302 428.319 164.712C441.349 141.662 444.299 88.361 427.709 48.7206C420.039 30.3904 410.689 21.2403 404.189 16.8002C398.979 13.2302 394.729 12.0501 392.909 11.6701C378.118 21.6503 359.858 23.2103 347.128 15.4802C345.708 14.6202 345.258 12.7802 346.118 11.3601C346.978 9.94012 348.828 9.49012 350.238 10.3501C361.248 17.0302 377.408 15.3102 390.449 6.07008C391.019 5.67007 391.709 5.47007 392.409 5.53007C393.409 5.61007 417.079 7.8301 433.229 46.4105C450.749 88.271 447.529 142.902 433.529 167.672C428.789 176.062 415.089 190.142 400.739 193.732C399.619 194.012 398.549 194.142 397.539 194.142H397.549Z" fill="black"/>
</svg>
