<svg width="180" height="170" viewBox="0 0 180 170" fill="none" xmlns="http://www.w3.org/2000/svg">
<path d="M53.0171 43.3611C55.7544 46.8805 65.8613 44.024 71.9758 44.3648C76.3338 44.6077 69.4273 39.4211 78.1292 46.5175C86.8953 53.6664 86.92 52.3063 91.0338 56.2936C97.7156 62.7702 98.6402 67.3171 103.352 74.2817C108.41 82.1686 132.229 101.781 139.914 101.069C145.357 100.564 152.328 93.8413 152.672 85.5999C152.56 80.6633 148.562 78.3706 149.015 74.2935C149.557 69.4051 153.341 67.3689 154.335 62.9871C155.544 57.6602 152.873 51.3543 149.015 48.0227C143.726 43.4563 137.232 46.946 127.01 43.3893C123.593 42.2006 118.624 38.8007 108.826 32.049C94.2576 22.0104 92.82 19.0232 90.2617 18.0879C75.6483 11.8965 47.0679 26.7556 53.0171 43.3611Z" fill="white"/>
<path d="M140.103 103.225C140.099 103.168 140.091 103.111 140.083 103.054C139.749 100.998 139.305 100.613 138.419 99.1284C148.802 88.5242 142.341 70.1199 138.783 62.8034C135.018 55.0619 127.522 43.5511 119.894 39.9186C112.265 36.2861 93.7395 26.8416 69.4017 37.0126C45.0639 47.1836 36.4878 80.4474 36.1089 81.5756C36.0701 81.6899 34.3987 86.9487 33.4221 94.4851C32.6137 98.2433 32.4124 102.222 32.7474 106.253C32.8881 113.137 34.0613 120.571 37.2971 127.302C43.3581 139.908 63.3468 147.153 67.6586 148.951C67.6586 148.951 84.4363 151.613 82.8017 153.247C83.8915 158.151 92.5888 164.923 92.5888 164.923C99.4659 171.174 121.276 150.211 117.201 145.457C114.541 142.354 110.429 137.502 110.429 137.502C115.094 132.997 118.377 125.645 119.115 123.902C119.897 124.014 121.154 124.149 122.684 124.149C126.191 124.149 131.108 123.437 134.893 120.096C138.966 116.503 140.718 110.827 140.103 103.225L140.103 103.225Z" fill="white"/>
<path d="M112.004 138C111.296 138 110.585 137.751 110.014 137.244C108.775 136.144 108.661 134.248 109.761 133.009C113.804 128.454 115.41 121.682 115.425 121.614C115.781 120.088 117.248 119.09 118.798 119.326C118.886 119.339 128.313 120.66 133.558 115.745C136.343 113.137 137.541 109.048 137.122 103.591C136.094 97.6047 131.55 96.1206 127.954 96.6719C126.312 96.9233 124.786 95.7995 124.535 94.1617C124.283 92.524 125.407 90.9927 127.044 90.7414C133.65 89.7276 141.489 93.0489 143.064 102.744C143.077 102.823 143.086 102.903 143.093 102.983C143.697 110.434 141.859 116.21 137.632 120.151C132.267 125.153 124.548 125.624 120.541 125.477C119.583 128.367 117.618 133.196 114.249 136.992C113.657 137.66 112.832 138 112.004 138H112.004Z" fill="black"/>
<path d="M57.0248 104.93C59.8191 104.93 62.0844 102.665 62.0844 99.8708C62.0844 97.0764 59.8191 94.8111 57.0248 94.8111C54.2304 94.8111 51.9651 97.0764 51.9651 99.8708C51.9651 102.665 54.2304 104.93 57.0248 104.93Z" fill="black"/>
<path d="M92.5887 111.397C95.3831 111.397 97.6484 109.131 97.6484 106.337C97.6484 103.543 95.3831 101.277 92.5887 101.277C89.7943 101.277 87.5291 103.543 87.5291 106.337C87.5291 109.131 89.7943 111.397 92.5887 111.397Z" fill="black"/>
<path d="M90.2532 165.715C89.2405 165.715 88.2522 165.202 87.6868 164.273C84.8977 159.688 81.5159 155.088 80.2864 154.184C79.2815 153.956 78.2883 153.736 77.2961 153.515C74.0217 152.789 70.636 152.038 66.8762 151.023C66.5051 150.923 66.1575 150.752 65.8518 150.522C65.4416 150.344 64.3293 150.019 63.4231 149.753C56.9729 147.864 41.8684 143.441 34.4358 127.606C25.5178 108.605 32.3596 84.155 33.1692 81.4296C36.1545 70.2327 41.721 49.349 59.7385 37.3212C61.1165 36.4012 62.9797 36.7726 63.8997 38.1507C64.8196 39.5287 64.4485 41.3915 63.0706 42.3115C46.9348 53.0822 41.7483 72.5426 38.9612 82.9974C38.9543 83.0247 38.929 83.111 38.9211 83.138C38.178 85.6393 31.8928 108.066 39.8674 125.056C46.1506 138.443 58.9553 142.193 65.1086 143.995C66.8782 144.513 68.0588 144.859 68.926 145.361C72.3655 146.276 75.5295 146.978 78.595 147.658C79.6868 147.9 80.7795 148.142 81.887 148.394C82.7952 148.601 85.5608 149.231 92.8137 161.155C93.6741 162.571 93.2249 164.416 91.8088 165.277C91.3225 165.573 90.7844 165.715 90.2532 165.715L90.2532 165.715ZM65.5803 150.29L65.5832 150.293L65.5803 150.29Z" fill="black"/>
<path d="M126.888 69.0451C111.603 69.0451 101.106 65.0666 92.8537 56.1451C91.7287 54.9288 91.803 53.0307 93.0188 51.9057C94.2356 50.7802 96.133 50.8549 97.258 52.0709C104.373 59.7631 113.235 63.0451 126.888 63.0451C128.545 63.0451 129.888 64.3883 129.888 66.0451C129.888 67.702 128.545 69.0451 126.888 69.0451Z" fill="black"/>
<path d="M125.507 83.4066C119.464 83.4066 112.2 80.8939 107.136 76.8059C105.846 75.7653 105.645 73.8765 106.685 72.5872C107.725 71.2985 109.613 71.0956 110.904 72.1369C115.627 75.9487 123.536 78.2348 128.193 77.1268C129.8 76.7433 131.422 77.7376 131.806 79.3497C132.191 80.9615 131.195 82.5794 129.583 82.9634C128.325 83.2631 126.95 83.4066 125.507 83.4066Z" fill="black"/>
<path d="M151.261 97.0355C150.464 97.0356 149.669 96.7204 149.079 96.0958C147.942 94.8915 147.995 92.9928 149.2 91.8549C150.53 90.5989 152.393 88.0046 149.942 84.7415C145.023 78.1946 145.004 72.3994 149.886 67.5167C153.069 64.3337 153.699 58.9523 151.418 54.43C150.284 52.1823 146.752 47.0889 138.486 48.3292C137.545 48.4702 136.605 48.5372 135.667 48.5373C124.503 48.5383 113.619 39.0457 105.501 31.9666C103.508 30.2288 101.626 28.5874 99.971 27.2835C86.0384 16.3077 71.5003 19.518 63.2816 25.6006C56.8021 30.3973 53.8001 37.0977 55.8128 42.2738C56.4134 43.818 55.6488 45.5566 54.1038 46.1571C52.5619 46.7577 50.8216 45.9923 50.221 44.4483C47.1683 36.597 50.8929 27.3059 59.7122 20.778C69.6283 13.4373 87.0951 9.50216 103.684 22.5703C105.457 23.9668 107.394 25.656 109.445 27.4445C117.804 34.7336 128.212 43.802 137.595 42.3956C146.02 41.1316 153.19 44.6205 156.775 51.728C160.207 58.5323 159.118 66.7694 154.128 71.7593C151.86 74.0282 151.17 76.3886 154.739 81.1375C158.406 86.0186 157.849 91.9374 153.321 96.2162C152.741 96.764 152 97.0356 151.261 97.0356L151.261 97.0355Z" fill="black"/>
</svg>
