<svg width="180" height="170" viewBox="0 0 180 170" fill="none" xmlns="http://www.w3.org/2000/svg">
<path d="M139.6 103.7C139.6 103.6 139.6 103.6 139.6 103.5C139.3 101.4 138.8 101.1 137.9 99.6C148.3 89 141.8 70.6 138.3 63.3C134.5 55.6 127 44 119.4 40.4C111.8 36.8 93.2001 27.3 68.9001 37.5C44.6001 47.7 36.0001 81 35.7001 82.1C35.7001 82.2 34.0001 87.5 33.0001 95C32.2001 98.8 32.0001 102.7 32.3001 106.8C32.4001 113.7 33.6001 121.1 36.8001 127.8C42.9001 140.4 62.8001 147.7 67.2001 149.4C67.2001 149.4 84.0001 152.1 82.3001 153.7C83.4001 158.6 92.1001 165.4 92.1001 165.4C99.0001 171.7 120.8 150.7 116.7 145.9C114 142.8 109.9 137.9 109.9 137.9C114.6 133.4 117.8 126 118.6 124.3C119.4 124.4 120.6 124.5 122.2 124.5C125.7 124.5 130.6 123.8 134.4 120.4C138.5 117 140.3 111.3 139.6 103.7Z" fill="white"/>
<path d="M56.6 105.5C59.4167 105.5 61.7 103.217 61.7 100.4C61.7 97.5833 59.4167 95.3 56.6 95.3C53.7833 95.3 51.5 97.5833 51.5 100.4C51.5 103.217 53.7833 105.5 56.6 105.5Z" fill="black"/>
<path d="M92.1 111.9C94.9167 111.9 97.2 109.617 97.2 106.8C97.2 103.983 94.9167 101.7 92.1 101.7C89.2833 101.7 87 103.983 87 106.8C87 109.617 89.2833 111.9 92.1 111.9Z" fill="black"/>
<path d="M89.8001 166.2C88.8001 166.2 87.8001 165.7 87.2001 164.8C84.4001 160.2 81.0001 155.6 79.8001 154.7C78.8001 154.5 77.8001 154.3 76.8001 154C73.5001 153.3 70.1001 152.5 66.4001 151.5C66.0001 151.4 65.7001 151.2 65.4001 151C65.0001 150.8 63.9002 150.5 63.0001 150.2C56.5001 148.3 41.4001 143.9 34.0001 128.1C25.1001 109.1 31.9001 84.6 32.7001 81.9C36.9001 66 45.8001 32.9 85.2001 29C102.9 27.2 120.1 33.6 132.4 46.6C143.3 58.1 148.3 72.7 146.2 86.8C145.9 88.4 144.4 89.6 142.8 89.3C141.2 89 140 87.5 140.3 85.9C142.2 73.7 137.7 60.9 128.1 50.8C117.1 39.2 101.7 33.5 85.9002 35C50.6002 38.5 42.8001 67.8 38.6001 83.5V83.6C37.9001 86.1 31.6001 108.5 39.5001 125.5C45.8001 138.9 58.6001 142.6 64.7001 144.4C66.5001 144.9 67.7001 145.3 68.5001 145.8C71.9002 146.7 75.1001 147.4 78.2001 148.1C79.3001 148.3 80.4002 148.6 81.5001 148.8C82.4002 149 85.2001 149.6 92.4002 161.6C93.3002 163 92.8002 164.9 91.4002 165.7C90.9002 166.1 90.3001 166.2 89.8001 166.2Z" fill="black"/>
<path d="M158.8 122.3C161.5 116.5 165.9 100.1 144.7 96.9999C171.1 66.7999 143.1 16.8999 107.2 25.5999C102.4 26.2999 87.0001 26.9999 79.0001 19.8999C74.2001 15.5999 52.3001 8.49994 37.4001 17.6999C23.2001 26.4999 11.6001 50.9999 25.4001 67.0999C37.1001 80.8999 48.7001 70.0999 51.3001 66.7999C54.0001 63.4999 123.6 81.4999 133.1 118.3C137.6 131.7 156.2 128.1 158.8 122.3Z" fill="white"/>
<path d="M109.8 138.6C109.1 138.6 108.4 138.4 107.8 137.8C106.6 136.7 106.4 134.8 107.5 133.6C111.5 129.1 113.1 122.3 113.2 122.2C113.6 120.7 115 119.7 116.6 119.9C116.7 119.9 126.1 121.2 131.4 116.3C134.2 113.7 135.4 109.6 135 104.1C134 98.1 129.4 96.6 125.8 97.2C124.2 97.5 122.6 96.3 122.4 94.7C122.1 93.1 123.3 91.5 124.9 91.3C131.5 90.3 139.3 93.6 140.9 103.3C140.9 103.4 140.9 103.5 140.9 103.5C141.5 111 139.7 116.7 135.4 120.7C130 125.7 122.3 126.2 118.3 126C117.3 128.9 115.4 133.7 112 137.5C111.5 138.3 110.6 138.6 109.8 138.6Z" fill="black"/>
<path d="M148 131.3C146 131.3 144 130.9 142.1 130C140.6 129.3 139.9 127.6 140.6 126C141.3 124.5 143 123.8 144.6 124.5C148.7 126.3 151.8 124.7 153.6 123C157.3 119.7 159 113.8 157.6 109.1C156.1 104.1 151.5 101 144.5 100.1C143.4 100 142.5 99.2 142.1 98.2C141.7 97.2 141.9 96 142.6 95.2C154.5 81.5 156.6 62.9 148 47.9C139.7 33.3 124.1 26.7 106.2 30C92.8001 32.4 87.1001 30.9 77.1001 22.2C66.5001 13 48.9001 12.5 37.9001 21C29.3001 27.5 23.5001 37.7 22.3001 48.3C21.5001 55.6 23.0001 62.1 26.4001 66.3C32.9001 74.2 42.1001 73.4 48.3001 69.1C50.6001 67.5 52.6001 64.3 54.8001 60.8C59.7001 52.9 66.5001 42.1 81.8001 45C100.4 48.5 102.1 62.3 103.4 72.5C103.6 74.4 103.9 76.1 104.2 77.7C105.2 83.1 108.8 88.4 112.4 90.1C113.9 90.8 114.6 92.6 113.9 94.1C113.2 95.6 111.4 96.3 109.9 95.6C103.6 92.7 99.4001 84.9 98.3001 78.9C98.0001 77.1 97.7001 75.3 97.5001 73.3C96.3001 63.6 95.1001 53.7 80.8001 51C69.5001 48.9 64.8001 56.3 59.9001 64.1C57.4001 68.1 55.0001 71.9 51.8001 74.1C43.6001 79.8 30.7001 81 21.8001 70.2C17.4001 64.8 15.4001 56.6 16.4001 47.7C17.8001 35.3 24.3001 23.9 34.2001 16.2C47.4001 6.09997 68.4001 6.69997 81.0001 17.7C89.6001 25.1 93.6001 26.2 105.1 24.1C125.3 20.4 143.8 28.3 153.2 44.8C162.3 60.7 161 80 150.1 95.2C159 97.9 162.1 103.8 163.2 107.4C165.3 114.4 163 122.7 157.5 127.6C154.7 130 151.4 131.3 148 131.3Z" fill="black"/>
</svg>
