<svg width="88" height="49" viewBox="0 0 88 49" fill="none" xmlns="http://www.w3.org/2000/svg">
<g clip-path="url(#clip0_10670_115044)">
<path d="M70.6246 46.8992C67.8922 46.8992 64.6148 46.5242 60.6754 45.6248C48.441 42.8308 44.3824 34.8894 45.7867 28.2585V28.2566L45.9615 27.4304C46.4098 25.3044 46.8736 23.1062 47.5484 20.5535C50.4957 9.40993 64.6109 12.6033 69.2506 13.6521C75.8199 15.1375 82.9361 17.3054 85.9107 22.1179C87.3561 24.4578 87.7154 27.1668 86.9762 30.1697C85.9674 34.2732 84.9781 37.2566 84.6988 38.073L84.6197 38.3074C83.8356 40.6668 81.7623 46.8992 70.6246 46.8992V46.8992ZM51.6559 29.5007C50.9195 32.9812 53.1891 37.7605 62.0113 39.7751C76.6871 43.1267 78.2584 38.4226 78.9264 36.4138L79.0211 36.1316C79.2809 35.3738 80.1998 32.6013 81.15 28.737C81.609 26.8718 81.1735 25.866 80.8063 25.2722C78.9684 22.2976 72.5748 20.5554 67.9264 19.5037C54.818 16.5427 53.7897 20.4275 53.3492 22.0867C52.7135 24.4929 52.2653 26.6169 51.8317 28.6697L51.6559 29.5007H51.6559Z" fill="#82BE28"/>
<path d="M48.3943 28.2878C47.3064 28.2878 46.2566 27.6941 45.7244 26.6599C45.41 26.0789 44.4119 24.7937 43.407 24.6882C41.7088 24.5076 40.2039 25.5876 40.1912 25.5984C38.8816 26.6121 36.9959 26.3699 35.9832 25.0584C34.9705 23.7468 35.2127 21.863 36.5232 20.8503C36.8641 20.5867 39.9822 18.3054 44.034 18.7214C48.5047 19.1921 50.8103 23.4314 51.0584 23.9138C51.8172 25.3865 51.2381 27.1951 49.7644 27.9539C49.326 28.1804 48.8562 28.2878 48.3943 28.2878L48.3943 28.2878Z" fill="#82BE28"/>
<path d="M24.7986 37.7577C22.9109 37.7577 20.8504 37.5291 18.618 37.0291C-1.39082 32.5438 -0.22773 23.1922 0.15508 20.119L0.18438 19.8739C0.28399 19.0204 0.67266 15.912 1.53106 11.7596C2.15606 8.73031 3.64629 6.4393 5.95879 4.95004C10.7137 1.88656 18.0701 2.99203 24.6404 4.47934C29.2791 5.52817 43.3953 8.7225 41.2586 20.0497C40.7674 22.6512 40.2381 24.8407 39.7264 26.9588L39.533 27.7616C38.2351 33.1502 33.2625 37.7577 24.7986 37.7577L24.7986 37.7577ZM13.8914 8.99106C12.0057 8.99106 10.3416 9.26352 9.20782 9.99399C8.62091 10.3719 7.79473 11.0926 7.40606 12.9725C6.59844 16.8846 6.23614 19.7723 6.14532 20.5633L6.10919 20.8602C5.84747 22.9608 5.23517 27.8807 19.9305 31.1737C28.7586 33.1571 32.866 29.8172 33.699 26.3573L33.8943 25.5487C34.3885 23.5038 34.9002 21.3895 35.3621 18.9374C35.6805 17.2489 36.4266 13.2977 23.3162 10.3309C20.4598 9.6854 16.8963 8.99107 13.8914 8.99107V8.99106Z" fill="#82BE28"/>
</g>
<defs>
<clipPath id="clip0_10670_115044">
<rect width="87.349" height="43.8993" fill="white" transform="translate(0 3)"/>
</clipPath>
</defs>
</svg>
