<svg width="86" height="49" viewBox="0 0 86 49" fill="none" xmlns="http://www.w3.org/2000/svg">
<g clip-path="url(#clip0_10670_115041)">
<path d="M65.8185 49.0482C59.9474 49.0482 54.1886 46.5179 50.1994 41.8782C44.716 35.4974 43.8283 25.9124 48.0402 18.5687C52.2765 11.1829 60.7189 7.16535 69.0627 8.55695C78.6349 10.1614 85.8068 18.4378 86.1154 28.2366C86.1535 36.9075 80.9172 44.6976 73.0881 47.7034C70.7248 48.6107 68.2619 49.0482 65.8185 49.0482V49.0482ZM65.8351 14.2894C60.7746 14.2894 55.8137 17.0755 53.2453 21.554C50.2756 26.7318 50.8937 33.4808 54.7502 37.9671C58.7502 42.6195 65.2551 44.2825 70.9377 42.1019C76.4543 39.9847 80.1428 34.4554 80.1174 28.3441C79.8996 21.4759 74.8322 15.6077 68.0705 14.4749C67.3283 14.3499 66.5803 14.2894 65.8351 14.2894V14.2894Z" fill="#82BE28"/>
<path d="M20.423 40.7649C14.5509 40.7649 8.79314 38.2346 4.80486 33.594C-0.67854 27.2141 -1.56624 17.6291 2.64568 10.2854C6.88103 2.89865 15.3224 -1.11991 23.6681 0.273649C33.2404 1.87912 40.4123 10.1555 40.7209 19.9533C40.759 28.6252 35.5226 36.4152 27.6926 39.4201C25.3293 40.3274 22.8664 40.7649 20.423 40.7649V40.7649ZM20.4396 6.00607C15.3791 6.00607 10.4181 8.7922 7.85075 13.2697C4.88102 18.4484 5.49919 25.1975 9.35563 29.6838C13.3556 34.3371 19.8595 35.9973 25.5422 33.8186C31.0588 31.7014 34.7482 26.1721 34.7228 20.0608C34.505 13.1926 29.4377 7.32541 22.6759 6.19162C21.9337 6.06662 21.1857 6.00607 20.4396 6.00607H20.4396Z" fill="#82BE28"/>
<path d="M48.1672 27.0178C47.0676 27.0178 46.009 26.4103 45.4827 25.3596C45.175 24.7746 44.1916 23.4787 43.1887 23.3615C41.4885 23.1681 39.9485 24.2453 39.9338 24.2551C38.6008 25.2131 36.7268 24.9308 35.7532 23.6066C34.7795 22.2834 35.0364 20.4338 36.3489 19.4445C36.6926 19.1857 39.8352 16.9289 43.8831 17.4025C48.3479 17.922 50.6057 22.1886 50.8479 22.674C51.5901 24.1554 50.9895 25.9582 49.5081 26.6994C49.0774 26.9152 48.6184 27.0177 48.1672 27.0177V27.0178Z" fill="#82BE28"/>
</g>
<defs>
<clipPath id="clip0_10670_115041">
<rect width="86" height="49" fill="white"/>
</clipPath>
</defs>
</svg>
