<svg width="88" height="49" viewBox="0 0 88 49" fill="none" xmlns="http://www.w3.org/2000/svg">
<path d="M70.6236 45.8992C67.8912 45.8992 64.6138 45.5242 60.6754 44.6248C48.442 41.8318 44.3824 33.8894 45.7867 27.2586L45.9527 26.4695C46.4029 24.3318 46.8687 22.1218 47.5484 19.5525C50.4966 8.41092 64.6119 11.6033 69.2506 12.6521C75.8199 14.1385 82.9371 16.3064 85.9107 21.1179C87.356 23.4588 87.7154 26.1677 86.9762 29.1697C85.9625 33.2869 84.9771 36.2595 84.6988 37.073L84.6197 37.3094C83.8345 39.6687 81.7594 45.8982 70.6236 45.8992L70.6236 45.8992ZM59.9097 17.4216C54.3179 17.4216 53.6734 19.8611 53.3492 21.0867C52.7086 23.5086 52.2584 25.6423 51.8238 27.7058L51.6558 28.5007C50.9195 31.9822 53.189 36.7605 62.0113 38.7752C76.6978 42.1287 78.2574 37.4226 78.9263 35.4148L79.022 35.1306C79.2798 34.3767 80.1959 31.614 81.15 27.7361C81.6089 25.8718 81.1734 24.867 80.8062 24.2722C78.9683 21.2976 72.5748 19.5554 67.9263 18.5037C64.4957 17.7283 61.8921 17.4216 59.9097 17.4216Z" fill="black"/>
<path d="M24.7993 36.7586C22.9126 36.7586 20.851 36.5291 18.6186 36.0291C-1.39409 31.5438 -0.228069 22.1913 0.155711 19.117L0.185981 18.8719C0.283641 18.0213 0.672311 14.9159 1.52973 10.7596C2.15571 7.73031 3.64595 5.44028 5.95845 3.95004C10.7133 0.886563 18.0708 1.99203 24.6401 3.47934C29.2788 4.52817 43.395 7.7225 41.2592 19.0487C40.7631 21.6756 40.229 23.8817 39.7123 26.0155L39.5327 26.7606C38.2358 32.1503 33.2641 36.7587 24.7993 36.7587L24.7993 36.7586ZM13.892 7.99008C12.0063 7.99008 10.3413 8.26352 9.20747 8.99399C8.62056 9.37192 7.79438 10.0926 7.40571 11.9725C6.59907 15.8876 6.23676 18.7723 6.14594 19.5633L6.10981 19.8602C5.84711 21.9608 5.23383 26.8797 19.9311 30.1737C28.7661 32.1581 32.8676 28.8172 33.6987 25.3583L33.6997 25.3563L33.8813 24.6044C34.3794 22.5438 34.895 20.412 35.3628 17.9364C35.6811 16.2499 36.4262 12.2977 23.3159 9.33092C20.4594 8.68541 16.896 7.9901 13.892 7.9901V7.99008Z" fill="black"/>
<path d="M48.7222 27.8797C49.2146 25.5556 49.7058 23.1329 50.4495 20.3207C52.2833 13.3853 60.0987 13.6579 68.5889 15.5782C78.9235 17.9157 85.8676 21.1225 84.064 28.4532C83.2752 31.6591 82.4244 34.4547 81.8609 36.102C81.0283 38.5359 79.2798 45.7945 61.3442 41.6999C50.2965 39.1777 47.76 32.422 48.7222 27.8797Z" fill="#2D8C3C"/>
<path d="M67.8554 15.4214L48.7106 27.9416C48.5251 28.8508 48.4868 29.8472 48.6205 30.8789L50.1318 33.1895L71.7651 19.0415L69.6674 15.8342C69.3085 15.7485 68.955 15.6614 68.5871 15.5781C68.3417 15.5227 68.0995 15.4739 67.8554 15.4214H67.8554Z" fill="white"/>
<path d="M36.6168 26.0597C37.1727 23.75 37.7721 21.3517 38.3113 18.4932C39.641 11.4438 32.4693 8.32608 23.9792 6.40511C13.6448 4.06687 5.99657 3.97263 4.46939 11.3658C3.80151 14.5991 3.36624 17.4887 3.16586 19.2181C2.8698 21.7734 1.32379 29.0779 19.2754 33.1016C30.333 35.58 35.5304 30.5739 36.6168 26.0597Z" fill="#2D8C3C"/>
<path d="M24.7651 9.04152L21.9355 4.71484L0.302185 18.8627L3.13176 23.1894L24.7651 9.04152Z" fill="white"/>
<path d="M70.6236 45.8992C67.8912 45.8992 64.6138 45.5242 60.6754 44.6248C48.442 41.8318 44.3824 33.8894 45.7867 27.2586L45.9527 26.4695C46.4029 24.3318 46.8687 22.1218 47.5484 19.5525C50.4966 8.41092 64.6119 11.6033 69.2506 12.6521C75.8199 14.1385 82.9371 16.3064 85.9107 21.1179C87.356 23.4588 87.7154 26.1677 86.9762 29.1697C85.9625 33.2869 84.9771 36.2595 84.6988 37.073L84.6197 37.3094C83.8345 39.6687 81.7594 45.8982 70.6236 45.8992L70.6236 45.8992ZM59.9097 17.4216C54.3179 17.4216 53.6734 19.8611 53.3492 21.0867C52.7086 23.5086 52.2584 25.6423 51.8238 27.7058L51.6558 28.5007C50.9195 31.9822 53.189 36.7605 62.0113 38.7752C76.6978 42.1287 78.2574 37.4226 78.9263 35.4148L79.022 35.1306C79.2798 34.3767 80.1959 31.614 81.15 27.7361C81.6089 25.8718 81.1734 24.867 80.8062 24.2722C78.9683 21.2976 72.5748 19.5554 67.9263 18.5037C64.4957 17.7283 61.8921 17.4216 59.9097 17.4216Z" fill="black"/>
<path d="M48.3929 27.2878C47.305 27.2878 46.2552 26.6941 45.723 25.6599C45.4085 25.0789 44.4105 23.7937 43.4056 23.6882C41.7142 23.5144 40.2035 24.5876 40.1888 24.5994C38.8792 25.6121 36.9935 25.3699 35.9808 24.0574C34.9681 22.7459 35.2113 20.8621 36.5228 19.8494C36.8636 19.5867 39.9808 17.3054 44.0335 17.7214C48.5033 18.1921 50.8089 22.4314 51.057 22.9138C51.8158 24.3865 51.2367 26.1951 49.763 26.9539C49.3245 27.1804 48.8548 27.2878 48.3929 27.2878L48.3929 27.2878Z" fill="black"/>
<path d="M24.7993 36.7586C22.9126 36.7586 20.851 36.5291 18.6186 36.0291C-1.39409 31.5438 -0.228069 22.1913 0.155711 19.117L0.185981 18.8719C0.283641 18.0213 0.672311 14.9159 1.52973 10.7596C2.15571 7.73031 3.64595 5.44028 5.95845 3.95004C10.7133 0.886563 18.0708 1.99203 24.6401 3.47934C29.2788 4.52817 43.395 7.7225 41.2592 19.0487C40.7631 21.6756 40.229 23.8817 39.7123 26.0155L39.5327 26.7606C38.2358 32.1503 33.2641 36.7587 24.7993 36.7587L24.7993 36.7586ZM13.892 7.99008C12.0063 7.99008 10.3413 8.26352 9.20747 8.99399C8.62056 9.37192 7.79438 10.0926 7.40571 11.9725C6.59907 15.8876 6.23676 18.7723 6.14594 19.5633L6.10981 19.8602C5.84711 21.9608 5.23383 26.8797 19.9311 30.1737C28.7661 32.1581 32.8676 28.8172 33.6987 25.3583L33.6997 25.3563L33.8813 24.6044C34.3794 22.5438 34.895 20.412 35.3628 17.9364C35.6811 16.2499 36.4262 12.2977 23.3159 9.33092C20.4594 8.68541 16.896 7.9901 13.892 7.9901V7.99008Z" fill="black"/>
</svg>
