<svg width="180" height="172" viewBox="0 0 180 172" fill="none" xmlns="http://www.w3.org/2000/svg">
<path d="M54.1429 56.6157C51.9773 57.3167 49.9668 58.4277 48.221 59.8882C43.4234 63.9502 44.8192 67.4683 40.5853 71.7316C39.9005 72.4211 34.304 73.7229 27.2566 73.8579C24.951 73.9021 23.1671 77.3408 21.5733 78.7441C19.1646 81.3015 17.055 84.1248 15.2852 87.1595C15.3374 87.5248 19.2756 97.3575 27.0349 98.4659C25.9265 108.664 35.1468 118.09 35.9027 112.211C36.2279 109.682 39.6077 104.082 40.8968 103.833C48.2738 102.408 45.5538 82.4865 56.6361 75.0041C59.9845 72.9041 63.9135 71.9219 67.8563 72.1991L54.1429 56.6157Z" fill="#82BE28"/>
<path d="M132.463 114.589C132.459 114.537 132.452 114.486 132.445 114.435C132.258 113.148 131.742 111.931 130.948 110.902C140.292 101.358 135.477 81.7942 132.275 75.2093C128.886 68.242 122.14 57.8822 115.275 54.613C108.409 51.3438 91.7359 42.8437 69.8319 51.9976C47.9279 61.1515 40.2093 91.0889 39.8683 92.1043C38.7446 95.9042 37.9358 99.7901 37.4503 103.723C36.729 107.204 36.5243 110.773 36.843 114.314C36.8472 120.848 38.2431 127.306 40.9377 133.258C46.3926 144.604 64.3825 151.124 68.2631 152.742C68.2631 152.742 68.7694 163.806 67.2982 165.277C68.279 169.691 78.3319 171.407 78.3319 171.407C80.7619 171.634 83.2094 171.235 85.4414 170.248C87.6733 169.261 89.6152 167.718 91.082 165.768V153.263C91.082 153.263 103.296 151.673 109.504 141.475C130.343 143.913 127.779 132.271 131.186 129.265C134.852 126.031 133.017 121.431 132.463 114.589Z" fill="white"/>
<path d="M56.0831 116.24C58.8775 116.24 61.1428 113.975 61.1428 111.181C61.1428 108.386 58.8775 106.121 56.0831 106.121C53.2887 106.121 51.0234 108.386 51.0234 111.181C51.0234 113.975 53.2887 116.24 56.0831 116.24Z" fill="black"/>
<path d="M91.6476 122.706C94.4419 122.706 96.7072 120.441 96.7072 117.647C96.7072 114.852 94.4419 112.587 91.6476 112.587C88.8532 112.587 86.5879 114.852 86.5879 117.647C86.5879 120.441 88.8532 122.706 91.6476 122.706Z" fill="black"/>
<path d="M68.6017 41.7123C60.1321 43.5121 57.6279 42.0449 41.9985 58.0068C26.369 73.9688 35.2468 80.879 40.7791 80.0654C48.9818 75.1881 53.9295 81.1694 54.3025 87.603C55.1893 102.9 67.9577 94.5491 73.54 93.7332C82.313 92.4447 89.1136 96.3712 90.222 101.109C91.3305 105.847 99.7549 108.203 102.194 105.1C104.632 101.996 111.505 102.439 113.507 109.913C114.298 112.867 115.641 114.532 117.721 115.006C124.118 113.323 125.834 112.713 130.641 119.009C133.37 122.843 128.674 129.524 131.009 132.385C134.821 137.058 144.128 132.794 145.123 132.543C160.963 125.537 157.834 116.423 147.636 102.235C144.089 44.3727 95.205 36.0591 68.6017 41.7123Z" fill="#82BE28"/>
<path d="M68.9374 169.083C68.5015 169.084 68.0708 168.989 67.6752 168.806C67.2796 168.623 66.9286 168.355 66.6466 168.023C66.3647 167.691 66.1585 167.301 66.0424 166.88C65.9264 166.46 65.9032 166.02 65.9745 165.59C66.4768 162.039 66.4445 158.433 65.8788 154.891C65.4364 154.747 64.8564 154.574 64.3515 154.423C58.4833 152.671 44.7401 148.567 38.0907 134.401C30.0146 117.196 36.203 95.0916 36.9355 92.6279C38.679 85.3839 41.2281 78.358 44.535 71.6812C44.717 71.3316 44.966 71.0213 45.268 70.7681C45.5699 70.5148 45.9187 70.3234 46.2946 70.205C46.6705 70.0866 47.066 70.0434 47.4586 70.0779C47.8512 70.1124 48.2331 70.2239 48.5826 70.4061C48.9321 70.5883 49.2422 70.8375 49.4953 71.1396C49.7485 71.4416 49.9396 71.7906 50.0578 72.1666C50.176 72.5425 50.2189 72.9381 50.1842 73.3306C50.1495 73.7232 50.0377 74.1051 49.8554 74.4544C46.7533 80.7523 44.3616 87.3758 42.7245 94.2027C42.7177 94.2302 42.6942 94.3098 42.6864 94.337C42.0214 96.5766 36.3895 116.656 43.5223 131.851C49.0302 143.586 60.538 147.022 66.0682 148.674C68.6766 149.453 69.9862 149.844 70.8036 151.148C72.6981 154.246 72.5165 162.833 71.8925 166.576C71.7758 167.276 71.415 167.912 70.874 168.371C70.333 168.83 69.6469 169.082 68.9374 169.083Z" fill="black"/>
<path d="M145.374 135.547C145.264 135.547 145.155 135.545 145.044 135.542C144.649 135.534 144.259 135.447 143.898 135.287C143.536 135.128 143.21 134.898 142.938 134.612C142.665 134.326 142.452 133.989 142.31 133.62C142.168 133.251 142.101 132.858 142.111 132.463C142.122 132.068 142.21 131.679 142.372 131.318C142.533 130.958 142.764 130.632 143.051 130.361C143.339 130.09 143.677 129.878 144.046 129.738C144.415 129.598 144.809 129.532 145.204 129.545C149.227 129.652 151.013 126.168 151.593 124.665C153.471 119.789 152.341 112.274 145.581 106.478C145.121 106.083 144.791 105.559 144.635 104.973C144.158 103.182 143.732 100.771 143.194 97.7185C140.878 84.5775 137.001 62.5835 122.592 53.9277C104.787 43.2322 85.4128 40.2669 68.0378 45.5775C53.8552 49.9118 42.7389 59.3824 36.737 72.2447C36.5074 72.7368 36.1484 73.1574 35.6985 73.4615C35.2486 73.7656 34.7246 73.9419 34.1823 73.9715C28.2751 74.2943 22.5143 77.7253 20.1745 82.3152C19.3866 83.9019 18.9841 85.6521 18.9997 87.4236C19.0153 89.1951 19.4486 90.9379 20.2643 92.5105C21.7018 95.0863 24.1364 96.5316 27.5007 96.8061C27.9051 96.8391 28.2987 96.9538 28.6576 97.1433C29.0164 97.3328 29.3331 97.5931 29.5885 97.9086C29.8438 98.224 30.0325 98.5879 30.1432 98.9784C30.2538 99.3688 30.2841 99.7776 30.2321 100.18C29.8063 103.476 30.4225 106.369 31.8805 107.919C32.3726 108.418 32.9745 108.796 33.6383 109.021C34.3021 109.247 35.0094 109.314 35.7038 109.218C36.0969 109.192 36.4913 109.243 36.8645 109.369C37.2376 109.496 37.5823 109.694 37.8788 109.954C38.1752 110.213 38.4177 110.528 38.5923 110.882C38.7669 111.235 38.8702 111.619 38.8964 112.012C38.9226 112.405 38.871 112.799 38.7448 113.173C38.6185 113.546 38.42 113.89 38.1605 114.187C37.901 114.483 37.5857 114.726 37.2326 114.9C36.8794 115.075 36.4953 115.178 36.1022 115.205C34.5226 115.363 32.9276 115.16 31.4384 114.609C29.9493 114.059 28.6052 113.176 27.5084 112.029C25.194 109.33 23.9779 105.86 24.1012 102.307C22.1941 101.854 20.4021 101.01 18.8395 99.8263C17.2769 98.643 15.9778 97.1472 15.025 95.4342C13.7294 93.0008 13.0355 90.2925 13.0013 87.5359C12.9672 84.7793 13.5938 82.0547 14.8288 79.5899C17.8971 73.5721 24.6735 69.1283 32.0563 68.1489C38.9391 54.5206 51.0309 44.5012 66.2839 39.8395C85.3083 34.0263 106.401 37.2024 125.681 48.7845C142.434 58.8485 146.773 83.4566 149.103 96.6769C149.513 99.0009 149.877 101.061 150.223 102.576C158.541 110.202 159.755 120.17 157.191 126.822C155.108 132.23 150.599 135.547 145.374 135.547Z" fill="black"/>
<path d="M119.37 118.154C117.764 118.095 116.186 117.71 114.734 117.022C113.282 116.334 111.984 115.357 110.922 114.152C110.086 113.214 109.479 112.097 109.147 110.886C108.815 109.675 108.767 108.404 109.008 107.172C109.103 106.912 109.118 106.629 109.051 106.361C108.984 106.092 108.838 105.849 108.632 105.664C107.985 105.198 106.548 105.175 104.795 106.174C100.356 108.701 96.2136 109.291 92.8201 107.882C90.6892 106.998 87.8552 104.861 86.448 99.701C86.1482 98.601 84.7624 97.444 82.9187 96.7538C81.5744 96.2178 80.1246 95.9989 78.682 96.114C77.2394 96.2291 75.8427 96.6751 74.6003 97.4174C68.738 101.326 60.2595 100.874 55.2956 96.3896C53.1199 94.424 48.6268 88.7819 53.8739 78.8671C54.246 78.1639 54.8823 77.6374 55.6427 77.4033C56.403 77.1692 57.2253 77.2468 57.9284 77.6189C58.6316 77.9911 59.1582 78.6273 59.3923 79.3877C59.6263 80.1481 59.5488 80.9703 59.1766 81.6735C57.5213 84.8019 56.202 89.1221 59.3182 91.9375C62.2391 94.5754 67.7127 94.7983 71.2723 92.425C73.3062 91.156 75.608 90.3786 77.9948 90.1546C80.3816 89.9306 82.7878 90.2662 85.0223 91.1346C88.7791 92.5409 91.409 95.0876 92.2372 98.1218C92.8534 100.383 93.8231 101.802 95.12 102.34C96.6942 102.993 99.1366 102.491 101.825 100.96C105.457 98.891 109.412 98.8279 112.143 100.799C113.293 101.648 114.167 102.817 114.655 104.16C115.144 105.502 115.226 106.959 114.89 108.349C114.825 108.692 114.845 109.047 114.95 109.381C115.055 109.715 115.241 110.018 115.491 110.263C116.513 111.384 117.932 112.062 119.446 112.152C119.841 112.136 120.236 112.197 120.607 112.333C120.978 112.47 121.318 112.678 121.609 112.946C121.899 113.214 122.134 113.537 122.299 113.897C122.464 114.256 122.556 114.644 122.571 115.039C122.585 115.434 122.522 115.828 122.383 116.199C122.245 116.569 122.035 116.908 121.765 117.197C121.495 117.486 121.171 117.719 120.811 117.882C120.451 118.045 120.062 118.136 119.667 118.148C119.568 118.152 119.47 118.154 119.37 118.154Z" fill="black"/>
<path d="M114.358 144.062C113.191 144.07 112.026 143.997 110.87 143.843C110.083 143.724 109.375 143.298 108.903 142.658C108.43 142.018 108.231 141.216 108.35 140.43C108.468 139.643 108.895 138.935 109.535 138.463C110.175 137.99 110.976 137.791 111.763 137.91C111.856 137.924 120.197 139.084 124.806 134.764C127.239 132.484 128.286 128.891 127.918 124.083C127.026 118.922 123.105 117.64 120.011 118.116C119.225 118.236 118.423 118.04 117.781 117.569C117.14 117.098 116.712 116.392 116.591 115.605C116.47 114.819 116.667 114.017 117.138 113.375C117.608 112.734 118.315 112.306 119.101 112.185C127.41 110.91 132.812 116.78 133.86 123.236C133.873 123.315 133.882 123.395 133.889 123.475C134.44 130.276 132.755 135.557 128.88 139.169C124.422 143.326 118.204 144.062 114.358 144.062Z" fill="black"/>
</svg>
