<svg width="96" height="65" viewBox="0 0 96 65" fill="none" xmlns="http://www.w3.org/2000/svg">
<g clip-path="url(#clip0_10670_115052)">
<path d="M14.709 22.2594C33.1765 14.1676 54.3422 19.9089 68.7319 33.0497C68.8539 41.24 65.0548 57.0321 65.0548 57.0321C45.0193 68.2211 20.0851 58.1384 14.4892 50.2525C11.3684 47.1481 10.4816 26.5638 14.709 22.2594Z" fill="white"/>
<path d="M45.091 64.9999C41.3534 64.9999 37.5315 64.5765 33.6968 63.7199C24.324 61.6263 15.7063 56.9923 12.1491 52.1485C9.22458 48.8325 8.86956 39.5624 8.83032 36.7469C8.7656 32.0358 9.16377 23.6165 12.5542 20.1649C12.8229 19.8907 13.1426 19.6712 13.4947 19.5171C31.9148 11.4451 54.3972 15.8898 70.7686 30.8417C71.3796 31.3987 71.7317 32.1812 71.7444 33.0055C71.8699 41.4736 68.1432 57.0703 67.9853 57.7298C67.7891 58.5425 67.2625 59.2371 66.5299 59.6459C60.1874 63.1873 52.8212 64.9989 45.091 64.9999V64.9999ZM16.5703 24.7257C14.0939 28.5061 14.5196 45.4257 16.6634 48.1818C16.7841 48.3018 16.8517 48.3857 16.9508 48.5242C21.6691 55.1738 44.0289 64.4194 62.4255 55.0353C63.2513 51.3953 65.5011 40.9439 65.707 34.3762C51.3922 21.9121 32.3169 18.1493 16.5703 24.7257V24.7257Z" fill="black"/>
<path d="M69.2022 35.109C67.9311 35.109 66.7494 34.3022 66.3365 33.0329C65.8245 31.4583 66.6925 29.7686 68.2763 29.2594C72.8544 27.7862 83.923 15.5455 90.3144 3.35849C91.0833 1.89315 92.9016 1.32341 94.3796 2.0873C95.8546 2.85313 96.4264 4.66382 95.6575 6.13111C89.5161 17.8401 77.2942 32.6573 70.1299 34.9626C69.822 35.0621 69.5101 35.109 69.2022 35.109H69.2022Z" fill="black"/>
<path d="M13.8306 25.2565C12.9852 25.2565 12.1457 24.9053 11.5504 24.2195C10.4765 22.9834 1.03202 11.8988 0.0208832 3.3468C-0.173303 1.70294 1.00848 0.213216 2.66102 0.0200493C4.30473 -0.169211 5.81016 1.00247 6.00533 2.64633C6.68008 8.35059 13.5285 17.324 16.1098 20.3006C17.1965 21.5532 17.0572 23.4459 15.798 24.5278C15.2291 25.0166 14.5279 25.2565 13.8306 25.2565V25.2565Z" fill="black"/>
</g>
<defs>
<clipPath id="clip0_10670_115052">
<rect width="96" height="65" fill="white"/>
</clipPath>
</defs>
</svg>
