<svg width="180" height="171" viewBox="0 0 180 171" fill="none" xmlns="http://www.w3.org/2000/svg">
<path d="M128.56 137.86C128.56 137.86 128.55 137.78 128.54 137.74C128.2 136.3 127.86 136.05 127.15 135.04C133.96 126.97 128.41 114.26 125.5 109.26C122.42 103.97 116.5 96.2 110.9 94.02C105.3 91.84 91.6702 86.12 74.9402 94.61C58.2202 103.11 52.9002 126.25 52.7002 127.07C52.6802 127.15 44.5802 142.75 53.8902 156.84C62.4602 169.79 80.4702 166.92 81.6402 167.11C81.6402 167.11 91.8102 168.21 100.71 164.85C109.62 161.49 111.78 159.73 113.62 155.76C114.18 155.8 116.2 155.84 117.29 155.76C119.78 155.58 122.66 152.39 125.17 149.82C127.87 147.06 129.39 143.22 128.56 137.86Z" fill="white"/>
<path d="M77.8801 170.4C70.4901 170.4 57.4901 168.18 51.3501 158.44C45.3001 148.84 47.0001 140.09 48.0201 134.86C48.1701 134.1 48.3001 133.42 48.3901 132.82C48.6301 131.18 50.1501 130.04 51.7901 130.28C53.4301 130.52 54.5701 132.04 54.3301 133.68C54.2301 134.36 54.0801 135.14 53.9101 136.01C53.0101 140.64 51.6401 147.65 56.4201 155.24C59.5801 160.25 65.3901 162.48 69.7101 163.47C75.1301 164.71 79.8801 164.43 80.9901 164.18C82.6101 163.83 84.2101 164.85 84.5601 166.47C84.9101 168.09 83.8901 169.69 82.2701 170.04C81.3301 170.25 79.7901 170.39 77.8701 170.39L77.8801 170.4Z" fill="black"/>
<path d="M64.2201 143.87C66.2083 143.87 67.8201 142.258 67.8201 140.27C67.8201 138.282 66.2083 136.67 64.2201 136.67C62.2319 136.67 60.6201 138.282 60.6201 140.27C60.6201 142.258 62.2319 143.87 64.2201 143.87Z" fill="black"/>
<path d="M89.7902 146.8C91.7784 146.8 93.3902 145.188 93.3902 143.2C93.3902 141.212 91.7784 139.6 89.7902 139.6C87.802 139.6 86.1902 141.212 86.1902 143.2C86.1902 145.188 87.802 146.8 89.7902 146.8Z" fill="black"/>
<path d="M128.29 140.61C127.75 140.61 127.2 140.46 126.7 140.15C125.3 139.27 124.87 137.43 125.74 136.03C126.14 135.38 134.68 120.63 113.92 103.06C107.81 98.18 99.7502 95.31 91.3002 95.03C79.5802 94.62 67.8402 99.41 60.6302 107.48C56.3302 112.29 54.3502 117.58 55.0502 122.35C55.2902 123.99 54.1602 125.51 52.5202 125.76C50.8802 126 49.3602 124.87 49.1102 123.23C48.1402 116.67 50.6402 109.65 56.1502 103.49C64.5202 94.11 78.0502 88.56 91.5102 89.03C101.24 89.36 110.55 92.7 117.73 98.43C130.63 109.34 133.57 119.7 133.78 126.47C134.01 134.05 130.97 139 130.84 139.21C130.27 140.12 129.29 140.62 128.29 140.62V140.61Z" fill="black"/>
<path d="M94.1502 127.49C93.2402 127.49 92.3602 127.3 91.5202 126.84C88.8202 125.35 88.6302 122.16 88.5102 120.04C88.5102 119.94 88.5002 119.83 88.4902 119.72C81.8002 122.57 76.7102 123.06 72.9402 121.24C68.9002 119.29 67.4502 115.2 66.7102 112.3C66.3002 110.69 67.2702 109.06 68.8802 108.65C70.4902 108.24 72.1202 109.21 72.5302 110.82C73.2502 113.66 74.1502 115.16 75.5502 115.83C77.0802 116.57 80.3002 116.82 86.9802 113.83C88.9502 112.95 90.6502 112.93 92.0502 113.78C94.2302 115.1 94.3802 117.64 94.5002 119.69C94.5302 120.18 94.5702 120.89 94.6502 121.4C95.1402 121.28 96.0102 120.96 97.4102 120.19C98.8602 119.39 100.69 119.91 101.49 121.36C102.29 122.81 101.77 124.63 100.32 125.44C98.4802 126.46 96.2602 127.49 94.1502 127.49Z" fill="black"/>
<path d="M117.43 158.09C116.04 158.09 114.64 157.82 113.3 157.27C111.77 156.65 111.03 154.9 111.65 153.36C112.27 151.82 114.03 151.09 115.56 151.71C116.82 152.22 118.13 152.21 119.35 151.67C121.18 150.86 122.73 148.94 123.71 146.27C124.69 143.6 124.51 141.51 123.21 140.39C121.84 139.21 119.41 139.2 117.3 140.37C115.85 141.17 114.02 140.65 113.22 139.2C112.42 137.75 112.94 135.92 114.39 135.12C118.71 132.73 123.83 133.02 127.11 135.84C130.41 138.67 131.22 143.23 129.33 148.35C127.78 152.57 125.09 155.7 121.76 157.17C120.37 157.79 118.89 158.09 117.41 158.09H117.43Z" fill="black"/>
<path d="M105.61 165.79C104.45 165.79 103.35 165.12 102.86 163.99C102.2 162.47 102.9 160.7 104.42 160.04C107.58 158.66 109.94 156.44 111.82 153.05C112.62 151.6 114.45 151.08 115.9 151.88C117.35 152.68 117.87 154.51 117.07 155.96C114.54 160.51 111.19 163.64 106.81 165.54C106.42 165.71 106.01 165.79 105.62 165.79H105.61Z" fill="black"/>
</svg>
