<svg width="76" height="48" viewBox="0 0 76 48" fill="none" xmlns="http://www.w3.org/2000/svg">
<path d="M0.62964 11.9898C1.67897 9.8273 4.66477 9.55771 6.01248 11.5479C7.47232 13.7037 9.06184 15.1098 10.1704 15.6765C12.9779 17.1119 15.2672 17.3218 17.0831 20.0702C19.2506 23.3508 23.6589 25.4585 28.3789 24.0392C32.6664 22.75 36.2995 23.3607 40.0299 25.262C44.8263 27.7066 47.0697 27.2353 51.1881 23.7146C54.3049 21.05 59.2195 20.6774 62.3582 21.2582C66.3459 21.9962 69.951 19.3024 72.613 15.4973C73.5411 14.1706 75.6421 14.9866 75.4177 16.59C74.8618 20.5613 73.2047 23.7393 68.2649 29.0226C64.8052 32.7229 64.0011 35.8915 62.1853 38.4693C59.0765 42.8828 56.4606 43.5762 53.1127 42.9589C51.6731 42.6934 48.2348 39.7013 44.8263 41.1818C38.3223 44.0067 35.5287 43.9877 31.513 42.9844C27.0609 41.872 26.7226 40.1253 23.6589 38.819C21.3697 37.8429 18.1146 39.2906 14.7351 38.0677C11.0376 36.7297 9.36378 31.033 7.85927 28.136C4.80337 22.2517 2.96275 21.0235 0.41049 15.9123C-0.305919 14.4777 0.0112504 13.2641 0.62964 11.9898Z" fill="black"/>
</svg>
