<svg width="76" height="51" viewBox="0 0 76 51" fill="none" xmlns="http://www.w3.org/2000/svg">
<path d="M0.630879 14.9189C1.68227 12.7522 4.67394 12.4821 6.0243 14.4762C7.48702 16.6363 9.07966 18.0451 10.1904 18.613C13.0034 20.0511 15.2972 20.2614 17.1167 23.0153C19.2885 26.3023 23.7054 28.4142 28.4347 26.9921C32.7307 25.7003 36.3709 26.3122 40.1086 28.2173C44.9145 30.6667 47.1623 30.1945 51.2888 26.6668C54.4117 23.997 59.3359 23.6237 62.4808 24.2056C66.4764 24.945 70.0885 22.2459 72.7558 18.4333C73.6857 17.1041 75.7909 17.9216 75.566 19.5282C75.009 23.5073 73.3487 26.6916 68.3991 31.9853C64.9326 35.6928 64.127 38.8677 62.3076 41.4506C59.1927 45.8727 56.5716 46.5675 53.2172 45.949C51.7747 45.683 48.3296 42.685 44.9145 44.1684C38.3977 46.9989 35.5985 46.9798 31.575 45.9745C27.1141 44.86 26.7752 43.1098 23.7054 41.8009C21.4117 40.8229 18.1502 42.2735 14.7641 41.0482C11.0593 39.7076 9.3822 33.9996 7.87473 31.0969C4.81282 25.2011 2.96858 23.9705 0.411298 18.8492C-0.306521 17.4117 0.0112726 16.1958 0.630879 14.9189Z" fill="black"/>
<path d="M44.0522 15.0405C43.9749 15.0405 43.8966 15.0376 43.8174 15.0317C42.5903 14.9368 41.5933 14.1178 41.2107 13.0268C40.2508 14.202 38.9788 15.019 37.2283 14.6706C35.4494 14.3145 34.6079 12.9407 34.0629 11.1863C33.1568 12.335 31.9073 13.1266 30.1343 12.8154C28.916 12.6012 28.0628 11.9338 27.4434 11.0522C26.7516 11.9632 25.5677 12.4319 24.3798 12.1638C22.7614 11.7929 21.7496 10.1814 22.1195 8.56296C23.2565 3.5952 24.3553 -0.172937 27.7203 0.00612468C29.7869 0.130389 30.6822 1.7214 31.1979 3.38776C32.054 1.7987 33.4044 0.323157 35.6754 0.964055C37.5013 1.47776 38.2811 3.10204 38.8056 5.07662C39.7635 3.59324 41.106 2.36915 43.1814 2.90537C46.289 3.71457 47.3614 8.19015 47.0464 12.2665C46.9241 13.8428 45.607 15.0405 44.0522 15.0405V15.0405Z" fill="black"/>
</svg>
