<svg width="75" height="51" viewBox="0 0 75 51" fill="none" xmlns="http://www.w3.org/2000/svg">
<path d="M44.5366 14.8C44.2368 14.8 43.9311 14.7541 43.6303 14.6593C41.3091 13.924 39.9966 12.5549 39.2241 11.1437C38.4018 12.0461 37.2749 12.6945 35.7094 12.3586C35.0366 12.214 34.4829 11.9435 34.0512 11.548C33.9468 11.6281 33.8384 11.7052 33.726 11.7785C32.4917 12.5832 31.0688 12.6427 29.9223 11.9269C28.9516 11.3234 28.5014 10.4611 28.3276 9.46892C26.3315 11.5236 24.2309 12.1164 23.9419 12.1896C22.3344 12.6076 20.7026 11.63 20.2934 10.0256C19.8882 8.4406 20.8276 6.82829 22.3969 6.39275C22.5249 6.35076 23.7915 5.90154 24.771 4.32732C26.2788 1.89958 28.8598 -0.481283 31.5932 0.0841472C32.6401 0.304847 33.4887 0.925947 34.0112 1.80583C34.6723 1.54899 35.4614 1.48942 36.395 1.77165C37.061 1.97282 37.5679 2.28435 37.9516 2.66227C38.7212 2.15153 39.6694 1.89469 40.8315 2.17204C43.3315 2.76774 43.7602 5.17399 43.9897 6.46599C44.313 8.28044 44.5298 8.65056 45.4409 8.93865C47.021 9.43963 47.896 11.1252 47.396 12.7043C46.9907 13.9826 45.8091 14.8 44.5366 14.8Z" fill="black"/>
<path d="M42.4657 40.8108C42.3886 40.8108 42.3105 40.8079 42.2314 40.802C41.0068 40.7073 40.0116 39.8899 39.6298 38.801C38.6718 39.9739 37.4023 40.7893 35.6552 40.4417C33.8798 40.0862 33.04 38.7151 32.496 36.9641C31.5917 38.1106 30.3446 38.9006 28.5751 38.5901C27.3593 38.3762 26.5077 37.7102 25.8896 36.8303C25.1991 37.7395 24.0175 38.2073 22.8319 37.9397C21.2167 37.5696 20.2069 35.9612 20.5761 34.346C21.7109 29.3879 22.8075 25.6272 26.1659 25.8059C28.2284 25.9299 29.122 27.5178 29.6366 29.1809C30.4911 27.595 31.8388 26.1223 34.1054 26.762C35.9277 27.2747 36.706 28.8958 37.2294 30.8665C38.1855 29.386 39.5253 28.1643 41.5966 28.6995C44.6982 29.5071 45.7685 33.9739 45.454 38.0422C45.332 39.6155 44.0175 40.8108 42.4657 40.8108V40.8108Z" fill="black"/>
</svg>
