<svg width="75" height="51" viewBox="0 0 75 51" fill="none" xmlns="http://www.w3.org/2000/svg">
<path d="M44.5366 14.8C44.2368 14.8 43.9311 14.7541 43.6303 14.6593C41.3091 13.924 39.9966 12.5549 39.2241 11.1437C38.4018 12.0461 37.2749 12.6945 35.7094 12.3586C35.0366 12.214 34.4829 11.9435 34.0512 11.548C33.9468 11.6281 33.8384 11.7052 33.726 11.7785C32.4917 12.5832 31.0688 12.6427 29.9223 11.9269C28.9516 11.3234 28.5014 10.4611 28.3276 9.46892C26.3315 11.5236 24.2309 12.1164 23.9419 12.1896C22.3344 12.6076 20.7026 11.63 20.2934 10.0256C19.8882 8.4406 20.8276 6.82829 22.3969 6.39275C22.5249 6.35076 23.7915 5.90154 24.771 4.32732C26.2788 1.89958 28.8598 -0.481283 31.5932 0.0841472C32.6401 0.304847 33.4887 0.925947 34.0112 1.80583C34.6723 1.54899 35.4614 1.48942 36.395 1.77165C37.061 1.97282 37.5679 2.28435 37.9516 2.66227C38.7212 2.15153 39.6694 1.89469 40.8315 2.17204C43.3315 2.76774 43.7602 5.17399 43.9897 6.46599C44.313 8.28044 44.5298 8.65056 45.4409 8.93865C47.021 9.43963 47.896 11.1252 47.396 12.7043C46.9907 13.9826 45.8091 14.8 44.5366 14.8Z" fill="black"/>
</svg>
