<svg width="75" height="51" viewBox="0 0 75 51" fill="none" xmlns="http://www.w3.org/2000/svg">
<path d="M43.4657 15.011C43.3886 15.011 43.3105 15.0081 43.2314 15.0022C42.0068 14.9075 41.0116 14.0901 40.6298 13.0012C39.6718 14.1741 38.4023 14.9895 36.6552 14.6419C34.8798 14.2864 34.04 12.9153 33.496 11.1643C32.5917 12.3108 31.3446 13.1008 29.5751 12.7903C28.3593 12.5764 27.5077 11.9104 26.8896 11.0305C26.1991 11.9397 25.0175 12.4075 23.8319 12.1399C22.2167 11.7698 21.2069 10.1614 21.5761 8.54615C22.7109 3.58814 23.8075 -0.172597 27.1659 0.00611266C29.2284 0.130133 30.122 1.71802 30.6366 3.38111C31.4911 1.79517 32.8388 0.322523 35.1054 0.962163C36.9277 1.47486 37.706 3.09595 38.2294 5.06665C39.1855 3.58618 40.5253 2.3645 42.5966 2.89966C45.6982 3.70728 46.7685 8.17407 46.454 12.2424C46.332 13.8157 45.0175 15.011 43.4657 15.011V15.011Z" fill="black"/>
</svg>
