<svg width="76" height="51" viewBox="0 0 76 51" fill="none" xmlns="http://www.w3.org/2000/svg">
<path d="M0.632122 14.8478C1.68559 12.6769 4.68315 12.4062 6.03617 14.4043C7.50177 16.5686 9.09755 17.9801 10.2105 18.5491C13.029 19.9901 15.3273 20.2009 17.1504 22.9601C19.3265 26.2536 23.7522 28.3697 28.4907 26.9448C32.7951 25.6505 36.4426 26.2636 40.1876 28.1724C45.003 30.6267 47.2552 30.1535 51.3898 26.6189C54.519 23.9438 59.4529 23.5697 62.6039 24.1528C66.6073 24.8937 70.2266 22.1893 72.8991 18.3692C73.8309 17.0373 75.9402 17.8565 75.7149 19.4662C75.1568 23.4531 73.4932 26.6437 68.5339 31.9478C65.0606 35.6627 64.2533 38.8438 62.4304 41.4318C59.3093 45.8626 56.6831 46.5588 53.322 45.939C51.8768 45.6725 48.4249 42.6686 45.003 44.1549C38.4733 46.991 35.6687 46.9719 31.6372 45.9646C27.1675 44.8479 26.8279 43.0943 23.7521 41.7828C21.4539 40.8029 18.186 42.2563 14.7931 41.0286C11.0811 39.6853 9.40068 33.9661 7.89024 31.0577C4.8223 25.1502 2.97443 23.9172 0.412108 18.7859C-0.307125 17.3455 0.0112948 16.1272 0.632122 14.8478Z" fill="black"/>
<path d="M45.2141 14.8583C44.9131 14.8583 44.6062 14.8122 44.3043 14.7171C41.9738 13.9789 40.6562 12.6043 39.8806 11.1876C39.0551 12.0935 37.9237 12.7445 36.3521 12.4073C35.6766 12.2622 35.1208 11.9906 34.6874 11.5935C34.5825 11.6739 34.4737 11.7514 34.3609 11.8249C33.1217 12.6328 31.6932 12.6926 30.5422 11.9739C29.5677 11.368 29.1157 10.5023 28.9412 9.50623C26.9373 11.569 24.8284 12.1641 24.5382 12.2377C22.9244 12.6573 21.2862 11.6759 20.8754 10.0651C20.4685 8.47386 21.4117 6.8552 22.9872 6.41794C23.1156 6.37578 24.3872 5.92479 25.3706 4.34437C26.8843 1.90706 29.4755 -0.483179 32.2197 0.0844789C33.2707 0.306049 34.1227 0.929596 34.6472 1.81294C35.3109 1.55509 36.1031 1.49529 37.0404 1.77863C37.709 1.98059 38.2179 2.29335 38.6032 2.67276C39.3757 2.16001 40.3277 1.90215 41.4944 2.1806C44.0043 2.77864 44.4347 5.19438 44.665 6.49147C44.9896 8.31307 45.2072 8.68465 46.1219 8.97387C47.7082 9.47683 48.5867 11.169 48.0847 12.7543C47.6779 14.0377 46.4916 14.8583 45.2141 14.8583Z" fill="black"/>
</svg>
