<svg width="148" height="123" viewBox="0 0 148 123" fill="none" xmlns="http://www.w3.org/2000/svg">
<path d="M132.011 122.429C130.009 122.429 128.007 122.029 126.104 121.128C124.602 120.427 123.902 118.725 124.602 117.123C125.303 115.621 127.005 114.92 128.607 115.621C132.712 117.423 135.816 115.821 137.618 114.119C141.323 110.815 143.025 104.908 141.623 100.202C140.121 95.1964 135.516 92.0927 128.507 91.1916C127.406 91.0915 126.505 90.2905 126.104 89.2893C125.704 88.2881 125.904 87.0867 126.605 86.2857C138.519 72.5692 140.622 53.9469 132.011 38.9288C123.701 24.3113 108.083 17.7034 90.1611 21.0073C76.745 23.4102 71.0382 21.9084 61.0261 13.1979C50.4134 3.98688 32.7922 3.48628 21.779 11.9965C13.1687 18.5043 7.36169 28.7166 6.16025 39.3293C5.35929 46.6381 6.86109 53.1459 10.2652 57.351C16.773 65.2605 25.9841 64.4595 32.1915 60.1543C34.4943 58.5524 36.4967 55.3486 38.6993 51.8443C43.6052 43.9348 50.4134 33.1219 65.7318 36.0254C84.3541 39.5296 86.0562 53.3462 87.3578 63.5584C87.558 65.4607 87.8584 67.1627 88.1587 68.7647C89.1599 74.1712 92.7643 79.4775 96.3686 81.1796C97.8704 81.8804 98.5712 83.6826 97.8704 85.1844C97.1695 86.6862 95.3674 87.387 93.8656 86.6862C87.558 83.7827 83.3529 75.9733 82.2516 69.9661C81.9513 68.1639 81.6509 66.3618 81.4507 64.3594C80.2492 54.6477 79.0478 44.7358 64.7306 42.0326C53.417 39.93 48.7113 47.3389 43.8055 55.1483C41.3025 59.1531 38.8996 62.9577 35.6957 65.1603C27.4859 70.8672 14.5703 72.0686 5.65965 61.2557C1.25436 55.8492 -0.748049 47.6393 0.253154 38.7286C1.65484 26.3137 8.16265 14.9 18.0746 7.19073C31.2904 -2.92142 52.3157 -2.3207 64.9308 8.69253C73.5412 16.1014 77.546 17.2027 89.0598 15.1002C109.284 11.3958 127.806 19.3053 137.218 35.8251C146.329 51.7442 145.027 71.0674 134.114 86.2857C143.025 88.9889 146.128 94.8961 147.23 98.5004C149.332 105.509 147.029 113.819 141.523 118.725C138.719 121.128 135.415 122.429 132.011 122.429Z" fill="black"/>
</svg>
