<svg width="110" height="84" viewBox="0 0 110 84" fill="none" xmlns="http://www.w3.org/2000/svg">
<path d="M102.468 83.3419C101.668 83.3419 100.87 83.0256 100.278 82.3987C99.1364 81.1899 99.1903 79.2842 100.399 78.1421C101.734 76.8815 103.604 74.2776 101.144 71.0025C96.2067 64.4315 96.1881 58.6148 101.088 53.7142C104.282 50.5194 104.915 45.1181 102.626 40.5791C101.487 38.3232 97.9426 33.211 89.6455 34.4558C88.7016 34.5973 87.7577 34.6646 86.8167 34.6647C75.6115 34.6657 64.6875 25.1381 56.5394 18.0329C54.5389 16.2887 52.6501 14.6412 50.9888 13.3325C37.0047 2.31622 22.413 5.53839 14.164 11.6434C7.66057 16.4578 4.64753 23.183 6.66766 28.3781C7.27046 29.928 6.50299 31.673 4.95237 32.2757C3.40469 32.8785 1.65803 32.1104 1.05524 30.5607C-2.00875 22.6804 1.7296 13.355 10.5815 6.80305C20.5341 -0.564733 38.0653 -4.51443 54.7154 8.6019C56.4953 10.0036 58.439 11.699 60.4973 13.4941C68.8876 20.81 79.3342 29.912 88.7516 28.5004C97.2075 27.2317 104.404 30.7334 108.002 37.8672C111.447 44.6965 110.354 52.964 105.346 57.9724C103.069 60.2496 102.377 62.6187 105.958 67.3852C109.639 72.2843 109.08 78.2249 104.535 82.5195C103.953 83.0693 103.21 83.3419 102.468 83.3419L102.468 83.3419Z" fill="black"/>
</svg>
