<svg width="103" height="85" viewBox="0 0 103 85" fill="none" xmlns="http://www.w3.org/2000/svg">
<path d="M0.807551 26.8603C3.56051 30.3999 13.7253 27.527 19.8748 27.8698C24.2576 28.1141 17.3117 22.8978 26.0634 30.0348C34.8796 37.2246 34.9044 35.8567 39.0417 39.8669C45.7619 46.3805 46.6917 50.9534 51.4301 57.9578C56.5178 65.8898 80.473 85.615 88.2012 84.8984C93.6753 84.3907 100.686 77.6294 101.033 69.3408C100.92 64.376 96.8992 62.0702 97.3542 57.9697C97.8998 53.0533 101.705 51.0055 102.705 46.5986C103.921 41.2412 101.235 34.8993 97.3542 31.5486C92.0352 26.9561 85.504 30.4657 75.2234 26.8887C71.7873 25.6932 66.7902 22.2739 56.9358 15.4835C42.2841 5.38751 40.8382 2.38324 38.2652 1.44259C23.5682 -4.78427 -5.17564 10.1599 0.807551 26.8603Z" fill="white"/>
</svg>
