<svg width="118" height="138" viewBox="0 0 118 138" fill="none" xmlns="http://www.w3.org/2000/svg">
<path d="M60.5566 138C59.5529 138 58.5493 137.498 57.9471 136.595C55.1369 131.978 51.7245 127.361 50.5201 126.458C49.5165 126.257 48.5128 126.057 47.5092 125.755C44.1971 125.053 40.7847 124.25 37.0712 123.246C36.6698 123.146 36.3687 122.945 36.0676 122.745C35.6661 122.544 34.5621 122.243 33.6588 121.942C27.1351 120.035 11.9801 115.619 4.55307 99.761C-4.37939 80.6917 2.44541 56.1024 3.24833 53.3925C7.46365 37.4345 16.3961 4.2138 55.9398 0.29958C73.7044 -1.50698 90.9671 4.91636 103.312 17.9638C114.252 29.5057 119.27 44.159 117.162 58.3104C116.861 59.9162 115.356 61.1206 113.75 60.8195C112.144 60.5184 110.94 59.0129 111.241 57.4071C113.148 45.1626 108.631 32.3159 98.9963 22.1791C87.9561 10.5368 72.5 4.81599 56.6424 6.32146C21.2136 9.83423 13.3852 39.2411 9.16985 54.9983V55.0987C8.46729 57.6078 2.14432 80.0895 10.0731 97.1515C16.3961 110.6 29.2428 114.314 35.365 116.12C37.1716 116.622 38.376 117.024 39.1789 117.526C42.5913 118.429 45.803 119.131 48.9143 119.834C50.0183 120.035 51.1223 120.336 52.2263 120.537C53.1296 120.737 55.9398 121.339 63.1661 133.383C64.0693 134.788 63.5675 136.695 62.1624 137.498C61.6606 137.9 61.0584 138 60.5566 138Z" fill="black"/>
</svg>
