<svg width="112" height="134" viewBox="0 0 112 134" fill="none" xmlns="http://www.w3.org/2000/svg">
<path d="M107.801 70.9789C107.797 70.9209 107.789 70.8639 107.781 70.8069C107.446 68.7454 107.001 68.3595 106.113 66.8709C116.524 56.238 110.045 37.7839 106.477 30.4476C102.702 22.6852 95.1859 11.1433 87.537 7.50094C79.8882 3.85861 61.3123 -5.61145 36.9087 4.58707C12.5051 14.7856 3.90575 48.1393 3.52585 49.2706C3.487 49.3852 1.811 54.6582 0.831834 62.215C0.0212384 65.9834 -0.180646 69.9727 0.15526 74.0151C0.29634 80.9175 1.47272 88.3715 4.71727 95.1208C10.7947 107.761 30.8374 115.025 35.1609 116.828C35.1609 116.828 51.984 119.497 50.3449 121.136C51.4376 126.053 60.1584 132.843 60.1584 132.843C67.0541 139.111 88.9232 118.091 84.8376 113.325C82.1701 110.213 78.0464 105.348 78.0464 105.348C82.7247 100.831 86.0161 93.4588 86.756 91.7112C87.5402 91.8236 88.8011 91.9591 90.3349 91.9591C93.8511 91.9591 98.7814 91.2447 102.577 87.8952C106.661 84.2925 108.418 78.6013 107.801 70.9789L107.801 70.9789Z" fill="white"/>
</svg>
