<svg width="112" height="134" viewBox="0 0 112 134" fill="none" xmlns="http://www.w3.org/2000/svg">
<path d="M107.713 70.9672C107.713 70.8669 107.713 70.8669 107.713 70.7666C107.413 68.6611 106.911 68.3604 106.009 66.8564C116.436 56.2287 109.919 37.7806 106.41 30.4615C102.6 22.7413 95.0805 11.111 87.4606 7.50158C79.8407 3.89217 61.1921 -5.63268 36.8285 4.594C12.4649 14.8207 3.84244 48.2078 3.54165 49.3107C3.54165 49.4109 1.83721 54.7248 0.834591 62.2444C0.0324986 66.0543 -0.168023 69.9646 0.132761 74.0753C0.233023 80.9933 1.43616 88.4127 4.64453 95.1302C10.7605 107.763 30.7125 115.082 35.1241 116.787C35.1241 116.787 51.968 119.494 50.2636 121.098C51.3664 126.011 60.0892 132.829 60.0892 132.829C67.0072 139.145 88.8643 118.09 84.7535 113.278C82.0465 110.169 77.9358 105.257 77.9358 105.257C82.648 100.745 85.8564 93.3255 86.6585 91.6211C87.4606 91.7213 88.6637 91.8216 90.2679 91.8216C93.7771 91.8216 98.6899 91.1197 102.5 87.7108C106.611 84.302 108.415 78.587 107.713 70.9672Z" fill="white"/>
</svg>
