<svg width="64" height="129" viewBox="0 0 64 129" fill="none" xmlns="http://www.w3.org/2000/svg">
<path d="M60.4008 129C59.3873 129 58.3983 128.487 57.8324 127.558C55.0411 122.969 51.6566 118.365 50.4262 117.46C49.4205 117.232 48.4265 117.012 47.4336 116.791C44.1566 116.065 40.7682 115.313 37.0054 114.297C36.6341 114.197 36.2861 114.026 35.9802 113.795C35.5697 113.618 34.4566 113.292 33.5496 113.026C27.0943 111.136 11.9779 106.709 4.53947 90.8614C-4.38553 71.846 2.46166 47.3764 3.27187 44.6488C6.25957 33.4431 11.8304 12.543 29.8621 0.505633C31.2412 -0.415072 33.1059 -0.0433806 34.0265 1.33582C34.9472 2.71495 34.5758 4.57921 33.1968 5.49986C17.0483 16.2791 11.8577 35.7548 9.06842 46.2179C9.06158 46.2452 9.03617 46.3315 9.02835 46.3586C8.28461 48.8619 1.99449 71.3062 9.97539 88.3101C16.2635 101.708 29.0783 105.46 35.2365 107.263C37.0074 107.782 38.189 108.128 39.0569 108.63C42.499 109.546 45.6656 110.249 48.7334 110.929C49.8261 111.172 50.9197 111.414 52.028 111.666C52.9369 111.873 55.7047 112.503 62.9634 124.437C63.8244 125.854 63.3748 127.701 61.9577 128.562C61.471 128.859 60.9325 129 60.4008 129L60.4008 129ZM35.7085 113.564L35.7115 113.567L35.7085 113.564Z" fill="black"/>
</svg>
