<svg width="85" height="52" viewBox="0 0 85 52" fill="none" xmlns="http://www.w3.org/2000/svg">
<path d="M79.4906 51.6765C78.9499 51.6765 78.3991 51.5263 77.8984 51.2159C76.4966 50.3347 76.066 48.4923 76.9372 47.0904C77.3377 46.4395 85.8891 31.6699 65.1014 14.0764C58.9832 9.1899 50.9125 6.31607 42.4512 6.0357C30.7156 5.62515 18.9599 10.4215 11.7403 18.5023C7.43455 23.3187 5.4519 28.6158 6.15284 33.3922C6.39316 35.0343 5.26165 36.5564 3.61946 36.8067C1.97727 37.047 0.455245 35.9155 0.204911 34.2733C-0.766383 27.7046 1.73695 20.6752 7.25431 14.507C15.6355 5.11447 29.1835 -0.442938 42.6615 0.0276894C52.4045 0.35813 61.7269 3.70259 68.9165 9.44023C81.8337 20.3648 84.7776 30.7386 84.9879 37.5177C85.2182 45.1078 82.1741 50.0644 82.044 50.2747C81.4732 51.1859 80.4919 51.6865 79.4906 51.6865V51.6765Z" fill="black"/>
</svg>
