<svg width="81" height="78" viewBox="0 0 81 78" fill="none" xmlns="http://www.w3.org/2000/svg">
<path d="M79.159 47.7614C79.159 47.7614 79.149 47.6814 79.139 47.6414C78.7989 46.2012 78.4589 45.9511 77.7487 44.9409C84.5599 36.8696 79.009 24.1574 76.0985 19.1566C73.0179 13.8657 67.0969 6.09438 61.496 3.91401C55.8951 1.73364 42.2627 -3.98732 25.5299 4.50411C8.8071 13.0055 3.4862 36.1495 3.28617 36.9696C3.26617 37.0496 -4.8352 52.6522 4.47637 66.7446C13.0478 79.6968 31.0609 76.8263 32.2311 77.0163C32.2311 77.0163 42.4028 78.1165 51.3043 74.756C60.2158 71.3954 62.3761 69.6351 64.2165 65.6644C64.7766 65.7044 66.7969 65.7444 67.8871 65.6644C70.3775 65.4844 73.258 62.2939 75.7684 59.7234C78.4689 56.963 79.9891 53.1223 79.159 47.7614Z" fill="white"/>
</svg>
