<svg width="35" height="48" viewBox="0 0 35 48" fill="none" xmlns="http://www.w3.org/2000/svg">
<path d="M3.03495 48.0001C2.31849 48.0001 1.59906 47.7478 1.02096 47.2347C-0.233099 46.1218 -0.347732 44.203 0.765009 42.949C4.85626 38.3395 6.48089 31.4866 6.4967 31.4179C6.85641 29.8735 8.34171 28.8641 9.91003 29.1027C9.99897 29.1155 19.5383 30.4528 24.846 25.4794C27.6645 22.8399 28.877 18.7024 28.4531 13.1799C27.4125 7.12198 22.8143 5.62019 19.1756 6.17811C17.5134 6.43251 15.9688 5.29525 15.7149 3.63794C15.4599 1.98068 16.5973 0.431029 18.2546 0.176749C24.9389 -0.849086 32.8714 2.51181 34.4654 12.3229C34.4783 12.4031 34.4881 12.4838 34.4951 12.5649C35.1058 20.1042 33.2459 25.9491 28.9689 29.9372C23.5396 34.9991 15.7287 35.4754 11.674 35.3276C10.7046 38.2521 8.71527 43.1388 5.30689 46.9793C4.70704 47.6552 3.87299 48.0001 3.03497 48.0001H3.03495Z" fill="black"/>
</svg>
