<svg width="35" height="48" viewBox="0 0 35 48" fill="none" xmlns="http://www.w3.org/2000/svg">
<path d="M3.05631 48.0001C2.34851 48.0001 1.64072 47.7978 1.03403 47.1911C-0.179336 46.0789 -0.381559 44.1577 0.730694 42.9444C4.77525 38.3942 6.39307 31.5185 6.49419 31.4174C6.89864 29.9007 8.31424 28.8895 9.93206 29.0917C10.0332 29.0917 19.5379 30.4062 24.8969 25.4516C27.7281 22.8227 28.9415 18.677 28.537 13.1157C27.5259 7.0489 22.8746 5.53219 19.2345 6.13888C17.6167 6.44222 15.9989 5.22885 15.7967 3.61103C15.4933 1.9932 16.7067 0.375386 18.3245 0.173158C24.998 -0.837982 32.8849 2.49878 34.5028 12.3068C34.5028 12.4079 34.5028 12.5091 34.5028 12.5091C35.1094 20.0926 33.2894 25.8561 28.9415 29.9007C23.4813 34.9564 15.6956 35.4619 11.651 35.2597C10.6399 38.192 8.7187 43.0455 5.28082 46.8878C4.77525 47.6967 3.86522 48.0001 3.05631 48.0001Z" fill="black"/>
</svg>
