<svg width="36" height="19" viewBox="0 0 36 19" fill="none" xmlns="http://www.w3.org/2000/svg">
<path d="M27.6298 18.9999C26.7166 18.9999 25.8336 18.8092 24.9906 18.3476C22.2812 16.8524 22.0906 13.6513 21.9702 11.5239C21.9702 11.4236 21.9601 11.3132 21.9501 11.2028C15.2368 14.0627 10.1291 14.5544 6.34596 12.7281C2.2919 10.7713 0.836845 6.66707 0.0942692 3.75698C-0.317158 2.14137 0.656219 0.505697 2.27182 0.0942692C3.88743 -0.317158 5.52311 0.656219 5.93453 2.27182C6.65704 5.12171 7.56017 6.62693 8.96504 7.29927C10.5004 8.04184 13.7316 8.29271 20.4348 5.2923C22.4117 4.40924 24.1176 4.38917 25.5225 5.24213C27.7101 6.56673 27.8606 9.11557 27.981 11.1727C28.0111 11.6644 28.0513 12.3769 28.1315 12.8887C28.6232 12.7682 29.4963 12.4471 30.9012 11.6744C32.3562 10.8717 34.1926 11.3935 34.9954 12.8485C35.7981 14.3036 35.2763 16.1299 33.8213 16.9427C31.9749 17.9663 29.7471 18.9999 27.6298 18.9999Z" fill="black"/>
</svg>
