<svg width="38" height="41" viewBox="0 0 38 41" fill="none" xmlns="http://www.w3.org/2000/svg">
<path d="M31.1846 40.5437C23.7225 40.5437 10.5957 38.302 4.39576 28.467C-1.71327 18.7733 0.00332132 9.93794 1.03327 4.65691C1.18474 3.88949 1.31601 3.20286 1.40688 2.597C1.64923 0.941002 3.18406 -0.210122 4.84006 0.0322198C6.49606 0.274561 7.64718 1.80939 7.40484 3.4654C7.30387 4.15203 7.1524 4.93964 6.98074 5.81813C6.07196 10.4933 4.68859 17.5717 9.51523 25.2358C12.7061 30.2946 18.5728 32.5464 22.9349 33.5461C28.4078 34.7982 33.2041 34.5154 34.325 34.263C35.9608 33.9096 37.5764 34.9395 37.9298 36.5753C38.2832 38.2111 37.2533 39.8268 35.6175 40.1802C34.6683 40.3922 33.1133 40.5336 31.1745 40.5336L31.1846 40.5437Z" fill="black"/>
</svg>
