<svg width="19" height="25" viewBox="0 0 19 25" fill="none" xmlns="http://www.w3.org/2000/svg">
<path d="M6.03089 24.7116C4.63356 24.7116 3.22619 24.4402 1.87912 23.8873C0.341061 23.2641 -0.40284 21.5048 0.220427 19.9567C0.843695 18.4086 2.61297 17.6748 4.15103 18.298C5.41767 18.8107 6.73458 18.8007 7.961 18.2578C9.80065 17.4435 11.3588 15.5134 12.344 12.8293C13.3291 10.1453 13.1482 8.04426 11.8413 6.91836C10.4641 5.73214 8.02133 5.72209 5.90021 6.89825C4.44256 7.70247 2.60292 7.17973 1.7987 5.72209C0.994485 4.26445 1.51722 2.4248 2.97487 1.62058C7.31763 -0.782011 12.4646 -0.490482 15.7619 2.34438C19.0793 5.18929 19.8936 9.77333 17.9936 14.9203C16.4354 19.1625 13.7313 22.309 10.3837 23.7868C8.98638 24.4101 7.49859 24.7116 6.01079 24.7116H6.03089Z" fill="black"/>
</svg>
