<svg width="24" height="24" viewBox="0 0 24 24" xmlns="http://www.w3.org/2000/svg" fill="currentColor"><path d="M18.28 9.5h-1.64l-.35.72.07.03c.19.09.37.22.55.42.31.33.47.76.46 1.27-.01.62-.23 1.13-.66 1.52-.42.38-.95.58-1.6.58h-.01c-.55 0-1.03-.16-1.43-.46l-.18-.14.57-1.04.25.2c.26.2.49.28.85.28.28 0 .5-.08.68-.26.18-.18.26-.38.26-.66 0-.2-.09-.39-.26-.52-.22-.17-.6-.21-.61-.21-.35-.04-.62-.03-.78-.01l.99-2.13.39-.87h3.03l-.58 1.28zm-6.46 1.22c.19.09.37.22.55.42.31.33.47.76.47 1.27-.01.62-.23 1.13-.66 1.52-.42.38-.95.57-1.59.57h-.03c-.55 0-1.03-.16-1.43-.46l-.18-.14.57-1.04.25.2c.26.2.49.28.85.28.28 0 .5-.08.68-.26.18-.18.26-.38.26-.66 0-.2-.09-.39-.26-.52-.22-.17-.6-.21-.61-.21-.35-.04-.62-.03-.78-.01l.99-2.13.39-.86h3.03l-.57 1.28H12.1l-.35.72.07.03zm-6.12 4l2.08-4.3H5.25l.2-.41.39-.87h3.95l-2.66 5.57H5.7v.01zM3 6.1v11.19l7.45-.01-.07 1.8 2.75-1.8 7.87.01V4.92L3 6.1z"/></svg>