<svg width="24" height="24" viewBox="0 0 24 24" xmlns="http://www.w3.org/2000/svg" fill="currentColor"><path d="M17.44 10.64c.17.17.25.37.25.61v4.09c0 .24-.08.44-.25.61-.17.17-.37.25-.61.25H7.16c-.24 0-.44-.08-.61-.25a.822.822 0 01-.25-.61v-4.09c0-.24.08-.44.25-.61.17-.17.37-.25.61-.25h9.67c.24 0 .44.08.61.25zm1.9.61a2.525 2.525 0 00-.74-1.78c-.23-.22-.5-.4-.8-.54-.31-.14-.63-.2-.98-.2H7.16c-.34 0-.67.07-.97.2-.3.14-.57.32-.8.54-.23.22-.41.49-.54.8-.13.31-.2.63-.2.98v4.09c0 .34.06.67.2.97.13.3.31.57.54.8.23.23.5.41.8.54.3.13.63.2.97.2h9.67c.34 0 .67-.06.98-.2.31-.13.58-.31.8-.54.23-.23.41-.49.54-.8.13-.3.2-.63.2-.97v-4.09h-.01zm-2.51-4.16c.57 0 1.11.11 1.62.33.5.22.95.52 1.33.89.38.38.68.82.9 1.32.22.51.33 1.04.33 1.62v4.09c0 .57-.11 1.11-.33 1.62a4.197 4.197 0 01-2.23 2.21c-.51.22-1.04.33-1.62.33H7.16c-.57 0-1.11-.11-1.62-.33-.51-.22-.95-.52-1.32-.89-.38-.38-.67-.82-.89-1.32-.22-.5-.33-1.04-.33-1.62v-4.09c0-.57.11-1.11.33-1.62a4.153 4.153 0 012.21-2.21c.5-.22 1.04-.33 1.62-.33h2.86L8.2 5.28a.834.834 0 01-.23-.58c0-.22.08-.42.23-.59.17-.16.36-.23.59-.23.22 0 .42.08.59.23l2.61 2.61 2.61-2.61c.16-.16.35-.23.58-.23.23 0 .42.08.58.23.16.17.24.36.24.59 0 .23-.08.42-.25.59l-1.8 1.81h2.88v-.01z"/></svg>