<svg width="24" height="24" viewBox="0 0 24 24" xmlns="http://www.w3.org/2000/svg" fill="currentColor"><path d="M17.44 5.8h-.85v-.85c0-1.52-1.23-2.75-2.75-2.75H6.56c-1.52 0-2.75 1.23-2.75 2.75v10.5c0 1.52 1.23 2.75 2.75 2.75h.85v.85c0 1.52 1.23 2.75 2.75 2.75h3.62c.73 0 1.42-.29 1.94-.81l3.66-3.66c.52-.52.81-1.21.81-1.94V8.55c0-1.51-1.23-2.75-2.75-2.75zM7.41 8.55v8.15h-.85c-.69 0-1.25-.56-1.25-1.25V4.95c0-.69.56-1.25 1.25-1.25h7.28c.69 0 1.25.56 1.25 1.25v.85h-4.92c-1.52 0-2.76 1.24-2.76 2.75zm1.5 10.5V8.55c0-.69.56-1.25 1.25-1.25h7.28c.69 0 1.25.56 1.25 1.25v6.51H15.2c-.96 0-1.75.79-1.75 1.75v3.49h-3.29c-.69 0-1.25-.56-1.25-1.25zm6.04.59v-2.83c0-.14.11-.25.25-.25h2.83l-3.08 3.08z"/></svg>