<svg xmlns="http://www.w3.org/2000/svg" width="24" height="24" viewBox="0 0 24 24" fill="currentColor"><path d="M11.29 8.377c-.698-1.648-2.444-2.8-4.481-2.8s-3.803 1.152-4.482 2.8c-.31.726-.33 1.453-.33 2.41v6.343c0 .195 0 .39.059.531.155.443.62.762 1.144.762.543 0 1.009-.319 1.164-.762.058-.142.058-.337.058-.531v-2.516h4.773v2.516c0 .195 0 .39.058.531.155.443.601.762 1.145.762.543 0 1.008-.319 1.164-.762.038-.142.058-.337.058-.531v-6.344c0-.956-.02-1.683-.33-2.41ZM9.195 12.38H4.422v-1.967c0-.549.04-.974.194-1.293C4.985 8.359 5.82 7.81 6.81 7.81c.989 0 1.823.549 2.192 1.31.155.32.194.745.194 1.294v1.967ZM22.464 10.591c0-.602-.02-1.027-.136-1.435-.407-1.63-1.746-2.941-3.53-3.313-.408-.089-.99-.124-1.902-.124h-.776c-.271 0-.523 0-.737.018-1.26.16-2.134.939-2.328 2.055-.02.195-.02.372-.02.585v7.247c0 .212 0 .407.02.584.194 1.134 1.067 1.914 2.328 2.056.214.035.466.035.737.035h.776c.912 0 1.494-.035 1.902-.124 1.784-.372 3.123-1.7 3.53-3.313.117-.426.136-.833.136-1.453V10.59Zm-2.425 3.066c-.02.266-.02.46-.058.638a2.243 2.243 0 0 1-1.727 1.718c-.097.018-.426.053-1.358.053h-1.435V7.935h1.435c.932 0 1.261.053 1.358.07.893.195 1.552.869 1.727 1.72.039.176.039.371.058.637v3.296Z"/></svg>