<svg width="24" height="24" viewBox="0 0 24 24" xmlns="http://www.w3.org/2000/svg" fill="currentColor"><path d="M16 5.5H8a6.5 6.5 0 0 0 0 13h8a6.5 6.5 0 1 0 0-13zm0 11.4H8a4.9 4.9 0 1 1 0-9.8h8a4.9 4.9 0 1 1 0 9.8zM7.979 9.293a1.948 1.948 0 0 0-.569-.058h-.722c-.13 0-.225.002-.286.007a.992.992 0 0 0-.89.872c-.014.082-.02.164-.02.246v3.696c-.002.07.004.14.02.209a.466.466 0 0 0 .454.352.47.47 0 0 0 .29-.101.468.468 0 0 0 .168-.251.936.936 0 0 0 .015-.21V12.63h.971c.192.005.383-.016.569-.063a1.53 1.53 0 0 0 .803-.617 1.76 1.76 0 0 0 .315-1.018 1.78 1.78 0 0 0-.315-1.026 1.49 1.49 0 0 0-.803-.613zm.064 2.063a.683.683 0 0 1-.266.273.807.807 0 0 1-.367.055H6.44v-1.51h.971a.89.89 0 0 1 .367.05.715.715 0 0 1 .267.281c.073.13.11.278.107.427a.838.838 0 0 1-.108.424zm2.696-.424c.006.062.009.125.007.187v2.966c.002.065 0 .13-.007.194a.454.454 0 0 1-.436.338.425.425 0 0 1-.274-.096.46.46 0 0 1-.159-.242 1.546 1.546 0 0 1-.007-.194V11.12c-.002-.062 0-.125.007-.187a.468.468 0 0 1 .16-.247.432.432 0 0 1 .548.002.472.472 0 0 1 .161.245zm-.084-1.61a.492.492 0 0 1-.352.844.48.48 0 0 1-.35-.143.497.497 0 0 1 .702-.7zm1.914 3.143v.575a.702.702 0 0 0 .693.693.646.646 0 0 0 .348-.1.715.715 0 0 0 .253-.27c.01-.017.027-.051.051-.103.02-.043.043-.084.068-.124a.406.406 0 0 1 .068-.081.454.454 0 0 1 .29-.114.463.463 0 0 1 .295.114.438.438 0 0 1 .104.14c.03.06.046.129.044.197a.496.496 0 0 1-.022.143 1.6 1.6 0 0 1-.581.788 1.523 1.523 0 0 1-.919.301c-.313.003-.62-.09-.88-.266a1.6 1.6 0 0 1-.586-.702 1.818 1.818 0 0 1-.118-.616v-1.162c.005-.21.045-.419.118-.616a1.601 1.601 0 0 1 1.466-.968c.331-.002.654.104.919.303.272.197.475.475.58.793a.457.457 0 0 1-.125.475.441.441 0 0 1-.303.112.416.416 0 0 1-.282-.114.313.313 0 0 1-.068-.079 1.264 1.264 0 0 1-.066-.12 1.277 1.277 0 0 0-.053-.101.723.723 0 0 0-.253-.275.664.664 0 0 0-.697-.005.704.704 0 0 0-.345.602v.58zm6.005-1.896a.387.387 0 0 1 .033.172.44.44 0 0 1-.015.114l-.091.18a200.164 200.164 0 0 1-.869 1.525l.28.442a317.608 317.608 0 0 1 .544.856c.04.054.073.113.096.176a.427.427 0 0 1-.007.29.446.446 0 0 1-.415.296.45.45 0 0 1-.312-.12.855.855 0 0 1-.113-.158c-.07-.125-.353-.57-.847-1.338a.814.814 0 0 1-.198.022h-.3v1.06c0 .064-.005.13-.015.194a.458.458 0 0 1-.16.242.425.425 0 0 1-.273.095.454.454 0 0 1-.436-.337 1.539 1.539 0 0 1-.007-.195V9.708c-.002-.063 0-.125.007-.187a.472.472 0 0 1 .161-.246.432.432 0 0 1 .548-.002c.079.063.135.15.16.248.01.061.015.124.014.187v2.423h.176a.566.566 0 0 0 .239-.037.541.541 0 0 0 .242-.253 129.27 129.27 0 0 0 .581-1.02c.08-.141.123-.216.13-.226a.666.666 0 0 1 .114-.165.42.42 0 0 1 .319-.136.45.45 0 0 1 .22.059.421.421 0 0 1 .194.216z"/></svg>