<svg xmlns="http://www.w3.org/2000/svg" width="24" height="24" viewBox="0 0 24 24" fill="currentColor"><path d="M13.505 3.009 11.004 3C6.357 3.053 2.6 7.077 2.6 12c0 4.932 3.757 8.947 8.404 9l2.501-.009c4.362-.062 7.905-4.068 7.905-9-.009-4.914-3.543-8.929-7.905-8.982m0 15.498q-.574.255-1.202.374a5.9 5.9 0 0 1-2.483-.018 6.2 6.2 0 0 1-2.742-1.38C5.573 16.203 4.612 14.226 4.612 12c0-2.217.97-4.202 2.466-5.484a6.3 6.3 0 0 1 2.742-1.38 5.83 5.83 0 0 1 2.484-.018c.418.08.818.214 1.201.375 2.404 1.032 4.104 3.552 4.104 6.498 0 2.956-1.71 5.484-4.104 6.516m-4.353-7.006v1.015c0 .339.018.704.08.926a1.72 1.72 0 0 0 1.63 1.175q.24.002.453-.062a1.75 1.75 0 0 0 1.06-.82c.115-.222.222-.515.365-.64a.86.86 0 0 1 .872-.17.6.6 0 0 1 .223.134.88.88 0 0 1 .32.989c-.08.23-.196.445-.32.65a3.48 3.48 0 0 1-2.52 1.637 4 4 0 0 1-.454.036 3.46 3.46 0 0 1-2.99-1.727 3.3 3.3 0 0 1-.232-.472c-.223-.543-.25-1.166-.25-1.923v-.498c0-.74.027-1.362.25-1.923.062-.16.142-.32.231-.472a3.45 3.45 0 0 1 2.991-1.727c.152 0 .303.018.454.036a3.5 3.5 0 0 1 2.52 1.647c.124.204.24.418.32.658a.88.88 0 0 1-.32.989c-.072.053-.143.106-.223.133a.92.92 0 0 1-.872-.17c-.143-.142-.25-.418-.365-.64a1.7 1.7 0 0 0-1.06-.82 2 2 0 0 0-.454-.061 1.72 1.72 0 0 0-1.629 1.175c-.071.222-.08.578-.08.925"/></svg>