<svg xmlns="http://www.w3.org/2000/svg" width="24" height="24" viewBox="0 0 24 24" fill="currentColor"><path d="M18.13 9.24v3.54c0 .45-.54.67-.85.35l-1.06-1.06-2.17 2.17c-.76.76-2.07.76-2.83 0l-1.59-1.59-2.04 2.04c-.2.2-.45.29-.71.29s-.51-.1-.71-.29a.996.996 0 0 1 0-1.41l2.04-2.04c.76-.76 2.07-.76 2.83 0l1.59 1.59 2.17-2.17-1.07-1.07a.5.5 0 0 1 .35-.85h3.54c.28 0 .5.22.5.5zM22 16V8c0-2.21-1.79-4-4-4H6C3.79 4 2 5.79 2 8v8c0 2.21 1.79 4 4 4h12c2.21 0 4-1.79 4-4M18 6c1.1 0 2 .9 2 2v8c0 1.1-.9 2-2 2H6c-1.1 0-2-.9-2-2V8c0-1.1.9-2 2-2z"/></svg>