<svg width="24" height="24" viewBox="0 0 24 24" xmlns="http://www.w3.org/2000/svg" fill="currentColor"><path d="M15.08 21H8.25a4 4 0 0 1-4-4V7a4 4 0 0 1 4-4h1.58a1 1 0 1 1 0 2H8.25a2 2 0 0 0-2 2v10a2 2 0 0 0 2 2h6.83a2 2 0 0 0 2-2v-1.85a1 1 0 1 1 2 0V17a4 4 0 0 1-4 4zm.34-8.14a1 1 0 0 0-1-1h-5.5a1 1 0 0 0 0 2h5.5a1 1 0 0 0 1-1zm0 3.66a1 1 0 0 0-1-1h-5.5a1 1 0 0 0 0 2h5.5a1 1 0 0 0 1-1zm3.25-11.41-1.17-.77a1.74 1.74 0 0 1-.54-.54l-.75-1.15a.5.5 0 0 0-.84 0l-.74 1.15c-.14.216-.324.4-.54.54l-1.17.77a.49.49 0 0 0 0 .83l1.17.76a2 2 0 0 1 .54.54l.74 1.16a.499.499 0 0 0 .84 0l.75-1.16c.14-.216.324-.4.54-.54l1.17-.76a.5.5 0 0 0 0-.83zm2.93 4.72-.9-.58a1.48 1.48 0 0 1-.39-.4l-.57-.88a.34.34 0 0 0-.56 0l-.57.88a1.52 1.52 0 0 1-.4.4l-.89.58a.34.34 0 0 0 0 .56l.89.58c.157.103.293.236.4.39l.57.89a.34.34 0 0 0 .56 0l.57-.89a1.45 1.45 0 0 1 .39-.39l.9-.58a.34.34 0 0 0 0-.56z"/></svg>