<svg xmlns="http://www.w3.org/2000/svg" width="24" height="24" viewBox="0 0 24 24" fill="currentColor"><path d="m21.94 8.66-.55-2.9c-.35-1.88-2-3.25-3.92-3.25H6.45c-1.92 0-3.57 1.37-3.93 3.26l-.54 2.89c-.18.95.08 1.92.69 2.66.35.43.8.75 1.3.94v5.24c0 2.2 1.79 3.99 3.99 3.99h8c2.2 0 3.99-1.79 3.99-3.99v-5.24c.5-.19.95-.51 1.3-.94.61-.74.86-1.71.69-2.66m-8.99-4.17h2.11l.43 4.64c.03.36-.08.69-.33.96-.24.27-.57.42-.94.42-.7 0-1.27-.57-1.27-1.27zM8.43 9.12l.43-4.63h2.11v4.75c0 .7-.57 1.27-1.27 1.27-.37 0-.7-.15-.94-.42-.25-.27-.36-.6-.33-.96zm-4.5-.11.54-2.89c.18-.95 1.01-1.64 1.98-1.64h.42l-.42 4.44v.02l-.04.42c-.06.65-.59 1.14-1.24 1.14-.38 0-.73-.17-.97-.45-.24-.29-.34-.67-.27-1.04m14.04 8.48c0 1.11-.9 2.01-2.01 2.01h-8c-1.11 0-2.01-.9-2.01-2.01v-5.11c.57-.13 1.08-.42 1.48-.82.6.58 1.42.92 2.27.92s1.67-.35 2.26-.91a3.273 3.273 0 0 0 4.54-.01c.4.4.91.69 1.47.82zm1.75-7.44c-.24.28-.59.45-.97.45-.65 0-1.18-.49-1.24-1.14l-.46-4.88h.42c.97 0 1.8.69 1.97 1.64l.55 2.89c.06.37-.03.75-.27 1.04"/></svg>