<svg width="24" height="24" viewBox="0 0 24 24" xmlns="http://www.w3.org/2000/svg" fill="currentColor"><path d="M20.5 6c-.28 0-.5.22-.5.5v9.25c0 .41-.34.75-.75.75s-.75-.34-.75-.75V4.5c0-.83-.67-1.5-1.5-1.5H4.5C3.67 3 3 3.67 3 4.5V17c0 2.21 1.79 4 4 4h11c2.21 0 4-1.79 4-4V7c0-.55-.45-1-1-1h-.5zM10.4 17.75H7.5c-.41 0-.75-.34-.75-.75s.34-.75.75-.75h2.9a.749.749 0 1 1 0 1.5zm3.6-3.5H7.5c-.41 0-.75-.34-.75-.75s.34-.75.75-.75H14c.41 0 .75.34.75.75s-.34.75-.75.75zm-.25-4h-6c-.55 0-1-.45-1-1V7c0-.55.45-1 1-1h6c.55 0 1 .45 1 1v2.25c0 .55-.45 1-1 1z"/></svg>