<svg xmlns="http://www.w3.org/2000/svg" width="24" height="24" viewBox="0 0 24 24" fill="currentColor"><path fill-rule="evenodd" d="M8 6.6c0-.55.45-1 1-1h11c.55 0 1 .45 1 1s-.45 1-1 1H9c-.55 0-1-.44-1-1M4.5 5.1c-.83 0-1.5.68-1.5 1.5s.67 1.5 1.5 1.5S6 7.43 6 6.6s-.67-1.5-1.5-1.5M20 11.08H9c-.55 0-1 .45-1 1s.45 1 1 1h11c.55 0 1-.45 1-1s-.45-1-1-1m-15.5-.5c-.83 0-1.5.67-1.5 1.5s.67 1.5 1.5 1.5 1.5-.67 1.5-1.5-.67-1.5-1.5-1.5M20 16.66H9c-.55 0-1 .45-1 1s.45 1 1 1h11c.55 0 1-.45 1-1s-.45-1-1-1m-15.5-.5c-.83 0-1.5.67-1.5 1.5s.67 1.5 1.5 1.5 1.5-.67 1.5-1.5-.67-1.5-1.5-1.5" clip-rule="evenodd"/></svg>