<svg xmlns="http://www.w3.org/2000/svg" width="24" height="24" viewBox="0 0 24 24" fill="currentColor"><path d="M9.39 11.9c0-1.44 1.17-2.61 2.61-2.61s2.61 1.17 2.61 2.61-1.17 2.61-2.61 2.61-2.61-1.17-2.61-2.61ZM12 15.47c-2.93 0-4.38 1.52-4.94 3.17-.21.62.16 1.29.79 1.47 2.71.76 5.59.76 8.3 0 .63-.18 1-.85.79-1.47-.56-1.66-2.01-3.17-4.94-3.17Zm7-1.18c1.15 0 2.09-.94 2.09-2.09s-.94-2.09-2.09-2.09-2.09.94-2.09 2.09.94 2.09 2.09 2.09Zm3.95 3.3c-.45-1.33-1.6-2.54-3.95-2.54-1 0-1.77.23-2.37.58 1 .94 1.71 2.18 1.99 3.58 1.25.04 2.5-.1 3.71-.44.5-.14.79-.68.62-1.18ZM5 14.29c1.15 0 2.09-.94 2.09-2.09S6.15 10.11 5 10.11s-2.09.94-2.09 2.09.94 2.09 2.09 2.09Zm0 .76c-2.35 0-3.5 1.21-3.95 2.54-.17.5.13 1.03.63 1.18 1.21.34 2.46.48 3.71.44.27-1.4.98-2.64 1.99-3.58-.61-.35-1.38-.58-2.38-.58Zm7-8.73c.28 0 .5-.22.5-.5v-2c0-.28-.22-.5-.5-.5s-.5.22-.5.5v2c0 .27.22.5.5.5Zm5.86.81 1.41-1.41c.2-.2.2-.51 0-.71-.2-.2-.51-.2-.71 0l-1.41 1.41c-.2.2-.2.51 0 .71.2.19.51.19.71 0Zm-11.72 0c.2.2.51.2.71 0 .2-.2.2-.51 0-.71L5.43 5.01c-.2-.2-.51-.2-.71 0-.2.2-.2.51 0 .71l1.42 1.41Z"/></svg>