<svg width="24" height="24" viewBox="0 0 24 24" xmlns="http://www.w3.org/2000/svg" fill="currentColor"><path d="M16.457 15h.002l-5.033-5.165v.002l-1.24-1.272h.002l-3.44-3.53v.001l-.876-.897A1 1 0 1 0 4.44 5.535l1.553 1.593V10h-1a2.999 2.999 0 0 0-3 3v3a3 3 0 0 0 3 3v1.17a.5.5 0 0 0 .876.328L7.18 19h3.813a3 3 0 0 0 3-3v-.664l3.527 3.619a1 1 0 1 0 1.431-1.396l-2.494-2.56zm-3.964 1a1.501 1.501 0 0 1-1.5 1.5h-6a1.501 1.501 0 0 1-1.5-1.5v-3a1.502 1.502 0 0 1 1.5-1.5h1v.5a3 3 0 0 0 3 3h3.5v1zm6.5-11.993h-10c-.138.005-.275.02-.41.046l4.67 4.791a.987.987 0 0 1 1.663.277.983.983 0 0 1-.286 1.137l5.363 5.502v-.944a2.99 2.99 0 0 0 2-2.816V7.007a3 3 0 0 0-3-3zm-1.5 6.496a1 1 0 1 1 0-2 1 1 0 0 1 0 2z"/></svg>