<svg xmlns="http://www.w3.org/2000/svg" width="24" height="24" viewBox="0 0 24 24" fill="currentColor"><path d="M18.993 4.007h-10a3 3 0 0 0-3 3V10h-1a3 3 0 0 0-3 3v3a3 3 0 0 0 3 3v1.169a.5.5 0 0 0 .876.33l1.311-1.5h3.813a3 3 0 0 0 3-3v-1h2.805l2.352 2.21a.5.5 0 0 0 .843-.365v-2.028a2.99 2.99 0 0 0 2-2.816V7.007a3.001 3.001 0 0 0-3-3Zm-8.5 4.496a1 1 0 1 1 0 2 1 1 0 0 1 0-2Zm2 7.497a1.501 1.501 0 0 1-1.5 1.5h-6a1.502 1.502 0 0 1-1.5-1.5v-3a1.502 1.502 0 0 1 1.5-1.5h1v.5a3 3 0 0 0 3 3h3.5v1Zm1.5-5.497a1 1 0 1 1 0-2 1 1 0 0 1 0 2Zm3.5 0a1 1 0 1 1 0-2 1 1 0 0 1 0 2Z"/></svg>