<svg width="24" height="24" viewBox="0 0 24 24" xmlns="http://www.w3.org/2000/svg" fill="currentColor"><path d="M19.62 3.65h-11c-.13 0-.25.02-.37.05l10.87 11.24v-1.29h.5c.83 0 1.5-.67 1.5-1.5v-7c0-.83-.67-1.5-1.5-1.5zm-5.25 5.63c-.56 0-1-.45-1-1 0-.56.44-1 1-1 .55 0 1 .44 1 1 0 .55-.45 1-1 1zm3.5 0c-.56 0-1-.45-1-1 0-.56.44-1 1-1 .55 0 1 .44 1 1 0 .55-.45 1-1 1zm.55 7.8l-3.3-3.4v-.01l-4.25-4.39-1-1.03L7.12 5.4 5.87 4.11c-.39-.38-1.01-.37-1.4 0-.39.39-.4 1.02-.02 1.42l2.67 2.75v.37h-2.5c-.83 0-1.5.67-1.5 1.5v6c0 .83.67 1.5 1.5 1.5h.5v1.21c0 .44.54.66.85.35l1.56-1.56h6.09c.71 0 1.3-.48 1.45-1.14L17 18.5c.2.2.46.3.72.3.25 0 .5-.09.69-.28.4-.39.41-1.02.02-1.42l-.01-.02zm-4.8-1.43c0 .28-.23.5-.5.5h-8c-.28 0-.5-.22-.5-.5v-5c0-.28.22-.5.5-.5h2v2c0 .83.67 1.5 1.5 1.5h3.69l1.31 1.36v.64z"/></svg>