<svg width="24" height="24" viewBox="0 0 24 24" xmlns="http://www.w3.org/2000/svg" fill="currentColor"><path d="M15.13 7.25A1.13 1.13 0 1 1 14 8.38a1.119 1.119 0 0 1 1.13-1.13zm-2.41 5.72a1 1 0 0 0-.6.2l-3.66 2.75v-2a1 1 0 0 0-1-1H5a2 2 0 0 1-2-2v-6a2 2 0 0 1 2-2h12a2 2 0 0 1 2 2v6a2.002 2.002 0 0 1-.08.54c.68.007 1.355.122 2 .34.064-.29.097-.584.1-.88v-6a4 4 0 0 0-4-4h-12a4 4 0 0 0-4 4v6a4 4 0 0 0 4 4h1.46v2a1.51 1.51 0 0 0 1.5 1.5 1.48 1.48 0 0 0 .9-.3l4.19-3.15a6.58 6.58 0 0 1 1.63-2h-1.98zM5.5 8.38a1.13 1.13 0 1 0 2.26 0 1.13 1.13 0 0 0-2.26 0zm4.25 0a1.13 1.13 0 1 0 2.26 0 1.13 1.13 0 0 0-2.26 0zM23.81 18a5 5 0 1 1-10 0 5 5 0 0 1 10 0zm-8.5 0a3.46 3.46 0 0 0 .56 1.88l4.82-4.82a3.46 3.46 0 0 0-1.88-.56 3.5 3.5 0 0 0-3.5 3.5zm7 0a3.46 3.46 0 0 0-.56-1.88l-4.82 4.82a3.46 3.46 0 0 0 1.88.56 3.5 3.5 0 0 0 3.5-3.5z"/></svg>