<svg width="24" height="24" viewBox="0 0 24 24" xmlns="http://www.w3.org/2000/svg" fill="currentColor"><path d="M7.93 17.68a1 1 0 0 1-.23 1.4 1 1 0 0 1-.58.18 1 1 0 0 1-.81-.41l-3.87-5.39a2.49 2.49 0 0 1 0-2.92l3.87-5.37a1 1 0 1 1 1.62 1.16l-3.87 5.38a.51.51 0 0 0 0 .58l3.87 5.39zm13.6-7.13-3.87-5.38a.999.999 0 0 0-1.817.8c.04.132.107.255.198.36l3.87 5.39a.53.53 0 0 1 0 .59L16 17.68a1 1 0 0 0 .22 1.4 1 1 0 0 0 .59.18 1 1 0 0 0 .81-.41l3.87-5.38a2.49 2.49 0 0 0 .04-2.92zM16.75 12a1 1 0 0 0-1-1H13V8.25a1 1 0 0 0-2 0V11H8.23a1 1 0 0 0 0 2H11v2.74a1 1 0 0 0 2 0V13h2.73a1 1 0 0 0 1.02-1z"/></svg>