<svg xmlns="http://www.w3.org/2000/svg" width="24" height="24" viewBox="0 0 24 24" fill="currentColor"><path d="M17.98 12.295a.41.41 0 0 1 0 .578l-6.423 6.43a.95.95 0 0 1-.42.237L6.64 20.616a.816.816 0 0 1-.98-.98l1.076-4.506a.85.85 0 0 1 .237-.42l6.422-6.431a.41.41 0 0 1 .578 0zm3.159-3.736L17.7 5.11a.813.813 0 0 0-1.146 0l-1.435 1.435a.41.41 0 0 0 0 .578l4.016 4.025a.41.41 0 0 0 .577 0l1.436-1.435a.83.83 0 0 0-.01-1.155M6.5 9.25c0 .481.394.875.875.875a.88.88 0 0 0 .875-.875V7.5H10a.88.88 0 0 0 .875-.875A.88.88 0 0 0 10 5.75H8.25V4a.88.88 0 0 0-.875-.875A.88.88 0 0 0 6.5 4v1.75H4.75a.88.88 0 0 0-.875.875c0 .481.394.875.875.875H6.5z"/></svg>