<svg xmlns="http://www.w3.org/2000/svg" width="24" height="24" viewBox="0 0 24 24" fill="currentColor"><path d="M7.47 9.99c0 .83.67 1.5 1.5 1.5s1.5-.67 1.5-1.5-.67-1.5-1.5-1.5-1.5.67-1.5 1.5ZM15.01 11.49c.83 0 1.5-.67 1.5-1.5s-.67-1.5-1.5-1.5-1.5.67-1.5 1.5.67 1.5 1.5 1.5ZM8.747 16.44c-.4-.29-.5-.85-.21-1.26.8-1.11 2.1-1.78 3.47-1.78s2.67.67 3.47 1.78c.29.4.2.97-.21 1.26a.9.9 0 0 1-1.26-.21 2.482 2.482 0 0 0-2.01-1.03c-.8 0-1.55.38-2.01 1.03-.27.41-.83.5-1.24.21Z"/><path fill-rule="evenodd" d="M2 12C2 6.49 6.49 2 12 2s10 4.49 10 10-4.49 10-10 10S2 17.51 2 12Zm2 0c0 4.41 3.59 8 8 8s8-3.59 8-8-3.59-8-8-8-8 3.59-8 8Z" clip-rule="evenodd"/></svg>