<svg width="24" height="24" viewBox="0 0 24 24" xmlns="http://www.w3.org/2000/svg" fill="currentColor"><path d="M12 18.5c0-3.6 2.9-6.5 6.5-6.5.5 0 1 .1 1.5.2V9.8c0-.8-.3-1.6-.9-2.1l-4.8-4.8c-.6-.6-1.3-.9-2.1-.9H7C5.3 2 4 3.3 4 5v14c0 1.7 1.3 3 3 3h6c-.6-1-1-2.2-1-3.5zm0-13.3c0-.4.5-.7.9-.4l4.3 4.3c.3.3.1.9-.4.9H13c-.6 0-1-.4-1-1V5.2zm6.5 8.3c-2.8 0-5 2.2-5 5s2.2 5 5 5 5-2.2 5-5-2.2-5-5-5zm2.5 5.7h-1.8V21c0 .4-.3.8-.8.8s-.8-.3-.8-.8v-1.8H16c-.4 0-.8-.3-.8-.8s.3-.8.8-.8h1.8V16c0-.4.3-.8.8-.8s.8.3.8.8v1.8H21c.4 0 .8.3.8.8s-.4.6-.8.6z"/></svg>