<svg width="24" height="24" viewBox="0 0 24 24" xmlns="http://www.w3.org/2000/svg" fill="currentColor"><path d="M15.9 14.802c-.1-.7-.7-1.3-1.5-1.3h-.9v-.5c0-.6-.4-1-1-1s-1 .4-1 1v.5h-.9c-.7 0-1.4.6-1.5 1.3l-.7 4.9c-.1.6.1 1.2.5 1.6.4.4.9.7 1.5.7h4.2c.6 0 1.1-.3 1.5-.7.4-.4.6-1 .5-1.6l-.7-4.9zm-1.9 5.2h-3c-.3 0-.5-.3-.5-.6l.5-3.5c0-.2.2-.4.5-.4h2c.2 0 .5.2.5.4l.5 3.5c.1.3-.2.6-.5.6zM18.2 9.502c-1.5 0-3 .5-3.9 2.4-.1.3 0 .6.3.6h.1c1.5 0 2-.5 2.8-1.2.2-.2.8-1 1-1.3.1-.2-.1-.5-.3-.5zM10.1 10.802l.6-.4c.2-.1.4-.1.6 0l.6.4c1.1.8 2.5-.1 2.4-1.4l-.1-.7c0-.2.1-.4.3-.5l.6-.3c1.2-.5 1.2-2.2 0-2.7l-.6-.3c-.2-.1-.4-.3-.3-.5l.1-.7c.1-1.3-1.3-2.1-2.4-1.4l-.6.4c-.2.1-.4.1-.6 0l-.6-.4c-1-.8-2.5.1-2.3 1.4l.1.7c0 .2-.1.4-.3.5l-.7.3c-1.2.5-1.2 2.2 0 2.7l.6.3c.2.1.3.3.3.5v.7c-.2 1.3 1.3 2.1 2.3 1.4zm.9-5.5c.7 0 1.2.6 1.2 1.3 0 .7-.6 1.2-1.2 1.2-.7 0-1.2-.6-1.2-1.2-.1-.8.5-1.3 1.2-1.3z"/></svg>