<svg width="24" height="24" viewBox="0 0 24 24" xmlns="http://www.w3.org/2000/svg" fill="currentColor"><path d="M19.5 5.1l-4.74-.02-1.33-1A2.39 2.39 0 0012 3.6H7.5c-1.31 0-2.38 1.07-2.38 2.38V7.6H4.5c-1.31 0-2.38 1.07-2.38 2.38v8c0 1.31 1.07 2.38 2.38 2.38h12c1.31 0 2.38-1.07 2.38-2.38v-1.62h.62c1.31 0 2.38-1.07 2.38-2.38v-6.5c0-1.31-1.07-2.38-2.38-2.38zm-2.38 12.88c0 .34-.28.62-.62.62h-12c-.34 0-.62-.28-.62-.62v-8c0-.34.28-.62.62-.62H9c.13 0 .27.04.38.12l1.33 1c.32.24.72.38 1.12.38h4.67c.34 0 .62.28.62.62v6.5zm3-4c0 .34-.28.62-.62.62h-.62v-3.12c0-1.31-1.07-2.38-2.38-2.38l-4.74-.02-1.33-1A2.39 2.39 0 009 7.6H6.88V5.98c0-.34.28-.62.62-.62H12c.13 0 .27.04.38.12l1.33 1c.32.24.72.38 1.12.38h4.67c.34 0 .62.28.62.62v6.5z"/></svg>