<svg width="24" height="24" viewBox="0 0 24 24" xmlns="http://www.w3.org/2000/svg" fill="currentColor"><path d="M22.2 7.5c-.1-2.5-2.5-4.2-4.9-3.7-3.5.8-7.2.8-10.7 0C4.3 3.3 1.9 5 1.8 7.5l-.6 9.7c-.1 2.4 2.5 4 4.5 2.7l4.7-2.8c1-.6 2.1-.6 3.1 0l4.7 2.8c2.1 1.2 4.7-.3 4.5-2.7l-.5-9.7zm-11 3.5c0 .3-.2.5-.5.5H9v1.8c0 .3-.2.5-.5.5h-1c-.3 0-.5-.2-.5-.5v-1.8H5.2c-.3 0-.5-.2-.5-.5v-1c0-.3.2-.5.5-.5H7V7.7c0-.3.2-.5.5-.5h1c.3 0 .5.3.5.5v1.8h1.8c.3 0 .5.2.5.5v1h-.1zm4.3 2.5c-.8 0-1.5-.7-1.5-1.5s.7-1.5 1.5-1.5 1.5.7 1.5 1.5-.7 1.5-1.5 1.5zm3-3c-.8 0-1.5-.7-1.5-1.5s.7-1.5 1.5-1.5S20 8.2 20 9s-.7 1.5-1.5 1.5z"/></svg>