<svg width="24" height="24" viewBox="0 0 24 24" xmlns="http://www.w3.org/2000/svg" fill="currentColor"><path d="M19 3.897H9.7l4.3 7.6 1.3-1.3c.4-.4 1-.4 1.4 0l3.2 3.2c.1.1.2.2.2.3v3.2c0 .5-.4 1-1 1h-1.3l1.2 2c1.7 0 3-1.3 3-3v-10c0-1.7-1.3-3-3-3zM6.9 2.497c-.2-.5-.8-.6-1.3-.4-.5.3-.7.9-.4 1.4l.2.4H5c-1.7 0-3 1.3-3 3v10c0 .2 0 .5.1.7 0 .2.1.4.2.6.5 1 1.5 1.7 2.7 1.7h9.7l.5.9.1.1.3.5c.2.3.5.5.9.5.2 0 .3 0 .5-.1.5-.3.6-.9.4-1.4L6.9 2.497zm2.3 8c-.3.2-.7.4-1.2.4-1.1 0-2-.9-2-2 0-.8.5-1.6 1.3-1.9l1.9 3.5zm-4.2 7.4c-.5 0-1-.5-1-1v-.2c0-.1 0-.3.2-.3l3.1-3.2c.4-.4 1-.4 1.4 0l1.4 1.4c.2.2.5.2.7 0l.5-.5 2.2 3.8H5z"/></svg>