<svg width="24" height="24" viewBox="0 0 24 24" xmlns="http://www.w3.org/2000/svg" fill="currentColor"><path d="M12 4.62c2.4 0 2.69.01 3.64.05.88.04 1.35.19 1.67.31.42.16.72.36 1.03.67.31.31.51.61.67 1.03.12.32.27.79.31 1.67.04.95.05 1.23.05 3.64s-.01 2.69-.05 3.64c-.04.88-.19 1.35-.31 1.67-.16.42-.36.72-.67 1.03-.31.31-.61.51-1.03.67-.32.12-.79.27-1.67.31-.95.04-1.23.05-3.64.05s-2.69-.01-3.64-.05c-.88-.04-1.35-.19-1.67-.31-.42-.16-.72-.36-1.03-.67-.31-.31-.51-.61-.67-1.03-.12-.32-.27-.79-.31-1.67-.05-.94-.06-1.23-.06-3.63s.01-2.69.05-3.64c.04-.88.19-1.35.31-1.67.16-.42.36-.72.67-1.03.31-.31.61-.51 1.03-.67.32-.12.79-.27 1.67-.31.96-.05 1.25-.06 3.65-.06zM12 3c-2.44 0-2.75.01-3.71.05-.96.05-1.61.2-2.19.42-.59.23-1.09.54-1.59 1.04s-.81 1-1.04 1.59c-.22.58-.37 1.23-.42 2.19C3.01 9.25 3 9.56 3 12s.01 2.75.05 3.71.2 1.61.42 2.18c.23.59.54 1.09 1.04 1.59s1 .81 1.59 1.04c.57.22 1.23.37 2.18.42.97.05 1.28.06 3.72.06 2.44 0 2.75-.01 3.71-.05s1.61-.2 2.18-.42a4.42 4.42 0 001.59-1.04c.5-.5.81-1 1.04-1.59.22-.57.37-1.23.42-2.18.05-.97.06-1.28.06-3.72 0-2.44-.01-2.75-.05-3.71s-.2-1.61-.42-2.18a4.42 4.42 0 00-1.04-1.59c-.5-.5-1-.81-1.59-1.04-.57-.22-1.23-.37-2.18-.42C14.75 3.01 14.44 3 12 3zm0 4.38c-2.55 0-4.62 2.07-4.62 4.62 0 2.55 2.07 4.62 4.62 4.62 2.55 0 4.62-2.07 4.62-4.62 0-2.55-2.07-4.62-4.62-4.62zM12 15c-1.66 0-3-1.34-3-3s1.34-3 3-3 3 1.34 3 3-1.34 3-3 3zm4.8-8.88c-.6 0-1.08.48-1.08 1.08 0 .6.48 1.08 1.08 1.08.6 0 1.08-.48 1.08-1.08 0-.6-.48-1.08-1.08-1.08z"/></svg>