<svg width="24" height="24" viewBox="0 0 24 24" xmlns="http://www.w3.org/2000/svg" fill="currentColor"><path d="M18 2H6a4 4 0 0 0-4 4v8a4 4 0 0 0 4 4h12a4 4 0 0 0 4-4V6a4 4 0 0 0-4-4zm-4.25 3.5a1 1 0 1 1-.01 0h.01zm0 3.5a1 1 0 1 1-.01 0h.01zm-3.5-3.5a1 1 0 1 1-.01 0h.01zm0 3.5a1 1 0 1 1-.01 0h.01zm-3.5-3.5a1 1 0 1 1-.01 0h.01zm0 5.5a1 1 0 1 1 .375-.073c-.122.05-.253.074-.385.073h.01zm8.75 3.5h-7a1 1 0 0 1 0-2h7a1 1 0 0 1 0 2zm1.75-3.5a1 1 0 1 1 .375-.073c-.122.05-.253.074-.385.073h.01zm0-3.5a1 1 0 1 1 .375-.073 1 1 0 0 1-.385.073h.01zM11.4 21.79 9.59 20.4a.5.5 0 0 1 .3-.9h4.24a.5.5 0 0 1 .3.9l-1.81 1.39a1.001 1.001 0 0 1-1.23 0h.01z"/></svg>