<svg xmlns="http://www.w3.org/2000/svg" width="24" height="24" viewBox="0 0 24 24" fill="currentColor"><path d="M22 12c0 5.52-4.48 10-10 10S2 17.52 2 12 6.48 2 12 2s10 4.48 10 10m-3.35-.6C18.65 8.42 15.67 6 12 6s-6.65 2.42-6.65 5.4c0 2.67 2.37 4.9 5.56 5.33.22.05.51.14.59.33.07.17.04.43.02.6 0 0-.08.47-.09.57-.03.17-.13.66.58.36s3.83-2.26 5.23-3.86c.95-1.07 1.41-2.14 1.41-3.33m-8-1.44h-.47c-.07 0-.13.06-.13.13v2.9c0 .07.06.13.13.13h.47c.07 0 .13-.06.13-.13v-2.9c0-.07-.06-.13-.13-.13m3.21 0h-.47c-.07 0-.13.06-.13.13v1.72l-1.33-1.79-.01-.01-.01-.01-.01-.01h-.55c-.07 0-.13.06-.13.13v2.9c0 .07.06.13.13.13h.47c.07 0 .13-.06.13-.13V11.3l1.33 1.8.03.03h.54c.07 0 .13-.06.13-.13v-2.9a.122.122 0 0 0-.12-.14m-4.34 2.43H8.26v-2.3c0-.07-.06-.13-.13-.13h-.47c-.07 0-.13.06-.13.13v2.9c0 .03.01.07.04.09.02.02.05.04.09.04h1.86c.07 0 .13-.06.13-.13v-.47c0-.07-.05-.13-.13-.13m6.92-1.7c.07 0 .13-.06.13-.13v-.47c0-.07-.06-.13-.13-.13h-1.86c-.03 0-.07.01-.09.04-.02.02-.04.05-.04.09v2.9c0 .03.01.07.04.09.02.02.05.04.09.04h1.86c.07 0 .13-.06.13-.13v-.47c0-.07-.06-.13-.13-.13h-1.27v-.49h1.27c.07 0 .13-.06.13-.13v-.47c0-.07-.06-.13-.13-.13h-1.27v-.49h1.27z"/></svg>