<svg width="24" height="24" viewBox="0 0 24 24" xmlns="http://www.w3.org/2000/svg" fill="currentColor"><path fill-rule="evenodd" clip-rule="evenodd" d="M19.01 4.05h-14c-1.66 0-3 1.34-3 3v10c0 1.66 1.34 3 3 3h14c1.66 0 3-1.34 3-3v-10c0-1.65-1.35-3-3-3zm1 13c0 .55-.45 1-1 1h-14c-.55 0-1-.45-1-1v-10c0-.55.45-1 1-1h14c.55 0 1 .45 1 1v10zm-5.51-7v4c0 .28-.22.5-.5.5h-4c-.28 0-.5-.22-.5-.5v-4c0-.28.22-.5.5-.5h4c.28 0 .5.22.5.5zm-8.25-.3c-.41 0-.75-.34-.75-.75V7.9a.749.749 0 111.5 0V9c0 .41-.34.75-.75.75zm0 3.6c-.41 0-.75-.34-.75-.75v-1.1a.749.749 0 111.5 0v1.1c0 .41-.34.75-.75.75zm0 3.6c-.41 0-.75-.34-.75-.75v-1.1c0-.41.34-.75.75-.75s.75.34.75.75v1.1c0 .42-.34.75-.75.75zm11.5-7.2c-.41 0-.75-.34-.75-.75V7.9c0-.41.34-.75.75-.75s.75.34.75.75V9c0 .41-.34.75-.75.75zm0 3.6c-.41 0-.75-.34-.75-.75v-1.1c0-.41.34-.75.75-.75s.75.34.75.75v1.1c0 .41-.34.75-.75.75zm0 3.6c-.41 0-.75-.34-.75-.75v-1.1c0-.41.34-.75.75-.75s.75.34.75.75v1.1c0 .42-.34.75-.75.75z"/></svg>