<svg xmlns="http://www.w3.org/2000/svg" width="24" height="24" viewBox="0 0 24 24" fill="currentColor"><path fill-rule="evenodd" d="M14.27 10.246c0 .76-.409 1.397-.887 1.644-.195.124-.478.124-.867.124H10.23V8.46h2.286c.39 0 .672.019.867.124.478.266.887.885.887 1.662Zm6.727-3.84v9.232a3 3 0 0 1-1.544 2.623l-5.991 3.326a3 3 0 0 1-2.91 0l-6-3.326a3 3 0 0 1-1.545-2.624v-9.23a3 3 0 0 1 2.348-2.93 30.613 30.613 0 0 1 13.29 0h.003a3 3 0 0 1 2.35 2.93Zm-4.497 3.84c0-1.767-1.097-3.377-2.639-3.853-.354-.124-.814-.143-1.345-.143h-1.7c-.23 0-.462 0-.673.019-1.151.158-1.948.937-2.107 2.05C8 8.513 8 8.69 8 8.902v6.522c0 .23 0 .372.036.495.123.477.548.831 1.08.831.513 0 .956-.354 1.08-.83.034-.124.034-.266.034-.496v-1.183h2.286c.53 0 .99-.034 1.345-.14 1.542-.496 2.639-2.104 2.639-3.855Z" clip-rule="evenodd"/></svg>