<svg width="24" height="24" viewBox="0 0 24 24" xmlns="http://www.w3.org/2000/svg" fill="currentColor"><path d="M16.2 13.5c-1-1-1-3-4-3s-3 2-4 3c-1.3 1.3-2.5 2-2.5 3.5 0 2 1.5 3 3.5 3h6c2 0 3.5-1 3.5-3 .1-1.5-1.5-2.5-2.5-3.5zM9.4 7.5c1.2 0 2.1-1 2.1-2.1v-.3c0-1.1-1-2.1-2.1-2.1S7.2 4 7.2 5.1v.2c0 1.2 1 2.2 2.2 2.2zM15.1 7.5c1.2 0 2.1-1 2.1-2.1v-.3c0-1.2-1-2.1-2.1-2.1S13 4 13 5.1v.2c0 1.2 1 2.2 2.1 2.2zM7.2 10.4v-.3C7.2 9 6.3 8 5.1 8 4 8 3 9 3 10.1v.2c0 1.2 1 2.1 2.1 2.1 1.2.1 2.1-.9 2.1-2zM19.4 8c-1.2 0-2.1 1-2.1 2.1v.2c0 1.2 1 2.1 2.1 2.1 1.2 0 2.1-1 2.1-2.1v-.2c0-1.1-1-2.1-2.1-2.1z"/></svg>