<svg width="24" height="24" viewBox="0 0 24 24" xmlns="http://www.w3.org/2000/svg" fill="currentColor"><path d="M4.76 8.34c0-1.65 1.35-3 3-3s3 1.35 3 3-1.34 3-3 3-3-1.35-3-3zm3 4.33c-3.37 0-5.03 1.74-5.68 3.65-.24.72.18 1.49.91 1.69 3.12.88 6.42.88 9.54 0 .73-.21 1.15-.98.91-1.69-.65-1.91-2.31-3.65-5.68-3.65zm8.5-1.33c1.65 0 3-1.34 3-3 0-1.65-1.34-3-3-3-1.65 0-3 1.35-3 3s1.34 3 3 3zm5.68 4.98c-.65-1.91-2.31-3.65-5.68-3.65-.99 0-1.82.16-2.53.42a7.887 7.887 0 012.03 5.28c0 .09-.01.18-.01.27 1.78.05 3.56-.15 5.29-.64.72-.19 1.14-.96.9-1.68z"/></svg>