<svg width="24" height="24" viewBox="0 0 24 24" xmlns="http://www.w3.org/2000/svg" fill="currentColor"><path fill-rule="evenodd" clip-rule="evenodd" d="M19 3H5.01c-1.1 0-2 .9-2 2v10.64c0 1.09.59 2.09 1.55 2.62l6 3.33c.91.5 2.01.5 2.91 0l5.99-3.33c.95-.53 1.54-1.53 1.54-2.62V5c0-1.1-.9-2-2-2zm-2.26 7.9l-2.12 2.04.57 2.93c.08.42-.38.75-.75.52L12 14.94 9.56 16.4c-.37.22-.83-.1-.75-.52l.57-2.93-2.12-2.05c-.3-.29-.13-.81.29-.86l2.83-.34 1.16-2.68c.17-.4.74-.4.92 0l1.16 2.68 2.83.34c.42.06.59.57.29.86z"/></svg>