<svg width="24" height="24" viewBox="0 0 24 24" xmlns="http://www.w3.org/2000/svg" fill="currentColor"><path d="M12 2C6.48 2 2 6.48 2 12s4.48 10 10 10 10-4.48 10-10S17.52 2 12 2zm0 15.25c-.55 0-1-.45-1-1s.45-1 1-1 1 .45 1 1-.45 1-1 1zm1.58-4.69c-.23.19-.44.37-.58.53-.09.11-.13.28-.12.62 0 .5-.4.9-.9.9s-.9-.4-.9-.9c0-.56.06-1.21.55-1.79.24-.29.53-.53.8-.76.65-.55 1.02-.89 1.02-1.54 0-.62-.68-1.18-1.43-1.18-.72 0-1.45.45-1.45 1.3 0 .5-.4.9-.9.9s-.9-.4-.9-.9c0-1.74 1.43-3.1 3.25-3.1 1.75 0 3.23 1.37 3.23 2.98-.01 1.54-.97 2.35-1.67 2.94z"/></svg>