<svg xmlns="http://www.w3.org/2000/svg" width="24" height="24" viewBox="0 0 24 24" fill="currentColor"><path d="m20.992 10.8-1.454 8.226a2 2 0 0 1-1.97 1.653H6.446a2 2 0 0 1-1.97-1.653L3.022 10.8a1 1 0 0 1 1.434-1.068L7.972 11.5l3.264-3.954a1 1 0 0 1 1.542 0l3.264 3.954 3.517-1.764a1 1 0 0 1 1.433 1.064m-8.985-8.4a1.628 1.628 0 1 0 0 3.255 1.628 1.628 0 0 0 0-3.255M2.925 5.256a1.628 1.628 0 1 0 0 3.256 1.628 1.628 0 0 0 0-3.256m18.05 0a1.628 1.628 0 1 0-.006 3.256 1.628 1.628 0 0 0 .006-3.256"/></svg>