<svg width="24" height="24" viewBox="0 0 24 24" xmlns="http://www.w3.org/2000/svg" fill="currentColor"><path d="M20.605 9.824a1 1 0 0 0-1.046-.092L16.042 11.5l-3.264-3.958a1 1 0 0 0-1.542 0L7.972 11.5 4.456 9.732A1 1 0 0 0 3.022 10.8l1.454 8.226a2 2 0 0 0 1.97 1.653h11.122a2 2 0 0 0 1.97-1.653l1.454-8.226a1 1 0 0 0-.387-.976zm-3.036 8.855H6.446l-1.108-6.267 2.45 1.229a1 1 0 0 0 1.22-.257l3-3.635 3 3.635a1 1 0 0 0 1.22.257l2.448-1.23-1.108 6.268h.001zM13.635 4.028a1.629 1.629 0 1 1-3.257 0 1.629 1.629 0 0 1 3.257 0zM4.553 6.884a1.628 1.628 0 1 1-3.256 0 1.628 1.628 0 0 1 3.256 0zm18.05 0a1.629 1.629 0 1 1-.479-1.15c.305.305.476.719.476 1.15h.003z"/></svg>