<svg width="24" height="24" viewBox="0 0 24 24" xmlns="http://www.w3.org/2000/svg" fill="currentColor"><path d="M10.57 16.52c-.2.15-.46.17-.68.06 0 0-5.87-3.2-5.99-3.27-.14-.08-.15-.32.05-.38.22-.06 11.45-3.08 14.66-3.93.21-.06.36.21.21.35-.11.11-8.25 7.17-8.25 7.17zm-.71-9.16c.11.02 5.88.84 5.88.84L9.28 9.93s.32-2.29.33-2.4c.02-.11.14-.19.25-.17zm10.93.63c-.24-.4-.57-.6-1-.66L9.8 5.87c-.03 0-.05-.01-.08-.01-.78-.02-1.39.49-1.52 1.25v.03l-.47 3.21s-4.65 1.28-4.66 1.28c-.58.17-.98.64-1.05 1.23-.07.6.21 1.08.72 1.39.01.01 6.39 3.63 6.4 3.63.49.25 1.1.31 1.61.17.27-.07.52-.2.75-.37l.03-.03 9-7.85c.51-.48.62-1.2.26-1.81z"/></svg>