<svg width="24" height="24" viewBox="0 0 24 24" xmlns="http://www.w3.org/2000/svg" fill="currentColor"><path d="M9.46 4.49c-.31-.23-.15-.73.24-.73H11v-1.8c0-.28.22-.5.5-.5h1c.28 0 .5.22.5.5v1.81h1.3c.39 0 .55.5.23.72l-2.3 1.66c-.14.1-.33.1-.47 0l-2.3-1.66zM17 10.02v8.57a2.86 2.86 0 01-2.86 2.86H9.86A2.86 2.86 0 017 18.59v-8.57a2.86 2.86 0 012.86-2.86h4.29c1.57 0 2.85 1.29 2.85 2.86zm-6.43-.89c0 .3.24.54.54.54h1.79c.3 0 .54-.24.54-.54 0-.3-.24-.54-.54-.54h-1.79c-.3 0-.54.24-.54.54zm2.14 10.18c0-.39-.32-.71-.71-.71-.39 0-.71.32-.71.71 0 .39.32.71.71.71.39 0 .71-.32.71-.71zm2.15-7.5c0-.39-.32-.71-.71-.71H9.86c-.39 0-.71.32-.71.71v4.64c0 .39.32.71.71.71h4.29c.39 0 .71-.32.71-.71v-4.64z"/></svg>