<svg xmlns="http://www.w3.org/2000/svg" width="24" height="24" viewBox="0 0 24 24" fill="currentColor"><path d="m15.014 9.911-2.369.81a2.87 2.87 0 0 0-1.789 1.74l-.912 2.563c-.226.635-1.162.635-1.388 0l-.912-2.564a2.87 2.87 0 0 0-1.79-1.738l-2.368-.81a.693.693 0 0 1 0-1.323l2.369-.81a2.87 2.87 0 0 0 1.789-1.74l.912-2.563c.226-.635 1.162-.635 1.388 0l.912 2.564a2.87 2.87 0 0 0 1.79 1.738l2.367.81a.693.693 0 0 1 0 1.323Zm5.694 6.736-1.42.486c-.506.173-.901.557-1.074 1.043l-.548 1.539c-.135.38-.697.38-.832 0l-.548-1.539a1.722 1.722 0 0 0-1.073-1.043l-1.421-.486a.416.416 0 0 1 0-.794l1.42-.486c.506-.173.901-.557 1.074-1.043l.548-1.539c.135-.38.697-.38.832 0l.548 1.539c.173.486.568.87 1.073 1.043l1.421.486c.39.133.39.66 0 .794Z"/></svg>