<svg width="24" height="24" viewBox="0 0 24 24" xmlns="http://www.w3.org/2000/svg" fill="currentColor"><path d="M15 22H9c-2.21 0-4-1.79-4-4V6c0-2.21 1.79-4 4-4h6c2.21 0 4 1.79 4 4v12c0 2.21-1.79 4-4 4zM9 4c-1.1 0-2 .9-2 2v12c0 1.1.9 2 2 2h6c1.1 0 2-.9 2-2V6c0-1.1-.9-2-2-2H9zm5.25 12h-4.5C8.79 16 8 15.21 8 14.25v-5c0-.96.79-1.75 1.75-1.75h4.5c.96 0 1.75.79 1.75 1.75v5c0 .96-.79 1.75-1.75 1.75zm-4.5-7c-.14 0-.25.11-.25.25v5c0 .14.11.25.25.25h4.5c.14 0 .25-.11.25-.25v-5c0-.14-.11-.25-.25-.25h-4.5zM12 19c.55 0 1-.45 1-1s-.45-1-1-1-1 .45-1 1 .45 1 1 1zm2-13.25c0-.41-.34-.75-.75-.75h-2.5c-.41 0-.75.34-.75.75s.34.75.75.75h2.5c.41 0 .75-.34.75-.75z"/></svg>