<svg xmlns="http://www.w3.org/2000/svg" width="24" height="24" viewBox="0 0 24 24" fill="currentColor"><path d="M7.5 8h-4c-.28 0-.5-.22-.5-.5v-4c0-.28.22-.5.5-.5h4c.28 0 .5.22.5.5v4c0 .28-.22.5-.5.5M8 20.5v-4c0-.28-.22-.5-.5-.5h-4c-.28 0-.5.22-.5.5v4c0 .28.22.5.5.5h4c.28 0 .5-.22.5-.5M8 14v-4c0-.28-.22-.5-.5-.5h-4c-.28 0-.5.22-.5.5v4c0 .28.22.5.5.5h4c.28 0 .5-.22.5-.5m6.5-6.5v-4c0-.28-.22-.5-.5-.5h-4c-.28 0-.5.22-.5.5v4c0 .28.22.5.5.5h4c.28 0 .5-.22.5-.5m0 13v-4c0-.28-.22-.5-.5-.5h-4c-.28 0-.5.22-.5.5v4c0 .28.22.5.5.5h4c.28 0 .5-.22.5-.5m0-6.5v-4c0-.28-.22-.5-.5-.5h-4c-.28 0-.5.22-.5.5v4c0 .28.22.5.5.5h4c.28 0 .5-.22.5-.5M21 7.5v-4c0-.28-.22-.5-.5-.5h-4c-.28 0-.5.22-.5.5v4c0 .28.22.5.5.5h4c.28 0 .5-.22.5-.5m0 13v-4c0-.28-.22-.5-.5-.5h-4c-.28 0-.5.22-.5.5v4c0 .28.22.5.5.5h4c.28 0 .5-.22.5-.5m0-6.5v-4c0-.28-.22-.5-.5-.5h-4c-.28 0-.5.22-.5.5v4c0 .28.22.5.5.5h4c.28 0 .5-.22.5-.5"/></svg>