<svg xmlns="http://www.w3.org/2000/svg" width="24" height="24" viewBox="0 0 24 24" fill="currentColor"><path d="M16.5 12c0 2.48-2.02 4.5-4.5 4.5S7.5 14.48 7.5 12 9.52 7.5 12 7.5s4.5 2.02 4.5 4.5M12 5.5c.55 0 1-.45 1-1V3c0-.55-.45-1-1-1s-1 .45-1 1v1.5c0 .55.45 1 1 1m0 13c-.55 0-1 .45-1 1V21c0 .55.45 1 1 1s1-.45 1-1v-1.5c0-.55-.45-1-1-1m5.3-10.8c.26 0 .51-.1.71-.29l1.06-1.06a.996.996 0 1 0-1.41-1.41L16.6 5.99a.996.996 0 0 0 0 1.41c.19.2.45.3.7.3M5.99 16.6l-1.06 1.06a.996.996 0 0 0 .71 1.7c.26 0 .51-.1.71-.29l1.06-1.06a.996.996 0 0 0 0-1.41c-.39-.39-1.03-.39-1.42 0M21 11h-1.5c-.55 0-1 .45-1 1s.45 1 1 1H21c.55 0 1-.45 1-1s-.45-1-1-1M5.5 12c0-.55-.45-1-1-1H3c-.55 0-1 .45-1 1s.45 1 1 1h1.5c.55 0 1-.45 1-1m12.51 4.6a.996.996 0 1 0-1.41 1.41l1.06 1.06c.2.2.45.29.71.29s.51-.1.71-.29a.996.996 0 0 0 0-1.41zM5.99 7.4c.19.2.45.3.71.3s.51-.1.7-.3a.996.996 0 0 0 0-1.41L6.34 4.93a.996.996 0 1 0-1.41 1.41z"/></svg>