<svg xmlns="http://www.w3.org/2000/svg" width="24" height="24" viewBox="0 0 24 24" fill="currentColor"><path d="M20.95 19.44c.18.31-.1.67-.45.58l-1.83-.48a.5.5 0 0 0-.61.35l-.49 1.81c-.09.34-.56.4-.73.1l-3.11-5.36a8.45 8.45 0 0 0 4.18-2.24zm-17.44.58 1.83-.49a.5.5 0 0 1 .61.35l.49 1.82c.09.34.56.4.73.1l3.11-5.35a8.45 8.45 0 0 1-4.18-2.24l-3.04 5.24c-.18.3.1.66.45.57m14.8-11.74c0 3.47-2.83 6.28-6.31 6.28s-6.31-2.81-6.31-6.28S8.51 2 12 2s6.31 2.81 6.31 6.28m-2.75-1.73-2.1-.24-.88-1.91c-.23-.5-.94-.5-1.17 0l-.87 1.91-2.1.24c-.55.06-.77.73-.36 1.1l1.56 1.42-.42 2.06c-.11.54.47.95.95.68L12 10.78l1.84 1.04c.48.27 1.06-.15.95-.68l-.42-2.06 1.56-1.42c.4-.38.18-1.05-.37-1.11"/></svg>