<svg width="24" height="24" viewBox="0 0 24 24" xmlns="http://www.w3.org/2000/svg" fill="currentColor"><path d="M17.99 5.4h-3.06l1.26-1.21a.996.996 0 10-1.38-1.44L12.06 5.4h-.11L9.19 2.75c-.4-.38-1.03-.37-1.42.03a.996.996 0 00.03 1.41L9.06 5.4H5.99c-2.21 0-4 1.79-4 4v6.13c0 1.86 1.28 3.41 3 3.86v.08c0 .55.45 1 1 1h2c.53 0 .95-.41.99-.93h6.03c.04.52.46.93.99.93h2c.55 0 1-.45 1-1v-.08c1.72-.45 3-2 3-3.86V9.4c-.01-2.2-1.8-4-4.01-4zm-1 9.07c0 1.1-.9 2-2 2h-8c-1.1 0-2-.9-2-2v-4c0-1.1.9-2 2-2h8c1.1 0 2 .9 2 2v4zm2.5 2c-.55 0-1-.45-1-1s.45-1 1-1 1 .45 1 1-.45 1-1 1zm0-3c-.55 0-1-.45-1-1s.45-1 1-1 1 .45 1 1-.45 1-1 1z"/></svg>