<svg xmlns="http://www.w3.org/2000/svg" width="24" height="24" viewBox="0 0 24 24" fill="currentColor"><path d="M8.66 19.31c6.79 0 10.51-5.63 10.51-10.51 0-.16 0-.32-.01-.48.72-.51 1.34-1.16 1.84-1.9-.67.3-1.39.49-2.12.58.77-.46 1.35-1.19 1.62-2.04-.72.43-1.52.73-2.35.9a3.7 3.7 0 0 0-5.23-.16c-.96.9-1.37 2.25-1.07 3.53-2.96-.16-5.72-1.56-7.6-3.87a3.69 3.69 0 0 0 1.15 4.93c-.59-.02-1.16-.18-1.68-.46v.05c0 1.76 1.24 3.27 2.96 3.62-.54.15-1.11.17-1.67.06.48 1.5 1.87 2.53 3.45 2.56a7.34 7.34 0 0 1-4.59 1.58c-.29 0-.59-.02-.88-.05a10.5 10.5 0 0 0 5.67 1.66"/></svg>