<svg width="24" height="24" viewBox="0 0 24 24" xmlns="http://www.w3.org/2000/svg" fill="currentColor"><path d="M19.5 12.5V9.7c0-2.6-2-4.8-4.6-5 0-.1.1-.3.1-.5 0-.6-.6-1.2-1.3-1.2-.7 0-1.2.6-1.2 1.2 0 .2 0 .3.1.5h-1.2c.1-.2.1-.3.1-.5 0-.6-.6-1.2-1.3-1.2C9.5 3 9 3.6 9 4.2c0 .2.1.4.1.5-2.6.3-4.6 2.4-4.6 5v2.8c-1 .9-1.5 2.2-1.5 3.6v.2c0 2.8 2.2 5 5 5h8c2.8 0 5-2.2 5-5v-.2c0-1.4-.5-2.7-1.5-3.6zm-13-2.8c0-1.7 1.3-3 3-3h5c1.7 0 3 1.3 3 3v1l-.4-.3c-.1-.1-.2-.3-.3-.5-.3-1.3-1.5-2.2-2.8-2.2h-4c-1.3 0-2.5.9-2.8 2.2 0 .2-.1.3-.3.4l-.4.4v-1zM19 16.2c0 1.7-1.3 3-3 3H8c-1.7 0-3-1.3-3-3V16c0-.9.4-1.7 1-2.3l.1-.1 2.1-1.9c.1 0 .1-.1.1-.1.4-.2.7-.7.8-1.2.1-.4.5-.7.9-.7h4c.4 0 .8.3.9.7.1.5.4 1 .8 1.3l.1.1 2.1 1.9.1.1c.7.6 1 1.4 1 2.3v.1z"/></svg>